<?xml version="1.0" encoding="UTF-8" standalone="no"?>
<!DOCTYPE svg PUBLIC "-//W3C//DTD SVG 1.1//EN"
 "http://www.w3.org/Graphics/SVG/1.1/DTD/svg11.dtd">
<!-- Generated by graphviz version 2.43.0 (0)
 -->
<!-- Title: ft_cam_calc_base_vectors Pages: 1 -->
<svg width="530pt" height="104pt"
 viewBox="0.00 0.00 530.00 104.00" xmlns="http://www.w3.org/2000/svg" xmlns:xlink="http://www.w3.org/1999/xlink">
<g id="graph0" class="graph" transform="scale(1 1) rotate(0) translate(4 100)">
<title>ft_cam_calc_base_vectors</title>
<!-- Node1 -->
<g id="node1" class="node">
<title>Node1</title>
<g id="a_node1"><a xlink:title="Calculates basis vectors u, v, w.">
<polygon fill="#bfbfbf" stroke="black" points="378,-38.5 378,-57.5 522,-57.5 522,-38.5 378,-38.5"/>
<text text-anchor="middle" x="450" y="-45.5" font-family="Helvetica,sans-Serif" font-size="10.00">ft_cam_calc_base_vectors</text>
</a>
</g>
</g>
<!-- Node2 -->
<g id="node2" class="node">
<title>Node2</title>
<g id="a_node2"><a xlink:href="camera_8h.html#a283b142012bbcea27c39f49e270d8780" target="_top" xlink:title="Initializes camera parameters.">
<polygon fill="none" stroke="black" points="238.5,-76.5 238.5,-95.5 309.5,-95.5 309.5,-76.5 238.5,-76.5"/>
<text text-anchor="middle" x="274" y="-83.5" font-family="Helvetica,sans-Serif" font-size="10.00">ft_cam_init</text>
</a>
</g>
</g>
<!-- Node1&#45;&gt;Node2 -->
<g id="edge1" class="edge">
<title>Node1&#45;&gt;Node2</title>
<path fill="none" stroke="midnightblue" d="M395.09,-59.77C367.2,-65.86 333.99,-73.12 309.57,-78.45"/>
<polygon fill="midnightblue" stroke="midnightblue" points="396.07,-63.14 405.09,-57.59 394.58,-56.3 396.07,-63.14"/>
</g>
<!-- Node5 -->
<g id="node5" class="node">
<title>Node5</title>
<g id="a_node5"><a xlink:href="render_8h.html#a0225ca8a98c8d5cfe2e9d259b5788e33" target="_top" xlink:title="Manipulates the camera with a keypress.">
<polygon fill="none" stroke="black" points="231,-38.5 231,-57.5 317,-57.5 317,-38.5 231,-38.5"/>
<text text-anchor="middle" x="274" y="-45.5" font-family="Helvetica,sans-Serif" font-size="10.00">ft_manip_cam</text>
</a>
</g>
</g>
<!-- Node1&#45;&gt;Node5 -->
<g id="edge4" class="edge">
<title>Node1&#45;&gt;Node5</title>
<path fill="none" stroke="midnightblue" d="M367.72,-48C350.21,-48 332.38,-48 317.1,-48"/>
<polygon fill="midnightblue" stroke="midnightblue" points="367.98,-51.5 377.98,-48 367.98,-44.5 367.98,-51.5"/>
</g>
<!-- Node7 -->
<g id="node7" class="node">
<title>Node7</title>
<g id="a_node7"><a xlink:href="render_8h.html#a8b0cab63a8053d366bbefead351d039a" target="_top" xlink:title="Rotates the camera with the mouse.">
<polygon fill="none" stroke="black" points="206,-0.5 206,-19.5 342,-19.5 342,-0.5 206,-0.5"/>
<text text-anchor="middle" x="274" y="-7.5" font-family="Helvetica,sans-Serif" font-size="10.00">ft_mouse_hook_rot_cam</text>
</a>
</g>
</g>
<!-- Node1&#45;&gt;Node7 -->
<g id="edge6" class="edge">
<title>Node1&#45;&gt;Node7</title>
<path fill="none" stroke="midnightblue" d="M395.19,-36.25C370.58,-30.87 341.81,-24.59 318.59,-19.52"/>
<polygon fill="midnightblue" stroke="midnightblue" points="394.58,-39.7 405.09,-38.41 396.07,-32.86 394.58,-39.7"/>
</g>
<!-- Node3 -->
<g id="node3" class="node">
<title>Node3</title>
<g id="a_node3"><a xlink:href="render_8h.html#a5ffbfa92a6da595a38ba795014ee593c" target="_top" xlink:title="Initializes the render struct.">
<polygon fill="none" stroke="black" points="83,-76.5 83,-95.5 164,-95.5 164,-76.5 83,-76.5"/>
<text text-anchor="middle" x="123.5" y="-83.5" font-family="Helvetica,sans-Serif" font-size="10.00">ft_render_init</text>
</a>
</g>
</g>
<!-- Node2&#45;&gt;Node3 -->
<g id="edge2" class="edge">
<title>Node2&#45;&gt;Node3</title>
<path fill="none" stroke="midnightblue" d="M228.18,-86C207.77,-86 183.81,-86 164.08,-86"/>
<polygon fill="midnightblue" stroke="midnightblue" points="228.18,-89.5 238.18,-86 228.18,-82.5 228.18,-89.5"/>
</g>
<!-- Node4 -->
<g id="node4" class="node">
<title>Node4</title>
<g id="a_node4"><a xlink:href="main_8c.html#a3c04138a5bfe5d72780bb7e82a18e627" target="_top" xlink:title=" ">
<polygon fill="none" stroke="black" points="0,-76.5 0,-95.5 41,-95.5 41,-76.5 0,-76.5"/>
<text text-anchor="middle" x="20.5" y="-83.5" font-family="Helvetica,sans-Serif" font-size="10.00">main</text>
</a>
</g>
</g>
<!-- Node3&#45;&gt;Node4 -->
<g id="edge3" class="edge">
<title>Node3&#45;&gt;Node4</title>
<path fill="none" stroke="midnightblue" d="M72.63,-86C61.39,-86 50.12,-86 41.02,-86"/>
<polygon fill="midnightblue" stroke="midnightblue" points="72.87,-89.5 82.87,-86 72.87,-82.5 72.87,-89.5"/>
</g>
<!-- Node6 -->
<g id="node6" class="node">
<title>Node6</title>
<g id="a_node6"><a xlink:href="render_8h.html#ad4c2931e2e9392390f987c8ca3c99a5d" target="_top" xlink:title="Branches to the corresponding manipulation function.">
<polygon fill="none" stroke="black" points="77,-38.5 77,-57.5 170,-57.5 170,-38.5 77,-38.5"/>
<text text-anchor="middle" x="123.5" y="-45.5" font-family="Helvetica,sans-Serif" font-size="10.00">ft_manip_scene</text>
</a>
</g>
</g>
<!-- Node5&#45;&gt;Node6 -->
<g id="edge5" class="edge">
<title>Node5&#45;&gt;Node6</title>
<path fill="none" stroke="midnightblue" d="M220.8,-48C204.28,-48 186.16,-48 170.14,-48"/>
<polygon fill="midnightblue" stroke="midnightblue" points="220.84,-51.5 230.84,-48 220.84,-44.5 220.84,-51.5"/>
</g>
</g>
</svg>
