<?xml version="1.0" encoding="UTF-8" standalone="no"?>
<!DOCTYPE svg PUBLIC "-//W3C//DTD SVG 1.1//EN"
 "http://www.w3.org/Graphics/SVG/1.1/DTD/svg11.dtd">
<!-- Generated by graphviz version 2.43.0 (0)
 -->
<!-- Title: inc/camera.h Pages: 1 -->
<svg width="4034pt" height="274pt"
 viewBox="0.00 0.00 4034.00 274.00" xmlns="http://www.w3.org/2000/svg" xmlns:xlink="http://www.w3.org/1999/xlink">
<g id="graph0" class="graph" transform="scale(1 1) rotate(0) translate(4 270)">
<title>inc/camera.h</title>
<!-- Node1 -->
<g id="node1" class="node">
<title>Node1</title>
<g id="a_node1"><a xlink:title=" ">
<polygon fill="#bfbfbf" stroke="black" points="1995,-246.5 1995,-265.5 2075,-265.5 2075,-246.5 1995,-246.5"/>
<text text-anchor="middle" x="2035" y="-253.5" font-family="Helvetica,sans-Serif" font-size="10.00">inc/camera.h</text>
</a>
</g>
</g>
<!-- Node2 -->
<g id="node2" class="node">
<title>Node2</title>
<g id="a_node2"><a xlink:href="debug__print_8h.html" target="_top" xlink:title=" ">
<polygon fill="none" stroke="black" points="654.5,-190.5 654.5,-209.5 755.5,-209.5 755.5,-190.5 654.5,-190.5"/>
<text text-anchor="middle" x="705" y="-197.5" font-family="Helvetica,sans-Serif" font-size="10.00">inc/debug_print.h</text>
</a>
</g>
</g>
<!-- Node1&#45;&gt;Node2 -->
<g id="edge1" class="edge">
<title>Node1&#45;&gt;Node2</title>
<path fill="none" stroke="midnightblue" d="M1984.66,-254.53C1815.34,-252.68 1250.99,-244.16 786,-210 776.12,-209.27 765.59,-208.27 755.5,-207.2"/>
<polygon fill="midnightblue" stroke="midnightblue" points="1984.73,-258.03 1994.77,-254.64 1984.81,-251.04 1984.73,-258.03"/>
</g>
<!-- Node5 -->
<g id="node5" class="node">
<title>Node5</title>
<g id="a_node5"><a xlink:href="mini_r_t_8h.html" target="_top" xlink:title=" ">
<polygon fill="none" stroke="black" points="0,-62 0,-81 76,-81 76,-62 0,-62"/>
<text text-anchor="middle" x="38" y="-69" font-family="Helvetica,sans-Serif" font-size="10.00">inc/miniRT.h</text>
</a>
</g>
</g>
<!-- Node1&#45;&gt;Node5 -->
<g id="edge4" class="edge">
<title>Node1&#45;&gt;Node5</title>
<path fill="none" stroke="midnightblue" d="M1984.92,-254.69C1803.62,-253.3 1182.01,-245.96 987,-210 909.6,-195.73 888.2,-191.5 819,-154 799.53,-143.45 800.71,-130.83 780,-123 635.35,-68.28 237.28,-114 85,-87 77.26,-85.63 69.02,-83.37 61.63,-81.04"/>
<polygon fill="midnightblue" stroke="midnightblue" points="1984.95,-258.19 1994.97,-254.77 1985,-251.2 1984.95,-258.19"/>
</g>
<!-- Node7 -->
<g id="node7" class="node">
<title>Node7</title>
<g id="a_node7"><a xlink:href="parse_8h.html" target="_top" xlink:title=" ">
<polygon fill="none" stroke="black" points="2797,-190.5 2797,-209.5 2867,-209.5 2867,-190.5 2797,-190.5"/>
<text text-anchor="middle" x="2832" y="-197.5" font-family="Helvetica,sans-Serif" font-size="10.00">inc/parse.h</text>
</a>
</g>
</g>
<!-- Node1&#45;&gt;Node7 -->
<g id="edge6" class="edge">
<title>Node1&#45;&gt;Node7</title>
<path fill="none" stroke="midnightblue" d="M2085.28,-251.59C2234.11,-241.51 2669.95,-211.98 2796.91,-203.38"/>
<polygon fill="midnightblue" stroke="midnightblue" points="2084.81,-248.12 2075.07,-252.29 2085.28,-255.1 2084.81,-248.12"/>
</g>
<!-- Node12 -->
<g id="node12" class="node">
<title>Node12</title>
<g id="a_node12"><a xlink:href="parse__bonus_8h.html" target="_top" xlink:title=" ">
<polygon fill="none" stroke="black" points="996,-190.5 996,-209.5 1100,-209.5 1100,-190.5 996,-190.5"/>
<text text-anchor="middle" x="1048" y="-197.5" font-family="Helvetica,sans-Serif" font-size="10.00">inc/parse_bonus.h</text>
</a>
</g>
</g>
<!-- Node1&#45;&gt;Node12 -->
<g id="edge11" class="edge">
<title>Node1&#45;&gt;Node12</title>
<path fill="none" stroke="midnightblue" d="M1984.68,-252.25C1816.02,-243.02 1271.61,-213.23 1100.19,-203.86"/>
<polygon fill="midnightblue" stroke="midnightblue" points="1984.6,-255.75 1994.78,-252.8 1984.98,-248.76 1984.6,-255.75"/>
</g>
<!-- Node15 -->
<g id="node15" class="node">
<title>Node15</title>
<g id="a_node15"><a xlink:href="ray__bonus_8h.html" target="_top" xlink:title=" ">
<polygon fill="none" stroke="black" points="1988.5,-190.5 1988.5,-209.5 2081.5,-209.5 2081.5,-190.5 1988.5,-190.5"/>
<text text-anchor="middle" x="2035" y="-197.5" font-family="Helvetica,sans-Serif" font-size="10.00">inc/ray_bonus.h</text>
</a>
</g>
</g>
<!-- Node1&#45;&gt;Node15 -->
<g id="edge15" class="edge">
<title>Node1&#45;&gt;Node15</title>
<path fill="none" stroke="midnightblue" d="M2035,-235.8C2035,-226.91 2035,-216.78 2035,-209.75"/>
<polygon fill="midnightblue" stroke="midnightblue" points="2031.5,-236.08 2035,-246.08 2038.5,-236.08 2031.5,-236.08"/>
</g>
<!-- Node39 -->
<g id="node19" class="node">
<title>Node39</title>
<g id="a_node19"><a xlink:href="render_8h.html" target="_top" xlink:title=" ">
<polygon fill="none" stroke="black" points="2684,-129 2684,-148 2758,-148 2758,-129 2684,-129"/>
<text text-anchor="middle" x="2721" y="-136" font-family="Helvetica,sans-Serif" font-size="10.00">inc/render.h</text>
</a>
</g>
</g>
<!-- Node1&#45;&gt;Node39 -->
<g id="edge50" class="edge">
<title>Node1&#45;&gt;Node39</title>
<path fill="none" stroke="midnightblue" d="M2085.28,-246.53C2216.68,-224.41 2568.1,-165.24 2683.62,-145.79"/>
<polygon fill="midnightblue" stroke="midnightblue" points="2084.38,-243.14 2075.1,-248.25 2085.54,-250.04 2084.38,-243.14"/>
</g>
<!-- Node55 -->
<g id="node35" class="node">
<title>Node55</title>
<g id="a_node35"><a xlink:href="render__bonus_8h.html" target="_top" xlink:title=" ">
<polygon fill="none" stroke="black" points="1118.5,-129 1118.5,-148 1227.5,-148 1227.5,-129 1118.5,-129"/>
<text text-anchor="middle" x="1173" y="-136" font-family="Helvetica,sans-Serif" font-size="10.00">inc/render_bonus.h</text>
</a>
</g>
</g>
<!-- Node1&#45;&gt;Node55 -->
<g id="edge51" class="edge">
<title>Node1&#45;&gt;Node55</title>
<path fill="none" stroke="midnightblue" d="M1984.94,-248.29C1834.03,-228.07 1384.24,-167.8 1227.55,-146.81"/>
<polygon fill="midnightblue" stroke="midnightblue" points="1984.49,-251.76 1994.87,-249.62 1985.42,-244.83 1984.49,-251.76"/>
</g>
<!-- Node86 -->
<g id="node49" class="node">
<title>Node86</title>
<g id="a_node49"><a xlink:href="camera_8c.html" target="_top" xlink:title=" ">
<polygon fill="none" stroke="black" points="2885.5,-190.5 2885.5,-209.5 2964.5,-209.5 2964.5,-190.5 2885.5,-190.5"/>
<text text-anchor="middle" x="2925" y="-197.5" font-family="Helvetica,sans-Serif" font-size="10.00">src/camera.c</text>
</a>
</g>
</g>
<!-- Node1&#45;&gt;Node86 -->
<g id="edge52" class="edge">
<title>Node1&#45;&gt;Node86</title>
<path fill="none" stroke="midnightblue" d="M2085.55,-254.55C2216.57,-252.9 2577.69,-245.23 2876,-210 2879.09,-209.63 2882.28,-209.19 2885.49,-208.71"/>
<polygon fill="midnightblue" stroke="midnightblue" points="2085.38,-251.05 2075.42,-254.67 2085.46,-258.05 2085.38,-251.05"/>
</g>
<!-- Node87 -->
<g id="node50" class="node">
<title>Node87</title>
<g id="a_node50"><a xlink:href="camera__movement_8c.html" target="_top" xlink:title=" ">
<polygon fill="none" stroke="black" points="2982.5,-190.5 2982.5,-209.5 3119.5,-209.5 3119.5,-190.5 2982.5,-190.5"/>
<text text-anchor="middle" x="3051" y="-197.5" font-family="Helvetica,sans-Serif" font-size="10.00">src/camera_movement.c</text>
</a>
</g>
</g>
<!-- Node1&#45;&gt;Node87 -->
<g id="edge53" class="edge">
<title>Node1&#45;&gt;Node87</title>
<path fill="none" stroke="midnightblue" d="M2085.39,-253.8C2226.11,-250.18 2635.2,-237.88 2974,-210 2976.68,-209.78 2979.42,-209.54 2982.18,-209.28"/>
<polygon fill="midnightblue" stroke="midnightblue" points="2085.24,-250.3 2075.33,-254.05 2085.42,-257.3 2085.24,-250.3"/>
</g>
<!-- Node3 -->
<g id="node3" class="node">
<title>Node3</title>
<g id="a_node3"><a xlink:href="debug__print__entity_8c.html" target="_top" xlink:title=" ">
<polygon fill="none" stroke="black" points="488,-129 488,-148 620,-148 620,-129 488,-129"/>
<text text-anchor="middle" x="554" y="-136" font-family="Helvetica,sans-Serif" font-size="10.00">src/debug_print_entity.c</text>
</a>
</g>
</g>
<!-- Node2&#45;&gt;Node3 -->
<g id="edge2" class="edge">
<title>Node2&#45;&gt;Node3</title>
<path fill="none" stroke="midnightblue" d="M673.99,-186.78C644.65,-175.22 601.37,-158.16 575.59,-148.01"/>
<polygon fill="midnightblue" stroke="midnightblue" points="672.78,-190.07 683.37,-190.48 675.34,-183.55 672.78,-190.07"/>
</g>
<!-- Node4 -->
<g id="node4" class="node">
<title>Node4</title>
<g id="a_node4"><a xlink:href="debug__print__struct_8c.html" target="_top" xlink:title=" ">
<polygon fill="none" stroke="black" points="638.5,-129 638.5,-148 771.5,-148 771.5,-129 638.5,-129"/>
<text text-anchor="middle" x="705" y="-136" font-family="Helvetica,sans-Serif" font-size="10.00">src/debug_print_struct.c</text>
</a>
</g>
</g>
<!-- Node2&#45;&gt;Node4 -->
<g id="edge3" class="edge">
<title>Node2&#45;&gt;Node4</title>
<path fill="none" stroke="midnightblue" d="M705,-180.32C705,-169.5 705,-156.4 705,-148.01"/>
<polygon fill="midnightblue" stroke="midnightblue" points="701.5,-180.48 705,-190.48 708.5,-180.48 701.5,-180.48"/>
</g>
<!-- Node6 -->
<g id="node6" class="node">
<title>Node6</title>
<g id="a_node6"><a xlink:href="main_8c.html" target="_top" xlink:title=" ">
<polygon fill="none" stroke="black" points="4.5,-0.5 4.5,-19.5 71.5,-19.5 71.5,-0.5 4.5,-0.5"/>
<text text-anchor="middle" x="38" y="-7.5" font-family="Helvetica,sans-Serif" font-size="10.00">src/main.c</text>
</a>
</g>
</g>
<!-- Node5&#45;&gt;Node6 -->
<g id="edge5" class="edge">
<title>Node5&#45;&gt;Node6</title>
<path fill="none" stroke="midnightblue" d="M38,-51.82C38,-41 38,-27.9 38,-19.51"/>
<polygon fill="midnightblue" stroke="midnightblue" points="34.5,-51.98 38,-61.98 41.5,-51.98 34.5,-51.98"/>
</g>
<!-- Node8 -->
<g id="node8" class="node">
<title>Node8</title>
<g id="a_node8"><a xlink:href="parse_8c.html" target="_top" xlink:title=" ">
<polygon fill="none" stroke="black" points="3016.5,-129 3016.5,-148 3085.5,-148 3085.5,-129 3016.5,-129"/>
<text text-anchor="middle" x="3051" y="-136" font-family="Helvetica,sans-Serif" font-size="10.00">src/parse.c</text>
</a>
</g>
</g>
<!-- Node7&#45;&gt;Node8 -->
<g id="edge7" class="edge">
<title>Node7&#45;&gt;Node8</title>
<path fill="none" stroke="midnightblue" d="M2877.09,-188.28C2912.57,-179.64 2963.16,-166.84 3007,-154 3013.17,-152.19 3019.79,-150.1 3025.96,-148.07"/>
<polygon fill="midnightblue" stroke="midnightblue" points="2875.94,-184.96 2867.05,-190.72 2877.59,-191.76 2875.94,-184.96"/>
</g>
<!-- Node9 -->
<g id="node9" class="node">
<title>Node9</title>
<g id="a_node9"><a xlink:href="parse__entity___a_c_l_8c.html" target="_top" xlink:title=" ">
<polygon fill="none" stroke="black" points="3103.5,-129 3103.5,-148 3230.5,-148 3230.5,-129 3103.5,-129"/>
<text text-anchor="middle" x="3167" y="-136" font-family="Helvetica,sans-Serif" font-size="10.00">src/parse_entity_ACL.c</text>
</a>
</g>
</g>
<!-- Node7&#45;&gt;Node9 -->
<g id="edge8" class="edge">
<title>Node7&#45;&gt;Node9</title>
<path fill="none" stroke="midnightblue" d="M2877.38,-189.99C2975.28,-172.31 3001.52,-171.13 3095,-154 3105.03,-152.16 3115.83,-150.06 3125.93,-148.03"/>
<polygon fill="midnightblue" stroke="midnightblue" points="2876.56,-186.58 2867.35,-191.81 2877.82,-193.47 2876.56,-186.58"/>
</g>
<!-- Node10 -->
<g id="node10" class="node">
<title>Node10</title>
<g id="a_node10"><a xlink:href="parse__entity__sp__pl__cy_8c.html" target="_top" xlink:title=" ">
<polygon fill="none" stroke="black" points="2776.5,-123.5 2776.5,-153.5 2887.5,-153.5 2887.5,-123.5 2776.5,-123.5"/>
<text text-anchor="start" x="2784.5" y="-141.5" font-family="Helvetica,sans-Serif" font-size="10.00">src/parse_entity_sp</text>
<text text-anchor="middle" x="2832" y="-130.5" font-family="Helvetica,sans-Serif" font-size="10.00">_pl_cy.c</text>
</a>
</g>
</g>
<!-- Node7&#45;&gt;Node10 -->
<g id="edge9" class="edge">
<title>Node7&#45;&gt;Node10</title>
<path fill="none" stroke="midnightblue" d="M2832,-180.23C2832,-171.59 2832,-161.5 2832,-153.52"/>
<polygon fill="midnightblue" stroke="midnightblue" points="2828.5,-180.48 2832,-190.48 2835.5,-180.48 2828.5,-180.48"/>
</g>
<!-- Node11 -->
<g id="node11" class="node">
<title>Node11</title>
<g id="a_node11"><a xlink:href="parse__line_8c.html" target="_top" xlink:title=" ">
<polygon fill="none" stroke="black" points="2906,-129 2906,-148 2998,-148 2998,-129 2906,-129"/>
<text text-anchor="middle" x="2952" y="-136" font-family="Helvetica,sans-Serif" font-size="10.00">src/parse_line.c</text>
</a>
</g>
</g>
<!-- Node7&#45;&gt;Node11 -->
<g id="edge10" class="edge">
<title>Node7&#45;&gt;Node11</title>
<path fill="none" stroke="midnightblue" d="M2858.18,-186.02C2881.45,-174.48 2914.8,-157.94 2934.84,-148.01"/>
<polygon fill="midnightblue" stroke="midnightblue" points="2856.6,-182.9 2849.19,-190.48 2859.71,-189.17 2856.6,-182.9"/>
</g>
<!-- Node12&#45;&gt;Node5 -->
<g id="edge12" class="edge">
<title>Node12&#45;&gt;Node5</title>
<path fill="none" stroke="midnightblue" d="M1061.33,-181.73C1072.8,-164.65 1085.28,-138.85 1070,-123 1031.99,-83.58 138.99,-96.15 85,-87 77.25,-85.69 69.01,-83.45 61.62,-81.11"/>
<polygon fill="midnightblue" stroke="midnightblue" points="1058.24,-180.03 1055.24,-190.2 1063.92,-184.12 1058.24,-180.03"/>
</g>
<!-- Node13 -->
<g id="node13" class="node">
<title>Node13</title>
<g id="a_node13"><a xlink:href="parse__bonus_8c.html" target="_top" xlink:title=" ">
<polygon fill="none" stroke="black" points="828,-129 828,-148 932,-148 932,-129 828,-129"/>
<text text-anchor="middle" x="880" y="-136" font-family="Helvetica,sans-Serif" font-size="10.00">src/parse_bonus.c</text>
</a>
</g>
</g>
<!-- Node12&#45;&gt;Node13 -->
<g id="edge13" class="edge">
<title>Node12&#45;&gt;Node13</title>
<path fill="none" stroke="midnightblue" d="M1014.35,-187.08C981.7,-175.52 932.95,-158.25 904.03,-148.01"/>
<polygon fill="midnightblue" stroke="midnightblue" points="1013.33,-190.44 1023.93,-190.48 1015.67,-183.84 1013.33,-190.44"/>
</g>
<!-- Node14 -->
<g id="node14" class="node">
<title>Node14</title>
<g id="a_node14"><a xlink:href="parse__entity__sp__pl__cy__bonus_8c.html" target="_top" xlink:title=" ">
<polygon fill="none" stroke="black" points="950.5,-123.5 950.5,-153.5 1061.5,-153.5 1061.5,-123.5 950.5,-123.5"/>
<text text-anchor="start" x="958.5" y="-141.5" font-family="Helvetica,sans-Serif" font-size="10.00">src/parse_entity_sp</text>
<text text-anchor="middle" x="1006" y="-130.5" font-family="Helvetica,sans-Serif" font-size="10.00">_pl_cy_bonus.c</text>
</a>
</g>
</g>
<!-- Node12&#45;&gt;Node14 -->
<g id="edge14" class="edge">
<title>Node12&#45;&gt;Node14</title>
<path fill="none" stroke="midnightblue" d="M1036.17,-182.25C1029.78,-173.19 1021.97,-162.12 1015.9,-153.52"/>
<polygon fill="midnightblue" stroke="midnightblue" points="1033.36,-184.32 1041.98,-190.48 1039.07,-180.29 1033.36,-184.32"/>
</g>
<!-- Node16 -->
<g id="node16" class="node">
<title>Node16</title>
<g id="a_node16"><a xlink:href="hit__manager_8h.html" target="_top" xlink:title=" ">
<polygon fill="none" stroke="red" points="1913,-129 1913,-148 2017,-148 2017,-129 1913,-129"/>
<text text-anchor="middle" x="1965" y="-136" font-family="Helvetica,sans-Serif" font-size="10.00">inc/hit_manager.h</text>
</a>
</g>
</g>
<!-- Node15&#45;&gt;Node16 -->
<g id="edge16" class="edge">
<title>Node15&#45;&gt;Node16</title>
<path fill="none" stroke="midnightblue" d="M2017.32,-183.97C2003.93,-172.59 1986.02,-157.37 1975.01,-148.01"/>
<polygon fill="midnightblue" stroke="midnightblue" points="2015.08,-186.67 2024.97,-190.48 2019.62,-181.33 2015.08,-186.67"/>
</g>
<!-- Node22 -->
<g id="node18" class="node">
<title>Node22</title>
<g id="a_node18"><a xlink:href="hit__manager__bonus_8h.html" target="_top" xlink:title=" ">
<polygon fill="none" stroke="red" points="2035.5,-129 2035.5,-148 2174.5,-148 2174.5,-129 2035.5,-129"/>
<text text-anchor="middle" x="2105" y="-136" font-family="Helvetica,sans-Serif" font-size="10.00">inc/hit_manager_bonus.h</text>
</a>
</g>
</g>
<!-- Node15&#45;&gt;Node22 -->
<g id="edge18" class="edge">
<title>Node15&#45;&gt;Node22</title>
<path fill="none" stroke="midnightblue" d="M2052.68,-183.97C2066.07,-172.59 2083.98,-157.37 2094.99,-148.01"/>
<polygon fill="midnightblue" stroke="midnightblue" points="2050.38,-181.33 2045.03,-190.48 2054.92,-186.67 2050.38,-181.33"/>
</g>
<!-- Node15&#45;&gt;Node39 -->
<g id="edge19" class="edge">
<title>Node15&#45;&gt;Node39</title>
<path fill="none" stroke="midnightblue" d="M2091.83,-194.07C2228.07,-182.25 2570.36,-152.57 2683.82,-142.73"/>
<polygon fill="midnightblue" stroke="midnightblue" points="2091.27,-190.61 2081.61,-194.96 2091.88,-197.58 2091.27,-190.61"/>
</g>
<!-- Node15&#45;&gt;Node55 -->
<g id="edge35" class="edge">
<title>Node15&#45;&gt;Node55</title>
<path fill="none" stroke="midnightblue" d="M1977.96,-195.06C1820.66,-184.2 1382.15,-153.94 1227.69,-143.28"/>
<polygon fill="midnightblue" stroke="midnightblue" points="1978.13,-198.58 1988.35,-195.78 1978.61,-191.6 1978.13,-198.58"/>
</g>
<!-- Node17 -->
<g id="node17" class="node">
<title>Node17</title>
<g id="a_node17"><a xlink:href="hit_8c.html" target="_top" xlink:title=" ">
<polygon fill="none" stroke="black" points="1937.5,-62 1937.5,-81 1992.5,-81 1992.5,-62 1937.5,-62"/>
<text text-anchor="middle" x="1965" y="-69" font-family="Helvetica,sans-Serif" font-size="10.00">src/hit.c</text>
</a>
</g>
</g>
<!-- Node16&#45;&gt;Node17 -->
<g id="edge17" class="edge">
<title>Node16&#45;&gt;Node17</title>
<path fill="none" stroke="midnightblue" d="M1965,-118.54C1965,-106.17 1965,-90.62 1965,-81.13"/>
<polygon fill="midnightblue" stroke="midnightblue" points="1961.5,-118.73 1965,-128.73 1968.5,-118.73 1961.5,-118.73"/>
</g>
<!-- Node40 -->
<g id="node20" class="node">
<title>Node40</title>
<g id="a_node20"><a xlink:href="render__blend__background_8c.html" target="_top" xlink:title=" ">
<polygon fill="none" stroke="black" points="2011,-62 2011,-81 2179,-81 2179,-62 2011,-62"/>
<text text-anchor="middle" x="2095" y="-69" font-family="Helvetica,sans-Serif" font-size="10.00">src/render_blend_background.c</text>
</a>
</g>
</g>
<!-- Node39&#45;&gt;Node40 -->
<g id="edge20" class="edge">
<title>Node39&#45;&gt;Node40</title>
<path fill="none" stroke="midnightblue" d="M2673.52,-133.97C2580.28,-126.81 2366.72,-109.38 2188,-87 2174.38,-85.29 2159.69,-83.15 2146.09,-81.03"/>
<polygon fill="midnightblue" stroke="midnightblue" points="2673.52,-137.48 2683.76,-134.75 2674.06,-130.5 2673.52,-137.48"/>
</g>
<!-- Node41 -->
<g id="node21" class="node">
<title>Node41</title>
<g id="a_node21"><a xlink:href="render__cleanup_8c.html" target="_top" xlink:title=" ">
<polygon fill="none" stroke="black" points="2197.5,-62 2197.5,-81 2314.5,-81 2314.5,-62 2197.5,-62"/>
<text text-anchor="middle" x="2256" y="-69" font-family="Helvetica,sans-Serif" font-size="10.00">src/render_cleanup.c</text>
</a>
</g>
</g>
<!-- Node39&#45;&gt;Node41 -->
<g id="edge21" class="edge">
<title>Node39&#45;&gt;Node41</title>
<path fill="none" stroke="midnightblue" d="M2673.89,-132.8C2599.36,-125.06 2449.77,-108.37 2324,-87 2314,-85.3 2303.25,-83.16 2293.3,-81.04"/>
<polygon fill="midnightblue" stroke="midnightblue" points="2673.6,-136.28 2683.9,-133.83 2674.31,-129.32 2673.6,-136.28"/>
</g>
<!-- Node42 -->
<g id="node22" class="node">
<title>Node42</title>
<g id="a_node22"><a xlink:href="render__draw_8c.html" target="_top" xlink:title=" ">
<polygon fill="none" stroke="black" points="2333,-62 2333,-81 2435,-81 2435,-62 2333,-62"/>
<text text-anchor="middle" x="2384" y="-69" font-family="Helvetica,sans-Serif" font-size="10.00">src/render_draw.c</text>
</a>
</g>
</g>
<!-- Node39&#45;&gt;Node42 -->
<g id="edge22" class="edge">
<title>Node39&#45;&gt;Node42</title>
<path fill="none" stroke="midnightblue" d="M2673.48,-129.68C2618.18,-120.39 2524.19,-103.99 2444,-87 2435.51,-85.2 2426.38,-83.09 2417.88,-81.04"/>
<polygon fill="midnightblue" stroke="midnightblue" points="2673.24,-133.19 2683.68,-131.39 2674.4,-126.29 2673.24,-133.19"/>
</g>
<!-- Node43 -->
<g id="node23" class="node">
<title>Node43</title>
<g id="a_node23"><a xlink:href="render__init__base_8c.html" target="_top" xlink:title=" ">
<polygon fill="none" stroke="black" points="2453.5,-62 2453.5,-81 2576.5,-81 2576.5,-62 2453.5,-62"/>
<text text-anchor="middle" x="2515" y="-69" font-family="Helvetica,sans-Serif" font-size="10.00">src/render_init_base.c</text>
</a>
</g>
</g>
<!-- Node39&#45;&gt;Node43 -->
<g id="edge23" class="edge">
<title>Node39&#45;&gt;Node43</title>
<path fill="none" stroke="midnightblue" d="M2684.07,-125.85C2643.27,-112.97 2578.53,-92.55 2542.14,-81.06"/>
<polygon fill="midnightblue" stroke="midnightblue" points="2683.06,-129.2 2693.64,-128.87 2685.16,-122.52 2683.06,-129.2"/>
</g>
<!-- Node44 -->
<g id="node24" class="node">
<title>Node44</title>
<g id="a_node24"><a xlink:href="render__init__mlx_8c.html" target="_top" xlink:title=" ">
<polygon fill="none" stroke="black" points="2594.5,-62 2594.5,-81 2713.5,-81 2713.5,-62 2594.5,-62"/>
<text text-anchor="middle" x="2654" y="-69" font-family="Helvetica,sans-Serif" font-size="10.00">src/render_init_mlx.c</text>
</a>
</g>
</g>
<!-- Node39&#45;&gt;Node44 -->
<g id="edge24" class="edge">
<title>Node39&#45;&gt;Node44</title>
<path fill="none" stroke="midnightblue" d="M2704.5,-121.5C2691.36,-108.75 2673.48,-91.39 2662.89,-81.13"/>
<polygon fill="midnightblue" stroke="midnightblue" points="2702.35,-124.28 2711.96,-128.73 2707.22,-119.26 2702.35,-124.28"/>
</g>
<!-- Node45 -->
<g id="node25" class="node">
<title>Node45</title>
<g id="a_node25"><a xlink:href="render__keyhook__camera_8c.html" target="_top" xlink:title=" ">
<polygon fill="none" stroke="black" points="2732,-56.5 2732,-86.5 2844,-86.5 2844,-56.5 2732,-56.5"/>
<text text-anchor="start" x="2740" y="-74.5" font-family="Helvetica,sans-Serif" font-size="10.00">src/render_keyhook</text>
<text text-anchor="middle" x="2788" y="-63.5" font-family="Helvetica,sans-Serif" font-size="10.00">_camera.c</text>
</a>
</g>
</g>
<!-- Node39&#45;&gt;Node45 -->
<g id="edge25" class="edge">
<title>Node39&#45;&gt;Node45</title>
<path fill="none" stroke="midnightblue" d="M2737.37,-121.62C2748.41,-110.91 2762.85,-96.9 2773.48,-86.59"/>
<polygon fill="midnightblue" stroke="midnightblue" points="2734.78,-119.26 2730.04,-128.73 2739.65,-124.28 2734.78,-119.26"/>
</g>
<!-- Node46 -->
<g id="node26" class="node">
<title>Node46</title>
<g id="a_node26"><a xlink:href="render__keyhook__colour_8c.html" target="_top" xlink:title=" ">
<polygon fill="none" stroke="black" points="2862,-56.5 2862,-86.5 2974,-86.5 2974,-56.5 2862,-56.5"/>
<text text-anchor="start" x="2870" y="-74.5" font-family="Helvetica,sans-Serif" font-size="10.00">src/render_keyhook</text>
<text text-anchor="middle" x="2918" y="-63.5" font-family="Helvetica,sans-Serif" font-size="10.00">_colour.c</text>
</a>
</g>
</g>
<!-- Node39&#45;&gt;Node46 -->
<g id="edge26" class="edge">
<title>Node39&#45;&gt;Node46</title>
<path fill="none" stroke="midnightblue" d="M2756.97,-125.63C2790.37,-114.61 2840.13,-98.19 2875.48,-86.53"/>
<polygon fill="midnightblue" stroke="midnightblue" points="2755.56,-122.41 2747.16,-128.87 2757.75,-129.06 2755.56,-122.41"/>
</g>
<!-- Node47 -->
<g id="node27" class="node">
<title>Node47</title>
<g id="a_node27"><a xlink:href="render__keyhook__hittable_8c.html" target="_top" xlink:title=" ">
<polygon fill="none" stroke="black" points="2992,-56.5 2992,-86.5 3104,-86.5 3104,-56.5 2992,-56.5"/>
<text text-anchor="start" x="3000" y="-74.5" font-family="Helvetica,sans-Serif" font-size="10.00">src/render_keyhook</text>
<text text-anchor="middle" x="3048" y="-63.5" font-family="Helvetica,sans-Serif" font-size="10.00">_hittable.c</text>
</a>
</g>
</g>
<!-- Node39&#45;&gt;Node47 -->
<g id="edge27" class="edge">
<title>Node39&#45;&gt;Node47</title>
<path fill="none" stroke="midnightblue" d="M2756.29,-126.06C2760.22,-124.95 2764.18,-123.9 2768,-123 2862.28,-100.67 2887.91,-105.55 2983,-87 2985.84,-86.45 2988.74,-85.86 2991.67,-85.26"/>
<polygon fill="midnightblue" stroke="midnightblue" points="2755.29,-122.71 2746.69,-128.9 2757.27,-129.42 2755.29,-122.71"/>
</g>
<!-- Node48 -->
<g id="node28" class="node">
<title>Node48</title>
<g id="a_node28"><a xlink:href="render__keyhook__light_8c.html" target="_top" xlink:title=" ">
<polygon fill="none" stroke="black" points="3122,-56.5 3122,-86.5 3234,-86.5 3234,-56.5 3122,-56.5"/>
<text text-anchor="start" x="3130" y="-74.5" font-family="Helvetica,sans-Serif" font-size="10.00">src/render_keyhook</text>
<text text-anchor="middle" x="3178" y="-63.5" font-family="Helvetica,sans-Serif" font-size="10.00">_light.c</text>
</a>
</g>
</g>
<!-- Node39&#45;&gt;Node48 -->
<g id="edge28" class="edge">
<title>Node39&#45;&gt;Node48</title>
<path fill="none" stroke="midnightblue" d="M2755.32,-126.07C2759.56,-124.91 2763.86,-123.85 2768,-123 2919.04,-92.13 2960.85,-111.82 3113,-87 3115.85,-86.53 3118.77,-86.02 3121.71,-85.48"/>
<polygon fill="midnightblue" stroke="midnightblue" points="2754.26,-122.73 2745.65,-128.91 2756.23,-129.45 2754.26,-122.73"/>
</g>
<!-- Node49 -->
<g id="node29" class="node">
<title>Node49</title>
<g id="a_node29"><a xlink:href="render__keyhook__options_8c.html" target="_top" xlink:title=" ">
<polygon fill="none" stroke="black" points="3252,-56.5 3252,-86.5 3364,-86.5 3364,-56.5 3252,-56.5"/>
<text text-anchor="start" x="3260" y="-74.5" font-family="Helvetica,sans-Serif" font-size="10.00">src/render_keyhook</text>
<text text-anchor="middle" x="3308" y="-63.5" font-family="Helvetica,sans-Serif" font-size="10.00">_options.c</text>
</a>
</g>
</g>
<!-- Node39&#45;&gt;Node49 -->
<g id="edge29" class="edge">
<title>Node39&#45;&gt;Node49</title>
<path fill="none" stroke="midnightblue" d="M2755.01,-126.03C2759.35,-124.86 2763.75,-123.81 2768,-123 2976.01,-83.55 3033.58,-118.13 3243,-87 3245.86,-86.58 3248.78,-86.09 3251.72,-85.57"/>
<polygon fill="midnightblue" stroke="midnightblue" points="2753.75,-122.76 2745.13,-128.92 2755.71,-129.47 2753.75,-122.76"/>
</g>
<!-- Node50 -->
<g id="node30" class="node">
<title>Node50</title>
<g id="a_node30"><a xlink:href="render__keyhook__press_8c.html" target="_top" xlink:title=" ">
<polygon fill="none" stroke="black" points="3382,-56.5 3382,-86.5 3494,-86.5 3494,-56.5 3382,-56.5"/>
<text text-anchor="start" x="3390" y="-74.5" font-family="Helvetica,sans-Serif" font-size="10.00">src/render_keyhook</text>
<text text-anchor="middle" x="3438" y="-63.5" font-family="Helvetica,sans-Serif" font-size="10.00">_press.c</text>
</a>
</g>
</g>
<!-- Node39&#45;&gt;Node50 -->
<g id="edge30" class="edge">
<title>Node39&#45;&gt;Node50</title>
<path fill="none" stroke="midnightblue" d="M2754.34,-126.14C2758.89,-124.91 2763.53,-123.81 2768,-123 3033.04,-74.95 3106.25,-124.44 3373,-87 3375.86,-86.6 3378.79,-86.14 3381.73,-85.63"/>
<polygon fill="midnightblue" stroke="midnightblue" points="2753.24,-122.82 2744.64,-129 2755.22,-129.53 2753.24,-122.82"/>
</g>
<!-- Node51 -->
<g id="node31" class="node">
<title>Node51</title>
<g id="a_node31"><a xlink:href="render__keyhook__select_8c.html" target="_top" xlink:title=" ">
<polygon fill="none" stroke="black" points="3512,-56.5 3512,-86.5 3624,-86.5 3624,-56.5 3512,-56.5"/>
<text text-anchor="start" x="3520" y="-74.5" font-family="Helvetica,sans-Serif" font-size="10.00">src/render_keyhook</text>
<text text-anchor="middle" x="3568" y="-63.5" font-family="Helvetica,sans-Serif" font-size="10.00">_select.c</text>
</a>
</g>
</g>
<!-- Node39&#45;&gt;Node51 -->
<g id="edge31" class="edge">
<title>Node39&#45;&gt;Node51</title>
<path fill="none" stroke="midnightblue" d="M2754.33,-126.1C2758.88,-124.87 2763.53,-123.79 2768,-123 3090.11,-66.35 3178.88,-130.76 3503,-87 3505.86,-86.61 3508.79,-86.16 3511.74,-85.67"/>
<polygon fill="midnightblue" stroke="midnightblue" points="2753.24,-122.77 2744.63,-128.95 2755.21,-129.49 2753.24,-122.77"/>
</g>
<!-- Node52 -->
<g id="node32" class="node">
<title>Node52</title>
<g id="a_node32"><a xlink:href="render__keyhook__utils_8c.html" target="_top" xlink:title=" ">
<polygon fill="none" stroke="black" points="3642,-56.5 3642,-86.5 3754,-86.5 3754,-56.5 3642,-56.5"/>
<text text-anchor="start" x="3650" y="-74.5" font-family="Helvetica,sans-Serif" font-size="10.00">src/render_keyhook</text>
<text text-anchor="middle" x="3698" y="-63.5" font-family="Helvetica,sans-Serif" font-size="10.00">_utils.c</text>
</a>
</g>
</g>
<!-- Node39&#45;&gt;Node52 -->
<g id="edge32" class="edge">
<title>Node39&#45;&gt;Node52</title>
<path fill="none" stroke="midnightblue" d="M2754.33,-126.07C2758.88,-124.85 2763.52,-123.77 2768,-123 3147.2,-57.74 3251.5,-137.09 3633,-87 3635.87,-86.62 3638.79,-86.18 3641.74,-85.69"/>
<polygon fill="midnightblue" stroke="midnightblue" points="2753.23,-122.74 2744.62,-128.91 2755.2,-129.46 2753.23,-122.74"/>
</g>
<!-- Node53 -->
<g id="node33" class="node">
<title>Node53</title>
<g id="a_node33"><a xlink:href="render__loop__mlx_8c.html" target="_top" xlink:title=" ">
<polygon fill="none" stroke="black" points="3772,-62 3772,-81 3896,-81 3896,-62 3772,-62"/>
<text text-anchor="middle" x="3834" y="-69" font-family="Helvetica,sans-Serif" font-size="10.00">src/render_loop_mlx.c</text>
</a>
</g>
</g>
<!-- Node39&#45;&gt;Node53 -->
<g id="edge33" class="edge">
<title>Node39&#45;&gt;Node53</title>
<path fill="none" stroke="midnightblue" d="M2754.32,-126.05C2758.88,-124.83 2763.52,-123.76 2768,-123 3204.3,-49.14 3323.61,-139.45 3763,-87 3774.49,-85.63 3786.89,-83.37 3798.07,-81.04"/>
<polygon fill="midnightblue" stroke="midnightblue" points="2753.23,-122.72 2744.62,-128.89 2755.2,-129.44 2753.23,-122.72"/>
</g>
<!-- Node54 -->
<g id="node34" class="node">
<title>Node54</title>
<g id="a_node34"><a xlink:href="render__mouse_8c.html" target="_top" xlink:title=" ">
<polygon fill="none" stroke="black" points="3914,-62 3914,-81 4026,-81 4026,-62 3914,-62"/>
<text text-anchor="middle" x="3970" y="-69" font-family="Helvetica,sans-Serif" font-size="10.00">src/render_mouse.c</text>
</a>
</g>
</g>
<!-- Node39&#45;&gt;Node54 -->
<g id="edge34" class="edge">
<title>Node39&#45;&gt;Node54</title>
<path fill="none" stroke="midnightblue" d="M2754.32,-126.03C2758.87,-124.81 2763.52,-123.75 2768,-123 3266.68,-39.73 3403.39,-150.32 3905,-87 3915.67,-85.65 3927.16,-83.37 3937.48,-81.01"/>
<polygon fill="midnightblue" stroke="midnightblue" points="2753.23,-122.7 2744.61,-128.87 2755.19,-129.42 2753.23,-122.7"/>
</g>
<!-- Node55&#45;&gt;Node5 -->
<g id="edge37" class="edge">
<title>Node55&#45;&gt;Node5</title>
<path fill="none" stroke="midnightblue" d="M1128.16,-126.91C1120.15,-125.36 1111.86,-123.96 1104,-123 654.15,-68.2 531.85,-162.45 85,-87 77.25,-85.69 69,-83.45 61.62,-81.12"/>
<polygon fill="midnightblue" stroke="midnightblue" points="1127.59,-130.37 1138.09,-128.95 1129,-123.51 1127.59,-130.37"/>
</g>
<!-- Node56 -->
<g id="node36" class="node">
<title>Node56</title>
<g id="a_node36"><a xlink:href="menu__put_8h.html" target="_top" xlink:title=" ">
<polygon fill="none" stroke="red" points="1398,-62 1398,-81 1490,-81 1490,-62 1398,-62"/>
<text text-anchor="middle" x="1444" y="-69" font-family="Helvetica,sans-Serif" font-size="10.00">inc/menu_put.h</text>
</a>
</g>
</g>
<!-- Node55&#45;&gt;Node56 -->
<g id="edge36" class="edge">
<title>Node55&#45;&gt;Node56</title>
<path fill="none" stroke="midnightblue" d="M1220.74,-126.74C1264.57,-116.77 1331.27,-101.36 1389,-87 1396.57,-85.12 1404.71,-83.02 1412.34,-81.01"/>
<polygon fill="midnightblue" stroke="midnightblue" points="1219.9,-123.34 1210.93,-128.97 1221.45,-130.17 1219.9,-123.34"/>
</g>
<!-- Node74 -->
<g id="node37" class="node">
<title>Node74</title>
<g id="a_node37"><a xlink:href="render__cleanup__bonus_8c.html" target="_top" xlink:title=" ">
<polygon fill="none" stroke="black" points="1508.5,-56.5 1508.5,-86.5 1617.5,-86.5 1617.5,-56.5 1508.5,-56.5"/>
<text text-anchor="start" x="1516.5" y="-74.5" font-family="Helvetica,sans-Serif" font-size="10.00">src/render_cleanup</text>
<text text-anchor="middle" x="1563" y="-63.5" font-family="Helvetica,sans-Serif" font-size="10.00">_bonus.c</text>
</a>
</g>
</g>
<!-- Node55&#45;&gt;Node74 -->
<g id="edge38" class="edge">
<title>Node55&#45;&gt;Node74</title>
<path fill="none" stroke="midnightblue" d="M1237.95,-128.79C1303.91,-119.62 1408.88,-104.17 1499,-87 1502.02,-86.42 1505.12,-85.81 1508.24,-85.17"/>
<polygon fill="midnightblue" stroke="midnightblue" points="1237.13,-125.37 1227.71,-130.2 1238.09,-132.3 1237.13,-125.37"/>
</g>
<!-- Node75 -->
<g id="node38" class="node">
<title>Node75</title>
<g id="a_node38"><a xlink:href="render__draw__bonus_8c.html" target="_top" xlink:title=" ">
<polygon fill="none" stroke="black" points="1635.5,-62 1635.5,-81 1772.5,-81 1772.5,-62 1635.5,-62"/>
<text text-anchor="middle" x="1704" y="-69" font-family="Helvetica,sans-Serif" font-size="10.00">src/render_draw_bonus.c</text>
</a>
</g>
</g>
<!-- Node55&#45;&gt;Node75 -->
<g id="edge39" class="edge">
<title>Node55&#45;&gt;Node75</title>
<path fill="none" stroke="midnightblue" d="M1237.66,-131.78C1325.73,-123.66 1488.21,-107.46 1626,-87 1637.44,-85.3 1649.78,-83.16 1661.18,-81.04"/>
<polygon fill="midnightblue" stroke="midnightblue" points="1237.19,-128.31 1227.56,-132.71 1237.83,-135.28 1237.19,-128.31"/>
</g>
<!-- Node76 -->
<g id="node39" class="node">
<title>Node76</title>
<g id="a_node39"><a xlink:href="render__init__bonus_8c.html" target="_top" xlink:title=" ">
<polygon fill="none" stroke="black" points="1790.5,-62 1790.5,-81 1919.5,-81 1919.5,-62 1790.5,-62"/>
<text text-anchor="middle" x="1855" y="-69" font-family="Helvetica,sans-Serif" font-size="10.00">src/render_init_bonus.c</text>
</a>
</g>
</g>
<!-- Node55&#45;&gt;Node76 -->
<g id="edge40" class="edge">
<title>Node55&#45;&gt;Node76</title>
<path fill="none" stroke="midnightblue" d="M1237.79,-134.48C1349.22,-128.75 1584.15,-114.38 1781,-87 1792.28,-85.43 1804.44,-83.25 1815.58,-81.06"/>
<polygon fill="midnightblue" stroke="midnightblue" points="1237.53,-130.99 1227.72,-134.99 1237.89,-137.98 1237.53,-130.99"/>
</g>
<!-- Node77 -->
<g id="node40" class="node">
<title>Node77</title>
<g id="a_node40"><a xlink:href="render__keyhook__camera__bonus_8c.html" target="_top" xlink:title=" ">
<polygon fill="none" stroke="black" points="94,-56.5 94,-86.5 206,-86.5 206,-56.5 94,-56.5"/>
<text text-anchor="start" x="102" y="-74.5" font-family="Helvetica,sans-Serif" font-size="10.00">src/render_keyhook</text>
<text text-anchor="middle" x="150" y="-63.5" font-family="Helvetica,sans-Serif" font-size="10.00">_camera_bonus.c</text>
</a>
</g>
</g>
<!-- Node55&#45;&gt;Node77 -->
<g id="edge41" class="edge">
<title>Node55&#45;&gt;Node77</title>
<path fill="none" stroke="midnightblue" d="M1128.16,-126.95C1120.15,-125.39 1111.86,-123.98 1104,-123 711.59,-74.17 607.1,-138.25 215,-87 212.13,-86.63 209.21,-86.19 206.26,-85.7"/>
<polygon fill="midnightblue" stroke="midnightblue" points="1127.59,-130.4 1138.09,-128.98 1128.99,-123.55 1127.59,-130.4"/>
</g>
<!-- Node78 -->
<g id="node41" class="node">
<title>Node78</title>
<g id="a_node41"><a xlink:href="render__keyhook__options__bonus_8c.html" target="_top" xlink:title=" ">
<polygon fill="none" stroke="black" points="224,-56.5 224,-86.5 336,-86.5 336,-56.5 224,-56.5"/>
<text text-anchor="start" x="232" y="-74.5" font-family="Helvetica,sans-Serif" font-size="10.00">src/render_keyhook</text>
<text text-anchor="middle" x="280" y="-63.5" font-family="Helvetica,sans-Serif" font-size="10.00">_options_bonus.c</text>
</a>
</g>
</g>
<!-- Node55&#45;&gt;Node78 -->
<g id="edge42" class="edge">
<title>Node55&#45;&gt;Node78</title>
<path fill="none" stroke="midnightblue" d="M1127.89,-126.94C1119.96,-125.4 1111.77,-123.99 1104,-123 769.02,-80.14 679.71,-131.93 345,-87 342.14,-86.62 339.21,-86.17 336.26,-85.67"/>
<polygon fill="midnightblue" stroke="midnightblue" points="1127.23,-130.38 1137.73,-128.96 1128.63,-123.52 1127.23,-130.38"/>
</g>
<!-- Node79 -->
<g id="node42" class="node">
<title>Node79</title>
<g id="a_node42"><a xlink:href="render__keyhook__press__bonus_8c.html" target="_top" xlink:title=" ">
<polygon fill="none" stroke="black" points="354,-56.5 354,-86.5 466,-86.5 466,-56.5 354,-56.5"/>
<text text-anchor="start" x="362" y="-74.5" font-family="Helvetica,sans-Serif" font-size="10.00">src/render_keyhook</text>
<text text-anchor="middle" x="410" y="-63.5" font-family="Helvetica,sans-Serif" font-size="10.00">_press_bonus.c</text>
</a>
</g>
</g>
<!-- Node55&#45;&gt;Node79 -->
<g id="edge43" class="edge">
<title>Node55&#45;&gt;Node79</title>
<path fill="none" stroke="midnightblue" d="M1127.36,-126.9C1119.6,-125.39 1111.59,-124.01 1104,-123 826.43,-86.1 752.34,-125.61 475,-87 472.14,-86.6 469.21,-86.14 466.27,-85.64"/>
<polygon fill="midnightblue" stroke="midnightblue" points="1126.87,-130.38 1137.36,-128.95 1128.27,-123.52 1126.87,-130.38"/>
</g>
<!-- Node80 -->
<g id="node43" class="node">
<title>Node80</title>
<g id="a_node43"><a xlink:href="render__loop__mlx__bonus_8c.html" target="_top" xlink:title=" ">
<polygon fill="none" stroke="black" points="484,-56.5 484,-86.5 600,-86.5 600,-56.5 484,-56.5"/>
<text text-anchor="start" x="492" y="-74.5" font-family="Helvetica,sans-Serif" font-size="10.00">src/render_loop_mlx</text>
<text text-anchor="middle" x="542" y="-63.5" font-family="Helvetica,sans-Serif" font-size="10.00">_bonus.c</text>
</a>
</g>
</g>
<!-- Node55&#45;&gt;Node80 -->
<g id="edge44" class="edge">
<title>Node55&#45;&gt;Node80</title>
<path fill="none" stroke="midnightblue" d="M1127.09,-126.95C1119.41,-125.45 1111.5,-124.06 1104,-123 885.57,-92.25 827.33,-118.41 609,-87 606.06,-86.58 603.05,-86.1 600.01,-85.58"/>
<polygon fill="midnightblue" stroke="midnightblue" points="1126.49,-130.41 1136.99,-128.98 1127.9,-123.55 1126.49,-130.41"/>
</g>
<!-- Node81 -->
<g id="node44" class="node">
<title>Node81</title>
<g id="a_node44"><a xlink:href="render__mouse__bonus_8c.html" target="_top" xlink:title=" ">
<polygon fill="none" stroke="black" points="618,-62 618,-81 764,-81 764,-62 618,-62"/>
<text text-anchor="middle" x="691" y="-69" font-family="Helvetica,sans-Serif" font-size="10.00">src/render_mouse_bonus.c</text>
</a>
</g>
</g>
<!-- Node55&#45;&gt;Node81 -->
<g id="edge45" class="edge">
<title>Node55&#45;&gt;Node81</title>
<path fill="none" stroke="midnightblue" d="M1126.02,-126.98C1118.67,-125.52 1111.15,-124.14 1104,-123 957.86,-99.76 919.5,-107.9 773,-87 760.98,-85.29 748.02,-83.13 736.03,-81.02"/>
<polygon fill="midnightblue" stroke="midnightblue" points="1125.38,-130.42 1135.88,-129 1126.79,-123.56 1125.38,-130.42"/>
</g>
<!-- Node82 -->
<g id="node45" class="node">
<title>Node82</title>
<g id="a_node45"><a xlink:href="render__output__ppm__bonus_8c.html" target="_top" xlink:title=" ">
<polygon fill="none" stroke="black" points="782.5,-56.5 782.5,-86.5 911.5,-86.5 911.5,-56.5 782.5,-56.5"/>
<text text-anchor="start" x="790.5" y="-74.5" font-family="Helvetica,sans-Serif" font-size="10.00">src/render_output_ppm</text>
<text text-anchor="middle" x="847" y="-63.5" font-family="Helvetica,sans-Serif" font-size="10.00">_bonus.c</text>
</a>
</g>
</g>
<!-- Node55&#45;&gt;Node82 -->
<g id="edge46" class="edge">
<title>Node55&#45;&gt;Node82</title>
<path fill="none" stroke="midnightblue" d="M1122.96,-126.9C1116.58,-125.57 1110.14,-124.25 1104,-123 1022.34,-106.43 1001.75,-103.12 920,-87 917.34,-86.48 914.62,-85.94 911.88,-85.4"/>
<polygon fill="midnightblue" stroke="midnightblue" points="1122.38,-130.35 1132.88,-128.97 1123.81,-123.5 1122.38,-130.35"/>
</g>
<!-- Node83 -->
<g id="node46" class="node">
<title>Node83</title>
<g id="a_node46"><a xlink:href="render__output__threaded__bonus_8c.html" target="_top" xlink:title=" ">
<polygon fill="none" stroke="black" points="929.5,-56.5 929.5,-86.5 1080.5,-86.5 1080.5,-56.5 929.5,-56.5"/>
<text text-anchor="start" x="937.5" y="-74.5" font-family="Helvetica,sans-Serif" font-size="10.00">src/render_output_threaded</text>
<text text-anchor="middle" x="1005" y="-63.5" font-family="Helvetica,sans-Serif" font-size="10.00">_bonus.c</text>
</a>
</g>
</g>
<!-- Node55&#45;&gt;Node83 -->
<g id="edge47" class="edge">
<title>Node55&#45;&gt;Node83</title>
<path fill="none" stroke="midnightblue" d="M1141.22,-125.2C1112.75,-114.19 1071.02,-98.04 1041.26,-86.53"/>
<polygon fill="midnightblue" stroke="midnightblue" points="1140.1,-128.52 1150.69,-128.87 1142.63,-122 1140.1,-128.52"/>
</g>
<!-- Node84 -->
<g id="node47" class="node">
<title>Node84</title>
<g id="a_node47"><a xlink:href="render__sample__bonus_8c.html" target="_top" xlink:title=" ">
<polygon fill="none" stroke="black" points="1098.5,-62 1098.5,-81 1247.5,-81 1247.5,-62 1098.5,-62"/>
<text text-anchor="middle" x="1173" y="-69" font-family="Helvetica,sans-Serif" font-size="10.00">src/render_sample_bonus.c</text>
</a>
</g>
</g>
<!-- Node55&#45;&gt;Node84 -->
<g id="edge48" class="edge">
<title>Node55&#45;&gt;Node84</title>
<path fill="none" stroke="midnightblue" d="M1173,-118.54C1173,-106.17 1173,-90.62 1173,-81.13"/>
<polygon fill="midnightblue" stroke="midnightblue" points="1169.5,-118.73 1173,-128.73 1176.5,-118.73 1169.5,-118.73"/>
</g>
<!-- Node85 -->
<g id="node48" class="node">
<title>Node85</title>
<g id="a_node48"><a xlink:href="render__threaded__fts__bonus_8c.html" target="_top" xlink:title=" ">
<polygon fill="none" stroke="black" points="1266,-56.5 1266,-86.5 1380,-86.5 1380,-56.5 1266,-56.5"/>
<text text-anchor="start" x="1274" y="-74.5" font-family="Helvetica,sans-Serif" font-size="10.00">src/render_threaded</text>
<text text-anchor="middle" x="1323" y="-63.5" font-family="Helvetica,sans-Serif" font-size="10.00">_fts_bonus.c</text>
</a>
</g>
</g>
<!-- Node55&#45;&gt;Node85 -->
<g id="edge49" class="edge">
<title>Node55&#45;&gt;Node85</title>
<path fill="none" stroke="midnightblue" d="M1202.38,-124.77C1227.77,-113.77 1264.4,-97.89 1290.63,-86.53"/>
<polygon fill="midnightblue" stroke="midnightblue" points="1200.7,-121.68 1192.92,-128.87 1203.49,-128.1 1200.7,-121.68"/>
</g>
</g>
</svg>
