<?xml version="1.0" encoding="UTF-8" standalone="no"?>
<!DOCTYPE svg PUBLIC "-//W3C//DTD SVG 1.1//EN"
 "http://www.w3.org/Graphics/SVG/1.1/DTD/svg11.dtd">
<!-- Generated by graphviz version 2.43.0 (0)
 -->
<!-- Title: inc/camera.h Pages: 1 -->
<svg width="3364pt" height="285pt"
 viewBox="0.00 0.00 3363.50 285.00" xmlns="http://www.w3.org/2000/svg" xmlns:xlink="http://www.w3.org/1999/xlink">
<g id="graph0" class="graph" transform="scale(1 1) rotate(0) translate(4 281)">
<title>inc/camera.h</title>
<!-- Node1 -->
<g id="node1" class="node">
<title>Node1</title>
<g id="a_node1"><a xlink:title=" ">
<polygon fill="#bfbfbf" stroke="black" points="1078,-257.5 1078,-276.5 1158,-276.5 1158,-257.5 1078,-257.5"/>
<text text-anchor="middle" x="1118" y="-264.5" font-family="Helvetica,sans-Serif" font-size="10.00">inc/camera.h</text>
</a>
</g>
</g>
<!-- Node2 -->
<g id="node2" class="node">
<title>Node2</title>
<g id="a_node2"><a xlink:href="lighting__bonus_8h.html" target="_top" xlink:title=" ">
<polygon fill="none" stroke="black" points="1123,-73 1123,-92 1237,-92 1237,-73 1123,-73"/>
<text text-anchor="middle" x="1180" y="-80" font-family="Helvetica,sans-Serif" font-size="10.00">inc/lighting_bonus.h</text>
</a>
</g>
</g>
<!-- Node1&#45;&gt;Node2 -->
<g id="edge1" class="edge">
<title>Node1&#45;&gt;Node2</title>
<path fill="none" stroke="midnightblue" d="M1124.21,-247.72C1137.34,-209.07 1167.49,-120.33 1177.04,-92.21"/>
<polygon fill="midnightblue" stroke="midnightblue" points="1120.89,-246.6 1120.99,-257.2 1127.52,-248.85 1120.89,-246.6"/>
</g>
<!-- Node6 -->
<g id="node6" class="node">
<title>Node6</title>
<g id="a_node6"><a xlink:href="mini_r_t_8h.html" target="_top" xlink:title=" ">
<polygon fill="none" stroke="black" points="0,-73 0,-92 76,-92 76,-73 0,-73"/>
<text text-anchor="middle" x="38" y="-80" font-family="Helvetica,sans-Serif" font-size="10.00">inc/miniRT.h</text>
</a>
</g>
</g>
<!-- Node1&#45;&gt;Node6 -->
<g id="edge5" class="edge">
<title>Node1&#45;&gt;Node6</title>
<path fill="none" stroke="midnightblue" d="M1067.48,-265.01C882.59,-261.18 249.06,-246.32 162,-221 113.83,-206.99 95.55,-204 64,-165 46.06,-142.83 40.41,-108.07 38.7,-92.08"/>
<polygon fill="midnightblue" stroke="midnightblue" points="1067.66,-268.51 1077.73,-265.22 1067.81,-261.51 1067.66,-268.51"/>
</g>
<!-- Node8 -->
<g id="node8" class="node">
<title>Node8</title>
<g id="a_node8"><a xlink:href="parse_8h.html" target="_top" xlink:title=" ">
<polygon fill="none" stroke="black" points="2043,-201.5 2043,-220.5 2113,-220.5 2113,-201.5 2043,-201.5"/>
<text text-anchor="middle" x="2078" y="-208.5" font-family="Helvetica,sans-Serif" font-size="10.00">inc/parse.h</text>
</a>
</g>
</g>
<!-- Node1&#45;&gt;Node8 -->
<g id="edge7" class="edge">
<title>Node1&#45;&gt;Node8</title>
<path fill="none" stroke="midnightblue" d="M1168.27,-263.17C1339.48,-253.54 1897.36,-222.16 2042.97,-213.97"/>
<polygon fill="midnightblue" stroke="midnightblue" points="1167.82,-259.69 1158.03,-263.75 1168.21,-266.68 1167.82,-259.69"/>
</g>
<!-- Node13 -->
<g id="node13" class="node">
<title>Node13</title>
<g id="a_node13"><a xlink:href="parse__bonus_8h.html" target="_top" xlink:title=" ">
<polygon fill="none" stroke="black" points="171,-201.5 171,-220.5 275,-220.5 275,-201.5 171,-201.5"/>
<text text-anchor="middle" x="223" y="-208.5" font-family="Helvetica,sans-Serif" font-size="10.00">inc/parse_bonus.h</text>
</a>
</g>
</g>
<!-- Node1&#45;&gt;Node13 -->
<g id="edge12" class="edge">
<title>Node1&#45;&gt;Node13</title>
<path fill="none" stroke="midnightblue" d="M1067.52,-262.95C910.92,-253.51 434.29,-224.75 275.27,-215.15"/>
<polygon fill="midnightblue" stroke="midnightblue" points="1067.61,-266.47 1077.8,-263.57 1068.03,-259.48 1067.61,-266.47"/>
</g>
<!-- Node16 -->
<g id="node16" class="node">
<title>Node16</title>
<g id="a_node16"><a xlink:href="print_8h.html" target="_top" xlink:title=" ">
<polygon fill="none" stroke="black" points="549.5,-201.5 549.5,-220.5 614.5,-220.5 614.5,-201.5 549.5,-201.5"/>
<text text-anchor="middle" x="582" y="-208.5" font-family="Helvetica,sans-Serif" font-size="10.00">inc/print.h</text>
</a>
</g>
</g>
<!-- Node1&#45;&gt;Node16 -->
<g id="edge16" class="edge">
<title>Node1&#45;&gt;Node16</title>
<path fill="none" stroke="midnightblue" d="M1067.66,-260.93C959.03,-249.98 705.11,-224.4 614.69,-215.29"/>
<polygon fill="midnightblue" stroke="midnightblue" points="1067.41,-264.42 1077.71,-261.94 1068.11,-257.46 1067.41,-264.42"/>
</g>
<!-- Node17 -->
<g id="node17" class="node">
<title>Node17</title>
<g id="a_node17"><a xlink:href="render__bonus_8h.html" target="_top" xlink:title=" ">
<polygon fill="none" stroke="black" points="587.5,-140 587.5,-159 696.5,-159 696.5,-140 587.5,-140"/>
<text text-anchor="middle" x="642" y="-147" font-family="Helvetica,sans-Serif" font-size="10.00">inc/render_bonus.h</text>
</a>
</g>
</g>
<!-- Node1&#45;&gt;Node17 -->
<g id="edge53" class="edge">
<title>Node1&#45;&gt;Node17</title>
<path fill="none" stroke="midnightblue" d="M1072.8,-255.03C978.46,-232.14 762.33,-179.7 677.3,-159.06"/>
<polygon fill="midnightblue" stroke="midnightblue" points="1072.07,-258.46 1082.61,-257.41 1073.72,-251.65 1072.07,-258.46"/>
</g>
<!-- Node36 -->
<g id="node23" class="node">
<title>Node36</title>
<g id="a_node23"><a xlink:href="ray__bonus_8h.html" target="_top" xlink:title=" ">
<polygon fill="none" stroke="black" points="1022.5,-201.5 1022.5,-220.5 1115.5,-220.5 1115.5,-201.5 1022.5,-201.5"/>
<text text-anchor="middle" x="1069" y="-208.5" font-family="Helvetica,sans-Serif" font-size="10.00">inc/ray_bonus.h</text>
</a>
</g>
</g>
<!-- Node1&#45;&gt;Node36 -->
<g id="edge24" class="edge">
<title>Node1&#45;&gt;Node36</title>
<path fill="none" stroke="midnightblue" d="M1102.97,-249.43C1094.38,-239.97 1083.96,-228.48 1076.94,-220.75"/>
<polygon fill="midnightblue" stroke="midnightblue" points="1100.6,-252.03 1109.91,-257.08 1105.78,-247.33 1100.6,-252.03"/>
</g>
<!-- Node57 -->
<g id="node32" class="node">
<title>Node57</title>
<g id="a_node32"><a xlink:href="render_8h.html" target="_top" xlink:title=" ">
<polygon fill="none" stroke="black" points="1922,-140 1922,-159 1996,-159 1996,-140 1922,-140"/>
<text text-anchor="middle" x="1959" y="-147" font-family="Helvetica,sans-Serif" font-size="10.00">inc/render.h</text>
</a>
</g>
</g>
<!-- Node1&#45;&gt;Node57 -->
<g id="edge52" class="edge">
<title>Node1&#45;&gt;Node57</title>
<path fill="none" stroke="midnightblue" d="M1168.42,-259.08C1322.79,-237.88 1786.6,-174.18 1921.7,-155.62"/>
<polygon fill="midnightblue" stroke="midnightblue" points="1167.71,-255.64 1158.28,-260.47 1168.66,-262.57 1167.71,-255.64"/>
</g>
<!-- Node74 -->
<g id="node49" class="node">
<title>Node74</title>
<g id="a_node49"><a xlink:href="camera_8c.html" target="_top" xlink:title=" ">
<polygon fill="none" stroke="black" points="2131.5,-201.5 2131.5,-220.5 2210.5,-220.5 2210.5,-201.5 2131.5,-201.5"/>
<text text-anchor="middle" x="2171" y="-208.5" font-family="Helvetica,sans-Serif" font-size="10.00">src/camera.c</text>
</a>
</g>
</g>
<!-- Node1&#45;&gt;Node74 -->
<g id="edge54" class="edge">
<title>Node1&#45;&gt;Node74</title>
<path fill="none" stroke="midnightblue" d="M1168.42,-266.17C1315.73,-266.16 1758,-262.39 2122,-221 2125.09,-220.65 2128.29,-220.22 2131.49,-219.74"/>
<polygon fill="midnightblue" stroke="midnightblue" points="1168.33,-262.67 1158.33,-266.17 1168.33,-269.67 1168.33,-262.67"/>
</g>
<!-- Node75 -->
<g id="node50" class="node">
<title>Node75</title>
<g id="a_node50"><a xlink:href="camera__movement_8c.html" target="_top" xlink:title=" ">
<polygon fill="none" stroke="black" points="2228.5,-201.5 2228.5,-220.5 2365.5,-220.5 2365.5,-201.5 2228.5,-201.5"/>
<text text-anchor="middle" x="2297" y="-208.5" font-family="Helvetica,sans-Serif" font-size="10.00">src/camera_movement.c</text>
</a>
</g>
</g>
<!-- Node1&#45;&gt;Node75 -->
<g id="edge55" class="edge">
<title>Node1&#45;&gt;Node75</title>
<path fill="none" stroke="midnightblue" d="M1168.33,-265.3C1324.57,-262.83 1815.08,-252.89 2220,-221 2222.68,-220.79 2225.42,-220.56 2228.18,-220.31"/>
<polygon fill="midnightblue" stroke="midnightblue" points="1168.04,-261.8 1158.09,-265.46 1168.15,-268.8 1168.04,-261.8"/>
</g>
<!-- Node3 -->
<g id="node3" class="node">
<title>Node3</title>
<g id="a_node3"><a xlink:href="ray__bonus_8c.html" target="_top" xlink:title=" ">
<polygon fill="none" stroke="black" points="1004,-6 1004,-25 1096,-25 1096,-6 1004,-6"/>
<text text-anchor="middle" x="1050" y="-13" font-family="Helvetica,sans-Serif" font-size="10.00">src/ray_bonus.c</text>
</a>
</g>
</g>
<!-- Node2&#45;&gt;Node3 -->
<g id="edge2" class="edge">
<title>Node2&#45;&gt;Node3</title>
<path fill="none" stroke="midnightblue" d="M1153.55,-68.27C1127.8,-55.4 1089.42,-36.21 1067.33,-25.17"/>
<polygon fill="midnightblue" stroke="midnightblue" points="1152.23,-71.53 1162.74,-72.87 1155.36,-65.27 1152.23,-71.53"/>
</g>
<!-- Node4 -->
<g id="node4" class="node">
<title>Node4</title>
<g id="a_node4"><a xlink:href="scene__light__bonus_8c.html" target="_top" xlink:title=" ">
<polygon fill="none" stroke="black" points="1114,-6 1114,-25 1246,-25 1246,-6 1114,-6"/>
<text text-anchor="middle" x="1180" y="-13" font-family="Helvetica,sans-Serif" font-size="10.00">src/scene_light_bonus.c</text>
</a>
</g>
</g>
<!-- Node2&#45;&gt;Node4 -->
<g id="edge3" class="edge">
<title>Node2&#45;&gt;Node4</title>
<path fill="none" stroke="midnightblue" d="M1180,-62.54C1180,-50.17 1180,-34.62 1180,-25.13"/>
<polygon fill="midnightblue" stroke="midnightblue" points="1176.5,-62.73 1180,-72.73 1183.5,-62.73 1176.5,-62.73"/>
</g>
<!-- Node5 -->
<g id="node5" class="node">
<title>Node5</title>
<g id="a_node5"><a xlink:href="scene__reflection__bonus_8c.html" target="_top" xlink:title=" ">
<polygon fill="none" stroke="black" points="1264.5,-0.5 1264.5,-30.5 1377.5,-30.5 1377.5,-0.5 1264.5,-0.5"/>
<text text-anchor="start" x="1272.5" y="-18.5" font-family="Helvetica,sans-Serif" font-size="10.00">src/scene_reflection</text>
<text text-anchor="middle" x="1321" y="-7.5" font-family="Helvetica,sans-Serif" font-size="10.00">_bonus.c</text>
</a>
</g>
</g>
<!-- Node2&#45;&gt;Node5 -->
<g id="edge4" class="edge">
<title>Node2&#45;&gt;Node5</title>
<path fill="none" stroke="midnightblue" d="M1207.94,-68.62C1231.79,-57.63 1266.03,-41.84 1290.57,-30.53"/>
<polygon fill="midnightblue" stroke="midnightblue" points="1206.34,-65.5 1198.72,-72.87 1209.27,-71.86 1206.34,-65.5"/>
</g>
<!-- Node7 -->
<g id="node7" class="node">
<title>Node7</title>
<g id="a_node7"><a xlink:href="main_8c.html" target="_top" xlink:title=" ">
<polygon fill="none" stroke="black" points="4.5,-6 4.5,-25 71.5,-25 71.5,-6 4.5,-6"/>
<text text-anchor="middle" x="38" y="-13" font-family="Helvetica,sans-Serif" font-size="10.00">src/main.c</text>
</a>
</g>
</g>
<!-- Node6&#45;&gt;Node7 -->
<g id="edge6" class="edge">
<title>Node6&#45;&gt;Node7</title>
<path fill="none" stroke="midnightblue" d="M38,-62.54C38,-50.17 38,-34.62 38,-25.13"/>
<polygon fill="midnightblue" stroke="midnightblue" points="34.5,-62.73 38,-72.73 41.5,-62.73 34.5,-62.73"/>
</g>
<!-- Node9 -->
<g id="node9" class="node">
<title>Node9</title>
<g id="a_node9"><a xlink:href="parse_8c.html" target="_top" xlink:title=" ">
<polygon fill="none" stroke="black" points="2399.5,-140 2399.5,-159 2468.5,-159 2468.5,-140 2399.5,-140"/>
<text text-anchor="middle" x="2434" y="-147" font-family="Helvetica,sans-Serif" font-size="10.00">src/parse.c</text>
</a>
</g>
</g>
<!-- Node8&#45;&gt;Node9 -->
<g id="edge8" class="edge">
<title>Node8&#45;&gt;Node9</title>
<path fill="none" stroke="midnightblue" d="M2123.24,-201.08C2242.86,-181.78 2276.39,-191.14 2390,-165 2396.74,-163.45 2403.92,-161.3 2410.48,-159.14"/>
<polygon fill="midnightblue" stroke="midnightblue" points="2122.63,-197.63 2113.33,-202.71 2123.77,-204.54 2122.63,-197.63"/>
</g>
<!-- Node10 -->
<g id="node10" class="node">
<title>Node10</title>
<g id="a_node10"><a xlink:href="parse__entity___a_c_l_8c.html" target="_top" xlink:title=" ">
<polygon fill="none" stroke="black" points="2014.5,-140 2014.5,-159 2141.5,-159 2141.5,-140 2014.5,-140"/>
<text text-anchor="middle" x="2078" y="-147" font-family="Helvetica,sans-Serif" font-size="10.00">src/parse_entity_ACL.c</text>
</a>
</g>
</g>
<!-- Node8&#45;&gt;Node10 -->
<g id="edge9" class="edge">
<title>Node8&#45;&gt;Node10</title>
<path fill="none" stroke="midnightblue" d="M2078,-191.32C2078,-180.5 2078,-167.4 2078,-159.01"/>
<polygon fill="midnightblue" stroke="midnightblue" points="2074.5,-191.48 2078,-201.48 2081.5,-191.48 2074.5,-191.48"/>
</g>
<!-- Node11 -->
<g id="node11" class="node">
<title>Node11</title>
<g id="a_node11"><a xlink:href="parse__entity__sp__pl__cy_8c.html" target="_top" xlink:title=" ">
<polygon fill="none" stroke="black" points="2159.5,-134.5 2159.5,-164.5 2270.5,-164.5 2270.5,-134.5 2159.5,-134.5"/>
<text text-anchor="start" x="2167.5" y="-152.5" font-family="Helvetica,sans-Serif" font-size="10.00">src/parse_entity_sp</text>
<text text-anchor="middle" x="2215" y="-141.5" font-family="Helvetica,sans-Serif" font-size="10.00">_pl_cy.c</text>
</a>
</g>
</g>
<!-- Node8&#45;&gt;Node11 -->
<g id="edge10" class="edge">
<title>Node8&#45;&gt;Node11</title>
<path fill="none" stroke="midnightblue" d="M2106.87,-197.46C2129.06,-187.82 2159.71,-174.51 2182.71,-164.52"/>
<polygon fill="midnightblue" stroke="midnightblue" points="2105.41,-194.28 2097.63,-201.48 2108.2,-200.7 2105.41,-194.28"/>
</g>
<!-- Node12 -->
<g id="node12" class="node">
<title>Node12</title>
<g id="a_node12"><a xlink:href="parse__line_8c.html" target="_top" xlink:title=" ">
<polygon fill="none" stroke="black" points="2289,-140 2289,-159 2381,-159 2381,-140 2289,-140"/>
<text text-anchor="middle" x="2335" y="-147" font-family="Helvetica,sans-Serif" font-size="10.00">src/parse_line.c</text>
</a>
</g>
</g>
<!-- Node8&#45;&gt;Node12 -->
<g id="edge11" class="edge">
<title>Node8&#45;&gt;Node12</title>
<path fill="none" stroke="midnightblue" d="M2123.08,-200.48C2164.09,-191.69 2226.25,-178.07 2280,-165 2287.58,-163.16 2295.72,-161.07 2303.35,-159.07"/>
<polygon fill="midnightblue" stroke="midnightblue" points="2122.18,-197.09 2113.13,-202.6 2123.64,-203.94 2122.18,-197.09"/>
</g>
<!-- Node13&#45;&gt;Node6 -->
<g id="edge13" class="edge">
<title>Node13&#45;&gt;Node6</title>
<path fill="none" stroke="midnightblue" d="M168.45,-198.86C144.24,-191.98 116.44,-181.27 95,-165 68.46,-144.85 49.54,-108.76 41.83,-92.22"/>
<polygon fill="midnightblue" stroke="midnightblue" points="167.66,-202.27 178.23,-201.48 169.48,-195.51 167.66,-202.27"/>
</g>
<!-- Node14 -->
<g id="node14" class="node">
<title>Node14</title>
<g id="a_node14"><a xlink:href="parse__bonus_8c.html" target="_top" xlink:title=" ">
<polygon fill="none" stroke="black" points="234,-140 234,-159 338,-159 338,-140 234,-140"/>
<text text-anchor="middle" x="286" y="-147" font-family="Helvetica,sans-Serif" font-size="10.00">src/parse_bonus.c</text>
</a>
</g>
</g>
<!-- Node13&#45;&gt;Node14 -->
<g id="edge14" class="edge">
<title>Node13&#45;&gt;Node14</title>
<path fill="none" stroke="midnightblue" d="M239.6,-194.32C251.57,-183.02 267.27,-168.19 276.99,-159.01"/>
<polygon fill="midnightblue" stroke="midnightblue" points="236.89,-192.06 232.03,-201.48 241.7,-197.15 236.89,-192.06"/>
</g>
<!-- Node15 -->
<g id="node15" class="node">
<title>Node15</title>
<g id="a_node15"><a xlink:href="parse__entity__sp__pl__cy__bonus_8c.html" target="_top" xlink:title=" ">
<polygon fill="none" stroke="black" points="104.5,-134.5 104.5,-164.5 215.5,-164.5 215.5,-134.5 104.5,-134.5"/>
<text text-anchor="start" x="112.5" y="-152.5" font-family="Helvetica,sans-Serif" font-size="10.00">src/parse_entity_sp</text>
<text text-anchor="middle" x="160" y="-141.5" font-family="Helvetica,sans-Serif" font-size="10.00">_pl_cy_bonus.c</text>
</a>
</g>
</g>
<!-- Node13&#45;&gt;Node15 -->
<g id="edge15" class="edge">
<title>Node13&#45;&gt;Node15</title>
<path fill="none" stroke="midnightblue" d="M206.45,-194.37C196.65,-185.11 184.33,-173.48 174.85,-164.52"/>
<polygon fill="midnightblue" stroke="midnightblue" points="204.3,-197.15 213.97,-201.48 209.11,-192.06 204.3,-197.15"/>
</g>
<!-- Node16&#45;&gt;Node17 -->
<g id="edge17" class="edge">
<title>Node16&#45;&gt;Node17</title>
<path fill="none" stroke="midnightblue" d="M597.81,-194.32C609.21,-183.02 624.16,-168.19 633.42,-159.01"/>
<polygon fill="midnightblue" stroke="midnightblue" points="595.23,-191.95 590.6,-201.48 600.16,-196.92 595.23,-191.95"/>
</g>
<!-- Node34 -->
<g id="node21" class="node">
<title>Node34</title>
<g id="a_node21"><a xlink:href="print__entity_8c.html" target="_top" xlink:title=" ">
<polygon fill="none" stroke="black" points="472.5,-140 472.5,-159 569.5,-159 569.5,-140 472.5,-140"/>
<text text-anchor="middle" x="521" y="-147" font-family="Helvetica,sans-Serif" font-size="10.00">src/print_entity.c</text>
</a>
</g>
</g>
<!-- Node16&#45;&gt;Node34 -->
<g id="edge22" class="edge">
<title>Node16&#45;&gt;Node34</title>
<path fill="none" stroke="midnightblue" d="M565.93,-194.32C554.34,-183.02 539.14,-168.19 529.72,-159.01"/>
<polygon fill="midnightblue" stroke="midnightblue" points="563.66,-197 573.26,-201.48 568.55,-191.99 563.66,-197"/>
</g>
<!-- Node35 -->
<g id="node22" class="node">
<title>Node35</title>
<g id="a_node22"><a xlink:href="print__struct_8c.html" target="_top" xlink:title=" ">
<polygon fill="none" stroke="black" points="356,-140 356,-159 454,-159 454,-140 356,-140"/>
<text text-anchor="middle" x="405" y="-147" font-family="Helvetica,sans-Serif" font-size="10.00">src/print_struct.c</text>
</a>
</g>
</g>
<!-- Node16&#45;&gt;Node35 -->
<g id="edge23" class="edge">
<title>Node16&#45;&gt;Node35</title>
<path fill="none" stroke="midnightblue" d="M546.99,-198.23C512.59,-186.67 460.92,-169.3 430.31,-159.01"/>
<polygon fill="midnightblue" stroke="midnightblue" points="546.05,-201.61 556.64,-201.48 548.28,-194.97 546.05,-201.61"/>
</g>
<!-- Node17&#45;&gt;Node6 -->
<g id="edge19" class="edge">
<title>Node17&#45;&gt;Node6</title>
<path fill="none" stroke="midnightblue" d="M598.72,-137.77C591.82,-136.33 584.74,-135 578,-134 360.7,-101.64 300.9,-138.64 85,-98 77.45,-96.58 69.4,-94.36 62.13,-92.09"/>
<polygon fill="midnightblue" stroke="midnightblue" points="598.11,-141.22 608.63,-139.95 599.61,-134.39 598.11,-141.22"/>
</g>
<!-- Node18 -->
<g id="node18" class="node">
<title>Node18</title>
<g id="a_node18"><a xlink:href="menu__put_8h.html" target="_top" xlink:title=" ">
<polygon fill="none" stroke="red" points="250,-73 250,-92 342,-92 342,-73 250,-73"/>
<text text-anchor="middle" x="296" y="-80" font-family="Helvetica,sans-Serif" font-size="10.00">inc/menu_put.h</text>
</a>
</g>
</g>
<!-- Node17&#45;&gt;Node18 -->
<g id="edge18" class="edge">
<title>Node17&#45;&gt;Node18</title>
<path fill="none" stroke="midnightblue" d="M596.12,-137.72C590.04,-136.41 583.88,-135.13 578,-134 477.69,-114.7 450.96,-119.05 351,-98 342.88,-96.29 334.17,-94.14 326.13,-92.03"/>
<polygon fill="midnightblue" stroke="midnightblue" points="595.69,-141.21 606.21,-139.96 597.2,-134.38 595.69,-141.21"/>
</g>
<!-- Node32 -->
<g id="node19" class="node">
<title>Node32</title>
<g id="a_node19"><a xlink:href="render__compose__image__bonus_8c.html" target="_top" xlink:title=" ">
<polygon fill="none" stroke="black" points="360.5,-67.5 360.5,-97.5 475.5,-97.5 475.5,-67.5 360.5,-67.5"/>
<text text-anchor="start" x="368.5" y="-85.5" font-family="Helvetica,sans-Serif" font-size="10.00">src/render_compose</text>
<text text-anchor="middle" x="418" y="-74.5" font-family="Helvetica,sans-Serif" font-size="10.00">_image_bonus.c</text>
</a>
</g>
</g>
<!-- Node17&#45;&gt;Node32 -->
<g id="edge20" class="edge">
<title>Node17&#45;&gt;Node32</title>
<path fill="none" stroke="midnightblue" d="M602.57,-137.06C564.59,-126.04 507.06,-109.34 466.34,-97.53"/>
<polygon fill="midnightblue" stroke="midnightblue" points="601.68,-140.44 612.25,-139.87 603.63,-133.72 601.68,-140.44"/>
</g>
<!-- Node33 -->
<g id="node20" class="node">
<title>Node33</title>
<g id="a_node20"><a xlink:href="render__draw__bonus_8c.html" target="_top" xlink:title=" ">
<polygon fill="none" stroke="black" points="94.5,-73 94.5,-92 231.5,-92 231.5,-73 94.5,-73"/>
<text text-anchor="middle" x="163" y="-80" font-family="Helvetica,sans-Serif" font-size="10.00">src/render_draw_bonus.c</text>
</a>
</g>
</g>
<!-- Node17&#45;&gt;Node33 -->
<g id="edge21" class="edge">
<title>Node17&#45;&gt;Node33</title>
<path fill="none" stroke="midnightblue" d="M597.52,-137.72C591,-136.35 584.34,-135.05 578,-134 429.41,-109.32 390.05,-119.78 241,-98 229.55,-96.33 217.22,-94.19 205.81,-92.08"/>
<polygon fill="midnightblue" stroke="midnightblue" points="597.08,-141.21 607.6,-139.93 598.58,-134.37 597.08,-141.21"/>
</g>
<!-- Node36&#45;&gt;Node17 -->
<g id="edge51" class="edge">
<title>Node36&#45;&gt;Node17</title>
<path fill="none" stroke="midnightblue" d="M1012.56,-202.14C930.25,-190.67 778.23,-169.48 696.83,-158.14"/>
<polygon fill="midnightblue" stroke="midnightblue" points="1012.1,-205.61 1022.49,-203.52 1013.07,-198.67 1012.1,-205.61"/>
</g>
<!-- Node37 -->
<g id="node24" class="node">
<title>Node37</title>
<g id="a_node24"><a xlink:href="hit__manager_8h.html" target="_top" xlink:title=" ">
<polygon fill="none" stroke="black" points="757,-140 757,-159 861,-159 861,-140 757,-140"/>
<text text-anchor="middle" x="809" y="-147" font-family="Helvetica,sans-Serif" font-size="10.00">inc/hit_manager.h</text>
</a>
</g>
</g>
<!-- Node36&#45;&gt;Node37 -->
<g id="edge25" class="edge">
<title>Node36&#45;&gt;Node37</title>
<path fill="none" stroke="midnightblue" d="M1021.75,-199.19C971.3,-187.64 892.39,-169.58 846.18,-159.01"/>
<polygon fill="midnightblue" stroke="midnightblue" points="1021.22,-202.66 1031.75,-201.48 1022.78,-195.83 1021.22,-202.66"/>
</g>
<!-- Node43 -->
<g id="node30" class="node">
<title>Node43</title>
<g id="a_node30"><a xlink:href="hit__manager__bonus_8h.html" target="_top" xlink:title=" ">
<polygon fill="none" stroke="red" points="999.5,-140 999.5,-159 1138.5,-159 1138.5,-140 999.5,-140"/>
<text text-anchor="middle" x="1069" y="-147" font-family="Helvetica,sans-Serif" font-size="10.00">inc/hit_manager_bonus.h</text>
</a>
</g>
</g>
<!-- Node36&#45;&gt;Node43 -->
<g id="edge31" class="edge">
<title>Node36&#45;&gt;Node43</title>
<path fill="none" stroke="midnightblue" d="M1069,-191.32C1069,-180.5 1069,-167.4 1069,-159.01"/>
<polygon fill="midnightblue" stroke="midnightblue" points="1065.5,-191.48 1069,-201.48 1072.5,-191.48 1065.5,-191.48"/>
</g>
<!-- Node36&#45;&gt;Node57 -->
<g id="edge34" class="edge">
<title>Node36&#45;&gt;Node57</title>
<path fill="none" stroke="midnightblue" d="M1125.68,-206.21C1293.07,-195.02 1782.18,-162.32 1921.54,-153"/>
<polygon fill="midnightblue" stroke="midnightblue" points="1125.34,-202.73 1115.6,-206.88 1125.81,-209.71 1125.34,-202.73"/>
</g>
<!-- Node38 -->
<g id="node25" class="node">
<title>Node38</title>
<g id="a_node25"><a xlink:href="hit_8c.html" target="_top" xlink:title=" ">
<polygon fill="none" stroke="black" points="618.5,-73 618.5,-92 673.5,-92 673.5,-73 618.5,-73"/>
<text text-anchor="middle" x="646" y="-80" font-family="Helvetica,sans-Serif" font-size="10.00">src/hit.c</text>
</a>
</g>
</g>
<!-- Node37&#45;&gt;Node38 -->
<g id="edge26" class="edge">
<title>Node37&#45;&gt;Node38</title>
<path fill="none" stroke="midnightblue" d="M777.92,-136.1C745.55,-123.2 695.72,-103.33 667.48,-92.06"/>
<polygon fill="midnightblue" stroke="midnightblue" points="776.77,-139.42 787.35,-139.87 779.36,-132.91 776.77,-139.42"/>
</g>
<!-- Node39 -->
<g id="node26" class="node">
<title>Node39</title>
<g id="a_node26"><a xlink:href="hit__cylinder_8c.html" target="_top" xlink:title=" ">
<polygon fill="none" stroke="black" points="692,-73 692,-92 790,-92 790,-73 692,-73"/>
<text text-anchor="middle" x="741" y="-80" font-family="Helvetica,sans-Serif" font-size="10.00">src/hit_cylinder.c</text>
</a>
</g>
</g>
<!-- Node37&#45;&gt;Node39 -->
<g id="edge27" class="edge">
<title>Node37&#45;&gt;Node39</title>
<path fill="none" stroke="midnightblue" d="M792.26,-132.5C778.92,-119.75 760.77,-102.39 750.03,-92.13"/>
<polygon fill="midnightblue" stroke="midnightblue" points="790.18,-135.35 799.83,-139.73 795.02,-130.29 790.18,-135.35"/>
</g>
<!-- Node40 -->
<g id="node27" class="node">
<title>Node40</title>
<g id="a_node27"><a xlink:href="hit__plane_8c.html" target="_top" xlink:title=" ">
<polygon fill="none" stroke="black" points="808.5,-73 808.5,-92 895.5,-92 895.5,-73 808.5,-73"/>
<text text-anchor="middle" x="852" y="-80" font-family="Helvetica,sans-Serif" font-size="10.00">src/hit_plane.c</text>
</a>
</g>
</g>
<!-- Node37&#45;&gt;Node40 -->
<g id="edge28" class="edge">
<title>Node37&#45;&gt;Node40</title>
<path fill="none" stroke="midnightblue" d="M820.55,-131.03C828.88,-118.45 839.76,-102.01 846.29,-92.13"/>
<polygon fill="midnightblue" stroke="midnightblue" points="817.4,-129.46 814.8,-139.73 823.24,-133.32 817.4,-129.46"/>
</g>
<!-- Node41 -->
<g id="node28" class="node">
<title>Node41</title>
<g id="a_node28"><a xlink:href="hit__sphere_8c.html" target="_top" xlink:title=" ">
<polygon fill="none" stroke="black" points="913.5,-73 913.5,-92 1006.5,-92 1006.5,-73 913.5,-73"/>
<text text-anchor="middle" x="960" y="-80" font-family="Helvetica,sans-Serif" font-size="10.00">src/hit_sphere.c</text>
</a>
</g>
</g>
<!-- Node37&#45;&gt;Node41 -->
<g id="edge29" class="edge">
<title>Node37&#45;&gt;Node41</title>
<path fill="none" stroke="midnightblue" d="M838.55,-135.78C868.45,-122.91 913.88,-103.35 939.87,-92.17"/>
<polygon fill="midnightblue" stroke="midnightblue" points="836.85,-132.7 829.05,-139.87 839.62,-139.13 836.85,-132.7"/>
</g>
<!-- Node42 -->
<g id="node29" class="node">
<title>Node42</title>
<g id="a_node29"><a xlink:href="utils__cylinder_8c.html" target="_top" xlink:title=" ">
<polygon fill="none" stroke="black" points="493.5,-73 493.5,-92 600.5,-92 600.5,-73 493.5,-73"/>
<text text-anchor="middle" x="547" y="-80" font-family="Helvetica,sans-Serif" font-size="10.00">src/utils_cylinder.c</text>
</a>
</g>
</g>
<!-- Node37&#45;&gt;Node42 -->
<g id="edge30" class="edge">
<title>Node37&#45;&gt;Node42</title>
<path fill="none" stroke="midnightblue" d="M764.6,-137.48C712.92,-124.66 628.67,-103.76 581.6,-92.08"/>
<polygon fill="midnightblue" stroke="midnightblue" points="763.93,-140.92 774.48,-139.94 765.62,-134.13 763.93,-140.92"/>
</g>
<!-- Node43&#45;&gt;Node2 -->
<g id="edge33" class="edge">
<title>Node43&#45;&gt;Node2</title>
<path fill="none" stroke="midnightblue" d="M1092.71,-134.62C1114.7,-121.74 1146.74,-102.98 1165.27,-92.13"/>
<polygon fill="midnightblue" stroke="midnightblue" points="1090.83,-131.66 1083.97,-139.73 1094.37,-137.7 1090.83,-131.66"/>
</g>
<!-- Node44 -->
<g id="node31" class="node">
<title>Node44</title>
<g id="a_node31"><a xlink:href="lighting_8h.html" target="_top" xlink:title=" ">
<polygon fill="none" stroke="red" points="1025,-73 1025,-92 1105,-92 1105,-73 1025,-73"/>
<text text-anchor="middle" x="1065" y="-80" font-family="Helvetica,sans-Serif" font-size="10.00">inc/lighting.h</text>
</a>
</g>
</g>
<!-- Node43&#45;&gt;Node44 -->
<g id="edge32" class="edge">
<title>Node43&#45;&gt;Node44</title>
<path fill="none" stroke="midnightblue" d="M1067.83,-129.54C1067.07,-117.17 1066.12,-101.62 1065.53,-92.13"/>
<polygon fill="midnightblue" stroke="midnightblue" points="1064.35,-129.97 1068.46,-139.73 1071.34,-129.54 1064.35,-129.97"/>
</g>
<!-- Node58 -->
<g id="node33" class="node">
<title>Node58</title>
<g id="a_node33"><a xlink:href="render__compose__image_8c.html" target="_top" xlink:title=" ">
<polygon fill="none" stroke="black" points="3240.5,-67.5 3240.5,-97.5 3355.5,-97.5 3355.5,-67.5 3240.5,-67.5"/>
<text text-anchor="start" x="3248.5" y="-85.5" font-family="Helvetica,sans-Serif" font-size="10.00">src/render_compose</text>
<text text-anchor="middle" x="3298" y="-74.5" font-family="Helvetica,sans-Serif" font-size="10.00">_image.c</text>
</a>
</g>
</g>
<!-- Node57&#45;&gt;Node58 -->
<g id="edge35" class="edge">
<title>Node57&#45;&gt;Node58</title>
<path fill="none" stroke="midnightblue" d="M1991.96,-136.92C1996.3,-135.74 2000.73,-134.72 2005,-134 2542.95,-43.13 2690.54,-164.83 3232,-98 3234.68,-97.67 3237.41,-97.28 3240.16,-96.85"/>
<polygon fill="midnightblue" stroke="midnightblue" points="1990.68,-133.65 1982.1,-139.85 1992.68,-140.35 1990.68,-133.65"/>
</g>
<!-- Node59 -->
<g id="node34" class="node">
<title>Node59</title>
<g id="a_node34"><a xlink:href="render__draw_8c.html" target="_top" xlink:title=" ">
<polygon fill="none" stroke="black" points="1255,-73 1255,-92 1357,-92 1357,-73 1255,-73"/>
<text text-anchor="middle" x="1306" y="-80" font-family="Helvetica,sans-Serif" font-size="10.00">src/render_draw.c</text>
</a>
</g>
</g>
<!-- Node57&#45;&gt;Node59 -->
<g id="edge36" class="edge">
<title>Node57&#45;&gt;Node59</title>
<path fill="none" stroke="midnightblue" d="M1911.82,-146.92C1811.03,-143.01 1567.44,-130.72 1366,-98 1356.59,-96.47 1346.47,-94.25 1337.27,-92.01"/>
<polygon fill="midnightblue" stroke="midnightblue" points="1911.86,-150.42 1921.98,-147.3 1912.12,-143.43 1911.86,-150.42"/>
</g>
<!-- Node60 -->
<g id="node35" class="node">
<title>Node60</title>
<g id="a_node35"><a xlink:href="render__init__mlx_8c.html" target="_top" xlink:title=" ">
<polygon fill="none" stroke="black" points="1375.5,-73 1375.5,-92 1494.5,-92 1494.5,-73 1375.5,-73"/>
<text text-anchor="middle" x="1435" y="-80" font-family="Helvetica,sans-Serif" font-size="10.00">src/render_init_mlx.c</text>
</a>
</g>
</g>
<!-- Node57&#45;&gt;Node60 -->
<g id="edge37" class="edge">
<title>Node57&#45;&gt;Node60</title>
<path fill="none" stroke="midnightblue" d="M1911.87,-144.78C1829.04,-137.91 1652.07,-121.72 1504,-98 1493.73,-96.35 1482.67,-94.2 1472.48,-92.06"/>
<polygon fill="midnightblue" stroke="midnightblue" points="1911.72,-148.28 1921.98,-145.61 1912.3,-141.3 1911.72,-148.28"/>
</g>
<!-- Node61 -->
<g id="node36" class="node">
<title>Node61</title>
<g id="a_node36"><a xlink:href="render__keyhook__camera_8c.html" target="_top" xlink:title=" ">
<polygon fill="none" stroke="black" points="1513,-67.5 1513,-97.5 1625,-97.5 1625,-67.5 1513,-67.5"/>
<text text-anchor="start" x="1521" y="-85.5" font-family="Helvetica,sans-Serif" font-size="10.00">src/render_keyhook</text>
<text text-anchor="middle" x="1569" y="-74.5" font-family="Helvetica,sans-Serif" font-size="10.00">_camera.c</text>
</a>
</g>
</g>
<!-- Node57&#45;&gt;Node61 -->
<g id="edge38" class="edge">
<title>Node57&#45;&gt;Node61</title>
<path fill="none" stroke="midnightblue" d="M1911.73,-142.14C1848.33,-133.39 1732.32,-116.59 1634,-98 1631.16,-97.46 1628.25,-96.89 1625.32,-96.3"/>
<polygon fill="midnightblue" stroke="midnightblue" points="1911.44,-145.64 1921.82,-143.53 1912.39,-138.7 1911.44,-145.64"/>
</g>
<!-- Node62 -->
<g id="node37" class="node">
<title>Node62</title>
<g id="a_node37"><a xlink:href="render__keyhook__colour_8c.html" target="_top" xlink:title=" ">
<polygon fill="none" stroke="black" points="1643,-67.5 1643,-97.5 1755,-97.5 1755,-67.5 1643,-67.5"/>
<text text-anchor="start" x="1651" y="-85.5" font-family="Helvetica,sans-Serif" font-size="10.00">src/render_keyhook</text>
<text text-anchor="middle" x="1699" y="-74.5" font-family="Helvetica,sans-Serif" font-size="10.00">_colour.c</text>
</a>
</g>
</g>
<!-- Node57&#45;&gt;Node62 -->
<g id="edge39" class="edge">
<title>Node57&#45;&gt;Node62</title>
<path fill="none" stroke="midnightblue" d="M1914.91,-137.48C1870.9,-126.47 1803.1,-109.52 1755.24,-97.56"/>
<polygon fill="midnightblue" stroke="midnightblue" points="1914.19,-140.91 1924.74,-139.94 1915.89,-134.11 1914.19,-140.91"/>
</g>
<!-- Node63 -->
<g id="node38" class="node">
<title>Node63</title>
<g id="a_node38"><a xlink:href="render__keyhook__hittable_8c.html" target="_top" xlink:title=" ">
<polygon fill="none" stroke="black" points="1773,-67.5 1773,-97.5 1885,-97.5 1885,-67.5 1773,-67.5"/>
<text text-anchor="start" x="1781" y="-85.5" font-family="Helvetica,sans-Serif" font-size="10.00">src/render_keyhook</text>
<text text-anchor="middle" x="1829" y="-74.5" font-family="Helvetica,sans-Serif" font-size="10.00">_hittable.c</text>
</a>
</g>
</g>
<!-- Node57&#45;&gt;Node63 -->
<g id="edge40" class="edge">
<title>Node57&#45;&gt;Node63</title>
<path fill="none" stroke="midnightblue" d="M1932.68,-135.34C1910.8,-124.4 1879.72,-108.86 1857.3,-97.65"/>
<polygon fill="midnightblue" stroke="midnightblue" points="1931.23,-138.53 1941.74,-139.87 1934.36,-132.27 1931.23,-138.53"/>
</g>
<!-- Node64 -->
<g id="node39" class="node">
<title>Node64</title>
<g id="a_node39"><a xlink:href="render__keyhook__light_8c.html" target="_top" xlink:title=" ">
<polygon fill="none" stroke="black" points="1903,-67.5 1903,-97.5 2015,-97.5 2015,-67.5 1903,-67.5"/>
<text text-anchor="start" x="1911" y="-85.5" font-family="Helvetica,sans-Serif" font-size="10.00">src/render_keyhook</text>
<text text-anchor="middle" x="1959" y="-74.5" font-family="Helvetica,sans-Serif" font-size="10.00">_light.c</text>
</a>
</g>
</g>
<!-- Node57&#45;&gt;Node64 -->
<g id="edge41" class="edge">
<title>Node57&#45;&gt;Node64</title>
<path fill="none" stroke="midnightblue" d="M1959,-129.41C1959,-119.22 1959,-106.9 1959,-97.59"/>
<polygon fill="midnightblue" stroke="midnightblue" points="1955.5,-129.73 1959,-139.73 1962.5,-129.73 1955.5,-129.73"/>
</g>
<!-- Node65 -->
<g id="node40" class="node">
<title>Node65</title>
<g id="a_node40"><a xlink:href="render__keyhook__options_8c.html" target="_top" xlink:title=" ">
<polygon fill="none" stroke="black" points="2033,-67.5 2033,-97.5 2145,-97.5 2145,-67.5 2033,-67.5"/>
<text text-anchor="start" x="2041" y="-85.5" font-family="Helvetica,sans-Serif" font-size="10.00">src/render_keyhook</text>
<text text-anchor="middle" x="2089" y="-74.5" font-family="Helvetica,sans-Serif" font-size="10.00">_options.c</text>
</a>
</g>
</g>
<!-- Node57&#45;&gt;Node65 -->
<g id="edge42" class="edge">
<title>Node57&#45;&gt;Node65</title>
<path fill="none" stroke="midnightblue" d="M1985.32,-135.34C2007.2,-124.4 2038.28,-108.86 2060.7,-97.65"/>
<polygon fill="midnightblue" stroke="midnightblue" points="1983.64,-132.27 1976.26,-139.87 1986.77,-138.53 1983.64,-132.27"/>
</g>
<!-- Node66 -->
<g id="node41" class="node">
<title>Node66</title>
<g id="a_node41"><a xlink:href="render__keyhook__options__bonus_8c.html" target="_top" xlink:title=" ">
<polygon fill="none" stroke="black" points="2163,-67.5 2163,-97.5 2275,-97.5 2275,-67.5 2163,-67.5"/>
<text text-anchor="start" x="2171" y="-85.5" font-family="Helvetica,sans-Serif" font-size="10.00">src/render_keyhook</text>
<text text-anchor="middle" x="2219" y="-74.5" font-family="Helvetica,sans-Serif" font-size="10.00">_options_bonus.c</text>
</a>
</g>
</g>
<!-- Node57&#45;&gt;Node66 -->
<g id="edge43" class="edge">
<title>Node57&#45;&gt;Node66</title>
<path fill="none" stroke="midnightblue" d="M1994.77,-136.94C1998.22,-135.91 2001.67,-134.92 2005,-134 2034.26,-125.95 2109.73,-108.42 2162.71,-96.29"/>
<polygon fill="midnightblue" stroke="midnightblue" points="1993.71,-133.61 1985.17,-139.88 1995.76,-140.3 1993.71,-133.61"/>
</g>
<!-- Node67 -->
<g id="node42" class="node">
<title>Node67</title>
<g id="a_node42"><a xlink:href="render__keyhook__press_8c.html" target="_top" xlink:title=" ">
<polygon fill="none" stroke="black" points="2293,-67.5 2293,-97.5 2405,-97.5 2405,-67.5 2293,-67.5"/>
<text text-anchor="start" x="2301" y="-85.5" font-family="Helvetica,sans-Serif" font-size="10.00">src/render_keyhook</text>
<text text-anchor="middle" x="2349" y="-74.5" font-family="Helvetica,sans-Serif" font-size="10.00">_press.c</text>
</a>
</g>
</g>
<!-- Node57&#45;&gt;Node67 -->
<g id="edge44" class="edge">
<title>Node57&#45;&gt;Node67</title>
<path fill="none" stroke="midnightblue" d="M1993.22,-136.98C1997.17,-135.87 2001.15,-134.85 2005,-134 2127.1,-107.1 2160.86,-119.63 2284,-98 2286.85,-97.5 2289.76,-96.96 2292.69,-96.39"/>
<polygon fill="midnightblue" stroke="midnightblue" points="1992.19,-133.64 1983.61,-139.86 1994.19,-140.35 1992.19,-133.64"/>
</g>
<!-- Node68 -->
<g id="node43" class="node">
<title>Node68</title>
<g id="a_node43"><a xlink:href="render__keyhook__release_8c.html" target="_top" xlink:title=" ">
<polygon fill="none" stroke="black" points="2423,-67.5 2423,-97.5 2535,-97.5 2535,-67.5 2423,-67.5"/>
<text text-anchor="start" x="2431" y="-85.5" font-family="Helvetica,sans-Serif" font-size="10.00">src/render_keyhook</text>
<text text-anchor="middle" x="2479" y="-74.5" font-family="Helvetica,sans-Serif" font-size="10.00">_release.c</text>
</a>
</g>
</g>
<!-- Node57&#45;&gt;Node68 -->
<g id="edge45" class="edge">
<title>Node57&#45;&gt;Node68</title>
<path fill="none" stroke="midnightblue" d="M1992.29,-137.08C1996.53,-135.9 2000.84,-134.83 2005,-134 2183.97,-98.36 2233.67,-125.93 2414,-98 2416.86,-97.56 2419.77,-97.06 2422.72,-96.53"/>
<polygon fill="midnightblue" stroke="midnightblue" points="1991.19,-133.75 1982.62,-139.97 1993.2,-140.46 1991.19,-133.75"/>
</g>
<!-- Node69 -->
<g id="node44" class="node">
<title>Node69</title>
<g id="a_node44"><a xlink:href="render__keyhook__scene_8c.html" target="_top" xlink:title=" ">
<polygon fill="none" stroke="black" points="2553,-67.5 2553,-97.5 2665,-97.5 2665,-67.5 2553,-67.5"/>
<text text-anchor="start" x="2561" y="-85.5" font-family="Helvetica,sans-Serif" font-size="10.00">src/render_keyhook</text>
<text text-anchor="middle" x="2609" y="-74.5" font-family="Helvetica,sans-Serif" font-size="10.00">_scene.c</text>
</a>
</g>
</g>
<!-- Node57&#45;&gt;Node69 -->
<g id="edge46" class="edge">
<title>Node57&#45;&gt;Node69</title>
<path fill="none" stroke="midnightblue" d="M1992.27,-136.99C1996.52,-135.83 2000.83,-134.78 2005,-134 2240.95,-89.59 2306.36,-132.24 2544,-98 2546.86,-97.59 2549.78,-97.12 2552.73,-96.61"/>
<polygon fill="midnightblue" stroke="midnightblue" points="1991.18,-133.66 1982.6,-139.87 1993.18,-140.37 1991.18,-133.66"/>
</g>
<!-- Node70 -->
<g id="node45" class="node">
<title>Node70</title>
<g id="a_node45"><a xlink:href="render__keyhook__utils_8c.html" target="_top" xlink:title=" ">
<polygon fill="none" stroke="black" points="2683,-67.5 2683,-97.5 2795,-97.5 2795,-67.5 2683,-67.5"/>
<text text-anchor="start" x="2691" y="-85.5" font-family="Helvetica,sans-Serif" font-size="10.00">src/render_keyhook</text>
<text text-anchor="middle" x="2739" y="-74.5" font-family="Helvetica,sans-Serif" font-size="10.00">_utils.c</text>
</a>
</g>
</g>
<!-- Node57&#45;&gt;Node70 -->
<g id="edge47" class="edge">
<title>Node57&#45;&gt;Node70</title>
<path fill="none" stroke="midnightblue" d="M1991.98,-137.02C1996.32,-135.83 2000.74,-134.77 2005,-134 2297.98,-80.82 2379.01,-138.55 2674,-98 2676.86,-97.61 2679.79,-97.15 2682.73,-96.65"/>
<polygon fill="midnightblue" stroke="midnightblue" points="1990.69,-133.75 1982.12,-139.97 1992.7,-140.45 1990.69,-133.75"/>
</g>
<!-- Node71 -->
<g id="node46" class="node">
<title>Node71</title>
<g id="a_node46"><a xlink:href="render__loop__mlx_8c.html" target="_top" xlink:title=" ">
<polygon fill="none" stroke="black" points="2813,-73 2813,-92 2937,-92 2937,-73 2813,-73"/>
<text text-anchor="middle" x="2875" y="-80" font-family="Helvetica,sans-Serif" font-size="10.00">src/render_loop_mlx.c</text>
</a>
</g>
</g>
<!-- Node57&#45;&gt;Node71 -->
<g id="edge48" class="edge">
<title>Node57&#45;&gt;Node71</title>
<path fill="none" stroke="midnightblue" d="M1991.97,-136.98C1996.31,-135.8 2000.73,-134.76 2005,-134 2355.03,-72.04 2451.22,-141.7 2804,-98 2815.36,-96.59 2827.62,-94.35 2838.7,-92.05"/>
<polygon fill="midnightblue" stroke="midnightblue" points="1990.69,-133.71 1982.11,-139.93 1992.69,-140.42 1990.69,-133.71"/>
</g>
<!-- Node72 -->
<g id="node47" class="node">
<title>Node72</title>
<g id="a_node47"><a xlink:href="render__mouse_8c.html" target="_top" xlink:title=" ">
<polygon fill="none" stroke="black" points="2955,-73 2955,-92 3067,-92 3067,-73 2955,-73"/>
<text text-anchor="middle" x="3011" y="-80" font-family="Helvetica,sans-Serif" font-size="10.00">src/render_mouse.c</text>
</a>
</g>
</g>
<!-- Node57&#45;&gt;Node72 -->
<g id="edge49" class="edge">
<title>Node57&#45;&gt;Node72</title>
<path fill="none" stroke="midnightblue" d="M1991.97,-136.95C1996.31,-135.77 2000.73,-134.74 2005,-134 2417.37,-62.45 2530.94,-151.78 2946,-98 2956.55,-96.63 2967.91,-94.38 2978.14,-92.04"/>
<polygon fill="midnightblue" stroke="midnightblue" points="1990.69,-133.68 1982.1,-139.89 1992.69,-140.39 1990.69,-133.68"/>
</g>
<!-- Node73 -->
<g id="node48" class="node">
<title>Node73</title>
<g id="a_node48"><a xlink:href="render__output__ppm_8c.html" target="_top" xlink:title=" ">
<polygon fill="none" stroke="black" points="3085.5,-73 3085.5,-92 3222.5,-92 3222.5,-73 3085.5,-73"/>
<text text-anchor="middle" x="3154" y="-80" font-family="Helvetica,sans-Serif" font-size="10.00">src/render_output_ppm.c</text>
</a>
</g>
</g>
<!-- Node57&#45;&gt;Node73 -->
<g id="edge50" class="edge">
<title>Node57&#45;&gt;Node73</title>
<path fill="none" stroke="midnightblue" d="M1991.96,-136.93C1996.3,-135.76 2000.73,-134.73 2005,-134 2474.45,-53.67 2602.54,-149.67 3076,-98 3088.6,-96.63 3102.21,-94.37 3114.49,-92.04"/>
<polygon fill="midnightblue" stroke="midnightblue" points="1990.68,-133.66 1982.1,-139.87 1992.68,-140.37 1990.68,-133.66"/>
</g>
</g>
</svg>
