<?xml version="1.0" encoding="UTF-8" standalone="no"?>
<!DOCTYPE svg PUBLIC "-//W3C//DTD SVG 1.1//EN"
 "http://www.w3.org/Graphics/SVG/1.1/DTD/svg11.dtd">
<!-- Generated by graphviz version 2.43.0 (0)
 -->
<!-- Title: ft_cam_calc_base_vectors Pages: 1 -->
<svg width="401pt" height="104pt"
 viewBox="0.00 0.00 401.00 104.00" xmlns="http://www.w3.org/2000/svg" xmlns:xlink="http://www.w3.org/1999/xlink">
<g id="graph0" class="graph" transform="scale(1 1) rotate(0) translate(4 100)">
<title>ft_cam_calc_base_vectors</title>
<!-- Node1 -->
<g id="node1" class="node">
<title>Node1</title>
<g id="a_node1"><a xlink:title="Calculates basis vectors u, v, w.">
<polygon fill="#bfbfbf" stroke="black" points="249,-38.5 249,-57.5 393,-57.5 393,-38.5 249,-38.5"/>
<text text-anchor="middle" x="321" y="-45.5" font-family="Helvetica,sans-Serif" font-size="10.00">ft_cam_calc_base_vectors</text>
</a>
</g>
</g>
<!-- Node2 -->
<g id="node2" class="node">
<title>Node2</title>
<g id="a_node2"><a xlink:href="camera_8h.html#af7d021ad81a192b9ae379a76210706aa" target="_top" xlink:title="Initializes camera parameters.">
<polygon fill="none" stroke="black" points="109.5,-76.5 109.5,-95.5 180.5,-95.5 180.5,-76.5 109.5,-76.5"/>
<text text-anchor="middle" x="145" y="-83.5" font-family="Helvetica,sans-Serif" font-size="10.00">ft_cam_init</text>
</a>
</g>
</g>
<!-- Node1&#45;&gt;Node2 -->
<g id="edge1" class="edge">
<title>Node1&#45;&gt;Node2</title>
<path fill="none" stroke="midnightblue" d="M266.09,-59.77C238.2,-65.86 204.99,-73.12 180.57,-78.45"/>
<polygon fill="midnightblue" stroke="midnightblue" points="267.07,-63.14 276.09,-57.59 265.58,-56.3 267.07,-63.14"/>
</g>
<!-- Node4 -->
<g id="node4" class="node">
<title>Node4</title>
<g id="a_node4"><a xlink:href="render_8h.html#a1509258bd6eb6bea810a0ac7bb6e1e70" target="_top" xlink:title="Manipulates the camera with a keypress.">
<polygon fill="none" stroke="black" points="102,-38.5 102,-57.5 188,-57.5 188,-38.5 102,-38.5"/>
<text text-anchor="middle" x="145" y="-45.5" font-family="Helvetica,sans-Serif" font-size="10.00">ft_manip_cam</text>
</a>
</g>
</g>
<!-- Node1&#45;&gt;Node4 -->
<g id="edge3" class="edge">
<title>Node1&#45;&gt;Node4</title>
<path fill="none" stroke="midnightblue" d="M238.72,-48C221.21,-48 203.38,-48 188.1,-48"/>
<polygon fill="midnightblue" stroke="midnightblue" points="238.98,-51.5 248.98,-48 238.98,-44.5 238.98,-51.5"/>
</g>
<!-- Node5 -->
<g id="node5" class="node">
<title>Node5</title>
<g id="a_node5"><a xlink:href="render_8h.html#a8b0cab63a8053d366bbefead351d039a" target="_top" xlink:title="Rotates the camera with the mouse.">
<polygon fill="none" stroke="black" points="77,-0.5 77,-19.5 213,-19.5 213,-0.5 77,-0.5"/>
<text text-anchor="middle" x="145" y="-7.5" font-family="Helvetica,sans-Serif" font-size="10.00">ft_mouse_hook_rot_cam</text>
</a>
</g>
</g>
<!-- Node1&#45;&gt;Node5 -->
<g id="edge4" class="edge">
<title>Node1&#45;&gt;Node5</title>
<path fill="none" stroke="midnightblue" d="M266.19,-36.25C241.58,-30.87 212.81,-24.59 189.59,-19.52"/>
<polygon fill="midnightblue" stroke="midnightblue" points="265.58,-39.7 276.09,-38.41 267.07,-32.86 265.58,-39.7"/>
</g>
<!-- Node3 -->
<g id="node3" class="node">
<title>Node3</title>
<g id="a_node3"><a xlink:href="main_8c.html#a3c04138a5bfe5d72780bb7e82a18e627" target="_top" xlink:title=" ">
<polygon fill="none" stroke="black" points="0,-76.5 0,-95.5 41,-95.5 41,-76.5 0,-76.5"/>
<text text-anchor="middle" x="20.5" y="-83.5" font-family="Helvetica,sans-Serif" font-size="10.00">main</text>
</a>
</g>
</g>
<!-- Node2&#45;&gt;Node3 -->
<g id="edge2" class="edge">
<title>Node2&#45;&gt;Node3</title>
<path fill="none" stroke="midnightblue" d="M99.07,-86C79.13,-86 56.69,-86 41.1,-86"/>
<polygon fill="midnightblue" stroke="midnightblue" points="99.22,-89.5 109.22,-86 99.22,-82.5 99.22,-89.5"/>
</g>
</g>
</svg>
