<?xml version="1.0" encoding="UTF-8" standalone="no"?>
<!DOCTYPE svg PUBLIC "-//W3C//DTD SVG 1.1//EN"
 "http://www.w3.org/Graphics/SVG/1.1/DTD/svg11.dtd">
<!-- Generated by graphviz version 2.43.0 (0)
 -->
<!-- Title: inc/camera.h Pages: 1 -->
<!--zoomable 274 -->
<svg id="main" version="1.1" xmlns="http://www.w3.org/2000/svg" xmlns:xlink="http://www.w3.org/1999/xlink" xml:space="preserve" onload="init(evt)">
<style type="text/css"><![CDATA[
.edge:hover path { stroke: red; }
.edge:hover polygon { stroke: red; fill: red; }
]]></style>
<script type="text/javascript"><![CDATA[
var edges = document.getElementsByTagName('g');
if (edges && edges.length) {
  for (var i=0;i<edges.length;i++) {
    if (edges[i].id.substr(0,4)=='edge') {
      edges[i].setAttribute('class','edge');
    }
  }
}
]]></script>
        <defs>
                <circle id="rim" cx="0" cy="0" r="7"/>
                <circle id="rim2" cx="0" cy="0" r="3.5"/>
                <g id="zoomPlus">
                        <use xlink:href="#rim" fill="#404040">
                                <set attributeName="fill" to="#808080" begin="zoomplus.mouseover" end="zoomplus.mouseout"/>
                        </use>
                        <path d="M-4,0h8M0,-4v8" fill="none" stroke="white" stroke-width="1.5" pointer-events="none"/>
                </g>
                <g id="zoomMin">
                        <use xlink:href="#rim" fill="#404040">
                                <set attributeName="fill" to="#808080" begin="zoomminus.mouseover" end="zoomminus.mouseout"/>
                        </use>
                        <path d="M-4,0h8" fill="none" stroke="white" stroke-width="1.5" pointer-events="none"/>
                </g>
                <g id="dirArrow">
                        <path fill="none" stroke="white" stroke-width="1.5" d="M0,-3.0v7 M-2.5,-0.5L0,-3.0L2.5,-0.5"/>
                </g>
               <g id="resetDef">
                       <use xlink:href="#rim2" fill="#404040">
                               <set attributeName="fill" to="#808080" begin="reset.mouseover" end="reset.mouseout"/>
                       </use>
               </g>
        </defs>

<script type="text/javascript">
var viewWidth = 4202;
var viewHeight = 274;
var sectionId = 'dynsection-1';
</script>
<script xlink:href="svgpan.js"/>
<svg id="graph" class="graph">
<g id="viewport">
<title>inc/camera.h</title>
<!-- Node1 -->
<g id="node1" class="node">
<title>Node1</title>
<g id="a_node1"><a xlink:title=" ">
<polygon fill="#bfbfbf" stroke="black" points="1008.75,-246.5 1008.75,-265.5 1088.75,-265.5 1088.75,-246.5 1008.75,-246.5"/>
<text text-anchor="middle" x="1048.75" y="-253.5" font-family="Helvetica,sans-Serif" font-size="10.00">inc/camera.h</text>
</a>
</g>
</g>
<!-- Node2 -->
<g id="node2" class="node">
<title>Node2</title>
<g id="a_node2"><a xlink:href="mini_r_t_8h.html" target="_top" xlink:title=" ">
<polygon fill="none" stroke="black" points="557.75,-62 557.75,-81 633.75,-81 633.75,-62 557.75,-62"/>
<text text-anchor="middle" x="595.75" y="-69" font-family="Helvetica,sans-Serif" font-size="10.00">inc/miniRT.h</text>
</a>
</g>
</g>
<!-- Node1&#45;&gt;Node2 -->
<g id="edge1" class="edge">
<title>Node1&#45;&gt;Node2</title>
<path fill="none" stroke="midnightblue" d="M998.27,-254.25C798.24,-250.73 69.08,-232.55 6.75,-154 -1.81,-143.21 -2.56,-133.15 6.75,-123 44.01,-82.41 433.24,-74.38 557.71,-72.85"/>
<polygon fill="midnightblue" stroke="midnightblue" points="998.43,-257.75 1008.49,-254.42 998.55,-250.75 998.43,-257.75"/>
</g>
<!-- Node4 -->
<g id="node4" class="node">
<title>Node4</title>
<g id="a_node4"><a xlink:href="parse_8h.html" target="_top" xlink:title=" ">
<polygon fill="none" stroke="black" points="255.75,-190.5 255.75,-209.5 325.75,-209.5 325.75,-190.5 255.75,-190.5"/>
<text text-anchor="middle" x="290.75" y="-197.5" font-family="Helvetica,sans-Serif" font-size="10.00">inc/parse.h</text>
</a>
</g>
</g>
<!-- Node1&#45;&gt;Node4 -->
<g id="edge3" class="edge">
<title>Node1&#45;&gt;Node4</title>
<path fill="none" stroke="midnightblue" d="M998.28,-251.4C855.01,-241.2 448.28,-212.22 325.97,-203.51"/>
<polygon fill="midnightblue" stroke="midnightblue" points="998.31,-254.92 1008.53,-252.13 998.81,-247.93 998.31,-254.92"/>
</g>
<!-- Node9 -->
<g id="node9" class="node">
<title>Node9</title>
<g id="a_node9"><a xlink:href="parse__bonus_8h.html" target="_top" xlink:title=" ">
<polygon fill="none" stroke="black" points="615.75,-190.5 615.75,-209.5 719.75,-209.5 719.75,-190.5 615.75,-190.5"/>
<text text-anchor="middle" x="667.75" y="-197.5" font-family="Helvetica,sans-Serif" font-size="10.00">inc/parse_bonus.h</text>
</a>
</g>
</g>
<!-- Node1&#45;&gt;Node9 -->
<g id="edge8" class="edge">
<title>Node1&#45;&gt;Node9</title>
<path fill="none" stroke="midnightblue" d="M998.48,-247.87C926.14,-237.62 793.34,-218.8 719.95,-208.4"/>
<polygon fill="midnightblue" stroke="midnightblue" points="998.31,-251.39 1008.7,-249.32 999.29,-244.45 998.31,-251.39"/>
</g>
<!-- Node12 -->
<g id="node12" class="node">
<title>Node12</title>
<g id="a_node12"><a xlink:href="print_8h.html" target="_top" xlink:title=" ">
<polygon fill="none" stroke="black" points="925.25,-190.5 925.25,-209.5 990.25,-209.5 990.25,-190.5 925.25,-190.5"/>
<text text-anchor="middle" x="957.75" y="-197.5" font-family="Helvetica,sans-Serif" font-size="10.00">inc/print.h</text>
</a>
</g>
</g>
<!-- Node1&#45;&gt;Node12 -->
<g id="edge12" class="edge">
<title>Node1&#45;&gt;Node12</title>
<path fill="none" stroke="midnightblue" d="M1025.46,-241.18C1008.71,-231.24 986.65,-218.15 972.34,-209.65"/>
<polygon fill="midnightblue" stroke="midnightblue" points="1023.75,-244.23 1034.13,-246.32 1027.32,-238.21 1023.75,-244.23"/>
</g>
<!-- Node13 -->
<g id="node13" class="node">
<title>Node13</title>
<g id="a_node13"><a xlink:href="render__bonus_8h.html" target="_top" xlink:title=" ">
<polygon fill="none" stroke="black" points="1009.25,-129 1009.25,-148 1118.25,-148 1118.25,-129 1009.25,-129"/>
<text text-anchor="middle" x="1063.75" y="-136" font-family="Helvetica,sans-Serif" font-size="10.00">inc/render_bonus.h</text>
</a>
</g>
</g>
<!-- Node1&#45;&gt;Node13 -->
<g id="edge53" class="edge">
<title>Node1&#45;&gt;Node13</title>
<path fill="none" stroke="midnightblue" d="M1051.2,-236.16C1054.48,-210.87 1060.19,-166.94 1062.61,-148.28"/>
<polygon fill="midnightblue" stroke="midnightblue" points="1047.7,-235.95 1049.88,-246.32 1054.64,-236.85 1047.7,-235.95"/>
</g>
<!-- Node35 -->
<g id="node19" class="node">
<title>Node35</title>
<g id="a_node19"><a xlink:href="ray__bonus_8h.html" target="_top" xlink:title=" ">
<polygon fill="none" stroke="black" points="1077.25,-190.5 1077.25,-209.5 1170.25,-209.5 1170.25,-190.5 1077.25,-190.5"/>
<text text-anchor="middle" x="1123.75" y="-197.5" font-family="Helvetica,sans-Serif" font-size="10.00">inc/ray_bonus.h</text>
</a>
</g>
</g>
<!-- Node1&#45;&gt;Node35 -->
<g id="edge20" class="edge">
<title>Node1&#45;&gt;Node35</title>
<path fill="none" stroke="midnightblue" d="M1069.06,-240.38C1082.61,-230.62 1099.99,-218.11 1111.48,-209.83"/>
<polygon fill="midnightblue" stroke="midnightblue" points="1066.87,-237.64 1060.8,-246.32 1070.96,-243.32 1066.87,-237.64"/>
</g>
<!-- Node60 -->
<g id="node32" class="node">
<title>Node60</title>
<g id="a_node32"><a xlink:href="render_8h.html" target="_top" xlink:title=" ">
<polygon fill="none" stroke="black" points="2983.75,-129 2983.75,-148 3057.75,-148 3057.75,-129 2983.75,-129"/>
<text text-anchor="middle" x="3020.75" y="-136" font-family="Helvetica,sans-Serif" font-size="10.00">inc/render.h</text>
</a>
</g>
</g>
<!-- Node1&#45;&gt;Node60 -->
<g id="edge52" class="edge">
<title>Node1&#45;&gt;Node60</title>
<path fill="none" stroke="midnightblue" d="M1086.94,-243.47C1113.37,-235.11 1149.14,-223.03 1179.75,-210 1197.68,-202.37 1199.88,-194.84 1218.75,-190 1307.24,-167.32 2733.47,-144 2983.49,-140.08"/>
<polygon fill="midnightblue" stroke="midnightblue" points="1085.8,-240.16 1077.3,-246.49 1087.89,-246.84 1085.8,-240.16"/>
</g>
<!-- Node77 -->
<g id="node49" class="node">
<title>Node77</title>
<g id="a_node49"><a xlink:href="camera_8c.html" target="_top" xlink:title=" ">
<polygon fill="none" stroke="black" points="1227.25,-190.5 1227.25,-209.5 1306.25,-209.5 1306.25,-190.5 1227.25,-190.5"/>
<text text-anchor="middle" x="1266.75" y="-197.5" font-family="Helvetica,sans-Serif" font-size="10.00">src/camera.c</text>
</a>
</g>
</g>
<!-- Node1&#45;&gt;Node77 -->
<g id="edge54" class="edge">
<title>Node1&#45;&gt;Node77</title>
<path fill="none" stroke="midnightblue" d="M1093.06,-244.02C1134.24,-233.82 1194.73,-218.84 1232.37,-209.52"/>
<polygon fill="midnightblue" stroke="midnightblue" points="1092.16,-240.64 1083.3,-246.44 1093.84,-247.44 1092.16,-240.64"/>
</g>
<!-- Node78 -->
<g id="node50" class="node">
<title>Node78</title>
<g id="a_node50"><a xlink:href="camera__movement_8c.html" target="_top" xlink:title=" ">
<polygon fill="none" stroke="black" points="1324.25,-190.5 1324.25,-209.5 1461.25,-209.5 1461.25,-190.5 1324.25,-190.5"/>
<text text-anchor="middle" x="1392.75" y="-197.5" font-family="Helvetica,sans-Serif" font-size="10.00">src/camera_movement.c</text>
</a>
</g>
</g>
<!-- Node1&#45;&gt;Node78 -->
<g id="edge55" class="edge">
<title>Node1&#45;&gt;Node78</title>
<path fill="none" stroke="midnightblue" d="M1099.12,-247.09C1163.01,-237.06 1272.77,-219.83 1338.48,-209.52"/>
<polygon fill="midnightblue" stroke="midnightblue" points="1098.22,-243.69 1088.89,-248.7 1099.31,-250.61 1098.22,-243.69"/>
</g>
<!-- Node3 -->
<g id="node3" class="node">
<title>Node3</title>
<g id="a_node3"><a xlink:href="main_8c.html" target="_top" xlink:title=" ">
<polygon fill="none" stroke="black" points="562.25,-0.5 562.25,-19.5 629.25,-19.5 629.25,-0.5 562.25,-0.5"/>
<text text-anchor="middle" x="595.75" y="-7.5" font-family="Helvetica,sans-Serif" font-size="10.00">src/main.c</text>
</a>
</g>
</g>
<!-- Node2&#45;&gt;Node3 -->
<g id="edge2" class="edge">
<title>Node2&#45;&gt;Node3</title>
<path fill="none" stroke="midnightblue" d="M595.75,-51.82C595.75,-41 595.75,-27.9 595.75,-19.51"/>
<polygon fill="midnightblue" stroke="midnightblue" points="592.25,-51.98 595.75,-61.98 599.25,-51.98 592.25,-51.98"/>
</g>
<!-- Node5 -->
<g id="node5" class="node">
<title>Node5</title>
<g id="a_node5"><a xlink:href="parse_8c.html" target="_top" xlink:title=" ">
<polygon fill="none" stroke="black" points="256.25,-129 256.25,-148 325.25,-148 325.25,-129 256.25,-129"/>
<text text-anchor="middle" x="290.75" y="-136" font-family="Helvetica,sans-Serif" font-size="10.00">src/parse.c</text>
</a>
</g>
</g>
<!-- Node4&#45;&gt;Node5 -->
<g id="edge4" class="edge">
<title>Node4&#45;&gt;Node5</title>
<path fill="none" stroke="midnightblue" d="M290.75,-180.32C290.75,-169.5 290.75,-156.4 290.75,-148.01"/>
<polygon fill="midnightblue" stroke="midnightblue" points="287.25,-180.48 290.75,-190.48 294.25,-180.48 287.25,-180.48"/>
</g>
<!-- Node6 -->
<g id="node6" class="node">
<title>Node6</title>
<g id="a_node6"><a xlink:href="parse__entity___a_c_l_8c.html" target="_top" xlink:title=" ">
<polygon fill="none" stroke="black" points="343.25,-129 343.25,-148 470.25,-148 470.25,-129 343.25,-129"/>
<text text-anchor="middle" x="406.75" y="-136" font-family="Helvetica,sans-Serif" font-size="10.00">src/parse_entity_ACL.c</text>
</a>
</g>
</g>
<!-- Node4&#45;&gt;Node6 -->
<g id="edge5" class="edge">
<title>Node4&#45;&gt;Node6</title>
<path fill="none" stroke="midnightblue" d="M316.36,-185.87C338.84,-174.33 370.88,-157.9 390.16,-148.01"/>
<polygon fill="midnightblue" stroke="midnightblue" points="314.67,-182.8 307.37,-190.48 317.87,-189.03 314.67,-182.8"/>
</g>
<!-- Node7 -->
<g id="node7" class="node">
<title>Node7</title>
<g id="a_node7"><a xlink:href="parse__entity__sp__pl__cy_8c.html" target="_top" xlink:title=" ">
<polygon fill="none" stroke="black" points="16.25,-123.5 16.25,-153.5 127.25,-153.5 127.25,-123.5 16.25,-123.5"/>
<text text-anchor="start" x="24.25" y="-141.5" font-family="Helvetica,sans-Serif" font-size="10.00">src/parse_entity_sp</text>
<text text-anchor="middle" x="71.75" y="-130.5" font-family="Helvetica,sans-Serif" font-size="10.00">_pl_cy.c</text>
</a>
</g>
</g>
<!-- Node4&#45;&gt;Node7 -->
<g id="edge6" class="edge">
<title>Node4&#45;&gt;Node7</title>
<path fill="none" stroke="midnightblue" d="M249.29,-187.73C213.54,-178.02 161.78,-163.96 123.37,-153.52"/>
<polygon fill="midnightblue" stroke="midnightblue" points="248.81,-191.23 259.38,-190.48 250.64,-184.48 248.81,-191.23"/>
</g>
<!-- Node8 -->
<g id="node8" class="node">
<title>Node8</title>
<g id="a_node8"><a xlink:href="parse__line_8c.html" target="_top" xlink:title=" ">
<polygon fill="none" stroke="black" points="145.75,-129 145.75,-148 237.75,-148 237.75,-129 145.75,-129"/>
<text text-anchor="middle" x="191.75" y="-136" font-family="Helvetica,sans-Serif" font-size="10.00">src/parse_line.c</text>
</a>
</g>
</g>
<!-- Node4&#45;&gt;Node8 -->
<g id="edge7" class="edge">
<title>Node4&#45;&gt;Node8</title>
<path fill="none" stroke="midnightblue" d="M267.86,-185.24C248.74,-173.75 222.07,-157.72 205.91,-148.01"/>
<polygon fill="midnightblue" stroke="midnightblue" points="266.19,-188.32 276.57,-190.48 269.8,-182.32 266.19,-188.32"/>
</g>
<!-- Node9&#45;&gt;Node2 -->
<g id="edge9" class="edge">
<title>Node9&#45;&gt;Node2</title>
<path fill="none" stroke="midnightblue" d="M657.74,-181.4C642.11,-153.94 612.49,-101.9 600.74,-81.26"/>
<polygon fill="midnightblue" stroke="midnightblue" points="654.82,-183.35 662.8,-190.31 660.9,-179.88 654.82,-183.35"/>
</g>
<!-- Node10 -->
<g id="node10" class="node">
<title>Node10</title>
<g id="a_node10"><a xlink:href="parse__bonus_8c.html" target="_top" xlink:title=" ">
<polygon fill="none" stroke="black" points="655.75,-129 655.75,-148 759.75,-148 759.75,-129 655.75,-129"/>
<text text-anchor="middle" x="707.75" y="-136" font-family="Helvetica,sans-Serif" font-size="10.00">src/parse_bonus.c</text>
</a>
</g>
</g>
<!-- Node9&#45;&gt;Node10 -->
<g id="edge10" class="edge">
<title>Node9&#45;&gt;Node10</title>
<path fill="none" stroke="midnightblue" d="M679.18,-182.01C686.65,-170.89 696.1,-156.84 702.03,-148.01"/>
<polygon fill="midnightblue" stroke="midnightblue" points="676.16,-180.22 673.48,-190.48 681.97,-184.13 676.16,-180.22"/>
</g>
<!-- Node11 -->
<g id="node11" class="node">
<title>Node11</title>
<g id="a_node11"><a xlink:href="parse__entity__sp__pl__cy__bonus_8c.html" target="_top" xlink:title=" ">
<polygon fill="none" stroke="black" points="488.25,-123.5 488.25,-153.5 599.25,-153.5 599.25,-123.5 488.25,-123.5"/>
<text text-anchor="start" x="496.25" y="-141.5" font-family="Helvetica,sans-Serif" font-size="10.00">src/parse_entity_sp</text>
<text text-anchor="middle" x="543.75" y="-130.5" font-family="Helvetica,sans-Serif" font-size="10.00">_pl_cy_bonus.c</text>
</a>
</g>
</g>
<!-- Node9&#45;&gt;Node11 -->
<g id="edge11" class="edge">
<title>Node9&#45;&gt;Node11</title>
<path fill="none" stroke="midnightblue" d="M640.81,-186.07C620.79,-176.47 593.52,-163.38 572.98,-153.52"/>
<polygon fill="midnightblue" stroke="midnightblue" points="639.46,-189.3 649.99,-190.48 642.48,-182.99 639.46,-189.3"/>
</g>
<!-- Node12&#45;&gt;Node13 -->
<g id="edge13" class="edge">
<title>Node12&#45;&gt;Node13</title>
<path fill="none" stroke="midnightblue" d="M981.7,-185.56C1002.22,-174.04 1031.13,-157.81 1048.59,-148.01"/>
<polygon fill="midnightblue" stroke="midnightblue" points="979.95,-182.53 972.94,-190.48 983.37,-188.63 979.95,-182.53"/>
</g>
<!-- Node33 -->
<g id="node17" class="node">
<title>Node33</title>
<g id="a_node17"><a xlink:href="print__entity_8c.html" target="_top" xlink:title=" ">
<polygon fill="none" stroke="black" points="894.25,-129 894.25,-148 991.25,-148 991.25,-129 894.25,-129"/>
<text text-anchor="middle" x="942.75" y="-136" font-family="Helvetica,sans-Serif" font-size="10.00">src/print_entity.c</text>
</a>
</g>
</g>
<!-- Node12&#45;&gt;Node33 -->
<g id="edge18" class="edge">
<title>Node12&#45;&gt;Node33</title>
<path fill="none" stroke="midnightblue" d="M953.13,-180.66C950.38,-169.77 947.03,-156.49 944.9,-148.01"/>
<polygon fill="midnightblue" stroke="midnightblue" points="949.76,-181.63 955.6,-190.48 956.55,-179.92 949.76,-181.63"/>
</g>
<!-- Node34 -->
<g id="node18" class="node">
<title>Node34</title>
<g id="a_node18"><a xlink:href="print__struct_8c.html" target="_top" xlink:title=" ">
<polygon fill="none" stroke="black" points="777.75,-129 777.75,-148 875.75,-148 875.75,-129 777.75,-129"/>
<text text-anchor="middle" x="826.75" y="-136" font-family="Helvetica,sans-Serif" font-size="10.00">src/print_struct.c</text>
</a>
</g>
</g>
<!-- Node12&#45;&gt;Node34 -->
<g id="edge19" class="edge">
<title>Node12&#45;&gt;Node34</title>
<path fill="none" stroke="midnightblue" d="M929.85,-186.33C904.42,-174.78 867.55,-158.03 845.49,-148.01"/>
<polygon fill="midnightblue" stroke="midnightblue" points="928.43,-189.53 938.98,-190.48 931.33,-183.15 928.43,-189.53"/>
</g>
<!-- Node13&#45;&gt;Node2 -->
<g id="edge15" class="edge">
<title>Node13&#45;&gt;Node2</title>
<path fill="none" stroke="midnightblue" d="M1020.21,-126.73C1013.71,-125.34 1007.08,-124.04 1000.75,-123 842.96,-97.01 799.49,-118.73 642.75,-87 635.39,-85.51 627.53,-83.33 620.39,-81.11"/>
<polygon fill="midnightblue" stroke="midnightblue" points="1019.71,-130.2 1030.23,-128.96 1021.23,-123.37 1019.71,-130.2"/>
</g>
<!-- Node14 -->
<g id="node14" class="node">
<title>Node14</title>
<g id="a_node14"><a xlink:href="menu__put_8h.html" target="_top" xlink:title=" ">
<polygon fill="none" stroke="red" points="651.75,-62 651.75,-81 743.75,-81 743.75,-62 651.75,-62"/>
<text text-anchor="middle" x="697.75" y="-69" font-family="Helvetica,sans-Serif" font-size="10.00">inc/menu_put.h</text>
</a>
</g>
</g>
<!-- Node13&#45;&gt;Node14 -->
<g id="edge14" class="edge">
<title>Node13&#45;&gt;Node14</title>
<path fill="none" stroke="midnightblue" d="M1018.82,-126.69C1012.76,-125.37 1006.62,-124.1 1000.75,-123 891.72,-102.54 862.5,-108.94 753.75,-87 745.38,-85.31 736.4,-83.15 728.13,-81.01"/>
<polygon fill="midnightblue" stroke="midnightblue" points="1018.35,-130.17 1028.87,-128.94 1019.88,-123.34 1018.35,-130.17"/>
</g>
<!-- Node31 -->
<g id="node15" class="node">
<title>Node31</title>
<g id="a_node15"><a xlink:href="render__compose__image__bonus_8c.html" target="_top" xlink:title=" ">
<polygon fill="none" stroke="black" points="762.25,-56.5 762.25,-86.5 877.25,-86.5 877.25,-56.5 762.25,-56.5"/>
<text text-anchor="start" x="770.25" y="-74.5" font-family="Helvetica,sans-Serif" font-size="10.00">src/render_compose</text>
<text text-anchor="middle" x="819.75" y="-63.5" font-family="Helvetica,sans-Serif" font-size="10.00">_image_bonus.c</text>
</a>
</g>
</g>
<!-- Node13&#45;&gt;Node31 -->
<g id="edge16" class="edge">
<title>Node13&#45;&gt;Node31</title>
<path fill="none" stroke="midnightblue" d="M1021.85,-126.34C980.54,-115.33 917.26,-98.47 872.53,-86.56"/>
<polygon fill="midnightblue" stroke="midnightblue" points="1021.04,-129.74 1031.6,-128.94 1022.84,-122.98 1021.04,-129.74"/>
</g>
<!-- Node32 -->
<g id="node16" class="node">
<title>Node32</title>
<g id="a_node16"><a xlink:href="render__draw__bonus_8c.html" target="_top" xlink:title=" ">
<polygon fill="none" stroke="black" points="895.25,-62 895.25,-81 1032.25,-81 1032.25,-62 895.25,-62"/>
<text text-anchor="middle" x="963.75" y="-69" font-family="Helvetica,sans-Serif" font-size="10.00">src/render_draw_bonus.c</text>
</a>
</g>
</g>
<!-- Node13&#45;&gt;Node32 -->
<g id="edge17" class="edge">
<title>Node13&#45;&gt;Node32</title>
<path fill="none" stroke="midnightblue" d="M1041.86,-123.27C1022.06,-110.4 993.57,-91.88 977.03,-81.13"/>
<polygon fill="midnightblue" stroke="midnightblue" points="1039.97,-126.22 1050.27,-128.73 1043.79,-120.35 1039.97,-126.22"/>
</g>
<!-- Node35&#45;&gt;Node13 -->
<g id="edge51" class="edge">
<title>Node35&#45;&gt;Node13</title>
<path fill="none" stroke="midnightblue" d="M1107.95,-183.32C1096.55,-172.02 1081.59,-157.19 1072.33,-148.01"/>
<polygon fill="midnightblue" stroke="midnightblue" points="1105.59,-185.92 1115.16,-190.48 1110.52,-180.95 1105.59,-185.92"/>
</g>
<!-- Node36 -->
<g id="node20" class="node">
<title>Node36</title>
<g id="a_node20"><a xlink:href="hit__manager_8h.html" target="_top" xlink:title=" ">
<polygon fill="none" stroke="black" points="1199.75,-129 1199.75,-148 1303.75,-148 1303.75,-129 1199.75,-129"/>
<text text-anchor="middle" x="1251.75" y="-136" font-family="Helvetica,sans-Serif" font-size="10.00">inc/hit_manager.h</text>
</a>
</g>
</g>
<!-- Node35&#45;&gt;Node36 -->
<g id="edge21" class="edge">
<title>Node35&#45;&gt;Node36</title>
<path fill="none" stroke="midnightblue" d="M1151.34,-186.17C1176.18,-174.63 1211.98,-157.99 1233.45,-148.01"/>
<polygon fill="midnightblue" stroke="midnightblue" points="1149.68,-183.09 1142.09,-190.48 1152.64,-189.43 1149.68,-183.09"/>
</g>
<!-- Node42 -->
<g id="node26" class="node">
<title>Node42</title>
<g id="a_node26"><a xlink:href="hit__manager__bonus_8h.html" target="_top" xlink:title=" ">
<polygon fill="none" stroke="red" points="1663.25,-129 1663.25,-148 1802.25,-148 1802.25,-129 1663.25,-129"/>
<text text-anchor="middle" x="1732.75" y="-136" font-family="Helvetica,sans-Serif" font-size="10.00">inc/hit_manager_bonus.h</text>
</a>
</g>
</g>
<!-- Node35&#45;&gt;Node42 -->
<g id="edge27" class="edge">
<title>Node35&#45;&gt;Node42</title>
<path fill="none" stroke="midnightblue" d="M1180.32,-190.55C1181.81,-190.36 1183.29,-190.18 1184.75,-190 1356.22,-169.47 1558.74,-152.75 1662.99,-144.7"/>
<polygon fill="midnightblue" stroke="midnightblue" points="1179.8,-187.08 1170.34,-191.86 1180.72,-194.02 1179.8,-187.08"/>
</g>
<!-- Node35&#45;&gt;Node60 -->
<g id="edge34" class="edge">
<title>Node35&#45;&gt;Node60</title>
<path fill="none" stroke="midnightblue" d="M1180.3,-190.42C1181.8,-190.27 1183.29,-190.13 1184.75,-190 1552.45,-157.93 2756.53,-142.57 2983.63,-139.92"/>
<polygon fill="midnightblue" stroke="midnightblue" points="1179.86,-186.95 1170.31,-191.55 1180.64,-193.9 1179.86,-186.95"/>
</g>
<!-- Node37 -->
<g id="node21" class="node">
<title>Node37</title>
<g id="a_node21"><a xlink:href="hit_8c.html" target="_top" xlink:title=" ">
<polygon fill="none" stroke="black" points="1050.25,-62 1050.25,-81 1105.25,-81 1105.25,-62 1050.25,-62"/>
<text text-anchor="middle" x="1077.75" y="-69" font-family="Helvetica,sans-Serif" font-size="10.00">src/hit.c</text>
</a>
</g>
</g>
<!-- Node36&#45;&gt;Node37 -->
<g id="edge22" class="edge">
<title>Node36&#45;&gt;Node37</title>
<path fill="none" stroke="midnightblue" d="M1218.31,-125.39C1190.53,-115.28 1149.99,-100.4 1114.75,-87 1109.72,-85.09 1104.32,-82.99 1099.25,-81.01"/>
<polygon fill="midnightblue" stroke="midnightblue" points="1217.34,-128.76 1227.94,-128.89 1219.74,-122.18 1217.34,-128.76"/>
</g>
<!-- Node38 -->
<g id="node22" class="node">
<title>Node38</title>
<g id="a_node22"><a xlink:href="hit__cylinder_8c.html" target="_top" xlink:title=" ">
<polygon fill="none" stroke="black" points="1123.75,-62 1123.75,-81 1221.75,-81 1221.75,-62 1123.75,-62"/>
<text text-anchor="middle" x="1172.75" y="-69" font-family="Helvetica,sans-Serif" font-size="10.00">src/hit_cylinder.c</text>
</a>
</g>
</g>
<!-- Node36&#45;&gt;Node38 -->
<g id="edge23" class="edge">
<title>Node36&#45;&gt;Node38</title>
<path fill="none" stroke="midnightblue" d="M1233.17,-122.21C1217.61,-109.41 1195.95,-91.59 1183.24,-81.13"/>
<polygon fill="midnightblue" stroke="midnightblue" points="1231.15,-125.08 1241.1,-128.73 1235.6,-119.68 1231.15,-125.08"/>
</g>
<!-- Node39 -->
<g id="node23" class="node">
<title>Node39</title>
<g id="a_node23"><a xlink:href="hit__plane_8c.html" target="_top" xlink:title=" ">
<polygon fill="none" stroke="black" points="1240.25,-62 1240.25,-81 1327.25,-81 1327.25,-62 1240.25,-62"/>
<text text-anchor="middle" x="1283.75" y="-69" font-family="Helvetica,sans-Serif" font-size="10.00">src/hit_plane.c</text>
</a>
</g>
</g>
<!-- Node36&#45;&gt;Node39 -->
<g id="edge24" class="edge">
<title>Node36&#45;&gt;Node39</title>
<path fill="none" stroke="midnightblue" d="M1260.53,-119.66C1266.7,-107.13 1274.69,-90.91 1279.51,-81.13"/>
<polygon fill="midnightblue" stroke="midnightblue" points="1257.34,-118.22 1256.07,-128.73 1263.63,-121.31 1257.34,-118.22"/>
</g>
<!-- Node40 -->
<g id="node24" class="node">
<title>Node40</title>
<g id="a_node24"><a xlink:href="hit__sphere_8c.html" target="_top" xlink:title=" ">
<polygon fill="none" stroke="black" points="1345.25,-62 1345.25,-81 1438.25,-81 1438.25,-62 1345.25,-62"/>
<text text-anchor="middle" x="1391.75" y="-69" font-family="Helvetica,sans-Serif" font-size="10.00">src/hit_sphere.c</text>
</a>
</g>
</g>
<!-- Node36&#45;&gt;Node40 -->
<g id="edge25" class="edge">
<title>Node36&#45;&gt;Node40</title>
<path fill="none" stroke="midnightblue" d="M1279.51,-124.61C1307.24,-111.74 1349.09,-92.31 1373.08,-81.17"/>
<polygon fill="midnightblue" stroke="midnightblue" points="1277.94,-121.48 1270.34,-128.87 1280.89,-127.83 1277.94,-121.48"/>
</g>
<!-- Node41 -->
<g id="node25" class="node">
<title>Node41</title>
<g id="a_node25"><a xlink:href="utils__cylinder_8c.html" target="_top" xlink:title=" ">
<polygon fill="none" stroke="black" points="1456.25,-62 1456.25,-81 1563.25,-81 1563.25,-62 1456.25,-62"/>
<text text-anchor="middle" x="1509.75" y="-69" font-family="Helvetica,sans-Serif" font-size="10.00">src/utils_cylinder.c</text>
</a>
</g>
</g>
<!-- Node36&#45;&gt;Node41 -->
<g id="edge26" class="edge">
<title>Node36&#45;&gt;Node41</title>
<path fill="none" stroke="midnightblue" d="M1295.48,-126.48C1346.37,-113.66 1429.33,-92.76 1475.68,-81.08"/>
<polygon fill="midnightblue" stroke="midnightblue" points="1294.59,-123.1 1285.75,-128.94 1296.3,-129.89 1294.59,-123.1"/>
</g>
<!-- Node43 -->
<g id="node27" class="node">
<title>Node43</title>
<g id="a_node27"><a xlink:href="lighting_8h.html" target="_top" xlink:title=" ">
<polygon fill="none" stroke="red" points="1581.75,-62 1581.75,-81 1661.75,-81 1661.75,-62 1581.75,-62"/>
<text text-anchor="middle" x="1621.75" y="-69" font-family="Helvetica,sans-Serif" font-size="10.00">inc/lighting.h</text>
</a>
</g>
</g>
<!-- Node42&#45;&gt;Node43 -->
<g id="edge28" class="edge">
<title>Node42&#45;&gt;Node43</title>
<path fill="none" stroke="midnightblue" d="M1709.04,-123.62C1687.05,-110.74 1655.01,-91.98 1636.49,-81.13"/>
<polygon fill="midnightblue" stroke="midnightblue" points="1707.38,-126.7 1717.78,-128.73 1710.92,-120.66 1707.38,-126.7"/>
</g>
<!-- Node47 -->
<g id="node28" class="node">
<title>Node47</title>
<g id="a_node28"><a xlink:href="lighting__bonus_8h.html" target="_top" xlink:title=" ">
<polygon fill="none" stroke="red" points="1674.75,-0.5 1674.75,-19.5 1788.75,-19.5 1788.75,-0.5 1674.75,-0.5"/>
<text text-anchor="middle" x="1731.75" y="-7.5" font-family="Helvetica,sans-Serif" font-size="10.00">inc/lighting_bonus.h</text>
</a>
</g>
</g>
<!-- Node42&#45;&gt;Node47 -->
<g id="edge29" class="edge">
<title>Node42&#45;&gt;Node47</title>
<path fill="none" stroke="midnightblue" d="M1722.64,-120.19C1717.69,-110.73 1712.27,-98.6 1709.75,-87 1706.83,-73.54 1706.65,-69.42 1709.75,-56 1712.89,-42.44 1720.7,-28.26 1726.11,-19.52"/>
<polygon fill="midnightblue" stroke="midnightblue" points="1719.58,-121.9 1727.48,-128.96 1725.71,-118.51 1719.58,-121.9"/>
</g>
<!-- Node51 -->
<g id="node29" class="node">
<title>Node51</title>
<g id="a_node29"><a xlink:href="texture__bonus_8h.html" target="_top" xlink:title=" ">
<polygon fill="none" stroke="red" points="1718.25,-62 1718.25,-81 1831.25,-81 1831.25,-62 1718.25,-62"/>
<text text-anchor="middle" x="1774.75" y="-69" font-family="Helvetica,sans-Serif" font-size="10.00">inc/texture_bonus.h</text>
</a>
</g>
</g>
<!-- Node42&#45;&gt;Node51 -->
<g id="edge30" class="edge">
<title>Node42&#45;&gt;Node51</title>
<path fill="none" stroke="midnightblue" d="M1744.04,-120.03C1752.17,-107.45 1762.79,-91.01 1769.18,-81.13"/>
<polygon fill="midnightblue" stroke="midnightblue" points="1740.9,-118.44 1738.42,-128.73 1746.78,-122.23 1740.9,-118.44"/>
</g>
<!-- Node54 -->
<g id="node30" class="node">
<title>Node54</title>
<g id="a_node30"><a xlink:href="hit__bonus_8c.html" target="_top" xlink:title=" ">
<polygon fill="none" stroke="black" points="1849.25,-62 1849.25,-81 1938.25,-81 1938.25,-62 1849.25,-62"/>
<text text-anchor="middle" x="1893.75" y="-69" font-family="Helvetica,sans-Serif" font-size="10.00">src/hit_bonus.c</text>
</a>
</g>
</g>
<!-- Node42&#45;&gt;Node54 -->
<g id="edge32" class="edge">
<title>Node42&#45;&gt;Node54</title>
<path fill="none" stroke="midnightblue" d="M1763.46,-125.1C1795.42,-112.2 1844.64,-92.33 1872.54,-81.06"/>
<polygon fill="midnightblue" stroke="midnightblue" points="1762.09,-121.88 1754.13,-128.87 1764.72,-128.37 1762.09,-121.88"/>
</g>
<!-- Node55 -->
<g id="node31" class="node">
<title>Node55</title>
<g id="a_node31"><a xlink:href="hit__cone__bonus_8c.html" target="_top" xlink:title=" ">
<polygon fill="none" stroke="black" points="1956.75,-62 1956.75,-81 2074.75,-81 2074.75,-62 1956.75,-62"/>
<text text-anchor="middle" x="2015.75" y="-69" font-family="Helvetica,sans-Serif" font-size="10.00">src/hit_cone_bonus.c</text>
</a>
</g>
</g>
<!-- Node42&#45;&gt;Node55 -->
<g id="edge33" class="edge">
<title>Node42&#45;&gt;Node55</title>
<path fill="none" stroke="midnightblue" d="M1780.02,-126.64C1835.78,-113.84 1927.33,-92.81 1978.38,-81.08"/>
<polygon fill="midnightblue" stroke="midnightblue" points="1779,-123.29 1770.04,-128.94 1780.57,-130.11 1779,-123.29"/>
</g>
<!-- Node51&#45;&gt;Node47 -->
<g id="edge31" class="edge">
<title>Node51&#45;&gt;Node47</title>
<path fill="none" stroke="midnightblue" d="M1762.71,-53.84C1754.64,-42.67 1744.35,-28.43 1737.9,-19.51"/>
<polygon fill="midnightblue" stroke="midnightblue" points="1759.9,-55.92 1768.59,-61.98 1765.57,-51.82 1759.9,-55.92"/>
</g>
<!-- Node61 -->
<g id="node33" class="node">
<title>Node61</title>
<g id="a_node33"><a xlink:href="render__compose__image_8c.html" target="_top" xlink:title=" ">
<polygon fill="none" stroke="black" points="2378.25,-56.5 2378.25,-86.5 2493.25,-86.5 2493.25,-56.5 2378.25,-56.5"/>
<text text-anchor="start" x="2386.25" y="-74.5" font-family="Helvetica,sans-Serif" font-size="10.00">src/render_compose</text>
<text text-anchor="middle" x="2435.75" y="-63.5" font-family="Helvetica,sans-Serif" font-size="10.00">_image.c</text>
</a>
</g>
</g>
<!-- Node60&#45;&gt;Node61 -->
<g id="edge35" class="edge">
<title>Node60&#45;&gt;Node61</title>
<path fill="none" stroke="midnightblue" d="M2973.47,-134.73C2882.1,-128.98 2675.1,-113.96 2502.75,-87 2499.7,-86.52 2496.57,-85.99 2493.42,-85.42"/>
<polygon fill="midnightblue" stroke="midnightblue" points="2973.31,-138.23 2983.51,-135.36 2973.74,-131.24 2973.31,-138.23"/>
</g>
<!-- Node62 -->
<g id="node34" class="node">
<title>Node62</title>
<g id="a_node34"><a xlink:href="render__draw_8c.html" target="_top" xlink:title=" ">
<polygon fill="none" stroke="black" points="2511.75,-62 2511.75,-81 2613.75,-81 2613.75,-62 2511.75,-62"/>
<text text-anchor="middle" x="2562.75" y="-69" font-family="Helvetica,sans-Serif" font-size="10.00">src/render_draw.c</text>
</a>
</g>
</g>
<!-- Node60&#45;&gt;Node62 -->
<g id="edge36" class="edge">
<title>Node60&#45;&gt;Node62</title>
<path fill="none" stroke="midnightblue" d="M2973.58,-133.15C2898.96,-125.89 2749.27,-109.83 2623.75,-87 2614.65,-85.34 2604.87,-83.19 2595.86,-81.05"/>
<polygon fill="midnightblue" stroke="midnightblue" points="2973.32,-136.64 2983.61,-134.11 2973.99,-129.67 2973.32,-136.64"/>
</g>
<!-- Node63 -->
<g id="node35" class="node">
<title>Node63</title>
<g id="a_node35"><a xlink:href="render__init__mlx_8c.html" target="_top" xlink:title=" ">
<polygon fill="none" stroke="black" points="2632.25,-62 2632.25,-81 2751.25,-81 2751.25,-62 2632.25,-62"/>
<text text-anchor="middle" x="2691.75" y="-69" font-family="Helvetica,sans-Serif" font-size="10.00">src/render_init_mlx.c</text>
</a>
</g>
</g>
<!-- Node60&#45;&gt;Node63 -->
<g id="edge37" class="edge">
<title>Node60&#45;&gt;Node63</title>
<path fill="none" stroke="midnightblue" d="M2973.74,-128.59C2921.63,-118.67 2835.12,-102.04 2760.75,-87 2751.39,-85.11 2741.33,-83.02 2731.87,-81.04"/>
<polygon fill="midnightblue" stroke="midnightblue" points="2973.21,-132.05 2983.69,-130.49 2974.52,-125.18 2973.21,-132.05"/>
</g>
<!-- Node64 -->
<g id="node36" class="node">
<title>Node64</title>
<g id="a_node36"><a xlink:href="render__keyhook__camera_8c.html" target="_top" xlink:title=" ">
<polygon fill="none" stroke="black" points="2769.75,-56.5 2769.75,-86.5 2881.75,-86.5 2881.75,-56.5 2769.75,-56.5"/>
<text text-anchor="start" x="2777.75" y="-74.5" font-family="Helvetica,sans-Serif" font-size="10.00">src/render_keyhook</text>
<text text-anchor="middle" x="2825.75" y="-63.5" font-family="Helvetica,sans-Serif" font-size="10.00">_camera.c</text>
</a>
</g>
</g>
<!-- Node60&#45;&gt;Node64 -->
<g id="edge38" class="edge">
<title>Node60&#45;&gt;Node64</title>
<path fill="none" stroke="midnightblue" d="M2985.15,-125.63C2952.09,-114.61 2902.83,-98.19 2867.84,-86.53"/>
<polygon fill="midnightblue" stroke="midnightblue" points="2984.26,-129.03 2994.86,-128.87 2986.48,-122.39 2984.26,-129.03"/>
</g>
<!-- Node65 -->
<g id="node37" class="node">
<title>Node65</title>
<g id="a_node37"><a xlink:href="render__keyhook__colour_8c.html" target="_top" xlink:title=" ">
<polygon fill="none" stroke="black" points="2899.75,-56.5 2899.75,-86.5 3011.75,-86.5 3011.75,-56.5 2899.75,-56.5"/>
<text text-anchor="start" x="2907.75" y="-74.5" font-family="Helvetica,sans-Serif" font-size="10.00">src/render_keyhook</text>
<text text-anchor="middle" x="2955.75" y="-63.5" font-family="Helvetica,sans-Serif" font-size="10.00">_colour.c</text>
</a>
</g>
</g>
<!-- Node60&#45;&gt;Node65 -->
<g id="edge39" class="edge">
<title>Node60&#45;&gt;Node65</title>
<path fill="none" stroke="midnightblue" d="M3004.87,-121.62C2994.16,-110.91 2980.15,-96.9 2969.84,-86.59"/>
<polygon fill="midnightblue" stroke="midnightblue" points="3002.44,-124.14 3011.99,-128.73 3007.39,-119.19 3002.44,-124.14"/>
</g>
<!-- Node66 -->
<g id="node38" class="node">
<title>Node66</title>
<g id="a_node38"><a xlink:href="render__keyhook__hittable_8c.html" target="_top" xlink:title=" ">
<polygon fill="none" stroke="black" points="3029.75,-56.5 3029.75,-86.5 3141.75,-86.5 3141.75,-56.5 3029.75,-56.5"/>
<text text-anchor="start" x="3037.75" y="-74.5" font-family="Helvetica,sans-Serif" font-size="10.00">src/render_keyhook</text>
<text text-anchor="middle" x="3085.75" y="-63.5" font-family="Helvetica,sans-Serif" font-size="10.00">_hittable.c</text>
</a>
</g>
</g>
<!-- Node60&#45;&gt;Node66 -->
<g id="edge40" class="edge">
<title>Node60&#45;&gt;Node66</title>
<path fill="none" stroke="midnightblue" d="M3036.64,-121.62C3047.35,-110.91 3061.35,-96.9 3071.66,-86.59"/>
<polygon fill="midnightblue" stroke="midnightblue" points="3034.11,-119.19 3029.52,-128.73 3039.06,-124.14 3034.11,-119.19"/>
</g>
<!-- Node67 -->
<g id="node39" class="node">
<title>Node67</title>
<g id="a_node39"><a xlink:href="render__keyhook__light_8c.html" target="_top" xlink:title=" ">
<polygon fill="none" stroke="black" points="3159.75,-56.5 3159.75,-86.5 3271.75,-86.5 3271.75,-56.5 3159.75,-56.5"/>
<text text-anchor="start" x="3167.75" y="-74.5" font-family="Helvetica,sans-Serif" font-size="10.00">src/render_keyhook</text>
<text text-anchor="middle" x="3215.75" y="-63.5" font-family="Helvetica,sans-Serif" font-size="10.00">_light.c</text>
</a>
</g>
</g>
<!-- Node60&#45;&gt;Node67 -->
<g id="edge41" class="edge">
<title>Node60&#45;&gt;Node67</title>
<path fill="none" stroke="midnightblue" d="M3056.35,-125.63C3089.42,-114.61 3138.67,-98.19 3173.67,-86.53"/>
<polygon fill="midnightblue" stroke="midnightblue" points="3055.03,-122.39 3046.65,-128.87 3057.24,-129.03 3055.03,-122.39"/>
</g>
<!-- Node68 -->
<g id="node40" class="node">
<title>Node68</title>
<g id="a_node40"><a xlink:href="render__keyhook__options_8c.html" target="_top" xlink:title=" ">
<polygon fill="none" stroke="black" points="3289.75,-56.5 3289.75,-86.5 3401.75,-86.5 3401.75,-56.5 3289.75,-56.5"/>
<text text-anchor="start" x="3297.75" y="-74.5" font-family="Helvetica,sans-Serif" font-size="10.00">src/render_keyhook</text>
<text text-anchor="middle" x="3345.75" y="-63.5" font-family="Helvetica,sans-Serif" font-size="10.00">_options.c</text>
</a>
</g>
</g>
<!-- Node60&#45;&gt;Node68 -->
<g id="edge42" class="edge">
<title>Node60&#45;&gt;Node68</title>
<path fill="none" stroke="midnightblue" d="M3067.8,-128.77C3119.94,-118.99 3206.48,-102.49 3280.75,-87 3283.58,-86.41 3286.48,-85.8 3289.4,-85.17"/>
<polygon fill="midnightblue" stroke="midnightblue" points="3067.03,-125.35 3057.85,-130.63 3068.32,-132.23 3067.03,-125.35"/>
</g>
<!-- Node69 -->
<g id="node41" class="node">
<title>Node69</title>
<g id="a_node41"><a xlink:href="render__keyhook__options__bonus_8c.html" target="_top" xlink:title=" ">
<polygon fill="none" stroke="black" points="3419.75,-56.5 3419.75,-86.5 3531.75,-86.5 3531.75,-56.5 3419.75,-56.5"/>
<text text-anchor="start" x="3427.75" y="-74.5" font-family="Helvetica,sans-Serif" font-size="10.00">src/render_keyhook</text>
<text text-anchor="middle" x="3475.75" y="-63.5" font-family="Helvetica,sans-Serif" font-size="10.00">_options_bonus.c</text>
</a>
</g>
</g>
<!-- Node60&#45;&gt;Node69 -->
<g id="edge43" class="edge">
<title>Node60&#45;&gt;Node69</title>
<path fill="none" stroke="midnightblue" d="M3068.07,-132.77C3141.67,-125.11 3287.86,-108.62 3410.75,-87 3413.6,-86.5 3416.51,-85.96 3419.44,-85.39"/>
<polygon fill="midnightblue" stroke="midnightblue" points="3067.34,-129.33 3057.75,-133.84 3068.06,-136.29 3067.34,-129.33"/>
</g>
<!-- Node70 -->
<g id="node42" class="node">
<title>Node70</title>
<g id="a_node42"><a xlink:href="render__keyhook__press_8c.html" target="_top" xlink:title=" ">
<polygon fill="none" stroke="black" points="3549.75,-56.5 3549.75,-86.5 3661.75,-86.5 3661.75,-56.5 3549.75,-56.5"/>
<text text-anchor="start" x="3557.75" y="-74.5" font-family="Helvetica,sans-Serif" font-size="10.00">src/render_keyhook</text>
<text text-anchor="middle" x="3605.75" y="-63.5" font-family="Helvetica,sans-Serif" font-size="10.00">_press.c</text>
</a>
</g>
</g>
<!-- Node60&#45;&gt;Node70 -->
<g id="edge44" class="edge">
<title>Node60&#45;&gt;Node70</title>
<path fill="none" stroke="midnightblue" d="M3067.89,-134.87C3159.47,-129.32 3367.61,-114.61 3540.75,-87 3543.61,-86.54 3546.52,-86.04 3549.46,-85.5"/>
<polygon fill="midnightblue" stroke="midnightblue" points="3067.61,-131.38 3057.83,-135.47 3068.02,-138.36 3067.61,-131.38"/>
</g>
<!-- Node71 -->
<g id="node43" class="node">
<title>Node71</title>
<g id="a_node43"><a xlink:href="render__keyhook__release_8c.html" target="_top" xlink:title=" ">
<polygon fill="none" stroke="black" points="3679.75,-56.5 3679.75,-86.5 3791.75,-86.5 3791.75,-56.5 3679.75,-56.5"/>
<text text-anchor="start" x="3687.75" y="-74.5" font-family="Helvetica,sans-Serif" font-size="10.00">src/render_keyhook</text>
<text text-anchor="middle" x="3735.75" y="-63.5" font-family="Helvetica,sans-Serif" font-size="10.00">_release.c</text>
</a>
</g>
</g>
<!-- Node60&#45;&gt;Node71 -->
<g id="edge45" class="edge">
<title>Node60&#45;&gt;Node71</title>
<path fill="none" stroke="midnightblue" d="M3068.18,-136.12C3175.84,-132.49 3446.77,-120.51 3670.75,-87 3673.61,-86.57 3676.53,-86.09 3679.47,-85.57"/>
<polygon fill="midnightblue" stroke="midnightblue" points="3067.85,-132.63 3057.97,-136.46 3068.08,-139.63 3067.85,-132.63"/>
</g>
<!-- Node72 -->
<g id="node44" class="node">
<title>Node72</title>
<g id="a_node44"><a xlink:href="render__keyhook__scene_8c.html" target="_top" xlink:title=" ">
<polygon fill="none" stroke="black" points="3809.75,-56.5 3809.75,-86.5 3921.75,-86.5 3921.75,-56.5 3809.75,-56.5"/>
<text text-anchor="start" x="3817.75" y="-74.5" font-family="Helvetica,sans-Serif" font-size="10.00">src/render_keyhook</text>
<text text-anchor="middle" x="3865.75" y="-63.5" font-family="Helvetica,sans-Serif" font-size="10.00">_scene.c</text>
</a>
</g>
</g>
<!-- Node60&#45;&gt;Node72 -->
<g id="edge46" class="edge">
<title>Node60&#45;&gt;Node72</title>
<path fill="none" stroke="midnightblue" d="M3068.02,-136.98C3189.98,-135.1 3525.01,-126.44 3800.75,-87 3803.61,-86.59 3806.54,-86.12 3809.48,-85.61"/>
<polygon fill="midnightblue" stroke="midnightblue" points="3067.86,-133.48 3057.91,-137.13 3067.96,-140.48 3067.86,-133.48"/>
</g>
<!-- Node73 -->
<g id="node45" class="node">
<title>Node73</title>
<g id="a_node45"><a xlink:href="render__keyhook__utils_8c.html" target="_top" xlink:title=" ">
<polygon fill="none" stroke="black" points="3939.75,-56.5 3939.75,-86.5 4051.75,-86.5 4051.75,-56.5 3939.75,-56.5"/>
<text text-anchor="start" x="3947.75" y="-74.5" font-family="Helvetica,sans-Serif" font-size="10.00">src/render_keyhook</text>
<text text-anchor="middle" x="3995.75" y="-63.5" font-family="Helvetica,sans-Serif" font-size="10.00">_utils.c</text>
</a>
</g>
</g>
<!-- Node60&#45;&gt;Node73 -->
<g id="edge47" class="edge">
<title>Node60&#45;&gt;Node73</title>
<path fill="none" stroke="midnightblue" d="M3067.81,-137.6C3202.8,-137.31 3602.71,-132.38 3930.75,-87 3933.62,-86.6 3936.54,-86.15 3939.49,-85.64"/>
<polygon fill="midnightblue" stroke="midnightblue" points="3067.8,-134.1 3057.8,-137.62 3067.81,-141.1 3067.8,-134.1"/>
</g>
<!-- Node74 -->
<g id="node46" class="node">
<title>Node74</title>
<g id="a_node46"><a xlink:href="render__loop__mlx_8c.html" target="_top" xlink:title=" ">
<polygon fill="none" stroke="black" points="4069.75,-62 4069.75,-81 4193.75,-81 4193.75,-62 4069.75,-62"/>
<text text-anchor="middle" x="4131.75" y="-69" font-family="Helvetica,sans-Serif" font-size="10.00">src/render_loop_mlx.c</text>
</a>
</g>
</g>
<!-- Node60&#45;&gt;Node74 -->
<g id="edge48" class="edge">
<title>Node60&#45;&gt;Node74</title>
<path fill="none" stroke="midnightblue" d="M3067.82,-137.77C3215.06,-138.07 3679.79,-134.86 4060.75,-87 4072.11,-85.57 4084.37,-83.33 4095.45,-81.03"/>
<polygon fill="midnightblue" stroke="midnightblue" points="3067.78,-134.27 3057.77,-137.74 3067.76,-141.27 3067.78,-134.27"/>
</g>
<!-- Node75 -->
<g id="node47" class="node">
<title>Node75</title>
<g id="a_node47"><a xlink:href="render__mouse_8c.html" target="_top" xlink:title=" ">
<polygon fill="none" stroke="black" points="2092.75,-62 2092.75,-81 2204.75,-81 2204.75,-62 2092.75,-62"/>
<text text-anchor="middle" x="2148.75" y="-69" font-family="Helvetica,sans-Serif" font-size="10.00">src/render_mouse.c</text>
</a>
</g>
</g>
<!-- Node60&#45;&gt;Node75 -->
<g id="edge49" class="edge">
<title>Node60&#45;&gt;Node75</title>
<path fill="none" stroke="midnightblue" d="M2973.25,-137.07C2848.37,-135.38 2500.77,-127.14 2214.75,-87 2204.3,-85.53 2193.04,-83.3 2182.83,-81.03"/>
<polygon fill="midnightblue" stroke="midnightblue" points="2973.55,-140.57 2983.59,-137.2 2973.64,-133.57 2973.55,-140.57"/>
</g>
<!-- Node76 -->
<g id="node48" class="node">
<title>Node76</title>
<g id="a_node48"><a xlink:href="render__output__ppm_8c.html" target="_top" xlink:title=" ">
<polygon fill="none" stroke="black" points="2223.25,-62 2223.25,-81 2360.25,-81 2360.25,-62 2223.25,-62"/>
<text text-anchor="middle" x="2291.75" y="-69" font-family="Helvetica,sans-Serif" font-size="10.00">src/render_output_ppm.c</text>
</a>
</g>
</g>
<!-- Node60&#45;&gt;Node76 -->
<g id="edge50" class="edge">
<title>Node60&#45;&gt;Node76</title>
<path fill="none" stroke="midnightblue" d="M2973.34,-135.55C2865.67,-130.75 2594.64,-116.54 2369.75,-87 2357.87,-85.44 2345.06,-83.26 2333.32,-81.07"/>
<polygon fill="midnightblue" stroke="midnightblue" points="2973.4,-139.06 2983.54,-136 2973.71,-132.07 2973.4,-139.06"/>
</g>
</g>
</svg>
        <g id="navigator" transform="translate(0 0)" fill="#404254">
                <rect fill="#f2f5e9" fill-opacity="0.5" stroke="#606060" stroke-width=".5" x="0" y="0" width="60" height="60"/>
                <use id="zoomplus" xlink:href="#zoomPlus" x="17" y="9" onmousedown="handleZoom(evt,'in')"/>
                <use id="zoomminus" xlink:href="#zoomMin" x="42" y="9" onmousedown="handleZoom(evt,'out')"/>
                <use id="reset" xlink:href="#resetDef" x="30" y="36" onmousedown="handleReset()"/>
                <g id="arrowUp" xlink:href="#dirArrow" transform="translate(30 24)" onmousedown="handlePan(0,-1)">
                  <use xlink:href="#rim" fill="#404040">
                        <set attributeName="fill" to="#808080" begin="arrowUp.mouseover" end="arrowUp.mouseout"/>
                  </use>
                  <path fill="none" stroke="white" stroke-width="1.5" d="M0,-3.0v7 M-2.5,-0.5L0,-3.0L2.5,-0.5"/>
                </g>
                <g id="arrowRight" xlink:href="#dirArrow" transform="rotate(90) translate(36 -43)" onmousedown="handlePan(1,0)">
                  <use xlink:href="#rim" fill="#404040">
                        <set attributeName="fill" to="#808080" begin="arrowRight.mouseover" end="arrowRight.mouseout"/>
                  </use>
                  <path fill="none" stroke="white" stroke-width="1.5" d="M0,-3.0v7 M-2.5,-0.5L0,-3.0L2.5,-0.5"/>
                </g>
                <g id="arrowDown" xlink:href="#dirArrow" transform="rotate(180) translate(-30 -48)" onmousedown="handlePan(0,1)">
                  <use xlink:href="#rim" fill="#404040">
                        <set attributeName="fill" to="#808080" begin="arrowDown.mouseover" end="arrowDown.mouseout"/>
                  </use>
                  <path fill="none" stroke="white" stroke-width="1.5" d="M0,-3.0v7 M-2.5,-0.5L0,-3.0L2.5,-0.5"/>
                </g>
                <g id="arrowLeft" xlink:href="#dirArrow" transform="rotate(270) translate(-36 17)" onmousedown="handlePan(-1,0)">
                  <use xlink:href="#rim" fill="#404040">
                        <set attributeName="fill" to="#808080" begin="arrowLeft.mouseover" end="arrowLeft.mouseout"/>
                  </use>
                  <path fill="none" stroke="white" stroke-width="1.5" d="M0,-3.0v7 M-2.5,-0.5L0,-3.0L2.5,-0.5"/>
                </g>
        </g>
        <svg viewBox="0 0 15 15" width="100%" height="30px" preserveAspectRatio="xMaxYMin meet">
         <g id="arrow_out" transform="scale(0.3 0.3)">
          <a xlink:href="camera_8h__dep__incl_org.svg" target="_base">
           <rect id="button" ry="5" rx="5" y="6" x="6" height="38" width="38"
                fill="#f2f5e9" fill-opacity="0.5" stroke="#606060" stroke-width="1.0"/>
           <path id="arrow"
             d="M 11.500037,31.436501 C 11.940474,20.09759 22.043105,11.32322 32.158766,21.979434 L 37.068811,17.246167 C 37.068811,17.246167 37.088388,32 37.088388,32 L 22.160133,31.978069 C 22.160133,31.978069 26.997745,27.140456 26.997745,27.140456 C 18.528582,18.264221 13.291696,25.230495 11.500037,31.436501 z"
             style="fill:#404040;"/>
          </a>
         </g>
        </svg>
</svg>
