<?xml version="1.0" encoding="UTF-8" standalone="no"?>
<!DOCTYPE svg PUBLIC "-//W3C//DTD SVG 1.1//EN"
 "http://www.w3.org/Graphics/SVG/1.1/DTD/svg11.dtd">
<!-- Generated by graphviz version 2.43.0 (0)
 -->
<!-- Title: ft_check_camera Pages: 1 -->
<!--zoomable 218 -->
<svg id="main" version="1.1" xmlns="http://www.w3.org/2000/svg" xmlns:xlink="http://www.w3.org/1999/xlink" xml:space="preserve" onload="init(evt)">
<style type="text/css"><![CDATA[
.edge:hover path { stroke: red; }
.edge:hover polygon { stroke: red; fill: red; }
]]></style>
<script type="text/javascript"><![CDATA[
var edges = document.getElementsByTagName('g');
if (edges && edges.length) {
  for (var i=0;i<edges.length;i++) {
    if (edges[i].id.substr(0,4)=='edge') {
      edges[i].setAttribute('class','edge');
    }
  }
}
]]></script>
        <defs>
                <circle id="rim" cx="0" cy="0" r="7"/>
                <circle id="rim2" cx="0" cy="0" r="3.5"/>
                <g id="zoomPlus">
                        <use xlink:href="#rim" fill="#404040">
                                <set attributeName="fill" to="#808080" begin="zoomplus.mouseover" end="zoomplus.mouseout"/>
                        </use>
                        <path d="M-4,0h8M0,-4v8" fill="none" stroke="white" stroke-width="1.5" pointer-events="none"/>
                </g>
                <g id="zoomMin">
                        <use xlink:href="#rim" fill="#404040">
                                <set attributeName="fill" to="#808080" begin="zoomminus.mouseover" end="zoomminus.mouseout"/>
                        </use>
                        <path d="M-4,0h8" fill="none" stroke="white" stroke-width="1.5" pointer-events="none"/>
                </g>
                <g id="dirArrow">
                        <path fill="none" stroke="white" stroke-width="1.5" d="M0,-3.0v7 M-2.5,-0.5L0,-3.0L2.5,-0.5"/>
                </g>
               <g id="resetDef">
                       <use xlink:href="#rim2" fill="#404040">
                               <set attributeName="fill" to="#808080" begin="reset.mouseover" end="reset.mouseout"/>
                       </use>
               </g>
        </defs>

<script type="text/javascript">
var viewWidth = 675;
var viewHeight = 218;
var sectionId = 'dynsection-4';
</script>
<script xlink:href="svgpan.js"/>
<svg id="graph" class="graph">
<g id="viewport">
<title>ft_check_camera</title>
<!-- Node1 -->
<g id="node1" class="node">
<title>Node1</title>
<g id="a_node1"><a xlink:title="Checks if camera line is correct.">
<polygon fill="#bfbfbf" stroke="black" points="0,-85.5 0,-104.5 99,-104.5 99,-85.5 0,-85.5"/>
<text text-anchor="middle" x="49.5" y="-92.5" font-family="Helvetica,sans-Serif" font-size="10.00">ft_check_camera</text>
</a>
</g>
</g>
<!-- Node2 -->
<g id="node2" class="node">
<title>Node2</title>
<g id="a_node2"><a xlink:href="check_8h.html#a542b81308cf530edfa0a3bfdcefb6002" target="_top" xlink:title="Tries to convert str to float and checks range.">
<polygon fill="none" stroke="black" points="433,-152.5 433,-171.5 521,-171.5 521,-152.5 433,-152.5"/>
<text text-anchor="middle" x="477" y="-159.5" font-family="Helvetica,sans-Serif" font-size="10.00">ft_isvalid_float</text>
</a>
</g>
</g>
<!-- Node1&#45;&gt;Node2 -->
<g id="edge1" class="edge">
<title>Node1&#45;&gt;Node2</title>
<path fill="none" stroke="midnightblue" d="M66.22,-104.66C82.83,-114.57 110.04,-129.91 135,-140 196.29,-164.79 212.53,-171.8 278,-181 330.37,-188.36 344.48,-187.23 397,-181 409.26,-179.55 422.36,-176.87 434.31,-173.97"/>
<polygon fill="midnightblue" stroke="midnightblue" points="435.19,-177.36 444.02,-171.51 433.47,-170.57 435.19,-177.36"/>
</g>
<!-- Node7 -->
<g id="node7" class="node">
<title>Node7</title>
<g id="a_node7"><a xlink:href="check_8h.html#a399912478dc865909526aa87e6c333df" target="_top" xlink:title="Checks three floats, separated by &#39;,&#39;.">
<polygon fill="none" stroke="black" points="278,-152.5 278,-171.5 397,-171.5 397,-152.5 278,-152.5"/>
<text text-anchor="middle" x="337.5" y="-159.5" font-family="Helvetica,sans-Serif" font-size="10.00">ft_isvalid_float_block</text>
</a>
</g>
</g>
<!-- Node1&#45;&gt;Node7 -->
<g id="edge6" class="edge">
<title>Node1&#45;&gt;Node7</title>
<path fill="none" stroke="midnightblue" d="M91.17,-104.53C142.28,-116.5 230,-137.05 285.53,-150.06"/>
<polygon fill="midnightblue" stroke="midnightblue" points="284.97,-153.52 295.5,-152.4 286.57,-146.71 284.97,-153.52"/>
</g>
<!-- Node9 -->
<g id="node9" class="node">
<title>Node9</title>
<g id="a_node9"><a xlink:href="check_8h.html#a806133750c2b871ad705916e6d997f31" target="_top" xlink:title="Checks three floats, separated by &#39;,&#39; and calcs checksum.">
<polygon fill="none" stroke="black" points="135,-85.5 135,-104.5 242,-104.5 242,-85.5 135,-85.5"/>
<text text-anchor="middle" x="188.5" y="-92.5" font-family="Helvetica,sans-Serif" font-size="10.00">ft_isvalid_unit_vec</text>
</a>
</g>
</g>
<!-- Node1&#45;&gt;Node9 -->
<g id="edge12" class="edge">
<title>Node1&#45;&gt;Node9</title>
<path fill="none" stroke="midnightblue" d="M99.19,-95C107.39,-95 116,-95 124.51,-95"/>
<polygon fill="midnightblue" stroke="midnightblue" points="124.79,-98.5 134.79,-95 124.79,-91.5 124.79,-98.5"/>
</g>
<!-- Node13 -->
<g id="node13" class="node">
<title>Node13</title>
<g id="a_node13"><a xlink:href="error__msg_8h.html#a0a61f85709f3119ca9086f591705f294" target="_top" xlink:title="Error message if line doesn&#39;t end with space or zero terminator.">
<polygon fill="none" stroke="black" points="148,-47.5 148,-66.5 229,-66.5 229,-47.5 148,-47.5"/>
<text text-anchor="middle" x="188.5" y="-54.5" font-family="Helvetica,sans-Serif" font-size="10.00">ft_perror_end</text>
</a>
</g>
</g>
<!-- Node1&#45;&gt;Node13 -->
<g id="edge18" class="edge">
<title>Node1&#45;&gt;Node13</title>
<path fill="none" stroke="midnightblue" d="M85.07,-85.41C102.68,-80.53 124.28,-74.54 143.1,-69.32"/>
<polygon fill="midnightblue" stroke="midnightblue" points="144.24,-72.63 152.94,-66.59 142.37,-65.89 144.24,-72.63"/>
</g>
<!-- Node14 -->
<g id="node14" class="node">
<title>Node14</title>
<g id="a_node14"><a xlink:href="check_8h.html#a7a10a4efb97dd784c001f96c580d7119" target="_top" xlink:title="Moves line one space or htab forward and sanitizes spaces.">
<polygon fill="none" stroke="black" points="150.5,-9.5 150.5,-28.5 226.5,-28.5 226.5,-9.5 150.5,-9.5"/>
<text text-anchor="middle" x="188.5" y="-16.5" font-family="Helvetica,sans-Serif" font-size="10.00">ft_rm_space</text>
</a>
</g>
</g>
<!-- Node1&#45;&gt;Node14 -->
<g id="edge19" class="edge">
<title>Node1&#45;&gt;Node14</title>
<path fill="none" stroke="midnightblue" d="M62.51,-85.5C78.38,-73.27 107.55,-51.95 135,-38 139.05,-35.94 143.37,-34 147.73,-32.21"/>
<polygon fill="midnightblue" stroke="midnightblue" points="149.2,-35.39 157.25,-28.51 146.66,-28.86 149.2,-35.39"/>
</g>
<!-- Node3 -->
<g id="node3" class="node">
<title>Node3</title>
<g id="a_node3"><a xlink:href="error__msg_8h.html#a207347473e8d1cf324c6b70fca7155fe" target="_top" xlink:title="Error message if conversion failed.">
<polygon fill="none" stroke="black" points="562,-114.5 562,-133.5 662,-133.5 662,-114.5 562,-114.5"/>
<text text-anchor="middle" x="612" y="-121.5" font-family="Helvetica,sans-Serif" font-size="10.00">ft_perror_convert</text>
</a>
</g>
</g>
<!-- Node2&#45;&gt;Node3 -->
<g id="edge2" class="edge">
<title>Node2&#45;&gt;Node3</title>
<path fill="none" stroke="midnightblue" d="M511.56,-152.41C528.57,-147.55 549.43,-141.59 567.64,-136.39"/>
<polygon fill="midnightblue" stroke="midnightblue" points="568.8,-139.7 577.45,-133.59 566.87,-132.97 568.8,-139.7"/>
</g>
<!-- Node4 -->
<g id="node4" class="node">
<title>Node4</title>
<g id="a_node4"><a xlink:href="error__msg_8h.html#ae79c226d26bf8b2dbd74bf7440eefa7d" target="_top" xlink:title="Error message if converted number is out of range.">
<polygon fill="none" stroke="black" points="566.5,-190.5 566.5,-209.5 657.5,-209.5 657.5,-190.5 566.5,-190.5"/>
<text text-anchor="middle" x="612" y="-197.5" font-family="Helvetica,sans-Serif" font-size="10.00">ft_perror_range</text>
</a>
</g>
</g>
<!-- Node2&#45;&gt;Node4 -->
<g id="edge3" class="edge">
<title>Node2&#45;&gt;Node4</title>
<path fill="none" stroke="midnightblue" d="M511.56,-171.59C528.57,-176.45 549.43,-182.41 567.64,-187.61"/>
<polygon fill="midnightblue" stroke="midnightblue" points="566.87,-191.03 577.45,-190.41 568.8,-184.3 566.87,-191.03"/>
</g>
<!-- Node5 -->
<g id="node5" class="node">
<title>Node5</title>
<g id="a_node5"><a xlink:href="error__msg_8h.html#a66c0aad31fa186667840a2c0a5004099" target="_top" xlink:title="Error message if wrong separator was encountered.">
<polygon fill="none" stroke="black" points="557,-152.5 557,-171.5 667,-171.5 667,-152.5 557,-152.5"/>
<text text-anchor="middle" x="612" y="-159.5" font-family="Helvetica,sans-Serif" font-size="10.00">ft_perror_separator</text>
</a>
</g>
</g>
<!-- Node2&#45;&gt;Node5 -->
<g id="edge4" class="edge">
<title>Node2&#45;&gt;Node5</title>
<path fill="none" stroke="midnightblue" d="M521.18,-162C529.36,-162 538.08,-162 546.74,-162"/>
<polygon fill="midnightblue" stroke="midnightblue" points="546.85,-165.5 556.85,-162 546.85,-158.5 546.85,-165.5"/>
</g>
<!-- Node6 -->
<g id="node6" class="node">
<title>Node6</title>
<g id="a_node6"><a xlink:href="ft__strtod_8h.html#a0a1cbf0fef2bdcf6fde79c34014bc10e" target="_top" xlink:title="Converts a String to a double.">
<polygon fill="none" stroke="black" points="583.5,-76.5 583.5,-95.5 640.5,-95.5 640.5,-76.5 583.5,-76.5"/>
<text text-anchor="middle" x="612" y="-83.5" font-family="Helvetica,sans-Serif" font-size="10.00">ft_strtod</text>
</a>
</g>
</g>
<!-- Node2&#45;&gt;Node6 -->
<g id="edge5" class="edge">
<title>Node2&#45;&gt;Node6</title>
<path fill="none" stroke="midnightblue" d="M504.36,-152.33C510.08,-149.7 515.93,-146.57 521,-143 540.01,-129.59 537.48,-117.66 557,-105 562.13,-101.67 567.91,-98.85 573.73,-96.48"/>
<polygon fill="midnightblue" stroke="midnightblue" points="575.29,-99.64 583.47,-92.9 572.87,-93.06 575.29,-99.64"/>
</g>
<!-- Node8 -->
<g id="node8" class="node">
<title>Node8</title>
<g id="a_node8"><a xlink:href="check__line_8c.html#a542b81308cf530edfa0a3bfdcefb6002" target="_top" xlink:title="Tries to convert str to float and checks range.">
<polygon fill="none" stroke="black" points="433,-114.5 433,-133.5 521,-133.5 521,-114.5 433,-114.5"/>
<text text-anchor="middle" x="477" y="-121.5" font-family="Helvetica,sans-Serif" font-size="10.00">ft_isvalid_float</text>
</a>
</g>
</g>
<!-- Node7&#45;&gt;Node8 -->
<g id="edge7" class="edge">
<title>Node7&#45;&gt;Node8</title>
<path fill="none" stroke="midnightblue" d="M373.2,-152.41C390.87,-147.53 412.55,-141.54 431.44,-136.32"/>
<polygon fill="midnightblue" stroke="midnightblue" points="432.61,-139.62 441.31,-133.59 430.74,-132.88 432.61,-139.62"/>
</g>
<!-- Node8&#45;&gt;Node3 -->
<g id="edge8" class="edge">
<title>Node8&#45;&gt;Node3</title>
<path fill="none" stroke="midnightblue" d="M521.18,-124C530.85,-124 541.28,-124 551.48,-124"/>
<polygon fill="midnightblue" stroke="midnightblue" points="551.57,-127.5 561.57,-124 551.57,-120.5 551.57,-127.5"/>
</g>
<!-- Node8&#45;&gt;Node4 -->
<g id="edge9" class="edge">
<title>Node8&#45;&gt;Node4</title>
<path fill="none" stroke="midnightblue" d="M504.36,-133.67C510.08,-136.3 515.93,-139.43 521,-143 540.01,-156.41 537.48,-168.34 557,-181 560.1,-183.01 563.44,-184.84 566.88,-186.49"/>
<polygon fill="midnightblue" stroke="midnightblue" points="565.58,-189.74 576.15,-190.48 568.35,-183.31 565.58,-189.74"/>
</g>
<!-- Node8&#45;&gt;Node5 -->
<g id="edge10" class="edge">
<title>Node8&#45;&gt;Node5</title>
<path fill="none" stroke="midnightblue" d="M511.56,-133.59C528.57,-138.45 549.43,-144.41 567.64,-149.61"/>
<polygon fill="midnightblue" stroke="midnightblue" points="566.87,-153.03 577.45,-152.41 568.8,-146.3 566.87,-153.03"/>
</g>
<!-- Node8&#45;&gt;Node6 -->
<g id="edge11" class="edge">
<title>Node8&#45;&gt;Node6</title>
<path fill="none" stroke="midnightblue" d="M511.56,-114.41C530.43,-109.02 554.04,-102.27 573.52,-96.71"/>
<polygon fill="midnightblue" stroke="midnightblue" points="574.63,-100.03 583.28,-93.92 572.7,-93.3 574.63,-100.03"/>
</g>
<!-- Node9&#45;&gt;Node6 -->
<g id="edge17" class="edge">
<title>Node9&#45;&gt;Node6</title>
<path fill="none" stroke="midnightblue" d="M242.03,-93.88C328.17,-92.04 497.39,-88.43 572.97,-86.81"/>
<polygon fill="midnightblue" stroke="midnightblue" points="573.5,-90.3 583.42,-86.59 573.35,-83.3 573.5,-90.3"/>
</g>
<!-- Node10 -->
<g id="node10" class="node">
<title>Node10</title>
<g id="a_node10"><a xlink:href="check__line_8c.html#a399912478dc865909526aa87e6c333df" target="_top" xlink:title="Checks three floats, separated by &#39;,&#39;.">
<polygon fill="none" stroke="black" points="278,-114.5 278,-133.5 397,-133.5 397,-114.5 278,-114.5"/>
<text text-anchor="middle" x="337.5" y="-121.5" font-family="Helvetica,sans-Serif" font-size="10.00">ft_isvalid_float_block</text>
</a>
</g>
</g>
<!-- Node9&#45;&gt;Node10 -->
<g id="edge13" class="edge">
<title>Node9&#45;&gt;Node10</title>
<path fill="none" stroke="midnightblue" d="M238.04,-104.58C250.84,-107.1 264.78,-109.85 278.03,-112.47"/>
<polygon fill="midnightblue" stroke="midnightblue" points="277.52,-115.93 288.01,-114.43 278.88,-109.06 277.52,-115.93"/>
</g>
<!-- Node11 -->
<g id="node11" class="node">
<title>Node11</title>
<g id="a_node11"><a xlink:href="error__msg_8h.html#a2eafb62e253f9202b5cb80f4d005ed93" target="_top" xlink:title="Error message if vector is not a unit vector.">
<polygon fill="none" stroke="black" points="286,-38.5 286,-57.5 389,-57.5 389,-38.5 286,-38.5"/>
<text text-anchor="middle" x="337.5" y="-45.5" font-family="Helvetica,sans-Serif" font-size="10.00">ft_perror_not_unit</text>
</a>
</g>
</g>
<!-- Node9&#45;&gt;Node11 -->
<g id="edge15" class="edge">
<title>Node9&#45;&gt;Node11</title>
<path fill="none" stroke="midnightblue" d="M219.25,-85.49C241.59,-78.35 272.41,-68.49 296.85,-60.68"/>
<polygon fill="midnightblue" stroke="midnightblue" points="298.09,-63.96 306.54,-57.58 295.95,-57.29 298.09,-63.96"/>
</g>
<!-- Node12 -->
<g id="node12" class="node">
<title>Node12</title>
<g id="a_node12"><a xlink:href="error__msg_8h.html#abd82c129e1342b28d5e8111cf24304f3" target="_top" xlink:title="Warning message if vector is not a unit vector.">
<polygon fill="none" stroke="black" points="278,-0.5 278,-19.5 397,-19.5 397,-0.5 278,-0.5"/>
<text text-anchor="middle" x="337.5" y="-7.5" font-family="Helvetica,sans-Serif" font-size="10.00">ft_pwarning_not_unit</text>
</a>
</g>
</g>
<!-- Node9&#45;&gt;Node12 -->
<g id="edge16" class="edge">
<title>Node9&#45;&gt;Node12</title>
<path fill="none" stroke="midnightblue" d="M224.53,-85.5C230.67,-82.97 236.76,-79.84 242,-76 263.23,-60.45 256.52,-44.19 278,-29 280.7,-27.09 283.61,-25.36 286.63,-23.8"/>
<polygon fill="midnightblue" stroke="midnightblue" points="288.26,-26.91 295.94,-19.61 285.39,-20.52 288.26,-26.91"/>
</g>
<!-- Node10&#45;&gt;Node8 -->
<g id="edge14" class="edge">
<title>Node10&#45;&gt;Node8</title>
<path fill="none" stroke="midnightblue" d="M397.21,-124C405.72,-124 414.44,-124 422.83,-124"/>
<polygon fill="midnightblue" stroke="midnightblue" points="422.87,-127.5 432.87,-124 422.87,-120.5 422.87,-127.5"/>
</g>
</g>
</svg>
        <g id="navigator" transform="translate(0 0)" fill="#404254">
                <rect fill="#f2f5e9" fill-opacity="0.5" stroke="#606060" stroke-width=".5" x="0" y="0" width="60" height="60"/>
                <use id="zoomplus" xlink:href="#zoomPlus" x="17" y="9" onmousedown="handleZoom(evt,'in')"/>
                <use id="zoomminus" xlink:href="#zoomMin" x="42" y="9" onmousedown="handleZoom(evt,'out')"/>
                <use id="reset" xlink:href="#resetDef" x="30" y="36" onmousedown="handleReset()"/>
                <g id="arrowUp" xlink:href="#dirArrow" transform="translate(30 24)" onmousedown="handlePan(0,-1)">
                  <use xlink:href="#rim" fill="#404040">
                        <set attributeName="fill" to="#808080" begin="arrowUp.mouseover" end="arrowUp.mouseout"/>
                  </use>
                  <path fill="none" stroke="white" stroke-width="1.5" d="M0,-3.0v7 M-2.5,-0.5L0,-3.0L2.5,-0.5"/>
                </g>
                <g id="arrowRight" xlink:href="#dirArrow" transform="rotate(90) translate(36 -43)" onmousedown="handlePan(1,0)">
                  <use xlink:href="#rim" fill="#404040">
                        <set attributeName="fill" to="#808080" begin="arrowRight.mouseover" end="arrowRight.mouseout"/>
                  </use>
                  <path fill="none" stroke="white" stroke-width="1.5" d="M0,-3.0v7 M-2.5,-0.5L0,-3.0L2.5,-0.5"/>
                </g>
                <g id="arrowDown" xlink:href="#dirArrow" transform="rotate(180) translate(-30 -48)" onmousedown="handlePan(0,1)">
                  <use xlink:href="#rim" fill="#404040">
                        <set attributeName="fill" to="#808080" begin="arrowDown.mouseover" end="arrowDown.mouseout"/>
                  </use>
                  <path fill="none" stroke="white" stroke-width="1.5" d="M0,-3.0v7 M-2.5,-0.5L0,-3.0L2.5,-0.5"/>
                </g>
                <g id="arrowLeft" xlink:href="#dirArrow" transform="rotate(270) translate(-36 17)" onmousedown="handlePan(-1,0)">
                  <use xlink:href="#rim" fill="#404040">
                        <set attributeName="fill" to="#808080" begin="arrowLeft.mouseover" end="arrowLeft.mouseout"/>
                  </use>
                  <path fill="none" stroke="white" stroke-width="1.5" d="M0,-3.0v7 M-2.5,-0.5L0,-3.0L2.5,-0.5"/>
                </g>
        </g>
        <svg viewBox="0 0 15 15" width="100%" height="30px" preserveAspectRatio="xMaxYMin meet">
         <g id="arrow_out" transform="scale(0.3 0.3)">
          <a xlink:href="check_8h_ac18c6a2c8fb4ffdeac62341cc67c9675_cgraph_org.svg" target="_base">
           <rect id="button" ry="5" rx="5" y="6" x="6" height="38" width="38"
                fill="#f2f5e9" fill-opacity="0.5" stroke="#606060" stroke-width="1.0"/>
           <path id="arrow"
             d="M 11.500037,31.436501 C 11.940474,20.09759 22.043105,11.32322 32.158766,21.979434 L 37.068811,17.246167 C 37.068811,17.246167 37.088388,32 37.088388,32 L 22.160133,31.978069 C 22.160133,31.978069 26.997745,27.140456 26.997745,27.140456 C 18.528582,18.264221 13.291696,25.230495 11.500037,31.436501 z"
             style="fill:#404040;"/>
          </a>
         </g>
        </svg>
</svg>
