<?xml version="1.0" encoding="UTF-8" standalone="no"?>
<!DOCTYPE svg PUBLIC "-//W3C//DTD SVG 1.1//EN"
 "http://www.w3.org/Graphics/SVG/1.1/DTD/svg11.dtd">
<!-- Generated by graphviz version 2.43.0 (0)
 -->
<!-- Title: ft_isvalid_unit_vec Pages: 1 -->
<svg width="540pt" height="218pt"
 viewBox="0.00 0.00 540.00 218.00" xmlns="http://www.w3.org/2000/svg" xmlns:xlink="http://www.w3.org/1999/xlink">
<g id="graph0" class="graph" transform="scale(1 1) rotate(0) translate(4 214)">
<title>ft_isvalid_unit_vec</title>
<!-- Node1 -->
<g id="node1" class="node">
<title>Node1</title>
<g id="a_node1"><a xlink:title="Checks three floats, separated by &#39;,&#39; and calcs checksum.">
<polygon fill="#bfbfbf" stroke="black" points="0,-57.5 0,-76.5 107,-76.5 107,-57.5 0,-57.5"/>
<text text-anchor="middle" x="53.5" y="-64.5" font-family="Helvetica,sans-Serif" font-size="10.00">ft_isvalid_unit_vec</text>
</a>
</g>
</g>
<!-- Node2 -->
<g id="node2" class="node">
<title>Node2</title>
<g id="a_node2"><a xlink:href="check__line_8c.html#a399912478dc865909526aa87e6c333df" target="_top" xlink:title="Checks three floats, separated by &#39;,&#39;.">
<polygon fill="none" stroke="black" points="143,-114.5 143,-133.5 262,-133.5 262,-114.5 143,-114.5"/>
<text text-anchor="middle" x="202.5" y="-121.5" font-family="Helvetica,sans-Serif" font-size="10.00">ft_isvalid_float_block</text>
</a>
</g>
</g>
<!-- Node1&#45;&gt;Node2 -->
<g id="edge1" class="edge">
<title>Node1&#45;&gt;Node2</title>
<path fill="none" stroke="midnightblue" d="M79.1,-76.54C103.27,-85.91 140.35,-100.29 167.36,-110.76"/>
<polygon fill="midnightblue" stroke="midnightblue" points="166.23,-114.08 176.82,-114.43 168.76,-107.55 166.23,-114.08"/>
</g>
<!-- Node7 -->
<g id="node7" class="node">
<title>Node7</title>
<g id="a_node7"><a xlink:href="ft__strtod_8h.html#a0a1cbf0fef2bdcf6fde79c34014bc10e" target="_top" xlink:title="Converts a String to a double.">
<polygon fill="none" stroke="black" points="448.5,-76.5 448.5,-95.5 505.5,-95.5 505.5,-76.5 448.5,-76.5"/>
<text text-anchor="middle" x="477" y="-83.5" font-family="Helvetica,sans-Serif" font-size="10.00">ft_strtod</text>
</a>
</g>
</g>
<!-- Node1&#45;&gt;Node7 -->
<g id="edge9" class="edge">
<title>Node1&#45;&gt;Node7</title>
<path fill="none" stroke="midnightblue" d="M107.03,-69.37C193.17,-73.25 362.39,-80.88 437.97,-84.29"/>
<polygon fill="midnightblue" stroke="midnightblue" points="438.28,-87.8 448.42,-84.76 438.59,-80.81 438.28,-87.8"/>
</g>
<!-- Node8 -->
<g id="node8" class="node">
<title>Node8</title>
<g id="a_node8"><a xlink:href="error__msg_8h.html#a2eafb62e253f9202b5cb80f4d005ed93" target="_top" xlink:title="Error message if vector is not a unit vector.">
<polygon fill="none" stroke="black" points="151,-38.5 151,-57.5 254,-57.5 254,-38.5 151,-38.5"/>
<text text-anchor="middle" x="202.5" y="-45.5" font-family="Helvetica,sans-Serif" font-size="10.00">ft_perror_not_unit</text>
</a>
</g>
</g>
<!-- Node1&#45;&gt;Node8 -->
<g id="edge7" class="edge">
<title>Node1&#45;&gt;Node8</title>
<path fill="none" stroke="midnightblue" d="M107.16,-60.19C118,-58.79 129.51,-57.3 140.63,-55.87"/>
<polygon fill="midnightblue" stroke="midnightblue" points="141.22,-59.32 150.69,-54.57 140.32,-52.38 141.22,-59.32"/>
</g>
<!-- Node9 -->
<g id="node9" class="node">
<title>Node9</title>
<g id="a_node9"><a xlink:href="error__msg_8h.html#abd82c129e1342b28d5e8111cf24304f3" target="_top" xlink:title="Warning message if vector is not a unit vector.">
<polygon fill="none" stroke="black" points="143,-0.5 143,-19.5 262,-19.5 262,-0.5 143,-0.5"/>
<text text-anchor="middle" x="202.5" y="-7.5" font-family="Helvetica,sans-Serif" font-size="10.00">ft_pwarning_not_unit</text>
</a>
</g>
</g>
<!-- Node1&#45;&gt;Node9 -->
<g id="edge8" class="edge">
<title>Node1&#45;&gt;Node9</title>
<path fill="none" stroke="midnightblue" d="M75.38,-57.39C93.18,-49.36 119.52,-37.83 143,-29 148.63,-26.88 154.62,-24.77 160.54,-22.78"/>
<polygon fill="midnightblue" stroke="midnightblue" points="161.95,-25.99 170.35,-19.53 159.76,-19.35 161.95,-25.99"/>
</g>
<!-- Node3 -->
<g id="node3" class="node">
<title>Node3</title>
<g id="a_node3"><a xlink:href="check__line_8c.html#a542b81308cf530edfa0a3bfdcefb6002" target="_top" xlink:title="Tries to convert str to float and checks range.">
<polygon fill="none" stroke="black" points="298,-114.5 298,-133.5 386,-133.5 386,-114.5 298,-114.5"/>
<text text-anchor="middle" x="342" y="-121.5" font-family="Helvetica,sans-Serif" font-size="10.00">ft_isvalid_float</text>
</a>
</g>
</g>
<!-- Node2&#45;&gt;Node3 -->
<g id="edge2" class="edge">
<title>Node2&#45;&gt;Node3</title>
<path fill="none" stroke="midnightblue" d="M262.21,-124C270.72,-124 279.44,-124 287.83,-124"/>
<polygon fill="midnightblue" stroke="midnightblue" points="287.87,-127.5 297.87,-124 287.87,-120.5 287.87,-127.5"/>
</g>
<!-- Node4 -->
<g id="node4" class="node">
<title>Node4</title>
<g id="a_node4"><a xlink:href="error__msg_8h.html#a207347473e8d1cf324c6b70fca7155fe" target="_top" xlink:title="Error message if conversion failed.">
<polygon fill="none" stroke="black" points="427,-190.5 427,-209.5 527,-209.5 527,-190.5 427,-190.5"/>
<text text-anchor="middle" x="477" y="-197.5" font-family="Helvetica,sans-Serif" font-size="10.00">ft_perror_convert</text>
</a>
</g>
</g>
<!-- Node3&#45;&gt;Node4 -->
<g id="edge3" class="edge">
<title>Node3&#45;&gt;Node4</title>
<path fill="none" stroke="midnightblue" d="M354.1,-133.6C368.8,-145.93 395.92,-167.37 422,-181 425.97,-183.08 430.22,-185.01 434.52,-186.79"/>
<polygon fill="midnightblue" stroke="midnightblue" points="433.36,-190.09 443.95,-190.43 435.88,-183.56 433.36,-190.09"/>
</g>
<!-- Node5 -->
<g id="node5" class="node">
<title>Node5</title>
<g id="a_node5"><a xlink:href="error__msg_8h.html#ae79c226d26bf8b2dbd74bf7440eefa7d" target="_top" xlink:title="Error message if converted number is out of range.">
<polygon fill="none" stroke="black" points="431.5,-152.5 431.5,-171.5 522.5,-171.5 522.5,-152.5 431.5,-152.5"/>
<text text-anchor="middle" x="477" y="-159.5" font-family="Helvetica,sans-Serif" font-size="10.00">ft_perror_range</text>
</a>
</g>
</g>
<!-- Node3&#45;&gt;Node5 -->
<g id="edge4" class="edge">
<title>Node3&#45;&gt;Node5</title>
<path fill="none" stroke="midnightblue" d="M376.56,-133.59C393.57,-138.45 414.43,-144.41 432.64,-149.61"/>
<polygon fill="midnightblue" stroke="midnightblue" points="431.87,-153.03 442.45,-152.41 433.8,-146.3 431.87,-153.03"/>
</g>
<!-- Node6 -->
<g id="node6" class="node">
<title>Node6</title>
<g id="a_node6"><a xlink:href="error__msg_8h.html#a66c0aad31fa186667840a2c0a5004099" target="_top" xlink:title="Error message if wrong separator was encountered.">
<polygon fill="none" stroke="black" points="422,-114.5 422,-133.5 532,-133.5 532,-114.5 422,-114.5"/>
<text text-anchor="middle" x="477" y="-121.5" font-family="Helvetica,sans-Serif" font-size="10.00">ft_perror_separator</text>
</a>
</g>
</g>
<!-- Node3&#45;&gt;Node6 -->
<g id="edge5" class="edge">
<title>Node3&#45;&gt;Node6</title>
<path fill="none" stroke="midnightblue" d="M386.18,-124C394.36,-124 403.08,-124 411.74,-124"/>
<polygon fill="midnightblue" stroke="midnightblue" points="411.85,-127.5 421.85,-124 411.85,-120.5 411.85,-127.5"/>
</g>
<!-- Node3&#45;&gt;Node7 -->
<g id="edge6" class="edge">
<title>Node3&#45;&gt;Node7</title>
<path fill="none" stroke="midnightblue" d="M376.56,-114.41C395.43,-109.02 419.04,-102.27 438.52,-96.71"/>
<polygon fill="midnightblue" stroke="midnightblue" points="439.63,-100.03 448.28,-93.92 437.7,-93.3 439.63,-100.03"/>
</g>
</g>
</svg>
