<?xml version="1.0" encoding="UTF-8" standalone="no"?>
<!DOCTYPE svg PUBLIC "-//W3C//DTD SVG 1.1//EN"
 "http://www.w3.org/Graphics/SVG/1.1/DTD/svg11.dtd">
<!-- Generated by graphviz version 2.43.0 (0)
 -->
<!-- Title: inc/check.h Pages: 1 -->
<!--zoomable 308 -->
<svg id="main" version="1.1" xmlns="http://www.w3.org/2000/svg" xmlns:xlink="http://www.w3.org/1999/xlink" xml:space="preserve" onload="init(evt)">
<style type="text/css"><![CDATA[
.edge:hover path { stroke: red; }
.edge:hover polygon { stroke: red; fill: red; }
]]></style>
<script type="text/javascript"><![CDATA[
var edges = document.getElementsByTagName('g');
if (edges && edges.length) {
  for (var i=0;i<edges.length;i++) {
    if (edges[i].id.substr(0,4)=='edge') {
      edges[i].setAttribute('class','edge');
    }
  }
}
]]></script>
        <defs>
                <circle id="rim" cx="0" cy="0" r="7"/>
                <circle id="rim2" cx="0" cy="0" r="3.5"/>
                <g id="zoomPlus">
                        <use xlink:href="#rim" fill="#404040">
                                <set attributeName="fill" to="#808080" begin="zoomplus.mouseover" end="zoomplus.mouseout"/>
                        </use>
                        <path d="M-4,0h8M0,-4v8" fill="none" stroke="white" stroke-width="1.5" pointer-events="none"/>
                </g>
                <g id="zoomMin">
                        <use xlink:href="#rim" fill="#404040">
                                <set attributeName="fill" to="#808080" begin="zoomminus.mouseover" end="zoomminus.mouseout"/>
                        </use>
                        <path d="M-4,0h8" fill="none" stroke="white" stroke-width="1.5" pointer-events="none"/>
                </g>
                <g id="dirArrow">
                        <path fill="none" stroke="white" stroke-width="1.5" d="M0,-3.0v7 M-2.5,-0.5L0,-3.0L2.5,-0.5"/>
                </g>
               <g id="resetDef">
                       <use xlink:href="#rim2" fill="#404040">
                               <set attributeName="fill" to="#808080" begin="reset.mouseover" end="reset.mouseout"/>
                       </use>
               </g>
        </defs>

<script type="text/javascript">
var viewWidth = 557;
var viewHeight = 308;
var sectionId = 'dynsection-0';
</script>
<script xlink:href="svgpan.js"/>
<svg id="graph" class="graph">
<g id="viewport">
<title>inc/check.h</title>
<!-- Node1 -->
<g id="node1" class="node">
<title>Node1</title>
<g id="a_node1"><a xlink:title=" ">
<polygon fill="#bfbfbf" stroke="black" points="285.5,-280.5 285.5,-299.5 356.5,-299.5 356.5,-280.5 285.5,-280.5"/>
<text text-anchor="middle" x="321" y="-287.5" font-family="Helvetica,sans-Serif" font-size="10.00">inc/check.h</text>
</a>
</g>
</g>
<!-- Node2 -->
<g id="node2" class="node">
<title>Node2</title>
<g id="a_node2"><a xlink:href="error__type_8h.html" target="_top" xlink:title=" ">
<polygon fill="none" stroke="black" points="92,-224.5 92,-243.5 168,-243.5 168,-224.5 92,-224.5"/>
<text text-anchor="middle" x="130" y="-231.5" font-family="Helvetica,sans-Serif" font-size="10.00">error_type.h</text>
</a>
</g>
</g>
<!-- Node1&#45;&gt;Node2 -->
<g id="edge1" class="edge">
<title>Node1&#45;&gt;Node2</title>
<path fill="none" stroke="midnightblue" d="M290.74,-280.44C258.04,-271.2 205.82,-256.44 169.82,-246.26"/>
<polygon fill="midnightblue" stroke="midnightblue" points="170.7,-242.87 160.12,-243.52 168.79,-249.61 170.7,-242.87"/>
</g>
<!-- Node3 -->
<g id="node3" class="node">
<title>Node3</title>
<g id="a_node3"><a xlink:href="error__msg_8h.html" target="_top" xlink:title=" ">
<polygon fill="none" stroke="black" points="224.5,-224.5 224.5,-243.5 299.5,-243.5 299.5,-224.5 224.5,-224.5"/>
<text text-anchor="middle" x="262" y="-231.5" font-family="Helvetica,sans-Serif" font-size="10.00">error_msg.h</text>
</a>
</g>
</g>
<!-- Node1&#45;&gt;Node3 -->
<g id="edge2" class="edge">
<title>Node1&#45;&gt;Node3</title>
<path fill="none" stroke="midnightblue" d="M311.52,-280.32C302.8,-272.34 289.66,-260.31 279.1,-250.65"/>
<polygon fill="midnightblue" stroke="midnightblue" points="281.39,-248 271.65,-243.83 276.67,-253.17 281.39,-248"/>
</g>
<!-- Node7 -->
<g id="node7" class="node">
<title>Node7</title>
<g id="a_node7"><a xlink:href="entities_8h.html" target="_top" xlink:title=" ">
<polygon fill="none" stroke="black" points="86,-168.5 86,-187.5 148,-187.5 148,-168.5 86,-168.5"/>
<text text-anchor="middle" x="117" y="-175.5" font-family="Helvetica,sans-Serif" font-size="10.00">entities.h</text>
</a>
</g>
</g>
<!-- Node1&#45;&gt;Node7 -->
<g id="edge23" class="edge">
<title>Node1&#45;&gt;Node7</title>
<path fill="none" stroke="midnightblue" d="M297.26,-280.37C275.39,-272.08 242.29,-258.68 215,-244 186.6,-228.72 155.93,-207.54 136.61,-193.57"/>
<polygon fill="midnightblue" stroke="midnightblue" points="138.47,-190.6 128.34,-187.52 134.34,-196.25 138.47,-190.6"/>
</g>
<!-- Node15 -->
<g id="node15" class="node">
<title>Node15</title>
<g id="a_node15"><a xlink:title=" ">
<polygon fill="none" stroke="#bfbfbf" points="432,-168.5 432,-187.5 490,-187.5 490,-168.5 432,-168.5"/>
<text text-anchor="middle" x="461" y="-175.5" font-family="Helvetica,sans-Serif" font-size="10.00">ft_char.h</text>
</a>
</g>
</g>
<!-- Node1&#45;&gt;Node15 -->
<g id="edge18" class="edge">
<title>Node1&#45;&gt;Node15</title>
<path fill="none" stroke="midnightblue" d="M343.58,-280.36C362.09,-272.6 388.33,-259.97 408,-244 425.06,-230.15 440.43,-210.03 450.17,-195.86"/>
<polygon fill="midnightblue" stroke="midnightblue" points="453.09,-197.79 455.72,-187.52 447.26,-193.91 453.09,-197.79"/>
</g>
<!-- Node16 -->
<g id="node16" class="node">
<title>Node16</title>
<g id="a_node16"><a xlink:href="ft__strtod_8h.html" target="_top" xlink:title=" ">
<polygon fill="none" stroke="black" points="333,-224.5 333,-243.5 399,-243.5 399,-224.5 333,-224.5"/>
<text text-anchor="middle" x="366" y="-231.5" font-family="Helvetica,sans-Serif" font-size="10.00">ft_strtod.h</text>
</a>
</g>
</g>
<!-- Node1&#45;&gt;Node16 -->
<g id="edge19" class="edge">
<title>Node1&#45;&gt;Node16</title>
<path fill="none" stroke="midnightblue" d="M328.43,-280.08C334.85,-272.38 344.31,-261.03 352.12,-251.65"/>
<polygon fill="midnightblue" stroke="midnightblue" points="354.99,-253.67 358.71,-243.75 349.62,-249.19 354.99,-253.67"/>
</g>
<!-- Node17 -->
<g id="node17" class="node">
<title>Node17</title>
<g id="a_node17"><a xlink:href="mini_r_t__config_8h.html" target="_top" xlink:title=" ">
<polygon fill="none" stroke="black" points="455,-224.5 455,-243.5 549,-243.5 549,-224.5 455,-224.5"/>
<text text-anchor="middle" x="502" y="-231.5" font-family="Helvetica,sans-Serif" font-size="10.00">miniRT_config.h</text>
</a>
</g>
</g>
<!-- Node1&#45;&gt;Node17 -->
<g id="edge24" class="edge">
<title>Node1&#45;&gt;Node17</title>
<path fill="none" stroke="midnightblue" d="M349.68,-280.44C380.53,-271.24 429.73,-256.56 463.83,-246.39"/>
<polygon fill="midnightblue" stroke="midnightblue" points="464.87,-249.73 473.45,-243.52 462.87,-243.02 464.87,-249.73"/>
</g>
<!-- Node4 -->
<g id="node4" class="node">
<title>Node4</title>
<g id="a_node4"><a xlink:title=" ">
<polygon fill="none" stroke="#bfbfbf" points="215,-56.5 215,-75.5 265,-75.5 265,-56.5 215,-56.5"/>
<text text-anchor="middle" x="240" y="-63.5" font-family="Helvetica,sans-Serif" font-size="10.00">stdio.h</text>
</a>
</g>
</g>
<!-- Node3&#45;&gt;Node4 -->
<g id="edge3" class="edge">
<title>Node3&#45;&gt;Node4</title>
<path fill="none" stroke="midnightblue" d="M247.05,-224.47C235.07,-216.7 219.13,-204 212,-188 196.43,-153.03 215.92,-108.37 229.33,-84.28"/>
<polygon fill="midnightblue" stroke="midnightblue" points="232.4,-85.97 234.42,-75.57 226.35,-82.44 232.4,-85.97"/>
</g>
<!-- Node5 -->
<g id="node5" class="node">
<title>Node5</title>
<g id="a_node5"><a xlink:title=" ">
<polygon fill="none" stroke="#bfbfbf" points="221.5,-168.5 221.5,-187.5 272.5,-187.5 272.5,-168.5 221.5,-168.5"/>
<text text-anchor="middle" x="247" y="-175.5" font-family="Helvetica,sans-Serif" font-size="10.00">errno.h</text>
</a>
</g>
</g>
<!-- Node3&#45;&gt;Node5 -->
<g id="edge4" class="edge">
<title>Node3&#45;&gt;Node5</title>
<path fill="none" stroke="midnightblue" d="M259.52,-224.08C257.51,-216.85 254.61,-206.41 252.11,-197.4"/>
<polygon fill="midnightblue" stroke="midnightblue" points="255.48,-196.45 249.43,-187.75 248.74,-198.32 255.48,-196.45"/>
</g>
<!-- Node6 -->
<g id="node6" class="node">
<title>Node6</title>
<g id="a_node6"><a xlink:title=" ">
<polygon fill="none" stroke="#bfbfbf" points="290.5,-168.5 290.5,-187.5 337.5,-187.5 337.5,-168.5 290.5,-168.5"/>
<text text-anchor="middle" x="314" y="-175.5" font-family="Helvetica,sans-Serif" font-size="10.00">ft_fd.h</text>
</a>
</g>
</g>
<!-- Node3&#45;&gt;Node6 -->
<g id="edge5" class="edge">
<title>Node3&#45;&gt;Node6</title>
<path fill="none" stroke="midnightblue" d="M270.59,-224.08C278.16,-216.22 289.38,-204.57 298.51,-195.08"/>
<polygon fill="midnightblue" stroke="midnightblue" points="301.16,-197.38 305.57,-187.75 296.12,-192.53 301.16,-197.38"/>
</g>
<!-- Node3&#45;&gt;Node7 -->
<g id="edge6" class="edge">
<title>Node3&#45;&gt;Node7</title>
<path fill="none" stroke="midnightblue" d="M239.02,-224.44C214.84,-215.44 176.58,-201.19 149.35,-191.05"/>
<polygon fill="midnightblue" stroke="midnightblue" points="150.46,-187.73 139.87,-187.52 148.02,-194.29 150.46,-187.73"/>
</g>
<!-- Node8 -->
<g id="node8" class="node">
<title>Node8</title>
<g id="a_node8"><a xlink:title=" ">
<polygon fill="none" stroke="#bfbfbf" points="0,-0.5 0,-19.5 62,-19.5 62,-0.5 0,-0.5"/>
<text text-anchor="middle" x="31" y="-7.5" font-family="Helvetica,sans-Serif" font-size="10.00">stdbool.h</text>
</a>
</g>
</g>
<!-- Node7&#45;&gt;Node8 -->
<g id="edge7" class="edge">
<title>Node7&#45;&gt;Node8</title>
<path fill="none" stroke="midnightblue" d="M94.02,-168.36C76.3,-160.82 52.02,-148.51 35,-132 14.26,-111.89 9.6,-103.87 2,-76 -0.34,-67.42 -0.51,-64.53 2,-56 5.01,-45.76 11.15,-35.66 17.01,-27.63"/>
<polygon fill="midnightblue" stroke="midnightblue" points="19.93,-29.58 23.33,-19.54 14.41,-25.27 19.93,-29.58"/>
</g>
<!-- Node9 -->
<g id="node9" class="node">
<title>Node9</title>
<g id="a_node9"><a xlink:title=" ">
<polygon fill="none" stroke="#bfbfbf" points="56.5,-112.5 56.5,-131.5 109.5,-131.5 109.5,-112.5 56.5,-112.5"/>
<text text-anchor="middle" x="83" y="-119.5" font-family="Helvetica,sans-Serif" font-size="10.00">stdlib.h</text>
</a>
</g>
</g>
<!-- Node7&#45;&gt;Node9 -->
<g id="edge8" class="edge">
<title>Node7&#45;&gt;Node9</title>
<path fill="none" stroke="midnightblue" d="M111.39,-168.08C106.63,-160.53 99.68,-149.49 93.85,-140.23"/>
<polygon fill="midnightblue" stroke="midnightblue" points="96.8,-138.35 88.51,-131.75 90.88,-142.08 96.8,-138.35"/>
</g>
<!-- Node10 -->
<g id="node10" class="node">
<title>Node10</title>
<g id="a_node10"><a xlink:href="vec3_8h.html" target="_top" xlink:title=" ">
<polygon fill="none" stroke="black" points="11.5,-56.5 11.5,-75.5 60.5,-75.5 60.5,-56.5 11.5,-56.5"/>
<text text-anchor="middle" x="36" y="-63.5" font-family="Helvetica,sans-Serif" font-size="10.00">vec3.h</text>
</a>
</g>
</g>
<!-- Node7&#45;&gt;Node10 -->
<g id="edge9" class="edge">
<title>Node7&#45;&gt;Node10</title>
<path fill="none" stroke="midnightblue" d="M94.44,-168.36C78.6,-161.09 58.3,-149.12 47,-132 38.03,-118.42 35.63,-99.87 35.27,-86.07"/>
<polygon fill="midnightblue" stroke="midnightblue" points="38.77,-85.82 35.35,-75.8 31.77,-85.77 38.77,-85.82"/>
</g>
<!-- Node12 -->
<g id="node12" class="node">
<title>Node12</title>
<g id="a_node12"><a xlink:href="colour_8h.html" target="_top" xlink:title=" ">
<polygon fill="none" stroke="black" points="127.5,-112.5 127.5,-131.5 182.5,-131.5 182.5,-112.5 127.5,-112.5"/>
<text text-anchor="middle" x="155" y="-119.5" font-family="Helvetica,sans-Serif" font-size="10.00">colour.h</text>
</a>
</g>
</g>
<!-- Node7&#45;&gt;Node12 -->
<g id="edge12" class="edge">
<title>Node7&#45;&gt;Node12</title>
<path fill="none" stroke="midnightblue" d="M123.27,-168.08C128.64,-160.46 136.52,-149.26 143.08,-139.94"/>
<polygon fill="midnightblue" stroke="midnightblue" points="145.95,-141.94 148.84,-131.75 140.22,-137.91 145.95,-141.94"/>
</g>
<!-- Node10&#45;&gt;Node8 -->
<g id="edge11" class="edge">
<title>Node10&#45;&gt;Node8</title>
<path fill="none" stroke="midnightblue" d="M35.17,-56.08C34.52,-49.01 33.58,-38.86 32.76,-29.99"/>
<polygon fill="midnightblue" stroke="midnightblue" points="36.22,-29.39 31.81,-19.75 29.25,-30.03 36.22,-29.39"/>
</g>
<!-- Node11 -->
<g id="node11" class="node">
<title>Node11</title>
<g id="a_node11"><a xlink:title=" ">
<polygon fill="none" stroke="#bfbfbf" points="80.5,-0.5 80.5,-19.5 131.5,-19.5 131.5,-0.5 80.5,-0.5"/>
<text text-anchor="middle" x="106" y="-7.5" font-family="Helvetica,sans-Serif" font-size="10.00">math.h</text>
</a>
</g>
</g>
<!-- Node10&#45;&gt;Node11 -->
<g id="edge10" class="edge">
<title>Node10&#45;&gt;Node11</title>
<path fill="none" stroke="midnightblue" d="M47.25,-56.32C57.8,-48.18 73.8,-35.84 86.44,-26.09"/>
<polygon fill="midnightblue" stroke="midnightblue" points="88.77,-28.71 94.55,-19.83 84.49,-23.17 88.77,-28.71"/>
</g>
<!-- Node12&#45;&gt;Node4 -->
<g id="edge13" class="edge">
<title>Node12&#45;&gt;Node4</title>
<path fill="none" stroke="midnightblue" d="M168.66,-112.32C181.92,-103.9 202.27,-90.97 217.85,-81.07"/>
<polygon fill="midnightblue" stroke="midnightblue" points="219.81,-83.97 226.38,-75.65 216.06,-78.06 219.81,-83.97"/>
</g>
<!-- Node13 -->
<g id="node13" class="node">
<title>Node13</title>
<g id="a_node13"><a xlink:title=" ">
<polygon fill="none" stroke="#bfbfbf" points="143.5,-56.5 143.5,-75.5 196.5,-75.5 196.5,-56.5 143.5,-56.5"/>
<text text-anchor="middle" x="170" y="-63.5" font-family="Helvetica,sans-Serif" font-size="10.00">stdint.h</text>
</a>
</g>
</g>
<!-- Node12&#45;&gt;Node13 -->
<g id="edge14" class="edge">
<title>Node12&#45;&gt;Node13</title>
<path fill="none" stroke="midnightblue" d="M157.48,-112.08C159.49,-104.85 162.39,-94.41 164.89,-85.4"/>
<polygon fill="midnightblue" stroke="midnightblue" points="168.26,-86.32 167.57,-75.75 161.52,-84.45 168.26,-86.32"/>
</g>
<!-- Node14 -->
<g id="node14" class="node">
<title>Node14</title>
<g id="a_node14"><a xlink:href="utils_8h.html" target="_top" xlink:title=" ">
<polygon fill="none" stroke="black" points="78.5,-56.5 78.5,-75.5 125.5,-75.5 125.5,-56.5 78.5,-56.5"/>
<text text-anchor="middle" x="102" y="-63.5" font-family="Helvetica,sans-Serif" font-size="10.00">utils.h</text>
</a>
</g>
</g>
<!-- Node12&#45;&gt;Node14 -->
<g id="edge15" class="edge">
<title>Node12&#45;&gt;Node14</title>
<path fill="none" stroke="midnightblue" d="M146.25,-112.08C138.53,-104.22 127.1,-92.57 117.78,-83.08"/>
<polygon fill="midnightblue" stroke="midnightblue" points="120.09,-80.44 110.59,-75.75 115.1,-85.34 120.09,-80.44"/>
</g>
<!-- Node14&#45;&gt;Node8 -->
<g id="edge17" class="edge">
<title>Node14&#45;&gt;Node8</title>
<path fill="none" stroke="midnightblue" d="M90.59,-56.32C79.89,-48.18 63.66,-35.84 50.84,-26.09"/>
<polygon fill="midnightblue" stroke="midnightblue" points="52.69,-23.1 42.61,-19.83 48.46,-28.67 52.69,-23.1"/>
</g>
<!-- Node14&#45;&gt;Node11 -->
<g id="edge16" class="edge">
<title>Node14&#45;&gt;Node11</title>
<path fill="none" stroke="midnightblue" d="M102.66,-56.08C103.18,-49.01 103.94,-38.86 104.59,-29.99"/>
<polygon fill="midnightblue" stroke="midnightblue" points="108.1,-29.98 105.35,-19.75 101.12,-29.47 108.1,-29.98"/>
</g>
<!-- Node16&#45;&gt;Node4 -->
<g id="edge20" class="edge">
<title>Node16&#45;&gt;Node4</title>
<path fill="none" stroke="midnightblue" d="M364.96,-224.42C363.06,-211.4 358.17,-186.25 347,-168 324.55,-131.33 285.36,-99.21 261.15,-81.52"/>
<polygon fill="midnightblue" stroke="midnightblue" points="263.14,-78.64 252.97,-75.67 259.07,-84.33 263.14,-78.64"/>
</g>
<!-- Node16&#45;&gt;Node11 -->
<g id="edge21" class="edge">
<title>Node16&#45;&gt;Node11</title>
<path fill="none" stroke="midnightblue" d="M367.5,-224.31C369.33,-211.57 371.46,-187.26 365,-168 344.6,-107.19 328.62,-89.62 274,-56 232.81,-30.64 177.39,-19.4 141.67,-14.54"/>
<polygon fill="midnightblue" stroke="midnightblue" points="142.07,-11.06 131.71,-13.27 141.19,-18 142.07,-11.06"/>
</g>
<!-- Node16&#45;&gt;Node15 -->
<g id="edge22" class="edge">
<title>Node16&#45;&gt;Node15</title>
<path fill="none" stroke="midnightblue" d="M381.26,-224.32C396.22,-215.82 419.25,-202.73 436.73,-192.8"/>
<polygon fill="midnightblue" stroke="midnightblue" points="438.81,-195.64 445.77,-187.65 435.35,-189.55 438.81,-195.64"/>
</g>
</g>
</svg>
        <g id="navigator" transform="translate(0 0)" fill="#404254">
                <rect fill="#f2f5e9" fill-opacity="0.5" stroke="#606060" stroke-width=".5" x="0" y="0" width="60" height="60"/>
                <use id="zoomplus" xlink:href="#zoomPlus" x="17" y="9" onmousedown="handleZoom(evt,'in')"/>
                <use id="zoomminus" xlink:href="#zoomMin" x="42" y="9" onmousedown="handleZoom(evt,'out')"/>
                <use id="reset" xlink:href="#resetDef" x="30" y="36" onmousedown="handleReset()"/>
                <g id="arrowUp" xlink:href="#dirArrow" transform="translate(30 24)" onmousedown="handlePan(0,-1)">
                  <use xlink:href="#rim" fill="#404040">
                        <set attributeName="fill" to="#808080" begin="arrowUp.mouseover" end="arrowUp.mouseout"/>
                  </use>
                  <path fill="none" stroke="white" stroke-width="1.5" d="M0,-3.0v7 M-2.5,-0.5L0,-3.0L2.5,-0.5"/>
                </g>
                <g id="arrowRight" xlink:href="#dirArrow" transform="rotate(90) translate(36 -43)" onmousedown="handlePan(1,0)">
                  <use xlink:href="#rim" fill="#404040">
                        <set attributeName="fill" to="#808080" begin="arrowRight.mouseover" end="arrowRight.mouseout"/>
                  </use>
                  <path fill="none" stroke="white" stroke-width="1.5" d="M0,-3.0v7 M-2.5,-0.5L0,-3.0L2.5,-0.5"/>
                </g>
                <g id="arrowDown" xlink:href="#dirArrow" transform="rotate(180) translate(-30 -48)" onmousedown="handlePan(0,1)">
                  <use xlink:href="#rim" fill="#404040">
                        <set attributeName="fill" to="#808080" begin="arrowDown.mouseover" end="arrowDown.mouseout"/>
                  </use>
                  <path fill="none" stroke="white" stroke-width="1.5" d="M0,-3.0v7 M-2.5,-0.5L0,-3.0L2.5,-0.5"/>
                </g>
                <g id="arrowLeft" xlink:href="#dirArrow" transform="rotate(270) translate(-36 17)" onmousedown="handlePan(-1,0)">
                  <use xlink:href="#rim" fill="#404040">
                        <set attributeName="fill" to="#808080" begin="arrowLeft.mouseover" end="arrowLeft.mouseout"/>
                  </use>
                  <path fill="none" stroke="white" stroke-width="1.5" d="M0,-3.0v7 M-2.5,-0.5L0,-3.0L2.5,-0.5"/>
                </g>
        </g>
        <svg viewBox="0 0 15 15" width="100%" height="30px" preserveAspectRatio="xMaxYMin meet">
         <g id="arrow_out" transform="scale(0.3 0.3)">
          <a xlink:href="check_8h__incl_org.svg" target="_base">
           <rect id="button" ry="5" rx="5" y="6" x="6" height="38" width="38"
                fill="#f2f5e9" fill-opacity="0.5" stroke="#606060" stroke-width="1.0"/>
           <path id="arrow"
             d="M 11.500037,31.436501 C 11.940474,20.09759 22.043105,11.32322 32.158766,21.979434 L 37.068811,17.246167 C 37.068811,17.246167 37.088388,32 37.088388,32 L 22.160133,31.978069 C 22.160133,31.978069 26.997745,27.140456 26.997745,27.140456 C 18.528582,18.264221 13.291696,25.230495 11.500037,31.436501 z"
             style="fill:#404040;"/>
          </a>
         </g>
        </svg>
</svg>
