<?xml version="1.0" encoding="UTF-8" standalone="no"?>
<!DOCTYPE svg PUBLIC "-//W3C//DTD SVG 1.1//EN"
 "http://www.w3.org/Graphics/SVG/1.1/DTD/svg11.dtd">
<!-- Generated by graphviz version 2.43.0 (0)
 -->
<!-- Title: ft_check_plane_bonus Pages: 1 -->
<svg width="571pt" height="180pt"
 viewBox="0.00 0.00 571.00 180.00" xmlns="http://www.w3.org/2000/svg" xmlns:xlink="http://www.w3.org/1999/xlink">
<g id="graph0" class="graph" transform="scale(1 1) rotate(0) translate(4 176)">
<title>ft_check_plane_bonus</title>
<!-- Node1 -->
<g id="node1" class="node">
<title>Node1</title>
<g id="a_node1"><a xlink:title="Checks if plane line is correct.">
<polygon fill="#bfbfbf" stroke="black" points="0,-76.5 0,-95.5 124,-95.5 124,-76.5 0,-76.5"/>
<text text-anchor="middle" x="62" y="-83.5" font-family="Helvetica,sans-Serif" font-size="10.00">ft_check_plane_bonus</text>
</a>
</g>
</g>
<!-- Node2 -->
<g id="node2" class="node">
<title>Node2</title>
<g id="a_node2"><a xlink:href="check_8h.html#a542b81308cf530edfa0a3bfdcefb6002" target="_top" xlink:title="Tries to convert str to float and checks range.">
<polygon fill="none" stroke="black" points="322,-76.5 322,-95.5 410,-95.5 410,-76.5 322,-76.5"/>
<text text-anchor="middle" x="366" y="-83.5" font-family="Helvetica,sans-Serif" font-size="10.00">ft_isvalid_float</text>
</a>
</g>
</g>
<!-- Node1&#45;&gt;Node2 -->
<g id="edge1" class="edge">
<title>Node1&#45;&gt;Node2</title>
<path fill="none" stroke="midnightblue" d="M124.11,-86C179.05,-86 258.95,-86 311.43,-86"/>
<polygon fill="midnightblue" stroke="midnightblue" points="311.55,-89.5 321.55,-86 311.55,-82.5 311.55,-89.5"/>
</g>
<!-- Node7 -->
<g id="node7" class="node">
<title>Node7</title>
<g id="a_node7"><a xlink:href="check_8h.html#a399912478dc865909526aa87e6c333df" target="_top" xlink:title="Checks three floats, separated by &#39;,&#39;.">
<polygon fill="none" stroke="black" points="160,-114.5 160,-133.5 279,-133.5 279,-114.5 160,-114.5"/>
<text text-anchor="middle" x="219.5" y="-121.5" font-family="Helvetica,sans-Serif" font-size="10.00">ft_isvalid_float_block</text>
</a>
</g>
</g>
<!-- Node1&#45;&gt;Node7 -->
<g id="edge6" class="edge">
<title>Node1&#45;&gt;Node7</title>
<path fill="none" stroke="midnightblue" d="M102.24,-95.59C122.76,-100.6 148.07,-106.79 169.83,-112.11"/>
<polygon fill="midnightblue" stroke="midnightblue" points="169,-115.51 179.54,-114.48 170.66,-108.71 169,-115.51"/>
</g>
<!-- Node9 -->
<g id="node9" class="node">
<title>Node9</title>
<g id="a_node9"><a xlink:href="check_8h.html#a3327b821f1a4c71183e0448c7023a5aa" target="_top" xlink:title="Checks three rgb values, separated by &#39;,&#39;.">
<polygon fill="none" stroke="black" points="163,-152.5 163,-171.5 276,-171.5 276,-152.5 163,-152.5"/>
<text text-anchor="middle" x="219.5" y="-159.5" font-family="Helvetica,sans-Serif" font-size="10.00">ft_isvalid_rgb_block</text>
</a>
</g>
</g>
<!-- Node1&#45;&gt;Node9 -->
<g id="edge12" class="edge">
<title>Node1&#45;&gt;Node9</title>
<path fill="none" stroke="midnightblue" d="M76.94,-95.51C95.33,-107.74 129,-129.06 160,-143 164.81,-145.16 169.94,-147.2 175.08,-149.07"/>
<polygon fill="midnightblue" stroke="midnightblue" points="174.33,-152.52 184.92,-152.48 176.62,-145.9 174.33,-152.52"/>
</g>
<!-- Node11 -->
<g id="node11" class="node">
<title>Node11</title>
<g id="a_node11"><a xlink:href="error__msg_8h.html#a0a61f85709f3119ca9086f591705f294" target="_top" xlink:title="Error message if line doesn&#39;t end with space or zero terminator.">
<polygon fill="none" stroke="black" points="179,-38.5 179,-57.5 260,-57.5 260,-38.5 179,-38.5"/>
<text text-anchor="middle" x="219.5" y="-45.5" font-family="Helvetica,sans-Serif" font-size="10.00">ft_perror_end</text>
</a>
</g>
</g>
<!-- Node1&#45;&gt;Node11 -->
<g id="edge17" class="edge">
<title>Node1&#45;&gt;Node11</title>
<path fill="none" stroke="midnightblue" d="M102.24,-76.41C122.76,-71.4 148.07,-65.21 169.83,-59.89"/>
<polygon fill="midnightblue" stroke="midnightblue" points="170.66,-63.29 179.54,-57.52 169,-56.49 170.66,-63.29"/>
</g>
<!-- Node12 -->
<g id="node12" class="node">
<title>Node12</title>
<g id="a_node12"><a xlink:href="check_8h.html#a7a10a4efb97dd784c001f96c580d7119" target="_top" xlink:title="Moves line one space or htab forward and sanitizes spaces.">
<polygon fill="none" stroke="black" points="181.5,-0.5 181.5,-19.5 257.5,-19.5 257.5,-0.5 181.5,-0.5"/>
<text text-anchor="middle" x="219.5" y="-7.5" font-family="Helvetica,sans-Serif" font-size="10.00">ft_rm_space</text>
</a>
</g>
</g>
<!-- Node1&#45;&gt;Node12 -->
<g id="edge18" class="edge">
<title>Node1&#45;&gt;Node12</title>
<path fill="none" stroke="midnightblue" d="M76.94,-76.49C95.33,-64.26 129,-42.94 160,-29 164.81,-26.84 169.94,-24.8 175.08,-22.93"/>
<polygon fill="midnightblue" stroke="midnightblue" points="176.62,-26.1 184.92,-19.52 174.33,-19.48 176.62,-26.1"/>
</g>
<!-- Node3 -->
<g id="node3" class="node">
<title>Node3</title>
<g id="a_node3"><a xlink:href="error__msg_8h.html#a207347473e8d1cf324c6b70fca7155fe" target="_top" xlink:title="Error message if conversion failed.">
<polygon fill="none" stroke="black" points="458,-152.5 458,-171.5 558,-171.5 558,-152.5 458,-152.5"/>
<text text-anchor="middle" x="508" y="-159.5" font-family="Helvetica,sans-Serif" font-size="10.00">ft_perror_convert</text>
</a>
</g>
</g>
<!-- Node2&#45;&gt;Node3 -->
<g id="edge2" class="edge">
<title>Node2&#45;&gt;Node3</title>
<path fill="none" stroke="midnightblue" d="M398.74,-95.59C405.05,-98.17 411.44,-101.29 417,-105 436.36,-117.9 433.48,-130.34 453,-143 456.1,-145.01 459.44,-146.84 462.88,-148.49"/>
<polygon fill="midnightblue" stroke="midnightblue" points="461.58,-151.74 472.15,-152.48 464.35,-145.31 461.58,-151.74"/>
</g>
<!-- Node4 -->
<g id="node4" class="node">
<title>Node4</title>
<g id="a_node4"><a xlink:href="error__msg_8h.html#ae79c226d26bf8b2dbd74bf7440eefa7d" target="_top" xlink:title="Error message if converted number is out of range.">
<polygon fill="none" stroke="black" points="462.5,-114.5 462.5,-133.5 553.5,-133.5 553.5,-114.5 462.5,-114.5"/>
<text text-anchor="middle" x="508" y="-121.5" font-family="Helvetica,sans-Serif" font-size="10.00">ft_perror_range</text>
</a>
</g>
</g>
<!-- Node2&#45;&gt;Node4 -->
<g id="edge3" class="edge">
<title>Node2&#45;&gt;Node4</title>
<path fill="none" stroke="midnightblue" d="M402.33,-95.59C420.4,-100.49 442.6,-106.52 461.89,-111.76"/>
<polygon fill="midnightblue" stroke="midnightblue" points="461.12,-115.17 471.68,-114.41 462.95,-108.42 461.12,-115.17"/>
</g>
<!-- Node5 -->
<g id="node5" class="node">
<title>Node5</title>
<g id="a_node5"><a xlink:href="error__msg_8h.html#a66c0aad31fa186667840a2c0a5004099" target="_top" xlink:title="Error message if wrong separator was encountered.">
<polygon fill="none" stroke="black" points="453,-76.5 453,-95.5 563,-95.5 563,-76.5 453,-76.5"/>
<text text-anchor="middle" x="508" y="-83.5" font-family="Helvetica,sans-Serif" font-size="10.00">ft_perror_separator</text>
</a>
</g>
</g>
<!-- Node2&#45;&gt;Node5 -->
<g id="edge4" class="edge">
<title>Node2&#45;&gt;Node5</title>
<path fill="none" stroke="midnightblue" d="M410.15,-86C420.48,-86 431.74,-86 442.8,-86"/>
<polygon fill="midnightblue" stroke="midnightblue" points="442.87,-89.5 452.87,-86 442.87,-82.5 442.87,-89.5"/>
</g>
<!-- Node6 -->
<g id="node6" class="node">
<title>Node6</title>
<g id="a_node6"><a xlink:href="ft__strtod_8h.html#a0a1cbf0fef2bdcf6fde79c34014bc10e" target="_top" xlink:title="Converts a String to a double.">
<polygon fill="none" stroke="black" points="479.5,-38.5 479.5,-57.5 536.5,-57.5 536.5,-38.5 479.5,-38.5"/>
<text text-anchor="middle" x="508" y="-45.5" font-family="Helvetica,sans-Serif" font-size="10.00">ft_strtod</text>
</a>
</g>
</g>
<!-- Node2&#45;&gt;Node6 -->
<g id="edge5" class="edge">
<title>Node2&#45;&gt;Node6</title>
<path fill="none" stroke="midnightblue" d="M402.33,-76.41C422.79,-70.86 448.55,-63.86 469.39,-58.21"/>
<polygon fill="midnightblue" stroke="midnightblue" points="470.45,-61.55 479.18,-55.55 468.62,-54.79 470.45,-61.55"/>
</g>
<!-- Node8 -->
<g id="node8" class="node">
<title>Node8</title>
<g id="a_node8"><a xlink:href="check__line_8c.html#a542b81308cf530edfa0a3bfdcefb6002" target="_top" xlink:title="Tries to convert str to float and checks range.">
<polygon fill="none" stroke="black" points="322,-114.5 322,-133.5 410,-133.5 410,-114.5 322,-114.5"/>
<text text-anchor="middle" x="366" y="-121.5" font-family="Helvetica,sans-Serif" font-size="10.00">ft_isvalid_float</text>
</a>
</g>
</g>
<!-- Node7&#45;&gt;Node8 -->
<g id="edge7" class="edge">
<title>Node7&#45;&gt;Node8</title>
<path fill="none" stroke="midnightblue" d="M279.27,-124C289.94,-124 301.01,-124 311.51,-124"/>
<polygon fill="midnightblue" stroke="midnightblue" points="311.79,-127.5 321.79,-124 311.79,-120.5 311.79,-127.5"/>
</g>
<!-- Node8&#45;&gt;Node3 -->
<g id="edge8" class="edge">
<title>Node8&#45;&gt;Node3</title>
<path fill="none" stroke="midnightblue" d="M402.33,-133.59C420.4,-138.49 442.6,-144.52 461.89,-149.76"/>
<polygon fill="midnightblue" stroke="midnightblue" points="461.12,-153.17 471.68,-152.41 462.95,-146.42 461.12,-153.17"/>
</g>
<!-- Node8&#45;&gt;Node4 -->
<g id="edge9" class="edge">
<title>Node8&#45;&gt;Node4</title>
<path fill="none" stroke="midnightblue" d="M410.15,-124C423.46,-124 438.31,-124 452.3,-124"/>
<polygon fill="midnightblue" stroke="midnightblue" points="452.3,-127.5 462.3,-124 452.3,-120.5 452.3,-127.5"/>
</g>
<!-- Node8&#45;&gt;Node5 -->
<g id="edge10" class="edge">
<title>Node8&#45;&gt;Node5</title>
<path fill="none" stroke="midnightblue" d="M402.33,-114.41C420.4,-109.51 442.6,-103.48 461.89,-98.24"/>
<polygon fill="midnightblue" stroke="midnightblue" points="462.95,-101.58 471.68,-95.59 461.12,-94.83 462.95,-101.58"/>
</g>
<!-- Node8&#45;&gt;Node6 -->
<g id="edge11" class="edge">
<title>Node8&#45;&gt;Node6</title>
<path fill="none" stroke="midnightblue" d="M398.74,-114.41C405.05,-111.83 411.44,-108.71 417,-105 436.36,-92.1 433.48,-79.66 453,-67 458.13,-63.67 463.91,-60.85 469.73,-58.48"/>
<polygon fill="midnightblue" stroke="midnightblue" points="471.29,-61.64 479.47,-54.9 468.87,-55.06 471.29,-61.64"/>
</g>
<!-- Node10 -->
<g id="node10" class="node">
<title>Node10</title>
<g id="a_node10"><a xlink:href="check__line_8c.html#a7884a3e9489248b242a9fb7da9607bf4" target="_top" xlink:title="Tries to convert str into rgb int and checks range.">
<polygon fill="none" stroke="black" points="315,-152.5 315,-171.5 417,-171.5 417,-152.5 315,-152.5"/>
<text text-anchor="middle" x="366" y="-159.5" font-family="Helvetica,sans-Serif" font-size="10.00">ft_isvalid_rgb_val</text>
</a>
</g>
</g>
<!-- Node9&#45;&gt;Node10 -->
<g id="edge13" class="edge">
<title>Node9&#45;&gt;Node10</title>
<path fill="none" stroke="midnightblue" d="M276.37,-162C285.7,-162 295.42,-162 304.85,-162"/>
<polygon fill="midnightblue" stroke="midnightblue" points="304.94,-165.5 314.94,-162 304.94,-158.5 304.94,-165.5"/>
</g>
<!-- Node10&#45;&gt;Node3 -->
<g id="edge14" class="edge">
<title>Node10&#45;&gt;Node3</title>
<path fill="none" stroke="midnightblue" d="M417.15,-162C427.03,-162 437.5,-162 447.65,-162"/>
<polygon fill="midnightblue" stroke="midnightblue" points="447.67,-165.5 457.67,-162 447.67,-158.5 447.67,-165.5"/>
</g>
<!-- Node10&#45;&gt;Node4 -->
<g id="edge15" class="edge">
<title>Node10&#45;&gt;Node4</title>
<path fill="none" stroke="midnightblue" d="M402.33,-152.41C420.4,-147.51 442.6,-141.48 461.89,-136.24"/>
<polygon fill="midnightblue" stroke="midnightblue" points="462.95,-139.58 471.68,-133.59 461.12,-132.83 462.95,-139.58"/>
</g>
<!-- Node10&#45;&gt;Node5 -->
<g id="edge16" class="edge">
<title>Node10&#45;&gt;Node5</title>
<path fill="none" stroke="midnightblue" d="M398.74,-152.41C405.05,-149.83 411.44,-146.71 417,-143 436.36,-130.1 433.48,-117.66 453,-105 456.1,-102.99 459.44,-101.16 462.88,-99.51"/>
<polygon fill="midnightblue" stroke="midnightblue" points="464.35,-102.69 472.15,-95.52 461.58,-96.26 464.35,-102.69"/>
</g>
</g>
</svg>
