<?xml version="1.0" encoding="UTF-8" standalone="no"?>
<!DOCTYPE svg PUBLIC "-//W3C//DTD SVG 1.1//EN"
 "http://www.w3.org/Graphics/SVG/1.1/DTD/svg11.dtd">
<!-- Generated by graphviz version 2.43.0 (0)
 -->
<!-- Title: inc/check.h Pages: 1 -->
<svg width="1173pt" height="162pt"
 viewBox="0.00 0.00 1173.00 162.00" xmlns="http://www.w3.org/2000/svg" xmlns:xlink="http://www.w3.org/1999/xlink">
<g id="graph0" class="graph" transform="scale(1 1) rotate(0) translate(4 158)">
<title>inc/check.h</title>
<!-- Node1 -->
<g id="node1" class="node">
<title>Node1</title>
<g id="a_node1"><a xlink:title=" ">
<polygon fill="#bfbfbf" stroke="black" points="641,-134.5 641,-153.5 712,-153.5 712,-134.5 641,-134.5"/>
<text text-anchor="middle" x="676.5" y="-141.5" font-family="Helvetica,sans-Serif" font-size="10.00">inc/check.h</text>
</a>
</g>
</g>
<!-- Node2 -->
<g id="node2" class="node">
<title>Node2</title>
<g id="a_node2"><a xlink:href="check__bonus_8h.html" target="_top" xlink:title=" ">
<polygon fill="none" stroke="black" points="197.5,-73 197.5,-92 303.5,-92 303.5,-73 197.5,-73"/>
<text text-anchor="middle" x="250.5" y="-80" font-family="Helvetica,sans-Serif" font-size="10.00">inc/check_bonus.h</text>
</a>
</g>
</g>
<!-- Node1&#45;&gt;Node2 -->
<g id="edge1" class="edge">
<title>Node1&#45;&gt;Node2</title>
<path fill="none" stroke="midnightblue" d="M630.66,-138.84C561.58,-132.24 426.81,-118.01 313.5,-98 304.11,-96.34 294,-94.19 284.7,-92.05"/>
<polygon fill="midnightblue" stroke="midnightblue" points="630.48,-142.34 640.77,-139.8 631.14,-135.37 630.48,-142.34"/>
</g>
<!-- Node7 -->
<g id="node7" class="node">
<title>Node7</title>
<g id="a_node7"><a xlink:href="check_8c.html" target="_top" xlink:title=" ">
<polygon fill="none" stroke="black" points="322,-73 322,-92 393,-92 393,-73 322,-73"/>
<text text-anchor="middle" x="357.5" y="-80" font-family="Helvetica,sans-Serif" font-size="10.00">src/check.c</text>
</a>
</g>
</g>
<!-- Node1&#45;&gt;Node7 -->
<g id="edge6" class="edge">
<title>Node1&#45;&gt;Node7</title>
<path fill="none" stroke="midnightblue" d="M630.61,-137.59C575.85,-130.64 481.73,-117.16 402.5,-98 395.8,-96.38 388.65,-94.26 382.07,-92.15"/>
<polygon fill="midnightblue" stroke="midnightblue" points="630.33,-141.08 640.69,-138.85 631.2,-134.13 630.33,-141.08"/>
</g>
<!-- Node8 -->
<g id="node8" class="node">
<title>Node8</title>
<g id="a_node8"><a xlink:href="check__entity___a_c_l_8c.html" target="_top" xlink:title=" ">
<polygon fill="none" stroke="black" points="411.5,-73 411.5,-92 539.5,-92 539.5,-73 411.5,-73"/>
<text text-anchor="middle" x="475.5" y="-80" font-family="Helvetica,sans-Serif" font-size="10.00">src/check_entity_ACL.c</text>
</a>
</g>
</g>
<!-- Node1&#45;&gt;Node8 -->
<g id="edge7" class="edge">
<title>Node1&#45;&gt;Node8</title>
<path fill="none" stroke="midnightblue" d="M637.75,-131.53C598.68,-119.96 539.3,-102.38 504.24,-92.01"/>
<polygon fill="midnightblue" stroke="midnightblue" points="637.12,-134.99 647.7,-134.48 639.11,-128.28 637.12,-134.99"/>
</g>
<!-- Node9 -->
<g id="node9" class="node">
<title>Node9</title>
<g id="a_node9"><a xlink:href="check__entity__sp__pl__cy_8c.html" target="_top" xlink:title=" ">
<polygon fill="none" stroke="black" points="558,-67.5 558,-97.5 671,-97.5 671,-67.5 558,-67.5"/>
<text text-anchor="start" x="566" y="-85.5" font-family="Helvetica,sans-Serif" font-size="10.00">src/check_entity_sp</text>
<text text-anchor="middle" x="614.5" y="-74.5" font-family="Helvetica,sans-Serif" font-size="10.00">_pl_cy.c</text>
</a>
</g>
</g>
<!-- Node1&#45;&gt;Node9 -->
<g id="edge8" class="edge">
<title>Node1&#45;&gt;Node9</title>
<path fill="none" stroke="midnightblue" d="M660.21,-127.37C650.57,-118.11 638.45,-106.48 629.11,-97.52"/>
<polygon fill="midnightblue" stroke="midnightblue" points="657.98,-130.08 667.62,-134.48 662.83,-125.03 657.98,-130.08"/>
</g>
<!-- Node10 -->
<g id="node10" class="node">
<title>Node10</title>
<g id="a_node10"><a xlink:href="check__error_8c.html" target="_top" xlink:title=" ">
<polygon fill="none" stroke="black" points="689.5,-73 689.5,-92 787.5,-92 787.5,-73 689.5,-73"/>
<text text-anchor="middle" x="738.5" y="-80" font-family="Helvetica,sans-Serif" font-size="10.00">src/check_error.c</text>
</a>
</g>
</g>
<!-- Node1&#45;&gt;Node10 -->
<g id="edge9" class="edge">
<title>Node1&#45;&gt;Node10</title>
<path fill="none" stroke="midnightblue" d="M692.83,-127.32C704.61,-116.02 720.06,-101.19 729.63,-92.01"/>
<polygon fill="midnightblue" stroke="midnightblue" points="690.17,-125.03 685.38,-134.48 695.02,-130.08 690.17,-125.03"/>
</g>
<!-- Node11 -->
<g id="node11" class="node">
<title>Node11</title>
<g id="a_node11"><a xlink:href="check__error2_8c.html" target="_top" xlink:title=" ">
<polygon fill="none" stroke="black" points="806,-73 806,-92 911,-92 911,-73 806,-73"/>
<text text-anchor="middle" x="858.5" y="-80" font-family="Helvetica,sans-Serif" font-size="10.00">src/check_error2.c</text>
</a>
</g>
</g>
<!-- Node1&#45;&gt;Node11 -->
<g id="edge10" class="edge">
<title>Node1&#45;&gt;Node11</title>
<path fill="none" stroke="midnightblue" d="M712.5,-131.23C747.87,-119.67 801,-102.3 832.47,-92.01"/>
<polygon fill="midnightblue" stroke="midnightblue" points="710.99,-128.04 702.58,-134.48 713.17,-134.69 710.99,-128.04"/>
</g>
<!-- Node12 -->
<g id="node12" class="node">
<title>Node12</title>
<g id="a_node12"><a xlink:href="check__line_8c.html" target="_top" xlink:title=" ">
<polygon fill="none" stroke="black" points="929.5,-73 929.5,-92 1023.5,-92 1023.5,-73 929.5,-73"/>
<text text-anchor="middle" x="976.5" y="-80" font-family="Helvetica,sans-Serif" font-size="10.00">src/check_line.c</text>
</a>
</g>
</g>
<!-- Node1&#45;&gt;Node12 -->
<g id="edge11" class="edge">
<title>Node1&#45;&gt;Node12</title>
<path fill="none" stroke="midnightblue" d="M722.22,-135.56C771.4,-127.34 851.79,-113.21 920.5,-98 928.54,-96.22 937.18,-94.09 945.2,-92.02"/>
<polygon fill="midnightblue" stroke="midnightblue" points="721.51,-132.14 712.22,-137.23 722.66,-139.04 721.51,-132.14"/>
</g>
<!-- Node13 -->
<g id="node13" class="node">
<title>Node13</title>
<g id="a_node13"><a xlink:href="check__rm__space_8c.html" target="_top" xlink:title=" ">
<polygon fill="none" stroke="black" points="1042,-73 1042,-92 1165,-92 1165,-73 1042,-73"/>
<text text-anchor="middle" x="1103.5" y="-80" font-family="Helvetica,sans-Serif" font-size="10.00">src/check_rm_space.c</text>
</a>
</g>
</g>
<!-- Node1&#45;&gt;Node13 -->
<g id="edge12" class="edge">
<title>Node1&#45;&gt;Node13</title>
<path fill="none" stroke="midnightblue" d="M722.62,-138.3C790.64,-131.11 921.79,-116.27 1032.5,-98 1042.93,-96.28 1054.16,-94.13 1064.54,-92.01"/>
<polygon fill="midnightblue" stroke="midnightblue" points="721.83,-134.86 712.25,-139.39 722.56,-141.82 721.83,-134.86"/>
</g>
<!-- Node3 -->
<g id="node3" class="node">
<title>Node3</title>
<g id="a_node3"><a xlink:href="check__bonus_8c.html" target="_top" xlink:title=" ">
<polygon fill="none" stroke="black" points="0,-6 0,-25 105,-25 105,-6 0,-6"/>
<text text-anchor="middle" x="52.5" y="-13" font-family="Helvetica,sans-Serif" font-size="10.00">src/check_bonus.c</text>
</a>
</g>
</g>
<!-- Node2&#45;&gt;Node3 -->
<g id="edge2" class="edge">
<title>Node2&#45;&gt;Node3</title>
<path fill="none" stroke="midnightblue" d="M214.5,-69.68C175.26,-56.8 113.41,-36.5 78.59,-25.06"/>
<polygon fill="midnightblue" stroke="midnightblue" points="213.61,-73.07 224.21,-72.87 215.8,-66.42 213.61,-73.07"/>
</g>
<!-- Node4 -->
<g id="node4" class="node">
<title>Node4</title>
<g id="a_node4"><a xlink:href="check__entity__sp__pl__cy__bonus_8c.html" target="_top" xlink:title=" ">
<polygon fill="none" stroke="black" points="123,-0.5 123,-30.5 236,-30.5 236,-0.5 123,-0.5"/>
<text text-anchor="start" x="131" y="-18.5" font-family="Helvetica,sans-Serif" font-size="10.00">src/check_entity_sp</text>
<text text-anchor="middle" x="179.5" y="-7.5" font-family="Helvetica,sans-Serif" font-size="10.00">_pl_cy_bonus.c</text>
</a>
</g>
</g>
<!-- Node2&#45;&gt;Node4 -->
<g id="edge3" class="edge">
<title>Node2&#45;&gt;Node4</title>
<path fill="none" stroke="midnightblue" d="M233.49,-65.93C221.75,-55.18 206.26,-41 194.89,-30.59"/>
<polygon fill="midnightblue" stroke="midnightblue" points="231.19,-68.56 240.92,-72.73 235.91,-63.4 231.19,-68.56"/>
</g>
<!-- Node5 -->
<g id="node5" class="node">
<title>Node5</title>
<g id="a_node5"><a xlink:href="check__error__bonus_8c.html" target="_top" xlink:title=" ">
<polygon fill="none" stroke="black" points="254.5,-6 254.5,-25 388.5,-25 388.5,-6 254.5,-6"/>
<text text-anchor="middle" x="321.5" y="-13" font-family="Helvetica,sans-Serif" font-size="10.00">src/check_error_bonus.c</text>
</a>
</g>
</g>
<!-- Node2&#45;&gt;Node5 -->
<g id="edge4" class="edge">
<title>Node2&#45;&gt;Node5</title>
<path fill="none" stroke="midnightblue" d="M267.59,-65.86C281.55,-53.08 300.76,-35.49 312.08,-25.13"/>
<polygon fill="midnightblue" stroke="midnightblue" points="265.09,-63.4 260.08,-72.73 269.81,-68.56 265.09,-63.4"/>
</g>
<!-- Node6 -->
<g id="node6" class="node">
<title>Node6</title>
<g id="a_node6"><a xlink:href="check__win__size__bonus_8c.html" target="_top" xlink:title=" ">
<polygon fill="none" stroke="black" points="406.5,-0.5 406.5,-30.5 516.5,-30.5 516.5,-0.5 406.5,-0.5"/>
<text text-anchor="start" x="414.5" y="-18.5" font-family="Helvetica,sans-Serif" font-size="10.00">src/check_win_size</text>
<text text-anchor="middle" x="461.5" y="-7.5" font-family="Helvetica,sans-Serif" font-size="10.00">_bonus.c</text>
</a>
</g>
</g>
<!-- Node2&#45;&gt;Node6 -->
<g id="edge5" class="edge">
<title>Node2&#45;&gt;Node6</title>
<path fill="none" stroke="midnightblue" d="M288.1,-69.92C323.88,-58.9 377.77,-42.29 415.96,-30.53"/>
<polygon fill="midnightblue" stroke="midnightblue" points="287.05,-66.58 278.52,-72.87 289.11,-73.27 287.05,-66.58"/>
</g>
</g>
</svg>
