<?xml version="1.0" encoding="UTF-8" standalone="no"?>
<!DOCTYPE svg PUBLIC "-//W3C//DTD SVG 1.1//EN"
 "http://www.w3.org/Graphics/SVG/1.1/DTD/svg11.dtd">
<!-- Generated by graphviz version 2.43.0 (0)
 -->
<!-- Title: ft_rm_space Pages: 1 -->
<!--zoomable 408 -->
<svg id="main" version="1.1" xmlns="http://www.w3.org/2000/svg" xmlns:xlink="http://www.w3.org/1999/xlink" xml:space="preserve" onload="init(evt)">
<style type="text/css"><![CDATA[
.edge:hover path { stroke: red; }
.edge:hover polygon { stroke: red; fill: red; }
]]></style>
<script type="text/javascript"><![CDATA[
var edges = document.getElementsByTagName('g');
if (edges && edges.length) {
  for (var i=0;i<edges.length;i++) {
    if (edges[i].id.substr(0,4)=='edge') {
      edges[i].setAttribute('class','edge');
    }
  }
}
]]></script>
        <defs>
                <circle id="rim" cx="0" cy="0" r="7"/>
                <circle id="rim2" cx="0" cy="0" r="3.5"/>
                <g id="zoomPlus">
                        <use xlink:href="#rim" fill="#404040">
                                <set attributeName="fill" to="#808080" begin="zoomplus.mouseover" end="zoomplus.mouseout"/>
                        </use>
                        <path d="M-4,0h8M0,-4v8" fill="none" stroke="white" stroke-width="1.5" pointer-events="none"/>
                </g>
                <g id="zoomMin">
                        <use xlink:href="#rim" fill="#404040">
                                <set attributeName="fill" to="#808080" begin="zoomminus.mouseover" end="zoomminus.mouseout"/>
                        </use>
                        <path d="M-4,0h8" fill="none" stroke="white" stroke-width="1.5" pointer-events="none"/>
                </g>
                <g id="dirArrow">
                        <path fill="none" stroke="white" stroke-width="1.5" d="M0,-3.0v7 M-2.5,-0.5L0,-3.0L2.5,-0.5"/>
                </g>
               <g id="resetDef">
                       <use xlink:href="#rim2" fill="#404040">
                               <set attributeName="fill" to="#808080" begin="reset.mouseover" end="reset.mouseout"/>
                       </use>
               </g>
        </defs>

<script type="text/javascript">
var viewWidth = 889;
var viewHeight = 408;
var sectionId = 'dynsection-32';
</script>
<script xlink:href="svgpan.js"/>
<svg id="graph" class="graph">
<g id="viewport">
<title>ft_rm_space</title>
<!-- Node1 -->
<g id="node1" class="node">
<title>Node1</title>
<g id="a_node1"><a xlink:title="Moves line one space or htab forward and sanitizes spaces.">
<polygon fill="#bfbfbf" stroke="black" points="805,-190.5 805,-209.5 881,-209.5 881,-190.5 805,-190.5"/>
<text text-anchor="middle" x="843" y="-197.5" font-family="Helvetica,sans-Serif" font-size="10.00">ft_rm_space</text>
</a>
</g>
</g>
<!-- Node2 -->
<g id="node2" class="node">
<title>Node2</title>
<g id="a_node2"><a xlink:href="check_8h.html#a3a4c3e635c4a6af8ef53d70ea5e7cb44" target="_top" xlink:title="Checks if ambient light line is correct.">
<polygon fill="none" stroke="black" points="649.5,-266.5 649.5,-285.5 752.5,-285.5 752.5,-266.5 649.5,-266.5"/>
<text text-anchor="middle" x="701" y="-273.5" font-family="Helvetica,sans-Serif" font-size="10.00">ft_check_ambient</text>
</a>
</g>
</g>
<!-- Node1&#45;&gt;Node2 -->
<g id="edge1" class="edge">
<title>Node1&#45;&gt;Node2</title>
<path fill="none" stroke="midnightblue" d="M824.59,-216.79C810.58,-229.46 789.86,-246.42 769,-257 761.56,-260.78 753.26,-263.9 745.11,-266.44"/>
<polygon fill="midnightblue" stroke="midnightblue" points="827.06,-219.27 832.01,-209.9 822.3,-214.14 827.06,-219.27"/>
</g>
<!-- Node10 -->
<g id="node10" class="node">
<title>Node10</title>
<g id="a_node10"><a xlink:href="check_8h.html#ac18c6a2c8fb4ffdeac62341cc67c9675" target="_top" xlink:title="Checks if camera line is correct.">
<polygon fill="none" stroke="black" points="651.5,-228.5 651.5,-247.5 750.5,-247.5 750.5,-228.5 651.5,-228.5"/>
<text text-anchor="middle" x="701" y="-235.5" font-family="Helvetica,sans-Serif" font-size="10.00">ft_check_camera</text>
</a>
</g>
</g>
<!-- Node1&#45;&gt;Node10 -->
<g id="edge10" class="edge">
<title>Node1&#45;&gt;Node10</title>
<path fill="none" stroke="midnightblue" d="M796.88,-212.25C777.59,-217.48 755.39,-223.51 737.32,-228.41"/>
<polygon fill="midnightblue" stroke="midnightblue" points="797.94,-215.59 806.67,-209.59 796.1,-208.83 797.94,-215.59"/>
</g>
<!-- Node11 -->
<g id="node11" class="node">
<title>Node11</title>
<g id="a_node11"><a xlink:href="check__bonus_8h.html#a4044338fccd6b0e9b3e61c2e0c69db12" target="_top" xlink:title="Checks if cone line is correct.">
<polygon fill="none" stroke="black" points="641,-38.5 641,-57.5 761,-57.5 761,-38.5 641,-38.5"/>
<text text-anchor="middle" x="701" y="-45.5" font-family="Helvetica,sans-Serif" font-size="10.00">ft_check_cone_bonus</text>
</a>
</g>
</g>
<!-- Node1&#45;&gt;Node11 -->
<g id="edge13" class="edge">
<title>Node1&#45;&gt;Node11</title>
<path fill="none" stroke="midnightblue" d="M836.59,-180.47C827.52,-151.35 806.45,-96.83 769,-67 764.08,-63.08 758.4,-59.97 752.46,-57.5"/>
<polygon fill="midnightblue" stroke="midnightblue" points="833.3,-181.67 839.49,-190.27 840.01,-179.69 833.3,-181.67"/>
</g>
<!-- Node12 -->
<g id="node12" class="node">
<title>Node12</title>
<g id="a_node12"><a xlink:href="check_8h.html#ae60d55778d26a79bd9d60676862afcac" target="_top" xlink:title="Checks if cylinder line is correct.">
<polygon fill="none" stroke="black" points="650.5,-380.5 650.5,-399.5 751.5,-399.5 751.5,-380.5 650.5,-380.5"/>
<text text-anchor="middle" x="701" y="-387.5" font-family="Helvetica,sans-Serif" font-size="10.00">ft_check_cylinder</text>
</a>
</g>
</g>
<!-- Node1&#45;&gt;Node12 -->
<g id="edge15" class="edge">
<title>Node1&#45;&gt;Node12</title>
<path fill="none" stroke="midnightblue" d="M839.16,-219.93C833.02,-255.6 815.13,-330.39 769,-371 764.01,-375.39 758.07,-378.78 751.82,-381.38"/>
<polygon fill="midnightblue" stroke="midnightblue" points="842.66,-220.25 840.77,-209.82 835.74,-219.15 842.66,-220.25"/>
</g>
<!-- Node13 -->
<g id="node13" class="node">
<title>Node13</title>
<g id="a_node13"><a xlink:href="check__bonus_8h.html#a4ec77f79add9f7abed23e5b3dd45e94a" target="_top" xlink:title="Checks if cylinder line is correct.">
<polygon fill="none" stroke="black" points="633,-0.5 633,-19.5 769,-19.5 769,-0.5 633,-0.5"/>
<text text-anchor="middle" x="701" y="-7.5" font-family="Helvetica,sans-Serif" font-size="10.00">ft_check_cylinder_bonus</text>
</a>
</g>
</g>
<!-- Node1&#45;&gt;Node13 -->
<g id="edge17" class="edge">
<title>Node1&#45;&gt;Node13</title>
<path fill="none" stroke="midnightblue" d="M839.16,-180.07C833.02,-144.4 815.13,-69.61 769,-29 764.64,-25.17 759.57,-22.1 754.19,-19.65"/>
<polygon fill="midnightblue" stroke="midnightblue" points="835.74,-180.85 840.77,-190.18 842.66,-179.75 835.74,-180.85"/>
</g>
<!-- Node14 -->
<g id="node14" class="node">
<title>Node14</title>
<g id="a_node14"><a xlink:href="check_8h.html#a13cb8b89e2be82f5148f2dba42b550e8" target="_top" xlink:title="Checks if light line is correct.">
<polygon fill="none" stroke="black" points="659,-190.5 659,-209.5 743,-209.5 743,-190.5 659,-190.5"/>
<text text-anchor="middle" x="701" y="-197.5" font-family="Helvetica,sans-Serif" font-size="10.00">ft_check_light</text>
</a>
</g>
</g>
<!-- Node1&#45;&gt;Node14 -->
<g id="edge19" class="edge">
<title>Node1&#45;&gt;Node14</title>
<path fill="none" stroke="midnightblue" d="M794.75,-200C778.06,-200 759.43,-200 743.27,-200"/>
<polygon fill="midnightblue" stroke="midnightblue" points="794.85,-203.5 804.85,-200 794.85,-196.5 794.85,-203.5"/>
</g>
<!-- Node15 -->
<g id="node15" class="node">
<title>Node15</title>
<g id="a_node15"><a xlink:href="check_8h.html#a1e36aec7efe086076efcaf9991f28abe" target="_top" xlink:title="Checks if plane line is correct.">
<polygon fill="none" stroke="black" points="656.5,-342.5 656.5,-361.5 745.5,-361.5 745.5,-342.5 656.5,-342.5"/>
<text text-anchor="middle" x="701" y="-349.5" font-family="Helvetica,sans-Serif" font-size="10.00">ft_check_plane</text>
</a>
</g>
</g>
<!-- Node1&#45;&gt;Node15 -->
<g id="edge22" class="edge">
<title>Node1&#45;&gt;Node15</title>
<path fill="none" stroke="midnightblue" d="M836.59,-219.53C827.52,-248.65 806.45,-303.17 769,-333 762.19,-338.42 753.91,-342.3 745.53,-345.07"/>
<polygon fill="midnightblue" stroke="midnightblue" points="840.01,-220.31 839.49,-209.73 833.3,-218.33 840.01,-220.31"/>
</g>
<!-- Node16 -->
<g id="node16" class="node">
<title>Node16</title>
<g id="a_node16"><a xlink:href="check__bonus_8h.html#a553c09de200f4ad19c33ab26d11adc29" target="_top" xlink:title="Checks if plane line is correct.">
<polygon fill="none" stroke="black" points="639,-152.5 639,-171.5 763,-171.5 763,-152.5 639,-152.5"/>
<text text-anchor="middle" x="701" y="-159.5" font-family="Helvetica,sans-Serif" font-size="10.00">ft_check_plane_bonus</text>
</a>
</g>
</g>
<!-- Node1&#45;&gt;Node16 -->
<g id="edge24" class="edge">
<title>Node1&#45;&gt;Node16</title>
<path fill="none" stroke="midnightblue" d="M796.88,-187.75C777.59,-182.52 755.39,-176.49 737.32,-171.59"/>
<polygon fill="midnightblue" stroke="midnightblue" points="796.1,-191.17 806.67,-190.41 797.94,-184.41 796.1,-191.17"/>
</g>
<!-- Node17 -->
<g id="node17" class="node">
<title>Node17</title>
<g id="a_node17"><a xlink:href="check_8h.html#a2ac6387003baa37c6f8037edf453c8d0" target="_top" xlink:title="Checks if sphere line is correct.">
<polygon fill="none" stroke="black" points="653.5,-304.5 653.5,-323.5 748.5,-323.5 748.5,-304.5 653.5,-304.5"/>
<text text-anchor="middle" x="701" y="-311.5" font-family="Helvetica,sans-Serif" font-size="10.00">ft_check_sphere</text>
</a>
</g>
</g>
<!-- Node1&#45;&gt;Node17 -->
<g id="edge26" class="edge">
<title>Node1&#45;&gt;Node17</title>
<path fill="none" stroke="midnightblue" d="M832.54,-218.58C820.61,-240.15 798.11,-275.26 769,-295 762.9,-299.14 755.9,-302.39 748.78,-304.93"/>
<polygon fill="midnightblue" stroke="midnightblue" points="835.64,-220.2 837.26,-209.73 829.46,-216.91 835.64,-220.2"/>
</g>
<!-- Node18 -->
<g id="node18" class="node">
<title>Node18</title>
<g id="a_node18"><a xlink:href="check__bonus_8h.html#a649377d201faaa526ad3c355da745325" target="_top" xlink:title="Checks if sphere line is correct.">
<polygon fill="none" stroke="black" points="636,-114.5 636,-133.5 766,-133.5 766,-114.5 636,-114.5"/>
<text text-anchor="middle" x="701" y="-121.5" font-family="Helvetica,sans-Serif" font-size="10.00">ft_check_sphere_bonus</text>
</a>
</g>
</g>
<!-- Node1&#45;&gt;Node18 -->
<g id="edge28" class="edge">
<title>Node1&#45;&gt;Node18</title>
<path fill="none" stroke="midnightblue" d="M824.59,-183.21C810.58,-170.54 789.86,-153.58 769,-143 761.56,-139.22 753.26,-136.1 745.11,-133.56"/>
<polygon fill="midnightblue" stroke="midnightblue" points="822.3,-185.86 832.01,-190.1 827.06,-180.73 822.3,-185.86"/>
</g>
<!-- Node19 -->
<g id="node19" class="node">
<title>Node19</title>
<g id="a_node19"><a xlink:href="check__bonus_8h.html#a9e3535baa3e942ae46ac0974b7cb6e5e" target="_top" xlink:title="Checks if size line is correct.">
<polygon fill="none" stroke="black" points="649,-76.5 649,-95.5 753,-95.5 753,-76.5 649,-76.5"/>
<text text-anchor="middle" x="701" y="-83.5" font-family="Helvetica,sans-Serif" font-size="10.00">ft_check_win_size</text>
</a>
</g>
</g>
<!-- Node1&#45;&gt;Node19 -->
<g id="edge30" class="edge">
<title>Node1&#45;&gt;Node19</title>
<path fill="none" stroke="midnightblue" d="M832.54,-181.42C820.61,-159.85 798.11,-124.74 769,-105 763.3,-101.13 756.81,-98.04 750.18,-95.58"/>
<polygon fill="midnightblue" stroke="midnightblue" points="829.46,-183.09 837.26,-190.27 835.64,-179.8 829.46,-183.09"/>
</g>
<!-- Node3 -->
<g id="node3" class="node">
<title>Node3</title>
<g id="a_node3"><a xlink:href="check_8h.html#a9d550a03e395942fd0bb735c1dda47d9" target="_top" xlink:title="Dispatch function for different line types.">
<polygon fill="none" stroke="black" points="490,-266.5 490,-285.5 597,-285.5 597,-266.5 490,-266.5"/>
<text text-anchor="middle" x="543.5" y="-273.5" font-family="Helvetica,sans-Serif" font-size="10.00">ft_check_line_type</text>
</a>
</g>
</g>
<!-- Node2&#45;&gt;Node3 -->
<g id="edge2" class="edge">
<title>Node2&#45;&gt;Node3</title>
<path fill="none" stroke="midnightblue" d="M638.73,-276C624.98,-276 610.5,-276 597.13,-276"/>
<polygon fill="midnightblue" stroke="midnightblue" points="639.08,-279.5 649.08,-276 639.08,-272.5 639.08,-279.5"/>
</g>
<!-- Node8 -->
<g id="node8" class="node">
<title>Node8</title>
<g id="a_node8"><a xlink:href="check__bonus_8h.html#ae33774d34021cd6fec6863eff3e8e3b0" target="_top" xlink:title="Dispatch function for different line types.">
<polygon fill="none" stroke="black" points="490,-147 490,-177 597,-177 597,-147 490,-147"/>
<text text-anchor="start" x="498" y="-165" font-family="Helvetica,sans-Serif" font-size="10.00">ft_check_line_type</text>
<text text-anchor="middle" x="543.5" y="-154" font-family="Helvetica,sans-Serif" font-size="10.00">_bonus</text>
</a>
</g>
</g>
<!-- Node2&#45;&gt;Node8 -->
<g id="edge7" class="edge">
<title>Node2&#45;&gt;Node8</title>
<path fill="none" stroke="midnightblue" d="M643.93,-262.66C640.12,-260.98 636.44,-259.1 633,-257 598.76,-236.08 569.35,-198.32 554.61,-177.26"/>
<polygon fill="midnightblue" stroke="midnightblue" points="642.97,-266.04 653.55,-266.42 645.51,-259.52 642.97,-266.04"/>
</g>
<!-- Node4 -->
<g id="node4" class="node">
<title>Node4</title>
<g id="a_node4"><a xlink:href="check_8h.html#afdfc858822cc349d9aa87b6aa28a6dd8" target="_top" xlink:title="Check array of imported lines.">
<polygon fill="none" stroke="black" points="351,-247.5 351,-266.5 437,-266.5 437,-247.5 351,-247.5"/>
<text text-anchor="middle" x="394" y="-254.5" font-family="Helvetica,sans-Serif" font-size="10.00">ft_check_lines</text>
</a>
</g>
</g>
<!-- Node3&#45;&gt;Node4 -->
<g id="edge3" class="edge">
<title>Node3&#45;&gt;Node4</title>
<path fill="none" stroke="midnightblue" d="M479.43,-267.88C465.21,-266.04 450.44,-264.14 437.3,-262.45"/>
<polygon fill="midnightblue" stroke="midnightblue" points="479.3,-271.39 489.67,-269.19 480.19,-264.45 479.3,-271.39"/>
</g>
<!-- Node5 -->
<g id="node5" class="node">
<title>Node5</title>
<g id="a_node5"><a xlink:href="parse__bonus_8h.html#a1851ac042c8e1f69fe345a139f0eadbd" target="_top" xlink:title="Chooses the correct checker function depending on bool is_bonus.">
<polygon fill="none" stroke="black" points="189,-209.5 189,-228.5 298,-228.5 298,-209.5 189,-209.5"/>
<text text-anchor="middle" x="243.5" y="-216.5" font-family="Helvetica,sans-Serif" font-size="10.00">ft_choose_check_ft</text>
</a>
</g>
</g>
<!-- Node4&#45;&gt;Node5 -->
<g id="edge4" class="edge">
<title>Node4&#45;&gt;Node5</title>
<path fill="none" stroke="midnightblue" d="M345.67,-244.89C324.99,-239.6 301.08,-233.48 281.7,-228.52"/>
<polygon fill="midnightblue" stroke="midnightblue" points="344.97,-248.32 355.53,-247.41 346.71,-241.54 344.97,-248.32"/>
</g>
<!-- Node6 -->
<g id="node6" class="node">
<title>Node6</title>
<g id="a_node6"><a xlink:href="parse_8h.html#a158705dee8e9b7ce48184c8e2fa3c169" target="_top" xlink:title="Imports, checks, and parses the provided file.">
<polygon fill="none" stroke="black" points="77,-209.5 77,-228.5 153,-228.5 153,-209.5 77,-209.5"/>
<text text-anchor="middle" x="115" y="-216.5" font-family="Helvetica,sans-Serif" font-size="10.00">ft_parse_file</text>
</a>
</g>
</g>
<!-- Node5&#45;&gt;Node6 -->
<g id="edge5" class="edge">
<title>Node5&#45;&gt;Node6</title>
<path fill="none" stroke="midnightblue" d="M178.67,-219C169.96,-219 161.27,-219 153.26,-219"/>
<polygon fill="midnightblue" stroke="midnightblue" points="178.85,-222.5 188.85,-219 178.85,-215.5 178.85,-222.5"/>
</g>
<!-- Node7 -->
<g id="node7" class="node">
<title>Node7</title>
<g id="a_node7"><a xlink:href="main_8c.html#a3c04138a5bfe5d72780bb7e82a18e627" target="_top" xlink:title=" ">
<polygon fill="none" stroke="black" points="0,-209.5 0,-228.5 41,-228.5 41,-209.5 0,-209.5"/>
<text text-anchor="middle" x="20.5" y="-216.5" font-family="Helvetica,sans-Serif" font-size="10.00">main</text>
</a>
</g>
</g>
<!-- Node6&#45;&gt;Node7 -->
<g id="edge6" class="edge">
<title>Node6&#45;&gt;Node7</title>
<path fill="none" stroke="midnightblue" d="M66.72,-219C57.65,-219 48.64,-219 41.07,-219"/>
<polygon fill="midnightblue" stroke="midnightblue" points="66.91,-222.5 76.91,-219 66.91,-215.5 66.91,-222.5"/>
</g>
<!-- Node9 -->
<g id="node9" class="node">
<title>Node9</title>
<g id="a_node9"><a xlink:href="check__bonus_8h.html#af3ef225f9cf1a304afc28235a98ac241" target="_top" xlink:title="Check array of imported lines.">
<polygon fill="none" stroke="black" points="334,-190.5 334,-209.5 454,-209.5 454,-190.5 334,-190.5"/>
<text text-anchor="middle" x="394" y="-197.5" font-family="Helvetica,sans-Serif" font-size="10.00">ft_check_lines_bonus</text>
</a>
</g>
</g>
<!-- Node8&#45;&gt;Node9 -->
<g id="edge8" class="edge">
<title>Node8&#45;&gt;Node9</title>
<path fill="none" stroke="midnightblue" d="M479.71,-178.18C463.53,-182.34 446.63,-186.7 432.22,-190.41"/>
<polygon fill="midnightblue" stroke="midnightblue" points="480.86,-181.5 489.67,-175.61 479.11,-174.72 480.86,-181.5"/>
</g>
<!-- Node9&#45;&gt;Node5 -->
<g id="edge9" class="edge">
<title>Node9&#45;&gt;Node5</title>
<path fill="none" stroke="midnightblue" d="M323.82,-208.85C315.19,-209.96 306.47,-211.07 298.12,-212.14"/>
<polygon fill="midnightblue" stroke="midnightblue" points="324.41,-212.3 333.88,-207.56 323.52,-205.36 324.41,-212.3"/>
</g>
<!-- Node10&#45;&gt;Node3 -->
<g id="edge11" class="edge">
<title>Node10&#45;&gt;Node3</title>
<path fill="none" stroke="midnightblue" d="M651.03,-249.97C629.23,-255.29 603.93,-261.48 583.46,-266.48"/>
<polygon fill="midnightblue" stroke="midnightblue" points="651.88,-253.36 660.76,-247.59 650.22,-246.56 651.88,-253.36"/>
</g>
<!-- Node10&#45;&gt;Node8 -->
<g id="edge12" class="edge">
<title>Node10&#45;&gt;Node8</title>
<path fill="none" stroke="midnightblue" d="M649.03,-225.27C643.54,-223.39 638.1,-221.3 633,-219 607.85,-207.64 581.58,-189.85 564.26,-177.17"/>
<polygon fill="midnightblue" stroke="midnightblue" points="648.33,-228.72 658.92,-228.43 650.46,-222.05 648.33,-228.72"/>
</g>
<!-- Node11&#45;&gt;Node8 -->
<g id="edge14" class="edge">
<title>Node11&#45;&gt;Node8</title>
<path fill="none" stroke="midnightblue" d="M643.93,-61.34C640.12,-63.02 636.44,-64.9 633,-67 598.76,-87.92 569.35,-125.68 554.61,-146.74"/>
<polygon fill="midnightblue" stroke="midnightblue" points="645.51,-64.48 653.55,-57.58 642.97,-57.96 645.51,-64.48"/>
</g>
<!-- Node12&#45;&gt;Node3 -->
<g id="edge16" class="edge">
<title>Node12&#45;&gt;Node3</title>
<path fill="none" stroke="midnightblue" d="M643.93,-376.66C640.12,-374.98 636.44,-373.1 633,-371 595.49,-348.08 563.78,-304.96 550.79,-285.71"/>
<polygon fill="midnightblue" stroke="midnightblue" points="642.97,-380.04 653.55,-380.42 645.51,-373.52 642.97,-380.04"/>
</g>
<!-- Node13&#45;&gt;Node8 -->
<g id="edge18" class="edge">
<title>Node13&#45;&gt;Node8</title>
<path fill="none" stroke="midnightblue" d="M641.57,-23.71C638.57,-25.28 635.69,-27.04 633,-29 590.2,-60.21 562,-118.88 550.44,-146.67"/>
<polygon fill="midnightblue" stroke="midnightblue" points="643.21,-26.81 650.89,-19.5 640.33,-20.43 643.21,-26.81"/>
</g>
<!-- Node14&#45;&gt;Node3 -->
<g id="edge20" class="edge">
<title>Node14&#45;&gt;Node3</title>
<path fill="none" stroke="midnightblue" d="M649.03,-212.73C643.54,-214.61 638.1,-216.7 633,-219 603.85,-232.17 573.2,-253.97 556.72,-266.45"/>
<polygon fill="midnightblue" stroke="midnightblue" points="650.46,-215.95 658.92,-209.57 648.33,-209.28 650.46,-215.95"/>
</g>
<!-- Node14&#45;&gt;Node8 -->
<g id="edge21" class="edge">
<title>Node14&#45;&gt;Node8</title>
<path fill="none" stroke="midnightblue" d="M650.97,-188.02C633.88,-183.84 614.63,-179.14 597.24,-174.89"/>
<polygon fill="midnightblue" stroke="midnightblue" points="650.22,-191.44 660.76,-190.41 651.88,-184.64 650.22,-191.44"/>
</g>
<!-- Node15&#45;&gt;Node3 -->
<g id="edge23" class="edge">
<title>Node15&#45;&gt;Node3</title>
<path fill="none" stroke="midnightblue" d="M649.03,-339.27C643.54,-337.39 638.1,-335.3 633,-333 603.85,-319.83 573.2,-298.03 556.72,-285.55"/>
<polygon fill="midnightblue" stroke="midnightblue" points="648.33,-342.72 658.92,-342.43 650.46,-336.05 648.33,-342.72"/>
</g>
<!-- Node16&#45;&gt;Node8 -->
<g id="edge25" class="edge">
<title>Node16&#45;&gt;Node8</title>
<path fill="none" stroke="midnightblue" d="M628.87,-162C618.24,-162 607.44,-162 597.27,-162"/>
<polygon fill="midnightblue" stroke="midnightblue" points="628.99,-165.5 638.99,-162 628.99,-158.5 628.99,-165.5"/>
</g>
<!-- Node17&#45;&gt;Node3 -->
<g id="edge27" class="edge">
<title>Node17&#45;&gt;Node3</title>
<path fill="none" stroke="midnightblue" d="M651.03,-302.03C629.23,-296.71 603.93,-290.52 583.46,-285.52"/>
<polygon fill="midnightblue" stroke="midnightblue" points="650.22,-305.44 660.76,-304.41 651.88,-298.64 650.22,-305.44"/>
</g>
<!-- Node18&#45;&gt;Node8 -->
<g id="edge29" class="edge">
<title>Node18&#45;&gt;Node8</title>
<path fill="none" stroke="midnightblue" d="M650.97,-135.98C633.88,-140.16 614.63,-144.86 597.24,-149.11"/>
<polygon fill="midnightblue" stroke="midnightblue" points="651.88,-139.36 660.76,-133.59 650.22,-132.56 651.88,-139.36"/>
</g>
<!-- Node19&#45;&gt;Node8 -->
<g id="edge31" class="edge">
<title>Node19&#45;&gt;Node8</title>
<path fill="none" stroke="midnightblue" d="M649.03,-98.73C643.54,-100.61 638.1,-102.7 633,-105 607.85,-116.36 581.58,-134.15 564.26,-146.83"/>
<polygon fill="midnightblue" stroke="midnightblue" points="650.46,-101.95 658.92,-95.57 648.33,-95.28 650.46,-101.95"/>
</g>
</g>
</svg>
        <g id="navigator" transform="translate(0 0)" fill="#404254">
                <rect fill="#f2f5e9" fill-opacity="0.5" stroke="#606060" stroke-width=".5" x="0" y="0" width="60" height="60"/>
                <use id="zoomplus" xlink:href="#zoomPlus" x="17" y="9" onmousedown="handleZoom(evt,'in')"/>
                <use id="zoomminus" xlink:href="#zoomMin" x="42" y="9" onmousedown="handleZoom(evt,'out')"/>
                <use id="reset" xlink:href="#resetDef" x="30" y="36" onmousedown="handleReset()"/>
                <g id="arrowUp" xlink:href="#dirArrow" transform="translate(30 24)" onmousedown="handlePan(0,-1)">
                  <use xlink:href="#rim" fill="#404040">
                        <set attributeName="fill" to="#808080" begin="arrowUp.mouseover" end="arrowUp.mouseout"/>
                  </use>
                  <path fill="none" stroke="white" stroke-width="1.5" d="M0,-3.0v7 M-2.5,-0.5L0,-3.0L2.5,-0.5"/>
                </g>
                <g id="arrowRight" xlink:href="#dirArrow" transform="rotate(90) translate(36 -43)" onmousedown="handlePan(1,0)">
                  <use xlink:href="#rim" fill="#404040">
                        <set attributeName="fill" to="#808080" begin="arrowRight.mouseover" end="arrowRight.mouseout"/>
                  </use>
                  <path fill="none" stroke="white" stroke-width="1.5" d="M0,-3.0v7 M-2.5,-0.5L0,-3.0L2.5,-0.5"/>
                </g>
                <g id="arrowDown" xlink:href="#dirArrow" transform="rotate(180) translate(-30 -48)" onmousedown="handlePan(0,1)">
                  <use xlink:href="#rim" fill="#404040">
                        <set attributeName="fill" to="#808080" begin="arrowDown.mouseover" end="arrowDown.mouseout"/>
                  </use>
                  <path fill="none" stroke="white" stroke-width="1.5" d="M0,-3.0v7 M-2.5,-0.5L0,-3.0L2.5,-0.5"/>
                </g>
                <g id="arrowLeft" xlink:href="#dirArrow" transform="rotate(270) translate(-36 17)" onmousedown="handlePan(-1,0)">
                  <use xlink:href="#rim" fill="#404040">
                        <set attributeName="fill" to="#808080" begin="arrowLeft.mouseover" end="arrowLeft.mouseout"/>
                  </use>
                  <path fill="none" stroke="white" stroke-width="1.5" d="M0,-3.0v7 M-2.5,-0.5L0,-3.0L2.5,-0.5"/>
                </g>
        </g>
        <svg viewBox="0 0 15 15" width="100%" height="30px" preserveAspectRatio="xMaxYMin meet">
         <g id="arrow_out" transform="scale(0.3 0.3)">
          <a xlink:href="check_8h_a7a10a4efb97dd784c001f96c580d7119_icgraph_org.svg" target="_base">
           <rect id="button" ry="5" rx="5" y="6" x="6" height="38" width="38"
                fill="#f2f5e9" fill-opacity="0.5" stroke="#606060" stroke-width="1.0"/>
           <path id="arrow"
             d="M 11.500037,31.436501 C 11.940474,20.09759 22.043105,11.32322 32.158766,21.979434 L 37.068811,17.246167 C 37.068811,17.246167 37.088388,32 37.088388,32 L 22.160133,31.978069 C 22.160133,31.978069 26.997745,27.140456 26.997745,27.140456 C 18.528582,18.264221 13.291696,25.230495 11.500037,31.436501 z"
             style="fill:#404040;"/>
          </a>
         </g>
        </svg>
</svg>
