<?xml version="1.0" encoding="UTF-8" standalone="no"?>
<!DOCTYPE svg PUBLIC "-//W3C//DTD SVG 1.1//EN"
 "http://www.w3.org/Graphics/SVG/1.1/DTD/svg11.dtd">
<!-- Generated by graphviz version 2.43.0 (0)
 -->
<!-- Title: ft_check_line_type Pages: 1 -->
<svg width="693pt" height="256pt"
 viewBox="0.00 0.00 693.00 256.00" xmlns="http://www.w3.org/2000/svg" xmlns:xlink="http://www.w3.org/1999/xlink">
<g id="graph0" class="graph" transform="scale(1 1) rotate(0) translate(4 252)">
<title>ft_check_line_type</title>
<!-- Node1 -->
<g id="node1" class="node">
<title>Node1</title>
<g id="a_node1"><a xlink:title="Dispatch function for different line types.">
<polygon fill="#bfbfbf" stroke="black" points="0,-114.5 0,-133.5 107,-133.5 107,-114.5 0,-114.5"/>
<text text-anchor="middle" x="53.5" y="-121.5" font-family="Helvetica,sans-Serif" font-size="10.00">ft_check_line_type</text>
</a>
</g>
</g>
<!-- Node2 -->
<g id="node2" class="node">
<title>Node2</title>
<g id="a_node2"><a xlink:href="check_8h.html#a3a4c3e635c4a6af8ef53d70ea5e7cb44" target="_top" xlink:title="Checks if ambient light line is correct.">
<polygon fill="none" stroke="black" points="143,-190.5 143,-209.5 246,-209.5 246,-190.5 143,-190.5"/>
<text text-anchor="middle" x="194.5" y="-197.5" font-family="Helvetica,sans-Serif" font-size="10.00">ft_check_ambient</text>
</a>
</g>
</g>
<!-- Node1&#45;&gt;Node2 -->
<g id="edge1" class="edge">
<title>Node1&#45;&gt;Node2</title>
<path fill="none" stroke="midnightblue" d="M67.47,-133.61C84.27,-145.76 114.75,-166.79 143,-181 147.02,-183.02 151.3,-184.95 155.61,-186.75"/>
<polygon fill="midnightblue" stroke="midnightblue" points="154.41,-190.04 165,-190.48 157,-183.54 154.41,-190.04"/>
</g>
<!-- Node12 -->
<g id="node12" class="node">
<title>Node12</title>
<g id="a_node12"><a xlink:href="check_8h.html#ac18c6a2c8fb4ffdeac62341cc67c9675" target="_top" xlink:title="Checks if camera line is correct.">
<polygon fill="none" stroke="black" points="145,-228.5 145,-247.5 244,-247.5 244,-228.5 145,-228.5"/>
<text text-anchor="middle" x="194.5" y="-235.5" font-family="Helvetica,sans-Serif" font-size="10.00">ft_check_camera</text>
</a>
</g>
</g>
<!-- Node1&#45;&gt;Node12 -->
<g id="edge14" class="edge">
<title>Node1&#45;&gt;Node12</title>
<path fill="none" stroke="midnightblue" d="M61.17,-133.73C74.58,-152.65 106.67,-194.66 143,-219 145.89,-220.94 149,-222.71 152.21,-224.33"/>
<polygon fill="midnightblue" stroke="midnightblue" points="150.87,-227.56 161.42,-228.48 153.74,-221.18 150.87,-227.56"/>
</g>
<!-- Node15 -->
<g id="node15" class="node">
<title>Node15</title>
<g id="a_node15"><a xlink:href="check_8h.html#ae60d55778d26a79bd9d60676862afcac" target="_top" xlink:title="Checks if cylinder line is correct.">
<polygon fill="none" stroke="black" points="144,-152.5 144,-171.5 245,-171.5 245,-152.5 144,-152.5"/>
<text text-anchor="middle" x="194.5" y="-159.5" font-family="Helvetica,sans-Serif" font-size="10.00">ft_check_cylinder</text>
</a>
</g>
</g>
<!-- Node1&#45;&gt;Node15 -->
<g id="edge24" class="edge">
<title>Node1&#45;&gt;Node15</title>
<path fill="none" stroke="midnightblue" d="M89.58,-133.59C107.52,-138.49 129.56,-144.52 148.72,-149.76"/>
<polygon fill="midnightblue" stroke="midnightblue" points="147.87,-153.15 158.44,-152.41 149.71,-146.4 147.87,-153.15"/>
</g>
<!-- Node16 -->
<g id="node16" class="node">
<title>Node16</title>
<g id="a_node16"><a xlink:href="check_8h.html#a13cb8b89e2be82f5148f2dba42b550e8" target="_top" xlink:title="Checks if light line is correct.">
<polygon fill="none" stroke="black" points="152.5,-114.5 152.5,-133.5 236.5,-133.5 236.5,-114.5 152.5,-114.5"/>
<text text-anchor="middle" x="194.5" y="-121.5" font-family="Helvetica,sans-Serif" font-size="10.00">ft_check_light</text>
</a>
</g>
</g>
<!-- Node1&#45;&gt;Node16 -->
<g id="edge30" class="edge">
<title>Node1&#45;&gt;Node16</title>
<path fill="none" stroke="midnightblue" d="M107.05,-124C118.47,-124 130.54,-124 141.92,-124"/>
<polygon fill="midnightblue" stroke="midnightblue" points="142.14,-127.5 152.14,-124 142.14,-120.5 142.14,-127.5"/>
</g>
<!-- Node17 -->
<g id="node17" class="node">
<title>Node17</title>
<g id="a_node17"><a xlink:href="check_8h.html#a1e36aec7efe086076efcaf9991f28abe" target="_top" xlink:title="Checks if plane line is correct.">
<polygon fill="none" stroke="black" points="150,-38.5 150,-57.5 239,-57.5 239,-38.5 150,-38.5"/>
<text text-anchor="middle" x="194.5" y="-45.5" font-family="Helvetica,sans-Serif" font-size="10.00">ft_check_plane</text>
</a>
</g>
</g>
<!-- Node1&#45;&gt;Node17 -->
<g id="edge36" class="edge">
<title>Node1&#45;&gt;Node17</title>
<path fill="none" stroke="midnightblue" d="M67.47,-114.39C84.27,-102.24 114.75,-81.21 143,-67 147.02,-64.98 151.3,-63.05 155.61,-61.25"/>
<polygon fill="midnightblue" stroke="midnightblue" points="157,-64.46 165,-57.52 154.41,-57.96 157,-64.46"/>
</g>
<!-- Node18 -->
<g id="node18" class="node">
<title>Node18</title>
<g id="a_node18"><a xlink:href="check_8h.html#a2ac6387003baa37c6f8037edf453c8d0" target="_top" xlink:title="Checks if sphere line is correct.">
<polygon fill="none" stroke="black" points="147,-76.5 147,-95.5 242,-95.5 242,-76.5 147,-76.5"/>
<text text-anchor="middle" x="194.5" y="-83.5" font-family="Helvetica,sans-Serif" font-size="10.00">ft_check_sphere</text>
</a>
</g>
</g>
<!-- Node1&#45;&gt;Node18 -->
<g id="edge41" class="edge">
<title>Node1&#45;&gt;Node18</title>
<path fill="none" stroke="midnightblue" d="M89.58,-114.41C107.52,-109.51 129.56,-103.48 148.72,-98.24"/>
<polygon fill="midnightblue" stroke="midnightblue" points="149.71,-101.6 158.44,-95.59 147.87,-94.85 149.71,-101.6"/>
</g>
<!-- Node19 -->
<g id="node19" class="node">
<title>Node19</title>
<g id="a_node19"><a xlink:href="error__msg_8h.html#aee5d10b82b6780869c9cc69cd64e44cc" target="_top" xlink:title="Print generic error message.">
<polygon fill="none" stroke="black" points="165.5,-0.5 165.5,-19.5 223.5,-19.5 223.5,-0.5 165.5,-0.5"/>
<text text-anchor="middle" x="194.5" y="-7.5" font-family="Helvetica,sans-Serif" font-size="10.00">ft_perror</text>
</a>
</g>
</g>
<!-- Node1&#45;&gt;Node19 -->
<g id="edge47" class="edge">
<title>Node1&#45;&gt;Node19</title>
<path fill="none" stroke="midnightblue" d="M61.17,-114.27C74.58,-95.35 106.67,-53.34 143,-29 147.02,-26.31 151.47,-23.93 156.02,-21.84"/>
<polygon fill="midnightblue" stroke="midnightblue" points="157.48,-25.03 165.38,-17.98 154.81,-18.56 157.48,-25.03"/>
</g>
<!-- Node3 -->
<g id="node3" class="node">
<title>Node3</title>
<g id="a_node3"><a xlink:href="check_8h.html#a542b81308cf530edfa0a3bfdcefb6002" target="_top" xlink:title="Tries to convert str to float and checks range.">
<polygon fill="none" stroke="black" points="297.5,-190.5 297.5,-209.5 385.5,-209.5 385.5,-190.5 297.5,-190.5"/>
<text text-anchor="middle" x="341.5" y="-197.5" font-family="Helvetica,sans-Serif" font-size="10.00">ft_isvalid_float</text>
</a>
</g>
</g>
<!-- Node2&#45;&gt;Node3 -->
<g id="edge2" class="edge">
<title>Node2&#45;&gt;Node3</title>
<path fill="none" stroke="midnightblue" d="M246.21,-200C259.49,-200 273.84,-200 287.24,-200"/>
<polygon fill="midnightblue" stroke="midnightblue" points="287.28,-203.5 297.28,-200 287.28,-196.5 287.28,-203.5"/>
</g>
<!-- Node8 -->
<g id="node8" class="node">
<title>Node8</title>
<g id="a_node8"><a xlink:href="check_8h.html#a3327b821f1a4c71183e0448c7023a5aa" target="_top" xlink:title="Checks three rgb values, separated by &#39;,&#39;.">
<polygon fill="none" stroke="black" points="285,-38.5 285,-57.5 398,-57.5 398,-38.5 285,-38.5"/>
<text text-anchor="middle" x="341.5" y="-45.5" font-family="Helvetica,sans-Serif" font-size="10.00">ft_isvalid_rgb_block</text>
</a>
</g>
</g>
<!-- Node2&#45;&gt;Node8 -->
<g id="edge7" class="edge">
<title>Node2&#45;&gt;Node8</title>
<path fill="none" stroke="midnightblue" d="M232.95,-190.43C237.79,-187.97 242.33,-184.88 246,-181 282.54,-142.43 244.58,-104.72 282,-67 283.44,-65.55 284.99,-64.21 286.62,-62.97"/>
<polygon fill="midnightblue" stroke="midnightblue" points="288.71,-65.8 295.42,-57.6 285.06,-59.83 288.71,-65.8"/>
</g>
<!-- Node10 -->
<g id="node10" class="node">
<title>Node10</title>
<g id="a_node10"><a xlink:href="error__msg_8h.html#a0a61f85709f3119ca9086f591705f294" target="_top" xlink:title="Error message if line doesn&#39;t end with space or zero terminator.">
<polygon fill="none" stroke="black" points="301,-114.5 301,-133.5 382,-133.5 382,-114.5 301,-114.5"/>
<text text-anchor="middle" x="341.5" y="-121.5" font-family="Helvetica,sans-Serif" font-size="10.00">ft_perror_end</text>
</a>
</g>
</g>
<!-- Node2&#45;&gt;Node10 -->
<g id="edge12" class="edge">
<title>Node2&#45;&gt;Node10</title>
<path fill="none" stroke="midnightblue" d="M227.56,-190.45C233.93,-187.87 240.38,-184.73 246,-181 265.38,-168.13 262.33,-155.42 282,-143 285.31,-140.91 288.87,-139.03 292.54,-137.34"/>
<polygon fill="midnightblue" stroke="midnightblue" points="293.9,-140.57 301.82,-133.53 291.24,-134.09 293.9,-140.57"/>
</g>
<!-- Node11 -->
<g id="node11" class="node">
<title>Node11</title>
<g id="a_node11"><a xlink:href="check_8h.html#a7a10a4efb97dd784c001f96c580d7119" target="_top" xlink:title="Moves line one space or htab forward and sanitizes spaces.">
<polygon fill="none" stroke="black" points="303.5,-152.5 303.5,-171.5 379.5,-171.5 379.5,-152.5 303.5,-152.5"/>
<text text-anchor="middle" x="341.5" y="-159.5" font-family="Helvetica,sans-Serif" font-size="10.00">ft_rm_space</text>
</a>
</g>
</g>
<!-- Node2&#45;&gt;Node11 -->
<g id="edge13" class="edge">
<title>Node2&#45;&gt;Node11</title>
<path fill="none" stroke="midnightblue" d="M232.09,-190.41C250.97,-185.46 274.19,-179.38 294.29,-174.11"/>
<polygon fill="midnightblue" stroke="midnightblue" points="295.39,-177.44 304.17,-171.52 293.61,-170.67 295.39,-177.44"/>
</g>
<!-- Node4 -->
<g id="node4" class="node">
<title>Node4</title>
<g id="a_node4"><a xlink:href="error__msg_8h.html#a207347473e8d1cf324c6b70fca7155fe" target="_top" xlink:title="Error message if conversion failed.">
<polygon fill="none" stroke="black" points="580,-57.5 580,-76.5 680,-76.5 680,-57.5 580,-57.5"/>
<text text-anchor="middle" x="630" y="-64.5" font-family="Helvetica,sans-Serif" font-size="10.00">ft_perror_convert</text>
</a>
</g>
</g>
<!-- Node3&#45;&gt;Node4 -->
<g id="edge3" class="edge">
<title>Node3&#45;&gt;Node4</title>
<path fill="none" stroke="midnightblue" d="M385.69,-191.54C391.39,-188.92 396.73,-185.49 401,-181 443.21,-136.64 388.37,-85.22 437,-48 484.8,-11.42 560.09,-35.55 600.73,-53.19"/>
<polygon fill="midnightblue" stroke="midnightblue" points="599.48,-56.47 610.04,-57.38 602.36,-50.08 599.48,-56.47"/>
</g>
<!-- Node5 -->
<g id="node5" class="node">
<title>Node5</title>
<g id="a_node5"><a xlink:href="error__msg_8h.html#ae79c226d26bf8b2dbd74bf7440eefa7d" target="_top" xlink:title="Error message if converted number is out of range.">
<polygon fill="none" stroke="black" points="584.5,-133.5 584.5,-152.5 675.5,-152.5 675.5,-133.5 584.5,-133.5"/>
<text text-anchor="middle" x="630" y="-140.5" font-family="Helvetica,sans-Serif" font-size="10.00">ft_perror_range</text>
</a>
</g>
</g>
<!-- Node3&#45;&gt;Node5 -->
<g id="edge4" class="edge">
<title>Node3&#45;&gt;Node5</title>
<path fill="none" stroke="midnightblue" d="M385.86,-191.83C425.7,-184.28 486.38,-172.64 539,-162 550.5,-159.67 562.81,-157.12 574.53,-154.66"/>
<polygon fill="midnightblue" stroke="midnightblue" points="575.57,-158.01 584.63,-152.52 574.12,-151.16 575.57,-158.01"/>
</g>
<!-- Node6 -->
<g id="node6" class="node">
<title>Node6</title>
<g id="a_node6"><a xlink:href="error__msg_8h.html#a66c0aad31fa186667840a2c0a5004099" target="_top" xlink:title="Error message if wrong separator was encountered.">
<polygon fill="none" stroke="black" points="575,-95.5 575,-114.5 685,-114.5 685,-95.5 575,-95.5"/>
<text text-anchor="middle" x="630" y="-102.5" font-family="Helvetica,sans-Serif" font-size="10.00">ft_perror_separator</text>
</a>
</g>
</g>
<!-- Node3&#45;&gt;Node6 -->
<g id="edge5" class="edge">
<title>Node3&#45;&gt;Node6</title>
<path fill="none" stroke="midnightblue" d="M384.27,-190.43C390.24,-187.96 396.03,-184.87 401,-181 424.66,-162.61 411.5,-139.74 437,-124 474.89,-100.61 525.2,-96.39 564.81,-97.73"/>
<polygon fill="midnightblue" stroke="midnightblue" points="564.75,-101.24 574.9,-98.2 565.07,-94.24 564.75,-101.24"/>
</g>
<!-- Node7 -->
<g id="node7" class="node">
<title>Node7</title>
<g id="a_node7"><a xlink:href="ft__strtod_8h.html#a0a1cbf0fef2bdcf6fde79c34014bc10e" target="_top" xlink:title="Converts a String to a double.">
<polygon fill="none" stroke="black" points="601.5,-190.5 601.5,-209.5 658.5,-209.5 658.5,-190.5 601.5,-190.5"/>
<text text-anchor="middle" x="630" y="-197.5" font-family="Helvetica,sans-Serif" font-size="10.00">ft_strtod</text>
</a>
</g>
</g>
<!-- Node3&#45;&gt;Node7 -->
<g id="edge6" class="edge">
<title>Node3&#45;&gt;Node7</title>
<path fill="none" stroke="midnightblue" d="M385.7,-200C441.68,-200 538.38,-200 591.45,-200"/>
<polygon fill="midnightblue" stroke="midnightblue" points="591.46,-203.5 601.46,-200 591.46,-196.5 591.46,-203.5"/>
</g>
<!-- Node9 -->
<g id="node9" class="node">
<title>Node9</title>
<g id="a_node9"><a xlink:href="check__line_8c.html#a7884a3e9489248b242a9fb7da9607bf4" target="_top" xlink:title="Tries to convert str into rgb int and checks range.">
<polygon fill="none" stroke="black" points="437,-57.5 437,-76.5 539,-76.5 539,-57.5 437,-57.5"/>
<text text-anchor="middle" x="488" y="-64.5" font-family="Helvetica,sans-Serif" font-size="10.00">ft_isvalid_rgb_val</text>
</a>
</g>
</g>
<!-- Node8&#45;&gt;Node9 -->
<g id="edge8" class="edge">
<title>Node8&#45;&gt;Node9</title>
<path fill="none" stroke="midnightblue" d="M398.37,-55.35C407.7,-56.57 417.42,-57.85 426.85,-59.09"/>
<polygon fill="midnightblue" stroke="midnightblue" points="426.57,-62.58 436.94,-60.42 427.48,-55.64 426.57,-62.58"/>
</g>
<!-- Node9&#45;&gt;Node4 -->
<g id="edge9" class="edge">
<title>Node9&#45;&gt;Node4</title>
<path fill="none" stroke="midnightblue" d="M539.15,-67C549.03,-67 559.5,-67 569.65,-67"/>
<polygon fill="midnightblue" stroke="midnightblue" points="569.67,-70.5 579.67,-67 569.67,-63.5 569.67,-70.5"/>
</g>
<!-- Node9&#45;&gt;Node5 -->
<g id="edge10" class="edge">
<title>Node9&#45;&gt;Node5</title>
<path fill="none" stroke="midnightblue" d="M501.23,-76.52C517.4,-88.77 547.1,-110.11 575,-124 579.11,-126.05 583.51,-127.98 587.94,-129.76"/>
<polygon fill="midnightblue" stroke="midnightblue" points="587.03,-133.16 597.62,-133.43 589.51,-126.61 587.03,-133.16"/>
</g>
<!-- Node9&#45;&gt;Node6 -->
<g id="edge11" class="edge">
<title>Node9&#45;&gt;Node6</title>
<path fill="none" stroke="midnightblue" d="M524.33,-76.59C542.4,-81.49 564.6,-87.52 583.89,-92.76"/>
<polygon fill="midnightblue" stroke="midnightblue" points="583.12,-96.17 593.68,-95.41 584.95,-89.42 583.12,-96.17"/>
</g>
<!-- Node12&#45;&gt;Node3 -->
<g id="edge15" class="edge">
<title>Node12&#45;&gt;Node3</title>
<path fill="none" stroke="midnightblue" d="M232.09,-228.41C250.97,-223.46 274.19,-217.38 294.29,-212.11"/>
<polygon fill="midnightblue" stroke="midnightblue" points="295.39,-215.44 304.17,-209.52 293.61,-208.67 295.39,-215.44"/>
</g>
<!-- Node12&#45;&gt;Node10 -->
<g id="edge22" class="edge">
<title>Node12&#45;&gt;Node10</title>
<path fill="none" stroke="midnightblue" d="M231.45,-228.46C236.73,-225.98 241.8,-222.87 246,-219 273.5,-193.68 253.93,-167.68 282,-143 284.85,-140.49 288.05,-138.31 291.43,-136.42"/>
<polygon fill="midnightblue" stroke="midnightblue" points="293.15,-139.48 300.71,-132.05 290.17,-133.14 293.15,-139.48"/>
</g>
<!-- Node12&#45;&gt;Node11 -->
<g id="edge23" class="edge">
<title>Node12&#45;&gt;Node11</title>
<path fill="none" stroke="midnightblue" d="M227.56,-228.45C233.93,-225.87 240.38,-222.73 246,-219 265.38,-206.13 262.33,-193.42 282,-181 285.76,-178.63 289.84,-176.52 294.04,-174.66"/>
<polygon fill="midnightblue" stroke="midnightblue" points="295.35,-177.91 303.35,-170.97 292.77,-171.4 295.35,-177.91"/>
</g>
<!-- Node13 -->
<g id="node13" class="node">
<title>Node13</title>
<g id="a_node13"><a xlink:href="check_8h.html#a399912478dc865909526aa87e6c333df" target="_top" xlink:title="Checks three floats, separated by &#39;,&#39;.">
<polygon fill="none" stroke="black" points="282,-76.5 282,-95.5 401,-95.5 401,-76.5 282,-76.5"/>
<text text-anchor="middle" x="341.5" y="-83.5" font-family="Helvetica,sans-Serif" font-size="10.00">ft_isvalid_float_block</text>
</a>
</g>
</g>
<!-- Node12&#45;&gt;Node13 -->
<g id="edge16" class="edge">
<title>Node12&#45;&gt;Node13</title>
<path fill="none" stroke="midnightblue" d="M232.95,-228.43C237.79,-225.97 242.33,-222.88 246,-219 282.54,-180.43 244.58,-142.72 282,-105 283.44,-103.55 284.99,-102.21 286.62,-100.97"/>
<polygon fill="midnightblue" stroke="midnightblue" points="288.71,-103.8 295.42,-95.6 285.06,-97.83 288.71,-103.8"/>
</g>
<!-- Node14 -->
<g id="node14" class="node">
<title>Node14</title>
<g id="a_node14"><a xlink:href="check__line_8c.html#a542b81308cf530edfa0a3bfdcefb6002" target="_top" xlink:title="Tries to convert str to float and checks range.">
<polygon fill="none" stroke="black" points="444,-133.5 444,-152.5 532,-152.5 532,-133.5 444,-133.5"/>
<text text-anchor="middle" x="488" y="-140.5" font-family="Helvetica,sans-Serif" font-size="10.00">ft_isvalid_float</text>
</a>
</g>
</g>
<!-- Node13&#45;&gt;Node14 -->
<g id="edge17" class="edge">
<title>Node13&#45;&gt;Node14</title>
<path fill="none" stroke="midnightblue" d="M373.98,-95.57C382.79,-98.43 392.32,-101.68 401,-105 420.12,-112.31 441.14,-121.57 457.62,-129.12"/>
<polygon fill="midnightblue" stroke="midnightblue" points="456.2,-132.32 466.74,-133.35 459.13,-125.97 456.2,-132.32"/>
</g>
<!-- Node14&#45;&gt;Node4 -->
<g id="edge18" class="edge">
<title>Node14&#45;&gt;Node4</title>
<path fill="none" stroke="midnightblue" d="M501.23,-133.48C517.4,-121.23 547.1,-99.89 575,-86 579.11,-83.95 583.51,-82.02 587.94,-80.24"/>
<polygon fill="midnightblue" stroke="midnightblue" points="589.51,-83.39 597.62,-76.57 587.03,-76.84 589.51,-83.39"/>
</g>
<!-- Node14&#45;&gt;Node5 -->
<g id="edge19" class="edge">
<title>Node14&#45;&gt;Node5</title>
<path fill="none" stroke="midnightblue" d="M532.15,-143C545.46,-143 560.31,-143 574.3,-143"/>
<polygon fill="midnightblue" stroke="midnightblue" points="574.3,-146.5 584.3,-143 574.3,-139.5 574.3,-146.5"/>
</g>
<!-- Node14&#45;&gt;Node6 -->
<g id="edge20" class="edge">
<title>Node14&#45;&gt;Node6</title>
<path fill="none" stroke="midnightblue" d="M524.33,-133.41C542.4,-128.51 564.6,-122.48 583.89,-117.24"/>
<polygon fill="midnightblue" stroke="midnightblue" points="584.95,-120.58 593.68,-114.59 583.12,-113.83 584.95,-120.58"/>
</g>
<!-- Node14&#45;&gt;Node7 -->
<g id="edge21" class="edge">
<title>Node14&#45;&gt;Node7</title>
<path fill="none" stroke="midnightblue" d="M512.43,-152.54C535.35,-161.87 570.45,-176.16 596.15,-186.62"/>
<polygon fill="midnightblue" stroke="midnightblue" points="594.91,-189.9 605.49,-190.43 597.55,-183.42 594.91,-189.9"/>
</g>
<!-- Node15&#45;&gt;Node3 -->
<g id="edge25" class="edge">
<title>Node15&#45;&gt;Node3</title>
<path fill="none" stroke="midnightblue" d="M232.09,-171.59C250.97,-176.54 274.19,-182.62 294.29,-187.89"/>
<polygon fill="midnightblue" stroke="midnightblue" points="293.61,-191.33 304.17,-190.48 295.39,-184.56 293.61,-191.33"/>
</g>
<!-- Node15&#45;&gt;Node8 -->
<g id="edge27" class="edge">
<title>Node15&#45;&gt;Node8</title>
<path fill="none" stroke="midnightblue" d="M231.45,-152.46C236.73,-149.98 241.8,-146.87 246,-143 273.5,-117.68 253.93,-91.68 282,-67 283.93,-65.3 286.01,-63.76 288.21,-62.35"/>
<polygon fill="midnightblue" stroke="midnightblue" points="289.94,-65.39 297.1,-57.57 286.63,-59.22 289.94,-65.39"/>
</g>
<!-- Node15&#45;&gt;Node10 -->
<g id="edge28" class="edge">
<title>Node15&#45;&gt;Node10</title>
<path fill="none" stroke="midnightblue" d="M232.09,-152.41C250.97,-147.46 274.19,-141.38 294.29,-136.11"/>
<polygon fill="midnightblue" stroke="midnightblue" points="295.39,-139.44 304.17,-133.52 293.61,-132.67 295.39,-139.44"/>
</g>
<!-- Node15&#45;&gt;Node11 -->
<g id="edge29" class="edge">
<title>Node15&#45;&gt;Node11</title>
<path fill="none" stroke="midnightblue" d="M245.4,-162C260.84,-162 277.8,-162 293.07,-162"/>
<polygon fill="midnightblue" stroke="midnightblue" points="293.34,-165.5 303.34,-162 293.34,-158.5 293.34,-165.5"/>
</g>
<!-- Node15&#45;&gt;Node13 -->
<g id="edge26" class="edge">
<title>Node15&#45;&gt;Node13</title>
<path fill="none" stroke="midnightblue" d="M227.56,-152.45C233.93,-149.87 240.38,-146.73 246,-143 265.38,-130.13 262.33,-117.42 282,-105 285.31,-102.91 288.87,-101.03 292.54,-99.34"/>
<polygon fill="midnightblue" stroke="midnightblue" points="293.9,-102.57 301.82,-95.53 291.24,-96.09 293.9,-102.57"/>
</g>
<!-- Node16&#45;&gt;Node3 -->
<g id="edge31" class="edge">
<title>Node16&#45;&gt;Node3</title>
<path fill="none" stroke="midnightblue" d="M227.56,-133.55C233.93,-136.13 240.38,-139.27 246,-143 265.38,-155.87 262.33,-168.58 282,-181 285.31,-183.09 288.87,-184.97 292.54,-186.66"/>
<polygon fill="midnightblue" stroke="midnightblue" points="291.24,-189.91 301.82,-190.47 293.9,-183.43 291.24,-189.91"/>
</g>
<!-- Node16&#45;&gt;Node8 -->
<g id="edge33" class="edge">
<title>Node16&#45;&gt;Node8</title>
<path fill="none" stroke="midnightblue" d="M227.56,-114.45C233.93,-111.87 240.38,-108.73 246,-105 265.38,-92.13 262.33,-79.42 282,-67 285.31,-64.91 288.87,-63.03 292.54,-61.34"/>
<polygon fill="midnightblue" stroke="midnightblue" points="293.9,-64.57 301.82,-57.53 291.24,-58.09 293.9,-64.57"/>
</g>
<!-- Node16&#45;&gt;Node10 -->
<g id="edge34" class="edge">
<title>Node16&#45;&gt;Node10</title>
<path fill="none" stroke="midnightblue" d="M236.66,-124C253.46,-124 273.04,-124 290.64,-124"/>
<polygon fill="midnightblue" stroke="midnightblue" points="290.73,-127.5 300.73,-124 290.73,-120.5 290.73,-127.5"/>
</g>
<!-- Node16&#45;&gt;Node11 -->
<g id="edge35" class="edge">
<title>Node16&#45;&gt;Node11</title>
<path fill="none" stroke="midnightblue" d="M232.09,-133.59C250.97,-138.54 274.19,-144.62 294.29,-149.89"/>
<polygon fill="midnightblue" stroke="midnightblue" points="293.61,-153.33 304.17,-152.48 295.39,-146.56 293.61,-153.33"/>
</g>
<!-- Node16&#45;&gt;Node13 -->
<g id="edge32" class="edge">
<title>Node16&#45;&gt;Node13</title>
<path fill="none" stroke="midnightblue" d="M232.09,-114.41C250.97,-109.46 274.19,-103.38 294.29,-98.11"/>
<polygon fill="midnightblue" stroke="midnightblue" points="295.39,-101.44 304.17,-95.52 293.61,-94.67 295.39,-101.44"/>
</g>
<!-- Node17&#45;&gt;Node8 -->
<g id="edge38" class="edge">
<title>Node17&#45;&gt;Node8</title>
<path fill="none" stroke="midnightblue" d="M239,-48C250.28,-48 262.67,-48 274.81,-48"/>
<polygon fill="midnightblue" stroke="midnightblue" points="274.92,-51.5 284.92,-48 274.92,-44.5 274.92,-51.5"/>
</g>
<!-- Node17&#45;&gt;Node10 -->
<g id="edge39" class="edge">
<title>Node17&#45;&gt;Node10</title>
<path fill="none" stroke="midnightblue" d="M227.56,-57.55C233.93,-60.13 240.38,-63.27 246,-67 265.38,-79.87 262.33,-92.58 282,-105 285.31,-107.09 288.87,-108.97 292.54,-110.66"/>
<polygon fill="midnightblue" stroke="midnightblue" points="291.24,-113.91 301.82,-114.47 293.9,-107.43 291.24,-113.91"/>
</g>
<!-- Node17&#45;&gt;Node11 -->
<g id="edge40" class="edge">
<title>Node17&#45;&gt;Node11</title>
<path fill="none" stroke="midnightblue" d="M231.45,-57.54C236.73,-60.02 241.8,-63.13 246,-67 273.5,-92.32 253.93,-118.32 282,-143 285.62,-146.18 289.78,-148.83 294.18,-151.04"/>
<polygon fill="midnightblue" stroke="midnightblue" points="292.87,-154.29 303.45,-154.98 295.61,-147.85 292.87,-154.29"/>
</g>
<!-- Node17&#45;&gt;Node13 -->
<g id="edge37" class="edge">
<title>Node17&#45;&gt;Node13</title>
<path fill="none" stroke="midnightblue" d="M232.09,-57.59C250.97,-62.54 274.19,-68.62 294.29,-73.89"/>
<polygon fill="midnightblue" stroke="midnightblue" points="293.61,-77.33 304.17,-76.48 295.39,-70.56 293.61,-77.33"/>
</g>
<!-- Node18&#45;&gt;Node3 -->
<g id="edge42" class="edge">
<title>Node18&#45;&gt;Node3</title>
<path fill="none" stroke="midnightblue" d="M231.45,-95.54C236.73,-98.02 241.8,-101.13 246,-105 273.5,-130.32 253.93,-156.32 282,-181 283.96,-182.73 286.09,-184.3 288.32,-185.73"/>
<polygon fill="midnightblue" stroke="midnightblue" points="286.93,-188.95 297.4,-190.56 290.22,-182.77 286.93,-188.95"/>
</g>
<!-- Node18&#45;&gt;Node8 -->
<g id="edge44" class="edge">
<title>Node18&#45;&gt;Node8</title>
<path fill="none" stroke="midnightblue" d="M232.09,-76.41C250.97,-71.46 274.19,-65.38 294.29,-60.11"/>
<polygon fill="midnightblue" stroke="midnightblue" points="295.39,-63.44 304.17,-57.52 293.61,-56.67 295.39,-63.44"/>
</g>
<!-- Node18&#45;&gt;Node10 -->
<g id="edge45" class="edge">
<title>Node18&#45;&gt;Node10</title>
<path fill="none" stroke="midnightblue" d="M232.09,-95.59C250.97,-100.54 274.19,-106.62 294.29,-111.89"/>
<polygon fill="midnightblue" stroke="midnightblue" points="293.61,-115.33 304.17,-114.48 295.39,-108.56 293.61,-115.33"/>
</g>
<!-- Node18&#45;&gt;Node11 -->
<g id="edge46" class="edge">
<title>Node18&#45;&gt;Node11</title>
<path fill="none" stroke="midnightblue" d="M227.56,-95.55C233.93,-98.13 240.38,-101.27 246,-105 265.38,-117.87 262.33,-130.58 282,-143 285.76,-145.37 289.84,-147.48 294.04,-149.34"/>
<polygon fill="midnightblue" stroke="midnightblue" points="292.77,-152.6 303.35,-153.03 295.35,-146.09 292.77,-152.6"/>
</g>
<!-- Node18&#45;&gt;Node13 -->
<g id="edge43" class="edge">
<title>Node18&#45;&gt;Node13</title>
<path fill="none" stroke="midnightblue" d="M242.18,-86C251.68,-86 261.86,-86 271.94,-86"/>
<polygon fill="midnightblue" stroke="midnightblue" points="271.95,-89.5 281.95,-86 271.95,-82.5 271.95,-89.5"/>
</g>
</g>
</svg>
