<?xml version="1.0" encoding="UTF-8" standalone="no"?>
<!DOCTYPE svg PUBLIC "-//W3C//DTD SVG 1.1//EN"
 "http://www.w3.org/Graphics/SVG/1.1/DTD/svg11.dtd">
<!-- Generated by graphviz version 2.43.0 (0)
 -->
<!-- Title: ft_isvalid_rgb_block Pages: 1 -->
<svg width="382pt" height="104pt"
 viewBox="0.00 0.00 382.00 104.00" xmlns="http://www.w3.org/2000/svg" xmlns:xlink="http://www.w3.org/1999/xlink">
<g id="graph0" class="graph" transform="scale(1 1) rotate(0) translate(4 100)">
<title>ft_isvalid_rgb_block</title>
<!-- Node1 -->
<g id="node1" class="node">
<title>Node1</title>
<g id="a_node1"><a xlink:title="Checks three rgb values, separated by &#39;,&#39;.">
<polygon fill="#bfbfbf" stroke="black" points="0,-38.5 0,-57.5 113,-57.5 113,-38.5 0,-38.5"/>
<text text-anchor="middle" x="56.5" y="-45.5" font-family="Helvetica,sans-Serif" font-size="10.00">ft_isvalid_rgb_block</text>
</a>
</g>
</g>
<!-- Node2 -->
<g id="node2" class="node">
<title>Node2</title>
<g id="a_node2"><a xlink:href="check__line_8c.html#adae11d3558f785772227f803873ad9d0" target="_top" xlink:title="Tries to convert str into int and checks range.">
<polygon fill="none" stroke="black" points="149,-38.5 149,-57.5 228,-57.5 228,-38.5 149,-38.5"/>
<text text-anchor="middle" x="188.5" y="-45.5" font-family="Helvetica,sans-Serif" font-size="10.00">ft_isvalid_int</text>
</a>
</g>
</g>
<!-- Node1&#45;&gt;Node2 -->
<g id="edge1" class="edge">
<title>Node1&#45;&gt;Node2</title>
<path fill="none" stroke="midnightblue" d="M113.01,-48C121.45,-48 130.11,-48 138.41,-48"/>
<polygon fill="midnightblue" stroke="midnightblue" points="138.67,-51.5 148.67,-48 138.67,-44.5 138.67,-51.5"/>
</g>
<!-- Node3 -->
<g id="node3" class="node">
<title>Node3</title>
<g id="a_node3"><a xlink:href="check_8h.html#a207347473e8d1cf324c6b70fca7155fe" target="_top" xlink:title="Error message if conversion failed.">
<polygon fill="none" stroke="black" points="269,-76.5 269,-95.5 369,-95.5 369,-76.5 269,-76.5"/>
<text text-anchor="middle" x="319" y="-83.5" font-family="Helvetica,sans-Serif" font-size="10.00">ft_perror_convert</text>
</a>
</g>
</g>
<!-- Node2&#45;&gt;Node3 -->
<g id="edge2" class="edge">
<title>Node2&#45;&gt;Node3</title>
<path fill="none" stroke="midnightblue" d="M221.93,-57.59C238.21,-62.4 258.14,-68.3 275.62,-73.47"/>
<polygon fill="midnightblue" stroke="midnightblue" points="275,-76.93 285.58,-76.41 276.99,-70.22 275,-76.93"/>
</g>
<!-- Node4 -->
<g id="node4" class="node">
<title>Node4</title>
<g id="a_node4"><a xlink:href="check_8h.html#ae79c226d26bf8b2dbd74bf7440eefa7d" target="_top" xlink:title="Error message if converted number is out of range.">
<polygon fill="none" stroke="black" points="273.5,-38.5 273.5,-57.5 364.5,-57.5 364.5,-38.5 273.5,-38.5"/>
<text text-anchor="middle" x="319" y="-45.5" font-family="Helvetica,sans-Serif" font-size="10.00">ft_perror_range</text>
</a>
</g>
</g>
<!-- Node2&#45;&gt;Node4 -->
<g id="edge3" class="edge">
<title>Node2&#45;&gt;Node4</title>
<path fill="none" stroke="midnightblue" d="M228.05,-48C239.03,-48 251.21,-48 262.96,-48"/>
<polygon fill="midnightblue" stroke="midnightblue" points="263.15,-51.5 273.15,-48 263.15,-44.5 263.15,-51.5"/>
</g>
<!-- Node5 -->
<g id="node5" class="node">
<title>Node5</title>
<g id="a_node5"><a xlink:href="check_8h.html#a66c0aad31fa186667840a2c0a5004099" target="_top" xlink:title="Error message if wrong separator was encountered.">
<polygon fill="none" stroke="black" points="264,-0.5 264,-19.5 374,-19.5 374,-0.5 264,-0.5"/>
<text text-anchor="middle" x="319" y="-7.5" font-family="Helvetica,sans-Serif" font-size="10.00">ft_perror_separator</text>
</a>
</g>
</g>
<!-- Node2&#45;&gt;Node5 -->
<g id="edge4" class="edge">
<title>Node2&#45;&gt;Node5</title>
<path fill="none" stroke="midnightblue" d="M221.93,-38.41C238.21,-33.6 258.14,-27.7 275.62,-22.53"/>
<polygon fill="midnightblue" stroke="midnightblue" points="276.99,-25.78 285.58,-19.59 275,-19.07 276.99,-25.78"/>
</g>
</g>
</svg>
