<?xml version="1.0" encoding="UTF-8" standalone="no"?>
<!DOCTYPE svg PUBLIC "-//W3C//DTD SVG 1.1//EN"
 "http://www.w3.org/Graphics/SVG/1.1/DTD/svg11.dtd">
<!-- Generated by graphviz version 2.43.0 (0)
 -->
<!-- Title: ft_check_plane Pages: 1 -->
<svg width="696pt" height="28pt"
 viewBox="0.00 0.00 696.00 28.00" xmlns="http://www.w3.org/2000/svg" xmlns:xlink="http://www.w3.org/1999/xlink">
<g id="graph0" class="graph" transform="scale(1 1) rotate(0) translate(4 24)">
<title>ft_check_plane</title>
<!-- Node1 -->
<g id="node1" class="node">
<title>Node1</title>
<g id="a_node1"><a xlink:title="Checks if plane line is correct.">
<polygon fill="#bfbfbf" stroke="black" points="599,-0.5 599,-19.5 688,-19.5 688,-0.5 599,-0.5"/>
<text text-anchor="middle" x="643.5" y="-7.5" font-family="Helvetica,sans-Serif" font-size="10.00">ft_check_plane</text>
</a>
</g>
</g>
<!-- Node2 -->
<g id="node2" class="node">
<title>Node2</title>
<g id="a_node2"><a xlink:href="check_8h.html#a9d550a03e395942fd0bb735c1dda47d9" target="_top" xlink:title="Dispatch function for different line types.">
<polygon fill="none" stroke="black" points="456,-0.5 456,-19.5 563,-19.5 563,-0.5 456,-0.5"/>
<text text-anchor="middle" x="509.5" y="-7.5" font-family="Helvetica,sans-Serif" font-size="10.00">ft_check_line_type</text>
</a>
</g>
</g>
<!-- Node1&#45;&gt;Node2 -->
<g id="edge1" class="edge">
<title>Node1&#45;&gt;Node2</title>
<path fill="none" stroke="midnightblue" d="M588.8,-10C580.36,-10 571.65,-10 563.23,-10"/>
<polygon fill="midnightblue" stroke="midnightblue" points="588.91,-13.5 598.91,-10 588.91,-6.5 588.91,-13.5"/>
</g>
<!-- Node3 -->
<g id="node3" class="node">
<title>Node3</title>
<g id="a_node3"><a xlink:href="check_8h.html#afdfc858822cc349d9aa87b6aa28a6dd8" target="_top" xlink:title="Check array of imported lines.">
<polygon fill="none" stroke="black" points="334,-0.5 334,-19.5 420,-19.5 420,-0.5 334,-0.5"/>
<text text-anchor="middle" x="377" y="-7.5" font-family="Helvetica,sans-Serif" font-size="10.00">ft_check_lines</text>
</a>
</g>
</g>
<!-- Node2&#45;&gt;Node3 -->
<g id="edge2" class="edge">
<title>Node2&#45;&gt;Node3</title>
<path fill="none" stroke="midnightblue" d="M445.67,-10C436.99,-10 428.25,-10 420.07,-10"/>
<polygon fill="midnightblue" stroke="midnightblue" points="445.8,-13.5 455.8,-10 445.8,-6.5 445.8,-13.5"/>
</g>
<!-- Node4 -->
<g id="node4" class="node">
<title>Node4</title>
<g id="a_node4"><a xlink:href="parse__bonus_8h.html#a1851ac042c8e1f69fe345a139f0eadbd" target="_top" xlink:title="Chooses the correct checker function depending on bool is_bonus.">
<polygon fill="none" stroke="black" points="189,-0.5 189,-19.5 298,-19.5 298,-0.5 189,-0.5"/>
<text text-anchor="middle" x="243.5" y="-7.5" font-family="Helvetica,sans-Serif" font-size="10.00">ft_choose_check_ft</text>
</a>
</g>
</g>
<!-- Node3&#45;&gt;Node4 -->
<g id="edge3" class="edge">
<title>Node3&#45;&gt;Node4</title>
<path fill="none" stroke="midnightblue" d="M323.4,-10C315.14,-10 306.59,-10 298.3,-10"/>
<polygon fill="midnightblue" stroke="midnightblue" points="323.67,-13.5 333.67,-10 323.67,-6.5 323.67,-13.5"/>
</g>
<!-- Node5 -->
<g id="node5" class="node">
<title>Node5</title>
<g id="a_node5"><a xlink:href="parse_8h.html#a158705dee8e9b7ce48184c8e2fa3c169" target="_top" xlink:title="Imports, checks, and parses the provided file.">
<polygon fill="none" stroke="black" points="77,-0.5 77,-19.5 153,-19.5 153,-0.5 77,-0.5"/>
<text text-anchor="middle" x="115" y="-7.5" font-family="Helvetica,sans-Serif" font-size="10.00">ft_parse_file</text>
</a>
</g>
</g>
<!-- Node4&#45;&gt;Node5 -->
<g id="edge4" class="edge">
<title>Node4&#45;&gt;Node5</title>
<path fill="none" stroke="midnightblue" d="M178.67,-10C169.96,-10 161.27,-10 153.26,-10"/>
<polygon fill="midnightblue" stroke="midnightblue" points="178.85,-13.5 188.85,-10 178.85,-6.5 178.85,-13.5"/>
</g>
<!-- Node6 -->
<g id="node6" class="node">
<title>Node6</title>
<g id="a_node6"><a xlink:href="main_8c.html#a3c04138a5bfe5d72780bb7e82a18e627" target="_top" xlink:title=" ">
<polygon fill="none" stroke="black" points="0,-0.5 0,-19.5 41,-19.5 41,-0.5 0,-0.5"/>
<text text-anchor="middle" x="20.5" y="-7.5" font-family="Helvetica,sans-Serif" font-size="10.00">main</text>
</a>
</g>
</g>
<!-- Node5&#45;&gt;Node6 -->
<g id="edge5" class="edge">
<title>Node5&#45;&gt;Node6</title>
<path fill="none" stroke="midnightblue" d="M66.72,-10C57.65,-10 48.64,-10 41.07,-10"/>
<polygon fill="midnightblue" stroke="midnightblue" points="66.91,-13.5 76.91,-10 66.91,-6.5 66.91,-13.5"/>
</g>
</g>
</svg>
