<?xml version="1.0" encoding="UTF-8" standalone="no"?>
<!DOCTYPE svg PUBLIC "-//W3C//DTD SVG 1.1//EN"
 "http://www.w3.org/Graphics/SVG/1.1/DTD/svg11.dtd">
<!-- Generated by graphviz version 2.43.0 (0)
 -->
<!-- Title: ft_isvalid_float_block Pages: 1 -->
<!--zoomable 218 -->
<svg id="main" version="1.1" xmlns="http://www.w3.org/2000/svg" xmlns:xlink="http://www.w3.org/1999/xlink" xml:space="preserve" onload="init(evt)">
<style type="text/css"><![CDATA[
.edge:hover path { stroke: red; }
.edge:hover polygon { stroke: red; fill: red; }
]]></style>
<script type="text/javascript"><![CDATA[
var edges = document.getElementsByTagName('g');
if (edges && edges.length) {
  for (var i=0;i<edges.length;i++) {
    if (edges[i].id.substr(0,4)=='edge') {
      edges[i].setAttribute('class','edge');
    }
  }
}
]]></script>
        <defs>
                <circle id="rim" cx="0" cy="0" r="7"/>
                <circle id="rim2" cx="0" cy="0" r="3.5"/>
                <g id="zoomPlus">
                        <use xlink:href="#rim" fill="#404040">
                                <set attributeName="fill" to="#808080" begin="zoomplus.mouseover" end="zoomplus.mouseout"/>
                        </use>
                        <path d="M-4,0h8M0,-4v8" fill="none" stroke="white" stroke-width="1.5" pointer-events="none"/>
                </g>
                <g id="zoomMin">
                        <use xlink:href="#rim" fill="#404040">
                                <set attributeName="fill" to="#808080" begin="zoomminus.mouseover" end="zoomminus.mouseout"/>
                        </use>
                        <path d="M-4,0h8" fill="none" stroke="white" stroke-width="1.5" pointer-events="none"/>
                </g>
                <g id="dirArrow">
                        <path fill="none" stroke="white" stroke-width="1.5" d="M0,-3.0v7 M-2.5,-0.5L0,-3.0L2.5,-0.5"/>
                </g>
               <g id="resetDef">
                       <use xlink:href="#rim2" fill="#404040">
                               <set attributeName="fill" to="#808080" begin="reset.mouseover" end="reset.mouseout"/>
                       </use>
               </g>
        </defs>

<script type="text/javascript">
var viewWidth = 718;
var viewHeight = 218;
var sectionId = 'dynsection-22';
</script>
<script xlink:href="svgpan.js"/>
<svg id="graph" class="graph">
<g id="viewport">
<title>ft_isvalid_float_block</title>
<!-- Node1 -->
<g id="node1" class="node">
<title>Node1</title>
<g id="a_node1"><a xlink:title="Checks three floats, separated by &#39;,&#39;.">
<polygon fill="#bfbfbf" stroke="black" points="591,-95.5 591,-114.5 710,-114.5 710,-95.5 591,-95.5"/>
<text text-anchor="middle" x="650.5" y="-102.5" font-family="Helvetica,sans-Serif" font-size="10.00">ft_isvalid_float_block</text>
</a>
</g>
</g>
<!-- Node2 -->
<g id="node2" class="node">
<title>Node2</title>
<g id="a_node2"><a xlink:href="check_8h.html#ac18c6a2c8fb4ffdeac62341cc67c9675" target="_top" xlink:title="Checks if camera line is correct.">
<polygon fill="none" stroke="black" points="455,-152.5 455,-171.5 554,-171.5 554,-152.5 455,-152.5"/>
<text text-anchor="middle" x="504.5" y="-159.5" font-family="Helvetica,sans-Serif" font-size="10.00">ft_check_camera</text>
</a>
</g>
</g>
<!-- Node1&#45;&gt;Node2 -->
<g id="edge1" class="edge">
<title>Node1&#45;&gt;Node2</title>
<path fill="none" stroke="midnightblue" d="M616.33,-118.49C598.23,-125.81 575.41,-134.98 555,-143 547.12,-146.1 538.51,-149.42 530.71,-152.41"/>
<polygon fill="midnightblue" stroke="midnightblue" points="617.9,-121.63 625.85,-114.63 615.27,-115.14 617.9,-121.63"/>
</g>
<!-- Node4 -->
<g id="node4" class="node">
<title>Node4</title>
<g id="a_node4"><a xlink:href="check__bonus_8h.html#a4125fa15b1ac84a652409b9825a0f8e5" target="_top" xlink:title="Checks if cone line is correct.">
<polygon fill="none" stroke="black" points="461.5,-190.5 461.5,-209.5 547.5,-209.5 547.5,-190.5 461.5,-190.5"/>
<text text-anchor="middle" x="504.5" y="-197.5" font-family="Helvetica,sans-Serif" font-size="10.00">ft_check_cone</text>
</a>
</g>
</g>
<!-- Node1&#45;&gt;Node4 -->
<g id="edge3" class="edge">
<title>Node1&#45;&gt;Node4</title>
<path fill="none" stroke="midnightblue" d="M632.36,-121.56C614.3,-138.3 584.44,-164.07 555,-181 548.78,-184.58 541.75,-187.74 534.99,-190.41"/>
<polygon fill="midnightblue" stroke="midnightblue" points="634.9,-123.97 639.78,-114.56 630.1,-118.87 634.9,-123.97"/>
</g>
<!-- Node9 -->
<g id="node9" class="node">
<title>Node9</title>
<g id="a_node9"><a xlink:href="check_8h.html#ae60d55778d26a79bd9d60676862afcac" target="_top" xlink:title="Checks if cylinder line is correct.">
<polygon fill="none" stroke="black" points="454,-114.5 454,-133.5 555,-133.5 555,-114.5 454,-114.5"/>
<text text-anchor="middle" x="504.5" y="-121.5" font-family="Helvetica,sans-Serif" font-size="10.00">ft_check_cylinder</text>
</a>
</g>
</g>
<!-- Node1&#45;&gt;Node9 -->
<g id="edge8" class="edge">
<title>Node1&#45;&gt;Node9</title>
<path fill="none" stroke="midnightblue" d="M580.85,-114.06C572.22,-115.2 563.52,-116.34 555.26,-117.43"/>
<polygon fill="midnightblue" stroke="midnightblue" points="581.47,-117.51 590.93,-112.73 580.56,-110.57 581.47,-117.51"/>
</g>
<!-- Node10 -->
<g id="node10" class="node">
<title>Node10</title>
<g id="a_node10"><a xlink:href="check_8h.html#a13cb8b89e2be82f5148f2dba42b550e8" target="_top" xlink:title="Checks if light line is correct.">
<polygon fill="none" stroke="black" points="462.5,-76.5 462.5,-95.5 546.5,-95.5 546.5,-76.5 462.5,-76.5"/>
<text text-anchor="middle" x="504.5" y="-83.5" font-family="Helvetica,sans-Serif" font-size="10.00">ft_check_light</text>
</a>
</g>
</g>
<!-- Node1&#45;&gt;Node10 -->
<g id="edge10" class="edge">
<title>Node1&#45;&gt;Node10</title>
<path fill="none" stroke="midnightblue" d="M580.78,-95.93C569.17,-94.4 557.44,-92.85 546.81,-91.45"/>
<polygon fill="midnightblue" stroke="midnightblue" points="580.56,-99.43 590.93,-97.27 581.47,-92.49 580.56,-99.43"/>
</g>
<!-- Node11 -->
<g id="node11" class="node">
<title>Node11</title>
<g id="a_node11"><a xlink:href="check_8h.html#a1e36aec7efe086076efcaf9991f28abe" target="_top" xlink:title="Checks if plane line is correct.">
<polygon fill="none" stroke="black" points="460,-38.5 460,-57.5 549,-57.5 549,-38.5 460,-38.5"/>
<text text-anchor="middle" x="504.5" y="-45.5" font-family="Helvetica,sans-Serif" font-size="10.00">ft_check_plane</text>
</a>
</g>
</g>
<!-- Node1&#45;&gt;Node11 -->
<g id="edge12" class="edge">
<title>Node1&#45;&gt;Node11</title>
<path fill="none" stroke="midnightblue" d="M616.33,-91.51C598.23,-84.19 575.41,-75.02 555,-67 547.12,-63.9 538.51,-60.58 530.71,-57.59"/>
<polygon fill="midnightblue" stroke="midnightblue" points="615.27,-94.86 625.85,-95.37 617.9,-88.37 615.27,-94.86"/>
</g>
<!-- Node12 -->
<g id="node12" class="node">
<title>Node12</title>
<g id="a_node12"><a xlink:href="check_8h.html#a2ac6387003baa37c6f8037edf453c8d0" target="_top" xlink:title="Checks if sphere line is correct.">
<polygon fill="none" stroke="black" points="457,-0.5 457,-19.5 552,-19.5 552,-0.5 457,-0.5"/>
<text text-anchor="middle" x="504.5" y="-7.5" font-family="Helvetica,sans-Serif" font-size="10.00">ft_check_sphere</text>
</a>
</g>
</g>
<!-- Node1&#45;&gt;Node12 -->
<g id="edge14" class="edge">
<title>Node1&#45;&gt;Node12</title>
<path fill="none" stroke="midnightblue" d="M632.36,-88.44C614.3,-71.7 584.44,-45.93 555,-29 548.78,-25.42 541.75,-22.26 534.99,-19.59"/>
<polygon fill="midnightblue" stroke="midnightblue" points="630.1,-91.13 639.78,-95.44 634.9,-86.03 630.1,-91.13"/>
</g>
<!-- Node3 -->
<g id="node3" class="node">
<title>Node3</title>
<g id="a_node3"><a xlink:href="check_8h.html#a9d550a03e395942fd0bb735c1dda47d9" target="_top" xlink:title="Dispatch function for different line types.">
<polygon fill="none" stroke="black" points="311,-76.5 311,-95.5 418,-95.5 418,-76.5 311,-76.5"/>
<text text-anchor="middle" x="364.5" y="-83.5" font-family="Helvetica,sans-Serif" font-size="10.00">ft_check_line_type</text>
</a>
</g>
</g>
<!-- Node2&#45;&gt;Node3 -->
<g id="edge2" class="edge">
<title>Node2&#45;&gt;Node3</title>
<path fill="none" stroke="midnightblue" d="M466.03,-148.56C461.91,-146.81 457.83,-144.94 454,-143 425.8,-128.7 395.3,-107.7 378.48,-95.58"/>
<polygon fill="midnightblue" stroke="midnightblue" points="464.99,-151.92 475.57,-152.43 467.62,-145.43 464.99,-151.92"/>
</g>
<!-- Node5 -->
<g id="node5" class="node">
<title>Node5</title>
<g id="a_node5"><a xlink:href="check__bonus_8c.html#a9d550a03e395942fd0bb735c1dda47d9" target="_top" xlink:title="Dispatch function for different line types.">
<polygon fill="none" stroke="black" points="311,-190.5 311,-209.5 418,-209.5 418,-190.5 311,-190.5"/>
<text text-anchor="middle" x="364.5" y="-197.5" font-family="Helvetica,sans-Serif" font-size="10.00">ft_check_line_type</text>
</a>
</g>
</g>
<!-- Node4&#45;&gt;Node5 -->
<g id="edge4" class="edge">
<title>Node4&#45;&gt;Node5</title>
<path fill="none" stroke="midnightblue" d="M451.19,-200C440.36,-200 428.96,-200 418.13,-200"/>
<polygon fill="midnightblue" stroke="midnightblue" points="451.35,-203.5 461.35,-200 451.35,-196.5 451.35,-203.5"/>
</g>
<!-- Node6 -->
<g id="node6" class="node">
<title>Node6</title>
<g id="a_node6"><a xlink:href="check__bonus_8c.html#a4280fd4536b3edf10a2fa02155af68a1" target="_top" xlink:title="Check array of imported lines.">
<polygon fill="none" stroke="black" points="189,-190.5 189,-209.5 275,-209.5 275,-190.5 189,-190.5"/>
<text text-anchor="middle" x="232" y="-197.5" font-family="Helvetica,sans-Serif" font-size="10.00">ft_check_lines</text>
</a>
</g>
</g>
<!-- Node5&#45;&gt;Node6 -->
<g id="edge5" class="edge">
<title>Node5&#45;&gt;Node6</title>
<path fill="none" stroke="midnightblue" d="M300.67,-200C291.99,-200 283.25,-200 275.07,-200"/>
<polygon fill="midnightblue" stroke="midnightblue" points="300.8,-203.5 310.8,-200 300.8,-196.5 300.8,-203.5"/>
</g>
<!-- Node7 -->
<g id="node7" class="node">
<title>Node7</title>
<g id="a_node7"><a xlink:href="parse_8h.html#ac08e53c371b438bc37757b81d0df11b8" target="_top" xlink:title="Imports, checks, and parses the provided file.">
<polygon fill="none" stroke="black" points="77,-190.5 77,-209.5 153,-209.5 153,-190.5 77,-190.5"/>
<text text-anchor="middle" x="115" y="-197.5" font-family="Helvetica,sans-Serif" font-size="10.00">ft_parse_file</text>
</a>
</g>
</g>
<!-- Node6&#45;&gt;Node7 -->
<g id="edge6" class="edge">
<title>Node6&#45;&gt;Node7</title>
<path fill="none" stroke="midnightblue" d="M178.82,-200C170.19,-200 161.39,-200 153.23,-200"/>
<polygon fill="midnightblue" stroke="midnightblue" points="178.83,-203.5 188.83,-200 178.83,-196.5 178.83,-203.5"/>
</g>
<!-- Node8 -->
<g id="node8" class="node">
<title>Node8</title>
<g id="a_node8"><a xlink:href="main_8c.html#a3c04138a5bfe5d72780bb7e82a18e627" target="_top" xlink:title=" ">
<polygon fill="none" stroke="black" points="0,-190.5 0,-209.5 41,-209.5 41,-190.5 0,-190.5"/>
<text text-anchor="middle" x="20.5" y="-197.5" font-family="Helvetica,sans-Serif" font-size="10.00">main</text>
</a>
</g>
</g>
<!-- Node7&#45;&gt;Node8 -->
<g id="edge7" class="edge">
<title>Node7&#45;&gt;Node8</title>
<path fill="none" stroke="midnightblue" d="M66.72,-200C57.65,-200 48.64,-200 41.07,-200"/>
<polygon fill="midnightblue" stroke="midnightblue" points="66.91,-203.5 76.91,-200 66.91,-196.5 66.91,-203.5"/>
</g>
<!-- Node9&#45;&gt;Node3 -->
<g id="edge9" class="edge">
<title>Node9&#45;&gt;Node3</title>
<path fill="none" stroke="midnightblue" d="M459.03,-111.75C440.01,-106.52 418.12,-100.49 400.31,-95.59"/>
<polygon fill="midnightblue" stroke="midnightblue" points="458.11,-115.13 468.68,-114.41 459.96,-108.38 458.11,-115.13"/>
</g>
<!-- Node10&#45;&gt;Node3 -->
<g id="edge11" class="edge">
<title>Node10&#45;&gt;Node3</title>
<path fill="none" stroke="midnightblue" d="M452.43,-86C441.25,-86 429.4,-86 418.16,-86"/>
<polygon fill="midnightblue" stroke="midnightblue" points="452.47,-89.5 462.47,-86 452.47,-82.5 452.47,-89.5"/>
</g>
<!-- Node11&#45;&gt;Node3 -->
<g id="edge13" class="edge">
<title>Node11&#45;&gt;Node3</title>
<path fill="none" stroke="midnightblue" d="M459.03,-60.25C440.01,-65.48 418.12,-71.51 400.31,-76.41"/>
<polygon fill="midnightblue" stroke="midnightblue" points="459.96,-63.62 468.68,-57.59 458.11,-56.87 459.96,-63.62"/>
</g>
<!-- Node12&#45;&gt;Node3 -->
<g id="edge15" class="edge">
<title>Node12&#45;&gt;Node3</title>
<path fill="none" stroke="midnightblue" d="M466.03,-23.44C461.91,-25.19 457.83,-27.06 454,-29 425.8,-43.3 395.3,-64.3 378.48,-76.42"/>
<polygon fill="midnightblue" stroke="midnightblue" points="467.62,-26.57 475.57,-19.57 464.99,-20.08 467.62,-26.57"/>
</g>
</g>
</svg>
        <g id="navigator" transform="translate(0 0)" fill="#404254">
                <rect fill="#f2f5e9" fill-opacity="0.5" stroke="#606060" stroke-width=".5" x="0" y="0" width="60" height="60"/>
                <use id="zoomplus" xlink:href="#zoomPlus" x="17" y="9" onmousedown="handleZoom(evt,'in')"/>
                <use id="zoomminus" xlink:href="#zoomMin" x="42" y="9" onmousedown="handleZoom(evt,'out')"/>
                <use id="reset" xlink:href="#resetDef" x="30" y="36" onmousedown="handleReset()"/>
                <g id="arrowUp" xlink:href="#dirArrow" transform="translate(30 24)" onmousedown="handlePan(0,-1)">
                  <use xlink:href="#rim" fill="#404040">
                        <set attributeName="fill" to="#808080" begin="arrowUp.mouseover" end="arrowUp.mouseout"/>
                  </use>
                  <path fill="none" stroke="white" stroke-width="1.5" d="M0,-3.0v7 M-2.5,-0.5L0,-3.0L2.5,-0.5"/>
                </g>
                <g id="arrowRight" xlink:href="#dirArrow" transform="rotate(90) translate(36 -43)" onmousedown="handlePan(1,0)">
                  <use xlink:href="#rim" fill="#404040">
                        <set attributeName="fill" to="#808080" begin="arrowRight.mouseover" end="arrowRight.mouseout"/>
                  </use>
                  <path fill="none" stroke="white" stroke-width="1.5" d="M0,-3.0v7 M-2.5,-0.5L0,-3.0L2.5,-0.5"/>
                </g>
                <g id="arrowDown" xlink:href="#dirArrow" transform="rotate(180) translate(-30 -48)" onmousedown="handlePan(0,1)">
                  <use xlink:href="#rim" fill="#404040">
                        <set attributeName="fill" to="#808080" begin="arrowDown.mouseover" end="arrowDown.mouseout"/>
                  </use>
                  <path fill="none" stroke="white" stroke-width="1.5" d="M0,-3.0v7 M-2.5,-0.5L0,-3.0L2.5,-0.5"/>
                </g>
                <g id="arrowLeft" xlink:href="#dirArrow" transform="rotate(270) translate(-36 17)" onmousedown="handlePan(-1,0)">
                  <use xlink:href="#rim" fill="#404040">
                        <set attributeName="fill" to="#808080" begin="arrowLeft.mouseover" end="arrowLeft.mouseout"/>
                  </use>
                  <path fill="none" stroke="white" stroke-width="1.5" d="M0,-3.0v7 M-2.5,-0.5L0,-3.0L2.5,-0.5"/>
                </g>
        </g>
        <svg viewBox="0 0 15 15" width="100%" height="30px" preserveAspectRatio="xMaxYMin meet">
         <g id="arrow_out" transform="scale(0.3 0.3)">
          <a xlink:href="check_8h_a399912478dc865909526aa87e6c333df_icgraph_org.svg" target="_base">
           <rect id="button" ry="5" rx="5" y="6" x="6" height="38" width="38"
                fill="#f2f5e9" fill-opacity="0.5" stroke="#606060" stroke-width="1.0"/>
           <path id="arrow"
             d="M 11.500037,31.436501 C 11.940474,20.09759 22.043105,11.32322 32.158766,21.979434 L 37.068811,17.246167 C 37.068811,17.246167 37.088388,32 37.088388,32 L 22.160133,31.978069 C 22.160133,31.978069 26.997745,27.140456 26.997745,27.140456 C 18.528582,18.264221 13.291696,25.230495 11.500037,31.436501 z"
             style="fill:#404040;"/>
          </a>
         </g>
        </svg>
</svg>
