<?xml version="1.0" encoding="UTF-8" standalone="no"?>
<!DOCTYPE svg PUBLIC "-//W3C//DTD SVG 1.1//EN"
 "http://www.w3.org/Graphics/SVG/1.1/DTD/svg11.dtd">
<!-- Generated by graphviz version 2.43.0 (0)
 -->
<!-- Title: ft_isvalid_float_block Pages: 1 -->
<!--zoomable 113 -->
<svg id="main" version="1.1" xmlns="http://www.w3.org/2000/svg" xmlns:xlink="http://www.w3.org/1999/xlink" xml:space="preserve" onload="init(evt)">
<style type="text/css"><![CDATA[
.edge:hover path { stroke: red; }
.edge:hover polygon { stroke: red; fill: red; }
]]></style>
<script type="text/javascript"><![CDATA[
var edges = document.getElementsByTagName('g');
if (edges && edges.length) {
  for (var i=0;i<edges.length;i++) {
    if (edges[i].id.substr(0,4)=='edge') {
      edges[i].setAttribute('class','edge');
    }
  }
}
]]></script>
        <defs>
                <circle id="rim" cx="0" cy="0" r="7"/>
                <circle id="rim2" cx="0" cy="0" r="3.5"/>
                <g id="zoomPlus">
                        <use xlink:href="#rim" fill="#404040">
                                <set attributeName="fill" to="#808080" begin="zoomplus.mouseover" end="zoomplus.mouseout"/>
                        </use>
                        <path d="M-4,0h8M0,-4v8" fill="none" stroke="white" stroke-width="1.5" pointer-events="none"/>
                </g>
                <g id="zoomMin">
                        <use xlink:href="#rim" fill="#404040">
                                <set attributeName="fill" to="#808080" begin="zoomminus.mouseover" end="zoomminus.mouseout"/>
                        </use>
                        <path d="M-4,0h8" fill="none" stroke="white" stroke-width="1.5" pointer-events="none"/>
                </g>
                <g id="dirArrow">
                        <path fill="none" stroke="white" stroke-width="1.5" d="M0,-3.0v7 M-2.5,-0.5L0,-3.0L2.5,-0.5"/>
                </g>
               <g id="resetDef">
                       <use xlink:href="#rim2" fill="#404040">
                               <set attributeName="fill" to="#808080" begin="reset.mouseover" end="reset.mouseout"/>
                       </use>
               </g>
        </defs>

<script type="text/javascript">
var viewWidth = 895;
var viewHeight = 113;
var sectionId = 'dynsection-18';
</script>
<script xlink:href="svgpan.js"/>
<svg id="graph" class="graph">
<g id="viewport">
<title>ft_isvalid_float_block</title>
<!-- Node1 -->
<g id="node1" class="node">
<title>Node1</title>
<g id="a_node1"><a xlink:title="Checks three floats, separated by &#39;,&#39;.">
<polygon fill="#bfbfbf" stroke="black" points="768,-47 768,-66 887,-66 887,-47 768,-47"/>
<text text-anchor="middle" x="827.5" y="-54" font-family="Helvetica,sans-Serif" font-size="10.00">ft_isvalid_float_block</text>
</a>
</g>
</g>
<!-- Node2 -->
<g id="node2" class="node">
<title>Node2</title>
<g id="a_node2"><a xlink:href="check_8h.html#a806133750c2b871ad705916e6d997f31" target="_top" xlink:title="Checks three floats, separated by &#39;,&#39; and calcs checksum.">
<polygon fill="none" stroke="black" points="625,-47 625,-66 732,-66 732,-47 625,-47"/>
<text text-anchor="middle" x="678.5" y="-54" font-family="Helvetica,sans-Serif" font-size="10.00">ft_isvalid_unit_vec</text>
</a>
</g>
</g>
<!-- Node1&#45;&gt;Node2 -->
<g id="edge1" class="edge">
<title>Node1&#45;&gt;Node2</title>
<path fill="none" stroke="midnightblue" d="M757.88,-56.5C749.22,-56.5 740.47,-56.5 732.11,-56.5"/>
<polygon fill="midnightblue" stroke="midnightblue" points="757.98,-60 767.98,-56.5 757.98,-53 757.98,-60"/>
</g>
<!-- Node3 -->
<g id="node3" class="node">
<title>Node3</title>
<g id="a_node3"><a xlink:href="check_8h.html#ac18c6a2c8fb4ffdeac62341cc67c9675" target="_top" xlink:title="Checks if camera line is correct.">
<polygon fill="none" stroke="black" points="489,-9 489,-28 588,-28 588,-9 489,-9"/>
<text text-anchor="middle" x="538.5" y="-16" font-family="Helvetica,sans-Serif" font-size="10.00">ft_check_camera</text>
</a>
</g>
</g>
<!-- Node2&#45;&gt;Node3 -->
<g id="edge2" class="edge">
<title>Node2&#45;&gt;Node3</title>
<path fill="none" stroke="midnightblue" d="M633.03,-44.25C614.01,-39.02 592.12,-32.99 574.31,-28.09"/>
<polygon fill="midnightblue" stroke="midnightblue" points="632.11,-47.63 642.68,-46.91 633.96,-40.88 632.11,-47.63"/>
</g>
<!-- Node10 -->
<g id="node10" class="node">
<title>Node10</title>
<g id="a_node10"><a xlink:href="check_8h.html#ae60d55778d26a79bd9d60676862afcac" target="_top" xlink:title="Checks if cylinder line is correct.">
<polygon fill="none" stroke="black" points="488,-85 488,-104 589,-104 589,-85 488,-85"/>
<text text-anchor="middle" x="538.5" y="-92" font-family="Helvetica,sans-Serif" font-size="10.00">ft_check_cylinder</text>
</a>
</g>
</g>
<!-- Node2&#45;&gt;Node10 -->
<g id="edge10" class="edge">
<title>Node2&#45;&gt;Node10</title>
<path fill="none" stroke="midnightblue" d="M633.03,-68.75C614.01,-73.98 592.12,-80.01 574.31,-84.91"/>
<polygon fill="midnightblue" stroke="midnightblue" points="633.96,-72.12 642.68,-66.09 632.11,-65.37 633.96,-72.12"/>
</g>
<!-- Node11 -->
<g id="node11" class="node">
<title>Node11</title>
<g id="a_node11"><a xlink:href="check_8h.html#a1e36aec7efe086076efcaf9991f28abe" target="_top" xlink:title="Checks if plane line is correct.">
<polygon fill="none" stroke="black" points="494,-47 494,-66 583,-66 583,-47 494,-47"/>
<text text-anchor="middle" x="538.5" y="-54" font-family="Helvetica,sans-Serif" font-size="10.00">ft_check_plane</text>
</a>
</g>
</g>
<!-- Node2&#45;&gt;Node11 -->
<g id="edge12" class="edge">
<title>Node2&#45;&gt;Node11</title>
<path fill="none" stroke="midnightblue" d="M614.84,-56.5C604.22,-56.5 593.4,-56.5 583.39,-56.5"/>
<polygon fill="midnightblue" stroke="midnightblue" points="614.93,-60 624.93,-56.5 614.93,-53 614.93,-60"/>
</g>
<!-- Node4 -->
<g id="node4" class="node">
<title>Node4</title>
<g id="a_node4"><a xlink:href="check_8h.html#a9d550a03e395942fd0bb735c1dda47d9" target="_top" xlink:title="Dispatch function for different line types.">
<polygon fill="none" stroke="black" points="345,-50 345,-69 452,-69 452,-50 345,-50"/>
<text text-anchor="middle" x="398.5" y="-57" font-family="Helvetica,sans-Serif" font-size="10.00">ft_check_line_type</text>
</a>
</g>
</g>
<!-- Node3&#45;&gt;Node4 -->
<g id="edge3" class="edge">
<title>Node3&#45;&gt;Node4</title>
<path fill="none" stroke="midnightblue" d="M495.77,-30.9C475.25,-37 450.89,-44.23 431.81,-49.9"/>
<polygon fill="midnightblue" stroke="midnightblue" points="496.9,-34.21 505.49,-28.01 494.91,-27.5 496.9,-34.21"/>
</g>
<!-- Node8 -->
<g id="node8" class="node">
<title>Node8</title>
<g id="a_node8"><a xlink:href="check__bonus_8h.html#ae33774d34021cd6fec6863eff3e8e3b0" target="_top" xlink:title="Dispatch function for different line types.">
<polygon fill="none" stroke="black" points="345,-0.5 345,-30.5 452,-30.5 452,-0.5 345,-0.5"/>
<text text-anchor="start" x="353" y="-18.5" font-family="Helvetica,sans-Serif" font-size="10.00">ft_check_line_type</text>
<text text-anchor="middle" x="398.5" y="-7.5" font-family="Helvetica,sans-Serif" font-size="10.00">_bonus</text>
</a>
</g>
</g>
<!-- Node3&#45;&gt;Node8 -->
<g id="edge7" class="edge">
<title>Node3&#45;&gt;Node8</title>
<path fill="none" stroke="midnightblue" d="M478.72,-17.22C469.98,-17.03 461.02,-16.84 452.4,-16.65"/>
<polygon fill="midnightblue" stroke="midnightblue" points="478.77,-20.72 488.85,-17.44 478.92,-13.73 478.77,-20.72"/>
</g>
<!-- Node5 -->
<g id="node5" class="node">
<title>Node5</title>
<g id="a_node5"><a xlink:href="check_8h.html#afdfc858822cc349d9aa87b6aa28a6dd8" target="_top" xlink:title="Check array of imported lines.">
<polygon fill="none" stroke="black" points="206,-48 206,-67 292,-67 292,-48 206,-48"/>
<text text-anchor="middle" x="249" y="-55" font-family="Helvetica,sans-Serif" font-size="10.00">ft_check_lines</text>
</a>
</g>
</g>
<!-- Node4&#45;&gt;Node5 -->
<g id="edge4" class="edge">
<title>Node4&#45;&gt;Node5</title>
<path fill="none" stroke="midnightblue" d="M334.43,-58.64C320.21,-58.45 305.44,-58.25 292.3,-58.07"/>
<polygon fill="midnightblue" stroke="midnightblue" points="334.62,-62.15 344.67,-58.78 334.71,-55.15 334.62,-62.15"/>
</g>
<!-- Node6 -->
<g id="node6" class="node">
<title>Node6</title>
<g id="a_node6"><a xlink:href="parse_8h.html#ac08e53c371b438bc37757b81d0df11b8" target="_top" xlink:title="Imports, checks, and parses the provided file.">
<polygon fill="none" stroke="black" points="77,-28 77,-47 153,-47 153,-28 77,-28"/>
<text text-anchor="middle" x="115" y="-35" font-family="Helvetica,sans-Serif" font-size="10.00">ft_parse_file</text>
</a>
</g>
</g>
<!-- Node5&#45;&gt;Node6 -->
<g id="edge5" class="edge">
<title>Node5&#45;&gt;Node6</title>
<path fill="none" stroke="midnightblue" d="M195.73,-49.58C181.54,-47.43 166.46,-45.14 153.27,-43.15"/>
<polygon fill="midnightblue" stroke="midnightblue" points="195.46,-53.08 205.87,-51.12 196.51,-46.16 195.46,-53.08"/>
</g>
<!-- Node7 -->
<g id="node7" class="node">
<title>Node7</title>
<g id="a_node7"><a xlink:href="main_8c.html#a3c04138a5bfe5d72780bb7e82a18e627" target="_top" xlink:title=" ">
<polygon fill="none" stroke="black" points="0,-28 0,-47 41,-47 41,-28 0,-28"/>
<text text-anchor="middle" x="20.5" y="-35" font-family="Helvetica,sans-Serif" font-size="10.00">main</text>
</a>
</g>
</g>
<!-- Node6&#45;&gt;Node7 -->
<g id="edge6" class="edge">
<title>Node6&#45;&gt;Node7</title>
<path fill="none" stroke="midnightblue" d="M66.72,-37.5C57.65,-37.5 48.64,-37.5 41.07,-37.5"/>
<polygon fill="midnightblue" stroke="midnightblue" points="66.91,-41 76.91,-37.5 66.91,-34 66.91,-41"/>
</g>
<!-- Node9 -->
<g id="node9" class="node">
<title>Node9</title>
<g id="a_node9"><a xlink:href="check__bonus_8h.html#af3ef225f9cf1a304afc28235a98ac241" target="_top" xlink:title="Check array of imported lines.">
<polygon fill="none" stroke="black" points="189,-9 189,-28 309,-28 309,-9 189,-9"/>
<text text-anchor="middle" x="249" y="-16" font-family="Helvetica,sans-Serif" font-size="10.00">ft_check_lines_bonus</text>
</a>
</g>
</g>
<!-- Node8&#45;&gt;Node9 -->
<g id="edge8" class="edge">
<title>Node8&#45;&gt;Node9</title>
<path fill="none" stroke="midnightblue" d="M334.55,-16.78C326.15,-16.95 317.56,-17.13 309.23,-17.3"/>
<polygon fill="midnightblue" stroke="midnightblue" points="334.74,-20.28 344.67,-16.57 334.6,-13.28 334.74,-20.28"/>
</g>
<!-- Node9&#45;&gt;Node6 -->
<g id="edge9" class="edge">
<title>Node9&#45;&gt;Node6</title>
<path fill="none" stroke="midnightblue" d="M178.89,-28.45C169.98,-29.73 161.14,-31 153.03,-32.17"/>
<polygon fill="midnightblue" stroke="midnightblue" points="179.55,-31.89 188.95,-27 178.55,-24.96 179.55,-31.89"/>
</g>
<!-- Node10&#45;&gt;Node4 -->
<g id="edge11" class="edge">
<title>Node10&#45;&gt;Node4</title>
<path fill="none" stroke="midnightblue" d="M489.9,-82.43C472.66,-78.05 453.44,-73.18 437.16,-69.05"/>
<polygon fill="midnightblue" stroke="midnightblue" points="489.24,-85.87 499.79,-84.94 490.96,-79.09 489.24,-85.87"/>
</g>
<!-- Node11&#45;&gt;Node4 -->
<g id="edge13" class="edge">
<title>Node11&#45;&gt;Node4</title>
<path fill="none" stroke="midnightblue" d="M483.65,-57.67C473.27,-57.9 462.41,-58.13 452.07,-58.36"/>
<polygon fill="midnightblue" stroke="midnightblue" points="483.91,-61.17 493.84,-57.45 483.76,-54.17 483.91,-61.17"/>
</g>
</g>
</svg>
        <g id="navigator" transform="translate(0 0)" fill="#404254">
                <rect fill="#f2f5e9" fill-opacity="0.5" stroke="#606060" stroke-width=".5" x="0" y="0" width="60" height="60"/>
                <use id="zoomplus" xlink:href="#zoomPlus" x="17" y="9" onmousedown="handleZoom(evt,'in')"/>
                <use id="zoomminus" xlink:href="#zoomMin" x="42" y="9" onmousedown="handleZoom(evt,'out')"/>
                <use id="reset" xlink:href="#resetDef" x="30" y="36" onmousedown="handleReset()"/>
                <g id="arrowUp" xlink:href="#dirArrow" transform="translate(30 24)" onmousedown="handlePan(0,-1)">
                  <use xlink:href="#rim" fill="#404040">
                        <set attributeName="fill" to="#808080" begin="arrowUp.mouseover" end="arrowUp.mouseout"/>
                  </use>
                  <path fill="none" stroke="white" stroke-width="1.5" d="M0,-3.0v7 M-2.5,-0.5L0,-3.0L2.5,-0.5"/>
                </g>
                <g id="arrowRight" xlink:href="#dirArrow" transform="rotate(90) translate(36 -43)" onmousedown="handlePan(1,0)">
                  <use xlink:href="#rim" fill="#404040">
                        <set attributeName="fill" to="#808080" begin="arrowRight.mouseover" end="arrowRight.mouseout"/>
                  </use>
                  <path fill="none" stroke="white" stroke-width="1.5" d="M0,-3.0v7 M-2.5,-0.5L0,-3.0L2.5,-0.5"/>
                </g>
                <g id="arrowDown" xlink:href="#dirArrow" transform="rotate(180) translate(-30 -48)" onmousedown="handlePan(0,1)">
                  <use xlink:href="#rim" fill="#404040">
                        <set attributeName="fill" to="#808080" begin="arrowDown.mouseover" end="arrowDown.mouseout"/>
                  </use>
                  <path fill="none" stroke="white" stroke-width="1.5" d="M0,-3.0v7 M-2.5,-0.5L0,-3.0L2.5,-0.5"/>
                </g>
                <g id="arrowLeft" xlink:href="#dirArrow" transform="rotate(270) translate(-36 17)" onmousedown="handlePan(-1,0)">
                  <use xlink:href="#rim" fill="#404040">
                        <set attributeName="fill" to="#808080" begin="arrowLeft.mouseover" end="arrowLeft.mouseout"/>
                  </use>
                  <path fill="none" stroke="white" stroke-width="1.5" d="M0,-3.0v7 M-2.5,-0.5L0,-3.0L2.5,-0.5"/>
                </g>
        </g>
        <svg viewBox="0 0 15 15" width="100%" height="30px" preserveAspectRatio="xMaxYMin meet">
         <g id="arrow_out" transform="scale(0.3 0.3)">
          <a xlink:href="check__bonus_8h_a399912478dc865909526aa87e6c333df_icgraph_org.svg" target="_base">
           <rect id="button" ry="5" rx="5" y="6" x="6" height="38" width="38"
                fill="#f2f5e9" fill-opacity="0.5" stroke="#606060" stroke-width="1.0"/>
           <path id="arrow"
             d="M 11.500037,31.436501 C 11.940474,20.09759 22.043105,11.32322 32.158766,21.979434 L 37.068811,17.246167 C 37.068811,17.246167 37.088388,32 37.088388,32 L 22.160133,31.978069 C 22.160133,31.978069 26.997745,27.140456 26.997745,27.140456 C 18.528582,18.264221 13.291696,25.230495 11.500037,31.436501 z"
             style="fill:#404040;"/>
          </a>
         </g>
        </svg>
</svg>
