<?xml version="1.0" encoding="UTF-8" standalone="no"?>
<!DOCTYPE svg PUBLIC "-//W3C//DTD SVG 1.1//EN"
 "http://www.w3.org/Graphics/SVG/1.1/DTD/svg11.dtd">
<!-- Generated by graphviz version 2.43.0 (0)
 -->
<!-- Title: inc/check_bonus.h Pages: 1 -->
<svg width="525pt" height="95pt"
 viewBox="0.00 0.00 524.50 95.00" xmlns="http://www.w3.org/2000/svg" xmlns:xlink="http://www.w3.org/1999/xlink">
<g id="graph0" class="graph" transform="scale(1 1) rotate(0) translate(4 91)">
<title>inc/check_bonus.h</title>
<!-- Node1 -->
<g id="node1" class="node">
<title>Node1</title>
<g id="a_node1"><a xlink:title=" ">
<polygon fill="#bfbfbf" stroke="black" points="197.5,-67.5 197.5,-86.5 303.5,-86.5 303.5,-67.5 197.5,-67.5"/>
<text text-anchor="middle" x="250.5" y="-74.5" font-family="Helvetica,sans-Serif" font-size="10.00">inc/check_bonus.h</text>
</a>
</g>
</g>
<!-- Node2 -->
<g id="node2" class="node">
<title>Node2</title>
<g id="a_node2"><a xlink:href="check__bonus_8c.html" target="_top" xlink:title=" ">
<polygon fill="none" stroke="black" points="0,-6 0,-25 105,-25 105,-6 0,-6"/>
<text text-anchor="middle" x="52.5" y="-13" font-family="Helvetica,sans-Serif" font-size="10.00">src/check_bonus.c</text>
</a>
</g>
</g>
<!-- Node1&#45;&gt;Node2 -->
<g id="edge1" class="edge">
<title>Node1&#45;&gt;Node2</title>
<path fill="none" stroke="midnightblue" d="M212.33,-64.53C173.84,-52.96 115.34,-35.38 80.82,-25.01"/>
<polygon fill="midnightblue" stroke="midnightblue" points="211.55,-67.95 222.13,-67.48 213.56,-61.25 211.55,-67.95"/>
</g>
<!-- Node3 -->
<g id="node3" class="node">
<title>Node3</title>
<g id="a_node3"><a xlink:href="check__entity__sp__pl__cy__bonus_8c.html" target="_top" xlink:title=" ">
<polygon fill="none" stroke="black" points="123,-0.5 123,-30.5 236,-30.5 236,-0.5 123,-0.5"/>
<text text-anchor="start" x="131" y="-18.5" font-family="Helvetica,sans-Serif" font-size="10.00">src/check_entity_sp</text>
<text text-anchor="middle" x="179.5" y="-7.5" font-family="Helvetica,sans-Serif" font-size="10.00">_pl_cy_bonus.c</text>
</a>
</g>
</g>
<!-- Node1&#45;&gt;Node3 -->
<g id="edge2" class="edge">
<title>Node1&#45;&gt;Node3</title>
<path fill="none" stroke="midnightblue" d="M232.51,-60.92C221.36,-51.58 207.14,-39.66 196.23,-30.52"/>
<polygon fill="midnightblue" stroke="midnightblue" points="230.41,-63.73 240.33,-67.48 234.91,-58.37 230.41,-63.73"/>
</g>
<!-- Node4 -->
<g id="node4" class="node">
<title>Node4</title>
<g id="a_node4"><a xlink:href="check__error__bonus_8c.html" target="_top" xlink:title=" ">
<polygon fill="none" stroke="black" points="254.5,-6 254.5,-25 388.5,-25 388.5,-6 254.5,-6"/>
<text text-anchor="middle" x="321.5" y="-13" font-family="Helvetica,sans-Serif" font-size="10.00">src/check_error_bonus.c</text>
</a>
</g>
</g>
<!-- Node1&#45;&gt;Node4 -->
<g id="edge3" class="edge">
<title>Node1&#45;&gt;Node4</title>
<path fill="none" stroke="midnightblue" d="M268.43,-60.97C282.01,-49.59 300.18,-34.37 311.35,-25.01"/>
<polygon fill="midnightblue" stroke="midnightblue" points="266.09,-58.37 260.67,-67.48 270.59,-63.73 266.09,-58.37"/>
</g>
<!-- Node5 -->
<g id="node5" class="node">
<title>Node5</title>
<g id="a_node5"><a xlink:href="check__win__size__bonus_8c.html" target="_top" xlink:title=" ">
<polygon fill="none" stroke="black" points="406.5,-0.5 406.5,-30.5 516.5,-30.5 516.5,-0.5 406.5,-0.5"/>
<text text-anchor="start" x="414.5" y="-18.5" font-family="Helvetica,sans-Serif" font-size="10.00">src/check_win_size</text>
<text text-anchor="middle" x="461.5" y="-7.5" font-family="Helvetica,sans-Serif" font-size="10.00">_bonus.c</text>
</a>
</g>
</g>
<!-- Node1&#45;&gt;Node5 -->
<g id="edge4" class="edge">
<title>Node1&#45;&gt;Node5</title>
<path fill="none" stroke="midnightblue" d="M290.45,-64.73C324.89,-55.02 374.76,-40.96 411.77,-30.52"/>
<polygon fill="midnightblue" stroke="midnightblue" points="289.41,-61.39 280.73,-67.48 291.31,-68.13 289.41,-61.39"/>
</g>
</g>
</svg>
