<?xml version="1.0" encoding="UTF-8" standalone="no"?>
<!DOCTYPE svg PUBLIC "-//W3C//DTD SVG 1.1//EN"
 "http://www.w3.org/Graphics/SVG/1.1/DTD/svg11.dtd">
<!-- Generated by graphviz version 2.43.0 (0)
 -->
<!-- Title: inc/check_bonus.h Pages: 1 -->
<!--zoomable 308 -->
<svg id="main" version="1.1" xmlns="http://www.w3.org/2000/svg" xmlns:xlink="http://www.w3.org/1999/xlink" xml:space="preserve" onload="init(evt)">
<style type="text/css"><![CDATA[
.edge:hover path { stroke: red; }
.edge:hover polygon { stroke: red; fill: red; }
]]></style>
<script type="text/javascript"><![CDATA[
var edges = document.getElementsByTagName('g');
if (edges && edges.length) {
  for (var i=0;i<edges.length;i++) {
    if (edges[i].id.substr(0,4)=='edge') {
      edges[i].setAttribute('class','edge');
    }
  }
}
]]></script>
        <defs>
                <circle id="rim" cx="0" cy="0" r="7"/>
                <circle id="rim2" cx="0" cy="0" r="3.5"/>
                <g id="zoomPlus">
                        <use xlink:href="#rim" fill="#404040">
                                <set attributeName="fill" to="#808080" begin="zoomplus.mouseover" end="zoomplus.mouseout"/>
                        </use>
                        <path d="M-4,0h8M0,-4v8" fill="none" stroke="white" stroke-width="1.5" pointer-events="none"/>
                </g>
                <g id="zoomMin">
                        <use xlink:href="#rim" fill="#404040">
                                <set attributeName="fill" to="#808080" begin="zoomminus.mouseover" end="zoomminus.mouseout"/>
                        </use>
                        <path d="M-4,0h8" fill="none" stroke="white" stroke-width="1.5" pointer-events="none"/>
                </g>
                <g id="dirArrow">
                        <path fill="none" stroke="white" stroke-width="1.5" d="M0,-3.0v7 M-2.5,-0.5L0,-3.0L2.5,-0.5"/>
                </g>
               <g id="resetDef">
                       <use xlink:href="#rim2" fill="#404040">
                               <set attributeName="fill" to="#808080" begin="reset.mouseover" end="reset.mouseout"/>
                       </use>
               </g>
        </defs>

<script type="text/javascript">
var viewWidth = 805;
var viewHeight = 308;
var sectionId = 'dynsection-0';
</script>
<script xlink:href="svgpan.js"/>
<svg id="graph" class="graph">
<g id="viewport">
<title>inc/check_bonus.h</title>
<!-- Node1 -->
<g id="node1" class="node">
<title>Node1</title>
<g id="a_node1"><a xlink:title=" ">
<polygon fill="#bfbfbf" stroke="black" points="177,-280.5 177,-299.5 283,-299.5 283,-280.5 177,-280.5"/>
<text text-anchor="middle" x="230" y="-287.5" font-family="Helvetica,sans-Serif" font-size="10.00">inc/check_bonus.h</text>
</a>
</g>
</g>
<!-- Node2 -->
<g id="node2" class="node">
<title>Node2</title>
<g id="a_node2"><a xlink:href="error__type_8h.html" target="_top" xlink:title=" ">
<polygon fill="none" stroke="black" points="0,-224.5 0,-243.5 76,-243.5 76,-224.5 0,-224.5"/>
<text text-anchor="middle" x="38" y="-231.5" font-family="Helvetica,sans-Serif" font-size="10.00">error_type.h</text>
</a>
</g>
</g>
<!-- Node1&#45;&gt;Node2 -->
<g id="edge1" class="edge">
<title>Node1&#45;&gt;Node2</title>
<path fill="none" stroke="midnightblue" d="M199.58,-280.44C166.72,-271.2 114.22,-256.44 78.03,-246.26"/>
<polygon fill="midnightblue" stroke="midnightblue" points="78.85,-242.85 68.28,-243.52 76.96,-249.59 78.85,-242.85"/>
</g>
<!-- Node3 -->
<g id="node3" class="node">
<title>Node3</title>
<g id="a_node3"><a xlink:href="error__msg_8h.html" target="_top" xlink:title=" ">
<polygon fill="none" stroke="black" points="229.5,-224.5 229.5,-243.5 304.5,-243.5 304.5,-224.5 229.5,-224.5"/>
<text text-anchor="middle" x="267" y="-231.5" font-family="Helvetica,sans-Serif" font-size="10.00">error_msg.h</text>
</a>
</g>
</g>
<!-- Node1&#45;&gt;Node3 -->
<g id="edge2" class="edge">
<title>Node1&#45;&gt;Node3</title>
<path fill="none" stroke="midnightblue" d="M236.11,-280.08C241.28,-272.53 248.85,-261.49 255.19,-252.23"/>
<polygon fill="midnightblue" stroke="midnightblue" points="258.24,-253.98 261,-243.75 252.46,-250.02 258.24,-253.98"/>
</g>
<!-- Node15 -->
<g id="node15" class="node">
<title>Node15</title>
<g id="a_node15"><a xlink:title=" ">
<polygon fill="none" stroke="#bfbfbf" points="98,-168.5 98,-187.5 156,-187.5 156,-168.5 98,-168.5"/>
<text text-anchor="middle" x="127" y="-175.5" font-family="Helvetica,sans-Serif" font-size="10.00">ft_char.h</text>
</a>
</g>
</g>
<!-- Node1&#45;&gt;Node15 -->
<g id="edge18" class="edge">
<title>Node1&#45;&gt;Node15</title>
<path fill="none" stroke="midnightblue" d="M221.92,-280.37C204.69,-261.97 164.15,-218.67 142.03,-195.05"/>
<polygon fill="midnightblue" stroke="midnightblue" points="144.43,-192.5 135.04,-187.59 139.32,-197.28 144.43,-192.5"/>
</g>
<!-- Node16 -->
<g id="node16" class="node">
<title>Node16</title>
<g id="a_node16"><a xlink:href="ft__strtod_8h.html" target="_top" xlink:title=" ">
<polygon fill="none" stroke="black" points="94,-224.5 94,-243.5 160,-243.5 160,-224.5 94,-224.5"/>
<text text-anchor="middle" x="127" y="-231.5" font-family="Helvetica,sans-Serif" font-size="10.00">ft_strtod.h</text>
</a>
</g>
</g>
<!-- Node1&#45;&gt;Node16 -->
<g id="edge19" class="edge">
<title>Node1&#45;&gt;Node16</title>
<path fill="none" stroke="midnightblue" d="M213.45,-280.32C197.01,-271.7 171.57,-258.36 152.53,-248.39"/>
<polygon fill="midnightblue" stroke="midnightblue" points="153.99,-245.2 143.51,-243.65 150.74,-251.4 153.99,-245.2"/>
</g>
<!-- Node17 -->
<g id="node17" class="node">
<title>Node17</title>
<g id="a_node17"><a xlink:href="entities__bonus_8h.html" target="_top" xlink:title=" ">
<polygon fill="none" stroke="black" points="419.5,-224.5 419.5,-243.5 516.5,-243.5 516.5,-224.5 419.5,-224.5"/>
<text text-anchor="middle" x="468" y="-231.5" font-family="Helvetica,sans-Serif" font-size="10.00">entities_bonus.h</text>
</a>
</g>
</g>
<!-- Node1&#45;&gt;Node17 -->
<g id="edge23" class="edge">
<title>Node1&#45;&gt;Node17</title>
<path fill="none" stroke="midnightblue" d="M267.71,-280.44C309.14,-271.04 375.76,-255.93 420.67,-245.74"/>
<polygon fill="midnightblue" stroke="midnightblue" points="421.49,-249.14 430.46,-243.52 419.94,-242.32 421.49,-249.14"/>
</g>
<!-- Node21 -->
<g id="node21" class="node">
<title>Node21</title>
<g id="a_node21"><a xlink:href="mini_r_t__config__bonus_8h.html" target="_top" xlink:title=" ">
<polygon fill="none" stroke="black" points="535,-224.5 535,-243.5 663,-243.5 663,-224.5 535,-224.5"/>
<text text-anchor="middle" x="599" y="-231.5" font-family="Helvetica,sans-Serif" font-size="10.00">miniRT_config_bonus.h</text>
</a>
</g>
</g>
<!-- Node1&#45;&gt;Node21 -->
<g id="edge36" class="edge">
<title>Node1&#45;&gt;Node21</title>
<path fill="none" stroke="midnightblue" d="M283.26,-281.21C348.51,-271.66 459.16,-255.46 530.63,-245"/>
<polygon fill="midnightblue" stroke="midnightblue" points="531.5,-248.42 540.88,-243.5 530.48,-241.49 531.5,-248.42"/>
</g>
<!-- Node4 -->
<g id="node4" class="node">
<title>Node4</title>
<g id="a_node4"><a xlink:title=" ">
<polygon fill="none" stroke="#bfbfbf" points="280,-56.5 280,-75.5 330,-75.5 330,-56.5 280,-56.5"/>
<text text-anchor="middle" x="305" y="-63.5" font-family="Helvetica,sans-Serif" font-size="10.00">stdio.h</text>
</a>
</g>
</g>
<!-- Node3&#45;&gt;Node4 -->
<g id="edge3" class="edge">
<title>Node3&#45;&gt;Node4</title>
<path fill="none" stroke="midnightblue" d="M275.88,-224.29C283.84,-215.85 295,-202.26 300,-188 312.12,-153.4 310.05,-109.79 307.5,-85.5"/>
<polygon fill="midnightblue" stroke="midnightblue" points="310.97,-85.04 306.3,-75.53 304.02,-85.88 310.97,-85.04"/>
</g>
<!-- Node5 -->
<g id="node5" class="node">
<title>Node5</title>
<g id="a_node5"><a xlink:title=" ">
<polygon fill="none" stroke="#bfbfbf" points="174.5,-168.5 174.5,-187.5 225.5,-187.5 225.5,-168.5 174.5,-168.5"/>
<text text-anchor="middle" x="200" y="-175.5" font-family="Helvetica,sans-Serif" font-size="10.00">errno.h</text>
</a>
</g>
</g>
<!-- Node3&#45;&gt;Node5 -->
<g id="edge4" class="edge">
<title>Node3&#45;&gt;Node5</title>
<path fill="none" stroke="midnightblue" d="M256.24,-224.32C246.23,-216.26 231.11,-204.08 219.07,-194.37"/>
<polygon fill="midnightblue" stroke="midnightblue" points="220.94,-191.38 210.96,-187.83 216.55,-196.83 220.94,-191.38"/>
</g>
<!-- Node6 -->
<g id="node6" class="node">
<title>Node6</title>
<g id="a_node6"><a xlink:title=" ">
<polygon fill="none" stroke="#bfbfbf" points="243.5,-168.5 243.5,-187.5 290.5,-187.5 290.5,-168.5 243.5,-168.5"/>
<text text-anchor="middle" x="267" y="-175.5" font-family="Helvetica,sans-Serif" font-size="10.00">ft_fd.h</text>
</a>
</g>
</g>
<!-- Node3&#45;&gt;Node6 -->
<g id="edge5" class="edge">
<title>Node3&#45;&gt;Node6</title>
<path fill="none" stroke="midnightblue" d="M267,-224.08C267,-217.01 267,-206.86 267,-197.99"/>
<polygon fill="midnightblue" stroke="midnightblue" points="270.5,-197.75 267,-187.75 263.5,-197.75 270.5,-197.75"/>
</g>
<!-- Node7 -->
<g id="node7" class="node">
<title>Node7</title>
<g id="a_node7"><a xlink:href="entities_8h.html" target="_top" xlink:title=" ">
<polygon fill="none" stroke="black" points="455,-168.5 455,-187.5 517,-187.5 517,-168.5 455,-168.5"/>
<text text-anchor="middle" x="486" y="-175.5" font-family="Helvetica,sans-Serif" font-size="10.00">entities.h</text>
</a>
</g>
</g>
<!-- Node3&#45;&gt;Node7 -->
<g id="edge6" class="edge">
<title>Node3&#45;&gt;Node7</title>
<path fill="none" stroke="midnightblue" d="M301.7,-224.44C340.59,-214.86 403.58,-199.32 444.9,-189.13"/>
<polygon fill="midnightblue" stroke="midnightblue" points="445.78,-192.52 454.65,-186.73 444.11,-185.72 445.78,-192.52"/>
</g>
<!-- Node8 -->
<g id="node8" class="node">
<title>Node8</title>
<g id="a_node8"><a xlink:title=" ">
<polygon fill="none" stroke="#bfbfbf" points="635,-0.5 635,-19.5 697,-19.5 697,-0.5 635,-0.5"/>
<text text-anchor="middle" x="666" y="-7.5" font-family="Helvetica,sans-Serif" font-size="10.00">stdbool.h</text>
</a>
</g>
</g>
<!-- Node7&#45;&gt;Node8 -->
<g id="edge7" class="edge">
<title>Node7&#45;&gt;Node8</title>
<path fill="none" stroke="midnightblue" d="M517.13,-173.64C563.17,-167.96 645.94,-154.8 664,-132 687.28,-102.6 679.07,-55.37 671.96,-29.47"/>
<polygon fill="midnightblue" stroke="midnightblue" points="675.29,-28.38 669.08,-19.79 668.58,-30.37 675.29,-28.38"/>
</g>
<!-- Node9 -->
<g id="node9" class="node">
<title>Node9</title>
<g id="a_node9"><a xlink:title=" ">
<polygon fill="none" stroke="#bfbfbf" points="732.5,-56.5 732.5,-75.5 785.5,-75.5 785.5,-56.5 732.5,-56.5"/>
<text text-anchor="middle" x="759" y="-63.5" font-family="Helvetica,sans-Serif" font-size="10.00">stdlib.h</text>
</a>
</g>
</g>
<!-- Node7&#45;&gt;Node9 -->
<g id="edge8" class="edge">
<title>Node7&#45;&gt;Node9</title>
<path fill="none" stroke="midnightblue" d="M517.13,-177.98C563.74,-177.98 652.75,-172.14 714,-132 731.35,-120.63 743.9,-100.03 751.27,-85.06"/>
<polygon fill="midnightblue" stroke="midnightblue" points="754.54,-86.33 755.54,-75.78 748.18,-83.41 754.54,-86.33"/>
</g>
<!-- Node10 -->
<g id="node10" class="node">
<title>Node10</title>
<g id="a_node10"><a xlink:href="vec3_8h.html" target="_top" xlink:title=" ">
<polygon fill="none" stroke="black" points="484.5,-56.5 484.5,-75.5 533.5,-75.5 533.5,-56.5 484.5,-56.5"/>
<text text-anchor="middle" x="509" y="-63.5" font-family="Helvetica,sans-Serif" font-size="10.00">vec3.h</text>
</a>
</g>
</g>
<!-- Node7&#45;&gt;Node10 -->
<g id="edge9" class="edge">
<title>Node7&#45;&gt;Node10</title>
<path fill="none" stroke="midnightblue" d="M487.8,-168.37C491.52,-150.62 500.08,-109.67 505.11,-85.6"/>
<polygon fill="midnightblue" stroke="midnightblue" points="508.58,-86.1 507.2,-75.59 501.73,-84.66 508.58,-86.1"/>
</g>
<!-- Node12 -->
<g id="node12" class="node">
<title>Node12</title>
<g id="a_node12"><a xlink:href="colour_8h.html" target="_top" xlink:title=" ">
<polygon fill="none" stroke="black" points="420.5,-112.5 420.5,-131.5 475.5,-131.5 475.5,-112.5 420.5,-112.5"/>
<text text-anchor="middle" x="448" y="-119.5" font-family="Helvetica,sans-Serif" font-size="10.00">colour.h</text>
</a>
</g>
</g>
<!-- Node7&#45;&gt;Node12 -->
<g id="edge12" class="edge">
<title>Node7&#45;&gt;Node12</title>
<path fill="none" stroke="midnightblue" d="M479.73,-168.08C474.36,-160.46 466.48,-149.26 459.92,-139.94"/>
<polygon fill="midnightblue" stroke="midnightblue" points="462.78,-137.91 454.16,-131.75 457.05,-141.94 462.78,-137.91"/>
</g>
<!-- Node10&#45;&gt;Node8 -->
<g id="edge11" class="edge">
<title>Node10&#45;&gt;Node8</title>
<path fill="none" stroke="midnightblue" d="M533.53,-56.56C559.88,-47.5 601.94,-33.03 631.59,-22.84"/>
<polygon fill="midnightblue" stroke="midnightblue" points="632.8,-26.12 641.12,-19.56 630.53,-19.5 632.8,-26.12"/>
</g>
<!-- Node11 -->
<g id="node11" class="node">
<title>Node11</title>
<g id="a_node11"><a xlink:title=" ">
<polygon fill="none" stroke="#bfbfbf" points="450.5,-0.5 450.5,-19.5 501.5,-19.5 501.5,-0.5 450.5,-0.5"/>
<text text-anchor="middle" x="476" y="-7.5" font-family="Helvetica,sans-Serif" font-size="10.00">math.h</text>
</a>
</g>
</g>
<!-- Node10&#45;&gt;Node11 -->
<g id="edge10" class="edge">
<title>Node10&#45;&gt;Node11</title>
<path fill="none" stroke="midnightblue" d="M503.55,-56.08C498.99,-48.61 492.33,-37.72 486.71,-28.52"/>
<polygon fill="midnightblue" stroke="midnightblue" points="489.55,-26.46 481.35,-19.75 483.58,-30.11 489.55,-26.46"/>
</g>
<!-- Node12&#45;&gt;Node4 -->
<g id="edge13" class="edge">
<title>Node12&#45;&gt;Node4</title>
<path fill="none" stroke="midnightblue" d="M425.34,-112.44C401.6,-103.48 364.09,-89.31 337.26,-79.18"/>
<polygon fill="midnightblue" stroke="midnightblue" points="338.14,-75.77 327.55,-75.52 335.67,-82.32 338.14,-75.77"/>
</g>
<!-- Node13 -->
<g id="node13" class="node">
<title>Node13</title>
<g id="a_node13"><a xlink:title=" ">
<polygon fill="none" stroke="#bfbfbf" points="348.5,-56.5 348.5,-75.5 401.5,-75.5 401.5,-56.5 348.5,-56.5"/>
<text text-anchor="middle" x="375" y="-63.5" font-family="Helvetica,sans-Serif" font-size="10.00">stdint.h</text>
</a>
</g>
</g>
<!-- Node12&#45;&gt;Node13 -->
<g id="edge14" class="edge">
<title>Node12&#45;&gt;Node13</title>
<path fill="none" stroke="midnightblue" d="M436.27,-112.32C425.16,-104.11 408.26,-91.6 395.02,-81.81"/>
<polygon fill="midnightblue" stroke="midnightblue" points="397.06,-78.97 386.94,-75.83 392.9,-84.59 397.06,-78.97"/>
</g>
<!-- Node14 -->
<g id="node14" class="node">
<title>Node14</title>
<g id="a_node14"><a xlink:href="utils_8h.html" target="_top" xlink:title=" ">
<polygon fill="none" stroke="black" points="419.5,-56.5 419.5,-75.5 466.5,-75.5 466.5,-56.5 419.5,-56.5"/>
<text text-anchor="middle" x="443" y="-63.5" font-family="Helvetica,sans-Serif" font-size="10.00">utils.h</text>
</a>
</g>
</g>
<!-- Node12&#45;&gt;Node14 -->
<g id="edge15" class="edge">
<title>Node12&#45;&gt;Node14</title>
<path fill="none" stroke="midnightblue" d="M447.17,-112.08C446.52,-105.01 445.58,-94.86 444.76,-85.99"/>
<polygon fill="midnightblue" stroke="midnightblue" points="448.22,-85.39 443.81,-75.75 441.25,-86.03 448.22,-85.39"/>
</g>
<!-- Node14&#45;&gt;Node8 -->
<g id="edge17" class="edge">
<title>Node14&#45;&gt;Node8</title>
<path fill="none" stroke="midnightblue" d="M466.77,-58.42C469.87,-57.59 473.01,-56.76 476,-56 527.26,-42.94 586.63,-29.08 625.17,-20.25"/>
<polygon fill="midnightblue" stroke="midnightblue" points="626.02,-23.65 634.99,-18.01 624.46,-16.82 626.02,-23.65"/>
</g>
<!-- Node14&#45;&gt;Node11 -->
<g id="edge16" class="edge">
<title>Node14&#45;&gt;Node11</title>
<path fill="none" stroke="midnightblue" d="M448.45,-56.08C453.01,-48.61 459.67,-37.72 465.29,-28.52"/>
<polygon fill="midnightblue" stroke="midnightblue" points="468.42,-30.11 470.65,-19.75 462.45,-26.46 468.42,-30.11"/>
</g>
<!-- Node16&#45;&gt;Node4 -->
<g id="edge20" class="edge">
<title>Node16&#45;&gt;Node4</title>
<path fill="none" stroke="midnightblue" d="M115.6,-224.46C100.29,-211.92 76.37,-187.85 89,-168 129.04,-105.07 219.72,-80.69 269.92,-71.77"/>
<polygon fill="midnightblue" stroke="midnightblue" points="270.7,-75.19 279.99,-70.09 269.55,-68.28 270.7,-75.19"/>
</g>
<!-- Node16&#45;&gt;Node11 -->
<g id="edge21" class="edge">
<title>Node16&#45;&gt;Node11</title>
<path fill="none" stroke="midnightblue" d="M113.94,-224.44C103.09,-216.47 88.43,-203.52 82,-188 67.62,-153.29 89.55,-135.33 119,-112 216.73,-34.58 370.77,-16.49 440.09,-12.28"/>
<polygon fill="midnightblue" stroke="midnightblue" points="440.28,-15.77 450.08,-11.73 439.9,-8.78 440.28,-15.77"/>
</g>
<!-- Node16&#45;&gt;Node15 -->
<g id="edge22" class="edge">
<title>Node16&#45;&gt;Node15</title>
<path fill="none" stroke="midnightblue" d="M127,-224.08C127,-217.01 127,-206.86 127,-197.99"/>
<polygon fill="midnightblue" stroke="midnightblue" points="130.5,-197.75 127,-187.75 123.5,-197.75 130.5,-197.75"/>
</g>
<!-- Node17&#45;&gt;Node8 -->
<g id="edge24" class="edge">
<title>Node17&#45;&gt;Node8</title>
<path fill="none" stroke="midnightblue" d="M512.12,-224.47C560.85,-214.77 636,-198.85 663,-188 734.39,-159.32 772.4,-149.55 795,-76 807.21,-36.25 749.48,-20.72 707.29,-14.72"/>
<polygon fill="midnightblue" stroke="midnightblue" points="707.58,-11.23 697.22,-13.42 706.69,-18.17 707.58,-11.23"/>
</g>
<!-- Node17&#45;&gt;Node9 -->
<g id="edge25" class="edge">
<title>Node17&#45;&gt;Node9</title>
<path fill="none" stroke="midnightblue" d="M501.44,-224.41C565.99,-207.21 704.38,-167.19 738,-132 749.89,-119.55 755.05,-100.32 757.29,-86"/>
<polygon fill="midnightblue" stroke="midnightblue" points="760.8,-86.14 758.53,-75.79 753.85,-85.29 760.8,-86.14"/>
</g>
<!-- Node17&#45;&gt;Node10 -->
<g id="edge26" class="edge">
<title>Node17&#45;&gt;Node10</title>
<path fill="none" stroke="midnightblue" d="M486.39,-224.47C500.1,-217 517.81,-204.71 526,-188 542.49,-154.33 528.11,-109.47 517.62,-84.93"/>
<polygon fill="midnightblue" stroke="midnightblue" points="520.78,-83.41 513.47,-75.74 514.4,-86.3 520.78,-83.41"/>
</g>
<!-- Node18 -->
<g id="node18" class="node">
<title>Node18</title>
<g id="a_node18"><a xlink:href="colour__bonus_8h.html" target="_top" xlink:title=" ">
<polygon fill="none" stroke="black" points="347,-168.5 347,-187.5 437,-187.5 437,-168.5 347,-168.5"/>
<text text-anchor="middle" x="392" y="-175.5" font-family="Helvetica,sans-Serif" font-size="10.00">colour_bonus.h</text>
</a>
</g>
</g>
<!-- Node17&#45;&gt;Node18 -->
<g id="edge27" class="edge">
<title>Node17&#45;&gt;Node18</title>
<path fill="none" stroke="midnightblue" d="M455.79,-224.32C444.22,-216.11 426.62,-203.6 412.84,-193.81"/>
<polygon fill="midnightblue" stroke="midnightblue" points="414.61,-190.77 404.43,-187.83 410.56,-196.48 414.61,-190.77"/>
</g>
<!-- Node18&#45;&gt;Node4 -->
<g id="edge28" class="edge">
<title>Node18&#45;&gt;Node4</title>
<path fill="none" stroke="midnightblue" d="M385.17,-168.37C370.75,-150.14 336.97,-107.43 318.19,-83.68"/>
<polygon fill="midnightblue" stroke="midnightblue" points="320.74,-81.26 311.8,-75.59 315.25,-85.61 320.74,-81.26"/>
</g>
<!-- Node18&#45;&gt;Node13 -->
<g id="edge29" class="edge">
<title>Node18&#45;&gt;Node13</title>
<path fill="none" stroke="midnightblue" d="M390.67,-168.37C387.92,-150.62 381.59,-109.67 377.87,-85.6"/>
<polygon fill="midnightblue" stroke="midnightblue" points="381.31,-84.94 376.33,-75.59 374.4,-86.01 381.31,-84.94"/>
</g>
<!-- Node19 -->
<g id="node19" class="node">
<title>Node19</title>
<g id="a_node19"><a xlink:href="utils__bonus_8h.html" target="_top" xlink:title=" ">
<polygon fill="none" stroke="black" points="573.5,-112.5 573.5,-131.5 654.5,-131.5 654.5,-112.5 573.5,-112.5"/>
<text text-anchor="middle" x="614" y="-119.5" font-family="Helvetica,sans-Serif" font-size="10.00">utils_bonus.h</text>
</a>
</g>
</g>
<!-- Node18&#45;&gt;Node19 -->
<g id="edge30" class="edge">
<title>Node18&#45;&gt;Node19</title>
<path fill="none" stroke="midnightblue" d="M427.18,-168.44C465.58,-159.1 527.18,-144.12 569.06,-133.93"/>
<polygon fill="midnightblue" stroke="midnightblue" points="570.1,-137.28 578.99,-131.52 568.44,-130.48 570.1,-137.28"/>
</g>
<!-- Node19&#45;&gt;Node8 -->
<g id="edge32" class="edge">
<title>Node19&#45;&gt;Node8</title>
<path fill="none" stroke="midnightblue" d="M621.83,-112.3C629.24,-103.65 640.22,-89.73 647,-76 654.32,-61.17 659.33,-43.02 662.36,-29.67"/>
<polygon fill="midnightblue" stroke="midnightblue" points="665.81,-30.27 664.45,-19.77 658.96,-28.83 665.81,-30.27"/>
</g>
<!-- Node19&#45;&gt;Node9 -->
<g id="edge33" class="edge">
<title>Node19&#45;&gt;Node9</title>
<path fill="none" stroke="midnightblue" d="M636.98,-112.44C661.16,-103.44 699.42,-89.19 726.65,-79.05"/>
<polygon fill="midnightblue" stroke="midnightblue" points="727.98,-82.29 736.13,-75.52 725.54,-75.73 727.98,-82.29"/>
</g>
<!-- Node19&#45;&gt;Node10 -->
<g id="edge35" class="edge">
<title>Node19&#45;&gt;Node10</title>
<path fill="none" stroke="midnightblue" d="M597.13,-112.32C580.29,-103.66 554.19,-90.24 534.76,-80.25"/>
<polygon fill="midnightblue" stroke="midnightblue" points="536.32,-77.12 525.83,-75.65 533.12,-83.34 536.32,-77.12"/>
</g>
<!-- Node19&#45;&gt;Node11 -->
<g id="edge31" class="edge">
<title>Node19&#45;&gt;Node11</title>
<path fill="none" stroke="midnightblue" d="M605.19,-112.13C592.14,-99.18 566.65,-74.59 543,-56 528.77,-44.81 511.84,-33.45 498.56,-24.95"/>
<polygon fill="midnightblue" stroke="midnightblue" points="500.35,-21.94 490.03,-19.55 496.61,-27.86 500.35,-21.94"/>
</g>
<!-- Node20 -->
<g id="node20" class="node">
<title>Node20</title>
<g id="a_node20"><a xlink:title=" ">
<polygon fill="none" stroke="#bfbfbf" points="590,-56.5 590,-75.5 638,-75.5 638,-56.5 590,-56.5"/>
<text text-anchor="middle" x="614" y="-63.5" font-family="Helvetica,sans-Serif" font-size="10.00">time.h</text>
</a>
</g>
</g>
<!-- Node19&#45;&gt;Node20 -->
<g id="edge34" class="edge">
<title>Node19&#45;&gt;Node20</title>
<path fill="none" stroke="midnightblue" d="M614,-112.08C614,-105.01 614,-94.86 614,-85.99"/>
<polygon fill="midnightblue" stroke="midnightblue" points="617.5,-85.75 614,-75.75 610.5,-85.75 617.5,-85.75"/>
</g>
</g>
</svg>
        <g id="navigator" transform="translate(0 0)" fill="#404254">
                <rect fill="#f2f5e9" fill-opacity="0.5" stroke="#606060" stroke-width=".5" x="0" y="0" width="60" height="60"/>
                <use id="zoomplus" xlink:href="#zoomPlus" x="17" y="9" onmousedown="handleZoom(evt,'in')"/>
                <use id="zoomminus" xlink:href="#zoomMin" x="42" y="9" onmousedown="handleZoom(evt,'out')"/>
                <use id="reset" xlink:href="#resetDef" x="30" y="36" onmousedown="handleReset()"/>
                <g id="arrowUp" xlink:href="#dirArrow" transform="translate(30 24)" onmousedown="handlePan(0,-1)">
                  <use xlink:href="#rim" fill="#404040">
                        <set attributeName="fill" to="#808080" begin="arrowUp.mouseover" end="arrowUp.mouseout"/>
                  </use>
                  <path fill="none" stroke="white" stroke-width="1.5" d="M0,-3.0v7 M-2.5,-0.5L0,-3.0L2.5,-0.5"/>
                </g>
                <g id="arrowRight" xlink:href="#dirArrow" transform="rotate(90) translate(36 -43)" onmousedown="handlePan(1,0)">
                  <use xlink:href="#rim" fill="#404040">
                        <set attributeName="fill" to="#808080" begin="arrowRight.mouseover" end="arrowRight.mouseout"/>
                  </use>
                  <path fill="none" stroke="white" stroke-width="1.5" d="M0,-3.0v7 M-2.5,-0.5L0,-3.0L2.5,-0.5"/>
                </g>
                <g id="arrowDown" xlink:href="#dirArrow" transform="rotate(180) translate(-30 -48)" onmousedown="handlePan(0,1)">
                  <use xlink:href="#rim" fill="#404040">
                        <set attributeName="fill" to="#808080" begin="arrowDown.mouseover" end="arrowDown.mouseout"/>
                  </use>
                  <path fill="none" stroke="white" stroke-width="1.5" d="M0,-3.0v7 M-2.5,-0.5L0,-3.0L2.5,-0.5"/>
                </g>
                <g id="arrowLeft" xlink:href="#dirArrow" transform="rotate(270) translate(-36 17)" onmousedown="handlePan(-1,0)">
                  <use xlink:href="#rim" fill="#404040">
                        <set attributeName="fill" to="#808080" begin="arrowLeft.mouseover" end="arrowLeft.mouseout"/>
                  </use>
                  <path fill="none" stroke="white" stroke-width="1.5" d="M0,-3.0v7 M-2.5,-0.5L0,-3.0L2.5,-0.5"/>
                </g>
        </g>
        <svg viewBox="0 0 15 15" width="100%" height="30px" preserveAspectRatio="xMaxYMin meet">
         <g id="arrow_out" transform="scale(0.3 0.3)">
          <a xlink:href="check__bonus_8h__incl_org.svg" target="_base">
           <rect id="button" ry="5" rx="5" y="6" x="6" height="38" width="38"
                fill="#f2f5e9" fill-opacity="0.5" stroke="#606060" stroke-width="1.0"/>
           <path id="arrow"
             d="M 11.500037,31.436501 C 11.940474,20.09759 22.043105,11.32322 32.158766,21.979434 L 37.068811,17.246167 C 37.068811,17.246167 37.088388,32 37.088388,32 L 22.160133,31.978069 C 22.160133,31.978069 26.997745,27.140456 26.997745,27.140456 C 18.528582,18.264221 13.291696,25.230495 11.500037,31.436501 z"
             style="fill:#404040;"/>
          </a>
         </g>
        </svg>
</svg>
