<?xml version="1.0" encoding="UTF-8" standalone="no"?>
<!DOCTYPE svg PUBLIC "-//W3C//DTD SVG 1.1//EN"
 "http://www.w3.org/Graphics/SVG/1.1/DTD/svg11.dtd">
<!-- Generated by graphviz version 2.43.0 (0)
 -->
<!-- Title: ft_isvalid_float_block Pages: 1 -->
<!--zoomable 345 -->
<svg id="main" version="1.1" xmlns="http://www.w3.org/2000/svg" xmlns:xlink="http://www.w3.org/1999/xlink" xml:space="preserve" onload="init(evt)">
<style type="text/css"><![CDATA[
.edge:hover path { stroke: red; }
.edge:hover polygon { stroke: red; fill: red; }
]]></style>
<script type="text/javascript"><![CDATA[
var edges = document.getElementsByTagName('g');
if (edges && edges.length) {
  for (var i=0;i<edges.length;i++) {
    if (edges[i].id.substr(0,4)=='edge') {
      edges[i].setAttribute('class','edge');
    }
  }
}
]]></script>
        <defs>
                <circle id="rim" cx="0" cy="0" r="7"/>
                <circle id="rim2" cx="0" cy="0" r="3.5"/>
                <g id="zoomPlus">
                        <use xlink:href="#rim" fill="#404040">
                                <set attributeName="fill" to="#808080" begin="zoomplus.mouseover" end="zoomplus.mouseout"/>
                        </use>
                        <path d="M-4,0h8M0,-4v8" fill="none" stroke="white" stroke-width="1.5" pointer-events="none"/>
                </g>
                <g id="zoomMin">
                        <use xlink:href="#rim" fill="#404040">
                                <set attributeName="fill" to="#808080" begin="zoomminus.mouseover" end="zoomminus.mouseout"/>
                        </use>
                        <path d="M-4,0h8" fill="none" stroke="white" stroke-width="1.5" pointer-events="none"/>
                </g>
                <g id="dirArrow">
                        <path fill="none" stroke="white" stroke-width="1.5" d="M0,-3.0v7 M-2.5,-0.5L0,-3.0L2.5,-0.5"/>
                </g>
               <g id="resetDef">
                       <use xlink:href="#rim2" fill="#404040">
                               <set attributeName="fill" to="#808080" begin="reset.mouseover" end="reset.mouseout"/>
                       </use>
               </g>
        </defs>

<script type="text/javascript">
var viewWidth = 1088;
var viewHeight = 345;
var sectionId = 'dynsection-4';
</script>
<script xlink:href="svgpan.js"/>
<svg id="graph" class="graph">
<g id="viewport">
<title>ft_isvalid_float_block</title>
<!-- Node1 -->
<g id="node1" class="node">
<title>Node1</title>
<g id="a_node1"><a xlink:title="Checks three floats, separated by &#39;,&#39;.">
<polygon fill="#bfbfbf" stroke="black" points="961,-172.57 961,-191.57 1080,-191.57 1080,-172.57 961,-172.57"/>
<text text-anchor="middle" x="1020.5" y="-179.57" font-family="Helvetica,sans-Serif" font-size="10.00">ft_isvalid_float_block</text>
</a>
</g>
</g>
<!-- Node2 -->
<g id="node2" class="node">
<title>Node2</title>
<g id="a_node2"><a xlink:href="check_8h.html#ac18c6a2c8fb4ffdeac62341cc67c9675" target="_top" xlink:title="Checks if camera line is correct.">
<polygon fill="none" stroke="black" points="643.5,-191.57 643.5,-210.57 742.5,-210.57 742.5,-191.57 643.5,-191.57"/>
<text text-anchor="middle" x="693" y="-198.57" font-family="Helvetica,sans-Serif" font-size="10.00">ft_check_camera</text>
</a>
</g>
</g>
<!-- Node1&#45;&gt;Node2 -->
<g id="edge1" class="edge">
<title>Node1&#45;&gt;Node2</title>
<path fill="none" stroke="midnightblue" d="M950.77,-186.08C888.32,-189.73 797.76,-195.02 742.55,-198.24"/>
<polygon fill="midnightblue" stroke="midnightblue" points="951.15,-189.57 960.93,-185.49 950.74,-182.58 951.15,-189.57"/>
</g>
<!-- Node10 -->
<g id="node10" class="node">
<title>Node10</title>
<g id="a_node10"><a xlink:href="check__bonus_8h.html#a4044338fccd6b0e9b3e61c2e0c69db12" target="_top" xlink:title="Checks if cone line is correct.">
<polygon fill="none" stroke="black" points="633,-1.57 633,-20.57 753,-20.57 753,-1.57 633,-1.57"/>
<text text-anchor="middle" x="693" y="-8.57" font-family="Helvetica,sans-Serif" font-size="10.00">ft_check_cone_bonus</text>
</a>
</g>
</g>
<!-- Node1&#45;&gt;Node10 -->
<g id="edge10" class="edge">
<title>Node1&#45;&gt;Node10</title>
<path fill="none" stroke="midnightblue" d="M1013.85,-162.84C1002.89,-129.3 975.25,-60.76 925,-30.07 873.32,1.5 802.57,2.51 753.03,-2.01"/>
<polygon fill="midnightblue" stroke="midnightblue" points="1010.52,-163.9 1016.84,-172.41 1017.2,-161.82 1010.52,-163.9"/>
</g>
<!-- Node11 -->
<g id="node11" class="node">
<title>Node11</title>
<g id="a_node11"><a xlink:href="check_8h.html#ae60d55778d26a79bd9d60676862afcac" target="_top" xlink:title="Checks if cylinder line is correct.">
<polygon fill="none" stroke="black" points="642.5,-305.57 642.5,-324.57 743.5,-324.57 743.5,-305.57 642.5,-305.57"/>
<text text-anchor="middle" x="693" y="-312.57" font-family="Helvetica,sans-Serif" font-size="10.00">ft_check_cylinder</text>
</a>
</g>
</g>
<!-- Node1&#45;&gt;Node11 -->
<g id="edge12" class="edge">
<title>Node1&#45;&gt;Node11</title>
<path fill="none" stroke="midnightblue" d="M1012.55,-201.6C1000.34,-232.54 971.8,-291.81 925,-316.07 861.98,-348.74 775.68,-335.76 728.41,-324.63"/>
<polygon fill="midnightblue" stroke="midnightblue" points="1015.94,-202.53 1016.19,-191.94 1009.39,-200.06 1015.94,-202.53"/>
</g>
<!-- Node12 -->
<g id="node12" class="node">
<title>Node12</title>
<g id="a_node12"><a xlink:href="check__bonus_8h.html#a4ec77f79add9f7abed23e5b3dd45e94a" target="_top" xlink:title="Checks if cylinder line is correct.">
<polygon fill="none" stroke="black" points="789,-115.57 789,-134.57 925,-134.57 925,-115.57 789,-115.57"/>
<text text-anchor="middle" x="857" y="-122.57" font-family="Helvetica,sans-Serif" font-size="10.00">ft_check_cylinder_bonus</text>
</a>
</g>
</g>
<!-- Node1&#45;&gt;Node12 -->
<g id="edge14" class="edge">
<title>Node1&#45;&gt;Node12</title>
<path fill="none" stroke="midnightblue" d="M982.87,-169.14C953.15,-158.66 911.94,-144.11 885.12,-134.64"/>
<polygon fill="midnightblue" stroke="midnightblue" points="981.87,-172.5 992.47,-172.53 984.2,-165.9 981.87,-172.5"/>
</g>
<!-- Node13 -->
<g id="node13" class="node">
<title>Node13</title>
<g id="a_node13"><a xlink:href="check_8h.html#a13cb8b89e2be82f5148f2dba42b550e8" target="_top" xlink:title="Checks if light line is correct.">
<polygon fill="none" stroke="black" points="651,-153.57 651,-172.57 735,-172.57 735,-153.57 651,-153.57"/>
<text text-anchor="middle" x="693" y="-160.57" font-family="Helvetica,sans-Serif" font-size="10.00">ft_check_light</text>
</a>
</g>
</g>
<!-- Node1&#45;&gt;Node13 -->
<g id="edge16" class="edge">
<title>Node1&#45;&gt;Node13</title>
<path fill="none" stroke="midnightblue" d="M950.72,-178.06C885.37,-174.24 789.28,-168.63 735.09,-165.47"/>
<polygon fill="midnightblue" stroke="midnightblue" points="950.74,-181.56 960.93,-178.65 951.15,-174.58 950.74,-181.56"/>
</g>
<!-- Node14 -->
<g id="node14" class="node">
<title>Node14</title>
<g id="a_node14"><a xlink:href="check_8h.html#a1e36aec7efe086076efcaf9991f28abe" target="_top" xlink:title="Checks if plane line is correct.">
<polygon fill="none" stroke="black" points="648.5,-267.57 648.5,-286.57 737.5,-286.57 737.5,-267.57 648.5,-267.57"/>
<text text-anchor="middle" x="693" y="-274.57" font-family="Helvetica,sans-Serif" font-size="10.00">ft_check_plane</text>
</a>
</g>
</g>
<!-- Node1&#45;&gt;Node14 -->
<g id="edge19" class="edge">
<title>Node1&#45;&gt;Node14</title>
<path fill="none" stroke="midnightblue" d="M1010.53,-201.04C996.59,-228.02 966.88,-276.39 925,-296.07 870.3,-321.78 849.15,-302.03 789,-296.07 770.25,-294.22 749.73,-290.35 732.57,-286.58"/>
<polygon fill="midnightblue" stroke="midnightblue" points="1013.78,-202.37 1015.1,-191.85 1007.51,-199.25 1013.78,-202.37"/>
</g>
<!-- Node15 -->
<g id="node15" class="node">
<title>Node15</title>
<g id="a_node15"><a xlink:href="check__bonus_8h.html#a553c09de200f4ad19c33ab26d11adc29" target="_top" xlink:title="Checks if plane line is correct.">
<polygon fill="none" stroke="black" points="795,-77.57 795,-96.57 919,-96.57 919,-77.57 795,-77.57"/>
<text text-anchor="middle" x="857" y="-84.57" font-family="Helvetica,sans-Serif" font-size="10.00">ft_check_plane_bonus</text>
</a>
</g>
</g>
<!-- Node1&#45;&gt;Node15 -->
<g id="edge21" class="edge">
<title>Node1&#45;&gt;Node15</title>
<path fill="none" stroke="midnightblue" d="M1002.94,-165.24C985.16,-148.06 955.33,-121.74 925,-106.07 917.7,-102.3 909.54,-99.19 901.51,-96.66"/>
<polygon fill="midnightblue" stroke="midnightblue" points="1000.65,-167.89 1010.23,-172.42 1005.57,-162.91 1000.65,-167.89"/>
</g>
<!-- Node16 -->
<g id="node16" class="node">
<title>Node16</title>
<g id="a_node16"><a xlink:href="check_8h.html#a2ac6387003baa37c6f8037edf453c8d0" target="_top" xlink:title="Checks if sphere line is correct.">
<polygon fill="none" stroke="black" points="809.5,-229.57 809.5,-248.57 904.5,-248.57 904.5,-229.57 809.5,-229.57"/>
<text text-anchor="middle" x="857" y="-236.57" font-family="Helvetica,sans-Serif" font-size="10.00">ft_check_sphere</text>
</a>
</g>
</g>
<!-- Node1&#45;&gt;Node16 -->
<g id="edge23" class="edge">
<title>Node1&#45;&gt;Node16</title>
<path fill="none" stroke="midnightblue" d="M982.87,-195C953.15,-205.49 911.94,-220.04 885.12,-229.5"/>
<polygon fill="midnightblue" stroke="midnightblue" points="984.2,-198.24 992.47,-191.61 981.87,-191.64 984.2,-198.24"/>
</g>
<!-- Node17 -->
<g id="node17" class="node">
<title>Node17</title>
<g id="a_node17"><a xlink:href="check__bonus_8h.html#a649377d201faaa526ad3c355da745325" target="_top" xlink:title="Checks if sphere line is correct.">
<polygon fill="none" stroke="black" points="792,-39.57 792,-58.57 922,-58.57 922,-39.57 792,-39.57"/>
<text text-anchor="middle" x="857" y="-46.57" font-family="Helvetica,sans-Serif" font-size="10.00">ft_check_sphere_bonus</text>
</a>
</g>
</g>
<!-- Node1&#45;&gt;Node17 -->
<g id="edge25" class="edge">
<title>Node1&#45;&gt;Node17</title>
<path fill="none" stroke="midnightblue" d="M1009.06,-163.49C993.86,-138.13 963.22,-92.98 925,-68.07 919.02,-64.18 912.24,-61.07 905.35,-58.59"/>
<polygon fill="midnightblue" stroke="midnightblue" points="1006.23,-165.57 1014.28,-172.45 1012.27,-162.05 1006.23,-165.57"/>
</g>
<!-- Node18 -->
<g id="node18" class="node">
<title>Node18</title>
<g id="a_node18"><a xlink:href="check_8h.html#a806133750c2b871ad705916e6d997f31" target="_top" xlink:title="Checks three floats, separated by &#39;,&#39; and calcs checksum.">
<polygon fill="none" stroke="black" points="803.5,-267.57 803.5,-286.57 910.5,-286.57 910.5,-267.57 803.5,-267.57"/>
<text text-anchor="middle" x="857" y="-274.57" font-family="Helvetica,sans-Serif" font-size="10.00">ft_isvalid_unit_vec</text>
</a>
</g>
</g>
<!-- Node1&#45;&gt;Node18 -->
<g id="edge27" class="edge">
<title>Node1&#45;&gt;Node18</title>
<path fill="none" stroke="midnightblue" d="M1002.94,-198.9C985.16,-216.09 955.33,-242.4 925,-258.07 917.7,-261.85 909.54,-264.95 901.51,-267.49"/>
<polygon fill="midnightblue" stroke="midnightblue" points="1005.57,-201.23 1010.23,-191.72 1000.65,-196.25 1005.57,-201.23"/>
</g>
<!-- Node3 -->
<g id="node3" class="node">
<title>Node3</title>
<g id="a_node3"><a xlink:href="check_8h.html#a9d550a03e395942fd0bb735c1dda47d9" target="_top" xlink:title="Dispatch function for different line types.">
<polygon fill="none" stroke="black" points="490,-210.57 490,-229.57 597,-229.57 597,-210.57 490,-210.57"/>
<text text-anchor="middle" x="543.5" y="-217.57" font-family="Helvetica,sans-Serif" font-size="10.00">ft_check_line_type</text>
</a>
</g>
</g>
<!-- Node2&#45;&gt;Node3 -->
<g id="edge2" class="edge">
<title>Node2&#45;&gt;Node3</title>
<path fill="none" stroke="midnightblue" d="M633.05,-208.67C621.21,-210.19 608.83,-211.79 597.22,-213.28"/>
<polygon fill="midnightblue" stroke="midnightblue" points="633.82,-212.1 643.29,-207.35 632.93,-205.15 633.82,-212.1"/>
</g>
<!-- Node8 -->
<g id="node8" class="node">
<title>Node8</title>
<g id="a_node8"><a xlink:href="check__bonus_8h.html#ae33774d34021cd6fec6863eff3e8e3b0" target="_top" xlink:title="Dispatch function for different line types.">
<polygon fill="none" stroke="black" points="490,-110.07 490,-140.07 597,-140.07 597,-110.07 490,-110.07"/>
<text text-anchor="start" x="498" y="-128.07" font-family="Helvetica,sans-Serif" font-size="10.00">ft_check_line_type</text>
<text text-anchor="middle" x="543.5" y="-117.07" font-family="Helvetica,sans-Serif" font-size="10.00">_bonus</text>
</a>
</g>
</g>
<!-- Node2&#45;&gt;Node8 -->
<g id="edge7" class="edge">
<title>Node2&#45;&gt;Node8</title>
<path fill="none" stroke="midnightblue" d="M647.54,-188.15C642.56,-186.29 637.62,-184.26 633,-182.07 608.22,-170.35 582.09,-152.79 564.71,-140.27"/>
<polygon fill="midnightblue" stroke="midnightblue" points="646.5,-191.49 657.1,-191.49 648.82,-184.88 646.5,-191.49"/>
</g>
<!-- Node4 -->
<g id="node4" class="node">
<title>Node4</title>
<g id="a_node4"><a xlink:href="check_8h.html#afdfc858822cc349d9aa87b6aa28a6dd8" target="_top" xlink:title="Check array of imported lines.">
<polygon fill="none" stroke="black" points="351,-181.57 351,-200.57 437,-200.57 437,-181.57 351,-181.57"/>
<text text-anchor="middle" x="394" y="-188.57" font-family="Helvetica,sans-Serif" font-size="10.00">ft_check_lines</text>
</a>
</g>
</g>
<!-- Node3&#45;&gt;Node4 -->
<g id="edge3" class="edge">
<title>Node3&#45;&gt;Node4</title>
<path fill="none" stroke="midnightblue" d="M483.74,-208.52C468.18,-205.46 451.7,-202.22 437.22,-199.37"/>
<polygon fill="midnightblue" stroke="midnightblue" points="483.31,-212 493.79,-210.5 484.66,-205.13 483.31,-212"/>
</g>
<!-- Node5 -->
<g id="node5" class="node">
<title>Node5</title>
<g id="a_node5"><a xlink:href="parse__bonus_8h.html#a1851ac042c8e1f69fe345a139f0eadbd" target="_top" xlink:title="Chooses the correct checker function depending on bool is_bonus.">
<polygon fill="none" stroke="black" points="189,-153.57 189,-172.57 298,-172.57 298,-153.57 189,-153.57"/>
<text text-anchor="middle" x="243.5" y="-160.57" font-family="Helvetica,sans-Serif" font-size="10.00">ft_choose_check_ft</text>
</a>
</g>
</g>
<!-- Node4&#45;&gt;Node5 -->
<g id="edge4" class="edge">
<title>Node4&#45;&gt;Node5</title>
<path fill="none" stroke="midnightblue" d="M340.78,-181.23C325.89,-178.42 309.71,-175.37 294.93,-172.58"/>
<polygon fill="midnightblue" stroke="midnightblue" points="340.37,-184.71 350.84,-183.12 341.66,-177.83 340.37,-184.71"/>
</g>
<!-- Node6 -->
<g id="node6" class="node">
<title>Node6</title>
<g id="a_node6"><a xlink:href="parse_8h.html#a158705dee8e9b7ce48184c8e2fa3c169" target="_top" xlink:title="Imports, checks, and parses the provided file.">
<polygon fill="none" stroke="black" points="77,-153.57 77,-172.57 153,-172.57 153,-153.57 77,-153.57"/>
<text text-anchor="middle" x="115" y="-160.57" font-family="Helvetica,sans-Serif" font-size="10.00">ft_parse_file</text>
</a>
</g>
</g>
<!-- Node5&#45;&gt;Node6 -->
<g id="edge5" class="edge">
<title>Node5&#45;&gt;Node6</title>
<path fill="none" stroke="midnightblue" d="M178.67,-163.07C169.96,-163.07 161.27,-163.07 153.26,-163.07"/>
<polygon fill="midnightblue" stroke="midnightblue" points="178.85,-166.57 188.85,-163.07 178.85,-159.57 178.85,-166.57"/>
</g>
<!-- Node7 -->
<g id="node7" class="node">
<title>Node7</title>
<g id="a_node7"><a xlink:href="main_8c.html#a3c04138a5bfe5d72780bb7e82a18e627" target="_top" xlink:title=" ">
<polygon fill="none" stroke="black" points="0,-153.57 0,-172.57 41,-172.57 41,-153.57 0,-153.57"/>
<text text-anchor="middle" x="20.5" y="-160.57" font-family="Helvetica,sans-Serif" font-size="10.00">main</text>
</a>
</g>
</g>
<!-- Node6&#45;&gt;Node7 -->
<g id="edge6" class="edge">
<title>Node6&#45;&gt;Node7</title>
<path fill="none" stroke="midnightblue" d="M66.72,-163.07C57.65,-163.07 48.64,-163.07 41.07,-163.07"/>
<polygon fill="midnightblue" stroke="midnightblue" points="66.91,-166.57 76.91,-163.07 66.91,-159.57 66.91,-166.57"/>
</g>
<!-- Node9 -->
<g id="node9" class="node">
<title>Node9</title>
<g id="a_node9"><a xlink:href="check__bonus_8h.html#af3ef225f9cf1a304afc28235a98ac241" target="_top" xlink:title="Check array of imported lines.">
<polygon fill="none" stroke="black" points="334,-134.57 334,-153.57 454,-153.57 454,-134.57 334,-134.57"/>
<text text-anchor="middle" x="394" y="-141.57" font-family="Helvetica,sans-Serif" font-size="10.00">ft_check_lines_bonus</text>
</a>
</g>
</g>
<!-- Node8&#45;&gt;Node9 -->
<g id="edge8" class="edge">
<title>Node8&#45;&gt;Node9</title>
<path fill="none" stroke="midnightblue" d="M479.55,-133.18C471.15,-134.26 462.56,-135.37 454.23,-136.44"/>
<polygon fill="midnightblue" stroke="midnightblue" points="480.19,-136.63 489.67,-131.88 479.3,-129.68 480.19,-136.63"/>
</g>
<!-- Node9&#45;&gt;Node5 -->
<g id="edge9" class="edge">
<title>Node9&#45;&gt;Node5</title>
<path fill="none" stroke="midnightblue" d="M323.82,-152.92C315.19,-154.03 306.47,-155.14 298.12,-156.21"/>
<polygon fill="midnightblue" stroke="midnightblue" points="324.41,-156.38 333.88,-151.64 323.52,-149.43 324.41,-156.38"/>
</g>
<!-- Node10&#45;&gt;Node8 -->
<g id="edge11" class="edge">
<title>Node10&#45;&gt;Node8</title>
<path fill="none" stroke="midnightblue" d="M652.09,-24.7C645.47,-27.68 638.86,-31.14 633,-35.07 601.32,-56.29 571.82,-90.24 556.17,-109.82"/>
<polygon fill="midnightblue" stroke="midnightblue" points="653.83,-27.77 661.7,-20.67 651.13,-21.31 653.83,-27.77"/>
</g>
<!-- Node11&#45;&gt;Node3 -->
<g id="edge13" class="edge">
<title>Node11&#45;&gt;Node3</title>
<path fill="none" stroke="midnightblue" d="M644.87,-301.8C640.77,-300.08 636.75,-298.17 633,-296.07 599.96,-277.57 567.97,-245.54 553.12,-229.63"/>
<polygon fill="midnightblue" stroke="midnightblue" points="643.95,-305.2 654.54,-305.5 646.45,-298.66 643.95,-305.2"/>
</g>
<!-- Node12&#45;&gt;Node8 -->
<g id="edge15" class="edge">
<title>Node12&#45;&gt;Node8</title>
<path fill="none" stroke="midnightblue" d="M778.46,-125.07C721.93,-125.07 646.84,-125.07 597.16,-125.07"/>
<polygon fill="midnightblue" stroke="midnightblue" points="778.79,-128.57 788.79,-125.07 778.79,-121.57 778.79,-128.57"/>
</g>
<!-- Node13&#45;&gt;Node3 -->
<g id="edge17" class="edge">
<title>Node13&#45;&gt;Node3</title>
<path fill="none" stroke="midnightblue" d="M650.69,-175.83C644.72,-177.83 638.68,-179.94 633,-182.07 609.51,-190.87 583.17,-202.41 565.37,-210.45"/>
<polygon fill="midnightblue" stroke="midnightblue" points="652.17,-179.03 660.58,-172.59 649.99,-172.38 652.17,-179.03"/>
</g>
<!-- Node13&#45;&gt;Node8 -->
<g id="edge18" class="edge">
<title>Node13&#45;&gt;Node8</title>
<path fill="none" stroke="midnightblue" d="M645.03,-150.97C629.75,-147.03 612.69,-142.64 597.03,-138.61"/>
<polygon fill="midnightblue" stroke="midnightblue" points="644.22,-154.38 654.78,-153.48 645.97,-147.6 644.22,-154.38"/>
</g>
<!-- Node14&#45;&gt;Node3 -->
<g id="edge20" class="edge">
<title>Node14&#45;&gt;Node3</title>
<path fill="none" stroke="midnightblue" d="M657.83,-263.87C630.75,-253.4 593.55,-239.03 569.27,-229.64"/>
<polygon fill="midnightblue" stroke="midnightblue" points="656.72,-267.19 667.31,-267.53 659.25,-260.66 656.72,-267.19"/>
</g>
<!-- Node15&#45;&gt;Node8 -->
<g id="edge22" class="edge">
<title>Node15&#45;&gt;Node8</title>
<path fill="none" stroke="midnightblue" d="M784.79,-95.76C727.68,-102.73 648.81,-112.35 597.24,-118.64"/>
<polygon fill="midnightblue" stroke="midnightblue" points="785.33,-99.22 794.83,-94.53 784.48,-92.27 785.33,-99.22"/>
</g>
<!-- Node16&#45;&gt;Node3 -->
<g id="edge24" class="edge">
<title>Node16&#45;&gt;Node3</title>
<path fill="none" stroke="midnightblue" d="M799.34,-235.62C741.77,-232.1 653.3,-226.71 597.19,-223.29"/>
<polygon fill="midnightblue" stroke="midnightblue" points="799.17,-239.11 809.37,-236.23 799.6,-232.13 799.17,-239.11"/>
</g>
<!-- Node17&#45;&gt;Node8 -->
<g id="edge26" class="edge">
<title>Node17&#45;&gt;Node8</title>
<path fill="none" stroke="midnightblue" d="M793.01,-60.45C748.1,-69.02 686.47,-81.72 633,-96.07 618.01,-100.1 601.82,-105.18 587.43,-109.96"/>
<polygon fill="midnightblue" stroke="midnightblue" points="793.72,-63.88 802.9,-58.58 792.42,-57 793.72,-63.88"/>
</g>
<!-- Node18&#45;&gt;Node2 -->
<g id="edge28" class="edge">
<title>Node18&#45;&gt;Node2</title>
<path fill="none" stroke="midnightblue" d="M805.98,-264.47C800.17,-262.55 794.4,-260.41 789,-258.07 758.28,-244.78 725.44,-223.23 707.54,-210.78"/>
<polygon fill="midnightblue" stroke="midnightblue" points="805.13,-267.87 815.72,-267.51 807.22,-261.19 805.13,-267.87"/>
</g>
<!-- Node18&#45;&gt;Node11 -->
<g id="edge29" class="edge">
<title>Node18&#45;&gt;Node11</title>
<path fill="none" stroke="midnightblue" d="M805.29,-288.97C782.51,-294.31 756.01,-300.53 734.59,-305.55"/>
<polygon fill="midnightblue" stroke="midnightblue" points="806.18,-292.35 815.12,-286.66 804.59,-285.54 806.18,-292.35"/>
</g>
<!-- Node18&#45;&gt;Node14 -->
<g id="edge30" class="edge">
<title>Node18&#45;&gt;Node14</title>
<path fill="none" stroke="midnightblue" d="M793.25,-277.07C774.68,-277.07 754.75,-277.07 737.67,-277.07"/>
<polygon fill="midnightblue" stroke="midnightblue" points="793.4,-280.57 803.4,-277.07 793.4,-273.57 793.4,-280.57"/>
</g>
</g>
</svg>
        <g id="navigator" transform="translate(0 0)" fill="#404254">
                <rect fill="#f2f5e9" fill-opacity="0.5" stroke="#606060" stroke-width=".5" x="0" y="0" width="60" height="60"/>
                <use id="zoomplus" xlink:href="#zoomPlus" x="17" y="9" onmousedown="handleZoom(evt,'in')"/>
                <use id="zoomminus" xlink:href="#zoomMin" x="42" y="9" onmousedown="handleZoom(evt,'out')"/>
                <use id="reset" xlink:href="#resetDef" x="30" y="36" onmousedown="handleReset()"/>
                <g id="arrowUp" xlink:href="#dirArrow" transform="translate(30 24)" onmousedown="handlePan(0,-1)">
                  <use xlink:href="#rim" fill="#404040">
                        <set attributeName="fill" to="#808080" begin="arrowUp.mouseover" end="arrowUp.mouseout"/>
                  </use>
                  <path fill="none" stroke="white" stroke-width="1.5" d="M0,-3.0v7 M-2.5,-0.5L0,-3.0L2.5,-0.5"/>
                </g>
                <g id="arrowRight" xlink:href="#dirArrow" transform="rotate(90) translate(36 -43)" onmousedown="handlePan(1,0)">
                  <use xlink:href="#rim" fill="#404040">
                        <set attributeName="fill" to="#808080" begin="arrowRight.mouseover" end="arrowRight.mouseout"/>
                  </use>
                  <path fill="none" stroke="white" stroke-width="1.5" d="M0,-3.0v7 M-2.5,-0.5L0,-3.0L2.5,-0.5"/>
                </g>
                <g id="arrowDown" xlink:href="#dirArrow" transform="rotate(180) translate(-30 -48)" onmousedown="handlePan(0,1)">
                  <use xlink:href="#rim" fill="#404040">
                        <set attributeName="fill" to="#808080" begin="arrowDown.mouseover" end="arrowDown.mouseout"/>
                  </use>
                  <path fill="none" stroke="white" stroke-width="1.5" d="M0,-3.0v7 M-2.5,-0.5L0,-3.0L2.5,-0.5"/>
                </g>
                <g id="arrowLeft" xlink:href="#dirArrow" transform="rotate(270) translate(-36 17)" onmousedown="handlePan(-1,0)">
                  <use xlink:href="#rim" fill="#404040">
                        <set attributeName="fill" to="#808080" begin="arrowLeft.mouseover" end="arrowLeft.mouseout"/>
                  </use>
                  <path fill="none" stroke="white" stroke-width="1.5" d="M0,-3.0v7 M-2.5,-0.5L0,-3.0L2.5,-0.5"/>
                </g>
        </g>
        <svg viewBox="0 0 15 15" width="100%" height="30px" preserveAspectRatio="xMaxYMin meet">
         <g id="arrow_out" transform="scale(0.3 0.3)">
          <a xlink:href="check__line_8c_a399912478dc865909526aa87e6c333df_icgraph_org.svg" target="_base">
           <rect id="button" ry="5" rx="5" y="6" x="6" height="38" width="38"
                fill="#f2f5e9" fill-opacity="0.5" stroke="#606060" stroke-width="1.0"/>
           <path id="arrow"
             d="M 11.500037,31.436501 C 11.940474,20.09759 22.043105,11.32322 32.158766,21.979434 L 37.068811,17.246167 C 37.068811,17.246167 37.088388,32 37.088388,32 L 22.160133,31.978069 C 22.160133,31.978069 26.997745,27.140456 26.997745,27.140456 C 18.528582,18.264221 13.291696,25.230495 11.500037,31.436501 z"
             style="fill:#404040;"/>
          </a>
         </g>
        </svg>
</svg>
