<?xml version="1.0" encoding="UTF-8" standalone="no"?>
<!DOCTYPE svg PUBLIC "-//W3C//DTD SVG 1.1//EN"
 "http://www.w3.org/Graphics/SVG/1.1/DTD/svg11.dtd">
<!-- Generated by graphviz version 2.43.0 (0)
 -->
<!-- Title: ft_check_cylinder Pages: 1 -->
<!--zoomable 243 -->
<svg id="main" version="1.1" xmlns="http://www.w3.org/2000/svg" xmlns:xlink="http://www.w3.org/1999/xlink" xml:space="preserve" onload="init(evt)">
<style type="text/css"><![CDATA[
.edge:hover path { stroke: red; }
.edge:hover polygon { stroke: red; fill: red; }
]]></style>
<script type="text/javascript"><![CDATA[
var edges = document.getElementsByTagName('g');
if (edges && edges.length) {
  for (var i=0;i<edges.length;i++) {
    if (edges[i].id.substr(0,4)=='edge') {
      edges[i].setAttribute('class','edge');
    }
  }
}
]]></script>
        <defs>
                <circle id="rim" cx="0" cy="0" r="7"/>
                <circle id="rim2" cx="0" cy="0" r="3.5"/>
                <g id="zoomPlus">
                        <use xlink:href="#rim" fill="#404040">
                                <set attributeName="fill" to="#808080" begin="zoomplus.mouseover" end="zoomplus.mouseout"/>
                        </use>
                        <path d="M-4,0h8M0,-4v8" fill="none" stroke="white" stroke-width="1.5" pointer-events="none"/>
                </g>
                <g id="zoomMin">
                        <use xlink:href="#rim" fill="#404040">
                                <set attributeName="fill" to="#808080" begin="zoomminus.mouseover" end="zoomminus.mouseout"/>
                        </use>
                        <path d="M-4,0h8" fill="none" stroke="white" stroke-width="1.5" pointer-events="none"/>
                </g>
                <g id="dirArrow">
                        <path fill="none" stroke="white" stroke-width="1.5" d="M0,-3.0v7 M-2.5,-0.5L0,-3.0L2.5,-0.5"/>
                </g>
               <g id="resetDef">
                       <use xlink:href="#rim2" fill="#404040">
                               <set attributeName="fill" to="#808080" begin="reset.mouseover" end="reset.mouseout"/>
                       </use>
               </g>
        </defs>

<script type="text/javascript">
var viewWidth = 703;
var viewHeight = 243;
var sectionId = 'dynsection-1';
</script>
<script xlink:href="svgpan.js"/>
<svg id="graph" class="graph">
<g id="viewport">
<title>ft_check_cylinder</title>
<!-- Node1 -->
<g id="node1" class="node">
<title>Node1</title>
<g id="a_node1"><a xlink:title="Checks if cylinder line is correct.">
<polygon fill="#bfbfbf" stroke="black" points="0,-120.11 0,-139.11 101,-139.11 101,-120.11 0,-120.11"/>
<text text-anchor="middle" x="50.5" y="-127.11" font-family="Helvetica,sans-Serif" font-size="10.00">ft_check_cylinder</text>
</a>
</g>
</g>
<!-- Node2 -->
<g id="node2" class="node">
<title>Node2</title>
<g id="a_node2"><a xlink:href="check_8h.html#a542b81308cf530edfa0a3bfdcefb6002" target="_top" xlink:title="Tries to convert str to float and checks range.">
<polygon fill="none" stroke="black" points="454,-177.11 454,-196.11 542,-196.11 542,-177.11 454,-177.11"/>
<text text-anchor="middle" x="498" y="-184.11" font-family="Helvetica,sans-Serif" font-size="10.00">ft_isvalid_float</text>
</a>
</g>
</g>
<!-- Node1&#45;&gt;Node2 -->
<g id="edge1" class="edge">
<title>Node1&#45;&gt;Node2</title>
<path fill="none" stroke="midnightblue" d="M68.21,-139.25C84.99,-148.39 111.89,-161.59 137,-167.61 243.59,-193.19 372.83,-192.66 443.84,-189.78"/>
<polygon fill="midnightblue" stroke="midnightblue" points="444.05,-193.27 453.88,-189.34 443.74,-186.28 444.05,-193.27"/>
</g>
<!-- Node7 -->
<g id="node7" class="node">
<title>Node7</title>
<g id="a_node7"><a xlink:href="check_8h.html#a399912478dc865909526aa87e6c333df" target="_top" xlink:title="Checks three floats, separated by &#39;,&#39;.">
<polygon fill="none" stroke="black" points="137,-139.11 137,-158.11 256,-158.11 256,-139.11 137,-139.11"/>
<text text-anchor="middle" x="196.5" y="-146.11" font-family="Helvetica,sans-Serif" font-size="10.00">ft_isvalid_float_block</text>
</a>
</g>
</g>
<!-- Node1&#45;&gt;Node7 -->
<g id="edge6" class="edge">
<title>Node1&#45;&gt;Node7</title>
<path fill="none" stroke="midnightblue" d="M101.06,-136.15C109.36,-137.25 118.11,-138.4 126.79,-139.55"/>
<polygon fill="midnightblue" stroke="midnightblue" points="126.55,-143.05 136.92,-140.89 127.46,-136.11 126.55,-143.05"/>
</g>
<!-- Node9 -->
<g id="node9" class="node">
<title>Node9</title>
<g id="a_node9"><a xlink:href="check_8h.html#a3327b821f1a4c71183e0448c7023a5aa" target="_top" xlink:title="Checks three rgb values, separated by &#39;,&#39;.">
<polygon fill="none" stroke="black" points="140,-215.11 140,-234.11 253,-234.11 253,-215.11 140,-215.11"/>
<text text-anchor="middle" x="196.5" y="-222.11" font-family="Helvetica,sans-Serif" font-size="10.00">ft_isvalid_rgb_block</text>
</a>
</g>
</g>
<!-- Node1&#45;&gt;Node9 -->
<g id="edge12" class="edge">
<title>Node1&#45;&gt;Node9</title>
<path fill="none" stroke="midnightblue" d="M61.01,-139.21C76.05,-153.96 106.74,-182.43 137,-200.61 143.47,-204.5 150.68,-208.03 157.77,-211.12"/>
<polygon fill="midnightblue" stroke="midnightblue" points="156.71,-214.46 167.29,-215.04 159.38,-207.99 156.71,-214.46"/>
</g>
<!-- Node11 -->
<g id="node11" class="node">
<title>Node11</title>
<g id="a_node11"><a xlink:href="check_8h.html#a806133750c2b871ad705916e6d997f31" target="_top" xlink:title="Checks three floats, separated by &#39;,&#39; and calcs checksum.">
<polygon fill="none" stroke="black" points="143,-101.11 143,-120.11 250,-120.11 250,-101.11 143,-101.11"/>
<text text-anchor="middle" x="196.5" y="-108.11" font-family="Helvetica,sans-Serif" font-size="10.00">ft_isvalid_unit_vec</text>
</a>
</g>
</g>
<!-- Node1&#45;&gt;Node11 -->
<g id="edge17" class="edge">
<title>Node1&#45;&gt;Node11</title>
<path fill="none" stroke="midnightblue" d="M101.06,-123.08C111.29,-121.73 122.2,-120.29 132.83,-118.88"/>
<polygon fill="midnightblue" stroke="midnightblue" points="133.45,-122.33 142.9,-117.55 132.53,-115.39 133.45,-122.33"/>
</g>
<!-- Node15 -->
<g id="node15" class="node">
<title>Node15</title>
<g id="a_node15"><a xlink:href="error__msg_8h.html#a0a61f85709f3119ca9086f591705f294" target="_top" xlink:title="Error message if line doesn&#39;t end with space or zero terminator.">
<polygon fill="none" stroke="black" points="156,-63.11 156,-82.11 237,-82.11 237,-63.11 156,-63.11"/>
<text text-anchor="middle" x="196.5" y="-70.11" font-family="Helvetica,sans-Serif" font-size="10.00">ft_perror_end</text>
</a>
</g>
</g>
<!-- Node1&#45;&gt;Node15 -->
<g id="edge23" class="edge">
<title>Node1&#45;&gt;Node15</title>
<path fill="none" stroke="midnightblue" d="M71.29,-120.11C88.47,-112.04 114.1,-100.4 137,-91.61 142.56,-89.48 148.47,-87.38 154.31,-85.39"/>
<polygon fill="midnightblue" stroke="midnightblue" points="155.63,-88.64 164.02,-82.17 153.42,-82 155.63,-88.64"/>
</g>
<!-- Node16 -->
<g id="node16" class="node">
<title>Node16</title>
<g id="a_node16"><a xlink:href="check_8h.html#a7a10a4efb97dd784c001f96c580d7119" target="_top" xlink:title="Moves line one space or htab forward and sanitizes spaces.">
<polygon fill="none" stroke="black" points="158.5,-25.11 158.5,-44.11 234.5,-44.11 234.5,-25.11 158.5,-25.11"/>
<text text-anchor="middle" x="196.5" y="-32.11" font-family="Helvetica,sans-Serif" font-size="10.00">ft_rm_space</text>
</a>
</g>
</g>
<!-- Node1&#45;&gt;Node16 -->
<g id="edge24" class="edge">
<title>Node1&#45;&gt;Node16</title>
<path fill="none" stroke="midnightblue" d="M59.76,-120.05C74.01,-104.12 104.78,-72.08 137,-53.61 140.7,-51.49 144.67,-49.57 148.73,-47.84"/>
<polygon fill="midnightblue" stroke="midnightblue" points="150.25,-51.01 158.31,-44.14 147.72,-44.48 150.25,-51.01"/>
</g>
<!-- Node3 -->
<g id="node3" class="node">
<title>Node3</title>
<g id="a_node3"><a xlink:href="error__msg_8h.html#a207347473e8d1cf324c6b70fca7155fe" target="_top" xlink:title="Error message if conversion failed.">
<polygon fill="none" stroke="black" points="590,-177.11 590,-196.11 690,-196.11 690,-177.11 590,-177.11"/>
<text text-anchor="middle" x="640" y="-184.11" font-family="Helvetica,sans-Serif" font-size="10.00">ft_perror_convert</text>
</a>
</g>
</g>
<!-- Node2&#45;&gt;Node3 -->
<g id="edge2" class="edge">
<title>Node2&#45;&gt;Node3</title>
<path fill="none" stroke="midnightblue" d="M542.15,-186.61C554.07,-186.61 567.21,-186.61 579.86,-186.61"/>
<polygon fill="midnightblue" stroke="midnightblue" points="579.88,-190.11 589.88,-186.61 579.88,-183.11 579.88,-190.11"/>
</g>
<!-- Node4 -->
<g id="node4" class="node">
<title>Node4</title>
<g id="a_node4"><a xlink:href="error__msg_8h.html#ae79c226d26bf8b2dbd74bf7440eefa7d" target="_top" xlink:title="Error message if converted number is out of range.">
<polygon fill="none" stroke="black" points="594.5,-139.11 594.5,-158.11 685.5,-158.11 685.5,-139.11 594.5,-139.11"/>
<text text-anchor="middle" x="640" y="-146.11" font-family="Helvetica,sans-Serif" font-size="10.00">ft_perror_range</text>
</a>
</g>
</g>
<!-- Node2&#45;&gt;Node4 -->
<g id="edge3" class="edge">
<title>Node2&#45;&gt;Node4</title>
<path fill="none" stroke="midnightblue" d="M534.33,-177.03C552.4,-172.12 574.6,-166.1 593.89,-160.86"/>
<polygon fill="midnightblue" stroke="midnightblue" points="594.95,-164.2 603.68,-158.2 593.12,-157.44 594.95,-164.2"/>
</g>
<!-- Node5 -->
<g id="node5" class="node">
<title>Node5</title>
<g id="a_node5"><a xlink:href="error__msg_8h.html#a66c0aad31fa186667840a2c0a5004099" target="_top" xlink:title="Error message if wrong separator was encountered.">
<polygon fill="none" stroke="black" points="585,-215.11 585,-234.11 695,-234.11 695,-215.11 585,-215.11"/>
<text text-anchor="middle" x="640" y="-222.11" font-family="Helvetica,sans-Serif" font-size="10.00">ft_perror_separator</text>
</a>
</g>
</g>
<!-- Node2&#45;&gt;Node5 -->
<g id="edge4" class="edge">
<title>Node2&#45;&gt;Node5</title>
<path fill="none" stroke="midnightblue" d="M534.33,-196.2C552.4,-201.11 574.6,-207.13 593.89,-212.37"/>
<polygon fill="midnightblue" stroke="midnightblue" points="593.12,-215.79 603.68,-215.03 594.95,-209.03 593.12,-215.79"/>
</g>
<!-- Node6 -->
<g id="node6" class="node">
<title>Node6</title>
<g id="a_node6"><a xlink:href="ft__strtod_8h.html#a0a1cbf0fef2bdcf6fde79c34014bc10e" target="_top" xlink:title="Converts a String to a double.">
<polygon fill="none" stroke="black" points="611.5,-101.11 611.5,-120.11 668.5,-120.11 668.5,-101.11 611.5,-101.11"/>
<text text-anchor="middle" x="640" y="-108.11" font-family="Helvetica,sans-Serif" font-size="10.00">ft_strtod</text>
</a>
</g>
</g>
<!-- Node2&#45;&gt;Node6 -->
<g id="edge5" class="edge">
<title>Node2&#45;&gt;Node6</title>
<path fill="none" stroke="midnightblue" d="M530.74,-177.02C537.05,-174.45 543.44,-171.32 549,-167.61 568.36,-154.71 565.48,-142.27 585,-129.61 590.13,-126.29 595.91,-123.46 601.73,-121.09"/>
<polygon fill="midnightblue" stroke="midnightblue" points="603.29,-124.25 611.47,-117.52 600.87,-117.68 603.29,-124.25"/>
</g>
<!-- Node8 -->
<g id="node8" class="node">
<title>Node8</title>
<g id="a_node8"><a xlink:href="check__line_8c.html#a542b81308cf530edfa0a3bfdcefb6002" target="_top" xlink:title="Tries to convert str to float and checks range.">
<polygon fill="none" stroke="black" points="454,-139.11 454,-158.11 542,-158.11 542,-139.11 454,-139.11"/>
<text text-anchor="middle" x="498" y="-146.11" font-family="Helvetica,sans-Serif" font-size="10.00">ft_isvalid_float</text>
</a>
</g>
</g>
<!-- Node7&#45;&gt;Node8 -->
<g id="edge7" class="edge">
<title>Node7&#45;&gt;Node8</title>
<path fill="none" stroke="midnightblue" d="M256.31,-148.61C310.77,-148.61 391.06,-148.61 443.69,-148.61"/>
<polygon fill="midnightblue" stroke="midnightblue" points="443.83,-152.11 453.83,-148.61 443.83,-145.11 443.83,-152.11"/>
</g>
<!-- Node8&#45;&gt;Node3 -->
<g id="edge8" class="edge">
<title>Node8&#45;&gt;Node3</title>
<path fill="none" stroke="midnightblue" d="M534.33,-158.2C552.4,-163.11 574.6,-169.13 593.89,-174.37"/>
<polygon fill="midnightblue" stroke="midnightblue" points="593.12,-177.79 603.68,-177.03 594.95,-171.03 593.12,-177.79"/>
</g>
<!-- Node8&#45;&gt;Node4 -->
<g id="edge9" class="edge">
<title>Node8&#45;&gt;Node4</title>
<path fill="none" stroke="midnightblue" d="M542.15,-148.61C555.46,-148.61 570.31,-148.61 584.3,-148.61"/>
<polygon fill="midnightblue" stroke="midnightblue" points="584.3,-152.11 594.3,-148.61 584.3,-145.11 584.3,-152.11"/>
</g>
<!-- Node8&#45;&gt;Node5 -->
<g id="edge10" class="edge">
<title>Node8&#45;&gt;Node5</title>
<path fill="none" stroke="midnightblue" d="M530.74,-158.21C537.05,-160.78 543.44,-163.91 549,-167.61 568.36,-180.52 565.48,-192.96 585,-205.61 588.1,-207.63 591.44,-209.45 594.88,-211.11"/>
<polygon fill="midnightblue" stroke="midnightblue" points="593.58,-214.36 604.15,-215.09 596.35,-207.93 593.58,-214.36"/>
</g>
<!-- Node8&#45;&gt;Node6 -->
<g id="edge11" class="edge">
<title>Node8&#45;&gt;Node6</title>
<path fill="none" stroke="midnightblue" d="M534.33,-139.03C554.79,-133.47 580.55,-126.48 601.39,-120.82"/>
<polygon fill="midnightblue" stroke="midnightblue" points="602.45,-124.16 611.18,-118.17 600.62,-117.41 602.45,-124.16"/>
</g>
<!-- Node10 -->
<g id="node10" class="node">
<title>Node10</title>
<g id="a_node10"><a xlink:href="check__line_8c.html#a7884a3e9489248b242a9fb7da9607bf4" target="_top" xlink:title="Tries to convert str into rgb int and checks range.">
<polygon fill="none" stroke="black" points="447,-215.11 447,-234.11 549,-234.11 549,-215.11 447,-215.11"/>
<text text-anchor="middle" x="498" y="-222.11" font-family="Helvetica,sans-Serif" font-size="10.00">ft_isvalid_rgb_val</text>
</a>
</g>
</g>
<!-- Node9&#45;&gt;Node10 -->
<g id="edge13" class="edge">
<title>Node9&#45;&gt;Node10</title>
<path fill="none" stroke="midnightblue" d="M253.13,-224.61C305.26,-224.61 382.97,-224.61 436.59,-224.61"/>
<polygon fill="midnightblue" stroke="midnightblue" points="436.65,-228.11 446.65,-224.61 436.65,-221.11 436.65,-228.11"/>
</g>
<!-- Node10&#45;&gt;Node3 -->
<g id="edge14" class="edge">
<title>Node10&#45;&gt;Node3</title>
<path fill="none" stroke="midnightblue" d="M534.33,-215.03C552.4,-210.12 574.6,-204.1 593.89,-198.86"/>
<polygon fill="midnightblue" stroke="midnightblue" points="594.95,-202.2 603.68,-196.2 593.12,-195.44 594.95,-202.2"/>
</g>
<!-- Node10&#45;&gt;Node4 -->
<g id="edge15" class="edge">
<title>Node10&#45;&gt;Node4</title>
<path fill="none" stroke="midnightblue" d="M530.74,-215.02C537.05,-212.45 543.44,-209.32 549,-205.61 568.36,-192.71 565.48,-180.27 585,-167.61 588.1,-165.6 591.44,-163.78 594.88,-162.12"/>
<polygon fill="midnightblue" stroke="midnightblue" points="596.35,-165.3 604.15,-158.13 593.58,-158.87 596.35,-165.3"/>
</g>
<!-- Node10&#45;&gt;Node5 -->
<g id="edge16" class="edge">
<title>Node10&#45;&gt;Node5</title>
<path fill="none" stroke="midnightblue" d="M549.15,-224.61C557.49,-224.61 566.25,-224.61 574.89,-224.61"/>
<polygon fill="midnightblue" stroke="midnightblue" points="574.94,-228.11 584.94,-224.61 574.94,-221.11 574.94,-228.11"/>
</g>
<!-- Node11&#45;&gt;Node6 -->
<g id="edge22" class="edge">
<title>Node11&#45;&gt;Node6</title>
<path fill="none" stroke="midnightblue" d="M240.9,-101.04C246.37,-98.58 251.59,-95.49 256,-91.61 284.07,-66.94 260.42,-35.6 292,-15.61 336.69,12.67 359.14,-5.24 411,-15.61 488.63,-31.14 572.87,-73.68 613.81,-96.2"/>
<polygon fill="midnightblue" stroke="midnightblue" points="612.13,-99.27 622.57,-101.07 615.53,-93.15 612.13,-99.27"/>
</g>
<!-- Node12 -->
<g id="node12" class="node">
<title>Node12</title>
<g id="a_node12"><a xlink:href="check__line_8c.html#a399912478dc865909526aa87e6c333df" target="_top" xlink:title="Checks three floats, separated by &#39;,&#39;.">
<polygon fill="none" stroke="black" points="292,-25.11 292,-44.11 411,-44.11 411,-25.11 292,-25.11"/>
<text text-anchor="middle" x="351.5" y="-32.11" font-family="Helvetica,sans-Serif" font-size="10.00">ft_isvalid_float_block</text>
</a>
</g>
</g>
<!-- Node11&#45;&gt;Node12 -->
<g id="edge18" class="edge">
<title>Node11&#45;&gt;Node12</title>
<path fill="none" stroke="midnightblue" d="M236.18,-101.08C243.06,-98.56 249.95,-95.43 256,-91.61 275.67,-79.19 272.33,-66.04 292,-53.61 295.31,-51.53 298.87,-49.65 302.54,-47.96"/>
<polygon fill="midnightblue" stroke="midnightblue" points="303.9,-51.18 311.82,-44.15 301.24,-44.71 303.9,-51.18"/>
</g>
<!-- Node13 -->
<g id="node13" class="node">
<title>Node13</title>
<g id="a_node13"><a xlink:href="error__msg_8h.html#a2eafb62e253f9202b5cb80f4d005ed93" target="_top" xlink:title="Error message if vector is not a unit vector.">
<polygon fill="none" stroke="black" points="300,-101.11 300,-120.11 403,-120.11 403,-101.11 300,-101.11"/>
<text text-anchor="middle" x="351.5" y="-108.11" font-family="Helvetica,sans-Serif" font-size="10.00">ft_perror_not_unit</text>
</a>
</g>
</g>
<!-- Node11&#45;&gt;Node13 -->
<g id="edge20" class="edge">
<title>Node11&#45;&gt;Node13</title>
<path fill="none" stroke="midnightblue" d="M250.15,-110.61C262.84,-110.61 276.5,-110.61 289.53,-110.61"/>
<polygon fill="midnightblue" stroke="midnightblue" points="289.82,-114.11 299.82,-110.61 289.82,-107.11 289.82,-114.11"/>
</g>
<!-- Node14 -->
<g id="node14" class="node">
<title>Node14</title>
<g id="a_node14"><a xlink:href="error__msg_8h.html#abd82c129e1342b28d5e8111cf24304f3" target="_top" xlink:title="Warning message if vector is not a unit vector.">
<polygon fill="none" stroke="black" points="292,-63.11 292,-82.11 411,-82.11 411,-63.11 292,-63.11"/>
<text text-anchor="middle" x="351.5" y="-70.11" font-family="Helvetica,sans-Serif" font-size="10.00">ft_pwarning_not_unit</text>
</a>
</g>
</g>
<!-- Node11&#45;&gt;Node14 -->
<g id="edge21" class="edge">
<title>Node11&#45;&gt;Node14</title>
<path fill="none" stroke="midnightblue" d="M236.11,-101.03C256.21,-96.03 280.98,-89.88 302.32,-84.58"/>
<polygon fill="midnightblue" stroke="midnightblue" points="303.31,-87.94 312.17,-82.13 301.62,-81.15 303.31,-87.94"/>
</g>
<!-- Node12&#45;&gt;Node8 -->
<g id="edge19" class="edge">
<title>Node12&#45;&gt;Node8</title>
<path fill="none" stroke="midnightblue" d="M391.56,-44.15C398.33,-46.67 405.08,-49.78 411,-53.61 442.72,-74.15 470.21,-109.26 485.12,-130.56"/>
<polygon fill="midnightblue" stroke="midnightblue" points="482.36,-132.73 490.88,-139.02 488.14,-128.79 482.36,-132.73"/>
</g>
</g>
</svg>
        <g id="navigator" transform="translate(0 0)" fill="#404254">
                <rect fill="#f2f5e9" fill-opacity="0.5" stroke="#606060" stroke-width=".5" x="0" y="0" width="60" height="60"/>
                <use id="zoomplus" xlink:href="#zoomPlus" x="17" y="9" onmousedown="handleZoom(evt,'in')"/>
                <use id="zoomminus" xlink:href="#zoomMin" x="42" y="9" onmousedown="handleZoom(evt,'out')"/>
                <use id="reset" xlink:href="#resetDef" x="30" y="36" onmousedown="handleReset()"/>
                <g id="arrowUp" xlink:href="#dirArrow" transform="translate(30 24)" onmousedown="handlePan(0,-1)">
                  <use xlink:href="#rim" fill="#404040">
                        <set attributeName="fill" to="#808080" begin="arrowUp.mouseover" end="arrowUp.mouseout"/>
                  </use>
                  <path fill="none" stroke="white" stroke-width="1.5" d="M0,-3.0v7 M-2.5,-0.5L0,-3.0L2.5,-0.5"/>
                </g>
                <g id="arrowRight" xlink:href="#dirArrow" transform="rotate(90) translate(36 -43)" onmousedown="handlePan(1,0)">
                  <use xlink:href="#rim" fill="#404040">
                        <set attributeName="fill" to="#808080" begin="arrowRight.mouseover" end="arrowRight.mouseout"/>
                  </use>
                  <path fill="none" stroke="white" stroke-width="1.5" d="M0,-3.0v7 M-2.5,-0.5L0,-3.0L2.5,-0.5"/>
                </g>
                <g id="arrowDown" xlink:href="#dirArrow" transform="rotate(180) translate(-30 -48)" onmousedown="handlePan(0,1)">
                  <use xlink:href="#rim" fill="#404040">
                        <set attributeName="fill" to="#808080" begin="arrowDown.mouseover" end="arrowDown.mouseout"/>
                  </use>
                  <path fill="none" stroke="white" stroke-width="1.5" d="M0,-3.0v7 M-2.5,-0.5L0,-3.0L2.5,-0.5"/>
                </g>
                <g id="arrowLeft" xlink:href="#dirArrow" transform="rotate(270) translate(-36 17)" onmousedown="handlePan(-1,0)">
                  <use xlink:href="#rim" fill="#404040">
                        <set attributeName="fill" to="#808080" begin="arrowLeft.mouseover" end="arrowLeft.mouseout"/>
                  </use>
                  <path fill="none" stroke="white" stroke-width="1.5" d="M0,-3.0v7 M-2.5,-0.5L0,-3.0L2.5,-0.5"/>
                </g>
        </g>
        <svg viewBox="0 0 15 15" width="100%" height="30px" preserveAspectRatio="xMaxYMin meet">
         <g id="arrow_out" transform="scale(0.3 0.3)">
          <a xlink:href="check__entity__sp__pl__cy_8c_ae60d55778d26a79bd9d60676862afcac_cgraph_org.svg" target="_base">
           <rect id="button" ry="5" rx="5" y="6" x="6" height="38" width="38"
                fill="#f2f5e9" fill-opacity="0.5" stroke="#606060" stroke-width="1.0"/>
           <path id="arrow"
             d="M 11.500037,31.436501 C 11.940474,20.09759 22.043105,11.32322 32.158766,21.979434 L 37.068811,17.246167 C 37.068811,17.246167 37.088388,32 37.088388,32 L 22.160133,31.978069 C 22.160133,31.978069 26.997745,27.140456 26.997745,27.140456 C 18.528582,18.264221 13.291696,25.230495 11.500037,31.436501 z"
             style="fill:#404040;"/>
          </a>
         </g>
        </svg>
</svg>
