<?xml version="1.0" encoding="UTF-8" standalone="no"?>
<!DOCTYPE svg PUBLIC "-//W3C//DTD SVG 1.1//EN"
 "http://www.w3.org/Graphics/SVG/1.1/DTD/svg11.dtd">
<!-- Generated by graphviz version 2.43.0 (0)
 -->
<!-- Title: ft_check_lines_bonus Pages: 1 -->
<!--zoomable 350 -->
<svg id="main" version="1.1" xmlns="http://www.w3.org/2000/svg" xmlns:xlink="http://www.w3.org/1999/xlink" xml:space="preserve" onload="init(evt)">
<style type="text/css"><![CDATA[
.edge:hover path { stroke: red; }
.edge:hover polygon { stroke: red; fill: red; }
]]></style>
<script type="text/javascript"><![CDATA[
var edges = document.getElementsByTagName('g');
if (edges && edges.length) {
  for (var i=0;i<edges.length;i++) {
    if (edges[i].id.substr(0,4)=='edge') {
      edges[i].setAttribute('class','edge');
    }
  }
}
]]></script>
        <defs>
                <circle id="rim" cx="0" cy="0" r="7"/>
                <circle id="rim2" cx="0" cy="0" r="3.5"/>
                <g id="zoomPlus">
                        <use xlink:href="#rim" fill="#404040">
                                <set attributeName="fill" to="#808080" begin="zoomplus.mouseover" end="zoomplus.mouseout"/>
                        </use>
                        <path d="M-4,0h8M0,-4v8" fill="none" stroke="white" stroke-width="1.5" pointer-events="none"/>
                </g>
                <g id="zoomMin">
                        <use xlink:href="#rim" fill="#404040">
                                <set attributeName="fill" to="#808080" begin="zoomminus.mouseover" end="zoomminus.mouseout"/>
                        </use>
                        <path d="M-4,0h8" fill="none" stroke="white" stroke-width="1.5" pointer-events="none"/>
                </g>
                <g id="dirArrow">
                        <path fill="none" stroke="white" stroke-width="1.5" d="M0,-3.0v7 M-2.5,-0.5L0,-3.0L2.5,-0.5"/>
                </g>
               <g id="resetDef">
                       <use xlink:href="#rim2" fill="#404040">
                               <set attributeName="fill" to="#808080" begin="reset.mouseover" end="reset.mouseout"/>
                       </use>
               </g>
        </defs>

<script type="text/javascript">
var viewWidth = 1064;
var viewHeight = 350;
var sectionId = 'dynsection-9';
</script>
<script xlink:href="svgpan.js"/>
<svg id="graph" class="graph">
<g id="viewport">
<title>ft_check_lines_bonus</title>
<!-- Node1 -->
<g id="node1" class="node">
<title>Node1</title>
<g id="a_node1"><a xlink:title="Check array of imported lines.">
<polygon fill="#bfbfbf" stroke="black" points="0,-183.5 0,-202.5 120,-202.5 120,-183.5 0,-183.5"/>
<text text-anchor="middle" x="60" y="-190.5" font-family="Helvetica,sans-Serif" font-size="10.00">ft_check_lines_bonus</text>
</a>
</g>
</g>
<!-- Node2 -->
<g id="node2" class="node">
<title>Node2</title>
<g id="a_node2"><a xlink:href="check_8h.html#a4560f2d54698ffbfb8262bc7cad02768" target="_top" xlink:title="Check if minimum number of specific entities was found.">
<polygon fill="none" stroke="black" points="161.5,-295.5 161.5,-314.5 284.5,-314.5 284.5,-295.5 161.5,-295.5"/>
<text text-anchor="middle" x="223" y="-302.5" font-family="Helvetica,sans-Serif" font-size="10.00">ft_check_entity_count</text>
</a>
</g>
</g>
<!-- Node1&#45;&gt;Node2 -->
<g id="edge1" class="edge">
<title>Node1&#45;&gt;Node2</title>
<path fill="none" stroke="midnightblue" d="M71.64,-202.55C88.72,-217.63 123.64,-247.47 156,-269 167.83,-276.87 181.54,-284.56 193.39,-290.8"/>
<polygon fill="midnightblue" stroke="midnightblue" points="191.93,-293.98 202.42,-295.46 195.14,-287.76 191.93,-293.98"/>
</g>
<!-- Node4 -->
<g id="node4" class="node">
<title>Node4</title>
<g id="a_node4"><a xlink:href="check__bonus_8c.html#ae33774d34021cd6fec6863eff3e8e3b0" target="_top" xlink:title="Dispatch function for different line types.">
<polygon fill="none" stroke="black" points="169.5,-156 169.5,-186 276.5,-186 276.5,-156 169.5,-156"/>
<text text-anchor="start" x="177.5" y="-174" font-family="Helvetica,sans-Serif" font-size="10.00">ft_check_line_type</text>
<text text-anchor="middle" x="223" y="-163" font-family="Helvetica,sans-Serif" font-size="10.00">_bonus</text>
</a>
</g>
</g>
<!-- Node1&#45;&gt;Node4 -->
<g id="edge3" class="edge">
<title>Node1&#45;&gt;Node4</title>
<path fill="none" stroke="midnightblue" d="M120.04,-184.93C132.78,-183.19 146.3,-181.34 159.19,-179.58"/>
<polygon fill="midnightblue" stroke="midnightblue" points="159.93,-183.01 169.36,-178.19 158.98,-176.08 159.93,-183.01"/>
</g>
<!-- Node28 -->
<g id="node28" class="node">
<title>Node28</title>
<g id="a_node28"><a xlink:href="check__bonus_8c.html#a51318eb9ecfb0e802dc1854503517b55" target="_top" xlink:title="Increase entity count, and check if too many.">
<polygon fill="none" stroke="black" points="156,-240.5 156,-259.5 290,-259.5 290,-240.5 156,-240.5"/>
<text text-anchor="middle" x="223" y="-247.5" font-family="Helvetica,sans-Serif" font-size="10.00">ft_incr_ent_count_bonus</text>
</a>
</g>
</g>
<!-- Node1&#45;&gt;Node28 -->
<g id="edge64" class="edge">
<title>Node1&#45;&gt;Node28</title>
<path fill="none" stroke="midnightblue" d="M87.95,-202.54C114.65,-211.99 155.74,-226.54 185.39,-237.04"/>
<polygon fill="midnightblue" stroke="midnightblue" points="184.37,-240.39 194.96,-240.43 186.71,-233.79 184.37,-240.39"/>
</g>
<!-- Node29 -->
<g id="node29" class="node">
<title>Node29</title>
<g id="a_node29"><a xlink:href="error__msg_8h.html#a278f4b45a52fcddd1925e2b9c50266ed" target="_top" xlink:title="Print error message with a number.">
<polygon fill="none" stroke="black" points="172.5,-117.5 172.5,-136.5 273.5,-136.5 273.5,-117.5 172.5,-117.5"/>
<text text-anchor="middle" x="223" y="-124.5" font-family="Helvetica,sans-Serif" font-size="10.00">ft_perror_number</text>
</a>
</g>
</g>
<!-- Node1&#45;&gt;Node29 -->
<g id="edge66" class="edge">
<title>Node1&#45;&gt;Node29</title>
<path fill="none" stroke="midnightblue" d="M78.84,-183.32C97.65,-173.36 128.35,-157.81 156,-147 162.75,-144.36 169.99,-141.86 177.12,-139.56"/>
<polygon fill="midnightblue" stroke="midnightblue" points="178.2,-142.89 186.71,-136.58 176.13,-136.21 178.2,-142.89"/>
</g>
<!-- Node3 -->
<g id="node3" class="node">
<title>Node3</title>
<g id="a_node3"><a xlink:href="error__msg_8h.html#a55f805a774b02619d20d73cba9e90de3" target="_top" xlink:title="Error message if entity count is not correct.">
<polygon fill="none" stroke="black" points="349,-304.5 349,-323.5 439,-323.5 439,-304.5 349,-304.5"/>
<text text-anchor="middle" x="394" y="-311.5" font-family="Helvetica,sans-Serif" font-size="10.00">ft_perror_count</text>
</a>
</g>
</g>
<!-- Node2&#45;&gt;Node3 -->
<g id="edge2" class="edge">
<title>Node2&#45;&gt;Node3</title>
<path fill="none" stroke="midnightblue" d="M284.54,-308.22C302.1,-309.16 321.18,-310.18 338.37,-311.09"/>
<polygon fill="midnightblue" stroke="midnightblue" points="338.62,-314.61 348.79,-311.65 338.99,-307.62 338.62,-314.61"/>
</g>
<!-- Node5 -->
<g id="node5" class="node">
<title>Node5</title>
<g id="a_node5"><a xlink:href="check_8h.html#a3a4c3e635c4a6af8ef53d70ea5e7cb44" target="_top" xlink:title="Checks if ambient light line is correct.">
<polygon fill="none" stroke="black" points="342.5,-0.5 342.5,-19.5 445.5,-19.5 445.5,-0.5 342.5,-0.5"/>
<text text-anchor="middle" x="394" y="-7.5" font-family="Helvetica,sans-Serif" font-size="10.00">ft_check_ambient</text>
</a>
</g>
</g>
<!-- Node4&#45;&gt;Node5 -->
<g id="edge4" class="edge">
<title>Node4&#45;&gt;Node5</title>
<path fill="none" stroke="midnightblue" d="M276.59,-156.43C281.54,-153.55 286.14,-150.11 290,-146 327.23,-106.33 287.11,-67.04 326,-29 328.26,-26.79 330.76,-24.83 333.42,-23.1"/>
<polygon fill="midnightblue" stroke="midnightblue" points="335.24,-26.1 342.4,-18.29 331.94,-19.92 335.24,-26.1"/>
</g>
<!-- Node15 -->
<g id="node15" class="node">
<title>Node15</title>
<g id="a_node15"><a xlink:href="check_8h.html#ac18c6a2c8fb4ffdeac62341cc67c9675" target="_top" xlink:title="Checks if camera line is correct.">
<polygon fill="none" stroke="black" points="344.5,-266.5 344.5,-285.5 443.5,-285.5 443.5,-266.5 344.5,-266.5"/>
<text text-anchor="middle" x="394" y="-273.5" font-family="Helvetica,sans-Serif" font-size="10.00">ft_check_camera</text>
</a>
</g>
</g>
<!-- Node4&#45;&gt;Node15 -->
<g id="edge17" class="edge">
<title>Node4&#45;&gt;Node15</title>
<path fill="none" stroke="midnightblue" d="M240.37,-186.29C264.16,-208.25 307.49,-247.16 326,-257 330.25,-259.26 334.79,-261.27 339.44,-263.06"/>
<polygon fill="midnightblue" stroke="midnightblue" points="338.47,-266.43 349.06,-266.44 340.78,-259.83 338.47,-266.43"/>
</g>
<!-- Node22 -->
<g id="node22" class="node">
<title>Node22</title>
<g id="a_node22"><a xlink:href="check__bonus_8h.html#a4044338fccd6b0e9b3e61c2e0c69db12" target="_top" xlink:title="Checks if cone line is correct.">
<polygon fill="none" stroke="black" points="334,-114.5 334,-133.5 454,-133.5 454,-114.5 334,-114.5"/>
<text text-anchor="middle" x="394" y="-121.5" font-family="Helvetica,sans-Serif" font-size="10.00">ft_check_cone_bonus</text>
</a>
</g>
</g>
<!-- Node4&#45;&gt;Node22 -->
<g id="edge33" class="edge">
<title>Node4&#45;&gt;Node22</title>
<path fill="none" stroke="midnightblue" d="M276.55,-156.39C299.74,-149.94 326.69,-142.44 348.83,-136.28"/>
<polygon fill="midnightblue" stroke="midnightblue" points="349.93,-139.61 358.63,-133.56 348.06,-132.87 349.93,-139.61"/>
</g>
<!-- Node23 -->
<g id="node23" class="node">
<title>Node23</title>
<g id="a_node23"><a xlink:href="check__bonus_8h.html#a4ec77f79add9f7abed23e5b3dd45e94a" target="_top" xlink:title="Checks if cylinder line is correct.">
<polygon fill="none" stroke="black" points="326,-228.5 326,-247.5 462,-247.5 462,-228.5 326,-228.5"/>
<text text-anchor="middle" x="394" y="-235.5" font-family="Helvetica,sans-Serif" font-size="10.00">ft_check_cylinder_bonus</text>
</a>
</g>
</g>
<!-- Node4&#45;&gt;Node23 -->
<g id="edge39" class="edge">
<title>Node4&#45;&gt;Node23</title>
<path fill="none" stroke="midnightblue" d="M252.91,-186.16C273.04,-196.33 300.7,-209.53 326,-219 332.09,-221.28 338.59,-223.44 345.04,-225.43"/>
<polygon fill="midnightblue" stroke="midnightblue" points="344.51,-228.93 355.09,-228.42 346.5,-222.21 344.51,-228.93"/>
</g>
<!-- Node24 -->
<g id="node24" class="node">
<title>Node24</title>
<g id="a_node24"><a xlink:href="check_8h.html#a13cb8b89e2be82f5148f2dba42b550e8" target="_top" xlink:title="Checks if light line is correct.">
<polygon fill="none" stroke="black" points="352,-76.5 352,-95.5 436,-95.5 436,-76.5 352,-76.5"/>
<text text-anchor="middle" x="394" y="-83.5" font-family="Helvetica,sans-Serif" font-size="10.00">ft_check_light</text>
</a>
</g>
</g>
<!-- Node4&#45;&gt;Node24 -->
<g id="edge45" class="edge">
<title>Node4&#45;&gt;Node24</title>
<path fill="none" stroke="midnightblue" d="M272.27,-155.91C278.48,-153.06 284.56,-149.77 290,-146 309.93,-132.18 305.5,-117.95 326,-105 330.98,-101.86 336.48,-99.22 342.14,-97.02"/>
<polygon fill="midnightblue" stroke="midnightblue" points="343.43,-100.27 351.73,-93.69 341.14,-93.66 343.43,-100.27"/>
</g>
<!-- Node25 -->
<g id="node25" class="node">
<title>Node25</title>
<g id="a_node25"><a xlink:href="check__bonus_8h.html#a553c09de200f4ad19c33ab26d11adc29" target="_top" xlink:title="Checks if plane line is correct.">
<polygon fill="none" stroke="black" points="332,-38.5 332,-57.5 456,-57.5 456,-38.5 332,-38.5"/>
<text text-anchor="middle" x="394" y="-45.5" font-family="Helvetica,sans-Serif" font-size="10.00">ft_check_plane_bonus</text>
</a>
</g>
</g>
<!-- Node4&#45;&gt;Node25 -->
<g id="edge51" class="edge">
<title>Node4&#45;&gt;Node25</title>
<path fill="none" stroke="midnightblue" d="M276.07,-155.91C281.12,-153.13 285.89,-149.85 290,-146 318.16,-119.62 296.73,-92.14 326,-67 327.97,-65.31 330.07,-63.77 332.28,-62.37"/>
<polygon fill="midnightblue" stroke="midnightblue" points="334.05,-65.39 341.24,-57.61 330.77,-59.21 334.05,-65.39"/>
</g>
<!-- Node26 -->
<g id="node26" class="node">
<title>Node26</title>
<g id="a_node26"><a xlink:href="check__bonus_8h.html#a649377d201faaa526ad3c355da745325" target="_top" xlink:title="Checks if sphere line is correct.">
<polygon fill="none" stroke="black" points="329,-152.5 329,-171.5 459,-171.5 459,-152.5 329,-152.5"/>
<text text-anchor="middle" x="394" y="-159.5" font-family="Helvetica,sans-Serif" font-size="10.00">ft_check_sphere_bonus</text>
</a>
</g>
</g>
<!-- Node4&#45;&gt;Node26 -->
<g id="edge57" class="edge">
<title>Node4&#45;&gt;Node26</title>
<path fill="none" stroke="midnightblue" d="M276.55,-168.2C289.88,-167.49 304.46,-166.72 318.65,-165.96"/>
<polygon fill="midnightblue" stroke="midnightblue" points="319.09,-169.44 328.89,-165.41 318.72,-162.45 319.09,-169.44"/>
</g>
<!-- Node27 -->
<g id="node27" class="node">
<title>Node27</title>
<g id="a_node27"><a xlink:href="error__msg_8h.html#aee5d10b82b6780869c9cc69cd64e44cc" target="_top" xlink:title="Print generic error message.">
<polygon fill="none" stroke="black" points="365,-190.5 365,-209.5 423,-209.5 423,-190.5 365,-190.5"/>
<text text-anchor="middle" x="394" y="-197.5" font-family="Helvetica,sans-Serif" font-size="10.00">ft_perror</text>
</a>
</g>
</g>
<!-- Node4&#45;&gt;Node27 -->
<g id="edge63" class="edge">
<title>Node4&#45;&gt;Node27</title>
<path fill="none" stroke="midnightblue" d="M276.55,-180.02C301.75,-184.34 331.41,-189.43 354.49,-193.39"/>
<polygon fill="midnightblue" stroke="midnightblue" points="354.14,-196.88 364.59,-195.12 355.32,-189.98 354.14,-196.88"/>
</g>
<!-- Node6 -->
<g id="node6" class="node">
<title>Node6</title>
<g id="a_node6"><a xlink:href="check_8h.html#a542b81308cf530edfa0a3bfdcefb6002" target="_top" xlink:title="Tries to convert str to float and checks range.">
<polygon fill="none" stroke="black" points="513.5,-114.5 513.5,-133.5 601.5,-133.5 601.5,-114.5 513.5,-114.5"/>
<text text-anchor="middle" x="557.5" y="-121.5" font-family="Helvetica,sans-Serif" font-size="10.00">ft_isvalid_float</text>
</a>
</g>
</g>
<!-- Node5&#45;&gt;Node6 -->
<g id="edge5" class="edge">
<title>Node5&#45;&gt;Node6</title>
<path fill="none" stroke="midnightblue" d="M445.69,-19.23C451.59,-21.74 457.2,-24.94 462,-29 490.53,-53.15 469.93,-80.32 498,-105 499.96,-106.73 502.09,-108.3 504.32,-109.73"/>
<polygon fill="midnightblue" stroke="midnightblue" points="502.93,-112.95 513.4,-114.56 506.22,-106.77 502.93,-112.95"/>
</g>
<!-- Node11 -->
<g id="node11" class="node">
<title>Node11</title>
<g id="a_node11"><a xlink:href="check_8h.html#a3327b821f1a4c71183e0448c7023a5aa" target="_top" xlink:title="Checks three rgb values, separated by &#39;,&#39;.">
<polygon fill="none" stroke="black" points="501,-38.5 501,-57.5 614,-57.5 614,-38.5 501,-38.5"/>
<text text-anchor="middle" x="557.5" y="-45.5" font-family="Helvetica,sans-Serif" font-size="10.00">ft_isvalid_rgb_block</text>
</a>
</g>
</g>
<!-- Node5&#45;&gt;Node11 -->
<g id="edge10" class="edge">
<title>Node5&#45;&gt;Node11</title>
<path fill="none" stroke="midnightblue" d="M435.75,-19.59C457.16,-24.63 483.59,-30.84 506.25,-36.18"/>
<polygon fill="midnightblue" stroke="midnightblue" points="505.5,-39.6 516.04,-38.48 507.11,-32.78 505.5,-39.6"/>
</g>
<!-- Node13 -->
<g id="node13" class="node">
<title>Node13</title>
<g id="a_node13"><a xlink:href="error__msg_8h.html#a0a61f85709f3119ca9086f591705f294" target="_top" xlink:title="Error message if line doesn&#39;t end with space or zero terminator.">
<polygon fill="none" stroke="black" points="517,-152.5 517,-171.5 598,-171.5 598,-152.5 517,-152.5"/>
<text text-anchor="middle" x="557.5" y="-159.5" font-family="Helvetica,sans-Serif" font-size="10.00">ft_perror_end</text>
</a>
</g>
</g>
<!-- Node5&#45;&gt;Node13 -->
<g id="edge15" class="edge">
<title>Node5&#45;&gt;Node13</title>
<path fill="none" stroke="midnightblue" d="M445.56,-18.33C451.63,-20.98 457.32,-24.45 462,-29 500.12,-66.01 460.58,-105.28 498,-143 500.84,-145.86 504.11,-148.29 507.63,-150.36"/>
<polygon fill="midnightblue" stroke="midnightblue" points="506.24,-153.57 516.76,-154.77 509.28,-147.27 506.24,-153.57"/>
</g>
<!-- Node14 -->
<g id="node14" class="node">
<title>Node14</title>
<g id="a_node14"><a xlink:href="check_8h.html#a7a10a4efb97dd784c001f96c580d7119" target="_top" xlink:title="Moves line one space or htab forward and sanitizes spaces.">
<polygon fill="none" stroke="black" points="519.5,-76.5 519.5,-95.5 595.5,-95.5 595.5,-76.5 519.5,-76.5"/>
<text text-anchor="middle" x="557.5" y="-83.5" font-family="Helvetica,sans-Serif" font-size="10.00">ft_rm_space</text>
</a>
</g>
</g>
<!-- Node5&#45;&gt;Node14 -->
<g id="edge16" class="edge">
<title>Node5&#45;&gt;Node14</title>
<path fill="none" stroke="midnightblue" d="M441.07,-19.51C448.35,-22 455.59,-25.12 462,-29 481.9,-41.05 478.33,-54.58 498,-67 501.76,-69.37 505.84,-71.48 510.04,-73.34"/>
<polygon fill="midnightblue" stroke="midnightblue" points="508.77,-76.6 519.35,-77.03 511.35,-70.09 508.77,-76.6"/>
</g>
<!-- Node7 -->
<g id="node7" class="node">
<title>Node7</title>
<g id="a_node7"><a xlink:href="error__msg_8h.html#a207347473e8d1cf324c6b70fca7155fe" target="_top" xlink:title="Error message if conversion failed.">
<polygon fill="none" stroke="black" points="951,-76.5 951,-95.5 1051,-95.5 1051,-76.5 951,-76.5"/>
<text text-anchor="middle" x="1001" y="-83.5" font-family="Helvetica,sans-Serif" font-size="10.00">ft_perror_convert</text>
</a>
</g>
</g>
<!-- Node6&#45;&gt;Node7 -->
<g id="edge6" class="edge">
<title>Node6&#45;&gt;Node7</title>
<path fill="none" stroke="midnightblue" d="M601.64,-120.29C681.03,-113.45 850.4,-98.88 940.59,-91.11"/>
<polygon fill="midnightblue" stroke="midnightblue" points="941,-94.59 950.66,-90.25 940.4,-87.62 941,-94.59"/>
</g>
<!-- Node8 -->
<g id="node8" class="node">
<title>Node8</title>
<g id="a_node8"><a xlink:href="error__msg_8h.html#ae79c226d26bf8b2dbd74bf7440eefa7d" target="_top" xlink:title="Error message if converted number is out of range.">
<polygon fill="none" stroke="black" points="955.5,-38.5 955.5,-57.5 1046.5,-57.5 1046.5,-38.5 955.5,-38.5"/>
<text text-anchor="middle" x="1001" y="-45.5" font-family="Helvetica,sans-Serif" font-size="10.00">ft_perror_range</text>
</a>
</g>
</g>
<!-- Node6&#45;&gt;Node8 -->
<g id="edge7" class="edge">
<title>Node6&#45;&gt;Node8</title>
<path fill="none" stroke="midnightblue" d="M589.29,-114.41C598.27,-111.51 608.06,-108.23 617,-105 702.94,-73.98 718.27,-46.2 808,-29 857.78,-19.46 915.8,-27.84 954.92,-36.28"/>
<polygon fill="midnightblue" stroke="midnightblue" points="954.17,-39.7 964.69,-38.48 955.7,-32.87 954.17,-39.7"/>
</g>
<!-- Node9 -->
<g id="node9" class="node">
<title>Node9</title>
<g id="a_node9"><a xlink:href="error__msg_8h.html#a66c0aad31fa186667840a2c0a5004099" target="_top" xlink:title="Error message if wrong separator was encountered.">
<polygon fill="none" stroke="black" points="946,-114.5 946,-133.5 1056,-133.5 1056,-114.5 946,-114.5"/>
<text text-anchor="middle" x="1001" y="-121.5" font-family="Helvetica,sans-Serif" font-size="10.00">ft_perror_separator</text>
</a>
</g>
</g>
<!-- Node6&#45;&gt;Node9 -->
<g id="edge8" class="edge">
<title>Node6&#45;&gt;Node9</title>
<path fill="none" stroke="midnightblue" d="M601.64,-124C679.57,-124 844.19,-124 935.53,-124"/>
<polygon fill="midnightblue" stroke="midnightblue" points="935.75,-127.5 945.75,-124 935.75,-120.5 935.75,-127.5"/>
</g>
<!-- Node10 -->
<g id="node10" class="node">
<title>Node10</title>
<g id="a_node10"><a xlink:href="ft__strtod_8h.html#a0a1cbf0fef2bdcf6fde79c34014bc10e" target="_top" xlink:title="Converts a String to a double.">
<polygon fill="none" stroke="black" points="972.5,-228.5 972.5,-247.5 1029.5,-247.5 1029.5,-228.5 972.5,-228.5"/>
<text text-anchor="middle" x="1001" y="-235.5" font-family="Helvetica,sans-Serif" font-size="10.00">ft_strtod</text>
</a>
</g>
</g>
<!-- Node6&#45;&gt;Node10 -->
<g id="edge9" class="edge">
<title>Node6&#45;&gt;Node10</title>
<path fill="none" stroke="midnightblue" d="M601.6,-133.44C607.18,-135.92 612.51,-139.05 617,-143 645.07,-167.68 621.98,-198.16 653,-219 702.61,-252.33 883.24,-245.45 962.4,-240.64"/>
<polygon fill="midnightblue" stroke="midnightblue" points="962.67,-244.13 972.43,-240.01 962.22,-237.14 962.67,-244.13"/>
</g>
<!-- Node12 -->
<g id="node12" class="node">
<title>Node12</title>
<g id="a_node12"><a xlink:href="check__line_8c.html#a7884a3e9489248b242a9fb7da9607bf4" target="_top" xlink:title="Tries to convert str into rgb int and checks range.">
<polygon fill="none" stroke="black" points="808,-38.5 808,-57.5 910,-57.5 910,-38.5 808,-38.5"/>
<text text-anchor="middle" x="859" y="-45.5" font-family="Helvetica,sans-Serif" font-size="10.00">ft_isvalid_rgb_val</text>
</a>
</g>
</g>
<!-- Node11&#45;&gt;Node12 -->
<g id="edge11" class="edge">
<title>Node11&#45;&gt;Node12</title>
<path fill="none" stroke="midnightblue" d="M614.13,-48C666.26,-48 743.97,-48 797.59,-48"/>
<polygon fill="midnightblue" stroke="midnightblue" points="797.65,-51.5 807.65,-48 797.65,-44.5 797.65,-51.5"/>
</g>
<!-- Node12&#45;&gt;Node7 -->
<g id="edge12" class="edge">
<title>Node12&#45;&gt;Node7</title>
<path fill="none" stroke="midnightblue" d="M895.33,-57.59C913.4,-62.49 935.6,-68.52 954.89,-73.76"/>
<polygon fill="midnightblue" stroke="midnightblue" points="954.12,-77.17 964.68,-76.41 955.95,-70.42 954.12,-77.17"/>
</g>
<!-- Node12&#45;&gt;Node8 -->
<g id="edge13" class="edge">
<title>Node12&#45;&gt;Node8</title>
<path fill="none" stroke="midnightblue" d="M910.15,-48C921.44,-48 933.49,-48 944.97,-48"/>
<polygon fill="midnightblue" stroke="midnightblue" points="945.32,-51.5 955.32,-48 945.32,-44.5 945.32,-51.5"/>
</g>
<!-- Node12&#45;&gt;Node9 -->
<g id="edge14" class="edge">
<title>Node12&#45;&gt;Node9</title>
<path fill="none" stroke="midnightblue" d="M872.23,-57.52C888.4,-69.77 918.1,-91.11 946,-105 950.11,-107.05 954.51,-108.98 958.94,-110.76"/>
<polygon fill="midnightblue" stroke="midnightblue" points="958.03,-114.16 968.62,-114.43 960.51,-107.61 958.03,-114.16"/>
</g>
<!-- Node15&#45;&gt;Node6 -->
<g id="edge18" class="edge">
<title>Node15&#45;&gt;Node6</title>
<path fill="none" stroke="midnightblue" d="M443.53,-268.53C450.35,-265.78 456.8,-262.05 462,-257 500.12,-219.99 460.58,-180.72 498,-143 499.91,-141.08 502.01,-139.35 504.26,-137.79"/>
<polygon fill="midnightblue" stroke="midnightblue" points="506.46,-140.57 513.48,-132.62 503.04,-134.46 506.46,-140.57"/>
</g>
<!-- Node15&#45;&gt;Node13 -->
<g id="edge31" class="edge">
<title>Node15&#45;&gt;Node13</title>
<path fill="none" stroke="midnightblue" d="M443.63,-267.61C450.28,-264.98 456.65,-261.53 462,-257 490.53,-232.85 469.93,-205.68 498,-181 500.85,-178.49 504.05,-176.31 507.43,-174.42"/>
<polygon fill="midnightblue" stroke="midnightblue" points="509.15,-177.48 516.71,-170.05 506.17,-171.14 509.15,-177.48"/>
</g>
<!-- Node15&#45;&gt;Node14 -->
<g id="edge32" class="edge">
<title>Node15&#45;&gt;Node14</title>
<path fill="none" stroke="midnightblue" d="M443.52,-269C450.43,-266.2 456.9,-262.33 462,-257 510,-206.85 450.95,-156.05 498,-105 501.39,-101.32 505.51,-98.35 509.97,-95.95"/>
<polygon fill="midnightblue" stroke="midnightblue" points="511.71,-99.01 519.47,-91.79 508.91,-92.59 511.71,-99.01"/>
</g>
<!-- Node16 -->
<g id="node16" class="node">
<title>Node16</title>
<g id="a_node16"><a xlink:href="check_8h.html#a399912478dc865909526aa87e6c333df" target="_top" xlink:title="Checks three floats, separated by &#39;,&#39;.">
<polygon fill="none" stroke="black" points="498,-190.5 498,-209.5 617,-209.5 617,-190.5 498,-190.5"/>
<text text-anchor="middle" x="557.5" y="-197.5" font-family="Helvetica,sans-Serif" font-size="10.00">ft_isvalid_float_block</text>
</a>
</g>
</g>
<!-- Node15&#45;&gt;Node16 -->
<g id="edge19" class="edge">
<title>Node15&#45;&gt;Node16</title>
<path fill="none" stroke="midnightblue" d="M435.29,-266.46C444.24,-263.82 453.57,-260.66 462,-257 488.28,-245.59 516.1,-228.06 534.7,-215.46"/>
<polygon fill="midnightblue" stroke="midnightblue" points="536.79,-218.27 543.04,-209.71 532.82,-212.5 536.79,-218.27"/>
</g>
<!-- Node18 -->
<g id="node18" class="node">
<title>Node18</title>
<g id="a_node18"><a xlink:href="check_8h.html#a806133750c2b871ad705916e6d997f31" target="_top" xlink:title="Checks three floats, separated by &#39;,&#39; and calcs checksum.">
<polygon fill="none" stroke="black" points="504,-266.5 504,-285.5 611,-285.5 611,-266.5 504,-266.5"/>
<text text-anchor="middle" x="557.5" y="-273.5" font-family="Helvetica,sans-Serif" font-size="10.00">ft_isvalid_unit_vec</text>
</a>
</g>
</g>
<!-- Node15&#45;&gt;Node18 -->
<g id="edge25" class="edge">
<title>Node15&#45;&gt;Node18</title>
<path fill="none" stroke="midnightblue" d="M443.89,-276C459.58,-276 477.17,-276 493.71,-276"/>
<polygon fill="midnightblue" stroke="midnightblue" points="493.84,-279.5 503.84,-276 493.84,-272.5 493.84,-279.5"/>
</g>
<!-- Node17 -->
<g id="node17" class="node">
<title>Node17</title>
<g id="a_node17"><a xlink:href="check__line_8c.html#a542b81308cf530edfa0a3bfdcefb6002" target="_top" xlink:title="Tries to convert str to float and checks range.">
<polygon fill="none" stroke="black" points="815,-152.5 815,-171.5 903,-171.5 903,-152.5 815,-152.5"/>
<text text-anchor="middle" x="859" y="-159.5" font-family="Helvetica,sans-Serif" font-size="10.00">ft_isvalid_float</text>
</a>
</g>
</g>
<!-- Node16&#45;&gt;Node17 -->
<g id="edge20" class="edge">
<title>Node16&#45;&gt;Node17</title>
<path fill="none" stroke="midnightblue" d="M601.14,-190.43C617.32,-187.06 635.95,-183.5 653,-181 704.19,-173.5 763.02,-168.41 804.49,-165.4"/>
<polygon fill="midnightblue" stroke="midnightblue" points="804.92,-168.88 814.65,-164.68 804.43,-161.9 804.92,-168.88"/>
</g>
<!-- Node17&#45;&gt;Node7 -->
<g id="edge21" class="edge">
<title>Node17&#45;&gt;Node7</title>
<path fill="none" stroke="midnightblue" d="M872.23,-152.48C888.4,-140.23 918.1,-118.89 946,-105 950.11,-102.95 954.51,-101.02 958.94,-99.24"/>
<polygon fill="midnightblue" stroke="midnightblue" points="960.51,-102.39 968.62,-95.57 958.03,-95.84 960.51,-102.39"/>
</g>
<!-- Node17&#45;&gt;Node8 -->
<g id="edge22" class="edge">
<title>Node17&#45;&gt;Node8</title>
<path fill="none" stroke="midnightblue" d="M866.17,-152.48C878.88,-133.57 909.87,-91.02 946,-67 948.94,-65.04 952.11,-63.26 955.39,-61.65"/>
<polygon fill="midnightblue" stroke="midnightblue" points="957.04,-64.74 964.8,-57.53 954.23,-58.33 957.04,-64.74"/>
</g>
<!-- Node17&#45;&gt;Node9 -->
<g id="edge23" class="edge">
<title>Node17&#45;&gt;Node9</title>
<path fill="none" stroke="midnightblue" d="M895.33,-152.41C913.4,-147.51 935.6,-141.48 954.89,-136.24"/>
<polygon fill="midnightblue" stroke="midnightblue" points="955.95,-139.58 964.68,-133.59 954.12,-132.83 955.95,-139.58"/>
</g>
<!-- Node17&#45;&gt;Node10 -->
<g id="edge24" class="edge">
<title>Node17&#45;&gt;Node10</title>
<path fill="none" stroke="midnightblue" d="M877.73,-171.63C901.93,-184.76 945.48,-208.4 973.54,-223.64"/>
<polygon fill="midnightblue" stroke="midnightblue" points="971.95,-226.76 982.41,-228.45 975.29,-220.61 971.95,-226.76"/>
</g>
<!-- Node18&#45;&gt;Node10 -->
<g id="edge30" class="edge">
<title>Node18&#45;&gt;Node10</title>
<path fill="none" stroke="midnightblue" d="M569.76,-285.64C586.55,-299.33 619.77,-323.76 653,-333 703.95,-347.18 720.14,-343.37 772,-333 849.63,-317.47 933.87,-274.93 974.81,-252.42"/>
<polygon fill="midnightblue" stroke="midnightblue" points="976.53,-255.47 983.57,-247.54 973.13,-249.35 976.53,-255.47"/>
</g>
<!-- Node19 -->
<g id="node19" class="node">
<title>Node19</title>
<g id="a_node19"><a xlink:href="check__line_8c.html#a399912478dc865909526aa87e6c333df" target="_top" xlink:title="Checks three floats, separated by &#39;,&#39;.">
<polygon fill="none" stroke="black" points="653,-190.5 653,-209.5 772,-209.5 772,-190.5 653,-190.5"/>
<text text-anchor="middle" x="712.5" y="-197.5" font-family="Helvetica,sans-Serif" font-size="10.00">ft_isvalid_float_block</text>
</a>
</g>
</g>
<!-- Node18&#45;&gt;Node19 -->
<g id="edge26" class="edge">
<title>Node18&#45;&gt;Node19</title>
<path fill="none" stroke="midnightblue" d="M577.88,-266.37C604.43,-253.18 652.33,-229.39 682.98,-214.17"/>
<polygon fill="midnightblue" stroke="midnightblue" points="684.88,-217.13 692.28,-209.55 681.77,-210.86 684.88,-217.13"/>
</g>
<!-- Node20 -->
<g id="node20" class="node">
<title>Node20</title>
<g id="a_node20"><a xlink:href="error__msg_8h.html#a2eafb62e253f9202b5cb80f4d005ed93" target="_top" xlink:title="Error message if vector is not a unit vector.">
<polygon fill="none" stroke="black" points="661,-304.5 661,-323.5 764,-323.5 764,-304.5 661,-304.5"/>
<text text-anchor="middle" x="712.5" y="-311.5" font-family="Helvetica,sans-Serif" font-size="10.00">ft_perror_not_unit</text>
</a>
</g>
</g>
<!-- Node18&#45;&gt;Node20 -->
<g id="edge28" class="edge">
<title>Node18&#45;&gt;Node20</title>
<path fill="none" stroke="midnightblue" d="M597.11,-285.59C617.21,-290.58 641.98,-296.73 663.32,-302.03"/>
<polygon fill="midnightblue" stroke="midnightblue" points="662.62,-305.47 673.17,-304.48 664.31,-298.67 662.62,-305.47"/>
</g>
<!-- Node21 -->
<g id="node21" class="node">
<title>Node21</title>
<g id="a_node21"><a xlink:href="error__msg_8h.html#abd82c129e1342b28d5e8111cf24304f3" target="_top" xlink:title="Warning message if vector is not a unit vector.">
<polygon fill="none" stroke="black" points="653,-266.5 653,-285.5 772,-285.5 772,-266.5 653,-266.5"/>
<text text-anchor="middle" x="712.5" y="-273.5" font-family="Helvetica,sans-Serif" font-size="10.00">ft_pwarning_not_unit</text>
</a>
</g>
</g>
<!-- Node18&#45;&gt;Node21 -->
<g id="edge29" class="edge">
<title>Node18&#45;&gt;Node21</title>
<path fill="none" stroke="midnightblue" d="M611.15,-276C621.37,-276 632.22,-276 642.87,-276"/>
<polygon fill="midnightblue" stroke="midnightblue" points="642.98,-279.5 652.98,-276 642.98,-272.5 642.98,-279.5"/>
</g>
<!-- Node19&#45;&gt;Node17 -->
<g id="edge27" class="edge">
<title>Node19&#45;&gt;Node17</title>
<path fill="none" stroke="midnightblue" d="M749.96,-190.41C768.77,-185.46 791.91,-179.38 811.95,-174.11"/>
<polygon fill="midnightblue" stroke="midnightblue" points="813.02,-177.45 821.8,-171.52 811.24,-170.68 813.02,-177.45"/>
</g>
<!-- Node22&#45;&gt;Node6 -->
<g id="edge34" class="edge">
<title>Node22&#45;&gt;Node6</title>
<path fill="none" stroke="midnightblue" d="M454.22,-124C470.32,-124 487.65,-124 503.39,-124"/>
<polygon fill="midnightblue" stroke="midnightblue" points="503.47,-127.5 513.47,-124 503.47,-120.5 503.47,-127.5"/>
</g>
<!-- Node22&#45;&gt;Node11 -->
<g id="edge36" class="edge">
<title>Node22&#45;&gt;Node11</title>
<path fill="none" stroke="midnightblue" d="M441.07,-114.49C448.35,-112 455.59,-108.88 462,-105 481.9,-92.95 478.33,-79.42 498,-67 501.31,-64.91 504.87,-63.03 508.54,-61.34"/>
<polygon fill="midnightblue" stroke="midnightblue" points="509.9,-64.57 517.82,-57.53 507.24,-58.09 509.9,-64.57"/>
</g>
<!-- Node22&#45;&gt;Node13 -->
<g id="edge37" class="edge">
<title>Node22&#45;&gt;Node13</title>
<path fill="none" stroke="midnightblue" d="M435.75,-133.59C457.41,-138.68 484.19,-144.99 507.03,-150.36"/>
<polygon fill="midnightblue" stroke="midnightblue" points="506.34,-153.79 516.88,-152.68 507.94,-146.98 506.34,-153.79"/>
</g>
<!-- Node22&#45;&gt;Node14 -->
<g id="edge38" class="edge">
<title>Node22&#45;&gt;Node14</title>
<path fill="none" stroke="midnightblue" d="M435.75,-114.41C458.14,-109.14 486.01,-102.59 509.33,-97.1"/>
<polygon fill="midnightblue" stroke="midnightblue" points="510.42,-100.44 519.35,-94.74 508.82,-93.62 510.42,-100.44"/>
</g>
<!-- Node22&#45;&gt;Node16 -->
<g id="edge35" class="edge">
<title>Node22&#45;&gt;Node16</title>
<path fill="none" stroke="midnightblue" d="M441.07,-133.51C448.35,-136 455.59,-139.12 462,-143 481.9,-155.05 478.33,-168.58 498,-181 501.31,-183.09 504.87,-184.97 508.54,-186.66"/>
<polygon fill="midnightblue" stroke="midnightblue" points="507.24,-189.91 517.82,-190.47 509.9,-183.43 507.24,-189.91"/>
</g>
<!-- Node23&#45;&gt;Node6 -->
<g id="edge40" class="edge">
<title>Node23&#45;&gt;Node6</title>
<path fill="none" stroke="midnightblue" d="M446.37,-228.48C452.02,-226.01 457.39,-222.91 462,-219 490.53,-194.85 469.93,-167.68 498,-143 499.96,-141.27 502.09,-139.7 504.32,-138.27"/>
<polygon fill="midnightblue" stroke="midnightblue" points="506.22,-141.23 513.4,-133.44 502.93,-135.05 506.22,-141.23"/>
</g>
<!-- Node23&#45;&gt;Node11 -->
<g id="edge42" class="edge">
<title>Node23&#45;&gt;Node11</title>
<path fill="none" stroke="midnightblue" d="M449.17,-228.4C453.93,-225.93 458.32,-222.84 462,-219 510,-168.85 450.95,-118.05 498,-67 499.22,-65.68 500.53,-64.45 501.92,-63.3"/>
<polygon fill="midnightblue" stroke="midnightblue" points="504.12,-66.04 510.56,-57.63 500.28,-60.19 504.12,-66.04"/>
</g>
<!-- Node23&#45;&gt;Node13 -->
<g id="edge43" class="edge">
<title>Node23&#45;&gt;Node13</title>
<path fill="none" stroke="midnightblue" d="M441.07,-228.49C448.35,-226 455.59,-222.88 462,-219 481.9,-206.95 478.33,-193.42 498,-181 501.31,-178.91 504.87,-177.03 508.54,-175.34"/>
<polygon fill="midnightblue" stroke="midnightblue" points="509.9,-178.57 517.82,-171.53 507.24,-172.09 509.9,-178.57"/>
</g>
<!-- Node23&#45;&gt;Node14 -->
<g id="edge44" class="edge">
<title>Node23&#45;&gt;Node14</title>
<path fill="none" stroke="midnightblue" d="M448.23,-228.44C453.29,-225.97 458.01,-222.87 462,-219 500.12,-181.99 460.58,-142.72 498,-105 501.48,-101.49 505.62,-98.63 510.06,-96.29"/>
<polygon fill="midnightblue" stroke="midnightblue" points="511.71,-99.39 519.49,-92.21 508.92,-92.97 511.71,-99.39"/>
</g>
<!-- Node23&#45;&gt;Node16 -->
<g id="edge41" class="edge">
<title>Node23&#45;&gt;Node16</title>
<path fill="none" stroke="midnightblue" d="M435.75,-228.41C457.16,-223.37 483.59,-217.16 506.25,-211.82"/>
<polygon fill="midnightblue" stroke="midnightblue" points="507.11,-215.22 516.04,-209.52 505.5,-208.4 507.11,-215.22"/>
</g>
<!-- Node24&#45;&gt;Node6 -->
<g id="edge46" class="edge">
<title>Node24&#45;&gt;Node6</title>
<path fill="none" stroke="midnightblue" d="M435.75,-95.59C457.16,-100.63 483.59,-106.84 506.25,-112.18"/>
<polygon fill="midnightblue" stroke="midnightblue" points="505.5,-115.6 516.04,-114.48 507.11,-108.78 505.5,-115.6"/>
</g>
<!-- Node24&#45;&gt;Node11 -->
<g id="edge48" class="edge">
<title>Node24&#45;&gt;Node11</title>
<path fill="none" stroke="midnightblue" d="M435.75,-76.41C457.16,-71.37 483.59,-65.16 506.25,-59.82"/>
<polygon fill="midnightblue" stroke="midnightblue" points="507.11,-63.22 516.04,-57.52 505.5,-56.4 507.11,-63.22"/>
</g>
<!-- Node24&#45;&gt;Node13 -->
<g id="edge49" class="edge">
<title>Node24&#45;&gt;Node13</title>
<path fill="none" stroke="midnightblue" d="M436.13,-93.91C445.04,-96.63 454.14,-100.24 462,-105 481.9,-117.05 478.33,-130.58 498,-143 501.31,-145.09 504.87,-146.97 508.54,-148.66"/>
<polygon fill="midnightblue" stroke="midnightblue" points="507.24,-151.91 517.82,-152.47 509.9,-145.43 507.24,-151.91"/>
</g>
<!-- Node24&#45;&gt;Node14 -->
<g id="edge50" class="edge">
<title>Node24&#45;&gt;Node14</title>
<path fill="none" stroke="midnightblue" d="M436.17,-86C458.38,-86 485.89,-86 509,-86"/>
<polygon fill="midnightblue" stroke="midnightblue" points="509.27,-89.5 519.27,-86 509.27,-82.5 509.27,-89.5"/>
</g>
<!-- Node24&#45;&gt;Node16 -->
<g id="edge47" class="edge">
<title>Node24&#45;&gt;Node16</title>
<path fill="none" stroke="midnightblue" d="M436.34,-91.84C445.54,-94.66 454.71,-98.83 462,-105 490.53,-129.15 469.93,-156.32 498,-181 499.93,-182.7 502.01,-184.24 504.21,-185.65"/>
<polygon fill="midnightblue" stroke="midnightblue" points="502.63,-188.78 513.1,-190.43 505.94,-182.61 502.63,-188.78"/>
</g>
<!-- Node25&#45;&gt;Node6 -->
<g id="edge52" class="edge">
<title>Node25&#45;&gt;Node6</title>
<path fill="none" stroke="midnightblue" d="M441.07,-57.51C448.35,-60 455.59,-63.12 462,-67 481.9,-79.05 478.33,-92.58 498,-105 501.31,-107.09 504.87,-108.97 508.54,-110.66"/>
<polygon fill="midnightblue" stroke="midnightblue" points="507.24,-113.91 517.82,-114.47 509.9,-107.43 507.24,-113.91"/>
</g>
<!-- Node25&#45;&gt;Node11 -->
<g id="edge54" class="edge">
<title>Node25&#45;&gt;Node11</title>
<path fill="none" stroke="midnightblue" d="M456.06,-48C467.34,-48 479.17,-48 490.59,-48"/>
<polygon fill="midnightblue" stroke="midnightblue" points="490.94,-51.5 500.94,-48 490.94,-44.5 490.94,-51.5"/>
</g>
<!-- Node25&#45;&gt;Node13 -->
<g id="edge55" class="edge">
<title>Node25&#45;&gt;Node13</title>
<path fill="none" stroke="midnightblue" d="M446.37,-57.52C452.02,-59.99 457.39,-63.09 462,-67 490.53,-91.15 469.93,-118.32 498,-143 500.85,-145.51 504.05,-147.69 507.43,-149.58"/>
<polygon fill="midnightblue" stroke="midnightblue" points="506.17,-152.86 516.71,-153.95 509.15,-146.52 506.17,-152.86"/>
</g>
<!-- Node25&#45;&gt;Node14 -->
<g id="edge56" class="edge">
<title>Node25&#45;&gt;Node14</title>
<path fill="none" stroke="midnightblue" d="M435.75,-57.59C458.14,-62.86 486.01,-69.41 509.33,-74.9"/>
<polygon fill="midnightblue" stroke="midnightblue" points="508.82,-78.38 519.35,-77.26 510.42,-71.56 508.82,-78.38"/>
</g>
<!-- Node25&#45;&gt;Node16 -->
<g id="edge53" class="edge">
<title>Node25&#45;&gt;Node16</title>
<path fill="none" stroke="midnightblue" d="M448.23,-57.56C453.29,-60.03 458.01,-63.13 462,-67 500.12,-104.01 460.58,-143.28 498,-181 499.44,-182.45 500.99,-183.79 502.62,-185.03"/>
<polygon fill="midnightblue" stroke="midnightblue" points="501.06,-188.17 511.42,-190.4 504.71,-182.2 501.06,-188.17"/>
</g>
<!-- Node26&#45;&gt;Node6 -->
<g id="edge58" class="edge">
<title>Node26&#45;&gt;Node6</title>
<path fill="none" stroke="midnightblue" d="M435.75,-152.41C457.16,-147.37 483.59,-141.16 506.25,-135.82"/>
<polygon fill="midnightblue" stroke="midnightblue" points="507.11,-139.22 516.04,-133.52 505.5,-132.4 507.11,-139.22"/>
</g>
<!-- Node26&#45;&gt;Node11 -->
<g id="edge60" class="edge">
<title>Node26&#45;&gt;Node11</title>
<path fill="none" stroke="midnightblue" d="M446.37,-152.48C452.02,-150.01 457.39,-146.91 462,-143 490.53,-118.85 469.93,-91.68 498,-67 499.93,-65.3 502.01,-63.76 504.21,-62.35"/>
<polygon fill="midnightblue" stroke="midnightblue" points="505.94,-65.39 513.1,-57.57 502.63,-59.22 505.94,-65.39"/>
</g>
<!-- Node26&#45;&gt;Node13 -->
<g id="edge61" class="edge">
<title>Node26&#45;&gt;Node13</title>
<path fill="none" stroke="midnightblue" d="M459.29,-162C475.02,-162 491.61,-162 506.55,-162"/>
<polygon fill="midnightblue" stroke="midnightblue" points="506.59,-165.5 516.59,-162 506.59,-158.5 506.59,-165.5"/>
</g>
<!-- Node26&#45;&gt;Node14 -->
<g id="edge62" class="edge">
<title>Node26&#45;&gt;Node14</title>
<path fill="none" stroke="midnightblue" d="M441.07,-152.49C448.35,-150 455.59,-146.88 462,-143 481.9,-130.95 478.33,-117.42 498,-105 501.76,-102.63 505.84,-100.52 510.04,-98.66"/>
<polygon fill="midnightblue" stroke="midnightblue" points="511.35,-101.91 519.35,-94.97 508.77,-95.4 511.35,-101.91"/>
</g>
<!-- Node26&#45;&gt;Node16 -->
<g id="edge59" class="edge">
<title>Node26&#45;&gt;Node16</title>
<path fill="none" stroke="midnightblue" d="M435.75,-171.59C457.16,-176.63 483.59,-182.84 506.25,-188.18"/>
<polygon fill="midnightblue" stroke="midnightblue" points="505.5,-191.6 516.04,-190.48 507.11,-184.78 505.5,-191.6"/>
</g>
<!-- Node28&#45;&gt;Node3 -->
<g id="edge65" class="edge">
<title>Node28&#45;&gt;Node3</title>
<path fill="none" stroke="midnightblue" d="M243.6,-259.63C263.9,-269.36 296.68,-284.43 326,-295 332.42,-297.31 339.26,-299.53 346.04,-301.58"/>
<polygon fill="midnightblue" stroke="midnightblue" points="345.27,-305 355.85,-304.46 347.24,-298.29 345.27,-305"/>
</g>
</g>
</svg>
        <g id="navigator" transform="translate(0 0)" fill="#404254">
                <rect fill="#f2f5e9" fill-opacity="0.5" stroke="#606060" stroke-width=".5" x="0" y="0" width="60" height="60"/>
                <use id="zoomplus" xlink:href="#zoomPlus" x="17" y="9" onmousedown="handleZoom(evt,'in')"/>
                <use id="zoomminus" xlink:href="#zoomMin" x="42" y="9" onmousedown="handleZoom(evt,'out')"/>
                <use id="reset" xlink:href="#resetDef" x="30" y="36" onmousedown="handleReset()"/>
                <g id="arrowUp" xlink:href="#dirArrow" transform="translate(30 24)" onmousedown="handlePan(0,-1)">
                  <use xlink:href="#rim" fill="#404040">
                        <set attributeName="fill" to="#808080" begin="arrowUp.mouseover" end="arrowUp.mouseout"/>
                  </use>
                  <path fill="none" stroke="white" stroke-width="1.5" d="M0,-3.0v7 M-2.5,-0.5L0,-3.0L2.5,-0.5"/>
                </g>
                <g id="arrowRight" xlink:href="#dirArrow" transform="rotate(90) translate(36 -43)" onmousedown="handlePan(1,0)">
                  <use xlink:href="#rim" fill="#404040">
                        <set attributeName="fill" to="#808080" begin="arrowRight.mouseover" end="arrowRight.mouseout"/>
                  </use>
                  <path fill="none" stroke="white" stroke-width="1.5" d="M0,-3.0v7 M-2.5,-0.5L0,-3.0L2.5,-0.5"/>
                </g>
                <g id="arrowDown" xlink:href="#dirArrow" transform="rotate(180) translate(-30 -48)" onmousedown="handlePan(0,1)">
                  <use xlink:href="#rim" fill="#404040">
                        <set attributeName="fill" to="#808080" begin="arrowDown.mouseover" end="arrowDown.mouseout"/>
                  </use>
                  <path fill="none" stroke="white" stroke-width="1.5" d="M0,-3.0v7 M-2.5,-0.5L0,-3.0L2.5,-0.5"/>
                </g>
                <g id="arrowLeft" xlink:href="#dirArrow" transform="rotate(270) translate(-36 17)" onmousedown="handlePan(-1,0)">
                  <use xlink:href="#rim" fill="#404040">
                        <set attributeName="fill" to="#808080" begin="arrowLeft.mouseover" end="arrowLeft.mouseout"/>
                  </use>
                  <path fill="none" stroke="white" stroke-width="1.5" d="M0,-3.0v7 M-2.5,-0.5L0,-3.0L2.5,-0.5"/>
                </g>
        </g>
        <svg viewBox="0 0 15 15" width="100%" height="30px" preserveAspectRatio="xMaxYMin meet">
         <g id="arrow_out" transform="scale(0.3 0.3)">
          <a xlink:href="check__bonus_8h_af3ef225f9cf1a304afc28235a98ac241_cgraph_org.svg" target="_base">
           <rect id="button" ry="5" rx="5" y="6" x="6" height="38" width="38"
                fill="#f2f5e9" fill-opacity="0.5" stroke="#606060" stroke-width="1.0"/>
           <path id="arrow"
             d="M 11.500037,31.436501 C 11.940474,20.09759 22.043105,11.32322 32.158766,21.979434 L 37.068811,17.246167 C 37.068811,17.246167 37.088388,32 37.088388,32 L 22.160133,31.978069 C 22.160133,31.978069 26.997745,27.140456 26.997745,27.140456 C 18.528582,18.264221 13.291696,25.230495 11.500037,31.436501 z"
             style="fill:#404040;"/>
          </a>
         </g>
        </svg>
</svg>
