<?xml version="1.0" encoding="UTF-8" standalone="no"?>
<!DOCTYPE svg PUBLIC "-//W3C//DTD SVG 1.1//EN"
 "http://www.w3.org/Graphics/SVG/1.1/DTD/svg11.dtd">
<!-- Generated by graphviz version 2.43.0 (0)
 -->
<!-- Title: ft_check_light Pages: 1 -->
<!--zoomable 180 -->
<svg id="main" version="1.1" xmlns="http://www.w3.org/2000/svg" xmlns:xlink="http://www.w3.org/1999/xlink" xml:space="preserve" onload="init(evt)">
<style type="text/css"><![CDATA[
.edge:hover path { stroke: red; }
.edge:hover polygon { stroke: red; fill: red; }
]]></style>
<script type="text/javascript"><![CDATA[
var edges = document.getElementsByTagName('g');
if (edges && edges.length) {
  for (var i=0;i<edges.length;i++) {
    if (edges[i].id.substr(0,4)=='edge') {
      edges[i].setAttribute('class','edge');
    }
  }
}
]]></script>
        <defs>
                <circle id="rim" cx="0" cy="0" r="7"/>
                <circle id="rim2" cx="0" cy="0" r="3.5"/>
                <g id="zoomPlus">
                        <use xlink:href="#rim" fill="#404040">
                                <set attributeName="fill" to="#808080" begin="zoomplus.mouseover" end="zoomplus.mouseout"/>
                        </use>
                        <path d="M-4,0h8M0,-4v8" fill="none" stroke="white" stroke-width="1.5" pointer-events="none"/>
                </g>
                <g id="zoomMin">
                        <use xlink:href="#rim" fill="#404040">
                                <set attributeName="fill" to="#808080" begin="zoomminus.mouseover" end="zoomminus.mouseout"/>
                        </use>
                        <path d="M-4,0h8" fill="none" stroke="white" stroke-width="1.5" pointer-events="none"/>
                </g>
                <g id="dirArrow">
                        <path fill="none" stroke="white" stroke-width="1.5" d="M0,-3.0v7 M-2.5,-0.5L0,-3.0L2.5,-0.5"/>
                </g>
               <g id="resetDef">
                       <use xlink:href="#rim2" fill="#404040">
                               <set attributeName="fill" to="#808080" begin="reset.mouseover" end="reset.mouseout"/>
                       </use>
               </g>
        </defs>

<script type="text/javascript">
var viewWidth = 531;
var viewHeight = 180;
var sectionId = 'dynsection-9';
</script>
<script xlink:href="svgpan.js"/>
<svg id="graph" class="graph">
<g id="viewport">
<title>ft_check_light</title>
<!-- Node1 -->
<g id="node1" class="node">
<title>Node1</title>
<g id="a_node1"><a xlink:title="Checks if light line is correct.">
<polygon fill="#bfbfbf" stroke="black" points="0,-76.5 0,-95.5 84,-95.5 84,-76.5 0,-76.5"/>
<text text-anchor="middle" x="42" y="-83.5" font-family="Helvetica,sans-Serif" font-size="10.00">ft_check_light</text>
</a>
</g>
</g>
<!-- Node2 -->
<g id="node2" class="node">
<title>Node2</title>
<g id="a_node2"><a xlink:href="check_8h.html#a542b81308cf530edfa0a3bfdcefb6002" target="_top" xlink:title="Tries to convert str to float and checks range.">
<polygon fill="none" stroke="black" points="282,-76.5 282,-95.5 370,-95.5 370,-76.5 282,-76.5"/>
<text text-anchor="middle" x="326" y="-83.5" font-family="Helvetica,sans-Serif" font-size="10.00">ft_isvalid_float</text>
</a>
</g>
</g>
<!-- Node1&#45;&gt;Node2 -->
<g id="edge1" class="edge">
<title>Node1&#45;&gt;Node2</title>
<path fill="none" stroke="midnightblue" d="M84.01,-86C133.52,-86 216.92,-86 271.46,-86"/>
<polygon fill="midnightblue" stroke="midnightblue" points="271.63,-89.5 281.63,-86 271.63,-82.5 271.63,-89.5"/>
</g>
<!-- Node7 -->
<g id="node7" class="node">
<title>Node7</title>
<g id="a_node7"><a xlink:href="check_8h.html#a399912478dc865909526aa87e6c333df" target="_top" xlink:title="Checks three floats, separated by &#39;,&#39;.">
<polygon fill="none" stroke="black" points="120,-114.5 120,-133.5 239,-133.5 239,-114.5 120,-114.5"/>
<text text-anchor="middle" x="179.5" y="-121.5" font-family="Helvetica,sans-Serif" font-size="10.00">ft_isvalid_float_block</text>
</a>
</g>
</g>
<!-- Node1&#45;&gt;Node7 -->
<g id="edge6" class="edge">
<title>Node1&#45;&gt;Node7</title>
<path fill="none" stroke="midnightblue" d="M77.19,-95.59C94.6,-100.47 115.97,-106.46 134.59,-111.68"/>
<polygon fill="midnightblue" stroke="midnightblue" points="133.74,-115.08 144.32,-114.41 135.64,-108.34 133.74,-115.08"/>
</g>
<!-- Node9 -->
<g id="node9" class="node">
<title>Node9</title>
<g id="a_node9"><a xlink:href="check_8h.html#a3327b821f1a4c71183e0448c7023a5aa" target="_top" xlink:title="Checks three rgb values, separated by &#39;,&#39;.">
<polygon fill="none" stroke="black" points="123,-152.5 123,-171.5 236,-171.5 236,-152.5 123,-152.5"/>
<text text-anchor="middle" x="179.5" y="-159.5" font-family="Helvetica,sans-Serif" font-size="10.00">ft_isvalid_rgb_block</text>
</a>
</g>
</g>
<!-- Node1&#45;&gt;Node9 -->
<g id="edge12" class="edge">
<title>Node1&#45;&gt;Node9</title>
<path fill="none" stroke="midnightblue" d="M53.72,-95.72C67.95,-108.18 94.27,-129.75 120,-143 124.23,-145.18 128.75,-147.17 133.35,-148.98"/>
<polygon fill="midnightblue" stroke="midnightblue" points="132.2,-152.29 142.8,-152.44 134.61,-145.72 132.2,-152.29"/>
</g>
<!-- Node11 -->
<g id="node11" class="node">
<title>Node11</title>
<g id="a_node11"><a xlink:href="error__msg_8h.html#a0a61f85709f3119ca9086f591705f294" target="_top" xlink:title="Error message if line doesn&#39;t end with space or zero terminator.">
<polygon fill="none" stroke="black" points="139,-38.5 139,-57.5 220,-57.5 220,-38.5 139,-38.5"/>
<text text-anchor="middle" x="179.5" y="-45.5" font-family="Helvetica,sans-Serif" font-size="10.00">ft_perror_end</text>
</a>
</g>
</g>
<!-- Node1&#45;&gt;Node11 -->
<g id="edge17" class="edge">
<title>Node1&#45;&gt;Node11</title>
<path fill="none" stroke="midnightblue" d="M77.19,-76.41C94.6,-71.53 115.97,-65.54 134.59,-60.32"/>
<polygon fill="midnightblue" stroke="midnightblue" points="135.64,-63.66 144.32,-57.59 133.74,-56.92 135.64,-63.66"/>
</g>
<!-- Node12 -->
<g id="node12" class="node">
<title>Node12</title>
<g id="a_node12"><a xlink:href="check_8h.html#a7a10a4efb97dd784c001f96c580d7119" target="_top" xlink:title="Moves line one space or htab forward and sanitizes spaces.">
<polygon fill="none" stroke="black" points="141.5,-0.5 141.5,-19.5 217.5,-19.5 217.5,-0.5 141.5,-0.5"/>
<text text-anchor="middle" x="179.5" y="-7.5" font-family="Helvetica,sans-Serif" font-size="10.00">ft_rm_space</text>
</a>
</g>
</g>
<!-- Node1&#45;&gt;Node12 -->
<g id="edge18" class="edge">
<title>Node1&#45;&gt;Node12</title>
<path fill="none" stroke="midnightblue" d="M53.72,-76.28C67.95,-63.82 94.27,-42.25 120,-29 124.23,-26.82 128.75,-24.83 133.35,-23.02"/>
<polygon fill="midnightblue" stroke="midnightblue" points="134.61,-26.28 142.8,-19.56 132.2,-19.71 134.61,-26.28"/>
</g>
<!-- Node3 -->
<g id="node3" class="node">
<title>Node3</title>
<g id="a_node3"><a xlink:href="error__msg_8h.html#a207347473e8d1cf324c6b70fca7155fe" target="_top" xlink:title="Error message if conversion failed.">
<polygon fill="none" stroke="black" points="418,-152.5 418,-171.5 518,-171.5 518,-152.5 418,-152.5"/>
<text text-anchor="middle" x="468" y="-159.5" font-family="Helvetica,sans-Serif" font-size="10.00">ft_perror_convert</text>
</a>
</g>
</g>
<!-- Node2&#45;&gt;Node3 -->
<g id="edge2" class="edge">
<title>Node2&#45;&gt;Node3</title>
<path fill="none" stroke="midnightblue" d="M358.74,-95.59C365.05,-98.17 371.44,-101.29 377,-105 396.36,-117.9 393.48,-130.34 413,-143 416.1,-145.01 419.44,-146.84 422.88,-148.49"/>
<polygon fill="midnightblue" stroke="midnightblue" points="421.58,-151.74 432.15,-152.48 424.35,-145.31 421.58,-151.74"/>
</g>
<!-- Node4 -->
<g id="node4" class="node">
<title>Node4</title>
<g id="a_node4"><a xlink:href="error__msg_8h.html#ae79c226d26bf8b2dbd74bf7440eefa7d" target="_top" xlink:title="Error message if converted number is out of range.">
<polygon fill="none" stroke="black" points="422.5,-114.5 422.5,-133.5 513.5,-133.5 513.5,-114.5 422.5,-114.5"/>
<text text-anchor="middle" x="468" y="-121.5" font-family="Helvetica,sans-Serif" font-size="10.00">ft_perror_range</text>
</a>
</g>
</g>
<!-- Node2&#45;&gt;Node4 -->
<g id="edge3" class="edge">
<title>Node2&#45;&gt;Node4</title>
<path fill="none" stroke="midnightblue" d="M362.33,-95.59C380.4,-100.49 402.6,-106.52 421.89,-111.76"/>
<polygon fill="midnightblue" stroke="midnightblue" points="421.12,-115.17 431.68,-114.41 422.95,-108.42 421.12,-115.17"/>
</g>
<!-- Node5 -->
<g id="node5" class="node">
<title>Node5</title>
<g id="a_node5"><a xlink:href="error__msg_8h.html#a66c0aad31fa186667840a2c0a5004099" target="_top" xlink:title="Error message if wrong separator was encountered.">
<polygon fill="none" stroke="black" points="413,-76.5 413,-95.5 523,-95.5 523,-76.5 413,-76.5"/>
<text text-anchor="middle" x="468" y="-83.5" font-family="Helvetica,sans-Serif" font-size="10.00">ft_perror_separator</text>
</a>
</g>
</g>
<!-- Node2&#45;&gt;Node5 -->
<g id="edge4" class="edge">
<title>Node2&#45;&gt;Node5</title>
<path fill="none" stroke="midnightblue" d="M370.15,-86C380.48,-86 391.74,-86 402.8,-86"/>
<polygon fill="midnightblue" stroke="midnightblue" points="402.87,-89.5 412.87,-86 402.87,-82.5 402.87,-89.5"/>
</g>
<!-- Node6 -->
<g id="node6" class="node">
<title>Node6</title>
<g id="a_node6"><a xlink:href="ft__strtod_8h.html#a0a1cbf0fef2bdcf6fde79c34014bc10e" target="_top" xlink:title="Converts a String to a double.">
<polygon fill="none" stroke="black" points="439.5,-38.5 439.5,-57.5 496.5,-57.5 496.5,-38.5 439.5,-38.5"/>
<text text-anchor="middle" x="468" y="-45.5" font-family="Helvetica,sans-Serif" font-size="10.00">ft_strtod</text>
</a>
</g>
</g>
<!-- Node2&#45;&gt;Node6 -->
<g id="edge5" class="edge">
<title>Node2&#45;&gt;Node6</title>
<path fill="none" stroke="midnightblue" d="M362.33,-76.41C382.79,-70.86 408.55,-63.86 429.39,-58.21"/>
<polygon fill="midnightblue" stroke="midnightblue" points="430.45,-61.55 439.18,-55.55 428.62,-54.79 430.45,-61.55"/>
</g>
<!-- Node8 -->
<g id="node8" class="node">
<title>Node8</title>
<g id="a_node8"><a xlink:href="check__line_8c.html#a542b81308cf530edfa0a3bfdcefb6002" target="_top" xlink:title="Tries to convert str to float and checks range.">
<polygon fill="none" stroke="black" points="282,-114.5 282,-133.5 370,-133.5 370,-114.5 282,-114.5"/>
<text text-anchor="middle" x="326" y="-121.5" font-family="Helvetica,sans-Serif" font-size="10.00">ft_isvalid_float</text>
</a>
</g>
</g>
<!-- Node7&#45;&gt;Node8 -->
<g id="edge7" class="edge">
<title>Node7&#45;&gt;Node8</title>
<path fill="none" stroke="midnightblue" d="M239.27,-124C249.94,-124 261.01,-124 271.51,-124"/>
<polygon fill="midnightblue" stroke="midnightblue" points="271.79,-127.5 281.79,-124 271.79,-120.5 271.79,-127.5"/>
</g>
<!-- Node8&#45;&gt;Node3 -->
<g id="edge8" class="edge">
<title>Node8&#45;&gt;Node3</title>
<path fill="none" stroke="midnightblue" d="M362.33,-133.59C380.4,-138.49 402.6,-144.52 421.89,-149.76"/>
<polygon fill="midnightblue" stroke="midnightblue" points="421.12,-153.17 431.68,-152.41 422.95,-146.42 421.12,-153.17"/>
</g>
<!-- Node8&#45;&gt;Node4 -->
<g id="edge9" class="edge">
<title>Node8&#45;&gt;Node4</title>
<path fill="none" stroke="midnightblue" d="M370.15,-124C383.46,-124 398.31,-124 412.3,-124"/>
<polygon fill="midnightblue" stroke="midnightblue" points="412.3,-127.5 422.3,-124 412.3,-120.5 412.3,-127.5"/>
</g>
<!-- Node8&#45;&gt;Node5 -->
<g id="edge10" class="edge">
<title>Node8&#45;&gt;Node5</title>
<path fill="none" stroke="midnightblue" d="M362.33,-114.41C380.4,-109.51 402.6,-103.48 421.89,-98.24"/>
<polygon fill="midnightblue" stroke="midnightblue" points="422.95,-101.58 431.68,-95.59 421.12,-94.83 422.95,-101.58"/>
</g>
<!-- Node8&#45;&gt;Node6 -->
<g id="edge11" class="edge">
<title>Node8&#45;&gt;Node6</title>
<path fill="none" stroke="midnightblue" d="M358.74,-114.41C365.05,-111.83 371.44,-108.71 377,-105 396.36,-92.1 393.48,-79.66 413,-67 418.13,-63.67 423.91,-60.85 429.73,-58.48"/>
<polygon fill="midnightblue" stroke="midnightblue" points="431.29,-61.64 439.47,-54.9 428.87,-55.06 431.29,-61.64"/>
</g>
<!-- Node10 -->
<g id="node10" class="node">
<title>Node10</title>
<g id="a_node10"><a xlink:href="check__line_8c.html#a7884a3e9489248b242a9fb7da9607bf4" target="_top" xlink:title="Tries to convert str into rgb int and checks range.">
<polygon fill="none" stroke="black" points="275,-152.5 275,-171.5 377,-171.5 377,-152.5 275,-152.5"/>
<text text-anchor="middle" x="326" y="-159.5" font-family="Helvetica,sans-Serif" font-size="10.00">ft_isvalid_rgb_val</text>
</a>
</g>
</g>
<!-- Node9&#45;&gt;Node10 -->
<g id="edge13" class="edge">
<title>Node9&#45;&gt;Node10</title>
<path fill="none" stroke="midnightblue" d="M236.37,-162C245.7,-162 255.42,-162 264.85,-162"/>
<polygon fill="midnightblue" stroke="midnightblue" points="264.94,-165.5 274.94,-162 264.94,-158.5 264.94,-165.5"/>
</g>
<!-- Node10&#45;&gt;Node3 -->
<g id="edge14" class="edge">
<title>Node10&#45;&gt;Node3</title>
<path fill="none" stroke="midnightblue" d="M377.15,-162C387.03,-162 397.5,-162 407.65,-162"/>
<polygon fill="midnightblue" stroke="midnightblue" points="407.67,-165.5 417.67,-162 407.67,-158.5 407.67,-165.5"/>
</g>
<!-- Node10&#45;&gt;Node4 -->
<g id="edge15" class="edge">
<title>Node10&#45;&gt;Node4</title>
<path fill="none" stroke="midnightblue" d="M362.33,-152.41C380.4,-147.51 402.6,-141.48 421.89,-136.24"/>
<polygon fill="midnightblue" stroke="midnightblue" points="422.95,-139.58 431.68,-133.59 421.12,-132.83 422.95,-139.58"/>
</g>
<!-- Node10&#45;&gt;Node5 -->
<g id="edge16" class="edge">
<title>Node10&#45;&gt;Node5</title>
<path fill="none" stroke="midnightblue" d="M358.74,-152.41C365.05,-149.83 371.44,-146.71 377,-143 396.36,-130.1 393.48,-117.66 413,-105 416.1,-102.99 419.44,-101.16 422.88,-99.51"/>
<polygon fill="midnightblue" stroke="midnightblue" points="424.35,-102.69 432.15,-95.52 421.58,-96.26 424.35,-102.69"/>
</g>
</g>
</svg>
        <g id="navigator" transform="translate(0 0)" fill="#404254">
                <rect fill="#f2f5e9" fill-opacity="0.5" stroke="#606060" stroke-width=".5" x="0" y="0" width="60" height="60"/>
                <use id="zoomplus" xlink:href="#zoomPlus" x="17" y="9" onmousedown="handleZoom(evt,'in')"/>
                <use id="zoomminus" xlink:href="#zoomMin" x="42" y="9" onmousedown="handleZoom(evt,'out')"/>
                <use id="reset" xlink:href="#resetDef" x="30" y="36" onmousedown="handleReset()"/>
                <g id="arrowUp" xlink:href="#dirArrow" transform="translate(30 24)" onmousedown="handlePan(0,-1)">
                  <use xlink:href="#rim" fill="#404040">
                        <set attributeName="fill" to="#808080" begin="arrowUp.mouseover" end="arrowUp.mouseout"/>
                  </use>
                  <path fill="none" stroke="white" stroke-width="1.5" d="M0,-3.0v7 M-2.5,-0.5L0,-3.0L2.5,-0.5"/>
                </g>
                <g id="arrowRight" xlink:href="#dirArrow" transform="rotate(90) translate(36 -43)" onmousedown="handlePan(1,0)">
                  <use xlink:href="#rim" fill="#404040">
                        <set attributeName="fill" to="#808080" begin="arrowRight.mouseover" end="arrowRight.mouseout"/>
                  </use>
                  <path fill="none" stroke="white" stroke-width="1.5" d="M0,-3.0v7 M-2.5,-0.5L0,-3.0L2.5,-0.5"/>
                </g>
                <g id="arrowDown" xlink:href="#dirArrow" transform="rotate(180) translate(-30 -48)" onmousedown="handlePan(0,1)">
                  <use xlink:href="#rim" fill="#404040">
                        <set attributeName="fill" to="#808080" begin="arrowDown.mouseover" end="arrowDown.mouseout"/>
                  </use>
                  <path fill="none" stroke="white" stroke-width="1.5" d="M0,-3.0v7 M-2.5,-0.5L0,-3.0L2.5,-0.5"/>
                </g>
                <g id="arrowLeft" xlink:href="#dirArrow" transform="rotate(270) translate(-36 17)" onmousedown="handlePan(-1,0)">
                  <use xlink:href="#rim" fill="#404040">
                        <set attributeName="fill" to="#808080" begin="arrowLeft.mouseover" end="arrowLeft.mouseout"/>
                  </use>
                  <path fill="none" stroke="white" stroke-width="1.5" d="M0,-3.0v7 M-2.5,-0.5L0,-3.0L2.5,-0.5"/>
                </g>
        </g>
        <svg viewBox="0 0 15 15" width="100%" height="30px" preserveAspectRatio="xMaxYMin meet">
         <g id="arrow_out" transform="scale(0.3 0.3)">
          <a xlink:href="check_8h_a13cb8b89e2be82f5148f2dba42b550e8_cgraph_org.svg" target="_base">
           <rect id="button" ry="5" rx="5" y="6" x="6" height="38" width="38"
                fill="#f2f5e9" fill-opacity="0.5" stroke="#606060" stroke-width="1.0"/>
           <path id="arrow"
             d="M 11.500037,31.436501 C 11.940474,20.09759 22.043105,11.32322 32.158766,21.979434 L 37.068811,17.246167 C 37.068811,17.246167 37.088388,32 37.088388,32 L 22.160133,31.978069 C 22.160133,31.978069 26.997745,27.140456 26.997745,27.140456 C 18.528582,18.264221 13.291696,25.230495 11.500037,31.436501 z"
             style="fill:#404040;"/>
          </a>
         </g>
        </svg>
</svg>
