<?xml version="1.0" encoding="UTF-8" standalone="no"?>
<!DOCTYPE svg PUBLIC "-//W3C//DTD SVG 1.1//EN"
 "http://www.w3.org/Graphics/SVG/1.1/DTD/svg11.dtd">
<!-- Generated by graphviz version 2.43.0 (0)
 -->
<!-- Title: inc/check_bonus.h Pages: 1 -->
<svg width="603pt" height="364pt"
 viewBox="0.00 0.00 602.86 364.00" xmlns="http://www.w3.org/2000/svg" xmlns:xlink="http://www.w3.org/1999/xlink">
<g id="graph0" class="graph" transform="scale(1 1) rotate(0) translate(4 360)">
<title>inc/check_bonus.h</title>
<!-- Node1 -->
<g id="node1" class="node">
<title>Node1</title>
<g id="a_node1"><a xlink:title=" ">
<polygon fill="#bfbfbf" stroke="black" points="279.86,-336.5 279.86,-355.5 385.86,-355.5 385.86,-336.5 279.86,-336.5"/>
<text text-anchor="middle" x="332.86" y="-343.5" font-family="Helvetica,sans-Serif" font-size="10.00">inc/check_bonus.h</text>
</a>
</g>
</g>
<!-- Node2 -->
<g id="node2" class="node">
<title>Node2</title>
<g id="a_node2"><a xlink:href="error__type_8h.html" target="_top" xlink:title=" ">
<polygon fill="none" stroke="black" points="108.86,-280.5 108.86,-299.5 184.86,-299.5 184.86,-280.5 108.86,-280.5"/>
<text text-anchor="middle" x="146.86" y="-287.5" font-family="Helvetica,sans-Serif" font-size="10.00">error_type.h</text>
</a>
</g>
</g>
<!-- Node1&#45;&gt;Node2 -->
<g id="edge1" class="edge">
<title>Node1&#45;&gt;Node2</title>
<path fill="none" stroke="midnightblue" d="M303.39,-336.44C271.69,-327.24 221.13,-312.56 186.09,-302.39"/>
<polygon fill="midnightblue" stroke="midnightblue" points="186.78,-298.94 176.2,-299.52 184.83,-305.67 186.78,-298.94"/>
</g>
<!-- Node3 -->
<g id="node3" class="node">
<title>Node3</title>
<g id="a_node3"><a xlink:href="error__msg_8h.html" target="_top" xlink:title=" ">
<polygon fill="none" stroke="black" points="241.36,-280.5 241.36,-299.5 316.36,-299.5 316.36,-280.5 241.36,-280.5"/>
<text text-anchor="middle" x="278.86" y="-287.5" font-family="Helvetica,sans-Serif" font-size="10.00">error_msg.h</text>
</a>
</g>
</g>
<!-- Node1&#45;&gt;Node3 -->
<g id="edge2" class="edge">
<title>Node1&#45;&gt;Node3</title>
<path fill="none" stroke="midnightblue" d="M323.95,-336.08C316.08,-328.22 304.43,-316.57 294.94,-307.08"/>
<polygon fill="midnightblue" stroke="midnightblue" points="297.16,-304.35 287.61,-299.75 292.21,-309.3 297.16,-304.35"/>
</g>
<!-- Node7 -->
<g id="node7" class="node">
<title>Node7</title>
<g id="a_node7"><a xlink:href="entities__bonus_8h.html" target="_top" xlink:title=" ">
<polygon fill="none" stroke="black" points="79.36,-224.5 79.36,-243.5 176.36,-243.5 176.36,-224.5 79.36,-224.5"/>
<text text-anchor="middle" x="127.86" y="-231.5" font-family="Helvetica,sans-Serif" font-size="10.00">entities_bonus.h</text>
</a>
</g>
</g>
<!-- Node1&#45;&gt;Node7 -->
<g id="edge25" class="edge">
<title>Node1&#45;&gt;Node7</title>
<path fill="none" stroke="midnightblue" d="M311.17,-336.37C290.43,-327.87 258.47,-314.15 231.86,-300 202.06,-284.15 169.28,-263 148.65,-249.2"/>
<polygon fill="midnightblue" stroke="midnightblue" points="150.58,-246.28 140.33,-243.59 146.67,-252.08 150.58,-246.28"/>
</g>
<!-- Node15 -->
<g id="node15" class="node">
<title>Node15</title>
<g id="a_node15"><a xlink:title=" ">
<polygon fill="none" stroke="#bfbfbf" points="443.86,-224.5 443.86,-243.5 501.86,-243.5 501.86,-224.5 443.86,-224.5"/>
<text text-anchor="middle" x="472.86" y="-231.5" font-family="Helvetica,sans-Serif" font-size="10.00">ft_char.h</text>
</a>
</g>
</g>
<!-- Node1&#45;&gt;Node15 -->
<g id="edge20" class="edge">
<title>Node1&#45;&gt;Node15</title>
<path fill="none" stroke="midnightblue" d="M355.45,-336.36C373.95,-328.6 400.19,-315.97 419.86,-300 436.92,-286.15 452.29,-266.03 462.03,-251.86"/>
<polygon fill="midnightblue" stroke="midnightblue" points="464.95,-253.79 467.58,-243.52 459.12,-249.91 464.95,-253.79"/>
</g>
<!-- Node16 -->
<g id="node16" class="node">
<title>Node16</title>
<g id="a_node16"><a xlink:href="ft__strtod_8h.html" target="_top" xlink:title=" ">
<polygon fill="none" stroke="black" points="344.86,-280.5 344.86,-299.5 410.86,-299.5 410.86,-280.5 344.86,-280.5"/>
<text text-anchor="middle" x="377.86" y="-287.5" font-family="Helvetica,sans-Serif" font-size="10.00">ft_strtod.h</text>
</a>
</g>
</g>
<!-- Node1&#45;&gt;Node16 -->
<g id="edge21" class="edge">
<title>Node1&#45;&gt;Node16</title>
<path fill="none" stroke="midnightblue" d="M340.29,-336.08C346.72,-328.38 356.17,-317.03 363.99,-307.65"/>
<polygon fill="midnightblue" stroke="midnightblue" points="366.86,-309.67 370.57,-299.75 361.48,-305.19 366.86,-309.67"/>
</g>
<!-- Node17 -->
<g id="node17" class="node">
<title>Node17</title>
<g id="a_node17"><a xlink:href="mini_r_t__config__bonus_8h.html" target="_top" xlink:title=" ">
<polygon fill="none" stroke="black" points="466.86,-280.5 466.86,-299.5 594.86,-299.5 594.86,-280.5 466.86,-280.5"/>
<text text-anchor="middle" x="530.86" y="-287.5" font-family="Helvetica,sans-Serif" font-size="10.00">miniRT_config_bonus.h</text>
</a>
</g>
</g>
<!-- Node1&#45;&gt;Node17 -->
<g id="edge26" class="edge">
<title>Node1&#45;&gt;Node17</title>
<path fill="none" stroke="midnightblue" d="M364.24,-336.44C398.13,-327.2 452.27,-312.44 489.59,-302.26"/>
<polygon fill="midnightblue" stroke="midnightblue" points="490.91,-305.52 499.64,-299.52 489.07,-298.77 490.91,-305.52"/>
</g>
<!-- Node4 -->
<g id="node4" class="node">
<title>Node4</title>
<g id="a_node4"><a xlink:title=" ">
<polygon fill="none" stroke="#bfbfbf" points="259.86,-112.5 259.86,-131.5 309.86,-131.5 309.86,-112.5 259.86,-112.5"/>
<text text-anchor="middle" x="284.86" y="-119.5" font-family="Helvetica,sans-Serif" font-size="10.00">stdio.h</text>
</a>
</g>
</g>
<!-- Node3&#45;&gt;Node4 -->
<g id="edge3" class="edge">
<title>Node3&#45;&gt;Node4</title>
<path fill="none" stroke="midnightblue" d="M279.19,-280.08C280.13,-253.95 282.9,-177.21 284.19,-141.58"/>
<polygon fill="midnightblue" stroke="midnightblue" points="287.69,-141.69 284.55,-131.57 280.69,-141.44 287.69,-141.69"/>
</g>
<!-- Node5 -->
<g id="node5" class="node">
<title>Node5</title>
<g id="a_node5"><a xlink:title=" ">
<polygon fill="none" stroke="#bfbfbf" points="298.36,-224.5 298.36,-243.5 349.36,-243.5 349.36,-224.5 298.36,-224.5"/>
<text text-anchor="middle" x="323.86" y="-231.5" font-family="Helvetica,sans-Serif" font-size="10.00">errno.h</text>
</a>
</g>
</g>
<!-- Node3&#45;&gt;Node5 -->
<g id="edge4" class="edge">
<title>Node3&#45;&gt;Node5</title>
<path fill="none" stroke="midnightblue" d="M286.29,-280.08C292.72,-272.38 302.17,-261.03 309.99,-251.65"/>
<polygon fill="midnightblue" stroke="midnightblue" points="312.86,-253.67 316.57,-243.75 307.48,-249.19 312.86,-253.67"/>
</g>
<!-- Node6 -->
<g id="node6" class="node">
<title>Node6</title>
<g id="a_node6"><a xlink:title=" ">
<polygon fill="none" stroke="#bfbfbf" points="194.36,-224.5 194.36,-243.5 241.36,-243.5 241.36,-224.5 194.36,-224.5"/>
<text text-anchor="middle" x="217.86" y="-231.5" font-family="Helvetica,sans-Serif" font-size="10.00">ft_fd.h</text>
</a>
</g>
</g>
<!-- Node3&#45;&gt;Node6 -->
<g id="edge5" class="edge">
<title>Node3&#45;&gt;Node6</title>
<path fill="none" stroke="midnightblue" d="M269.06,-280.32C260.05,-272.34 246.46,-260.31 235.55,-250.65"/>
<polygon fill="midnightblue" stroke="midnightblue" points="237.65,-247.84 227.84,-243.83 233.01,-253.08 237.65,-247.84"/>
</g>
<!-- Node3&#45;&gt;Node7 -->
<g id="edge6" class="edge">
<title>Node3&#45;&gt;Node7</title>
<path fill="none" stroke="midnightblue" d="M254.94,-280.44C229.64,-271.4 189.56,-257.06 161.18,-246.92"/>
<polygon fill="midnightblue" stroke="midnightblue" points="162.27,-243.59 151.68,-243.52 159.92,-250.18 162.27,-243.59"/>
</g>
<!-- Node8 -->
<g id="node8" class="node">
<title>Node8</title>
<g id="a_node8"><a xlink:title=" ">
<polygon fill="none" stroke="#bfbfbf" points="62.86,-0.5 62.86,-19.5 124.86,-19.5 124.86,-0.5 62.86,-0.5"/>
<text text-anchor="middle" x="93.86" y="-7.5" font-family="Helvetica,sans-Serif" font-size="10.00">stdbool.h</text>
</a>
</g>
</g>
<!-- Node7&#45;&gt;Node8 -->
<g id="edge7" class="edge">
<title>Node7&#45;&gt;Node8</title>
<path fill="none" stroke="midnightblue" d="M109.81,-224.39C94.92,-216.57 74,-203.85 59.86,-188 22.68,-146.32 15.89,-130.31 2.86,-76 0.79,-67.36 -1.83,-63.55 2.86,-56 13.95,-38.15 34.45,-27.17 53.18,-20.52"/>
<polygon fill="midnightblue" stroke="midnightblue" points="54.32,-23.84 62.76,-17.43 52.17,-17.17 54.32,-23.84"/>
</g>
<!-- Node9 -->
<g id="node9" class="node">
<title>Node9</title>
<g id="a_node9"><a xlink:title=" ">
<polygon fill="none" stroke="#bfbfbf" points="12.36,-56.5 12.36,-75.5 65.36,-75.5 65.36,-56.5 12.36,-56.5"/>
<text text-anchor="middle" x="38.86" y="-63.5" font-family="Helvetica,sans-Serif" font-size="10.00">stdlib.h</text>
</a>
</g>
</g>
<!-- Node7&#45;&gt;Node9 -->
<g id="edge8" class="edge">
<title>Node7&#45;&gt;Node9</title>
<path fill="none" stroke="midnightblue" d="M116.86,-224.44C97.52,-208.62 57.92,-172.7 41.86,-132 36.09,-117.37 35.71,-99.43 36.56,-86.1"/>
<polygon fill="midnightblue" stroke="midnightblue" points="40.08,-86.07 37.53,-75.78 33.11,-85.42 40.08,-86.07"/>
</g>
<!-- Node10 -->
<g id="node10" class="node">
<title>Node10</title>
<g id="a_node10"><a xlink:href="vec3_8h.html" target="_top" xlink:title=" ">
<polygon fill="none" stroke="black" points="160.36,-56.5 160.36,-75.5 209.36,-75.5 209.36,-56.5 160.36,-56.5"/>
<text text-anchor="middle" x="184.86" y="-63.5" font-family="Helvetica,sans-Serif" font-size="10.00">vec3.h</text>
</a>
</g>
</g>
<!-- Node7&#45;&gt;Node10 -->
<g id="edge9" class="edge">
<title>Node7&#45;&gt;Node10</title>
<path fill="none" stroke="midnightblue" d="M149.37,-224.4C165.1,-217.03 185.74,-204.91 197.86,-188 217.88,-160.09 221.03,-145.1 211.86,-112 209.07,-101.92 203.35,-91.83 197.9,-83.77"/>
<polygon fill="midnightblue" stroke="midnightblue" points="200.71,-81.69 192.01,-75.64 195.04,-85.79 200.71,-81.69"/>
</g>
<!-- Node12 -->
<g id="node12" class="node">
<title>Node12</title>
<g id="a_node12"><a xlink:href="colour__bonus_8h.html" target="_top" xlink:title=" ">
<polygon fill="none" stroke="black" points="98.86,-168.5 98.86,-187.5 188.86,-187.5 188.86,-168.5 98.86,-168.5"/>
<text text-anchor="middle" x="143.86" y="-175.5" font-family="Helvetica,sans-Serif" font-size="10.00">colour_bonus.h</text>
</a>
</g>
</g>
<!-- Node7&#45;&gt;Node12 -->
<g id="edge12" class="edge">
<title>Node7&#45;&gt;Node12</title>
<path fill="none" stroke="midnightblue" d="M130.51,-224.08C132.65,-216.85 135.74,-206.41 138.41,-197.4"/>
<polygon fill="midnightblue" stroke="midnightblue" points="141.79,-198.33 141.27,-187.75 135.07,-196.34 141.79,-198.33"/>
</g>
<!-- Node10&#45;&gt;Node8 -->
<g id="edge11" class="edge">
<title>Node10&#45;&gt;Node8</title>
<path fill="none" stroke="midnightblue" d="M170.24,-56.32C155.91,-47.82 133.85,-34.73 117.11,-24.8"/>
<polygon fill="midnightblue" stroke="midnightblue" points="118.83,-21.75 108.45,-19.65 115.26,-27.77 118.83,-21.75"/>
</g>
<!-- Node11 -->
<g id="node11" class="node">
<title>Node11</title>
<g id="a_node11"><a xlink:title=" ">
<polygon fill="none" stroke="#bfbfbf" points="159.36,-0.5 159.36,-19.5 210.36,-19.5 210.36,-0.5 159.36,-0.5"/>
<text text-anchor="middle" x="184.86" y="-7.5" font-family="Helvetica,sans-Serif" font-size="10.00">math.h</text>
</a>
</g>
</g>
<!-- Node10&#45;&gt;Node11 -->
<g id="edge10" class="edge">
<title>Node10&#45;&gt;Node11</title>
<path fill="none" stroke="midnightblue" d="M184.86,-56.08C184.86,-49.01 184.86,-38.86 184.86,-29.99"/>
<polygon fill="midnightblue" stroke="midnightblue" points="188.36,-29.75 184.86,-19.75 181.36,-29.75 188.36,-29.75"/>
</g>
<!-- Node12&#45;&gt;Node4 -->
<g id="edge13" class="edge">
<title>Node12&#45;&gt;Node4</title>
<path fill="none" stroke="midnightblue" d="M166.21,-168.44C189.62,-159.48 226.6,-145.31 253.05,-135.18"/>
<polygon fill="midnightblue" stroke="midnightblue" points="254.54,-138.36 262.63,-131.52 252.04,-131.82 254.54,-138.36"/>
</g>
<!-- Node13 -->
<g id="node13" class="node">
<title>Node13</title>
<g id="a_node13"><a xlink:title=" ">
<polygon fill="none" stroke="#bfbfbf" points="150.36,-112.5 150.36,-131.5 203.36,-131.5 203.36,-112.5 150.36,-112.5"/>
<text text-anchor="middle" x="176.86" y="-119.5" font-family="Helvetica,sans-Serif" font-size="10.00">stdint.h</text>
</a>
</g>
</g>
<!-- Node12&#45;&gt;Node13 -->
<g id="edge14" class="edge">
<title>Node12&#45;&gt;Node13</title>
<path fill="none" stroke="midnightblue" d="M149.31,-168.08C153.88,-160.61 160.53,-149.72 166.16,-140.52"/>
<polygon fill="midnightblue" stroke="midnightblue" points="169.29,-142.11 171.52,-131.75 163.31,-138.46 169.29,-142.11"/>
</g>
<!-- Node14 -->
<g id="node14" class="node">
<title>Node14</title>
<g id="a_node14"><a xlink:href="utils__bonus_8h.html" target="_top" xlink:title=" ">
<polygon fill="none" stroke="black" points="51.36,-112.5 51.36,-131.5 132.36,-131.5 132.36,-112.5 51.36,-112.5"/>
<text text-anchor="middle" x="91.86" y="-119.5" font-family="Helvetica,sans-Serif" font-size="10.00">utils_bonus.h</text>
</a>
</g>
</g>
<!-- Node12&#45;&gt;Node14 -->
<g id="edge15" class="edge">
<title>Node12&#45;&gt;Node14</title>
<path fill="none" stroke="midnightblue" d="M135.28,-168.08C127.7,-160.22 116.48,-148.57 107.35,-139.08"/>
<polygon fill="midnightblue" stroke="midnightblue" points="109.75,-136.53 100.29,-131.75 104.71,-141.38 109.75,-136.53"/>
</g>
<!-- Node14&#45;&gt;Node8 -->
<g id="edge17" class="edge">
<title>Node14&#45;&gt;Node8</title>
<path fill="none" stroke="midnightblue" d="M92.02,-112.37C92.34,-94.62 93.09,-53.67 93.53,-29.6"/>
<polygon fill="midnightblue" stroke="midnightblue" points="97.02,-29.65 93.71,-19.59 90.03,-29.53 97.02,-29.65"/>
</g>
<!-- Node14&#45;&gt;Node9 -->
<g id="edge18" class="edge">
<title>Node14&#45;&gt;Node9</title>
<path fill="none" stroke="midnightblue" d="M83.11,-112.08C75.39,-104.22 63.96,-92.57 54.65,-83.08"/>
<polygon fill="midnightblue" stroke="midnightblue" points="56.95,-80.44 47.45,-75.75 51.96,-85.34 56.95,-80.44"/>
</g>
<!-- Node14&#45;&gt;Node10 -->
<g id="edge19" class="edge">
<title>Node14&#45;&gt;Node10</title>
<path fill="none" stroke="midnightblue" d="M106.81,-112.32C121.45,-103.82 144,-90.73 161.1,-80.8"/>
<polygon fill="midnightblue" stroke="midnightblue" points="163.07,-83.7 169.96,-75.65 159.55,-77.65 163.07,-83.7"/>
</g>
<!-- Node14&#45;&gt;Node11 -->
<g id="edge16" class="edge">
<title>Node14&#45;&gt;Node11</title>
<path fill="none" stroke="midnightblue" d="M99.16,-112.37C114.64,-94.05 151,-51.05 171.03,-27.36"/>
<polygon fill="midnightblue" stroke="midnightblue" points="173.82,-29.49 177.6,-19.59 168.47,-24.97 173.82,-29.49"/>
</g>
<!-- Node16&#45;&gt;Node4 -->
<g id="edge22" class="edge">
<title>Node16&#45;&gt;Node4</title>
<path fill="none" stroke="midnightblue" d="M376.13,-280.24C373.38,-267.43 367.34,-243.02 357.86,-224 341.72,-191.59 315.48,-158.39 299.25,-139.28"/>
<polygon fill="midnightblue" stroke="midnightblue" points="301.75,-136.83 292.57,-131.55 296.46,-141.4 301.75,-136.83"/>
</g>
<!-- Node16&#45;&gt;Node11 -->
<g id="edge23" class="edge">
<title>Node16&#45;&gt;Node11</title>
<path fill="none" stroke="midnightblue" d="M383.15,-280.23C393.59,-262.04 415.86,-218.6 415.86,-179 415.86,-179 415.86,-179 415.86,-121 415.86,-35.58 285.53,-16.42 220.66,-12.18"/>
<polygon fill="midnightblue" stroke="midnightblue" points="220.65,-8.67 210.47,-11.6 220.25,-15.66 220.65,-8.67"/>
</g>
<!-- Node16&#45;&gt;Node15 -->
<g id="edge24" class="edge">
<title>Node16&#45;&gt;Node15</title>
<path fill="none" stroke="midnightblue" d="M393.13,-280.32C408.08,-271.82 431.12,-258.73 448.59,-248.8"/>
<polygon fill="midnightblue" stroke="midnightblue" points="450.67,-251.64 457.64,-243.65 447.21,-245.55 450.67,-251.64"/>
</g>
</g>
</svg>
