<?xml version="1.0" encoding="UTF-8" standalone="no"?>
<!DOCTYPE svg PUBLIC "-//W3C//DTD SVG 1.1//EN"
 "http://www.w3.org/Graphics/SVG/1.1/DTD/svg11.dtd">
<!-- Generated by graphviz version 2.43.0 (0)
 -->
<!-- Title: src/check_entity_sp_pl_cy_bonus.c Pages: 1 -->
<svg width="488pt" height="487pt"
 viewBox="0.00 0.00 488.47 487.00" xmlns="http://www.w3.org/2000/svg" xmlns:xlink="http://www.w3.org/1999/xlink">
<g id="graph0" class="graph" transform="scale(1 1) rotate(0) translate(4 483)">
<title>src/check_entity_sp_pl_cy_bonus.c</title>
<!-- Node1 -->
<g id="node1" class="node">
<title>Node1</title>
<g id="a_node1"><a xlink:title=" ">
<polygon fill="#bfbfbf" stroke="black" points="228.97,-448.5 228.97,-478.5 341.97,-478.5 341.97,-448.5 228.97,-448.5"/>
<text text-anchor="start" x="236.97" y="-466.5" font-family="Helvetica,sans-Serif" font-size="10.00">src/check_entity_sp</text>
<text text-anchor="middle" x="285.47" y="-455.5" font-family="Helvetica,sans-Serif" font-size="10.00">_pl_cy_bonus.c</text>
</a>
</g>
</g>
<!-- Node2 -->
<g id="node2" class="node">
<title>Node2</title>
<g id="a_node2"><a xlink:href="check__bonus_8h.html" target="_top" xlink:title=" ">
<polygon fill="none" stroke="black" points="240.97,-392.5 240.97,-411.5 329.97,-411.5 329.97,-392.5 240.97,-392.5"/>
<text text-anchor="middle" x="285.47" y="-399.5" font-family="Helvetica,sans-Serif" font-size="10.00">check_bonus.h</text>
</a>
</g>
</g>
<!-- Node1&#45;&gt;Node2 -->
<g id="edge1" class="edge">
<title>Node1&#45;&gt;Node2</title>
<path fill="none" stroke="midnightblue" d="M285.47,-448.4C285.47,-440.47 285.47,-430.46 285.47,-421.86"/>
<polygon fill="midnightblue" stroke="midnightblue" points="288.97,-421.66 285.47,-411.66 281.97,-421.66 288.97,-421.66"/>
</g>
<!-- Node3 -->
<g id="node3" class="node">
<title>Node3</title>
<g id="a_node3"><a xlink:href="check_8h.html" target="_top" xlink:title=" ">
<polygon fill="none" stroke="black" points="176.47,-336.5 176.47,-355.5 230.47,-355.5 230.47,-336.5 176.47,-336.5"/>
<text text-anchor="middle" x="203.47" y="-343.5" font-family="Helvetica,sans-Serif" font-size="10.00">check.h</text>
</a>
</g>
</g>
<!-- Node2&#45;&gt;Node3 -->
<g id="edge2" class="edge">
<title>Node2&#45;&gt;Node3</title>
<path fill="none" stroke="midnightblue" d="M272.29,-392.32C259.62,-383.98 240.23,-371.21 225.26,-361.35"/>
<polygon fill="midnightblue" stroke="midnightblue" points="226.89,-358.23 216.61,-355.65 223.04,-364.08 226.89,-358.23"/>
</g>
<!-- Node12 -->
<g id="node12" class="node">
<title>Node12</title>
<g id="a_node12"><a xlink:href="entities__bonus_8h.html" target="_top" xlink:title=" ">
<polygon fill="none" stroke="black" points="236.97,-280.5 236.97,-299.5 333.97,-299.5 333.97,-280.5 236.97,-280.5"/>
<text text-anchor="middle" x="285.47" y="-287.5" font-family="Helvetica,sans-Serif" font-size="10.00">entities_bonus.h</text>
</a>
</g>
</g>
<!-- Node2&#45;&gt;Node12 -->
<g id="edge27" class="edge">
<title>Node2&#45;&gt;Node12</title>
<path fill="none" stroke="midnightblue" d="M285.47,-392.37C285.47,-374.62 285.47,-333.67 285.47,-309.6"/>
<polygon fill="midnightblue" stroke="midnightblue" points="288.97,-309.59 285.47,-299.59 281.97,-309.59 288.97,-309.59"/>
</g>
<!-- Node20 -->
<g id="node20" class="node">
<title>Node20</title>
<g id="a_node20"><a xlink:href="mini_r_t__config__bonus_8h.html" target="_top" xlink:title=" ">
<polygon fill="none" stroke="black" points="352.47,-280.5 352.47,-299.5 480.47,-299.5 480.47,-280.5 352.47,-280.5"/>
<text text-anchor="middle" x="416.47" y="-287.5" font-family="Helvetica,sans-Serif" font-size="10.00">miniRT_config_bonus.h</text>
</a>
</g>
</g>
<!-- Node2&#45;&gt;Node20 -->
<g id="edge28" class="edge">
<title>Node2&#45;&gt;Node20</title>
<path fill="none" stroke="midnightblue" d="M295.75,-392.37C317.94,-373.73 370.58,-329.53 398.45,-306.13"/>
<polygon fill="midnightblue" stroke="midnightblue" points="400.83,-308.7 406.24,-299.59 396.33,-303.34 400.83,-308.7"/>
</g>
<!-- Node4 -->
<g id="node4" class="node">
<title>Node4</title>
<g id="a_node4"><a xlink:title=" ">
<polygon fill="none" stroke="#bfbfbf" points="69.47,-280.5 69.47,-299.5 113.47,-299.5 113.47,-280.5 69.47,-280.5"/>
<text text-anchor="middle" x="91.47" y="-287.5" font-family="Helvetica,sans-Serif" font-size="10.00">libft.h</text>
</a>
</g>
</g>
<!-- Node3&#45;&gt;Node4 -->
<g id="edge3" class="edge">
<title>Node3&#45;&gt;Node4</title>
<path fill="none" stroke="midnightblue" d="M185.47,-336.32C167.43,-327.62 139.42,-314.12 118.67,-304.11"/>
<polygon fill="midnightblue" stroke="midnightblue" points="119.95,-300.84 109.42,-299.65 116.91,-307.15 119.95,-300.84"/>
</g>
<!-- Node5 -->
<g id="node5" class="node">
<title>Node5</title>
<g id="a_node5"><a xlink:href="mini_r_t__error_8h.html" target="_top" xlink:title=" ">
<polygon fill="none" stroke="black" points="131.97,-280.5 131.97,-299.5 218.97,-299.5 218.97,-280.5 131.97,-280.5"/>
<text text-anchor="middle" x="175.47" y="-287.5" font-family="Helvetica,sans-Serif" font-size="10.00">miniRT_error.h</text>
</a>
</g>
</g>
<!-- Node3&#45;&gt;Node5 -->
<g id="edge4" class="edge">
<title>Node3&#45;&gt;Node5</title>
<path fill="none" stroke="midnightblue" d="M198.84,-336.08C195.01,-328.69 189.44,-317.95 184.7,-308.81"/>
<polygon fill="midnightblue" stroke="midnightblue" points="187.72,-307.02 180.01,-299.75 181.5,-310.24 187.72,-307.02"/>
</g>
<!-- Node9 -->
<g id="node9" class="node">
<title>Node9</title>
<g id="a_node9"><a xlink:href="ft__strtod_8h.html" target="_top" xlink:title=" ">
<polygon fill="none" stroke="black" points="8.47,-168.5 8.47,-187.5 74.47,-187.5 74.47,-168.5 8.47,-168.5"/>
<text text-anchor="middle" x="41.47" y="-175.5" font-family="Helvetica,sans-Serif" font-size="10.00">ft_strtod.h</text>
</a>
</g>
</g>
<!-- Node3&#45;&gt;Node9 -->
<g id="edge8" class="edge">
<title>Node3&#45;&gt;Node9</title>
<path fill="none" stroke="midnightblue" d="M176.25,-344.57C143.56,-342.48 89.51,-333.73 60.47,-300 35.69,-271.22 36.24,-223.72 38.83,-197.61"/>
<polygon fill="midnightblue" stroke="midnightblue" points="42.32,-197.91 40.04,-187.56 35.37,-197.07 42.32,-197.91"/>
</g>
<!-- Node3&#45;&gt;Node12 -->
<g id="edge12" class="edge">
<title>Node3&#45;&gt;Node12</title>
<path fill="none" stroke="midnightblue" d="M216.64,-336.32C229.32,-327.98 248.7,-315.21 263.67,-305.35"/>
<polygon fill="midnightblue" stroke="midnightblue" points="265.9,-308.08 272.33,-299.65 262.05,-302.23 265.9,-308.08"/>
</g>
<!-- Node3&#45;&gt;Node20 -->
<g id="edge26" class="edge">
<title>Node3&#45;&gt;Node20</title>
<path fill="none" stroke="midnightblue" d="M230.88,-338.05C266.87,-328.93 330.47,-312.8 373.04,-302.01"/>
<polygon fill="midnightblue" stroke="midnightblue" points="374.02,-305.37 382.85,-299.52 372.3,-298.59 374.02,-305.37"/>
</g>
<!-- Node6 -->
<g id="node6" class="node">
<title>Node6</title>
<g id="a_node6"><a xlink:title=" ">
<polygon fill="none" stroke="#bfbfbf" points="88.47,-112.5 88.47,-131.5 138.47,-131.5 138.47,-112.5 88.47,-112.5"/>
<text text-anchor="middle" x="113.47" y="-119.5" font-family="Helvetica,sans-Serif" font-size="10.00">stdio.h</text>
</a>
</g>
</g>
<!-- Node5&#45;&gt;Node6 -->
<g id="edge5" class="edge">
<title>Node5&#45;&gt;Node6</title>
<path fill="none" stroke="midnightblue" d="M172.13,-280.08C162.33,-253.83 133.47,-176.55 120.23,-141.12"/>
<polygon fill="midnightblue" stroke="midnightblue" points="123.45,-139.71 116.67,-131.57 116.89,-142.16 123.45,-139.71"/>
</g>
<!-- Node7 -->
<g id="node7" class="node">
<title>Node7</title>
<g id="a_node7"><a xlink:title=" ">
<polygon fill="none" stroke="#bfbfbf" points="187.97,-224.5 187.97,-243.5 238.97,-243.5 238.97,-224.5 187.97,-224.5"/>
<text text-anchor="middle" x="213.47" y="-231.5" font-family="Helvetica,sans-Serif" font-size="10.00">errno.h</text>
</a>
</g>
</g>
<!-- Node5&#45;&gt;Node7 -->
<g id="edge6" class="edge">
<title>Node5&#45;&gt;Node7</title>
<path fill="none" stroke="midnightblue" d="M181.74,-280.08C187.11,-272.46 194.99,-261.26 201.55,-251.94"/>
<polygon fill="midnightblue" stroke="midnightblue" points="204.42,-253.94 207.31,-243.75 198.69,-249.91 204.42,-253.94"/>
</g>
<!-- Node8 -->
<g id="node8" class="node">
<title>Node8</title>
<g id="a_node8"><a xlink:title=" ">
<polygon fill="none" stroke="#bfbfbf" points="83.97,-224.5 83.97,-243.5 130.97,-243.5 130.97,-224.5 83.97,-224.5"/>
<text text-anchor="middle" x="107.47" y="-231.5" font-family="Helvetica,sans-Serif" font-size="10.00">ft_fd.h</text>
</a>
</g>
</g>
<!-- Node5&#45;&gt;Node8 -->
<g id="edge7" class="edge">
<title>Node5&#45;&gt;Node8</title>
<path fill="none" stroke="midnightblue" d="M164.54,-280.32C154.29,-272.18 138.75,-259.84 126.47,-250.09"/>
<polygon fill="midnightblue" stroke="midnightblue" points="128.6,-247.31 118.59,-243.83 124.25,-252.79 128.6,-247.31"/>
</g>
<!-- Node9&#45;&gt;Node6 -->
<g id="edge9" class="edge">
<title>Node9&#45;&gt;Node6</title>
<path fill="none" stroke="midnightblue" d="M53.04,-168.32C63.89,-160.18 80.35,-147.84 93.35,-138.09"/>
<polygon fill="midnightblue" stroke="midnightblue" points="95.79,-140.63 101.69,-131.83 91.59,-135.03 95.79,-140.63"/>
</g>
<!-- Node10 -->
<g id="node10" class="node">
<title>Node10</title>
<g id="a_node10"><a xlink:title=" ">
<polygon fill="none" stroke="#bfbfbf" points="135.97,-0.5 135.97,-19.5 186.97,-19.5 186.97,-0.5 135.97,-0.5"/>
<text text-anchor="middle" x="161.47" y="-7.5" font-family="Helvetica,sans-Serif" font-size="10.00">math.h</text>
</a>
</g>
</g>
<!-- Node9&#45;&gt;Node10 -->
<g id="edge10" class="edge">
<title>Node9&#45;&gt;Node10</title>
<path fill="none" stroke="midnightblue" d="M29.92,-168.26C15.03,-155.86 -7.71,-132.41 3.47,-112 29.38,-64.69 87.94,-36.31 126.03,-22.17"/>
<polygon fill="midnightblue" stroke="midnightblue" points="127.47,-25.38 135.71,-18.72 125.12,-18.78 127.47,-25.38"/>
</g>
<!-- Node11 -->
<g id="node11" class="node">
<title>Node11</title>
<g id="a_node11"><a xlink:title=" ">
<polygon fill="none" stroke="#bfbfbf" points="12.47,-112.5 12.47,-131.5 70.47,-131.5 70.47,-112.5 12.47,-112.5"/>
<text text-anchor="middle" x="41.47" y="-119.5" font-family="Helvetica,sans-Serif" font-size="10.00">ft_char.h</text>
</a>
</g>
</g>
<!-- Node9&#45;&gt;Node11 -->
<g id="edge11" class="edge">
<title>Node9&#45;&gt;Node11</title>
<path fill="none" stroke="midnightblue" d="M41.47,-168.08C41.47,-161.01 41.47,-150.86 41.47,-141.99"/>
<polygon fill="midnightblue" stroke="midnightblue" points="44.97,-141.75 41.47,-131.75 37.97,-141.75 44.97,-141.75"/>
</g>
<!-- Node13 -->
<g id="node13" class="node">
<title>Node13</title>
<g id="a_node13"><a xlink:href="entities_8h.html" target="_top" xlink:title=" ">
<polygon fill="none" stroke="black" points="272.47,-224.5 272.47,-243.5 334.47,-243.5 334.47,-224.5 272.47,-224.5"/>
<text text-anchor="middle" x="303.47" y="-231.5" font-family="Helvetica,sans-Serif" font-size="10.00">entities.h</text>
</a>
</g>
</g>
<!-- Node12&#45;&gt;Node13 -->
<g id="edge13" class="edge">
<title>Node12&#45;&gt;Node13</title>
<path fill="none" stroke="midnightblue" d="M288.44,-280.08C290.85,-272.85 294.33,-262.41 297.34,-253.4"/>
<polygon fill="midnightblue" stroke="midnightblue" points="300.71,-254.34 300.55,-243.75 294.07,-252.13 300.71,-254.34"/>
</g>
<!-- Node14 -->
<g id="node14" class="node">
<title>Node14</title>
<g id="a_node14"><a xlink:title=" ">
<polygon fill="none" stroke="#bfbfbf" points="221.47,-0.5 221.47,-19.5 283.47,-19.5 283.47,-0.5 221.47,-0.5"/>
<text text-anchor="middle" x="252.47" y="-7.5" font-family="Helvetica,sans-Serif" font-size="10.00">stdbool.h</text>
</a>
</g>
</g>
<!-- Node13&#45;&gt;Node14 -->
<g id="edge14" class="edge">
<title>Node13&#45;&gt;Node14</title>
<path fill="none" stroke="midnightblue" d="M306.33,-224.2C310.04,-211.73 315.78,-188.19 313.47,-168 307.63,-117.02 307.66,-102.26 285.47,-56 280.61,-45.86 273.37,-35.67 266.92,-27.56"/>
<polygon fill="midnightblue" stroke="midnightblue" points="269.44,-25.12 260.36,-19.67 264.06,-29.6 269.44,-25.12"/>
</g>
<!-- Node15 -->
<g id="node15" class="node">
<title>Node15</title>
<g id="a_node15"><a xlink:title=" ">
<polygon fill="none" stroke="#bfbfbf" points="369.97,-168.5 369.97,-187.5 422.97,-187.5 422.97,-168.5 369.97,-168.5"/>
<text text-anchor="middle" x="396.47" y="-175.5" font-family="Helvetica,sans-Serif" font-size="10.00">stdlib.h</text>
</a>
</g>
</g>
<!-- Node13&#45;&gt;Node15 -->
<g id="edge15" class="edge">
<title>Node13&#45;&gt;Node15</title>
<path fill="none" stroke="midnightblue" d="M318.41,-224.32C333.05,-215.82 355.6,-202.73 372.71,-192.8"/>
<polygon fill="midnightblue" stroke="midnightblue" points="374.67,-195.7 381.56,-187.65 371.16,-189.65 374.67,-195.7"/>
</g>
<!-- Node16 -->
<g id="node16" class="node">
<title>Node16</title>
<g id="a_node16"><a xlink:href="vec3_8h.html" target="_top" xlink:title=" ">
<polygon fill="none" stroke="black" points="227.97,-56.5 227.97,-75.5 276.97,-75.5 276.97,-56.5 227.97,-56.5"/>
<text text-anchor="middle" x="252.47" y="-63.5" font-family="Helvetica,sans-Serif" font-size="10.00">vec3.h</text>
</a>
</g>
</g>
<!-- Node13&#45;&gt;Node16 -->
<g id="edge16" class="edge">
<title>Node13&#45;&gt;Node16</title>
<path fill="none" stroke="midnightblue" d="M303.32,-224.44C302.71,-204.16 299.56,-151.89 283.47,-112 279.35,-101.79 272.6,-91.59 266.44,-83.49"/>
<polygon fill="midnightblue" stroke="midnightblue" points="269.13,-81.25 260.15,-75.62 263.66,-85.62 269.13,-81.25"/>
</g>
<!-- Node17 -->
<g id="node17" class="node">
<title>Node17</title>
<g id="a_node17"><a xlink:href="colour_8h.html" target="_top" xlink:title=" ">
<polygon fill="none" stroke="black" points="203.97,-168.5 203.97,-187.5 258.97,-187.5 258.97,-168.5 203.97,-168.5"/>
<text text-anchor="middle" x="231.47" y="-175.5" font-family="Helvetica,sans-Serif" font-size="10.00">colour.h</text>
</a>
</g>
</g>
<!-- Node13&#45;&gt;Node17 -->
<g id="edge19" class="edge">
<title>Node13&#45;&gt;Node17</title>
<path fill="none" stroke="midnightblue" d="M291.9,-224.32C281.05,-216.18 264.59,-203.84 251.58,-194.09"/>
<polygon fill="midnightblue" stroke="midnightblue" points="253.35,-191.03 243.25,-187.83 249.15,-196.63 253.35,-191.03"/>
</g>
<!-- Node16&#45;&gt;Node10 -->
<g id="edge17" class="edge">
<title>Node16&#45;&gt;Node10</title>
<path fill="none" stroke="midnightblue" d="M237.85,-56.32C223.52,-47.82 201.46,-34.73 184.72,-24.8"/>
<polygon fill="midnightblue" stroke="midnightblue" points="186.44,-21.75 176.05,-19.65 182.87,-27.77 186.44,-21.75"/>
</g>
<!-- Node16&#45;&gt;Node14 -->
<g id="edge18" class="edge">
<title>Node16&#45;&gt;Node14</title>
<path fill="none" stroke="midnightblue" d="M252.47,-56.08C252.47,-49.01 252.47,-38.86 252.47,-29.99"/>
<polygon fill="midnightblue" stroke="midnightblue" points="255.97,-29.75 252.47,-19.75 248.97,-29.75 255.97,-29.75"/>
</g>
<!-- Node17&#45;&gt;Node6 -->
<g id="edge20" class="edge">
<title>Node17&#45;&gt;Node6</title>
<path fill="none" stroke="midnightblue" d="M212.77,-168.44C193.52,-159.64 163.32,-145.81 141.27,-135.72"/>
<polygon fill="midnightblue" stroke="midnightblue" points="142.63,-132.5 132.08,-131.52 139.71,-138.86 142.63,-132.5"/>
</g>
<!-- Node18 -->
<g id="node18" class="node">
<title>Node18</title>
<g id="a_node18"><a xlink:title=" ">
<polygon fill="none" stroke="#bfbfbf" points="221.97,-112.5 221.97,-131.5 274.97,-131.5 274.97,-112.5 221.97,-112.5"/>
<text text-anchor="middle" x="248.47" y="-119.5" font-family="Helvetica,sans-Serif" font-size="10.00">stdint.h</text>
</a>
</g>
</g>
<!-- Node17&#45;&gt;Node18 -->
<g id="edge21" class="edge">
<title>Node17&#45;&gt;Node18</title>
<path fill="none" stroke="midnightblue" d="M234.28,-168.08C236.55,-160.85 239.84,-150.41 242.68,-141.4"/>
<polygon fill="midnightblue" stroke="midnightblue" points="246.05,-142.34 245.71,-131.75 239.37,-140.24 246.05,-142.34"/>
</g>
<!-- Node19 -->
<g id="node19" class="node">
<title>Node19</title>
<g id="a_node19"><a xlink:href="utils_8h.html" target="_top" xlink:title=" ">
<polygon fill="none" stroke="black" points="156.97,-112.5 156.97,-131.5 203.97,-131.5 203.97,-112.5 156.97,-112.5"/>
<text text-anchor="middle" x="180.47" y="-119.5" font-family="Helvetica,sans-Serif" font-size="10.00">utils.h</text>
</a>
</g>
</g>
<!-- Node17&#45;&gt;Node19 -->
<g id="edge22" class="edge">
<title>Node17&#45;&gt;Node19</title>
<path fill="none" stroke="midnightblue" d="M223.05,-168.08C215.62,-160.22 204.62,-148.57 195.66,-139.08"/>
<polygon fill="midnightblue" stroke="midnightblue" points="198.14,-136.62 188.73,-131.75 193.05,-141.42 198.14,-136.62"/>
</g>
<!-- Node19&#45;&gt;Node10 -->
<g id="edge23" class="edge">
<title>Node19&#45;&gt;Node10</title>
<path fill="none" stroke="midnightblue" d="M178.98,-112.37C175.91,-94.62 168.84,-53.67 164.68,-29.6"/>
<polygon fill="midnightblue" stroke="midnightblue" points="168.1,-28.85 162.95,-19.59 161.21,-30.04 168.1,-28.85"/>
</g>
<!-- Node19&#45;&gt;Node14 -->
<g id="edge24" class="edge">
<title>Node19&#45;&gt;Node14</title>
<path fill="none" stroke="midnightblue" d="M185.08,-112.39C191.93,-99.76 205.42,-75.58 218.47,-56 224.85,-46.43 232.54,-36.16 238.99,-27.86"/>
<polygon fill="midnightblue" stroke="midnightblue" points="241.94,-29.76 245.38,-19.74 236.44,-25.43 241.94,-29.76"/>
</g>
<!-- Node19&#45;&gt;Node16 -->
<g id="edge25" class="edge">
<title>Node19&#45;&gt;Node16</title>
<path fill="none" stroke="midnightblue" d="M192.04,-112.32C202.89,-104.18 219.35,-91.84 232.35,-82.09"/>
<polygon fill="midnightblue" stroke="midnightblue" points="234.79,-84.63 240.69,-75.83 230.59,-79.03 234.79,-84.63"/>
</g>
</g>
</svg>
