<?xml version="1.0" encoding="UTF-8" standalone="no"?>
<!DOCTYPE svg PUBLIC "-//W3C//DTD SVG 1.1//EN"
 "http://www.w3.org/Graphics/SVG/1.1/DTD/svg11.dtd">
<!-- Generated by graphviz version 2.43.0 (0)
 -->
<!-- Title: ft_isvalid_float Pages: 1 -->
<svg width="242pt" height="142pt"
 viewBox="0.00 0.00 242.00 142.00" xmlns="http://www.w3.org/2000/svg" xmlns:xlink="http://www.w3.org/1999/xlink">
<g id="graph0" class="graph" transform="scale(1 1) rotate(0) translate(4 138)">
<title>ft_isvalid_float</title>
<!-- Node1 -->
<g id="node1" class="node">
<title>Node1</title>
<g id="a_node1"><a xlink:title="Tries to convert str to float and checks range.">
<polygon fill="#bfbfbf" stroke="black" points="0,-57.5 0,-76.5 88,-76.5 88,-57.5 0,-57.5"/>
<text text-anchor="middle" x="44" y="-64.5" font-family="Helvetica,sans-Serif" font-size="10.00">ft_isvalid_float</text>
</a>
</g>
</g>
<!-- Node2 -->
<g id="node2" class="node">
<title>Node2</title>
<g id="a_node2"><a xlink:href="check_8h.html#a207347473e8d1cf324c6b70fca7155fe" target="_top" xlink:title="Error message if conversion failed.">
<polygon fill="none" stroke="black" points="129,-114.5 129,-133.5 229,-133.5 229,-114.5 129,-114.5"/>
<text text-anchor="middle" x="179" y="-121.5" font-family="Helvetica,sans-Serif" font-size="10.00">ft_perror_convert</text>
</a>
</g>
</g>
<!-- Node1&#45;&gt;Node2 -->
<g id="edge1" class="edge">
<title>Node1&#45;&gt;Node2</title>
<path fill="none" stroke="midnightblue" d="M63.57,-76.65C79.42,-84.71 102.91,-96.25 124,-105 128.87,-107.02 134.03,-109.02 139.17,-110.92"/>
<polygon fill="midnightblue" stroke="midnightblue" points="138.32,-114.33 148.91,-114.42 140.69,-107.74 138.32,-114.33"/>
</g>
<!-- Node3 -->
<g id="node3" class="node">
<title>Node3</title>
<g id="a_node3"><a xlink:href="check_8h.html#ae79c226d26bf8b2dbd74bf7440eefa7d" target="_top" xlink:title="Error message if converted number is out of range.">
<polygon fill="none" stroke="black" points="133.5,-76.5 133.5,-95.5 224.5,-95.5 224.5,-76.5 133.5,-76.5"/>
<text text-anchor="middle" x="179" y="-83.5" font-family="Helvetica,sans-Serif" font-size="10.00">ft_perror_range</text>
</a>
</g>
</g>
<!-- Node1&#45;&gt;Node3 -->
<g id="edge2" class="edge">
<title>Node1&#45;&gt;Node3</title>
<path fill="none" stroke="midnightblue" d="M88.18,-73.17C99.33,-74.76 111.47,-76.5 123.13,-78.16"/>
<polygon fill="midnightblue" stroke="midnightblue" points="122.81,-81.65 133.21,-79.6 123.8,-74.72 122.81,-81.65"/>
</g>
<!-- Node4 -->
<g id="node4" class="node">
<title>Node4</title>
<g id="a_node4"><a xlink:href="check_8h.html#a66c0aad31fa186667840a2c0a5004099" target="_top" xlink:title="Error message if wrong separator was encountered.">
<polygon fill="none" stroke="black" points="124,-38.5 124,-57.5 234,-57.5 234,-38.5 124,-38.5"/>
<text text-anchor="middle" x="179" y="-45.5" font-family="Helvetica,sans-Serif" font-size="10.00">ft_perror_separator</text>
</a>
</g>
</g>
<!-- Node1&#45;&gt;Node4 -->
<g id="edge3" class="edge">
<title>Node1&#45;&gt;Node4</title>
<path fill="none" stroke="midnightblue" d="M88.18,-60.83C96.36,-59.66 105.08,-58.42 113.74,-57.18"/>
<polygon fill="midnightblue" stroke="midnightblue" points="114.45,-60.61 123.85,-55.74 113.46,-53.68 114.45,-60.61"/>
</g>
<!-- Node5 -->
<g id="node5" class="node">
<title>Node5</title>
<g id="a_node5"><a xlink:href="ft__strtod_8h.html#a0a1cbf0fef2bdcf6fde79c34014bc10e" target="_top" xlink:title="Converts a String to a double.">
<polygon fill="none" stroke="black" points="150.5,-0.5 150.5,-19.5 207.5,-19.5 207.5,-0.5 150.5,-0.5"/>
<text text-anchor="middle" x="179" y="-7.5" font-family="Helvetica,sans-Serif" font-size="10.00">ft_strtod</text>
</a>
</g>
</g>
<!-- Node1&#45;&gt;Node5 -->
<g id="edge4" class="edge">
<title>Node1&#45;&gt;Node5</title>
<path fill="none" stroke="midnightblue" d="M63.57,-57.35C79.42,-49.29 102.91,-37.75 124,-29 129.41,-26.76 135.19,-24.54 140.89,-22.45"/>
<polygon fill="midnightblue" stroke="midnightblue" points="142.07,-25.75 150.31,-19.09 139.71,-19.15 142.07,-25.75"/>
</g>
</g>
</svg>
