<?xml version="1.0" encoding="UTF-8" standalone="no"?>
<!DOCTYPE svg PUBLIC "-//W3C//DTD SVG 1.1//EN"
 "http://www.w3.org/Graphics/SVG/1.1/DTD/svg11.dtd">
<!-- Generated by graphviz version 2.43.0 (0)
 -->
<!-- Title: ft_free_char_arr Pages: 1 -->
<svg width="435pt" height="104pt"
 viewBox="0.00 0.00 435.00 104.00" xmlns="http://www.w3.org/2000/svg" xmlns:xlink="http://www.w3.org/1999/xlink">
<g id="graph0" class="graph" transform="scale(1 1) rotate(0) translate(4 100)">
<title>ft_free_char_arr</title>
<!-- Node1 -->
<g id="node1" class="node">
<title>Node1</title>
<g id="a_node1"><a xlink:title="Frees a NULL&#45;terminated char ** array.">
<polygon fill="#bfbfbf" stroke="black" points="334,-38.5 334,-57.5 427,-57.5 427,-38.5 334,-38.5"/>
<text text-anchor="middle" x="380.5" y="-45.5" font-family="Helvetica,sans-Serif" font-size="10.00">ft_free_char_arr</text>
</a>
</g>
</g>
<!-- Node2 -->
<g id="node2" class="node">
<title>Node2</title>
<g id="a_node2"><a xlink:href="parse__bonus_8h.html#a1851ac042c8e1f69fe345a139f0eadbd" target="_top" xlink:title="Chooses the correct checker function depending on bool is_bonus.">
<polygon fill="none" stroke="black" points="189,-76.5 189,-95.5 298,-95.5 298,-76.5 189,-76.5"/>
<text text-anchor="middle" x="243.5" y="-83.5" font-family="Helvetica,sans-Serif" font-size="10.00">ft_choose_check_ft</text>
</a>
</g>
</g>
<!-- Node1&#45;&gt;Node2 -->
<g id="edge1" class="edge">
<title>Node1&#45;&gt;Node2</title>
<path fill="none" stroke="midnightblue" d="M335.74,-60.32C317.19,-65.54 295.9,-71.53 278.56,-76.41"/>
<polygon fill="midnightblue" stroke="midnightblue" points="336.76,-63.67 345.43,-57.59 334.86,-56.93 336.76,-63.67"/>
</g>
<!-- Node3 -->
<g id="node3" class="node">
<title>Node3</title>
<g id="a_node3"><a xlink:href="parse_8h.html#a158705dee8e9b7ce48184c8e2fa3c169" target="_top" xlink:title="Imports, checks, and parses the provided file.">
<polygon fill="none" stroke="black" points="77,-38.5 77,-57.5 153,-57.5 153,-38.5 77,-38.5"/>
<text text-anchor="middle" x="115" y="-45.5" font-family="Helvetica,sans-Serif" font-size="10.00">ft_parse_file</text>
</a>
</g>
</g>
<!-- Node1&#45;&gt;Node3 -->
<g id="edge6" class="edge">
<title>Node1&#45;&gt;Node3</title>
<path fill="none" stroke="midnightblue" d="M323.65,-48C272.37,-48 197.81,-48 153.38,-48"/>
<polygon fill="midnightblue" stroke="midnightblue" points="323.9,-51.5 333.9,-48 323.9,-44.5 323.9,-51.5"/>
</g>
<!-- Node5 -->
<g id="node5" class="node">
<title>Node5</title>
<g id="a_node5"><a xlink:href="import__file_8h.html#a996e353fb1cf0ba1e9706f5d0c12e111" target="_top" xlink:title="Check file extension, import file and prepare for use.">
<polygon fill="none" stroke="black" points="203,-0.5 203,-19.5 284,-19.5 284,-0.5 203,-0.5"/>
<text text-anchor="middle" x="243.5" y="-7.5" font-family="Helvetica,sans-Serif" font-size="10.00">ft_import_file</text>
</a>
</g>
</g>
<!-- Node1&#45;&gt;Node5 -->
<g id="edge4" class="edge">
<title>Node1&#45;&gt;Node5</title>
<path fill="none" stroke="midnightblue" d="M335.74,-35.68C317.19,-30.46 295.9,-24.47 278.56,-19.59"/>
<polygon fill="midnightblue" stroke="midnightblue" points="334.86,-39.07 345.43,-38.41 336.76,-32.33 334.86,-39.07"/>
</g>
<!-- Node2&#45;&gt;Node3 -->
<g id="edge2" class="edge">
<title>Node2&#45;&gt;Node3</title>
<path fill="none" stroke="midnightblue" d="M200.77,-73.46C183.56,-68.3 163.94,-62.4 147.91,-57.59"/>
<polygon fill="midnightblue" stroke="midnightblue" points="199.99,-76.89 210.58,-76.41 202.01,-70.18 199.99,-76.89"/>
</g>
<!-- Node4 -->
<g id="node4" class="node">
<title>Node4</title>
<g id="a_node4"><a xlink:href="main_8c.html#a3c04138a5bfe5d72780bb7e82a18e627" target="_top" xlink:title=" ">
<polygon fill="none" stroke="black" points="0,-38.5 0,-57.5 41,-57.5 41,-38.5 0,-38.5"/>
<text text-anchor="middle" x="20.5" y="-45.5" font-family="Helvetica,sans-Serif" font-size="10.00">main</text>
</a>
</g>
</g>
<!-- Node3&#45;&gt;Node4 -->
<g id="edge3" class="edge">
<title>Node3&#45;&gt;Node4</title>
<path fill="none" stroke="midnightblue" d="M66.72,-48C57.65,-48 48.64,-48 41.07,-48"/>
<polygon fill="midnightblue" stroke="midnightblue" points="66.91,-51.5 76.91,-48 66.91,-44.5 66.91,-51.5"/>
</g>
<!-- Node5&#45;&gt;Node3 -->
<g id="edge5" class="edge">
<title>Node5&#45;&gt;Node3</title>
<path fill="none" stroke="midnightblue" d="M200.77,-22.54C183.56,-27.7 163.94,-33.6 147.91,-38.41"/>
<polygon fill="midnightblue" stroke="midnightblue" points="202.01,-25.82 210.58,-19.59 199.99,-19.11 202.01,-25.82"/>
</g>
</g>
</svg>
