<?xml version="1.0" encoding="UTF-8" standalone="no"?>
<!DOCTYPE svg PUBLIC "-//W3C//DTD SVG 1.1//EN"
 "http://www.w3.org/Graphics/SVG/1.1/DTD/svg11.dtd">
<!-- Generated by graphviz version 2.43.0 (0)
 -->
<!-- Title: src/debug_print_entity.c Pages: 1 -->
<!--zoomable 420 -->
<svg id="main" version="1.1" xmlns="http://www.w3.org/2000/svg" xmlns:xlink="http://www.w3.org/1999/xlink" xml:space="preserve" onload="init(evt)">
<style type="text/css"><![CDATA[
.edge:hover path { stroke: red; }
.edge:hover polygon { stroke: red; fill: red; }
]]></style>
<script type="text/javascript"><![CDATA[
var edges = document.getElementsByTagName('g');
if (edges && edges.length) {
  for (var i=0;i<edges.length;i++) {
    if (edges[i].id.substr(0,4)=='edge') {
      edges[i].setAttribute('class','edge');
    }
  }
}
]]></script>
        <defs>
                <circle id="rim" cx="0" cy="0" r="7"/>
                <circle id="rim2" cx="0" cy="0" r="3.5"/>
                <g id="zoomPlus">
                        <use xlink:href="#rim" fill="#404040">
                                <set attributeName="fill" to="#808080" begin="zoomplus.mouseover" end="zoomplus.mouseout"/>
                        </use>
                        <path d="M-4,0h8M0,-4v8" fill="none" stroke="white" stroke-width="1.5" pointer-events="none"/>
                </g>
                <g id="zoomMin">
                        <use xlink:href="#rim" fill="#404040">
                                <set attributeName="fill" to="#808080" begin="zoomminus.mouseover" end="zoomminus.mouseout"/>
                        </use>
                        <path d="M-4,0h8" fill="none" stroke="white" stroke-width="1.5" pointer-events="none"/>
                </g>
                <g id="dirArrow">
                        <path fill="none" stroke="white" stroke-width="1.5" d="M0,-3.0v7 M-2.5,-0.5L0,-3.0L2.5,-0.5"/>
                </g>
               <g id="resetDef">
                       <use xlink:href="#rim2" fill="#404040">
                               <set attributeName="fill" to="#808080" begin="reset.mouseover" end="reset.mouseout"/>
                       </use>
               </g>
        </defs>

<script type="text/javascript">
var viewWidth = 755;
var viewHeight = 420;
var sectionId = 'dynsection-0';
</script>
<script xlink:href="svgpan.js"/>
<svg id="graph" class="graph">
<g id="viewport">
<title>src/debug_print_entity.c</title>
<!-- Node1 -->
<g id="node1" class="node">
<title>Node1</title>
<g id="a_node1"><a xlink:title=" ">
<polygon fill="#bfbfbf" stroke="black" points="489.5,-392.5 489.5,-411.5 621.5,-411.5 621.5,-392.5 489.5,-392.5"/>
<text text-anchor="middle" x="555.5" y="-399.5" font-family="Helvetica,sans-Serif" font-size="10.00">src/debug_print_entity.c</text>
</a>
</g>
</g>
<!-- Node2 -->
<g id="node2" class="node">
<title>Node2</title>
<g id="a_node2"><a xlink:href="debug__print_8h.html" target="_top" xlink:title=" ">
<polygon fill="none" stroke="black" points="514,-336.5 514,-355.5 597,-355.5 597,-336.5 514,-336.5"/>
<text text-anchor="middle" x="555.5" y="-343.5" font-family="Helvetica,sans-Serif" font-size="10.00">debug_print.h</text>
</a>
</g>
</g>
<!-- Node1&#45;&gt;Node2 -->
<g id="edge1" class="edge">
<title>Node1&#45;&gt;Node2</title>
<path fill="none" stroke="midnightblue" d="M555.5,-392.08C555.5,-385.01 555.5,-374.86 555.5,-365.99"/>
<polygon fill="midnightblue" stroke="midnightblue" points="559,-365.75 555.5,-355.75 552,-365.75 559,-365.75"/>
</g>
<!-- Node3 -->
<g id="node3" class="node">
<title>Node3</title>
<g id="a_node3"><a xlink:title=" ">
<polygon fill="none" stroke="#bfbfbf" points="464.5,-112.5 464.5,-131.5 514.5,-131.5 514.5,-112.5 464.5,-112.5"/>
<text text-anchor="middle" x="489.5" y="-119.5" font-family="Helvetica,sans-Serif" font-size="10.00">stdio.h</text>
</a>
</g>
</g>
<!-- Node2&#45;&gt;Node3 -->
<g id="edge2" class="edge">
<title>Node2&#45;&gt;Node3</title>
<path fill="none" stroke="midnightblue" d="M552.91,-336.3C543.18,-303.56 508.64,-187.38 495.05,-141.67"/>
<polygon fill="midnightblue" stroke="midnightblue" points="498.35,-140.47 492.14,-131.88 491.64,-142.47 498.35,-140.47"/>
</g>
<!-- Node4 -->
<g id="node4" class="node">
<title>Node4</title>
<g id="a_node4"><a xlink:href="vec3_8h.html" target="_top" xlink:title=" ">
<polygon fill="none" stroke="black" points="451,-56.5 451,-75.5 500,-75.5 500,-56.5 451,-56.5"/>
<text text-anchor="middle" x="475.5" y="-63.5" font-family="Helvetica,sans-Serif" font-size="10.00">vec3.h</text>
</a>
</g>
</g>
<!-- Node2&#45;&gt;Node4 -->
<g id="edge3" class="edge">
<title>Node2&#45;&gt;Node4</title>
<path fill="none" stroke="midnightblue" d="M563.95,-336.44C580.27,-318.96 614.5,-277.26 614.5,-235 614.5,-235 614.5,-235 614.5,-177 614.5,-146.9 615.98,-134.06 595.5,-112 573.32,-88.1 537.21,-76.82 510.39,-71.54"/>
<polygon fill="midnightblue" stroke="midnightblue" points="510.71,-68.04 500.25,-69.74 509.48,-74.93 510.71,-68.04"/>
</g>
<!-- Node7 -->
<g id="node7" class="node">
<title>Node7</title>
<g id="a_node7"><a xlink:href="camera_8h.html" target="_top" xlink:title=" ">
<polygon fill="none" stroke="black" points="320.5,-168.5 320.5,-187.5 382.5,-187.5 382.5,-168.5 320.5,-168.5"/>
<text text-anchor="middle" x="351.5" y="-175.5" font-family="Helvetica,sans-Serif" font-size="10.00">camera.h</text>
</a>
</g>
</g>
<!-- Node2&#45;&gt;Node7 -->
<g id="edge6" class="edge">
<title>Node2&#45;&gt;Node7</title>
<path fill="none" stroke="midnightblue" d="M538.51,-336.36C522.64,-327.96 498.6,-314.4 479.5,-300 434.96,-266.43 388.92,-219.28 366.12,-194.93"/>
<polygon fill="midnightblue" stroke="midnightblue" points="368.68,-192.55 359.31,-187.61 363.55,-197.32 368.68,-192.55"/>
</g>
<!-- Node14 -->
<g id="node14" class="node">
<title>Node14</title>
<g id="a_node14"><a xlink:href="colour_8h.html" target="_top" xlink:title=" ">
<polygon fill="none" stroke="black" points="528,-168.5 528,-187.5 583,-187.5 583,-168.5 528,-168.5"/>
<text text-anchor="middle" x="555.5" y="-175.5" font-family="Helvetica,sans-Serif" font-size="10.00">colour.h</text>
</a>
</g>
</g>
<!-- Node2&#45;&gt;Node14 -->
<g id="edge17" class="edge">
<title>Node2&#45;&gt;Node14</title>
<path fill="none" stroke="midnightblue" d="M555.5,-336.08C555.5,-309.95 555.5,-233.21 555.5,-197.58"/>
<polygon fill="midnightblue" stroke="midnightblue" points="559,-197.57 555.5,-187.57 552,-197.57 559,-197.57"/>
</g>
<!-- Node16 -->
<g id="node16" class="node">
<title>Node16</title>
<g id="a_node16"><a xlink:href="entities__bonus_8h.html" target="_top" xlink:title=" ">
<polygon fill="none" stroke="black" points="643,-280.5 643,-299.5 740,-299.5 740,-280.5 643,-280.5"/>
<text text-anchor="middle" x="691.5" y="-287.5" font-family="Helvetica,sans-Serif" font-size="10.00">entities_bonus.h</text>
</a>
</g>
</g>
<!-- Node2&#45;&gt;Node16 -->
<g id="edge21" class="edge">
<title>Node2&#45;&gt;Node16</title>
<path fill="none" stroke="midnightblue" d="M577.05,-336.44C599.53,-327.52 634.99,-313.44 660.48,-303.32"/>
<polygon fill="midnightblue" stroke="midnightblue" points="662.05,-306.46 670.05,-299.52 659.47,-299.95 662.05,-306.46"/>
</g>
<!-- Node5 -->
<g id="node5" class="node">
<title>Node5</title>
<g id="a_node5"><a xlink:title=" ">
<polygon fill="none" stroke="#bfbfbf" points="367,-0.5 367,-19.5 418,-19.5 418,-0.5 367,-0.5"/>
<text text-anchor="middle" x="392.5" y="-7.5" font-family="Helvetica,sans-Serif" font-size="10.00">math.h</text>
</a>
</g>
</g>
<!-- Node4&#45;&gt;Node5 -->
<g id="edge4" class="edge">
<title>Node4&#45;&gt;Node5</title>
<path fill="none" stroke="midnightblue" d="M462.16,-56.32C449.34,-47.98 429.72,-35.21 414.56,-25.35"/>
<polygon fill="midnightblue" stroke="midnightblue" points="416.09,-22.17 405.8,-19.65 412.28,-28.04 416.09,-22.17"/>
</g>
<!-- Node6 -->
<g id="node6" class="node">
<title>Node6</title>
<g id="a_node6"><a xlink:title=" ">
<polygon fill="none" stroke="#bfbfbf" points="444.5,-0.5 444.5,-19.5 506.5,-19.5 506.5,-0.5 444.5,-0.5"/>
<text text-anchor="middle" x="475.5" y="-7.5" font-family="Helvetica,sans-Serif" font-size="10.00">stdbool.h</text>
</a>
</g>
</g>
<!-- Node4&#45;&gt;Node6 -->
<g id="edge5" class="edge">
<title>Node4&#45;&gt;Node6</title>
<path fill="none" stroke="midnightblue" d="M475.5,-56.08C475.5,-49.01 475.5,-38.86 475.5,-29.99"/>
<polygon fill="midnightblue" stroke="midnightblue" points="479,-29.75 475.5,-19.75 472,-29.75 479,-29.75"/>
</g>
<!-- Node7&#45;&gt;Node4 -->
<g id="edge8" class="edge">
<title>Node7&#45;&gt;Node4</title>
<path fill="none" stroke="midnightblue" d="M365.87,-168.39C379.52,-159.91 400.29,-146.2 416.5,-132 433.61,-117 450.83,-97.39 462.21,-83.65"/>
<polygon fill="midnightblue" stroke="midnightblue" points="465.19,-85.54 468.79,-75.57 459.76,-81.12 465.19,-85.54"/>
</g>
<!-- Node8 -->
<g id="node8" class="node">
<title>Node8</title>
<g id="a_node8"><a xlink:href="vec2_8h.html" target="_top" xlink:title=" ">
<polygon fill="none" stroke="black" points="294,-112.5 294,-131.5 343,-131.5 343,-112.5 294,-112.5"/>
<text text-anchor="middle" x="318.5" y="-119.5" font-family="Helvetica,sans-Serif" font-size="10.00">vec2.h</text>
</a>
</g>
</g>
<!-- Node7&#45;&gt;Node8 -->
<g id="edge7" class="edge">
<title>Node7&#45;&gt;Node8</title>
<path fill="none" stroke="midnightblue" d="M346.05,-168.08C341.49,-160.61 334.83,-149.72 329.21,-140.52"/>
<polygon fill="midnightblue" stroke="midnightblue" points="332.05,-138.46 323.85,-131.75 326.08,-142.11 332.05,-138.46"/>
</g>
<!-- Node9 -->
<g id="node9" class="node">
<title>Node9</title>
<g id="a_node9"><a xlink:href="error__syscall_8h.html" target="_top" xlink:title=" ">
<polygon fill="none" stroke="black" points="41.5,-112.5 41.5,-131.5 129.5,-131.5 129.5,-112.5 41.5,-112.5"/>
<text text-anchor="middle" x="85.5" y="-119.5" font-family="Helvetica,sans-Serif" font-size="10.00">error_syscall.h</text>
</a>
</g>
</g>
<!-- Node7&#45;&gt;Node9 -->
<g id="edge9" class="edge">
<title>Node7&#45;&gt;Node9</title>
<path fill="none" stroke="midnightblue" d="M320.47,-170.7C275.57,-161.59 191.93,-144.61 137.5,-133.56"/>
<polygon fill="midnightblue" stroke="midnightblue" points="138.2,-130.13 127.7,-131.57 136.8,-136.99 138.2,-130.13"/>
</g>
<!-- Node12 -->
<g id="node12" class="node">
<title>Node12</title>
<g id="a_node12"><a xlink:href="utils_8h.html" target="_top" xlink:title=" ">
<polygon fill="none" stroke="black" points="361,-112.5 361,-131.5 408,-131.5 408,-112.5 361,-112.5"/>
<text text-anchor="middle" x="384.5" y="-119.5" font-family="Helvetica,sans-Serif" font-size="10.00">utils.h</text>
</a>
</g>
</g>
<!-- Node7&#45;&gt;Node12 -->
<g id="edge12" class="edge">
<title>Node7&#45;&gt;Node12</title>
<path fill="none" stroke="midnightblue" d="M356.95,-168.08C361.51,-160.61 368.17,-149.72 373.79,-140.52"/>
<polygon fill="midnightblue" stroke="midnightblue" points="376.92,-142.11 379.15,-131.75 370.95,-138.46 376.92,-142.11"/>
</g>
<!-- Node13 -->
<g id="node13" class="node">
<title>Node13</title>
<g id="a_node13"><a xlink:href="mini_r_t__config__bonus_8h.html" target="_top" xlink:title=" ">
<polygon fill="none" stroke="black" points="147.5,-112.5 147.5,-131.5 275.5,-131.5 275.5,-112.5 147.5,-112.5"/>
<text text-anchor="middle" x="211.5" y="-119.5" font-family="Helvetica,sans-Serif" font-size="10.00">miniRT_config_bonus.h</text>
</a>
</g>
</g>
<!-- Node7&#45;&gt;Node13 -->
<g id="edge16" class="edge">
<title>Node7&#45;&gt;Node13</title>
<path fill="none" stroke="midnightblue" d="M329.32,-168.44C306.07,-159.48 269.35,-145.31 243.08,-135.18"/>
<polygon fill="midnightblue" stroke="midnightblue" points="244.17,-131.85 233.58,-131.52 241.65,-138.38 244.17,-131.85"/>
</g>
<!-- Node10 -->
<g id="node10" class="node">
<title>Node10</title>
<g id="a_node10"><a xlink:title=" ">
<polygon fill="none" stroke="#bfbfbf" points="105,-56.5 105,-75.5 152,-75.5 152,-56.5 105,-56.5"/>
<text text-anchor="middle" x="128.5" y="-63.5" font-family="Helvetica,sans-Serif" font-size="10.00">fcntl.h</text>
</a>
</g>
</g>
<!-- Node9&#45;&gt;Node10 -->
<g id="edge10" class="edge">
<title>Node9&#45;&gt;Node10</title>
<path fill="none" stroke="midnightblue" d="M92.6,-112.08C98.74,-104.38 107.77,-93.03 115.24,-83.65"/>
<polygon fill="midnightblue" stroke="midnightblue" points="118.04,-85.75 121.53,-75.75 112.56,-81.39 118.04,-85.75"/>
</g>
<!-- Node11 -->
<g id="node11" class="node">
<title>Node11</title>
<g id="a_node11"><a xlink:title=" ">
<polygon fill="none" stroke="#bfbfbf" points="0,-56.5 0,-75.5 87,-75.5 87,-56.5 0,-56.5"/>
<text text-anchor="middle" x="43.5" y="-63.5" font-family="Helvetica,sans-Serif" font-size="10.00">miniRT_error.h</text>
</a>
</g>
</g>
<!-- Node9&#45;&gt;Node11 -->
<g id="edge11" class="edge">
<title>Node9&#45;&gt;Node11</title>
<path fill="none" stroke="midnightblue" d="M78.56,-112.08C72.57,-104.38 63.75,-93.03 56.45,-83.65"/>
<polygon fill="midnightblue" stroke="midnightblue" points="59.21,-81.5 50.31,-75.75 53.68,-85.79 59.21,-81.5"/>
</g>
<!-- Node12&#45;&gt;Node4 -->
<g id="edge15" class="edge">
<title>Node12&#45;&gt;Node4</title>
<path fill="none" stroke="midnightblue" d="M399.12,-112.32C413.45,-103.82 435.51,-90.73 452.25,-80.8"/>
<polygon fill="midnightblue" stroke="midnightblue" points="454.1,-83.77 460.92,-75.65 450.53,-77.75 454.1,-83.77"/>
</g>
<!-- Node12&#45;&gt;Node5 -->
<g id="edge13" class="edge">
<title>Node12&#45;&gt;Node5</title>
<path fill="none" stroke="midnightblue" d="M385.13,-112.37C386.42,-94.62 389.4,-53.67 391.15,-29.6"/>
<polygon fill="midnightblue" stroke="midnightblue" points="394.64,-29.82 391.88,-19.59 387.66,-29.31 394.64,-29.82"/>
</g>
<!-- Node12&#45;&gt;Node6 -->
<g id="edge14" class="edge">
<title>Node12&#45;&gt;Node6</title>
<path fill="none" stroke="midnightblue" d="M391.64,-112.37C406.79,-94.05 442.37,-51.05 461.96,-27.36"/>
<polygon fill="midnightblue" stroke="midnightblue" points="464.72,-29.53 468.39,-19.59 459.32,-25.07 464.72,-29.53"/>
</g>
<!-- Node14&#45;&gt;Node3 -->
<g id="edge18" class="edge">
<title>Node14&#45;&gt;Node3</title>
<path fill="none" stroke="midnightblue" d="M544.9,-168.32C535.04,-160.26 520.15,-148.08 508.28,-138.37"/>
<polygon fill="midnightblue" stroke="midnightblue" points="510.25,-135.46 500.3,-131.83 505.82,-140.88 510.25,-135.46"/>
</g>
<!-- Node14&#45;&gt;Node12 -->
<g id="edge20" class="edge">
<title>Node14&#45;&gt;Node12</title>
<path fill="none" stroke="midnightblue" d="M528.4,-168.44C498.49,-159 450.31,-143.78 418.04,-133.59"/>
<polygon fill="midnightblue" stroke="midnightblue" points="418.75,-130.15 408.16,-130.47 416.65,-136.82 418.75,-130.15"/>
</g>
<!-- Node15 -->
<g id="node15" class="node">
<title>Node15</title>
<g id="a_node15"><a xlink:title=" ">
<polygon fill="none" stroke="#bfbfbf" points="533,-112.5 533,-131.5 586,-131.5 586,-112.5 533,-112.5"/>
<text text-anchor="middle" x="559.5" y="-119.5" font-family="Helvetica,sans-Serif" font-size="10.00">stdint.h</text>
</a>
</g>
</g>
<!-- Node14&#45;&gt;Node15 -->
<g id="edge19" class="edge">
<title>Node14&#45;&gt;Node15</title>
<path fill="none" stroke="midnightblue" d="M556.16,-168.08C556.68,-161.01 557.44,-150.86 558.09,-141.99"/>
<polygon fill="midnightblue" stroke="midnightblue" points="561.6,-141.98 558.85,-131.75 554.62,-141.47 561.6,-141.98"/>
</g>
<!-- Node17 -->
<g id="node17" class="node">
<title>Node17</title>
<g id="a_node17"><a xlink:href="entities_8h.html" target="_top" xlink:title=" ">
<polygon fill="none" stroke="black" points="660.5,-224.5 660.5,-243.5 722.5,-243.5 722.5,-224.5 660.5,-224.5"/>
<text text-anchor="middle" x="691.5" y="-231.5" font-family="Helvetica,sans-Serif" font-size="10.00">entities.h</text>
</a>
</g>
</g>
<!-- Node16&#45;&gt;Node17 -->
<g id="edge22" class="edge">
<title>Node16&#45;&gt;Node17</title>
<path fill="none" stroke="midnightblue" d="M691.5,-280.08C691.5,-273.01 691.5,-262.86 691.5,-253.99"/>
<polygon fill="midnightblue" stroke="midnightblue" points="695,-253.75 691.5,-243.75 688,-253.75 695,-253.75"/>
</g>
<!-- Node17&#45;&gt;Node4 -->
<g id="edge25" class="edge">
<title>Node17&#45;&gt;Node4</title>
<path fill="none" stroke="midnightblue" d="M687.42,-224.21C675.04,-197.72 638.19,-119.97 628.5,-112 594.64,-84.14 544.12,-73.53 510.52,-69.49"/>
<polygon fill="midnightblue" stroke="midnightblue" points="510.55,-65.97 500.24,-68.39 509.81,-72.93 510.55,-65.97"/>
</g>
<!-- Node17&#45;&gt;Node6 -->
<g id="edge23" class="edge">
<title>Node17&#45;&gt;Node6</title>
<path fill="none" stroke="midnightblue" d="M707.26,-224.39C726.81,-212.53 756.12,-190.08 743.5,-168 694.59,-82.4 578.86,-38.99 516.69,-21.17"/>
<polygon fill="midnightblue" stroke="midnightblue" points="517.4,-17.73 506.82,-18.43 515.52,-24.48 517.4,-17.73"/>
</g>
<!-- Node17&#45;&gt;Node14 -->
<g id="edge26" class="edge">
<title>Node17&#45;&gt;Node14</title>
<path fill="none" stroke="midnightblue" d="M669.95,-224.44C647.47,-215.52 612.01,-201.44 586.52,-191.32"/>
<polygon fill="midnightblue" stroke="midnightblue" points="587.53,-187.95 576.95,-187.52 584.95,-194.46 587.53,-187.95"/>
</g>
<!-- Node18 -->
<g id="node18" class="node">
<title>Node18</title>
<g id="a_node18"><a xlink:title=" ">
<polygon fill="none" stroke="#bfbfbf" points="681,-168.5 681,-187.5 734,-187.5 734,-168.5 681,-168.5"/>
<text text-anchor="middle" x="707.5" y="-175.5" font-family="Helvetica,sans-Serif" font-size="10.00">stdlib.h</text>
</a>
</g>
</g>
<!-- Node17&#45;&gt;Node18 -->
<g id="edge24" class="edge">
<title>Node17&#45;&gt;Node18</title>
<path fill="none" stroke="midnightblue" d="M694.14,-224.08C696.29,-216.85 699.38,-206.41 702.05,-197.4"/>
<polygon fill="midnightblue" stroke="midnightblue" points="705.42,-198.33 704.91,-187.75 698.71,-196.34 705.42,-198.33"/>
</g>
</g>
</svg>
        <g id="navigator" transform="translate(0 0)" fill="#404254">
                <rect fill="#f2f5e9" fill-opacity="0.5" stroke="#606060" stroke-width=".5" x="0" y="0" width="60" height="60"/>
                <use id="zoomplus" xlink:href="#zoomPlus" x="17" y="9" onmousedown="handleZoom(evt,'in')"/>
                <use id="zoomminus" xlink:href="#zoomMin" x="42" y="9" onmousedown="handleZoom(evt,'out')"/>
                <use id="reset" xlink:href="#resetDef" x="30" y="36" onmousedown="handleReset()"/>
                <g id="arrowUp" xlink:href="#dirArrow" transform="translate(30 24)" onmousedown="handlePan(0,-1)">
                  <use xlink:href="#rim" fill="#404040">
                        <set attributeName="fill" to="#808080" begin="arrowUp.mouseover" end="arrowUp.mouseout"/>
                  </use>
                  <path fill="none" stroke="white" stroke-width="1.5" d="M0,-3.0v7 M-2.5,-0.5L0,-3.0L2.5,-0.5"/>
                </g>
                <g id="arrowRight" xlink:href="#dirArrow" transform="rotate(90) translate(36 -43)" onmousedown="handlePan(1,0)">
                  <use xlink:href="#rim" fill="#404040">
                        <set attributeName="fill" to="#808080" begin="arrowRight.mouseover" end="arrowRight.mouseout"/>
                  </use>
                  <path fill="none" stroke="white" stroke-width="1.5" d="M0,-3.0v7 M-2.5,-0.5L0,-3.0L2.5,-0.5"/>
                </g>
                <g id="arrowDown" xlink:href="#dirArrow" transform="rotate(180) translate(-30 -48)" onmousedown="handlePan(0,1)">
                  <use xlink:href="#rim" fill="#404040">
                        <set attributeName="fill" to="#808080" begin="arrowDown.mouseover" end="arrowDown.mouseout"/>
                  </use>
                  <path fill="none" stroke="white" stroke-width="1.5" d="M0,-3.0v7 M-2.5,-0.5L0,-3.0L2.5,-0.5"/>
                </g>
                <g id="arrowLeft" xlink:href="#dirArrow" transform="rotate(270) translate(-36 17)" onmousedown="handlePan(-1,0)">
                  <use xlink:href="#rim" fill="#404040">
                        <set attributeName="fill" to="#808080" begin="arrowLeft.mouseover" end="arrowLeft.mouseout"/>
                  </use>
                  <path fill="none" stroke="white" stroke-width="1.5" d="M0,-3.0v7 M-2.5,-0.5L0,-3.0L2.5,-0.5"/>
                </g>
        </g>
        <svg viewBox="0 0 15 15" width="100%" height="30px" preserveAspectRatio="xMaxYMin meet">
         <g id="arrow_out" transform="scale(0.3 0.3)">
          <a xlink:href="debug__print__entity_8c__incl_org.svg" target="_base">
           <rect id="button" ry="5" rx="5" y="6" x="6" height="38" width="38"
                fill="#f2f5e9" fill-opacity="0.5" stroke="#606060" stroke-width="1.0"/>
           <path id="arrow"
             d="M 11.500037,31.436501 C 11.940474,20.09759 22.043105,11.32322 32.158766,21.979434 L 37.068811,17.246167 C 37.068811,17.246167 37.088388,32 37.088388,32 L 22.160133,31.978069 C 22.160133,31.978069 26.997745,27.140456 26.997745,27.140456 C 18.528582,18.264221 13.291696,25.230495 11.500037,31.436501 z"
             style="fill:#404040;"/>
          </a>
         </g>
        </svg>
</svg>
