<?xml version="1.0" encoding="UTF-8" standalone="no"?>
<!DOCTYPE svg PUBLIC "-//W3C//DTD SVG 1.1//EN"
 "http://www.w3.org/Graphics/SVG/1.1/DTD/svg11.dtd">
<!-- Generated by graphviz version 2.43.0 (0)
 -->
<!-- Title: src/debug_print_struct.c Pages: 1 -->
<svg width="606pt" height="532pt"
 viewBox="0.00 0.00 605.50 532.00" xmlns="http://www.w3.org/2000/svg" xmlns:xlink="http://www.w3.org/1999/xlink">
<g id="graph0" class="graph" transform="scale(1 1) rotate(0) translate(4 528)">
<title>src/debug_print_struct.c</title>
<!-- Node1 -->
<g id="node1" class="node">
<title>Node1</title>
<g id="a_node1"><a xlink:title=" ">
<polygon fill="#bfbfbf" stroke="black" points="208.5,-504.5 208.5,-523.5 341.5,-523.5 341.5,-504.5 208.5,-504.5"/>
<text text-anchor="middle" x="275" y="-511.5" font-family="Helvetica,sans-Serif" font-size="10.00">src/debug_print_struct.c</text>
</a>
</g>
</g>
<!-- Node2 -->
<g id="node2" class="node">
<title>Node2</title>
<g id="a_node2"><a xlink:href="debug__print_8h.html" target="_top" xlink:title=" ">
<polygon fill="none" stroke="black" points="233.5,-448.5 233.5,-467.5 316.5,-467.5 316.5,-448.5 233.5,-448.5"/>
<text text-anchor="middle" x="275" y="-455.5" font-family="Helvetica,sans-Serif" font-size="10.00">debug_print.h</text>
</a>
</g>
</g>
<!-- Node1&#45;&gt;Node2 -->
<g id="edge1" class="edge">
<title>Node1&#45;&gt;Node2</title>
<path fill="none" stroke="midnightblue" d="M275,-504.08C275,-497.01 275,-486.86 275,-477.99"/>
<polygon fill="midnightblue" stroke="midnightblue" points="278.5,-477.75 275,-467.75 271.5,-477.75 278.5,-477.75"/>
</g>
<!-- Node3 -->
<g id="node3" class="node">
<title>Node3</title>
<g id="a_node3"><a xlink:title=" ">
<polygon fill="none" stroke="#bfbfbf" points="236,-112.5 236,-131.5 286,-131.5 286,-112.5 236,-112.5"/>
<text text-anchor="middle" x="261" y="-119.5" font-family="Helvetica,sans-Serif" font-size="10.00">stdio.h</text>
</a>
</g>
</g>
<!-- Node2&#45;&gt;Node3 -->
<g id="edge2" class="edge">
<title>Node2&#45;&gt;Node3</title>
<path fill="none" stroke="midnightblue" d="M233.45,-455.87C165.48,-451.58 38,-432.17 38,-347 38,-347 38,-347 38,-233 38,-150.36 162.69,-129.81 225.59,-124.69"/>
<polygon fill="midnightblue" stroke="midnightblue" points="226.13,-128.16 235.85,-123.95 225.63,-121.18 226.13,-128.16"/>
</g>
<!-- Node4 -->
<g id="node4" class="node">
<title>Node4</title>
<g id="a_node4"><a xlink:href="vec3_8h.html" target="_top" xlink:title=" ">
<polygon fill="none" stroke="black" points="379.5,-56.5 379.5,-75.5 428.5,-75.5 428.5,-56.5 379.5,-56.5"/>
<text text-anchor="middle" x="404" y="-63.5" font-family="Helvetica,sans-Serif" font-size="10.00">vec3.h</text>
</a>
</g>
</g>
<!-- Node2&#45;&gt;Node4 -->
<g id="edge3" class="edge">
<title>Node2&#45;&gt;Node4</title>
<path fill="none" stroke="midnightblue" d="M233.48,-457.07C186.01,-455.35 107.58,-446.83 51,-412 19.73,-392.75 0,-383.72 0,-347 0,-347 0,-347 0,-177 0,-100.73 271.48,-75.58 369.35,-69"/>
<polygon fill="midnightblue" stroke="midnightblue" points="369.58,-72.49 379.34,-68.35 369.13,-65.51 369.58,-72.49"/>
</g>
<!-- Node7 -->
<g id="node7" class="node">
<title>Node7</title>
<g id="a_node7"><a xlink:href="camera_8h.html" target="_top" xlink:title=" ">
<polygon fill="none" stroke="black" points="244,-392.5 244,-411.5 306,-411.5 306,-392.5 244,-392.5"/>
<text text-anchor="middle" x="275" y="-399.5" font-family="Helvetica,sans-Serif" font-size="10.00">camera.h</text>
</a>
</g>
</g>
<!-- Node2&#45;&gt;Node7 -->
<g id="edge6" class="edge">
<title>Node2&#45;&gt;Node7</title>
<path fill="none" stroke="midnightblue" d="M275,-448.08C275,-441.01 275,-430.86 275,-421.99"/>
<polygon fill="midnightblue" stroke="midnightblue" points="278.5,-421.75 275,-411.75 271.5,-421.75 278.5,-421.75"/>
</g>
<!-- Node15 -->
<g id="node15" class="node">
<title>Node15</title>
<g id="a_node15"><a xlink:href="entities__bonus_8h.html" target="_top" xlink:title=" ">
<polygon fill="none" stroke="black" points="500.5,-224.5 500.5,-243.5 597.5,-243.5 597.5,-224.5 500.5,-224.5"/>
<text text-anchor="middle" x="549" y="-231.5" font-family="Helvetica,sans-Serif" font-size="10.00">entities_bonus.h</text>
</a>
</g>
</g>
<!-- Node2&#45;&gt;Node15 -->
<g id="edge31" class="edge">
<title>Node2&#45;&gt;Node15</title>
<path fill="none" stroke="midnightblue" d="M316.67,-452.93C370.77,-446.85 461.21,-433.72 486,-412 533.6,-370.3 545.23,-290.15 548.08,-253.78"/>
<polygon fill="midnightblue" stroke="midnightblue" points="551.58,-253.81 548.73,-243.61 544.6,-253.37 551.58,-253.81"/>
</g>
<!-- Node17 -->
<g id="node17" class="node">
<title>Node17</title>
<g id="a_node17"><a xlink:href="colour__bonus_8h.html" target="_top" xlink:title=" ">
<polygon fill="none" stroke="black" points="429,-168.5 429,-187.5 519,-187.5 519,-168.5 429,-168.5"/>
<text text-anchor="middle" x="474" y="-175.5" font-family="Helvetica,sans-Serif" font-size="10.00">colour_bonus.h</text>
</a>
</g>
</g>
<!-- Node2&#45;&gt;Node17 -->
<g id="edge30" class="edge">
<title>Node2&#45;&gt;Node17</title>
<path fill="none" stroke="midnightblue" d="M316.78,-452.31C374.61,-443.25 472,-417.51 472,-347 472,-347 472,-347 472,-289 472,-256.94 472.86,-219.64 473.45,-197.75"/>
<polygon fill="midnightblue" stroke="midnightblue" points="476.96,-197.65 473.74,-187.56 469.96,-197.45 476.96,-197.65"/>
</g>
<!-- Node5 -->
<g id="node5" class="node">
<title>Node5</title>
<g id="a_node5"><a xlink:title=" ">
<polygon fill="none" stroke="#bfbfbf" points="341.5,-0.5 341.5,-19.5 392.5,-19.5 392.5,-0.5 341.5,-0.5"/>
<text text-anchor="middle" x="367" y="-7.5" font-family="Helvetica,sans-Serif" font-size="10.00">math.h</text>
</a>
</g>
</g>
<!-- Node4&#45;&gt;Node5 -->
<g id="edge4" class="edge">
<title>Node4&#45;&gt;Node5</title>
<path fill="none" stroke="midnightblue" d="M397.89,-56.08C392.72,-48.53 385.15,-37.49 378.81,-28.23"/>
<polygon fill="midnightblue" stroke="midnightblue" points="381.54,-26.02 373,-19.75 375.76,-29.98 381.54,-26.02"/>
</g>
<!-- Node6 -->
<g id="node6" class="node">
<title>Node6</title>
<g id="a_node6"><a xlink:title=" ">
<polygon fill="none" stroke="#bfbfbf" points="426,-0.5 426,-19.5 488,-19.5 488,-0.5 426,-0.5"/>
<text text-anchor="middle" x="457" y="-7.5" font-family="Helvetica,sans-Serif" font-size="10.00">stdbool.h</text>
</a>
</g>
</g>
<!-- Node4&#45;&gt;Node6 -->
<g id="edge5" class="edge">
<title>Node4&#45;&gt;Node6</title>
<path fill="none" stroke="midnightblue" d="M412.75,-56.08C420.47,-48.22 431.9,-36.57 441.22,-27.08"/>
<polygon fill="midnightblue" stroke="midnightblue" points="443.9,-29.34 448.41,-19.75 438.91,-24.44 443.9,-29.34"/>
</g>
<!-- Node7&#45;&gt;Node4 -->
<g id="edge8" class="edge">
<title>Node7&#45;&gt;Node4</title>
<path fill="none" stroke="midnightblue" d="M243.87,-396.99C198.19,-390.49 116.13,-376.31 95,-356 73.3,-335.14 76,-321.1 76,-291 76,-291 76,-291 76,-177 76,-115.66 284.82,-82.17 369.23,-71.15"/>
<polygon fill="midnightblue" stroke="midnightblue" points="369.87,-74.59 379.35,-69.85 368.98,-67.65 369.87,-74.59"/>
</g>
<!-- Node8 -->
<g id="node8" class="node">
<title>Node8</title>
<g id="a_node8"><a xlink:href="vec2_8h.html" target="_top" xlink:title=" ">
<polygon fill="none" stroke="black" points="250.5,-336.5 250.5,-355.5 299.5,-355.5 299.5,-336.5 250.5,-336.5"/>
<text text-anchor="middle" x="275" y="-343.5" font-family="Helvetica,sans-Serif" font-size="10.00">vec2.h</text>
</a>
</g>
</g>
<!-- Node7&#45;&gt;Node8 -->
<g id="edge7" class="edge">
<title>Node7&#45;&gt;Node8</title>
<path fill="none" stroke="midnightblue" d="M275,-392.08C275,-385.01 275,-374.86 275,-365.99"/>
<polygon fill="midnightblue" stroke="midnightblue" points="278.5,-365.75 275,-355.75 271.5,-365.75 278.5,-365.75"/>
</g>
<!-- Node9 -->
<g id="node9" class="node">
<title>Node9</title>
<g id="a_node9"><a xlink:href="error__syscall_8h.html" target="_top" xlink:title=" ">
<polygon fill="none" stroke="black" points="318,-336.5 318,-355.5 406,-355.5 406,-336.5 318,-336.5"/>
<text text-anchor="middle" x="362" y="-343.5" font-family="Helvetica,sans-Serif" font-size="10.00">error_syscall.h</text>
</a>
</g>
</g>
<!-- Node7&#45;&gt;Node9 -->
<g id="edge9" class="edge">
<title>Node7&#45;&gt;Node9</title>
<path fill="none" stroke="midnightblue" d="M288.98,-392.32C302.55,-383.9 323.38,-370.97 339.32,-361.07"/>
<polygon fill="midnightblue" stroke="midnightblue" points="341.41,-363.9 348.06,-355.65 337.71,-357.95 341.41,-363.9"/>
</g>
<!-- Node19 -->
<g id="node19" class="node">
<title>Node19</title>
<g id="a_node19"><a xlink:href="utils__bonus_8h.html" target="_top" xlink:title=" ">
<polygon fill="none" stroke="black" points="363.5,-112.5 363.5,-131.5 444.5,-131.5 444.5,-112.5 363.5,-112.5"/>
<text text-anchor="middle" x="404" y="-119.5" font-family="Helvetica,sans-Serif" font-size="10.00">utils_bonus.h</text>
</a>
</g>
</g>
<!-- Node7&#45;&gt;Node19 -->
<g id="edge28" class="edge">
<title>Node7&#45;&gt;Node19</title>
<path fill="none" stroke="midnightblue" d="M306.09,-400.89C339.2,-398.89 390.19,-390.04 415,-356 439.73,-322.07 417.18,-190.25 407.72,-141.37"/>
<polygon fill="midnightblue" stroke="midnightblue" points="411.15,-140.67 405.78,-131.54 404.28,-142.03 411.15,-140.67"/>
</g>
<!-- Node20 -->
<g id="node20" class="node">
<title>Node20</title>
<g id="a_node20"><a xlink:href="mini_r_t__config__bonus_8h.html" target="_top" xlink:title=" ">
<polygon fill="none" stroke="black" points="104,-336.5 104,-355.5 232,-355.5 232,-336.5 104,-336.5"/>
<text text-anchor="middle" x="168" y="-343.5" font-family="Helvetica,sans-Serif" font-size="10.00">miniRT_config_bonus.h</text>
</a>
</g>
</g>
<!-- Node7&#45;&gt;Node20 -->
<g id="edge29" class="edge">
<title>Node7&#45;&gt;Node20</title>
<path fill="none" stroke="midnightblue" d="M257.81,-392.32C240.65,-383.66 214.05,-370.24 194.25,-360.25"/>
<polygon fill="midnightblue" stroke="midnightblue" points="195.65,-357.04 185.15,-355.65 192.5,-363.28 195.65,-357.04"/>
</g>
<!-- Node10 -->
<g id="node10" class="node">
<title>Node10</title>
<g id="a_node10"><a xlink:title=" ">
<polygon fill="none" stroke="#bfbfbf" points="170.5,-280.5 170.5,-299.5 217.5,-299.5 217.5,-280.5 170.5,-280.5"/>
<text text-anchor="middle" x="194" y="-287.5" font-family="Helvetica,sans-Serif" font-size="10.00">fcntl.h</text>
</a>
</g>
</g>
<!-- Node9&#45;&gt;Node10 -->
<g id="edge10" class="edge">
<title>Node9&#45;&gt;Node10</title>
<path fill="none" stroke="midnightblue" d="M335.38,-336.44C306.08,-327.02 258.93,-311.87 227.22,-301.68"/>
<polygon fill="midnightblue" stroke="midnightblue" points="228.11,-298.29 217.51,-298.56 225.96,-304.95 228.11,-298.29"/>
</g>
<!-- Node11 -->
<g id="node11" class="node">
<title>Node11</title>
<g id="a_node11"><a xlink:href="error__type_8h.html" target="_top" xlink:title=" ">
<polygon fill="none" stroke="black" points="236,-280.5 236,-299.5 312,-299.5 312,-280.5 236,-280.5"/>
<text text-anchor="middle" x="274" y="-287.5" font-family="Helvetica,sans-Serif" font-size="10.00">error_type.h</text>
</a>
</g>
</g>
<!-- Node9&#45;&gt;Node11 -->
<g id="edge11" class="edge">
<title>Node9&#45;&gt;Node11</title>
<path fill="none" stroke="midnightblue" d="M347.86,-336.32C334.13,-327.9 313.06,-314.97 296.94,-305.07"/>
<polygon fill="midnightblue" stroke="midnightblue" points="298.46,-301.9 288.1,-299.65 294.8,-307.87 298.46,-301.9"/>
</g>
<!-- Node12 -->
<g id="node12" class="node">
<title>Node12</title>
<g id="a_node12"><a xlink:href="error__msg_8h.html" target="_top" xlink:title=" ">
<polygon fill="none" stroke="black" points="330.5,-280.5 330.5,-299.5 405.5,-299.5 405.5,-280.5 330.5,-280.5"/>
<text text-anchor="middle" x="368" y="-287.5" font-family="Helvetica,sans-Serif" font-size="10.00">error_msg.h</text>
</a>
</g>
</g>
<!-- Node9&#45;&gt;Node12 -->
<g id="edge12" class="edge">
<title>Node9&#45;&gt;Node12</title>
<path fill="none" stroke="midnightblue" d="M362.99,-336.08C363.79,-328.93 364.93,-318.64 365.92,-309.69"/>
<polygon fill="midnightblue" stroke="midnightblue" points="369.4,-310.08 367.03,-299.75 362.44,-309.3 369.4,-310.08"/>
</g>
<!-- Node12&#45;&gt;Node3 -->
<g id="edge13" class="edge">
<title>Node12&#45;&gt;Node3</title>
<path fill="none" stroke="midnightblue" d="M335.41,-280.47C316.27,-273.73 293.29,-262.34 280,-244 257.93,-213.54 257.29,-167.39 259,-141.79"/>
<polygon fill="midnightblue" stroke="midnightblue" points="262.51,-141.87 259.88,-131.6 255.53,-141.26 262.51,-141.87"/>
</g>
<!-- Node13 -->
<g id="node13" class="node">
<title>Node13</title>
<g id="a_node13"><a xlink:title=" ">
<polygon fill="none" stroke="#bfbfbf" points="289.5,-224.5 289.5,-243.5 340.5,-243.5 340.5,-224.5 289.5,-224.5"/>
<text text-anchor="middle" x="315" y="-231.5" font-family="Helvetica,sans-Serif" font-size="10.00">errno.h</text>
</a>
</g>
</g>
<!-- Node12&#45;&gt;Node13 -->
<g id="edge14" class="edge">
<title>Node12&#45;&gt;Node13</title>
<path fill="none" stroke="midnightblue" d="M359.25,-280.08C351.53,-272.22 340.1,-260.57 330.78,-251.08"/>
<polygon fill="midnightblue" stroke="midnightblue" points="333.09,-248.44 323.59,-243.75 328.1,-253.34 333.09,-248.44"/>
</g>
<!-- Node14 -->
<g id="node14" class="node">
<title>Node14</title>
<g id="a_node14"><a xlink:title=" ">
<polygon fill="none" stroke="#bfbfbf" points="358.5,-224.5 358.5,-243.5 405.5,-243.5 405.5,-224.5 358.5,-224.5"/>
<text text-anchor="middle" x="382" y="-231.5" font-family="Helvetica,sans-Serif" font-size="10.00">ft_fd.h</text>
</a>
</g>
</g>
<!-- Node12&#45;&gt;Node14 -->
<g id="edge15" class="edge">
<title>Node12&#45;&gt;Node14</title>
<path fill="none" stroke="midnightblue" d="M370.31,-280.08C372.17,-272.93 374.84,-262.64 377.15,-253.69"/>
<polygon fill="midnightblue" stroke="midnightblue" points="380.61,-254.31 379.73,-243.75 373.83,-252.55 380.61,-254.31"/>
</g>
<!-- Node12&#45;&gt;Node15 -->
<g id="edge16" class="edge">
<title>Node12&#45;&gt;Node15</title>
<path fill="none" stroke="midnightblue" d="M396.68,-280.44C427.53,-271.24 476.73,-256.56 510.83,-246.39"/>
<polygon fill="midnightblue" stroke="midnightblue" points="511.87,-249.73 520.45,-243.52 509.87,-243.02 511.87,-249.73"/>
</g>
<!-- Node15&#45;&gt;Node4 -->
<g id="edge19" class="edge">
<title>Node15&#45;&gt;Node4</title>
<path fill="none" stroke="midnightblue" d="M549.82,-224.48C551.42,-202.9 552.59,-145.41 524,-112 502.58,-86.97 465.79,-75.84 438.57,-70.9"/>
<polygon fill="midnightblue" stroke="midnightblue" points="439.1,-67.44 428.67,-69.3 437.98,-74.35 439.1,-67.44"/>
</g>
<!-- Node15&#45;&gt;Node6 -->
<g id="edge17" class="edge">
<title>Node15&#45;&gt;Node6</title>
<path fill="none" stroke="midnightblue" d="M556.41,-224.41C563.28,-215.84 573.01,-201.98 577,-188 593.12,-131.58 609.14,-103.72 575,-56 557.49,-31.52 524.82,-20.36 498.3,-15.26"/>
<polygon fill="midnightblue" stroke="midnightblue" points="498.55,-11.76 488.11,-13.54 497.38,-18.66 498.55,-11.76"/>
</g>
<!-- Node16 -->
<g id="node16" class="node">
<title>Node16</title>
<g id="a_node16"><a xlink:title=" ">
<polygon fill="none" stroke="#bfbfbf" points="513.5,-56.5 513.5,-75.5 566.5,-75.5 566.5,-56.5 513.5,-56.5"/>
<text text-anchor="middle" x="540" y="-63.5" font-family="Helvetica,sans-Serif" font-size="10.00">stdlib.h</text>
</a>
</g>
</g>
<!-- Node15&#45;&gt;Node16 -->
<g id="edge18" class="edge">
<title>Node15&#45;&gt;Node16</title>
<path fill="none" stroke="midnightblue" d="M552.09,-224.17C555.05,-215.2 559.32,-200.83 561,-188 565.39,-154.51 568.32,-144.98 561,-112 558.88,-102.43 554.49,-92.48 550.28,-84.37"/>
<polygon fill="midnightblue" stroke="midnightblue" points="553.3,-82.6 545.38,-75.56 547.18,-86 553.3,-82.6"/>
</g>
<!-- Node15&#45;&gt;Node17 -->
<g id="edge20" class="edge">
<title>Node15&#45;&gt;Node17</title>
<path fill="none" stroke="midnightblue" d="M536.95,-224.32C525.54,-216.11 508.17,-203.6 494.57,-193.81"/>
<polygon fill="midnightblue" stroke="midnightblue" points="496.43,-190.84 486.27,-187.83 492.34,-196.52 496.43,-190.84"/>
</g>
<!-- Node17&#45;&gt;Node3 -->
<g id="edge21" class="edge">
<title>Node17&#45;&gt;Node3</title>
<path fill="none" stroke="midnightblue" d="M440.25,-168.44C400.86,-158.46 336.04,-142.03 296.09,-131.9"/>
<polygon fill="midnightblue" stroke="midnightblue" points="296.81,-128.47 286.25,-129.4 295.09,-135.25 296.81,-128.47"/>
</g>
<!-- Node18 -->
<g id="node18" class="node">
<title>Node18</title>
<g id="a_node18"><a xlink:title=" ">
<polygon fill="none" stroke="#bfbfbf" points="462.5,-112.5 462.5,-131.5 515.5,-131.5 515.5,-112.5 462.5,-112.5"/>
<text text-anchor="middle" x="489" y="-119.5" font-family="Helvetica,sans-Serif" font-size="10.00">stdint.h</text>
</a>
</g>
</g>
<!-- Node17&#45;&gt;Node18 -->
<g id="edge22" class="edge">
<title>Node17&#45;&gt;Node18</title>
<path fill="none" stroke="midnightblue" d="M476.48,-168.08C478.49,-160.85 481.39,-150.41 483.89,-141.4"/>
<polygon fill="midnightblue" stroke="midnightblue" points="487.26,-142.32 486.57,-131.75 480.52,-140.45 487.26,-142.32"/>
</g>
<!-- Node17&#45;&gt;Node19 -->
<g id="edge23" class="edge">
<title>Node17&#45;&gt;Node19</title>
<path fill="none" stroke="midnightblue" d="M462.75,-168.32C452.2,-160.18 436.2,-147.84 423.56,-138.09"/>
<polygon fill="midnightblue" stroke="midnightblue" points="425.51,-135.17 415.45,-131.83 421.23,-140.71 425.51,-135.17"/>
</g>
<!-- Node19&#45;&gt;Node4 -->
<g id="edge27" class="edge">
<title>Node19&#45;&gt;Node4</title>
<path fill="none" stroke="midnightblue" d="M404,-112.08C404,-105.01 404,-94.86 404,-85.99"/>
<polygon fill="midnightblue" stroke="midnightblue" points="407.5,-85.75 404,-75.75 400.5,-85.75 407.5,-85.75"/>
</g>
<!-- Node19&#45;&gt;Node5 -->
<g id="edge24" class="edge">
<title>Node19&#45;&gt;Node5</title>
<path fill="none" stroke="midnightblue" d="M394.86,-112.34C386.68,-103.93 375.19,-90.37 370,-76 364.66,-61.21 364.24,-43.28 364.97,-30"/>
<polygon fill="midnightblue" stroke="midnightblue" points="368.48,-29.98 365.81,-19.73 361.51,-29.41 368.48,-29.98"/>
</g>
<!-- Node19&#45;&gt;Node6 -->
<g id="edge25" class="edge">
<title>Node19&#45;&gt;Node6</title>
<path fill="none" stroke="midnightblue" d="M411.78,-112.28C419.17,-103.61 430.13,-89.68 437,-76 444.45,-61.16 449.75,-43.01 453.02,-29.67"/>
<polygon fill="midnightblue" stroke="midnightblue" points="456.46,-30.29 455.28,-19.76 449.64,-28.73 456.46,-30.29"/>
</g>
<!-- Node19&#45;&gt;Node16 -->
<g id="edge26" class="edge">
<title>Node19&#45;&gt;Node16</title>
<path fill="none" stroke="midnightblue" d="M425.55,-112.44C448.03,-103.52 483.49,-89.44 508.98,-79.32"/>
<polygon fill="midnightblue" stroke="midnightblue" points="510.55,-82.46 518.55,-75.52 507.97,-75.95 510.55,-82.46"/>
</g>
</g>
</svg>
