<?xml version="1.0" encoding="UTF-8" standalone="no"?>
<!DOCTYPE svg PUBLIC "-//W3C//DTD SVG 1.1//EN"
 "http://www.w3.org/Graphics/SVG/1.1/DTD/svg11.dtd">
<!-- Generated by graphviz version 2.43.0 (0)
 -->
<!-- Title: inc/debug_print.h Pages: 1 -->
<svg width="642pt" height="364pt"
 viewBox="0.00 0.00 642.14 364.00" xmlns="http://www.w3.org/2000/svg" xmlns:xlink="http://www.w3.org/1999/xlink">
<g id="graph0" class="graph" transform="scale(1 1) rotate(0) translate(4 360)">
<title>inc/debug_print.h</title>
<!-- Node1 -->
<g id="node1" class="node">
<title>Node1</title>
<g id="a_node1"><a xlink:title=" ">
<polygon fill="#bfbfbf" stroke="black" points="411.14,-336.5 411.14,-355.5 512.14,-355.5 512.14,-336.5 411.14,-336.5"/>
<text text-anchor="middle" x="461.64" y="-343.5" font-family="Helvetica,sans-Serif" font-size="10.00">inc/debug_print.h</text>
</a>
</g>
</g>
<!-- Node2 -->
<g id="node2" class="node">
<title>Node2</title>
<g id="a_node2"><a xlink:title=" ">
<polygon fill="none" stroke="#bfbfbf" points="293.64,-112.5 293.64,-131.5 343.64,-131.5 343.64,-112.5 293.64,-112.5"/>
<text text-anchor="middle" x="318.64" y="-119.5" font-family="Helvetica,sans-Serif" font-size="10.00">stdio.h</text>
</a>
</g>
</g>
<!-- Node1&#45;&gt;Node2 -->
<g id="edge1" class="edge">
<title>Node1&#45;&gt;Node2</title>
<path fill="none" stroke="midnightblue" d="M458.49,-336.38C450.85,-315.97 430.06,-263.42 404.64,-224 383.56,-191.32 352.86,-157.8 334.41,-138.78"/>
<polygon fill="midnightblue" stroke="midnightblue" points="336.82,-136.23 327.32,-131.55 331.83,-141.14 336.82,-136.23"/>
</g>
<!-- Node3 -->
<g id="node3" class="node">
<title>Node3</title>
<g id="a_node3"><a xlink:href="vec3_8h.html" target="_top" xlink:title=" ">
<polygon fill="none" stroke="black" points="414.14,-56.5 414.14,-75.5 463.14,-75.5 463.14,-56.5 414.14,-56.5"/>
<text text-anchor="middle" x="438.64" y="-63.5" font-family="Helvetica,sans-Serif" font-size="10.00">vec3.h</text>
</a>
</g>
</g>
<!-- Node1&#45;&gt;Node3 -->
<g id="edge2" class="edge">
<title>Node1&#45;&gt;Node3</title>
<path fill="none" stroke="midnightblue" d="M468.17,-336.41C481.08,-318.56 508.64,-275.7 508.64,-235 508.64,-235 508.64,-235 508.64,-177 508.64,-146.77 504.9,-137.48 488.64,-112 481.07,-100.16 469.58,-89.51 459.51,-81.54"/>
<polygon fill="midnightblue" stroke="midnightblue" points="461.61,-78.74 451.51,-75.52 457.4,-84.33 461.61,-78.74"/>
</g>
<!-- Node6 -->
<g id="node6" class="node">
<title>Node6</title>
<g id="a_node6"><a xlink:href="camera_8h.html" target="_top" xlink:title=" ">
<polygon fill="none" stroke="black" points="167.64,-280.5 167.64,-299.5 229.64,-299.5 229.64,-280.5 167.64,-280.5"/>
<text text-anchor="middle" x="198.64" y="-287.5" font-family="Helvetica,sans-Serif" font-size="10.00">camera.h</text>
</a>
</g>
</g>
<!-- Node1&#45;&gt;Node6 -->
<g id="edge5" class="edge">
<title>Node1&#45;&gt;Node6</title>
<path fill="none" stroke="midnightblue" d="M419.96,-336.44C370.61,-326.31 288.91,-309.54 239.78,-299.45"/>
<polygon fill="midnightblue" stroke="midnightblue" points="240.32,-295.99 229.82,-297.4 238.91,-302.84 240.32,-295.99"/>
</g>
<!-- Node15 -->
<g id="node15" class="node">
<title>Node15</title>
<g id="a_node15"><a xlink:href="colour_8h.html" target="_top" xlink:title=" ">
<polygon fill="none" stroke="black" points="425.14,-168.5 425.14,-187.5 480.14,-187.5 480.14,-168.5 425.14,-168.5"/>
<text text-anchor="middle" x="452.64" y="-175.5" font-family="Helvetica,sans-Serif" font-size="10.00">colour.h</text>
</a>
</g>
</g>
<!-- Node1&#45;&gt;Node15 -->
<g id="edge19" class="edge">
<title>Node1&#45;&gt;Node15</title>
<path fill="none" stroke="midnightblue" d="M461.15,-336.08C459.73,-309.95 455.57,-233.21 453.64,-197.58"/>
<polygon fill="midnightblue" stroke="midnightblue" points="457.14,-197.36 453.1,-187.57 450.15,-197.74 457.14,-197.36"/>
</g>
<!-- Node17 -->
<g id="node17" class="node">
<title>Node17</title>
<g id="a_node17"><a xlink:href="entities__bonus_8h.html" target="_top" xlink:title=" ">
<polygon fill="none" stroke="black" points="537.14,-280.5 537.14,-299.5 634.14,-299.5 634.14,-280.5 537.14,-280.5"/>
<text text-anchor="middle" x="585.64" y="-287.5" font-family="Helvetica,sans-Serif" font-size="10.00">entities_bonus.h</text>
</a>
</g>
</g>
<!-- Node1&#45;&gt;Node17 -->
<g id="edge23" class="edge">
<title>Node1&#45;&gt;Node17</title>
<path fill="none" stroke="midnightblue" d="M481.28,-336.44C501.6,-327.6 533.54,-313.69 556.73,-303.59"/>
<polygon fill="midnightblue" stroke="midnightblue" points="558.31,-306.72 566.08,-299.52 555.51,-300.3 558.31,-306.72"/>
</g>
<!-- Node4 -->
<g id="node4" class="node">
<title>Node4</title>
<g id="a_node4"><a xlink:title=" ">
<polygon fill="none" stroke="#bfbfbf" points="376.14,-0.5 376.14,-19.5 427.14,-19.5 427.14,-0.5 376.14,-0.5"/>
<text text-anchor="middle" x="401.64" y="-7.5" font-family="Helvetica,sans-Serif" font-size="10.00">math.h</text>
</a>
</g>
</g>
<!-- Node3&#45;&gt;Node4 -->
<g id="edge3" class="edge">
<title>Node3&#45;&gt;Node4</title>
<path fill="none" stroke="midnightblue" d="M432.53,-56.08C427.35,-48.53 419.79,-37.49 413.44,-28.23"/>
<polygon fill="midnightblue" stroke="midnightblue" points="416.17,-26.02 407.63,-19.75 410.4,-29.98 416.17,-26.02"/>
</g>
<!-- Node5 -->
<g id="node5" class="node">
<title>Node5</title>
<g id="a_node5"><a xlink:title=" ">
<polygon fill="none" stroke="#bfbfbf" points="460.64,-0.5 460.64,-19.5 522.64,-19.5 522.64,-0.5 460.64,-0.5"/>
<text text-anchor="middle" x="491.64" y="-7.5" font-family="Helvetica,sans-Serif" font-size="10.00">stdbool.h</text>
</a>
</g>
</g>
<!-- Node3&#45;&gt;Node5 -->
<g id="edge4" class="edge">
<title>Node3&#45;&gt;Node5</title>
<path fill="none" stroke="midnightblue" d="M447.39,-56.08C455.11,-48.22 466.54,-36.57 475.85,-27.08"/>
<polygon fill="midnightblue" stroke="midnightblue" points="478.54,-29.34 483.05,-19.75 473.54,-24.44 478.54,-29.34"/>
</g>
<!-- Node6&#45;&gt;Node3 -->
<g id="edge7" class="edge">
<title>Node6&#45;&gt;Node3</title>
<path fill="none" stroke="midnightblue" d="M167.56,-286.6C134.45,-282.61 82.02,-272.02 46.64,-244 0.01,-207.08 -18.83,-152.59 24.64,-112 52.14,-86.31 308.8,-72.64 403.64,-68.43"/>
<polygon fill="midnightblue" stroke="midnightblue" points="404.02,-71.92 413.86,-67.99 403.71,-64.93 404.02,-71.92"/>
</g>
<!-- Node7 -->
<g id="node7" class="node">
<title>Node7</title>
<g id="a_node7"><a xlink:href="vec2_8h.html" target="_top" xlink:title=" ">
<polygon fill="none" stroke="black" points="200.14,-224.5 200.14,-243.5 249.14,-243.5 249.14,-224.5 200.14,-224.5"/>
<text text-anchor="middle" x="224.64" y="-231.5" font-family="Helvetica,sans-Serif" font-size="10.00">vec2.h</text>
</a>
</g>
</g>
<!-- Node6&#45;&gt;Node7 -->
<g id="edge6" class="edge">
<title>Node6&#45;&gt;Node7</title>
<path fill="none" stroke="midnightblue" d="M202.93,-280.08C206.49,-272.69 211.66,-261.95 216.06,-252.81"/>
<polygon fill="midnightblue" stroke="midnightblue" points="219.24,-254.28 220.42,-243.75 212.93,-251.24 219.24,-254.28"/>
</g>
<!-- Node8 -->
<g id="node8" class="node">
<title>Node8</title>
<g id="a_node8"><a xlink:href="error__syscall_8h.html" target="_top" xlink:title=" ">
<polygon fill="none" stroke="black" points="55.64,-224.5 55.64,-243.5 143.64,-243.5 143.64,-224.5 55.64,-224.5"/>
<text text-anchor="middle" x="99.64" y="-231.5" font-family="Helvetica,sans-Serif" font-size="10.00">error_syscall.h</text>
</a>
</g>
</g>
<!-- Node6&#45;&gt;Node8 -->
<g id="edge8" class="edge">
<title>Node6&#45;&gt;Node8</title>
<path fill="none" stroke="midnightblue" d="M182.73,-280.32C167,-271.74 142.69,-258.49 124.43,-248.52"/>
<polygon fill="midnightblue" stroke="midnightblue" points="125.96,-245.37 115.5,-243.65 122.61,-251.52 125.96,-245.37"/>
</g>
<!-- Node13 -->
<g id="node13" class="node">
<title>Node13</title>
<g id="a_node13"><a xlink:href="utils_8h.html" target="_top" xlink:title=" ">
<polygon fill="none" stroke="black" points="362.14,-112.5 362.14,-131.5 409.14,-131.5 409.14,-112.5 362.14,-112.5"/>
<text text-anchor="middle" x="385.64" y="-119.5" font-family="Helvetica,sans-Serif" font-size="10.00">utils.h</text>
</a>
</g>
</g>
<!-- Node6&#45;&gt;Node13 -->
<g id="edge14" class="edge">
<title>Node6&#45;&gt;Node13</title>
<path fill="none" stroke="midnightblue" d="M194.32,-280.28C188.46,-267.07 179.88,-241.68 190.64,-224 208.93,-193.92 302.32,-154.67 352.93,-135.14"/>
<polygon fill="midnightblue" stroke="midnightblue" points="354.35,-138.35 362.45,-131.51 351.86,-131.81 354.35,-138.35"/>
</g>
<!-- Node14 -->
<g id="node14" class="node">
<title>Node14</title>
<g id="a_node14"><a xlink:href="mini_r_t__config__bonus_8h.html" target="_top" xlink:title=" ">
<polygon fill="none" stroke="black" points="267.64,-224.5 267.64,-243.5 395.64,-243.5 395.64,-224.5 267.64,-224.5"/>
<text text-anchor="middle" x="331.64" y="-231.5" font-family="Helvetica,sans-Serif" font-size="10.00">miniRT_config_bonus.h</text>
</a>
</g>
</g>
<!-- Node6&#45;&gt;Node14 -->
<g id="edge18" class="edge">
<title>Node6&#45;&gt;Node14</title>
<path fill="none" stroke="midnightblue" d="M219.71,-280.44C241.7,-271.52 276.37,-257.44 301.3,-247.32"/>
<polygon fill="midnightblue" stroke="midnightblue" points="302.71,-250.52 310.66,-243.52 300.08,-244.04 302.71,-250.52"/>
</g>
<!-- Node9 -->
<g id="node9" class="node">
<title>Node9</title>
<g id="a_node9"><a xlink:title=" ">
<polygon fill="none" stroke="#bfbfbf" points="129.14,-168.5 129.14,-187.5 176.14,-187.5 176.14,-168.5 129.14,-168.5"/>
<text text-anchor="middle" x="152.64" y="-175.5" font-family="Helvetica,sans-Serif" font-size="10.00">fcntl.h</text>
</a>
</g>
</g>
<!-- Node8&#45;&gt;Node9 -->
<g id="edge9" class="edge">
<title>Node8&#45;&gt;Node9</title>
<path fill="none" stroke="midnightblue" d="M108.39,-224.08C116.11,-216.22 127.54,-204.57 136.85,-195.08"/>
<polygon fill="midnightblue" stroke="midnightblue" points="139.54,-197.34 144.05,-187.75 134.54,-192.44 139.54,-197.34"/>
</g>
<!-- Node10 -->
<g id="node10" class="node">
<title>Node10</title>
<g id="a_node10"><a xlink:href="mini_r_t__error_8h.html" target="_top" xlink:title=" ">
<polygon fill="none" stroke="black" points="24.14,-168.5 24.14,-187.5 111.14,-187.5 111.14,-168.5 24.14,-168.5"/>
<text text-anchor="middle" x="67.64" y="-175.5" font-family="Helvetica,sans-Serif" font-size="10.00">miniRT_error.h</text>
</a>
</g>
</g>
<!-- Node8&#45;&gt;Node10 -->
<g id="edge10" class="edge">
<title>Node8&#45;&gt;Node10</title>
<path fill="none" stroke="midnightblue" d="M94.35,-224.08C89.92,-216.61 83.47,-205.72 78.02,-196.52"/>
<polygon fill="midnightblue" stroke="midnightblue" points="80.93,-194.57 72.82,-187.75 74.91,-198.14 80.93,-194.57"/>
</g>
<!-- Node10&#45;&gt;Node2 -->
<g id="edge11" class="edge">
<title>Node10&#45;&gt;Node2</title>
<path fill="none" stroke="midnightblue" d="M107.41,-168.44C155.99,-157.99 237.39,-140.48 283.67,-130.52"/>
<polygon fill="midnightblue" stroke="midnightblue" points="284.5,-133.92 293.54,-128.4 283.03,-127.08 284.5,-133.92"/>
</g>
<!-- Node11 -->
<g id="node11" class="node">
<title>Node11</title>
<g id="a_node11"><a xlink:title=" ">
<polygon fill="none" stroke="#bfbfbf" points="99.14,-112.5 99.14,-131.5 150.14,-131.5 150.14,-112.5 99.14,-112.5"/>
<text text-anchor="middle" x="124.64" y="-119.5" font-family="Helvetica,sans-Serif" font-size="10.00">errno.h</text>
</a>
</g>
</g>
<!-- Node10&#45;&gt;Node11 -->
<g id="edge12" class="edge">
<title>Node10&#45;&gt;Node11</title>
<path fill="none" stroke="midnightblue" d="M76.79,-168.32C85.14,-160.42 97.67,-148.55 107.81,-138.94"/>
<polygon fill="midnightblue" stroke="midnightblue" points="110.46,-141.25 115.31,-131.83 105.64,-136.17 110.46,-141.25"/>
</g>
<!-- Node12 -->
<g id="node12" class="node">
<title>Node12</title>
<g id="a_node12"><a xlink:title=" ">
<polygon fill="none" stroke="#bfbfbf" points="34.14,-112.5 34.14,-131.5 81.14,-131.5 81.14,-112.5 34.14,-112.5"/>
<text text-anchor="middle" x="57.64" y="-119.5" font-family="Helvetica,sans-Serif" font-size="10.00">ft_fd.h</text>
</a>
</g>
</g>
<!-- Node10&#45;&gt;Node12 -->
<g id="edge13" class="edge">
<title>Node10&#45;&gt;Node12</title>
<path fill="none" stroke="midnightblue" d="M65.98,-168.08C64.66,-160.93 62.75,-150.64 61.1,-141.69"/>
<polygon fill="midnightblue" stroke="midnightblue" points="64.52,-140.95 59.26,-131.75 57.64,-142.22 64.52,-140.95"/>
</g>
<!-- Node13&#45;&gt;Node3 -->
<g id="edge17" class="edge">
<title>Node13&#45;&gt;Node3</title>
<path fill="none" stroke="midnightblue" d="M394.39,-112.08C402.11,-104.22 413.54,-92.57 422.85,-83.08"/>
<polygon fill="midnightblue" stroke="midnightblue" points="425.54,-85.34 430.05,-75.75 420.54,-80.44 425.54,-85.34"/>
</g>
<!-- Node13&#45;&gt;Node4 -->
<g id="edge15" class="edge">
<title>Node13&#45;&gt;Node4</title>
<path fill="none" stroke="midnightblue" d="M386.89,-112.37C389.47,-94.62 395.43,-53.67 398.93,-29.6"/>
<polygon fill="midnightblue" stroke="midnightblue" points="402.41,-29.99 400.39,-19.59 395.48,-28.98 402.41,-29.99"/>
</g>
<!-- Node13&#45;&gt;Node5 -->
<g id="edge16" class="edge">
<title>Node13&#45;&gt;Node5</title>
<path fill="none" stroke="midnightblue" d="M409.35,-114.24C428.73,-107.55 455.48,-95.44 471.64,-76 482.59,-62.82 487.56,-43.68 489.8,-29.58"/>
<polygon fill="midnightblue" stroke="midnightblue" points="493.28,-29.93 491.08,-19.57 486.34,-29.05 493.28,-29.93"/>
</g>
<!-- Node15&#45;&gt;Node2 -->
<g id="edge20" class="edge">
<title>Node15&#45;&gt;Node2</title>
<path fill="none" stroke="midnightblue" d="M431.4,-168.44C409.25,-159.52 374.32,-145.44 349.2,-135.32"/>
<polygon fill="midnightblue" stroke="midnightblue" points="350.35,-132.01 339.77,-131.52 347.74,-138.5 350.35,-132.01"/>
</g>
<!-- Node15&#45;&gt;Node13 -->
<g id="edge22" class="edge">
<title>Node15&#45;&gt;Node13</title>
<path fill="none" stroke="midnightblue" d="M441.87,-168.32C431.87,-160.26 416.75,-148.08 404.71,-138.37"/>
<polygon fill="midnightblue" stroke="midnightblue" points="406.58,-135.38 396.6,-131.83 402.19,-140.83 406.58,-135.38"/>
</g>
<!-- Node16 -->
<g id="node16" class="node">
<title>Node16</title>
<g id="a_node16"><a xlink:title=" ">
<polygon fill="none" stroke="#bfbfbf" points="427.14,-112.5 427.14,-131.5 480.14,-131.5 480.14,-112.5 427.14,-112.5"/>
<text text-anchor="middle" x="453.64" y="-119.5" font-family="Helvetica,sans-Serif" font-size="10.00">stdint.h</text>
</a>
</g>
</g>
<!-- Node15&#45;&gt;Node16 -->
<g id="edge21" class="edge">
<title>Node15&#45;&gt;Node16</title>
<path fill="none" stroke="midnightblue" d="M452.8,-168.08C452.93,-161.01 453.12,-150.86 453.28,-141.99"/>
<polygon fill="midnightblue" stroke="midnightblue" points="456.79,-141.81 453.47,-131.75 449.79,-141.68 456.79,-141.81"/>
</g>
<!-- Node18 -->
<g id="node18" class="node">
<title>Node18</title>
<g id="a_node18"><a xlink:href="entities_8h.html" target="_top" xlink:title=" ">
<polygon fill="none" stroke="black" points="554.64,-224.5 554.64,-243.5 616.64,-243.5 616.64,-224.5 554.64,-224.5"/>
<text text-anchor="middle" x="585.64" y="-231.5" font-family="Helvetica,sans-Serif" font-size="10.00">entities.h</text>
</a>
</g>
</g>
<!-- Node17&#45;&gt;Node18 -->
<g id="edge24" class="edge">
<title>Node17&#45;&gt;Node18</title>
<path fill="none" stroke="midnightblue" d="M585.64,-280.08C585.64,-273.01 585.64,-262.86 585.64,-253.99"/>
<polygon fill="midnightblue" stroke="midnightblue" points="589.14,-253.75 585.64,-243.75 582.14,-253.75 589.14,-253.75"/>
</g>
<!-- Node18&#45;&gt;Node3 -->
<g id="edge27" class="edge">
<title>Node18&#45;&gt;Node3</title>
<path fill="none" stroke="midnightblue" d="M590.86,-224.1C597.76,-211.11 607.98,-186.49 598.64,-168 573.68,-118.61 512.29,-90.49 473.22,-77.03"/>
<polygon fill="midnightblue" stroke="midnightblue" points="473.92,-73.57 463.32,-73.77 471.73,-80.22 473.92,-73.57"/>
</g>
<!-- Node18&#45;&gt;Node5 -->
<g id="edge25" class="edge">
<title>Node18&#45;&gt;Node5</title>
<path fill="none" stroke="midnightblue" d="M593.98,-224.4C604.78,-212.16 621.47,-188.91 614.64,-168 594.75,-107.19 539.5,-52.38 510.29,-26.58"/>
<polygon fill="midnightblue" stroke="midnightblue" points="512.31,-23.7 502.46,-19.81 507.74,-29 512.31,-23.7"/>
</g>
<!-- Node18&#45;&gt;Node15 -->
<g id="edge28" class="edge">
<title>Node18&#45;&gt;Node15</title>
<path fill="none" stroke="midnightblue" d="M564.56,-224.44C542.58,-215.52 507.9,-201.44 482.97,-191.32"/>
<polygon fill="midnightblue" stroke="midnightblue" points="484.19,-188.04 473.61,-187.52 481.56,-194.52 484.19,-188.04"/>
</g>
<!-- Node19 -->
<g id="node19" class="node">
<title>Node19</title>
<g id="a_node19"><a xlink:title=" ">
<polygon fill="none" stroke="#bfbfbf" points="537.14,-168.5 537.14,-187.5 590.14,-187.5 590.14,-168.5 537.14,-168.5"/>
<text text-anchor="middle" x="563.64" y="-175.5" font-family="Helvetica,sans-Serif" font-size="10.00">stdlib.h</text>
</a>
</g>
</g>
<!-- Node18&#45;&gt;Node19 -->
<g id="edge26" class="edge">
<title>Node18&#45;&gt;Node19</title>
<path fill="none" stroke="midnightblue" d="M582,-224.08C579.02,-216.77 574.71,-206.18 571.01,-197.1"/>
<polygon fill="midnightblue" stroke="midnightblue" points="574.22,-195.69 567.2,-187.75 567.73,-198.33 574.22,-195.69"/>
</g>
</g>
</svg>
