<?xml version="1.0" encoding="UTF-8" standalone="no"?>
<!DOCTYPE svg PUBLIC "-//W3C//DTD SVG 1.1//EN"
 "http://www.w3.org/Graphics/SVG/1.1/DTD/svg11.dtd">
<!-- Generated by graphviz version 2.43.0 (0)
 -->
<!-- Title: ft_print_vec3 Pages: 1 -->
<svg width="349pt" height="142pt"
 viewBox="0.00 0.00 349.00 142.00" xmlns="http://www.w3.org/2000/svg" xmlns:xlink="http://www.w3.org/1999/xlink">
<g id="graph0" class="graph" transform="scale(1 1) rotate(0) translate(4 138)">
<title>ft_print_vec3</title>
<!-- Node1 -->
<g id="node1" class="node">
<title>Node1</title>
<g id="a_node1"><a xlink:title="Prints variables of a vec3.">
<polygon fill="#bfbfbf" stroke="black" points="261,-57.5 261,-76.5 341,-76.5 341,-57.5 261,-57.5"/>
<text text-anchor="middle" x="301" y="-64.5" font-family="Helvetica,sans-Serif" font-size="10.00">ft_print_vec3</text>
</a>
</g>
</g>
<!-- Node2 -->
<g id="node2" class="node">
<title>Node2</title>
<g id="a_node2"><a xlink:href="debug__print_8h.html#a108d195ad2cb3a1e983e5e2e1cab34c2" target="_top" xlink:title="Prints parameters of camera struct.">
<polygon fill="none" stroke="black" points="139,-114.5 139,-133.5 216,-133.5 216,-114.5 139,-114.5"/>
<text text-anchor="middle" x="177.5" y="-121.5" font-family="Helvetica,sans-Serif" font-size="10.00">ft_print_cam</text>
</a>
</g>
</g>
<!-- Node1&#45;&gt;Node2 -->
<g id="edge1" class="edge">
<title>Node1&#45;&gt;Node2</title>
<path fill="none" stroke="midnightblue" d="M272.85,-81.42C258.72,-88.76 241.07,-97.66 225,-105 218.02,-108.19 210.34,-111.43 203.27,-114.31"/>
<polygon fill="midnightblue" stroke="midnightblue" points="274.78,-84.37 282.01,-76.63 271.53,-78.17 274.78,-84.37"/>
</g>
<!-- Node3 -->
<g id="node3" class="node">
<title>Node3</title>
<g id="a_node3"><a xlink:href="debug__print_8h.html#a27665e112e02a635b975a5b0a4965a24" target="_top" xlink:title="Prints parameters of a cylinder.">
<polygon fill="none" stroke="black" points="130,-76.5 130,-95.5 225,-95.5 225,-76.5 130,-76.5"/>
<text text-anchor="middle" x="177.5" y="-83.5" font-family="Helvetica,sans-Serif" font-size="10.00">ft_print_cylinder</text>
</a>
</g>
</g>
<!-- Node1&#45;&gt;Node3 -->
<g id="edge2" class="edge">
<title>Node1&#45;&gt;Node3</title>
<path fill="none" stroke="midnightblue" d="M250.78,-74.7C242.32,-76.02 233.56,-77.39 225.18,-78.7"/>
<polygon fill="midnightblue" stroke="midnightblue" points="251.55,-78.12 260.89,-73.12 250.47,-71.2 251.55,-78.12"/>
</g>
<!-- Node5 -->
<g id="node5" class="node">
<title>Node5</title>
<g id="a_node5"><a xlink:href="debug__print_8h.html#ab5b1469cabf3343b24c4393e236d4533" target="_top" xlink:title="Prints parameters of a plane.">
<polygon fill="none" stroke="black" points="136,-38.5 136,-57.5 219,-57.5 219,-38.5 136,-38.5"/>
<text text-anchor="middle" x="177.5" y="-45.5" font-family="Helvetica,sans-Serif" font-size="10.00">ft_print_plane</text>
</a>
</g>
</g>
<!-- Node1&#45;&gt;Node5 -->
<g id="edge4" class="edge">
<title>Node1&#45;&gt;Node5</title>
<path fill="none" stroke="midnightblue" d="M250.97,-59.33C240.43,-57.68 229.4,-55.96 219.21,-54.37"/>
<polygon fill="midnightblue" stroke="midnightblue" points="250.47,-62.8 260.89,-60.88 251.55,-55.88 250.47,-62.8"/>
</g>
<!-- Node6 -->
<g id="node6" class="node">
<title>Node6</title>
<g id="a_node6"><a xlink:href="debug__print_8h.html#aa206b35a5459e0b87ec959f729bf1ab8" target="_top" xlink:title="Prints parameters of a sphere.">
<polygon fill="none" stroke="black" points="133,-0.5 133,-19.5 222,-19.5 222,-0.5 133,-0.5"/>
<text text-anchor="middle" x="177.5" y="-7.5" font-family="Helvetica,sans-Serif" font-size="10.00">ft_print_sphere</text>
</a>
</g>
</g>
<!-- Node1&#45;&gt;Node6 -->
<g id="edge6" class="edge">
<title>Node1&#45;&gt;Node6</title>
<path fill="none" stroke="midnightblue" d="M272.85,-52.58C258.72,-45.24 241.07,-36.34 225,-29 218.02,-25.81 210.34,-22.57 203.27,-19.69"/>
<polygon fill="midnightblue" stroke="midnightblue" points="271.53,-55.83 282.01,-57.37 274.78,-49.63 271.53,-55.83"/>
</g>
<!-- Node4 -->
<g id="node4" class="node">
<title>Node4</title>
<g id="a_node4"><a xlink:href="debug__print_8h.html#ac59921d803c46a4b1e16f0dfe0b6c50b" target="_top" xlink:title="Prints parameters of a hittable.">
<polygon fill="none" stroke="black" points="0,-38.5 0,-57.5 94,-57.5 94,-38.5 0,-38.5"/>
<text text-anchor="middle" x="47" y="-45.5" font-family="Helvetica,sans-Serif" font-size="10.00">ft_print_hittable</text>
</a>
</g>
</g>
<!-- Node3&#45;&gt;Node4 -->
<g id="edge3" class="edge">
<title>Node3&#45;&gt;Node4</title>
<path fill="none" stroke="midnightblue" d="M134.11,-73.46C116.63,-68.3 96.7,-62.4 80.42,-57.59"/>
<polygon fill="midnightblue" stroke="midnightblue" points="133.49,-76.93 144.07,-76.41 135.48,-70.22 133.49,-76.93"/>
</g>
<!-- Node5&#45;&gt;Node4 -->
<g id="edge5" class="edge">
<title>Node5&#45;&gt;Node4</title>
<path fill="none" stroke="midnightblue" d="M125.67,-48C115.29,-48 104.42,-48 94.21,-48"/>
<polygon fill="midnightblue" stroke="midnightblue" points="125.84,-51.5 135.84,-48 125.84,-44.5 125.84,-51.5"/>
</g>
<!-- Node6&#45;&gt;Node4 -->
<g id="edge7" class="edge">
<title>Node6&#45;&gt;Node4</title>
<path fill="none" stroke="midnightblue" d="M134.11,-22.54C116.63,-27.7 96.7,-33.6 80.42,-38.41"/>
<polygon fill="midnightblue" stroke="midnightblue" points="135.48,-25.78 144.07,-19.59 133.49,-19.07 135.48,-25.78"/>
</g>
</g>
</svg>
