<?xml version="1.0" encoding="UTF-8" standalone="no"?>
<!DOCTYPE svg PUBLIC "-//W3C//DTD SVG 1.1//EN"
 "http://www.w3.org/Graphics/SVG/1.1/DTD/svg11.dtd">
<!-- Generated by graphviz version 2.43.0 (0)
 -->
<!-- Title: inc/entities.h Pages: 1 -->
<!--zoomable 565 -->
<svg id="main" version="1.1" xmlns="http://www.w3.org/2000/svg" xmlns:xlink="http://www.w3.org/1999/xlink" xml:space="preserve" onload="init(evt)">
<style type="text/css"><![CDATA[
.edge:hover path { stroke: red; }
.edge:hover polygon { stroke: red; fill: red; }
]]></style>
<script type="text/javascript"><![CDATA[
var edges = document.getElementsByTagName('g');
if (edges && edges.length) {
  for (var i=0;i<edges.length;i++) {
    if (edges[i].id.substr(0,4)=='edge') {
      edges[i].setAttribute('class','edge');
    }
  }
}
]]></script>
        <defs>
                <circle id="rim" cx="0" cy="0" r="7"/>
                <circle id="rim2" cx="0" cy="0" r="3.5"/>
                <g id="zoomPlus">
                        <use xlink:href="#rim" fill="#404040">
                                <set attributeName="fill" to="#808080" begin="zoomplus.mouseover" end="zoomplus.mouseout"/>
                        </use>
                        <path d="M-4,0h8M0,-4v8" fill="none" stroke="white" stroke-width="1.5" pointer-events="none"/>
                </g>
                <g id="zoomMin">
                        <use xlink:href="#rim" fill="#404040">
                                <set attributeName="fill" to="#808080" begin="zoomminus.mouseover" end="zoomminus.mouseout"/>
                        </use>
                        <path d="M-4,0h8" fill="none" stroke="white" stroke-width="1.5" pointer-events="none"/>
                </g>
                <g id="dirArrow">
                        <path fill="none" stroke="white" stroke-width="1.5" d="M0,-3.0v7 M-2.5,-0.5L0,-3.0L2.5,-0.5"/>
                </g>
               <g id="resetDef">
                       <use xlink:href="#rim2" fill="#404040">
                               <set attributeName="fill" to="#808080" begin="reset.mouseover" end="reset.mouseout"/>
                       </use>
               </g>
        </defs>

<script type="text/javascript">
var viewWidth = 2502;
var viewHeight = 565;
var sectionId = 'dynsection-1';
</script>
<script xlink:href="svgpan.js"/>
<svg id="graph" class="graph">
<g id="viewport">
<title>inc/entities.h</title>
<!-- Node1 -->
<g id="node1" class="node">
<title>Node1</title>
<g id="a_node1"><a xlink:title=" ">
<polygon fill="#bfbfbf" stroke="black" points="1579,-537.5 1579,-556.5 1659,-556.5 1659,-537.5 1579,-537.5"/>
<text text-anchor="middle" x="1619" y="-544.5" font-family="Helvetica,sans-Serif" font-size="10.00">inc/entities.h</text>
</a>
</g>
</g>
<!-- Node2 -->
<g id="node2" class="node">
<title>Node2</title>
<g id="a_node2"><a xlink:href="entities__bonus_8h.html" target="_top" xlink:title=" ">
<polygon fill="none" stroke="black" points="1562,-481.5 1562,-500.5 1676,-500.5 1676,-481.5 1562,-481.5"/>
<text text-anchor="middle" x="1619" y="-488.5" font-family="Helvetica,sans-Serif" font-size="10.00">inc/entities_bonus.h</text>
</a>
</g>
</g>
<!-- Node1&#45;&gt;Node2 -->
<g id="edge1" class="edge">
<title>Node1&#45;&gt;Node2</title>
<path fill="none" stroke="midnightblue" d="M1619,-526.8C1619,-517.91 1619,-507.78 1619,-500.75"/>
<polygon fill="midnightblue" stroke="midnightblue" points="1615.5,-527.08 1619,-537.08 1622.5,-527.08 1615.5,-527.08"/>
</g>
<!-- Node3 -->
<g id="node3" class="node">
<title>Node3</title>
<g id="a_node3"><a xlink:href="check_8h.html" target="_top" xlink:title=" ">
<polygon fill="none" stroke="black" points="752.5,-425.5 752.5,-444.5 823.5,-444.5 823.5,-425.5 752.5,-425.5"/>
<text text-anchor="middle" x="788" y="-432.5" font-family="Helvetica,sans-Serif" font-size="10.00">inc/check.h</text>
</a>
</g>
</g>
<!-- Node2&#45;&gt;Node3 -->
<g id="edge2" class="edge">
<title>Node2&#45;&gt;Node3</title>
<path fill="none" stroke="midnightblue" d="M1551.69,-485.63C1383.73,-474.71 950.57,-446.56 823.52,-438.31"/>
<polygon fill="midnightblue" stroke="midnightblue" points="1551.68,-489.13 1561.88,-486.29 1552.13,-482.15 1551.68,-489.13"/>
</g>
<!-- Node4 -->
<g id="node4" class="node">
<title>Node4</title>
<g id="a_node4"><a xlink:href="check__bonus_8h.html" target="_top" xlink:title=" ">
<polygon fill="none" stroke="black" points="217,-364 217,-383 323,-383 323,-364 217,-364"/>
<text text-anchor="middle" x="270" y="-371" font-family="Helvetica,sans-Serif" font-size="10.00">inc/check_bonus.h</text>
</a>
</g>
</g>
<!-- Node2&#45;&gt;Node4 -->
<g id="edge15" class="edge">
<title>Node2&#45;&gt;Node4</title>
<path fill="none" stroke="midnightblue" d="M1551.52,-488.47C1404.38,-484.7 1043.76,-473.16 743,-445 559.45,-427.81 513.29,-422.47 332,-389 322.87,-387.31 313.05,-385.17 303.99,-383.06"/>
<polygon fill="midnightblue" stroke="midnightblue" points="1551.66,-491.97 1561.74,-488.72 1551.83,-484.97 1551.66,-491.97"/>
</g>
<!-- Node16 -->
<g id="node16" class="node">
<title>Node16</title>
<g id="a_node16"><a xlink:href="debug__print_8h.html" target="_top" xlink:title=" ">
<polygon fill="none" stroke="black" points="1368.5,-425.5 1368.5,-444.5 1469.5,-444.5 1469.5,-425.5 1368.5,-425.5"/>
<text text-anchor="middle" x="1419" y="-432.5" font-family="Helvetica,sans-Serif" font-size="10.00">inc/debug_print.h</text>
</a>
</g>
</g>
<!-- Node2&#45;&gt;Node16 -->
<g id="edge16" class="edge">
<title>Node2&#45;&gt;Node16</title>
<path fill="none" stroke="midnightblue" d="M1577.63,-478.83C1539.86,-468.63 1484.86,-453.78 1450.54,-444.52"/>
<polygon fill="midnightblue" stroke="midnightblue" points="1576.74,-482.22 1587.31,-481.44 1578.57,-475.46 1576.74,-482.22"/>
</g>
<!-- Node19 -->
<g id="node19" class="node">
<title>Node19</title>
<g id="a_node19"><a xlink:href="parse_8h.html" target="_top" xlink:title=" ">
<polygon fill="none" stroke="black" points="2040,-425.5 2040,-444.5 2110,-444.5 2110,-425.5 2040,-425.5"/>
<text text-anchor="middle" x="2075" y="-432.5" font-family="Helvetica,sans-Serif" font-size="10.00">inc/parse.h</text>
</a>
</g>
</g>
<!-- Node2&#45;&gt;Node19 -->
<g id="edge19" class="edge">
<title>Node2&#45;&gt;Node19</title>
<path fill="none" stroke="midnightblue" d="M1686.42,-482.02C1784.8,-470.37 1964.18,-449.12 2039.85,-440.16"/>
<polygon fill="midnightblue" stroke="midnightblue" points="1685.81,-478.56 1676.29,-483.22 1686.63,-485.52 1685.81,-478.56"/>
</g>
<!-- Node20 -->
<g id="node20" class="node">
<title>Node20</title>
<g id="a_node20"><a xlink:href="parse__bonus_8h.html" target="_top" xlink:title=" ">
<polygon fill="none" stroke="black" points="1918,-364 1918,-383 2022,-383 2022,-364 1918,-364"/>
<text text-anchor="middle" x="1970" y="-371" font-family="Helvetica,sans-Serif" font-size="10.00">inc/parse_bonus.h</text>
</a>
</g>
</g>
<!-- Node2&#45;&gt;Node20 -->
<g id="edge30" class="edge">
<title>Node2&#45;&gt;Node20</title>
<path fill="none" stroke="midnightblue" d="M1654.89,-478.19C1725.65,-454.91 1881.62,-403.58 1943.73,-383.14"/>
<polygon fill="midnightblue" stroke="midnightblue" points="1653.5,-474.96 1645.1,-481.41 1655.69,-481.61 1653.5,-474.96"/>
</g>
<!-- Node30 -->
<g id="node30" class="node">
<title>Node30</title>
<g id="a_node30"><a xlink:href="ray_8h.html" target="_top" xlink:title=" ">
<polygon fill="none" stroke="black" points="2128.5,-425.5 2128.5,-444.5 2185.5,-444.5 2185.5,-425.5 2128.5,-425.5"/>
<text text-anchor="middle" x="2157" y="-432.5" font-family="Helvetica,sans-Serif" font-size="10.00">inc/ray.h</text>
</a>
</g>
</g>
<!-- Node2&#45;&gt;Node30 -->
<g id="edge31" class="edge">
<title>Node2&#45;&gt;Node30</title>
<path fill="none" stroke="midnightblue" d="M1686.51,-486.99C1782.94,-481.99 1965.45,-469.96 2119,-445 2122.08,-444.5 2125.28,-443.89 2128.45,-443.22"/>
<polygon fill="midnightblue" stroke="midnightblue" points="1686.13,-483.5 1676.32,-487.51 1686.49,-490.49 1686.13,-483.5"/>
</g>
<!-- Node31 -->
<g id="node31" class="node">
<title>Node31</title>
<g id="a_node31"><a xlink:href="ray__bonus_8h.html" target="_top" xlink:title=" ">
<polygon fill="none" stroke="black" points="1424.5,-235.5 1424.5,-254.5 1517.5,-254.5 1517.5,-235.5 1424.5,-235.5"/>
<text text-anchor="middle" x="1471" y="-242.5" font-family="Helvetica,sans-Serif" font-size="10.00">inc/ray_bonus.h</text>
</a>
</g>
</g>
<!-- Node2&#45;&gt;Node31 -->
<g id="edge32" class="edge">
<title>Node2&#45;&gt;Node31</title>
<path fill="none" stroke="midnightblue" d="M1593.58,-476.33C1580.94,-468.51 1566.23,-457.73 1556,-445 1505.39,-382.05 1479.84,-284.47 1472.95,-254.83"/>
<polygon fill="midnightblue" stroke="midnightblue" points="1591.92,-479.42 1602.32,-481.48 1595.48,-473.39 1591.92,-479.42"/>
</g>
<!-- Node92 -->
<g id="node46" class="node">
<title>Node92</title>
<g id="a_node46"><a xlink:href="render__struct_8h.html" target="_top" xlink:title=" ">
<polygon fill="none" stroke="black" points="1565.5,-425.5 1565.5,-444.5 1672.5,-444.5 1672.5,-425.5 1565.5,-425.5"/>
<text text-anchor="middle" x="1619" y="-432.5" font-family="Helvetica,sans-Serif" font-size="10.00">inc/render_struct.h</text>
</a>
</g>
</g>
<!-- Node2&#45;&gt;Node92 -->
<g id="edge51" class="edge">
<title>Node2&#45;&gt;Node92</title>
<path fill="none" stroke="midnightblue" d="M1619,-470.8C1619,-461.91 1619,-451.78 1619,-444.75"/>
<polygon fill="midnightblue" stroke="midnightblue" points="1615.5,-471.08 1619,-481.08 1622.5,-471.08 1615.5,-471.08"/>
</g>
<!-- Node93 -->
<g id="node47" class="node">
<title>Node93</title>
<g id="a_node47"><a xlink:href="render__struct__bonus_8h.html" target="_top" xlink:title=" ">
<polygon fill="none" stroke="black" points="1647,-364 1647,-383 1789,-383 1789,-364 1647,-364"/>
<text text-anchor="middle" x="1718" y="-371" font-family="Helvetica,sans-Serif" font-size="10.00">inc/render_struct_bonus.h</text>
</a>
</g>
</g>
<!-- Node2&#45;&gt;Node93 -->
<g id="edge63" class="edge">
<title>Node2&#45;&gt;Node93</title>
<path fill="none" stroke="midnightblue" d="M1643.11,-476.22C1655.54,-468.27 1670.29,-457.38 1681,-445 1697.82,-425.55 1709.73,-397.15 1714.99,-383.07"/>
<polygon fill="midnightblue" stroke="midnightblue" points="1641.25,-473.26 1634.57,-481.48 1644.92,-479.22 1641.25,-473.26"/>
</g>
<!-- Node3&#45;&gt;Node4 -->
<g id="edge3" class="edge">
<title>Node3&#45;&gt;Node4</title>
<path fill="none" stroke="midnightblue" d="M742.28,-431.48C659.84,-426.5 481.02,-413.67 332,-389 322.51,-387.43 312.31,-385.25 302.98,-383.06"/>
<polygon fill="midnightblue" stroke="midnightblue" points="742.13,-434.98 752.32,-432.08 742.54,-427.99 742.13,-434.98"/>
</g>
<!-- Node9 -->
<g id="node9" class="node">
<title>Node9</title>
<g id="a_node9"><a xlink:href="check_8c.html" target="_top" xlink:title=" ">
<polygon fill="none" stroke="black" points="1112.5,-364 1112.5,-383 1183.5,-383 1183.5,-364 1112.5,-364"/>
<text text-anchor="middle" x="1148" y="-371" font-family="Helvetica,sans-Serif" font-size="10.00">src/check.c</text>
</a>
</g>
</g>
<!-- Node3&#45;&gt;Node9 -->
<g id="edge8" class="edge">
<title>Node3&#45;&gt;Node9</title>
<path fill="none" stroke="midnightblue" d="M833.98,-429.9C895.73,-423.84 1008.61,-410.78 1103,-389 1109.88,-387.41 1117.21,-385.26 1123.92,-383.09"/>
<polygon fill="midnightblue" stroke="midnightblue" points="833.41,-426.44 823.79,-430.88 834.08,-433.41 833.41,-426.44"/>
</g>
<!-- Node10 -->
<g id="node10" class="node">
<title>Node10</title>
<g id="a_node10"><a xlink:href="check__entity___a_c_l_8c.html" target="_top" xlink:title=" ">
<polygon fill="none" stroke="black" points="341,-364 341,-383 469,-383 469,-364 341,-364"/>
<text text-anchor="middle" x="405" y="-371" font-family="Helvetica,sans-Serif" font-size="10.00">src/check_entity_ACL.c</text>
</a>
</g>
</g>
<!-- Node3&#45;&gt;Node10 -->
<g id="edge9" class="edge">
<title>Node3&#45;&gt;Node10</title>
<path fill="none" stroke="midnightblue" d="M742.09,-428.09C681.48,-420.12 571.48,-405.06 478,-389 467.56,-387.21 456.31,-385.07 445.86,-383"/>
<polygon fill="midnightblue" stroke="midnightblue" points="741.73,-431.58 752.1,-429.41 742.64,-424.64 741.73,-431.58"/>
</g>
<!-- Node11 -->
<g id="node11" class="node">
<title>Node11</title>
<g id="a_node11"><a xlink:href="check__entity__sp__pl__cy_8c.html" target="_top" xlink:title=" ">
<polygon fill="none" stroke="black" points="487.5,-358.5 487.5,-388.5 600.5,-388.5 600.5,-358.5 487.5,-358.5"/>
<text text-anchor="start" x="495.5" y="-376.5" font-family="Helvetica,sans-Serif" font-size="10.00">src/check_entity_sp</text>
<text text-anchor="middle" x="544" y="-365.5" font-family="Helvetica,sans-Serif" font-size="10.00">_pl_cy.c</text>
</a>
</g>
</g>
<!-- Node3&#45;&gt;Node11 -->
<g id="edge10" class="edge">
<title>Node3&#45;&gt;Node11</title>
<path fill="none" stroke="midnightblue" d="M743.26,-423.09C703.11,-413.3 643.99,-398.88 600.57,-388.29"/>
<polygon fill="midnightblue" stroke="midnightblue" points="742.5,-426.51 753.04,-425.48 744.15,-419.71 742.5,-426.51"/>
</g>
<!-- Node12 -->
<g id="node12" class="node">
<title>Node12</title>
<g id="a_node12"><a xlink:href="check__error_8c.html" target="_top" xlink:title=" ">
<polygon fill="none" stroke="black" points="619,-364 619,-383 717,-383 717,-364 619,-364"/>
<text text-anchor="middle" x="668" y="-371" font-family="Helvetica,sans-Serif" font-size="10.00">src/check_error.c</text>
</a>
</g>
</g>
<!-- Node3&#45;&gt;Node12 -->
<g id="edge11" class="edge">
<title>Node3&#45;&gt;Node12</title>
<path fill="none" stroke="midnightblue" d="M761.82,-421.02C738.55,-409.48 705.2,-392.94 685.16,-383.01"/>
<polygon fill="midnightblue" stroke="midnightblue" points="760.29,-424.17 770.81,-425.48 763.4,-417.9 760.29,-424.17"/>
</g>
<!-- Node13 -->
<g id="node13" class="node">
<title>Node13</title>
<g id="a_node13"><a xlink:href="check__error2_8c.html" target="_top" xlink:title=" ">
<polygon fill="none" stroke="black" points="735.5,-364 735.5,-383 840.5,-383 840.5,-364 735.5,-364"/>
<text text-anchor="middle" x="788" y="-371" font-family="Helvetica,sans-Serif" font-size="10.00">src/check_error2.c</text>
</a>
</g>
</g>
<!-- Node3&#45;&gt;Node13 -->
<g id="edge12" class="edge">
<title>Node3&#45;&gt;Node13</title>
<path fill="none" stroke="midnightblue" d="M788,-415.32C788,-404.5 788,-391.4 788,-383.01"/>
<polygon fill="midnightblue" stroke="midnightblue" points="784.5,-415.48 788,-425.48 791.5,-415.48 784.5,-415.48"/>
</g>
<!-- Node14 -->
<g id="node14" class="node">
<title>Node14</title>
<g id="a_node14"><a xlink:href="check__line_8c.html" target="_top" xlink:title=" ">
<polygon fill="none" stroke="black" points="859,-364 859,-383 953,-383 953,-364 859,-364"/>
<text text-anchor="middle" x="906" y="-371" font-family="Helvetica,sans-Serif" font-size="10.00">src/check_line.c</text>
</a>
</g>
</g>
<!-- Node3&#45;&gt;Node14 -->
<g id="edge13" class="edge">
<title>Node3&#45;&gt;Node14</title>
<path fill="none" stroke="midnightblue" d="M814.05,-420.87C836.92,-409.33 869.51,-392.9 889.12,-383.01"/>
<polygon fill="midnightblue" stroke="midnightblue" points="812.26,-417.85 804.91,-425.48 815.41,-424.1 812.26,-417.85"/>
</g>
<!-- Node15 -->
<g id="node15" class="node">
<title>Node15</title>
<g id="a_node15"><a xlink:href="check__rm__space_8c.html" target="_top" xlink:title=" ">
<polygon fill="none" stroke="black" points="971.5,-364 971.5,-383 1094.5,-383 1094.5,-364 971.5,-364"/>
<text text-anchor="middle" x="1033" y="-371" font-family="Helvetica,sans-Serif" font-size="10.00">src/check_rm_space.c</text>
</a>
</g>
</g>
<!-- Node3&#45;&gt;Node15 -->
<g id="edge14" class="edge">
<title>Node3&#45;&gt;Node15</title>
<path fill="none" stroke="midnightblue" d="M832.83,-423.11C880.38,-411.57 954.51,-393.56 997.96,-383.01"/>
<polygon fill="midnightblue" stroke="midnightblue" points="831.99,-419.71 823.1,-425.48 833.65,-426.52 831.99,-419.71"/>
</g>
<!-- Node5 -->
<g id="node5" class="node">
<title>Node5</title>
<g id="a_node5"><a xlink:href="check__bonus_8c.html" target="_top" xlink:title=" ">
<polygon fill="none" stroke="black" points="280.5,-297 280.5,-316 385.5,-316 385.5,-297 280.5,-297"/>
<text text-anchor="middle" x="333" y="-304" font-family="Helvetica,sans-Serif" font-size="10.00">src/check_bonus.c</text>
</a>
</g>
</g>
<!-- Node4&#45;&gt;Node5 -->
<g id="edge4" class="edge">
<title>Node4&#45;&gt;Node5</title>
<path fill="none" stroke="midnightblue" d="M285.51,-356.5C297.87,-343.75 314.69,-326.39 324.64,-316.13"/>
<polygon fill="midnightblue" stroke="midnightblue" points="282.94,-354.12 278.5,-363.73 287.97,-358.99 282.94,-354.12"/>
</g>
<!-- Node6 -->
<g id="node6" class="node">
<title>Node6</title>
<g id="a_node6"><a xlink:href="check__entity__sp__pl__cy__bonus_8c.html" target="_top" xlink:title=" ">
<polygon fill="none" stroke="black" points="403.5,-291.5 403.5,-321.5 516.5,-321.5 516.5,-291.5 403.5,-291.5"/>
<text text-anchor="start" x="411.5" y="-309.5" font-family="Helvetica,sans-Serif" font-size="10.00">src/check_entity_sp</text>
<text text-anchor="middle" x="460" y="-298.5" font-family="Helvetica,sans-Serif" font-size="10.00">_pl_cy_bonus.c</text>
</a>
</g>
</g>
<!-- Node4&#45;&gt;Node6 -->
<g id="edge5" class="edge">
<title>Node4&#45;&gt;Node6</title>
<path fill="none" stroke="midnightblue" d="M305.11,-360.49C337.32,-349.47 385.04,-333.14 418.99,-321.53"/>
<polygon fill="midnightblue" stroke="midnightblue" points="303.56,-357.32 295.23,-363.87 305.83,-363.94 303.56,-357.32"/>
</g>
<!-- Node7 -->
<g id="node7" class="node">
<title>Node7</title>
<g id="a_node7"><a xlink:href="check__error__bonus_8c.html" target="_top" xlink:title=" ">
<polygon fill="none" stroke="black" points="0,-297 0,-316 134,-316 134,-297 0,-297"/>
<text text-anchor="middle" x="67" y="-304" font-family="Helvetica,sans-Serif" font-size="10.00">src/check_error_bonus.c</text>
</a>
</g>
</g>
<!-- Node4&#45;&gt;Node7 -->
<g id="edge6" class="edge">
<title>Node4&#45;&gt;Node7</title>
<path fill="none" stroke="midnightblue" d="M233.35,-360.77C193.13,-347.89 129.53,-327.52 93.75,-316.06"/>
<polygon fill="midnightblue" stroke="midnightblue" points="232.45,-364.15 243.04,-363.87 234.59,-357.49 232.45,-364.15"/>
</g>
<!-- Node8 -->
<g id="node8" class="node">
<title>Node8</title>
<g id="a_node8"><a xlink:href="check__win__size__bonus_8c.html" target="_top" xlink:title=" ">
<polygon fill="none" stroke="black" points="152,-291.5 152,-321.5 262,-321.5 262,-291.5 152,-291.5"/>
<text text-anchor="start" x="160" y="-309.5" font-family="Helvetica,sans-Serif" font-size="10.00">src/check_win_size</text>
<text text-anchor="middle" x="207" y="-298.5" font-family="Helvetica,sans-Serif" font-size="10.00">_bonus.c</text>
</a>
</g>
</g>
<!-- Node4&#45;&gt;Node8 -->
<g id="edge7" class="edge">
<title>Node4&#45;&gt;Node8</title>
<path fill="none" stroke="midnightblue" d="M254.3,-356.3C243.96,-345.63 230.55,-331.8 220.66,-321.59"/>
<polygon fill="midnightblue" stroke="midnightblue" points="252.03,-358.99 261.5,-363.73 257.06,-354.12 252.03,-358.99"/>
</g>
<!-- Node17 -->
<g id="node17" class="node">
<title>Node17</title>
<g id="a_node17"><a xlink:href="debug__print__entity_8c.html" target="_top" xlink:title=" ">
<polygon fill="none" stroke="black" points="1202,-364 1202,-383 1334,-383 1334,-364 1202,-364"/>
<text text-anchor="middle" x="1268" y="-371" font-family="Helvetica,sans-Serif" font-size="10.00">src/debug_print_entity.c</text>
</a>
</g>
</g>
<!-- Node16&#45;&gt;Node17 -->
<g id="edge17" class="edge">
<title>Node16&#45;&gt;Node17</title>
<path fill="none" stroke="midnightblue" d="M1387.99,-421.78C1358.65,-410.22 1315.37,-393.16 1289.59,-383.01"/>
<polygon fill="midnightblue" stroke="midnightblue" points="1386.78,-425.07 1397.37,-425.48 1389.34,-418.55 1386.78,-425.07"/>
</g>
<!-- Node18 -->
<g id="node18" class="node">
<title>Node18</title>
<g id="a_node18"><a xlink:href="debug__print__struct_8c.html" target="_top" xlink:title=" ">
<polygon fill="none" stroke="black" points="1352.5,-364 1352.5,-383 1485.5,-383 1485.5,-364 1352.5,-364"/>
<text text-anchor="middle" x="1419" y="-371" font-family="Helvetica,sans-Serif" font-size="10.00">src/debug_print_struct.c</text>
</a>
</g>
</g>
<!-- Node16&#45;&gt;Node18 -->
<g id="edge18" class="edge">
<title>Node16&#45;&gt;Node18</title>
<path fill="none" stroke="midnightblue" d="M1419,-415.32C1419,-404.5 1419,-391.4 1419,-383.01"/>
<polygon fill="midnightblue" stroke="midnightblue" points="1415.5,-415.48 1419,-425.48 1422.5,-415.48 1415.5,-415.48"/>
</g>
<!-- Node19&#45;&gt;Node20 -->
<g id="edge20" class="edge">
<title>Node19&#45;&gt;Node20</title>
<path fill="none" stroke="midnightblue" d="M2051,-420.4C2030.7,-408.9 2002.24,-392.77 1985.02,-383.01"/>
<polygon fill="midnightblue" stroke="midnightblue" points="2049.53,-423.59 2059.96,-425.48 2052.98,-417.5 2049.53,-423.59"/>
</g>
<!-- Node26 -->
<g id="node26" class="node">
<title>Node26</title>
<g id="a_node26"><a xlink:href="parse_8c.html" target="_top" xlink:title=" ">
<polygon fill="none" stroke="black" points="2040.5,-364 2040.5,-383 2109.5,-383 2109.5,-364 2040.5,-364"/>
<text text-anchor="middle" x="2075" y="-371" font-family="Helvetica,sans-Serif" font-size="10.00">src/parse.c</text>
</a>
</g>
</g>
<!-- Node19&#45;&gt;Node26 -->
<g id="edge26" class="edge">
<title>Node19&#45;&gt;Node26</title>
<path fill="none" stroke="midnightblue" d="M2075,-415.32C2075,-404.5 2075,-391.4 2075,-383.01"/>
<polygon fill="midnightblue" stroke="midnightblue" points="2071.5,-415.48 2075,-425.48 2078.5,-415.48 2071.5,-415.48"/>
</g>
<!-- Node27 -->
<g id="node27" class="node">
<title>Node27</title>
<g id="a_node27"><a xlink:href="parse__entity___a_c_l_8c.html" target="_top" xlink:title=" ">
<polygon fill="none" stroke="black" points="2127.5,-364 2127.5,-383 2254.5,-383 2254.5,-364 2127.5,-364"/>
<text text-anchor="middle" x="2191" y="-371" font-family="Helvetica,sans-Serif" font-size="10.00">src/parse_entity_ACL.c</text>
</a>
</g>
</g>
<!-- Node19&#45;&gt;Node27 -->
<g id="edge27" class="edge">
<title>Node19&#45;&gt;Node27</title>
<path fill="none" stroke="midnightblue" d="M2100.6,-420.87C2123.09,-409.33 2155.13,-392.9 2174.41,-383.01"/>
<polygon fill="midnightblue" stroke="midnightblue" points="2098.92,-417.8 2091.62,-425.48 2102.12,-424.03 2098.92,-417.8"/>
</g>
<!-- Node28 -->
<g id="node28" class="node">
<title>Node28</title>
<g id="a_node28"><a xlink:href="parse__entity__sp__pl__cy_8c.html" target="_top" xlink:title=" ">
<polygon fill="none" stroke="black" points="2272.5,-358.5 2272.5,-388.5 2383.5,-388.5 2383.5,-358.5 2272.5,-358.5"/>
<text text-anchor="start" x="2280.5" y="-376.5" font-family="Helvetica,sans-Serif" font-size="10.00">src/parse_entity_sp</text>
<text text-anchor="middle" x="2328" y="-365.5" font-family="Helvetica,sans-Serif" font-size="10.00">_pl_cy.c</text>
</a>
</g>
</g>
<!-- Node19&#45;&gt;Node28 -->
<g id="edge28" class="edge">
<title>Node19&#45;&gt;Node28</title>
<path fill="none" stroke="midnightblue" d="M2119.97,-423.42C2162.5,-413.42 2226.45,-398.38 2272.21,-387.62"/>
<polygon fill="midnightblue" stroke="midnightblue" points="2119.11,-420.03 2110.18,-425.73 2120.71,-426.84 2119.11,-420.03"/>
</g>
<!-- Node29 -->
<g id="node29" class="node">
<title>Node29</title>
<g id="a_node29"><a xlink:href="parse__line_8c.html" target="_top" xlink:title=" ">
<polygon fill="none" stroke="black" points="2402,-364 2402,-383 2494,-383 2494,-364 2402,-364"/>
<text text-anchor="middle" x="2448" y="-371" font-family="Helvetica,sans-Serif" font-size="10.00">src/parse_line.c</text>
</a>
</g>
</g>
<!-- Node19&#45;&gt;Node29 -->
<g id="edge29" class="edge">
<title>Node19&#45;&gt;Node29</title>
<path fill="none" stroke="midnightblue" d="M2120.45,-425.05C2242.49,-405.37 2276.09,-412.02 2393,-389 2401.33,-387.36 2410.27,-385.18 2418.47,-383.02"/>
<polygon fill="midnightblue" stroke="midnightblue" points="2119.63,-421.63 2110.33,-426.7 2120.77,-428.54 2119.63,-421.63"/>
</g>
<!-- Node21 -->
<g id="node21" class="node">
<title>Node21</title>
<g id="a_node21"><a xlink:href="mini_r_t_8h.html" target="_top" xlink:title=" ">
<polygon fill="none" stroke="black" points="1965,-62 1965,-81 2041,-81 2041,-62 1965,-62"/>
<text text-anchor="middle" x="2003" y="-69" font-family="Helvetica,sans-Serif" font-size="10.00">inc/miniRT.h</text>
</a>
</g>
</g>
<!-- Node20&#45;&gt;Node21 -->
<g id="edge21" class="edge">
<title>Node20&#45;&gt;Node21</title>
<path fill="none" stroke="midnightblue" d="M2015.81,-361.62C2070.64,-348.42 2155.8,-327.27 2161,-322 2185.45,-297.21 2180,-280.82 2180,-246 2180,-246 2180,-246 2180,-188 2180,-122.32 2093.46,-92.02 2041.41,-79.74"/>
<polygon fill="midnightblue" stroke="midnightblue" points="2014.86,-358.25 2005.95,-363.99 2016.49,-365.06 2014.86,-358.25"/>
</g>
<!-- Node23 -->
<g id="node23" class="node">
<title>Node23</title>
<g id="a_node23"><a xlink:href="parse__bonus_8c.html" target="_top" xlink:title=" ">
<polygon fill="none" stroke="black" points="2208,-297 2208,-316 2312,-316 2312,-297 2208,-297"/>
<text text-anchor="middle" x="2260" y="-304" font-family="Helvetica,sans-Serif" font-size="10.00">src/parse_bonus.c</text>
</a>
</g>
</g>
<!-- Node20&#45;&gt;Node23 -->
<g id="edge23" class="edge">
<title>Node20&#45;&gt;Node23</title>
<path fill="none" stroke="midnightblue" d="M2016.19,-361.63C2021.52,-360.4 2026.88,-359.17 2032,-358 2067.58,-349.9 2165.84,-328.22 2221.05,-316.07"/>
<polygon fill="midnightblue" stroke="midnightblue" points="2014.99,-358.32 2006.05,-363.99 2016.58,-365.14 2014.99,-358.32"/>
</g>
<!-- Node24 -->
<g id="node24" class="node">
<title>Node24</title>
<g id="a_node24"><a xlink:href="parse__entity__sp__pl__cy__bonus_8c.html" target="_top" xlink:title=" ">
<polygon fill="none" stroke="black" points="1914.5,-291.5 1914.5,-321.5 2025.5,-321.5 2025.5,-291.5 1914.5,-291.5"/>
<text text-anchor="start" x="1922.5" y="-309.5" font-family="Helvetica,sans-Serif" font-size="10.00">src/parse_entity_sp</text>
<text text-anchor="middle" x="1970" y="-298.5" font-family="Helvetica,sans-Serif" font-size="10.00">_pl_cy_bonus.c</text>
</a>
</g>
</g>
<!-- Node20&#45;&gt;Node24 -->
<g id="edge24" class="edge">
<title>Node20&#45;&gt;Node24</title>
<path fill="none" stroke="midnightblue" d="M1970,-353.41C1970,-343.22 1970,-330.9 1970,-321.59"/>
<polygon fill="midnightblue" stroke="midnightblue" points="1966.5,-353.73 1970,-363.73 1973.5,-353.73 1966.5,-353.73"/>
</g>
<!-- Node25 -->
<g id="node25" class="node">
<title>Node25</title>
<g id="a_node25"><a xlink:href="parse__win__size__bonus_8c.html" target="_top" xlink:title=" ">
<polygon fill="none" stroke="black" points="2044,-291.5 2044,-321.5 2152,-321.5 2152,-291.5 2044,-291.5"/>
<text text-anchor="start" x="2052" y="-309.5" font-family="Helvetica,sans-Serif" font-size="10.00">src/parse_win_size</text>
<text text-anchor="middle" x="2098" y="-298.5" font-family="Helvetica,sans-Serif" font-size="10.00">_bonus.c</text>
</a>
</g>
</g>
<!-- Node20&#45;&gt;Node25 -->
<g id="edge25" class="edge">
<title>Node20&#45;&gt;Node25</title>
<path fill="none" stroke="midnightblue" d="M1996.2,-359.19C2017.73,-348.26 2048.16,-332.81 2070.13,-321.65"/>
<polygon fill="midnightblue" stroke="midnightblue" points="1994.33,-356.22 1987,-363.87 1997.5,-362.46 1994.33,-356.22"/>
</g>
<!-- Node22 -->
<g id="node22" class="node">
<title>Node22</title>
<g id="a_node22"><a xlink:href="main_8c.html" target="_top" xlink:title=" ">
<polygon fill="none" stroke="black" points="1969.5,-0.5 1969.5,-19.5 2036.5,-19.5 2036.5,-0.5 1969.5,-0.5"/>
<text text-anchor="middle" x="2003" y="-7.5" font-family="Helvetica,sans-Serif" font-size="10.00">src/main.c</text>
</a>
</g>
</g>
<!-- Node21&#45;&gt;Node22 -->
<g id="edge22" class="edge">
<title>Node21&#45;&gt;Node22</title>
<path fill="none" stroke="midnightblue" d="M2003,-51.82C2003,-41 2003,-27.9 2003,-19.51"/>
<polygon fill="midnightblue" stroke="midnightblue" points="1999.5,-51.98 2003,-61.98 2006.5,-51.98 1999.5,-51.98"/>
</g>
<!-- Node32 -->
<g id="node32" class="node">
<title>Node32</title>
<g id="a_node32"><a xlink:href="hit__manager_8h.html" target="_top" xlink:title=" ">
<polygon fill="none" stroke="black" points="1419,-179.5 1419,-198.5 1523,-198.5 1523,-179.5 1419,-179.5"/>
<text text-anchor="middle" x="1471" y="-186.5" font-family="Helvetica,sans-Serif" font-size="10.00">inc/hit_manager.h</text>
</a>
</g>
</g>
<!-- Node31&#45;&gt;Node32 -->
<g id="edge33" class="edge">
<title>Node31&#45;&gt;Node32</title>
<path fill="none" stroke="midnightblue" d="M1471,-224.8C1471,-215.91 1471,-205.78 1471,-198.75"/>
<polygon fill="midnightblue" stroke="midnightblue" points="1467.5,-225.08 1471,-235.08 1474.5,-225.08 1467.5,-225.08"/>
</g>
<!-- Node33 -->
<g id="node33" class="node">
<title>Node33</title>
<g id="a_node33"><a xlink:href="hit__manager__bonus_8h.html" target="_top" xlink:title=" ">
<polygon fill="none" stroke="black" points="1226.5,-179.5 1226.5,-198.5 1365.5,-198.5 1365.5,-179.5 1226.5,-179.5"/>
<text text-anchor="middle" x="1296" y="-186.5" font-family="Helvetica,sans-Serif" font-size="10.00">inc/hit_manager_bonus.h</text>
</a>
</g>
</g>
<!-- Node31&#45;&gt;Node33 -->
<g id="edge34" class="edge">
<title>Node31&#45;&gt;Node33</title>
<path fill="none" stroke="midnightblue" d="M1433.53,-232.44C1400.53,-222.26 1353.24,-207.66 1323.6,-198.52"/>
<polygon fill="midnightblue" stroke="midnightblue" points="1432.68,-235.84 1443.27,-235.44 1434.75,-229.15 1432.68,-235.84"/>
</g>
<!-- Node49 -->
<g id="node44" class="node">
<title>Node49</title>
<g id="a_node44"><a xlink:href="render_8h.html" target="_top" xlink:title=" ">
<polygon fill="none" stroke="red" points="1641,-179.5 1641,-198.5 1715,-198.5 1715,-179.5 1641,-179.5"/>
<text text-anchor="middle" x="1678" y="-186.5" font-family="Helvetica,sans-Serif" font-size="10.00">inc/render.h</text>
</a>
</g>
</g>
<!-- Node31&#45;&gt;Node49 -->
<g id="edge47" class="edge">
<title>Node31&#45;&gt;Node49</title>
<path fill="none" stroke="midnightblue" d="M1513.82,-232.83C1552.91,-222.63 1609.83,-207.78 1645.35,-198.52"/>
<polygon fill="midnightblue" stroke="midnightblue" points="1512.59,-229.53 1503.8,-235.44 1514.36,-236.31 1512.59,-229.53"/>
</g>
<!-- Node50 -->
<g id="node45" class="node">
<title>Node50</title>
<g id="a_node45"><a xlink:href="render__bonus_8h.html" target="_top" xlink:title=" ">
<polygon fill="none" stroke="red" points="1801.5,-123.5 1801.5,-142.5 1910.5,-142.5 1910.5,-123.5 1801.5,-123.5"/>
<text text-anchor="middle" x="1856" y="-130.5" font-family="Helvetica,sans-Serif" font-size="10.00">inc/render_bonus.h</text>
</a>
</g>
</g>
<!-- Node31&#45;&gt;Node50 -->
<g id="edge50" class="edge">
<title>Node31&#45;&gt;Node50</title>
<path fill="none" stroke="midnightblue" d="M1498.4,-231.11C1530,-216.68 1583.8,-193.44 1632,-179 1688.81,-161.99 1755.66,-149.5 1801.45,-142.05"/>
<polygon fill="midnightblue" stroke="midnightblue" points="1496.57,-228.1 1488.96,-235.47 1499.5,-234.46 1496.57,-228.1"/>
</g>
<!-- Node34 -->
<g id="node34" class="node">
<title>Node34</title>
<g id="a_node34"><a xlink:href="lighting_8h.html" target="_top" xlink:title=" ">
<polygon fill="none" stroke="red" points="1665,-123.5 1665,-142.5 1745,-142.5 1745,-123.5 1665,-123.5"/>
<text text-anchor="middle" x="1705" y="-130.5" font-family="Helvetica,sans-Serif" font-size="10.00">inc/lighting.h</text>
</a>
</g>
</g>
<!-- Node33&#45;&gt;Node34 -->
<g id="edge35" class="edge">
<title>Node33&#45;&gt;Node34</title>
<path fill="none" stroke="midnightblue" d="M1375.57,-179.38C1448.63,-171.15 1559.83,-157.83 1656,-143 1658.91,-142.55 1661.91,-142.06 1664.92,-141.55"/>
<polygon fill="midnightblue" stroke="midnightblue" points="1375.06,-175.91 1365.51,-180.51 1375.84,-182.87 1375.06,-175.91"/>
</g>
<!-- Node36 -->
<g id="node35" class="node">
<title>Node36</title>
<g id="a_node35"><a xlink:href="lighting__bonus_8h.html" target="_top" xlink:title=" ">
<polygon fill="none" stroke="red" points="1386,-62 1386,-81 1500,-81 1500,-62 1386,-62"/>
<text text-anchor="middle" x="1443" y="-69" font-family="Helvetica,sans-Serif" font-size="10.00">inc/lighting_bonus.h</text>
</a>
</g>
</g>
<!-- Node33&#45;&gt;Node36 -->
<g id="edge36" class="edge">
<title>Node33&#45;&gt;Node36</title>
<path fill="none" stroke="midnightblue" d="M1376.14,-181.49C1505.77,-170.78 1747.72,-149.92 1754,-143 1759.97,-136.41 1759.76,-129.77 1754,-123 1722.06,-85.45 1580.91,-75.74 1500.18,-73.29"/>
<polygon fill="midnightblue" stroke="midnightblue" points="1375.54,-178.03 1365.86,-182.34 1376.11,-185.01 1375.54,-178.03"/>
</g>
<!-- Node40 -->
<g id="node36" class="node">
<title>Node40</title>
<g id="a_node36"><a xlink:href="texture__bonus_8h.html" target="_top" xlink:title=" ">
<polygon fill="none" stroke="red" points="708.5,-123.5 708.5,-142.5 821.5,-142.5 821.5,-123.5 708.5,-123.5"/>
<text text-anchor="middle" x="765" y="-130.5" font-family="Helvetica,sans-Serif" font-size="10.00">inc/texture_bonus.h</text>
</a>
</g>
</g>
<!-- Node33&#45;&gt;Node40 -->
<g id="edge37" class="edge">
<title>Node33&#45;&gt;Node40</title>
<path fill="none" stroke="midnightblue" d="M1216.26,-181.31C1123.38,-173.28 965.38,-158.9 830,-143 827.28,-142.68 824.51,-142.34 821.7,-141.99"/>
<polygon fill="midnightblue" stroke="midnightblue" points="1216.16,-184.81 1226.43,-182.19 1216.77,-177.84 1216.16,-184.81"/>
</g>
<!-- Node42 -->
<g id="node37" class="node">
<title>Node42</title>
<g id="a_node37"><a xlink:href="utils__cylinder__bonus_8c.html" target="_top" xlink:title=" ">
<polygon fill="none" stroke="black" points="673.5,-56.5 673.5,-86.5 772.5,-86.5 772.5,-56.5 673.5,-56.5"/>
<text text-anchor="start" x="681.5" y="-74.5" font-family="Helvetica,sans-Serif" font-size="10.00">src/utils_cylinder</text>
<text text-anchor="middle" x="723" y="-63.5" font-family="Helvetica,sans-Serif" font-size="10.00">_bonus.c</text>
</a>
</g>
</g>
<!-- Node33&#45;&gt;Node42 -->
<g id="edge46" class="edge">
<title>Node33&#45;&gt;Node42</title>
<path fill="none" stroke="midnightblue" d="M1216.09,-187.88C1061.46,-186.81 733.44,-180.13 699,-143 684.41,-127.26 698.83,-102.29 710.78,-86.68"/>
<polygon fill="midnightblue" stroke="midnightblue" points="1216.44,-191.38 1226.47,-187.94 1216.49,-184.38 1216.44,-191.38"/>
</g>
<!-- Node43 -->
<g id="node38" class="node">
<title>Node43</title>
<g id="a_node38"><a xlink:href="hit__bonus_8c.html" target="_top" xlink:title=" ">
<polygon fill="none" stroke="black" points="839.5,-123.5 839.5,-142.5 928.5,-142.5 928.5,-123.5 839.5,-123.5"/>
<text text-anchor="middle" x="884" y="-130.5" font-family="Helvetica,sans-Serif" font-size="10.00">src/hit_bonus.c</text>
</a>
</g>
</g>
<!-- Node33&#45;&gt;Node43 -->
<g id="edge40" class="edge">
<title>Node33&#45;&gt;Node43</title>
<path fill="none" stroke="midnightblue" d="M1216.26,-178.91C1143.63,-170.4 1033.46,-156.95 938,-143 934.99,-142.56 931.89,-142.09 928.77,-141.6"/>
<polygon fill="midnightblue" stroke="midnightblue" points="1215.91,-182.39 1226.25,-180.07 1216.73,-175.44 1215.91,-182.39"/>
</g>
<!-- Node44 -->
<g id="node39" class="node">
<title>Node44</title>
<g id="a_node39"><a xlink:href="hit__cone__bonus_8c.html" target="_top" xlink:title=" ">
<polygon fill="none" stroke="black" points="947,-123.5 947,-142.5 1065,-142.5 1065,-123.5 947,-123.5"/>
<text text-anchor="middle" x="1006" y="-130.5" font-family="Helvetica,sans-Serif" font-size="10.00">src/hit_cone_bonus.c</text>
</a>
</g>
</g>
<!-- Node33&#45;&gt;Node44 -->
<g id="edge41" class="edge">
<title>Node33&#45;&gt;Node44</title>
<path fill="none" stroke="midnightblue" d="M1240.15,-177.6C1185.35,-167.4 1102.77,-152.02 1051.74,-142.52"/>
<polygon fill="midnightblue" stroke="midnightblue" points="1239.58,-181.05 1250.05,-179.44 1240.86,-174.17 1239.58,-181.05"/>
</g>
<!-- Node45 -->
<g id="node40" class="node">
<title>Node45</title>
<g id="a_node40"><a xlink:href="hit__cylinder__bonus_8c.html" target="_top" xlink:title=" ">
<polygon fill="none" stroke="black" points="1083,-123.5 1083,-142.5 1217,-142.5 1217,-123.5 1083,-123.5"/>
<text text-anchor="middle" x="1150" y="-130.5" font-family="Helvetica,sans-Serif" font-size="10.00">src/hit_cylinder_bonus.c</text>
</a>
</g>
</g>
<!-- Node33&#45;&gt;Node45 -->
<g id="edge42" class="edge">
<title>Node33&#45;&gt;Node45</title>
<path fill="none" stroke="midnightblue" d="M1263.3,-175.91C1235.85,-165.75 1197.33,-151.51 1173.03,-142.52"/>
<polygon fill="midnightblue" stroke="midnightblue" points="1262.27,-179.26 1272.87,-179.44 1264.7,-172.69 1262.27,-179.26"/>
</g>
<!-- Node46 -->
<g id="node41" class="node">
<title>Node46</title>
<g id="a_node41"><a xlink:href="hit__plane__bonus_8c.html" target="_top" xlink:title=" ">
<polygon fill="none" stroke="black" points="1235,-123.5 1235,-142.5 1357,-142.5 1357,-123.5 1235,-123.5"/>
<text text-anchor="middle" x="1296" y="-130.5" font-family="Helvetica,sans-Serif" font-size="10.00">src/hit_plane_bonus.c</text>
</a>
</g>
</g>
<!-- Node33&#45;&gt;Node46 -->
<g id="edge43" class="edge">
<title>Node33&#45;&gt;Node46</title>
<path fill="none" stroke="midnightblue" d="M1296,-168.8C1296,-159.91 1296,-149.78 1296,-142.75"/>
<polygon fill="midnightblue" stroke="midnightblue" points="1292.5,-169.08 1296,-179.08 1299.5,-169.08 1292.5,-169.08"/>
</g>
<!-- Node47 -->
<g id="node42" class="node">
<title>Node47</title>
<g id="a_node42"><a xlink:href="hit__sphere__bonus_8c.html" target="_top" xlink:title=" ">
<polygon fill="none" stroke="black" points="1375,-123.5 1375,-142.5 1503,-142.5 1503,-123.5 1375,-123.5"/>
<text text-anchor="middle" x="1439" y="-130.5" font-family="Helvetica,sans-Serif" font-size="10.00">src/hit_sphere_bonus.c</text>
</a>
</g>
</g>
<!-- Node33&#45;&gt;Node47 -->
<g id="edge44" class="edge">
<title>Node33&#45;&gt;Node47</title>
<path fill="none" stroke="midnightblue" d="M1328.03,-175.91C1354.91,-165.75 1392.64,-151.51 1416.45,-142.52"/>
<polygon fill="midnightblue" stroke="midnightblue" points="1326.78,-172.64 1318.66,-179.44 1329.25,-179.19 1326.78,-172.64"/>
</g>
<!-- Node48 -->
<g id="node43" class="node">
<title>Node48</title>
<g id="a_node43"><a xlink:href="utils__cone__bonus_8c.html" target="_top" xlink:title=" ">
<polygon fill="none" stroke="black" points="1521,-123.5 1521,-142.5 1647,-142.5 1647,-123.5 1521,-123.5"/>
<text text-anchor="middle" x="1584" y="-130.5" font-family="Helvetica,sans-Serif" font-size="10.00">src/utils_cone_bonus.c</text>
</a>
</g>
</g>
<!-- Node33&#45;&gt;Node48 -->
<g id="edge45" class="edge">
<title>Node33&#45;&gt;Node48</title>
<path fill="none" stroke="midnightblue" d="M1351.8,-177.54C1406.23,-167.33 1488,-152 1538.58,-142.52"/>
<polygon fill="midnightblue" stroke="midnightblue" points="1350.82,-174.16 1341.63,-179.44 1352.11,-181.04 1350.82,-174.16"/>
</g>
<!-- Node40&#45;&gt;Node36 -->
<g id="edge38" class="edge">
<title>Node40&#45;&gt;Node36</title>
<path fill="none" stroke="midnightblue" d="M831.67,-122.87C1041.62,-99.95 1279.04,-83.19 1385.85,-76.15"/>
<polygon fill="midnightblue" stroke="midnightblue" points="831.26,-119.39 821.7,-123.96 832.02,-126.35 831.26,-119.39"/>
</g>
<!-- Node40&#45;&gt;Node42 -->
<g id="edge39" class="edge">
<title>Node40&#45;&gt;Node42</title>
<path fill="none" stroke="midnightblue" d="M753.17,-115.25C746.78,-106.19 738.97,-95.12 732.9,-86.52"/>
<polygon fill="midnightblue" stroke="midnightblue" points="750.36,-117.32 758.98,-123.48 756.07,-113.29 750.36,-117.32"/>
</g>
<!-- Node49&#45;&gt;Node50 -->
<g id="edge48" class="edge">
<title>Node49&#45;&gt;Node50</title>
<path fill="none" stroke="midnightblue" d="M1716.12,-176.44C1749.68,-166.26 1797.77,-151.66 1827.93,-142.52"/>
<polygon fill="midnightblue" stroke="midnightblue" points="1714.76,-173.19 1706.2,-179.44 1716.79,-179.89 1714.76,-173.19"/>
</g>
<!-- Node50&#45;&gt;Node21 -->
<g id="edge49" class="edge">
<title>Node50&#45;&gt;Node21</title>
<path fill="none" stroke="midnightblue" d="M1886.56,-119.63C1915.12,-108.07 1957,-91.12 1981.98,-81.01"/>
<polygon fill="midnightblue" stroke="midnightblue" points="1885.02,-116.48 1877.06,-123.48 1887.64,-122.97 1885.02,-116.48"/>
</g>
<!-- Node92&#45;&gt;Node49 -->
<g id="edge52" class="edge">
<title>Node92&#45;&gt;Node49</title>
<path fill="none" stroke="midnightblue" d="M1605.9,-417.13C1579.39,-380.8 1525.18,-293.72 1565,-235 1581.83,-210.18 1614.76,-199.05 1640.74,-194.06"/>
<polygon fill="midnightblue" stroke="midnightblue" points="1603.17,-419.32 1611.96,-425.22 1608.77,-415.12 1603.17,-419.32"/>
</g>
<!-- Node92&#45;&gt;Node93 -->
<g id="edge53" class="edge">
<title>Node92&#45;&gt;Node93</title>
<path fill="none" stroke="midnightblue" d="M1641.89,-420.24C1661.01,-408.75 1687.68,-392.72 1703.84,-383.01"/>
<polygon fill="midnightblue" stroke="midnightblue" points="1639.95,-417.32 1633.18,-425.48 1643.56,-423.32 1639.95,-417.32"/>
</g>
<!-- Node93&#45;&gt;Node49 -->
<g id="edge59" class="edge">
<title>Node93&#45;&gt;Node49</title>
<path fill="none" stroke="midnightblue" d="M1718.01,-353.62C1717.53,-326.68 1714.8,-275.96 1702,-235 1697.77,-221.48 1689.46,-207.28 1683.81,-198.53"/>
<polygon fill="midnightblue" stroke="midnightblue" points="1714.51,-353.93 1718.1,-363.9 1721.51,-353.87 1714.51,-353.93"/>
</g>
<!-- Node93&#45;&gt;Node50 -->
<g id="edge62" class="edge">
<title>Node93&#45;&gt;Node50</title>
<path fill="none" stroke="midnightblue" d="M1775.45,-361.1C1799.76,-353.65 1826.64,-341.52 1845,-322 1893.39,-270.56 1867.95,-172.08 1858.82,-142.57"/>
<polygon fill="midnightblue" stroke="midnightblue" points="1774.23,-357.81 1765.58,-363.93 1776.16,-364.54 1774.23,-357.81"/>
</g>
<!-- Node94 -->
<g id="node48" class="node">
<title>Node94</title>
<g id="a_node48"><a xlink:href="manip_8h.html" target="_top" xlink:title=" ">
<polygon fill="none" stroke="black" points="1746,-297 1746,-316 1820,-316 1820,-297 1746,-297"/>
<text text-anchor="middle" x="1783" y="-304" font-family="Helvetica,sans-Serif" font-size="10.00">inc/manip.h</text>
</a>
</g>
</g>
<!-- Node93&#45;&gt;Node94 -->
<g id="edge54" class="edge">
<title>Node93&#45;&gt;Node94</title>
<path fill="none" stroke="midnightblue" d="M1734,-356.5C1746.75,-343.75 1764.11,-326.39 1774.37,-316.13"/>
<polygon fill="midnightblue" stroke="midnightblue" points="1731.36,-354.19 1726.77,-363.73 1736.31,-359.14 1731.36,-354.19"/>
</g>
<!-- Node95 -->
<g id="node49" class="node">
<title>Node95</title>
<g id="a_node49"><a xlink:href="manip__bonus_8h.html" target="_top" xlink:title=" ">
<polygon fill="none" stroke="black" points="1750,-235.5 1750,-254.5 1858,-254.5 1858,-235.5 1750,-235.5"/>
<text text-anchor="middle" x="1804" y="-242.5" font-family="Helvetica,sans-Serif" font-size="10.00">inc/manip_bonus.h</text>
</a>
</g>
</g>
<!-- Node93&#45;&gt;Node95 -->
<g id="edge58" class="edge">
<title>Node93&#45;&gt;Node95</title>
<path fill="none" stroke="midnightblue" d="M1773.51,-360.83C1794.6,-353.4 1816.53,-341.37 1829,-322 1843.13,-300.04 1823.03,-269.35 1811.35,-254.59"/>
<polygon fill="midnightblue" stroke="midnightblue" points="1772.36,-357.52 1763.91,-363.93 1774.51,-364.19 1772.36,-357.52"/>
</g>
<!-- Node96 -->
<g id="node50" class="node">
<title>Node96</title>
<g id="a_node50"><a xlink:href="render__bit__field_8h.html" target="_top" xlink:title=" ">
<polygon fill="none" stroke="red" points="1574.5,-235.5 1574.5,-254.5 1693.5,-254.5 1693.5,-235.5 1574.5,-235.5"/>
<text text-anchor="middle" x="1634" y="-242.5" font-family="Helvetica,sans-Serif" font-size="10.00">inc/render_bit_field.h</text>
</a>
</g>
</g>
<!-- Node93&#45;&gt;Node96 -->
<g id="edge60" class="edge">
<title>Node93&#45;&gt;Node96</title>
<path fill="none" stroke="midnightblue" d="M1706.55,-355.26C1688.38,-327.9 1653.58,-275.49 1639.81,-254.76"/>
<polygon fill="midnightblue" stroke="midnightblue" points="1703.78,-357.41 1712.23,-363.81 1709.61,-353.54 1703.78,-357.41"/>
</g>
<!-- Node94&#45;&gt;Node95 -->
<g id="edge55" class="edge">
<title>Node94&#45;&gt;Node95</title>
<path fill="none" stroke="midnightblue" d="M1789.35,-287.5C1793.22,-276.55 1797.97,-263.07 1801,-254.51"/>
<polygon fill="midnightblue" stroke="midnightblue" points="1786.04,-286.38 1786.01,-296.98 1792.64,-288.71 1786.04,-286.38"/>
</g>
<!-- Node95&#45;&gt;Node49 -->
<g id="edge56" class="edge">
<title>Node95&#45;&gt;Node49</title>
<path fill="none" stroke="midnightblue" d="M1774.84,-231.5C1751.22,-221.38 1718.57,-207.39 1697.87,-198.52"/>
<polygon fill="midnightblue" stroke="midnightblue" points="1773.46,-234.72 1784.03,-235.44 1776.22,-228.29 1773.46,-234.72"/>
</g>
<!-- Node95&#45;&gt;Node50 -->
<g id="edge57" class="edge">
<title>Node95&#45;&gt;Node50</title>
<path fill="none" stroke="midnightblue" d="M1812.36,-226.32C1823.68,-202.37 1843.45,-160.55 1851.94,-142.59"/>
<polygon fill="midnightblue" stroke="midnightblue" points="1809.19,-224.83 1808.08,-235.37 1815.52,-227.82 1809.19,-224.83"/>
</g>
<!-- Node96&#45;&gt;Node49 -->
<g id="edge61" class="edge">
<title>Node96&#45;&gt;Node49</title>
<path fill="none" stroke="midnightblue" d="M1647.73,-227.14C1655.4,-217.74 1664.63,-206.4 1670.87,-198.75"/>
<polygon fill="midnightblue" stroke="midnightblue" points="1644.87,-225.12 1641.27,-235.08 1650.3,-229.54 1644.87,-225.12"/>
</g>
</g>
</svg>
        <g id="navigator" transform="translate(0 0)" fill="#404254">
                <rect fill="#f2f5e9" fill-opacity="0.5" stroke="#606060" stroke-width=".5" x="0" y="0" width="60" height="60"/>
                <use id="zoomplus" xlink:href="#zoomPlus" x="17" y="9" onmousedown="handleZoom(evt,'in')"/>
                <use id="zoomminus" xlink:href="#zoomMin" x="42" y="9" onmousedown="handleZoom(evt,'out')"/>
                <use id="reset" xlink:href="#resetDef" x="30" y="36" onmousedown="handleReset()"/>
                <g id="arrowUp" xlink:href="#dirArrow" transform="translate(30 24)" onmousedown="handlePan(0,-1)">
                  <use xlink:href="#rim" fill="#404040">
                        <set attributeName="fill" to="#808080" begin="arrowUp.mouseover" end="arrowUp.mouseout"/>
                  </use>
                  <path fill="none" stroke="white" stroke-width="1.5" d="M0,-3.0v7 M-2.5,-0.5L0,-3.0L2.5,-0.5"/>
                </g>
                <g id="arrowRight" xlink:href="#dirArrow" transform="rotate(90) translate(36 -43)" onmousedown="handlePan(1,0)">
                  <use xlink:href="#rim" fill="#404040">
                        <set attributeName="fill" to="#808080" begin="arrowRight.mouseover" end="arrowRight.mouseout"/>
                  </use>
                  <path fill="none" stroke="white" stroke-width="1.5" d="M0,-3.0v7 M-2.5,-0.5L0,-3.0L2.5,-0.5"/>
                </g>
                <g id="arrowDown" xlink:href="#dirArrow" transform="rotate(180) translate(-30 -48)" onmousedown="handlePan(0,1)">
                  <use xlink:href="#rim" fill="#404040">
                        <set attributeName="fill" to="#808080" begin="arrowDown.mouseover" end="arrowDown.mouseout"/>
                  </use>
                  <path fill="none" stroke="white" stroke-width="1.5" d="M0,-3.0v7 M-2.5,-0.5L0,-3.0L2.5,-0.5"/>
                </g>
                <g id="arrowLeft" xlink:href="#dirArrow" transform="rotate(270) translate(-36 17)" onmousedown="handlePan(-1,0)">
                  <use xlink:href="#rim" fill="#404040">
                        <set attributeName="fill" to="#808080" begin="arrowLeft.mouseover" end="arrowLeft.mouseout"/>
                  </use>
                  <path fill="none" stroke="white" stroke-width="1.5" d="M0,-3.0v7 M-2.5,-0.5L0,-3.0L2.5,-0.5"/>
                </g>
        </g>
        <svg viewBox="0 0 15 15" width="100%" height="30px" preserveAspectRatio="xMaxYMin meet">
         <g id="arrow_out" transform="scale(0.3 0.3)">
          <a xlink:href="entities_8h__dep__incl_org.svg" target="_base">
           <rect id="button" ry="5" rx="5" y="6" x="6" height="38" width="38"
                fill="#f2f5e9" fill-opacity="0.5" stroke="#606060" stroke-width="1.0"/>
           <path id="arrow"
             d="M 11.500037,31.436501 C 11.940474,20.09759 22.043105,11.32322 32.158766,21.979434 L 37.068811,17.246167 C 37.068811,17.246167 37.088388,32 37.088388,32 L 22.160133,31.978069 C 22.160133,31.978069 26.997745,27.140456 26.997745,27.140456 C 18.528582,18.264221 13.291696,25.230495 11.500037,31.436501 z"
             style="fill:#404040;"/>
          </a>
         </g>
        </svg>
</svg>
