<?xml version="1.0" encoding="UTF-8" standalone="no"?>
<!DOCTYPE svg PUBLIC "-//W3C//DTD SVG 1.1//EN"
 "http://www.w3.org/Graphics/SVG/1.1/DTD/svg11.dtd">
<!-- Generated by graphviz version 2.43.0 (0)
 -->
<!-- Title: inc/entities_bonus.h Pages: 1 -->
<svg width="2867pt" height="274pt"
 viewBox="0.00 0.00 2866.50 274.00" xmlns="http://www.w3.org/2000/svg" xmlns:xlink="http://www.w3.org/1999/xlink">
<g id="graph0" class="graph" transform="scale(1 1) rotate(0) translate(4 270)">
<title>inc/entities_bonus.h</title>
<!-- Node1 -->
<g id="node1" class="node">
<title>Node1</title>
<g id="a_node1"><a xlink:title=" ">
<polygon fill="#bfbfbf" stroke="black" points="1708.5,-246.5 1708.5,-265.5 1822.5,-265.5 1822.5,-246.5 1708.5,-246.5"/>
<text text-anchor="middle" x="1765.5" y="-253.5" font-family="Helvetica,sans-Serif" font-size="10.00">inc/entities_bonus.h</text>
</a>
</g>
</g>
<!-- Node2 -->
<g id="node2" class="node">
<title>Node2</title>
<g id="a_node2"><a xlink:href="check_8h.html" target="_top" xlink:title=" ">
<polygon fill="none" stroke="black" points="506,-134.5 506,-153.5 577,-153.5 577,-134.5 506,-134.5"/>
<text text-anchor="middle" x="541.5" y="-141.5" font-family="Helvetica,sans-Serif" font-size="10.00">inc/check.h</text>
</a>
</g>
</g>
<!-- Node1&#45;&gt;Node2 -->
<g id="edge1" class="edge">
<title>Node1&#45;&gt;Node2</title>
<path fill="none" stroke="midnightblue" d="M1698.04,-248.94C1472.03,-228.63 746.23,-163.4 577.01,-148.19"/>
<polygon fill="midnightblue" stroke="midnightblue" points="1697.83,-252.43 1708.11,-249.84 1698.46,-245.46 1697.83,-252.43"/>
</g>
<!-- Node10 -->
<g id="node10" class="node">
<title>Node10</title>
<g id="a_node10"><a xlink:href="check__bonus_8h.html" target="_top" xlink:title=" ">
<polygon fill="none" stroke="black" points="1203.5,-134.5 1203.5,-153.5 1309.5,-153.5 1309.5,-134.5 1203.5,-134.5"/>
<text text-anchor="middle" x="1256.5" y="-141.5" font-family="Helvetica,sans-Serif" font-size="10.00">inc/check_bonus.h</text>
</a>
</g>
</g>
<!-- Node1&#45;&gt;Node10 -->
<g id="edge9" class="edge">
<title>Node1&#45;&gt;Node10</title>
<path fill="none" stroke="midnightblue" d="M1698.06,-254.42C1620.17,-252.09 1488.96,-243.02 1381.5,-210 1337.78,-196.57 1291.23,-168.08 1269.32,-153.69"/>
<polygon fill="midnightblue" stroke="midnightblue" points="1698.13,-257.93 1708.22,-254.7 1698.32,-250.93 1698.13,-257.93"/>
</g>
<!-- Node15 -->
<g id="node15" class="node">
<title>Node15</title>
<g id="a_node15"><a xlink:href="debug__print_8h.html" target="_top" xlink:title=" ">
<polygon fill="none" stroke="black" points="2172,-190.5 2172,-209.5 2273,-209.5 2273,-190.5 2172,-190.5"/>
<text text-anchor="middle" x="2222.5" y="-197.5" font-family="Helvetica,sans-Serif" font-size="10.00">inc/debug_print.h</text>
</a>
</g>
</g>
<!-- Node1&#45;&gt;Node15 -->
<g id="edge14" class="edge">
<title>Node1&#45;&gt;Node15</title>
<path fill="none" stroke="midnightblue" d="M1832.62,-247.32C1909.46,-238.49 2039.09,-223.47 2150.5,-210 2157.38,-209.17 2164.62,-208.28 2171.76,-207.39"/>
<polygon fill="midnightblue" stroke="midnightblue" points="1832.13,-243.85 1822.59,-248.47 1832.93,-250.81 1832.13,-243.85"/>
</g>
<!-- Node18 -->
<g id="node18" class="node">
<title>Node18</title>
<g id="a_node18"><a xlink:href="error__msg_8h.html" target="_top" xlink:title=" ">
<polygon fill="none" stroke="black" points="1542.5,-190.5 1542.5,-209.5 1634.5,-209.5 1634.5,-190.5 1542.5,-190.5"/>
<text text-anchor="middle" x="1588.5" y="-197.5" font-family="Helvetica,sans-Serif" font-size="10.00">inc/error_msg.h</text>
</a>
</g>
</g>
<!-- Node1&#45;&gt;Node18 -->
<g id="edge17" class="edge">
<title>Node1&#45;&gt;Node18</title>
<path fill="none" stroke="midnightblue" d="M1727.6,-243.44C1694.22,-233.26 1646.4,-218.66 1616.41,-209.52"/>
<polygon fill="midnightblue" stroke="midnightblue" points="1726.87,-246.87 1737.45,-246.44 1728.91,-240.18 1726.87,-246.87"/>
</g>
<!-- Node20 -->
<g id="node20" class="node">
<title>Node20</title>
<g id="a_node20"><a xlink:href="render_8h.html" target="_top" xlink:title=" ">
<polygon fill="none" stroke="red" points="1431.5,-73 1431.5,-92 1505.5,-92 1505.5,-73 1431.5,-73"/>
<text text-anchor="middle" x="1468.5" y="-80" font-family="Helvetica,sans-Serif" font-size="10.00">inc/render.h</text>
</a>
</g>
</g>
<!-- Node1&#45;&gt;Node20 -->
<g id="edge59" class="edge">
<title>Node1&#45;&gt;Node20</title>
<path fill="none" stroke="midnightblue" d="M1698.31,-246.2C1605.22,-232.36 1444.99,-202.04 1414.5,-154 1399.55,-130.44 1432.73,-104.95 1453.46,-92.04"/>
<polygon fill="midnightblue" stroke="midnightblue" points="1697.81,-249.66 1708.21,-247.64 1698.82,-242.73 1697.81,-249.66"/>
</g>
<!-- Node36 -->
<g id="node33" class="node">
<title>Node36</title>
<g id="a_node33"><a xlink:href="render__bonus_8h.html" target="_top" xlink:title=" ">
<polygon fill="none" stroke="red" points="1534,-73 1534,-92 1643,-92 1643,-73 1534,-73"/>
<text text-anchor="middle" x="1588.5" y="-80" font-family="Helvetica,sans-Serif" font-size="10.00">inc/render_bonus.h</text>
</a>
</g>
</g>
<!-- Node1&#45;&gt;Node36 -->
<g id="edge60" class="edge">
<title>Node1&#45;&gt;Node36</title>
<path fill="none" stroke="midnightblue" d="M1771.71,-236.68C1779.18,-210.95 1788.09,-163.93 1765.5,-134 1761.1,-128.17 1672.54,-104.87 1622.4,-92.05"/>
<polygon fill="midnightblue" stroke="midnightblue" points="1768.35,-235.7 1768.7,-246.29 1775.03,-237.79 1768.35,-235.7"/>
</g>
<!-- Node73 -->
<g id="node36" class="node">
<title>Node73</title>
<g id="a_node36"><a xlink:href="parse_8h.html" target="_top" xlink:title=" ">
<polygon fill="none" stroke="black" points="2462.5,-73 2462.5,-92 2532.5,-92 2532.5,-73 2462.5,-73"/>
<text text-anchor="middle" x="2497.5" y="-80" font-family="Helvetica,sans-Serif" font-size="10.00">inc/parse.h</text>
</a>
</g>
</g>
<!-- Node1&#45;&gt;Node73 -->
<g id="edge51" class="edge">
<title>Node1&#45;&gt;Node73</title>
<path fill="none" stroke="midnightblue" d="M1814.32,-244.12C1883.05,-228.1 2011.63,-195.52 2116.5,-154 2134.61,-146.83 2136.95,-139.95 2155.5,-134 2263.95,-99.23 2399.52,-88.26 2462.43,-84.91"/>
<polygon fill="midnightblue" stroke="midnightblue" points="1813.18,-240.79 1804.22,-246.46 1814.76,-247.61 1813.18,-240.79"/>
</g>
<!-- Node78 -->
<g id="node41" class="node">
<title>Node78</title>
<g id="a_node41"><a xlink:href="parse__bonus_8h.html" target="_top" xlink:title=" ">
<polygon fill="none" stroke="black" points="1984.5,-73 1984.5,-92 2088.5,-92 2088.5,-73 1984.5,-73"/>
<text text-anchor="middle" x="2036.5" y="-80" font-family="Helvetica,sans-Serif" font-size="10.00">inc/parse_bonus.h</text>
</a>
</g>
</g>
<!-- Node1&#45;&gt;Node78 -->
<g id="edge52" class="edge">
<title>Node1&#45;&gt;Node78</title>
<path fill="none" stroke="midnightblue" d="M1776.19,-237.85C1796.76,-204.9 1840.05,-135.78 1842.5,-134 1865.43,-117.3 1937.81,-101.4 1987.37,-92.04"/>
<polygon fill="midnightblue" stroke="midnightblue" points="1773.14,-236.12 1770.82,-246.46 1779.08,-239.82 1773.14,-236.12"/>
</g>
<!-- Node116 -->
<g id="node47" class="node">
<title>Node116</title>
<g id="a_node47"><a xlink:href="ray_8h.html" target="_top" xlink:title=" ">
<polygon fill="none" stroke="black" points="2291,-190.5 2291,-209.5 2348,-209.5 2348,-190.5 2291,-190.5"/>
<text text-anchor="middle" x="2319.5" y="-197.5" font-family="Helvetica,sans-Serif" font-size="10.00">inc/ray.h</text>
</a>
</g>
</g>
<!-- Node1&#45;&gt;Node116 -->
<g id="edge53" class="edge">
<title>Node1&#45;&gt;Node116</title>
<path fill="none" stroke="midnightblue" d="M1833.02,-252.39C1932.13,-247.83 2122.57,-236.25 2282.5,-210 2285.24,-209.55 2288.08,-209.01 2290.9,-208.41"/>
<polygon fill="midnightblue" stroke="midnightblue" points="1832.68,-248.91 1822.85,-252.85 1832.99,-255.9 1832.68,-248.91"/>
</g>
<!-- Node82 -->
<g id="node48" class="node">
<title>Node82</title>
<g id="a_node48"><a xlink:href="ray__bonus_8h.html" target="_top" xlink:title=" ">
<polygon fill="none" stroke="black" points="1664,-134.5 1664,-153.5 1757,-153.5 1757,-134.5 1664,-134.5"/>
<text text-anchor="middle" x="1710.5" y="-141.5" font-family="Helvetica,sans-Serif" font-size="10.00">inc/ray_bonus.h</text>
</a>
</g>
</g>
<!-- Node1&#45;&gt;Node82 -->
<g id="edge54" class="edge">
<title>Node1&#45;&gt;Node82</title>
<path fill="none" stroke="midnightblue" d="M1756.66,-237.32C1744.68,-213.37 1723.77,-171.55 1714.8,-153.59"/>
<polygon fill="midnightblue" stroke="midnightblue" points="1753.58,-238.99 1761.18,-246.37 1759.84,-235.86 1753.58,-238.99"/>
</g>
<!-- Node3 -->
<g id="node3" class="node">
<title>Node3</title>
<g id="a_node3"><a xlink:href="check_8c.html" target="_top" xlink:title=" ">
<polygon fill="none" stroke="black" points="0,-73 0,-92 71,-92 71,-73 0,-73"/>
<text text-anchor="middle" x="35.5" y="-80" font-family="Helvetica,sans-Serif" font-size="10.00">src/check.c</text>
</a>
</g>
</g>
<!-- Node2&#45;&gt;Node3 -->
<g id="edge2" class="edge">
<title>Node2&#45;&gt;Node3</title>
<path fill="none" stroke="midnightblue" d="M495.68,-141.77C412.26,-138.82 230.39,-129.09 80.5,-98 73.43,-96.53 65.9,-94.36 59.07,-92.14"/>
<polygon fill="midnightblue" stroke="midnightblue" points="495.72,-145.28 505.83,-142.12 495.96,-138.28 495.72,-145.28"/>
</g>
<!-- Node4 -->
<g id="node4" class="node">
<title>Node4</title>
<g id="a_node4"><a xlink:href="check__entity___a_c_l_8c.html" target="_top" xlink:title=" ">
<polygon fill="none" stroke="black" points="89.5,-73 89.5,-92 217.5,-92 217.5,-73 89.5,-73"/>
<text text-anchor="middle" x="153.5" y="-80" font-family="Helvetica,sans-Serif" font-size="10.00">src/check_entity_ACL.c</text>
</a>
</g>
</g>
<!-- Node2&#45;&gt;Node4 -->
<g id="edge3" class="edge">
<title>Node2&#45;&gt;Node4</title>
<path fill="none" stroke="midnightblue" d="M495.84,-137.27C434.46,-129.38 321.99,-114.29 226.5,-98 216.06,-96.22 204.81,-94.09 194.35,-92.02"/>
<polygon fill="midnightblue" stroke="midnightblue" points="495.61,-140.77 505.97,-138.56 496.5,-133.82 495.61,-140.77"/>
</g>
<!-- Node5 -->
<g id="node5" class="node">
<title>Node5</title>
<g id="a_node5"><a xlink:href="check__entity__sp__pl__cy_8c.html" target="_top" xlink:title=" ">
<polygon fill="none" stroke="black" points="236,-67.5 236,-97.5 349,-97.5 349,-67.5 236,-67.5"/>
<text text-anchor="start" x="244" y="-85.5" font-family="Helvetica,sans-Serif" font-size="10.00">src/check_entity_sp</text>
<text text-anchor="middle" x="292.5" y="-74.5" font-family="Helvetica,sans-Serif" font-size="10.00">_pl_cy.c</text>
</a>
</g>
</g>
<!-- Node2&#45;&gt;Node5 -->
<g id="edge4" class="edge">
<title>Node2&#45;&gt;Node5</title>
<path fill="none" stroke="midnightblue" d="M496.04,-132.14C454.77,-122.27 393.74,-107.69 349.27,-97.07"/>
<polygon fill="midnightblue" stroke="midnightblue" points="495.28,-135.56 505.82,-134.48 496.91,-128.75 495.28,-135.56"/>
</g>
<!-- Node6 -->
<g id="node6" class="node">
<title>Node6</title>
<g id="a_node6"><a xlink:href="check__line_8c.html" target="_top" xlink:title=" ">
<polygon fill="none" stroke="black" points="367.5,-73 367.5,-92 461.5,-92 461.5,-73 367.5,-73"/>
<text text-anchor="middle" x="414.5" y="-80" font-family="Helvetica,sans-Serif" font-size="10.00">src/check_line.c</text>
</a>
</g>
</g>
<!-- Node2&#45;&gt;Node6 -->
<g id="edge5" class="edge">
<title>Node2&#45;&gt;Node6</title>
<path fill="none" stroke="midnightblue" d="M514.12,-130.17C489.48,-118.63 453.96,-101.99 432.66,-92.01"/>
<polygon fill="midnightblue" stroke="midnightblue" points="512.76,-133.4 523.3,-134.48 515.73,-127.06 512.76,-133.4"/>
</g>
<!-- Node7 -->
<g id="node7" class="node">
<title>Node7</title>
<g id="a_node7"><a xlink:href="check__rm__space_8c.html" target="_top" xlink:title=" ">
<polygon fill="none" stroke="black" points="480,-73 480,-92 603,-92 603,-73 480,-73"/>
<text text-anchor="middle" x="541.5" y="-80" font-family="Helvetica,sans-Serif" font-size="10.00">src/check_rm_space.c</text>
</a>
</g>
</g>
<!-- Node2&#45;&gt;Node7 -->
<g id="edge6" class="edge">
<title>Node2&#45;&gt;Node7</title>
<path fill="none" stroke="midnightblue" d="M541.5,-124.32C541.5,-113.5 541.5,-100.4 541.5,-92.01"/>
<polygon fill="midnightblue" stroke="midnightblue" points="538,-124.48 541.5,-134.48 545,-124.48 538,-124.48"/>
</g>
<!-- Node8 -->
<g id="node8" class="node">
<title>Node8</title>
<g id="a_node8"><a xlink:href="error__msg__check_8c.html" target="_top" xlink:title=" ">
<polygon fill="none" stroke="black" points="621,-73 621,-92 746,-92 746,-73 621,-73"/>
<text text-anchor="middle" x="683.5" y="-80" font-family="Helvetica,sans-Serif" font-size="10.00">src/error_msg_check.c</text>
</a>
</g>
</g>
<!-- Node2&#45;&gt;Node8 -->
<g id="edge7" class="edge">
<title>Node2&#45;&gt;Node8</title>
<path fill="none" stroke="midnightblue" d="M571.38,-130.48C598.96,-118.92 639.17,-102.08 663.19,-92.01"/>
<polygon fill="midnightblue" stroke="midnightblue" points="569.72,-127.38 561.85,-134.48 572.42,-133.84 569.72,-127.38"/>
</g>
<!-- Node9 -->
<g id="node9" class="node">
<title>Node9</title>
<g id="a_node9"><a xlink:href="error__msg__check2_8c.html" target="_top" xlink:title=" ">
<polygon fill="none" stroke="black" points="764,-73 764,-92 895,-92 895,-73 764,-73"/>
<text text-anchor="middle" x="829.5" y="-80" font-family="Helvetica,sans-Serif" font-size="10.00">src/error_msg_check2.c</text>
</a>
</g>
</g>
<!-- Node2&#45;&gt;Node9 -->
<g id="edge8" class="edge">
<title>Node2&#45;&gt;Node9</title>
<path fill="none" stroke="midnightblue" d="M586.96,-133.61C642.18,-122.2 734.53,-103.12 787.93,-92.09"/>
<polygon fill="midnightblue" stroke="midnightblue" points="586.19,-130.19 577.1,-135.64 587.6,-137.05 586.19,-130.19"/>
</g>
<!-- Node11 -->
<g id="node11" class="node">
<title>Node11</title>
<g id="a_node11"><a xlink:href="check__bonus_8c.html" target="_top" xlink:title=" ">
<polygon fill="none" stroke="black" points="913,-73 913,-92 1018,-92 1018,-73 913,-73"/>
<text text-anchor="middle" x="965.5" y="-80" font-family="Helvetica,sans-Serif" font-size="10.00">src/check_bonus.c</text>
</a>
</g>
</g>
<!-- Node10&#45;&gt;Node11 -->
<g id="edge10" class="edge">
<title>Node10&#45;&gt;Node11</title>
<path fill="none" stroke="midnightblue" d="M1200.22,-132.64C1153.58,-123.9 1085.59,-110.8 1026.5,-98 1017.99,-96.16 1008.84,-94.05 1000.28,-92.02"/>
<polygon fill="midnightblue" stroke="midnightblue" points="1199.66,-136.1 1210.13,-134.49 1200.94,-129.22 1199.66,-136.1"/>
</g>
<!-- Node12 -->
<g id="node12" class="node">
<title>Node12</title>
<g id="a_node12"><a xlink:href="check__entity__sp__pl__cy__bonus_8c.html" target="_top" xlink:title=" ">
<polygon fill="none" stroke="black" points="1036,-67.5 1036,-97.5 1149,-97.5 1149,-67.5 1036,-67.5"/>
<text text-anchor="start" x="1044" y="-85.5" font-family="Helvetica,sans-Serif" font-size="10.00">src/check_entity_sp</text>
<text text-anchor="middle" x="1092.5" y="-74.5" font-family="Helvetica,sans-Serif" font-size="10.00">_pl_cy_bonus.c</text>
</a>
</g>
</g>
<!-- Node10&#45;&gt;Node12 -->
<g id="edge11" class="edge">
<title>Node10&#45;&gt;Node12</title>
<path fill="none" stroke="midnightblue" d="M1223.36,-130.98C1196.69,-121.3 1159.18,-107.69 1131.15,-97.52"/>
<polygon fill="midnightblue" stroke="midnightblue" points="1222.41,-134.35 1233,-134.48 1224.8,-127.77 1222.41,-134.35"/>
</g>
<!-- Node13 -->
<g id="node13" class="node">
<title>Node13</title>
<g id="a_node13"><a xlink:href="check__win__size__bonus_8c.html" target="_top" xlink:title=" ">
<polygon fill="none" stroke="black" points="1167.5,-67.5 1167.5,-97.5 1277.5,-97.5 1277.5,-67.5 1167.5,-67.5"/>
<text text-anchor="start" x="1175.5" y="-85.5" font-family="Helvetica,sans-Serif" font-size="10.00">src/check_win_size</text>
<text text-anchor="middle" x="1222.5" y="-74.5" font-family="Helvetica,sans-Serif" font-size="10.00">_bonus.c</text>
</a>
</g>
</g>
<!-- Node10&#45;&gt;Node13 -->
<g id="edge12" class="edge">
<title>Node10&#45;&gt;Node13</title>
<path fill="none" stroke="midnightblue" d="M1246.6,-125.68C1241.49,-116.73 1235.33,-105.94 1230.51,-97.52"/>
<polygon fill="midnightblue" stroke="midnightblue" points="1243.63,-127.53 1251.63,-134.48 1249.71,-124.06 1243.63,-127.53"/>
</g>
<!-- Node14 -->
<g id="node14" class="node">
<title>Node14</title>
<g id="a_node14"><a xlink:href="error__msg__check__bonus_8c.html" target="_top" xlink:title=" ">
<polygon fill="none" stroke="black" points="1296,-67.5 1296,-97.5 1413,-97.5 1413,-67.5 1296,-67.5"/>
<text text-anchor="start" x="1304" y="-85.5" font-family="Helvetica,sans-Serif" font-size="10.00">src/error_msg_check</text>
<text text-anchor="middle" x="1354.5" y="-74.5" font-family="Helvetica,sans-Serif" font-size="10.00">_bonus.c</text>
</a>
</g>
</g>
<!-- Node10&#45;&gt;Node14 -->
<g id="edge13" class="edge">
<title>Node10&#45;&gt;Node14</title>
<path fill="none" stroke="midnightblue" d="M1279.1,-129.28C1294.79,-119.75 1315.61,-107.11 1331.4,-97.52"/>
<polygon fill="midnightblue" stroke="midnightblue" points="1277.27,-126.29 1270.54,-134.48 1280.91,-132.28 1277.27,-126.29"/>
</g>
<!-- Node16 -->
<g id="node16" class="node">
<title>Node16</title>
<g id="a_node16"><a xlink:href="debug__print__entity_8c.html" target="_top" xlink:title=" ">
<polygon fill="none" stroke="black" points="2164.5,-134.5 2164.5,-153.5 2296.5,-153.5 2296.5,-134.5 2164.5,-134.5"/>
<text text-anchor="middle" x="2230.5" y="-141.5" font-family="Helvetica,sans-Serif" font-size="10.00">src/debug_print_entity.c</text>
</a>
</g>
</g>
<!-- Node15&#45;&gt;Node16 -->
<g id="edge15" class="edge">
<title>Node15&#45;&gt;Node16</title>
<path fill="none" stroke="midnightblue" d="M2225.3,-180.1C2226.63,-171.14 2228.15,-160.86 2229.2,-153.75"/>
<polygon fill="midnightblue" stroke="midnightblue" points="2221.82,-179.68 2223.82,-190.08 2228.75,-180.7 2221.82,-179.68"/>
</g>
<!-- Node17 -->
<g id="node17" class="node">
<title>Node17</title>
<g id="a_node17"><a xlink:href="debug__print__struct_8c.html" target="_top" xlink:title=" ">
<polygon fill="none" stroke="black" points="2315,-134.5 2315,-153.5 2448,-153.5 2448,-134.5 2315,-134.5"/>
<text text-anchor="middle" x="2381.5" y="-141.5" font-family="Helvetica,sans-Serif" font-size="10.00">src/debug_print_struct.c</text>
</a>
</g>
</g>
<!-- Node15&#45;&gt;Node17 -->
<g id="edge16" class="edge">
<title>Node15&#45;&gt;Node17</title>
<path fill="none" stroke="midnightblue" d="M2257.33,-187.17C2287.27,-177 2329.72,-162.59 2356.42,-153.52"/>
<polygon fill="midnightblue" stroke="midnightblue" points="2256.04,-183.91 2247.69,-190.44 2258.29,-190.54 2256.04,-183.91"/>
</g>
<!-- Node18&#45;&gt;Node2 -->
<g id="edge18" class="edge">
<title>Node18&#45;&gt;Node2</title>
<path fill="none" stroke="midnightblue" d="M1532.13,-196.09C1342.62,-186.32 731.69,-154.81 577.23,-146.84"/>
<polygon fill="midnightblue" stroke="midnightblue" points="1531.99,-199.59 1542.16,-196.61 1532.35,-192.6 1531.99,-199.59"/>
</g>
<!-- Node18&#45;&gt;Node10 -->
<g id="edge19" class="edge">
<title>Node18&#45;&gt;Node10</title>
<path fill="none" stroke="midnightblue" d="M1532.26,-189.85C1469.78,-179.69 1369.69,-163.41 1308.83,-153.51"/>
<polygon fill="midnightblue" stroke="midnightblue" points="1531.9,-193.34 1542.34,-191.49 1533.03,-186.43 1531.9,-193.34"/>
</g>
<!-- Node19 -->
<g id="node19" class="node">
<title>Node19</title>
<g id="a_node19"><a xlink:href="error__mlx_8h.html" target="_top" xlink:title=" ">
<polygon fill="none" stroke="red" points="1423.5,-134.5 1423.5,-153.5 1513.5,-153.5 1513.5,-134.5 1423.5,-134.5"/>
<text text-anchor="middle" x="1468.5" y="-141.5" font-family="Helvetica,sans-Serif" font-size="10.00">inc/error_mlx.h</text>
</a>
</g>
</g>
<!-- Node18&#45;&gt;Node19 -->
<g id="edge20" class="edge">
<title>Node18&#45;&gt;Node19</title>
<path fill="none" stroke="midnightblue" d="M1560.13,-186.23C1537.68,-176.13 1506.96,-162.31 1487.43,-153.52"/>
<polygon fill="midnightblue" stroke="midnightblue" points="1558.93,-189.53 1569.49,-190.44 1561.8,-183.15 1558.93,-189.53"/>
</g>
<!-- Node71 -->
<g id="node35" class="node">
<title>Node71</title>
<g id="a_node35"><a xlink:href="error__syscall_8h.html" target="_top" xlink:title=" ">
<polygon fill="none" stroke="red" points="1852,-134.5 1852,-153.5 1957,-153.5 1957,-134.5 1852,-134.5"/>
<text text-anchor="middle" x="1904.5" y="-141.5" font-family="Helvetica,sans-Serif" font-size="10.00">inc/error_syscall.h</text>
</a>
</g>
</g>
<!-- Node18&#45;&gt;Node71 -->
<g id="edge36" class="edge">
<title>Node18&#45;&gt;Node71</title>
<path fill="none" stroke="midnightblue" d="M1644.78,-189.38C1704.41,-179.19 1797.66,-163.26 1854.7,-153.51"/>
<polygon fill="midnightblue" stroke="midnightblue" points="1644.06,-185.96 1634.79,-191.09 1645.23,-192.86 1644.06,-185.96"/>
</g>
<!-- Node113 -->
<g id="node45" class="node">
<title>Node113</title>
<g id="a_node45"><a xlink:href="threads__bonus_8h.html" target="_top" xlink:title=" ">
<polygon fill="none" stroke="red" points="1531.5,-134.5 1531.5,-153.5 1645.5,-153.5 1645.5,-134.5 1531.5,-134.5"/>
<text text-anchor="middle" x="1588.5" y="-141.5" font-family="Helvetica,sans-Serif" font-size="10.00">inc/threads_bonus.h</text>
</a>
</g>
</g>
<!-- Node18&#45;&gt;Node113 -->
<g id="edge47" class="edge">
<title>Node18&#45;&gt;Node113</title>
<path fill="none" stroke="midnightblue" d="M1588.5,-179.8C1588.5,-170.91 1588.5,-160.78 1588.5,-153.75"/>
<polygon fill="midnightblue" stroke="midnightblue" points="1585,-180.08 1588.5,-190.08 1592,-180.08 1585,-180.08"/>
</g>
<!-- Node115 -->
<g id="node46" class="node">
<title>Node115</title>
<g id="a_node46"><a xlink:href="error__msg__generic_8c.html" target="_top" xlink:title=" ">
<polygon fill="none" stroke="black" points="1975,-134.5 1975,-153.5 2108,-153.5 2108,-134.5 1975,-134.5"/>
<text text-anchor="middle" x="2041.5" y="-141.5" font-family="Helvetica,sans-Serif" font-size="10.00">src/error_msg_generic.c</text>
</a>
</g>
</g>
<!-- Node18&#45;&gt;Node115 -->
<g id="edge50" class="edge">
<title>Node18&#45;&gt;Node115</title>
<path fill="none" stroke="midnightblue" d="M1644.94,-192.27C1728.66,-182.29 1885.49,-163.6 1974.78,-152.95"/>
<polygon fill="midnightblue" stroke="midnightblue" points="1644.37,-188.82 1634.85,-193.47 1645.19,-195.77 1644.37,-188.82"/>
</g>
<!-- Node19&#45;&gt;Node20 -->
<g id="edge21" class="edge">
<title>Node19&#45;&gt;Node20</title>
<path fill="none" stroke="midnightblue" d="M1468.5,-124.32C1468.5,-113.5 1468.5,-100.4 1468.5,-92.01"/>
<polygon fill="midnightblue" stroke="midnightblue" points="1465,-124.48 1468.5,-134.48 1472,-124.48 1465,-124.48"/>
</g>
<!-- Node19&#45;&gt;Node36 -->
<g id="edge34" class="edge">
<title>Node19&#45;&gt;Node36</title>
<path fill="none" stroke="midnightblue" d="M1494.68,-130.02C1517.95,-118.48 1551.3,-101.94 1571.34,-92.01"/>
<polygon fill="midnightblue" stroke="midnightblue" points="1493.1,-126.9 1485.69,-134.48 1496.21,-133.17 1493.1,-126.9"/>
</g>
<!-- Node21 -->
<g id="node21" class="node">
<title>Node21</title>
<g id="a_node21"><a xlink:href="render__blend__background_8c.html" target="_top" xlink:title=" ">
<polygon fill="none" stroke="black" points="329.5,-6 329.5,-25 497.5,-25 497.5,-6 329.5,-6"/>
<text text-anchor="middle" x="413.5" y="-13" font-family="Helvetica,sans-Serif" font-size="10.00">src/render_blend_background.c</text>
</a>
</g>
</g>
<!-- Node20&#45;&gt;Node21 -->
<g id="edge22" class="edge">
<title>Node20&#45;&gt;Node21</title>
<path fill="none" stroke="midnightblue" d="M1435.17,-70.06C1430.62,-68.84 1425.98,-67.77 1421.5,-67 1020.34,1.57 911.57,-70.41 506.5,-31 491.7,-29.56 475.67,-27.31 461.16,-25.01"/>
<polygon fill="midnightblue" stroke="midnightblue" points="1434.3,-73.45 1444.88,-72.9 1436.27,-66.73 1434.3,-73.45"/>
</g>
<!-- Node22 -->
<g id="node22" class="node">
<title>Node22</title>
<g id="a_node22"><a xlink:href="render__cleanup_8c.html" target="_top" xlink:title=" ">
<polygon fill="none" stroke="black" points="516,-6 516,-25 633,-25 633,-6 516,-6"/>
<text text-anchor="middle" x="574.5" y="-13" font-family="Helvetica,sans-Serif" font-size="10.00">src/render_cleanup.c</text>
</a>
</g>
</g>
<!-- Node20&#45;&gt;Node22 -->
<g id="edge23" class="edge">
<title>Node20&#45;&gt;Node22</title>
<path fill="none" stroke="midnightblue" d="M1435.17,-70.09C1430.62,-68.86 1425.97,-67.78 1421.5,-67 1080.06,-7.44 986.25,-75.29 642.5,-31 631.61,-29.6 619.86,-27.36 609.25,-25.06"/>
<polygon fill="midnightblue" stroke="midnightblue" points="1434.3,-73.48 1444.88,-72.93 1436.26,-66.76 1434.3,-73.48"/>
</g>
<!-- Node23 -->
<g id="node23" class="node">
<title>Node23</title>
<g id="a_node23"><a xlink:href="render__draw_8c.html" target="_top" xlink:title=" ">
<polygon fill="none" stroke="black" points="651.5,-6 651.5,-25 753.5,-25 753.5,-6 651.5,-6"/>
<text text-anchor="middle" x="702.5" y="-13" font-family="Helvetica,sans-Serif" font-size="10.00">src/render_draw.c</text>
</a>
</g>
</g>
<!-- Node20&#45;&gt;Node23 -->
<g id="edge24" class="edge">
<title>Node20&#45;&gt;Node23</title>
<path fill="none" stroke="midnightblue" d="M1435.16,-70.12C1430.61,-68.89 1425.97,-67.8 1421.5,-67 1132.75,-15.38 1052.71,-73.63 762.5,-31 752.85,-29.58 742.48,-27.34 733.12,-25.04"/>
<polygon fill="midnightblue" stroke="midnightblue" points="1434.29,-73.51 1444.87,-72.97 1436.26,-66.8 1434.29,-73.51"/>
</g>
<!-- Node24 -->
<g id="node24" class="node">
<title>Node24</title>
<g id="a_node24"><a xlink:href="render__init_8c.html" target="_top" xlink:title=" ">
<polygon fill="none" stroke="black" points="772,-6 772,-25 867,-25 867,-6 772,-6"/>
<text text-anchor="middle" x="819.5" y="-13" font-family="Helvetica,sans-Serif" font-size="10.00">src/render_init.c</text>
</a>
</g>
</g>
<!-- Node20&#45;&gt;Node24 -->
<g id="edge25" class="edge">
<title>Node20&#45;&gt;Node24</title>
<path fill="none" stroke="midnightblue" d="M1434.5,-69.99C1430.16,-68.83 1425.75,-67.78 1421.5,-67 1182.35,-22.85 1115.6,-69.65 875.5,-31 866.58,-29.56 857.01,-27.34 848.35,-25.07"/>
<polygon fill="midnightblue" stroke="midnightblue" points="1433.8,-73.43 1444.38,-72.88 1435.76,-66.71 1433.8,-73.43"/>
</g>
<!-- Node25 -->
<g id="node25" class="node">
<title>Node25</title>
<g id="a_node25"><a xlink:href="render__init__mlx_8c.html" target="_top" xlink:title=" ">
<polygon fill="none" stroke="black" points="885,-6 885,-25 1004,-25 1004,-6 885,-6"/>
<text text-anchor="middle" x="944.5" y="-13" font-family="Helvetica,sans-Serif" font-size="10.00">src/render_init_mlx.c</text>
</a>
</g>
</g>
<!-- Node20&#45;&gt;Node25 -->
<g id="edge26" class="edge">
<title>Node20&#45;&gt;Node25</title>
<path fill="none" stroke="midnightblue" d="M1434.48,-70.08C1430.14,-68.9 1425.74,-67.83 1421.5,-67 1242.86,-31.97 1193.56,-57.77 1013.5,-31 1002.97,-29.43 991.62,-27.26 981.24,-25.07"/>
<polygon fill="midnightblue" stroke="midnightblue" points="1433.77,-73.52 1444.36,-72.98 1435.75,-66.81 1433.77,-73.52"/>
</g>
<!-- Node26 -->
<g id="node26" class="node">
<title>Node26</title>
<g id="a_node26"><a xlink:href="render__keyhook__camera_8c.html" target="_top" xlink:title=" ">
<polygon fill="none" stroke="black" points="1022.5,-0.5 1022.5,-30.5 1134.5,-30.5 1134.5,-0.5 1022.5,-0.5"/>
<text text-anchor="start" x="1030.5" y="-18.5" font-family="Helvetica,sans-Serif" font-size="10.00">src/render_keyhook</text>
<text text-anchor="middle" x="1078.5" y="-7.5" font-family="Helvetica,sans-Serif" font-size="10.00">_camera.c</text>
</a>
</g>
</g>
<!-- Node20&#45;&gt;Node26 -->
<g id="edge27" class="edge">
<title>Node20&#45;&gt;Node26</title>
<path fill="none" stroke="midnightblue" d="M1433.52,-69.99C1429.49,-68.88 1425.42,-67.85 1421.5,-67 1299.76,-40.54 1266.2,-52.59 1143.5,-31 1140.65,-30.5 1137.74,-29.96 1134.81,-29.39"/>
<polygon fill="midnightblue" stroke="midnightblue" points="1432.76,-73.42 1443.34,-72.87 1434.73,-66.7 1432.76,-73.42"/>
</g>
<!-- Node27 -->
<g id="node27" class="node">
<title>Node27</title>
<g id="a_node27"><a xlink:href="render__keyhook__colour_8c.html" target="_top" xlink:title=" ">
<polygon fill="none" stroke="black" points="1152.5,-0.5 1152.5,-30.5 1264.5,-30.5 1264.5,-0.5 1152.5,-0.5"/>
<text text-anchor="start" x="1160.5" y="-18.5" font-family="Helvetica,sans-Serif" font-size="10.00">src/render_keyhook</text>
<text text-anchor="middle" x="1208.5" y="-7.5" font-family="Helvetica,sans-Serif" font-size="10.00">_colour.c</text>
</a>
</g>
</g>
<!-- Node20&#45;&gt;Node27 -->
<g id="edge28" class="edge">
<title>Node20&#45;&gt;Node27</title>
<path fill="none" stroke="midnightblue" d="M1431.94,-69.96C1428.42,-68.93 1424.9,-67.93 1421.5,-67 1392.35,-59.06 1317.24,-41.5 1264.51,-29.34"/>
<polygon fill="midnightblue" stroke="midnightblue" points="1431.16,-73.38 1441.75,-72.91 1433.18,-66.68 1431.16,-73.38"/>
</g>
<!-- Node28 -->
<g id="node28" class="node">
<title>Node28</title>
<g id="a_node28"><a xlink:href="render__keyhook__hittable_8c.html" target="_top" xlink:title=" ">
<polygon fill="none" stroke="black" points="1282.5,-0.5 1282.5,-30.5 1394.5,-30.5 1394.5,-0.5 1282.5,-0.5"/>
<text text-anchor="start" x="1290.5" y="-18.5" font-family="Helvetica,sans-Serif" font-size="10.00">src/render_keyhook</text>
<text text-anchor="middle" x="1338.5" y="-7.5" font-family="Helvetica,sans-Serif" font-size="10.00">_hittable.c</text>
</a>
</g>
</g>
<!-- Node20&#45;&gt;Node28 -->
<g id="edge29" class="edge">
<title>Node20&#45;&gt;Node28</title>
<path fill="none" stroke="midnightblue" d="M1442.18,-68.34C1420.3,-57.4 1389.22,-41.86 1366.8,-30.65"/>
<polygon fill="midnightblue" stroke="midnightblue" points="1440.73,-71.53 1451.24,-72.87 1443.86,-65.27 1440.73,-71.53"/>
</g>
<!-- Node29 -->
<g id="node29" class="node">
<title>Node29</title>
<g id="a_node29"><a xlink:href="render__keyhook__light_8c.html" target="_top" xlink:title=" ">
<polygon fill="none" stroke="black" points="1412.5,-0.5 1412.5,-30.5 1524.5,-30.5 1524.5,-0.5 1412.5,-0.5"/>
<text text-anchor="start" x="1420.5" y="-18.5" font-family="Helvetica,sans-Serif" font-size="10.00">src/render_keyhook</text>
<text text-anchor="middle" x="1468.5" y="-7.5" font-family="Helvetica,sans-Serif" font-size="10.00">_light.c</text>
</a>
</g>
</g>
<!-- Node20&#45;&gt;Node29 -->
<g id="edge30" class="edge">
<title>Node20&#45;&gt;Node29</title>
<path fill="none" stroke="midnightblue" d="M1468.5,-62.41C1468.5,-52.22 1468.5,-39.9 1468.5,-30.59"/>
<polygon fill="midnightblue" stroke="midnightblue" points="1465,-62.73 1468.5,-72.73 1472,-62.73 1465,-62.73"/>
</g>
<!-- Node30 -->
<g id="node30" class="node">
<title>Node30</title>
<g id="a_node30"><a xlink:href="render__keyhook__options_8c.html" target="_top" xlink:title=" ">
<polygon fill="none" stroke="black" points="1542.5,-0.5 1542.5,-30.5 1654.5,-30.5 1654.5,-0.5 1542.5,-0.5"/>
<text text-anchor="start" x="1550.5" y="-18.5" font-family="Helvetica,sans-Serif" font-size="10.00">src/render_keyhook</text>
<text text-anchor="middle" x="1598.5" y="-7.5" font-family="Helvetica,sans-Serif" font-size="10.00">_options.c</text>
</a>
</g>
</g>
<!-- Node20&#45;&gt;Node30 -->
<g id="edge31" class="edge">
<title>Node20&#45;&gt;Node30</title>
<path fill="none" stroke="midnightblue" d="M1494.82,-68.34C1516.7,-57.4 1547.78,-41.86 1570.2,-30.65"/>
<polygon fill="midnightblue" stroke="midnightblue" points="1493.14,-65.27 1485.76,-72.87 1496.27,-71.53 1493.14,-65.27"/>
</g>
<!-- Node31 -->
<g id="node31" class="node">
<title>Node31</title>
<g id="a_node31"><a xlink:href="render__keyhook__press_8c.html" target="_top" xlink:title=" ">
<polygon fill="none" stroke="black" points="1672.5,-0.5 1672.5,-30.5 1784.5,-30.5 1784.5,-0.5 1672.5,-0.5"/>
<text text-anchor="start" x="1680.5" y="-18.5" font-family="Helvetica,sans-Serif" font-size="10.00">src/render_keyhook</text>
<text text-anchor="middle" x="1728.5" y="-7.5" font-family="Helvetica,sans-Serif" font-size="10.00">_press.c</text>
</a>
</g>
</g>
<!-- Node20&#45;&gt;Node31 -->
<g id="edge32" class="edge">
<title>Node20&#45;&gt;Node31</title>
<path fill="none" stroke="midnightblue" d="M1511.14,-70.41C1515.65,-69.25 1520.17,-68.1 1524.5,-67 1574.37,-54.37 1631.19,-40.33 1672.18,-30.27"/>
<polygon fill="midnightblue" stroke="midnightblue" points="1510.16,-67.05 1501.35,-72.93 1511.91,-73.82 1510.16,-67.05"/>
</g>
<!-- Node32 -->
<g id="node32" class="node">
<title>Node32</title>
<g id="a_node32"><a xlink:href="render__keyhook__scene_8c.html" target="_top" xlink:title=" ">
<polygon fill="none" stroke="black" points="1802.5,-0.5 1802.5,-30.5 1914.5,-30.5 1914.5,-0.5 1802.5,-0.5"/>
<text text-anchor="start" x="1810.5" y="-18.5" font-family="Helvetica,sans-Serif" font-size="10.00">src/render_keyhook</text>
<text text-anchor="middle" x="1858.5" y="-7.5" font-family="Helvetica,sans-Serif" font-size="10.00">_scene.c</text>
</a>
</g>
</g>
<!-- Node20&#45;&gt;Node32 -->
<g id="edge33" class="edge">
<title>Node20&#45;&gt;Node32</title>
<path fill="none" stroke="midnightblue" d="M1508.81,-70.45C1514.06,-69.19 1519.39,-68 1524.5,-67 1642.88,-43.84 1674.75,-52.15 1793.5,-31 1796.35,-30.49 1799.26,-29.95 1802.19,-29.37"/>
<polygon fill="midnightblue" stroke="midnightblue" points="1507.72,-67.11 1498.86,-72.93 1509.41,-73.9 1507.72,-67.11"/>
</g>
<!-- Node55 -->
<g id="node34" class="node">
<title>Node55</title>
<g id="a_node34"><a xlink:href="mini_r_t_8h.html" target="_top" xlink:title=" ">
<polygon fill="none" stroke="red" points="1932.5,-6 1932.5,-25 2008.5,-25 2008.5,-6 1932.5,-6"/>
<text text-anchor="middle" x="1970.5" y="-13" font-family="Helvetica,sans-Serif" font-size="10.00">inc/miniRT.h</text>
</a>
</g>
</g>
<!-- Node36&#45;&gt;Node55 -->
<g id="edge35" class="edge">
<title>Node36&#45;&gt;Node55</title>
<path fill="none" stroke="midnightblue" d="M1633.46,-70.77C1639.83,-69.41 1646.32,-68.11 1652.5,-67 1772.09,-45.55 1804.81,-57 1923.5,-31 1930.67,-29.43 1938.33,-27.28 1945.34,-25.11"/>
<polygon fill="midnightblue" stroke="midnightblue" points="1632.61,-67.38 1623.59,-72.95 1634.11,-74.21 1632.61,-67.38"/>
</g>
<!-- Node71&#45;&gt;Node73 -->
<g id="edge37" class="edge">
<title>Node71&#45;&gt;Node73</title>
<path fill="none" stroke="midnightblue" d="M1967.08,-133.86C2159.88,-110.75 2378.34,-92.8 2462.26,-86.21"/>
<polygon fill="midnightblue" stroke="midnightblue" points="1966.56,-130.4 1957.05,-135.07 1967.4,-137.35 1966.56,-130.4"/>
</g>
<!-- Node71&#45;&gt;Node78 -->
<g id="edge42" class="edge">
<title>Node71&#45;&gt;Node78</title>
<path fill="none" stroke="midnightblue" d="M1932.61,-130.33C1958.24,-118.78 1995.39,-102.03 2017.62,-92.01"/>
<polygon fill="midnightblue" stroke="midnightblue" points="1931.09,-127.17 1923.41,-134.48 1933.97,-133.56 1931.09,-127.17"/>
</g>
<!-- Node74 -->
<g id="node37" class="node">
<title>Node74</title>
<g id="a_node37"><a xlink:href="parse_8c.html" target="_top" xlink:title=" ">
<polygon fill="none" stroke="black" points="2405,-6 2405,-25 2474,-25 2474,-6 2405,-6"/>
<text text-anchor="middle" x="2439.5" y="-13" font-family="Helvetica,sans-Serif" font-size="10.00">src/parse.c</text>
</a>
</g>
</g>
<!-- Node73&#45;&gt;Node74 -->
<g id="edge38" class="edge">
<title>Node73&#45;&gt;Node74</title>
<path fill="none" stroke="midnightblue" d="M2482.9,-65.13C2471.55,-52.42 2456.27,-35.3 2447.2,-25.13"/>
<polygon fill="midnightblue" stroke="midnightblue" points="2480.41,-67.6 2489.68,-72.73 2485.63,-62.94 2480.41,-67.6"/>
</g>
<!-- Node75 -->
<g id="node38" class="node">
<title>Node75</title>
<g id="a_node38"><a xlink:href="parse__entity___a_c_l_8c.html" target="_top" xlink:title=" ">
<polygon fill="none" stroke="black" points="2492,-6 2492,-25 2619,-25 2619,-6 2492,-6"/>
<text text-anchor="middle" x="2555.5" y="-13" font-family="Helvetica,sans-Serif" font-size="10.00">src/parse_entity_ACL.c</text>
</a>
</g>
</g>
<!-- Node73&#45;&gt;Node75 -->
<g id="edge39" class="edge">
<title>Node73&#45;&gt;Node75</title>
<path fill="none" stroke="midnightblue" d="M2512.1,-65.13C2523.45,-52.42 2538.73,-35.3 2547.8,-25.13"/>
<polygon fill="midnightblue" stroke="midnightblue" points="2509.37,-62.94 2505.32,-72.73 2514.59,-67.6 2509.37,-62.94"/>
</g>
<!-- Node76 -->
<g id="node39" class="node">
<title>Node76</title>
<g id="a_node39"><a xlink:href="parse__entity__sp__pl__cy_8c.html" target="_top" xlink:title=" ">
<polygon fill="none" stroke="black" points="2637,-0.5 2637,-30.5 2748,-30.5 2748,-0.5 2637,-0.5"/>
<text text-anchor="start" x="2645" y="-18.5" font-family="Helvetica,sans-Serif" font-size="10.00">src/parse_entity_sp</text>
<text text-anchor="middle" x="2692.5" y="-7.5" font-family="Helvetica,sans-Serif" font-size="10.00">_pl_cy.c</text>
</a>
</g>
</g>
<!-- Node73&#45;&gt;Node76 -->
<g id="edge40" class="edge">
<title>Node73&#45;&gt;Node76</title>
<path fill="none" stroke="midnightblue" d="M2533.1,-69.63C2566.17,-58.61 2615.42,-42.19 2650.42,-30.53"/>
<polygon fill="midnightblue" stroke="midnightblue" points="2531.77,-66.39 2523.39,-72.87 2533.99,-73.03 2531.77,-66.39"/>
</g>
<!-- Node77 -->
<g id="node40" class="node">
<title>Node77</title>
<g id="a_node40"><a xlink:href="parse__line_8c.html" target="_top" xlink:title=" ">
<polygon fill="none" stroke="black" points="2766.5,-6 2766.5,-25 2858.5,-25 2858.5,-6 2766.5,-6"/>
<text text-anchor="middle" x="2812.5" y="-13" font-family="Helvetica,sans-Serif" font-size="10.00">src/parse_line.c</text>
</a>
</g>
</g>
<!-- Node73&#45;&gt;Node77 -->
<g id="edge41" class="edge">
<title>Node73&#45;&gt;Node77</title>
<path fill="none" stroke="midnightblue" d="M2542.46,-73.7C2594.44,-64.46 2682.49,-48.15 2757.5,-31 2765.3,-29.22 2773.67,-27.11 2781.47,-25.06"/>
<polygon fill="midnightblue" stroke="midnightblue" points="2541.8,-70.26 2532.56,-75.45 2543.02,-77.15 2541.8,-70.26"/>
</g>
<!-- Node78&#45;&gt;Node55 -->
<g id="edge43" class="edge">
<title>Node78&#45;&gt;Node55</title>
<path fill="none" stroke="midnightblue" d="M2020.25,-65.5C2007.31,-52.75 1989.69,-35.39 1979.26,-25.13"/>
<polygon fill="midnightblue" stroke="midnightblue" points="2018.02,-68.21 2027.6,-72.73 2022.93,-63.22 2018.02,-68.21"/>
</g>
<!-- Node79 -->
<g id="node42" class="node">
<title>Node79</title>
<g id="a_node42"><a xlink:href="parse__bonus_8c.html" target="_top" xlink:title=" ">
<polygon fill="none" stroke="black" points="2026.5,-6 2026.5,-25 2130.5,-25 2130.5,-6 2026.5,-6"/>
<text text-anchor="middle" x="2078.5" y="-13" font-family="Helvetica,sans-Serif" font-size="10.00">src/parse_bonus.c</text>
</a>
</g>
</g>
<!-- Node78&#45;&gt;Node79 -->
<g id="edge44" class="edge">
<title>Node78&#45;&gt;Node79</title>
<path fill="none" stroke="midnightblue" d="M2047.79,-64.03C2055.92,-51.45 2066.54,-35.01 2072.93,-25.13"/>
<polygon fill="midnightblue" stroke="midnightblue" points="2044.65,-62.44 2042.16,-72.73 2050.53,-66.23 2044.65,-62.44"/>
</g>
<!-- Node80 -->
<g id="node43" class="node">
<title>Node80</title>
<g id="a_node43"><a xlink:href="parse__entity__sp__pl__cy__bonus_8c.html" target="_top" xlink:title=" ">
<polygon fill="none" stroke="black" points="2149,-0.5 2149,-30.5 2260,-30.5 2260,-0.5 2149,-0.5"/>
<text text-anchor="start" x="2157" y="-18.5" font-family="Helvetica,sans-Serif" font-size="10.00">src/parse_entity_sp</text>
<text text-anchor="middle" x="2204.5" y="-7.5" font-family="Helvetica,sans-Serif" font-size="10.00">_pl_cy_bonus.c</text>
</a>
</g>
</g>
<!-- Node78&#45;&gt;Node80 -->
<g id="edge45" class="edge">
<title>Node78&#45;&gt;Node80</title>
<path fill="none" stroke="midnightblue" d="M2068.28,-69.2C2096.75,-58.19 2138.48,-42.04 2168.24,-30.53"/>
<polygon fill="midnightblue" stroke="midnightblue" points="2066.87,-66 2058.81,-72.87 2069.4,-72.52 2066.87,-66"/>
</g>
<!-- Node81 -->
<g id="node44" class="node">
<title>Node81</title>
<g id="a_node44"><a xlink:href="parse__win__size__bonus_8c.html" target="_top" xlink:title=" ">
<polygon fill="none" stroke="black" points="2278.5,-0.5 2278.5,-30.5 2386.5,-30.5 2386.5,-0.5 2278.5,-0.5"/>
<text text-anchor="start" x="2286.5" y="-18.5" font-family="Helvetica,sans-Serif" font-size="10.00">src/parse_win_size</text>
<text text-anchor="middle" x="2332.5" y="-7.5" font-family="Helvetica,sans-Serif" font-size="10.00">_bonus.c</text>
</a>
</g>
</g>
<!-- Node78&#45;&gt;Node81 -->
<g id="edge46" class="edge">
<title>Node78&#45;&gt;Node81</title>
<path fill="none" stroke="midnightblue" d="M2086.26,-70.8C2133.26,-60.66 2205.71,-44.95 2268.5,-31 2271.73,-30.28 2275.04,-29.54 2278.39,-28.79"/>
<polygon fill="midnightblue" stroke="midnightblue" points="2085.38,-67.41 2076.34,-72.93 2086.86,-74.25 2085.38,-67.41"/>
</g>
<!-- Node113&#45;&gt;Node20 -->
<g id="edge48" class="edge">
<title>Node113&#45;&gt;Node20</title>
<path fill="none" stroke="midnightblue" d="M1562.32,-130.02C1539.05,-118.48 1505.7,-101.94 1485.66,-92.01"/>
<polygon fill="midnightblue" stroke="midnightblue" points="1560.79,-133.17 1571.31,-134.48 1563.9,-126.9 1560.79,-133.17"/>
</g>
<!-- Node113&#45;&gt;Node36 -->
<g id="edge49" class="edge">
<title>Node113&#45;&gt;Node36</title>
<path fill="none" stroke="midnightblue" d="M1588.5,-124.32C1588.5,-113.5 1588.5,-100.4 1588.5,-92.01"/>
<polygon fill="midnightblue" stroke="midnightblue" points="1585,-124.48 1588.5,-134.48 1592,-124.48 1585,-124.48"/>
</g>
<!-- Node82&#45;&gt;Node20 -->
<g id="edge57" class="edge">
<title>Node82&#45;&gt;Node20</title>
<path fill="none" stroke="midnightblue" d="M1664.3,-132.04C1626.63,-123.05 1572.08,-109.91 1524.5,-98 1516.9,-96.1 1508.73,-94.01 1501.05,-92.02"/>
<polygon fill="midnightblue" stroke="midnightblue" points="1663.91,-135.55 1674.45,-134.46 1665.54,-128.74 1663.91,-135.55"/>
</g>
<!-- Node82&#45;&gt;Node36 -->
<g id="edge58" class="edge">
<title>Node82&#45;&gt;Node36</title>
<path fill="none" stroke="midnightblue" d="M1683.89,-130.02C1660.23,-118.48 1626.32,-101.94 1605.95,-92.01"/>
<polygon fill="midnightblue" stroke="midnightblue" points="1682.5,-133.24 1693.02,-134.48 1685.57,-126.95 1682.5,-133.24"/>
</g>
<!-- Node83 -->
<g id="node49" class="node">
<title>Node83</title>
<g id="a_node49"><a xlink:href="hit__manager_8h.html" target="_top" xlink:title=" ">
<polygon fill="none" stroke="red" points="1661.5,-73 1661.5,-92 1765.5,-92 1765.5,-73 1661.5,-73"/>
<text text-anchor="middle" x="1713.5" y="-80" font-family="Helvetica,sans-Serif" font-size="10.00">inc/hit_manager.h</text>
</a>
</g>
</g>
<!-- Node82&#45;&gt;Node83 -->
<g id="edge55" class="edge">
<title>Node82&#45;&gt;Node83</title>
<path fill="none" stroke="midnightblue" d="M1711.44,-124.32C1711.99,-113.5 1712.65,-100.4 1713.07,-92.01"/>
<polygon fill="midnightblue" stroke="midnightblue" points="1707.94,-124.31 1710.93,-134.48 1714.93,-124.66 1707.94,-124.31"/>
</g>
<!-- Node89 -->
<g id="node50" class="node">
<title>Node89</title>
<g id="a_node50"><a xlink:href="hit__manager__bonus_8h.html" target="_top" xlink:title=" ">
<polygon fill="none" stroke="red" points="1784,-73 1784,-92 1923,-92 1923,-73 1784,-73"/>
<text text-anchor="middle" x="1853.5" y="-80" font-family="Helvetica,sans-Serif" font-size="10.00">inc/hit_manager_bonus.h</text>
</a>
</g>
</g>
<!-- Node82&#45;&gt;Node89 -->
<g id="edge56" class="edge">
<title>Node82&#45;&gt;Node89</title>
<path fill="none" stroke="midnightblue" d="M1740.23,-130.63C1768.01,-119.07 1808.75,-102.12 1833.05,-92.01"/>
<polygon fill="midnightblue" stroke="midnightblue" points="1738.88,-127.4 1730.99,-134.48 1741.57,-133.86 1738.88,-127.4"/>
</g>
</g>
</svg>
