<?xml version="1.0" encoding="UTF-8" standalone="no"?>
<!DOCTYPE svg PUBLIC "-//W3C//DTD SVG 1.1//EN"
 "http://www.w3.org/Graphics/SVG/1.1/DTD/svg11.dtd">
<!-- Generated by graphviz version 2.43.0 (0)
 -->
<!-- Title: inc/error_type.h Pages: 1 -->
<!--zoomable 218 -->
<svg id="main" version="1.1" xmlns="http://www.w3.org/2000/svg" xmlns:xlink="http://www.w3.org/1999/xlink" xml:space="preserve" onload="init(evt)">
<style type="text/css"><![CDATA[
.edge:hover path { stroke: red; }
.edge:hover polygon { stroke: red; fill: red; }
]]></style>
<script type="text/javascript"><![CDATA[
var edges = document.getElementsByTagName('g');
if (edges && edges.length) {
  for (var i=0;i<edges.length;i++) {
    if (edges[i].id.substr(0,4)=='edge') {
      edges[i].setAttribute('class','edge');
    }
  }
}
]]></script>
        <defs>
                <circle id="rim" cx="0" cy="0" r="7"/>
                <circle id="rim2" cx="0" cy="0" r="3.5"/>
                <g id="zoomPlus">
                        <use xlink:href="#rim" fill="#404040">
                                <set attributeName="fill" to="#808080" begin="zoomplus.mouseover" end="zoomplus.mouseout"/>
                        </use>
                        <path d="M-4,0h8M0,-4v8" fill="none" stroke="white" stroke-width="1.5" pointer-events="none"/>
                </g>
                <g id="zoomMin">
                        <use xlink:href="#rim" fill="#404040">
                                <set attributeName="fill" to="#808080" begin="zoomminus.mouseover" end="zoomminus.mouseout"/>
                        </use>
                        <path d="M-4,0h8" fill="none" stroke="white" stroke-width="1.5" pointer-events="none"/>
                </g>
                <g id="dirArrow">
                        <path fill="none" stroke="white" stroke-width="1.5" d="M0,-3.0v7 M-2.5,-0.5L0,-3.0L2.5,-0.5"/>
                </g>
               <g id="resetDef">
                       <use xlink:href="#rim2" fill="#404040">
                               <set attributeName="fill" to="#808080" begin="reset.mouseover" end="reset.mouseout"/>
                       </use>
               </g>
        </defs>

<script type="text/javascript">
var viewWidth = 3685;
var viewHeight = 218;
var sectionId = 'dynsection-0';
</script>
<script xlink:href="svgpan.js"/>
<svg id="graph" class="graph">
<g id="viewport">
<title>inc/error_type.h</title>
<!-- Node1 -->
<g id="node1" class="node">
<title>Node1</title>
<g id="a_node1"><a xlink:title=" ">
<polygon fill="#bfbfbf" stroke="black" points="1231,-190.5 1231,-209.5 1324,-209.5 1324,-190.5 1231,-190.5"/>
<text text-anchor="middle" x="1277.5" y="-197.5" font-family="Helvetica,sans-Serif" font-size="10.00">inc/error_type.h</text>
</a>
</g>
</g>
<!-- Node2 -->
<g id="node2" class="node">
<title>Node2</title>
<g id="a_node2"><a xlink:href="check_8h.html" target="_top" xlink:title=" ">
<polygon fill="none" stroke="black" points="480,-134.5 480,-153.5 551,-153.5 551,-134.5 480,-134.5"/>
<text text-anchor="middle" x="515.5" y="-141.5" font-family="Helvetica,sans-Serif" font-size="10.00">inc/check.h</text>
</a>
</g>
</g>
<!-- Node1&#45;&gt;Node2 -->
<g id="edge1" class="edge">
<title>Node1&#45;&gt;Node2</title>
<path fill="none" stroke="midnightblue" d="M1220.7,-194.97C1071.77,-184.42 673.16,-156.17 551.35,-147.54"/>
<polygon fill="midnightblue" stroke="midnightblue" points="1220.76,-198.49 1230.98,-195.7 1221.25,-191.51 1220.76,-198.49"/>
</g>
<!-- Node10 -->
<g id="node10" class="node">
<title>Node10</title>
<g id="a_node10"><a xlink:href="check__bonus_8h.html" target="_top" xlink:title=" ">
<polygon fill="none" stroke="black" points="1101.5,-134.5 1101.5,-153.5 1207.5,-153.5 1207.5,-134.5 1101.5,-134.5"/>
<text text-anchor="middle" x="1154.5" y="-141.5" font-family="Helvetica,sans-Serif" font-size="10.00">inc/check_bonus.h</text>
</a>
</g>
</g>
<!-- Node1&#45;&gt;Node10 -->
<g id="edge9" class="edge">
<title>Node1&#45;&gt;Node10</title>
<path fill="none" stroke="midnightblue" d="M1248.73,-186.37C1225.69,-176.26 1194.02,-162.35 1173.9,-153.52"/>
<polygon fill="midnightblue" stroke="midnightblue" points="1247.45,-189.63 1258.01,-190.44 1250.26,-183.22 1247.45,-189.63"/>
</g>
<!-- Node14 -->
<g id="node14" class="node">
<title>Node14</title>
<g id="a_node14"><a xlink:href="error__mlx_8h.html" target="_top" xlink:title=" ">
<polygon fill="none" stroke="black" points="1679.5,-134.5 1679.5,-153.5 1769.5,-153.5 1769.5,-134.5 1679.5,-134.5"/>
<text text-anchor="middle" x="1724.5" y="-141.5" font-family="Helvetica,sans-Serif" font-size="10.00">inc/error_mlx.h</text>
</a>
</g>
</g>
<!-- Node1&#45;&gt;Node14 -->
<g id="edge13" class="edge">
<title>Node1&#45;&gt;Node14</title>
<path fill="none" stroke="midnightblue" d="M1334.07,-192.17C1423.89,-181.32 1597.31,-160.37 1679.37,-150.45"/>
<polygon fill="midnightblue" stroke="midnightblue" points="1333.58,-188.7 1324.07,-193.37 1334.42,-195.65 1333.58,-188.7"/>
</g>
<!-- Node52 -->
<g id="node38" class="node">
<title>Node52</title>
<g id="a_node38"><a xlink:href="error__syscall_8h.html" target="_top" xlink:title=" ">
<polygon fill="none" stroke="black" points="2671,-134.5 2671,-153.5 2776,-153.5 2776,-134.5 2671,-134.5"/>
<text text-anchor="middle" x="2723.5" y="-141.5" font-family="Helvetica,sans-Serif" font-size="10.00">inc/error_syscall.h</text>
</a>
</g>
</g>
<!-- Node1&#45;&gt;Node52 -->
<g id="edge37" class="edge">
<title>Node1&#45;&gt;Node52</title>
<path fill="none" stroke="midnightblue" d="M1334.68,-196.86C1568,-188.15 2446.28,-155.35 2670.92,-146.96"/>
<polygon fill="midnightblue" stroke="midnightblue" points="1334.24,-193.38 1324.38,-197.25 1334.5,-200.37 1334.24,-193.38"/>
</g>
<!-- Node3 -->
<g id="node3" class="node">
<title>Node3</title>
<g id="a_node3"><a xlink:href="check_8c.html" target="_top" xlink:title=" ">
<polygon fill="none" stroke="black" points="292,-73 292,-92 363,-92 363,-73 292,-73"/>
<text text-anchor="middle" x="327.5" y="-80" font-family="Helvetica,sans-Serif" font-size="10.00">src/check.c</text>
</a>
</g>
</g>
<!-- Node2&#45;&gt;Node3 -->
<g id="edge2" class="edge">
<title>Node2&#45;&gt;Node3</title>
<path fill="none" stroke="midnightblue" d="M478.39,-131.4C449.51,-122.35 408.44,-109.44 372.5,-98 366.56,-96.11 360.18,-94.06 354.14,-92.12"/>
<polygon fill="midnightblue" stroke="midnightblue" points="477.48,-134.78 488.07,-134.43 479.57,-128.1 477.48,-134.78"/>
</g>
<!-- Node4 -->
<g id="node4" class="node">
<title>Node4</title>
<g id="a_node4"><a xlink:href="check__entity___a_c_l_8c.html" target="_top" xlink:title=" ">
<polygon fill="none" stroke="black" points="381.5,-73 381.5,-92 509.5,-92 509.5,-73 381.5,-73"/>
<text text-anchor="middle" x="445.5" y="-80" font-family="Helvetica,sans-Serif" font-size="10.00">src/check_entity_ACL.c</text>
</a>
</g>
</g>
<!-- Node2&#45;&gt;Node4 -->
<g id="edge3" class="edge">
<title>Node2&#45;&gt;Node4</title>
<path fill="none" stroke="midnightblue" d="M497.82,-127.97C484.43,-116.59 466.52,-101.37 455.51,-92.01"/>
<polygon fill="midnightblue" stroke="midnightblue" points="495.58,-130.67 505.47,-134.48 500.12,-125.33 495.58,-130.67"/>
</g>
<!-- Node5 -->
<g id="node5" class="node">
<title>Node5</title>
<g id="a_node5"><a xlink:href="check__entity__sp__pl__cy_8c.html" target="_top" xlink:title=" ">
<polygon fill="none" stroke="black" points="528,-67.5 528,-97.5 641,-97.5 641,-67.5 528,-67.5"/>
<text text-anchor="start" x="536" y="-85.5" font-family="Helvetica,sans-Serif" font-size="10.00">src/check_entity_sp</text>
<text text-anchor="middle" x="584.5" y="-74.5" font-family="Helvetica,sans-Serif" font-size="10.00">_pl_cy.c</text>
</a>
</g>
</g>
<!-- Node2&#45;&gt;Node5 -->
<g id="edge4" class="edge">
<title>Node2&#45;&gt;Node5</title>
<path fill="none" stroke="midnightblue" d="M532.99,-127.92C543.82,-118.58 557.64,-106.66 568.24,-97.52"/>
<polygon fill="midnightblue" stroke="midnightblue" points="530.67,-125.29 525.39,-134.48 535.24,-130.6 530.67,-125.29"/>
</g>
<!-- Node6 -->
<g id="node6" class="node">
<title>Node6</title>
<g id="a_node6"><a xlink:href="check__line_8c.html" target="_top" xlink:title=" ">
<polygon fill="none" stroke="black" points="659.5,-73 659.5,-92 753.5,-92 753.5,-73 659.5,-73"/>
<text text-anchor="middle" x="706.5" y="-80" font-family="Helvetica,sans-Serif" font-size="10.00">src/check_line.c</text>
</a>
</g>
</g>
<!-- Node2&#45;&gt;Node6 -->
<g id="edge5" class="edge">
<title>Node2&#45;&gt;Node6</title>
<path fill="none" stroke="midnightblue" d="M552.8,-131.38C589.93,-119.82 646.02,-102.34 679.19,-92.01"/>
<polygon fill="midnightblue" stroke="midnightblue" points="551.37,-128.16 542.87,-134.48 553.45,-134.84 551.37,-128.16"/>
</g>
<!-- Node7 -->
<g id="node7" class="node">
<title>Node7</title>
<g id="a_node7"><a xlink:href="check__rm__space_8c.html" target="_top" xlink:title=" ">
<polygon fill="none" stroke="black" points="772,-73 772,-92 895,-92 895,-73 772,-73"/>
<text text-anchor="middle" x="833.5" y="-80" font-family="Helvetica,sans-Serif" font-size="10.00">src/check_rm_space.c</text>
</a>
</g>
</g>
<!-- Node2&#45;&gt;Node7 -->
<g id="edge6" class="edge">
<title>Node2&#45;&gt;Node7</title>
<path fill="none" stroke="midnightblue" d="M561.22,-134.97C610.84,-126.19 692.38,-111.55 762.5,-98 772.26,-96.11 782.76,-94.01 792.61,-92.01"/>
<polygon fill="midnightblue" stroke="midnightblue" points="560.37,-131.57 551.13,-136.75 561.59,-138.46 560.37,-131.57"/>
</g>
<!-- Node8 -->
<g id="node8" class="node">
<title>Node8</title>
<g id="a_node8"><a xlink:href="error__msg__check_8c.html" target="_top" xlink:title=" ">
<polygon fill="none" stroke="black" points="0,-73 0,-92 125,-92 125,-73 0,-73"/>
<text text-anchor="middle" x="62.5" y="-80" font-family="Helvetica,sans-Serif" font-size="10.00">src/error_msg_check.c</text>
</a>
</g>
</g>
<!-- Node2&#45;&gt;Node8 -->
<g id="edge7" class="edge">
<title>Node2&#45;&gt;Node8</title>
<path fill="none" stroke="midnightblue" d="M469.74,-138.87C397.89,-132.09 254.31,-117.42 133.5,-98 123.07,-96.32 111.84,-94.19 101.45,-92.07"/>
<polygon fill="midnightblue" stroke="midnightblue" points="469.53,-142.36 479.81,-139.81 470.18,-135.39 469.53,-142.36"/>
</g>
<!-- Node9 -->
<g id="node9" class="node">
<title>Node9</title>
<g id="a_node9"><a xlink:href="error__msg__check2_8c.html" target="_top" xlink:title=" ">
<polygon fill="none" stroke="black" points="143,-73 143,-92 274,-92 274,-73 143,-73"/>
<text text-anchor="middle" x="208.5" y="-80" font-family="Helvetica,sans-Serif" font-size="10.00">src/error_msg_check2.c</text>
</a>
</g>
</g>
<!-- Node2&#45;&gt;Node9 -->
<g id="edge8" class="edge">
<title>Node2&#45;&gt;Node9</title>
<path fill="none" stroke="midnightblue" d="M470.11,-134.27C423.14,-125.23 347.68,-110.68 282.5,-98 272.61,-96.08 261.97,-94 251.93,-92.03"/>
<polygon fill="midnightblue" stroke="midnightblue" points="469.49,-137.72 479.97,-136.17 470.81,-130.84 469.49,-137.72"/>
</g>
<!-- Node11 -->
<g id="node11" class="node">
<title>Node11</title>
<g id="a_node11"><a xlink:href="check__bonus_8c.html" target="_top" xlink:title=" ">
<polygon fill="none" stroke="black" points="913,-73 913,-92 1018,-92 1018,-73 913,-73"/>
<text text-anchor="middle" x="965.5" y="-80" font-family="Helvetica,sans-Serif" font-size="10.00">src/check_bonus.c</text>
</a>
</g>
</g>
<!-- Node10&#45;&gt;Node11 -->
<g id="edge10" class="edge">
<title>Node10&#45;&gt;Node11</title>
<path fill="none" stroke="midnightblue" d="M1117.59,-131.38C1080.85,-119.82 1025.35,-102.34 992.53,-92.01"/>
<polygon fill="midnightblue" stroke="midnightblue" points="1116.83,-134.81 1127.42,-134.48 1118.93,-128.13 1116.83,-134.81"/>
</g>
<!-- Node12 -->
<g id="node12" class="node">
<title>Node12</title>
<g id="a_node12"><a xlink:href="check__entity__sp__pl__cy__bonus_8c.html" target="_top" xlink:title=" ">
<polygon fill="none" stroke="black" points="1036,-67.5 1036,-97.5 1149,-97.5 1149,-67.5 1036,-67.5"/>
<text text-anchor="start" x="1044" y="-85.5" font-family="Helvetica,sans-Serif" font-size="10.00">src/check_entity_sp</text>
<text text-anchor="middle" x="1092.5" y="-74.5" font-family="Helvetica,sans-Serif" font-size="10.00">_pl_cy_bonus.c</text>
</a>
</g>
</g>
<!-- Node10&#45;&gt;Node12 -->
<g id="edge11" class="edge">
<title>Node10&#45;&gt;Node12</title>
<path fill="none" stroke="midnightblue" d="M1138.21,-127.37C1128.57,-118.11 1116.45,-106.48 1107.11,-97.52"/>
<polygon fill="midnightblue" stroke="midnightblue" points="1135.98,-130.08 1145.62,-134.48 1140.83,-125.03 1135.98,-130.08"/>
</g>
<!-- Node13 -->
<g id="node13" class="node">
<title>Node13</title>
<g id="a_node13"><a xlink:href="error__msg__check__bonus_8c.html" target="_top" xlink:title=" ">
<polygon fill="none" stroke="black" points="1167,-67.5 1167,-97.5 1284,-97.5 1284,-67.5 1167,-67.5"/>
<text text-anchor="start" x="1175" y="-85.5" font-family="Helvetica,sans-Serif" font-size="10.00">src/error_msg_check</text>
<text text-anchor="middle" x="1225.5" y="-74.5" font-family="Helvetica,sans-Serif" font-size="10.00">_bonus.c</text>
</a>
</g>
</g>
<!-- Node10&#45;&gt;Node13 -->
<g id="edge12" class="edge">
<title>Node10&#45;&gt;Node13</title>
<path fill="none" stroke="midnightblue" d="M1172.49,-127.92C1183.64,-118.58 1197.86,-106.66 1208.77,-97.52"/>
<polygon fill="midnightblue" stroke="midnightblue" points="1170.09,-125.37 1164.67,-134.48 1174.59,-130.73 1170.09,-125.37"/>
</g>
<!-- Node15 -->
<g id="node15" class="node">
<title>Node15</title>
<g id="a_node15"><a xlink:href="render_8h.html" target="_top" xlink:title=" ">
<polygon fill="none" stroke="black" points="1302.5,-73 1302.5,-92 1376.5,-92 1376.5,-73 1302.5,-73"/>
<text text-anchor="middle" x="1339.5" y="-80" font-family="Helvetica,sans-Serif" font-size="10.00">inc/render.h</text>
</a>
</g>
</g>
<!-- Node14&#45;&gt;Node15 -->
<g id="edge14" class="edge">
<title>Node14&#45;&gt;Node15</title>
<path fill="none" stroke="midnightblue" d="M1668.87,-134.4C1589.14,-122.08 1444.51,-99.73 1376.6,-89.23"/>
<polygon fill="midnightblue" stroke="midnightblue" points="1668.79,-137.93 1679.2,-136 1669.86,-131.01 1668.79,-137.93"/>
</g>
<!-- Node32 -->
<g id="node32" class="node">
<title>Node32</title>
<g id="a_node32"><a xlink:href="render__bonus_8h.html" target="_top" xlink:title=" ">
<polygon fill="none" stroke="black" points="2186,-73 2186,-92 2295,-92 2295,-73 2186,-73"/>
<text text-anchor="middle" x="2240.5" y="-80" font-family="Helvetica,sans-Serif" font-size="10.00">inc/render_bonus.h</text>
</a>
</g>
</g>
<!-- Node14&#45;&gt;Node32 -->
<g id="edge31" class="edge">
<title>Node14&#45;&gt;Node32</title>
<path fill="none" stroke="midnightblue" d="M1779.99,-136.6C1879.47,-125.13 2087,-101.2 2185.87,-89.8"/>
<polygon fill="midnightblue" stroke="midnightblue" points="1779.37,-133.15 1769.84,-137.77 1780.17,-140.1 1779.37,-133.15"/>
</g>
<!-- Node51 -->
<g id="node37" class="node">
<title>Node51</title>
<g id="a_node37"><a xlink:href="error__mlx_8c.html" target="_top" xlink:title=" ">
<polygon fill="none" stroke="black" points="2313,-73 2313,-92 2402,-92 2402,-73 2313,-73"/>
<text text-anchor="middle" x="2357.5" y="-80" font-family="Helvetica,sans-Serif" font-size="10.00">src/error_mlx.c</text>
</a>
</g>
</g>
<!-- Node14&#45;&gt;Node51 -->
<g id="edge36" class="edge">
<title>Node14&#45;&gt;Node51</title>
<path fill="none" stroke="midnightblue" d="M1779.84,-142.19C1883.53,-139.9 2113.79,-131.18 2304.5,-98 2312.96,-96.53 2322.02,-94.3 2330.22,-92.03"/>
<polygon fill="midnightblue" stroke="midnightblue" points="1779.54,-138.69 1769.61,-142.4 1779.69,-145.69 1779.54,-138.69"/>
</g>
<!-- Node16 -->
<g id="node16" class="node">
<title>Node16</title>
<g id="a_node16"><a xlink:href="render__compose__image_8c.html" target="_top" xlink:title=" ">
<polygon fill="none" stroke="black" points="892,-0.5 892,-30.5 1007,-30.5 1007,-0.5 892,-0.5"/>
<text text-anchor="start" x="900" y="-18.5" font-family="Helvetica,sans-Serif" font-size="10.00">src/render_compose</text>
<text text-anchor="middle" x="949.5" y="-7.5" font-family="Helvetica,sans-Serif" font-size="10.00">_image.c</text>
</a>
</g>
</g>
<!-- Node15&#45;&gt;Node16 -->
<g id="edge15" class="edge">
<title>Node15&#45;&gt;Node16</title>
<path fill="none" stroke="midnightblue" d="M1304.52,-70C1300.49,-68.88 1296.42,-67.85 1292.5,-67 1171.63,-40.67 1138.39,-52.1 1016.5,-31 1013.45,-30.47 1010.33,-29.9 1007.18,-29.3"/>
<polygon fill="midnightblue" stroke="midnightblue" points="1303.76,-73.42 1314.34,-72.88 1305.73,-66.7 1303.76,-73.42"/>
</g>
<!-- Node17 -->
<g id="node17" class="node">
<title>Node17</title>
<g id="a_node17"><a xlink:href="render__draw_8c.html" target="_top" xlink:title=" ">
<polygon fill="none" stroke="black" points="1025.5,-6 1025.5,-25 1127.5,-25 1127.5,-6 1025.5,-6"/>
<text text-anchor="middle" x="1076.5" y="-13" font-family="Helvetica,sans-Serif" font-size="10.00">src/render_draw.c</text>
</a>
</g>
</g>
<!-- Node15&#45;&gt;Node17 -->
<g id="edge16" class="edge">
<title>Node15&#45;&gt;Node17</title>
<path fill="none" stroke="midnightblue" d="M1302.95,-69.94C1299.43,-68.91 1295.9,-67.92 1292.5,-67 1223.79,-48.5 1205.75,-47.36 1136.5,-31 1128.47,-29.1 1119.84,-27.04 1111.7,-25.07"/>
<polygon fill="midnightblue" stroke="midnightblue" points="1302.17,-73.36 1312.75,-72.88 1304.18,-66.66 1302.17,-73.36"/>
</g>
<!-- Node18 -->
<g id="node18" class="node">
<title>Node18</title>
<g id="a_node18"><a xlink:href="render__init__mlx_8c.html" target="_top" xlink:title=" ">
<polygon fill="none" stroke="black" points="1146,-6 1146,-25 1265,-25 1265,-6 1146,-6"/>
<text text-anchor="middle" x="1205.5" y="-13" font-family="Helvetica,sans-Serif" font-size="10.00">src/render_init_mlx.c</text>
</a>
</g>
</g>
<!-- Node15&#45;&gt;Node18 -->
<g id="edge17" class="edge">
<title>Node15&#45;&gt;Node18</title>
<path fill="none" stroke="midnightblue" d="M1312.58,-68.44C1286.04,-55.57 1246.23,-36.26 1223.37,-25.17"/>
<polygon fill="midnightblue" stroke="midnightblue" points="1311.18,-71.65 1321.71,-72.87 1314.24,-65.35 1311.18,-71.65"/>
</g>
<!-- Node19 -->
<g id="node19" class="node">
<title>Node19</title>
<g id="a_node19"><a xlink:href="render__keyhook__camera_8c.html" target="_top" xlink:title=" ">
<polygon fill="none" stroke="black" points="1283.5,-0.5 1283.5,-30.5 1395.5,-30.5 1395.5,-0.5 1283.5,-0.5"/>
<text text-anchor="start" x="1291.5" y="-18.5" font-family="Helvetica,sans-Serif" font-size="10.00">src/render_keyhook</text>
<text text-anchor="middle" x="1339.5" y="-7.5" font-family="Helvetica,sans-Serif" font-size="10.00">_camera.c</text>
</a>
</g>
</g>
<!-- Node15&#45;&gt;Node19 -->
<g id="edge18" class="edge">
<title>Node15&#45;&gt;Node19</title>
<path fill="none" stroke="midnightblue" d="M1339.5,-62.41C1339.5,-52.22 1339.5,-39.9 1339.5,-30.59"/>
<polygon fill="midnightblue" stroke="midnightblue" points="1336,-62.73 1339.5,-72.73 1343,-62.73 1336,-62.73"/>
</g>
<!-- Node20 -->
<g id="node20" class="node">
<title>Node20</title>
<g id="a_node20"><a xlink:href="render__keyhook__colour_8c.html" target="_top" xlink:title=" ">
<polygon fill="none" stroke="black" points="1413.5,-0.5 1413.5,-30.5 1525.5,-30.5 1525.5,-0.5 1413.5,-0.5"/>
<text text-anchor="start" x="1421.5" y="-18.5" font-family="Helvetica,sans-Serif" font-size="10.00">src/render_keyhook</text>
<text text-anchor="middle" x="1469.5" y="-7.5" font-family="Helvetica,sans-Serif" font-size="10.00">_colour.c</text>
</a>
</g>
</g>
<!-- Node15&#45;&gt;Node20 -->
<g id="edge19" class="edge">
<title>Node15&#45;&gt;Node20</title>
<path fill="none" stroke="midnightblue" d="M1365.82,-68.34C1387.7,-57.4 1418.78,-41.86 1441.2,-30.65"/>
<polygon fill="midnightblue" stroke="midnightblue" points="1364.14,-65.27 1356.76,-72.87 1367.27,-71.53 1364.14,-65.27"/>
</g>
<!-- Node21 -->
<g id="node21" class="node">
<title>Node21</title>
<g id="a_node21"><a xlink:href="render__keyhook__hittable_8c.html" target="_top" xlink:title=" ">
<polygon fill="none" stroke="black" points="1543.5,-0.5 1543.5,-30.5 1655.5,-30.5 1655.5,-0.5 1543.5,-0.5"/>
<text text-anchor="start" x="1551.5" y="-18.5" font-family="Helvetica,sans-Serif" font-size="10.00">src/render_keyhook</text>
<text text-anchor="middle" x="1599.5" y="-7.5" font-family="Helvetica,sans-Serif" font-size="10.00">_hittable.c</text>
</a>
</g>
</g>
<!-- Node15&#45;&gt;Node21 -->
<g id="edge20" class="edge">
<title>Node15&#45;&gt;Node21</title>
<path fill="none" stroke="midnightblue" d="M1383.59,-70.48C1427.6,-59.47 1495.4,-42.52 1543.26,-30.56"/>
<polygon fill="midnightblue" stroke="midnightblue" points="1382.61,-67.11 1373.76,-72.94 1384.31,-73.91 1382.61,-67.11"/>
</g>
<!-- Node22 -->
<g id="node22" class="node">
<title>Node22</title>
<g id="a_node22"><a xlink:href="render__keyhook__light_8c.html" target="_top" xlink:title=" ">
<polygon fill="none" stroke="black" points="1673.5,-0.5 1673.5,-30.5 1785.5,-30.5 1785.5,-0.5 1673.5,-0.5"/>
<text text-anchor="start" x="1681.5" y="-18.5" font-family="Helvetica,sans-Serif" font-size="10.00">src/render_keyhook</text>
<text text-anchor="middle" x="1729.5" y="-7.5" font-family="Helvetica,sans-Serif" font-size="10.00">_light.c</text>
</a>
</g>
</g>
<!-- Node15&#45;&gt;Node22 -->
<g id="edge21" class="edge">
<title>Node15&#45;&gt;Node22</title>
<path fill="none" stroke="midnightblue" d="M1386.77,-75.14C1450.17,-66.39 1566.18,-49.59 1664.5,-31 1667.34,-30.46 1670.25,-29.89 1673.18,-29.3"/>
<polygon fill="midnightblue" stroke="midnightblue" points="1386.11,-71.7 1376.68,-76.53 1387.06,-78.64 1386.11,-71.7"/>
</g>
<!-- Node23 -->
<g id="node23" class="node">
<title>Node23</title>
<g id="a_node23"><a xlink:href="render__keyhook__options_8c.html" target="_top" xlink:title=" ">
<polygon fill="none" stroke="black" points="1803.5,-0.5 1803.5,-30.5 1915.5,-30.5 1915.5,-0.5 1803.5,-0.5"/>
<text text-anchor="start" x="1811.5" y="-18.5" font-family="Helvetica,sans-Serif" font-size="10.00">src/render_keyhook</text>
<text text-anchor="middle" x="1859.5" y="-7.5" font-family="Helvetica,sans-Serif" font-size="10.00">_options.c</text>
</a>
</g>
</g>
<!-- Node15&#45;&gt;Node23 -->
<g id="edge22" class="edge">
<title>Node15&#45;&gt;Node23</title>
<path fill="none" stroke="midnightblue" d="M1386.66,-77.97C1469.54,-71.39 1646.58,-55.63 1794.5,-31 1797.35,-30.53 1800.27,-30 1803.2,-29.45"/>
<polygon fill="midnightblue" stroke="midnightblue" points="1386.24,-74.49 1376.55,-78.76 1386.79,-81.47 1386.24,-74.49"/>
</g>
<!-- Node24 -->
<g id="node24" class="node">
<title>Node24</title>
<g id="a_node24"><a xlink:href="render__keyhook__options__bonus_8c.html" target="_top" xlink:title=" ">
<polygon fill="none" stroke="black" points="1933.5,-0.5 1933.5,-30.5 2045.5,-30.5 2045.5,-0.5 1933.5,-0.5"/>
<text text-anchor="start" x="1941.5" y="-18.5" font-family="Helvetica,sans-Serif" font-size="10.00">src/render_keyhook</text>
<text text-anchor="middle" x="1989.5" y="-7.5" font-family="Helvetica,sans-Serif" font-size="10.00">_options_bonus.c</text>
</a>
</g>
</g>
<!-- Node15&#45;&gt;Node24 -->
<g id="edge23" class="edge">
<title>Node15&#45;&gt;Node24</title>
<path fill="none" stroke="midnightblue" d="M1386.73,-79.56C1486.52,-75 1725.99,-61.57 1924.5,-31 1927.36,-30.56 1930.28,-30.07 1933.22,-29.54"/>
<polygon fill="midnightblue" stroke="midnightblue" points="1386.5,-76.07 1376.66,-80.01 1386.81,-83.06 1386.5,-76.07"/>
</g>
<!-- Node25 -->
<g id="node25" class="node">
<title>Node25</title>
<g id="a_node25"><a xlink:href="render__keyhook__press_8c.html" target="_top" xlink:title=" ">
<polygon fill="none" stroke="black" points="99.5,-0.5 99.5,-30.5 211.5,-30.5 211.5,-0.5 99.5,-0.5"/>
<text text-anchor="start" x="107.5" y="-18.5" font-family="Helvetica,sans-Serif" font-size="10.00">src/render_keyhook</text>
<text text-anchor="middle" x="155.5" y="-7.5" font-family="Helvetica,sans-Serif" font-size="10.00">_press.c</text>
</a>
</g>
</g>
<!-- Node15&#45;&gt;Node25 -->
<g id="edge24" class="edge">
<title>Node15&#45;&gt;Node25</title>
<path fill="none" stroke="midnightblue" d="M1306.18,-70.03C1301.63,-68.82 1296.98,-67.75 1292.5,-67 822.37,11.96 693.4,-91.16 220.5,-31 217.63,-30.64 214.71,-30.2 211.76,-29.72"/>
<polygon fill="midnightblue" stroke="midnightblue" points="1305.31,-73.43 1315.89,-72.87 1307.27,-66.71 1305.31,-73.43"/>
</g>
<!-- Node26 -->
<g id="node26" class="node">
<title>Node26</title>
<g id="a_node26"><a xlink:href="render__keyhook__release_8c.html" target="_top" xlink:title=" ">
<polygon fill="none" stroke="black" points="229.5,-0.5 229.5,-30.5 341.5,-30.5 341.5,-0.5 229.5,-0.5"/>
<text text-anchor="start" x="237.5" y="-18.5" font-family="Helvetica,sans-Serif" font-size="10.00">src/render_keyhook</text>
<text text-anchor="middle" x="285.5" y="-7.5" font-family="Helvetica,sans-Serif" font-size="10.00">_release.c</text>
</a>
</g>
</g>
<!-- Node15&#45;&gt;Node26 -->
<g id="edge25" class="edge">
<title>Node15&#45;&gt;Node26</title>
<path fill="none" stroke="midnightblue" d="M1306.17,-70.05C1301.62,-68.83 1296.98,-67.76 1292.5,-67 879.48,3.35 766,-84.83 350.5,-31 347.63,-30.63 344.71,-30.19 341.76,-29.7"/>
<polygon fill="midnightblue" stroke="midnightblue" points="1305.3,-73.45 1315.88,-72.9 1307.27,-66.73 1305.3,-73.45"/>
</g>
<!-- Node27 -->
<g id="node27" class="node">
<title>Node27</title>
<g id="a_node27"><a xlink:href="render__keyhook__scene_8c.html" target="_top" xlink:title=" ">
<polygon fill="none" stroke="black" points="359.5,-0.5 359.5,-30.5 471.5,-30.5 471.5,-0.5 359.5,-0.5"/>
<text text-anchor="start" x="367.5" y="-18.5" font-family="Helvetica,sans-Serif" font-size="10.00">src/render_keyhook</text>
<text text-anchor="middle" x="415.5" y="-7.5" font-family="Helvetica,sans-Serif" font-size="10.00">_scene.c</text>
</a>
</g>
</g>
<!-- Node15&#45;&gt;Node27 -->
<g id="edge26" class="edge">
<title>Node15&#45;&gt;Node27</title>
<path fill="none" stroke="midnightblue" d="M1306.17,-70.08C1301.62,-68.86 1296.97,-67.78 1292.5,-67 936.57,-5.25 838.61,-78.51 480.5,-31 477.63,-30.62 474.71,-30.18 471.76,-29.68"/>
<polygon fill="midnightblue" stroke="midnightblue" points="1305.3,-73.47 1315.88,-72.93 1307.27,-66.75 1305.3,-73.47"/>
</g>
<!-- Node28 -->
<g id="node28" class="node">
<title>Node28</title>
<g id="a_node28"><a xlink:href="render__keyhook__utils_8c.html" target="_top" xlink:title=" ">
<polygon fill="none" stroke="black" points="489.5,-0.5 489.5,-30.5 601.5,-30.5 601.5,-0.5 489.5,-0.5"/>
<text text-anchor="start" x="497.5" y="-18.5" font-family="Helvetica,sans-Serif" font-size="10.00">src/render_keyhook</text>
<text text-anchor="middle" x="545.5" y="-7.5" font-family="Helvetica,sans-Serif" font-size="10.00">_utils.c</text>
</a>
</g>
</g>
<!-- Node15&#45;&gt;Node28 -->
<g id="edge27" class="edge">
<title>Node15&#45;&gt;Node28</title>
<path fill="none" stroke="midnightblue" d="M1306.16,-70.11C1301.61,-68.89 1296.97,-67.8 1292.5,-67 993.66,-13.86 911.23,-72.19 610.5,-31 607.64,-30.61 604.71,-30.15 601.77,-29.65"/>
<polygon fill="midnightblue" stroke="midnightblue" points="1305.29,-73.51 1315.87,-72.97 1307.26,-66.79 1305.29,-73.51"/>
</g>
<!-- Node29 -->
<g id="node29" class="node">
<title>Node29</title>
<g id="a_node29"><a xlink:href="render__loop__mlx_8c.html" target="_top" xlink:title=" ">
<polygon fill="none" stroke="black" points="619.5,-6 619.5,-25 743.5,-25 743.5,-6 619.5,-6"/>
<text text-anchor="middle" x="681.5" y="-13" font-family="Helvetica,sans-Serif" font-size="10.00">src/render_loop_mlx.c</text>
</a>
</g>
</g>
<!-- Node15&#45;&gt;Node29 -->
<g id="edge28" class="edge">
<title>Node15&#45;&gt;Node29</title>
<path fill="none" stroke="midnightblue" d="M1305.49,-70C1301.16,-68.83 1296.75,-67.79 1292.5,-67 1055.98,-23.25 990.88,-63.14 752.5,-31 741.4,-29.5 729.44,-27.3 718.56,-25.05"/>
<polygon fill="midnightblue" stroke="midnightblue" points="1304.8,-73.44 1315.38,-72.88 1306.76,-66.72 1304.8,-73.44"/>
</g>
<!-- Node30 -->
<g id="node30" class="node">
<title>Node30</title>
<g id="a_node30"><a xlink:href="render__mouse_8c.html" target="_top" xlink:title=" ">
<polygon fill="none" stroke="black" points="761.5,-6 761.5,-25 873.5,-25 873.5,-6 761.5,-6"/>
<text text-anchor="middle" x="817.5" y="-13" font-family="Helvetica,sans-Serif" font-size="10.00">src/render_mouse.c</text>
</a>
</g>
</g>
<!-- Node15&#45;&gt;Node30 -->
<g id="edge29" class="edge">
<title>Node15&#45;&gt;Node30</title>
<path fill="none" stroke="midnightblue" d="M1305.48,-70.08C1301.14,-68.9 1296.74,-67.83 1292.5,-67 1112.99,-31.84 1063.27,-58.97 882.5,-31 872.45,-29.44 861.62,-27.24 851.75,-25.03"/>
<polygon fill="midnightblue" stroke="midnightblue" points="1304.78,-73.52 1315.36,-72.98 1306.75,-66.81 1304.78,-73.52"/>
</g>
<!-- Node31 -->
<g id="node31" class="node">
<title>Node31</title>
<g id="a_node31"><a xlink:href="render__output__ppm_8c.html" target="_top" xlink:title=" ">
<polygon fill="none" stroke="black" points="2174,-6 2174,-25 2311,-25 2311,-6 2174,-6"/>
<text text-anchor="middle" x="2242.5" y="-13" font-family="Helvetica,sans-Serif" font-size="10.00">src/render_output_ppm.c</text>
</a>
</g>
</g>
<!-- Node15&#45;&gt;Node31 -->
<g id="edge30" class="edge">
<title>Node15&#45;&gt;Node31</title>
<path fill="none" stroke="midnightblue" d="M1386.77,-80.63C1513.31,-77.88 1870.13,-67.23 2164.5,-31 2176.67,-29.5 2189.8,-27.29 2201.76,-25.05"/>
<polygon fill="midnightblue" stroke="midnightblue" points="1386.57,-77.14 1376.65,-80.85 1386.72,-84.14 1386.57,-77.14"/>
</g>
<!-- Node33 -->
<g id="node33" class="node">
<title>Node33</title>
<g id="a_node33"><a xlink:href="menu__put_8h.html" target="_top" xlink:title=" ">
<polygon fill="none" stroke="red" points="2063.5,-6 2063.5,-25 2155.5,-25 2155.5,-6 2063.5,-6"/>
<text text-anchor="middle" x="2109.5" y="-13" font-family="Helvetica,sans-Serif" font-size="10.00">inc/menu_put.h</text>
</a>
</g>
</g>
<!-- Node32&#45;&gt;Node33 -->
<g id="edge32" class="edge">
<title>Node32&#45;&gt;Node33</title>
<path fill="none" stroke="midnightblue" d="M2213.84,-68.27C2187.9,-55.4 2149.22,-36.21 2126.97,-25.17"/>
<polygon fill="midnightblue" stroke="midnightblue" points="2212.59,-71.56 2223.1,-72.87 2215.7,-65.29 2212.59,-71.56"/>
</g>
<!-- Node47 -->
<g id="node34" class="node">
<title>Node47</title>
<g id="a_node34"><a xlink:href="mini_r_t_8h.html" target="_top" xlink:title=" ">
<polygon fill="none" stroke="red" points="2617.5,-6 2617.5,-25 2693.5,-25 2693.5,-6 2617.5,-6"/>
<text text-anchor="middle" x="2655.5" y="-13" font-family="Helvetica,sans-Serif" font-size="10.00">inc/miniRT.h</text>
</a>
</g>
</g>
<!-- Node32&#45;&gt;Node47 -->
<g id="edge33" class="edge">
<title>Node32&#45;&gt;Node47</title>
<path fill="none" stroke="midnightblue" d="M2285.22,-70.74C2291.66,-69.37 2298.24,-68.08 2304.5,-67 2438.59,-43.94 2475.39,-59.17 2608.5,-31 2615.85,-29.44 2623.7,-27.24 2630.84,-25.03"/>
<polygon fill="midnightblue" stroke="midnightblue" points="2284.26,-67.37 2275.24,-72.93 2285.76,-74.21 2284.26,-67.37"/>
</g>
<!-- Node49 -->
<g id="node35" class="node">
<title>Node49</title>
<g id="a_node35"><a xlink:href="render__compose__image__bonus_8c.html" target="_top" xlink:title=" ">
<polygon fill="none" stroke="black" points="2329,-0.5 2329,-30.5 2444,-30.5 2444,-0.5 2329,-0.5"/>
<text text-anchor="start" x="2337" y="-18.5" font-family="Helvetica,sans-Serif" font-size="10.00">src/render_compose</text>
<text text-anchor="middle" x="2386.5" y="-7.5" font-family="Helvetica,sans-Serif" font-size="10.00">_image_bonus.c</text>
</a>
</g>
</g>
<!-- Node32&#45;&gt;Node49 -->
<g id="edge34" class="edge">
<title>Node32&#45;&gt;Node49</title>
<path fill="none" stroke="midnightblue" d="M2269.1,-68.77C2293.81,-57.77 2329.47,-41.89 2354.99,-30.53"/>
<polygon fill="midnightblue" stroke="midnightblue" points="2267.6,-65.6 2259.89,-72.87 2270.45,-72 2267.6,-65.6"/>
</g>
<!-- Node50 -->
<g id="node36" class="node">
<title>Node50</title>
<g id="a_node36"><a xlink:href="render__draw__bonus_8c.html" target="_top" xlink:title=" ">
<polygon fill="none" stroke="black" points="2462,-6 2462,-25 2599,-25 2599,-6 2462,-6"/>
<text text-anchor="middle" x="2530.5" y="-13" font-family="Helvetica,sans-Serif" font-size="10.00">src/render_draw_bonus.c</text>
</a>
</g>
</g>
<!-- Node32&#45;&gt;Node50 -->
<g id="edge35" class="edge">
<title>Node32&#45;&gt;Node50</title>
<path fill="none" stroke="midnightblue" d="M2287.98,-70.73C2293.55,-69.47 2299.15,-68.2 2304.5,-67 2370.39,-52.17 2447.13,-35.06 2492.1,-25.04"/>
<polygon fill="midnightblue" stroke="midnightblue" points="2287.04,-67.35 2278.06,-72.97 2288.59,-74.18 2287.04,-67.35"/>
</g>
<!-- Node52&#45;&gt;Node31 -->
<g id="edge51" class="edge">
<title>Node52&#45;&gt;Node31</title>
<path fill="none" stroke="midnightblue" d="M2715.04,-125.1C2705.49,-107.09 2688.15,-80.15 2664.5,-67 2597.32,-29.65 2396.57,-42.03 2320.5,-31 2308.91,-29.32 2296.42,-27.16 2284.9,-25.02"/>
<polygon fill="midnightblue" stroke="midnightblue" points="2711.92,-126.68 2719.54,-134.05 2718.17,-123.54 2711.92,-126.68"/>
</g>
<!-- Node53 -->
<g id="node39" class="node">
<title>Node53</title>
<g id="a_node39"><a xlink:href="import__file_8h.html" target="_top" xlink:title=" ">
<polygon fill="none" stroke="black" points="2980,-73 2980,-92 3075,-92 3075,-73 2980,-73"/>
<text text-anchor="middle" x="3027.5" y="-80" font-family="Helvetica,sans-Serif" font-size="10.00">inc/import_file.h</text>
</a>
</g>
</g>
<!-- Node52&#45;&gt;Node53 -->
<g id="edge38" class="edge">
<title>Node52&#45;&gt;Node53</title>
<path fill="none" stroke="midnightblue" d="M2776.91,-132.55C2835.81,-121.02 2929.43,-102.69 2984.03,-92.01"/>
<polygon fill="midnightblue" stroke="midnightblue" points="2776.2,-129.12 2767.06,-134.48 2777.54,-135.99 2776.2,-129.12"/>
</g>
<!-- Node56 -->
<g id="node42" class="node">
<title>Node56</title>
<g id="a_node42"><a xlink:href="parse_8h.html" target="_top" xlink:title=" ">
<polygon fill="none" stroke="black" points="3338.5,-73 3338.5,-92 3408.5,-92 3408.5,-73 3338.5,-73"/>
<text text-anchor="middle" x="3373.5" y="-80" font-family="Helvetica,sans-Serif" font-size="10.00">inc/parse.h</text>
</a>
</g>
</g>
<!-- Node52&#45;&gt;Node56 -->
<g id="edge41" class="edge">
<title>Node52&#45;&gt;Node56</title>
<path fill="none" stroke="midnightblue" d="M2786.29,-137.25C2920.86,-124.93 3233.36,-96.33 3338.36,-86.72"/>
<polygon fill="midnightblue" stroke="midnightblue" points="2785.78,-133.78 2776.14,-138.18 2786.42,-140.76 2785.78,-133.78"/>
</g>
<!-- Node61 -->
<g id="node47" class="node">
<title>Node61</title>
<g id="a_node47"><a xlink:href="parse__bonus_8h.html" target="_top" xlink:title=" ">
<polygon fill="none" stroke="black" points="2711.5,-73 2711.5,-92 2815.5,-92 2815.5,-73 2711.5,-73"/>
<text text-anchor="middle" x="2763.5" y="-80" font-family="Helvetica,sans-Serif" font-size="10.00">inc/parse_bonus.h</text>
</a>
</g>
</g>
<!-- Node52&#45;&gt;Node61 -->
<g id="edge46" class="edge">
<title>Node52&#45;&gt;Node61</title>
<path fill="none" stroke="midnightblue" d="M2734.93,-126.01C2742.4,-114.89 2751.84,-100.84 2757.78,-92.01"/>
<polygon fill="midnightblue" stroke="midnightblue" points="2731.91,-124.22 2729.23,-134.48 2737.71,-128.13 2731.91,-124.22"/>
</g>
<!-- Node64 -->
<g id="node50" class="node">
<title>Node64</title>
<g id="a_node50"><a xlink:href="error__syscall_8c.html" target="_top" xlink:title=" ">
<polygon fill="none" stroke="black" points="2551.5,-73 2551.5,-92 2655.5,-92 2655.5,-73 2551.5,-73"/>
<text text-anchor="middle" x="2603.5" y="-80" font-family="Helvetica,sans-Serif" font-size="10.00">src/error_syscall.c</text>
</a>
</g>
</g>
<!-- Node52&#45;&gt;Node64 -->
<g id="edge50" class="edge">
<title>Node52&#45;&gt;Node64</title>
<path fill="none" stroke="midnightblue" d="M2697.32,-130.02C2674.05,-118.48 2640.7,-101.94 2620.66,-92.01"/>
<polygon fill="midnightblue" stroke="midnightblue" points="2695.79,-133.17 2706.31,-134.48 2698.9,-126.9 2695.79,-133.17"/>
</g>
<!-- Node54 -->
<g id="node40" class="node">
<title>Node54</title>
<g id="a_node40"><a xlink:href="import__file_8c.html" target="_top" xlink:title=" ">
<polygon fill="none" stroke="black" points="3110,-6 3110,-25 3205,-25 3205,-6 3110,-6"/>
<text text-anchor="middle" x="3157.5" y="-13" font-family="Helvetica,sans-Serif" font-size="10.00">src/import_file.c</text>
</a>
</g>
</g>
<!-- Node53&#45;&gt;Node54 -->
<g id="edge39" class="edge">
<title>Node53&#45;&gt;Node54</title>
<path fill="none" stroke="midnightblue" d="M3053.95,-68.27C3079.7,-55.4 3118.08,-36.21 3140.17,-25.17"/>
<polygon fill="midnightblue" stroke="midnightblue" points="3052.14,-65.27 3044.76,-72.87 3055.27,-71.53 3052.14,-65.27"/>
</g>
<!-- Node55 -->
<g id="node41" class="node">
<title>Node55</title>
<g id="a_node41"><a xlink:href="import__file__buffer_8c.html" target="_top" xlink:title=" ">
<polygon fill="none" stroke="black" points="2963.5,-6 2963.5,-25 3091.5,-25 3091.5,-6 2963.5,-6"/>
<text text-anchor="middle" x="3027.5" y="-13" font-family="Helvetica,sans-Serif" font-size="10.00">src/import_file_buffer.c</text>
</a>
</g>
</g>
<!-- Node53&#45;&gt;Node55 -->
<g id="edge40" class="edge">
<title>Node53&#45;&gt;Node55</title>
<path fill="none" stroke="midnightblue" d="M3027.5,-62.54C3027.5,-50.17 3027.5,-34.62 3027.5,-25.13"/>
<polygon fill="midnightblue" stroke="midnightblue" points="3024,-62.73 3027.5,-72.73 3031,-62.73 3024,-62.73"/>
</g>
<!-- Node57 -->
<g id="node43" class="node">
<title>Node57</title>
<g id="a_node43"><a xlink:href="parse_8c.html" target="_top" xlink:title=" ">
<polygon fill="none" stroke="black" points="3223,-6 3223,-25 3292,-25 3292,-6 3223,-6"/>
<text text-anchor="middle" x="3257.5" y="-13" font-family="Helvetica,sans-Serif" font-size="10.00">src/parse.c</text>
</a>
</g>
</g>
<!-- Node56&#45;&gt;Node57 -->
<g id="edge42" class="edge">
<title>Node56&#45;&gt;Node57</title>
<path fill="none" stroke="midnightblue" d="M3349.03,-67.79C3326.04,-54.9 3292.34,-36.02 3272.9,-25.13"/>
<polygon fill="midnightblue" stroke="midnightblue" points="3347.42,-70.9 3357.86,-72.73 3350.84,-64.79 3347.42,-70.9"/>
</g>
<!-- Node58 -->
<g id="node44" class="node">
<title>Node58</title>
<g id="a_node44"><a xlink:href="parse__entity___a_c_l_8c.html" target="_top" xlink:title=" ">
<polygon fill="none" stroke="black" points="3310,-6 3310,-25 3437,-25 3437,-6 3310,-6"/>
<text text-anchor="middle" x="3373.5" y="-13" font-family="Helvetica,sans-Serif" font-size="10.00">src/parse_entity_ACL.c</text>
</a>
</g>
</g>
<!-- Node56&#45;&gt;Node58 -->
<g id="edge43" class="edge">
<title>Node56&#45;&gt;Node58</title>
<path fill="none" stroke="midnightblue" d="M3373.5,-62.54C3373.5,-50.17 3373.5,-34.62 3373.5,-25.13"/>
<polygon fill="midnightblue" stroke="midnightblue" points="3370,-62.73 3373.5,-72.73 3377,-62.73 3370,-62.73"/>
</g>
<!-- Node59 -->
<g id="node45" class="node">
<title>Node59</title>
<g id="a_node45"><a xlink:href="parse__entity__sp__pl__cy_8c.html" target="_top" xlink:title=" ">
<polygon fill="none" stroke="black" points="3455,-0.5 3455,-30.5 3566,-30.5 3566,-0.5 3455,-0.5"/>
<text text-anchor="start" x="3463" y="-18.5" font-family="Helvetica,sans-Serif" font-size="10.00">src/parse_entity_sp</text>
<text text-anchor="middle" x="3510.5" y="-7.5" font-family="Helvetica,sans-Serif" font-size="10.00">_pl_cy.c</text>
</a>
</g>
</g>
<!-- Node56&#45;&gt;Node59 -->
<g id="edge44" class="edge">
<title>Node56&#45;&gt;Node59</title>
<path fill="none" stroke="midnightblue" d="M3400.96,-68.47C3424.12,-57.49 3457.19,-41.79 3480.93,-30.53"/>
<polygon fill="midnightblue" stroke="midnightblue" points="3399.23,-65.42 3391.69,-72.87 3402.23,-71.74 3399.23,-65.42"/>
</g>
<!-- Node60 -->
<g id="node46" class="node">
<title>Node60</title>
<g id="a_node46"><a xlink:href="parse__line_8c.html" target="_top" xlink:title=" ">
<polygon fill="none" stroke="black" points="3584.5,-6 3584.5,-25 3676.5,-25 3676.5,-6 3584.5,-6"/>
<text text-anchor="middle" x="3630.5" y="-13" font-family="Helvetica,sans-Serif" font-size="10.00">src/parse_line.c</text>
</a>
</g>
</g>
<!-- Node56&#45;&gt;Node60 -->
<g id="edge45" class="edge">
<title>Node56&#45;&gt;Node60</title>
<path fill="none" stroke="midnightblue" d="M3418.14,-70.51C3459.1,-60.39 3521.44,-44.88 3575.5,-31 3582.96,-29.08 3590.98,-26.99 3598.53,-25"/>
<polygon fill="midnightblue" stroke="midnightblue" points="3417.08,-67.17 3408.21,-72.97 3418.75,-73.97 3417.08,-67.17"/>
</g>
<!-- Node61&#45;&gt;Node47 -->
<g id="edge47" class="edge">
<title>Node61&#45;&gt;Node47</title>
<path fill="none" stroke="midnightblue" d="M2740.14,-67.44C2718.75,-54.57 2687.78,-35.93 2669.83,-25.13"/>
<polygon fill="midnightblue" stroke="midnightblue" points="2738.56,-70.58 2748.93,-72.73 2742.17,-64.58 2738.56,-70.58"/>
</g>
<!-- Node62 -->
<g id="node48" class="node">
<title>Node62</title>
<g id="a_node48"><a xlink:href="parse__bonus_8c.html" target="_top" xlink:title=" ">
<polygon fill="none" stroke="black" points="2711.5,-6 2711.5,-25 2815.5,-25 2815.5,-6 2711.5,-6"/>
<text text-anchor="middle" x="2763.5" y="-13" font-family="Helvetica,sans-Serif" font-size="10.00">src/parse_bonus.c</text>
</a>
</g>
</g>
<!-- Node61&#45;&gt;Node62 -->
<g id="edge48" class="edge">
<title>Node61&#45;&gt;Node62</title>
<path fill="none" stroke="midnightblue" d="M2763.5,-62.54C2763.5,-50.17 2763.5,-34.62 2763.5,-25.13"/>
<polygon fill="midnightblue" stroke="midnightblue" points="2760,-62.73 2763.5,-72.73 2767,-62.73 2760,-62.73"/>
</g>
<!-- Node63 -->
<g id="node49" class="node">
<title>Node63</title>
<g id="a_node49"><a xlink:href="parse__entity__sp__pl__cy__bonus_8c.html" target="_top" xlink:title=" ">
<polygon fill="none" stroke="black" points="2834,-0.5 2834,-30.5 2945,-30.5 2945,-0.5 2834,-0.5"/>
<text text-anchor="start" x="2842" y="-18.5" font-family="Helvetica,sans-Serif" font-size="10.00">src/parse_entity_sp</text>
<text text-anchor="middle" x="2889.5" y="-7.5" font-family="Helvetica,sans-Serif" font-size="10.00">_pl_cy_bonus.c</text>
</a>
</g>
</g>
<!-- Node61&#45;&gt;Node63 -->
<g id="edge49" class="edge">
<title>Node61&#45;&gt;Node63</title>
<path fill="none" stroke="midnightblue" d="M2789.29,-68.19C2810.49,-57.26 2840.44,-41.81 2862.07,-30.65"/>
<polygon fill="midnightblue" stroke="midnightblue" points="2787.51,-65.17 2780.23,-72.87 2790.72,-71.39 2787.51,-65.17"/>
</g>
</g>
</svg>
        <g id="navigator" transform="translate(0 0)" fill="#404254">
                <rect fill="#f2f5e9" fill-opacity="0.5" stroke="#606060" stroke-width=".5" x="0" y="0" width="60" height="60"/>
                <use id="zoomplus" xlink:href="#zoomPlus" x="17" y="9" onmousedown="handleZoom(evt,'in')"/>
                <use id="zoomminus" xlink:href="#zoomMin" x="42" y="9" onmousedown="handleZoom(evt,'out')"/>
                <use id="reset" xlink:href="#resetDef" x="30" y="36" onmousedown="handleReset()"/>
                <g id="arrowUp" xlink:href="#dirArrow" transform="translate(30 24)" onmousedown="handlePan(0,-1)">
                  <use xlink:href="#rim" fill="#404040">
                        <set attributeName="fill" to="#808080" begin="arrowUp.mouseover" end="arrowUp.mouseout"/>
                  </use>
                  <path fill="none" stroke="white" stroke-width="1.5" d="M0,-3.0v7 M-2.5,-0.5L0,-3.0L2.5,-0.5"/>
                </g>
                <g id="arrowRight" xlink:href="#dirArrow" transform="rotate(90) translate(36 -43)" onmousedown="handlePan(1,0)">
                  <use xlink:href="#rim" fill="#404040">
                        <set attributeName="fill" to="#808080" begin="arrowRight.mouseover" end="arrowRight.mouseout"/>
                  </use>
                  <path fill="none" stroke="white" stroke-width="1.5" d="M0,-3.0v7 M-2.5,-0.5L0,-3.0L2.5,-0.5"/>
                </g>
                <g id="arrowDown" xlink:href="#dirArrow" transform="rotate(180) translate(-30 -48)" onmousedown="handlePan(0,1)">
                  <use xlink:href="#rim" fill="#404040">
                        <set attributeName="fill" to="#808080" begin="arrowDown.mouseover" end="arrowDown.mouseout"/>
                  </use>
                  <path fill="none" stroke="white" stroke-width="1.5" d="M0,-3.0v7 M-2.5,-0.5L0,-3.0L2.5,-0.5"/>
                </g>
                <g id="arrowLeft" xlink:href="#dirArrow" transform="rotate(270) translate(-36 17)" onmousedown="handlePan(-1,0)">
                  <use xlink:href="#rim" fill="#404040">
                        <set attributeName="fill" to="#808080" begin="arrowLeft.mouseover" end="arrowLeft.mouseout"/>
                  </use>
                  <path fill="none" stroke="white" stroke-width="1.5" d="M0,-3.0v7 M-2.5,-0.5L0,-3.0L2.5,-0.5"/>
                </g>
        </g>
        <svg viewBox="0 0 15 15" width="100%" height="30px" preserveAspectRatio="xMaxYMin meet">
         <g id="arrow_out" transform="scale(0.3 0.3)">
          <a xlink:href="error__type_8h__dep__incl_org.svg" target="_base">
           <rect id="button" ry="5" rx="5" y="6" x="6" height="38" width="38"
                fill="#f2f5e9" fill-opacity="0.5" stroke="#606060" stroke-width="1.0"/>
           <path id="arrow"
             d="M 11.500037,31.436501 C 11.940474,20.09759 22.043105,11.32322 32.158766,21.979434 L 37.068811,17.246167 C 37.068811,17.246167 37.088388,32 37.088388,32 L 22.160133,31.978069 C 22.160133,31.978069 26.997745,27.140456 26.997745,27.140456 C 18.528582,18.264221 13.291696,25.230495 11.500037,31.436501 z"
             style="fill:#404040;"/>
          </a>
         </g>
        </svg>
</svg>
