<?xml version="1.0" encoding="UTF-8" standalone="no"?>
<!DOCTYPE svg PUBLIC "-//W3C//DTD SVG 1.1//EN"
 "http://www.w3.org/Graphics/SVG/1.1/DTD/svg11.dtd">
<!-- Generated by graphviz version 2.43.0 (0)
 -->
<!-- Title: inc/error_type.h Pages: 1 -->
<svg width="4321pt" height="274pt"
 viewBox="0.00 0.00 4321.00 274.00" xmlns="http://www.w3.org/2000/svg" xmlns:xlink="http://www.w3.org/1999/xlink">
<g id="graph0" class="graph" transform="scale(1 1) rotate(0) translate(4 270)">
<title>inc/error_type.h</title>
<!-- Node1 -->
<g id="node1" class="node">
<title>Node1</title>
<g id="a_node1"><a xlink:title=" ">
<polygon fill="#bfbfbf" stroke="black" points="1014.5,-246.5 1014.5,-265.5 1107.5,-265.5 1107.5,-246.5 1014.5,-246.5"/>
<text text-anchor="middle" x="1061" y="-253.5" font-family="Helvetica,sans-Serif" font-size="10.00">inc/error_type.h</text>
</a>
</g>
</g>
<!-- Node2 -->
<g id="node2" class="node">
<title>Node2</title>
<g id="a_node2"><a xlink:href="check_8h.html" target="_top" xlink:title=" ">
<polygon fill="none" stroke="black" points="353.5,-190.5 353.5,-209.5 424.5,-209.5 424.5,-190.5 353.5,-190.5"/>
<text text-anchor="middle" x="389" y="-197.5" font-family="Helvetica,sans-Serif" font-size="10.00">inc/check.h</text>
</a>
</g>
</g>
<!-- Node1&#45;&gt;Node2 -->
<g id="edge1" class="edge">
<title>Node1&#45;&gt;Node2</title>
<path fill="none" stroke="midnightblue" d="M1004.19,-250.43C869.75,-239.63 535.13,-212.74 424.87,-203.88"/>
<polygon fill="midnightblue" stroke="midnightblue" points="1004.03,-253.93 1014.28,-251.25 1004.59,-246.96 1004.03,-253.93"/>
</g>
<!-- Node8 -->
<g id="node8" class="node">
<title>Node8</title>
<g id="a_node8"><a xlink:href="check__bonus_8h.html" target="_top" xlink:title=" ">
<polygon fill="none" stroke="black" points="823,-190.5 823,-209.5 929,-209.5 929,-190.5 823,-190.5"/>
<text text-anchor="middle" x="876" y="-197.5" font-family="Helvetica,sans-Serif" font-size="10.00">inc/check_bonus.h</text>
</a>
</g>
</g>
<!-- Node1&#45;&gt;Node8 -->
<g id="edge7" class="edge">
<title>Node1&#45;&gt;Node8</title>
<path fill="none" stroke="midnightblue" d="M1021.83,-243.57C986.93,-233.38 936.65,-218.7 905.18,-209.52"/>
<polygon fill="midnightblue" stroke="midnightblue" points="1021.11,-247 1031.69,-246.44 1023.07,-240.28 1021.11,-247"/>
</g>
<!-- Node12 -->
<g id="node12" class="node">
<title>Node12</title>
<g id="a_node12"><a xlink:href="error__mlx_8h.html" target="_top" xlink:title=" ">
<polygon fill="none" stroke="black" points="1953,-190.5 1953,-209.5 2043,-209.5 2043,-190.5 1953,-190.5"/>
<text text-anchor="middle" x="1998" y="-197.5" font-family="Helvetica,sans-Serif" font-size="10.00">inc/error_mlx.h</text>
</a>
</g>
</g>
<!-- Node1&#45;&gt;Node12 -->
<g id="edge11" class="edge">
<title>Node1&#45;&gt;Node12</title>
<path fill="none" stroke="midnightblue" d="M1117.86,-251.72C1289.21,-241.85 1798.32,-212.51 1952.95,-203.6"/>
<polygon fill="midnightblue" stroke="midnightblue" points="1117.57,-248.23 1107.79,-252.3 1117.97,-255.22 1117.57,-248.23"/>
</g>
<!-- Node50 -->
<g id="node38" class="node">
<title>Node50</title>
<g id="a_node38"><a xlink:href="error__syscall_8h.html" target="_top" xlink:title=" ">
<polygon fill="none" stroke="black" points="1179.5,-190.5 1179.5,-209.5 1284.5,-209.5 1284.5,-190.5 1179.5,-190.5"/>
<text text-anchor="middle" x="1232" y="-197.5" font-family="Helvetica,sans-Serif" font-size="10.00">inc/error_syscall.h</text>
</a>
</g>
</g>
<!-- Node1&#45;&gt;Node50 -->
<g id="edge37" class="edge">
<title>Node1&#45;&gt;Node50</title>
<path fill="none" stroke="midnightblue" d="M1098.04,-243.3C1130.26,-233.13 1176.19,-218.62 1205.03,-209.52"/>
<polygon fill="midnightblue" stroke="midnightblue" points="1096.58,-240.09 1088.1,-246.44 1098.69,-246.77 1096.58,-240.09"/>
</g>
<!-- Node3 -->
<g id="node3" class="node">
<title>Node3</title>
<g id="a_node3"><a xlink:href="check_8c.html" target="_top" xlink:title=" ">
<polygon fill="none" stroke="black" points="533.5,-129 533.5,-148 604.5,-148 604.5,-129 533.5,-129"/>
<text text-anchor="middle" x="569" y="-136" font-family="Helvetica,sans-Serif" font-size="10.00">src/check.c</text>
</a>
</g>
</g>
<!-- Node2&#45;&gt;Node3 -->
<g id="edge2" class="edge">
<title>Node2&#45;&gt;Node3</title>
<path fill="none" stroke="midnightblue" d="M424.6,-187.23C459.59,-175.67 512.14,-158.3 543.26,-148.01"/>
<polygon fill="midnightblue" stroke="midnightblue" points="423.19,-184.01 414.79,-190.48 425.38,-190.66 423.19,-184.01"/>
</g>
<!-- Node4 -->
<g id="node4" class="node">
<title>Node4</title>
<g id="a_node4"><a xlink:href="check__entity___a_c_l_8c.html" target="_top" xlink:title=" ">
<polygon fill="none" stroke="black" points="0,-129 0,-148 128,-148 128,-129 0,-129"/>
<text text-anchor="middle" x="64" y="-136" font-family="Helvetica,sans-Serif" font-size="10.00">src/check_entity_ACL.c</text>
</a>
</g>
</g>
<!-- Node2&#45;&gt;Node4 -->
<g id="edge3" class="edge">
<title>Node2&#45;&gt;Node4</title>
<path fill="none" stroke="midnightblue" d="M343.54,-191.16C293.04,-182.38 209.11,-167.6 137,-154 127.1,-152.13 116.45,-150.06 106.43,-148.07"/>
<polygon fill="midnightblue" stroke="midnightblue" points="343.04,-194.62 353.49,-192.88 344.23,-187.72 343.04,-194.62"/>
</g>
<!-- Node5 -->
<g id="node5" class="node">
<title>Node5</title>
<g id="a_node5"><a xlink:href="check__entity__sp__pl__cy_8c.html" target="_top" xlink:title=" ">
<polygon fill="none" stroke="black" points="146.5,-123.5 146.5,-153.5 259.5,-153.5 259.5,-123.5 146.5,-123.5"/>
<text text-anchor="start" x="154.5" y="-141.5" font-family="Helvetica,sans-Serif" font-size="10.00">src/check_entity_sp</text>
<text text-anchor="middle" x="203" y="-130.5" font-family="Helvetica,sans-Serif" font-size="10.00">_pl_cy.c</text>
</a>
</g>
</g>
<!-- Node2&#45;&gt;Node5 -->
<g id="edge4" class="edge">
<title>Node2&#45;&gt;Node5</title>
<path fill="none" stroke="midnightblue" d="M352.6,-187.36C322.3,-177.66 279.05,-163.83 246.84,-153.52"/>
<polygon fill="midnightblue" stroke="midnightblue" points="351.76,-190.76 362.35,-190.48 353.89,-184.09 351.76,-190.76"/>
</g>
<!-- Node6 -->
<g id="node6" class="node">
<title>Node6</title>
<g id="a_node6"><a xlink:href="check__line_8c.html" target="_top" xlink:title=" ">
<polygon fill="none" stroke="black" points="278,-129 278,-148 372,-148 372,-129 278,-129"/>
<text text-anchor="middle" x="325" y="-136" font-family="Helvetica,sans-Serif" font-size="10.00">src/check_line.c</text>
</a>
</g>
</g>
<!-- Node2&#45;&gt;Node6 -->
<g id="edge5" class="edge">
<title>Node2&#45;&gt;Node6</title>
<path fill="none" stroke="midnightblue" d="M372.49,-183.65C360.29,-172.31 344.13,-157.28 334.15,-148.01"/>
<polygon fill="midnightblue" stroke="midnightblue" points="370.12,-186.23 379.83,-190.48 374.89,-181.1 370.12,-186.23"/>
</g>
<!-- Node7 -->
<g id="node7" class="node">
<title>Node7</title>
<g id="a_node7"><a xlink:href="error__msg__check_8c.html" target="_top" xlink:title=" ">
<polygon fill="none" stroke="black" points="390.5,-129 390.5,-148 515.5,-148 515.5,-129 390.5,-129"/>
<text text-anchor="middle" x="453" y="-136" font-family="Helvetica,sans-Serif" font-size="10.00">src/error_msg_check.c</text>
</a>
</g>
</g>
<!-- Node2&#45;&gt;Node7 -->
<g id="edge6" class="edge">
<title>Node2&#45;&gt;Node7</title>
<path fill="none" stroke="midnightblue" d="M405.51,-183.65C417.71,-172.31 433.87,-157.28 443.85,-148.01"/>
<polygon fill="midnightblue" stroke="midnightblue" points="403.11,-181.1 398.17,-190.48 407.88,-186.23 403.11,-181.1"/>
</g>
<!-- Node9 -->
<g id="node9" class="node">
<title>Node9</title>
<g id="a_node9"><a xlink:href="check__bonus_8c.html" target="_top" xlink:title=" ">
<polygon fill="none" stroke="black" points="888.5,-129 888.5,-148 993.5,-148 993.5,-129 888.5,-129"/>
<text text-anchor="middle" x="941" y="-136" font-family="Helvetica,sans-Serif" font-size="10.00">src/check_bonus.c</text>
</a>
</g>
</g>
<!-- Node8&#45;&gt;Node9 -->
<g id="edge8" class="edge">
<title>Node8&#45;&gt;Node9</title>
<path fill="none" stroke="midnightblue" d="M892.77,-183.65C905.16,-172.31 921.58,-157.28 931.7,-148.01"/>
<polygon fill="midnightblue" stroke="midnightblue" points="890.33,-181.14 885.31,-190.48 895.05,-186.3 890.33,-181.14"/>
</g>
<!-- Node10 -->
<g id="node10" class="node">
<title>Node10</title>
<g id="a_node10"><a xlink:href="check__entity__sp__pl__cy__bonus_8c.html" target="_top" xlink:title=" ">
<polygon fill="none" stroke="black" points="622.5,-123.5 622.5,-153.5 735.5,-153.5 735.5,-123.5 622.5,-123.5"/>
<text text-anchor="start" x="630.5" y="-141.5" font-family="Helvetica,sans-Serif" font-size="10.00">src/check_entity_sp</text>
<text text-anchor="middle" x="679" y="-130.5" font-family="Helvetica,sans-Serif" font-size="10.00">_pl_cy_bonus.c</text>
</a>
</g>
</g>
<!-- Node8&#45;&gt;Node10 -->
<g id="edge9" class="edge">
<title>Node8&#45;&gt;Node10</title>
<path fill="none" stroke="midnightblue" d="M837.87,-187.48C805.75,-177.78 759.69,-163.87 725.43,-153.52"/>
<polygon fill="midnightblue" stroke="midnightblue" points="837.19,-190.93 847.77,-190.48 839.21,-184.23 837.19,-190.93"/>
</g>
<!-- Node11 -->
<g id="node11" class="node">
<title>Node11</title>
<g id="a_node11"><a xlink:href="error__msg__check__bonus_8c.html" target="_top" xlink:title=" ">
<polygon fill="none" stroke="black" points="753.5,-123.5 753.5,-153.5 870.5,-153.5 870.5,-123.5 753.5,-123.5"/>
<text text-anchor="start" x="761.5" y="-141.5" font-family="Helvetica,sans-Serif" font-size="10.00">src/error_msg_check</text>
<text text-anchor="middle" x="812" y="-130.5" font-family="Helvetica,sans-Serif" font-size="10.00">_bonus.c</text>
</a>
</g>
</g>
<!-- Node8&#45;&gt;Node11 -->
<g id="edge10" class="edge">
<title>Node8&#45;&gt;Node11</title>
<path fill="none" stroke="midnightblue" d="M859.48,-183.65C849.48,-174.35 836.82,-162.57 827.08,-153.52"/>
<polygon fill="midnightblue" stroke="midnightblue" points="857.12,-186.23 866.83,-190.48 861.89,-181.1 857.12,-186.23"/>
</g>
<!-- Node13 -->
<g id="node13" class="node">
<title>Node13</title>
<g id="a_node13"><a xlink:href="render_8h.html" target="_top" xlink:title=" ">
<polygon fill="none" stroke="black" points="3180,-129 3180,-148 3254,-148 3254,-129 3180,-129"/>
<text text-anchor="middle" x="3217" y="-136" font-family="Helvetica,sans-Serif" font-size="10.00">inc/render.h</text>
</a>
</g>
</g>
<!-- Node12&#45;&gt;Node13 -->
<g id="edge12" class="edge">
<title>Node12&#45;&gt;Node13</title>
<path fill="none" stroke="midnightblue" d="M2053.35,-196.3C2262.95,-186.07 3004.92,-149.85 3179.85,-141.31"/>
<polygon fill="midnightblue" stroke="midnightblue" points="2053.01,-192.81 2043.2,-196.79 2053.35,-199.8 2053.01,-192.81"/>
</g>
<!-- Node30 -->
<g id="node30" class="node">
<title>Node30</title>
<g id="a_node30"><a xlink:href="render__bonus_8h.html" target="_top" xlink:title=" ">
<polygon fill="none" stroke="black" points="1865.5,-129 1865.5,-148 1974.5,-148 1974.5,-129 1865.5,-129"/>
<text text-anchor="middle" x="1920" y="-136" font-family="Helvetica,sans-Serif" font-size="10.00">inc/render_bonus.h</text>
</a>
</g>
</g>
<!-- Node12&#45;&gt;Node30 -->
<g id="edge29" class="edge">
<title>Node12&#45;&gt;Node30</title>
<path fill="none" stroke="midnightblue" d="M1978.72,-184.29C1963.76,-172.88 1943.54,-157.46 1931.15,-148.01"/>
<polygon fill="midnightblue" stroke="midnightblue" points="1976.75,-187.19 1986.82,-190.48 1981,-181.63 1976.75,-187.19"/>
</g>
<!-- Node49 -->
<g id="node37" class="node">
<title>Node49</title>
<g id="a_node37"><a xlink:href="error__mlx_8c.html" target="_top" xlink:title=" ">
<polygon fill="none" stroke="black" points="2031.5,-129 2031.5,-148 2120.5,-148 2120.5,-129 2031.5,-129"/>
<text text-anchor="middle" x="2076" y="-136" font-family="Helvetica,sans-Serif" font-size="10.00">src/error_mlx.c</text>
</a>
</g>
</g>
<!-- Node12&#45;&gt;Node49 -->
<g id="edge36" class="edge">
<title>Node12&#45;&gt;Node49</title>
<path fill="none" stroke="midnightblue" d="M2017.28,-184.29C2032.24,-172.88 2052.46,-157.46 2064.85,-148.01"/>
<polygon fill="midnightblue" stroke="midnightblue" points="2015,-181.63 2009.18,-190.48 2019.25,-187.19 2015,-181.63"/>
</g>
<!-- Node14 -->
<g id="node14" class="node">
<title>Node14</title>
<g id="a_node14"><a xlink:href="render__compose__image_8c.html" target="_top" xlink:title=" ">
<polygon fill="none" stroke="black" points="2639.5,-56.5 2639.5,-86.5 2754.5,-86.5 2754.5,-56.5 2639.5,-56.5"/>
<text text-anchor="start" x="2647.5" y="-74.5" font-family="Helvetica,sans-Serif" font-size="10.00">src/render_compose</text>
<text text-anchor="middle" x="2697" y="-63.5" font-family="Helvetica,sans-Serif" font-size="10.00">_image.c</text>
</a>
</g>
</g>
<!-- Node13&#45;&gt;Node14 -->
<g id="edge13" class="edge">
<title>Node13&#45;&gt;Node14</title>
<path fill="none" stroke="midnightblue" d="M3169.75,-133.83C3087.13,-127.06 2911.16,-111.06 2764,-87 2760.95,-86.5 2757.82,-85.95 2754.67,-85.37"/>
<polygon fill="midnightblue" stroke="midnightblue" points="3169.58,-137.33 3179.83,-134.65 3170.15,-130.35 3169.58,-137.33"/>
</g>
<!-- Node15 -->
<g id="node15" class="node">
<title>Node15</title>
<g id="a_node15"><a xlink:href="render__draw_8c.html" target="_top" xlink:title=" ">
<polygon fill="none" stroke="black" points="2773,-62 2773,-81 2875,-81 2875,-62 2773,-62"/>
<text text-anchor="middle" x="2824" y="-69" font-family="Helvetica,sans-Serif" font-size="10.00">src/render_draw.c</text>
</a>
</g>
</g>
<!-- Node13&#45;&gt;Node15 -->
<g id="edge14" class="edge">
<title>Node13&#45;&gt;Node15</title>
<path fill="none" stroke="midnightblue" d="M3169.72,-131.56C3105.13,-123.15 2985.83,-106.62 2885,-87 2876.13,-85.27 2866.6,-83.14 2857.77,-81.05"/>
<polygon fill="midnightblue" stroke="midnightblue" points="3169.62,-135.07 3179.98,-132.88 3170.51,-128.13 3169.62,-135.07"/>
</g>
<!-- Node16 -->
<g id="node16" class="node">
<title>Node16</title>
<g id="a_node16"><a xlink:href="render__init__mlx_8c.html" target="_top" xlink:title=" ">
<polygon fill="none" stroke="black" points="2893.5,-62 2893.5,-81 3012.5,-81 3012.5,-62 2893.5,-62"/>
<text text-anchor="middle" x="2953" y="-69" font-family="Helvetica,sans-Serif" font-size="10.00">src/render_init_mlx.c</text>
</a>
</g>
</g>
<!-- Node13&#45;&gt;Node16 -->
<g id="edge15" class="edge">
<title>Node13&#45;&gt;Node16</title>
<path fill="none" stroke="midnightblue" d="M3172.26,-126.48C3120.18,-113.66 3035.29,-92.76 2987.86,-81.08"/>
<polygon fill="midnightblue" stroke="midnightblue" points="3171.67,-129.94 3182.22,-128.94 3173.34,-123.15 3171.67,-129.94"/>
</g>
<!-- Node17 -->
<g id="node17" class="node">
<title>Node17</title>
<g id="a_node17"><a xlink:href="render__keyhook__camera_8c.html" target="_top" xlink:title=" ">
<polygon fill="none" stroke="black" points="3031,-56.5 3031,-86.5 3143,-86.5 3143,-56.5 3031,-56.5"/>
<text text-anchor="start" x="3039" y="-74.5" font-family="Helvetica,sans-Serif" font-size="10.00">src/render_keyhook</text>
<text text-anchor="middle" x="3087" y="-63.5" font-family="Helvetica,sans-Serif" font-size="10.00">_camera.c</text>
</a>
</g>
</g>
<!-- Node13&#45;&gt;Node17 -->
<g id="edge16" class="edge">
<title>Node13&#45;&gt;Node17</title>
<path fill="none" stroke="midnightblue" d="M3190.68,-124.34C3168.8,-113.4 3137.72,-97.86 3115.3,-86.65"/>
<polygon fill="midnightblue" stroke="midnightblue" points="3189.23,-127.53 3199.74,-128.87 3192.36,-121.27 3189.23,-127.53"/>
</g>
<!-- Node18 -->
<g id="node18" class="node">
<title>Node18</title>
<g id="a_node18"><a xlink:href="render__keyhook__colour_8c.html" target="_top" xlink:title=" ">
<polygon fill="none" stroke="black" points="3161,-56.5 3161,-86.5 3273,-86.5 3273,-56.5 3161,-56.5"/>
<text text-anchor="start" x="3169" y="-74.5" font-family="Helvetica,sans-Serif" font-size="10.00">src/render_keyhook</text>
<text text-anchor="middle" x="3217" y="-63.5" font-family="Helvetica,sans-Serif" font-size="10.00">_colour.c</text>
</a>
</g>
</g>
<!-- Node13&#45;&gt;Node18 -->
<g id="edge17" class="edge">
<title>Node13&#45;&gt;Node18</title>
<path fill="none" stroke="midnightblue" d="M3217,-118.41C3217,-108.22 3217,-95.9 3217,-86.59"/>
<polygon fill="midnightblue" stroke="midnightblue" points="3213.5,-118.73 3217,-128.73 3220.5,-118.73 3213.5,-118.73"/>
</g>
<!-- Node19 -->
<g id="node19" class="node">
<title>Node19</title>
<g id="a_node19"><a xlink:href="render__keyhook__hittable_8c.html" target="_top" xlink:title=" ">
<polygon fill="none" stroke="black" points="3291,-56.5 3291,-86.5 3403,-86.5 3403,-56.5 3291,-56.5"/>
<text text-anchor="start" x="3299" y="-74.5" font-family="Helvetica,sans-Serif" font-size="10.00">src/render_keyhook</text>
<text text-anchor="middle" x="3347" y="-63.5" font-family="Helvetica,sans-Serif" font-size="10.00">_hittable.c</text>
</a>
</g>
</g>
<!-- Node13&#45;&gt;Node19 -->
<g id="edge18" class="edge">
<title>Node13&#45;&gt;Node19</title>
<path fill="none" stroke="midnightblue" d="M3243.32,-124.34C3265.2,-113.4 3296.28,-97.86 3318.7,-86.65"/>
<polygon fill="midnightblue" stroke="midnightblue" points="3241.64,-121.27 3234.26,-128.87 3244.77,-127.53 3241.64,-121.27"/>
</g>
<!-- Node20 -->
<g id="node20" class="node">
<title>Node20</title>
<g id="a_node20"><a xlink:href="render__keyhook__light_8c.html" target="_top" xlink:title=" ">
<polygon fill="none" stroke="black" points="3421,-56.5 3421,-86.5 3533,-86.5 3533,-56.5 3421,-56.5"/>
<text text-anchor="start" x="3429" y="-74.5" font-family="Helvetica,sans-Serif" font-size="10.00">src/render_keyhook</text>
<text text-anchor="middle" x="3477" y="-63.5" font-family="Helvetica,sans-Serif" font-size="10.00">_light.c</text>
</a>
</g>
</g>
<!-- Node13&#45;&gt;Node20 -->
<g id="edge19" class="edge">
<title>Node13&#45;&gt;Node20</title>
<path fill="none" stroke="midnightblue" d="M3261.09,-126.48C3305.1,-115.47 3372.9,-98.52 3420.76,-86.56"/>
<polygon fill="midnightblue" stroke="midnightblue" points="3260.11,-123.11 3251.26,-128.94 3261.81,-129.91 3260.11,-123.11"/>
</g>
<!-- Node21 -->
<g id="node21" class="node">
<title>Node21</title>
<g id="a_node21"><a xlink:href="render__keyhook__options_8c.html" target="_top" xlink:title=" ">
<polygon fill="none" stroke="black" points="3551,-56.5 3551,-86.5 3663,-86.5 3663,-56.5 3551,-56.5"/>
<text text-anchor="start" x="3559" y="-74.5" font-family="Helvetica,sans-Serif" font-size="10.00">src/render_keyhook</text>
<text text-anchor="middle" x="3607" y="-63.5" font-family="Helvetica,sans-Serif" font-size="10.00">_options.c</text>
</a>
</g>
</g>
<!-- Node13&#45;&gt;Node21 -->
<g id="edge20" class="edge">
<title>Node13&#45;&gt;Node21</title>
<path fill="none" stroke="midnightblue" d="M3264.27,-131.14C3327.67,-122.39 3443.68,-105.59 3542,-87 3544.84,-86.46 3547.75,-85.89 3550.68,-85.3"/>
<polygon fill="midnightblue" stroke="midnightblue" points="3263.61,-127.7 3254.18,-132.53 3264.56,-134.64 3263.61,-127.7"/>
</g>
<!-- Node22 -->
<g id="node22" class="node">
<title>Node22</title>
<g id="a_node22"><a xlink:href="render__keyhook__options__bonus_8c.html" target="_top" xlink:title=" ">
<polygon fill="none" stroke="black" points="3681,-56.5 3681,-86.5 3793,-86.5 3793,-56.5 3681,-56.5"/>
<text text-anchor="start" x="3689" y="-74.5" font-family="Helvetica,sans-Serif" font-size="10.00">src/render_keyhook</text>
<text text-anchor="middle" x="3737" y="-63.5" font-family="Helvetica,sans-Serif" font-size="10.00">_options_bonus.c</text>
</a>
</g>
</g>
<!-- Node13&#45;&gt;Node22 -->
<g id="edge21" class="edge">
<title>Node13&#45;&gt;Node22</title>
<path fill="none" stroke="midnightblue" d="M3264.16,-133.97C3347.04,-127.39 3524.08,-111.63 3672,-87 3674.85,-86.53 3677.77,-86 3680.7,-85.45"/>
<polygon fill="midnightblue" stroke="midnightblue" points="3263.74,-130.49 3254.05,-134.76 3264.29,-137.47 3263.74,-130.49"/>
</g>
<!-- Node23 -->
<g id="node23" class="node">
<title>Node23</title>
<g id="a_node23"><a xlink:href="render__keyhook__press_8c.html" target="_top" xlink:title=" ">
<polygon fill="none" stroke="black" points="3811,-56.5 3811,-86.5 3923,-86.5 3923,-56.5 3811,-56.5"/>
<text text-anchor="start" x="3819" y="-74.5" font-family="Helvetica,sans-Serif" font-size="10.00">src/render_keyhook</text>
<text text-anchor="middle" x="3867" y="-63.5" font-family="Helvetica,sans-Serif" font-size="10.00">_press.c</text>
</a>
</g>
</g>
<!-- Node13&#45;&gt;Node23 -->
<g id="edge22" class="edge">
<title>Node13&#45;&gt;Node23</title>
<path fill="none" stroke="midnightblue" d="M3264.23,-135.56C3364.02,-131 3603.49,-117.57 3802,-87 3804.86,-86.56 3807.78,-86.07 3810.72,-85.54"/>
<polygon fill="midnightblue" stroke="midnightblue" points="3264,-132.07 3254.16,-136.01 3264.31,-139.06 3264,-132.07"/>
</g>
<!-- Node24 -->
<g id="node24" class="node">
<title>Node24</title>
<g id="a_node24"><a xlink:href="render__keyhook__release_8c.html" target="_top" xlink:title=" ">
<polygon fill="none" stroke="black" points="3941,-56.5 3941,-86.5 4053,-86.5 4053,-56.5 3941,-56.5"/>
<text text-anchor="start" x="3949" y="-74.5" font-family="Helvetica,sans-Serif" font-size="10.00">src/render_keyhook</text>
<text text-anchor="middle" x="3997" y="-63.5" font-family="Helvetica,sans-Serif" font-size="10.00">_release.c</text>
</a>
</g>
</g>
<!-- Node13&#45;&gt;Node24 -->
<g id="edge23" class="edge">
<title>Node13&#45;&gt;Node24</title>
<path fill="none" stroke="midnightblue" d="M3264.25,-136.59C3379.16,-133.86 3682.14,-123.49 3932,-87 3934.86,-86.58 3937.78,-86.11 3940.73,-85.59"/>
<polygon fill="midnightblue" stroke="midnightblue" points="3263.96,-133.1 3254.05,-136.83 3264.12,-140.1 3263.96,-133.1"/>
</g>
<!-- Node25 -->
<g id="node25" class="node">
<title>Node25</title>
<g id="a_node25"><a xlink:href="render__keyhook__scene_8c.html" target="_top" xlink:title=" ">
<polygon fill="none" stroke="black" points="4071,-56.5 4071,-86.5 4183,-86.5 4183,-56.5 4071,-56.5"/>
<text text-anchor="start" x="4079" y="-74.5" font-family="Helvetica,sans-Serif" font-size="10.00">src/render_keyhook</text>
<text text-anchor="middle" x="4127" y="-63.5" font-family="Helvetica,sans-Serif" font-size="10.00">_scene.c</text>
</a>
</g>
</g>
<!-- Node13&#45;&gt;Node25 -->
<g id="edge24" class="edge">
<title>Node13&#45;&gt;Node25</title>
<path fill="none" stroke="midnightblue" d="M3264.58,-137.31C3393.57,-136.23 3760.49,-129.36 4062,-87 4064.86,-86.6 4067.79,-86.14 4070.73,-85.63"/>
<polygon fill="midnightblue" stroke="midnightblue" points="3264.25,-133.82 3254.27,-137.39 3264.3,-140.81 3264.25,-133.82"/>
</g>
<!-- Node26 -->
<g id="node26" class="node">
<title>Node26</title>
<g id="a_node26"><a xlink:href="render__keyhook__utils_8c.html" target="_top" xlink:title=" ">
<polygon fill="none" stroke="black" points="4201,-56.5 4201,-86.5 4313,-86.5 4313,-56.5 4201,-56.5"/>
<text text-anchor="start" x="4209" y="-74.5" font-family="Helvetica,sans-Serif" font-size="10.00">src/render_keyhook</text>
<text text-anchor="middle" x="4257" y="-63.5" font-family="Helvetica,sans-Serif" font-size="10.00">_utils.c</text>
</a>
</g>
</g>
<!-- Node13&#45;&gt;Node26 -->
<g id="edge25" class="edge">
<title>Node13&#45;&gt;Node26</title>
<path fill="none" stroke="midnightblue" d="M3264.49,-137.85C3406.19,-138.3 3838.1,-135.29 4192,-87 4194.86,-86.61 4197.79,-86.16 4200.73,-85.66"/>
<polygon fill="midnightblue" stroke="midnightblue" points="3264.42,-134.35 3254.4,-137.81 3264.39,-141.35 3264.42,-134.35"/>
</g>
<!-- Node27 -->
<g id="node27" class="node">
<title>Node27</title>
<g id="a_node27"><a xlink:href="render__loop__mlx_8c.html" target="_top" xlink:title=" ">
<polygon fill="none" stroke="black" points="2367,-62 2367,-81 2491,-81 2491,-62 2367,-62"/>
<text text-anchor="middle" x="2429" y="-69" font-family="Helvetica,sans-Serif" font-size="10.00">src/render_loop_mlx.c</text>
</a>
</g>
</g>
<!-- Node13&#45;&gt;Node27 -->
<g id="edge26" class="edge">
<title>Node13&#45;&gt;Node27</title>
<path fill="none" stroke="midnightblue" d="M3169.66,-136.31C3054.52,-132.95 2750.88,-121.3 2500,-87 2488.91,-85.48 2476.94,-83.27 2466.06,-81.02"/>
<polygon fill="midnightblue" stroke="midnightblue" points="3169.79,-139.82 3179.88,-136.6 3169.99,-132.82 3169.79,-139.82"/>
</g>
<!-- Node28 -->
<g id="node28" class="node">
<title>Node28</title>
<g id="a_node28"><a xlink:href="render__mouse_8c.html" target="_top" xlink:title=" ">
<polygon fill="none" stroke="black" points="2509,-62 2509,-81 2621,-81 2621,-62 2509,-62"/>
<text text-anchor="middle" x="2565" y="-69" font-family="Helvetica,sans-Serif" font-size="10.00">src/render_mouse.c</text>
</a>
</g>
</g>
<!-- Node13&#45;&gt;Node28 -->
<g id="edge27" class="edge">
<title>Node13&#45;&gt;Node28</title>
<path fill="none" stroke="midnightblue" d="M3169.7,-135.52C3069.75,-130.87 2829.9,-117.29 2631,-87 2620.79,-85.45 2609.81,-83.25 2599.78,-81.03"/>
<polygon fill="midnightblue" stroke="midnightblue" points="3169.63,-139.02 3179.78,-135.98 3169.95,-132.02 3169.63,-139.02"/>
</g>
<!-- Node29 -->
<g id="node29" class="node">
<title>Node29</title>
<g id="a_node29"><a xlink:href="render__output__ppm_8c.html" target="_top" xlink:title=" ">
<polygon fill="none" stroke="black" points="2211.5,-62 2211.5,-81 2348.5,-81 2348.5,-62 2211.5,-62"/>
<text text-anchor="middle" x="2280" y="-69" font-family="Helvetica,sans-Serif" font-size="10.00">src/render_output_ppm.c</text>
</a>
</g>
</g>
<!-- Node13&#45;&gt;Node29 -->
<g id="edge28" class="edge">
<title>Node13&#45;&gt;Node29</title>
<path fill="none" stroke="midnightblue" d="M3169.56,-136.79C3039.4,-134.4 2665.9,-124.52 2358,-87 2345.83,-85.52 2332.7,-83.31 2320.74,-81.07"/>
<polygon fill="midnightblue" stroke="midnightblue" points="3169.53,-140.29 3179.59,-136.97 3169.66,-133.29 3169.53,-140.29"/>
</g>
<!-- Node31 -->
<g id="node31" class="node">
<title>Node31</title>
<g id="a_node31"><a xlink:href="menu__put_8h.html" target="_top" xlink:title=" ">
<polygon fill="none" stroke="red" points="1813,-62 1813,-81 1905,-81 1905,-62 1813,-62"/>
<text text-anchor="middle" x="1859" y="-69" font-family="Helvetica,sans-Serif" font-size="10.00">inc/menu_put.h</text>
</a>
</g>
</g>
<!-- Node30&#45;&gt;Node31 -->
<g id="edge30" class="edge">
<title>Node30&#45;&gt;Node31</title>
<path fill="none" stroke="midnightblue" d="M1904.64,-121.13C1892.71,-108.42 1876.64,-91.3 1867.1,-81.13"/>
<polygon fill="midnightblue" stroke="midnightblue" points="1902.38,-123.84 1911.77,-128.73 1907.48,-119.05 1902.38,-123.84"/>
</g>
<!-- Node45 -->
<g id="node34" class="node">
<title>Node45</title>
<g id="a_node34"><a xlink:href="mini_r_t_8h.html" target="_top" xlink:title=" ">
<polygon fill="none" stroke="red" points="1719,-62 1719,-81 1795,-81 1795,-62 1719,-62"/>
<text text-anchor="middle" x="1757" y="-69" font-family="Helvetica,sans-Serif" font-size="10.00">inc/miniRT.h</text>
</a>
</g>
</g>
<!-- Node30&#45;&gt;Node45 -->
<g id="edge33" class="edge">
<title>Node30&#45;&gt;Node45</title>
<path fill="none" stroke="midnightblue" d="M1888.92,-125.1C1856.55,-112.2 1806.72,-92.33 1778.48,-81.06"/>
<polygon fill="midnightblue" stroke="midnightblue" points="1887.77,-128.42 1898.35,-128.87 1890.36,-121.91 1887.77,-128.42"/>
</g>
<!-- Node47 -->
<g id="node35" class="node">
<title>Node47</title>
<g id="a_node35"><a xlink:href="render__compose__image__bonus_8c.html" target="_top" xlink:title=" ">
<polygon fill="none" stroke="black" points="1923.5,-56.5 1923.5,-86.5 2038.5,-86.5 2038.5,-56.5 1923.5,-56.5"/>
<text text-anchor="start" x="1931.5" y="-74.5" font-family="Helvetica,sans-Serif" font-size="10.00">src/render_compose</text>
<text text-anchor="middle" x="1981" y="-63.5" font-family="Helvetica,sans-Serif" font-size="10.00">_image_bonus.c</text>
</a>
</g>
</g>
<!-- Node30&#45;&gt;Node47 -->
<g id="edge34" class="edge">
<title>Node30&#45;&gt;Node47</title>
<path fill="none" stroke="midnightblue" d="M1935.2,-121.3C1945.21,-110.63 1958.19,-96.8 1967.78,-86.59"/>
<polygon fill="midnightblue" stroke="midnightblue" points="1932.52,-119.05 1928.23,-128.73 1937.62,-123.84 1932.52,-119.05"/>
</g>
<!-- Node48 -->
<g id="node36" class="node">
<title>Node48</title>
<g id="a_node36"><a xlink:href="render__draw__bonus_8c.html" target="_top" xlink:title=" ">
<polygon fill="none" stroke="black" points="2056.5,-62 2056.5,-81 2193.5,-81 2193.5,-62 2056.5,-62"/>
<text text-anchor="middle" x="2125" y="-69" font-family="Helvetica,sans-Serif" font-size="10.00">src/render_draw_bonus.c</text>
</a>
</g>
</g>
<!-- Node30&#45;&gt;Node48 -->
<g id="edge35" class="edge">
<title>Node30&#45;&gt;Node48</title>
<path fill="none" stroke="midnightblue" d="M1957.01,-125.77C1997.63,-112.89 2061.86,-92.52 2097.99,-81.06"/>
<polygon fill="midnightblue" stroke="midnightblue" points="1955.7,-122.51 1947.22,-128.87 1957.81,-129.18 1955.7,-122.51"/>
</g>
<!-- Node32 -->
<g id="node32" class="node">
<title>Node32</title>
<g id="a_node32"><a xlink:href="menu__put__bonus_8h.html" target="_top" xlink:title=" ">
<polygon fill="none" stroke="red" points="1719,-0.5 1719,-19.5 1845,-19.5 1845,-0.5 1719,-0.5"/>
<text text-anchor="middle" x="1782" y="-7.5" font-family="Helvetica,sans-Serif" font-size="10.00">inc/menu_put_bonus.h</text>
</a>
</g>
</g>
<!-- Node31&#45;&gt;Node32 -->
<g id="edge31" class="edge">
<title>Node31&#45;&gt;Node32</title>
<path fill="none" stroke="midnightblue" d="M1839.97,-55.79C1825.2,-44.38 1805.24,-28.96 1793.01,-19.51"/>
<polygon fill="midnightblue" stroke="midnightblue" points="1837.91,-58.63 1847.97,-61.98 1842.19,-53.09 1837.91,-58.63"/>
</g>
<!-- Node34 -->
<g id="node33" class="node">
<title>Node34</title>
<g id="a_node33"><a xlink:href="menu__put__cam__light_8c.html" target="_top" xlink:title=" ">
<polygon fill="none" stroke="black" points="1863,-0.5 1863,-19.5 2007,-19.5 2007,-0.5 1863,-0.5"/>
<text text-anchor="middle" x="1935" y="-7.5" font-family="Helvetica,sans-Serif" font-size="10.00">src/menu_put_cam_light.c</text>
</a>
</g>
</g>
<!-- Node31&#45;&gt;Node34 -->
<g id="edge32" class="edge">
<title>Node31&#45;&gt;Node34</title>
<path fill="none" stroke="midnightblue" d="M1877.78,-55.79C1892.36,-44.38 1912.06,-28.96 1924.13,-19.51"/>
<polygon fill="midnightblue" stroke="midnightblue" points="1875.61,-53.05 1869.89,-61.98 1879.92,-58.57 1875.61,-53.05"/>
</g>
<!-- Node50&#45;&gt;Node29 -->
<g id="edge51" class="edge">
<title>Node50&#45;&gt;Node29</title>
<path fill="none" stroke="midnightblue" d="M1294.95,-197.41C1464.2,-192.81 1920.52,-178.31 1984,-154 2004.68,-146.08 2002.9,-132.29 2023,-123 2027.82,-120.77 2162.73,-94.85 2235.1,-81.04"/>
<polygon fill="midnightblue" stroke="midnightblue" points="1294.61,-193.91 1284.7,-197.68 1294.79,-200.91 1294.61,-193.91"/>
</g>
<!-- Node51 -->
<g id="node39" class="node">
<title>Node51</title>
<g id="a_node39"><a xlink:href="import__file_8h.html" target="_top" xlink:title=" ">
<polygon fill="none" stroke="black" points="1134.5,-129 1134.5,-148 1229.5,-148 1229.5,-129 1134.5,-129"/>
<text text-anchor="middle" x="1182" y="-136" font-family="Helvetica,sans-Serif" font-size="10.00">inc/import_file.h</text>
</a>
</g>
</g>
<!-- Node50&#45;&gt;Node51 -->
<g id="edge38" class="edge">
<title>Node50&#45;&gt;Node51</title>
<path fill="none" stroke="midnightblue" d="M1218.28,-182.67C1208.85,-171.45 1196.72,-157.02 1189.15,-148.01"/>
<polygon fill="midnightblue" stroke="midnightblue" points="1215.72,-185.07 1224.84,-190.48 1221.08,-180.57 1215.72,-185.07"/>
</g>
<!-- Node54 -->
<g id="node42" class="node">
<title>Node54</title>
<g id="a_node42"><a xlink:href="parse_8h.html" target="_top" xlink:title=" ">
<polygon fill="none" stroke="black" points="1248,-129 1248,-148 1318,-148 1318,-129 1248,-129"/>
<text text-anchor="middle" x="1283" y="-136" font-family="Helvetica,sans-Serif" font-size="10.00">inc/parse.h</text>
</a>
</g>
</g>
<!-- Node50&#45;&gt;Node54 -->
<g id="edge41" class="edge">
<title>Node50&#45;&gt;Node54</title>
<path fill="none" stroke="midnightblue" d="M1246,-182.67C1255.61,-171.45 1267.99,-157.02 1275.71,-148.01"/>
<polygon fill="midnightblue" stroke="midnightblue" points="1243.16,-180.6 1239.31,-190.48 1248.47,-185.16 1243.16,-180.6"/>
</g>
<!-- Node59 -->
<g id="node47" class="node">
<title>Node59</title>
<g id="a_node47"><a xlink:href="parse__bonus_8h.html" target="_top" xlink:title=" ">
<polygon fill="none" stroke="black" points="1530,-129 1530,-148 1634,-148 1634,-129 1530,-129"/>
<text text-anchor="middle" x="1582" y="-136" font-family="Helvetica,sans-Serif" font-size="10.00">inc/parse_bonus.h</text>
</a>
</g>
</g>
<!-- Node50&#45;&gt;Node59 -->
<g id="edge46" class="edge">
<title>Node50&#45;&gt;Node59</title>
<path fill="none" stroke="midnightblue" d="M1292.24,-188.76C1359.97,-177.25 1468.7,-158.76 1531.95,-148.01"/>
<polygon fill="midnightblue" stroke="midnightblue" points="1291.42,-185.35 1282.15,-190.48 1292.59,-192.25 1291.42,-185.35"/>
</g>
<!-- Node62 -->
<g id="node50" class="node">
<title>Node62</title>
<g id="a_node50"><a xlink:href="error__syscall_8c.html" target="_top" xlink:title=" ">
<polygon fill="none" stroke="black" points="1012,-129 1012,-148 1116,-148 1116,-129 1012,-129"/>
<text text-anchor="middle" x="1064" y="-136" font-family="Helvetica,sans-Serif" font-size="10.00">src/error_syscall.c</text>
</a>
</g>
</g>
<!-- Node50&#45;&gt;Node62 -->
<g id="edge50" class="edge">
<title>Node50&#45;&gt;Node62</title>
<path fill="none" stroke="midnightblue" d="M1198.35,-187.08C1165.7,-175.52 1116.95,-158.25 1088.03,-148.01"/>
<polygon fill="midnightblue" stroke="midnightblue" points="1197.33,-190.44 1207.93,-190.48 1199.67,-183.84 1197.33,-190.44"/>
</g>
<!-- Node52 -->
<g id="node40" class="node">
<title>Node52</title>
<g id="a_node40"><a xlink:href="import__file_8c.html" target="_top" xlink:title=" ">
<polygon fill="none" stroke="black" points="735.5,-62 735.5,-81 830.5,-81 830.5,-62 735.5,-62"/>
<text text-anchor="middle" x="783" y="-69" font-family="Helvetica,sans-Serif" font-size="10.00">src/import_file.c</text>
</a>
</g>
</g>
<!-- Node51&#45;&gt;Node52 -->
<g id="edge39" class="edge">
<title>Node51&#45;&gt;Node52</title>
<path fill="none" stroke="midnightblue" d="M1141.58,-126.56C1136.03,-125.25 1130.39,-124.02 1125,-123 999.56,-99.22 965.44,-110.78 840,-87 831.37,-85.36 822.11,-83.19 813.61,-81.03"/>
<polygon fill="midnightblue" stroke="midnightblue" points="1140.84,-129.99 1151.39,-128.97 1142.51,-123.19 1140.84,-129.99"/>
</g>
<!-- Node53 -->
<g id="node41" class="node">
<title>Node53</title>
<g id="a_node41"><a xlink:href="import__file__buffer_8c.html" target="_top" xlink:title=" ">
<polygon fill="none" stroke="black" points="849,-62 849,-81 977,-81 977,-62 849,-62"/>
<text text-anchor="middle" x="913" y="-69" font-family="Helvetica,sans-Serif" font-size="10.00">src/import_file_buffer.c</text>
</a>
</g>
</g>
<!-- Node51&#45;&gt;Node53 -->
<g id="edge40" class="edge">
<title>Node51&#45;&gt;Node53</title>
<path fill="none" stroke="midnightblue" d="M1139.16,-126.53C1134.39,-125.33 1129.59,-124.13 1125,-123 1063.65,-107.89 992.12,-91 949.81,-81.09"/>
<polygon fill="midnightblue" stroke="midnightblue" points="1138.31,-129.92 1148.87,-128.98 1140.03,-123.14 1138.31,-129.92"/>
</g>
<!-- Node55 -->
<g id="node43" class="node">
<title>Node55</title>
<g id="a_node43"><a xlink:href="parse_8c.html" target="_top" xlink:title=" ">
<polygon fill="none" stroke="black" points="995.5,-62 995.5,-81 1064.5,-81 1064.5,-62 995.5,-62"/>
<text text-anchor="middle" x="1030" y="-69" font-family="Helvetica,sans-Serif" font-size="10.00">src/parse.c</text>
</a>
</g>
</g>
<!-- Node54&#45;&gt;Node55 -->
<g id="edge42" class="edge">
<title>Node54&#45;&gt;Node55</title>
<path fill="none" stroke="midnightblue" d="M1248.28,-125.94C1244.82,-124.9 1241.35,-123.9 1238,-123 1165.53,-103.47 1145.34,-107.02 1073,-87 1066.77,-85.28 1060.12,-83.17 1053.96,-81.1"/>
<polygon fill="midnightblue" stroke="midnightblue" points="1247.31,-129.31 1257.9,-128.94 1249.39,-122.62 1247.31,-129.31"/>
</g>
<!-- Node56 -->
<g id="node44" class="node">
<title>Node56</title>
<g id="a_node44"><a xlink:href="parse__entity___a_c_l_8c.html" target="_top" xlink:title=" ">
<polygon fill="none" stroke="black" points="1082.5,-62 1082.5,-81 1209.5,-81 1209.5,-62 1082.5,-62"/>
<text text-anchor="middle" x="1146" y="-69" font-family="Helvetica,sans-Serif" font-size="10.00">src/parse_entity_ACL.c</text>
</a>
</g>
</g>
<!-- Node54&#45;&gt;Node56 -->
<g id="edge43" class="edge">
<title>Node54&#45;&gt;Node56</title>
<path fill="none" stroke="midnightblue" d="M1255.48,-124.44C1228.35,-111.57 1187.64,-92.26 1164.27,-81.17"/>
<polygon fill="midnightblue" stroke="midnightblue" points="1254.27,-127.74 1264.81,-128.87 1257.27,-121.42 1254.27,-127.74"/>
</g>
<!-- Node57 -->
<g id="node45" class="node">
<title>Node57</title>
<g id="a_node45"><a xlink:href="parse__entity__sp__pl__cy_8c.html" target="_top" xlink:title=" ">
<polygon fill="none" stroke="black" points="1227.5,-56.5 1227.5,-86.5 1338.5,-86.5 1338.5,-56.5 1227.5,-56.5"/>
<text text-anchor="start" x="1235.5" y="-74.5" font-family="Helvetica,sans-Serif" font-size="10.00">src/parse_entity_sp</text>
<text text-anchor="middle" x="1283" y="-63.5" font-family="Helvetica,sans-Serif" font-size="10.00">_pl_cy.c</text>
</a>
</g>
</g>
<!-- Node54&#45;&gt;Node57 -->
<g id="edge44" class="edge">
<title>Node54&#45;&gt;Node57</title>
<path fill="none" stroke="midnightblue" d="M1283,-118.41C1283,-108.22 1283,-95.9 1283,-86.59"/>
<polygon fill="midnightblue" stroke="midnightblue" points="1279.5,-118.73 1283,-128.73 1286.5,-118.73 1279.5,-118.73"/>
</g>
<!-- Node58 -->
<g id="node46" class="node">
<title>Node58</title>
<g id="a_node46"><a xlink:href="parse__line_8c.html" target="_top" xlink:title=" ">
<polygon fill="none" stroke="black" points="1357,-62 1357,-81 1449,-81 1449,-62 1357,-62"/>
<text text-anchor="middle" x="1403" y="-69" font-family="Helvetica,sans-Serif" font-size="10.00">src/parse_line.c</text>
</a>
</g>
</g>
<!-- Node54&#45;&gt;Node58 -->
<g id="edge45" class="edge">
<title>Node54&#45;&gt;Node58</title>
<path fill="none" stroke="midnightblue" d="M1308,-123.96C1331.79,-111.07 1366.87,-92.07 1387.07,-81.13"/>
<polygon fill="midnightblue" stroke="midnightblue" points="1306.31,-120.89 1299.18,-128.73 1309.64,-127.05 1306.31,-120.89"/>
</g>
<!-- Node59&#45;&gt;Node45 -->
<g id="edge47" class="edge">
<title>Node59&#45;&gt;Node45</title>
<path fill="none" stroke="midnightblue" d="M1614.93,-125.27C1649.66,-112.37 1703.49,-92.38 1733.94,-81.06"/>
<polygon fill="midnightblue" stroke="midnightblue" points="1613.39,-122.11 1605.24,-128.87 1615.83,-128.67 1613.39,-122.11"/>
</g>
<!-- Node60 -->
<g id="node48" class="node">
<title>Node60</title>
<g id="a_node48"><a xlink:href="parse__bonus_8c.html" target="_top" xlink:title=" ">
<polygon fill="none" stroke="black" points="1467,-62 1467,-81 1571,-81 1571,-62 1467,-62"/>
<text text-anchor="middle" x="1519" y="-69" font-family="Helvetica,sans-Serif" font-size="10.00">src/parse_bonus.c</text>
</a>
</g>
</g>
<!-- Node59&#45;&gt;Node60 -->
<g id="edge48" class="edge">
<title>Node59&#45;&gt;Node60</title>
<path fill="none" stroke="midnightblue" d="M1566.49,-121.5C1554.13,-108.75 1537.31,-91.39 1527.36,-81.13"/>
<polygon fill="midnightblue" stroke="midnightblue" points="1564.03,-123.99 1573.5,-128.73 1569.06,-119.12 1564.03,-123.99"/>
</g>
<!-- Node61 -->
<g id="node49" class="node">
<title>Node61</title>
<g id="a_node49"><a xlink:href="parse__entity__sp__pl__cy__bonus_8c.html" target="_top" xlink:title=" ">
<polygon fill="none" stroke="black" points="1589.5,-56.5 1589.5,-86.5 1700.5,-86.5 1700.5,-56.5 1589.5,-56.5"/>
<text text-anchor="start" x="1597.5" y="-74.5" font-family="Helvetica,sans-Serif" font-size="10.00">src/parse_entity_sp</text>
<text text-anchor="middle" x="1645" y="-63.5" font-family="Helvetica,sans-Serif" font-size="10.00">_pl_cy_bonus.c</text>
</a>
</g>
</g>
<!-- Node59&#45;&gt;Node61 -->
<g id="edge49" class="edge">
<title>Node59&#45;&gt;Node61</title>
<path fill="none" stroke="midnightblue" d="M1597.7,-121.3C1608.04,-110.63 1621.45,-96.8 1631.34,-86.59"/>
<polygon fill="midnightblue" stroke="midnightblue" points="1594.94,-119.12 1590.5,-128.73 1599.97,-123.99 1594.94,-119.12"/>
</g>
</g>
</svg>
