<?xml version="1.0" encoding="UTF-8" standalone="no"?>
<!DOCTYPE svg PUBLIC "-//W3C//DTD SVG 1.1//EN"
 "http://www.w3.org/Graphics/SVG/1.1/DTD/svg11.dtd">
<!-- Generated by graphviz version 2.43.0 (0)
 -->
<!-- Title: inc/error_syscall.h Pages: 1 -->
<svg width="1148pt" height="207pt"
 viewBox="0.00 0.00 1148.00 207.00" xmlns="http://www.w3.org/2000/svg" xmlns:xlink="http://www.w3.org/1999/xlink">
<g id="graph0" class="graph" transform="scale(1 1) rotate(0) translate(4 203)">
<title>inc/error_syscall.h</title>
<!-- Node1 -->
<g id="node1" class="node">
<title>Node1</title>
<g id="a_node1"><a xlink:title=" ">
<polygon fill="#bfbfbf" stroke="black" points="758,-179.5 758,-198.5 863,-198.5 863,-179.5 758,-179.5"/>
<text text-anchor="middle" x="810.5" y="-186.5" font-family="Helvetica,sans-Serif" font-size="10.00">inc/error_syscall.h</text>
</a>
</g>
</g>
<!-- Node2 -->
<g id="node2" class="node">
<title>Node2</title>
<g id="a_node2"><a xlink:href="import__file_8h.html" target="_top" xlink:title=" ">
<polygon fill="none" stroke="black" points="130,-123.5 130,-142.5 225,-142.5 225,-123.5 130,-123.5"/>
<text text-anchor="middle" x="177.5" y="-130.5" font-family="Helvetica,sans-Serif" font-size="10.00">inc/import_file.h</text>
</a>
</g>
</g>
<!-- Node1&#45;&gt;Node2 -->
<g id="edge1" class="edge">
<title>Node1&#45;&gt;Node2</title>
<path fill="none" stroke="midnightblue" d="M747.59,-182.63C620.94,-171.83 337.72,-147.67 225.05,-138.06"/>
<polygon fill="midnightblue" stroke="midnightblue" points="747.63,-186.15 757.89,-183.51 748.22,-179.17 747.63,-186.15"/>
</g>
<!-- Node5 -->
<g id="node5" class="node">
<title>Node5</title>
<g id="a_node5"><a xlink:href="parse_8h.html" target="_top" xlink:title=" ">
<polygon fill="none" stroke="black" points="536.5,-123.5 536.5,-142.5 606.5,-142.5 606.5,-123.5 536.5,-123.5"/>
<text text-anchor="middle" x="571.5" y="-130.5" font-family="Helvetica,sans-Serif" font-size="10.00">inc/parse.h</text>
</a>
</g>
</g>
<!-- Node1&#45;&gt;Node5 -->
<g id="edge4" class="edge">
<title>Node1&#45;&gt;Node5</title>
<path fill="none" stroke="midnightblue" d="M762.6,-177.18C716.58,-166.78 648.13,-151.31 606.86,-141.99"/>
<polygon fill="midnightblue" stroke="midnightblue" points="762.1,-180.65 772.63,-179.44 763.65,-173.83 762.1,-180.65"/>
</g>
<!-- Node12 -->
<g id="node12" class="node">
<title>Node12</title>
<g id="a_node12"><a xlink:href="parse__bonus_8h.html" target="_top" xlink:title=" ">
<polygon fill="none" stroke="black" points="758.5,-123.5 758.5,-142.5 862.5,-142.5 862.5,-123.5 758.5,-123.5"/>
<text text-anchor="middle" x="810.5" y="-130.5" font-family="Helvetica,sans-Serif" font-size="10.00">inc/parse_bonus.h</text>
</a>
</g>
</g>
<!-- Node1&#45;&gt;Node12 -->
<g id="edge11" class="edge">
<title>Node1&#45;&gt;Node12</title>
<path fill="none" stroke="midnightblue" d="M810.5,-168.8C810.5,-159.91 810.5,-149.78 810.5,-142.75"/>
<polygon fill="midnightblue" stroke="midnightblue" points="807,-169.08 810.5,-179.08 814,-169.08 807,-169.08"/>
</g>
<!-- Node15 -->
<g id="node15" class="node">
<title>Node15</title>
<g id="a_node15"><a xlink:href="error__syscall_8c.html" target="_top" xlink:title=" ">
<polygon fill="none" stroke="black" points="880.5,-123.5 880.5,-142.5 984.5,-142.5 984.5,-123.5 880.5,-123.5"/>
<text text-anchor="middle" x="932.5" y="-130.5" font-family="Helvetica,sans-Serif" font-size="10.00">src/error_syscall.c</text>
</a>
</g>
</g>
<!-- Node1&#45;&gt;Node15 -->
<g id="edge14" class="edge">
<title>Node1&#45;&gt;Node15</title>
<path fill="none" stroke="midnightblue" d="M839.04,-175.37C861.89,-165.26 893.31,-151.35 913.26,-142.52"/>
<polygon fill="midnightblue" stroke="midnightblue" points="837.56,-172.2 829.83,-179.44 840.39,-178.6 837.56,-172.2"/>
</g>
<!-- Node16 -->
<g id="node16" class="node">
<title>Node16</title>
<g id="a_node16"><a xlink:href="render__output__ppm_8c.html" target="_top" xlink:title=" ">
<polygon fill="none" stroke="black" points="1003,-123.5 1003,-142.5 1140,-142.5 1140,-123.5 1003,-123.5"/>
<text text-anchor="middle" x="1071.5" y="-130.5" font-family="Helvetica,sans-Serif" font-size="10.00">src/render_output_ppm.c</text>
</a>
</g>
</g>
<!-- Node1&#45;&gt;Node16 -->
<g id="edge15" class="edge">
<title>Node1&#45;&gt;Node16</title>
<path fill="none" stroke="midnightblue" d="M861.69,-177.41C911.01,-167.2 984.69,-151.96 1030.34,-142.52"/>
<polygon fill="midnightblue" stroke="midnightblue" points="860.94,-173.99 851.86,-179.44 862.36,-180.84 860.94,-173.99"/>
</g>
<!-- Node3 -->
<g id="node3" class="node">
<title>Node3</title>
<g id="a_node3"><a xlink:href="import__file_8c.html" target="_top" xlink:title=" ">
<polygon fill="none" stroke="black" points="0,-62 0,-81 95,-81 95,-62 0,-62"/>
<text text-anchor="middle" x="47.5" y="-69" font-family="Helvetica,sans-Serif" font-size="10.00">src/import_file.c</text>
</a>
</g>
</g>
<!-- Node2&#45;&gt;Node3 -->
<g id="edge2" class="edge">
<title>Node2&#45;&gt;Node3</title>
<path fill="none" stroke="midnightblue" d="M149.48,-119.17C124.25,-107.63 87.89,-90.99 66.09,-81.01"/>
<polygon fill="midnightblue" stroke="midnightblue" points="148.32,-122.5 158.87,-123.48 151.24,-116.13 148.32,-122.5"/>
</g>
<!-- Node4 -->
<g id="node4" class="node">
<title>Node4</title>
<g id="a_node4"><a xlink:href="import__file__buffer_8c.html" target="_top" xlink:title=" ">
<polygon fill="none" stroke="black" points="113.5,-62 113.5,-81 241.5,-81 241.5,-62 113.5,-62"/>
<text text-anchor="middle" x="177.5" y="-69" font-family="Helvetica,sans-Serif" font-size="10.00">src/import_file_buffer.c</text>
</a>
</g>
</g>
<!-- Node2&#45;&gt;Node4 -->
<g id="edge3" class="edge">
<title>Node2&#45;&gt;Node4</title>
<path fill="none" stroke="midnightblue" d="M177.5,-113.32C177.5,-102.5 177.5,-89.4 177.5,-81.01"/>
<polygon fill="midnightblue" stroke="midnightblue" points="174,-113.48 177.5,-123.48 181,-113.48 174,-113.48"/>
</g>
<!-- Node6 -->
<g id="node6" class="node">
<title>Node6</title>
<g id="a_node6"><a xlink:href="mini_r_t_8h.html" target="_top" xlink:title=" ">
<polygon fill="none" stroke="black" points="259.5,-62 259.5,-81 335.5,-81 335.5,-62 259.5,-62"/>
<text text-anchor="middle" x="297.5" y="-69" font-family="Helvetica,sans-Serif" font-size="10.00">inc/miniRT.h</text>
</a>
</g>
</g>
<!-- Node5&#45;&gt;Node6 -->
<g id="edge5" class="edge">
<title>Node5&#45;&gt;Node6</title>
<path fill="none" stroke="midnightblue" d="M526.29,-124.46C480.25,-116.45 406.97,-102.78 344.5,-87 337.71,-85.28 330.45,-83.18 323.71,-81.11"/>
<polygon fill="midnightblue" stroke="midnightblue" points="525.8,-127.93 536.25,-126.18 526.99,-121.03 525.8,-127.93"/>
</g>
<!-- Node8 -->
<g id="node8" class="node">
<title>Node8</title>
<g id="a_node8"><a xlink:href="parse_8c.html" target="_top" xlink:title=" ">
<polygon fill="none" stroke="black" points="354,-62 354,-81 423,-81 423,-62 354,-62"/>
<text text-anchor="middle" x="388.5" y="-69" font-family="Helvetica,sans-Serif" font-size="10.00">src/parse.c</text>
</a>
</g>
</g>
<!-- Node5&#45;&gt;Node8 -->
<g id="edge7" class="edge">
<title>Node5&#45;&gt;Node8</title>
<path fill="none" stroke="midnightblue" d="M534.77,-120.35C506.51,-111.35 466.49,-98.52 431.5,-87 425.81,-85.13 419.71,-83.09 413.95,-81.15"/>
<polygon fill="midnightblue" stroke="midnightblue" points="534.03,-123.79 544.62,-123.49 536.16,-117.12 534.03,-123.79"/>
</g>
<!-- Node9 -->
<g id="node9" class="node">
<title>Node9</title>
<g id="a_node9"><a xlink:href="parse__entity___a_c_l_8c.html" target="_top" xlink:title=" ">
<polygon fill="none" stroke="black" points="441,-62 441,-81 568,-81 568,-62 441,-62"/>
<text text-anchor="middle" x="504.5" y="-69" font-family="Helvetica,sans-Serif" font-size="10.00">src/parse_entity_ACL.c</text>
</a>
</g>
</g>
<!-- Node5&#45;&gt;Node9 -->
<g id="edge8" class="edge">
<title>Node5&#45;&gt;Node9</title>
<path fill="none" stroke="midnightblue" d="M554.21,-116.65C541.44,-105.31 524.52,-90.28 514.08,-81.01"/>
<polygon fill="midnightblue" stroke="midnightblue" points="552.1,-119.45 561.9,-123.48 556.75,-114.22 552.1,-119.45"/>
</g>
<!-- Node10 -->
<g id="node10" class="node">
<title>Node10</title>
<g id="a_node10"><a xlink:href="parse__entity__sp__pl__cy_8c.html" target="_top" xlink:title=" ">
<polygon fill="none" stroke="black" points="586,-56.5 586,-86.5 697,-86.5 697,-56.5 586,-56.5"/>
<text text-anchor="start" x="594" y="-74.5" font-family="Helvetica,sans-Serif" font-size="10.00">src/parse_entity_sp</text>
<text text-anchor="middle" x="641.5" y="-63.5" font-family="Helvetica,sans-Serif" font-size="10.00">_pl_cy.c</text>
</a>
</g>
</g>
<!-- Node5&#45;&gt;Node10 -->
<g id="edge9" class="edge">
<title>Node5&#45;&gt;Node10</title>
<path fill="none" stroke="midnightblue" d="M589.24,-116.92C600.23,-107.58 614.25,-95.66 625,-86.52"/>
<polygon fill="midnightblue" stroke="midnightblue" points="586.88,-114.33 581.53,-123.48 591.42,-119.67 586.88,-114.33"/>
</g>
<!-- Node11 -->
<g id="node11" class="node">
<title>Node11</title>
<g id="a_node11"><a xlink:href="parse__line_8c.html" target="_top" xlink:title=" ">
<polygon fill="none" stroke="black" points="715.5,-62 715.5,-81 807.5,-81 807.5,-62 715.5,-62"/>
<text text-anchor="middle" x="761.5" y="-69" font-family="Helvetica,sans-Serif" font-size="10.00">src/parse_line.c</text>
</a>
</g>
</g>
<!-- Node5&#45;&gt;Node11 -->
<g id="edge10" class="edge">
<title>Node5&#45;&gt;Node11</title>
<path fill="none" stroke="midnightblue" d="M608.6,-120.38C645.54,-108.82 701.34,-91.34 734.33,-81.01"/>
<polygon fill="midnightblue" stroke="midnightblue" points="607.22,-117.15 598.72,-123.48 609.31,-123.83 607.22,-117.15"/>
</g>
<!-- Node7 -->
<g id="node7" class="node">
<title>Node7</title>
<g id="a_node7"><a xlink:href="main_8c.html" target="_top" xlink:title=" ">
<polygon fill="none" stroke="black" points="264,-0.5 264,-19.5 331,-19.5 331,-0.5 264,-0.5"/>
<text text-anchor="middle" x="297.5" y="-7.5" font-family="Helvetica,sans-Serif" font-size="10.00">src/main.c</text>
</a>
</g>
</g>
<!-- Node6&#45;&gt;Node7 -->
<g id="edge6" class="edge">
<title>Node6&#45;&gt;Node7</title>
<path fill="none" stroke="midnightblue" d="M297.5,-51.82C297.5,-41 297.5,-27.9 297.5,-19.51"/>
<polygon fill="midnightblue" stroke="midnightblue" points="294,-51.98 297.5,-61.98 301,-51.98 294,-51.98"/>
</g>
<!-- Node13 -->
<g id="node13" class="node">
<title>Node13</title>
<g id="a_node13"><a xlink:href="parse__bonus_8c.html" target="_top" xlink:title=" ">
<polygon fill="none" stroke="black" points="825.5,-62 825.5,-81 929.5,-81 929.5,-62 825.5,-62"/>
<text text-anchor="middle" x="877.5" y="-69" font-family="Helvetica,sans-Serif" font-size="10.00">src/parse_bonus.c</text>
</a>
</g>
</g>
<!-- Node12&#45;&gt;Node13 -->
<g id="edge12" class="edge">
<title>Node12&#45;&gt;Node13</title>
<path fill="none" stroke="midnightblue" d="M827.79,-116.65C840.56,-105.31 857.48,-90.28 867.92,-81.01"/>
<polygon fill="midnightblue" stroke="midnightblue" points="825.25,-114.22 820.1,-123.48 829.9,-119.45 825.25,-114.22"/>
</g>
<!-- Node14 -->
<g id="node14" class="node">
<title>Node14</title>
<g id="a_node14"><a xlink:href="parse__entity__sp__pl__cy__bonus_8c.html" target="_top" xlink:title=" ">
<polygon fill="none" stroke="black" points="948,-56.5 948,-86.5 1059,-86.5 1059,-56.5 948,-56.5"/>
<text text-anchor="start" x="956" y="-74.5" font-family="Helvetica,sans-Serif" font-size="10.00">src/parse_entity_sp</text>
<text text-anchor="middle" x="1003.5" y="-63.5" font-family="Helvetica,sans-Serif" font-size="10.00">_pl_cy_bonus.c</text>
</a>
</g>
</g>
<!-- Node12&#45;&gt;Node14 -->
<g id="edge13" class="edge">
<title>Node12&#45;&gt;Node14</title>
<path fill="none" stroke="midnightblue" d="M847.86,-120.48C879.32,-110.78 924.45,-96.87 958.01,-86.52"/>
<polygon fill="midnightblue" stroke="midnightblue" points="846.68,-117.18 838.15,-123.48 848.74,-123.87 846.68,-117.18"/>
</g>
</g>
</svg>
