<?xml version="1.0" encoding="UTF-8" standalone="no"?>
<!DOCTYPE svg PUBLIC "-//W3C//DTD SVG 1.1//EN"
 "http://www.w3.org/Graphics/SVG/1.1/DTD/svg11.dtd">
<!-- Generated by graphviz version 2.43.0 (0)
 -->
<!-- Title: inc/error_type.h Pages: 1 -->
<svg width="3150pt" height="274pt"
 viewBox="0.00 0.00 3149.50 274.00" xmlns="http://www.w3.org/2000/svg" xmlns:xlink="http://www.w3.org/1999/xlink">
<g id="graph0" class="graph" transform="scale(1 1) rotate(0) translate(4 270)">
<title>inc/error_type.h</title>
<!-- Node1 -->
<g id="node1" class="node">
<title>Node1</title>
<g id="a_node1"><a xlink:title=" ">
<polygon fill="#bfbfbf" stroke="black" points="1668,-246.5 1668,-265.5 1761,-265.5 1761,-246.5 1668,-246.5"/>
<text text-anchor="middle" x="1714.5" y="-253.5" font-family="Helvetica,sans-Serif" font-size="10.00">inc/error_type.h</text>
</a>
</g>
</g>
<!-- Node2 -->
<g id="node2" class="node">
<title>Node2</title>
<g id="a_node2"><a xlink:href="check_8h.html" target="_top" xlink:title=" ">
<polygon fill="none" stroke="black" points="718,-190.5 718,-209.5 789,-209.5 789,-190.5 718,-190.5"/>
<text text-anchor="middle" x="753.5" y="-197.5" font-family="Helvetica,sans-Serif" font-size="10.00">inc/check.h</text>
</a>
</g>
</g>
<!-- Node1&#45;&gt;Node2 -->
<g id="edge1" class="edge">
<title>Node1&#45;&gt;Node2</title>
<path fill="none" stroke="midnightblue" d="M1657.6,-251.8C1479.14,-241.77 933.66,-211.12 789.02,-203"/>
<polygon fill="midnightblue" stroke="midnightblue" points="1657.64,-255.31 1667.82,-252.38 1658.04,-248.32 1657.64,-255.31"/>
</g>
<!-- Node10 -->
<g id="node10" class="node">
<title>Node10</title>
<g id="a_node10"><a xlink:href="check__bonus_8h.html" target="_top" xlink:title=" ">
<polygon fill="none" stroke="black" points="1414.5,-190.5 1414.5,-209.5 1520.5,-209.5 1520.5,-190.5 1414.5,-190.5"/>
<text text-anchor="middle" x="1467.5" y="-197.5" font-family="Helvetica,sans-Serif" font-size="10.00">inc/check_bonus.h</text>
</a>
</g>
</g>
<!-- Node1&#45;&gt;Node10 -->
<g id="edge9" class="edge">
<title>Node1&#45;&gt;Node10</title>
<path fill="none" stroke="midnightblue" d="M1665.47,-244.28C1618.8,-234.08 1549.47,-218.92 1506.45,-209.52"/>
<polygon fill="midnightblue" stroke="midnightblue" points="1664.85,-247.73 1675.36,-246.44 1666.34,-240.89 1664.85,-247.73"/>
</g>
<!-- Node15 -->
<g id="node15" class="node">
<title>Node15</title>
<g id="a_node15"><a xlink:href="error__mlx_8h.html" target="_top" xlink:title=" ">
<polygon fill="none" stroke="black" points="1669.5,-129 1669.5,-148 1759.5,-148 1759.5,-129 1669.5,-129"/>
<text text-anchor="middle" x="1714.5" y="-136" font-family="Helvetica,sans-Serif" font-size="10.00">inc/error_mlx.h</text>
</a>
</g>
</g>
<!-- Node1&#45;&gt;Node15 -->
<g id="edge14" class="edge">
<title>Node1&#45;&gt;Node15</title>
<path fill="none" stroke="midnightblue" d="M1714.5,-236.16C1714.5,-210.87 1714.5,-166.94 1714.5,-148.28"/>
<polygon fill="midnightblue" stroke="midnightblue" points="1711,-236.32 1714.5,-246.32 1718,-236.32 1711,-236.32"/>
</g>
<!-- Node67 -->
<g id="node43" class="node">
<title>Node67</title>
<g id="a_node43"><a xlink:href="error__syscall_8h.html" target="_top" xlink:title=" ">
<polygon fill="none" stroke="black" points="2533,-190.5 2533,-209.5 2638,-209.5 2638,-190.5 2533,-190.5"/>
<text text-anchor="middle" x="2585.5" y="-197.5" font-family="Helvetica,sans-Serif" font-size="10.00">inc/error_syscall.h</text>
</a>
</g>
</g>
<!-- Node1&#45;&gt;Node67 -->
<g id="edge42" class="edge">
<title>Node1&#45;&gt;Node67</title>
<path fill="none" stroke="midnightblue" d="M1771.06,-251.49C1930,-241.64 2379,-213.8 2532.94,-204.26"/>
<polygon fill="midnightblue" stroke="midnightblue" points="1770.79,-248 1761.02,-252.12 1771.22,-254.99 1770.79,-248"/>
</g>
<!-- Node112 -->
<g id="node49" class="node">
<title>Node112</title>
<g id="a_node49"><a xlink:href="threads__bonus_8h.html" target="_top" xlink:title=" ">
<polygon fill="none" stroke="black" points="1777.5,-129 1777.5,-148 1891.5,-148 1891.5,-129 1777.5,-129"/>
<text text-anchor="middle" x="1834.5" y="-136" font-family="Helvetica,sans-Serif" font-size="10.00">inc/threads_bonus.h</text>
</a>
</g>
</g>
<!-- Node1&#45;&gt;Node112 -->
<g id="edge54" class="edge">
<title>Node1&#45;&gt;Node112</title>
<path fill="none" stroke="midnightblue" d="M1730.97,-239.15C1756.61,-214.47 1805.21,-167.69 1825.38,-148.28"/>
<polygon fill="midnightblue" stroke="midnightblue" points="1728.3,-236.86 1723.52,-246.32 1733.15,-241.91 1728.3,-236.86"/>
</g>
<!-- Node3 -->
<g id="node3" class="node">
<title>Node3</title>
<g id="a_node3"><a xlink:href="check_8c.html" target="_top" xlink:title=" ">
<polygon fill="none" stroke="black" points="530,-129 530,-148 601,-148 601,-129 530,-129"/>
<text text-anchor="middle" x="565.5" y="-136" font-family="Helvetica,sans-Serif" font-size="10.00">src/check.c</text>
</a>
</g>
</g>
<!-- Node2&#45;&gt;Node3 -->
<g id="edge2" class="edge">
<title>Node2&#45;&gt;Node3</title>
<path fill="none" stroke="midnightblue" d="M716.39,-187.4C687.51,-178.35 646.44,-165.44 610.5,-154 604.56,-152.11 598.18,-150.06 592.14,-148.12"/>
<polygon fill="midnightblue" stroke="midnightblue" points="715.48,-190.78 726.07,-190.43 717.57,-184.1 715.48,-190.78"/>
</g>
<!-- Node4 -->
<g id="node4" class="node">
<title>Node4</title>
<g id="a_node4"><a xlink:href="check__entity___a_c_l_8c.html" target="_top" xlink:title=" ">
<polygon fill="none" stroke="black" points="619.5,-129 619.5,-148 747.5,-148 747.5,-129 619.5,-129"/>
<text text-anchor="middle" x="683.5" y="-136" font-family="Helvetica,sans-Serif" font-size="10.00">src/check_entity_ACL.c</text>
</a>
</g>
</g>
<!-- Node2&#45;&gt;Node4 -->
<g id="edge3" class="edge">
<title>Node2&#45;&gt;Node4</title>
<path fill="none" stroke="midnightblue" d="M735.82,-183.97C722.43,-172.59 704.52,-157.37 693.51,-148.01"/>
<polygon fill="midnightblue" stroke="midnightblue" points="733.58,-186.67 743.47,-190.48 738.12,-181.33 733.58,-186.67"/>
</g>
<!-- Node5 -->
<g id="node5" class="node">
<title>Node5</title>
<g id="a_node5"><a xlink:href="check__entity__sp__pl__cy_8c.html" target="_top" xlink:title=" ">
<polygon fill="none" stroke="black" points="766,-123.5 766,-153.5 879,-153.5 879,-123.5 766,-123.5"/>
<text text-anchor="start" x="774" y="-141.5" font-family="Helvetica,sans-Serif" font-size="10.00">src/check_entity_sp</text>
<text text-anchor="middle" x="822.5" y="-130.5" font-family="Helvetica,sans-Serif" font-size="10.00">_pl_cy.c</text>
</a>
</g>
</g>
<!-- Node2&#45;&gt;Node5 -->
<g id="edge4" class="edge">
<title>Node2&#45;&gt;Node5</title>
<path fill="none" stroke="midnightblue" d="M770.99,-183.92C781.82,-174.58 795.64,-162.66 806.24,-153.52"/>
<polygon fill="midnightblue" stroke="midnightblue" points="768.67,-181.29 763.39,-190.48 773.24,-186.6 768.67,-181.29"/>
</g>
<!-- Node6 -->
<g id="node6" class="node">
<title>Node6</title>
<g id="a_node6"><a xlink:href="check__line_8c.html" target="_top" xlink:title=" ">
<polygon fill="none" stroke="black" points="897.5,-129 897.5,-148 991.5,-148 991.5,-129 897.5,-129"/>
<text text-anchor="middle" x="944.5" y="-136" font-family="Helvetica,sans-Serif" font-size="10.00">src/check_line.c</text>
</a>
</g>
</g>
<!-- Node2&#45;&gt;Node6 -->
<g id="edge5" class="edge">
<title>Node2&#45;&gt;Node6</title>
<path fill="none" stroke="midnightblue" d="M790.8,-187.38C827.93,-175.82 884.02,-158.34 917.19,-148.01"/>
<polygon fill="midnightblue" stroke="midnightblue" points="789.37,-184.16 780.87,-190.48 791.45,-190.84 789.37,-184.16"/>
</g>
<!-- Node7 -->
<g id="node7" class="node">
<title>Node7</title>
<g id="a_node7"><a xlink:href="check__rm__space_8c.html" target="_top" xlink:title=" ">
<polygon fill="none" stroke="black" points="1010,-129 1010,-148 1133,-148 1133,-129 1010,-129"/>
<text text-anchor="middle" x="1071.5" y="-136" font-family="Helvetica,sans-Serif" font-size="10.00">src/check_rm_space.c</text>
</a>
</g>
</g>
<!-- Node2&#45;&gt;Node7 -->
<g id="edge6" class="edge">
<title>Node2&#45;&gt;Node7</title>
<path fill="none" stroke="midnightblue" d="M799.22,-190.97C848.84,-182.19 930.38,-167.55 1000.5,-154 1010.26,-152.11 1020.76,-150.01 1030.61,-148.01"/>
<polygon fill="midnightblue" stroke="midnightblue" points="798.37,-187.57 789.13,-192.75 799.59,-194.46 798.37,-187.57"/>
</g>
<!-- Node8 -->
<g id="node8" class="node">
<title>Node8</title>
<g id="a_node8"><a xlink:href="error__msg__check_8c.html" target="_top" xlink:title=" ">
<polygon fill="none" stroke="black" points="238,-129 238,-148 363,-148 363,-129 238,-129"/>
<text text-anchor="middle" x="300.5" y="-136" font-family="Helvetica,sans-Serif" font-size="10.00">src/error_msg_check.c</text>
</a>
</g>
</g>
<!-- Node2&#45;&gt;Node8 -->
<g id="edge7" class="edge">
<title>Node2&#45;&gt;Node8</title>
<path fill="none" stroke="midnightblue" d="M707.74,-194.87C635.89,-188.09 492.31,-173.42 371.5,-154 361.07,-152.32 349.84,-150.19 339.45,-148.07"/>
<polygon fill="midnightblue" stroke="midnightblue" points="707.53,-198.36 717.81,-195.81 708.18,-191.39 707.53,-198.36"/>
</g>
<!-- Node9 -->
<g id="node9" class="node">
<title>Node9</title>
<g id="a_node9"><a xlink:href="error__msg__check2_8c.html" target="_top" xlink:title=" ">
<polygon fill="none" stroke="black" points="381,-129 381,-148 512,-148 512,-129 381,-129"/>
<text text-anchor="middle" x="446.5" y="-136" font-family="Helvetica,sans-Serif" font-size="10.00">src/error_msg_check2.c</text>
</a>
</g>
</g>
<!-- Node2&#45;&gt;Node9 -->
<g id="edge8" class="edge">
<title>Node2&#45;&gt;Node9</title>
<path fill="none" stroke="midnightblue" d="M708.11,-190.27C661.14,-181.23 585.68,-166.68 520.5,-154 510.61,-152.08 499.97,-150 489.93,-148.03"/>
<polygon fill="midnightblue" stroke="midnightblue" points="707.49,-193.72 717.97,-192.17 708.81,-186.84 707.49,-193.72"/>
</g>
<!-- Node11 -->
<g id="node11" class="node">
<title>Node11</title>
<g id="a_node11"><a xlink:href="check__bonus_8c.html" target="_top" xlink:title=" ">
<polygon fill="none" stroke="black" points="1415,-129 1415,-148 1520,-148 1520,-129 1415,-129"/>
<text text-anchor="middle" x="1467.5" y="-136" font-family="Helvetica,sans-Serif" font-size="10.00">src/check_bonus.c</text>
</a>
</g>
</g>
<!-- Node10&#45;&gt;Node11 -->
<g id="edge10" class="edge">
<title>Node10&#45;&gt;Node11</title>
<path fill="none" stroke="midnightblue" d="M1467.5,-180.32C1467.5,-169.5 1467.5,-156.4 1467.5,-148.01"/>
<polygon fill="midnightblue" stroke="midnightblue" points="1464,-180.48 1467.5,-190.48 1471,-180.48 1464,-180.48"/>
</g>
<!-- Node12 -->
<g id="node12" class="node">
<title>Node12</title>
<g id="a_node12"><a xlink:href="check__entity__sp__pl__cy__bonus_8c.html" target="_top" xlink:title=" ">
<polygon fill="none" stroke="black" points="1538,-123.5 1538,-153.5 1651,-153.5 1651,-123.5 1538,-123.5"/>
<text text-anchor="start" x="1546" y="-141.5" font-family="Helvetica,sans-Serif" font-size="10.00">src/check_entity_sp</text>
<text text-anchor="middle" x="1594.5" y="-130.5" font-family="Helvetica,sans-Serif" font-size="10.00">_pl_cy_bonus.c</text>
</a>
</g>
</g>
<!-- Node10&#45;&gt;Node12 -->
<g id="edge11" class="edge">
<title>Node10&#45;&gt;Node12</title>
<path fill="none" stroke="midnightblue" d="M1494.82,-186.2C1515.34,-176.58 1543.44,-163.42 1564.57,-153.52"/>
<polygon fill="midnightblue" stroke="midnightblue" points="1493.27,-183.06 1485.7,-190.48 1496.24,-189.4 1493.27,-183.06"/>
</g>
<!-- Node13 -->
<g id="node13" class="node">
<title>Node13</title>
<g id="a_node13"><a xlink:href="check__win__size__bonus_8c.html" target="_top" xlink:title=" ">
<polygon fill="none" stroke="black" points="1151.5,-123.5 1151.5,-153.5 1261.5,-153.5 1261.5,-123.5 1151.5,-123.5"/>
<text text-anchor="start" x="1159.5" y="-141.5" font-family="Helvetica,sans-Serif" font-size="10.00">src/check_win_size</text>
<text text-anchor="middle" x="1206.5" y="-130.5" font-family="Helvetica,sans-Serif" font-size="10.00">_bonus.c</text>
</a>
</g>
</g>
<!-- Node10&#45;&gt;Node13 -->
<g id="edge12" class="edge">
<title>Node10&#45;&gt;Node13</title>
<path fill="none" stroke="midnightblue" d="M1420.1,-188.19C1375.45,-178.02 1308.58,-162.77 1261.58,-152.06"/>
<polygon fill="midnightblue" stroke="midnightblue" points="1419.58,-191.66 1430.11,-190.48 1421.13,-184.84 1419.58,-191.66"/>
</g>
<!-- Node14 -->
<g id="node14" class="node">
<title>Node14</title>
<g id="a_node14"><a xlink:href="error__msg__check__bonus_8c.html" target="_top" xlink:title=" ">
<polygon fill="none" stroke="black" points="1280,-123.5 1280,-153.5 1397,-153.5 1397,-123.5 1280,-123.5"/>
<text text-anchor="start" x="1288" y="-141.5" font-family="Helvetica,sans-Serif" font-size="10.00">src/error_msg_check</text>
<text text-anchor="middle" x="1338.5" y="-130.5" font-family="Helvetica,sans-Serif" font-size="10.00">_bonus.c</text>
</a>
</g>
</g>
<!-- Node10&#45;&gt;Node14 -->
<g id="edge13" class="edge">
<title>Node10&#45;&gt;Node14</title>
<path fill="none" stroke="midnightblue" d="M1439.75,-186.2C1418.9,-176.58 1390.37,-163.42 1368.9,-153.52"/>
<polygon fill="midnightblue" stroke="midnightblue" points="1438.47,-189.46 1449.02,-190.48 1441.4,-183.11 1438.47,-189.46"/>
</g>
<!-- Node16 -->
<g id="node16" class="node">
<title>Node16</title>
<g id="a_node16"><a xlink:href="render_8h.html" target="_top" xlink:title=" ">
<polygon fill="none" stroke="black" points="1202.5,-67.5 1202.5,-86.5 1276.5,-86.5 1276.5,-67.5 1202.5,-67.5"/>
<text text-anchor="middle" x="1239.5" y="-74.5" font-family="Helvetica,sans-Serif" font-size="10.00">inc/render.h</text>
</a>
</g>
</g>
<!-- Node15&#45;&gt;Node16 -->
<g id="edge15" class="edge">
<title>Node15&#45;&gt;Node16</title>
<path fill="none" stroke="midnightblue" d="M1675.49,-126.44C1670.15,-125.15 1664.71,-123.96 1659.5,-123 1519.41,-97.18 1350.1,-84.64 1276.57,-80.08"/>
<polygon fill="midnightblue" stroke="midnightblue" points="1675.02,-129.93 1685.57,-129 1676.74,-123.15 1675.02,-129.93"/>
</g>
<!-- Node32 -->
<g id="node32" class="node">
<title>Node32</title>
<g id="a_node32"><a xlink:href="render__bonus_8h.html" target="_top" xlink:title=" ">
<polygon fill="none" stroke="red" points="2408,-67.5 2408,-86.5 2517,-86.5 2517,-67.5 2408,-67.5"/>
<text text-anchor="middle" x="2462.5" y="-74.5" font-family="Helvetica,sans-Serif" font-size="10.00">inc/render_bonus.h</text>
</a>
</g>
</g>
<!-- Node15&#45;&gt;Node32 -->
<g id="edge31" class="edge">
<title>Node15&#45;&gt;Node32</title>
<path fill="none" stroke="midnightblue" d="M1751.8,-126.46C1757.36,-125.11 1763.05,-123.9 1768.5,-123 2004.08,-84.13 2289.81,-78.46 2407.65,-77.89"/>
<polygon fill="midnightblue" stroke="midnightblue" points="1750.83,-123.1 1742.02,-128.99 1752.58,-129.88 1750.83,-123.1"/>
</g>
<!-- Node66 -->
<g id="node42" class="node">
<title>Node66</title>
<g id="a_node42"><a xlink:href="error__mlx_8c.html" target="_top" xlink:title=" ">
<polygon fill="none" stroke="black" points="1095,-67.5 1095,-86.5 1184,-86.5 1184,-67.5 1095,-67.5"/>
<text text-anchor="middle" x="1139.5" y="-74.5" font-family="Helvetica,sans-Serif" font-size="10.00">src/error_mlx.c</text>
</a>
</g>
</g>
<!-- Node15&#45;&gt;Node66 -->
<g id="edge41" class="edge">
<title>Node15&#45;&gt;Node66</title>
<path fill="none" stroke="midnightblue" d="M1676.3,-126.48C1670.7,-125.14 1664.98,-123.93 1659.5,-123 1454.68,-88.38 1399.71,-112.1 1193.5,-87 1190.48,-86.63 1187.37,-86.22 1184.25,-85.77"/>
<polygon fill="midnightblue" stroke="midnightblue" points="1675.61,-129.92 1686.17,-128.98 1677.33,-123.13 1675.61,-129.92"/>
</g>
<!-- Node17 -->
<g id="node17" class="node">
<title>Node17</title>
<g id="a_node17"><a xlink:href="render__blend__background_8c.html" target="_top" xlink:title=" ">
<polygon fill="none" stroke="black" points="1449.5,-6 1449.5,-25 1617.5,-25 1617.5,-6 1449.5,-6"/>
<text text-anchor="middle" x="1533.5" y="-13" font-family="Helvetica,sans-Serif" font-size="10.00">src/render_blend_background.c</text>
</a>
</g>
</g>
<!-- Node16&#45;&gt;Node17 -->
<g id="edge16" class="edge">
<title>Node16&#45;&gt;Node17</title>
<path fill="none" stroke="midnightblue" d="M1286.85,-66.42C1343.41,-54.97 1437.19,-35.99 1491.35,-25.03"/>
<polygon fill="midnightblue" stroke="midnightblue" points="1285.84,-63.05 1276.74,-68.46 1287.23,-69.91 1285.84,-63.05"/>
</g>
<!-- Node18 -->
<g id="node18" class="node">
<title>Node18</title>
<g id="a_node18"><a xlink:href="render__cleanup_8c.html" target="_top" xlink:title=" ">
<polygon fill="none" stroke="black" points="1636,-6 1636,-25 1753,-25 1753,-6 1636,-6"/>
<text text-anchor="middle" x="1694.5" y="-13" font-family="Helvetica,sans-Serif" font-size="10.00">src/render_cleanup.c</text>
</a>
</g>
</g>
<!-- Node16&#45;&gt;Node18 -->
<g id="edge17" class="edge">
<title>Node16&#45;&gt;Node18</title>
<path fill="none" stroke="midnightblue" d="M1287.02,-71.93C1360.22,-65.33 1504.83,-51 1626.5,-31 1636.62,-29.34 1647.52,-27.18 1657.56,-25.04"/>
<polygon fill="midnightblue" stroke="midnightblue" points="1286.4,-68.47 1276.75,-72.85 1287.02,-75.44 1286.4,-68.47"/>
</g>
<!-- Node19 -->
<g id="node19" class="node">
<title>Node19</title>
<g id="a_node19"><a xlink:href="render__draw_8c.html" target="_top" xlink:title=" ">
<polygon fill="none" stroke="black" points="1771.5,-6 1771.5,-25 1873.5,-25 1873.5,-6 1771.5,-6"/>
<text text-anchor="middle" x="1822.5" y="-13" font-family="Helvetica,sans-Serif" font-size="10.00">src/render_draw.c</text>
</a>
</g>
</g>
<!-- Node16&#45;&gt;Node19 -->
<g id="edge18" class="edge">
<title>Node16&#45;&gt;Node19</title>
<path fill="none" stroke="midnightblue" d="M1286.86,-74.26C1378.85,-70.35 1587.91,-58.96 1761.5,-31 1770.96,-29.48 1781.12,-27.29 1790.39,-25.07"/>
<polygon fill="midnightblue" stroke="midnightblue" points="1286.6,-70.76 1276.76,-74.67 1286.89,-77.76 1286.6,-70.76"/>
</g>
<!-- Node20 -->
<g id="node20" class="node">
<title>Node20</title>
<g id="a_node20"><a xlink:href="render__init_8c.html" target="_top" xlink:title=" ">
<polygon fill="none" stroke="black" points="1892,-6 1892,-25 1987,-25 1987,-6 1892,-6"/>
<text text-anchor="middle" x="1939.5" y="-13" font-family="Helvetica,sans-Serif" font-size="10.00">src/render_init.c</text>
</a>
</g>
</g>
<!-- Node16&#45;&gt;Node20 -->
<g id="edge19" class="edge">
<title>Node16&#45;&gt;Node20</title>
<path fill="none" stroke="midnightblue" d="M1286.87,-75.58C1393.78,-74 1661.7,-66.52 1882.5,-31 1891.57,-29.54 1901.31,-27.32 1910.13,-25.04"/>
<polygon fill="midnightblue" stroke="midnightblue" points="1286.69,-72.08 1276.73,-75.72 1286.78,-79.08 1286.69,-72.08"/>
</g>
<!-- Node21 -->
<g id="node21" class="node">
<title>Node21</title>
<g id="a_node21"><a xlink:href="render__init__mlx_8c.html" target="_top" xlink:title=" ">
<polygon fill="none" stroke="black" points="0,-6 0,-25 119,-25 119,-6 0,-6"/>
<text text-anchor="middle" x="59.5" y="-13" font-family="Helvetica,sans-Serif" font-size="10.00">src/render_init_mlx.c</text>
</a>
</g>
</g>
<!-- Node16&#45;&gt;Node21 -->
<g id="edge20" class="edge">
<title>Node16&#45;&gt;Node21</title>
<path fill="none" stroke="midnightblue" d="M1192.24,-67.21C720.51,-15.38 594.9,-87.46 128.5,-31 117.32,-29.65 105.26,-27.39 94.41,-25.06"/>
<polygon fill="midnightblue" stroke="midnightblue" points="1192.06,-70.71 1202.38,-68.34 1192.83,-63.76 1192.06,-70.71"/>
</g>
<!-- Node22 -->
<g id="node22" class="node">
<title>Node22</title>
<g id="a_node22"><a xlink:href="render__keyhook__camera_8c.html" target="_top" xlink:title=" ">
<polygon fill="none" stroke="black" points="137.5,-0.5 137.5,-30.5 249.5,-30.5 249.5,-0.5 137.5,-0.5"/>
<text text-anchor="start" x="145.5" y="-18.5" font-family="Helvetica,sans-Serif" font-size="10.00">src/render_keyhook</text>
<text text-anchor="middle" x="193.5" y="-7.5" font-family="Helvetica,sans-Serif" font-size="10.00">_camera.c</text>
</a>
</g>
</g>
<!-- Node16&#45;&gt;Node22 -->
<g id="edge21" class="edge">
<title>Node16&#45;&gt;Node22</title>
<path fill="none" stroke="midnightblue" d="M1192.23,-67.2C777.99,-20.84 667.15,-84.01 258.5,-31 255.63,-30.63 252.71,-30.19 249.76,-29.7"/>
<polygon fill="midnightblue" stroke="midnightblue" points="1192.05,-70.71 1202.38,-68.36 1192.84,-63.75 1192.05,-70.71"/>
</g>
<!-- Node23 -->
<g id="node23" class="node">
<title>Node23</title>
<g id="a_node23"><a xlink:href="render__keyhook__colour_8c.html" target="_top" xlink:title=" ">
<polygon fill="none" stroke="black" points="267.5,-0.5 267.5,-30.5 379.5,-30.5 379.5,-0.5 267.5,-0.5"/>
<text text-anchor="start" x="275.5" y="-18.5" font-family="Helvetica,sans-Serif" font-size="10.00">src/render_keyhook</text>
<text text-anchor="middle" x="323.5" y="-7.5" font-family="Helvetica,sans-Serif" font-size="10.00">_colour.c</text>
</a>
</g>
</g>
<!-- Node16&#45;&gt;Node23 -->
<g id="edge22" class="edge">
<title>Node16&#45;&gt;Node23</title>
<path fill="none" stroke="midnightblue" d="M1192.28,-67.2C835.48,-26.23 739.78,-77.68 388.5,-31 385.63,-30.62 382.71,-30.17 379.76,-29.68"/>
<polygon fill="midnightblue" stroke="midnightblue" points="1192.04,-70.7 1202.38,-68.38 1192.85,-63.74 1192.04,-70.7"/>
</g>
<!-- Node24 -->
<g id="node24" class="node">
<title>Node24</title>
<g id="a_node24"><a xlink:href="render__keyhook__hittable_8c.html" target="_top" xlink:title=" ">
<polygon fill="none" stroke="black" points="397.5,-0.5 397.5,-30.5 509.5,-30.5 509.5,-0.5 397.5,-0.5"/>
<text text-anchor="start" x="405.5" y="-18.5" font-family="Helvetica,sans-Serif" font-size="10.00">src/render_keyhook</text>
<text text-anchor="middle" x="453.5" y="-7.5" font-family="Helvetica,sans-Serif" font-size="10.00">_hittable.c</text>
</a>
</g>
</g>
<!-- Node16&#45;&gt;Node24 -->
<g id="edge23" class="edge">
<title>Node16&#45;&gt;Node24</title>
<path fill="none" stroke="midnightblue" d="M1192.09,-67.17C892.92,-31.62 812.36,-71.34 518.5,-31 515.64,-30.61 512.71,-30.15 509.77,-29.65"/>
<polygon fill="midnightblue" stroke="midnightblue" points="1192.03,-70.68 1202.37,-68.41 1192.86,-63.73 1192.03,-70.68"/>
</g>
<!-- Node25 -->
<g id="node25" class="node">
<title>Node25</title>
<g id="a_node25"><a xlink:href="render__keyhook__light_8c.html" target="_top" xlink:title=" ">
<polygon fill="none" stroke="black" points="527.5,-0.5 527.5,-30.5 639.5,-30.5 639.5,-0.5 527.5,-0.5"/>
<text text-anchor="start" x="535.5" y="-18.5" font-family="Helvetica,sans-Serif" font-size="10.00">src/render_keyhook</text>
<text text-anchor="middle" x="583.5" y="-7.5" font-family="Helvetica,sans-Serif" font-size="10.00">_light.c</text>
</a>
</g>
</g>
<!-- Node16&#45;&gt;Node25 -->
<g id="edge24" class="edge">
<title>Node16&#45;&gt;Node25</title>
<path fill="none" stroke="midnightblue" d="M1192.21,-67.16C950.39,-36.95 885.06,-65.01 648.5,-31 645.64,-30.59 642.72,-30.12 639.77,-29.61"/>
<polygon fill="midnightblue" stroke="midnightblue" points="1192.01,-70.66 1202.37,-68.45 1192.89,-63.72 1192.01,-70.66"/>
</g>
<!-- Node26 -->
<g id="node26" class="node">
<title>Node26</title>
<g id="a_node26"><a xlink:href="render__keyhook__options_8c.html" target="_top" xlink:title=" ">
<polygon fill="none" stroke="black" points="657.5,-0.5 657.5,-30.5 769.5,-30.5 769.5,-0.5 657.5,-0.5"/>
<text text-anchor="start" x="665.5" y="-18.5" font-family="Helvetica,sans-Serif" font-size="10.00">src/render_keyhook</text>
<text text-anchor="middle" x="713.5" y="-7.5" font-family="Helvetica,sans-Serif" font-size="10.00">_options.c</text>
</a>
</g>
</g>
<!-- Node16&#45;&gt;Node26 -->
<g id="edge25" class="edge">
<title>Node16&#45;&gt;Node26</title>
<path fill="none" stroke="midnightblue" d="M1192.32,-67.14C1007.81,-42.2 957.83,-58.67 778.5,-31 775.64,-30.56 772.72,-30.07 769.78,-29.54"/>
<polygon fill="midnightblue" stroke="midnightblue" points="1191.97,-70.63 1202.36,-68.52 1192.93,-63.69 1191.97,-70.63"/>
</g>
<!-- Node27 -->
<g id="node27" class="node">
<title>Node27</title>
<g id="a_node27"><a xlink:href="render__keyhook__press_8c.html" target="_top" xlink:title=" ">
<polygon fill="none" stroke="black" points="787.5,-0.5 787.5,-30.5 899.5,-30.5 899.5,-0.5 787.5,-0.5"/>
<text text-anchor="start" x="795.5" y="-18.5" font-family="Helvetica,sans-Serif" font-size="10.00">src/render_keyhook</text>
<text text-anchor="middle" x="843.5" y="-7.5" font-family="Helvetica,sans-Serif" font-size="10.00">_press.c</text>
</a>
</g>
</g>
<!-- Node16&#45;&gt;Node27 -->
<g id="edge26" class="edge">
<title>Node16&#45;&gt;Node27</title>
<path fill="none" stroke="midnightblue" d="M1192.21,-67.06C1065.11,-47.3 1030.66,-52.32 908.5,-31 905.65,-30.5 902.74,-29.96 899.81,-29.4"/>
<polygon fill="midnightblue" stroke="midnightblue" points="1191.91,-70.56 1202.34,-68.66 1193,-63.65 1191.91,-70.56"/>
</g>
<!-- Node28 -->
<g id="node28" class="node">
<title>Node28</title>
<g id="a_node28"><a xlink:href="render__keyhook__scene_8c.html" target="_top" xlink:title=" ">
<polygon fill="none" stroke="black" points="917.5,-0.5 917.5,-30.5 1029.5,-30.5 1029.5,-0.5 917.5,-0.5"/>
<text text-anchor="start" x="925.5" y="-18.5" font-family="Helvetica,sans-Serif" font-size="10.00">src/render_keyhook</text>
<text text-anchor="middle" x="973.5" y="-7.5" font-family="Helvetica,sans-Serif" font-size="10.00">_scene.c</text>
</a>
</g>
</g>
<!-- Node16&#45;&gt;Node28 -->
<g id="edge27" class="edge">
<title>Node16&#45;&gt;Node28</title>
<path fill="none" stroke="midnightblue" d="M1192.32,-65.45C1146.79,-55.26 1077.83,-39.84 1029.52,-29.03"/>
<polygon fill="midnightblue" stroke="midnightblue" points="1191.71,-68.9 1202.23,-67.66 1193.24,-62.07 1191.71,-68.9"/>
</g>
<!-- Node29 -->
<g id="node29" class="node">
<title>Node29</title>
<g id="a_node29"><a xlink:href="render__keyhook__utils_8c.html" target="_top" xlink:title=" ">
<polygon fill="none" stroke="black" points="1047.5,-0.5 1047.5,-30.5 1159.5,-30.5 1159.5,-0.5 1047.5,-0.5"/>
<text text-anchor="start" x="1055.5" y="-18.5" font-family="Helvetica,sans-Serif" font-size="10.00">src/render_keyhook</text>
<text text-anchor="middle" x="1103.5" y="-7.5" font-family="Helvetica,sans-Serif" font-size="10.00">_utils.c</text>
</a>
</g>
</g>
<!-- Node16&#45;&gt;Node29 -->
<g id="edge28" class="edge">
<title>Node16&#45;&gt;Node29</title>
<path fill="none" stroke="midnightblue" d="M1210.84,-63.46C1188.81,-53.82 1158.39,-40.51 1135.55,-30.52"/>
<polygon fill="midnightblue" stroke="midnightblue" points="1209.45,-66.67 1220.01,-67.48 1212.26,-60.26 1209.45,-66.67"/>
</g>
<!-- Node30 -->
<g id="node30" class="node">
<title>Node30</title>
<g id="a_node30"><a xlink:href="render__loop__mlx_8c.html" target="_top" xlink:title=" ">
<polygon fill="none" stroke="black" points="1177.5,-6 1177.5,-25 1301.5,-25 1301.5,-6 1177.5,-6"/>
<text text-anchor="middle" x="1239.5" y="-13" font-family="Helvetica,sans-Serif" font-size="10.00">src/render_loop_mlx.c</text>
</a>
</g>
</g>
<!-- Node16&#45;&gt;Node30 -->
<g id="edge29" class="edge">
<title>Node16&#45;&gt;Node30</title>
<path fill="none" stroke="midnightblue" d="M1239.5,-57.32C1239.5,-46.5 1239.5,-33.4 1239.5,-25.01"/>
<polygon fill="midnightblue" stroke="midnightblue" points="1236,-57.48 1239.5,-67.48 1243,-57.48 1236,-57.48"/>
</g>
<!-- Node31 -->
<g id="node31" class="node">
<title>Node31</title>
<g id="a_node31"><a xlink:href="render__mouse_8c.html" target="_top" xlink:title=" ">
<polygon fill="none" stroke="black" points="1319.5,-6 1319.5,-25 1431.5,-25 1431.5,-6 1319.5,-6"/>
<text text-anchor="middle" x="1375.5" y="-13" font-family="Helvetica,sans-Serif" font-size="10.00">src/render_mouse.c</text>
</a>
</g>
</g>
<!-- Node16&#45;&gt;Node31 -->
<g id="edge30" class="edge">
<title>Node16&#45;&gt;Node31</title>
<path fill="none" stroke="midnightblue" d="M1268.47,-63.33C1294.87,-51.78 1333.14,-35.03 1356.05,-25.01"/>
<polygon fill="midnightblue" stroke="midnightblue" points="1266.74,-60.26 1258.99,-67.48 1269.55,-66.67 1266.74,-60.26"/>
</g>
<!-- Node33 -->
<g id="node33" class="node">
<title>Node33</title>
<g id="a_node33"><a xlink:href="menu__put_8h.html" target="_top" xlink:title=" ">
<polygon fill="none" stroke="red" points="2005.5,-6 2005.5,-25 2097.5,-25 2097.5,-6 2005.5,-6"/>
<text text-anchor="middle" x="2051.5" y="-13" font-family="Helvetica,sans-Serif" font-size="10.00">inc/menu_put.h</text>
</a>
</g>
</g>
<!-- Node32&#45;&gt;Node33 -->
<g id="edge32" class="edge">
<title>Node32&#45;&gt;Node33</title>
<path fill="none" stroke="midnightblue" d="M2397.64,-70.4C2325.97,-63.6 2207.34,-50.58 2106.5,-31 2098.16,-29.38 2089.22,-27.21 2081.02,-25.05"/>
<polygon fill="midnightblue" stroke="midnightblue" points="2397.58,-73.91 2407.86,-71.35 2398.23,-66.94 2397.58,-73.91"/>
</g>
<!-- Node51 -->
<g id="node34" class="node">
<title>Node51</title>
<g id="a_node34"><a xlink:href="mini_r_t_8h.html" target="_top" xlink:title=" ">
<polygon fill="none" stroke="red" points="3065.5,-6 3065.5,-25 3141.5,-25 3141.5,-6 3065.5,-6"/>
<text text-anchor="middle" x="3103.5" y="-13" font-family="Helvetica,sans-Serif" font-size="10.00">inc/miniRT.h</text>
</a>
</g>
</g>
<!-- Node32&#45;&gt;Node51 -->
<g id="edge33" class="edge">
<title>Node32&#45;&gt;Node51</title>
<path fill="none" stroke="midnightblue" d="M2527.06,-67.46C2528.55,-67.3 2530.03,-67.15 2531.5,-67 2764.23,-43.86 2826.56,-73.76 3056.5,-31 3064.06,-29.59 3072.11,-27.39 3079.37,-25.11"/>
<polygon fill="midnightblue" stroke="midnightblue" points="2526.63,-63.98 2517.08,-68.57 2527.4,-70.94 2526.63,-63.98"/>
</g>
<!-- Node53 -->
<g id="node35" class="node">
<title>Node53</title>
<g id="a_node35"><a xlink:href="render__cleanup__bonus_8c.html" target="_top" xlink:title=" ">
<polygon fill="none" stroke="black" points="2116,-0.5 2116,-30.5 2225,-30.5 2225,-0.5 2116,-0.5"/>
<text text-anchor="start" x="2124" y="-18.5" font-family="Helvetica,sans-Serif" font-size="10.00">src/render_cleanup</text>
<text text-anchor="middle" x="2170.5" y="-7.5" font-family="Helvetica,sans-Serif" font-size="10.00">_bonus.c</text>
</a>
</g>
</g>
<!-- Node32&#45;&gt;Node53 -->
<g id="edge34" class="edge">
<title>Node32&#45;&gt;Node53</title>
<path fill="none" stroke="midnightblue" d="M2406.93,-65.6C2360.49,-56.78 2292.57,-43.6 2233.5,-31 2230.76,-30.41 2227.95,-29.81 2225.11,-29.18"/>
<polygon fill="midnightblue" stroke="midnightblue" points="2406.31,-69.04 2416.79,-67.47 2407.62,-62.17 2406.31,-69.04"/>
</g>
<!-- Node54 -->
<g id="node36" class="node">
<title>Node54</title>
<g id="a_node36"><a xlink:href="render__draw__bonus_8c.html" target="_top" xlink:title=" ">
<polygon fill="none" stroke="black" points="2243,-6 2243,-25 2380,-25 2380,-6 2243,-6"/>
<text text-anchor="middle" x="2311.5" y="-13" font-family="Helvetica,sans-Serif" font-size="10.00">src/render_draw_bonus.c</text>
</a>
</g>
</g>
<!-- Node32&#45;&gt;Node54 -->
<g id="edge35" class="edge">
<title>Node32&#45;&gt;Node54</title>
<path fill="none" stroke="midnightblue" d="M2431.49,-63.78C2402.15,-52.22 2358.87,-35.16 2333.09,-25.01"/>
<polygon fill="midnightblue" stroke="midnightblue" points="2430.28,-67.07 2440.87,-67.48 2432.84,-60.55 2430.28,-67.07"/>
</g>
<!-- Node55 -->
<g id="node37" class="node">
<title>Node55</title>
<g id="a_node37"><a xlink:href="render__init__bonus_8c.html" target="_top" xlink:title=" ">
<polygon fill="none" stroke="black" points="2398,-6 2398,-25 2527,-25 2527,-6 2398,-6"/>
<text text-anchor="middle" x="2462.5" y="-13" font-family="Helvetica,sans-Serif" font-size="10.00">src/render_init_bonus.c</text>
</a>
</g>
</g>
<!-- Node32&#45;&gt;Node55 -->
<g id="edge36" class="edge">
<title>Node32&#45;&gt;Node55</title>
<path fill="none" stroke="midnightblue" d="M2462.5,-57.32C2462.5,-46.5 2462.5,-33.4 2462.5,-25.01"/>
<polygon fill="midnightblue" stroke="midnightblue" points="2459,-57.48 2462.5,-67.48 2466,-57.48 2459,-57.48"/>
</g>
<!-- Node56 -->
<g id="node38" class="node">
<title>Node56</title>
<g id="a_node38"><a xlink:href="render__keyhook__camera__bonus_8c.html" target="_top" xlink:title=" ">
<polygon fill="none" stroke="black" points="2545.5,-0.5 2545.5,-30.5 2657.5,-30.5 2657.5,-0.5 2545.5,-0.5"/>
<text text-anchor="start" x="2553.5" y="-18.5" font-family="Helvetica,sans-Serif" font-size="10.00">src/render_keyhook</text>
<text text-anchor="middle" x="2601.5" y="-7.5" font-family="Helvetica,sans-Serif" font-size="10.00">_camera_bonus.c</text>
</a>
</g>
</g>
<!-- Node32&#45;&gt;Node56 -->
<g id="edge37" class="edge">
<title>Node32&#45;&gt;Node56</title>
<path fill="none" stroke="midnightblue" d="M2491.79,-63.46C2514.31,-53.82 2545.4,-40.51 2568.74,-30.52"/>
<polygon fill="midnightblue" stroke="midnightblue" points="2490.23,-60.32 2482.42,-67.48 2492.99,-66.76 2490.23,-60.32"/>
</g>
<!-- Node57 -->
<g id="node39" class="node">
<title>Node57</title>
<g id="a_node39"><a xlink:href="render__keyhook__hittable__bonus_8c.html" target="_top" xlink:title=" ">
<polygon fill="none" stroke="black" points="2675.5,-0.5 2675.5,-30.5 2787.5,-30.5 2787.5,-0.5 2675.5,-0.5"/>
<text text-anchor="start" x="2683.5" y="-18.5" font-family="Helvetica,sans-Serif" font-size="10.00">src/render_keyhook</text>
<text text-anchor="middle" x="2731.5" y="-7.5" font-family="Helvetica,sans-Serif" font-size="10.00">_hittable_bonus.c</text>
</a>
</g>
</g>
<!-- Node32&#45;&gt;Node57 -->
<g id="edge38" class="edge">
<title>Node32&#45;&gt;Node57</title>
<path fill="none" stroke="midnightblue" d="M2511.04,-65.33C2552.38,-56.23 2613.35,-42.79 2666.5,-31 2669.43,-30.35 2672.44,-29.68 2675.48,-29.01"/>
<polygon fill="midnightblue" stroke="midnightblue" points="2510.25,-61.92 2501.23,-67.48 2511.75,-68.75 2510.25,-61.92"/>
</g>
<!-- Node58 -->
<g id="node40" class="node">
<title>Node58</title>
<g id="a_node40"><a xlink:href="render__keyhook__options__bonus_8c.html" target="_top" xlink:title=" ">
<polygon fill="none" stroke="black" points="2805.5,-0.5 2805.5,-30.5 2917.5,-30.5 2917.5,-0.5 2805.5,-0.5"/>
<text text-anchor="start" x="2813.5" y="-18.5" font-family="Helvetica,sans-Serif" font-size="10.00">src/render_keyhook</text>
<text text-anchor="middle" x="2861.5" y="-7.5" font-family="Helvetica,sans-Serif" font-size="10.00">_options_bonus.c</text>
</a>
</g>
</g>
<!-- Node32&#45;&gt;Node58 -->
<g id="edge39" class="edge">
<title>Node32&#45;&gt;Node58</title>
<path fill="none" stroke="midnightblue" d="M2527,-67.45C2620.34,-55.07 2783.41,-33.34 2796.5,-31 2799.35,-30.49 2802.26,-29.94 2805.19,-29.37"/>
<polygon fill="midnightblue" stroke="midnightblue" points="2526.54,-63.98 2517.09,-68.77 2527.46,-70.92 2526.54,-63.98"/>
</g>
<!-- Node59 -->
<g id="node41" class="node">
<title>Node59</title>
<g id="a_node41"><a xlink:href="render__keyhook__press__bonus_8c.html" target="_top" xlink:title=" ">
<polygon fill="none" stroke="black" points="2935.5,-0.5 2935.5,-30.5 3047.5,-30.5 3047.5,-0.5 2935.5,-0.5"/>
<text text-anchor="start" x="2943.5" y="-18.5" font-family="Helvetica,sans-Serif" font-size="10.00">src/render_keyhook</text>
<text text-anchor="middle" x="2991.5" y="-7.5" font-family="Helvetica,sans-Serif" font-size="10.00">_press_bonus.c</text>
</a>
</g>
</g>
<!-- Node32&#45;&gt;Node59 -->
<g id="edge40" class="edge">
<title>Node32&#45;&gt;Node59</title>
<path fill="none" stroke="midnightblue" d="M2527.06,-67.5C2528.56,-67.33 2530.04,-67.16 2531.5,-67 2706.71,-47.6 2752.34,-58.25 2926.5,-31 2929.36,-30.55 2932.27,-30.06 2935.21,-29.52"/>
<polygon fill="midnightblue" stroke="midnightblue" points="2526.61,-64.03 2517.09,-68.68 2527.43,-70.98 2526.61,-64.03"/>
</g>
<!-- Node68 -->
<g id="node44" class="node">
<title>Node68</title>
<g id="a_node44"><a xlink:href="camera_8h.html" target="_top" xlink:title=" ">
<polygon fill="none" stroke="red" points="2511.5,-129 2511.5,-148 2591.5,-148 2591.5,-129 2511.5,-129"/>
<text text-anchor="middle" x="2551.5" y="-136" font-family="Helvetica,sans-Serif" font-size="10.00">inc/camera.h</text>
</a>
</g>
</g>
<!-- Node67&#45;&gt;Node68 -->
<g id="edge43" class="edge">
<title>Node67&#45;&gt;Node68</title>
<path fill="none" stroke="midnightblue" d="M2575.6,-181.67C2569.28,-170.61 2561.36,-156.75 2556.36,-148.01"/>
<polygon fill="midnightblue" stroke="midnightblue" points="2572.63,-183.53 2580.63,-190.48 2578.71,-180.06 2572.63,-183.53"/>
</g>
<!-- Node72 -->
<g id="node45" class="node">
<title>Node72</title>
<g id="a_node45"><a xlink:href="parse_8h.html" target="_top" xlink:title=" ">
<polygon fill="none" stroke="red" points="2695.5,-67.5 2695.5,-86.5 2765.5,-86.5 2765.5,-67.5 2695.5,-67.5"/>
<text text-anchor="middle" x="2730.5" y="-74.5" font-family="Helvetica,sans-Serif" font-size="10.00">inc/parse.h</text>
</a>
</g>
</g>
<!-- Node67&#45;&gt;Node72 -->
<g id="edge51" class="edge">
<title>Node67&#45;&gt;Node72</title>
<path fill="none" stroke="midnightblue" d="M2603.98,-183.56C2622.36,-168.2 2651.37,-143.96 2676.5,-123 2691.68,-110.34 2709.27,-95.68 2720.15,-86.62"/>
<polygon fill="midnightblue" stroke="midnightblue" points="2601.3,-181.24 2595.87,-190.33 2605.79,-186.61 2601.3,-181.24"/>
</g>
<!-- Node77 -->
<g id="node46" class="node">
<title>Node77</title>
<g id="a_node46"><a xlink:href="parse__bonus_8h.html" target="_top" xlink:title=" ">
<polygon fill="none" stroke="red" points="2573.5,-67.5 2573.5,-86.5 2677.5,-86.5 2677.5,-67.5 2573.5,-67.5"/>
<text text-anchor="middle" x="2625.5" y="-74.5" font-family="Helvetica,sans-Serif" font-size="10.00">inc/parse_bonus.h</text>
</a>
</g>
</g>
<!-- Node67&#45;&gt;Node77 -->
<g id="edge52" class="edge">
<title>Node67&#45;&gt;Node77</title>
<path fill="none" stroke="midnightblue" d="M2591.6,-180.75C2594.33,-172.57 2597.58,-162.81 2600.5,-154 2608.53,-129.74 2617.93,-101.09 2622.59,-86.9"/>
<polygon fill="midnightblue" stroke="midnightblue" points="2588.23,-179.78 2588.39,-190.38 2594.87,-182 2588.23,-179.78"/>
</g>
<!-- Node108 -->
<g id="node47" class="node">
<title>Node108</title>
<g id="a_node47"><a xlink:href="import__file_8h.html" target="_top" xlink:title=" ">
<polygon fill="none" stroke="red" points="2686,-129 2686,-148 2781,-148 2781,-129 2686,-129"/>
<text text-anchor="middle" x="2733.5" y="-136" font-family="Helvetica,sans-Serif" font-size="10.00">inc/import_file.h</text>
</a>
</g>
</g>
<!-- Node67&#45;&gt;Node108 -->
<g id="edge50" class="edge">
<title>Node67&#45;&gt;Node108</title>
<path fill="none" stroke="midnightblue" d="M2616.27,-186.63C2645.02,-175.07 2687.18,-158.12 2712.33,-148.01"/>
<polygon fill="midnightblue" stroke="midnightblue" points="2614.68,-183.5 2606.7,-190.48 2617.29,-189.99 2614.68,-183.5"/>
</g>
<!-- Node111 -->
<g id="node48" class="node">
<title>Node111</title>
<g id="a_node48"><a xlink:href="error__syscall_8c.html" target="_top" xlink:title=" ">
<polygon fill="none" stroke="black" points="2389.5,-129 2389.5,-148 2493.5,-148 2493.5,-129 2389.5,-129"/>
<text text-anchor="middle" x="2441.5" y="-136" font-family="Helvetica,sans-Serif" font-size="10.00">src/error_syscall.c</text>
</a>
</g>
</g>
<!-- Node67&#45;&gt;Node111 -->
<g id="edge53" class="edge">
<title>Node67&#45;&gt;Node111</title>
<path fill="none" stroke="midnightblue" d="M2555.57,-186.63C2527.59,-175.07 2486.56,-158.12 2462.09,-148.01"/>
<polygon fill="midnightblue" stroke="midnightblue" points="2554.29,-189.89 2564.87,-190.48 2556.96,-183.42 2554.29,-189.89"/>
</g>
<!-- Node68&#45;&gt;Node16 -->
<g id="edge48" class="edge">
<title>Node68&#45;&gt;Node16</title>
<path fill="none" stroke="midnightblue" d="M2517.28,-126.19C2512.36,-124.91 2507.33,-123.79 2502.5,-123 2379,-102.86 1472.68,-82.88 1276.77,-78.77"/>
<polygon fill="midnightblue" stroke="midnightblue" points="2516.53,-129.61 2527.11,-128.97 2518.43,-122.88 2516.53,-129.61"/>
</g>
<!-- Node68&#45;&gt;Node32 -->
<g id="edge49" class="edge">
<title>Node68&#45;&gt;Node32</title>
<path fill="none" stroke="midnightblue" d="M2529.98,-123.11C2512.86,-111.67 2489.49,-96.05 2475.23,-86.51"/>
<polygon fill="midnightblue" stroke="midnightblue" points="2528.49,-126.33 2538.75,-128.98 2532.38,-120.51 2528.49,-126.33"/>
</g>
<!-- Node68&#45;&gt;Node51 -->
<g id="edge44" class="edge">
<title>Node68&#45;&gt;Node51</title>
<path fill="none" stroke="midnightblue" d="M2549.23,-118.54C2548.45,-102.33 2550.34,-79.69 2564.5,-67 2605.32,-30.42 3002.63,-41.14 3056.5,-31 3064.05,-29.58 3072.1,-27.36 3079.37,-25.09"/>
<polygon fill="midnightblue" stroke="midnightblue" points="2545.74,-118.86 2550.08,-128.53 2552.72,-118.27 2545.74,-118.86"/>
</g>
<!-- Node68&#45;&gt;Node72 -->
<g id="edge45" class="edge">
<title>Node68&#45;&gt;Node72</title>
<path fill="none" stroke="midnightblue" d="M2586.9,-125.73C2621.7,-114.17 2673.95,-96.8 2704.9,-86.51"/>
<polygon fill="midnightblue" stroke="midnightblue" points="2585.53,-122.5 2577.15,-128.98 2587.74,-129.14 2585.53,-122.5"/>
</g>
<!-- Node68&#45;&gt;Node77 -->
<g id="edge46" class="edge">
<title>Node68&#45;&gt;Node77</title>
<path fill="none" stroke="midnightblue" d="M2570.19,-122.47C2584.34,-111.09 2603.28,-95.87 2614.92,-86.51"/>
<polygon fill="midnightblue" stroke="midnightblue" points="2567.7,-119.98 2562.1,-128.98 2572.09,-125.44 2567.7,-119.98"/>
</g>
<!-- Node77&#45;&gt;Node51 -->
<g id="edge47" class="edge">
<title>Node77&#45;&gt;Node51</title>
<path fill="none" stroke="midnightblue" d="M2687.7,-66.92C2852.26,-47.57 2897.67,-62.88 3056.5,-31 3063.87,-29.52 3071.72,-27.35 3078.86,-25.13"/>
<polygon fill="midnightblue" stroke="midnightblue" points="2687.23,-63.45 2677.72,-68.12 2688.07,-70.4 2687.23,-63.45"/>
</g>
<!-- Node112&#45;&gt;Node16 -->
<g id="edge55" class="edge">
<title>Node112&#45;&gt;Node16</title>
<path fill="none" stroke="midnightblue" d="M1789.6,-126.81C1782.57,-125.37 1775.36,-124.04 1768.5,-123 1585.1,-95.18 1363.13,-83.29 1276.57,-79.48"/>
<polygon fill="midnightblue" stroke="midnightblue" points="1789.21,-130.3 1799.72,-128.96 1790.67,-123.46 1789.21,-130.3"/>
</g>
<!-- Node112&#45;&gt;Node32 -->
<g id="edge56" class="edge">
<title>Node112&#45;&gt;Node32</title>
<path fill="none" stroke="midnightblue" d="M1901.82,-131.12C2026.87,-119.27 2292.7,-94.09 2407.65,-83.2"/>
<polygon fill="midnightblue" stroke="midnightblue" points="1901.24,-127.66 1891.62,-132.09 1901.9,-134.63 1901.24,-127.66"/>
</g>
<!-- Node113 -->
<g id="node50" class="node">
<title>Node113</title>
<g id="a_node50"><a xlink:href="threads__bonus_8c.html" target="_top" xlink:title=" ">
<polygon fill="none" stroke="black" points="1778,-67.5 1778,-86.5 1891,-86.5 1891,-67.5 1778,-67.5"/>
<text text-anchor="middle" x="1834.5" y="-74.5" font-family="Helvetica,sans-Serif" font-size="10.00">src/threads_bonus.c</text>
</a>
</g>
</g>
<!-- Node112&#45;&gt;Node113 -->
<g id="edge57" class="edge">
<title>Node112&#45;&gt;Node113</title>
<path fill="none" stroke="midnightblue" d="M1834.5,-118.82C1834.5,-108 1834.5,-94.9 1834.5,-86.51"/>
<polygon fill="midnightblue" stroke="midnightblue" points="1831,-118.98 1834.5,-128.98 1838,-118.98 1831,-118.98"/>
</g>
</g>
</svg>
