<?xml version="1.0" encoding="UTF-8" standalone="no"?>
<!DOCTYPE svg PUBLIC "-//W3C//DTD SVG 1.1//EN"
 "http://www.w3.org/Graphics/SVG/1.1/DTD/svg11.dtd">
<!-- Generated by graphviz version 2.43.0 (0)
 -->
<!-- Title: ft_perror Pages: 1 -->
<!--zoomable 520 -->
<svg id="main" version="1.1" xmlns="http://www.w3.org/2000/svg" xmlns:xlink="http://www.w3.org/1999/xlink" xml:space="preserve" onload="init(evt)">
<style type="text/css"><![CDATA[
.edge:hover path { stroke: red; }
.edge:hover polygon { stroke: red; fill: red; }
]]></style>
<script type="text/javascript"><![CDATA[
var edges = document.getElementsByTagName('g');
if (edges && edges.length) {
  for (var i=0;i<edges.length;i++) {
    if (edges[i].id.substr(0,4)=='edge') {
      edges[i].setAttribute('class','edge');
    }
  }
}
]]></script>
        <defs>
                <circle id="rim" cx="0" cy="0" r="7"/>
                <circle id="rim2" cx="0" cy="0" r="3.5"/>
                <g id="zoomPlus">
                        <use xlink:href="#rim" fill="#404040">
                                <set attributeName="fill" to="#808080" begin="zoomplus.mouseover" end="zoomplus.mouseout"/>
                        </use>
                        <path d="M-4,0h8M0,-4v8" fill="none" stroke="white" stroke-width="1.5" pointer-events="none"/>
                </g>
                <g id="zoomMin">
                        <use xlink:href="#rim" fill="#404040">
                                <set attributeName="fill" to="#808080" begin="zoomminus.mouseover" end="zoomminus.mouseout"/>
                        </use>
                        <path d="M-4,0h8" fill="none" stroke="white" stroke-width="1.5" pointer-events="none"/>
                </g>
                <g id="dirArrow">
                        <path fill="none" stroke="white" stroke-width="1.5" d="M0,-3.0v7 M-2.5,-0.5L0,-3.0L2.5,-0.5"/>
                </g>
               <g id="resetDef">
                       <use xlink:href="#rim2" fill="#404040">
                               <set attributeName="fill" to="#808080" begin="reset.mouseover" end="reset.mouseout"/>
                       </use>
               </g>
        </defs>

<script type="text/javascript">
var viewWidth = 982;
var viewHeight = 520;
var sectionId = 'dynsection-1';
</script>
<script xlink:href="svgpan.js"/>
<svg id="graph" class="graph">
<g id="viewport">
<title>ft_perror</title>
<!-- Node1 -->
<g id="node1" class="node">
<title>Node1</title>
<g id="a_node1"><a xlink:title="Print generic error message.">
<polygon fill="#bfbfbf" stroke="black" points="916,-221.5 916,-240.5 974,-240.5 974,-221.5 916,-221.5"/>
<text text-anchor="middle" x="945" y="-228.5" font-family="Helvetica,sans-Serif" font-size="10.00">ft_perror</text>
</a>
</g>
</g>
<!-- Node2 -->
<g id="node2" class="node">
<title>Node2</title>
<g id="a_node2"><a xlink:href="check_8h.html#a9d550a03e395942fd0bb735c1dda47d9" target="_top" xlink:title="Dispatch function for different line types.">
<polygon fill="none" stroke="black" points="759.5,-164.5 759.5,-183.5 866.5,-183.5 866.5,-164.5 759.5,-164.5"/>
<text text-anchor="middle" x="813" y="-171.5" font-family="Helvetica,sans-Serif" font-size="10.00">ft_check_line_type</text>
</a>
</g>
</g>
<!-- Node1&#45;&gt;Node2 -->
<g id="edge1" class="edge">
<title>Node1&#45;&gt;Node2</title>
<path fill="none" stroke="midnightblue" d="M917.88,-216.58C906.42,-210.5 892.71,-203.56 880,-198 868.05,-192.77 854.56,-187.72 842.9,-183.61"/>
<polygon fill="midnightblue" stroke="midnightblue" points="916.44,-219.78 926.9,-221.43 919.75,-213.61 916.44,-219.78"/>
</g>
<!-- Node5 -->
<g id="node5" class="node">
<title>Node5</title>
<g id="a_node5"><a xlink:href="main_8c.html#a3c04138a5bfe5d72780bb7e82a18e627" target="_top" xlink:title=" ">
<polygon fill="none" stroke="black" points="0,-212.5 0,-231.5 41,-231.5 41,-212.5 0,-212.5"/>
<text text-anchor="middle" x="20.5" y="-219.5" font-family="Helvetica,sans-Serif" font-size="10.00">main</text>
</a>
</g>
</g>
<!-- Node1&#45;&gt;Node5 -->
<g id="edge35" class="edge">
<title>Node1&#45;&gt;Node5</title>
<path fill="none" stroke="midnightblue" d="M944.62,-250.93C944.84,-295 938.87,-401.3 880,-458 809.19,-526.2 763.31,-510 665,-510 665,-510 665,-510 248,-510 102.97,-510 36.61,-281.55 23.83,-231.58"/>
<polygon fill="midnightblue" stroke="midnightblue" points="948.12,-250.85 944.45,-240.91 941.12,-250.97 948.12,-250.85"/>
</g>
<!-- Node6 -->
<g id="node6" class="node">
<title>Node6</title>
<g id="a_node6"><a xlink:href="check__bonus_8h.html#ae33774d34021cd6fec6863eff3e8e3b0" target="_top" xlink:title="Dispatch function for different line types.">
<polygon fill="none" stroke="black" points="759.5,-115 759.5,-145 866.5,-145 866.5,-115 759.5,-115"/>
<text text-anchor="start" x="767.5" y="-133" font-family="Helvetica,sans-Serif" font-size="10.00">ft_check_line_type</text>
<text text-anchor="middle" x="813" y="-122" font-family="Helvetica,sans-Serif" font-size="10.00">_bonus</text>
</a>
</g>
</g>
<!-- Node1&#45;&gt;Node6 -->
<g id="edge5" class="edge">
<title>Node1&#45;&gt;Node6</title>
<path fill="none" stroke="midnightblue" d="M932.77,-212.97C921.35,-195.94 902.21,-170.74 880,-155 874.7,-151.25 868.77,-147.97 862.69,-145.15"/>
<polygon fill="midnightblue" stroke="midnightblue" points="929.91,-215 938.29,-221.48 935.78,-211.18 929.91,-215"/>
</g>
<!-- Node8 -->
<g id="node8" class="node">
<title>Node8</title>
<g id="a_node8"><a xlink:href="error__syscall_8h.html#a3e39b3f560404b954295453e40c41171" target="_top" xlink:title="Wrapper function for close() to print errno.">
<polygon fill="none" stroke="black" points="363,-453.5 363,-472.5 436,-472.5 436,-453.5 363,-453.5"/>
<text text-anchor="middle" x="399.5" y="-460.5" font-family="Helvetica,sans-Serif" font-size="10.00">ft_err_close</text>
</a>
</g>
</g>
<!-- Node1&#45;&gt;Node8 -->
<g id="edge8" class="edge">
<title>Node1&#45;&gt;Node8</title>
<path fill="none" stroke="midnightblue" d="M943,-250.69C940.01,-288.03 928.02,-369.18 880,-412 752.54,-525.66 523.73,-490.56 436.04,-471.61"/>
<polygon fill="midnightblue" stroke="midnightblue" points="946.5,-250.82 943.67,-240.61 939.52,-250.35 946.5,-250.82"/>
</g>
<!-- Node10 -->
<g id="node10" class="node">
<title>Node10</title>
<g id="a_node10"><a xlink:href="error__syscall_8h.html#a1ab50ff4af961d85a53bf12a8f398ba3" target="_top" xlink:title="Wrapper function for malloc() to print errno.">
<polygon fill="none" stroke="black" points="773,-294.5 773,-313.5 853,-313.5 853,-294.5 773,-294.5"/>
<text text-anchor="middle" x="813" y="-301.5" font-family="Helvetica,sans-Serif" font-size="10.00">ft_err_malloc</text>
</a>
</g>
</g>
<!-- Node1&#45;&gt;Node10 -->
<g id="edge11" class="edge">
<title>Node1&#45;&gt;Node10</title>
<path fill="none" stroke="midnightblue" d="M918.12,-245.53C892.24,-260.06 853.19,-281.99 831,-294.45"/>
<polygon fill="midnightblue" stroke="midnightblue" points="920,-248.49 927,-240.54 916.57,-242.39 920,-248.49"/>
</g>
<!-- Node13 -->
<g id="node13" class="node">
<title>Node13</title>
<g id="a_node13"><a xlink:href="import__file_8h.html#a9260f4680d33314ef51e7096426acdae" target="_top" xlink:title="Import file and split it into lines.">
<polygon fill="none" stroke="black" points="349.5,-348.5 349.5,-367.5 449.5,-367.5 449.5,-348.5 349.5,-348.5"/>
<text text-anchor="middle" x="399.5" y="-355.5" font-family="Helvetica,sans-Serif" font-size="10.00">ft_read_and_split</text>
</a>
</g>
</g>
<!-- Node1&#45;&gt;Node13 -->
<g id="edge34" class="edge">
<title>Node1&#45;&gt;Node13</title>
<path fill="none" stroke="midnightblue" d="M936.07,-249.87C926.16,-271.07 907.12,-304.9 880,-323 734.46,-420.16 664.03,-395.27 490,-377 472.31,-375.14 452.96,-371.27 436.8,-367.51"/>
<polygon fill="midnightblue" stroke="midnightblue" points="939.33,-251.15 940.21,-240.59 932.94,-248.3 939.33,-251.15"/>
</g>
<!-- Node17 -->
<g id="node17" class="node">
<title>Node17</title>
<g id="a_node17"><a xlink:href="error__mlx_8h.html#abd6a66916fc4bc87ff5d14ded2606585" target="_top" xlink:title="Wrapper function for mlx_init() to print errno.">
<polygon fill="none" stroke="black" points="769.5,-76.5 769.5,-95.5 856.5,-95.5 856.5,-76.5 769.5,-76.5"/>
<text text-anchor="middle" x="813" y="-83.5" font-family="Helvetica,sans-Serif" font-size="10.00">ft_err_mlx_init</text>
</a>
</g>
</g>
<!-- Node1&#45;&gt;Node17 -->
<g id="edge21" class="edge">
<title>Node1&#45;&gt;Node17</title>
<path fill="none" stroke="midnightblue" d="M939.44,-211.76C931.87,-184.05 914.06,-133.15 880,-105 873.29,-99.46 865.04,-95.53 856.67,-92.75"/>
<polygon fill="midnightblue" stroke="midnightblue" points="936.05,-212.64 941.93,-221.46 942.83,-210.91 936.05,-212.64"/>
</g>
<!-- Node19 -->
<g id="node19" class="node">
<title>Node19</title>
<g id="a_node19"><a xlink:href="error__mlx_8h.html#a609cd65b568e138870202147aff64449" target="_top" xlink:title="Wrapper function for mlx_new_image() to print errno.">
<polygon fill="none" stroke="black" points="749,-0.5 749,-19.5 877,-19.5 877,-0.5 749,-0.5"/>
<text text-anchor="middle" x="813" y="-7.5" font-family="Helvetica,sans-Serif" font-size="10.00">ft_err_mlx_new_image</text>
</a>
</g>
</g>
<!-- Node1&#45;&gt;Node19 -->
<g id="edge24" class="edge">
<title>Node1&#45;&gt;Node19</title>
<path fill="none" stroke="midnightblue" d="M943.62,-211.27C941.74,-171.09 931.68,-79.33 880,-29 876.07,-25.17 871.42,-22.11 866.44,-19.66"/>
<polygon fill="midnightblue" stroke="midnightblue" points="940.12,-211.49 943.96,-221.36 947.12,-211.25 940.12,-211.49"/>
</g>
<!-- Node21 -->
<g id="node21" class="node">
<title>Node21</title>
<g id="a_node21"><a xlink:href="error__mlx_8h.html#a4901d88031fcb0508d2e6fe728701816" target="_top" xlink:title="Wrapper function for mlx_new_window() to print errno.">
<polygon fill="none" stroke="black" points="746,-38.5 746,-57.5 880,-57.5 880,-38.5 746,-38.5"/>
<text text-anchor="middle" x="813" y="-45.5" font-family="Helvetica,sans-Serif" font-size="10.00">ft_err_mlx_new_window</text>
</a>
</g>
</g>
<!-- Node1&#45;&gt;Node21 -->
<g id="edge26" class="edge">
<title>Node1&#45;&gt;Node21</title>
<path fill="none" stroke="midnightblue" d="M941.89,-211C937.17,-176.52 922.6,-105.86 880,-67 875.77,-63.14 870.81,-60.06 865.53,-57.61"/>
<polygon fill="midnightblue" stroke="midnightblue" points="938.45,-211.71 943.14,-221.21 945.4,-210.86 938.45,-211.71"/>
</g>
<!-- Node22 -->
<g id="node22" class="node">
<title>Node22</title>
<g id="a_node22"><a xlink:href="error__syscall_8h.html#abf340aed99dd0770e292523412675343" target="_top" xlink:title="Wrapper function for open() to print errno.">
<polygon fill="none" stroke="black" points="500.5,-215.5 500.5,-234.5 571.5,-234.5 571.5,-215.5 500.5,-215.5"/>
<text text-anchor="middle" x="536" y="-222.5" font-family="Helvetica,sans-Serif" font-size="10.00">ft_err_open</text>
</a>
</g>
</g>
<!-- Node1&#45;&gt;Node22 -->
<g id="edge28" class="edge">
<title>Node1&#45;&gt;Node22</title>
<path fill="none" stroke="midnightblue" d="M905.72,-229.72C859.39,-228.23 778.99,-225.88 710,-225 662.1,-224.39 606.73,-224.54 571.79,-224.74"/>
<polygon fill="midnightblue" stroke="midnightblue" points="905.8,-233.22 915.91,-230.05 906.03,-226.23 905.8,-233.22"/>
</g>
<!-- Node23 -->
<g id="node23" class="node">
<title>Node23</title>
<g id="a_node23"><a xlink:href="error__syscall_8h.html#af521961510b5af3e286f0ccd77cd691d" target="_top" xlink:title="Wrapper function for read() to print errno.">
<polygon fill="none" stroke="black" points="629.5,-234.5 629.5,-253.5 698.5,-253.5 698.5,-234.5 629.5,-234.5"/>
<text text-anchor="middle" x="664" y="-241.5" font-family="Helvetica,sans-Serif" font-size="10.00">ft_err_read</text>
</a>
</g>
</g>
<!-- Node1&#45;&gt;Node23 -->
<g id="edge30" class="edge">
<title>Node1&#45;&gt;Node23</title>
<path fill="none" stroke="midnightblue" d="M905.97,-232.77C851.16,-235.33 750.83,-240 698.61,-242.43"/>
<polygon fill="midnightblue" stroke="midnightblue" points="906.14,-236.27 915.97,-232.31 905.82,-229.28 906.14,-236.27"/>
</g>
<!-- Node24 -->
<g id="node24" class="node">
<title>Node24</title>
<g id="a_node24"><a xlink:href="import__file_8h.html#ab0b327c549706e7478db9544c25886a5" target="_top" xlink:title="Check if valid file extension.">
<polygon fill="none" stroke="black" points="345,-396.5 345,-415.5 454,-415.5 454,-396.5 345,-396.5"/>
<text text-anchor="middle" x="399.5" y="-403.5" font-family="Helvetica,sans-Serif" font-size="10.00">ft_isvalid_filename</text>
</a>
</g>
</g>
<!-- Node1&#45;&gt;Node24 -->
<g id="edge32" class="edge">
<title>Node1&#45;&gt;Node24</title>
<path fill="none" stroke="midnightblue" d="M940.52,-251.06C934.15,-281.46 917.65,-338.84 880,-369 747.72,-474.97 523.72,-436.14 436.64,-415.53"/>
<polygon fill="midnightblue" stroke="midnightblue" points="944.03,-251.33 942.49,-240.84 937.16,-250 944.03,-251.33"/>
</g>
<!-- Node3 -->
<g id="node3" class="node">
<title>Node3</title>
<g id="a_node3"><a xlink:href="check_8h.html#afdfc858822cc349d9aa87b6aa28a6dd8" target="_top" xlink:title="Check array of imported lines.">
<polygon fill="none" stroke="black" points="206,-186.5 206,-205.5 292,-205.5 292,-186.5 206,-186.5"/>
<text text-anchor="middle" x="249" y="-193.5" font-family="Helvetica,sans-Serif" font-size="10.00">ft_check_lines</text>
</a>
</g>
</g>
<!-- Node2&#45;&gt;Node3 -->
<g id="edge2" class="edge">
<title>Node2&#45;&gt;Node3</title>
<path fill="none" stroke="midnightblue" d="M749.28,-176.46C633.76,-180.98 390.25,-190.51 292.21,-194.35"/>
<polygon fill="midnightblue" stroke="midnightblue" points="749.53,-179.95 759.38,-176.06 749.25,-172.95 749.53,-179.95"/>
</g>
<!-- Node4 -->
<g id="node4" class="node">
<title>Node4</title>
<g id="a_node4"><a xlink:href="parse_8h.html#ac08e53c371b438bc37757b81d0df11b8" target="_top" xlink:title="Imports, checks, and parses the provided file.">
<polygon fill="none" stroke="black" points="77,-212.5 77,-231.5 153,-231.5 153,-212.5 77,-212.5"/>
<text text-anchor="middle" x="115" y="-219.5" font-family="Helvetica,sans-Serif" font-size="10.00">ft_parse_file</text>
</a>
</g>
</g>
<!-- Node3&#45;&gt;Node4 -->
<g id="edge3" class="edge">
<title>Node3&#45;&gt;Node4</title>
<path fill="none" stroke="midnightblue" d="M195.73,-206.3C181.54,-209.09 166.46,-212.06 153.27,-214.66"/>
<polygon fill="midnightblue" stroke="midnightblue" points="196.74,-209.66 205.87,-204.3 195.38,-202.8 196.74,-209.66"/>
</g>
<!-- Node4&#45;&gt;Node5 -->
<g id="edge4" class="edge">
<title>Node4&#45;&gt;Node5</title>
<path fill="none" stroke="midnightblue" d="M66.72,-222C57.65,-222 48.64,-222 41.07,-222"/>
<polygon fill="midnightblue" stroke="midnightblue" points="66.91,-225.5 76.91,-222 66.91,-218.5 66.91,-225.5"/>
</g>
<!-- Node7 -->
<g id="node7" class="node">
<title>Node7</title>
<g id="a_node7"><a xlink:href="check__bonus_8h.html#af3ef225f9cf1a304afc28235a98ac241" target="_top" xlink:title="Check array of imported lines.">
<polygon fill="none" stroke="black" points="189,-148.5 189,-167.5 309,-167.5 309,-148.5 189,-148.5"/>
<text text-anchor="middle" x="249" y="-155.5" font-family="Helvetica,sans-Serif" font-size="10.00">ft_check_lines_bonus</text>
</a>
</g>
</g>
<!-- Node6&#45;&gt;Node7 -->
<g id="edge6" class="edge">
<title>Node6&#45;&gt;Node7</title>
<path fill="none" stroke="midnightblue" d="M749.16,-133.13C639.76,-138.58 415.8,-149.74 309.08,-155.06"/>
<polygon fill="midnightblue" stroke="midnightblue" points="749.57,-136.61 759.38,-132.62 749.22,-129.62 749.57,-136.61"/>
</g>
<!-- Node7&#45;&gt;Node4 -->
<g id="edge7" class="edge">
<title>Node7&#45;&gt;Node4</title>
<path fill="none" stroke="midnightblue" d="M203.78,-170.95C198.73,-172.81 193.7,-174.83 189,-177 167.1,-187.1 143.68,-202.44 129.44,-212.34"/>
<polygon fill="midnightblue" stroke="midnightblue" points="205.16,-174.17 213.46,-167.58 202.87,-167.56 205.16,-174.17"/>
</g>
<!-- Node9 -->
<g id="node9" class="node">
<title>Node9</title>
<g id="a_node9"><a xlink:href="import__file_8h.html#a996e353fb1cf0ba1e9706f5d0c12e111" target="_top" xlink:title="Check file extension, import file and prepare for use.">
<polygon fill="none" stroke="black" points="208.5,-348.5 208.5,-367.5 289.5,-367.5 289.5,-348.5 208.5,-348.5"/>
<text text-anchor="middle" x="249" y="-355.5" font-family="Helvetica,sans-Serif" font-size="10.00">ft_import_file</text>
</a>
</g>
</g>
<!-- Node8&#45;&gt;Node9 -->
<g id="edge9" class="edge">
<title>Node8&#45;&gt;Node9</title>
<path fill="none" stroke="midnightblue" d="M376.64,-447.55C345.58,-425.58 289.56,-385.97 263.73,-367.71"/>
<polygon fill="midnightblue" stroke="midnightblue" points="374.87,-450.58 385.06,-453.5 378.92,-444.87 374.87,-450.58"/>
</g>
<!-- Node9&#45;&gt;Node4 -->
<g id="edge10" class="edge">
<title>Node9&#45;&gt;Node4</title>
<path fill="none" stroke="midnightblue" d="M231.39,-340.89C203.37,-312.01 147.58,-254.54 125.41,-231.69"/>
<polygon fill="midnightblue" stroke="midnightblue" points="229.03,-343.48 238.51,-348.22 234.05,-338.61 229.03,-343.48"/>
</g>
<!-- Node11 -->
<g id="node11" class="node">
<title>Node11</title>
<g id="a_node11"><a xlink:href="import__file_8h.html#abdf4c7ee723013cce62274cf29be648d" target="_top" xlink:title="Doubles buffer size and copies content into new malloc&#39;d buffer.">
<polygon fill="none" stroke="black" points="622.5,-272.5 622.5,-291.5 705.5,-291.5 705.5,-272.5 622.5,-272.5"/>
<text text-anchor="middle" x="664" y="-279.5" font-family="Helvetica,sans-Serif" font-size="10.00">ft_buf_double</text>
</a>
</g>
</g>
<!-- Node10&#45;&gt;Node11 -->
<g id="edge12" class="edge">
<title>Node10&#45;&gt;Node11</title>
<path fill="none" stroke="midnightblue" d="M762.95,-296.66C744.38,-293.88 723.46,-290.75 705.73,-288.1"/>
<polygon fill="midnightblue" stroke="midnightblue" points="762.58,-300.14 772.99,-298.16 763.62,-293.22 762.58,-300.14"/>
</g>
<!-- Node14 -->
<g id="node14" class="node">
<title>Node14</title>
<g id="a_node14"><a xlink:href="import__file_8h.html#a738f6fd9290967f972da877e935cb8d8" target="_top" xlink:title="Initiates a t_buf buffer.">
<polygon fill="none" stroke="black" points="503.5,-348.5 503.5,-367.5 568.5,-367.5 568.5,-348.5 503.5,-348.5"/>
<text text-anchor="middle" x="536" y="-355.5" font-family="Helvetica,sans-Serif" font-size="10.00">ft_buf_init</text>
</a>
</g>
</g>
<!-- Node10&#45;&gt;Node14 -->
<g id="edge16" class="edge">
<title>Node10&#45;&gt;Node14</title>
<path fill="none" stroke="midnightblue" d="M779.47,-317.23C759.7,-324.74 733.76,-333.69 710,-339 661.35,-349.88 603.54,-354.63 568.6,-356.63"/>
<polygon fill="midnightblue" stroke="midnightblue" points="780.87,-320.44 788.93,-313.56 778.34,-313.91 780.87,-320.44"/>
</g>
<!-- Node15 -->
<g id="node15" class="node">
<title>Node15</title>
<g id="a_node15"><a xlink:href="parse_8h.html#a5c7cd128e38180fcea33c559a075424e" target="_top" xlink:title="Allocates memory for lights and hittable array.">
<polygon fill="none" stroke="black" points="620,-310.5 620,-329.5 708,-329.5 708,-310.5 620,-310.5"/>
<text text-anchor="middle" x="664" y="-317.5" font-family="Helvetica,sans-Serif" font-size="10.00">ft_malloc_ents</text>
</a>
</g>
</g>
<!-- Node10&#45;&gt;Node15 -->
<g id="edge18" class="edge">
<title>Node10&#45;&gt;Node15</title>
<path fill="none" stroke="midnightblue" d="M762.84,-309.35C745.1,-311.28 725.24,-313.44 708.07,-315.31"/>
<polygon fill="midnightblue" stroke="midnightblue" points="763.43,-312.81 772.99,-308.25 762.67,-305.85 763.43,-312.81"/>
</g>
<!-- Node12 -->
<g id="node12" class="node">
<title>Node12</title>
<g id="a_node12"><a xlink:href="import__file_8h.html#af0392d80791e758ec536af492c9cfe07" target="_top" xlink:title="Reads provided file into buffer.">
<polygon fill="none" stroke="black" points="490,-272.5 490,-291.5 582,-291.5 582,-272.5 490,-272.5"/>
<text text-anchor="middle" x="536" y="-279.5" font-family="Helvetica,sans-Serif" font-size="10.00">ft_buf_read_file</text>
</a>
</g>
</g>
<!-- Node11&#45;&gt;Node12 -->
<g id="edge13" class="edge">
<title>Node11&#45;&gt;Node12</title>
<path fill="none" stroke="midnightblue" d="M612.29,-282C602.37,-282 592.02,-282 582.29,-282"/>
<polygon fill="midnightblue" stroke="midnightblue" points="612.44,-285.5 622.44,-282 612.44,-278.5 612.44,-285.5"/>
</g>
<!-- Node12&#45;&gt;Node13 -->
<g id="edge14" class="edge">
<title>Node12&#45;&gt;Node13</title>
<path fill="none" stroke="midnightblue" d="M509.06,-296.65C482.03,-311.93 440.47,-335.42 417.4,-348.45"/>
<polygon fill="midnightblue" stroke="midnightblue" points="510.98,-299.59 517.97,-291.63 507.54,-293.5 510.98,-299.59"/>
</g>
<!-- Node13&#45;&gt;Node9 -->
<g id="edge15" class="edge">
<title>Node13&#45;&gt;Node9</title>
<path fill="none" stroke="midnightblue" d="M339.25,-358C322.56,-358 304.83,-358 289.6,-358"/>
<polygon fill="midnightblue" stroke="midnightblue" points="339.46,-361.5 349.46,-358 339.46,-354.5 339.46,-361.5"/>
</g>
<!-- Node14&#45;&gt;Node13 -->
<g id="edge17" class="edge">
<title>Node14&#45;&gt;Node13</title>
<path fill="none" stroke="midnightblue" d="M493.3,-358C479.51,-358 464.03,-358 449.73,-358"/>
<polygon fill="midnightblue" stroke="midnightblue" points="493.47,-361.5 503.47,-358 493.47,-354.5 493.47,-361.5"/>
</g>
<!-- Node16 -->
<g id="node16" class="node">
<title>Node16</title>
<g id="a_node16"><a xlink:href="parse__bonus_8h.html#a4192e948800f8db85951eb21432e0ab0" target="_top" xlink:title="Mallocs storage space and writes data into storage.">
<polygon fill="none" stroke="black" points="359.5,-296.5 359.5,-315.5 439.5,-315.5 439.5,-296.5 359.5,-296.5"/>
<text text-anchor="middle" x="399.5" y="-303.5" font-family="Helvetica,sans-Serif" font-size="10.00">ft_store_data</text>
</a>
</g>
</g>
<!-- Node15&#45;&gt;Node16 -->
<g id="edge19" class="edge">
<title>Node15&#45;&gt;Node16</title>
<path fill="none" stroke="midnightblue" d="M609.89,-317.17C559.5,-314.48 484.93,-310.5 439.71,-308.09"/>
<polygon fill="midnightblue" stroke="midnightblue" points="609.78,-320.67 619.95,-317.7 610.15,-313.68 609.78,-320.67"/>
</g>
<!-- Node16&#45;&gt;Node4 -->
<g id="edge20" class="edge">
<title>Node16&#45;&gt;Node4</title>
<path fill="none" stroke="midnightblue" d="M356.62,-293.55C299.76,-276.64 199.38,-246.79 148.1,-231.55"/>
<polygon fill="midnightblue" stroke="midnightblue" points="355.79,-296.95 366.37,-296.45 357.78,-290.24 355.79,-296.95"/>
</g>
<!-- Node18 -->
<g id="node18" class="node">
<title>Node18</title>
<g id="a_node18"><a xlink:href="render_8h.html#a12e519bd02c237459e067c614b9482e2" target="_top" xlink:title="Initializes the mlx_ptrs struct.">
<polygon fill="none" stroke="black" points="618,-76.5 618,-95.5 710,-95.5 710,-76.5 618,-76.5"/>
<text text-anchor="middle" x="664" y="-83.5" font-family="Helvetica,sans-Serif" font-size="10.00">ft_init_mlx_ptrs</text>
</a>
</g>
</g>
<!-- Node17&#45;&gt;Node18 -->
<g id="edge22" class="edge">
<title>Node17&#45;&gt;Node18</title>
<path fill="none" stroke="midnightblue" d="M759.19,-86C743.17,-86 725.72,-86 710.24,-86"/>
<polygon fill="midnightblue" stroke="midnightblue" points="759.48,-89.5 769.48,-86 759.48,-82.5 759.48,-89.5"/>
</g>
<!-- Node18&#45;&gt;Node5 -->
<g id="edge23" class="edge">
<title>Node18&#45;&gt;Node5</title>
<path fill="none" stroke="midnightblue" d="M607.73,-87C554.61,-87.87 472.07,-89 400.5,-89 400.5,-89 400.5,-89 248,-89 150.41,-89 57.7,-181.94 29.91,-212.43"/>
<polygon fill="midnightblue" stroke="midnightblue" points="608.01,-90.49 617.95,-86.83 607.89,-83.5 608.01,-90.49"/>
</g>
<!-- Node20 -->
<g id="node20" class="node">
<title>Node20</title>
<g id="a_node20"><a xlink:href="render_8h.html#a0af0fd19adc919c3966816890c89f291" target="_top" xlink:title="Initializes the mlx img struct.">
<polygon fill="none" stroke="black" points="624,-0.5 624,-19.5 704,-19.5 704,-0.5 624,-0.5"/>
<text text-anchor="middle" x="664" y="-7.5" font-family="Helvetica,sans-Serif" font-size="10.00">ft_init_image</text>
</a>
</g>
</g>
<!-- Node19&#45;&gt;Node20 -->
<g id="edge25" class="edge">
<title>Node19&#45;&gt;Node20</title>
<path fill="none" stroke="midnightblue" d="M738.48,-10C726.7,-10 714.93,-10 704.36,-10"/>
<polygon fill="midnightblue" stroke="midnightblue" points="738.81,-13.5 748.81,-10 738.81,-6.5 738.81,-13.5"/>
</g>
<!-- Node21&#45;&gt;Node18 -->
<g id="edge27" class="edge">
<title>Node21&#45;&gt;Node18</title>
<path fill="none" stroke="midnightblue" d="M765.15,-60.11C744.67,-65.4 721.01,-71.52 701.83,-76.48"/>
<polygon fill="midnightblue" stroke="midnightblue" points="766.1,-63.48 774.91,-57.59 764.35,-56.7 766.1,-63.48"/>
</g>
<!-- Node22&#45;&gt;Node9 -->
<g id="edge29" class="edge">
<title>Node22&#45;&gt;Node9</title>
<path fill="none" stroke="midnightblue" d="M490.49,-235.13C450.91,-245.14 392.17,-262.52 345,-287 311.37,-304.45 277.01,-333.49 260.34,-348.45"/>
<polygon fill="midnightblue" stroke="midnightblue" points="491.51,-238.48 500.37,-232.68 489.82,-231.69 491.51,-238.48"/>
</g>
<!-- Node23&#45;&gt;Node12 -->
<g id="edge31" class="edge">
<title>Node23&#45;&gt;Node12</title>
<path fill="none" stroke="midnightblue" d="M621.44,-256.54C604.29,-261.7 584.75,-267.6 568.78,-272.41"/>
<polygon fill="midnightblue" stroke="midnightblue" points="622.64,-259.83 631.2,-253.59 620.62,-253.13 622.64,-259.83"/>
</g>
<!-- Node24&#45;&gt;Node9 -->
<g id="edge33" class="edge">
<title>Node24&#45;&gt;Node9</title>
<path fill="none" stroke="midnightblue" d="M359.26,-393.32C334.3,-385.25 302.49,-374.97 279.64,-367.58"/>
<polygon fill="midnightblue" stroke="midnightblue" points="358.21,-396.66 368.81,-396.4 360.37,-390 358.21,-396.66"/>
</g>
</g>
</svg>
        <g id="navigator" transform="translate(0 0)" fill="#404254">
                <rect fill="#f2f5e9" fill-opacity="0.5" stroke="#606060" stroke-width=".5" x="0" y="0" width="60" height="60"/>
                <use id="zoomplus" xlink:href="#zoomPlus" x="17" y="9" onmousedown="handleZoom(evt,'in')"/>
                <use id="zoomminus" xlink:href="#zoomMin" x="42" y="9" onmousedown="handleZoom(evt,'out')"/>
                <use id="reset" xlink:href="#resetDef" x="30" y="36" onmousedown="handleReset()"/>
                <g id="arrowUp" xlink:href="#dirArrow" transform="translate(30 24)" onmousedown="handlePan(0,-1)">
                  <use xlink:href="#rim" fill="#404040">
                        <set attributeName="fill" to="#808080" begin="arrowUp.mouseover" end="arrowUp.mouseout"/>
                  </use>
                  <path fill="none" stroke="white" stroke-width="1.5" d="M0,-3.0v7 M-2.5,-0.5L0,-3.0L2.5,-0.5"/>
                </g>
                <g id="arrowRight" xlink:href="#dirArrow" transform="rotate(90) translate(36 -43)" onmousedown="handlePan(1,0)">
                  <use xlink:href="#rim" fill="#404040">
                        <set attributeName="fill" to="#808080" begin="arrowRight.mouseover" end="arrowRight.mouseout"/>
                  </use>
                  <path fill="none" stroke="white" stroke-width="1.5" d="M0,-3.0v7 M-2.5,-0.5L0,-3.0L2.5,-0.5"/>
                </g>
                <g id="arrowDown" xlink:href="#dirArrow" transform="rotate(180) translate(-30 -48)" onmousedown="handlePan(0,1)">
                  <use xlink:href="#rim" fill="#404040">
                        <set attributeName="fill" to="#808080" begin="arrowDown.mouseover" end="arrowDown.mouseout"/>
                  </use>
                  <path fill="none" stroke="white" stroke-width="1.5" d="M0,-3.0v7 M-2.5,-0.5L0,-3.0L2.5,-0.5"/>
                </g>
                <g id="arrowLeft" xlink:href="#dirArrow" transform="rotate(270) translate(-36 17)" onmousedown="handlePan(-1,0)">
                  <use xlink:href="#rim" fill="#404040">
                        <set attributeName="fill" to="#808080" begin="arrowLeft.mouseover" end="arrowLeft.mouseout"/>
                  </use>
                  <path fill="none" stroke="white" stroke-width="1.5" d="M0,-3.0v7 M-2.5,-0.5L0,-3.0L2.5,-0.5"/>
                </g>
        </g>
        <svg viewBox="0 0 15 15" width="100%" height="30px" preserveAspectRatio="xMaxYMin meet">
         <g id="arrow_out" transform="scale(0.3 0.3)">
          <a xlink:href="error__msg__generic_8c_aee5d10b82b6780869c9cc69cd64e44cc_icgraph_org.svg" target="_base">
           <rect id="button" ry="5" rx="5" y="6" x="6" height="38" width="38"
                fill="#f2f5e9" fill-opacity="0.5" stroke="#606060" stroke-width="1.0"/>
           <path id="arrow"
             d="M 11.500037,31.436501 C 11.940474,20.09759 22.043105,11.32322 32.158766,21.979434 L 37.068811,17.246167 C 37.068811,17.246167 37.088388,32 37.088388,32 L 22.160133,31.978069 C 22.160133,31.978069 26.997745,27.140456 26.997745,27.140456 C 18.528582,18.264221 13.291696,25.230495 11.500037,31.436501 z"
             style="fill:#404040;"/>
          </a>
         </g>
        </svg>
</svg>
