<?xml version="1.0" encoding="UTF-8" standalone="no"?>
<!DOCTYPE svg PUBLIC "-//W3C//DTD SVG 1.1//EN"
 "http://www.w3.org/Graphics/SVG/1.1/DTD/svg11.dtd">
<!-- Generated by graphviz version 2.43.0 (0)
 -->
<!-- Title: ft_perror_convert Pages: 1 -->
<svg width="906pt" height="332pt"
 viewBox="0.00 0.00 906.00 332.00" xmlns="http://www.w3.org/2000/svg" xmlns:xlink="http://www.w3.org/1999/xlink">
<g id="graph0" class="graph" transform="scale(1 1) rotate(0) translate(4 328)">
<title>ft_perror_convert</title>
<!-- Node1 -->
<g id="node1" class="node">
<title>Node1</title>
<g id="a_node1"><a xlink:title="Error message if conversion failed.">
<polygon fill="#bfbfbf" stroke="black" points="798,-133.5 798,-152.5 898,-152.5 898,-133.5 798,-133.5"/>
<text text-anchor="middle" x="848" y="-140.5" font-family="Helvetica,sans-Serif" font-size="10.00">ft_perror_convert</text>
</a>
</g>
</g>
<!-- Node2 -->
<g id="node2" class="node">
<title>Node2</title>
<g id="a_node2"><a xlink:href="check_8h.html#a542b81308cf530edfa0a3bfdcefb6002" target="_top" xlink:title="Tries to convert str to float and checks range.">
<polygon fill="none" stroke="black" points="667,-152.5 667,-171.5 755,-171.5 755,-152.5 667,-152.5"/>
<text text-anchor="middle" x="711" y="-159.5" font-family="Helvetica,sans-Serif" font-size="10.00">ft_isvalid_float</text>
</a>
</g>
</g>
<!-- Node1&#45;&gt;Node2 -->
<g id="edge1" class="edge">
<title>Node1&#45;&gt;Node2</title>
<path fill="none" stroke="midnightblue" d="M787.87,-151.32C776.83,-152.88 765.49,-154.47 755.06,-155.94"/>
<polygon fill="midnightblue" stroke="midnightblue" points="788.47,-154.77 797.88,-149.91 787.49,-147.84 788.47,-154.77"/>
</g>
<!-- Node18 -->
<g id="node18" class="node">
<title>Node18</title>
<g id="a_node18"><a xlink:href="check_8h.html#a7884a3e9489248b242a9fb7da9607bf4" target="_top" xlink:title="Tries to convert str into rgb int and checks range.">
<polygon fill="none" stroke="black" points="660,-114.5 660,-133.5 762,-133.5 762,-114.5 660,-114.5"/>
<text text-anchor="middle" x="711" y="-121.5" font-family="Helvetica,sans-Serif" font-size="10.00">ft_isvalid_rgb_val</text>
</a>
</g>
</g>
<!-- Node1&#45;&gt;Node18 -->
<g id="edge28" class="edge">
<title>Node1&#45;&gt;Node18</title>
<path fill="none" stroke="midnightblue" d="M787.93,-134.69C779.36,-133.48 770.6,-132.25 762.22,-131.07"/>
<polygon fill="midnightblue" stroke="midnightblue" points="787.49,-138.16 797.88,-136.09 788.47,-131.23 787.49,-138.16"/>
</g>
<!-- Node3 -->
<g id="node3" class="node">
<title>Node3</title>
<g id="a_node3"><a xlink:href="check_8h.html#a3a4c3e635c4a6af8ef53d70ea5e7cb44" target="_top" xlink:title="Checks if ambient light line is correct.">
<polygon fill="none" stroke="black" points="504.5,-228.5 504.5,-247.5 607.5,-247.5 607.5,-228.5 504.5,-228.5"/>
<text text-anchor="middle" x="556" y="-235.5" font-family="Helvetica,sans-Serif" font-size="10.00">ft_check_ambient</text>
</a>
</g>
</g>
<!-- Node2&#45;&gt;Node3 -->
<g id="edge2" class="edge">
<title>Node2&#45;&gt;Node3</title>
<path fill="none" stroke="midnightblue" d="M690.2,-177.7C673.41,-190.37 648.25,-207.85 624,-219 615.98,-222.69 607.09,-225.81 598.47,-228.4"/>
<polygon fill="midnightblue" stroke="midnightblue" points="692.38,-180.45 698.17,-171.58 688.11,-174.9 692.38,-180.45"/>
</g>
<!-- Node10 -->
<g id="node10" class="node">
<title>Node10</title>
<g id="a_node10"><a xlink:href="check_8h.html#ac18c6a2c8fb4ffdeac62341cc67c9675" target="_top" xlink:title="Checks if camera line is correct.">
<polygon fill="none" stroke="black" points="506.5,-190.5 506.5,-209.5 605.5,-209.5 605.5,-190.5 506.5,-190.5"/>
<text text-anchor="middle" x="556" y="-197.5" font-family="Helvetica,sans-Serif" font-size="10.00">ft_check_camera</text>
</a>
</g>
</g>
<!-- Node2&#45;&gt;Node10 -->
<g id="edge10" class="edge">
<title>Node2&#45;&gt;Node10</title>
<path fill="none" stroke="midnightblue" d="M661.52,-174.04C640.15,-179.35 615.39,-185.5 595.33,-190.48"/>
<polygon fill="midnightblue" stroke="midnightblue" points="662.53,-177.4 671.39,-171.59 660.84,-170.6 662.53,-177.4"/>
</g>
<!-- Node11 -->
<g id="node11" class="node">
<title>Node11</title>
<g id="a_node11"><a xlink:href="check__bonus_8h.html#a4044338fccd6b0e9b3e61c2e0c69db12" target="_top" xlink:title="Checks if cone line is correct.">
<polygon fill="none" stroke="black" points="496,-0.5 496,-19.5 616,-19.5 616,-0.5 496,-0.5"/>
<text text-anchor="middle" x="556" y="-7.5" font-family="Helvetica,sans-Serif" font-size="10.00">ft_check_cone_bonus</text>
</a>
</g>
</g>
<!-- Node2&#45;&gt;Node11 -->
<g id="edge13" class="edge">
<title>Node2&#45;&gt;Node11</title>
<path fill="none" stroke="midnightblue" d="M664.42,-147.01C662.85,-145.78 661.36,-144.44 660,-143 623.52,-104.37 662.12,-66.01 624,-29 620.01,-25.13 615.29,-22.03 610.23,-19.56"/>
<polygon fill="midnightblue" stroke="midnightblue" points="662.6,-150 672.92,-152.38 666.34,-144.08 662.6,-150"/>
</g>
<!-- Node12 -->
<g id="node12" class="node">
<title>Node12</title>
<g id="a_node12"><a xlink:href="check_8h.html#ae60d55778d26a79bd9d60676862afcac" target="_top" xlink:title="Checks if cylinder line is correct.">
<polygon fill="none" stroke="black" points="505.5,-266.5 505.5,-285.5 606.5,-285.5 606.5,-266.5 505.5,-266.5"/>
<text text-anchor="middle" x="556" y="-273.5" font-family="Helvetica,sans-Serif" font-size="10.00">ft_check_cylinder</text>
</a>
</g>
</g>
<!-- Node2&#45;&gt;Node12 -->
<g id="edge15" class="edge">
<title>Node2&#45;&gt;Node12</title>
<path fill="none" stroke="midnightblue" d="M698.25,-180.26C683.47,-201.76 656.1,-237.06 624,-257 617.73,-260.89 610.65,-264.01 603.49,-266.49"/>
<polygon fill="midnightblue" stroke="midnightblue" points="701.31,-181.97 703.96,-171.71 695.49,-178.08 701.31,-181.97"/>
</g>
<!-- Node13 -->
<g id="node13" class="node">
<title>Node13</title>
<g id="a_node13"><a xlink:href="check__bonus_8h.html#a4ec77f79add9f7abed23e5b3dd45e94a" target="_top" xlink:title="Checks if cylinder line is correct.">
<polygon fill="none" stroke="black" points="488,-114.5 488,-133.5 624,-133.5 624,-114.5 488,-114.5"/>
<text text-anchor="middle" x="556" y="-121.5" font-family="Helvetica,sans-Serif" font-size="10.00">ft_check_cylinder_bonus</text>
</a>
</g>
</g>
<!-- Node2&#45;&gt;Node13 -->
<g id="edge17" class="edge">
<title>Node2&#45;&gt;Node13</title>
<path fill="none" stroke="midnightblue" d="M661.52,-149.96C640.15,-144.65 615.39,-138.5 595.33,-133.52"/>
<polygon fill="midnightblue" stroke="midnightblue" points="660.84,-153.4 671.39,-152.41 662.53,-146.6 660.84,-153.4"/>
</g>
<!-- Node14 -->
<g id="node14" class="node">
<title>Node14</title>
<g id="a_node14"><a xlink:href="check_8h.html#a13cb8b89e2be82f5148f2dba42b550e8" target="_top" xlink:title="Checks if light line is correct.">
<polygon fill="none" stroke="black" points="514,-152.5 514,-171.5 598,-171.5 598,-152.5 514,-152.5"/>
<text text-anchor="middle" x="556" y="-159.5" font-family="Helvetica,sans-Serif" font-size="10.00">ft_check_light</text>
</a>
</g>
</g>
<!-- Node2&#45;&gt;Node14 -->
<g id="edge19" class="edge">
<title>Node2&#45;&gt;Node14</title>
<path fill="none" stroke="midnightblue" d="M656.84,-162C637.6,-162 616.18,-162 598.12,-162"/>
<polygon fill="midnightblue" stroke="midnightblue" points="656.97,-165.5 666.97,-162 656.97,-158.5 656.97,-165.5"/>
</g>
<!-- Node15 -->
<g id="node15" class="node">
<title>Node15</title>
<g id="a_node15"><a xlink:href="check__bonus_8h.html#a553c09de200f4ad19c33ab26d11adc29" target="_top" xlink:title="Checks if plane line is correct.">
<polygon fill="none" stroke="black" points="494,-76.5 494,-95.5 618,-95.5 618,-76.5 494,-76.5"/>
<text text-anchor="middle" x="556" y="-83.5" font-family="Helvetica,sans-Serif" font-size="10.00">ft_check_plane_bonus</text>
</a>
</g>
</g>
<!-- Node2&#45;&gt;Node15 -->
<g id="edge22" class="edge">
<title>Node2&#45;&gt;Node15</title>
<path fill="none" stroke="midnightblue" d="M669.14,-148.28C665.96,-146.67 662.87,-144.91 660,-143 640.64,-130.1 643.9,-117.05 624,-105 617.59,-101.12 610.35,-98 603.07,-95.51"/>
<polygon fill="midnightblue" stroke="midnightblue" points="667.71,-151.47 678.26,-152.41 670.6,-145.09 667.71,-151.47"/>
</g>
<!-- Node16 -->
<g id="node16" class="node">
<title>Node16</title>
<g id="a_node16"><a xlink:href="check_8h.html#a2ac6387003baa37c6f8037edf453c8d0" target="_top" xlink:title="Checks if sphere line is correct.">
<polygon fill="none" stroke="black" points="508.5,-304.5 508.5,-323.5 603.5,-323.5 603.5,-304.5 508.5,-304.5"/>
<text text-anchor="middle" x="556" y="-311.5" font-family="Helvetica,sans-Serif" font-size="10.00">ft_check_sphere</text>
</a>
</g>
</g>
<!-- Node2&#45;&gt;Node16 -->
<g id="edge24" class="edge">
<title>Node2&#45;&gt;Node16</title>
<path fill="none" stroke="midnightblue" d="M702.8,-181.18C690.9,-210.23 664.37,-265.16 624,-295 617.97,-299.46 610.93,-302.87 603.73,-305.48"/>
<polygon fill="midnightblue" stroke="midnightblue" points="706.11,-182.33 706.52,-171.74 699.59,-179.76 706.11,-182.33"/>
</g>
<!-- Node17 -->
<g id="node17" class="node">
<title>Node17</title>
<g id="a_node17"><a xlink:href="check__bonus_8h.html#a649377d201faaa526ad3c355da745325" target="_top" xlink:title="Checks if sphere line is correct.">
<polygon fill="none" stroke="black" points="491,-38.5 491,-57.5 621,-57.5 621,-38.5 491,-38.5"/>
<text text-anchor="middle" x="556" y="-45.5" font-family="Helvetica,sans-Serif" font-size="10.00">ft_check_sphere_bonus</text>
</a>
</g>
</g>
<!-- Node2&#45;&gt;Node17 -->
<g id="edge26" class="edge">
<title>Node2&#45;&gt;Node17</title>
<path fill="none" stroke="midnightblue" d="M665.45,-147.32C663.52,-146 661.69,-144.56 660,-143 632.55,-117.64 652.53,-91.15 624,-67 619.39,-63.09 614.02,-59.99 608.37,-57.52"/>
<polygon fill="midnightblue" stroke="midnightblue" points="663.98,-150.51 674.41,-152.41 667.44,-144.43 663.98,-150.51"/>
</g>
<!-- Node4 -->
<g id="node4" class="node">
<title>Node4</title>
<g id="a_node4"><a xlink:href="check_8h.html#a9d550a03e395942fd0bb735c1dda47d9" target="_top" xlink:title="Dispatch function for different line types.">
<polygon fill="none" stroke="black" points="345,-201.5 345,-220.5 452,-220.5 452,-201.5 345,-201.5"/>
<text text-anchor="middle" x="398.5" y="-208.5" font-family="Helvetica,sans-Serif" font-size="10.00">ft_check_line_type</text>
</a>
</g>
</g>
<!-- Node3&#45;&gt;Node4 -->
<g id="edge3" class="edge">
<title>Node3&#45;&gt;Node4</title>
<path fill="none" stroke="midnightblue" d="M494.14,-227.43C480.26,-225.02 465.63,-222.48 452.13,-220.14"/>
<polygon fill="midnightblue" stroke="midnightblue" points="493.63,-230.9 504.08,-229.16 494.83,-224 493.63,-230.9"/>
</g>
<!-- Node8 -->
<g id="node8" class="node">
<title>Node8</title>
<g id="a_node8"><a xlink:href="check__bonus_8h.html#ae33774d34021cd6fec6863eff3e8e3b0" target="_top" xlink:title="Dispatch function for different line types.">
<polygon fill="none" stroke="black" points="345,-136 345,-166 452,-166 452,-136 345,-136"/>
<text text-anchor="start" x="353" y="-154" font-family="Helvetica,sans-Serif" font-size="10.00">ft_check_line_type</text>
<text text-anchor="middle" x="398.5" y="-143" font-family="Helvetica,sans-Serif" font-size="10.00">_bonus</text>
</a>
</g>
</g>
<!-- Node3&#45;&gt;Node8 -->
<g id="edge7" class="edge">
<title>Node3&#45;&gt;Node8</title>
<path fill="none" stroke="midnightblue" d="M502.35,-225.15C497.4,-223.33 492.54,-221.28 488,-219 484.19,-217.09 443.79,-185.66 418.91,-166.21"/>
<polygon fill="midnightblue" stroke="midnightblue" points="501.32,-228.5 511.91,-228.39 503.56,-221.87 501.32,-228.5"/>
</g>
<!-- Node5 -->
<g id="node5" class="node">
<title>Node5</title>
<g id="a_node5"><a xlink:href="check_8h.html#afdfc858822cc349d9aa87b6aa28a6dd8" target="_top" xlink:title="Check array of imported lines.">
<polygon fill="none" stroke="black" points="206,-183.5 206,-202.5 292,-202.5 292,-183.5 206,-183.5"/>
<text text-anchor="middle" x="249" y="-190.5" font-family="Helvetica,sans-Serif" font-size="10.00">ft_check_lines</text>
</a>
</g>
</g>
<!-- Node4&#45;&gt;Node5 -->
<g id="edge4" class="edge">
<title>Node4&#45;&gt;Node5</title>
<path fill="none" stroke="midnightblue" d="M334.43,-203.3C320.21,-201.57 305.44,-199.77 292.3,-198.16"/>
<polygon fill="midnightblue" stroke="midnightblue" points="334.32,-206.82 344.67,-204.55 335.16,-199.87 334.32,-206.82"/>
</g>
<!-- Node6 -->
<g id="node6" class="node">
<title>Node6</title>
<g id="a_node6"><a xlink:href="parse_8h.html#ac08e53c371b438bc37757b81d0df11b8" target="_top" xlink:title="Imports, checks, and parses the provided file.">
<polygon fill="none" stroke="black" points="77,-163.5 77,-182.5 153,-182.5 153,-163.5 77,-163.5"/>
<text text-anchor="middle" x="115" y="-170.5" font-family="Helvetica,sans-Serif" font-size="10.00">ft_parse_file</text>
</a>
</g>
</g>
<!-- Node5&#45;&gt;Node6 -->
<g id="edge5" class="edge">
<title>Node5&#45;&gt;Node6</title>
<path fill="none" stroke="midnightblue" d="M195.73,-185.08C181.54,-182.93 166.46,-180.64 153.27,-178.65"/>
<polygon fill="midnightblue" stroke="midnightblue" points="195.46,-188.58 205.87,-186.62 196.51,-181.66 195.46,-188.58"/>
</g>
<!-- Node7 -->
<g id="node7" class="node">
<title>Node7</title>
<g id="a_node7"><a xlink:href="main_8c.html#a3c04138a5bfe5d72780bb7e82a18e627" target="_top" xlink:title=" ">
<polygon fill="none" stroke="black" points="0,-163.5 0,-182.5 41,-182.5 41,-163.5 0,-163.5"/>
<text text-anchor="middle" x="20.5" y="-170.5" font-family="Helvetica,sans-Serif" font-size="10.00">main</text>
</a>
</g>
</g>
<!-- Node6&#45;&gt;Node7 -->
<g id="edge6" class="edge">
<title>Node6&#45;&gt;Node7</title>
<path fill="none" stroke="midnightblue" d="M66.72,-173C57.65,-173 48.64,-173 41.07,-173"/>
<polygon fill="midnightblue" stroke="midnightblue" points="66.91,-176.5 76.91,-173 66.91,-169.5 66.91,-176.5"/>
</g>
<!-- Node9 -->
<g id="node9" class="node">
<title>Node9</title>
<g id="a_node9"><a xlink:href="check__bonus_8h.html#af3ef225f9cf1a304afc28235a98ac241" target="_top" xlink:title="Check array of imported lines.">
<polygon fill="none" stroke="black" points="189,-144.5 189,-163.5 309,-163.5 309,-144.5 189,-144.5"/>
<text text-anchor="middle" x="249" y="-151.5" font-family="Helvetica,sans-Serif" font-size="10.00">ft_check_lines_bonus</text>
</a>
</g>
</g>
<!-- Node8&#45;&gt;Node9 -->
<g id="edge8" class="edge">
<title>Node8&#45;&gt;Node9</title>
<path fill="none" stroke="midnightblue" d="M334.55,-152.28C326.15,-152.45 317.56,-152.63 309.23,-152.8"/>
<polygon fill="midnightblue" stroke="midnightblue" points="334.74,-155.78 344.67,-152.07 334.6,-148.78 334.74,-155.78"/>
</g>
<!-- Node9&#45;&gt;Node6 -->
<g id="edge9" class="edge">
<title>Node9&#45;&gt;Node6</title>
<path fill="none" stroke="midnightblue" d="M178.89,-163.95C169.98,-165.23 161.14,-166.5 153.03,-167.67"/>
<polygon fill="midnightblue" stroke="midnightblue" points="179.55,-167.39 188.95,-162.5 178.55,-160.46 179.55,-167.39"/>
</g>
<!-- Node10&#45;&gt;Node4 -->
<g id="edge11" class="edge">
<title>Node10&#45;&gt;Node4</title>
<path fill="none" stroke="midnightblue" d="M495.93,-204.18C481.53,-205.2 466.22,-206.28 452.14,-207.28"/>
<polygon fill="midnightblue" stroke="midnightblue" points="496.5,-207.65 506.23,-203.45 496,-200.66 496.5,-207.65"/>
</g>
<!-- Node10&#45;&gt;Node8 -->
<g id="edge12" class="edge">
<title>Node10&#45;&gt;Node8</title>
<path fill="none" stroke="midnightblue" d="M510.43,-187.7C502.92,-185.53 495.22,-183.25 488,-181 473.13,-176.37 456.97,-171 442.57,-166.09"/>
<polygon fill="midnightblue" stroke="midnightblue" points="509.55,-191.09 520.13,-190.47 511.47,-184.36 509.55,-191.09"/>
</g>
<!-- Node11&#45;&gt;Node8 -->
<g id="edge14" class="edge">
<title>Node11&#45;&gt;Node8</title>
<path fill="none" stroke="midnightblue" d="M497.12,-23.61C493.93,-25.21 490.86,-27 488,-29 447.67,-57.17 418.85,-109.76 406.38,-135.71"/>
<polygon fill="midnightblue" stroke="midnightblue" points="498.61,-26.78 506.38,-19.57 495.81,-20.36 498.61,-26.78"/>
</g>
<!-- Node12&#45;&gt;Node4 -->
<g id="edge16" class="edge">
<title>Node12&#45;&gt;Node4</title>
<path fill="none" stroke="midnightblue" d="M506.48,-263.51C500.2,-261.52 493.9,-259.34 488,-257 461.77,-246.59 433.06,-230.79 415.67,-220.68"/>
<polygon fill="midnightblue" stroke="midnightblue" points="505.7,-266.93 516.29,-266.47 507.72,-260.23 505.7,-266.93"/>
</g>
<!-- Node13&#45;&gt;Node8 -->
<g id="edge18" class="edge">
<title>Node13&#45;&gt;Node8</title>
<path fill="none" stroke="midnightblue" d="M490.12,-135.27C477.41,-137.47 464.24,-139.76 452,-141.88"/>
<polygon fill="midnightblue" stroke="midnightblue" points="490.92,-138.68 500.18,-133.52 489.73,-131.78 490.92,-138.68"/>
</g>
<!-- Node14&#45;&gt;Node4 -->
<g id="edge20" class="edge">
<title>Node14&#45;&gt;Node4</title>
<path fill="none" stroke="midnightblue" d="M510.43,-174.3C502.92,-176.47 495.22,-178.75 488,-181 467.24,-187.46 443.97,-195.37 426.5,-201.45"/>
<polygon fill="midnightblue" stroke="midnightblue" points="511.47,-177.64 520.13,-171.53 509.55,-170.91 511.47,-177.64"/>
</g>
<!-- Node14&#45;&gt;Node8 -->
<g id="edge21" class="edge">
<title>Node14&#45;&gt;Node8</title>
<path fill="none" stroke="midnightblue" d="M503.7,-158.37C487.14,-157.2 468.77,-155.9 452.13,-154.72"/>
<polygon fill="midnightblue" stroke="midnightblue" points="503.52,-161.87 513.74,-159.08 504.01,-154.88 503.52,-161.87"/>
</g>
<!-- Node15&#45;&gt;Node8 -->
<g id="edge23" class="edge">
<title>Node15&#45;&gt;Node8</title>
<path fill="none" stroke="midnightblue" d="M506.48,-98.49C500.2,-100.48 493.9,-102.66 488,-105 466.11,-113.69 442.5,-126.13 425.18,-135.88"/>
<polygon fill="midnightblue" stroke="midnightblue" points="507.72,-101.77 516.29,-95.53 505.7,-95.07 507.72,-101.77"/>
</g>
<!-- Node16&#45;&gt;Node4 -->
<g id="edge25" class="edge">
<title>Node16&#45;&gt;Node4</title>
<path fill="none" stroke="midnightblue" d="M500.33,-300.94C496.05,-299.19 491.89,-297.21 488,-295 452.84,-274.97 420.88,-238.07 406.92,-220.62"/>
<polygon fill="midnightblue" stroke="midnightblue" points="499.22,-304.26 509.81,-304.43 501.64,-297.69 499.22,-304.26"/>
</g>
<!-- Node17&#45;&gt;Node8 -->
<g id="edge27" class="edge">
<title>Node17&#45;&gt;Node8</title>
<path fill="none" stroke="midnightblue" d="M500.33,-61.06C496.05,-62.81 491.89,-64.79 488,-67 456.16,-85.14 426.94,-117.12 411.33,-135.96"/>
<polygon fill="midnightblue" stroke="midnightblue" points="501.64,-64.31 509.81,-57.57 499.22,-57.74 501.64,-64.31"/>
</g>
</g>
</svg>
