<?xml version="1.0" encoding="UTF-8" standalone="no"?>
<!DOCTYPE svg PUBLIC "-//W3C//DTD SVG 1.1//EN"
 "http://www.w3.org/Graphics/SVG/1.1/DTD/svg11.dtd">
<!-- Generated by graphviz version 2.43.0 (0)
 -->
<!-- Title: inc/error_msg.h Pages: 1 -->
<svg width="372pt" height="252pt"
 viewBox="0.00 0.00 371.50 252.00" xmlns="http://www.w3.org/2000/svg" xmlns:xlink="http://www.w3.org/1999/xlink">
<g id="graph0" class="graph" transform="scale(1 1) rotate(0) translate(4 248)">
<title>inc/error_msg.h</title>
<!-- Node1 -->
<g id="node1" class="node">
<title>Node1</title>
<g id="a_node1"><a xlink:title=" ">
<polygon fill="#bfbfbf" stroke="black" points="74,-224.5 74,-243.5 166,-243.5 166,-224.5 74,-224.5"/>
<text text-anchor="middle" x="120" y="-231.5" font-family="Helvetica,sans-Serif" font-size="10.00">inc/error_msg.h</text>
</a>
</g>
</g>
<!-- Node2 -->
<g id="node2" class="node">
<title>Node2</title>
<g id="a_node2"><a xlink:title=" ">
<polygon fill="none" stroke="#bfbfbf" points="0,-56.5 0,-75.5 50,-75.5 50,-56.5 0,-56.5"/>
<text text-anchor="middle" x="25" y="-63.5" font-family="Helvetica,sans-Serif" font-size="10.00">stdio.h</text>
</a>
</g>
</g>
<!-- Node1&#45;&gt;Node2 -->
<g id="edge1" class="edge">
<title>Node1&#45;&gt;Node2</title>
<path fill="none" stroke="midnightblue" d="M99.3,-224.49C83.91,-217.1 63.64,-204.91 52,-188 30.52,-156.79 25.81,-111.29 24.97,-85.91"/>
<polygon fill="midnightblue" stroke="midnightblue" points="28.47,-85.73 24.81,-75.78 21.47,-85.84 28.47,-85.73"/>
</g>
<!-- Node3 -->
<g id="node3" class="node">
<title>Node3</title>
<g id="a_node3"><a xlink:title=" ">
<polygon fill="none" stroke="#bfbfbf" points="61.5,-168.5 61.5,-187.5 112.5,-187.5 112.5,-168.5 61.5,-168.5"/>
<text text-anchor="middle" x="87" y="-175.5" font-family="Helvetica,sans-Serif" font-size="10.00">errno.h</text>
</a>
</g>
</g>
<!-- Node1&#45;&gt;Node3 -->
<g id="edge2" class="edge">
<title>Node1&#45;&gt;Node3</title>
<path fill="none" stroke="midnightblue" d="M114.55,-224.08C109.99,-216.61 103.33,-205.72 97.71,-196.52"/>
<polygon fill="midnightblue" stroke="midnightblue" points="100.55,-194.46 92.35,-187.75 94.58,-198.11 100.55,-194.46"/>
</g>
<!-- Node4 -->
<g id="node4" class="node">
<title>Node4</title>
<g id="a_node4"><a xlink:title=" ">
<polygon fill="none" stroke="#bfbfbf" points="130.5,-168.5 130.5,-187.5 177.5,-187.5 177.5,-168.5 130.5,-168.5"/>
<text text-anchor="middle" x="154" y="-175.5" font-family="Helvetica,sans-Serif" font-size="10.00">ft_fd.h</text>
</a>
</g>
</g>
<!-- Node1&#45;&gt;Node4 -->
<g id="edge3" class="edge">
<title>Node1&#45;&gt;Node4</title>
<path fill="none" stroke="midnightblue" d="M125.61,-224.08C130.37,-216.53 137.32,-205.49 143.15,-196.23"/>
<polygon fill="midnightblue" stroke="midnightblue" points="146.12,-198.08 148.49,-187.75 140.2,-194.35 146.12,-198.08"/>
</g>
<!-- Node5 -->
<g id="node5" class="node">
<title>Node5</title>
<g id="a_node5"><a xlink:href="entities_8h.html" target="_top" xlink:title=" ">
<polygon fill="none" stroke="black" points="198,-168.5 198,-187.5 260,-187.5 260,-168.5 198,-168.5"/>
<text text-anchor="middle" x="229" y="-175.5" font-family="Helvetica,sans-Serif" font-size="10.00">entities.h</text>
</a>
</g>
</g>
<!-- Node1&#45;&gt;Node5 -->
<g id="edge4" class="edge">
<title>Node1&#45;&gt;Node5</title>
<path fill="none" stroke="midnightblue" d="M137.51,-224.32C155.07,-215.62 182.33,-202.12 202.53,-192.11"/>
<polygon fill="midnightblue" stroke="midnightblue" points="204.12,-195.23 211.53,-187.65 201.02,-188.96 204.12,-195.23"/>
</g>
<!-- Node6 -->
<g id="node6" class="node">
<title>Node6</title>
<g id="a_node6"><a xlink:title=" ">
<polygon fill="none" stroke="#bfbfbf" points="207,-0.5 207,-19.5 269,-19.5 269,-0.5 207,-0.5"/>
<text text-anchor="middle" x="238" y="-7.5" font-family="Helvetica,sans-Serif" font-size="10.00">stdbool.h</text>
</a>
</g>
</g>
<!-- Node5&#45;&gt;Node6 -->
<g id="edge5" class="edge">
<title>Node5&#45;&gt;Node6</title>
<path fill="none" stroke="midnightblue" d="M234.74,-168.23C247.04,-148.34 273.95,-98.25 263,-56 260.45,-46.18 255.25,-36.21 250.24,-28.17"/>
<polygon fill="midnightblue" stroke="midnightblue" points="253.08,-26.11 244.63,-19.73 247.25,-29.99 253.08,-26.11"/>
</g>
<!-- Node7 -->
<g id="node7" class="node">
<title>Node7</title>
<g id="a_node7"><a xlink:title=" ">
<polygon fill="none" stroke="#bfbfbf" points="310.5,-112.5 310.5,-131.5 363.5,-131.5 363.5,-112.5 310.5,-112.5"/>
<text text-anchor="middle" x="337" y="-119.5" font-family="Helvetica,sans-Serif" font-size="10.00">stdlib.h</text>
</a>
</g>
</g>
<!-- Node5&#45;&gt;Node7 -->
<g id="edge6" class="edge">
<title>Node5&#45;&gt;Node7</title>
<path fill="none" stroke="midnightblue" d="M246.35,-168.32C263.67,-159.66 290.52,-146.24 310.5,-136.25"/>
<polygon fill="midnightblue" stroke="midnightblue" points="312.31,-139.26 319.69,-131.65 309.18,-133 312.31,-139.26"/>
</g>
<!-- Node8 -->
<g id="node8" class="node">
<title>Node8</title>
<g id="a_node8"><a xlink:href="vec3_8h.html" target="_top" xlink:title=" ">
<polygon fill="none" stroke="black" points="204.5,-56.5 204.5,-75.5 253.5,-75.5 253.5,-56.5 204.5,-56.5"/>
<text text-anchor="middle" x="229" y="-63.5" font-family="Helvetica,sans-Serif" font-size="10.00">vec3.h</text>
</a>
</g>
</g>
<!-- Node5&#45;&gt;Node8 -->
<g id="edge7" class="edge">
<title>Node5&#45;&gt;Node8</title>
<path fill="none" stroke="midnightblue" d="M229,-168.37C229,-150.62 229,-109.67 229,-85.6"/>
<polygon fill="midnightblue" stroke="midnightblue" points="232.5,-85.59 229,-75.59 225.5,-85.59 232.5,-85.59"/>
</g>
<!-- Node10 -->
<g id="node10" class="node">
<title>Node10</title>
<g id="a_node10"><a xlink:href="colour_8h.html" target="_top" xlink:title=" ">
<polygon fill="none" stroke="black" points="101.5,-112.5 101.5,-131.5 156.5,-131.5 156.5,-112.5 101.5,-112.5"/>
<text text-anchor="middle" x="129" y="-119.5" font-family="Helvetica,sans-Serif" font-size="10.00">colour.h</text>
</a>
</g>
</g>
<!-- Node5&#45;&gt;Node10 -->
<g id="edge10" class="edge">
<title>Node5&#45;&gt;Node10</title>
<path fill="none" stroke="midnightblue" d="M212.93,-168.32C197.04,-159.74 172.49,-146.49 154.04,-136.52"/>
<polygon fill="midnightblue" stroke="midnightblue" points="155.49,-133.33 145.03,-131.65 152.16,-139.49 155.49,-133.33"/>
</g>
<!-- Node8&#45;&gt;Node6 -->
<g id="edge9" class="edge">
<title>Node8&#45;&gt;Node6</title>
<path fill="none" stroke="midnightblue" d="M230.49,-56.08C231.68,-48.93 233.39,-38.64 234.88,-29.69"/>
<polygon fill="midnightblue" stroke="midnightblue" points="238.35,-30.19 236.54,-19.75 231.45,-29.04 238.35,-30.19"/>
</g>
<!-- Node9 -->
<g id="node9" class="node">
<title>Node9</title>
<g id="a_node9"><a xlink:title=" ">
<polygon fill="none" stroke="#bfbfbf" points="137.5,-0.5 137.5,-19.5 188.5,-19.5 188.5,-0.5 137.5,-0.5"/>
<text text-anchor="middle" x="163" y="-7.5" font-family="Helvetica,sans-Serif" font-size="10.00">math.h</text>
</a>
</g>
</g>
<!-- Node8&#45;&gt;Node9 -->
<g id="edge8" class="edge">
<title>Node8&#45;&gt;Node9</title>
<path fill="none" stroke="midnightblue" d="M218.4,-56.32C208.54,-48.26 193.65,-36.08 181.78,-26.37"/>
<polygon fill="midnightblue" stroke="midnightblue" points="183.75,-23.46 173.8,-19.83 179.32,-28.88 183.75,-23.46"/>
</g>
<!-- Node10&#45;&gt;Node2 -->
<g id="edge11" class="edge">
<title>Node10&#45;&gt;Node2</title>
<path fill="none" stroke="midnightblue" d="M112.29,-112.32C95.69,-103.7 70,-90.36 50.78,-80.39"/>
<polygon fill="midnightblue" stroke="midnightblue" points="52.16,-77.16 41.67,-75.65 48.93,-83.37 52.16,-77.16"/>
</g>
<!-- Node11 -->
<g id="node11" class="node">
<title>Node11</title>
<g id="a_node11"><a xlink:title=" ">
<polygon fill="none" stroke="#bfbfbf" points="68.5,-56.5 68.5,-75.5 121.5,-75.5 121.5,-56.5 68.5,-56.5"/>
<text text-anchor="middle" x="95" y="-63.5" font-family="Helvetica,sans-Serif" font-size="10.00">stdint.h</text>
</a>
</g>
</g>
<!-- Node10&#45;&gt;Node11 -->
<g id="edge12" class="edge">
<title>Node10&#45;&gt;Node11</title>
<path fill="none" stroke="midnightblue" d="M123.39,-112.08C118.63,-104.53 111.68,-93.49 105.85,-84.23"/>
<polygon fill="midnightblue" stroke="midnightblue" points="108.8,-82.35 100.51,-75.75 102.88,-86.08 108.8,-82.35"/>
</g>
<!-- Node12 -->
<g id="node12" class="node">
<title>Node12</title>
<g id="a_node12"><a xlink:href="utils_8h.html" target="_top" xlink:title=" ">
<polygon fill="none" stroke="black" points="139.5,-56.5 139.5,-75.5 186.5,-75.5 186.5,-56.5 139.5,-56.5"/>
<text text-anchor="middle" x="163" y="-63.5" font-family="Helvetica,sans-Serif" font-size="10.00">utils.h</text>
</a>
</g>
</g>
<!-- Node10&#45;&gt;Node12 -->
<g id="edge13" class="edge">
<title>Node10&#45;&gt;Node12</title>
<path fill="none" stroke="midnightblue" d="M134.61,-112.08C139.37,-104.53 146.32,-93.49 152.15,-84.23"/>
<polygon fill="midnightblue" stroke="midnightblue" points="155.12,-86.08 157.49,-75.75 149.2,-82.35 155.12,-86.08"/>
</g>
<!-- Node12&#45;&gt;Node6 -->
<g id="edge15" class="edge">
<title>Node12&#45;&gt;Node6</title>
<path fill="none" stroke="midnightblue" d="M175.05,-56.32C186.46,-48.11 203.83,-35.6 217.43,-25.81"/>
<polygon fill="midnightblue" stroke="midnightblue" points="219.66,-28.52 225.73,-19.83 215.57,-22.84 219.66,-28.52"/>
</g>
<!-- Node12&#45;&gt;Node9 -->
<g id="edge14" class="edge">
<title>Node12&#45;&gt;Node9</title>
<path fill="none" stroke="midnightblue" d="M163,-56.08C163,-49.01 163,-38.86 163,-29.99"/>
<polygon fill="midnightblue" stroke="midnightblue" points="166.5,-29.75 163,-19.75 159.5,-29.75 166.5,-29.75"/>
</g>
</g>
</svg>
