<?xml version="1.0" encoding="UTF-8" standalone="no"?>
<!DOCTYPE svg PUBLIC "-//W3C//DTD SVG 1.1//EN"
 "http://www.w3.org/Graphics/SVG/1.1/DTD/svg11.dtd">
<!-- Generated by graphviz version 2.43.0 (0)
 -->
<!-- Title: inc/error_mlx.h Pages: 1 -->
<!--zoomable 274 -->
<svg id="main" version="1.1" xmlns="http://www.w3.org/2000/svg" xmlns:xlink="http://www.w3.org/1999/xlink" xml:space="preserve" onload="init(evt)">
<style type="text/css"><![CDATA[
.edge:hover path { stroke: red; }
.edge:hover polygon { stroke: red; fill: red; }
]]></style>
<script type="text/javascript"><![CDATA[
var edges = document.getElementsByTagName('g');
if (edges && edges.length) {
  for (var i=0;i<edges.length;i++) {
    if (edges[i].id.substr(0,4)=='edge') {
      edges[i].setAttribute('class','edge');
    }
  }
}
]]></script>
        <defs>
                <circle id="rim" cx="0" cy="0" r="7"/>
                <circle id="rim2" cx="0" cy="0" r="3.5"/>
                <g id="zoomPlus">
                        <use xlink:href="#rim" fill="#404040">
                                <set attributeName="fill" to="#808080" begin="zoomplus.mouseover" end="zoomplus.mouseout"/>
                        </use>
                        <path d="M-4,0h8M0,-4v8" fill="none" stroke="white" stroke-width="1.5" pointer-events="none"/>
                </g>
                <g id="zoomMin">
                        <use xlink:href="#rim" fill="#404040">
                                <set attributeName="fill" to="#808080" begin="zoomminus.mouseover" end="zoomminus.mouseout"/>
                        </use>
                        <path d="M-4,0h8" fill="none" stroke="white" stroke-width="1.5" pointer-events="none"/>
                </g>
                <g id="dirArrow">
                        <path fill="none" stroke="white" stroke-width="1.5" d="M0,-3.0v7 M-2.5,-0.5L0,-3.0L2.5,-0.5"/>
                </g>
               <g id="resetDef">
                       <use xlink:href="#rim2" fill="#404040">
                               <set attributeName="fill" to="#808080" begin="reset.mouseover" end="reset.mouseout"/>
                       </use>
               </g>
        </defs>

<script type="text/javascript">
var viewWidth = 3040;
var viewHeight = 274;
var sectionId = 'dynsection-1';
</script>
<script xlink:href="svgpan.js"/>
<svg id="graph" class="graph">
<g id="viewport">
<title>inc/error_mlx.h</title>
<!-- Node1 -->
<g id="node1" class="node">
<title>Node1</title>
<g id="a_node1"><a xlink:title=" ">
<polygon fill="#bfbfbf" stroke="black" points="2222.5,-246.5 2222.5,-265.5 2312.5,-265.5 2312.5,-246.5 2222.5,-246.5"/>
<text text-anchor="middle" x="2267.5" y="-253.5" font-family="Helvetica,sans-Serif" font-size="10.00">inc/error_mlx.h</text>
</a>
</g>
</g>
<!-- Node2 -->
<g id="node2" class="node">
<title>Node2</title>
<g id="a_node2"><a xlink:href="render_8h.html" target="_top" xlink:title=" ">
<polygon fill="none" stroke="black" points="1060.5,-190.5 1060.5,-209.5 1134.5,-209.5 1134.5,-190.5 1060.5,-190.5"/>
<text text-anchor="middle" x="1097.5" y="-197.5" font-family="Helvetica,sans-Serif" font-size="10.00">inc/render.h</text>
</a>
</g>
</g>
<!-- Node1&#45;&gt;Node2 -->
<g id="edge1" class="edge">
<title>Node1&#45;&gt;Node2</title>
<path fill="none" stroke="midnightblue" d="M2212.2,-252.45C2008.73,-243.06 1304.71,-210.56 1134.68,-202.72"/>
<polygon fill="midnightblue" stroke="midnightblue" points="2212.2,-255.95 2222.35,-252.92 2212.52,-248.96 2212.2,-255.95"/>
</g>
<!-- Node19 -->
<g id="node19" class="node">
<title>Node19</title>
<g id="a_node19"><a xlink:href="render__bonus_8h.html" target="_top" xlink:title=" ">
<polygon fill="none" stroke="black" points="2213,-190.5 2213,-209.5 2322,-209.5 2322,-190.5 2213,-190.5"/>
<text text-anchor="middle" x="2267.5" y="-197.5" font-family="Helvetica,sans-Serif" font-size="10.00">inc/render_bonus.h</text>
</a>
</g>
</g>
<!-- Node1&#45;&gt;Node19 -->
<g id="edge18" class="edge">
<title>Node1&#45;&gt;Node19</title>
<path fill="none" stroke="midnightblue" d="M2267.5,-235.8C2267.5,-226.91 2267.5,-216.78 2267.5,-209.75"/>
<polygon fill="midnightblue" stroke="midnightblue" points="2264,-236.08 2267.5,-246.08 2271,-236.08 2264,-236.08"/>
</g>
<!-- Node38 -->
<g id="node38" class="node">
<title>Node38</title>
<g id="a_node38"><a xlink:href="error__mlx_8c.html" target="_top" xlink:title=" ">
<polygon fill="none" stroke="black" points="2340,-190.5 2340,-209.5 2429,-209.5 2429,-190.5 2340,-190.5"/>
<text text-anchor="middle" x="2384.5" y="-197.5" font-family="Helvetica,sans-Serif" font-size="10.00">src/error_mlx.c</text>
</a>
</g>
</g>
<!-- Node1&#45;&gt;Node38 -->
<g id="edge37" class="edge">
<title>Node1&#45;&gt;Node38</title>
<path fill="none" stroke="midnightblue" d="M2295.16,-242.23C2317.05,-232.13 2347,-218.31 2366.05,-209.52"/>
<polygon fill="midnightblue" stroke="midnightblue" points="2293.65,-239.08 2286.04,-246.44 2296.59,-245.43 2293.65,-239.08"/>
</g>
<!-- Node3 -->
<g id="node3" class="node">
<title>Node3</title>
<g id="a_node3"><a xlink:href="render__compose__image_8c.html" target="_top" xlink:title=" ">
<polygon fill="none" stroke="black" points="0,-123.5 0,-153.5 115,-153.5 115,-123.5 0,-123.5"/>
<text text-anchor="start" x="8" y="-141.5" font-family="Helvetica,sans-Serif" font-size="10.00">src/render_compose</text>
<text text-anchor="middle" x="57.5" y="-130.5" font-family="Helvetica,sans-Serif" font-size="10.00">_image.c</text>
</a>
</g>
</g>
<!-- Node2&#45;&gt;Node3 -->
<g id="edge2" class="edge">
<title>Node2&#45;&gt;Node3</title>
<path fill="none" stroke="midnightblue" d="M1050.12,-199.6C908.76,-200.79 477.86,-200.08 124.5,-154 121.43,-153.6 118.3,-153.13 115.14,-152.61"/>
<polygon fill="midnightblue" stroke="midnightblue" points="1050.22,-203.1 1060.19,-199.51 1050.16,-196.1 1050.22,-203.1"/>
</g>
<!-- Node4 -->
<g id="node4" class="node">
<title>Node4</title>
<g id="a_node4"><a xlink:href="render__draw_8c.html" target="_top" xlink:title=" ">
<polygon fill="none" stroke="black" points="133.5,-129 133.5,-148 235.5,-148 235.5,-129 133.5,-129"/>
<text text-anchor="middle" x="184.5" y="-136" font-family="Helvetica,sans-Serif" font-size="10.00">src/render_draw.c</text>
</a>
</g>
</g>
<!-- Node2&#45;&gt;Node4 -->
<g id="edge3" class="edge">
<title>Node2&#45;&gt;Node4</title>
<path fill="none" stroke="midnightblue" d="M1049.89,-199.55C919.99,-200.4 548.87,-198.42 244.5,-154 234.85,-152.59 224.48,-150.35 215.12,-148.05"/>
<polygon fill="midnightblue" stroke="midnightblue" points="1050.29,-203.05 1060.26,-199.47 1050.24,-196.05 1050.29,-203.05"/>
</g>
<!-- Node5 -->
<g id="node5" class="node">
<title>Node5</title>
<g id="a_node5"><a xlink:href="render__init__mlx_8c.html" target="_top" xlink:title=" ">
<polygon fill="none" stroke="black" points="254,-129 254,-148 373,-148 373,-129 254,-129"/>
<text text-anchor="middle" x="313.5" y="-136" font-family="Helvetica,sans-Serif" font-size="10.00">src/render_init_mlx.c</text>
</a>
</g>
</g>
<!-- Node2&#45;&gt;Node5 -->
<g id="edge4" class="edge">
<title>Node2&#45;&gt;Node5</title>
<path fill="none" stroke="midnightblue" d="M1050.28,-198.38C935.43,-196.36 632.58,-187.97 382.5,-154 371.58,-152.52 359.81,-150.29 349.14,-148.01"/>
<polygon fill="midnightblue" stroke="midnightblue" points="1050.42,-201.88 1060.48,-198.55 1050.54,-194.88 1050.42,-201.88"/>
</g>
<!-- Node6 -->
<g id="node6" class="node">
<title>Node6</title>
<g id="a_node6"><a xlink:href="render__keyhook__camera_8c.html" target="_top" xlink:title=" ">
<polygon fill="none" stroke="black" points="391.5,-123.5 391.5,-153.5 503.5,-153.5 503.5,-123.5 391.5,-123.5"/>
<text text-anchor="start" x="399.5" y="-141.5" font-family="Helvetica,sans-Serif" font-size="10.00">src/render_keyhook</text>
<text text-anchor="middle" x="447.5" y="-130.5" font-family="Helvetica,sans-Serif" font-size="10.00">_camera.c</text>
</a>
</g>
</g>
<!-- Node2&#45;&gt;Node6 -->
<g id="edge5" class="edge">
<title>Node2&#45;&gt;Node6</title>
<path fill="none" stroke="midnightblue" d="M1050.27,-197.65C950.47,-194.3 711,-183.62 512.5,-154 509.64,-153.57 506.72,-153.09 503.78,-152.57"/>
<polygon fill="midnightblue" stroke="midnightblue" points="1050.23,-201.15 1060.33,-197.98 1050.45,-194.16 1050.23,-201.15"/>
</g>
<!-- Node7 -->
<g id="node7" class="node">
<title>Node7</title>
<g id="a_node7"><a xlink:href="render__keyhook__colour_8c.html" target="_top" xlink:title=" ">
<polygon fill="none" stroke="black" points="521.5,-123.5 521.5,-153.5 633.5,-153.5 633.5,-123.5 521.5,-123.5"/>
<text text-anchor="start" x="529.5" y="-141.5" font-family="Helvetica,sans-Serif" font-size="10.00">src/render_keyhook</text>
<text text-anchor="middle" x="577.5" y="-130.5" font-family="Helvetica,sans-Serif" font-size="10.00">_colour.c</text>
</a>
</g>
</g>
<!-- Node2&#45;&gt;Node7 -->
<g id="edge6" class="edge">
<title>Node2&#45;&gt;Node7</title>
<path fill="none" stroke="midnightblue" d="M1050.33,-196.22C967.44,-190.92 790.38,-177.72 642.5,-154 639.65,-153.54 636.73,-153.04 633.79,-152.49"/>
<polygon fill="midnightblue" stroke="midnightblue" points="1050.24,-199.72 1060.44,-196.86 1050.68,-192.74 1050.24,-199.72"/>
</g>
<!-- Node8 -->
<g id="node8" class="node">
<title>Node8</title>
<g id="a_node8"><a xlink:href="render__keyhook__hittable_8c.html" target="_top" xlink:title=" ">
<polygon fill="none" stroke="black" points="651.5,-123.5 651.5,-153.5 763.5,-153.5 763.5,-123.5 651.5,-123.5"/>
<text text-anchor="start" x="659.5" y="-141.5" font-family="Helvetica,sans-Serif" font-size="10.00">src/render_keyhook</text>
<text text-anchor="middle" x="707.5" y="-130.5" font-family="Helvetica,sans-Serif" font-size="10.00">_hittable.c</text>
</a>
</g>
</g>
<!-- Node2&#45;&gt;Node8 -->
<g id="edge7" class="edge">
<title>Node2&#45;&gt;Node8</title>
<path fill="none" stroke="midnightblue" d="M1050.21,-193.68C986.77,-186.27 870.74,-171.73 772.5,-154 769.66,-153.49 766.75,-152.94 763.81,-152.36"/>
<polygon fill="midnightblue" stroke="midnightblue" points="1049.96,-197.18 1060.3,-194.85 1050.77,-190.23 1049.96,-197.18"/>
</g>
<!-- Node9 -->
<g id="node9" class="node">
<title>Node9</title>
<g id="a_node9"><a xlink:href="render__keyhook__light_8c.html" target="_top" xlink:title=" ">
<polygon fill="none" stroke="black" points="781.5,-123.5 781.5,-153.5 893.5,-153.5 893.5,-123.5 781.5,-123.5"/>
<text text-anchor="start" x="789.5" y="-141.5" font-family="Helvetica,sans-Serif" font-size="10.00">src/render_keyhook</text>
<text text-anchor="middle" x="837.5" y="-130.5" font-family="Helvetica,sans-Serif" font-size="10.00">_light.c</text>
</a>
</g>
</g>
<!-- Node2&#45;&gt;Node9 -->
<g id="edge8" class="edge">
<title>Node2&#45;&gt;Node9</title>
<path fill="none" stroke="midnightblue" d="M1050.38,-188.22C1006.36,-178.14 940.6,-163.09 893.83,-152.39"/>
<polygon fill="midnightblue" stroke="midnightblue" points="1049.72,-191.66 1060.25,-190.48 1051.28,-184.83 1049.72,-191.66"/>
</g>
<!-- Node10 -->
<g id="node10" class="node">
<title>Node10</title>
<g id="a_node10"><a xlink:href="render__keyhook__options_8c.html" target="_top" xlink:title=" ">
<polygon fill="none" stroke="black" points="911.5,-123.5 911.5,-153.5 1023.5,-153.5 1023.5,-123.5 911.5,-123.5"/>
<text text-anchor="start" x="919.5" y="-141.5" font-family="Helvetica,sans-Serif" font-size="10.00">src/render_keyhook</text>
<text text-anchor="middle" x="967.5" y="-130.5" font-family="Helvetica,sans-Serif" font-size="10.00">_options.c</text>
</a>
</g>
</g>
<!-- Node2&#45;&gt;Node10 -->
<g id="edge9" class="edge">
<title>Node2&#45;&gt;Node10</title>
<path fill="none" stroke="midnightblue" d="M1069.53,-186.2C1048.53,-176.58 1019.77,-163.42 998.14,-153.52"/>
<polygon fill="midnightblue" stroke="midnightblue" points="1068.32,-189.5 1078.87,-190.48 1071.24,-183.13 1068.32,-189.5"/>
</g>
<!-- Node11 -->
<g id="node11" class="node">
<title>Node11</title>
<g id="a_node11"><a xlink:href="render__keyhook__options__bonus_8c.html" target="_top" xlink:title=" ">
<polygon fill="none" stroke="black" points="1041.5,-123.5 1041.5,-153.5 1153.5,-153.5 1153.5,-123.5 1041.5,-123.5"/>
<text text-anchor="start" x="1049.5" y="-141.5" font-family="Helvetica,sans-Serif" font-size="10.00">src/render_keyhook</text>
<text text-anchor="middle" x="1097.5" y="-130.5" font-family="Helvetica,sans-Serif" font-size="10.00">_options_bonus.c</text>
</a>
</g>
</g>
<!-- Node2&#45;&gt;Node11 -->
<g id="edge10" class="edge">
<title>Node2&#45;&gt;Node11</title>
<path fill="none" stroke="midnightblue" d="M1097.5,-180.23C1097.5,-171.59 1097.5,-161.5 1097.5,-153.52"/>
<polygon fill="midnightblue" stroke="midnightblue" points="1094,-180.48 1097.5,-190.48 1101,-180.48 1094,-180.48"/>
</g>
<!-- Node12 -->
<g id="node12" class="node">
<title>Node12</title>
<g id="a_node12"><a xlink:href="render__keyhook__press_8c.html" target="_top" xlink:title=" ">
<polygon fill="none" stroke="black" points="1171.5,-123.5 1171.5,-153.5 1283.5,-153.5 1283.5,-123.5 1171.5,-123.5"/>
<text text-anchor="start" x="1179.5" y="-141.5" font-family="Helvetica,sans-Serif" font-size="10.00">src/render_keyhook</text>
<text text-anchor="middle" x="1227.5" y="-130.5" font-family="Helvetica,sans-Serif" font-size="10.00">_press.c</text>
</a>
</g>
</g>
<!-- Node2&#45;&gt;Node12 -->
<g id="edge11" class="edge">
<title>Node2&#45;&gt;Node12</title>
<path fill="none" stroke="midnightblue" d="M1125.47,-186.2C1146.47,-176.58 1175.23,-163.42 1196.86,-153.52"/>
<polygon fill="midnightblue" stroke="midnightblue" points="1123.76,-183.13 1116.13,-190.48 1126.68,-189.5 1123.76,-183.13"/>
</g>
<!-- Node13 -->
<g id="node13" class="node">
<title>Node13</title>
<g id="a_node13"><a xlink:href="render__keyhook__release_8c.html" target="_top" xlink:title=" ">
<polygon fill="none" stroke="black" points="1301.5,-123.5 1301.5,-153.5 1413.5,-153.5 1413.5,-123.5 1301.5,-123.5"/>
<text text-anchor="start" x="1309.5" y="-141.5" font-family="Helvetica,sans-Serif" font-size="10.00">src/render_keyhook</text>
<text text-anchor="middle" x="1357.5" y="-130.5" font-family="Helvetica,sans-Serif" font-size="10.00">_release.c</text>
</a>
</g>
</g>
<!-- Node2&#45;&gt;Node13 -->
<g id="edge12" class="edge">
<title>Node2&#45;&gt;Node13</title>
<path fill="none" stroke="midnightblue" d="M1144.62,-188.22C1188.64,-178.14 1254.4,-163.09 1301.17,-152.39"/>
<polygon fill="midnightblue" stroke="midnightblue" points="1143.72,-184.83 1134.75,-190.48 1145.28,-191.66 1143.72,-184.83"/>
</g>
<!-- Node14 -->
<g id="node14" class="node">
<title>Node14</title>
<g id="a_node14"><a xlink:href="render__keyhook__scene_8c.html" target="_top" xlink:title=" ">
<polygon fill="none" stroke="black" points="1431.5,-123.5 1431.5,-153.5 1543.5,-153.5 1543.5,-123.5 1431.5,-123.5"/>
<text text-anchor="start" x="1439.5" y="-141.5" font-family="Helvetica,sans-Serif" font-size="10.00">src/render_keyhook</text>
<text text-anchor="middle" x="1487.5" y="-130.5" font-family="Helvetica,sans-Serif" font-size="10.00">_scene.c</text>
</a>
</g>
</g>
<!-- Node2&#45;&gt;Node14 -->
<g id="edge13" class="edge">
<title>Node2&#45;&gt;Node14</title>
<path fill="none" stroke="midnightblue" d="M1144.79,-193.68C1208.23,-186.27 1324.26,-171.73 1422.5,-154 1425.34,-153.49 1428.25,-152.94 1431.19,-152.36"/>
<polygon fill="midnightblue" stroke="midnightblue" points="1144.23,-190.23 1134.7,-194.85 1145.04,-197.18 1144.23,-190.23"/>
</g>
<!-- Node15 -->
<g id="node15" class="node">
<title>Node15</title>
<g id="a_node15"><a xlink:href="render__keyhook__utils_8c.html" target="_top" xlink:title=" ">
<polygon fill="none" stroke="black" points="1561.5,-123.5 1561.5,-153.5 1673.5,-153.5 1673.5,-123.5 1561.5,-123.5"/>
<text text-anchor="start" x="1569.5" y="-141.5" font-family="Helvetica,sans-Serif" font-size="10.00">src/render_keyhook</text>
<text text-anchor="middle" x="1617.5" y="-130.5" font-family="Helvetica,sans-Serif" font-size="10.00">_utils.c</text>
</a>
</g>
</g>
<!-- Node2&#45;&gt;Node15 -->
<g id="edge14" class="edge">
<title>Node2&#45;&gt;Node15</title>
<path fill="none" stroke="midnightblue" d="M1144.67,-196.22C1227.56,-190.92 1404.62,-177.72 1552.5,-154 1555.35,-153.54 1558.27,-153.04 1561.21,-152.49"/>
<polygon fill="midnightblue" stroke="midnightblue" points="1144.32,-192.74 1134.56,-196.86 1144.76,-199.72 1144.32,-192.74"/>
</g>
<!-- Node16 -->
<g id="node16" class="node">
<title>Node16</title>
<g id="a_node16"><a xlink:href="render__loop__mlx_8c.html" target="_top" xlink:title=" ">
<polygon fill="none" stroke="black" points="1691.5,-129 1691.5,-148 1815.5,-148 1815.5,-129 1691.5,-129"/>
<text text-anchor="middle" x="1753.5" y="-136" font-family="Helvetica,sans-Serif" font-size="10.00">src/render_loop_mlx.c</text>
</a>
</g>
</g>
<!-- Node2&#45;&gt;Node16 -->
<g id="edge15" class="edge">
<title>Node2&#45;&gt;Node16</title>
<path fill="none" stroke="midnightblue" d="M1144.69,-197.37C1244.41,-193.48 1483.74,-181.83 1682.5,-154 1693.46,-152.46 1705.28,-150.27 1716.07,-148.05"/>
<polygon fill="midnightblue" stroke="midnightblue" points="1144.49,-193.87 1134.63,-197.75 1144.76,-200.87 1144.49,-193.87"/>
</g>
<!-- Node17 -->
<g id="node17" class="node">
<title>Node17</title>
<g id="a_node17"><a xlink:href="render__mouse_8c.html" target="_top" xlink:title=" ">
<polygon fill="none" stroke="black" points="1833.5,-129 1833.5,-148 1945.5,-148 1945.5,-129 1833.5,-129"/>
<text text-anchor="middle" x="1889.5" y="-136" font-family="Helvetica,sans-Serif" font-size="10.00">src/render_mouse.c</text>
</a>
</g>
</g>
<!-- Node2&#45;&gt;Node17 -->
<g id="edge16" class="edge">
<title>Node2&#45;&gt;Node17</title>
<path fill="none" stroke="midnightblue" d="M1145.12,-198.64C1261.64,-197.21 1570.13,-190.02 1824.5,-154 1834.8,-152.54 1845.9,-150.32 1855.95,-148.04"/>
<polygon fill="midnightblue" stroke="midnightblue" points="1144.74,-195.15 1134.78,-198.76 1144.82,-202.15 1144.74,-195.15"/>
</g>
<!-- Node18 -->
<g id="node18" class="node">
<title>Node18</title>
<g id="a_node18"><a xlink:href="render__output__ppm_8c.html" target="_top" xlink:title=" ">
<polygon fill="none" stroke="black" points="1964,-129 1964,-148 2101,-148 2101,-129 1964,-129"/>
<text text-anchor="middle" x="2032.5" y="-136" font-family="Helvetica,sans-Serif" font-size="10.00">src/render_output_ppm.c</text>
</a>
</g>
</g>
<!-- Node2&#45;&gt;Node18 -->
<g id="edge17" class="edge">
<title>Node2&#45;&gt;Node18</title>
<path fill="none" stroke="midnightblue" d="M1144.83,-198.69C1274.68,-197.38 1647.31,-190.46 1954.5,-154 1966.81,-152.54 1980.1,-150.31 1992.17,-148.04"/>
<polygon fill="midnightblue" stroke="midnightblue" points="1144.79,-195.19 1134.82,-198.79 1144.85,-202.19 1144.79,-195.19"/>
</g>
<!-- Node20 -->
<g id="node20" class="node">
<title>Node20</title>
<g id="a_node20"><a xlink:href="menu__put_8h.html" target="_top" xlink:title=" ">
<polygon fill="none" stroke="black" points="2119.5,-129 2119.5,-148 2211.5,-148 2211.5,-129 2119.5,-129"/>
<text text-anchor="middle" x="2165.5" y="-136" font-family="Helvetica,sans-Serif" font-size="10.00">inc/menu_put.h</text>
</a>
</g>
</g>
<!-- Node19&#45;&gt;Node20 -->
<g id="edge19" class="edge">
<title>Node19&#45;&gt;Node20</title>
<path fill="none" stroke="midnightblue" d="M2244.19,-185.4C2224.46,-173.9 2196.81,-157.77 2180.09,-148.01"/>
<polygon fill="midnightblue" stroke="midnightblue" points="2242.48,-188.46 2252.89,-190.48 2246.01,-182.41 2242.48,-188.46"/>
</g>
<!-- Node34 -->
<g id="node34" class="node">
<title>Node34</title>
<g id="a_node34"><a xlink:href="mini_r_t_8h.html" target="_top" xlink:title=" ">
<polygon fill="none" stroke="black" points="2229.5,-129 2229.5,-148 2305.5,-148 2305.5,-129 2229.5,-129"/>
<text text-anchor="middle" x="2267.5" y="-136" font-family="Helvetica,sans-Serif" font-size="10.00">inc/miniRT.h</text>
</a>
</g>
</g>
<!-- Node19&#45;&gt;Node34 -->
<g id="edge33" class="edge">
<title>Node19&#45;&gt;Node34</title>
<path fill="none" stroke="midnightblue" d="M2267.5,-180.32C2267.5,-169.5 2267.5,-156.4 2267.5,-148.01"/>
<polygon fill="midnightblue" stroke="midnightblue" points="2264,-180.48 2267.5,-190.48 2271,-180.48 2264,-180.48"/>
</g>
<!-- Node36 -->
<g id="node36" class="node">
<title>Node36</title>
<g id="a_node36"><a xlink:href="render__compose__image__bonus_8c.html" target="_top" xlink:title=" ">
<polygon fill="none" stroke="black" points="2324,-123.5 2324,-153.5 2439,-153.5 2439,-123.5 2324,-123.5"/>
<text text-anchor="start" x="2332" y="-141.5" font-family="Helvetica,sans-Serif" font-size="10.00">src/render_compose</text>
<text text-anchor="middle" x="2381.5" y="-130.5" font-family="Helvetica,sans-Serif" font-size="10.00">_image_bonus.c</text>
</a>
</g>
</g>
<!-- Node19&#45;&gt;Node36 -->
<g id="edge35" class="edge">
<title>Node19&#45;&gt;Node36</title>
<path fill="none" stroke="midnightblue" d="M2292.78,-185.81C2311.13,-176.23 2335.92,-163.29 2354.63,-153.52"/>
<polygon fill="midnightblue" stroke="midnightblue" points="2291.08,-182.75 2283.83,-190.48 2294.32,-188.95 2291.08,-182.75"/>
</g>
<!-- Node37 -->
<g id="node37" class="node">
<title>Node37</title>
<g id="a_node37"><a xlink:href="render__draw__bonus_8c.html" target="_top" xlink:title=" ">
<polygon fill="none" stroke="black" points="2457,-129 2457,-148 2594,-148 2594,-129 2457,-129"/>
<text text-anchor="middle" x="2525.5" y="-136" font-family="Helvetica,sans-Serif" font-size="10.00">src/render_draw_bonus.c</text>
</a>
</g>
</g>
<!-- Node19&#45;&gt;Node37 -->
<g id="edge36" class="edge">
<title>Node19&#45;&gt;Node37</title>
<path fill="none" stroke="midnightblue" d="M2314.39,-188.19C2364.45,-176.64 2442.75,-158.58 2488.6,-148.01"/>
<polygon fill="midnightblue" stroke="midnightblue" points="2313.42,-184.82 2304.47,-190.48 2315,-191.64 2313.42,-184.82"/>
</g>
<!-- Node21 -->
<g id="node21" class="node">
<title>Node21</title>
<g id="a_node21"><a xlink:href="menu__put__bonus_8h.html" target="_top" xlink:title=" ">
<polygon fill="none" stroke="black" points="1205.5,-62 1205.5,-81 1331.5,-81 1331.5,-62 1205.5,-62"/>
<text text-anchor="middle" x="1268.5" y="-69" font-family="Helvetica,sans-Serif" font-size="10.00">inc/menu_put_bonus.h</text>
</a>
</g>
</g>
<!-- Node20&#45;&gt;Node21 -->
<g id="edge20" class="edge">
<title>Node20&#45;&gt;Node21</title>
<path fill="none" stroke="midnightblue" d="M2127.7,-126.42C2121.98,-125.07 2116.11,-123.86 2110.5,-123 1771.87,-71.04 1680.52,-128.94 1340.5,-87 1328.98,-85.58 1316.56,-83.34 1305.32,-81.04"/>
<polygon fill="midnightblue" stroke="midnightblue" points="2127.21,-129.9 2137.76,-128.97 2128.93,-123.12 2127.21,-129.9"/>
</g>
<!-- Node23 -->
<g id="node23" class="node">
<title>Node23</title>
<g id="a_node23"><a xlink:href="menu__put__cam__light_8c.html" target="_top" xlink:title=" ">
<polygon fill="none" stroke="black" points="1349.5,-62 1349.5,-81 1493.5,-81 1493.5,-62 1349.5,-62"/>
<text text-anchor="middle" x="1421.5" y="-69" font-family="Helvetica,sans-Serif" font-size="10.00">src/menu_put_cam_light.c</text>
</a>
</g>
</g>
<!-- Node20&#45;&gt;Node23 -->
<g id="edge22" class="edge">
<title>Node20&#45;&gt;Node23</title>
<path fill="none" stroke="midnightblue" d="M2127.5,-126.44C2121.84,-125.09 2116.05,-123.89 2110.5,-123 1843.2,-80.29 1771.31,-118.91 1502.5,-87 1489.87,-85.5 1476.24,-83.29 1463.82,-81.05"/>
<polygon fill="midnightblue" stroke="midnightblue" points="2126.91,-129.9 2137.47,-128.96 2128.63,-123.11 2126.91,-129.9"/>
</g>
<!-- Node24 -->
<g id="node24" class="node">
<title>Node24</title>
<g id="a_node24"><a xlink:href="menu__put__cam__light__ctrl_8c.html" target="_top" xlink:title=" ">
<polygon fill="none" stroke="black" points="1511.5,-56.5 1511.5,-86.5 1647.5,-86.5 1647.5,-56.5 1511.5,-56.5"/>
<text text-anchor="start" x="1519.5" y="-74.5" font-family="Helvetica,sans-Serif" font-size="10.00">src/menu_put_cam_light</text>
<text text-anchor="middle" x="1579.5" y="-63.5" font-family="Helvetica,sans-Serif" font-size="10.00">_ctrl.c</text>
</a>
</g>
</g>
<!-- Node20&#45;&gt;Node24 -->
<g id="edge23" class="edge">
<title>Node20&#45;&gt;Node24</title>
<path fill="none" stroke="midnightblue" d="M2127.3,-126.49C2121.7,-125.15 2115.98,-123.93 2110.5,-123 1911.39,-89.12 1857.72,-113.49 1657.5,-87 1654.36,-86.58 1651.15,-86.13 1647.92,-85.64"/>
<polygon fill="midnightblue" stroke="midnightblue" points="2126.61,-129.93 2137.17,-129 2128.33,-123.15 2126.61,-129.93"/>
</g>
<!-- Node25 -->
<g id="node25" class="node">
<title>Node25</title>
<g id="a_node25"><a xlink:href="menu__put__general__info_8c.html" target="_top" xlink:title=" ">
<polygon fill="none" stroke="black" points="1666,-56.5 1666,-86.5 1791,-86.5 1791,-56.5 1666,-56.5"/>
<text text-anchor="start" x="1674" y="-74.5" font-family="Helvetica,sans-Serif" font-size="10.00">src/menu_put_general</text>
<text text-anchor="middle" x="1728.5" y="-63.5" font-family="Helvetica,sans-Serif" font-size="10.00">_info.c</text>
</a>
</g>
</g>
<!-- Node20&#45;&gt;Node25 -->
<g id="edge24" class="edge">
<title>Node20&#45;&gt;Node25</title>
<path fill="none" stroke="midnightblue" d="M2126.3,-126.44C2121.02,-125.16 2115.64,-123.97 2110.5,-123 1974.21,-97.26 1937.49,-108.71 1800.5,-87 1797.48,-86.52 1794.39,-86 1791.27,-85.46"/>
<polygon fill="midnightblue" stroke="midnightblue" points="2125.72,-129.9 2136.28,-128.97 2127.44,-123.12 2125.72,-129.9"/>
</g>
<!-- Node26 -->
<g id="node26" class="node">
<title>Node26</title>
<g id="a_node26"><a xlink:href="menu__put__hittable_8c.html" target="_top" xlink:title=" ">
<polygon fill="none" stroke="black" points="1809.5,-62 1809.5,-81 1943.5,-81 1943.5,-62 1809.5,-62"/>
<text text-anchor="middle" x="1876.5" y="-69" font-family="Helvetica,sans-Serif" font-size="10.00">src/menu_put_hittable.c</text>
</a>
</g>
</g>
<!-- Node20&#45;&gt;Node26 -->
<g id="edge25" class="edge">
<title>Node20&#45;&gt;Node26</title>
<path fill="none" stroke="midnightblue" d="M2124.18,-126.39C2119.57,-125.22 2114.94,-124.06 2110.5,-123 2043.81,-107.02 1965.88,-90.66 1918.9,-81.05"/>
<polygon fill="midnightblue" stroke="midnightblue" points="2123.59,-129.85 2134.15,-128.97 2125.35,-123.08 2123.59,-129.85"/>
</g>
<!-- Node27 -->
<g id="node27" class="node">
<title>Node27</title>
<g id="a_node27"><a xlink:href="menu__put__hittable__ctrl_8c.html" target="_top" xlink:title=" ">
<polygon fill="none" stroke="black" points="1962,-56.5 1962,-86.5 2087,-86.5 2087,-56.5 1962,-56.5"/>
<text text-anchor="start" x="1970" y="-74.5" font-family="Helvetica,sans-Serif" font-size="10.00">src/menu_put_hittable</text>
<text text-anchor="middle" x="2024.5" y="-63.5" font-family="Helvetica,sans-Serif" font-size="10.00">_ctrl.c</text>
</a>
</g>
</g>
<!-- Node20&#45;&gt;Node27 -->
<g id="edge26" class="edge">
<title>Node20&#45;&gt;Node27</title>
<path fill="none" stroke="midnightblue" d="M2137.56,-124.62C2113.71,-113.63 2079.47,-97.84 2054.93,-86.53"/>
<polygon fill="midnightblue" stroke="midnightblue" points="2136.23,-127.86 2146.78,-128.87 2139.16,-121.5 2136.23,-127.86"/>
</g>
<!-- Node28 -->
<g id="node28" class="node">
<title>Node28</title>
<g id="a_node28"><a xlink:href="menu__put__page_8c.html" target="_top" xlink:title=" ">
<polygon fill="none" stroke="black" points="2105.5,-62 2105.5,-81 2225.5,-81 2225.5,-62 2105.5,-62"/>
<text text-anchor="middle" x="2165.5" y="-69" font-family="Helvetica,sans-Serif" font-size="10.00">src/menu_put_page.c</text>
</a>
</g>
</g>
<!-- Node20&#45;&gt;Node28 -->
<g id="edge27" class="edge">
<title>Node20&#45;&gt;Node28</title>
<path fill="none" stroke="midnightblue" d="M2165.5,-118.54C2165.5,-106.17 2165.5,-90.62 2165.5,-81.13"/>
<polygon fill="midnightblue" stroke="midnightblue" points="2162,-118.73 2165.5,-128.73 2169,-118.73 2162,-118.73"/>
</g>
<!-- Node29 -->
<g id="node29" class="node">
<title>Node29</title>
<g id="a_node29"><a xlink:href="menu__put__str__num_8c.html" target="_top" xlink:title=" ">
<polygon fill="none" stroke="black" points="2243.5,-62 2243.5,-81 2379.5,-81 2379.5,-62 2243.5,-62"/>
<text text-anchor="middle" x="2311.5" y="-69" font-family="Helvetica,sans-Serif" font-size="10.00">src/menu_put_str_num.c</text>
</a>
</g>
</g>
<!-- Node20&#45;&gt;Node29 -->
<g id="edge28" class="edge">
<title>Node20&#45;&gt;Node29</title>
<path fill="none" stroke="midnightblue" d="M2194.07,-124.78C2222.98,-111.91 2266.9,-92.35 2292.03,-81.17"/>
<polygon fill="midnightblue" stroke="midnightblue" points="2192.6,-121.6 2184.89,-128.87 2195.45,-128 2192.6,-121.6"/>
</g>
<!-- Node30 -->
<g id="node30" class="node">
<title>Node30</title>
<g id="a_node30"><a xlink:href="menu__put__text_8c.html" target="_top" xlink:title=" ">
<polygon fill="none" stroke="black" points="2397.5,-62 2397.5,-81 2513.5,-81 2513.5,-62 2397.5,-62"/>
<text text-anchor="middle" x="2455.5" y="-69" font-family="Helvetica,sans-Serif" font-size="10.00">src/menu_put_text.c</text>
</a>
</g>
</g>
<!-- Node20&#45;&gt;Node30 -->
<g id="edge29" class="edge">
<title>Node20&#45;&gt;Node30</title>
<path fill="none" stroke="midnightblue" d="M2206.82,-126.39C2211.43,-125.21 2216.06,-124.06 2220.5,-123 2294.77,-105.26 2313.85,-103.08 2388.5,-87 2397.46,-85.07 2407.09,-82.99 2416.18,-81.02"/>
<polygon fill="midnightblue" stroke="midnightblue" points="2205.65,-123.07 2196.85,-128.97 2207.41,-129.85 2205.65,-123.07"/>
</g>
<!-- Node31 -->
<g id="node31" class="node">
<title>Node31</title>
<g id="a_node31"><a xlink:href="menu__put__time__bonus_8c.html" target="_top" xlink:title=" ">
<polygon fill="none" stroke="black" points="2532,-62 2532,-81 2685,-81 2685,-62 2532,-62"/>
<text text-anchor="middle" x="2608.5" y="-69" font-family="Helvetica,sans-Serif" font-size="10.00">src/menu_put_time_bonus.c</text>
</a>
</g>
</g>
<!-- Node20&#45;&gt;Node31 -->
<g id="edge30" class="edge">
<title>Node20&#45;&gt;Node31</title>
<path fill="none" stroke="midnightblue" d="M2204.7,-126.46C2209.99,-125.18 2215.36,-123.98 2220.5,-123 2353.29,-97.71 2388.7,-106.24 2522.5,-87 2534.79,-85.23 2548.03,-83.11 2560.35,-81.04"/>
<polygon fill="midnightblue" stroke="midnightblue" points="2203.56,-123.13 2194.73,-128.99 2205.28,-129.92 2203.56,-123.13"/>
</g>
<!-- Node32 -->
<g id="node32" class="node">
<title>Node32</title>
<g id="a_node32"><a xlink:href="menu__put__utils_8c.html" target="_top" xlink:title=" ">
<polygon fill="none" stroke="black" points="2703,-62 2703,-81 2820,-81 2820,-62 2703,-62"/>
<text text-anchor="middle" x="2761.5" y="-69" font-family="Helvetica,sans-Serif" font-size="10.00">src/menu_put_utils.c</text>
</a>
</g>
</g>
<!-- Node20&#45;&gt;Node32 -->
<g id="edge31" class="edge">
<title>Node20&#45;&gt;Node32</title>
<path fill="none" stroke="midnightblue" d="M2203.7,-126.48C2209.3,-125.14 2215.02,-123.92 2220.5,-123 2428.84,-87.93 2485.43,-117.42 2694.5,-87 2704.98,-85.48 2716.27,-83.26 2726.54,-81.01"/>
<polygon fill="midnightblue" stroke="midnightblue" points="2202.66,-123.13 2193.83,-128.98 2204.38,-129.91 2202.66,-123.13"/>
</g>
<!-- Node33 -->
<g id="node33" class="node">
<title>Node33</title>
<g id="a_node33"><a xlink:href="menu__put__utils__ctrl_8c.html" target="_top" xlink:title=" ">
<polygon fill="none" stroke="black" points="2838,-56.5 2838,-86.5 2947,-86.5 2947,-56.5 2838,-56.5"/>
<text text-anchor="start" x="2846" y="-74.5" font-family="Helvetica,sans-Serif" font-size="10.00">src/menu_put_utils</text>
<text text-anchor="middle" x="2892.5" y="-63.5" font-family="Helvetica,sans-Serif" font-size="10.00">_ctrl.c</text>
</a>
</g>
</g>
<!-- Node20&#45;&gt;Node33 -->
<g id="edge32" class="edge">
<title>Node20&#45;&gt;Node33</title>
<path fill="none" stroke="midnightblue" d="M2203.5,-126.44C2209.16,-125.09 2214.95,-123.89 2220.5,-123 2488.24,-80.23 2561.11,-125.54 2829.5,-87 2832.28,-86.6 2835.11,-86.14 2837.97,-85.64"/>
<polygon fill="midnightblue" stroke="midnightblue" points="2202.37,-123.11 2193.53,-128.96 2204.09,-129.9 2202.37,-123.11"/>
</g>
<!-- Node22 -->
<g id="node22" class="node">
<title>Node22</title>
<g id="a_node22"><a xlink:href="menu__put__text__bonus_8c.html" target="_top" xlink:title=" ">
<polygon fill="none" stroke="black" points="1193.5,-0.5 1193.5,-19.5 1343.5,-19.5 1343.5,-0.5 1193.5,-0.5"/>
<text text-anchor="middle" x="1268.5" y="-7.5" font-family="Helvetica,sans-Serif" font-size="10.00">src/menu_put_text_bonus.c</text>
</a>
</g>
</g>
<!-- Node21&#45;&gt;Node22 -->
<g id="edge21" class="edge">
<title>Node21&#45;&gt;Node22</title>
<path fill="none" stroke="midnightblue" d="M1268.5,-51.82C1268.5,-41 1268.5,-27.9 1268.5,-19.51"/>
<polygon fill="midnightblue" stroke="midnightblue" points="1265,-51.98 1268.5,-61.98 1272,-51.98 1265,-51.98"/>
</g>
<!-- Node35 -->
<g id="node35" class="node">
<title>Node35</title>
<g id="a_node35"><a xlink:href="main_8c.html" target="_top" xlink:title=" ">
<polygon fill="none" stroke="black" points="2965,-62 2965,-81 3032,-81 3032,-62 2965,-62"/>
<text text-anchor="middle" x="2998.5" y="-69" font-family="Helvetica,sans-Serif" font-size="10.00">src/main.c</text>
</a>
</g>
</g>
<!-- Node34&#45;&gt;Node35 -->
<g id="edge34" class="edge">
<title>Node34&#45;&gt;Node35</title>
<path fill="none" stroke="midnightblue" d="M2301.56,-126.13C2306.2,-124.9 2310.94,-123.8 2315.5,-123 2596.49,-73.39 2676.53,-142.08 2956.5,-87 2963.46,-85.63 2970.85,-83.37 2977.45,-81.04"/>
<polygon fill="midnightblue" stroke="midnightblue" points="2300.29,-122.86 2291.65,-128.99 2302.23,-129.58 2300.29,-122.86"/>
</g>
</g>
</svg>
        <g id="navigator" transform="translate(0 0)" fill="#404254">
                <rect fill="#f2f5e9" fill-opacity="0.5" stroke="#606060" stroke-width=".5" x="0" y="0" width="60" height="60"/>
                <use id="zoomplus" xlink:href="#zoomPlus" x="17" y="9" onmousedown="handleZoom(evt,'in')"/>
                <use id="zoomminus" xlink:href="#zoomMin" x="42" y="9" onmousedown="handleZoom(evt,'out')"/>
                <use id="reset" xlink:href="#resetDef" x="30" y="36" onmousedown="handleReset()"/>
                <g id="arrowUp" xlink:href="#dirArrow" transform="translate(30 24)" onmousedown="handlePan(0,-1)">
                  <use xlink:href="#rim" fill="#404040">
                        <set attributeName="fill" to="#808080" begin="arrowUp.mouseover" end="arrowUp.mouseout"/>
                  </use>
                  <path fill="none" stroke="white" stroke-width="1.5" d="M0,-3.0v7 M-2.5,-0.5L0,-3.0L2.5,-0.5"/>
                </g>
                <g id="arrowRight" xlink:href="#dirArrow" transform="rotate(90) translate(36 -43)" onmousedown="handlePan(1,0)">
                  <use xlink:href="#rim" fill="#404040">
                        <set attributeName="fill" to="#808080" begin="arrowRight.mouseover" end="arrowRight.mouseout"/>
                  </use>
                  <path fill="none" stroke="white" stroke-width="1.5" d="M0,-3.0v7 M-2.5,-0.5L0,-3.0L2.5,-0.5"/>
                </g>
                <g id="arrowDown" xlink:href="#dirArrow" transform="rotate(180) translate(-30 -48)" onmousedown="handlePan(0,1)">
                  <use xlink:href="#rim" fill="#404040">
                        <set attributeName="fill" to="#808080" begin="arrowDown.mouseover" end="arrowDown.mouseout"/>
                  </use>
                  <path fill="none" stroke="white" stroke-width="1.5" d="M0,-3.0v7 M-2.5,-0.5L0,-3.0L2.5,-0.5"/>
                </g>
                <g id="arrowLeft" xlink:href="#dirArrow" transform="rotate(270) translate(-36 17)" onmousedown="handlePan(-1,0)">
                  <use xlink:href="#rim" fill="#404040">
                        <set attributeName="fill" to="#808080" begin="arrowLeft.mouseover" end="arrowLeft.mouseout"/>
                  </use>
                  <path fill="none" stroke="white" stroke-width="1.5" d="M0,-3.0v7 M-2.5,-0.5L0,-3.0L2.5,-0.5"/>
                </g>
        </g>
        <svg viewBox="0 0 15 15" width="100%" height="30px" preserveAspectRatio="xMaxYMin meet">
         <g id="arrow_out" transform="scale(0.3 0.3)">
          <a xlink:href="error__mlx_8h__dep__incl_org.svg" target="_base">
           <rect id="button" ry="5" rx="5" y="6" x="6" height="38" width="38"
                fill="#f2f5e9" fill-opacity="0.5" stroke="#606060" stroke-width="1.0"/>
           <path id="arrow"
             d="M 11.500037,31.436501 C 11.940474,20.09759 22.043105,11.32322 32.158766,21.979434 L 37.068811,17.246167 C 37.068811,17.246167 37.088388,32 37.088388,32 L 22.160133,31.978069 C 22.160133,31.978069 26.997745,27.140456 26.997745,27.140456 C 18.528582,18.264221 13.291696,25.230495 11.500037,31.436501 z"
             style="fill:#404040;"/>
          </a>
         </g>
        </svg>
</svg>
