<?xml version="1.0" encoding="UTF-8" standalone="no"?>
<!DOCTYPE svg PUBLIC "-//W3C//DTD SVG 1.1//EN"
 "http://www.w3.org/Graphics/SVG/1.1/DTD/svg11.dtd">
<!-- Generated by graphviz version 2.43.0 (0)
 -->
<!-- Title: ft_strtod Pages: 1 -->
<svg width="1045pt" height="826pt"
 viewBox="0.00 0.00 1045.00 826.00" xmlns="http://www.w3.org/2000/svg" xmlns:xlink="http://www.w3.org/1999/xlink">
<g id="graph0" class="graph" transform="scale(1 1) rotate(0) translate(4 822)">
<title>ft_strtod</title>
<!-- Node1 -->
<g id="node1" class="node">
<title>Node1</title>
<g id="a_node1"><a xlink:title="Converts a String to a double.">
<polygon fill="#bfbfbf" stroke="black" points="980,-437.5 980,-456.5 1037,-456.5 1037,-437.5 980,-437.5"/>
<text text-anchor="middle" x="1008.5" y="-444.5" font-family="Helvetica,sans-Serif" font-size="10.00">ft_strtod</text>
</a>
</g>
</g>
<!-- Node2 -->
<g id="node2" class="node">
<title>Node2</title>
<g id="a_node2"><a xlink:href="check_8h.html#a542b81308cf530edfa0a3bfdcefb6002" target="_top" xlink:title="Tries to convert str to float and checks range.">
<polygon fill="none" stroke="black" points="839,-589.5 839,-608.5 927,-608.5 927,-589.5 839,-589.5"/>
<text text-anchor="middle" x="883" y="-596.5" font-family="Helvetica,sans-Serif" font-size="10.00">ft_isvalid_float</text>
</a>
</g>
</g>
<!-- Node1&#45;&gt;Node2 -->
<g id="edge1" class="edge">
<title>Node1&#45;&gt;Node2</title>
<path fill="none" stroke="midnightblue" d="M993.19,-464.61C966.95,-496.9 911.99,-564.55 891.72,-589.5"/>
<polygon fill="midnightblue" stroke="midnightblue" points="996.18,-466.48 999.77,-456.51 990.75,-462.06 996.18,-466.48"/>
</g>
<!-- Node19 -->
<g id="node19" class="node">
<title>Node19</title>
<g id="a_node19"><a xlink:href="check_8h.html#a806133750c2b871ad705916e6d997f31" target="_top" xlink:title="Checks three floats, separated by &#39;,&#39; and calcs checksum.">
<polygon fill="none" stroke="black" points="829.5,-722.5 829.5,-741.5 936.5,-741.5 936.5,-722.5 829.5,-722.5"/>
<text text-anchor="middle" x="883" y="-729.5" font-family="Helvetica,sans-Serif" font-size="10.00">ft_isvalid_unit_vec</text>
</a>
</g>
</g>
<!-- Node1&#45;&gt;Node19 -->
<g id="edge29" class="edge">
<title>Node1&#45;&gt;Node19</title>
<path fill="none" stroke="midnightblue" d="M1001.1,-466.73C990.45,-498.91 967.91,-564.46 944,-618 926.22,-657.82 900.71,-703.12 889.57,-722.45"/>
<polygon fill="midnightblue" stroke="midnightblue" points="1004.56,-467.41 1004.35,-456.82 997.91,-465.23 1004.56,-467.41"/>
</g>
<!-- Node21 -->
<g id="node21" class="node">
<title>Node21</title>
<g id="a_node21"><a xlink:href="parse_8h.html#a2bb654728a666a68ad6b6627cd27e918" target="_top" xlink:title="Parses values of a rgb colour block.">
<polygon fill="none" stroke="black" points="822,-190.5 822,-209.5 944,-209.5 944,-190.5 822,-190.5"/>
<text text-anchor="middle" x="883" y="-197.5" font-family="Helvetica,sans-Serif" font-size="10.00">ft_parse_colour_block</text>
</a>
</g>
</g>
<!-- Node1&#45;&gt;Node21 -->
<g id="edge34" class="edge">
<title>Node1&#45;&gt;Node21</title>
<path fill="none" stroke="midnightblue" d="M1002.45,-427.62C993.49,-394.98 972.99,-327.59 944,-276 929.34,-249.91 906.06,-223.36 893.23,-209.6"/>
<polygon fill="midnightblue" stroke="midnightblue" points="999.07,-428.52 1005.04,-437.28 1005.83,-426.71 999.07,-428.52"/>
</g>
<!-- Node35 -->
<g id="node35" class="node">
<title>Node35</title>
<g id="a_node35"><a xlink:href="parse_8h.html#a4df2d6a5cd30a4f3ca3a1283c7afaafa" target="_top" xlink:title="Parse a single float.">
<polygon fill="none" stroke="black" points="841.5,-285.5 841.5,-304.5 924.5,-304.5 924.5,-285.5 841.5,-285.5"/>
<text text-anchor="middle" x="883" y="-292.5" font-family="Helvetica,sans-Serif" font-size="10.00">ft_parse_float</text>
</a>
</g>
</g>
<!-- Node1&#45;&gt;Node35 -->
<g id="edge59" class="edge">
<title>Node1&#45;&gt;Node35</title>
<path fill="none" stroke="midnightblue" d="M993.19,-429.39C966.95,-397.1 911.99,-329.45 891.72,-304.5"/>
<polygon fill="midnightblue" stroke="midnightblue" points="990.75,-431.94 999.77,-437.49 996.18,-427.52 990.75,-431.94"/>
</g>
<!-- Node3 -->
<g id="node3" class="node">
<title>Node3</title>
<g id="a_node3"><a xlink:href="check_8h.html#a3a4c3e635c4a6af8ef53d70ea5e7cb44" target="_top" xlink:title="Checks if ambient light line is correct.">
<polygon fill="none" stroke="black" points="666.5,-608.5 666.5,-627.5 769.5,-627.5 769.5,-608.5 666.5,-608.5"/>
<text text-anchor="middle" x="718" y="-615.5" font-family="Helvetica,sans-Serif" font-size="10.00">ft_check_ambient</text>
</a>
</g>
</g>
<!-- Node2&#45;&gt;Node3 -->
<g id="edge2" class="edge">
<title>Node2&#45;&gt;Node3</title>
<path fill="none" stroke="midnightblue" d="M828.77,-605.21C809.78,-607.42 788.46,-609.9 769.69,-612.09"/>
<polygon fill="midnightblue" stroke="midnightblue" points="829.22,-608.68 838.75,-604.04 828.41,-601.72 829.22,-608.68"/>
</g>
<!-- Node11 -->
<g id="node11" class="node">
<title>Node11</title>
<g id="a_node11"><a xlink:href="check_8h.html#ac18c6a2c8fb4ffdeac62341cc67c9675" target="_top" xlink:title="Checks if camera line is correct.">
<polygon fill="none" stroke="black" points="668.5,-684.5 668.5,-703.5 767.5,-703.5 767.5,-684.5 668.5,-684.5"/>
<text text-anchor="middle" x="718" y="-691.5" font-family="Helvetica,sans-Serif" font-size="10.00">ft_check_camera</text>
</a>
</g>
</g>
<!-- Node2&#45;&gt;Node11 -->
<g id="edge11" class="edge">
<title>Node2&#45;&gt;Node11</title>
<path fill="none" stroke="midnightblue" d="M865.13,-615.82C847.02,-632.99 816.69,-659.3 786,-675 778.57,-678.8 770.28,-681.93 762.13,-684.48"/>
<polygon fill="midnightblue" stroke="midnightblue" points="867.8,-618.11 872.55,-608.64 862.93,-613.08 867.8,-618.11"/>
</g>
<!-- Node12 -->
<g id="node12" class="node">
<title>Node12</title>
<g id="a_node12"><a xlink:href="check__bonus_8h.html#a4044338fccd6b0e9b3e61c2e0c69db12" target="_top" xlink:title="Checks if cone line is correct.">
<polygon fill="none" stroke="black" points="658,-532.5 658,-551.5 778,-551.5 778,-532.5 658,-532.5"/>
<text text-anchor="middle" x="718" y="-539.5" font-family="Helvetica,sans-Serif" font-size="10.00">ft_check_cone_bonus</text>
</a>
</g>
</g>
<!-- Node2&#45;&gt;Node12 -->
<g id="edge14" class="edge">
<title>Node2&#45;&gt;Node12</title>
<path fill="none" stroke="midnightblue" d="M850.3,-585.52C831.73,-577.86 807.73,-568.36 786,-561 776.15,-557.66 765.36,-554.43 755.37,-551.59"/>
<polygon fill="midnightblue" stroke="midnightblue" points="849.16,-588.84 859.74,-589.45 851.85,-582.38 849.16,-588.84"/>
</g>
<!-- Node13 -->
<g id="node13" class="node">
<title>Node13</title>
<g id="a_node13"><a xlink:href="check_8h.html#ae60d55778d26a79bd9d60676862afcac" target="_top" xlink:title="Checks if cylinder line is correct.">
<polygon fill="none" stroke="black" points="667.5,-760.5 667.5,-779.5 768.5,-779.5 768.5,-760.5 667.5,-760.5"/>
<text text-anchor="middle" x="718" y="-767.5" font-family="Helvetica,sans-Serif" font-size="10.00">ft_check_cylinder</text>
</a>
</g>
</g>
<!-- Node2&#45;&gt;Node13 -->
<g id="edge16" class="edge">
<title>Node2&#45;&gt;Node13</title>
<path fill="none" stroke="midnightblue" d="M872.31,-617.85C853.18,-654.37 810.34,-732.81 786,-751 780.77,-754.91 774.77,-758.01 768.55,-760.48"/>
<polygon fill="midnightblue" stroke="midnightblue" points="875.53,-619.23 877.04,-608.74 869.32,-616 875.53,-619.23"/>
</g>
<!-- Node14 -->
<g id="node14" class="node">
<title>Node14</title>
<g id="a_node14"><a xlink:href="check__bonus_8h.html#a4ec77f79add9f7abed23e5b3dd45e94a" target="_top" xlink:title="Checks if cylinder line is correct.">
<polygon fill="none" stroke="black" points="650,-494.5 650,-513.5 786,-513.5 786,-494.5 650,-494.5"/>
<text text-anchor="middle" x="718" y="-501.5" font-family="Helvetica,sans-Serif" font-size="10.00">ft_check_cylinder_bonus</text>
</a>
</g>
</g>
<!-- Node2&#45;&gt;Node14 -->
<g id="edge18" class="edge">
<title>Node2&#45;&gt;Node14</title>
<path fill="none" stroke="midnightblue" d="M865.13,-582.18C847.02,-565.01 816.69,-538.7 786,-523 778.57,-519.2 770.28,-516.07 762.13,-513.52"/>
<polygon fill="midnightblue" stroke="midnightblue" points="862.93,-584.92 872.55,-589.36 867.8,-579.89 862.93,-584.92"/>
</g>
<!-- Node15 -->
<g id="node15" class="node">
<title>Node15</title>
<g id="a_node15"><a xlink:href="check_8h.html#a13cb8b89e2be82f5148f2dba42b550e8" target="_top" xlink:title="Checks if light line is correct.">
<polygon fill="none" stroke="black" points="676,-646.5 676,-665.5 760,-665.5 760,-646.5 676,-646.5"/>
<text text-anchor="middle" x="718" y="-653.5" font-family="Helvetica,sans-Serif" font-size="10.00">ft_check_light</text>
</a>
</g>
</g>
<!-- Node2&#45;&gt;Node15 -->
<g id="edge20" class="edge">
<title>Node2&#45;&gt;Node15</title>
<path fill="none" stroke="midnightblue" d="M850.3,-612.48C831.73,-620.14 807.73,-629.64 786,-637 776.15,-640.34 765.36,-643.57 755.37,-646.41"/>
<polygon fill="midnightblue" stroke="midnightblue" points="851.85,-615.62 859.74,-608.55 849.16,-609.16 851.85,-615.62"/>
</g>
<!-- Node16 -->
<g id="node16" class="node">
<title>Node16</title>
<g id="a_node16"><a xlink:href="check__bonus_8h.html#a553c09de200f4ad19c33ab26d11adc29" target="_top" xlink:title="Checks if plane line is correct.">
<polygon fill="none" stroke="black" points="656,-456.5 656,-475.5 780,-475.5 780,-456.5 656,-456.5"/>
<text text-anchor="middle" x="718" y="-463.5" font-family="Helvetica,sans-Serif" font-size="10.00">ft_check_plane_bonus</text>
</a>
</g>
</g>
<!-- Node2&#45;&gt;Node16 -->
<g id="edge23" class="edge">
<title>Node2&#45;&gt;Node16</title>
<path fill="none" stroke="midnightblue" d="M871.53,-580.76C856.07,-555.46 824.74,-510.03 786,-485 780.01,-481.13 773.22,-478.03 766.32,-475.56"/>
<polygon fill="midnightblue" stroke="midnightblue" points="868.54,-582.58 876.66,-589.38 874.55,-579 868.54,-582.58"/>
</g>
<!-- Node17 -->
<g id="node17" class="node">
<title>Node17</title>
<g id="a_node17"><a xlink:href="check_8h.html#a2ac6387003baa37c6f8037edf453c8d0" target="_top" xlink:title="Checks if sphere line is correct.">
<polygon fill="none" stroke="black" points="670.5,-722.5 670.5,-741.5 765.5,-741.5 765.5,-722.5 670.5,-722.5"/>
<text text-anchor="middle" x="718" y="-729.5" font-family="Helvetica,sans-Serif" font-size="10.00">ft_check_sphere</text>
</a>
</g>
</g>
<!-- Node2&#45;&gt;Node17 -->
<g id="edge25" class="edge">
<title>Node2&#45;&gt;Node17</title>
<path fill="none" stroke="midnightblue" d="M871.53,-617.24C856.07,-642.54 824.74,-687.97 786,-713 779.81,-717 772.76,-720.18 765.62,-722.69"/>
<polygon fill="midnightblue" stroke="midnightblue" points="874.55,-619 876.66,-608.62 868.54,-615.42 874.55,-619"/>
</g>
<!-- Node18 -->
<g id="node18" class="node">
<title>Node18</title>
<g id="a_node18"><a xlink:href="check__bonus_8h.html#a649377d201faaa526ad3c355da745325" target="_top" xlink:title="Checks if sphere line is correct.">
<polygon fill="none" stroke="black" points="653,-570.5 653,-589.5 783,-589.5 783,-570.5 653,-570.5"/>
<text text-anchor="middle" x="718" y="-577.5" font-family="Helvetica,sans-Serif" font-size="10.00">ft_check_sphere_bonus</text>
</a>
</g>
</g>
<!-- Node2&#45;&gt;Node18 -->
<g id="edge27" class="edge">
<title>Node2&#45;&gt;Node18</title>
<path fill="none" stroke="midnightblue" d="M828.44,-592.76C813.93,-591.06 798.06,-589.22 783.03,-587.46"/>
<polygon fill="midnightblue" stroke="midnightblue" points="828.41,-596.28 838.75,-593.96 829.22,-589.32 828.41,-596.28"/>
</g>
<!-- Node4 -->
<g id="node4" class="node">
<title>Node4</title>
<g id="a_node4"><a xlink:href="check_8h.html#a9d550a03e395942fd0bb735c1dda47d9" target="_top" xlink:title="Dispatch function for different line types.">
<polygon fill="none" stroke="black" points="498.5,-684.5 498.5,-703.5 605.5,-703.5 605.5,-684.5 498.5,-684.5"/>
<text text-anchor="middle" x="552" y="-691.5" font-family="Helvetica,sans-Serif" font-size="10.00">ft_check_line_type</text>
</a>
</g>
</g>
<!-- Node3&#45;&gt;Node4 -->
<g id="edge3" class="edge">
<title>Node3&#45;&gt;Node4</title>
<path fill="none" stroke="midnightblue" d="M667.23,-630.57C661.34,-632.51 655.48,-634.66 650,-637 618.75,-650.35 585.17,-671.89 566.86,-684.31"/>
<polygon fill="midnightblue" stroke="midnightblue" points="668.58,-633.82 677.09,-627.51 666.51,-627.13 668.58,-633.82"/>
</g>
<!-- Node9 -->
<g id="node9" class="node">
<title>Node9</title>
<g id="a_node9"><a xlink:href="check__bonus_8h.html#ae33774d34021cd6fec6863eff3e8e3b0" target="_top" xlink:title="Dispatch function for different line types.">
<polygon fill="none" stroke="black" points="498.5,-565 498.5,-595 605.5,-595 605.5,-565 498.5,-565"/>
<text text-anchor="start" x="506.5" y="-583" font-family="Helvetica,sans-Serif" font-size="10.00">ft_check_line_type</text>
<text text-anchor="middle" x="552" y="-572" font-family="Helvetica,sans-Serif" font-size="10.00">_bonus</text>
</a>
</g>
</g>
<!-- Node3&#45;&gt;Node9 -->
<g id="edge8" class="edge">
<title>Node3&#45;&gt;Node9</title>
<path fill="none" stroke="midnightblue" d="M665.86,-606.15C646.68,-601.71 624.87,-596.65 605.57,-592.18"/>
<polygon fill="midnightblue" stroke="midnightblue" points="665.08,-609.56 675.62,-608.41 666.66,-602.74 665.08,-609.56"/>
</g>
<!-- Node5 -->
<g id="node5" class="node">
<title>Node5</title>
<g id="a_node5"><a xlink:href="check_8h.html#afdfc858822cc349d9aa87b6aa28a6dd8" target="_top" xlink:title="Check array of imported lines.">
<polygon fill="none" stroke="black" points="351,-646.5 351,-665.5 437,-665.5 437,-646.5 351,-646.5"/>
<text text-anchor="middle" x="394" y="-653.5" font-family="Helvetica,sans-Serif" font-size="10.00">ft_check_lines</text>
</a>
</g>
</g>
<!-- Node4&#45;&gt;Node5 -->
<g id="edge4" class="edge">
<title>Node4&#45;&gt;Node5</title>
<path fill="none" stroke="midnightblue" d="M501.87,-682.03C480.01,-676.71 454.62,-670.52 434.08,-665.52"/>
<polygon fill="midnightblue" stroke="midnightblue" points="501.09,-685.44 511.63,-684.41 502.75,-678.64 501.09,-685.44"/>
</g>
<!-- Node6 -->
<g id="node6" class="node">
<title>Node6</title>
<g id="a_node6"><a xlink:href="parse__bonus_8h.html#a1851ac042c8e1f69fe345a139f0eadbd" target="_top" xlink:title="Chooses the correct checker function depending on bool is_bonus.">
<polygon fill="none" stroke="black" points="189,-570.5 189,-589.5 298,-589.5 298,-570.5 189,-570.5"/>
<text text-anchor="middle" x="243.5" y="-577.5" font-family="Helvetica,sans-Serif" font-size="10.00">ft_choose_check_ft</text>
</a>
</g>
</g>
<!-- Node5&#45;&gt;Node6 -->
<g id="edge5" class="edge">
<title>Node5&#45;&gt;Node6</title>
<path fill="none" stroke="midnightblue" d="M365.14,-641.74C335.32,-626.48 288.85,-602.7 263.15,-589.55"/>
<polygon fill="midnightblue" stroke="midnightblue" points="363.7,-644.93 374.19,-646.37 366.89,-638.7 363.7,-644.93"/>
</g>
<!-- Node7 -->
<g id="node7" class="node">
<title>Node7</title>
<g id="a_node7"><a xlink:href="parse_8h.html#a158705dee8e9b7ce48184c8e2fa3c169" target="_top" xlink:title="Imports, checks, and parses the provided file.">
<polygon fill="none" stroke="black" points="77,-266.5 77,-285.5 153,-285.5 153,-266.5 77,-266.5"/>
<text text-anchor="middle" x="115" y="-273.5" font-family="Helvetica,sans-Serif" font-size="10.00">ft_parse_file</text>
</a>
</g>
</g>
<!-- Node6&#45;&gt;Node7 -->
<g id="edge6" class="edge">
<title>Node6&#45;&gt;Node7</title>
<path fill="none" stroke="midnightblue" d="M234.47,-560.71C210.14,-502.24 137.78,-328.35 119.99,-285.58"/>
<polygon fill="midnightblue" stroke="midnightblue" points="231.36,-562.34 238.43,-570.23 237.82,-559.65 231.36,-562.34"/>
</g>
<!-- Node8 -->
<g id="node8" class="node">
<title>Node8</title>
<g id="a_node8"><a xlink:href="main_8c.html#a3c04138a5bfe5d72780bb7e82a18e627" target="_top" xlink:title=" ">
<polygon fill="none" stroke="black" points="0,-266.5 0,-285.5 41,-285.5 41,-266.5 0,-266.5"/>
<text text-anchor="middle" x="20.5" y="-273.5" font-family="Helvetica,sans-Serif" font-size="10.00">main</text>
</a>
</g>
</g>
<!-- Node7&#45;&gt;Node8 -->
<g id="edge7" class="edge">
<title>Node7&#45;&gt;Node8</title>
<path fill="none" stroke="midnightblue" d="M66.72,-276C57.65,-276 48.64,-276 41.07,-276"/>
<polygon fill="midnightblue" stroke="midnightblue" points="66.91,-279.5 76.91,-276 66.91,-272.5 66.91,-279.5"/>
</g>
<!-- Node10 -->
<g id="node10" class="node">
<title>Node10</title>
<g id="a_node10"><a xlink:href="check__bonus_8h.html#af3ef225f9cf1a304afc28235a98ac241" target="_top" xlink:title="Check array of imported lines.">
<polygon fill="none" stroke="black" points="334,-570.5 334,-589.5 454,-589.5 454,-570.5 334,-570.5"/>
<text text-anchor="middle" x="394" y="-577.5" font-family="Helvetica,sans-Serif" font-size="10.00">ft_check_lines_bonus</text>
</a>
</g>
</g>
<!-- Node9&#45;&gt;Node10 -->
<g id="edge9" class="edge">
<title>Node9&#45;&gt;Node10</title>
<path fill="none" stroke="midnightblue" d="M488.07,-580C476.88,-580 465.27,-580 454.2,-580"/>
<polygon fill="midnightblue" stroke="midnightblue" points="488.19,-583.5 498.19,-580 488.19,-576.5 488.19,-583.5"/>
</g>
<!-- Node10&#45;&gt;Node6 -->
<g id="edge10" class="edge">
<title>Node10&#45;&gt;Node6</title>
<path fill="none" stroke="midnightblue" d="M323.82,-580C315.19,-580 306.47,-580 298.12,-580"/>
<polygon fill="midnightblue" stroke="midnightblue" points="323.88,-583.5 333.88,-580 323.88,-576.5 323.88,-583.5"/>
</g>
<!-- Node11&#45;&gt;Node4 -->
<g id="edge12" class="edge">
<title>Node11&#45;&gt;Node4</title>
<path fill="none" stroke="midnightblue" d="M657.82,-694C640.74,-694 622.22,-694 605.58,-694"/>
<polygon fill="midnightblue" stroke="midnightblue" points="658.24,-697.5 668.24,-694 658.24,-690.5 658.24,-697.5"/>
</g>
<!-- Node11&#45;&gt;Node9 -->
<g id="edge13" class="edge">
<title>Node11&#45;&gt;Node9</title>
<path fill="none" stroke="midnightblue" d="M661.75,-680.78C657.67,-679.07 653.71,-677.15 650,-675 613.71,-653.95 580.99,-616.24 564.42,-595.22"/>
<polygon fill="midnightblue" stroke="midnightblue" points="660.82,-684.17 671.41,-684.4 663.28,-677.61 660.82,-684.17"/>
</g>
<!-- Node12&#45;&gt;Node9 -->
<g id="edge15" class="edge">
<title>Node12&#45;&gt;Node9</title>
<path fill="none" stroke="midnightblue" d="M665.86,-553.85C646.68,-558.29 624.87,-563.35 605.57,-567.82"/>
<polygon fill="midnightblue" stroke="midnightblue" points="666.66,-557.26 675.62,-551.59 665.08,-550.44 666.66,-557.26"/>
</g>
<!-- Node13&#45;&gt;Node4 -->
<g id="edge17" class="edge">
<title>Node13&#45;&gt;Node4</title>
<path fill="none" stroke="midnightblue" d="M667.23,-757.43C661.34,-755.49 655.48,-753.34 650,-751 618.75,-737.65 585.17,-716.11 566.86,-703.69"/>
<polygon fill="midnightblue" stroke="midnightblue" points="666.51,-760.87 677.09,-760.49 668.58,-754.18 666.51,-760.87"/>
</g>
<!-- Node14&#45;&gt;Node9 -->
<g id="edge19" class="edge">
<title>Node14&#45;&gt;Node9</title>
<path fill="none" stroke="midnightblue" d="M667.23,-516.57C661.34,-518.51 655.48,-520.66 650,-523 622.88,-534.59 594,-552.34 574.88,-564.95"/>
<polygon fill="midnightblue" stroke="midnightblue" points="668.58,-519.82 677.09,-513.51 666.51,-513.13 668.58,-519.82"/>
</g>
<!-- Node15&#45;&gt;Node4 -->
<g id="edge21" class="edge">
<title>Node15&#45;&gt;Node4</title>
<path fill="none" stroke="midnightblue" d="M665.66,-667.9C642.61,-673.24 615.78,-679.45 594.09,-684.48"/>
<polygon fill="midnightblue" stroke="midnightblue" points="666.66,-671.26 675.62,-665.59 665.08,-664.44 666.66,-671.26"/>
</g>
<!-- Node15&#45;&gt;Node9 -->
<g id="edge22" class="edge">
<title>Node15&#45;&gt;Node9</title>
<path fill="none" stroke="midnightblue" d="M667.23,-643.43C661.34,-641.49 655.48,-639.34 650,-637 622.88,-625.41 594,-607.66 574.88,-595.05"/>
<polygon fill="midnightblue" stroke="midnightblue" points="666.51,-646.87 677.09,-646.49 668.58,-640.18 666.51,-646.87"/>
</g>
<!-- Node16&#45;&gt;Node9 -->
<g id="edge24" class="edge">
<title>Node16&#45;&gt;Node9</title>
<path fill="none" stroke="midnightblue" d="M661.75,-479.22C657.67,-480.93 653.71,-482.85 650,-485 613.71,-506.05 580.99,-543.76 564.42,-564.78"/>
<polygon fill="midnightblue" stroke="midnightblue" points="663.28,-482.39 671.41,-475.6 660.82,-475.83 663.28,-482.39"/>
</g>
<!-- Node17&#45;&gt;Node4 -->
<g id="edge26" class="edge">
<title>Node17&#45;&gt;Node4</title>
<path fill="none" stroke="midnightblue" d="M665.66,-720.1C642.61,-714.76 615.78,-708.55 594.09,-703.52"/>
<polygon fill="midnightblue" stroke="midnightblue" points="665.08,-723.56 675.62,-722.41 666.66,-716.74 665.08,-723.56"/>
</g>
<!-- Node18&#45;&gt;Node9 -->
<g id="edge28" class="edge">
<title>Node18&#45;&gt;Node9</title>
<path fill="none" stroke="midnightblue" d="M642.3,-580C629.89,-580 617.25,-580 605.53,-580"/>
<polygon fill="midnightblue" stroke="midnightblue" points="642.65,-583.5 652.65,-580 642.65,-576.5 642.65,-583.5"/>
</g>
<!-- Node19&#45;&gt;Node11 -->
<g id="edge30" class="edge">
<title>Node19&#45;&gt;Node11</title>
<path fill="none" stroke="midnightblue" d="M830.97,-720.1C808.06,-714.76 781.4,-708.55 759.84,-703.52"/>
<polygon fill="midnightblue" stroke="midnightblue" points="830.33,-723.55 840.87,-722.41 831.92,-716.73 830.33,-723.55"/>
</g>
<!-- Node19&#45;&gt;Node13 -->
<g id="edge31" class="edge">
<title>Node19&#45;&gt;Node13</title>
<path fill="none" stroke="midnightblue" d="M830.97,-743.9C808.06,-749.24 781.4,-755.45 759.84,-760.48"/>
<polygon fill="midnightblue" stroke="midnightblue" points="831.92,-747.27 840.87,-741.59 830.33,-740.45 831.92,-747.27"/>
</g>
<!-- Node20 -->
<g id="node20" class="node">
<title>Node20</title>
<g id="a_node20"><a xlink:href="check_8h.html#a1e36aec7efe086076efcaf9991f28abe" target="_top" xlink:title="Checks if plane line is correct.">
<polygon fill="none" stroke="black" points="673.5,-798.5 673.5,-817.5 762.5,-817.5 762.5,-798.5 673.5,-798.5"/>
<text text-anchor="middle" x="718" y="-805.5" font-family="Helvetica,sans-Serif" font-size="10.00">ft_check_plane</text>
</a>
</g>
</g>
<!-- Node19&#45;&gt;Node20 -->
<g id="edge32" class="edge">
<title>Node19&#45;&gt;Node20</title>
<path fill="none" stroke="midnightblue" d="M859.81,-747.44C840.9,-760.03 812.63,-777.55 786,-789 777.56,-792.63 768.22,-795.78 759.27,-798.41"/>
<polygon fill="midnightblue" stroke="midnightblue" points="861.98,-750.2 868.3,-741.7 858.05,-744.4 861.98,-750.2"/>
</g>
<!-- Node20&#45;&gt;Node4 -->
<g id="edge33" class="edge">
<title>Node20&#45;&gt;Node4</title>
<path fill="none" stroke="midnightblue" d="M663.46,-795.48C658.78,-793.6 654.22,-791.45 650,-789 610.24,-765.94 574.77,-722.89 560.13,-703.68"/>
<polygon fill="midnightblue" stroke="midnightblue" points="662.58,-798.89 673.18,-798.98 664.96,-792.3 662.58,-798.89"/>
</g>
<!-- Node22 -->
<g id="node22" class="node">
<title>Node22</title>
<g id="a_node22"><a xlink:href="parse_8h.html#a43353d6bde35357648843c359e4d00a5" target="_top" xlink:title="Parse ambient light line.">
<polygon fill="none" stroke="black" points="501.5,-228.5 501.5,-247.5 602.5,-247.5 602.5,-228.5 501.5,-228.5"/>
<text text-anchor="middle" x="552" y="-235.5" font-family="Helvetica,sans-Serif" font-size="10.00">ft_parse_ambient</text>
</a>
</g>
</g>
<!-- Node21&#45;&gt;Node22 -->
<g id="edge35" class="edge">
<title>Node21&#45;&gt;Node22</title>
<path fill="none" stroke="midnightblue" d="M862.63,-184.2C844.2,-170.27 815.05,-150.97 786,-143 727.71,-127 701.08,-110.68 650,-143 618.42,-162.99 642.22,-194.49 614,-219 609.56,-222.86 604.35,-225.93 598.87,-228.38"/>
<polygon fill="midnightblue" stroke="midnightblue" points="860.49,-186.98 870.54,-190.35 864.79,-181.45 860.49,-186.98"/>
</g>
<!-- Node25 -->
<g id="node25" class="node">
<title>Node25</title>
<g id="a_node25"><a xlink:href="parse__bonus_8h.html#a0ee220aca489e16d423c754b9d88e2dd" target="_top" xlink:title="Parse cone line.">
<polygon fill="none" stroke="black" points="658.5,-342.5 658.5,-361.5 777.5,-361.5 777.5,-342.5 658.5,-342.5"/>
<text text-anchor="middle" x="718" y="-349.5" font-family="Helvetica,sans-Serif" font-size="10.00">ft_parse_cone_bonus</text>
</a>
</g>
</g>
<!-- Node21&#45;&gt;Node25 -->
<g id="edge40" class="edge">
<title>Node21&#45;&gt;Node25</title>
<path fill="none" stroke="midnightblue" d="M867.27,-217.57C854.77,-232.72 836.61,-255.35 822,-276 804.69,-300.46 810,-315.06 786,-333 780.77,-336.91 774.77,-340.01 768.55,-342.48"/>
<polygon fill="midnightblue" stroke="midnightblue" points="870.2,-219.52 873.9,-209.59 864.82,-215.04 870.2,-219.52"/>
</g>
<!-- Node27 -->
<g id="node27" class="node">
<title>Node27</title>
<g id="a_node27"><a xlink:href="parse_8h.html#aa8d46dc12737db49e568b734cdbc614a" target="_top" xlink:title="Parse cylinder line.">
<polygon fill="none" stroke="black" points="668,-152.5 668,-171.5 768,-171.5 768,-152.5 668,-152.5"/>
<text text-anchor="middle" x="718" y="-159.5" font-family="Helvetica,sans-Serif" font-size="10.00">ft_parse_cylinder</text>
</a>
</g>
</g>
<!-- Node21&#45;&gt;Node27 -->
<g id="edge43" class="edge">
<title>Node21&#45;&gt;Node27</title>
<path fill="none" stroke="midnightblue" d="M830.97,-188.1C808.06,-182.76 781.4,-176.55 759.84,-171.52"/>
<polygon fill="midnightblue" stroke="midnightblue" points="830.33,-191.55 840.87,-190.41 831.92,-184.73 830.33,-191.55"/>
</g>
<!-- Node29 -->
<g id="node29" class="node">
<title>Node29</title>
<g id="a_node29"><a xlink:href="parse__bonus_8h.html#a30041bb98ced6caf1debb5468bfb6ad4" target="_top" xlink:title="Parse cylinder line.">
<polygon fill="none" stroke="black" points="651,-304.5 651,-323.5 785,-323.5 785,-304.5 651,-304.5"/>
<text text-anchor="middle" x="718" y="-311.5" font-family="Helvetica,sans-Serif" font-size="10.00">ft_parse_cylinder_bonus</text>
</a>
</g>
</g>
<!-- Node21&#45;&gt;Node29 -->
<g id="edge46" class="edge">
<title>Node21&#45;&gt;Node29</title>
<path fill="none" stroke="midnightblue" d="M868.85,-217.64C851.97,-239.03 820.71,-274.75 786,-295 779.42,-298.84 772.02,-301.94 764.61,-304.43"/>
<polygon fill="midnightblue" stroke="midnightblue" points="871.64,-219.74 874.97,-209.69 866.1,-215.47 871.64,-219.74"/>
</g>
<!-- Node30 -->
<g id="node30" class="node">
<title>Node30</title>
<g id="a_node30"><a xlink:href="parse_8h.html#a4aae05e7a38646951b318a2de0b24689" target="_top" xlink:title="Parse light line.">
<polygon fill="none" stroke="black" points="510.5,-190.5 510.5,-209.5 593.5,-209.5 593.5,-190.5 510.5,-190.5"/>
<text text-anchor="middle" x="552" y="-197.5" font-family="Helvetica,sans-Serif" font-size="10.00">ft_parse_light</text>
</a>
</g>
</g>
<!-- Node21&#45;&gt;Node30 -->
<g id="edge48" class="edge">
<title>Node21&#45;&gt;Node30</title>
<path fill="none" stroke="midnightblue" d="M874.8,-180.6C862.2,-149.87 832.95,-91.01 786,-67 732.19,-39.48 701.08,-34.68 650,-67 618.42,-86.99 636.04,-112.82 614,-143 600.15,-161.96 579.4,-179.75 566.03,-190.26"/>
<polygon fill="midnightblue" stroke="midnightblue" points="871.65,-182.17 878.56,-190.2 878.17,-179.61 871.65,-182.17"/>
</g>
<!-- Node31 -->
<g id="node31" class="node">
<title>Node31</title>
<g id="a_node31"><a xlink:href="parse_8h.html#a64877aac0d88b33e1bb87b3c9a3496dc" target="_top" xlink:title="Parse plane line.">
<polygon fill="none" stroke="black" points="674,-0.5 674,-19.5 762,-19.5 762,-0.5 674,-0.5"/>
<text text-anchor="middle" x="718" y="-7.5" font-family="Helvetica,sans-Serif" font-size="10.00">ft_parse_plane</text>
</a>
</g>
</g>
<!-- Node21&#45;&gt;Node31 -->
<g id="edge51" class="edge">
<title>Node21&#45;&gt;Node31</title>
<path fill="none" stroke="midnightblue" d="M875.74,-180.39C863.77,-145.95 834.44,-74.41 786,-34 778.5,-27.75 769.25,-23.07 760.05,-19.59"/>
<polygon fill="midnightblue" stroke="midnightblue" points="872.52,-181.81 879.02,-190.18 879.16,-179.59 872.52,-181.81"/>
</g>
<!-- Node32 -->
<g id="node32" class="node">
<title>Node32</title>
<g id="a_node32"><a xlink:href="parse__bonus_8h.html#a672a980c7d877d0d42971cd811541bd4" target="_top" xlink:title="Parse plane line.">
<polygon fill="none" stroke="black" points="657,-266.5 657,-285.5 779,-285.5 779,-266.5 657,-266.5"/>
<text text-anchor="middle" x="718" y="-273.5" font-family="Helvetica,sans-Serif" font-size="10.00">ft_parse_plane_bonus</text>
</a>
</g>
</g>
<!-- Node21&#45;&gt;Node32 -->
<g id="edge53" class="edge">
<title>Node21&#45;&gt;Node32</title>
<path fill="none" stroke="midnightblue" d="M859.81,-215.44C840.9,-228.03 812.63,-245.55 786,-257 777.56,-260.63 768.22,-263.78 759.27,-266.41"/>
<polygon fill="midnightblue" stroke="midnightblue" points="861.98,-218.2 868.3,-209.7 858.05,-212.4 861.98,-218.2"/>
</g>
<!-- Node33 -->
<g id="node33" class="node">
<title>Node33</title>
<g id="a_node33"><a xlink:href="parse_8h.html#aa1379d0b3d46c0fd44da3298e17866cc" target="_top" xlink:title="Parse sphere line.">
<polygon fill="none" stroke="black" points="671,-76.5 671,-95.5 765,-95.5 765,-76.5 671,-76.5"/>
<text text-anchor="middle" x="718" y="-83.5" font-family="Helvetica,sans-Serif" font-size="10.00">ft_parse_sphere</text>
</a>
</g>
</g>
<!-- Node21&#45;&gt;Node33 -->
<g id="edge55" class="edge">
<title>Node21&#45;&gt;Node33</title>
<path fill="none" stroke="midnightblue" d="M867.38,-182.5C849.86,-162.52 818.75,-130.01 786,-110 776.2,-104.01 764.67,-99.2 753.97,-95.51"/>
<polygon fill="midnightblue" stroke="midnightblue" points="864.84,-184.92 874.02,-190.23 870.15,-180.36 864.84,-184.92"/>
</g>
<!-- Node34 -->
<g id="node34" class="node">
<title>Node34</title>
<g id="a_node34"><a xlink:href="parse__bonus_8h.html#a756cf4a5c0b85e0c22b8fd64423850ec" target="_top" xlink:title="Parse sphere line.">
<polygon fill="none" stroke="black" points="654,-228.5 654,-247.5 782,-247.5 782,-228.5 654,-228.5"/>
<text text-anchor="middle" x="718" y="-235.5" font-family="Helvetica,sans-Serif" font-size="10.00">ft_parse_sphere_bonus</text>
</a>
</g>
</g>
<!-- Node21&#45;&gt;Node34 -->
<g id="edge57" class="edge">
<title>Node21&#45;&gt;Node34</title>
<path fill="none" stroke="midnightblue" d="M830.97,-211.9C808.06,-217.24 781.4,-223.45 759.84,-228.48"/>
<polygon fill="midnightblue" stroke="midnightblue" points="831.92,-215.27 840.87,-209.59 830.33,-208.45 831.92,-215.27"/>
</g>
<!-- Node23 -->
<g id="node23" class="node">
<title>Node23</title>
<g id="a_node23"><a xlink:href="parse_8h.html#aa3cdb9030a467c5959cfa6b6b2dc63d7" target="_top" xlink:title="Dispatcher for different parsing functions.">
<polygon fill="none" stroke="black" points="352,-228.5 352,-247.5 436,-247.5 436,-228.5 352,-228.5"/>
<text text-anchor="middle" x="394" y="-235.5" font-family="Helvetica,sans-Serif" font-size="10.00">ft_parse_lines</text>
</a>
</g>
</g>
<!-- Node22&#45;&gt;Node23 -->
<g id="edge36" class="edge">
<title>Node22&#45;&gt;Node23</title>
<path fill="none" stroke="midnightblue" d="M491.19,-238C472.83,-238 453.05,-238 436.23,-238"/>
<polygon fill="midnightblue" stroke="midnightblue" points="491.21,-241.5 501.21,-238 491.21,-234.5 491.21,-241.5"/>
</g>
<!-- Node24 -->
<g id="node24" class="node">
<title>Node24</title>
<g id="a_node24"><a xlink:href="parse__bonus_8h.html#add28570024618d943c18498637fc6bb7" target="_top" xlink:title="Dispatcher for different parsing functions.">
<polygon fill="none" stroke="black" points="334.5,-266.5 334.5,-285.5 453.5,-285.5 453.5,-266.5 334.5,-266.5"/>
<text text-anchor="middle" x="394" y="-273.5" font-family="Helvetica,sans-Serif" font-size="10.00">ft_parse_lines_bonus</text>
</a>
</g>
</g>
<!-- Node22&#45;&gt;Node24 -->
<g id="edge38" class="edge">
<title>Node22&#45;&gt;Node24</title>
<path fill="none" stroke="midnightblue" d="M501.87,-249.97C480.01,-255.29 454.62,-261.48 434.08,-266.48"/>
<polygon fill="midnightblue" stroke="midnightblue" points="502.75,-253.36 511.63,-247.59 501.09,-246.56 502.75,-253.36"/>
</g>
<!-- Node23&#45;&gt;Node7 -->
<g id="edge37" class="edge">
<title>Node23&#45;&gt;Node7</title>
<path fill="none" stroke="midnightblue" d="M341.67,-245.04C287.06,-252.53 201.99,-264.2 153.4,-270.87"/>
<polygon fill="midnightblue" stroke="midnightblue" points="342.4,-248.47 351.83,-243.65 341.45,-241.54 342.4,-248.47"/>
</g>
<!-- Node24&#45;&gt;Node7 -->
<g id="edge39" class="edge">
<title>Node24&#45;&gt;Node7</title>
<path fill="none" stroke="midnightblue" d="M324.04,-276C269.9,-276 196.61,-276 153.03,-276"/>
<polygon fill="midnightblue" stroke="midnightblue" points="324.26,-279.5 334.26,-276 324.26,-272.5 324.26,-279.5"/>
</g>
<!-- Node26 -->
<g id="node26" class="node">
<title>Node26</title>
<g id="a_node26"><a xlink:href="parse__bonus_8c.html#a65db4c46c2af2d9b570687b3a1458f15" target="_top" xlink:title=" ">
<polygon fill="none" stroke="black" points="490,-266.5 490,-285.5 614,-285.5 614,-266.5 490,-266.5"/>
<text text-anchor="middle" x="552" y="-273.5" font-family="Helvetica,sans-Serif" font-size="10.00">ft_parse_entity_bonus</text>
</a>
</g>
</g>
<!-- Node25&#45;&gt;Node26 -->
<g id="edge41" class="edge">
<title>Node25&#45;&gt;Node26</title>
<path fill="none" stroke="midnightblue" d="M661.47,-338.85C657.47,-337.13 653.61,-335.18 650,-333 630.1,-320.95 633.75,-307.3 614,-295 607.88,-291.19 600.94,-288.09 593.98,-285.58"/>
<polygon fill="midnightblue" stroke="midnightblue" points="660.34,-342.17 670.93,-342.49 662.86,-335.63 660.34,-342.17"/>
</g>
<!-- Node26&#45;&gt;Node24 -->
<g id="edge42" class="edge">
<title>Node26&#45;&gt;Node24</title>
<path fill="none" stroke="midnightblue" d="M479.68,-276C471,-276 462.2,-276 453.73,-276"/>
<polygon fill="midnightblue" stroke="midnightblue" points="479.79,-279.5 489.79,-276 479.79,-272.5 479.79,-279.5"/>
</g>
<!-- Node28 -->
<g id="node28" class="node">
<title>Node28</title>
<g id="a_node28"><a xlink:href="parse_8c.html#ad530c7e1381c551510afa73f881fb907" target="_top" xlink:title=" ">
<polygon fill="none" stroke="black" points="507.5,-114.5 507.5,-133.5 596.5,-133.5 596.5,-114.5 507.5,-114.5"/>
<text text-anchor="middle" x="552" y="-121.5" font-family="Helvetica,sans-Serif" font-size="10.00">ft_parse_entity</text>
</a>
</g>
</g>
<!-- Node27&#45;&gt;Node28 -->
<g id="edge44" class="edge">
<title>Node27&#45;&gt;Node28</title>
<path fill="none" stroke="midnightblue" d="M665.66,-150.1C642.61,-144.76 615.78,-138.55 594.09,-133.52"/>
<polygon fill="midnightblue" stroke="midnightblue" points="665.08,-153.56 675.62,-152.41 666.66,-146.74 665.08,-153.56"/>
</g>
<!-- Node28&#45;&gt;Node23 -->
<g id="edge45" class="edge">
<title>Node28&#45;&gt;Node23</title>
<path fill="none" stroke="midnightblue" d="M529.55,-139.68C496.81,-163.6 435.35,-208.51 408.33,-228.26"/>
<polygon fill="midnightblue" stroke="midnightblue" points="531.96,-142.25 537.97,-133.52 527.83,-136.6 531.96,-142.25"/>
</g>
<!-- Node29&#45;&gt;Node26 -->
<g id="edge47" class="edge">
<title>Node29&#45;&gt;Node26</title>
<path fill="none" stroke="midnightblue" d="M665.66,-302.1C642.61,-296.76 615.78,-290.55 594.09,-285.52"/>
<polygon fill="midnightblue" stroke="midnightblue" points="665.08,-305.56 675.62,-304.41 666.66,-298.74 665.08,-305.56"/>
</g>
<!-- Node30&#45;&gt;Node23 -->
<g id="edge49" class="edge">
<title>Node30&#45;&gt;Node23</title>
<path fill="none" stroke="midnightblue" d="M501.87,-211.97C480.01,-217.29 454.62,-223.48 434.08,-228.48"/>
<polygon fill="midnightblue" stroke="midnightblue" points="502.75,-215.36 511.63,-209.59 501.09,-208.56 502.75,-215.36"/>
</g>
<!-- Node30&#45;&gt;Node24 -->
<g id="edge50" class="edge">
<title>Node30&#45;&gt;Node24</title>
<path fill="none" stroke="midnightblue" d="M500.82,-213.29C497.05,-214.99 493.4,-216.88 490,-219 470.25,-231.3 473.69,-244.6 454,-257 447.99,-260.78 441.16,-263.88 434.33,-266.39"/>
<polygon fill="midnightblue" stroke="midnightblue" points="502.36,-216.44 510.34,-209.47 499.76,-209.94 502.36,-216.44"/>
</g>
<!-- Node31&#45;&gt;Node28 -->
<g id="edge52" class="edge">
<title>Node31&#45;&gt;Node28</title>
<path fill="none" stroke="midnightblue" d="M672.62,-23.02C664.83,-26.11 656.98,-29.76 650,-34 612.31,-56.9 576.59,-96.08 561.09,-114.23"/>
<polygon fill="midnightblue" stroke="midnightblue" points="673.88,-26.29 682.05,-19.54 671.45,-19.72 673.88,-26.29"/>
</g>
<!-- Node32&#45;&gt;Node26 -->
<g id="edge54" class="edge">
<title>Node32&#45;&gt;Node26</title>
<path fill="none" stroke="midnightblue" d="M646.63,-276C635.85,-276 624.79,-276 614.23,-276"/>
<polygon fill="midnightblue" stroke="midnightblue" points="646.86,-279.5 656.86,-276 646.86,-272.5 646.86,-279.5"/>
</g>
<!-- Node33&#45;&gt;Node28 -->
<g id="edge56" class="edge">
<title>Node33&#45;&gt;Node28</title>
<path fill="none" stroke="midnightblue" d="M665.66,-97.9C642.61,-103.24 615.78,-109.45 594.09,-114.48"/>
<polygon fill="midnightblue" stroke="midnightblue" points="666.66,-101.26 675.62,-95.59 665.08,-94.44 666.66,-101.26"/>
</g>
<!-- Node34&#45;&gt;Node26 -->
<g id="edge58" class="edge">
<title>Node34&#45;&gt;Node26</title>
<path fill="none" stroke="midnightblue" d="M665.66,-249.9C642.61,-255.24 615.78,-261.45 594.09,-266.48"/>
<polygon fill="midnightblue" stroke="midnightblue" points="666.66,-253.26 675.62,-247.59 665.08,-246.44 666.66,-253.26"/>
</g>
<!-- Node35&#45;&gt;Node22 -->
<g id="edge60" class="edge">
<title>Node35&#45;&gt;Node22</title>
<path fill="none" stroke="midnightblue" d="M867.22,-312.15C849.94,-330.76 819.4,-359.38 786,-371 728.91,-390.86 698.75,-406.73 650,-371 607.14,-339.59 651.64,-294.5 614,-257 610.07,-253.09 605.35,-249.98 600.3,-247.51"/>
<polygon fill="midnightblue" stroke="midnightblue" points="869.9,-314.4 873.99,-304.63 864.7,-309.72 869.9,-314.4"/>
</g>
<!-- Node35&#45;&gt;Node25 -->
<g id="edge64" class="edge">
<title>Node35&#45;&gt;Node25</title>
<path fill="none" stroke="midnightblue" d="M850.3,-308.48C831.73,-316.14 807.73,-325.64 786,-333 776.15,-336.34 765.36,-339.57 755.37,-342.41"/>
<polygon fill="midnightblue" stroke="midnightblue" points="851.85,-311.62 859.74,-304.55 849.16,-305.16 851.85,-311.62"/>
</g>
<!-- Node35&#45;&gt;Node27 -->
<g id="edge65" class="edge">
<title>Node35&#45;&gt;Node27</title>
<path fill="none" stroke="midnightblue" d="M868.39,-277.51C846.83,-250.18 805.3,-199.1 786,-186 777,-179.89 766.28,-175.15 756.07,-171.55"/>
<polygon fill="midnightblue" stroke="midnightblue" points="865.71,-279.77 874.63,-285.47 871.22,-275.45 865.71,-279.77"/>
</g>
<!-- Node35&#45;&gt;Node29 -->
<g id="edge66" class="edge">
<title>Node35&#45;&gt;Node29</title>
<path fill="none" stroke="midnightblue" d="M831.01,-300.94C816.49,-302.64 800.45,-304.51 785.16,-306.29"/>
<polygon fill="midnightblue" stroke="midnightblue" points="831.76,-304.38 841.29,-299.75 830.95,-297.43 831.76,-304.38"/>
</g>
<!-- Node35&#45;&gt;Node30 -->
<g id="edge67" class="edge">
<title>Node35&#45;&gt;Node30</title>
<path fill="none" stroke="midnightblue" d="M866.53,-277.82C848.99,-259.64 818.58,-231.84 786,-219 722.38,-193.92 641.57,-193.62 593.76,-196.35"/>
<polygon fill="midnightblue" stroke="midnightblue" points="864.25,-280.5 873.64,-285.4 869.35,-275.71 864.25,-280.5"/>
</g>
<!-- Node35&#45;&gt;Node32 -->
<g id="edge68" class="edge">
<title>Node35&#45;&gt;Node32</title>
<path fill="none" stroke="midnightblue" d="M831.3,-289.09C814.8,-287.17 796.32,-285.01 779.19,-283.02"/>
<polygon fill="midnightblue" stroke="midnightblue" points="830.95,-292.57 841.29,-290.25 831.76,-285.62 830.95,-292.57"/>
</g>
<!-- Node35&#45;&gt;Node33 -->
<g id="edge69" class="edge">
<title>Node35&#45;&gt;Node33</title>
<path fill="none" stroke="midnightblue" d="M866.19,-277.36C853.32,-262.48 835.19,-240.25 822,-219 802.29,-187.24 808.74,-172.66 786,-143 771.04,-123.49 748.4,-105.97 733.65,-95.66"/>
<polygon fill="midnightblue" stroke="midnightblue" points="863.85,-280.01 873.08,-285.21 869.11,-275.39 863.85,-280.01"/>
</g>
<!-- Node35&#45;&gt;Node34 -->
<g id="edge70" class="edge">
<title>Node35&#45;&gt;Node34</title>
<path fill="none" stroke="midnightblue" d="M850.3,-281.52C831.73,-273.86 807.73,-264.36 786,-257 776.15,-253.66 765.36,-250.43 755.37,-247.59"/>
<polygon fill="midnightblue" stroke="midnightblue" points="849.16,-284.84 859.74,-285.45 851.85,-278.38 849.16,-284.84"/>
</g>
<!-- Node36 -->
<g id="node36" class="node">
<title>Node36</title>
<g id="a_node36"><a xlink:href="parse_8h.html#a39197067937cd8880453eed92148ee31" target="_top" xlink:title="Parse camera line.">
<polygon fill="none" stroke="black" points="503,-304.5 503,-323.5 601,-323.5 601,-304.5 503,-304.5"/>
<text text-anchor="middle" x="552" y="-311.5" font-family="Helvetica,sans-Serif" font-size="10.00">ft_parse_camera</text>
</a>
</g>
</g>
<!-- Node35&#45;&gt;Node36 -->
<g id="edge61" class="edge">
<title>Node35&#45;&gt;Node36</title>
<path fill="none" stroke="midnightblue" d="M872.36,-313.56C857.72,-339.47 827.16,-385.4 786,-404 730.92,-428.89 706.27,-426.08 650,-404 607.87,-387.47 573.14,-343.08 559.37,-323.5"/>
<polygon fill="midnightblue" stroke="midnightblue" points="875.47,-315.16 877.18,-304.7 869.33,-311.81 875.47,-315.16"/>
</g>
<!-- Node36&#45;&gt;Node23 -->
<g id="edge62" class="edge">
<title>Node36&#45;&gt;Node23</title>
<path fill="none" stroke="midnightblue" d="M500.65,-300.64C496.94,-298.96 493.35,-297.08 490,-295 470.25,-282.7 473.69,-269.4 454,-257 447.99,-253.22 441.16,-250.12 434.33,-247.61"/>
<polygon fill="midnightblue" stroke="midnightblue" points="499.44,-303.92 510.02,-304.42 502.06,-297.43 499.44,-303.92"/>
</g>
<!-- Node36&#45;&gt;Node24 -->
<g id="edge63" class="edge">
<title>Node36&#45;&gt;Node24</title>
<path fill="none" stroke="midnightblue" d="M501.87,-302.03C480.01,-296.71 454.62,-290.52 434.08,-285.52"/>
<polygon fill="midnightblue" stroke="midnightblue" points="501.09,-305.44 511.63,-304.41 502.75,-298.64 501.09,-305.44"/>
</g>
</g>
</svg>
