<?xml version="1.0" encoding="UTF-8" standalone="no"?>
<!DOCTYPE svg PUBLIC "-//W3C//DTD SVG 1.1//EN"
 "http://www.w3.org/Graphics/SVG/1.1/DTD/svg11.dtd">
<!-- Generated by graphviz version 2.43.0 (0)
 -->
<!-- Title: ft_hit_cylinder Pages: 1 -->
<!--zoomable 484 -->
<svg id="main" version="1.1" xmlns="http://www.w3.org/2000/svg" xmlns:xlink="http://www.w3.org/1999/xlink" xml:space="preserve" onload="init(evt)">
<style type="text/css"><![CDATA[
.edge:hover path { stroke: red; }
.edge:hover polygon { stroke: red; fill: red; }
]]></style>
<script type="text/javascript"><![CDATA[
var edges = document.getElementsByTagName('g');
if (edges && edges.length) {
  for (var i=0;i<edges.length;i++) {
    if (edges[i].id.substr(0,4)=='edge') {
      edges[i].setAttribute('class','edge');
    }
  }
}
]]></script>
        <defs>
                <circle id="rim" cx="0" cy="0" r="7"/>
                <circle id="rim2" cx="0" cy="0" r="3.5"/>
                <g id="zoomPlus">
                        <use xlink:href="#rim" fill="#404040">
                                <set attributeName="fill" to="#808080" begin="zoomplus.mouseover" end="zoomplus.mouseout"/>
                        </use>
                        <path d="M-4,0h8M0,-4v8" fill="none" stroke="white" stroke-width="1.5" pointer-events="none"/>
                </g>
                <g id="zoomMin">
                        <use xlink:href="#rim" fill="#404040">
                                <set attributeName="fill" to="#808080" begin="zoomminus.mouseover" end="zoomminus.mouseout"/>
                        </use>
                        <path d="M-4,0h8" fill="none" stroke="white" stroke-width="1.5" pointer-events="none"/>
                </g>
                <g id="dirArrow">
                        <path fill="none" stroke="white" stroke-width="1.5" d="M0,-3.0v7 M-2.5,-0.5L0,-3.0L2.5,-0.5"/>
                </g>
               <g id="resetDef">
                       <use xlink:href="#rim2" fill="#404040">
                               <set attributeName="fill" to="#808080" begin="reset.mouseover" end="reset.mouseout"/>
                       </use>
               </g>
        </defs>

<script type="text/javascript">
var viewWidth = 666;
var viewHeight = 484;
var sectionId = 'dynsection-39';
</script>
<script xlink:href="svgpan.js"/>
<svg id="graph" class="graph">
<g id="viewport">
<title>ft_hit_cylinder</title>
<!-- Node1 -->
<g id="node1" class="node">
<title>Node1</title>
<g id="a_node1"><a xlink:title="Calculates if a cylinder was hit by a ray.">
<polygon fill="#bfbfbf" stroke="black" points="0,-152.5 0,-171.5 86,-171.5 86,-152.5 0,-152.5"/>
<text text-anchor="middle" x="43" y="-159.5" font-family="Helvetica,sans-Serif" font-size="10.00">ft_hit_cylinder</text>
</a>
</g>
</g>
<!-- Node2 -->
<g id="node2" class="node">
<title>Node2</title>
<g id="a_node2"><a xlink:href="hit__cylinder__bonus_8c.html#afb7b50ad2f9161c61fc1065975ec7cbf" target="_top" xlink:title="Calculates all four potential hits of a cylinder.">
<polygon fill="none" stroke="black" points="267.5,-304.5 267.5,-323.5 376.5,-323.5 376.5,-304.5 267.5,-304.5"/>
<text text-anchor="middle" x="322" y="-311.5" font-family="Helvetica,sans-Serif" font-size="10.00">ft_cy_calc_pot_hits</text>
</a>
</g>
</g>
<!-- Node1&#45;&gt;Node2 -->
<g id="edge1" class="edge">
<title>Node1&#45;&gt;Node2</title>
<path fill="none" stroke="midnightblue" d="M49.25,-171.72C60.17,-190.99 87.22,-234.15 122,-257 162.65,-283.7 215.94,-298.1 257.14,-305.74"/>
<polygon fill="midnightblue" stroke="midnightblue" points="256.62,-309.21 267.07,-307.5 257.84,-302.31 256.62,-309.21"/>
</g>
<!-- Node7 -->
<g id="node7" class="node">
<title>Node7</title>
<g id="a_node7"><a xlink:href="hit__cylinder__bonus_8c.html#a40c47553b6ecb8ff1834e44c4c308e9b" target="_top" xlink:title="Determines if the potential hits are accurate.">
<polygon fill="none" stroke="black" points="124,-228.5 124,-247.5 229,-247.5 229,-228.5 124,-228.5"/>
<text text-anchor="middle" x="176.5" y="-235.5" font-family="Helvetica,sans-Serif" font-size="10.00">ft_cy_identify_hits</text>
</a>
</g>
</g>
<!-- Node1&#45;&gt;Node7 -->
<g id="edge6" class="edge">
<title>Node1&#45;&gt;Node7</title>
<path fill="none" stroke="midnightblue" d="M60.65,-171.63C83.28,-184.7 123.93,-208.2 150.3,-223.44"/>
<polygon fill="midnightblue" stroke="midnightblue" points="148.57,-226.48 158.98,-228.45 152.07,-220.42 148.57,-226.48"/>
</g>
<!-- Node14 -->
<g id="node14" class="node">
<title>Node14</title>
<g id="a_node14"><a xlink:href="hit__cylinder__bonus_8c.html#a72c52cc4f5c57fc6171137d9eb6c3500" target="_top" xlink:title="Overwrites the hit record &quot;rec&quot; with the new hit data found in the &quot;tmp&quot; hit record.">
<polygon fill="none" stroke="black" points="122,-152.5 122,-171.5 231,-171.5 231,-152.5 122,-152.5"/>
<text text-anchor="middle" x="176.5" y="-159.5" font-family="Helvetica,sans-Serif" font-size="10.00">ft_cy_set_hitrecord</text>
</a>
</g>
</g>
<!-- Node1&#45;&gt;Node14 -->
<g id="edge20" class="edge">
<title>Node1&#45;&gt;Node14</title>
<path fill="none" stroke="midnightblue" d="M86.33,-162C94.43,-162 103.07,-162 111.66,-162"/>
<polygon fill="midnightblue" stroke="midnightblue" points="111.7,-165.5 121.7,-162 111.7,-158.5 111.7,-165.5"/>
</g>
<!-- Node25 -->
<g id="node25" class="node">
<title>Node25</title>
<g id="a_node25"><a xlink:href="hit__manager_8h.html#a55af5b9bdf1ed07d3128dd3e15dd3e6b" target="_top" xlink:title="Checks if cylinder is not blocked by another object.">
<polygon fill="none" stroke="black" points="138,-114.5 138,-133.5 215,-133.5 215,-114.5 138,-114.5"/>
<text text-anchor="middle" x="176.5" y="-121.5" font-family="Helvetica,sans-Serif" font-size="10.00">ft_cy_visible</text>
</a>
</g>
</g>
<!-- Node1&#45;&gt;Node25 -->
<g id="edge41" class="edge">
<title>Node1&#45;&gt;Node25</title>
<path fill="none" stroke="midnightblue" d="M77.18,-152.41C94,-147.55 114.63,-141.59 132.63,-136.39"/>
<polygon fill="midnightblue" stroke="midnightblue" points="133.69,-139.72 142.33,-133.59 131.75,-133 133.69,-139.72"/>
</g>
<!-- Node27 -->
<g id="node27" class="node">
<title>Node27</title>
<g id="a_node27"><a xlink:href="hit__manager_8h.html#aa5acefb1538a700dc595870ad630f83d" target="_top" xlink:title="Initiates hitrecord struct.">
<polygon fill="none" stroke="black" points="130,-76.5 130,-95.5 223,-95.5 223,-76.5 130,-76.5"/>
<text text-anchor="middle" x="176.5" y="-83.5" font-family="Helvetica,sans-Serif" font-size="10.00">ft_init_hitrecord</text>
</a>
</g>
</g>
<!-- Node1&#45;&gt;Node27 -->
<g id="edge43" class="edge">
<title>Node1&#45;&gt;Node27</title>
<path fill="none" stroke="midnightblue" d="M54.94,-152.4C69.44,-140.07 96.2,-118.64 122,-105 125.93,-102.92 130.13,-100.99 134.4,-99.21"/>
<polygon fill="midnightblue" stroke="midnightblue" points="135.68,-102.46 143.73,-95.57 133.14,-95.94 135.68,-102.46"/>
</g>
<!-- Node3 -->
<g id="node3" class="node">
<title>Node3</title>
<g id="a_node3"><a xlink:href="hit__cylinder_8c.html#af2540784b9e01fbdfeacb544ea2c169a" target="_top" xlink:title="Calculates the hit point of the ray with the cylinder cap.">
<polygon fill="none" stroke="black" points="423,-456.5 423,-475.5 503,-475.5 503,-456.5 423,-456.5"/>
<text text-anchor="middle" x="463" y="-463.5" font-family="Helvetica,sans-Serif" font-size="10.00">ft_cy_cap_hit</text>
</a>
</g>
</g>
<!-- Node2&#45;&gt;Node3 -->
<g id="edge2" class="edge">
<title>Node2&#45;&gt;Node3</title>
<path fill="none" stroke="midnightblue" d="M327.13,-323.85C337.78,-348.14 368.52,-411.55 413,-447 415.24,-448.79 417.67,-450.42 420.21,-451.91"/>
<polygon fill="midnightblue" stroke="midnightblue" points="418.63,-455.04 429.13,-456.45 421.8,-448.8 418.63,-455.04"/>
</g>
<!-- Node4 -->
<g id="node4" class="node">
<title>Node4</title>
<g id="a_node4"><a xlink:href="utils_8h.html#ae65513c75ce8a8538c22393e0af3ab1f" target="_top" xlink:title="Solves the given equation.">
<polygon fill="none" stroke="black" points="435.5,-418.5 435.5,-437.5 490.5,-437.5 490.5,-418.5 435.5,-418.5"/>
<text text-anchor="middle" x="463" y="-425.5" font-family="Helvetica,sans-Serif" font-size="10.00">ft_solve</text>
</a>
</g>
</g>
<!-- Node2&#45;&gt;Node4 -->
<g id="edge3" class="edge">
<title>Node2&#45;&gt;Node4</title>
<path fill="none" stroke="midnightblue" d="M330.82,-323.71C345.46,-341.44 378.66,-379.46 413,-404 418.04,-407.6 423.69,-410.92 429.33,-413.88"/>
<polygon fill="midnightblue" stroke="midnightblue" points="428.16,-417.21 438.67,-418.49 431.25,-410.93 428.16,-417.21"/>
</g>
<!-- Node5 -->
<g id="node5" class="node">
<title>Node5</title>
<g id="a_node5"><a xlink:href="vec3_8h.html#a89fd02ae4b8b3602bc001664eb5e8f91" target="_top" xlink:title="Calculate the scalar product of two vectors.">
<polygon fill="none" stroke="black" points="426.5,-304.5 426.5,-323.5 499.5,-323.5 499.5,-304.5 426.5,-304.5"/>
<text text-anchor="middle" x="463" y="-311.5" font-family="Helvetica,sans-Serif" font-size="10.00">ft_vec3_dot</text>
</a>
</g>
</g>
<!-- Node2&#45;&gt;Node5 -->
<g id="edge4" class="edge">
<title>Node2&#45;&gt;Node5</title>
<path fill="none" stroke="midnightblue" d="M376.74,-314C389.75,-314 403.54,-314 416.15,-314"/>
<polygon fill="midnightblue" stroke="midnightblue" points="416.42,-317.5 426.42,-314 416.42,-310.5 416.42,-317.5"/>
</g>
<!-- Node6 -->
<g id="node6" class="node">
<title>Node6</title>
<g id="a_node6"><a xlink:href="vec3_8h.html#a54e984820b74bd803de43ce36c8cb292" target="_top" xlink:title="Subtract two vectors.">
<polygon fill="none" stroke="black" points="426,-190.5 426,-209.5 500,-209.5 500,-190.5 426,-190.5"/>
<text text-anchor="middle" x="463" y="-197.5" font-family="Helvetica,sans-Serif" font-size="10.00">ft_vec3_sub</text>
</a>
</g>
</g>
<!-- Node2&#45;&gt;Node6 -->
<g id="edge5" class="edge">
<title>Node2&#45;&gt;Node6</title>
<path fill="none" stroke="midnightblue" d="M362.26,-304.41C367.6,-301.94 372.72,-298.86 377,-295 404.77,-269.98 385.63,-244.45 413,-219 414.68,-217.43 416.51,-215.99 418.43,-214.67"/>
<polygon fill="midnightblue" stroke="midnightblue" points="420.42,-217.56 427.37,-209.56 416.95,-211.49 420.42,-217.56"/>
</g>
<!-- Node8 -->
<g id="node8" class="node">
<title>Node8</title>
<g id="a_node8"><a xlink:href="hit__manager_8h.html#a98c590ac9074c10dc7e18cfd033c0b9b" target="_top" xlink:title="Checks if the ray actually hit the cylinder cap.">
<polygon fill="none" stroke="black" points="274,-228.5 274,-247.5 370,-247.5 370,-228.5 274,-228.5"/>
<text text-anchor="middle" x="322" y="-235.5" font-family="Helvetica,sans-Serif" font-size="10.00">ft_cy_check_cap</text>
</a>
</g>
</g>
<!-- Node7&#45;&gt;Node8 -->
<g id="edge7" class="edge">
<title>Node7&#45;&gt;Node8</title>
<path fill="none" stroke="midnightblue" d="M229.31,-238C240.37,-238 252.12,-238 263.39,-238"/>
<polygon fill="midnightblue" stroke="midnightblue" points="263.57,-241.5 273.57,-238 263.57,-234.5 263.57,-241.5"/>
</g>
<!-- Node13 -->
<g id="node13" class="node">
<title>Node13</title>
<g id="a_node13"><a xlink:href="hit__manager_8h.html#a7071fcc84ae72a9f04ce375b87d46c77" target="_top" xlink:title="Checks if the ray actually hit the cylinder wall.">
<polygon fill="none" stroke="black" points="272.5,-266.5 272.5,-285.5 371.5,-285.5 371.5,-266.5 272.5,-266.5"/>
<text text-anchor="middle" x="322" y="-273.5" font-family="Helvetica,sans-Serif" font-size="10.00">ft_cy_check_wall</text>
</a>
</g>
</g>
<!-- Node7&#45;&gt;Node13 -->
<g id="edge13" class="edge">
<title>Node7&#45;&gt;Node13</title>
<path fill="none" stroke="midnightblue" d="M213.71,-247.59C232.32,-252.52 255.2,-258.57 275.04,-263.83"/>
<polygon fill="midnightblue" stroke="midnightblue" points="274.24,-267.24 284.8,-266.41 276.03,-260.47 274.24,-267.24"/>
</g>
<!-- Node8&#45;&gt;Node6 -->
<g id="edge12" class="edge">
<title>Node8&#45;&gt;Node6</title>
<path fill="none" stroke="midnightblue" d="M358.08,-228.41C376.02,-223.51 398.06,-217.48 417.22,-212.24"/>
<polygon fill="midnightblue" stroke="midnightblue" points="418.21,-215.6 426.94,-209.59 416.37,-208.85 418.21,-215.6"/>
</g>
<!-- Node9 -->
<g id="node9" class="node">
<title>Node9</title>
<g id="a_node9"><a xlink:href="ray_8h.html#ac56e9ac7acfb4658469e190c022b0d63" target="_top" xlink:title="Represents a ray.">
<polygon fill="none" stroke="black" points="425.5,-228.5 425.5,-247.5 500.5,-247.5 500.5,-228.5 425.5,-228.5"/>
<text text-anchor="middle" x="463" y="-235.5" font-family="Helvetica,sans-Serif" font-size="10.00">ft_scale_ray</text>
</a>
</g>
</g>
<!-- Node8&#45;&gt;Node9 -->
<g id="edge8" class="edge">
<title>Node8&#45;&gt;Node9</title>
<path fill="none" stroke="midnightblue" d="M370.06,-238C384.51,-238 400.41,-238 414.86,-238"/>
<polygon fill="midnightblue" stroke="midnightblue" points="415.09,-241.5 425.09,-238 415.09,-234.5 415.09,-241.5"/>
</g>
<!-- Node12 -->
<g id="node12" class="node">
<title>Node12</title>
<g id="a_node12"><a xlink:href="vec3_8h.html#aa84621bd979d3b12b97908f653faf88e" target="_top" xlink:title="Calculate the absolute value of a vector.">
<polygon fill="none" stroke="black" points="426,-266.5 426,-285.5 500,-285.5 500,-266.5 426,-266.5"/>
<text text-anchor="middle" x="463" y="-273.5" font-family="Helvetica,sans-Serif" font-size="10.00">ft_vec3_abs</text>
</a>
</g>
</g>
<!-- Node8&#45;&gt;Node12 -->
<g id="edge11" class="edge">
<title>Node8&#45;&gt;Node12</title>
<path fill="none" stroke="midnightblue" d="M358.08,-247.59C376.02,-252.49 398.06,-258.52 417.22,-263.76"/>
<polygon fill="midnightblue" stroke="midnightblue" points="416.37,-267.15 426.94,-266.41 418.21,-260.4 416.37,-267.15"/>
</g>
<!-- Node10 -->
<g id="node10" class="node">
<title>Node10</title>
<g id="a_node10"><a xlink:href="vec3_8h.html#a73e2caf4c2a51ed954b7349c6be2b3c3" target="_top" xlink:title="Add two vectors.">
<polygon fill="none" stroke="black" points="566,-304.5 566,-323.5 641,-323.5 641,-304.5 566,-304.5"/>
<text text-anchor="middle" x="603.5" y="-311.5" font-family="Helvetica,sans-Serif" font-size="10.00">ft_vec3_add</text>
</a>
</g>
</g>
<!-- Node9&#45;&gt;Node10 -->
<g id="edge9" class="edge">
<title>Node9&#45;&gt;Node10</title>
<path fill="none" stroke="midnightblue" d="M491.37,-247.52C498.54,-250.3 506.16,-253.54 513,-257 537.21,-269.25 563.2,-286.28 580.9,-298.53"/>
<polygon fill="midnightblue" stroke="midnightblue" points="579.15,-301.58 589.34,-304.45 583.16,-295.84 579.15,-301.58"/>
</g>
<!-- Node11 -->
<g id="node11" class="node">
<title>Node11</title>
<g id="a_node11"><a xlink:href="vec3_8h.html#ac80a1c20941c96a8fafad255dac59092" target="_top" xlink:title="Scale a vector.">
<polygon fill="none" stroke="black" points="562,-76.5 562,-95.5 645,-95.5 645,-76.5 562,-76.5"/>
<text text-anchor="middle" x="603.5" y="-83.5" font-family="Helvetica,sans-Serif" font-size="10.00">ft_vec3_scale</text>
</a>
</g>
</g>
<!-- Node9&#45;&gt;Node11 -->
<g id="edge10" class="edge">
<title>Node9&#45;&gt;Node11</title>
<path fill="none" stroke="midnightblue" d="M498.63,-228.44C503.85,-225.95 508.86,-222.85 513,-219 540.37,-193.55 527.96,-173.89 549,-143 559.08,-128.2 572.99,-113.51 584.1,-102.75"/>
<polygon fill="midnightblue" stroke="midnightblue" points="586.73,-105.08 591.59,-95.67 581.92,-99.99 586.73,-105.08"/>
</g>
<!-- Node13&#45;&gt;Node5 -->
<g id="edge17" class="edge">
<title>Node13&#45;&gt;Node5</title>
<path fill="none" stroke="midnightblue" d="M358.08,-285.59C376.02,-290.49 398.06,-296.52 417.22,-301.76"/>
<polygon fill="midnightblue" stroke="midnightblue" points="416.37,-305.15 426.94,-304.41 418.21,-298.4 416.37,-305.15"/>
</g>
<!-- Node13&#45;&gt;Node6 -->
<g id="edge19" class="edge">
<title>Node13&#45;&gt;Node6</title>
<path fill="none" stroke="midnightblue" d="M357.85,-266.48C364.48,-263.92 371.16,-260.79 377,-257 396.52,-244.34 393.68,-231.97 413,-219 415.77,-217.14 418.74,-215.43 421.8,-213.86"/>
<polygon fill="midnightblue" stroke="midnightblue" points="423.54,-216.91 431.16,-209.56 420.61,-210.55 423.54,-216.91"/>
</g>
<!-- Node13&#45;&gt;Node9 -->
<g id="edge14" class="edge">
<title>Node13&#45;&gt;Node9</title>
<path fill="none" stroke="midnightblue" d="M358.08,-266.41C376.02,-261.51 398.06,-255.48 417.22,-250.24"/>
<polygon fill="midnightblue" stroke="midnightblue" points="418.21,-253.6 426.94,-247.59 416.37,-246.85 418.21,-253.6"/>
</g>
<!-- Node13&#45;&gt;Node10 -->
<g id="edge16" class="edge">
<title>Node13&#45;&gt;Node10</title>
<path fill="none" stroke="midnightblue" d="M361.89,-285.57C367.35,-288.04 372.59,-291.13 377,-295 403.6,-318.33 382.85,-347.48 413,-366 467.94,-399.74 545.04,-355.33 581.64,-329.76"/>
<polygon fill="midnightblue" stroke="midnightblue" points="583.95,-332.41 590.03,-323.73 579.87,-326.72 583.95,-332.41"/>
</g>
<!-- Node13&#45;&gt;Node11 -->
<g id="edge18" class="edge">
<title>Node13&#45;&gt;Node11</title>
<path fill="none" stroke="midnightblue" d="M357.85,-285.52C364.48,-288.08 371.16,-291.21 377,-295 396.52,-307.66 391.63,-323.81 413,-333 453.83,-350.56 478.77,-361.35 513,-333 579.19,-278.17 510.04,-219.61 549,-143 556.92,-127.42 570.41,-113.1 581.86,-102.7"/>
<polygon fill="midnightblue" stroke="midnightblue" points="584.47,-105.07 589.73,-95.87 579.88,-99.79 584.47,-105.07"/>
</g>
<!-- Node13&#45;&gt;Node12 -->
<g id="edge15" class="edge">
<title>Node13&#45;&gt;Node12</title>
<path fill="none" stroke="midnightblue" d="M371.62,-276C385.98,-276 401.65,-276 415.86,-276"/>
<polygon fill="midnightblue" stroke="midnightblue" points="415.9,-279.5 425.9,-276 415.9,-272.5 415.9,-279.5"/>
</g>
<!-- Node14&#45;&gt;Node9 -->
<g id="edge40" class="edge">
<title>Node14&#45;&gt;Node9</title>
<path fill="none" stroke="midnightblue" d="M213.24,-171.55C264.77,-185.31 359.93,-210.73 416.44,-225.83"/>
<polygon fill="midnightblue" stroke="midnightblue" points="415.61,-229.23 426.18,-228.43 417.42,-222.47 415.61,-229.23"/>
</g>
<!-- Node15 -->
<g id="node15" class="node">
<title>Node15</title>
<g id="a_node15"><a xlink:href="hit__manager_8h.html#a873b926722f5b8fada3f51432dccd4be" target="_top" xlink:title="Calculates the normal on the point of intersection of the cylinder.">
<polygon fill="none" stroke="black" points="282,-114.5 282,-133.5 362,-133.5 362,-114.5 282,-114.5"/>
<text text-anchor="middle" x="322" y="-121.5" font-family="Helvetica,sans-Serif" font-size="10.00">ft_cy_normal</text>
</a>
</g>
</g>
<!-- Node14&#45;&gt;Node15 -->
<g id="edge21" class="edge">
<title>Node14&#45;&gt;Node15</title>
<path fill="none" stroke="midnightblue" d="M213.71,-152.41C232.32,-147.48 255.2,-141.43 275.04,-136.17"/>
<polygon fill="midnightblue" stroke="midnightblue" points="276.03,-139.53 284.8,-133.59 274.24,-132.76 276.03,-139.53"/>
</g>
<!-- Node20 -->
<g id="node20" class="node">
<title>Node20</title>
<g id="a_node20"><a xlink:href="hit__manager__bonus_8h.html#aeb33f439a0d2093bdbcca7468e2e78b4" target="_top" xlink:title="Transforms the Cartesian coordinates of a hit point on a cylinder wall into 2D texture UV&#45;coordinates...">
<polygon fill="none" stroke="black" points="267,-76.5 267,-95.5 377,-95.5 377,-76.5 267,-76.5"/>
<text text-anchor="middle" x="322" y="-83.5" font-family="Helvetica,sans-Serif" font-size="10.00">ft_get_cy_uvcoords</text>
</a>
</g>
</g>
<!-- Node14&#45;&gt;Node20 -->
<g id="edge29" class="edge">
<title>Node14&#45;&gt;Node20</title>
<path fill="none" stroke="midnightblue" d="M212.03,-152.44C218.6,-149.89 225.22,-146.76 231,-143 250.5,-130.31 247.48,-117.66 267,-105 270.1,-102.99 273.44,-101.16 276.88,-99.51"/>
<polygon fill="midnightblue" stroke="midnightblue" points="278.35,-102.69 286.15,-95.52 275.58,-96.26 278.35,-102.69"/>
</g>
<!-- Node24 -->
<g id="node24" class="node">
<title>Node24</title>
<g id="a_node24"><a xlink:href="hit__manager__bonus_8h.html#a87d41de805dc36f90fb5002fa2d34da0" target="_top" xlink:title="Transforms the Cartesian coordinates of a hit point on a plane into 2D texture UV&#45;coordinates in the ...">
<polygon fill="none" stroke="black" points="268,-152.5 268,-171.5 376,-171.5 376,-152.5 268,-152.5"/>
<text text-anchor="middle" x="322" y="-159.5" font-family="Helvetica,sans-Serif" font-size="10.00">ft_get_pl_uvcoords</text>
</a>
</g>
</g>
<!-- Node14&#45;&gt;Node24 -->
<g id="edge36" class="edge">
<title>Node14&#45;&gt;Node24</title>
<path fill="none" stroke="midnightblue" d="M231.34,-162C239.92,-162 248.86,-162 257.62,-162"/>
<polygon fill="midnightblue" stroke="midnightblue" points="257.81,-165.5 267.81,-162 257.81,-158.5 257.81,-165.5"/>
</g>
<!-- Node15&#45;&gt;Node6 -->
<g id="edge28" class="edge">
<title>Node15&#45;&gt;Node6</title>
<path fill="none" stroke="midnightblue" d="M357.85,-133.52C364.48,-136.08 371.16,-139.21 377,-143 396.52,-155.66 393.68,-168.03 413,-181 415.77,-182.86 418.74,-184.57 421.8,-186.14"/>
<polygon fill="midnightblue" stroke="midnightblue" points="420.61,-189.45 431.16,-190.44 423.54,-183.09 420.61,-189.45"/>
</g>
<!-- Node15&#45;&gt;Node11 -->
<g id="edge27" class="edge">
<title>Node15&#45;&gt;Node11</title>
<path fill="none" stroke="midnightblue" d="M362.26,-114.75C377.97,-111.3 396.27,-107.6 413,-105 459.59,-97.77 513.07,-92.7 551.31,-89.62"/>
<polygon fill="midnightblue" stroke="midnightblue" points="551.98,-93.08 561.68,-88.81 551.43,-86.1 551.98,-93.08"/>
</g>
<!-- Node16 -->
<g id="node16" class="node">
<title>Node16</title>
<g id="a_node16"><a xlink:href="vec3_8h.html#add7f4f27ee8cadcbf62ffbfecb98f64f" target="_top" xlink:title="Determines if two vectors are equal.">
<polygon fill="none" stroke="black" points="421,-152.5 421,-171.5 505,-171.5 505,-152.5 421,-152.5"/>
<text text-anchor="middle" x="463" y="-159.5" font-family="Helvetica,sans-Serif" font-size="10.00">ft_vec3_equal</text>
</a>
</g>
</g>
<!-- Node15&#45;&gt;Node16 -->
<g id="edge22" class="edge">
<title>Node15&#45;&gt;Node16</title>
<path fill="none" stroke="midnightblue" d="M358.08,-133.59C376.02,-138.49 398.06,-144.52 417.22,-149.76"/>
<polygon fill="midnightblue" stroke="midnightblue" points="416.37,-153.15 426.94,-152.41 418.21,-146.4 416.37,-153.15"/>
</g>
<!-- Node18 -->
<g id="node18" class="node">
<title>Node18</title>
<g id="a_node18"><a xlink:href="vec3_8h.html#a38fe500bd27847b866b9630146e43250" target="_top" xlink:title="Normalise a vector.">
<polygon fill="none" stroke="black" points="421.5,-38.5 421.5,-57.5 504.5,-57.5 504.5,-38.5 421.5,-38.5"/>
<text text-anchor="middle" x="463" y="-45.5" font-family="Helvetica,sans-Serif" font-size="10.00">ft_vec3_norm</text>
</a>
</g>
</g>
<!-- Node15&#45;&gt;Node18 -->
<g id="edge24" class="edge">
<title>Node15&#45;&gt;Node18</title>
<path fill="none" stroke="midnightblue" d="M356.79,-114.47C363.71,-111.88 370.78,-108.73 377,-105 395.62,-93.84 395.07,-84.23 413,-72 418.11,-68.51 423.81,-65.24 429.46,-62.3"/>
<polygon fill="midnightblue" stroke="midnightblue" points="431.38,-65.26 438.8,-57.69 428.29,-58.98 431.38,-65.26"/>
</g>
<!-- Node17 -->
<g id="node17" class="node">
<title>Node17</title>
<g id="a_node17"><a xlink:href="utils_8h.html#a518be72ffbfd90cedf995e72dde0aff6" target="_top" xlink:title="Checks if two floats are (almost) equal.">
<polygon fill="none" stroke="black" points="550,-152.5 550,-171.5 657,-171.5 657,-152.5 550,-152.5"/>
<text text-anchor="middle" x="603.5" y="-159.5" font-family="Helvetica,sans-Serif" font-size="10.00">ft_nearly_equal_flt</text>
</a>
</g>
</g>
<!-- Node16&#45;&gt;Node17 -->
<g id="edge23" class="edge">
<title>Node16&#45;&gt;Node17</title>
<path fill="none" stroke="midnightblue" d="M505.18,-162C516.03,-162 528,-162 539.71,-162"/>
<polygon fill="midnightblue" stroke="midnightblue" points="539.9,-165.5 549.9,-162 539.9,-158.5 539.9,-165.5"/>
</g>
<!-- Node18&#45;&gt;Node11 -->
<g id="edge26" class="edge">
<title>Node18&#45;&gt;Node11</title>
<path fill="none" stroke="midnightblue" d="M498.95,-57.59C516.83,-62.49 538.79,-68.52 557.88,-73.76"/>
<polygon fill="midnightblue" stroke="midnightblue" points="556.99,-77.14 567.56,-76.41 558.84,-70.39 556.99,-77.14"/>
</g>
<!-- Node19 -->
<g id="node19" class="node">
<title>Node19</title>
<g id="a_node19"><a xlink:href="vec3__linalgebra_8c.html#aa84621bd979d3b12b97908f653faf88e" target="_top" xlink:title="Calculate the absolute value of a vector.">
<polygon fill="none" stroke="black" points="566.5,-38.5 566.5,-57.5 640.5,-57.5 640.5,-38.5 566.5,-38.5"/>
<text text-anchor="middle" x="603.5" y="-45.5" font-family="Helvetica,sans-Serif" font-size="10.00">ft_vec3_abs</text>
</a>
</g>
</g>
<!-- Node18&#45;&gt;Node19 -->
<g id="edge25" class="edge">
<title>Node18&#45;&gt;Node19</title>
<path fill="none" stroke="midnightblue" d="M504.81,-48C520.93,-48 539.54,-48 556.17,-48"/>
<polygon fill="midnightblue" stroke="midnightblue" points="556.22,-51.5 566.22,-48 556.22,-44.5 556.22,-51.5"/>
</g>
<!-- Node20&#45;&gt;Node6 -->
<g id="edge35" class="edge">
<title>Node20&#45;&gt;Node6</title>
<path fill="none" stroke="midnightblue" d="M362.26,-95.59C367.6,-98.06 372.72,-101.14 377,-105 404.77,-130.02 385.63,-155.55 413,-181 414.68,-182.57 416.51,-184.01 418.43,-185.33"/>
<polygon fill="midnightblue" stroke="midnightblue" points="416.95,-188.51 427.37,-190.44 420.42,-182.44 416.95,-188.51"/>
</g>
<!-- Node20&#45;&gt;Node18 -->
<g id="edge34" class="edge">
<title>Node20&#45;&gt;Node18</title>
<path fill="none" stroke="midnightblue" d="M358.08,-76.41C376.02,-71.51 398.06,-65.48 417.22,-60.24"/>
<polygon fill="midnightblue" stroke="midnightblue" points="418.21,-63.6 426.94,-57.59 416.37,-56.85 418.21,-63.6"/>
</g>
<!-- Node21 -->
<g id="node21" class="node">
<title>Node21</title>
<g id="a_node21"><a xlink:href="utils__bonus_8h.html#a4b67c731c02a7ba35f27473295bfb753" target="_top" xlink:title="Performs a rotation of a given vector around an axis by a given angle.">
<polygon fill="none" stroke="black" points="413,-0.5 413,-19.5 513,-19.5 513,-0.5 413,-0.5"/>
<text text-anchor="middle" x="463" y="-7.5" font-family="Helvetica,sans-Serif" font-size="10.00">ft_quaternion_rot</text>
</a>
</g>
</g>
<!-- Node20&#45;&gt;Node21 -->
<g id="edge30" class="edge">
<title>Node20&#45;&gt;Node21</title>
<path fill="none" stroke="midnightblue" d="M357.85,-76.48C364.48,-73.92 371.16,-70.79 377,-67 396.52,-54.34 393.68,-41.97 413,-29 415.77,-27.14 418.74,-25.43 421.8,-23.86"/>
<polygon fill="midnightblue" stroke="midnightblue" points="423.54,-26.91 431.16,-19.56 420.61,-20.55 423.54,-26.91"/>
</g>
<!-- Node23 -->
<g id="node23" class="node">
<title>Node23</title>
<g id="a_node23"><a xlink:href="vec3_8h.html#a19bc1d17592698776e89a5093110320c" target="_top" xlink:title="Calculate the cross product of two vectors.">
<polygon fill="none" stroke="black" points="421.5,-114.5 421.5,-133.5 504.5,-133.5 504.5,-114.5 421.5,-114.5"/>
<text text-anchor="middle" x="463" y="-121.5" font-family="Helvetica,sans-Serif" font-size="10.00">ft_vec3_cross</text>
</a>
</g>
</g>
<!-- Node20&#45;&gt;Node23 -->
<g id="edge33" class="edge">
<title>Node20&#45;&gt;Node23</title>
<path fill="none" stroke="midnightblue" d="M358.08,-95.59C376.02,-100.49 398.06,-106.52 417.22,-111.76"/>
<polygon fill="midnightblue" stroke="midnightblue" points="416.37,-115.15 426.94,-114.41 418.21,-108.4 416.37,-115.15"/>
</g>
<!-- Node21&#45;&gt;Node11 -->
<g id="edge32" class="edge">
<title>Node21&#45;&gt;Node11</title>
<path fill="none" stroke="midnightblue" d="M494.84,-19.56C501.11,-22.15 507.47,-25.29 513,-29 532.32,-41.97 529.5,-54.31 549,-67 552.07,-69 555.38,-70.82 558.79,-72.47"/>
<polygon fill="midnightblue" stroke="midnightblue" points="557.4,-75.68 567.97,-76.44 560.19,-69.26 557.4,-75.68"/>
</g>
<!-- Node22 -->
<g id="node22" class="node">
<title>Node22</title>
<g id="a_node22"><a xlink:href="utils__quaternion__bonus_8c.html#a15b6fa9c749e827cd1d52bf1c8e0a8f3" target="_top" xlink:title="Performs quaternion multiplication.">
<polygon fill="none" stroke="black" points="549,-0.5 549,-19.5 658,-19.5 658,-0.5 549,-0.5"/>
<text text-anchor="middle" x="603.5" y="-7.5" font-family="Helvetica,sans-Serif" font-size="10.00">ft_quaternion_mult</text>
</a>
</g>
</g>
<!-- Node21&#45;&gt;Node22 -->
<g id="edge31" class="edge">
<title>Node21&#45;&gt;Node22</title>
<path fill="none" stroke="midnightblue" d="M513.22,-10C521.4,-10 529.99,-10 538.47,-10"/>
<polygon fill="midnightblue" stroke="midnightblue" points="538.74,-13.5 548.74,-10 538.74,-6.5 538.74,-13.5"/>
</g>
<!-- Node24&#45;&gt;Node5 -->
<g id="edge38" class="edge">
<title>Node24&#45;&gt;Node5</title>
<path fill="none" stroke="midnightblue" d="M334.02,-171.65C345.76,-182.35 364.37,-200.55 377,-219 398.12,-249.84 385.63,-269.55 413,-295 414.68,-296.57 416.51,-298.01 418.43,-299.33"/>
<polygon fill="midnightblue" stroke="midnightblue" points="416.95,-302.51 427.37,-304.44 420.42,-296.44 416.95,-302.51"/>
</g>
<!-- Node24&#45;&gt;Node16 -->
<g id="edge39" class="edge">
<title>Node24&#45;&gt;Node16</title>
<path fill="none" stroke="midnightblue" d="M376.34,-162C387.6,-162 399.45,-162 410.63,-162"/>
<polygon fill="midnightblue" stroke="midnightblue" points="410.67,-165.5 420.67,-162 410.67,-158.5 410.67,-165.5"/>
</g>
<!-- Node24&#45;&gt;Node23 -->
<g id="edge37" class="edge">
<title>Node24&#45;&gt;Node23</title>
<path fill="none" stroke="midnightblue" d="M358.08,-152.41C376.02,-147.51 398.06,-141.48 417.22,-136.24"/>
<polygon fill="midnightblue" stroke="midnightblue" points="418.21,-139.6 426.94,-133.59 416.37,-132.85 418.21,-139.6"/>
</g>
<!-- Node26 -->
<g id="node26" class="node">
<title>Node26</title>
<g id="a_node26"><a xlink:href="utils_8h.html#add4de5ba94d3f8475d0a1c4ce8abd3aa" target="_top" xlink:title="Determines if value is surrounded by the interval.">
<polygon fill="none" stroke="black" points="283.5,-38.5 283.5,-57.5 360.5,-57.5 360.5,-38.5 283.5,-38.5"/>
<text text-anchor="middle" x="322" y="-45.5" font-family="Helvetica,sans-Serif" font-size="10.00">ft_surrounds</text>
</a>
</g>
</g>
<!-- Node25&#45;&gt;Node26 -->
<g id="edge42" class="edge">
<title>Node25&#45;&gt;Node26</title>
<path fill="none" stroke="midnightblue" d="M212.03,-114.44C218.6,-111.89 225.22,-108.76 231,-105 250.5,-92.31 247.48,-79.66 267,-67 270.1,-64.99 273.44,-63.16 276.88,-61.51"/>
<polygon fill="midnightblue" stroke="midnightblue" points="278.35,-64.69 286.15,-57.52 275.58,-58.26 278.35,-64.69"/>
</g>
</g>
</svg>
        <g id="navigator" transform="translate(0 0)" fill="#404254">
                <rect fill="#f2f5e9" fill-opacity="0.5" stroke="#606060" stroke-width=".5" x="0" y="0" width="60" height="60"/>
                <use id="zoomplus" xlink:href="#zoomPlus" x="17" y="9" onmousedown="handleZoom(evt,'in')"/>
                <use id="zoomminus" xlink:href="#zoomMin" x="42" y="9" onmousedown="handleZoom(evt,'out')"/>
                <use id="reset" xlink:href="#resetDef" x="30" y="36" onmousedown="handleReset()"/>
                <g id="arrowUp" xlink:href="#dirArrow" transform="translate(30 24)" onmousedown="handlePan(0,-1)">
                  <use xlink:href="#rim" fill="#404040">
                        <set attributeName="fill" to="#808080" begin="arrowUp.mouseover" end="arrowUp.mouseout"/>
                  </use>
                  <path fill="none" stroke="white" stroke-width="1.5" d="M0,-3.0v7 M-2.5,-0.5L0,-3.0L2.5,-0.5"/>
                </g>
                <g id="arrowRight" xlink:href="#dirArrow" transform="rotate(90) translate(36 -43)" onmousedown="handlePan(1,0)">
                  <use xlink:href="#rim" fill="#404040">
                        <set attributeName="fill" to="#808080" begin="arrowRight.mouseover" end="arrowRight.mouseout"/>
                  </use>
                  <path fill="none" stroke="white" stroke-width="1.5" d="M0,-3.0v7 M-2.5,-0.5L0,-3.0L2.5,-0.5"/>
                </g>
                <g id="arrowDown" xlink:href="#dirArrow" transform="rotate(180) translate(-30 -48)" onmousedown="handlePan(0,1)">
                  <use xlink:href="#rim" fill="#404040">
                        <set attributeName="fill" to="#808080" begin="arrowDown.mouseover" end="arrowDown.mouseout"/>
                  </use>
                  <path fill="none" stroke="white" stroke-width="1.5" d="M0,-3.0v7 M-2.5,-0.5L0,-3.0L2.5,-0.5"/>
                </g>
                <g id="arrowLeft" xlink:href="#dirArrow" transform="rotate(270) translate(-36 17)" onmousedown="handlePan(-1,0)">
                  <use xlink:href="#rim" fill="#404040">
                        <set attributeName="fill" to="#808080" begin="arrowLeft.mouseover" end="arrowLeft.mouseout"/>
                  </use>
                  <path fill="none" stroke="white" stroke-width="1.5" d="M0,-3.0v7 M-2.5,-0.5L0,-3.0L2.5,-0.5"/>
                </g>
        </g>
        <svg viewBox="0 0 15 15" width="100%" height="30px" preserveAspectRatio="xMaxYMin meet">
         <g id="arrow_out" transform="scale(0.3 0.3)">
          <a xlink:href="hit__manager__bonus_8h_ad1c0dcb3141fe78ed26368ca7bb8d2b8_cgraph_org.svg" target="_base">
           <rect id="button" ry="5" rx="5" y="6" x="6" height="38" width="38"
                fill="#f2f5e9" fill-opacity="0.5" stroke="#606060" stroke-width="1.0"/>
           <path id="arrow"
             d="M 11.500037,31.436501 C 11.940474,20.09759 22.043105,11.32322 32.158766,21.979434 L 37.068811,17.246167 C 37.068811,17.246167 37.088388,32 37.088388,32 L 22.160133,31.978069 C 22.160133,31.978069 26.997745,27.140456 26.997745,27.140456 C 18.528582,18.264221 13.291696,25.230495 11.500037,31.436501 z"
             style="fill:#404040;"/>
          </a>
         </g>
        </svg>
</svg>
