<?xml version="1.0" encoding="UTF-8" standalone="no"?>
<!DOCTYPE svg PUBLIC "-//W3C//DTD SVG 1.1//EN"
 "http://www.w3.org/Graphics/SVG/1.1/DTD/svg11.dtd">
<!-- Generated by graphviz version 2.43.0 (0)
 -->
<!-- Title: ft_init_hitrecord Pages: 1 -->
<!--zoomable 240 -->
<svg id="main" version="1.1" xmlns="http://www.w3.org/2000/svg" xmlns:xlink="http://www.w3.org/1999/xlink" xml:space="preserve" onload="init(evt)">
<style type="text/css"><![CDATA[
.edge:hover path { stroke: red; }
.edge:hover polygon { stroke: red; fill: red; }
]]></style>
<script type="text/javascript"><![CDATA[
var edges = document.getElementsByTagName('g');
if (edges && edges.length) {
  for (var i=0;i<edges.length;i++) {
    if (edges[i].id.substr(0,4)=='edge') {
      edges[i].setAttribute('class','edge');
    }
  }
}
]]></script>
        <defs>
                <circle id="rim" cx="0" cy="0" r="7"/>
                <circle id="rim2" cx="0" cy="0" r="3.5"/>
                <g id="zoomPlus">
                        <use xlink:href="#rim" fill="#404040">
                                <set attributeName="fill" to="#808080" begin="zoomplus.mouseover" end="zoomplus.mouseout"/>
                        </use>
                        <path d="M-4,0h8M0,-4v8" fill="none" stroke="white" stroke-width="1.5" pointer-events="none"/>
                </g>
                <g id="zoomMin">
                        <use xlink:href="#rim" fill="#404040">
                                <set attributeName="fill" to="#808080" begin="zoomminus.mouseover" end="zoomminus.mouseout"/>
                        </use>
                        <path d="M-4,0h8" fill="none" stroke="white" stroke-width="1.5" pointer-events="none"/>
                </g>
                <g id="dirArrow">
                        <path fill="none" stroke="white" stroke-width="1.5" d="M0,-3.0v7 M-2.5,-0.5L0,-3.0L2.5,-0.5"/>
                </g>
               <g id="resetDef">
                       <use xlink:href="#rim2" fill="#404040">
                               <set attributeName="fill" to="#808080" begin="reset.mouseover" end="reset.mouseout"/>
                       </use>
               </g>
        </defs>

<script type="text/javascript">
var viewWidth = 2219;
var viewHeight = 240;
var sectionId = 'dynsection-1';
</script>
<script xlink:href="svgpan.js"/>
<svg id="graph" class="graph">
<g id="viewport">
<title>ft_init_hitrecord</title>
<!-- Node1 -->
<g id="node1" class="node">
<title>Node1</title>
<g id="a_node1"><a xlink:title="Initiates hitrecord struct.">
<polygon fill="#bfbfbf" stroke="black" points="2118,-108.61 2118,-127.61 2211,-127.61 2211,-108.61 2118,-108.61"/>
<text text-anchor="middle" x="2164.5" y="-115.61" font-family="Helvetica,sans-Serif" font-size="10.00">ft_init_hitrecord</text>
</a>
</g>
</g>
<!-- Node2 -->
<g id="node2" class="node">
<title>Node2</title>
<g id="a_node2"><a xlink:href="hit__manager__bonus_8h.html#aee5824df7f0e0c2698306f49f9a1c790" target="_top" xlink:title="Calculates potential hit of cone cap.">
<polygon fill="none" stroke="black" points="2002,-146.61 2002,-165.61 2082,-165.61 2082,-146.61 2002,-146.61"/>
<text text-anchor="middle" x="2042" y="-153.61" font-family="Helvetica,sans-Serif" font-size="10.00">ft_co_cap_hit</text>
</a>
</g>
</g>
<!-- Node1&#45;&gt;Node2 -->
<g id="edge1" class="edge">
<title>Node1&#45;&gt;Node2</title>
<path fill="none" stroke="midnightblue" d="M2123.29,-130.79C2107.01,-135.93 2088.52,-141.76 2073.4,-146.53"/>
<polygon fill="midnightblue" stroke="midnightblue" points="2124.61,-134.05 2133.09,-127.7 2122.5,-127.37 2124.61,-134.05"/>
</g>
<!-- Node4 -->
<g id="node4" class="node">
<title>Node4</title>
<g id="a_node4"><a xlink:href="hit__manager__bonus_8h.html#aebab6e1f11fc5b2e6c420276c9beee96" target="_top" xlink:title="Calculates if a cone was hit by a ray.">
<polygon fill="none" stroke="black" points="1751,-146.61 1751,-165.61 1821,-165.61 1821,-146.61 1751,-146.61"/>
<text text-anchor="middle" x="1786" y="-153.61" font-family="Helvetica,sans-Serif" font-size="10.00">ft_hit_cone</text>
</a>
</g>
</g>
<!-- Node1&#45;&gt;Node4 -->
<g id="edge29" class="edge">
<title>Node1&#45;&gt;Node4</title>
<path fill="none" stroke="midnightblue" d="M2146.43,-134.82C2131.03,-148.64 2107.01,-167.23 2082,-175.11 1986.62,-205.16 1956.12,-188.33 1857,-175.11 1843.02,-173.25 1827.87,-169.38 1815.26,-165.62"/>
<polygon fill="midnightblue" stroke="midnightblue" points="2149.12,-137.11 2154.05,-127.73 2144.35,-131.98 2149.12,-137.11"/>
</g>
<!-- Node6 -->
<g id="node6" class="node">
<title>Node6</title>
<g id="a_node6"><a xlink:href="lighting__bonus_8h.html#a7fe107fe556fd497ebfc4c4df70b83da" target="_top" xlink:title="Looks for the closest object hit by a ray.">
<polygon fill="none" stroke="black" points="1479,-146.61 1479,-165.61 1581,-165.61 1581,-146.61 1479,-146.61"/>
<text text-anchor="middle" x="1530" y="-153.61" font-family="Helvetica,sans-Serif" font-size="10.00">ft_get_closest_hit</text>
</a>
</g>
</g>
<!-- Node1&#45;&gt;Node6 -->
<g id="edge28" class="edge">
<title>Node1&#45;&gt;Node6</title>
<path fill="none" stroke="midnightblue" d="M2150.36,-135.77C2135.76,-154.07 2110.44,-182.06 2082,-197.11 2014.01,-233.09 1989.42,-232.11 1912.5,-232.11 1912.5,-232.11 1912.5,-232.11 1785,-232.11 1693.4,-232.11 1590.73,-186.19 1549.55,-165.74"/>
<polygon fill="midnightblue" stroke="midnightblue" points="2153.29,-137.72 2156.64,-127.67 2147.75,-133.43 2153.29,-137.72"/>
</g>
<!-- Node10 -->
<g id="node10" class="node">
<title>Node10</title>
<g id="a_node10"><a xlink:href="ray_8h.html#a2cffd188fb76990901db47a2c3ac638f" target="_top" xlink:title="Returns the colour of a ray.">
<polygon fill="none" stroke="black" points="959,-108.61 959,-127.61 1039,-127.61 1039,-108.61 959,-108.61"/>
<text text-anchor="middle" x="999" y="-115.61" font-family="Helvetica,sans-Serif" font-size="10.00">ft_ray_colour</text>
</a>
</g>
</g>
<!-- Node1&#45;&gt;Node10 -->
<g id="edge32" class="edge">
<title>Node1&#45;&gt;Node10</title>
<path fill="none" stroke="midnightblue" d="M2153.51,-99.63C2140.35,-77.3 2114.96,-40.55 2082,-23.11 2015,12.34 1988.31,-4.11 1912.5,-4.11 1912.5,-4.11 1912.5,-4.11 1237.5,-4.11 1141.45,-4.11 1043.17,-80.83 1010.95,-108.39"/>
<polygon fill="midnightblue" stroke="midnightblue" points="2150.56,-101.52 2158.54,-108.49 2156.65,-98.07 2150.56,-101.52"/>
</g>
<!-- Node23 -->
<g id="node23" class="node">
<title>Node23</title>
<g id="a_node23"><a xlink:href="lighting_8h.html#a931177e8edb2dd5393cef7a468389a4d" target="_top" xlink:title="Determines whether the shadow ray emitted from the point of intersection is blocked on its way to the...">
<polygon fill="none" stroke="black" points="1465,-70.61 1465,-89.61 1595,-89.61 1595,-70.61 1465,-70.61"/>
<text text-anchor="middle" x="1530" y="-77.61" font-family="Helvetica,sans-Serif" font-size="10.00">ft_shadow_ray_blocked</text>
</a>
</g>
</g>
<!-- Node1&#45;&gt;Node23 -->
<g id="edge33" class="edge">
<title>Node1&#45;&gt;Node23</title>
<path fill="none" stroke="midnightblue" d="M2114.69,-106.28C2064.35,-95.13 1983.42,-80.11 1912.5,-80.11 1912.5,-80.11 1912.5,-80.11 1785,-80.11 1720.4,-80.11 1646.55,-80.11 1595.2,-80.11"/>
<polygon fill="midnightblue" stroke="midnightblue" points="2114.12,-109.74 2124.65,-108.52 2115.66,-102.91 2114.12,-109.74"/>
</g>
<!-- Node24 -->
<g id="node24" class="node">
<title>Node24</title>
<g id="a_node24"><a xlink:href="hit__manager_8h.html#af2540784b9e01fbdfeacb544ea2c169a" target="_top" xlink:title="Calculates the hit point of the ray with the cylinder cap.">
<polygon fill="none" stroke="black" points="2002,-32.61 2002,-51.61 2082,-51.61 2082,-32.61 2002,-32.61"/>
<text text-anchor="middle" x="2042" y="-39.61" font-family="Helvetica,sans-Serif" font-size="10.00">ft_cy_cap_hit</text>
</a>
</g>
</g>
<!-- Node1&#45;&gt;Node24 -->
<g id="edge27" class="edge">
<title>Node1&#45;&gt;Node24</title>
<path fill="none" stroke="midnightblue" d="M2139.7,-102.79C2123.49,-92.38 2101.5,-78.33 2082,-66.11 2074.32,-61.3 2065.75,-56.02 2058.6,-51.63"/>
<polygon fill="midnightblue" stroke="midnightblue" points="2138.22,-105.99 2148.53,-108.46 2142,-100.11 2138.22,-105.99"/>
</g>
<!-- Node25 -->
<g id="node25" class="node">
<title>Node25</title>
<g id="a_node25"><a xlink:href="hit__manager_8h.html#ad1c0dcb3141fe78ed26368ca7bb8d2b8" target="_top" xlink:title="Calculates if a cylinder was hit by a ray.">
<polygon fill="none" stroke="black" points="1868.5,-108.61 1868.5,-127.61 1954.5,-127.61 1954.5,-108.61 1868.5,-108.61"/>
<text text-anchor="middle" x="1911.5" y="-115.61" font-family="Helvetica,sans-Serif" font-size="10.00">ft_hit_cylinder</text>
</a>
</g>
</g>
<!-- Node1&#45;&gt;Node25 -->
<g id="edge30" class="edge">
<title>Node1&#45;&gt;Node25</title>
<path fill="none" stroke="midnightblue" d="M2107.59,-118.11C2061.31,-118.11 1996.57,-118.11 1954.59,-118.11"/>
<polygon fill="midnightblue" stroke="midnightblue" points="2107.75,-121.61 2117.75,-118.11 2107.75,-114.61 2107.75,-121.61"/>
</g>
<!-- Node3 -->
<g id="node3" class="node">
<title>Node3</title>
<g id="a_node3"><a xlink:href="hit__manager__bonus_8h.html#a9752309af1756a6360c6459ed6747f83" target="_top" xlink:title="Calculates potential hits of a cone.">
<polygon fill="none" stroke="black" points="1857,-146.61 1857,-165.61 1966,-165.61 1966,-146.61 1857,-146.61"/>
<text text-anchor="middle" x="1911.5" y="-153.61" font-family="Helvetica,sans-Serif" font-size="10.00">ft_co_calc_pot_hits</text>
</a>
</g>
</g>
<!-- Node2&#45;&gt;Node3 -->
<g id="edge2" class="edge">
<title>Node2&#45;&gt;Node3</title>
<path fill="none" stroke="midnightblue" d="M1991.48,-156.11C1983.2,-156.11 1974.57,-156.11 1966.18,-156.11"/>
<polygon fill="midnightblue" stroke="midnightblue" points="1991.75,-159.61 2001.75,-156.11 1991.75,-152.61 1991.75,-159.61"/>
</g>
<!-- Node3&#45;&gt;Node4 -->
<g id="edge3" class="edge">
<title>Node3&#45;&gt;Node4</title>
<path fill="none" stroke="midnightblue" d="M1846.43,-156.11C1837.68,-156.11 1829,-156.11 1821.08,-156.11"/>
<polygon fill="midnightblue" stroke="midnightblue" points="1846.69,-159.61 1856.69,-156.11 1846.69,-152.61 1846.69,-159.61"/>
</g>
<!-- Node5 -->
<g id="node5" class="node">
<title>Node5</title>
<g id="a_node5"><a xlink:href="hit__manager_8h.html#a9d5972226064b0a4d0e1359d9230abec" target="_top" xlink:title="Investigate a hittable and returns whether a hit occured or not.">
<polygon fill="none" stroke="black" points="1631,-108.61 1631,-127.61 1715,-127.61 1715,-108.61 1631,-108.61"/>
<text text-anchor="middle" x="1673" y="-115.61" font-family="Helvetica,sans-Serif" font-size="10.00">ft_hit_hittable</text>
</a>
</g>
</g>
<!-- Node4&#45;&gt;Node5 -->
<g id="edge4" class="edge">
<title>Node4&#45;&gt;Node5</title>
<path fill="none" stroke="midnightblue" d="M1747.11,-143.14C1732.32,-138.08 1715.67,-132.38 1702,-127.7"/>
<polygon fill="midnightblue" stroke="midnightblue" points="1746.4,-146.6 1756.99,-146.52 1748.66,-139.97 1746.4,-146.6"/>
</g>
<!-- Node5&#45;&gt;Node6 -->
<g id="edge5" class="edge">
<title>Node5&#45;&gt;Node6</title>
<path fill="none" stroke="midnightblue" d="M1626.56,-130.36C1607.13,-135.6 1584.77,-141.62 1566.57,-146.53"/>
<polygon fill="midnightblue" stroke="midnightblue" points="1627.68,-133.68 1636.42,-127.7 1625.85,-126.93 1627.68,-133.68"/>
</g>
<!-- Node5&#45;&gt;Node10 -->
<g id="edge25" class="edge">
<title>Node5&#45;&gt;Node10</title>
<path fill="none" stroke="midnightblue" d="M1620.75,-118.11C1562.35,-118.11 1464.05,-118.11 1379.5,-118.11 1379.5,-118.11 1379.5,-118.11 1237.5,-118.11 1167.61,-118.11 1086.15,-118.11 1039.08,-118.11"/>
<polygon fill="midnightblue" stroke="midnightblue" points="1620.83,-121.61 1630.83,-118.11 1620.83,-114.61 1620.83,-121.61"/>
</g>
<!-- Node5&#45;&gt;Node23 -->
<g id="edge26" class="edge">
<title>Node5&#45;&gt;Node23</title>
<path fill="none" stroke="midnightblue" d="M1626.56,-105.87C1607.13,-100.63 1584.77,-94.6 1566.57,-89.7"/>
<polygon fill="midnightblue" stroke="midnightblue" points="1625.85,-109.3 1636.42,-108.52 1627.68,-102.54 1625.85,-109.3"/>
</g>
<!-- Node7 -->
<g id="node7" class="node">
<title>Node7</title>
<g id="a_node7"><a xlink:href="lighting__bonus_8h.html#ab380b8bbadc80a5a668141c8edcc4754" target="_top" xlink:title="Create reflective lighting by recursion.">
<polygon fill="none" stroke="black" points="1328,-146.61 1328,-165.61 1429,-165.61 1429,-146.61 1328,-146.61"/>
<text text-anchor="middle" x="1378.5" y="-153.61" font-family="Helvetica,sans-Serif" font-size="10.00">ft_reflective_light</text>
</a>
</g>
</g>
<!-- Node6&#45;&gt;Node7 -->
<g id="edge6" class="edge">
<title>Node6&#45;&gt;Node7</title>
<path fill="none" stroke="midnightblue" d="M1468.46,-156.11C1455.37,-156.11 1441.67,-156.11 1429.06,-156.11"/>
<polygon fill="midnightblue" stroke="midnightblue" points="1468.8,-159.61 1478.8,-156.11 1468.8,-152.61 1468.8,-159.61"/>
</g>
<!-- Node8 -->
<g id="node8" class="node">
<title>Node8</title>
<g id="a_node8"><a xlink:href="lighting__bonus_8h.html#a31af89240f5ffa2f65f1525d06121d73" target="_top" xlink:title="Computes the colour of light interacting with different material properties.">
<polygon fill="none" stroke="black" points="1185,-146.61 1185,-165.61 1292,-165.61 1292,-146.61 1185,-146.61"/>
<text text-anchor="middle" x="1238.5" y="-153.61" font-family="Helvetica,sans-Serif" font-size="10.00">ft_compute_colour</text>
</a>
</g>
</g>
<!-- Node7&#45;&gt;Node8 -->
<g id="edge7" class="edge">
<title>Node7&#45;&gt;Node8</title>
<path fill="none" stroke="midnightblue" d="M1317.48,-149.41C1309.01,-149.32 1300.35,-149.36 1292.04,-149.54"/>
<polygon fill="midnightblue" stroke="midnightblue" points="1317.62,-152.92 1327.68,-149.6 1317.74,-145.92 1317.62,-152.92"/>
</g>
<!-- Node8&#45;&gt;Node7 -->
<g id="edge24" class="edge">
<title>Node8&#45;&gt;Node7</title>
<path fill="none" stroke="midnightblue" d="M1302.31,-162.84C1310.82,-162.91 1319.45,-162.83 1327.68,-162.63"/>
<polygon fill="midnightblue" stroke="midnightblue" points="1302.09,-159.34 1292.04,-162.69 1301.99,-166.34 1302.09,-159.34"/>
</g>
<!-- Node9 -->
<g id="node9" class="node">
<title>Node9</title>
<g id="a_node9"><a xlink:href="lighting_8h.html#a3d54436a3f695a60b1c2d9e504a61de8" target="_top" xlink:title="Calculate the effect of different lighting on perception.">
<polygon fill="none" stroke="black" points="1075,-146.61 1075,-165.61 1149,-165.61 1149,-146.61 1075,-146.61"/>
<text text-anchor="middle" x="1112" y="-153.61" font-family="Helvetica,sans-Serif" font-size="10.00">ft_enlighten</text>
</a>
</g>
</g>
<!-- Node8&#45;&gt;Node9 -->
<g id="edge8" class="edge">
<title>Node8&#45;&gt;Node9</title>
<path fill="none" stroke="midnightblue" d="M1174.56,-156.11C1165.9,-156.11 1157.25,-156.11 1149.3,-156.11"/>
<polygon fill="midnightblue" stroke="midnightblue" points="1174.7,-159.61 1184.7,-156.11 1174.7,-152.61 1174.7,-159.61"/>
</g>
<!-- Node9&#45;&gt;Node10 -->
<g id="edge9" class="edge">
<title>Node9&#45;&gt;Node10</title>
<path fill="none" stroke="midnightblue" d="M1073.11,-143.14C1058.32,-138.08 1041.67,-132.38 1028,-127.7"/>
<polygon fill="midnightblue" stroke="midnightblue" points="1072.4,-146.6 1082.99,-146.52 1074.66,-139.97 1072.4,-146.6"/>
</g>
<!-- Node11 -->
<g id="node11" class="node">
<title>Node11</title>
<g id="a_node11"><a xlink:href="render__bonus_8h.html#af5fa16c9ea3d6e6884604009e31c83de" target="_top" xlink:title="Constructs a random sample ray for anti&#45;aliasing.">
<polygon fill="none" stroke="black" points="829,-130.61 829,-149.61 923,-149.61 923,-130.61 829,-130.61"/>
<text text-anchor="middle" x="876" y="-137.61" font-family="Helvetica,sans-Serif" font-size="10.00">ft_shoot_aa_ray</text>
</a>
</g>
</g>
<!-- Node10&#45;&gt;Node11 -->
<g id="edge10" class="edge">
<title>Node10&#45;&gt;Node11</title>
<path fill="none" stroke="midnightblue" d="M948.66,-127.08C940.26,-128.61 931.57,-130.19 923.25,-131.7"/>
<polygon fill="midnightblue" stroke="midnightblue" points="949.5,-130.49 958.71,-125.26 948.25,-123.6 949.5,-130.49"/>
</g>
<!-- Node15 -->
<g id="node15" class="node">
<title>Node15</title>
<g id="a_node15"><a xlink:href="render_8h.html#a8d0bd9d9ea57df013aa96dee7558d4b3" target="_top" xlink:title="Constructs a ray and shoots it through the pixel.">
<polygon fill="none" stroke="black" points="837.5,-86.61 837.5,-105.61 914.5,-105.61 914.5,-86.61 837.5,-86.61"/>
<text text-anchor="middle" x="876" y="-93.61" font-family="Helvetica,sans-Serif" font-size="10.00">ft_shoot_ray</text>
</a>
</g>
</g>
<!-- Node10&#45;&gt;Node15 -->
<g id="edge15" class="edge">
<title>Node10&#45;&gt;Node15</title>
<path fill="none" stroke="midnightblue" d="M948.57,-109.13C937.32,-107.08 925.54,-104.94 914.85,-103"/>
<polygon fill="midnightblue" stroke="midnightblue" points="948.25,-112.63 958.71,-110.97 949.5,-105.74 948.25,-112.63"/>
</g>
<!-- Node12 -->
<g id="node12" class="node">
<title>Node12</title>
<g id="a_node12"><a xlink:href="render__bonus_8h.html#afef92ac33f530ff1e1ca1049ffa14d23" target="_top" xlink:title="Raytraces the scene and adds it to the sample buffer.">
<polygon fill="none" stroke="black" points="659,-174.61 659,-193.61 793,-193.61 793,-174.61 659,-174.61"/>
<text text-anchor="middle" x="726" y="-181.61" font-family="Helvetica,sans-Serif" font-size="10.00">ft_add_raytrace_sample</text>
</a>
</g>
</g>
<!-- Node11&#45;&gt;Node12 -->
<g id="edge11" class="edge">
<title>Node11&#45;&gt;Node12</title>
<path fill="none" stroke="midnightblue" d="M833.17,-152.55C809.66,-159.54 780.76,-168.13 759.05,-174.58"/>
<polygon fill="midnightblue" stroke="midnightblue" points="834.3,-155.87 842.89,-149.66 832.3,-149.16 834.3,-155.87"/>
</g>
<!-- Node14 -->
<g id="node14" class="node">
<title>Node14</title>
<g id="a_node14"><a xlink:href="render__bonus_8h.html#a6f833a234cbdbc69ce5458c79d1242a1" target="_top" xlink:title="Like ft_add_raytrace_sample(), but threaded.">
<polygon fill="none" stroke="black" points="659,-125.11 659,-155.11 793,-155.11 793,-125.11 659,-125.11"/>
<text text-anchor="start" x="667" y="-143.11" font-family="Helvetica,sans-Serif" font-size="10.00">ft_add_raytrace_sample</text>
<text text-anchor="middle" x="726" y="-132.11" font-family="Helvetica,sans-Serif" font-size="10.00">_threaded</text>
</a>
</g>
</g>
<!-- Node11&#45;&gt;Node14 -->
<g id="edge13" class="edge">
<title>Node11&#45;&gt;Node14</title>
<path fill="none" stroke="midnightblue" d="M818.9,-140.11C810.47,-140.11 801.71,-140.11 793.09,-140.11"/>
<polygon fill="midnightblue" stroke="midnightblue" points="818.98,-143.61 828.98,-140.11 818.98,-136.61 818.98,-143.61"/>
</g>
<!-- Node13 -->
<g id="node13" class="node">
<title>Node13</title>
<g id="a_node13"><a xlink:href="render__bonus_8h.html#a46e5a7c75a4d9fb06252d28cf8d18821" target="_top" xlink:title="Raytraces a sample of the scene and adds it to the sample buffer.">
<polygon fill="none" stroke="black" points="506,-152.61 506,-171.61 623,-171.61 623,-152.61 506,-152.61"/>
<text text-anchor="middle" x="564.5" y="-159.61" font-family="Helvetica,sans-Serif" font-size="10.00">ft_anti_alias_sample</text>
</a>
</g>
</g>
<!-- Node12&#45;&gt;Node13 -->
<g id="edge12" class="edge">
<title>Node12&#45;&gt;Node13</title>
<path fill="none" stroke="midnightblue" d="M648.7,-173.59C640.11,-172.4 631.47,-171.21 623.17,-170.07"/>
<polygon fill="midnightblue" stroke="midnightblue" points="648.36,-177.08 658.74,-174.97 649.32,-170.14 648.36,-177.08"/>
</g>
<!-- Node14&#45;&gt;Node13 -->
<g id="edge14" class="edge">
<title>Node14&#45;&gt;Node13</title>
<path fill="none" stroke="midnightblue" d="M648.7,-150.64C640.11,-151.82 631.47,-153.01 623.17,-154.16"/>
<polygon fill="midnightblue" stroke="midnightblue" points="649.32,-154.09 658.74,-149.25 648.36,-147.15 649.32,-154.09"/>
</g>
<!-- Node16 -->
<g id="node16" class="node">
<title>Node16</title>
<g id="a_node16"><a xlink:href="render__bonus_8h.html#a396a2e84d5040d414ec16ab32303c8d1" target="_top" xlink:title="Raytraces the scene to the sample buffer.">
<polygon fill="none" stroke="black" points="671,-86.61 671,-105.61 781,-105.61 781,-86.61 671,-86.61"/>
<text text-anchor="middle" x="726" y="-93.61" font-family="Helvetica,sans-Serif" font-size="10.00">ft_raytrace_sample</text>
</a>
</g>
</g>
<!-- Node15&#45;&gt;Node16 -->
<g id="edge16" class="edge">
<title>Node15&#45;&gt;Node16</title>
<path fill="none" stroke="midnightblue" d="M826.93,-96.11C812.31,-96.11 796.13,-96.11 781.14,-96.11"/>
<polygon fill="midnightblue" stroke="midnightblue" points="827.27,-99.61 837.27,-96.11 827.27,-92.61 827.27,-99.61"/>
</g>
<!-- Node22 -->
<g id="node22" class="node">
<title>Node22</title>
<g id="a_node22"><a xlink:href="render__bonus_8h.html#a5d5ed6b28be3a532b4e17bd4a05df4d3" target="_top" xlink:title="Like ft_raytrace_sample(), but threaded.">
<polygon fill="none" stroke="black" points="671,-37.11 671,-67.11 781,-67.11 781,-37.11 671,-37.11"/>
<text text-anchor="start" x="679" y="-55.11" font-family="Helvetica,sans-Serif" font-size="10.00">ft_raytrace_sample</text>
<text text-anchor="middle" x="726" y="-44.11" font-family="Helvetica,sans-Serif" font-size="10.00">_threaded</text>
</a>
</g>
</g>
<!-- Node15&#45;&gt;Node22 -->
<g id="edge22" class="edge">
<title>Node15&#45;&gt;Node22</title>
<path fill="none" stroke="midnightblue" d="M833.11,-83.66C815.86,-78.53 795.74,-72.55 777.67,-67.18"/>
<polygon fill="midnightblue" stroke="midnightblue" points="832.3,-87.07 842.89,-86.57 834.3,-80.36 832.3,-87.07"/>
</g>
<!-- Node17 -->
<g id="node17" class="node">
<title>Node17</title>
<g id="a_node17"><a xlink:href="render__bonus_8h.html#a0ab696b1752ed3551f1cf8d8c2e7c5d8" target="_top" xlink:title="Raytraces a single sample of the scene to the sample buffer.">
<polygon fill="none" stroke="black" points="515,-64.61 515,-83.61 614,-83.61 614,-64.61 515,-64.61"/>
<text text-anchor="middle" x="564.5" y="-71.61" font-family="Helvetica,sans-Serif" font-size="10.00">ft_single_sample</text>
</a>
</g>
</g>
<!-- Node16&#45;&gt;Node17 -->
<g id="edge17" class="edge">
<title>Node16&#45;&gt;Node17</title>
<path fill="none" stroke="midnightblue" d="M660.51,-87.22C645.02,-85.08 628.72,-82.83 614.09,-80.82"/>
<polygon fill="midnightblue" stroke="midnightblue" points="660.17,-90.7 670.56,-88.6 661.13,-83.77 660.17,-90.7"/>
</g>
<!-- Node18 -->
<g id="node18" class="node">
<title>Node18</title>
<g id="a_node18"><a xlink:href="render__bonus_8h.html#a9c57490cfa20448a418091aa47a49245" target="_top" xlink:title="Raytraces a sample of the scene to the sample buffer.">
<polygon fill="none" stroke="black" points="369,-64.61 369,-83.61 470,-83.61 470,-64.61 369,-64.61"/>
<text text-anchor="middle" x="419.5" y="-71.61" font-family="Helvetica,sans-Serif" font-size="10.00">ft_render_sample</text>
</a>
</g>
</g>
<!-- Node17&#45;&gt;Node18 -->
<g id="edge18" class="edge">
<title>Node17&#45;&gt;Node18</title>
<path fill="none" stroke="midnightblue" d="M504.37,-74.11C492.96,-74.11 481.13,-74.11 470.06,-74.11"/>
<polygon fill="midnightblue" stroke="midnightblue" points="504.69,-77.61 514.69,-74.11 504.69,-70.61 504.69,-77.61"/>
</g>
<!-- Node19 -->
<g id="node19" class="node">
<title>Node19</title>
<g id="a_node19"><a xlink:href="render_8h.html#a012503b6ad6ee8198a601dad994c09b7" target="_top" xlink:title="Main loop of the program.">
<polygon fill="none" stroke="black" points="227,-64.61 227,-83.61 333,-83.61 333,-64.61 227,-64.61"/>
<text text-anchor="middle" x="280" y="-71.61" font-family="Helvetica,sans-Serif" font-size="10.00">ft_programm_loop</text>
</a>
</g>
</g>
<!-- Node18&#45;&gt;Node19 -->
<g id="edge19" class="edge">
<title>Node18&#45;&gt;Node19</title>
<path fill="none" stroke="midnightblue" d="M358.69,-74.11C350.25,-74.11 341.63,-74.11 333.35,-74.11"/>
<polygon fill="midnightblue" stroke="midnightblue" points="358.86,-77.61 368.86,-74.11 358.86,-70.61 358.86,-77.61"/>
</g>
<!-- Node20 -->
<g id="node20" class="node">
<title>Node20</title>
<g id="a_node20"><a xlink:href="render_8h.html#ab7a01aa5d27d2fad2942a43a31ae0d52" target="_top" xlink:title="Starts the mlx loop.">
<polygon fill="none" stroke="black" points="77,-64.61 77,-83.61 191,-83.61 191,-64.61 77,-64.61"/>
<text text-anchor="middle" x="134" y="-71.61" font-family="Helvetica,sans-Serif" font-size="10.00">ft_render_start_loop</text>
</a>
</g>
</g>
<!-- Node19&#45;&gt;Node20 -->
<g id="edge20" class="edge">
<title>Node19&#45;&gt;Node20</title>
<path fill="none" stroke="midnightblue" d="M216.56,-74.11C208.22,-74.11 199.71,-74.11 191.48,-74.11"/>
<polygon fill="midnightblue" stroke="midnightblue" points="216.61,-77.61 226.61,-74.11 216.61,-70.61 216.61,-77.61"/>
</g>
<!-- Node21 -->
<g id="node21" class="node">
<title>Node21</title>
<g id="a_node21"><a xlink:href="main_8c.html#a3c04138a5bfe5d72780bb7e82a18e627" target="_top" xlink:title=" ">
<polygon fill="none" stroke="black" points="0,-64.61 0,-83.61 41,-83.61 41,-64.61 0,-64.61"/>
<text text-anchor="middle" x="20.5" y="-71.61" font-family="Helvetica,sans-Serif" font-size="10.00">main</text>
</a>
</g>
</g>
<!-- Node20&#45;&gt;Node21 -->
<g id="edge21" class="edge">
<title>Node20&#45;&gt;Node21</title>
<path fill="none" stroke="midnightblue" d="M66.7,-74.11C57.37,-74.11 48.45,-74.11 41.04,-74.11"/>
<polygon fill="midnightblue" stroke="midnightblue" points="66.92,-77.61 76.92,-74.11 66.92,-70.61 66.92,-77.61"/>
</g>
<!-- Node22&#45;&gt;Node17 -->
<g id="edge23" class="edge">
<title>Node22&#45;&gt;Node17</title>
<path fill="none" stroke="midnightblue" d="M660.51,-61.01C645.02,-63.15 628.72,-65.39 614.09,-67.41"/>
<polygon fill="midnightblue" stroke="midnightblue" points="661.13,-64.46 670.56,-59.62 660.17,-57.52 661.13,-64.46"/>
</g>
<!-- Node25&#45;&gt;Node5 -->
<g id="edge31" class="edge">
<title>Node25&#45;&gt;Node5</title>
<path fill="none" stroke="midnightblue" d="M1858.48,-118.11C1815.4,-118.11 1755.01,-118.11 1715.22,-118.11"/>
<polygon fill="midnightblue" stroke="midnightblue" points="1858.49,-121.61 1868.49,-118.11 1858.49,-114.61 1858.49,-121.61"/>
</g>
</g>
</svg>
        <g id="navigator" transform="translate(0 0)" fill="#404254">
                <rect fill="#f2f5e9" fill-opacity="0.5" stroke="#606060" stroke-width=".5" x="0" y="0" width="60" height="60"/>
                <use id="zoomplus" xlink:href="#zoomPlus" x="17" y="9" onmousedown="handleZoom(evt,'in')"/>
                <use id="zoomminus" xlink:href="#zoomMin" x="42" y="9" onmousedown="handleZoom(evt,'out')"/>
                <use id="reset" xlink:href="#resetDef" x="30" y="36" onmousedown="handleReset()"/>
                <g id="arrowUp" xlink:href="#dirArrow" transform="translate(30 24)" onmousedown="handlePan(0,-1)">
                  <use xlink:href="#rim" fill="#404040">
                        <set attributeName="fill" to="#808080" begin="arrowUp.mouseover" end="arrowUp.mouseout"/>
                  </use>
                  <path fill="none" stroke="white" stroke-width="1.5" d="M0,-3.0v7 M-2.5,-0.5L0,-3.0L2.5,-0.5"/>
                </g>
                <g id="arrowRight" xlink:href="#dirArrow" transform="rotate(90) translate(36 -43)" onmousedown="handlePan(1,0)">
                  <use xlink:href="#rim" fill="#404040">
                        <set attributeName="fill" to="#808080" begin="arrowRight.mouseover" end="arrowRight.mouseout"/>
                  </use>
                  <path fill="none" stroke="white" stroke-width="1.5" d="M0,-3.0v7 M-2.5,-0.5L0,-3.0L2.5,-0.5"/>
                </g>
                <g id="arrowDown" xlink:href="#dirArrow" transform="rotate(180) translate(-30 -48)" onmousedown="handlePan(0,1)">
                  <use xlink:href="#rim" fill="#404040">
                        <set attributeName="fill" to="#808080" begin="arrowDown.mouseover" end="arrowDown.mouseout"/>
                  </use>
                  <path fill="none" stroke="white" stroke-width="1.5" d="M0,-3.0v7 M-2.5,-0.5L0,-3.0L2.5,-0.5"/>
                </g>
                <g id="arrowLeft" xlink:href="#dirArrow" transform="rotate(270) translate(-36 17)" onmousedown="handlePan(-1,0)">
                  <use xlink:href="#rim" fill="#404040">
                        <set attributeName="fill" to="#808080" begin="arrowLeft.mouseover" end="arrowLeft.mouseout"/>
                  </use>
                  <path fill="none" stroke="white" stroke-width="1.5" d="M0,-3.0v7 M-2.5,-0.5L0,-3.0L2.5,-0.5"/>
                </g>
        </g>
        <svg viewBox="0 0 15 15" width="100%" height="30px" preserveAspectRatio="xMaxYMin meet">
         <g id="arrow_out" transform="scale(0.3 0.3)">
          <a xlink:href="hit__bonus_8c_aa5acefb1538a700dc595870ad630f83d_icgraph_org.svg" target="_base">
           <rect id="button" ry="5" rx="5" y="6" x="6" height="38" width="38"
                fill="#f2f5e9" fill-opacity="0.5" stroke="#606060" stroke-width="1.0"/>
           <path id="arrow"
             d="M 11.500037,31.436501 C 11.940474,20.09759 22.043105,11.32322 32.158766,21.979434 L 37.068811,17.246167 C 37.068811,17.246167 37.088388,32 37.088388,32 L 22.160133,31.978069 C 22.160133,31.978069 26.997745,27.140456 26.997745,27.140456 C 18.528582,18.264221 13.291696,25.230495 11.500037,31.436501 z"
             style="fill:#404040;"/>
          </a>
         </g>
        </svg>
</svg>
