<?xml version="1.0" encoding="UTF-8" standalone="no"?>
<!DOCTYPE svg PUBLIC "-//W3C//DTD SVG 1.1//EN"
 "http://www.w3.org/Graphics/SVG/1.1/DTD/svg11.dtd">
<!-- Generated by graphviz version 2.43.0 (0)
 -->
<!-- Title: ft_cy_cap_hit Pages: 1 -->
<svg width="449pt" height="218pt"
 viewBox="0.00 0.00 449.00 218.00" xmlns="http://www.w3.org/2000/svg" xmlns:xlink="http://www.w3.org/1999/xlink">
<g id="graph0" class="graph" transform="scale(1 1) rotate(0) translate(4 214)">
<title>ft_cy_cap_hit</title>
<!-- Node1 -->
<g id="node1" class="node">
<title>Node1</title>
<g id="a_node1"><a xlink:title="Calculates the hit point of the ray with the cylinder cap.">
<polygon fill="#bfbfbf" stroke="black" points="0,-76.5 0,-95.5 80,-95.5 80,-76.5 0,-76.5"/>
<text text-anchor="middle" x="40" y="-83.5" font-family="Helvetica,sans-Serif" font-size="10.00">ft_cy_cap_hit</text>
</a>
</g>
</g>
<!-- Node2 -->
<g id="node2" class="node">
<title>Node2</title>
<g id="a_node2"><a xlink:href="hit__manager_8h.html#a04f04eb6383f01a28b0c7201ab52782e" target="_top" xlink:title="Calculates if a plane was hit by a ray.">
<polygon fill="none" stroke="black" points="125.5,-95.5 125.5,-114.5 199.5,-114.5 199.5,-95.5 125.5,-95.5"/>
<text text-anchor="middle" x="162.5" y="-102.5" font-family="Helvetica,sans-Serif" font-size="10.00">ft_hit_plane</text>
</a>
</g>
</g>
<!-- Node1&#45;&gt;Node2 -->
<g id="edge1" class="edge">
<title>Node1&#45;&gt;Node2</title>
<path fill="none" stroke="midnightblue" d="M80.12,-92.17C91.39,-93.95 103.79,-95.9 115.44,-97.74"/>
<polygon fill="midnightblue" stroke="midnightblue" points="115.01,-101.21 125.43,-99.31 116.1,-94.3 115.01,-101.21"/>
</g>
<!-- Node10 -->
<g id="node10" class="node">
<title>Node10</title>
<g id="a_node10"><a xlink:href="hit__manager_8h.html#aa5acefb1538a700dc595870ad630f83d" target="_top" xlink:title="Initiates hitrecord struct.">
<polygon fill="none" stroke="black" points="116,-57.5 116,-76.5 209,-76.5 209,-57.5 116,-57.5"/>
<text text-anchor="middle" x="162.5" y="-64.5" font-family="Helvetica,sans-Serif" font-size="10.00">ft_init_hitrecord</text>
</a>
</g>
</g>
<!-- Node1&#45;&gt;Node10 -->
<g id="edge10" class="edge">
<title>Node1&#45;&gt;Node10</title>
<path fill="none" stroke="midnightblue" d="M80.12,-79.83C88.32,-78.54 97.12,-77.15 105.79,-75.78"/>
<polygon fill="midnightblue" stroke="midnightblue" points="106.53,-79.21 115.87,-74.2 105.44,-72.3 106.53,-79.21"/>
</g>
<!-- Node3 -->
<g id="node3" class="node">
<title>Node3</title>
<g id="a_node3"><a xlink:href="ray_8h.html#ac56e9ac7acfb4658469e190c022b0d63" target="_top" xlink:title="Represents a ray.">
<polygon fill="none" stroke="black" points="246,-190.5 246,-209.5 321,-209.5 321,-190.5 246,-190.5"/>
<text text-anchor="middle" x="283.5" y="-197.5" font-family="Helvetica,sans-Serif" font-size="10.00">ft_scale_ray</text>
</a>
</g>
</g>
<!-- Node2&#45;&gt;Node3 -->
<g id="edge2" class="edge">
<title>Node2&#45;&gt;Node3</title>
<path fill="none" stroke="midnightblue" d="M173.64,-114.7C188.66,-128.87 217.97,-155.75 245,-176 249.04,-179.03 253.46,-182.07 257.8,-184.93"/>
<polygon fill="midnightblue" stroke="midnightblue" points="256.15,-188.03 266.46,-190.46 259.92,-182.13 256.15,-188.03"/>
</g>
<!-- Node5 -->
<g id="node5" class="node">
<title>Node5</title>
<g id="a_node5"><a xlink:href="vec3_8h.html#ac80a1c20941c96a8fafad255dac59092" target="_top" xlink:title="Scale a vector.">
<polygon fill="none" stroke="black" points="358,-152.5 358,-171.5 441,-171.5 441,-152.5 358,-152.5"/>
<text text-anchor="middle" x="399.5" y="-159.5" font-family="Helvetica,sans-Serif" font-size="10.00">ft_vec3_scale</text>
</a>
</g>
</g>
<!-- Node2&#45;&gt;Node5 -->
<g id="edge8" class="edge">
<title>Node2&#45;&gt;Node5</title>
<path fill="none" stroke="midnightblue" d="M180.07,-114.62C196.13,-123.47 221.44,-136.23 245,-143 278.36,-152.58 317.17,-157.33 347.41,-159.69"/>
<polygon fill="midnightblue" stroke="midnightblue" points="347.51,-163.2 357.73,-160.42 348.01,-156.22 347.51,-163.2"/>
</g>
<!-- Node6 -->
<g id="node6" class="node">
<title>Node6</title>
<g id="a_node6"><a xlink:href="utils_8h.html#ae65513c75ce8a8538c22393e0af3ab1f" target="_top" xlink:title="Solves the given equation.">
<polygon fill="none" stroke="black" points="256,-114.5 256,-133.5 311,-133.5 311,-114.5 256,-114.5"/>
<text text-anchor="middle" x="283.5" y="-121.5" font-family="Helvetica,sans-Serif" font-size="10.00">ft_solve</text>
</a>
</g>
</g>
<!-- Node2&#45;&gt;Node6 -->
<g id="edge5" class="edge">
<title>Node2&#45;&gt;Node6</title>
<path fill="none" stroke="midnightblue" d="M199.53,-110.75C214.06,-113.07 230.82,-115.75 245.45,-118.08"/>
<polygon fill="midnightblue" stroke="midnightblue" points="245.24,-121.6 255.67,-119.72 246.35,-114.68 245.24,-121.6"/>
</g>
<!-- Node7 -->
<g id="node7" class="node">
<title>Node7</title>
<g id="a_node7"><a xlink:href="utils_8h.html#add4de5ba94d3f8475d0a1c4ce8abd3aa" target="_top" xlink:title="Determines if value is surrounded by the interval.">
<polygon fill="none" stroke="black" points="245,-76.5 245,-95.5 322,-95.5 322,-76.5 245,-76.5"/>
<text text-anchor="middle" x="283.5" y="-83.5" font-family="Helvetica,sans-Serif" font-size="10.00">ft_surrounds</text>
</a>
</g>
</g>
<!-- Node2&#45;&gt;Node7 -->
<g id="edge6" class="edge">
<title>Node2&#45;&gt;Node7</title>
<path fill="none" stroke="midnightblue" d="M199.53,-99.25C210.64,-97.47 223.05,-95.49 234.82,-93.61"/>
<polygon fill="midnightblue" stroke="midnightblue" points="235.62,-97.03 244.95,-92 234.52,-90.12 235.62,-97.03"/>
</g>
<!-- Node8 -->
<g id="node8" class="node">
<title>Node8</title>
<g id="a_node8"><a xlink:href="vec3_8h.html#a89fd02ae4b8b3602bc001664eb5e8f91" target="_top" xlink:title="Calculate the scalar product of two vectors.">
<polygon fill="none" stroke="black" points="247,-38.5 247,-57.5 320,-57.5 320,-38.5 247,-38.5"/>
<text text-anchor="middle" x="283.5" y="-45.5" font-family="Helvetica,sans-Serif" font-size="10.00">ft_vec3_dot</text>
</a>
</g>
</g>
<!-- Node2&#45;&gt;Node8 -->
<g id="edge7" class="edge">
<title>Node2&#45;&gt;Node8</title>
<path fill="none" stroke="midnightblue" d="M187.76,-95.34C194.68,-92.46 202.19,-89.21 209,-86 225.36,-78.28 228.93,-75.31 245,-67 247.98,-65.46 251.1,-63.86 254.22,-62.27"/>
<polygon fill="midnightblue" stroke="midnightblue" points="256.06,-65.26 263.39,-57.6 252.89,-59.01 256.06,-65.26"/>
</g>
<!-- Node9 -->
<g id="node9" class="node">
<title>Node9</title>
<g id="a_node9"><a xlink:href="vec3_8h.html#a54e984820b74bd803de43ce36c8cb292" target="_top" xlink:title="Subtract two vectors.">
<polygon fill="none" stroke="black" points="246.5,-0.5 246.5,-19.5 320.5,-19.5 320.5,-0.5 246.5,-0.5"/>
<text text-anchor="middle" x="283.5" y="-7.5" font-family="Helvetica,sans-Serif" font-size="10.00">ft_vec3_sub</text>
</a>
</g>
</g>
<!-- Node2&#45;&gt;Node9 -->
<g id="edge9" class="edge">
<title>Node2&#45;&gt;Node9</title>
<path fill="none" stroke="midnightblue" d="M193.88,-95.39C199.26,-92.86 204.55,-89.76 209,-86 231.89,-66.66 222.84,-49.16 245,-29 246.5,-27.64 248.11,-26.35 249.8,-25.13"/>
<polygon fill="midnightblue" stroke="midnightblue" points="251.99,-27.89 258.65,-19.64 248.3,-21.94 251.99,-27.89"/>
</g>
<!-- Node4 -->
<g id="node4" class="node">
<title>Node4</title>
<g id="a_node4"><a xlink:href="vec3_8h.html#a73e2caf4c2a51ed954b7349c6be2b3c3" target="_top" xlink:title="Add two vectors.">
<polygon fill="none" stroke="black" points="362,-190.5 362,-209.5 437,-209.5 437,-190.5 362,-190.5"/>
<text text-anchor="middle" x="399.5" y="-197.5" font-family="Helvetica,sans-Serif" font-size="10.00">ft_vec3_add</text>
</a>
</g>
</g>
<!-- Node3&#45;&gt;Node4 -->
<g id="edge3" class="edge">
<title>Node3&#45;&gt;Node4</title>
<path fill="none" stroke="midnightblue" d="M321.2,-200C330.96,-200 341.64,-200 351.86,-200"/>
<polygon fill="midnightblue" stroke="midnightblue" points="351.87,-203.5 361.87,-200 351.87,-196.5 351.87,-203.5"/>
</g>
<!-- Node3&#45;&gt;Node5 -->
<g id="edge4" class="edge">
<title>Node3&#45;&gt;Node5</title>
<path fill="none" stroke="midnightblue" d="M313.27,-190.41C327.44,-185.69 344.74,-179.92 360.03,-174.82"/>
<polygon fill="midnightblue" stroke="midnightblue" points="361.36,-178.07 369.74,-171.59 359.15,-171.43 361.36,-178.07"/>
</g>
</g>
</svg>
