<?xml version="1.0" encoding="UTF-8" standalone="no"?>
<!DOCTYPE svg PUBLIC "-//W3C//DTD SVG 1.1//EN"
 "http://www.w3.org/Graphics/SVG/1.1/DTD/svg11.dtd">
<!-- Generated by graphviz version 2.43.0 (0)
 -->
<!-- Title: ft_cy_normal Pages: 1 -->
<svg width="351pt" height="142pt"
 viewBox="0.00 0.00 351.00 142.00" xmlns="http://www.w3.org/2000/svg" xmlns:xlink="http://www.w3.org/1999/xlink">
<g id="graph0" class="graph" transform="scale(1 1) rotate(0) translate(4 138)">
<title>ft_cy_normal</title>
<!-- Node1 -->
<g id="node1" class="node">
<title>Node1</title>
<g id="a_node1"><a xlink:title="Calculates the normal on the point of intersection of the cylinder.">
<polygon fill="#bfbfbf" stroke="black" points="0,-57.5 0,-76.5 80,-76.5 80,-57.5 0,-57.5"/>
<text text-anchor="middle" x="40" y="-64.5" font-family="Helvetica,sans-Serif" font-size="10.00">ft_cy_normal</text>
</a>
</g>
</g>
<!-- Node2 -->
<g id="node2" class="node">
<title>Node2</title>
<g id="a_node2"><a xlink:href="vec3_8h.html#add7f4f27ee8cadcbf62ffbfecb98f64f" target="_top" xlink:title="Determines if two vectors are equal.">
<polygon fill="none" stroke="black" points="116,-114.5 116,-133.5 200,-133.5 200,-114.5 116,-114.5"/>
<text text-anchor="middle" x="158" y="-121.5" font-family="Helvetica,sans-Serif" font-size="10.00">ft_vec3_equal</text>
</a>
</g>
</g>
<!-- Node1&#45;&gt;Node2 -->
<g id="edge1" class="edge">
<title>Node1&#45;&gt;Node2</title>
<path fill="none" stroke="midnightblue" d="M59.4,-76.55C74.53,-84.35 96.56,-95.57 116,-105 119.55,-106.72 123.29,-108.5 127.01,-110.25"/>
<polygon fill="midnightblue" stroke="midnightblue" points="125.53,-113.42 136.08,-114.47 128.49,-107.08 125.53,-113.42"/>
</g>
<!-- Node4 -->
<g id="node4" class="node">
<title>Node4</title>
<g id="a_node4"><a xlink:href="vec3_8h.html#a38fe500bd27847b866b9630146e43250" target="_top" xlink:title="Normalise a vector.">
<polygon fill="none" stroke="black" points="116.5,-76.5 116.5,-95.5 199.5,-95.5 199.5,-76.5 116.5,-76.5"/>
<text text-anchor="middle" x="158" y="-83.5" font-family="Helvetica,sans-Serif" font-size="10.00">ft_vec3_norm</text>
</a>
</g>
</g>
<!-- Node1&#45;&gt;Node4 -->
<g id="edge3" class="edge">
<title>Node1&#45;&gt;Node4</title>
<path fill="none" stroke="midnightblue" d="M80.27,-73.43C88.59,-74.79 97.48,-76.25 106.15,-77.67"/>
<polygon fill="midnightblue" stroke="midnightblue" points="105.75,-81.15 116.18,-79.31 106.88,-74.24 105.75,-81.15"/>
</g>
<!-- Node6 -->
<g id="node6" class="node">
<title>Node6</title>
<g id="a_node6"><a xlink:href="vec3_8h.html#ac80a1c20941c96a8fafad255dac59092" target="_top" xlink:title="Scale a vector.">
<polygon fill="none" stroke="black" points="248,-38.5 248,-57.5 331,-57.5 331,-38.5 248,-38.5"/>
<text text-anchor="middle" x="289.5" y="-45.5" font-family="Helvetica,sans-Serif" font-size="10.00">ft_vec3_scale</text>
</a>
</g>
</g>
<!-- Node1&#45;&gt;Node6 -->
<g id="edge6" class="edge">
<title>Node1&#45;&gt;Node6</title>
<path fill="none" stroke="midnightblue" d="M80.22,-63.99C122.8,-60.72 190.95,-55.49 237.62,-51.91"/>
<polygon fill="midnightblue" stroke="midnightblue" points="238.12,-55.38 247.82,-51.12 237.58,-48.4 238.12,-55.38"/>
</g>
<!-- Node7 -->
<g id="node7" class="node">
<title>Node7</title>
<g id="a_node7"><a xlink:href="vec3_8h.html#a54e984820b74bd803de43ce36c8cb292" target="_top" xlink:title="Subtract two vectors.">
<polygon fill="none" stroke="black" points="121,-0.5 121,-19.5 195,-19.5 195,-0.5 121,-0.5"/>
<text text-anchor="middle" x="158" y="-7.5" font-family="Helvetica,sans-Serif" font-size="10.00">ft_vec3_sub</text>
</a>
</g>
</g>
<!-- Node1&#45;&gt;Node7 -->
<g id="edge7" class="edge">
<title>Node1&#45;&gt;Node7</title>
<path fill="none" stroke="midnightblue" d="M60.42,-57.46C78.98,-48.34 107.21,-34.47 128.36,-24.07"/>
<polygon fill="midnightblue" stroke="midnightblue" points="130.09,-27.12 137.52,-19.57 127,-20.84 130.09,-27.12"/>
</g>
<!-- Node3 -->
<g id="node3" class="node">
<title>Node3</title>
<g id="a_node3"><a xlink:href="utils_8h.html#a518be72ffbfd90cedf995e72dde0aff6" target="_top" xlink:title="Checks if two floats are (almost) equal.">
<polygon fill="none" stroke="black" points="236,-114.5 236,-133.5 343,-133.5 343,-114.5 236,-114.5"/>
<text text-anchor="middle" x="289.5" y="-121.5" font-family="Helvetica,sans-Serif" font-size="10.00">ft_nearly_equal_flt</text>
</a>
</g>
</g>
<!-- Node2&#45;&gt;Node3 -->
<g id="edge2" class="edge">
<title>Node2&#45;&gt;Node3</title>
<path fill="none" stroke="midnightblue" d="M200.33,-124C208.42,-124 217.07,-124 225.67,-124"/>
<polygon fill="midnightblue" stroke="midnightblue" points="225.72,-127.5 235.72,-124 225.72,-120.5 225.72,-127.5"/>
</g>
<!-- Node5 -->
<g id="node5" class="node">
<title>Node5</title>
<g id="a_node5"><a xlink:href="vec3__linalgebra_8c.html#aa84621bd979d3b12b97908f653faf88e" target="_top" xlink:title="Calculate the absolute value of a vector.">
<polygon fill="none" stroke="black" points="252.5,-76.5 252.5,-95.5 326.5,-95.5 326.5,-76.5 252.5,-76.5"/>
<text text-anchor="middle" x="289.5" y="-83.5" font-family="Helvetica,sans-Serif" font-size="10.00">ft_vec3_abs</text>
</a>
</g>
</g>
<!-- Node4&#45;&gt;Node5 -->
<g id="edge4" class="edge">
<title>Node4&#45;&gt;Node5</title>
<path fill="none" stroke="midnightblue" d="M199.62,-86C213.1,-86 228.2,-86 242.08,-86"/>
<polygon fill="midnightblue" stroke="midnightblue" points="242.41,-89.5 252.41,-86 242.41,-82.5 242.41,-89.5"/>
</g>
<!-- Node4&#45;&gt;Node6 -->
<g id="edge5" class="edge">
<title>Node4&#45;&gt;Node6</title>
<path fill="none" stroke="midnightblue" d="M191.68,-76.41C208.09,-71.6 228.18,-65.7 245.79,-60.53"/>
<polygon fill="midnightblue" stroke="midnightblue" points="247.22,-63.76 255.83,-57.59 245.25,-57.04 247.22,-63.76"/>
</g>
</g>
</svg>
