<?xml version="1.0" encoding="UTF-8" standalone="no"?>
<!DOCTYPE svg PUBLIC "-//W3C//DTD SVG 1.1//EN"
 "http://www.w3.org/Graphics/SVG/1.1/DTD/svg11.dtd">
<!-- Generated by graphviz version 2.43.0 (0)
 -->
<!-- Title: ft_co_set_hitrecord Pages: 1 -->
<!--zoomable 353 -->
<svg id="main" version="1.1" xmlns="http://www.w3.org/2000/svg" xmlns:xlink="http://www.w3.org/1999/xlink" xml:space="preserve" onload="init(evt)">
<style type="text/css"><![CDATA[
.edge:hover path { stroke: red; }
.edge:hover polygon { stroke: red; fill: red; }
]]></style>
<script type="text/javascript"><![CDATA[
var edges = document.getElementsByTagName('g');
if (edges && edges.length) {
  for (var i=0;i<edges.length;i++) {
    if (edges[i].id.substr(0,4)=='edge') {
      edges[i].setAttribute('class','edge');
    }
  }
}
]]></script>
        <defs>
                <circle id="rim" cx="0" cy="0" r="7"/>
                <circle id="rim2" cx="0" cy="0" r="3.5"/>
                <g id="zoomPlus">
                        <use xlink:href="#rim" fill="#404040">
                                <set attributeName="fill" to="#808080" begin="zoomplus.mouseover" end="zoomplus.mouseout"/>
                        </use>
                        <path d="M-4,0h8M0,-4v8" fill="none" stroke="white" stroke-width="1.5" pointer-events="none"/>
                </g>
                <g id="zoomMin">
                        <use xlink:href="#rim" fill="#404040">
                                <set attributeName="fill" to="#808080" begin="zoomminus.mouseover" end="zoomminus.mouseout"/>
                        </use>
                        <path d="M-4,0h8" fill="none" stroke="white" stroke-width="1.5" pointer-events="none"/>
                </g>
                <g id="dirArrow">
                        <path fill="none" stroke="white" stroke-width="1.5" d="M0,-3.0v7 M-2.5,-0.5L0,-3.0L2.5,-0.5"/>
                </g>
               <g id="resetDef">
                       <use xlink:href="#rim2" fill="#404040">
                               <set attributeName="fill" to="#808080" begin="reset.mouseover" end="reset.mouseout"/>
                       </use>
               </g>
        </defs>

<script type="text/javascript">
var viewWidth = 544;
var viewHeight = 353;
var sectionId = 'dynsection-9';
</script>
<script xlink:href="svgpan.js"/>
<svg id="graph" class="graph">
<g id="viewport">
<title>ft_co_set_hitrecord</title>
<!-- Node1 -->
<g id="node1" class="node">
<title>Node1</title>
<g id="a_node1"><a xlink:title="Overwrites the hit record &quot;rec&quot; with the new hit data found in the &quot;tmp&quot; hit record.">
<polygon fill="#bfbfbf" stroke="black" points="0,-171.5 0,-190.5 109,-190.5 109,-171.5 0,-171.5"/>
<text text-anchor="middle" x="54.5" y="-178.5" font-family="Helvetica,sans-Serif" font-size="10.00">ft_co_set_hitrecord</text>
</a>
</g>
</g>
<!-- Node2 -->
<g id="node2" class="node">
<title>Node2</title>
<g id="a_node2"><a xlink:href="hit__manager__bonus_8h.html#a9874994177d1382ce3e76988ca7cee3b" target="_top" xlink:title="Calculates the normal on the point of intersection of the cone.">
<polygon fill="none" stroke="black" points="160,-190.5 160,-209.5 240,-209.5 240,-190.5 160,-190.5"/>
<text text-anchor="middle" x="200" y="-197.5" font-family="Helvetica,sans-Serif" font-size="10.00">ft_co_normal</text>
</a>
</g>
</g>
<!-- Node1&#45;&gt;Node2 -->
<g id="edge1" class="edge">
<title>Node1&#45;&gt;Node2</title>
<path fill="none" stroke="midnightblue" d="M109.34,-188.13C122.52,-189.87 136.56,-191.73 149.52,-193.45"/>
<polygon fill="midnightblue" stroke="midnightblue" points="149.28,-196.95 159.65,-194.79 150.2,-190.01 149.28,-196.95"/>
</g>
<!-- Node11 -->
<g id="node11" class="node">
<title>Node11</title>
<g id="a_node11"><a xlink:href="hit__manager__bonus_8h.html#abc28bafc00495161db9de547a9461cb1" target="_top" xlink:title="Transforms the Cartesian coordinates of a hit point on a cone wall into 2D texture UV&#45;coordinates in ...">
<polygon fill="none" stroke="black" points="145,-152.5 145,-171.5 255,-171.5 255,-152.5 145,-152.5"/>
<text text-anchor="middle" x="200" y="-159.5" font-family="Helvetica,sans-Serif" font-size="10.00">ft_get_co_uvcoords</text>
</a>
</g>
</g>
<!-- Node1&#45;&gt;Node11 -->
<g id="edge11" class="edge">
<title>Node1&#45;&gt;Node11</title>
<path fill="none" stroke="midnightblue" d="M109.34,-173.87C117.69,-172.77 126.38,-171.62 134.92,-170.48"/>
<polygon fill="midnightblue" stroke="midnightblue" points="135.4,-173.95 144.86,-169.17 134.48,-167.01 135.4,-173.95"/>
</g>
<!-- Node15 -->
<g id="node15" class="node">
<title>Node15</title>
<g id="a_node15"><a xlink:href="hit__manager__bonus_8h.html#a87d41de805dc36f90fb5002fa2d34da0" target="_top" xlink:title="Transforms the Cartesian coordinates of a hit point on a plane into 2D texture UV&#45;coordinates in the ...">
<polygon fill="none" stroke="black" points="146,-57.5 146,-76.5 254,-76.5 254,-57.5 146,-57.5"/>
<text text-anchor="middle" x="200" y="-64.5" font-family="Helvetica,sans-Serif" font-size="10.00">ft_get_pl_uvcoords</text>
</a>
</g>
</g>
<!-- Node1&#45;&gt;Node15 -->
<g id="edge18" class="edge">
<title>Node1&#45;&gt;Node15</title>
<path fill="none" stroke="midnightblue" d="M67.73,-171.28C92.41,-151.68 148.36,-107.23 178.64,-83.18"/>
<polygon fill="midnightblue" stroke="midnightblue" points="181.14,-85.66 186.8,-76.69 176.79,-80.17 181.14,-85.66"/>
</g>
<!-- Node17 -->
<g id="node17" class="node">
<title>Node17</title>
<g id="a_node17"><a xlink:href="ray_8h.html#ac56e9ac7acfb4658469e190c022b0d63" target="_top" xlink:title="Represents a ray.">
<polygon fill="none" stroke="black" points="162.5,-304.5 162.5,-323.5 237.5,-323.5 237.5,-304.5 162.5,-304.5"/>
<text text-anchor="middle" x="200" y="-311.5" font-family="Helvetica,sans-Serif" font-size="10.00">ft_scale_ray</text>
</a>
</g>
</g>
<!-- Node1&#45;&gt;Node17 -->
<g id="edge22" class="edge">
<title>Node1&#45;&gt;Node17</title>
<path fill="none" stroke="midnightblue" d="M65.82,-190.57C90.01,-212.98 150.6,-269.14 181.01,-297.32"/>
<polygon fill="midnightblue" stroke="midnightblue" points="178.67,-299.93 188.39,-304.16 183.43,-294.8 178.67,-299.93"/>
</g>
<!-- Node3 -->
<g id="node3" class="node">
<title>Node3</title>
<g id="a_node3"><a xlink:href="vec3_8h.html#aa84621bd979d3b12b97908f653faf88e" target="_top" xlink:title="Calculate the absolute value of a vector.">
<polygon fill="none" stroke="black" points="304,-266.5 304,-285.5 378,-285.5 378,-266.5 304,-266.5"/>
<text text-anchor="middle" x="341" y="-273.5" font-family="Helvetica,sans-Serif" font-size="10.00">ft_vec3_abs</text>
</a>
</g>
</g>
<!-- Node2&#45;&gt;Node3 -->
<g id="edge2" class="edge">
<title>Node2&#45;&gt;Node3</title>
<path fill="none" stroke="midnightblue" d="M216.75,-209.54C234.57,-220.23 264.56,-237.91 291,-252 297.29,-255.35 304.12,-258.81 310.62,-262.02"/>
<polygon fill="midnightblue" stroke="midnightblue" points="309.29,-265.26 319.82,-266.5 312.36,-258.97 309.29,-265.26"/>
</g>
<!-- Node4 -->
<g id="node4" class="node">
<title>Node4</title>
<g id="a_node4"><a xlink:href="vec3_8h.html#a73e2caf4c2a51ed954b7349c6be2b3c3" target="_top" xlink:title="Add two vectors.">
<polygon fill="none" stroke="black" points="303.5,-304.5 303.5,-323.5 378.5,-323.5 378.5,-304.5 303.5,-304.5"/>
<text text-anchor="middle" x="341" y="-311.5" font-family="Helvetica,sans-Serif" font-size="10.00">ft_vec3_add</text>
</a>
</g>
</g>
<!-- Node2&#45;&gt;Node4 -->
<g id="edge3" class="edge">
<title>Node2&#45;&gt;Node4</title>
<path fill="none" stroke="midnightblue" d="M207.84,-209.7C221.59,-228.55 254.4,-270.44 291,-295 293.77,-296.86 296.74,-298.57 299.8,-300.14"/>
<polygon fill="midnightblue" stroke="midnightblue" points="298.61,-303.45 309.16,-304.44 301.54,-297.09 298.61,-303.45"/>
</g>
<!-- Node5 -->
<g id="node5" class="node">
<title>Node5</title>
<g id="a_node5"><a xlink:href="vec3_8h.html#add7f4f27ee8cadcbf62ffbfecb98f64f" target="_top" xlink:title="Determines if two vectors are equal.">
<polygon fill="none" stroke="black" points="299,-76.5 299,-95.5 383,-95.5 383,-76.5 299,-76.5"/>
<text text-anchor="middle" x="341" y="-83.5" font-family="Helvetica,sans-Serif" font-size="10.00">ft_vec3_equal</text>
</a>
</g>
</g>
<!-- Node2&#45;&gt;Node5 -->
<g id="edge4" class="edge">
<title>Node2&#45;&gt;Node5</title>
<path fill="none" stroke="midnightblue" d="M240.26,-190.41C245.6,-187.94 250.72,-184.86 255,-181 282.77,-155.98 263.63,-130.45 291,-105 292.68,-103.43 294.51,-101.99 296.43,-100.67"/>
<polygon fill="midnightblue" stroke="midnightblue" points="298.42,-103.56 305.37,-95.56 294.95,-97.49 298.42,-103.56"/>
</g>
<!-- Node7 -->
<g id="node7" class="node">
<title>Node7</title>
<g id="a_node7"><a xlink:href="vec3_8h.html#a38fe500bd27847b866b9630146e43250" target="_top" xlink:title="Normalise a vector.">
<polygon fill="none" stroke="black" points="299.5,-190.5 299.5,-209.5 382.5,-209.5 382.5,-190.5 299.5,-190.5"/>
<text text-anchor="middle" x="341" y="-197.5" font-family="Helvetica,sans-Serif" font-size="10.00">ft_vec3_norm</text>
</a>
</g>
</g>
<!-- Node2&#45;&gt;Node7 -->
<g id="edge6" class="edge">
<title>Node2&#45;&gt;Node7</title>
<path fill="none" stroke="midnightblue" d="M240.09,-200C255.24,-200 272.79,-200 288.92,-200"/>
<polygon fill="midnightblue" stroke="midnightblue" points="289.27,-203.5 299.27,-200 289.27,-196.5 289.27,-203.5"/>
</g>
<!-- Node9 -->
<g id="node9" class="node">
<title>Node9</title>
<g id="a_node9"><a xlink:href="vec3_8h.html#ac80a1c20941c96a8fafad255dac59092" target="_top" xlink:title="Scale a vector.">
<polygon fill="none" stroke="black" points="440,-228.5 440,-247.5 523,-247.5 523,-228.5 440,-228.5"/>
<text text-anchor="middle" x="481.5" y="-235.5" font-family="Helvetica,sans-Serif" font-size="10.00">ft_vec3_scale</text>
</a>
</g>
</g>
<!-- Node2&#45;&gt;Node9 -->
<g id="edge9" class="edge">
<title>Node2&#45;&gt;Node9</title>
<path fill="none" stroke="midnightblue" d="M240.26,-209.25C255.97,-212.7 274.27,-216.4 291,-219 337.59,-226.23 391.07,-231.3 429.31,-234.38"/>
<polygon fill="midnightblue" stroke="midnightblue" points="429.43,-237.9 439.68,-235.19 429.98,-230.92 429.43,-237.9"/>
</g>
<!-- Node10 -->
<g id="node10" class="node">
<title>Node10</title>
<g id="a_node10"><a xlink:href="vec3_8h.html#a54e984820b74bd803de43ce36c8cb292" target="_top" xlink:title="Subtract two vectors.">
<polygon fill="none" stroke="black" points="304,-152.5 304,-171.5 378,-171.5 378,-152.5 304,-152.5"/>
<text text-anchor="middle" x="341" y="-159.5" font-family="Helvetica,sans-Serif" font-size="10.00">ft_vec3_sub</text>
</a>
</g>
</g>
<!-- Node2&#45;&gt;Node10 -->
<g id="edge10" class="edge">
<title>Node2&#45;&gt;Node10</title>
<path fill="none" stroke="midnightblue" d="M236.08,-190.41C254.02,-185.51 276.06,-179.48 295.22,-174.24"/>
<polygon fill="midnightblue" stroke="midnightblue" points="296.21,-177.6 304.94,-171.59 294.37,-170.85 296.21,-177.6"/>
</g>
<!-- Node6 -->
<g id="node6" class="node">
<title>Node6</title>
<g id="a_node6"><a xlink:href="utils_8h.html#a518be72ffbfd90cedf995e72dde0aff6" target="_top" xlink:title="Checks if two floats are (almost) equal.">
<polygon fill="none" stroke="black" points="428,-76.5 428,-95.5 535,-95.5 535,-76.5 428,-76.5"/>
<text text-anchor="middle" x="481.5" y="-83.5" font-family="Helvetica,sans-Serif" font-size="10.00">ft_nearly_equal_flt</text>
</a>
</g>
</g>
<!-- Node5&#45;&gt;Node6 -->
<g id="edge5" class="edge">
<title>Node5&#45;&gt;Node6</title>
<path fill="none" stroke="midnightblue" d="M383.18,-86C394.03,-86 406,-86 417.71,-86"/>
<polygon fill="midnightblue" stroke="midnightblue" points="417.9,-89.5 427.9,-86 417.9,-82.5 417.9,-89.5"/>
</g>
<!-- Node8 -->
<g id="node8" class="node">
<title>Node8</title>
<g id="a_node8"><a xlink:href="vec3__linalgebra_8c.html#aa84621bd979d3b12b97908f653faf88e" target="_top" xlink:title="Calculate the absolute value of a vector.">
<polygon fill="none" stroke="black" points="444.5,-190.5 444.5,-209.5 518.5,-209.5 518.5,-190.5 444.5,-190.5"/>
<text text-anchor="middle" x="481.5" y="-197.5" font-family="Helvetica,sans-Serif" font-size="10.00">ft_vec3_abs</text>
</a>
</g>
</g>
<!-- Node7&#45;&gt;Node8 -->
<g id="edge7" class="edge">
<title>Node7&#45;&gt;Node8</title>
<path fill="none" stroke="midnightblue" d="M382.81,-200C398.93,-200 417.54,-200 434.17,-200"/>
<polygon fill="midnightblue" stroke="midnightblue" points="434.22,-203.5 444.22,-200 434.22,-196.5 434.22,-203.5"/>
</g>
<!-- Node7&#45;&gt;Node9 -->
<g id="edge8" class="edge">
<title>Node7&#45;&gt;Node9</title>
<path fill="none" stroke="midnightblue" d="M376.95,-209.59C394.83,-214.49 416.79,-220.52 435.88,-225.76"/>
<polygon fill="midnightblue" stroke="midnightblue" points="434.99,-229.14 445.56,-228.41 436.84,-222.39 434.99,-229.14"/>
</g>
<!-- Node11&#45;&gt;Node7 -->
<g id="edge16" class="edge">
<title>Node11&#45;&gt;Node7</title>
<path fill="none" stroke="midnightblue" d="M236.08,-171.59C254.02,-176.49 276.06,-182.52 295.22,-187.76"/>
<polygon fill="midnightblue" stroke="midnightblue" points="294.37,-191.15 304.94,-190.41 296.21,-184.4 294.37,-191.15"/>
</g>
<!-- Node11&#45;&gt;Node10 -->
<g id="edge17" class="edge">
<title>Node11&#45;&gt;Node10</title>
<path fill="none" stroke="midnightblue" d="M255.14,-162C267.88,-162 281.35,-162 293.72,-162"/>
<polygon fill="midnightblue" stroke="midnightblue" points="293.8,-165.5 303.8,-162 293.8,-158.5 293.8,-165.5"/>
</g>
<!-- Node12 -->
<g id="node12" class="node">
<title>Node12</title>
<g id="a_node12"><a xlink:href="utils_8h.html#a4b67c731c02a7ba35f27473295bfb753" target="_top" xlink:title="Performs a rotation of a given vector around an axis by a given angle.">
<polygon fill="none" stroke="black" points="291,-114.5 291,-133.5 391,-133.5 391,-114.5 291,-114.5"/>
<text text-anchor="middle" x="341" y="-121.5" font-family="Helvetica,sans-Serif" font-size="10.00">ft_quaternion_rot</text>
</a>
</g>
</g>
<!-- Node11&#45;&gt;Node12 -->
<g id="edge12" class="edge">
<title>Node11&#45;&gt;Node12</title>
<path fill="none" stroke="midnightblue" d="M236.08,-152.41C254.02,-147.51 276.06,-141.48 295.22,-136.24"/>
<polygon fill="midnightblue" stroke="midnightblue" points="296.21,-139.6 304.94,-133.59 294.37,-132.85 296.21,-139.6"/>
</g>
<!-- Node14 -->
<g id="node14" class="node">
<title>Node14</title>
<g id="a_node14"><a xlink:href="vec3_8h.html#a19bc1d17592698776e89a5093110320c" target="_top" xlink:title="Calculate the cross product of two vectors.">
<polygon fill="none" stroke="black" points="299.5,-38.5 299.5,-57.5 382.5,-57.5 382.5,-38.5 299.5,-38.5"/>
<text text-anchor="middle" x="341" y="-45.5" font-family="Helvetica,sans-Serif" font-size="10.00">ft_vec3_cross</text>
</a>
</g>
</g>
<!-- Node11&#45;&gt;Node14 -->
<g id="edge15" class="edge">
<title>Node11&#45;&gt;Node14</title>
<path fill="none" stroke="midnightblue" d="M207.84,-152.3C221.59,-133.45 254.4,-91.56 291,-67 293.77,-65.14 296.74,-63.43 299.8,-61.86"/>
<polygon fill="midnightblue" stroke="midnightblue" points="301.54,-64.91 309.16,-57.56 298.61,-58.55 301.54,-64.91"/>
</g>
<!-- Node12&#45;&gt;Node9 -->
<g id="edge14" class="edge">
<title>Node12&#45;&gt;Node9</title>
<path fill="none" stroke="midnightblue" d="M376.63,-133.56C381.85,-136.05 386.86,-139.15 391,-143 418.37,-168.45 399.27,-193.94 427,-219 428.89,-220.71 430.94,-222.26 433.1,-223.68"/>
<polygon fill="midnightblue" stroke="midnightblue" points="431.43,-226.75 441.88,-228.49 434.79,-220.61 431.43,-226.75"/>
</g>
<!-- Node13 -->
<g id="node13" class="node">
<title>Node13</title>
<g id="a_node13"><a xlink:href="utils__quaternion_8c.html#a15b6fa9c749e827cd1d52bf1c8e0a8f3" target="_top" xlink:title="Performs quaternion multiplication.">
<polygon fill="none" stroke="black" points="427,-114.5 427,-133.5 536,-133.5 536,-114.5 427,-114.5"/>
<text text-anchor="middle" x="481.5" y="-121.5" font-family="Helvetica,sans-Serif" font-size="10.00">ft_quaternion_mult</text>
</a>
</g>
</g>
<!-- Node12&#45;&gt;Node13 -->
<g id="edge13" class="edge">
<title>Node12&#45;&gt;Node13</title>
<path fill="none" stroke="midnightblue" d="M391.22,-124C399.4,-124 407.99,-124 416.47,-124"/>
<polygon fill="midnightblue" stroke="midnightblue" points="416.74,-127.5 426.74,-124 416.74,-120.5 416.74,-127.5"/>
</g>
<!-- Node15&#45;&gt;Node5 -->
<g id="edge21" class="edge">
<title>Node15&#45;&gt;Node5</title>
<path fill="none" stroke="midnightblue" d="M254.34,-74.29C265.6,-75.83 277.45,-77.45 288.63,-78.98"/>
<polygon fill="midnightblue" stroke="midnightblue" points="288.29,-82.46 298.67,-80.35 289.24,-75.53 288.29,-82.46"/>
</g>
<!-- Node15&#45;&gt;Node14 -->
<g id="edge19" class="edge">
<title>Node15&#45;&gt;Node14</title>
<path fill="none" stroke="midnightblue" d="M254.34,-59.71C265.72,-58.15 277.7,-56.52 288.98,-54.97"/>
<polygon fill="midnightblue" stroke="midnightblue" points="289.67,-58.41 299.11,-53.59 288.72,-51.48 289.67,-58.41"/>
</g>
<!-- Node16 -->
<g id="node16" class="node">
<title>Node16</title>
<g id="a_node16"><a xlink:href="vec3_8h.html#a89fd02ae4b8b3602bc001664eb5e8f91" target="_top" xlink:title="Calculate the scalar product of two vectors.">
<polygon fill="none" stroke="black" points="304.5,-0.5 304.5,-19.5 377.5,-19.5 377.5,-0.5 304.5,-0.5"/>
<text text-anchor="middle" x="341" y="-7.5" font-family="Helvetica,sans-Serif" font-size="10.00">ft_vec3_dot</text>
</a>
</g>
</g>
<!-- Node15&#45;&gt;Node16 -->
<g id="edge20" class="edge">
<title>Node15&#45;&gt;Node16</title>
<path fill="none" stroke="midnightblue" d="M223.12,-57.45C241.29,-49.65 267.73,-38.42 291,-29 295.74,-27.08 300.76,-25.09 305.7,-23.15"/>
<polygon fill="midnightblue" stroke="midnightblue" points="306.97,-26.41 315.02,-19.52 304.43,-19.89 306.97,-26.41"/>
</g>
<!-- Node17&#45;&gt;Node4 -->
<g id="edge23" class="edge">
<title>Node17&#45;&gt;Node4</title>
<path fill="none" stroke="midnightblue" d="M237.52,-314C254.54,-314 275,-314 293.15,-314"/>
<polygon fill="midnightblue" stroke="midnightblue" points="293.24,-317.5 303.24,-314 293.24,-310.5 293.24,-317.5"/>
</g>
<!-- Node17&#45;&gt;Node9 -->
<g id="edge24" class="edge">
<title>Node17&#45;&gt;Node9</title>
<path fill="none" stroke="midnightblue" d="M224.65,-323.51C261.75,-336.9 335.15,-357.11 391,-333 427.04,-317.44 455.29,-279.43 469.79,-256.48"/>
<polygon fill="midnightblue" stroke="midnightblue" points="472.94,-258.04 475.14,-247.68 466.96,-254.41 472.94,-258.04"/>
</g>
</g>
</svg>
        <g id="navigator" transform="translate(0 0)" fill="#404254">
                <rect fill="#f2f5e9" fill-opacity="0.5" stroke="#606060" stroke-width=".5" x="0" y="0" width="60" height="60"/>
                <use id="zoomplus" xlink:href="#zoomPlus" x="17" y="9" onmousedown="handleZoom(evt,'in')"/>
                <use id="zoomminus" xlink:href="#zoomMin" x="42" y="9" onmousedown="handleZoom(evt,'out')"/>
                <use id="reset" xlink:href="#resetDef" x="30" y="36" onmousedown="handleReset()"/>
                <g id="arrowUp" xlink:href="#dirArrow" transform="translate(30 24)" onmousedown="handlePan(0,-1)">
                  <use xlink:href="#rim" fill="#404040">
                        <set attributeName="fill" to="#808080" begin="arrowUp.mouseover" end="arrowUp.mouseout"/>
                  </use>
                  <path fill="none" stroke="white" stroke-width="1.5" d="M0,-3.0v7 M-2.5,-0.5L0,-3.0L2.5,-0.5"/>
                </g>
                <g id="arrowRight" xlink:href="#dirArrow" transform="rotate(90) translate(36 -43)" onmousedown="handlePan(1,0)">
                  <use xlink:href="#rim" fill="#404040">
                        <set attributeName="fill" to="#808080" begin="arrowRight.mouseover" end="arrowRight.mouseout"/>
                  </use>
                  <path fill="none" stroke="white" stroke-width="1.5" d="M0,-3.0v7 M-2.5,-0.5L0,-3.0L2.5,-0.5"/>
                </g>
                <g id="arrowDown" xlink:href="#dirArrow" transform="rotate(180) translate(-30 -48)" onmousedown="handlePan(0,1)">
                  <use xlink:href="#rim" fill="#404040">
                        <set attributeName="fill" to="#808080" begin="arrowDown.mouseover" end="arrowDown.mouseout"/>
                  </use>
                  <path fill="none" stroke="white" stroke-width="1.5" d="M0,-3.0v7 M-2.5,-0.5L0,-3.0L2.5,-0.5"/>
                </g>
                <g id="arrowLeft" xlink:href="#dirArrow" transform="rotate(270) translate(-36 17)" onmousedown="handlePan(-1,0)">
                  <use xlink:href="#rim" fill="#404040">
                        <set attributeName="fill" to="#808080" begin="arrowLeft.mouseover" end="arrowLeft.mouseout"/>
                  </use>
                  <path fill="none" stroke="white" stroke-width="1.5" d="M0,-3.0v7 M-2.5,-0.5L0,-3.0L2.5,-0.5"/>
                </g>
        </g>
        <svg viewBox="0 0 15 15" width="100%" height="30px" preserveAspectRatio="xMaxYMin meet">
         <g id="arrow_out" transform="scale(0.3 0.3)">
          <a xlink:href="hit__cone__bonus_8c_a69c648bba2a12763904900ce56cadb8a_cgraph_org.svg" target="_base">
           <rect id="button" ry="5" rx="5" y="6" x="6" height="38" width="38"
                fill="#f2f5e9" fill-opacity="0.5" stroke="#606060" stroke-width="1.0"/>
           <path id="arrow"
             d="M 11.500037,31.436501 C 11.940474,20.09759 22.043105,11.32322 32.158766,21.979434 L 37.068811,17.246167 C 37.068811,17.246167 37.088388,32 37.088388,32 L 22.160133,31.978069 C 22.160133,31.978069 26.997745,27.140456 26.997745,27.140456 C 18.528582,18.264221 13.291696,25.230495 11.500037,31.436501 z"
             style="fill:#404040;"/>
          </a>
         </g>
        </svg>
</svg>
