<?xml version="1.0" encoding="UTF-8" standalone="no"?>
<!DOCTYPE svg PUBLIC "-//W3C//DTD SVG 1.1//EN"
 "http://www.w3.org/Graphics/SVG/1.1/DTD/svg11.dtd">
<!-- Generated by graphviz version 2.43.0 (0)
 -->
<!-- Title: ft_init_hitrecord Pages: 1 -->
<svg width="1894pt" height="250pt"
 viewBox="0.00 0.00 1894.00 250.11" xmlns="http://www.w3.org/2000/svg" xmlns:xlink="http://www.w3.org/1999/xlink">
<g id="graph0" class="graph" transform="scale(1 1) rotate(0) translate(4 246.11)">
<title>ft_init_hitrecord</title>
<!-- Node1 -->
<g id="node1" class="node">
<title>Node1</title>
<g id="a_node1"><a xlink:title="Initiates hitrecord struct.">
<polygon fill="#bfbfbf" stroke="black" points="1793,-114.5 1793,-133.5 1886,-133.5 1886,-114.5 1793,-114.5"/>
<text text-anchor="middle" x="1839.5" y="-121.5" font-family="Helvetica,sans-Serif" font-size="10.00">ft_init_hitrecord</text>
</a>
</g>
</g>
<!-- Node2 -->
<g id="node2" class="node">
<title>Node2</title>
<g id="a_node2"><a xlink:href="hit__manager__bonus_8h.html#aee5824df7f0e0c2698306f49f9a1c790" target="_top" xlink:title="Calculates potential hit of cone cap.">
<polygon fill="none" stroke="black" points="1677,-190.5 1677,-209.5 1757,-209.5 1757,-190.5 1677,-190.5"/>
<text text-anchor="middle" x="1717" y="-197.5" font-family="Helvetica,sans-Serif" font-size="10.00">ft_co_cap_hit</text>
</a>
</g>
</g>
<!-- Node1&#45;&gt;Node2 -->
<g id="edge1" class="edge">
<title>Node1&#45;&gt;Node2</title>
<path fill="none" stroke="midnightblue" d="M1814.7,-139.33C1798.49,-149.74 1776.5,-163.78 1757,-176 1749.32,-180.81 1740.75,-186.1 1733.6,-190.48"/>
<polygon fill="midnightblue" stroke="midnightblue" points="1817,-142.01 1823.53,-133.66 1813.22,-136.12 1817,-142.01"/>
</g>
<!-- Node4 -->
<g id="node4" class="node">
<title>Node4</title>
<g id="a_node4"><a xlink:href="hit__manager__bonus_8h.html#aebab6e1f11fc5b2e6c420276c9beee96" target="_top" xlink:title="Calculates if a cone was hit by a ray.">
<polygon fill="none" stroke="black" points="1426,-152.5 1426,-171.5 1496,-171.5 1496,-152.5 1426,-152.5"/>
<text text-anchor="middle" x="1461" y="-159.5" font-family="Helvetica,sans-Serif" font-size="10.00">ft_hit_cone</text>
</a>
</g>
</g>
<!-- Node1&#45;&gt;Node4 -->
<g id="edge22" class="edge">
<title>Node1&#45;&gt;Node4</title>
<path fill="none" stroke="midnightblue" d="M1782.89,-134.23C1774.24,-135.63 1765.39,-136.94 1757,-138 1662.94,-149.88 1551.23,-157.1 1496.17,-160.21"/>
<polygon fill="midnightblue" stroke="midnightblue" points="1783.62,-137.66 1792.92,-132.57 1782.48,-130.75 1783.62,-137.66"/>
</g>
<!-- Node6 -->
<g id="node6" class="node">
<title>Node6</title>
<g id="a_node6"><a xlink:href="lighting__bonus_8h.html#a7fe107fe556fd497ebfc4c4df70b83da" target="_top" xlink:title="Looks for the closest object hit by a ray.">
<polygon fill="none" stroke="black" points="1154,-114.5 1154,-133.5 1256,-133.5 1256,-114.5 1154,-114.5"/>
<text text-anchor="middle" x="1205" y="-121.5" font-family="Helvetica,sans-Serif" font-size="10.00">ft_get_closest_hit</text>
</a>
</g>
</g>
<!-- Node1&#45;&gt;Node6 -->
<g id="edge21" class="edge">
<title>Node1&#45;&gt;Node6</title>
<path fill="none" stroke="midnightblue" d="M1782.57,-124C1731.7,-124 1654.56,-124 1587.5,-124 1587.5,-124 1587.5,-124 1460,-124 1389.22,-124 1307.35,-124 1256.12,-124"/>
<polygon fill="midnightblue" stroke="midnightblue" points="1782.7,-127.5 1792.7,-124 1782.7,-120.5 1782.7,-127.5"/>
</g>
<!-- Node10 -->
<g id="node10" class="node">
<title>Node10</title>
<g id="a_node10"><a xlink:href="ray_8h.html#a2cffd188fb76990901db47a2c3ac638f" target="_top" xlink:title="Returns the colour of a ray.">
<polygon fill="none" stroke="black" points="634,-133.5 634,-152.5 714,-152.5 714,-133.5 634,-133.5"/>
<text text-anchor="middle" x="674" y="-140.5" font-family="Helvetica,sans-Serif" font-size="10.00">ft_ray_colour</text>
</a>
</g>
</g>
<!-- Node1&#45;&gt;Node10 -->
<g id="edge28" class="edge">
<title>Node1&#45;&gt;Node10</title>
<path fill="none" stroke="midnightblue" d="M1828.51,-142.48C1815.35,-164.81 1789.96,-201.56 1757,-219 1690,-254.45 1663.31,-238 1587.5,-238 1587.5,-238 1587.5,-238 912.5,-238 821.24,-238 723.45,-176.78 688.43,-152.63"/>
<polygon fill="midnightblue" stroke="midnightblue" points="1831.65,-144.05 1833.54,-133.62 1825.56,-140.59 1831.65,-144.05"/>
</g>
<!-- Node17 -->
<g id="node17" class="node">
<title>Node17</title>
<g id="a_node17"><a xlink:href="lighting_8h.html#a931177e8edb2dd5393cef7a468389a4d" target="_top" xlink:title="Determines whether the shadow ray emitted from the point of intersection is blocked on its way to the...">
<polygon fill="none" stroke="black" points="1140,-38.5 1140,-57.5 1270,-57.5 1270,-38.5 1140,-38.5"/>
<text text-anchor="middle" x="1205" y="-45.5" font-family="Helvetica,sans-Serif" font-size="10.00">ft_shadow_ray_blocked</text>
</a>
</g>
</g>
<!-- Node1&#45;&gt;Node17 -->
<g id="edge29" class="edge">
<title>Node1&#45;&gt;Node17</title>
<path fill="none" stroke="midnightblue" d="M1811.02,-109.85C1765.7,-87.86 1671.91,-48 1587.5,-48 1587.5,-48 1587.5,-48 1460,-48 1395.4,-48 1321.55,-48 1270.2,-48"/>
<polygon fill="midnightblue" stroke="midnightblue" points="1809.67,-113.08 1820.19,-114.37 1812.77,-106.81 1809.67,-113.08"/>
</g>
<!-- Node18 -->
<g id="node18" class="node">
<title>Node18</title>
<g id="a_node18"><a xlink:href="hit__manager_8h.html#af2540784b9e01fbdfeacb544ea2c169a" target="_top" xlink:title="Calculates the hit point of the ray with the cylinder cap.">
<polygon fill="none" stroke="black" points="1677,-0.5 1677,-19.5 1757,-19.5 1757,-0.5 1677,-0.5"/>
<text text-anchor="middle" x="1717" y="-7.5" font-family="Helvetica,sans-Serif" font-size="10.00">ft_cy_cap_hit</text>
</a>
</g>
</g>
<!-- Node1&#45;&gt;Node18 -->
<g id="edge20" class="edge">
<title>Node1&#45;&gt;Node18</title>
<path fill="none" stroke="midnightblue" d="M1825,-106.31C1809.8,-87.1 1783.71,-56.2 1757,-34 1750.52,-28.61 1742.72,-23.57 1735.8,-19.52"/>
<polygon fill="midnightblue" stroke="midnightblue" points="1822.28,-108.51 1831.18,-114.24 1827.8,-104.2 1822.28,-108.51"/>
</g>
<!-- Node19 -->
<g id="node19" class="node">
<title>Node19</title>
<g id="a_node19"><a xlink:href="hit__manager_8h.html#ad1c0dcb3141fe78ed26368ca7bb8d2b8" target="_top" xlink:title="Calculates if a cylinder was hit by a ray.">
<polygon fill="none" stroke="black" points="1543.5,-76.5 1543.5,-95.5 1629.5,-95.5 1629.5,-76.5 1543.5,-76.5"/>
<text text-anchor="middle" x="1586.5" y="-83.5" font-family="Helvetica,sans-Serif" font-size="10.00">ft_hit_cylinder</text>
</a>
</g>
</g>
<!-- Node1&#45;&gt;Node19 -->
<g id="edge23" class="edge">
<title>Node1&#45;&gt;Node19</title>
<path fill="none" stroke="midnightblue" d="M1782.83,-114.21C1774.19,-112.76 1765.36,-111.31 1757,-110 1713.69,-103.22 1664.02,-96.28 1629.69,-91.62"/>
<polygon fill="midnightblue" stroke="midnightblue" points="1782.4,-117.69 1792.85,-115.91 1783.58,-110.79 1782.4,-117.69"/>
</g>
<!-- Node3 -->
<g id="node3" class="node">
<title>Node3</title>
<g id="a_node3"><a xlink:href="hit__manager__bonus_8h.html#a9752309af1756a6360c6459ed6747f83" target="_top" xlink:title="Calculates potential hits of a cone.">
<polygon fill="none" stroke="black" points="1532,-190.5 1532,-209.5 1641,-209.5 1641,-190.5 1532,-190.5"/>
<text text-anchor="middle" x="1586.5" y="-197.5" font-family="Helvetica,sans-Serif" font-size="10.00">ft_co_calc_pot_hits</text>
</a>
</g>
</g>
<!-- Node2&#45;&gt;Node3 -->
<g id="edge2" class="edge">
<title>Node2&#45;&gt;Node3</title>
<path fill="none" stroke="midnightblue" d="M1666.48,-200C1658.2,-200 1649.57,-200 1641.18,-200"/>
<polygon fill="midnightblue" stroke="midnightblue" points="1666.75,-203.5 1676.75,-200 1666.75,-196.5 1666.75,-203.5"/>
</g>
<!-- Node3&#45;&gt;Node4 -->
<g id="edge3" class="edge">
<title>Node3&#45;&gt;Node4</title>
<path fill="none" stroke="midnightblue" d="M1544.76,-187.46C1527.96,-182.3 1508.8,-176.4 1493.15,-171.59"/>
<polygon fill="midnightblue" stroke="midnightblue" points="1543.75,-190.82 1554.34,-190.41 1545.81,-184.12 1543.75,-190.82"/>
</g>
<!-- Node5 -->
<g id="node5" class="node">
<title>Node5</title>
<g id="a_node5"><a xlink:href="hit__bonus_8c.html#a9d5972226064b0a4d0e1359d9230abec" target="_top" xlink:title="Investigate a hittable and returns whether a hit occured or not.">
<polygon fill="none" stroke="black" points="1306,-152.5 1306,-171.5 1390,-171.5 1390,-152.5 1306,-152.5"/>
<text text-anchor="middle" x="1348" y="-159.5" font-family="Helvetica,sans-Serif" font-size="10.00">ft_hit_hittable</text>
</a>
</g>
</g>
<!-- Node4&#45;&gt;Node5 -->
<g id="edge4" class="edge">
<title>Node4&#45;&gt;Node5</title>
<path fill="none" stroke="midnightblue" d="M1415.78,-162C1407.38,-162 1398.63,-162 1390.32,-162"/>
<polygon fill="midnightblue" stroke="midnightblue" points="1415.79,-165.5 1425.79,-162 1415.79,-158.5 1415.79,-165.5"/>
</g>
<!-- Node5&#45;&gt;Node6 -->
<g id="edge5" class="edge">
<title>Node5&#45;&gt;Node6</title>
<path fill="none" stroke="midnightblue" d="M1301.56,-149.75C1282.13,-144.52 1259.77,-138.49 1241.57,-133.59"/>
<polygon fill="midnightblue" stroke="midnightblue" points="1300.85,-153.19 1311.42,-152.41 1302.68,-146.43 1300.85,-153.19"/>
</g>
<!-- Node5&#45;&gt;Node10 -->
<g id="edge18" class="edge">
<title>Node5&#45;&gt;Node10</title>
<path fill="none" stroke="midnightblue" d="M1295.75,-162C1237.35,-162 1139.05,-162 1054.5,-162 1054.5,-162 1054.5,-162 912.5,-162 842.39,-162 761,-153.67 714.01,-148.04"/>
<polygon fill="midnightblue" stroke="midnightblue" points="1295.83,-165.5 1305.83,-162 1295.83,-158.5 1295.83,-165.5"/>
</g>
<!-- Node5&#45;&gt;Node17 -->
<g id="edge19" class="edge">
<title>Node5&#45;&gt;Node17</title>
<path fill="none" stroke="midnightblue" d="M1326.95,-145.79C1297.19,-121.73 1242.21,-77.28 1217.99,-57.69"/>
<polygon fill="midnightblue" stroke="midnightblue" points="1325,-148.71 1334.98,-152.28 1329.4,-143.27 1325,-148.71"/>
</g>
<!-- Node7 -->
<g id="node7" class="node">
<title>Node7</title>
<g id="a_node7"><a xlink:href="lighting__bonus_8h.html#ab380b8bbadc80a5a668141c8edcc4754" target="_top" xlink:title="Create reflective lighting by recursion.">
<polygon fill="none" stroke="black" points="1003,-114.5 1003,-133.5 1104,-133.5 1104,-114.5 1003,-114.5"/>
<text text-anchor="middle" x="1053.5" y="-121.5" font-family="Helvetica,sans-Serif" font-size="10.00">ft_reflective_light</text>
</a>
</g>
</g>
<!-- Node6&#45;&gt;Node7 -->
<g id="edge6" class="edge">
<title>Node6&#45;&gt;Node7</title>
<path fill="none" stroke="midnightblue" d="M1143.46,-124C1130.37,-124 1116.67,-124 1104.06,-124"/>
<polygon fill="midnightblue" stroke="midnightblue" points="1143.8,-127.5 1153.8,-124 1143.8,-120.5 1143.8,-127.5"/>
</g>
<!-- Node8 -->
<g id="node8" class="node">
<title>Node8</title>
<g id="a_node8"><a xlink:href="lighting__bonus_8h.html#a31af89240f5ffa2f65f1525d06121d73" target="_top" xlink:title="Computes the colour of light interacting with different material properties.">
<polygon fill="none" stroke="black" points="860,-114.5 860,-133.5 967,-133.5 967,-114.5 860,-114.5"/>
<text text-anchor="middle" x="913.5" y="-121.5" font-family="Helvetica,sans-Serif" font-size="10.00">ft_compute_colour</text>
</a>
</g>
</g>
<!-- Node7&#45;&gt;Node8 -->
<g id="edge7" class="edge">
<title>Node7&#45;&gt;Node8</title>
<path fill="none" stroke="midnightblue" d="M992.48,-117.3C984.01,-117.2 975.35,-117.25 967.04,-117.42"/>
<polygon fill="midnightblue" stroke="midnightblue" points="992.62,-120.8 1002.68,-117.49 992.74,-113.81 992.62,-120.8"/>
</g>
<!-- Node8&#45;&gt;Node7 -->
<g id="edge17" class="edge">
<title>Node8&#45;&gt;Node7</title>
<path fill="none" stroke="midnightblue" d="M977.31,-130.73C985.82,-130.79 994.45,-130.72 1002.68,-130.51"/>
<polygon fill="midnightblue" stroke="midnightblue" points="977.09,-127.22 967.04,-130.58 976.99,-134.22 977.09,-127.22"/>
</g>
<!-- Node9 -->
<g id="node9" class="node">
<title>Node9</title>
<g id="a_node9"><a xlink:href="scene__light__bonus_8c.html#a3d54436a3f695a60b1c2d9e504a61de8" target="_top" xlink:title="Calculate the effect of different lighting on perception.">
<polygon fill="none" stroke="black" points="750,-114.5 750,-133.5 824,-133.5 824,-114.5 750,-114.5"/>
<text text-anchor="middle" x="787" y="-121.5" font-family="Helvetica,sans-Serif" font-size="10.00">ft_enlighten</text>
</a>
</g>
</g>
<!-- Node8&#45;&gt;Node9 -->
<g id="edge8" class="edge">
<title>Node8&#45;&gt;Node9</title>
<path fill="none" stroke="midnightblue" d="M849.56,-124C840.9,-124 832.25,-124 824.3,-124"/>
<polygon fill="midnightblue" stroke="midnightblue" points="849.7,-127.5 859.7,-124 849.7,-120.5 849.7,-127.5"/>
</g>
<!-- Node9&#45;&gt;Node10 -->
<g id="edge9" class="edge">
<title>Node9&#45;&gt;Node10</title>
<path fill="none" stroke="midnightblue" d="M740.1,-131.86C731.53,-133.32 722.65,-134.84 714.31,-136.27"/>
<polygon fill="midnightblue" stroke="midnightblue" points="740.7,-135.31 749.96,-130.17 739.51,-128.41 740.7,-135.31"/>
</g>
<!-- Node11 -->
<g id="node11" class="node">
<title>Node11</title>
<g id="a_node11"><a xlink:href="ray__bonus_8h.html#af9c073d2966aa21738e1d2083762055f" target="_top" xlink:title="Returns the colour of a pixel by means of anti&#45;aliasing.">
<polygon fill="none" stroke="black" points="481,-152.5 481,-171.5 598,-171.5 598,-152.5 481,-152.5"/>
<text text-anchor="middle" x="539.5" y="-159.5" font-family="Helvetica,sans-Serif" font-size="10.00">ft_anti_aliase_colour</text>
</a>
</g>
</g>
<!-- Node10&#45;&gt;Node11 -->
<g id="edge10" class="edge">
<title>Node10&#45;&gt;Node11</title>
<path fill="none" stroke="midnightblue" d="M624.02,-150.02C615.69,-151.22 606.95,-152.47 598.41,-153.7"/>
<polygon fill="midnightblue" stroke="midnightblue" points="624.56,-153.48 633.96,-148.6 623.57,-146.55 624.56,-153.48"/>
</g>
<!-- Node16 -->
<g id="node16" class="node">
<title>Node16</title>
<g id="a_node16"><a xlink:href="render_8h.html#a4f238596a8fca72f9af80be57cf06d34" target="_top" xlink:title="Renders the scene to the mlx img.">
<polygon fill="none" stroke="black" points="349,-114.5 349,-133.5 445,-133.5 445,-114.5 349,-114.5"/>
<text text-anchor="middle" x="397" y="-121.5" font-family="Helvetica,sans-Serif" font-size="10.00">ft_render_image</text>
</a>
</g>
</g>
<!-- Node10&#45;&gt;Node16 -->
<g id="edge15" class="edge">
<title>Node10&#45;&gt;Node16</title>
<path fill="none" stroke="midnightblue" d="M623.86,-139.6C573.31,-136.11 495.12,-130.71 445.27,-127.27"/>
<polygon fill="midnightblue" stroke="midnightblue" points="623.67,-143.1 633.89,-140.3 624.16,-136.12 623.67,-143.1"/>
</g>
<!-- Node12 -->
<g id="node12" class="node">
<title>Node12</title>
<g id="a_node12"><a xlink:href="render__draw__bonus_8c.html#a4f238596a8fca72f9af80be57cf06d34" target="_top" xlink:title="Renders the scene to the mlx img.">
<polygon fill="none" stroke="black" points="349,-152.5 349,-171.5 445,-171.5 445,-152.5 349,-152.5"/>
<text text-anchor="middle" x="397" y="-159.5" font-family="Helvetica,sans-Serif" font-size="10.00">ft_render_image</text>
</a>
</g>
</g>
<!-- Node11&#45;&gt;Node12 -->
<g id="edge11" class="edge">
<title>Node11&#45;&gt;Node12</title>
<path fill="none" stroke="midnightblue" d="M470.89,-162C462.27,-162 453.6,-162 445.39,-162"/>
<polygon fill="midnightblue" stroke="midnightblue" points="470.95,-165.5 480.95,-162 470.95,-158.5 470.95,-165.5"/>
</g>
<!-- Node13 -->
<g id="node13" class="node">
<title>Node13</title>
<g id="a_node13"><a xlink:href="render_8h.html#af908c05cb19e716220bc98fcf9582573" target="_top" xlink:title=" ">
<polygon fill="none" stroke="black" points="227,-133.5 227,-152.5 313,-152.5 313,-133.5 227,-133.5"/>
<text text-anchor="middle" x="270" y="-140.5" font-family="Helvetica,sans-Serif" font-size="10.00">ft_draw_scene</text>
</a>
</g>
</g>
<!-- Node12&#45;&gt;Node13 -->
<g id="edge12" class="edge">
<title>Node12&#45;&gt;Node13</title>
<path fill="none" stroke="midnightblue" d="M338.8,-153.31C330.25,-152.01 321.57,-150.69 313.4,-149.44"/>
<polygon fill="midnightblue" stroke="midnightblue" points="338.33,-156.77 348.74,-154.82 339.38,-149.85 338.33,-156.77"/>
</g>
<!-- Node14 -->
<g id="node14" class="node">
<title>Node14</title>
<g id="a_node14"><a xlink:href="render_8h.html#ab7a01aa5d27d2fad2942a43a31ae0d52" target="_top" xlink:title="Starts the mlx loop.">
<polygon fill="none" stroke="black" points="77,-133.5 77,-152.5 191,-152.5 191,-133.5 77,-133.5"/>
<text text-anchor="middle" x="134" y="-140.5" font-family="Helvetica,sans-Serif" font-size="10.00">ft_render_start_loop</text>
</a>
</g>
</g>
<!-- Node13&#45;&gt;Node14 -->
<g id="edge13" class="edge">
<title>Node13&#45;&gt;Node14</title>
<path fill="none" stroke="midnightblue" d="M216.88,-143C208.44,-143 199.66,-143 191.13,-143"/>
<polygon fill="midnightblue" stroke="midnightblue" points="216.97,-146.5 226.97,-143 216.97,-139.5 216.97,-146.5"/>
</g>
<!-- Node15 -->
<g id="node15" class="node">
<title>Node15</title>
<g id="a_node15"><a xlink:href="main_8c.html#a3c04138a5bfe5d72780bb7e82a18e627" target="_top" xlink:title=" ">
<polygon fill="none" stroke="black" points="0,-133.5 0,-152.5 41,-152.5 41,-133.5 0,-133.5"/>
<text text-anchor="middle" x="20.5" y="-140.5" font-family="Helvetica,sans-Serif" font-size="10.00">main</text>
</a>
</g>
</g>
<!-- Node14&#45;&gt;Node15 -->
<g id="edge14" class="edge">
<title>Node14&#45;&gt;Node15</title>
<path fill="none" stroke="midnightblue" d="M66.7,-143C57.37,-143 48.45,-143 41.04,-143"/>
<polygon fill="midnightblue" stroke="midnightblue" points="66.92,-146.5 76.92,-143 66.92,-139.5 66.92,-146.5"/>
</g>
<!-- Node16&#45;&gt;Node13 -->
<g id="edge16" class="edge">
<title>Node16&#45;&gt;Node13</title>
<path fill="none" stroke="midnightblue" d="M338.8,-132.69C330.25,-133.99 321.57,-135.31 313.4,-136.56"/>
<polygon fill="midnightblue" stroke="midnightblue" points="339.38,-136.15 348.74,-131.18 338.33,-129.23 339.38,-136.15"/>
</g>
<!-- Node20 -->
<g id="node20" class="node">
<title>Node20</title>
<g id="a_node20"><a xlink:href="hit__manager_8h.html#a9d5972226064b0a4d0e1359d9230abec" target="_top" xlink:title="Investigate a hittable and returns whether a hit occured or not.">
<polygon fill="none" stroke="black" points="1306,-76.5 1306,-95.5 1390,-95.5 1390,-76.5 1306,-76.5"/>
<text text-anchor="middle" x="1348" y="-83.5" font-family="Helvetica,sans-Serif" font-size="10.00">ft_hit_hittable</text>
</a>
</g>
</g>
<!-- Node19&#45;&gt;Node20 -->
<g id="edge24" class="edge">
<title>Node19&#45;&gt;Node20</title>
<path fill="none" stroke="midnightblue" d="M1533.48,-86C1490.4,-86 1430.01,-86 1390.22,-86"/>
<polygon fill="midnightblue" stroke="midnightblue" points="1533.49,-89.5 1543.49,-86 1533.49,-82.5 1533.49,-89.5"/>
</g>
<!-- Node20&#45;&gt;Node6 -->
<g id="edge25" class="edge">
<title>Node20&#45;&gt;Node6</title>
<path fill="none" stroke="midnightblue" d="M1301.56,-98.25C1282.13,-103.48 1259.77,-109.51 1241.57,-114.41"/>
<polygon fill="midnightblue" stroke="midnightblue" points="1302.68,-101.57 1311.42,-95.59 1300.85,-94.81 1302.68,-101.57"/>
</g>
<!-- Node20&#45;&gt;Node10 -->
<g id="edge26" class="edge">
<title>Node20&#45;&gt;Node10</title>
<path fill="none" stroke="midnightblue" d="M1295.75,-86C1237.35,-86 1139.05,-86 1054.5,-86 1054.5,-86 1054.5,-86 912.5,-86 839.79,-86 819.62,-84.02 750,-105 727.92,-111.65 704.52,-124.57 689.85,-133.48"/>
<polygon fill="midnightblue" stroke="midnightblue" points="1295.83,-89.5 1305.83,-86 1295.83,-82.5 1295.83,-89.5"/>
</g>
<!-- Node20&#45;&gt;Node17 -->
<g id="edge27" class="edge">
<title>Node20&#45;&gt;Node17</title>
<path fill="none" stroke="midnightblue" d="M1301.56,-73.75C1282.13,-68.52 1259.77,-62.49 1241.57,-57.59"/>
<polygon fill="midnightblue" stroke="midnightblue" points="1300.85,-77.19 1311.42,-76.41 1302.68,-70.43 1300.85,-77.19"/>
</g>
</g>
</svg>
