<?xml version="1.0" encoding="UTF-8" standalone="no"?>
<!DOCTYPE svg PUBLIC "-//W3C//DTD SVG 1.1//EN"
 "http://www.w3.org/Graphics/SVG/1.1/DTD/svg11.dtd">
<!-- Generated by graphviz version 2.43.0 (0)
 -->
<!-- Title: ft_hit_cone Pages: 1 -->
<!--zoomable 560 -->
<svg id="main" version="1.1" xmlns="http://www.w3.org/2000/svg" xmlns:xlink="http://www.w3.org/1999/xlink" xml:space="preserve" onload="init(evt)">
<style type="text/css"><![CDATA[
.edge:hover path { stroke: red; }
.edge:hover polygon { stroke: red; fill: red; }
]]></style>
<script type="text/javascript"><![CDATA[
var edges = document.getElementsByTagName('g');
if (edges && edges.length) {
  for (var i=0;i<edges.length;i++) {
    if (edges[i].id.substr(0,4)=='edge') {
      edges[i].setAttribute('class','edge');
    }
  }
}
]]></script>
        <defs>
                <circle id="rim" cx="0" cy="0" r="7"/>
                <circle id="rim2" cx="0" cy="0" r="3.5"/>
                <g id="zoomPlus">
                        <use xlink:href="#rim" fill="#404040">
                                <set attributeName="fill" to="#808080" begin="zoomplus.mouseover" end="zoomplus.mouseout"/>
                        </use>
                        <path d="M-4,0h8M0,-4v8" fill="none" stroke="white" stroke-width="1.5" pointer-events="none"/>
                </g>
                <g id="zoomMin">
                        <use xlink:href="#rim" fill="#404040">
                                <set attributeName="fill" to="#808080" begin="zoomminus.mouseover" end="zoomminus.mouseout"/>
                        </use>
                        <path d="M-4,0h8" fill="none" stroke="white" stroke-width="1.5" pointer-events="none"/>
                </g>
                <g id="dirArrow">
                        <path fill="none" stroke="white" stroke-width="1.5" d="M0,-3.0v7 M-2.5,-0.5L0,-3.0L2.5,-0.5"/>
                </g>
               <g id="resetDef">
                       <use xlink:href="#rim2" fill="#404040">
                               <set attributeName="fill" to="#808080" begin="reset.mouseover" end="reset.mouseout"/>
                       </use>
               </g>
        </defs>

<script type="text/javascript">
var viewWidth = 795;
var viewHeight = 560;
var sectionId = 'dynsection-9';
</script>
<script xlink:href="svgpan.js"/>
<svg id="graph" class="graph">
<g id="viewport">
<title>ft_hit_cone</title>
<!-- Node1 -->
<g id="node1" class="node">
<title>Node1</title>
<g id="a_node1"><a xlink:title="Calculates if a cone was hit by a ray.">
<polygon fill="#bfbfbf" stroke="black" points="0,-380.5 0,-399.5 70,-399.5 70,-380.5 0,-380.5"/>
<text text-anchor="middle" x="35" y="-387.5" font-family="Helvetica,sans-Serif" font-size="10.00">ft_hit_cone</text>
</a>
</g>
</g>
<!-- Node2 -->
<g id="node2" class="node">
<title>Node2</title>
<g id="a_node2"><a xlink:href="hit__cone__bonus_8c.html#a9752309af1756a6360c6459ed6747f83" target="_top" xlink:title="Calculates potential hits of a cone.">
<polygon fill="none" stroke="black" points="106,-380.5 106,-399.5 215,-399.5 215,-380.5 106,-380.5"/>
<text text-anchor="middle" x="160.5" y="-387.5" font-family="Helvetica,sans-Serif" font-size="10.00">ft_co_calc_pot_hits</text>
</a>
</g>
</g>
<!-- Node1&#45;&gt;Node2 -->
<g id="edge1" class="edge">
<title>Node1&#45;&gt;Node2</title>
<path fill="none" stroke="midnightblue" d="M70.07,-390C77.98,-390 86.64,-390 95.37,-390"/>
<polygon fill="midnightblue" stroke="midnightblue" points="95.6,-393.5 105.6,-390 95.6,-386.5 95.6,-393.5"/>
</g>
<!-- Node12 -->
<g id="node12" class="node">
<title>Node12</title>
<g id="a_node12"><a xlink:href="hit__manager_8h.html#aa5acefb1538a700dc595870ad630f83d" target="_top" xlink:title="Initiates hitrecord struct.">
<polygon fill="none" stroke="black" points="404.5,-456.5 404.5,-475.5 497.5,-475.5 497.5,-456.5 404.5,-456.5"/>
<text text-anchor="middle" x="451" y="-463.5" font-family="Helvetica,sans-Serif" font-size="10.00">ft_init_hitrecord</text>
</a>
</g>
</g>
<!-- Node1&#45;&gt;Node12 -->
<g id="edge53" class="edge">
<title>Node1&#45;&gt;Node12</title>
<path fill="none" stroke="midnightblue" d="M70.16,-399.34C81.56,-402.43 94.32,-405.88 106,-409 170.37,-426.17 185.41,-435.35 251,-447 298.94,-455.51 354.1,-460.4 394.17,-463.08"/>
<polygon fill="midnightblue" stroke="midnightblue" points="394.07,-466.58 404.27,-463.73 394.52,-459.6 394.07,-466.58"/>
</g>
<!-- Node13 -->
<g id="node13" class="node">
<title>Node13</title>
<g id="a_node13"><a xlink:href="hit__cone__bonus_8c.html#a049d2a1135caa57d1d9ed8845f229620" target="_top" xlink:title="Determines whether the potential hits are accurate.">
<polygon fill="none" stroke="black" points="253,-228.5 253,-247.5 358,-247.5 358,-228.5 253,-228.5"/>
<text text-anchor="middle" x="305.5" y="-235.5" font-family="Helvetica,sans-Serif" font-size="10.00">ft_co_identify_hits</text>
</a>
</g>
</g>
<!-- Node1&#45;&gt;Node13 -->
<g id="edge16" class="edge">
<title>Node1&#45;&gt;Node13</title>
<path fill="none" stroke="midnightblue" d="M50.78,-380.39C85.17,-358.21 173.52,-302.27 251,-262 257.77,-258.48 265.16,-254.97 272.23,-251.75"/>
<polygon fill="midnightblue" stroke="midnightblue" points="273.87,-254.86 281.58,-247.59 271.02,-248.46 273.87,-254.86"/>
</g>
<!-- Node17 -->
<g id="node17" class="node">
<title>Node17</title>
<g id="a_node17"><a xlink:href="hit__cone__bonus_8c.html#a69c648bba2a12763904900ce56cadb8a" target="_top" xlink:title="Overwrites the hit record &quot;rec&quot; with the new hit data found in the &quot;tmp&quot; hit record.">
<polygon fill="none" stroke="black" points="251,-181.5 251,-200.5 360,-200.5 360,-181.5 251,-181.5"/>
<text text-anchor="middle" x="305.5" y="-188.5" font-family="Helvetica,sans-Serif" font-size="10.00">ft_co_set_hitrecord</text>
</a>
</g>
</g>
<!-- Node1&#45;&gt;Node17 -->
<g id="edge28" class="edge">
<title>Node1&#45;&gt;Node17</title>
<path fill="none" stroke="midnightblue" d="M39.73,-380.25C48.33,-358.96 71.47,-307.83 106,-278 149.84,-240.11 212.77,-216.33 255.96,-203.38"/>
<polygon fill="midnightblue" stroke="midnightblue" points="257.05,-206.71 265.67,-200.56 255.09,-199.99 257.05,-206.71"/>
</g>
<!-- Node28 -->
<g id="node28" class="node">
<title>Node28</title>
<g id="a_node28"><a xlink:href="hit__manager__bonus_8h.html#ad993587b48c94f1634b1ff05b6c48d9d" target="_top" xlink:title="Checks whether the cone is blocked by another object.">
<polygon fill="none" stroke="black" points="122,-513.5 122,-532.5 199,-532.5 199,-513.5 122,-513.5"/>
<text text-anchor="middle" x="160.5" y="-520.5" font-family="Helvetica,sans-Serif" font-size="10.00">ft_co_visible</text>
</a>
</g>
</g>
<!-- Node1&#45;&gt;Node28 -->
<g id="edge51" class="edge">
<title>Node1&#45;&gt;Node28</title>
<path fill="none" stroke="midnightblue" d="M42.3,-399.52C53.84,-416.6 79.62,-453.19 106,-480 115.57,-489.72 127.28,-499.35 137.3,-507.02"/>
<polygon fill="midnightblue" stroke="midnightblue" points="135.47,-510.02 145.57,-513.21 139.66,-504.42 135.47,-510.02"/>
</g>
<!-- Node3 -->
<g id="node3" class="node">
<title>Node3</title>
<g id="a_node3"><a xlink:href="hit__cone__bonus_8c.html#aee5824df7f0e0c2698306f49f9a1c790" target="_top" xlink:title="Calculates potential hit of cone cap.">
<polygon fill="none" stroke="black" points="265.5,-418.5 265.5,-437.5 345.5,-437.5 345.5,-418.5 265.5,-418.5"/>
<text text-anchor="middle" x="305.5" y="-425.5" font-family="Helvetica,sans-Serif" font-size="10.00">ft_co_cap_hit</text>
</a>
</g>
</g>
<!-- Node2&#45;&gt;Node3 -->
<g id="edge2" class="edge">
<title>Node2&#45;&gt;Node3</title>
<path fill="none" stroke="midnightblue" d="M197.58,-399.59C216.13,-404.52 238.93,-410.57 258.7,-415.83"/>
<polygon fill="midnightblue" stroke="midnightblue" points="257.86,-419.23 268.43,-418.41 259.66,-412.46 257.86,-419.23"/>
</g>
<!-- Node8 -->
<g id="node8" class="node">
<title>Node8</title>
<g id="a_node8"><a xlink:href="utils_8h.html#a90ba8fcafcfab2af9f361cde331dbb06" target="_top" xlink:title="Solves the given equation.">
<polygon fill="none" stroke="black" points="564.5,-494.5 564.5,-513.5 619.5,-513.5 619.5,-494.5 564.5,-494.5"/>
<text text-anchor="middle" x="592" y="-501.5" font-family="Helvetica,sans-Serif" font-size="10.00">ft_solve</text>
</a>
</g>
</g>
<!-- Node2&#45;&gt;Node8 -->
<g id="edge13" class="edge">
<title>Node2&#45;&gt;Node8</title>
<path fill="none" stroke="midnightblue" d="M173.84,-399.63C190.48,-412.2 221.46,-434.1 251,-447 354.4,-492.15 489.87,-501.71 554.12,-503.62"/>
<polygon fill="midnightblue" stroke="midnightblue" points="554.09,-507.12 564.17,-503.87 554.26,-500.12 554.09,-507.12"/>
</g>
<!-- Node10 -->
<g id="node10" class="node">
<title>Node10</title>
<g id="a_node10"><a xlink:href="vec3_8h.html#a89fd02ae4b8b3602bc001664eb5e8f91" target="_top" xlink:title="Calculate the scalar product of two vectors.">
<polygon fill="none" stroke="black" points="555.5,-380.5 555.5,-399.5 628.5,-399.5 628.5,-380.5 555.5,-380.5"/>
<text text-anchor="middle" x="592" y="-387.5" font-family="Helvetica,sans-Serif" font-size="10.00">ft_vec3_dot</text>
</a>
</g>
</g>
<!-- Node2&#45;&gt;Node10 -->
<g id="edge14" class="edge">
<title>Node2&#45;&gt;Node10</title>
<path fill="none" stroke="midnightblue" d="M215.03,-390C300.14,-390 464.89,-390 545.01,-390"/>
<polygon fill="midnightblue" stroke="midnightblue" points="545.28,-393.5 555.28,-390 545.28,-386.5 545.28,-393.5"/>
</g>
<!-- Node11 -->
<g id="node11" class="node">
<title>Node11</title>
<g id="a_node11"><a xlink:href="vec3_8h.html#a54e984820b74bd803de43ce36c8cb292" target="_top" xlink:title="Subtract two vectors.">
<polygon fill="none" stroke="black" points="555,-266.5 555,-285.5 629,-285.5 629,-266.5 555,-266.5"/>
<text text-anchor="middle" x="592" y="-273.5" font-family="Helvetica,sans-Serif" font-size="10.00">ft_vec3_sub</text>
</a>
</g>
</g>
<!-- Node2&#45;&gt;Node11 -->
<g id="edge15" class="edge">
<title>Node2&#45;&gt;Node11</title>
<path fill="none" stroke="midnightblue" d="M179.74,-380.48C218.4,-360.78 311.97,-315.65 396,-295 445.88,-282.74 504.76,-278.33 544.67,-276.78"/>
<polygon fill="midnightblue" stroke="midnightblue" points="545.02,-280.27 554.9,-276.43 544.78,-273.27 545.02,-280.27"/>
</g>
<!-- Node4 -->
<g id="node4" class="node">
<title>Node4</title>
<g id="a_node4"><a xlink:href="hit__manager_8h.html#a04f04eb6383f01a28b0c7201ab52782e" target="_top" xlink:title="Calculates if a plane was hit by a ray.">
<polygon fill="none" stroke="black" points="414,-418.5 414,-437.5 488,-437.5 488,-418.5 414,-418.5"/>
<text text-anchor="middle" x="451" y="-425.5" font-family="Helvetica,sans-Serif" font-size="10.00">ft_hit_plane</text>
</a>
</g>
</g>
<!-- Node3&#45;&gt;Node4 -->
<g id="edge3" class="edge">
<title>Node3&#45;&gt;Node4</title>
<path fill="none" stroke="midnightblue" d="M345.71,-428C363.64,-428 385,-428 403.71,-428"/>
<polygon fill="midnightblue" stroke="midnightblue" points="403.79,-431.5 413.79,-428 403.79,-424.5 403.79,-431.5"/>
</g>
<!-- Node3&#45;&gt;Node12 -->
<g id="edge12" class="edge">
<title>Node3&#45;&gt;Node12</title>
<path fill="none" stroke="midnightblue" d="M342.71,-437.59C361.32,-442.52 384.2,-448.57 404.04,-453.83"/>
<polygon fill="midnightblue" stroke="midnightblue" points="403.24,-457.24 413.8,-456.41 405.03,-450.47 403.24,-457.24"/>
</g>
<!-- Node5 -->
<g id="node5" class="node">
<title>Node5</title>
<g id="a_node5"><a xlink:href="ray_8h.html#ac56e9ac7acfb4658469e190c022b0d63" target="_top" xlink:title="Represents a ray.">
<polygon fill="none" stroke="black" points="554.5,-418.5 554.5,-437.5 629.5,-437.5 629.5,-418.5 554.5,-418.5"/>
<text text-anchor="middle" x="592" y="-425.5" font-family="Helvetica,sans-Serif" font-size="10.00">ft_scale_ray</text>
</a>
</g>
</g>
<!-- Node4&#45;&gt;Node5 -->
<g id="edge4" class="edge">
<title>Node4&#45;&gt;Node5</title>
<path fill="none" stroke="midnightblue" d="M488.16,-428C505.18,-428 525.7,-428 543.92,-428"/>
<polygon fill="midnightblue" stroke="midnightblue" points="544.06,-431.5 554.06,-428 544.06,-424.5 544.06,-431.5"/>
</g>
<!-- Node7 -->
<g id="node7" class="node">
<title>Node7</title>
<g id="a_node7"><a xlink:href="vec3_8h.html#ac80a1c20941c96a8fafad255dac59092" target="_top" xlink:title="Scale a vector.">
<polygon fill="none" stroke="black" points="691,-228.5 691,-247.5 774,-247.5 774,-228.5 691,-228.5"/>
<text text-anchor="middle" x="732.5" y="-235.5" font-family="Helvetica,sans-Serif" font-size="10.00">ft_vec3_scale</text>
</a>
</g>
</g>
<!-- Node4&#45;&gt;Node7 -->
<g id="edge10" class="edge">
<title>Node4&#45;&gt;Node7</title>
<path fill="none" stroke="midnightblue" d="M488.35,-437.27C536.57,-448.62 618.34,-464.34 642,-447 684.86,-415.59 656.85,-381.74 678,-333 690.06,-305.2 707.96,-275.02 719.68,-256.3"/>
<polygon fill="midnightblue" stroke="midnightblue" points="722.78,-257.96 725.18,-247.64 716.87,-254.21 722.78,-257.96"/>
</g>
<!-- Node4&#45;&gt;Node8 -->
<g id="edge7" class="edge">
<title>Node4&#45;&gt;Node8</title>
<path fill="none" stroke="midnightblue" d="M485.79,-437.53C492.71,-440.12 499.78,-443.27 506,-447 524.62,-458.16 524.07,-467.77 542,-480 547.11,-483.49 552.81,-486.76 558.46,-489.7"/>
<polygon fill="midnightblue" stroke="midnightblue" points="557.29,-493.02 567.8,-494.31 560.38,-486.74 557.29,-493.02"/>
</g>
<!-- Node9 -->
<g id="node9" class="node">
<title>Node9</title>
<g id="a_node9"><a xlink:href="utils_8h.html#add4de5ba94d3f8475d0a1c4ce8abd3aa" target="_top" xlink:title="Determines if value is surrounded by the interval.">
<polygon fill="none" stroke="black" points="553.5,-532.5 553.5,-551.5 630.5,-551.5 630.5,-532.5 553.5,-532.5"/>
<text text-anchor="middle" x="592" y="-539.5" font-family="Helvetica,sans-Serif" font-size="10.00">ft_surrounds</text>
</a>
</g>
</g>
<!-- Node4&#45;&gt;Node9 -->
<g id="edge8" class="edge">
<title>Node4&#45;&gt;Node9</title>
<path fill="none" stroke="midnightblue" d="M488.19,-436.26C494.63,-438.91 500.91,-442.41 506,-447 533.77,-472.02 514.63,-497.55 542,-523 543.68,-524.57 545.51,-526.01 547.43,-527.33"/>
<polygon fill="midnightblue" stroke="midnightblue" points="545.95,-530.51 556.37,-532.44 549.42,-524.44 545.95,-530.51"/>
</g>
<!-- Node4&#45;&gt;Node10 -->
<g id="edge9" class="edge">
<title>Node4&#45;&gt;Node10</title>
<path fill="none" stroke="midnightblue" d="M487.08,-418.41C505.02,-413.51 527.06,-407.48 546.22,-402.24"/>
<polygon fill="midnightblue" stroke="midnightblue" points="547.21,-405.6 555.94,-399.59 545.37,-398.85 547.21,-405.6"/>
</g>
<!-- Node4&#45;&gt;Node11 -->
<g id="edge11" class="edge">
<title>Node4&#45;&gt;Node11</title>
<path fill="none" stroke="midnightblue" d="M460.7,-418.49C483.61,-393.43 545.9,-325.32 575.27,-293.2"/>
<polygon fill="midnightblue" stroke="midnightblue" points="578.14,-295.25 582.31,-285.5 572.98,-290.52 578.14,-295.25"/>
</g>
<!-- Node6 -->
<g id="node6" class="node">
<title>Node6</title>
<g id="a_node6"><a xlink:href="vec3_8h.html#a73e2caf4c2a51ed954b7349c6be2b3c3" target="_top" xlink:title="Add two vectors.">
<polygon fill="none" stroke="black" points="695,-342.5 695,-361.5 770,-361.5 770,-342.5 695,-342.5"/>
<text text-anchor="middle" x="732.5" y="-349.5" font-family="Helvetica,sans-Serif" font-size="10.00">ft_vec3_add</text>
</a>
</g>
</g>
<!-- Node5&#45;&gt;Node6 -->
<g id="edge5" class="edge">
<title>Node5&#45;&gt;Node6</title>
<path fill="none" stroke="midnightblue" d="M620.37,-418.48C627.54,-415.7 635.16,-412.46 642,-409 666.21,-396.75 692.2,-379.72 709.9,-367.47"/>
<polygon fill="midnightblue" stroke="midnightblue" points="712.16,-370.16 718.34,-361.55 708.15,-364.42 712.16,-370.16"/>
</g>
<!-- Node5&#45;&gt;Node7 -->
<g id="edge6" class="edge">
<title>Node5&#45;&gt;Node7</title>
<path fill="none" stroke="midnightblue" d="M627.63,-418.44C632.85,-415.95 637.86,-412.85 642,-409 669.37,-383.55 660.82,-366.19 678,-333 692,-305.94 709.55,-275.36 720.64,-256.38"/>
<polygon fill="midnightblue" stroke="midnightblue" points="723.76,-257.98 725.8,-247.59 717.72,-254.44 723.76,-257.98"/>
</g>
<!-- Node14 -->
<g id="node14" class="node">
<title>Node14</title>
<g id="a_node14"><a xlink:href="hit__manager__bonus_8h.html#a5daa3987cf663970a55423c4d47d2d64" target="_top" xlink:title="Check if the ray actually hit the cone cap.">
<polygon fill="none" stroke="black" points="403,-228.5 403,-247.5 499,-247.5 499,-228.5 403,-228.5"/>
<text text-anchor="middle" x="451" y="-235.5" font-family="Helvetica,sans-Serif" font-size="10.00">ft_co_check_cap</text>
</a>
</g>
</g>
<!-- Node13&#45;&gt;Node14 -->
<g id="edge17" class="edge">
<title>Node13&#45;&gt;Node14</title>
<path fill="none" stroke="midnightblue" d="M358.31,-238C369.37,-238 381.12,-238 392.39,-238"/>
<polygon fill="midnightblue" stroke="midnightblue" points="392.57,-241.5 402.57,-238 392.57,-234.5 392.57,-241.5"/>
</g>
<!-- Node16 -->
<g id="node16" class="node">
<title>Node16</title>
<g id="a_node16"><a xlink:href="hit__manager__bonus_8h.html#ac1c274bfe31accc081355bdd98133056" target="_top" xlink:title="Check if the ray actually hit the cone wall.">
<polygon fill="none" stroke="black" points="401.5,-304.5 401.5,-323.5 500.5,-323.5 500.5,-304.5 401.5,-304.5"/>
<text text-anchor="middle" x="451" y="-311.5" font-family="Helvetica,sans-Serif" font-size="10.00">ft_co_check_wall</text>
</a>
</g>
</g>
<!-- Node13&#45;&gt;Node16 -->
<g id="edge21" class="edge">
<title>Node13&#45;&gt;Node16</title>
<path fill="none" stroke="midnightblue" d="M324.67,-247.63C349.47,-260.76 394.11,-284.4 422.88,-299.64"/>
<polygon fill="midnightblue" stroke="midnightblue" points="421.5,-302.87 431.97,-304.45 424.77,-296.68 421.5,-302.87"/>
</g>
<!-- Node14&#45;&gt;Node5 -->
<g id="edge18" class="edge">
<title>Node14&#45;&gt;Node5</title>
<path fill="none" stroke="midnightblue" d="M463.96,-247.71C476.15,-258.2 494.8,-275.97 506,-295 532.96,-340.79 505.65,-370.25 542,-409 543.36,-410.45 544.84,-411.79 546.41,-413.02"/>
<polygon fill="midnightblue" stroke="midnightblue" points="544.58,-416.01 554.9,-418.41 548.33,-410.1 544.58,-416.01"/>
</g>
<!-- Node14&#45;&gt;Node11 -->
<g id="edge20" class="edge">
<title>Node14&#45;&gt;Node11</title>
<path fill="none" stroke="midnightblue" d="M487.08,-247.59C505.02,-252.49 527.06,-258.52 546.22,-263.76"/>
<polygon fill="midnightblue" stroke="midnightblue" points="545.37,-267.15 555.94,-266.41 547.21,-260.4 545.37,-267.15"/>
</g>
<!-- Node15 -->
<g id="node15" class="node">
<title>Node15</title>
<g id="a_node15"><a xlink:href="vec3_8h.html#aa84621bd979d3b12b97908f653faf88e" target="_top" xlink:title="Calculate the absolute value of a vector.">
<polygon fill="none" stroke="black" points="555,-228.5 555,-247.5 629,-247.5 629,-228.5 555,-228.5"/>
<text text-anchor="middle" x="592" y="-235.5" font-family="Helvetica,sans-Serif" font-size="10.00">ft_vec3_abs</text>
</a>
</g>
</g>
<!-- Node14&#45;&gt;Node15 -->
<g id="edge19" class="edge">
<title>Node14&#45;&gt;Node15</title>
<path fill="none" stroke="midnightblue" d="M499.06,-238C513.76,-238 529.97,-238 544.62,-238"/>
<polygon fill="midnightblue" stroke="midnightblue" points="544.98,-241.5 554.98,-238 544.98,-234.5 544.98,-241.5"/>
</g>
<!-- Node16&#45;&gt;Node5 -->
<g id="edge22" class="edge">
<title>Node16&#45;&gt;Node5</title>
<path fill="none" stroke="midnightblue" d="M460.05,-323.51C478.37,-344.97 523.04,-396.27 542,-409 544.77,-410.86 547.74,-412.57 550.8,-414.14"/>
<polygon fill="midnightblue" stroke="midnightblue" points="549.61,-417.45 560.16,-418.44 552.54,-411.09 549.61,-417.45"/>
</g>
<!-- Node16&#45;&gt;Node6 -->
<g id="edge24" class="edge">
<title>Node16&#45;&gt;Node6</title>
<path fill="none" stroke="midnightblue" d="M500.54,-321.81C513.96,-323.9 528.53,-326.1 542,-328 590.47,-334.84 646.06,-341.77 684.43,-346.41"/>
<polygon fill="midnightblue" stroke="midnightblue" points="684.43,-349.94 694.78,-347.66 685.27,-342.99 684.43,-349.94"/>
</g>
<!-- Node16&#45;&gt;Node7 -->
<g id="edge26" class="edge">
<title>Node16&#45;&gt;Node7</title>
<path fill="none" stroke="midnightblue" d="M500.56,-315.28C539.76,-314.87 595.8,-311 642,-295 668.39,-285.86 694.9,-267.56 712.15,-254.15"/>
<polygon fill="midnightblue" stroke="midnightblue" points="714.64,-256.64 720.27,-247.66 710.27,-251.17 714.64,-256.64"/>
</g>
<!-- Node16&#45;&gt;Node10 -->
<g id="edge25" class="edge">
<title>Node16&#45;&gt;Node10</title>
<path fill="none" stroke="midnightblue" d="M476.82,-323.54C486.22,-327.53 496.85,-332.52 506,-338 523.39,-348.42 524.81,-355.26 542,-366 547.59,-369.49 553.76,-372.86 559.78,-375.91"/>
<polygon fill="midnightblue" stroke="midnightblue" points="558.5,-379.17 569.02,-380.41 561.57,-372.88 558.5,-379.17"/>
</g>
<!-- Node16&#45;&gt;Node11 -->
<g id="edge27" class="edge">
<title>Node16&#45;&gt;Node11</title>
<path fill="none" stroke="midnightblue" d="M487.08,-304.41C505.02,-299.51 527.06,-293.48 546.22,-288.24"/>
<polygon fill="midnightblue" stroke="midnightblue" points="547.21,-291.6 555.94,-285.59 545.37,-284.85 547.21,-291.6"/>
</g>
<!-- Node16&#45;&gt;Node15 -->
<g id="edge23" class="edge">
<title>Node16&#45;&gt;Node15</title>
<path fill="none" stroke="midnightblue" d="M465.24,-304.45C482.37,-292.38 513.43,-271.41 542,-257 545.85,-255.06 549.95,-253.19 554.07,-251.42"/>
<polygon fill="midnightblue" stroke="midnightblue" points="555.69,-254.54 563.63,-247.53 553.05,-248.06 555.69,-254.54"/>
</g>
<!-- Node17&#45;&gt;Node5 -->
<g id="edge50" class="edge">
<title>Node17&#45;&gt;Node5</title>
<path fill="none" stroke="midnightblue" d="M334.39,-200.57C343.63,-204.93 353.27,-210.96 360,-219 394.12,-259.73 361.84,-292.31 396,-333 434.49,-378.85 500.38,-404.39 544.79,-417.16"/>
<polygon fill="midnightblue" stroke="midnightblue" points="543.9,-420.55 554.48,-419.85 545.77,-413.81 543.9,-420.55"/>
</g>
<!-- Node18 -->
<g id="node18" class="node">
<title>Node18</title>
<g id="a_node18"><a xlink:href="hit__manager__bonus_8h.html#a9874994177d1382ce3e76988ca7cee3b" target="_top" xlink:title="Calculates the normal on the point of intersection of the cone.">
<polygon fill="none" stroke="black" points="411,-181.5 411,-200.5 491,-200.5 491,-181.5 411,-181.5"/>
<text text-anchor="middle" x="451" y="-188.5" font-family="Helvetica,sans-Serif" font-size="10.00">ft_co_normal</text>
</a>
</g>
</g>
<!-- Node17&#45;&gt;Node18 -->
<g id="edge29" class="edge">
<title>Node17&#45;&gt;Node18</title>
<path fill="none" stroke="midnightblue" d="M360.34,-191C373.52,-191 387.56,-191 400.52,-191"/>
<polygon fill="midnightblue" stroke="midnightblue" points="400.65,-194.5 410.65,-191 400.65,-187.5 400.65,-194.5"/>
</g>
<!-- Node23 -->
<g id="node23" class="node">
<title>Node23</title>
<g id="a_node23"><a xlink:href="hit__manager__bonus_8h.html#abc28bafc00495161db9de547a9461cb1" target="_top" xlink:title="Transforms the Cartesian coordinates of a hit point on a cone wall into 2D texture UV&#45;coordinates in ...">
<polygon fill="none" stroke="black" points="396,-76.5 396,-95.5 506,-95.5 506,-76.5 396,-76.5"/>
<text text-anchor="middle" x="451" y="-83.5" font-family="Helvetica,sans-Serif" font-size="10.00">ft_get_co_uvcoords</text>
</a>
</g>
</g>
<!-- Node17&#45;&gt;Node23 -->
<g id="edge39" class="edge">
<title>Node17&#45;&gt;Node23</title>
<path fill="none" stroke="midnightblue" d="M316.4,-181.36C332.33,-166.15 365.01,-136.13 396,-115 403.79,-109.69 412.66,-104.58 420.93,-100.16"/>
<polygon fill="midnightblue" stroke="midnightblue" points="422.65,-103.22 429.92,-95.51 419.43,-97 422.65,-103.22"/>
</g>
<!-- Node27 -->
<g id="node27" class="node">
<title>Node27</title>
<g id="a_node27"><a xlink:href="hit__manager__bonus_8h.html#a87d41de805dc36f90fb5002fa2d34da0" target="_top" xlink:title="Transforms the Cartesian coordinates of a hit point on a plane into 2D texture UV&#45;coordinates in the ...">
<polygon fill="none" stroke="black" points="397,-124.5 397,-143.5 505,-143.5 505,-124.5 397,-124.5"/>
<text text-anchor="middle" x="451" y="-131.5" font-family="Helvetica,sans-Serif" font-size="10.00">ft_get_pl_uvcoords</text>
</a>
</g>
</g>
<!-- Node17&#45;&gt;Node27 -->
<g id="edge46" class="edge">
<title>Node17&#45;&gt;Node27</title>
<path fill="none" stroke="midnightblue" d="M330.52,-181.46C354.01,-172.13 389.99,-157.84 416.33,-147.38"/>
<polygon fill="midnightblue" stroke="midnightblue" points="417.9,-150.52 425.9,-143.57 415.32,-144.01 417.9,-150.52"/>
</g>
<!-- Node18&#45;&gt;Node6 -->
<g id="edge31" class="edge">
<title>Node18&#45;&gt;Node6</title>
<path fill="none" stroke="midnightblue" d="M491.18,-187.92C531.96,-186.61 596.16,-190.11 642,-219 664.4,-233.12 702.96,-299.75 721.27,-333.01"/>
<polygon fill="midnightblue" stroke="midnightblue" points="718.4,-335.07 726.26,-342.17 724.55,-331.71 718.4,-335.07"/>
</g>
<!-- Node18&#45;&gt;Node7 -->
<g id="edge37" class="edge">
<title>Node18&#45;&gt;Node7</title>
<path fill="none" stroke="midnightblue" d="M491.34,-183.51C530.32,-177.59 591.34,-172.35 642,-186 668.01,-193.01 694.24,-209.63 711.52,-222.21"/>
<polygon fill="midnightblue" stroke="midnightblue" points="709.59,-225.14 719.69,-228.35 713.8,-219.55 709.59,-225.14"/>
</g>
<!-- Node18&#45;&gt;Node11 -->
<g id="edge38" class="edge">
<title>Node18&#45;&gt;Node11</title>
<path fill="none" stroke="midnightblue" d="M474.53,-200.6C484.62,-205.41 496.38,-211.76 506,-219 524.59,-232.99 522.68,-244.03 542,-257 544.77,-258.86 547.74,-260.57 550.8,-262.14"/>
<polygon fill="midnightblue" stroke="midnightblue" points="549.61,-265.45 560.16,-266.44 552.54,-259.09 549.61,-265.45"/>
</g>
<!-- Node18&#45;&gt;Node15 -->
<g id="edge30" class="edge">
<title>Node18&#45;&gt;Node15</title>
<path fill="none" stroke="midnightblue" d="M480.13,-200.51C501,-207.57 529.69,-217.27 552.66,-225.04"/>
<polygon fill="midnightblue" stroke="midnightblue" points="551.84,-228.45 562.44,-228.34 554.08,-221.82 551.84,-228.45"/>
</g>
<!-- Node19 -->
<g id="node19" class="node">
<title>Node19</title>
<g id="a_node19"><a xlink:href="vec3_8h.html#add7f4f27ee8cadcbf62ffbfecb98f64f" target="_top" xlink:title="Determines if two vectors are equal.">
<polygon fill="none" stroke="black" points="550,-114.5 550,-133.5 634,-133.5 634,-114.5 550,-114.5"/>
<text text-anchor="middle" x="592" y="-121.5" font-family="Helvetica,sans-Serif" font-size="10.00">ft_vec3_equal</text>
</a>
</g>
</g>
<!-- Node18&#45;&gt;Node19 -->
<g id="edge32" class="edge">
<title>Node18&#45;&gt;Node19</title>
<path fill="none" stroke="midnightblue" d="M471.92,-181.4C495.45,-170.06 534.81,-151.08 561.79,-138.08"/>
<polygon fill="midnightblue" stroke="midnightblue" points="563.63,-141.08 571.12,-133.58 560.59,-134.77 563.63,-141.08"/>
</g>
<!-- Node21 -->
<g id="node21" class="node">
<title>Node21</title>
<g id="a_node21"><a xlink:href="vec3_8h.html#a38fe500bd27847b866b9630146e43250" target="_top" xlink:title="Normalise a vector.">
<polygon fill="none" stroke="black" points="550.5,-76.5 550.5,-95.5 633.5,-95.5 633.5,-76.5 550.5,-76.5"/>
<text text-anchor="middle" x="592" y="-83.5" font-family="Helvetica,sans-Serif" font-size="10.00">ft_vec3_norm</text>
</a>
</g>
</g>
<!-- Node18&#45;&gt;Node21 -->
<g id="edge34" class="edge">
<title>Node18&#45;&gt;Node21</title>
<path fill="none" stroke="midnightblue" d="M468.61,-181.24C479.84,-174.2 494.65,-164.02 506,-153 525.14,-134.43 520.75,-121.11 542,-105 544.43,-103.16 547.06,-101.47 549.8,-99.94"/>
<polygon fill="midnightblue" stroke="midnightblue" points="551.36,-103.07 558.79,-95.52 548.27,-96.79 551.36,-103.07"/>
</g>
<!-- Node20 -->
<g id="node20" class="node">
<title>Node20</title>
<g id="a_node20"><a xlink:href="utils_8h.html#a518be72ffbfd90cedf995e72dde0aff6" target="_top" xlink:title="Checks if two floats are (almost) equal.">
<polygon fill="none" stroke="black" points="679,-114.5 679,-133.5 786,-133.5 786,-114.5 679,-114.5"/>
<text text-anchor="middle" x="732.5" y="-121.5" font-family="Helvetica,sans-Serif" font-size="10.00">ft_nearly_equal_flt</text>
</a>
</g>
</g>
<!-- Node19&#45;&gt;Node20 -->
<g id="edge33" class="edge">
<title>Node19&#45;&gt;Node20</title>
<path fill="none" stroke="midnightblue" d="M634.18,-124C645.03,-124 657,-124 668.71,-124"/>
<polygon fill="midnightblue" stroke="midnightblue" points="668.9,-127.5 678.9,-124 668.9,-120.5 668.9,-127.5"/>
</g>
<!-- Node21&#45;&gt;Node7 -->
<g id="edge36" class="edge">
<title>Node21&#45;&gt;Node7</title>
<path fill="none" stroke="midnightblue" d="M625.88,-95.54C631.59,-98.06 637.22,-101.18 642,-105 662.69,-121.53 702.08,-186.99 720.93,-219.49"/>
<polygon fill="midnightblue" stroke="midnightblue" points="718.06,-221.51 726.08,-228.43 724.12,-218.02 718.06,-221.51"/>
</g>
<!-- Node22 -->
<g id="node22" class="node">
<title>Node22</title>
<g id="a_node22"><a xlink:href="vec3__linalgebra_8c.html#aa84621bd979d3b12b97908f653faf88e" target="_top" xlink:title="Calculate the absolute value of a vector.">
<polygon fill="none" stroke="black" points="695.5,-76.5 695.5,-95.5 769.5,-95.5 769.5,-76.5 695.5,-76.5"/>
<text text-anchor="middle" x="732.5" y="-83.5" font-family="Helvetica,sans-Serif" font-size="10.00">ft_vec3_abs</text>
</a>
</g>
</g>
<!-- Node21&#45;&gt;Node22 -->
<g id="edge35" class="edge">
<title>Node21&#45;&gt;Node22</title>
<path fill="none" stroke="midnightblue" d="M633.81,-86C649.93,-86 668.54,-86 685.17,-86"/>
<polygon fill="midnightblue" stroke="midnightblue" points="685.22,-89.5 695.22,-86 685.22,-82.5 685.22,-89.5"/>
</g>
<!-- Node23&#45;&gt;Node11 -->
<g id="edge45" class="edge">
<title>Node23&#45;&gt;Node11</title>
<path fill="none" stroke="midnightblue" d="M479.86,-95.57C489.39,-100.1 499.32,-106.45 506,-115 546.08,-166.31 498.84,-208.25 542,-257 543.32,-258.49 544.76,-259.86 546.31,-261.12"/>
<polygon fill="midnightblue" stroke="midnightblue" points="544.41,-264.06 554.7,-266.6 548.24,-258.2 544.41,-264.06"/>
</g>
<!-- Node23&#45;&gt;Node21 -->
<g id="edge44" class="edge">
<title>Node23&#45;&gt;Node21</title>
<path fill="none" stroke="midnightblue" d="M506.14,-86C517.23,-86 528.87,-86 539.85,-86"/>
<polygon fill="midnightblue" stroke="midnightblue" points="540.14,-89.5 550.14,-86 540.14,-82.5 540.14,-89.5"/>
</g>
<!-- Node24 -->
<g id="node24" class="node">
<title>Node24</title>
<g id="a_node24"><a xlink:href="utils_8h.html#a4b67c731c02a7ba35f27473295bfb753" target="_top" xlink:title="Performs a rotation of a given vector around an axis by a given angle.">
<polygon fill="none" stroke="black" points="542,-0.5 542,-19.5 642,-19.5 642,-0.5 542,-0.5"/>
<text text-anchor="middle" x="592" y="-7.5" font-family="Helvetica,sans-Serif" font-size="10.00">ft_quaternion_rot</text>
</a>
</g>
</g>
<!-- Node23&#45;&gt;Node24 -->
<g id="edge40" class="edge">
<title>Node23&#45;&gt;Node24</title>
<path fill="none" stroke="midnightblue" d="M465.24,-76.45C482.37,-64.38 513.43,-43.41 542,-29 545.85,-27.06 549.95,-25.19 554.07,-23.42"/>
<polygon fill="midnightblue" stroke="midnightblue" points="555.69,-26.54 563.63,-19.53 553.05,-20.06 555.69,-26.54"/>
</g>
<!-- Node26 -->
<g id="node26" class="node">
<title>Node26</title>
<g id="a_node26"><a xlink:href="vec3_8h.html#a19bc1d17592698776e89a5093110320c" target="_top" xlink:title="Calculate the cross product of two vectors.">
<polygon fill="none" stroke="black" points="550.5,-38.5 550.5,-57.5 633.5,-57.5 633.5,-38.5 550.5,-38.5"/>
<text text-anchor="middle" x="592" y="-45.5" font-family="Helvetica,sans-Serif" font-size="10.00">ft_vec3_cross</text>
</a>
</g>
</g>
<!-- Node23&#45;&gt;Node26 -->
<g id="edge43" class="edge">
<title>Node23&#45;&gt;Node26</title>
<path fill="none" stroke="midnightblue" d="M487.08,-76.41C505.02,-71.51 527.06,-65.48 546.22,-60.24"/>
<polygon fill="midnightblue" stroke="midnightblue" points="547.21,-63.6 555.94,-57.59 545.37,-56.85 547.21,-63.6"/>
</g>
<!-- Node24&#45;&gt;Node7 -->
<g id="edge42" class="edge">
<title>Node24&#45;&gt;Node7</title>
<path fill="none" stroke="midnightblue" d="M629.1,-19.59C633.88,-22.05 638.38,-25.14 642,-29 678.35,-67.75 656.85,-94.26 678,-143 690.06,-170.8 707.96,-200.98 719.68,-219.7"/>
<polygon fill="midnightblue" stroke="midnightblue" points="716.87,-221.79 725.18,-228.36 722.78,-218.04 716.87,-221.79"/>
</g>
<!-- Node25 -->
<g id="node25" class="node">
<title>Node25</title>
<g id="a_node25"><a xlink:href="utils__quaternion_8c.html#a15b6fa9c749e827cd1d52bf1c8e0a8f3" target="_top" xlink:title="Performs quaternion multiplication.">
<polygon fill="none" stroke="black" points="678,-0.5 678,-19.5 787,-19.5 787,-0.5 678,-0.5"/>
<text text-anchor="middle" x="732.5" y="-7.5" font-family="Helvetica,sans-Serif" font-size="10.00">ft_quaternion_mult</text>
</a>
</g>
</g>
<!-- Node24&#45;&gt;Node25 -->
<g id="edge41" class="edge">
<title>Node24&#45;&gt;Node25</title>
<path fill="none" stroke="midnightblue" d="M642.22,-10C650.4,-10 658.99,-10 667.47,-10"/>
<polygon fill="midnightblue" stroke="midnightblue" points="667.74,-13.5 677.74,-10 667.74,-6.5 667.74,-13.5"/>
</g>
<!-- Node27&#45;&gt;Node10 -->
<g id="edge48" class="edge">
<title>Node27&#45;&gt;Node10</title>
<path fill="none" stroke="midnightblue" d="M471.8,-143.6C483.32,-150.12 497.26,-159.79 506,-172 539.15,-218.32 520.85,-242.11 542,-295 553.03,-322.59 569.43,-352.82 580.17,-371.61"/>
<polygon fill="midnightblue" stroke="midnightblue" points="577.17,-373.41 585.21,-380.31 583.22,-369.9 577.17,-373.41"/>
</g>
<!-- Node27&#45;&gt;Node19 -->
<g id="edge49" class="edge">
<title>Node27&#45;&gt;Node19</title>
<path fill="none" stroke="midnightblue" d="M505.34,-130.16C516.6,-129.35 528.45,-128.5 539.63,-127.7"/>
<polygon fill="midnightblue" stroke="midnightblue" points="539.95,-131.18 549.67,-126.97 539.45,-124.2 539.95,-131.18"/>
</g>
<!-- Node27&#45;&gt;Node26 -->
<g id="edge47" class="edge">
<title>Node27&#45;&gt;Node26</title>
<path fill="none" stroke="midnightblue" d="M473.46,-124.45C483.77,-119.38 496.02,-112.63 506,-105 524.48,-90.87 522.68,-79.97 542,-67 544.77,-65.14 547.74,-63.43 550.8,-61.86"/>
<polygon fill="midnightblue" stroke="midnightblue" points="552.54,-64.91 560.16,-57.56 549.61,-58.55 552.54,-64.91"/>
</g>
<!-- Node28&#45;&gt;Node9 -->
<g id="edge52" class="edge">
<title>Node28&#45;&gt;Node9</title>
<path fill="none" stroke="midnightblue" d="M199.24,-524.67C277.43,-528.13 457,-536.07 543.16,-539.88"/>
<polygon fill="midnightblue" stroke="midnightblue" points="543.05,-543.38 553.19,-540.33 543.36,-536.39 543.05,-543.38"/>
</g>
</g>
</svg>
        <g id="navigator" transform="translate(0 0)" fill="#404254">
                <rect fill="#f2f5e9" fill-opacity="0.5" stroke="#606060" stroke-width=".5" x="0" y="0" width="60" height="60"/>
                <use id="zoomplus" xlink:href="#zoomPlus" x="17" y="9" onmousedown="handleZoom(evt,'in')"/>
                <use id="zoomminus" xlink:href="#zoomMin" x="42" y="9" onmousedown="handleZoom(evt,'out')"/>
                <use id="reset" xlink:href="#resetDef" x="30" y="36" onmousedown="handleReset()"/>
                <g id="arrowUp" xlink:href="#dirArrow" transform="translate(30 24)" onmousedown="handlePan(0,-1)">
                  <use xlink:href="#rim" fill="#404040">
                        <set attributeName="fill" to="#808080" begin="arrowUp.mouseover" end="arrowUp.mouseout"/>
                  </use>
                  <path fill="none" stroke="white" stroke-width="1.5" d="M0,-3.0v7 M-2.5,-0.5L0,-3.0L2.5,-0.5"/>
                </g>
                <g id="arrowRight" xlink:href="#dirArrow" transform="rotate(90) translate(36 -43)" onmousedown="handlePan(1,0)">
                  <use xlink:href="#rim" fill="#404040">
                        <set attributeName="fill" to="#808080" begin="arrowRight.mouseover" end="arrowRight.mouseout"/>
                  </use>
                  <path fill="none" stroke="white" stroke-width="1.5" d="M0,-3.0v7 M-2.5,-0.5L0,-3.0L2.5,-0.5"/>
                </g>
                <g id="arrowDown" xlink:href="#dirArrow" transform="rotate(180) translate(-30 -48)" onmousedown="handlePan(0,1)">
                  <use xlink:href="#rim" fill="#404040">
                        <set attributeName="fill" to="#808080" begin="arrowDown.mouseover" end="arrowDown.mouseout"/>
                  </use>
                  <path fill="none" stroke="white" stroke-width="1.5" d="M0,-3.0v7 M-2.5,-0.5L0,-3.0L2.5,-0.5"/>
                </g>
                <g id="arrowLeft" xlink:href="#dirArrow" transform="rotate(270) translate(-36 17)" onmousedown="handlePan(-1,0)">
                  <use xlink:href="#rim" fill="#404040">
                        <set attributeName="fill" to="#808080" begin="arrowLeft.mouseover" end="arrowLeft.mouseout"/>
                  </use>
                  <path fill="none" stroke="white" stroke-width="1.5" d="M0,-3.0v7 M-2.5,-0.5L0,-3.0L2.5,-0.5"/>
                </g>
        </g>
        <svg viewBox="0 0 15 15" width="100%" height="30px" preserveAspectRatio="xMaxYMin meet">
         <g id="arrow_out" transform="scale(0.3 0.3)">
          <a xlink:href="hit__cone__bonus_8c_aebab6e1f11fc5b2e6c420276c9beee96_cgraph_org.svg" target="_base">
           <rect id="button" ry="5" rx="5" y="6" x="6" height="38" width="38"
                fill="#f2f5e9" fill-opacity="0.5" stroke="#606060" stroke-width="1.0"/>
           <path id="arrow"
             d="M 11.500037,31.436501 C 11.940474,20.09759 22.043105,11.32322 32.158766,21.979434 L 37.068811,17.246167 C 37.068811,17.246167 37.088388,32 37.088388,32 L 22.160133,31.978069 C 22.160133,31.978069 26.997745,27.140456 26.997745,27.140456 C 18.528582,18.264221 13.291696,25.230495 11.500037,31.436501 z"
             style="fill:#404040;"/>
          </a>
         </g>
        </svg>
</svg>
