<?xml version="1.0" encoding="UTF-8" standalone="no"?>
<!DOCTYPE svg PUBLIC "-//W3C//DTD SVG 1.1//EN"
 "http://www.w3.org/Graphics/SVG/1.1/DTD/svg11.dtd">
<!-- Generated by graphviz version 2.43.0 (0)
 -->
<!-- Title: ft_get_cy_uvcoords Pages: 1 -->
<svg width="399pt" height="142pt"
 viewBox="0.00 0.00 399.00 142.00" xmlns="http://www.w3.org/2000/svg" xmlns:xlink="http://www.w3.org/1999/xlink">
<g id="graph0" class="graph" transform="scale(1 1) rotate(0) translate(4 138)">
<title>ft_get_cy_uvcoords</title>
<!-- Node1 -->
<g id="node1" class="node">
<title>Node1</title>
<g id="a_node1"><a xlink:title="Transforms the Cartesian coordinates of a hit point on a cylinder wall into 2D texture UV&#45;coordinates...">
<polygon fill="#bfbfbf" stroke="black" points="0,-57.5 0,-76.5 110,-76.5 110,-57.5 0,-57.5"/>
<text text-anchor="middle" x="55" y="-64.5" font-family="Helvetica,sans-Serif" font-size="10.00">ft_get_cy_uvcoords</text>
</a>
</g>
</g>
<!-- Node2 -->
<g id="node2" class="node">
<title>Node2</title>
<g id="a_node2"><a xlink:href="utils_8h.html#a4b67c731c02a7ba35f27473295bfb753" target="_top" xlink:title="Performs a rotation of a given vector around an axis by a given angle.">
<polygon fill="none" stroke="black" points="146,-114.5 146,-133.5 246,-133.5 246,-114.5 146,-114.5"/>
<text text-anchor="middle" x="196" y="-121.5" font-family="Helvetica,sans-Serif" font-size="10.00">ft_quaternion_rot</text>
</a>
</g>
</g>
<!-- Node1&#45;&gt;Node2 -->
<g id="edge1" class="edge">
<title>Node1&#45;&gt;Node2</title>
<path fill="none" stroke="midnightblue" d="M78.12,-76.55C96.29,-84.35 122.73,-95.58 146,-105 150.74,-106.92 155.76,-108.91 160.7,-110.85"/>
<polygon fill="midnightblue" stroke="midnightblue" points="159.43,-114.11 170.02,-114.48 161.97,-107.59 159.43,-114.11"/>
</g>
<!-- Node5 -->
<g id="node5" class="node">
<title>Node5</title>
<g id="a_node5"><a xlink:href="vec3_8h.html#a19bc1d17592698776e89a5093110320c" target="_top" xlink:title="Calculate the cross product of two vectors.">
<polygon fill="none" stroke="black" points="154.5,-76.5 154.5,-95.5 237.5,-95.5 237.5,-76.5 154.5,-76.5"/>
<text text-anchor="middle" x="196" y="-83.5" font-family="Helvetica,sans-Serif" font-size="10.00">ft_vec3_cross</text>
</a>
</g>
</g>
<!-- Node1&#45;&gt;Node5 -->
<g id="edge4" class="edge">
<title>Node1&#45;&gt;Node5</title>
<path fill="none" stroke="midnightblue" d="M110.14,-74.4C121.34,-75.93 133.11,-77.54 144.19,-79.06"/>
<polygon fill="midnightblue" stroke="midnightblue" points="143.76,-82.53 154.14,-80.41 144.71,-75.59 143.76,-82.53"/>
</g>
<!-- Node6 -->
<g id="node6" class="node">
<title>Node6</title>
<g id="a_node6"><a xlink:href="vec3_8h.html#a38fe500bd27847b866b9630146e43250" target="_top" xlink:title="Normalise a vector.">
<polygon fill="none" stroke="black" points="154.5,-38.5 154.5,-57.5 237.5,-57.5 237.5,-38.5 154.5,-38.5"/>
<text text-anchor="middle" x="196" y="-45.5" font-family="Helvetica,sans-Serif" font-size="10.00">ft_vec3_norm</text>
</a>
</g>
</g>
<!-- Node1&#45;&gt;Node6 -->
<g id="edge5" class="edge">
<title>Node1&#45;&gt;Node6</title>
<path fill="none" stroke="midnightblue" d="M110.14,-59.6C121.34,-58.07 133.11,-56.46 144.19,-54.94"/>
<polygon fill="midnightblue" stroke="midnightblue" points="144.71,-58.41 154.14,-53.59 143.76,-51.47 144.71,-58.41"/>
</g>
<!-- Node8 -->
<g id="node8" class="node">
<title>Node8</title>
<g id="a_node8"><a xlink:href="vec3_8h.html#a54e984820b74bd803de43ce36c8cb292" target="_top" xlink:title="Subtract two vectors.">
<polygon fill="none" stroke="black" points="159,-0.5 159,-19.5 233,-19.5 233,-0.5 159,-0.5"/>
<text text-anchor="middle" x="196" y="-7.5" font-family="Helvetica,sans-Serif" font-size="10.00">ft_vec3_sub</text>
</a>
</g>
</g>
<!-- Node1&#45;&gt;Node8 -->
<g id="edge8" class="edge">
<title>Node1&#45;&gt;Node8</title>
<path fill="none" stroke="midnightblue" d="M78.12,-57.45C96.29,-49.65 122.73,-38.42 146,-29 150.74,-27.08 155.76,-25.09 160.7,-23.15"/>
<polygon fill="midnightblue" stroke="midnightblue" points="161.97,-26.41 170.02,-19.52 159.43,-19.89 161.97,-26.41"/>
</g>
<!-- Node3 -->
<g id="node3" class="node">
<title>Node3</title>
<g id="a_node3"><a xlink:href="utils__quaternion_8c.html#a15b6fa9c749e827cd1d52bf1c8e0a8f3" target="_top" xlink:title="Performs quaternion multiplication.">
<polygon fill="none" stroke="black" points="282,-114.5 282,-133.5 391,-133.5 391,-114.5 282,-114.5"/>
<text text-anchor="middle" x="336.5" y="-121.5" font-family="Helvetica,sans-Serif" font-size="10.00">ft_quaternion_mult</text>
</a>
</g>
</g>
<!-- Node2&#45;&gt;Node3 -->
<g id="edge2" class="edge">
<title>Node2&#45;&gt;Node3</title>
<path fill="none" stroke="midnightblue" d="M246.22,-124C254.4,-124 262.99,-124 271.47,-124"/>
<polygon fill="midnightblue" stroke="midnightblue" points="271.74,-127.5 281.74,-124 271.74,-120.5 271.74,-127.5"/>
</g>
<!-- Node4 -->
<g id="node4" class="node">
<title>Node4</title>
<g id="a_node4"><a xlink:href="vec3_8h.html#ac80a1c20941c96a8fafad255dac59092" target="_top" xlink:title="Scale a vector.">
<polygon fill="none" stroke="black" points="295,-76.5 295,-95.5 378,-95.5 378,-76.5 295,-76.5"/>
<text text-anchor="middle" x="336.5" y="-83.5" font-family="Helvetica,sans-Serif" font-size="10.00">ft_vec3_scale</text>
</a>
</g>
</g>
<!-- Node2&#45;&gt;Node4 -->
<g id="edge3" class="edge">
<title>Node2&#45;&gt;Node4</title>
<path fill="none" stroke="midnightblue" d="M231.95,-114.41C249.83,-109.51 271.79,-103.48 290.88,-98.24"/>
<polygon fill="midnightblue" stroke="midnightblue" points="291.84,-101.61 300.56,-95.59 289.99,-94.86 291.84,-101.61"/>
</g>
<!-- Node6&#45;&gt;Node4 -->
<g id="edge7" class="edge">
<title>Node6&#45;&gt;Node4</title>
<path fill="none" stroke="midnightblue" d="M231.95,-57.59C249.83,-62.49 271.79,-68.52 290.88,-73.76"/>
<polygon fill="midnightblue" stroke="midnightblue" points="289.99,-77.14 300.56,-76.41 291.84,-70.39 289.99,-77.14"/>
</g>
<!-- Node7 -->
<g id="node7" class="node">
<title>Node7</title>
<g id="a_node7"><a xlink:href="vec3__linalgebra_8c.html#aa84621bd979d3b12b97908f653faf88e" target="_top" xlink:title="Calculate the absolute value of a vector.">
<polygon fill="none" stroke="black" points="299.5,-38.5 299.5,-57.5 373.5,-57.5 373.5,-38.5 299.5,-38.5"/>
<text text-anchor="middle" x="336.5" y="-45.5" font-family="Helvetica,sans-Serif" font-size="10.00">ft_vec3_abs</text>
</a>
</g>
</g>
<!-- Node6&#45;&gt;Node7 -->
<g id="edge6" class="edge">
<title>Node6&#45;&gt;Node7</title>
<path fill="none" stroke="midnightblue" d="M237.81,-48C253.93,-48 272.54,-48 289.17,-48"/>
<polygon fill="midnightblue" stroke="midnightblue" points="289.22,-51.5 299.22,-48 289.22,-44.5 289.22,-51.5"/>
</g>
</g>
</svg>
