<?xml version="1.0" encoding="UTF-8" standalone="no"?>
<!DOCTYPE svg PUBLIC "-//W3C//DTD SVG 1.1//EN"
 "http://www.w3.org/Graphics/SVG/1.1/DTD/svg11.dtd">
<!-- Generated by graphviz version 2.43.0 (0)
 -->
<!-- Title: ft_hit_sphere Pages: 1 -->
<svg width="326pt" height="256pt"
 viewBox="0.00 0.00 326.00 256.00" xmlns="http://www.w3.org/2000/svg" xmlns:xlink="http://www.w3.org/1999/xlink">
<g id="graph0" class="graph" transform="scale(1 1) rotate(0) translate(4 252)">
<title>ft_hit_sphere</title>
<!-- Node1 -->
<g id="node1" class="node">
<title>Node1</title>
<g id="a_node1"><a xlink:title="Calculates if a sphere was hit by a ray.">
<polygon fill="#bfbfbf" stroke="black" points="0,-114.5 0,-133.5 80,-133.5 80,-114.5 0,-114.5"/>
<text text-anchor="middle" x="40" y="-121.5" font-family="Helvetica,sans-Serif" font-size="10.00">ft_hit_sphere</text>
</a>
</g>
</g>
<!-- Node2 -->
<g id="node2" class="node">
<title>Node2</title>
<g id="a_node2"><a xlink:href="ray_8h.html#ac56e9ac7acfb4658469e190c022b0d63" target="_top" xlink:title="Represents a ray.">
<polygon fill="none" stroke="black" points="120,-228.5 120,-247.5 195,-247.5 195,-228.5 120,-228.5"/>
<text text-anchor="middle" x="157.5" y="-235.5" font-family="Helvetica,sans-Serif" font-size="10.00">ft_scale_ray</text>
</a>
</g>
</g>
<!-- Node1&#45;&gt;Node2 -->
<g id="edge1" class="edge">
<title>Node1&#45;&gt;Node2</title>
<path fill="none" stroke="midnightblue" d="M47.33,-133.59C59.23,-151.11 86.43,-188.81 116,-214 119.84,-217.27 124.19,-220.36 128.57,-223.17"/>
<polygon fill="midnightblue" stroke="midnightblue" points="127.09,-226.36 137.47,-228.49 130.68,-220.35 127.09,-226.36"/>
</g>
<!-- Node4 -->
<g id="node4" class="node">
<title>Node4</title>
<g id="a_node4"><a xlink:href="vec3_8h.html#ac80a1c20941c96a8fafad255dac59092" target="_top" xlink:title="Scale a vector.">
<polygon fill="none" stroke="black" points="235,-190.5 235,-209.5 318,-209.5 318,-190.5 235,-190.5"/>
<text text-anchor="middle" x="276.5" y="-197.5" font-family="Helvetica,sans-Serif" font-size="10.00">ft_vec3_scale</text>
</a>
</g>
</g>
<!-- Node1&#45;&gt;Node4 -->
<g id="edge10" class="edge">
<title>Node1&#45;&gt;Node4</title>
<path fill="none" stroke="midnightblue" d="M50.13,-133.61C63.29,-146.79 89.01,-170.09 116,-181 150.53,-194.96 192.44,-199.53 224.63,-200.7"/>
<polygon fill="midnightblue" stroke="midnightblue" points="224.63,-204.2 234.72,-200.97 224.82,-197.2 224.63,-204.2"/>
</g>
<!-- Node5 -->
<g id="node5" class="node">
<title>Node5</title>
<g id="a_node5"><a xlink:href="utils_8h.html#a90ba8fcafcfab2af9f361cde331dbb06" target="_top" xlink:title="Solves the given equation.">
<polygon fill="none" stroke="black" points="130,-152.5 130,-171.5 185,-171.5 185,-152.5 130,-152.5"/>
<text text-anchor="middle" x="157.5" y="-159.5" font-family="Helvetica,sans-Serif" font-size="10.00">ft_solve</text>
</a>
</g>
</g>
<!-- Node1&#45;&gt;Node5 -->
<g id="edge4" class="edge">
<title>Node1&#45;&gt;Node5</title>
<path fill="none" stroke="midnightblue" d="M70.15,-133.59C85.31,-138.58 103.99,-144.72 120.1,-150.02"/>
<polygon fill="midnightblue" stroke="midnightblue" points="119.15,-153.39 129.74,-153.2 121.33,-146.75 119.15,-153.39"/>
</g>
<!-- Node6 -->
<g id="node6" class="node">
<title>Node6</title>
<g id="a_node6"><a xlink:href="utils_8h.html#add4de5ba94d3f8475d0a1c4ce8abd3aa" target="_top" xlink:title="Determines if value is surrounded by the interval.">
<polygon fill="none" stroke="black" points="119,-114.5 119,-133.5 196,-133.5 196,-114.5 119,-114.5"/>
<text text-anchor="middle" x="157.5" y="-121.5" font-family="Helvetica,sans-Serif" font-size="10.00">ft_surrounds</text>
</a>
</g>
</g>
<!-- Node1&#45;&gt;Node6 -->
<g id="edge5" class="edge">
<title>Node1&#45;&gt;Node6</title>
<path fill="none" stroke="midnightblue" d="M80.1,-124C89.23,-124 99.06,-124 108.53,-124"/>
<polygon fill="midnightblue" stroke="midnightblue" points="108.61,-127.5 118.61,-124 108.61,-120.5 108.61,-127.5"/>
</g>
<!-- Node7 -->
<g id="node7" class="node">
<title>Node7</title>
<g id="a_node7"><a xlink:href="vec3_8h.html#a89fd02ae4b8b3602bc001664eb5e8f91" target="_top" xlink:title="Calculate the scalar product of two vectors.">
<polygon fill="none" stroke="black" points="121,-76.5 121,-95.5 194,-95.5 194,-76.5 121,-76.5"/>
<text text-anchor="middle" x="157.5" y="-83.5" font-family="Helvetica,sans-Serif" font-size="10.00">ft_vec3_dot</text>
</a>
</g>
</g>
<!-- Node1&#45;&gt;Node7 -->
<g id="edge6" class="edge">
<title>Node1&#45;&gt;Node7</title>
<path fill="none" stroke="midnightblue" d="M70.15,-114.41C84.51,-109.69 102.03,-103.92 117.53,-98.82"/>
<polygon fill="midnightblue" stroke="midnightblue" points="118.96,-102.04 127.36,-95.59 116.77,-95.39 118.96,-102.04"/>
</g>
<!-- Node8 -->
<g id="node8" class="node">
<title>Node8</title>
<g id="a_node8"><a xlink:href="vec3_8h.html#a38fe500bd27847b866b9630146e43250" target="_top" xlink:title="Normalise a vector.">
<polygon fill="none" stroke="black" points="116,-38.5 116,-57.5 199,-57.5 199,-38.5 116,-38.5"/>
<text text-anchor="middle" x="157.5" y="-45.5" font-family="Helvetica,sans-Serif" font-size="10.00">ft_vec3_norm</text>
</a>
</g>
</g>
<!-- Node1&#45;&gt;Node8 -->
<g id="edge7" class="edge">
<title>Node1&#45;&gt;Node8</title>
<path fill="none" stroke="midnightblue" d="M52.15,-114.32C66.35,-102.29 91.93,-81.57 116,-67 118.79,-65.31 121.76,-63.66 124.76,-62.09"/>
<polygon fill="midnightblue" stroke="midnightblue" points="126.37,-65.2 133.78,-57.63 123.26,-58.93 126.37,-65.2"/>
</g>
<!-- Node10 -->
<g id="node10" class="node">
<title>Node10</title>
<g id="a_node10"><a xlink:href="vec3_8h.html#a54e984820b74bd803de43ce36c8cb292" target="_top" xlink:title="Subtract two vectors.">
<polygon fill="none" stroke="black" points="120.5,-0.5 120.5,-19.5 194.5,-19.5 194.5,-0.5 120.5,-0.5"/>
<text text-anchor="middle" x="157.5" y="-7.5" font-family="Helvetica,sans-Serif" font-size="10.00">ft_vec3_sub</text>
</a>
</g>
</g>
<!-- Node1&#45;&gt;Node10 -->
<g id="edge11" class="edge">
<title>Node1&#45;&gt;Node10</title>
<path fill="none" stroke="midnightblue" d="M46.45,-114.44C57.46,-95.83 84.06,-54.33 116,-29 118.02,-27.4 120.2,-25.89 122.47,-24.48"/>
<polygon fill="midnightblue" stroke="midnightblue" points="124.38,-27.42 131.45,-19.53 121,-21.29 124.38,-27.42"/>
</g>
<!-- Node3 -->
<g id="node3" class="node">
<title>Node3</title>
<g id="a_node3"><a xlink:href="vec3_8h.html#a73e2caf4c2a51ed954b7349c6be2b3c3" target="_top" xlink:title="Add two vectors.">
<polygon fill="none" stroke="black" points="239,-228.5 239,-247.5 314,-247.5 314,-228.5 239,-228.5"/>
<text text-anchor="middle" x="276.5" y="-235.5" font-family="Helvetica,sans-Serif" font-size="10.00">ft_vec3_add</text>
</a>
</g>
</g>
<!-- Node2&#45;&gt;Node3 -->
<g id="edge2" class="edge">
<title>Node2&#45;&gt;Node3</title>
<path fill="none" stroke="midnightblue" d="M195.2,-238C205.87,-238 217.67,-238 228.87,-238"/>
<polygon fill="midnightblue" stroke="midnightblue" points="228.93,-241.5 238.93,-238 228.93,-234.5 228.93,-241.5"/>
</g>
<!-- Node2&#45;&gt;Node4 -->
<g id="edge3" class="edge">
<title>Node2&#45;&gt;Node4</title>
<path fill="none" stroke="midnightblue" d="M188.02,-228.41C202.71,-223.64 220.66,-217.81 236.47,-212.68"/>
<polygon fill="midnightblue" stroke="midnightblue" points="237.56,-216 245.99,-209.59 235.39,-209.35 237.56,-216"/>
</g>
<!-- Node8&#45;&gt;Node4 -->
<g id="edge9" class="edge">
<title>Node8&#45;&gt;Node4</title>
<path fill="none" stroke="midnightblue" d="M185.24,-57.69C190.16,-60.23 195,-63.32 199,-67 234.46,-99.62 258,-152.55 268.77,-180.8"/>
<polygon fill="midnightblue" stroke="midnightblue" points="265.53,-182.14 272.26,-190.32 272.1,-179.73 265.53,-182.14"/>
</g>
<!-- Node9 -->
<g id="node9" class="node">
<title>Node9</title>
<g id="a_node9"><a xlink:href="vec3__linalgebra_8c.html#aa84621bd979d3b12b97908f653faf88e" target="_top" xlink:title="Calculate the absolute value of a vector.">
<polygon fill="none" stroke="black" points="239.5,-38.5 239.5,-57.5 313.5,-57.5 313.5,-38.5 239.5,-38.5"/>
<text text-anchor="middle" x="276.5" y="-45.5" font-family="Helvetica,sans-Serif" font-size="10.00">ft_vec3_abs</text>
</a>
</g>
</g>
<!-- Node8&#45;&gt;Node9 -->
<g id="edge8" class="edge">
<title>Node8&#45;&gt;Node9</title>
<path fill="none" stroke="midnightblue" d="M199.09,-48C208.79,-48 219.22,-48 229.15,-48"/>
<polygon fill="midnightblue" stroke="midnightblue" points="229.28,-51.5 239.28,-48 229.28,-44.5 229.28,-51.5"/>
</g>
</g>
</svg>
