<?xml version="1.0" encoding="UTF-8" standalone="no"?>
<!DOCTYPE svg PUBLIC "-//W3C//DTD SVG 1.1//EN"
 "http://www.w3.org/Graphics/SVG/1.1/DTD/svg11.dtd">
<!-- Generated by graphviz version 2.43.0 (0)
 -->
<!-- Title: ft_init_hitrecord Pages: 1 -->
<!--zoomable 246 -->
<svg id="main" version="1.1" xmlns="http://www.w3.org/2000/svg" xmlns:xlink="http://www.w3.org/1999/xlink" xml:space="preserve" onload="init(evt)">
<style type="text/css"><![CDATA[
.edge:hover path { stroke: red; }
.edge:hover polygon { stroke: red; fill: red; }
]]></style>
<script type="text/javascript"><![CDATA[
var edges = document.getElementsByTagName('g');
if (edges && edges.length) {
  for (var i=0;i<edges.length;i++) {
    if (edges[i].id.substr(0,4)=='edge') {
      edges[i].setAttribute('class','edge');
    }
  }
}
]]></script>
        <defs>
                <circle id="rim" cx="0" cy="0" r="7"/>
                <circle id="rim2" cx="0" cy="0" r="3.5"/>
                <g id="zoomPlus">
                        <use xlink:href="#rim" fill="#404040">
                                <set attributeName="fill" to="#808080" begin="zoomplus.mouseover" end="zoomplus.mouseout"/>
                        </use>
                        <path d="M-4,0h8M0,-4v8" fill="none" stroke="white" stroke-width="1.5" pointer-events="none"/>
                </g>
                <g id="zoomMin">
                        <use xlink:href="#rim" fill="#404040">
                                <set attributeName="fill" to="#808080" begin="zoomminus.mouseover" end="zoomminus.mouseout"/>
                        </use>
                        <path d="M-4,0h8" fill="none" stroke="white" stroke-width="1.5" pointer-events="none"/>
                </g>
                <g id="dirArrow">
                        <path fill="none" stroke="white" stroke-width="1.5" d="M0,-3.0v7 M-2.5,-0.5L0,-3.0L2.5,-0.5"/>
                </g>
               <g id="resetDef">
                       <use xlink:href="#rim2" fill="#404040">
                               <set attributeName="fill" to="#808080" begin="reset.mouseover" end="reset.mouseout"/>
                       </use>
               </g>
        </defs>

<script type="text/javascript">
var viewWidth = 1399;
var viewHeight = 246;
var sectionId = 'dynsection-22';
</script>
<script xlink:href="svgpan.js"/>
<svg id="graph" class="graph">
<g id="viewport">
<title>ft_init_hitrecord</title>
<!-- Node1 -->
<g id="node1" class="node">
<title>Node1</title>
<g id="a_node1"><a xlink:title="Initiates hitrecord struct.">
<polygon fill="#bfbfbf" stroke="black" points="1298,-114.5 1298,-133.5 1391,-133.5 1391,-114.5 1298,-114.5"/>
<text text-anchor="middle" x="1344.5" y="-121.5" font-family="Helvetica,sans-Serif" font-size="10.00">ft_init_hitrecord</text>
</a>
</g>
</g>
<!-- Node2 -->
<g id="node2" class="node">
<title>Node2</title>
<g id="a_node2"><a xlink:href="hit__manager__bonus_8h.html#aee5824df7f0e0c2698306f49f9a1c790" target="_top" xlink:title="Calculates potential hit of cone cap.">
<polygon fill="none" stroke="black" points="1182,-152.5 1182,-171.5 1262,-171.5 1262,-152.5 1182,-152.5"/>
<text text-anchor="middle" x="1222" y="-159.5" font-family="Helvetica,sans-Serif" font-size="10.00">ft_co_cap_hit</text>
</a>
</g>
</g>
<!-- Node1&#45;&gt;Node2 -->
<g id="edge1" class="edge">
<title>Node1&#45;&gt;Node2</title>
<path fill="none" stroke="midnightblue" d="M1303.29,-136.68C1287.01,-141.81 1268.52,-147.64 1253.4,-152.41"/>
<polygon fill="midnightblue" stroke="midnightblue" points="1304.61,-139.93 1313.09,-133.59 1302.5,-133.26 1304.61,-139.93"/>
</g>
<!-- Node4 -->
<g id="node4" class="node">
<title>Node4</title>
<g id="a_node4"><a xlink:href="hit__manager__bonus_8h.html#aebab6e1f11fc5b2e6c420276c9beee96" target="_top" xlink:title="Calculates if a cone was hit by a ray.">
<polygon fill="none" stroke="black" points="931,-152.5 931,-171.5 1001,-171.5 1001,-152.5 931,-152.5"/>
<text text-anchor="middle" x="966" y="-159.5" font-family="Helvetica,sans-Serif" font-size="10.00">ft_hit_cone</text>
</a>
</g>
</g>
<!-- Node1&#45;&gt;Node4 -->
<g id="edge21" class="edge">
<title>Node1&#45;&gt;Node4</title>
<path fill="none" stroke="midnightblue" d="M1326.43,-140.71C1311.03,-154.53 1287.01,-173.12 1262,-181 1166.62,-211.04 1136.12,-194.21 1037,-181 1023.02,-179.14 1007.87,-175.27 995.26,-171.5"/>
<polygon fill="midnightblue" stroke="midnightblue" points="1329.12,-142.99 1334.05,-133.62 1324.35,-137.87 1329.12,-142.99"/>
</g>
<!-- Node6 -->
<g id="node6" class="node">
<title>Node6</title>
<g id="a_node6"><a xlink:href="lighting__bonus_8h.html#a7fe107fe556fd497ebfc4c4df70b83da" target="_top" xlink:title="Looks for the closest object hit by a ray.">
<polygon fill="none" stroke="black" points="659,-114.5 659,-133.5 761,-133.5 761,-114.5 659,-114.5"/>
<text text-anchor="middle" x="710" y="-121.5" font-family="Helvetica,sans-Serif" font-size="10.00">ft_get_closest_hit</text>
</a>
</g>
</g>
<!-- Node1&#45;&gt;Node6 -->
<g id="edge20" class="edge">
<title>Node1&#45;&gt;Node6</title>
<path fill="none" stroke="midnightblue" d="M1287.57,-124C1236.7,-124 1159.56,-124 1092.5,-124 1092.5,-124 1092.5,-124 965,-124 894.22,-124 812.35,-124 761.12,-124"/>
<polygon fill="midnightblue" stroke="midnightblue" points="1287.7,-127.5 1297.7,-124 1287.7,-120.5 1287.7,-127.5"/>
</g>
<!-- Node10 -->
<g id="node10" class="node">
<title>Node10</title>
<g id="a_node10"><a xlink:href="ray_8h.html#a2cffd188fb76990901db47a2c3ac638f" target="_top" xlink:title="Returns the colour of a ray.">
<polygon fill="none" stroke="black" points="670,-152.5 670,-171.5 750,-171.5 750,-152.5 670,-152.5"/>
<text text-anchor="middle" x="710" y="-159.5" font-family="Helvetica,sans-Serif" font-size="10.00">ft_ray_colour</text>
</a>
</g>
</g>
<!-- Node1&#45;&gt;Node10 -->
<g id="edge27" class="edge">
<title>Node1&#45;&gt;Node10</title>
<path fill="none" stroke="midnightblue" d="M1330.36,-141.66C1315.76,-159.96 1290.44,-187.95 1262,-203 1194.01,-238.98 1169.42,-238 1092.5,-238 1092.5,-238 1092.5,-238 965,-238 873.4,-238 770.73,-192.08 729.55,-171.63"/>
<polygon fill="midnightblue" stroke="midnightblue" points="1333.29,-143.6 1336.64,-133.55 1327.75,-139.32 1333.29,-143.6"/>
</g>
<!-- Node17 -->
<g id="node17" class="node">
<title>Node17</title>
<g id="a_node17"><a xlink:href="lighting_8h.html#a931177e8edb2dd5393cef7a468389a4d" target="_top" xlink:title="Determines whether the shadow ray emitted from the point of intersection is blocked on its way to the...">
<polygon fill="none" stroke="black" points="645,-76.5 645,-95.5 775,-95.5 775,-76.5 645,-76.5"/>
<text text-anchor="middle" x="710" y="-83.5" font-family="Helvetica,sans-Serif" font-size="10.00">ft_shadow_ray_blocked</text>
</a>
</g>
</g>
<!-- Node1&#45;&gt;Node17 -->
<g id="edge28" class="edge">
<title>Node1&#45;&gt;Node17</title>
<path fill="none" stroke="midnightblue" d="M1316.02,-109.85C1270.7,-87.86 1176.91,-48 1092.5,-48 1092.5,-48 1092.5,-48 965,-48 888.31,-48 800.01,-65.15 750.32,-76.41"/>
<polygon fill="midnightblue" stroke="midnightblue" points="1314.67,-113.08 1325.19,-114.37 1317.77,-106.81 1314.67,-113.08"/>
</g>
<!-- Node18 -->
<g id="node18" class="node">
<title>Node18</title>
<g id="a_node18"><a xlink:href="hit__manager_8h.html#af2540784b9e01fbdfeacb544ea2c169a" target="_top" xlink:title="Calculates the hit point of the ray with the cylinder cap.">
<polygon fill="none" stroke="black" points="1182,-0.5 1182,-19.5 1262,-19.5 1262,-0.5 1182,-0.5"/>
<text text-anchor="middle" x="1222" y="-7.5" font-family="Helvetica,sans-Serif" font-size="10.00">ft_cy_cap_hit</text>
</a>
</g>
</g>
<!-- Node1&#45;&gt;Node18 -->
<g id="edge19" class="edge">
<title>Node1&#45;&gt;Node18</title>
<path fill="none" stroke="midnightblue" d="M1330,-106.31C1314.8,-87.1 1288.71,-56.2 1262,-34 1255.52,-28.61 1247.72,-23.57 1240.8,-19.52"/>
<polygon fill="midnightblue" stroke="midnightblue" points="1327.28,-108.51 1336.18,-114.24 1332.8,-104.2 1327.28,-108.51"/>
</g>
<!-- Node19 -->
<g id="node19" class="node">
<title>Node19</title>
<g id="a_node19"><a xlink:href="hit__manager_8h.html#ad1c0dcb3141fe78ed26368ca7bb8d2b8" target="_top" xlink:title="Calculates if a cylinder was hit by a ray.">
<polygon fill="none" stroke="black" points="1048.5,-76.5 1048.5,-95.5 1134.5,-95.5 1134.5,-76.5 1048.5,-76.5"/>
<text text-anchor="middle" x="1091.5" y="-83.5" font-family="Helvetica,sans-Serif" font-size="10.00">ft_hit_cylinder</text>
</a>
</g>
</g>
<!-- Node1&#45;&gt;Node19 -->
<g id="edge22" class="edge">
<title>Node1&#45;&gt;Node19</title>
<path fill="none" stroke="midnightblue" d="M1287.83,-114.21C1279.19,-112.76 1270.36,-111.31 1262,-110 1218.69,-103.22 1169.02,-96.28 1134.69,-91.62"/>
<polygon fill="midnightblue" stroke="midnightblue" points="1287.4,-117.69 1297.85,-115.91 1288.58,-110.79 1287.4,-117.69"/>
</g>
<!-- Node3 -->
<g id="node3" class="node">
<title>Node3</title>
<g id="a_node3"><a xlink:href="hit__manager__bonus_8h.html#a9752309af1756a6360c6459ed6747f83" target="_top" xlink:title="Calculates potential hits of a cone.">
<polygon fill="none" stroke="black" points="1037,-152.5 1037,-171.5 1146,-171.5 1146,-152.5 1037,-152.5"/>
<text text-anchor="middle" x="1091.5" y="-159.5" font-family="Helvetica,sans-Serif" font-size="10.00">ft_co_calc_pot_hits</text>
</a>
</g>
</g>
<!-- Node2&#45;&gt;Node3 -->
<g id="edge2" class="edge">
<title>Node2&#45;&gt;Node3</title>
<path fill="none" stroke="midnightblue" d="M1171.48,-162C1163.2,-162 1154.57,-162 1146.18,-162"/>
<polygon fill="midnightblue" stroke="midnightblue" points="1171.75,-165.5 1181.75,-162 1171.75,-158.5 1171.75,-165.5"/>
</g>
<!-- Node3&#45;&gt;Node4 -->
<g id="edge3" class="edge">
<title>Node3&#45;&gt;Node4</title>
<path fill="none" stroke="midnightblue" d="M1026.43,-162C1017.68,-162 1009,-162 1001.08,-162"/>
<polygon fill="midnightblue" stroke="midnightblue" points="1026.69,-165.5 1036.69,-162 1026.69,-158.5 1026.69,-165.5"/>
</g>
<!-- Node5 -->
<g id="node5" class="node">
<title>Node5</title>
<g id="a_node5"><a xlink:href="hit__bonus_8c.html#a9d5972226064b0a4d0e1359d9230abec" target="_top" xlink:title="Investigate a hittable and returns whether a hit occured or not.">
<polygon fill="none" stroke="black" points="811,-152.5 811,-171.5 895,-171.5 895,-152.5 811,-152.5"/>
<text text-anchor="middle" x="853" y="-159.5" font-family="Helvetica,sans-Serif" font-size="10.00">ft_hit_hittable</text>
</a>
</g>
</g>
<!-- Node4&#45;&gt;Node5 -->
<g id="edge4" class="edge">
<title>Node4&#45;&gt;Node5</title>
<path fill="none" stroke="midnightblue" d="M920.78,-162C912.38,-162 903.63,-162 895.32,-162"/>
<polygon fill="midnightblue" stroke="midnightblue" points="920.79,-165.5 930.79,-162 920.79,-158.5 920.79,-165.5"/>
</g>
<!-- Node5&#45;&gt;Node6 -->
<g id="edge5" class="edge">
<title>Node5&#45;&gt;Node6</title>
<path fill="none" stroke="midnightblue" d="M806.56,-149.75C787.13,-144.52 764.77,-138.49 746.57,-133.59"/>
<polygon fill="midnightblue" stroke="midnightblue" points="805.85,-153.19 816.42,-152.41 807.68,-146.43 805.85,-153.19"/>
</g>
<!-- Node5&#45;&gt;Node10 -->
<g id="edge10" class="edge">
<title>Node5&#45;&gt;Node10</title>
<path fill="none" stroke="midnightblue" d="M800.67,-162C783.96,-162 765.69,-162 750.03,-162"/>
<polygon fill="midnightblue" stroke="midnightblue" points="800.84,-165.5 810.84,-162 800.84,-158.5 800.84,-165.5"/>
</g>
<!-- Node5&#45;&gt;Node17 -->
<g id="edge18" class="edge">
<title>Node5&#45;&gt;Node17</title>
<path fill="none" stroke="midnightblue" d="M833.43,-145.34C818.55,-132.73 796.65,-115.8 775,-105 767.53,-101.27 759.2,-98.14 751.09,-95.56"/>
<polygon fill="midnightblue" stroke="midnightblue" points="831.48,-148.28 841.33,-152.18 836.07,-142.99 831.48,-148.28"/>
</g>
<!-- Node7 -->
<g id="node7" class="node">
<title>Node7</title>
<g id="a_node7"><a xlink:href="lighting__bonus_8h.html#a72c122146878dc126a6472d159526c14" target="_top" xlink:title="Create reflective lighting by recursion.">
<polygon fill="none" stroke="black" points="500,-114.5 500,-133.5 601,-133.5 601,-114.5 500,-114.5"/>
<text text-anchor="middle" x="550.5" y="-121.5" font-family="Helvetica,sans-Serif" font-size="10.00">ft_reflective_light</text>
</a>
</g>
</g>
<!-- Node6&#45;&gt;Node7 -->
<g id="edge6" class="edge">
<title>Node6&#45;&gt;Node7</title>
<path fill="none" stroke="midnightblue" d="M648.58,-124C632.86,-124 616.11,-124 601.02,-124"/>
<polygon fill="midnightblue" stroke="midnightblue" points="648.73,-127.5 658.73,-124 648.73,-120.5 648.73,-127.5"/>
</g>
<!-- Node8 -->
<g id="node8" class="node">
<title>Node8</title>
<g id="a_node8"><a xlink:href="lighting__bonus_8h.html#ac85883d276b27394b86511c7eaa4d4ae" target="_top" xlink:title="Computes the colour of light interacting with different material properties.">
<polygon fill="none" stroke="black" points="349,-114.5 349,-133.5 456,-133.5 456,-114.5 349,-114.5"/>
<text text-anchor="middle" x="402.5" y="-121.5" font-family="Helvetica,sans-Serif" font-size="10.00">ft_compute_colour</text>
</a>
</g>
</g>
<!-- Node7&#45;&gt;Node8 -->
<g id="edge7" class="edge">
<title>Node7&#45;&gt;Node8</title>
<path fill="none" stroke="midnightblue" d="M489.61,-117.35C478.5,-117.18 466.97,-117.23 456.1,-117.49"/>
<polygon fill="midnightblue" stroke="midnightblue" points="489.59,-120.85 499.66,-117.56 489.74,-113.85 489.59,-120.85"/>
</g>
<!-- Node8&#45;&gt;Node7 -->
<g id="edge9" class="edge">
<title>Node8&#45;&gt;Node7</title>
<path fill="none" stroke="midnightblue" d="M466.24,-130.69C477.41,-130.82 488.91,-130.74 499.66,-130.44"/>
<polygon fill="midnightblue" stroke="midnightblue" points="466.16,-127.19 456.1,-130.51 466.04,-134.19 466.16,-127.19"/>
</g>
<!-- Node9 -->
<g id="node9" class="node">
<title>Node9</title>
<g id="a_node9"><a xlink:href="lighting__bonus_8h.html#a7a7ed2ff6f725c296f088c0f2f0d0843" target="_top" xlink:title="Calculate the effect of different lighting on perception.">
<polygon fill="none" stroke="black" points="233,-114.5 233,-133.5 307,-133.5 307,-114.5 233,-114.5"/>
<text text-anchor="middle" x="270" y="-121.5" font-family="Helvetica,sans-Serif" font-size="10.00">ft_enlighten</text>
</a>
</g>
</g>
<!-- Node8&#45;&gt;Node9 -->
<g id="edge8" class="edge">
<title>Node8&#45;&gt;Node9</title>
<path fill="none" stroke="midnightblue" d="M338.52,-124C327.73,-124 316.86,-124 307.09,-124"/>
<polygon fill="midnightblue" stroke="midnightblue" points="338.8,-127.5 348.8,-124 338.8,-120.5 338.8,-127.5"/>
</g>
<!-- Node11 -->
<g id="node11" class="node">
<title>Node11</title>
<g id="a_node11"><a xlink:href="ray__bonus_8h.html#af9c073d2966aa21738e1d2083762055f" target="_top" xlink:title="Returns the colour of a pixel by means of anti&#45;aliasing.">
<polygon fill="none" stroke="black" points="492,-190.5 492,-209.5 609,-209.5 609,-190.5 492,-190.5"/>
<text text-anchor="middle" x="550.5" y="-197.5" font-family="Helvetica,sans-Serif" font-size="10.00">ft_anti_aliase_colour</text>
</a>
</g>
</g>
<!-- Node10&#45;&gt;Node11 -->
<g id="edge11" class="edge">
<title>Node10&#45;&gt;Node11</title>
<path fill="none" stroke="midnightblue" d="M659.76,-173.88C637.58,-179.23 611.75,-185.46 590.88,-190.5"/>
<polygon fill="midnightblue" stroke="midnightblue" points="660.76,-177.24 669.66,-171.49 659.12,-170.43 660.76,-177.24"/>
</g>
<!-- Node16 -->
<g id="node16" class="node">
<title>Node16</title>
<g id="a_node16"><a xlink:href="render_8h.html#a4f238596a8fca72f9af80be57cf06d34" target="_top" xlink:title="Renders the scene to the mlx img.">
<polygon fill="none" stroke="black" points="354.5,-152.5 354.5,-171.5 450.5,-171.5 450.5,-152.5 354.5,-152.5"/>
<text text-anchor="middle" x="402.5" y="-159.5" font-family="Helvetica,sans-Serif" font-size="10.00">ft_render_image</text>
</a>
</g>
</g>
<!-- Node10&#45;&gt;Node16 -->
<g id="edge16" class="edge">
<title>Node10&#45;&gt;Node16</title>
<path fill="none" stroke="midnightblue" d="M659.68,-162C601.99,-162 507.2,-162 450.52,-162"/>
<polygon fill="midnightblue" stroke="midnightblue" points="660,-165.5 670,-162 660,-158.5 660,-165.5"/>
</g>
<!-- Node12 -->
<g id="node12" class="node">
<title>Node12</title>
<g id="a_node12"><a xlink:href="render__draw__bonus_8c.html#a4f238596a8fca72f9af80be57cf06d34" target="_top" xlink:title="Renders the scene to the mlx img.">
<polygon fill="none" stroke="black" points="354.5,-190.5 354.5,-209.5 450.5,-209.5 450.5,-190.5 354.5,-190.5"/>
<text text-anchor="middle" x="402.5" y="-197.5" font-family="Helvetica,sans-Serif" font-size="10.00">ft_render_image</text>
</a>
</g>
</g>
<!-- Node11&#45;&gt;Node12 -->
<g id="edge12" class="edge">
<title>Node11&#45;&gt;Node12</title>
<path fill="none" stroke="midnightblue" d="M481.53,-200C471.18,-200 460.7,-200 450.92,-200"/>
<polygon fill="midnightblue" stroke="midnightblue" points="481.8,-203.5 491.8,-200 481.8,-196.5 481.8,-203.5"/>
</g>
<!-- Node13 -->
<g id="node13" class="node">
<title>Node13</title>
<g id="a_node13"><a xlink:href="render__loop__mlx_8c.html#af908c05cb19e716220bc98fcf9582573" target="_top" xlink:title=" ">
<polygon fill="none" stroke="black" points="227,-171.5 227,-190.5 313,-190.5 313,-171.5 227,-171.5"/>
<text text-anchor="middle" x="270" y="-178.5" font-family="Helvetica,sans-Serif" font-size="10.00">ft_draw_scene</text>
</a>
</g>
</g>
<!-- Node12&#45;&gt;Node13 -->
<g id="edge13" class="edge">
<title>Node12&#45;&gt;Node13</title>
<path fill="none" stroke="midnightblue" d="M344.47,-191.7C333.99,-190.17 323.23,-188.6 313.28,-187.16"/>
<polygon fill="midnightblue" stroke="midnightblue" points="343.99,-195.16 354.39,-193.14 345,-188.24 343.99,-195.16"/>
</g>
<!-- Node14 -->
<g id="node14" class="node">
<title>Node14</title>
<g id="a_node14"><a xlink:href="render_8h.html#ab7a01aa5d27d2fad2942a43a31ae0d52" target="_top" xlink:title="Starts the mlx loop.">
<polygon fill="none" stroke="black" points="77,-171.5 77,-190.5 191,-190.5 191,-171.5 77,-171.5"/>
<text text-anchor="middle" x="134" y="-178.5" font-family="Helvetica,sans-Serif" font-size="10.00">ft_render_start_loop</text>
</a>
</g>
</g>
<!-- Node13&#45;&gt;Node14 -->
<g id="edge14" class="edge">
<title>Node13&#45;&gt;Node14</title>
<path fill="none" stroke="midnightblue" d="M216.88,-181C208.44,-181 199.66,-181 191.13,-181"/>
<polygon fill="midnightblue" stroke="midnightblue" points="216.97,-184.5 226.97,-181 216.97,-177.5 216.97,-184.5"/>
</g>
<!-- Node15 -->
<g id="node15" class="node">
<title>Node15</title>
<g id="a_node15"><a xlink:href="main_8c.html#a3c04138a5bfe5d72780bb7e82a18e627" target="_top" xlink:title=" ">
<polygon fill="none" stroke="black" points="0,-171.5 0,-190.5 41,-190.5 41,-171.5 0,-171.5"/>
<text text-anchor="middle" x="20.5" y="-178.5" font-family="Helvetica,sans-Serif" font-size="10.00">main</text>
</a>
</g>
</g>
<!-- Node14&#45;&gt;Node15 -->
<g id="edge15" class="edge">
<title>Node14&#45;&gt;Node15</title>
<path fill="none" stroke="midnightblue" d="M66.7,-181C57.37,-181 48.45,-181 41.04,-181"/>
<polygon fill="midnightblue" stroke="midnightblue" points="66.92,-184.5 76.92,-181 66.92,-177.5 66.92,-184.5"/>
</g>
<!-- Node16&#45;&gt;Node13 -->
<g id="edge17" class="edge">
<title>Node16&#45;&gt;Node13</title>
<path fill="none" stroke="midnightblue" d="M344.47,-170.3C333.99,-171.83 323.23,-173.4 313.28,-174.84"/>
<polygon fill="midnightblue" stroke="midnightblue" points="345,-173.76 354.39,-168.86 343.99,-166.84 345,-173.76"/>
</g>
<!-- Node20 -->
<g id="node20" class="node">
<title>Node20</title>
<g id="a_node20"><a xlink:href="hit__manager_8h.html#a9d5972226064b0a4d0e1359d9230abec" target="_top" xlink:title="Investigate a hittable and returns whether a hit occured or not.">
<polygon fill="none" stroke="black" points="811,-76.5 811,-95.5 895,-95.5 895,-76.5 811,-76.5"/>
<text text-anchor="middle" x="853" y="-83.5" font-family="Helvetica,sans-Serif" font-size="10.00">ft_hit_hittable</text>
</a>
</g>
</g>
<!-- Node19&#45;&gt;Node20 -->
<g id="edge23" class="edge">
<title>Node19&#45;&gt;Node20</title>
<path fill="none" stroke="midnightblue" d="M1038.48,-86C995.4,-86 935.01,-86 895.22,-86"/>
<polygon fill="midnightblue" stroke="midnightblue" points="1038.49,-89.5 1048.49,-86 1038.49,-82.5 1038.49,-89.5"/>
</g>
<!-- Node20&#45;&gt;Node6 -->
<g id="edge24" class="edge">
<title>Node20&#45;&gt;Node6</title>
<path fill="none" stroke="midnightblue" d="M806.56,-98.25C787.13,-103.48 764.77,-109.51 746.57,-114.41"/>
<polygon fill="midnightblue" stroke="midnightblue" points="807.68,-101.57 816.42,-95.59 805.85,-94.81 807.68,-101.57"/>
</g>
<!-- Node20&#45;&gt;Node10 -->
<g id="edge25" class="edge">
<title>Node20&#45;&gt;Node10</title>
<path fill="none" stroke="midnightblue" d="M833.43,-102.66C818.55,-115.27 796.65,-132.2 775,-143 767.22,-146.88 758.51,-150.12 750.07,-152.76"/>
<polygon fill="midnightblue" stroke="midnightblue" points="836.07,-105.01 841.33,-95.82 831.48,-99.72 836.07,-105.01"/>
</g>
<!-- Node20&#45;&gt;Node17 -->
<g id="edge26" class="edge">
<title>Node20&#45;&gt;Node17</title>
<path fill="none" stroke="midnightblue" d="M800.57,-86C792.27,-86 783.59,-86 775.03,-86"/>
<polygon fill="midnightblue" stroke="midnightblue" points="800.84,-89.5 810.84,-86 800.84,-82.5 800.84,-89.5"/>
</g>
</g>
</svg>
        <g id="navigator" transform="translate(0 0)" fill="#404254">
                <rect fill="#f2f5e9" fill-opacity="0.5" stroke="#606060" stroke-width=".5" x="0" y="0" width="60" height="60"/>
                <use id="zoomplus" xlink:href="#zoomPlus" x="17" y="9" onmousedown="handleZoom(evt,'in')"/>
                <use id="zoomminus" xlink:href="#zoomMin" x="42" y="9" onmousedown="handleZoom(evt,'out')"/>
                <use id="reset" xlink:href="#resetDef" x="30" y="36" onmousedown="handleReset()"/>
                <g id="arrowUp" xlink:href="#dirArrow" transform="translate(30 24)" onmousedown="handlePan(0,-1)">
                  <use xlink:href="#rim" fill="#404040">
                        <set attributeName="fill" to="#808080" begin="arrowUp.mouseover" end="arrowUp.mouseout"/>
                  </use>
                  <path fill="none" stroke="white" stroke-width="1.5" d="M0,-3.0v7 M-2.5,-0.5L0,-3.0L2.5,-0.5"/>
                </g>
                <g id="arrowRight" xlink:href="#dirArrow" transform="rotate(90) translate(36 -43)" onmousedown="handlePan(1,0)">
                  <use xlink:href="#rim" fill="#404040">
                        <set attributeName="fill" to="#808080" begin="arrowRight.mouseover" end="arrowRight.mouseout"/>
                  </use>
                  <path fill="none" stroke="white" stroke-width="1.5" d="M0,-3.0v7 M-2.5,-0.5L0,-3.0L2.5,-0.5"/>
                </g>
                <g id="arrowDown" xlink:href="#dirArrow" transform="rotate(180) translate(-30 -48)" onmousedown="handlePan(0,1)">
                  <use xlink:href="#rim" fill="#404040">
                        <set attributeName="fill" to="#808080" begin="arrowDown.mouseover" end="arrowDown.mouseout"/>
                  </use>
                  <path fill="none" stroke="white" stroke-width="1.5" d="M0,-3.0v7 M-2.5,-0.5L0,-3.0L2.5,-0.5"/>
                </g>
                <g id="arrowLeft" xlink:href="#dirArrow" transform="rotate(270) translate(-36 17)" onmousedown="handlePan(-1,0)">
                  <use xlink:href="#rim" fill="#404040">
                        <set attributeName="fill" to="#808080" begin="arrowLeft.mouseover" end="arrowLeft.mouseout"/>
                  </use>
                  <path fill="none" stroke="white" stroke-width="1.5" d="M0,-3.0v7 M-2.5,-0.5L0,-3.0L2.5,-0.5"/>
                </g>
        </g>
        <svg viewBox="0 0 15 15" width="100%" height="30px" preserveAspectRatio="xMaxYMin meet">
         <g id="arrow_out" transform="scale(0.3 0.3)">
          <a xlink:href="hit__manager_8h_aa5acefb1538a700dc595870ad630f83d_icgraph_org.svg" target="_base">
           <rect id="button" ry="5" rx="5" y="6" x="6" height="38" width="38"
                fill="#f2f5e9" fill-opacity="0.5" stroke="#606060" stroke-width="1.0"/>
           <path id="arrow"
             d="M 11.500037,31.436501 C 11.940474,20.09759 22.043105,11.32322 32.158766,21.979434 L 37.068811,17.246167 C 37.068811,17.246167 37.088388,32 37.088388,32 L 22.160133,31.978069 C 22.160133,31.978069 26.997745,27.140456 26.997745,27.140456 C 18.528582,18.264221 13.291696,25.230495 11.500037,31.436501 z"
             style="fill:#404040;"/>
          </a>
         </g>
        </svg>
</svg>
