<?xml version="1.0" encoding="UTF-8" standalone="no"?>
<!DOCTYPE svg PUBLIC "-//W3C//DTD SVG 1.1//EN"
 "http://www.w3.org/Graphics/SVG/1.1/DTD/svg11.dtd">
<!-- Generated by graphviz version 2.43.0 (0)
 -->
<!-- Title: src/hit_cylinder_bonus.c Pages: 1 -->
<svg width="436pt" height="588pt"
 viewBox="0.00 0.00 435.68 588.00" xmlns="http://www.w3.org/2000/svg" xmlns:xlink="http://www.w3.org/1999/xlink">
<g id="graph0" class="graph" transform="scale(1 1) rotate(0) translate(4 584)">
<title>src/hit_cylinder_bonus.c</title>
<!-- Node1 -->
<g id="node1" class="node">
<title>Node1</title>
<g id="a_node1"><a xlink:title=" ">
<polygon fill="#bfbfbf" stroke="black" points="261.5,-560.5 261.5,-579.5 395.5,-579.5 395.5,-560.5 261.5,-560.5"/>
<text text-anchor="middle" x="328.5" y="-567.5" font-family="Helvetica,sans-Serif" font-size="10.00">src/hit_cylinder_bonus.c</text>
</a>
</g>
</g>
<!-- Node2 -->
<g id="node2" class="node">
<title>Node2</title>
<g id="a_node2"><a xlink:href="hit__manager__bonus_8h.html" target="_top" xlink:title=" ">
<polygon fill="none" stroke="black" points="267.5,-504.5 267.5,-523.5 389.5,-523.5 389.5,-504.5 267.5,-504.5"/>
<text text-anchor="middle" x="328.5" y="-511.5" font-family="Helvetica,sans-Serif" font-size="10.00">hit_manager_bonus.h</text>
</a>
</g>
</g>
<!-- Node1&#45;&gt;Node2 -->
<g id="edge1" class="edge">
<title>Node1&#45;&gt;Node2</title>
<path fill="none" stroke="midnightblue" d="M328.5,-560.08C328.5,-553.01 328.5,-542.86 328.5,-533.99"/>
<polygon fill="midnightblue" stroke="midnightblue" points="332,-533.75 328.5,-523.75 325,-533.75 332,-533.75"/>
</g>
<!-- Node3 -->
<g id="node3" class="node">
<title>Node3</title>
<g id="a_node3"><a xlink:href="ray__bonus_8h.html" target="_top" xlink:title=" ">
<polygon fill="none" stroke="black" points="290.5,-448.5 290.5,-467.5 366.5,-467.5 366.5,-448.5 290.5,-448.5"/>
<text text-anchor="middle" x="328.5" y="-455.5" font-family="Helvetica,sans-Serif" font-size="10.00">ray_bonus.h</text>
</a>
</g>
</g>
<!-- Node2&#45;&gt;Node3 -->
<g id="edge2" class="edge">
<title>Node2&#45;&gt;Node3</title>
<path fill="none" stroke="midnightblue" d="M328.5,-504.08C328.5,-497.01 328.5,-486.86 328.5,-477.99"/>
<polygon fill="midnightblue" stroke="midnightblue" points="332,-477.75 328.5,-467.75 325,-477.75 332,-477.75"/>
</g>
<!-- Node12 -->
<g id="node12" class="node">
<title>Node12</title>
<g id="a_node12"><a xlink:href="utils__bonus_8h.html" target="_top" xlink:title=" ">
<polygon fill="none" stroke="black" points="0,-112.5 0,-131.5 81,-131.5 81,-112.5 0,-112.5"/>
<text text-anchor="middle" x="40.5" y="-119.5" font-family="Helvetica,sans-Serif" font-size="10.00">utils_bonus.h</text>
</a>
</g>
</g>
<!-- Node2&#45;&gt;Node12 -->
<g id="edge30" class="edge">
<title>Node2&#45;&gt;Node12</title>
<path fill="none" stroke="midnightblue" d="M267.37,-504.64C174.74,-490.23 9.5,-456.97 9.5,-403 9.5,-403 9.5,-403 9.5,-233 9.5,-199.41 23.06,-162.14 32.24,-140.75"/>
<polygon fill="midnightblue" stroke="midnightblue" points="35.44,-142.17 36.32,-131.61 29.05,-139.31 35.44,-142.17"/>
</g>
<!-- Node21 -->
<g id="node21" class="node">
<title>Node21</title>
<g id="a_node21"><a xlink:href="mini_r_t__config__bonus_8h.html" target="_top" xlink:title=" ">
<polygon fill="none" stroke="black" points="286.5,-336.5 286.5,-355.5 414.5,-355.5 414.5,-336.5 286.5,-336.5"/>
<text text-anchor="middle" x="350.5" y="-343.5" font-family="Helvetica,sans-Serif" font-size="10.00">miniRT_config_bonus.h</text>
</a>
</g>
</g>
<!-- Node2&#45;&gt;Node21 -->
<g id="edge31" class="edge">
<title>Node2&#45;&gt;Node21</title>
<path fill="none" stroke="midnightblue" d="M342.58,-504.26C353.85,-496.35 368.85,-483.58 375.5,-468 390.39,-433.13 372.8,-388.73 360.48,-364.58"/>
<polygon fill="midnightblue" stroke="midnightblue" points="363.45,-362.71 355.64,-355.56 357.29,-366.03 363.45,-362.71"/>
</g>
<!-- Node4 -->
<g id="node4" class="node">
<title>Node4</title>
<g id="a_node4"><a xlink:href="entities__bonus_8h.html" target="_top" xlink:title=" ">
<polygon fill="none" stroke="black" points="326,-224.5 326,-243.5 423,-243.5 423,-224.5 326,-224.5"/>
<text text-anchor="middle" x="374.5" y="-231.5" font-family="Helvetica,sans-Serif" font-size="10.00">entities_bonus.h</text>
</a>
</g>
</g>
<!-- Node3&#45;&gt;Node4 -->
<g id="edge3" class="edge">
<title>Node3&#45;&gt;Node4</title>
<path fill="none" stroke="midnightblue" d="M341.52,-448.31C363.41,-432.82 406.82,-398.07 423.5,-356 438.38,-318.47 408.83,-274.59 389.47,-251.36"/>
<polygon fill="midnightblue" stroke="midnightblue" points="392.1,-249.05 382.91,-243.79 386.81,-253.64 392.1,-249.05"/>
</g>
<!-- Node13 -->
<g id="node13" class="node">
<title>Node13</title>
<g id="a_node13"><a xlink:href="camera_8h.html" target="_top" xlink:title=" ">
<polygon fill="none" stroke="black" points="169.5,-392.5 169.5,-411.5 231.5,-411.5 231.5,-392.5 169.5,-392.5"/>
<text text-anchor="middle" x="200.5" y="-399.5" font-family="Helvetica,sans-Serif" font-size="10.00">camera.h</text>
</a>
</g>
</g>
<!-- Node3&#45;&gt;Node13 -->
<g id="edge17" class="edge">
<title>Node3&#45;&gt;Node13</title>
<path fill="none" stroke="midnightblue" d="M308.22,-448.44C287.15,-439.56 253.98,-425.56 230.01,-415.45"/>
<polygon fill="midnightblue" stroke="midnightblue" points="231.26,-412.18 220.69,-411.52 228.54,-418.63 231.26,-412.18"/>
</g>
<!-- Node5 -->
<g id="node5" class="node">
<title>Node5</title>
<g id="a_node5"><a xlink:title=" ">
<polygon fill="none" stroke="#bfbfbf" points="89.5,-0.5 89.5,-19.5 151.5,-19.5 151.5,-0.5 89.5,-0.5"/>
<text text-anchor="middle" x="120.5" y="-7.5" font-family="Helvetica,sans-Serif" font-size="10.00">stdbool.h</text>
</a>
</g>
</g>
<!-- Node4&#45;&gt;Node5 -->
<g id="edge4" class="edge">
<title>Node4&#45;&gt;Node5</title>
<path fill="none" stroke="midnightblue" d="M379.88,-224.44C385.06,-215.68 392.51,-201.47 395.5,-188 397.43,-179.32 396.21,-176.86 395.5,-168 391.15,-113.48 390.76,-85.18 344.5,-56 288.2,-20.49 209.46,-12.2 161.89,-10.7"/>
<polygon fill="midnightblue" stroke="midnightblue" points="161.73,-7.19 151.66,-10.47 161.57,-14.19 161.73,-7.19"/>
</g>
<!-- Node6 -->
<g id="node6" class="node">
<title>Node6</title>
<g id="a_node6"><a xlink:title=" ">
<polygon fill="none" stroke="#bfbfbf" points="282,-56.5 282,-75.5 335,-75.5 335,-56.5 282,-56.5"/>
<text text-anchor="middle" x="308.5" y="-63.5" font-family="Helvetica,sans-Serif" font-size="10.00">stdlib.h</text>
</a>
</g>
</g>
<!-- Node4&#45;&gt;Node6 -->
<g id="edge5" class="edge">
<title>Node4&#45;&gt;Node6</title>
<path fill="none" stroke="midnightblue" d="M376.52,-224.44C380.93,-203.69 389.52,-149.69 369.5,-112 362.3,-98.44 348.99,-87.89 336.64,-80.43"/>
<polygon fill="midnightblue" stroke="midnightblue" points="338.35,-77.37 327.91,-75.54 334.92,-83.48 338.35,-77.37"/>
</g>
<!-- Node7 -->
<g id="node7" class="node">
<title>Node7</title>
<g id="a_node7"><a xlink:href="vec3_8h.html" target="_top" xlink:title=" ">
<polygon fill="none" stroke="black" points="96,-56.5 96,-75.5 145,-75.5 145,-56.5 96,-56.5"/>
<text text-anchor="middle" x="120.5" y="-63.5" font-family="Helvetica,sans-Serif" font-size="10.00">vec3.h</text>
</a>
</g>
</g>
<!-- Node4&#45;&gt;Node7 -->
<g id="edge6" class="edge">
<title>Node4&#45;&gt;Node7</title>
<path fill="none" stroke="midnightblue" d="M373.17,-224.39C369.24,-202.07 355.57,-142 318.5,-112 293.69,-91.92 204.88,-77.73 155.04,-71.14"/>
<polygon fill="midnightblue" stroke="midnightblue" points="155.4,-67.66 145.04,-69.85 154.51,-74.6 155.4,-67.66"/>
</g>
<!-- Node9 -->
<g id="node9" class="node">
<title>Node9</title>
<g id="a_node9"><a xlink:href="colour__bonus_8h.html" target="_top" xlink:title=" ">
<polygon fill="none" stroke="black" points="237.5,-168.5 237.5,-187.5 327.5,-187.5 327.5,-168.5 237.5,-168.5"/>
<text text-anchor="middle" x="282.5" y="-175.5" font-family="Helvetica,sans-Serif" font-size="10.00">colour_bonus.h</text>
</a>
</g>
</g>
<!-- Node4&#45;&gt;Node9 -->
<g id="edge9" class="edge">
<title>Node4&#45;&gt;Node9</title>
<path fill="none" stroke="midnightblue" d="M359.72,-224.32C345.23,-215.82 322.93,-202.73 306.01,-192.8"/>
<polygon fill="midnightblue" stroke="midnightblue" points="307.64,-189.7 297.24,-187.65 304.1,-195.74 307.64,-189.7"/>
</g>
<!-- Node7&#45;&gt;Node5 -->
<g id="edge8" class="edge">
<title>Node7&#45;&gt;Node5</title>
<path fill="none" stroke="midnightblue" d="M120.5,-56.08C120.5,-49.01 120.5,-38.86 120.5,-29.99"/>
<polygon fill="midnightblue" stroke="midnightblue" points="124,-29.75 120.5,-19.75 117,-29.75 124,-29.75"/>
</g>
<!-- Node8 -->
<g id="node8" class="node">
<title>Node8</title>
<g id="a_node8"><a xlink:title=" ">
<polygon fill="none" stroke="#bfbfbf" points="12,-0.5 12,-19.5 63,-19.5 63,-0.5 12,-0.5"/>
<text text-anchor="middle" x="37.5" y="-7.5" font-family="Helvetica,sans-Serif" font-size="10.00">math.h</text>
</a>
</g>
</g>
<!-- Node7&#45;&gt;Node8 -->
<g id="edge7" class="edge">
<title>Node7&#45;&gt;Node8</title>
<path fill="none" stroke="midnightblue" d="M107.16,-56.32C94.34,-47.98 74.72,-35.21 59.56,-25.35"/>
<polygon fill="midnightblue" stroke="midnightblue" points="61.09,-22.17 50.8,-19.65 57.28,-28.04 61.09,-22.17"/>
</g>
<!-- Node10 -->
<g id="node10" class="node">
<title>Node10</title>
<g id="a_node10"><a xlink:title=" ">
<polygon fill="none" stroke="#bfbfbf" points="186.5,-112.5 186.5,-131.5 236.5,-131.5 236.5,-112.5 186.5,-112.5"/>
<text text-anchor="middle" x="211.5" y="-119.5" font-family="Helvetica,sans-Serif" font-size="10.00">stdio.h</text>
</a>
</g>
</g>
<!-- Node9&#45;&gt;Node10 -->
<g id="edge10" class="edge">
<title>Node9&#45;&gt;Node10</title>
<path fill="none" stroke="midnightblue" d="M271.09,-168.32C260.39,-160.18 244.16,-147.84 231.34,-138.09"/>
<polygon fill="midnightblue" stroke="midnightblue" points="233.19,-135.1 223.11,-131.83 228.96,-140.67 233.19,-135.1"/>
</g>
<!-- Node11 -->
<g id="node11" class="node">
<title>Node11</title>
<g id="a_node11"><a xlink:title=" ">
<polygon fill="none" stroke="#bfbfbf" points="256,-112.5 256,-131.5 309,-131.5 309,-112.5 256,-112.5"/>
<text text-anchor="middle" x="282.5" y="-119.5" font-family="Helvetica,sans-Serif" font-size="10.00">stdint.h</text>
</a>
</g>
</g>
<!-- Node9&#45;&gt;Node11 -->
<g id="edge11" class="edge">
<title>Node9&#45;&gt;Node11</title>
<path fill="none" stroke="midnightblue" d="M282.5,-168.08C282.5,-161.01 282.5,-150.86 282.5,-141.99"/>
<polygon fill="midnightblue" stroke="midnightblue" points="286,-141.75 282.5,-131.75 279,-141.75 286,-141.75"/>
</g>
<!-- Node9&#45;&gt;Node12 -->
<g id="edge12" class="edge">
<title>Node9&#45;&gt;Node12</title>
<path fill="none" stroke="midnightblue" d="M244.15,-168.44C202.03,-159.04 134.29,-143.93 88.63,-133.74"/>
<polygon fill="midnightblue" stroke="midnightblue" points="89.19,-130.28 78.67,-131.52 87.66,-137.11 89.19,-130.28"/>
</g>
<!-- Node12&#45;&gt;Node5 -->
<g id="edge14" class="edge">
<title>Node12&#45;&gt;Node5</title>
<path fill="none" stroke="midnightblue" d="M46.66,-112.11C55.41,-99.53 71.97,-75.86 86.5,-56 93.45,-46.5 101.37,-35.99 107.82,-27.53"/>
<polygon fill="midnightblue" stroke="midnightblue" points="110.61,-29.64 113.9,-19.57 105.05,-25.39 110.61,-29.64"/>
</g>
<!-- Node12&#45;&gt;Node6 -->
<g id="edge15" class="edge">
<title>Node12&#45;&gt;Node6</title>
<path fill="none" stroke="midnightblue" d="M81.2,-112.8C133.02,-102.36 221.77,-84.48 271.66,-74.42"/>
<polygon fill="midnightblue" stroke="midnightblue" points="272.58,-77.81 281.69,-72.4 271.2,-70.95 272.58,-77.81"/>
</g>
<!-- Node12&#45;&gt;Node7 -->
<g id="edge16" class="edge">
<title>Node12&#45;&gt;Node7</title>
<path fill="none" stroke="midnightblue" d="M53.35,-112.32C65.72,-103.98 84.63,-91.21 99.24,-81.35"/>
<polygon fill="midnightblue" stroke="midnightblue" points="101.35,-84.15 107.68,-75.65 97.43,-78.35 101.35,-84.15"/>
</g>
<!-- Node12&#45;&gt;Node8 -->
<g id="edge13" class="edge">
<title>Node12&#45;&gt;Node8</title>
<path fill="none" stroke="midnightblue" d="M40.26,-112.37C39.78,-94.62 38.66,-53.67 38.01,-29.6"/>
<polygon fill="midnightblue" stroke="midnightblue" points="41.51,-29.49 37.73,-19.59 34.51,-29.68 41.51,-29.49"/>
</g>
<!-- Node13&#45;&gt;Node7 -->
<g id="edge19" class="edge">
<title>Node13&#45;&gt;Node7</title>
<path fill="none" stroke="midnightblue" d="M169.15,-395.42C146.92,-389.65 118.62,-378.21 104.5,-356 48.74,-268.28 93.54,-133.63 112.79,-85.16"/>
<polygon fill="midnightblue" stroke="midnightblue" points="116.12,-86.28 116.67,-75.7 109.64,-83.63 116.12,-86.28"/>
</g>
<!-- Node13&#45;&gt;Node12 -->
<g id="edge28" class="edge">
<title>Node13&#45;&gt;Node12</title>
<path fill="none" stroke="midnightblue" d="M169.47,-397.72C140.57,-393.11 98.07,-382.09 71.5,-356 49.53,-334.42 47.5,-321.8 47.5,-291 47.5,-291 47.5,-291 47.5,-233 47.5,-200.88 44.49,-163.6 42.42,-141.73"/>
<polygon fill="midnightblue" stroke="midnightblue" points="45.88,-141.15 41.42,-131.55 38.91,-141.84 45.88,-141.15"/>
</g>
<!-- Node14 -->
<g id="node14" class="node">
<title>Node14</title>
<g id="a_node14"><a xlink:href="vec2_8h.html" target="_top" xlink:title=" ">
<polygon fill="none" stroke="black" points="219,-336.5 219,-355.5 268,-355.5 268,-336.5 219,-336.5"/>
<text text-anchor="middle" x="243.5" y="-343.5" font-family="Helvetica,sans-Serif" font-size="10.00">vec2.h</text>
</a>
</g>
</g>
<!-- Node13&#45;&gt;Node14 -->
<g id="edge18" class="edge">
<title>Node13&#45;&gt;Node14</title>
<path fill="none" stroke="midnightblue" d="M207.6,-392.08C213.74,-384.38 222.77,-373.03 230.24,-363.65"/>
<polygon fill="midnightblue" stroke="midnightblue" points="233.04,-365.75 236.53,-355.75 227.56,-361.39 233.04,-365.75"/>
</g>
<!-- Node15 -->
<g id="node15" class="node">
<title>Node15</title>
<g id="a_node15"><a xlink:href="error__syscall_8h.html" target="_top" xlink:title=" ">
<polygon fill="none" stroke="black" points="113.5,-336.5 113.5,-355.5 201.5,-355.5 201.5,-336.5 113.5,-336.5"/>
<text text-anchor="middle" x="157.5" y="-343.5" font-family="Helvetica,sans-Serif" font-size="10.00">error_syscall.h</text>
</a>
</g>
</g>
<!-- Node13&#45;&gt;Node15 -->
<g id="edge20" class="edge">
<title>Node13&#45;&gt;Node15</title>
<path fill="none" stroke="midnightblue" d="M193.4,-392.08C187.26,-384.38 178.23,-373.03 170.76,-363.65"/>
<polygon fill="midnightblue" stroke="midnightblue" points="173.44,-361.39 164.47,-355.75 167.96,-365.75 173.44,-361.39"/>
</g>
<!-- Node13&#45;&gt;Node21 -->
<g id="edge29" class="edge">
<title>Node13&#45;&gt;Node21</title>
<path fill="none" stroke="midnightblue" d="M224.27,-392.44C249.39,-383.4 289.21,-369.06 317.4,-358.92"/>
<polygon fill="midnightblue" stroke="midnightblue" points="318.62,-362.2 326.84,-355.52 316.25,-355.61 318.62,-362.2"/>
</g>
<!-- Node16 -->
<g id="node16" class="node">
<title>Node16</title>
<g id="a_node16"><a xlink:title=" ">
<polygon fill="none" stroke="#bfbfbf" points="114,-280.5 114,-299.5 161,-299.5 161,-280.5 114,-280.5"/>
<text text-anchor="middle" x="137.5" y="-287.5" font-family="Helvetica,sans-Serif" font-size="10.00">fcntl.h</text>
</a>
</g>
</g>
<!-- Node15&#45;&gt;Node16 -->
<g id="edge21" class="edge">
<title>Node15&#45;&gt;Node16</title>
<path fill="none" stroke="midnightblue" d="M154.2,-336.08C151.52,-328.85 147.65,-318.41 144.31,-309.4"/>
<polygon fill="midnightblue" stroke="midnightblue" points="147.5,-307.91 140.74,-299.75 140.93,-310.34 147.5,-307.91"/>
</g>
<!-- Node17 -->
<g id="node17" class="node">
<title>Node17</title>
<g id="a_node17"><a xlink:href="error__type_8h.html" target="_top" xlink:title=" ">
<polygon fill="none" stroke="black" points="179.5,-280.5 179.5,-299.5 255.5,-299.5 255.5,-280.5 179.5,-280.5"/>
<text text-anchor="middle" x="217.5" y="-287.5" font-family="Helvetica,sans-Serif" font-size="10.00">error_type.h</text>
</a>
</g>
</g>
<!-- Node15&#45;&gt;Node17 -->
<g id="edge22" class="edge">
<title>Node15&#45;&gt;Node17</title>
<path fill="none" stroke="midnightblue" d="M167.14,-336.32C176.01,-328.34 189.37,-316.31 200.11,-306.65"/>
<polygon fill="midnightblue" stroke="midnightblue" points="202.59,-309.13 207.68,-299.83 197.91,-303.92 202.59,-309.13"/>
</g>
<!-- Node18 -->
<g id="node18" class="node">
<title>Node18</title>
<g id="a_node18"><a xlink:href="error__msg_8h.html" target="_top" xlink:title=" ">
<polygon fill="none" stroke="black" points="274,-280.5 274,-299.5 349,-299.5 349,-280.5 274,-280.5"/>
<text text-anchor="middle" x="311.5" y="-287.5" font-family="Helvetica,sans-Serif" font-size="10.00">error_msg.h</text>
</a>
</g>
</g>
<!-- Node15&#45;&gt;Node18 -->
<g id="edge23" class="edge">
<title>Node15&#45;&gt;Node18</title>
<path fill="none" stroke="midnightblue" d="M181.9,-336.44C207.7,-327.4 248.58,-313.06 277.52,-302.92"/>
<polygon fill="midnightblue" stroke="midnightblue" points="278.93,-306.13 287.21,-299.52 276.62,-299.52 278.93,-306.13"/>
</g>
<!-- Node18&#45;&gt;Node4 -->
<g id="edge27" class="edge">
<title>Node18&#45;&gt;Node4</title>
<path fill="none" stroke="midnightblue" d="M321.62,-280.32C331.03,-272.26 345.24,-260.08 356.57,-250.37"/>
<polygon fill="midnightblue" stroke="midnightblue" points="358.88,-253 364.19,-243.83 354.32,-247.68 358.88,-253"/>
</g>
<!-- Node18&#45;&gt;Node10 -->
<g id="edge24" class="edge">
<title>Node18&#45;&gt;Node10</title>
<path fill="none" stroke="midnightblue" d="M302.25,-280.5C285.09,-264.22 248.31,-226.81 228.5,-188 221.04,-173.39 216.65,-155.22 214.2,-141.8"/>
<polygon fill="midnightblue" stroke="midnightblue" points="217.64,-141.15 212.58,-131.84 210.73,-142.27 217.64,-141.15"/>
</g>
<!-- Node19 -->
<g id="node19" class="node">
<title>Node19</title>
<g id="a_node19"><a xlink:title=" ">
<polygon fill="none" stroke="#bfbfbf" points="114,-224.5 114,-243.5 165,-243.5 165,-224.5 114,-224.5"/>
<text text-anchor="middle" x="139.5" y="-231.5" font-family="Helvetica,sans-Serif" font-size="10.00">errno.h</text>
</a>
</g>
</g>
<!-- Node18&#45;&gt;Node19 -->
<g id="edge25" class="edge">
<title>Node18&#45;&gt;Node19</title>
<path fill="none" stroke="midnightblue" d="M284.25,-280.44C254.63,-271.15 207.21,-256.26 174.77,-246.07"/>
<polygon fill="midnightblue" stroke="midnightblue" points="175.81,-242.73 165.22,-243.08 173.71,-249.41 175.81,-242.73"/>
</g>
<!-- Node20 -->
<g id="node20" class="node">
<title>Node20</title>
<g id="a_node20"><a xlink:title=" ">
<polygon fill="none" stroke="#bfbfbf" points="183,-224.5 183,-243.5 230,-243.5 230,-224.5 183,-224.5"/>
<text text-anchor="middle" x="206.5" y="-231.5" font-family="Helvetica,sans-Serif" font-size="10.00">ft_fd.h</text>
</a>
</g>
</g>
<!-- Node18&#45;&gt;Node20 -->
<g id="edge26" class="edge">
<title>Node18&#45;&gt;Node20</title>
<path fill="none" stroke="midnightblue" d="M294.63,-280.32C277.79,-271.66 251.69,-258.24 232.26,-248.25"/>
<polygon fill="midnightblue" stroke="midnightblue" points="233.82,-245.12 223.33,-243.65 230.62,-251.34 233.82,-245.12"/>
</g>
</g>
</svg>
