<?xml version="1.0" encoding="UTF-8" standalone="no"?>
<!DOCTYPE svg PUBLIC "-//W3C//DTD SVG 1.1//EN"
 "http://www.w3.org/Graphics/SVG/1.1/DTD/svg11.dtd">
<!-- Generated by graphviz version 2.43.0 (0)
 -->
<!-- Title: src/hit_sphere_bonus.c Pages: 1 -->
<svg width="479pt" height="420pt"
 viewBox="0.00 0.00 478.61 420.00" xmlns="http://www.w3.org/2000/svg" xmlns:xlink="http://www.w3.org/1999/xlink">
<g id="graph0" class="graph" transform="scale(1 1) rotate(0) translate(4 416)">
<title>src/hit_sphere_bonus.c</title>
<!-- Node1 -->
<g id="node1" class="node">
<title>Node1</title>
<g id="a_node1"><a xlink:title=" ">
<polygon fill="#bfbfbf" stroke="black" points="320.96,-392.5 320.96,-411.5 448.96,-411.5 448.96,-392.5 320.96,-392.5"/>
<text text-anchor="middle" x="384.96" y="-399.5" font-family="Helvetica,sans-Serif" font-size="10.00">src/hit_sphere_bonus.c</text>
</a>
</g>
</g>
<!-- Node2 -->
<g id="node2" class="node">
<title>Node2</title>
<g id="a_node2"><a xlink:href="hit__manager__bonus_8h.html" target="_top" xlink:title=" ">
<polygon fill="none" stroke="black" points="323.96,-336.5 323.96,-355.5 445.96,-355.5 445.96,-336.5 323.96,-336.5"/>
<text text-anchor="middle" x="384.96" y="-343.5" font-family="Helvetica,sans-Serif" font-size="10.00">hit_manager_bonus.h</text>
</a>
</g>
</g>
<!-- Node1&#45;&gt;Node2 -->
<g id="edge1" class="edge">
<title>Node1&#45;&gt;Node2</title>
<path fill="none" stroke="midnightblue" d="M384.96,-392.08C384.96,-385.01 384.96,-374.86 384.96,-365.99"/>
<polygon fill="midnightblue" stroke="midnightblue" points="388.46,-365.75 384.96,-355.75 381.46,-365.75 388.46,-365.75"/>
</g>
<!-- Node3 -->
<g id="node3" class="node">
<title>Node3</title>
<g id="a_node3"><a xlink:href="ray__bonus_8h.html" target="_top" xlink:title=" ">
<polygon fill="none" stroke="black" points="235.96,-280.5 235.96,-299.5 311.96,-299.5 311.96,-280.5 235.96,-280.5"/>
<text text-anchor="middle" x="273.96" y="-287.5" font-family="Helvetica,sans-Serif" font-size="10.00">ray_bonus.h</text>
</a>
</g>
</g>
<!-- Node2&#45;&gt;Node3 -->
<g id="edge2" class="edge">
<title>Node2&#45;&gt;Node3</title>
<path fill="none" stroke="midnightblue" d="M367.13,-336.32C349.25,-327.62 321.49,-314.12 300.92,-304.11"/>
<polygon fill="midnightblue" stroke="midnightblue" points="302.28,-300.88 291.75,-299.65 299.21,-307.18 302.28,-300.88"/>
</g>
<!-- Node12 -->
<g id="node12" class="node">
<title>Node12</title>
<g id="a_node12"><a xlink:href="utils__bonus_8h.html" target="_top" xlink:title=" ">
<polygon fill="none" stroke="black" points="267.46,-112.5 267.46,-131.5 348.46,-131.5 348.46,-112.5 267.46,-112.5"/>
<text text-anchor="middle" x="307.96" y="-119.5" font-family="Helvetica,sans-Serif" font-size="10.00">utils_bonus.h</text>
</a>
</g>
</g>
<!-- Node2&#45;&gt;Node12 -->
<g id="edge23" class="edge">
<title>Node2&#45;&gt;Node12</title>
<path fill="none" stroke="midnightblue" d="M394.42,-336.12C422.36,-308.82 500.03,-224.54 457.96,-168 435.31,-137.56 392.78,-126.93 358.77,-123.57"/>
<polygon fill="midnightblue" stroke="midnightblue" points="358.77,-120.05 348.52,-122.74 358.21,-127.03 358.77,-120.05"/>
</g>
<!-- Node16 -->
<g id="node16" class="node">
<title>Node16</title>
<g id="a_node16"><a xlink:href="mini_r_t__config__bonus_8h.html" target="_top" xlink:title=" ">
<polygon fill="none" stroke="black" points="320.96,-168.5 320.96,-187.5 448.96,-187.5 448.96,-168.5 320.96,-168.5"/>
<text text-anchor="middle" x="384.96" y="-175.5" font-family="Helvetica,sans-Serif" font-size="10.00">miniRT_config_bonus.h</text>
</a>
</g>
</g>
<!-- Node2&#45;&gt;Node16 -->
<g id="edge24" class="edge">
<title>Node2&#45;&gt;Node16</title>
<path fill="none" stroke="midnightblue" d="M384.96,-336.08C384.96,-309.95 384.96,-233.21 384.96,-197.58"/>
<polygon fill="midnightblue" stroke="midnightblue" points="388.46,-197.57 384.96,-187.57 381.46,-197.57 388.46,-197.57"/>
</g>
<!-- Node4 -->
<g id="node4" class="node">
<title>Node4</title>
<g id="a_node4"><a xlink:href="entities__bonus_8h.html" target="_top" xlink:title=" ">
<polygon fill="none" stroke="black" points="27.46,-224.5 27.46,-243.5 124.46,-243.5 124.46,-224.5 27.46,-224.5"/>
<text text-anchor="middle" x="75.96" y="-231.5" font-family="Helvetica,sans-Serif" font-size="10.00">entities_bonus.h</text>
</a>
</g>
</g>
<!-- Node3&#45;&gt;Node4 -->
<g id="edge3" class="edge">
<title>Node3&#45;&gt;Node4</title>
<path fill="none" stroke="midnightblue" d="M242.59,-280.44C208.7,-271.2 154.56,-256.44 117.24,-246.26"/>
<polygon fill="midnightblue" stroke="midnightblue" points="117.76,-242.77 107.19,-243.52 115.92,-249.52 117.76,-242.77"/>
</g>
<!-- Node14 -->
<g id="node14" class="node">
<title>Node14</title>
<g id="a_node14"><a xlink:href="camera_8h.html" target="_top" xlink:title=" ">
<polygon fill="none" stroke="black" points="242.96,-224.5 242.96,-243.5 304.96,-243.5 304.96,-224.5 242.96,-224.5"/>
<text text-anchor="middle" x="273.96" y="-231.5" font-family="Helvetica,sans-Serif" font-size="10.00">camera.h</text>
</a>
</g>
</g>
<!-- Node3&#45;&gt;Node14 -->
<g id="edge18" class="edge">
<title>Node3&#45;&gt;Node14</title>
<path fill="none" stroke="midnightblue" d="M273.96,-280.08C273.96,-273.01 273.96,-262.86 273.96,-253.99"/>
<polygon fill="midnightblue" stroke="midnightblue" points="277.46,-253.75 273.96,-243.75 270.46,-253.75 277.46,-253.75"/>
</g>
<!-- Node5 -->
<g id="node5" class="node">
<title>Node5</title>
<g id="a_node5"><a xlink:title=" ">
<polygon fill="none" stroke="#bfbfbf" points="185.96,-0.5 185.96,-19.5 247.96,-19.5 247.96,-0.5 185.96,-0.5"/>
<text text-anchor="middle" x="216.96" y="-7.5" font-family="Helvetica,sans-Serif" font-size="10.00">stdbool.h</text>
</a>
</g>
</g>
<!-- Node4&#45;&gt;Node5 -->
<g id="edge4" class="edge">
<title>Node4&#45;&gt;Node5</title>
<path fill="none" stroke="midnightblue" d="M54.25,-224.4C39.15,-217.15 20.16,-205.18 10.96,-188 -4.98,-158.22 -1.59,-143.74 9.96,-112 34.01,-45.95 122.63,-22.99 175.81,-15.08"/>
<polygon fill="midnightblue" stroke="midnightblue" points="176.51,-18.52 185.94,-13.69 175.56,-11.58 176.51,-18.52"/>
</g>
<!-- Node6 -->
<g id="node6" class="node">
<title>Node6</title>
<g id="a_node6"><a xlink:title=" ">
<polygon fill="none" stroke="#bfbfbf" points="65.46,-56.5 65.46,-75.5 118.46,-75.5 118.46,-56.5 65.46,-56.5"/>
<text text-anchor="middle" x="91.96" y="-63.5" font-family="Helvetica,sans-Serif" font-size="10.00">stdlib.h</text>
</a>
</g>
</g>
<!-- Node4&#45;&gt;Node6 -->
<g id="edge5" class="edge">
<title>Node4&#45;&gt;Node6</title>
<path fill="none" stroke="midnightblue" d="M59.33,-224.46C46.47,-216.84 29.62,-204.36 21.96,-188 7.63,-157.41 5.78,-141.65 21.96,-112 29.78,-97.68 44.32,-87.24 58.14,-80.04"/>
<polygon fill="midnightblue" stroke="midnightblue" points="59.98,-83.03 67.49,-75.56 56.96,-76.72 59.98,-83.03"/>
</g>
<!-- Node7 -->
<g id="node7" class="node">
<title>Node7</title>
<g id="a_node7"><a xlink:href="vec3_8h.html" target="_top" xlink:title=" ">
<polygon fill="none" stroke="black" points="192.46,-56.5 192.46,-75.5 241.46,-75.5 241.46,-56.5 192.46,-56.5"/>
<text text-anchor="middle" x="216.96" y="-63.5" font-family="Helvetica,sans-Serif" font-size="10.00">vec3.h</text>
</a>
</g>
</g>
<!-- Node4&#45;&gt;Node7 -->
<g id="edge6" class="edge">
<title>Node4&#45;&gt;Node7</title>
<path fill="none" stroke="midnightblue" d="M87.87,-224.47C99.33,-215.95 116.82,-202.11 129.96,-188 161.4,-154.23 191.26,-108.79 206.48,-84.33"/>
<polygon fill="midnightblue" stroke="midnightblue" points="209.48,-86.13 211.74,-75.77 203.52,-82.46 209.48,-86.13"/>
</g>
<!-- Node9 -->
<g id="node9" class="node">
<title>Node9</title>
<g id="a_node9"><a xlink:href="colour__bonus_8h.html" target="_top" xlink:title=" ">
<polygon fill="none" stroke="black" points="30.96,-168.5 30.96,-187.5 120.96,-187.5 120.96,-168.5 30.96,-168.5"/>
<text text-anchor="middle" x="75.96" y="-175.5" font-family="Helvetica,sans-Serif" font-size="10.00">colour_bonus.h</text>
</a>
</g>
</g>
<!-- Node4&#45;&gt;Node9 -->
<g id="edge9" class="edge">
<title>Node4&#45;&gt;Node9</title>
<path fill="none" stroke="midnightblue" d="M75.96,-224.08C75.96,-217.01 75.96,-206.86 75.96,-197.99"/>
<polygon fill="midnightblue" stroke="midnightblue" points="79.46,-197.75 75.96,-187.75 72.46,-197.75 79.46,-197.75"/>
</g>
<!-- Node7&#45;&gt;Node5 -->
<g id="edge8" class="edge">
<title>Node7&#45;&gt;Node5</title>
<path fill="none" stroke="midnightblue" d="M216.96,-56.08C216.96,-49.01 216.96,-38.86 216.96,-29.99"/>
<polygon fill="midnightblue" stroke="midnightblue" points="220.46,-29.75 216.96,-19.75 213.46,-29.75 220.46,-29.75"/>
</g>
<!-- Node8 -->
<g id="node8" class="node">
<title>Node8</title>
<g id="a_node8"><a xlink:title=" ">
<polygon fill="none" stroke="#bfbfbf" points="274.46,-0.5 274.46,-19.5 325.46,-19.5 325.46,-0.5 274.46,-0.5"/>
<text text-anchor="middle" x="299.96" y="-7.5" font-family="Helvetica,sans-Serif" font-size="10.00">math.h</text>
</a>
</g>
</g>
<!-- Node7&#45;&gt;Node8 -->
<g id="edge7" class="edge">
<title>Node7&#45;&gt;Node8</title>
<path fill="none" stroke="midnightblue" d="M230.3,-56.32C243.12,-47.98 262.75,-35.21 277.9,-25.35"/>
<polygon fill="midnightblue" stroke="midnightblue" points="280.19,-28.04 286.66,-19.65 276.37,-22.17 280.19,-28.04"/>
</g>
<!-- Node10 -->
<g id="node10" class="node">
<title>Node10</title>
<g id="a_node10"><a xlink:title=" ">
<polygon fill="none" stroke="#bfbfbf" points="30.96,-112.5 30.96,-131.5 80.96,-131.5 80.96,-112.5 30.96,-112.5"/>
<text text-anchor="middle" x="55.96" y="-119.5" font-family="Helvetica,sans-Serif" font-size="10.00">stdio.h</text>
</a>
</g>
</g>
<!-- Node9&#45;&gt;Node10 -->
<g id="edge10" class="edge">
<title>Node9&#45;&gt;Node10</title>
<path fill="none" stroke="midnightblue" d="M72.66,-168.08C69.98,-160.85 66.11,-150.41 62.78,-141.4"/>
<polygon fill="midnightblue" stroke="midnightblue" points="65.96,-139.91 59.2,-131.75 59.39,-142.34 65.96,-139.91"/>
</g>
<!-- Node11 -->
<g id="node11" class="node">
<title>Node11</title>
<g id="a_node11"><a xlink:title=" ">
<polygon fill="none" stroke="#bfbfbf" points="99.46,-112.5 99.46,-131.5 152.46,-131.5 152.46,-112.5 99.46,-112.5"/>
<text text-anchor="middle" x="125.96" y="-119.5" font-family="Helvetica,sans-Serif" font-size="10.00">stdint.h</text>
</a>
</g>
</g>
<!-- Node9&#45;&gt;Node11 -->
<g id="edge11" class="edge">
<title>Node9&#45;&gt;Node11</title>
<path fill="none" stroke="midnightblue" d="M84.22,-168.08C91.43,-160.3 102.07,-148.8 110.81,-139.37"/>
<polygon fill="midnightblue" stroke="midnightblue" points="113.63,-141.47 117.86,-131.75 108.5,-136.71 113.63,-141.47"/>
</g>
<!-- Node9&#45;&gt;Node12 -->
<g id="edge12" class="edge">
<title>Node9&#45;&gt;Node12</title>
<path fill="none" stroke="midnightblue" d="M112.72,-168.44C153.02,-159.06 217.77,-143.99 261.55,-133.8"/>
<polygon fill="midnightblue" stroke="midnightblue" points="262.43,-137.19 271.37,-131.52 260.84,-130.37 262.43,-137.19"/>
</g>
<!-- Node12&#45;&gt;Node5 -->
<g id="edge14" class="edge">
<title>Node12&#45;&gt;Node5</title>
<path fill="none" stroke="midnightblue" d="M300.82,-112.37C285.67,-94.05 250.09,-51.05 230.5,-27.36"/>
<polygon fill="midnightblue" stroke="midnightblue" points="233.14,-25.07 224.07,-19.59 227.75,-29.53 233.14,-25.07"/>
</g>
<!-- Node12&#45;&gt;Node6 -->
<g id="edge15" class="edge">
<title>Node12&#45;&gt;Node6</title>
<path fill="none" stroke="midnightblue" d="M273.74,-112.44C234.04,-102.52 168.87,-86.23 128.29,-76.08"/>
<polygon fill="midnightblue" stroke="midnightblue" points="129.09,-72.67 118.54,-73.64 127.39,-79.46 129.09,-72.67"/>
</g>
<!-- Node12&#45;&gt;Node7 -->
<g id="edge17" class="edge">
<title>Node12&#45;&gt;Node7</title>
<path fill="none" stroke="midnightblue" d="M293.34,-112.32C279.01,-103.82 256.95,-90.73 240.21,-80.8"/>
<polygon fill="midnightblue" stroke="midnightblue" points="241.93,-77.75 231.55,-75.65 238.36,-83.77 241.93,-77.75"/>
</g>
<!-- Node12&#45;&gt;Node8 -->
<g id="edge13" class="edge">
<title>Node12&#45;&gt;Node8</title>
<path fill="none" stroke="midnightblue" d="M307.33,-112.37C306.04,-94.62 303.06,-53.67 301.31,-29.6"/>
<polygon fill="midnightblue" stroke="midnightblue" points="304.8,-29.31 300.59,-19.59 297.82,-29.82 304.8,-29.31"/>
</g>
<!-- Node13 -->
<g id="node13" class="node">
<title>Node13</title>
<g id="a_node13"><a xlink:title=" ">
<polygon fill="none" stroke="#bfbfbf" points="335.96,-56.5 335.96,-75.5 383.96,-75.5 383.96,-56.5 335.96,-56.5"/>
<text text-anchor="middle" x="359.96" y="-63.5" font-family="Helvetica,sans-Serif" font-size="10.00">time.h</text>
</a>
</g>
</g>
<!-- Node12&#45;&gt;Node13 -->
<g id="edge16" class="edge">
<title>Node12&#45;&gt;Node13</title>
<path fill="none" stroke="midnightblue" d="M316.55,-112.08C324.12,-104.22 335.34,-92.57 344.48,-83.08"/>
<polygon fill="midnightblue" stroke="midnightblue" points="347.12,-85.38 351.53,-75.75 342.08,-80.53 347.12,-85.38"/>
</g>
<!-- Node14&#45;&gt;Node7 -->
<g id="edge20" class="edge">
<title>Node14&#45;&gt;Node7</title>
<path fill="none" stroke="midnightblue" d="M270.9,-224.08C261.89,-197.83 235.35,-120.55 223.18,-85.12"/>
<polygon fill="midnightblue" stroke="midnightblue" points="226.46,-83.89 219.9,-75.57 219.84,-86.16 226.46,-83.89"/>
</g>
<!-- Node14&#45;&gt;Node12 -->
<g id="edge21" class="edge">
<title>Node14&#45;&gt;Node12</title>
<path fill="none" stroke="midnightblue" d="M276.63,-224.37C282.14,-206.54 294.89,-165.3 302.31,-141.27"/>
<polygon fill="midnightblue" stroke="midnightblue" points="305.7,-142.18 305.31,-131.59 299.01,-140.11 305.7,-142.18"/>
</g>
<!-- Node15 -->
<g id="node15" class="node">
<title>Node15</title>
<g id="a_node15"><a xlink:href="vec2_8h.html" target="_top" xlink:title=" ">
<polygon fill="none" stroke="black" points="177.46,-168.5 177.46,-187.5 226.46,-187.5 226.46,-168.5 177.46,-168.5"/>
<text text-anchor="middle" x="201.96" y="-175.5" font-family="Helvetica,sans-Serif" font-size="10.00">vec2.h</text>
</a>
</g>
</g>
<!-- Node14&#45;&gt;Node15 -->
<g id="edge19" class="edge">
<title>Node14&#45;&gt;Node15</title>
<path fill="none" stroke="midnightblue" d="M262.39,-224.32C251.54,-216.18 235.08,-203.84 222.08,-194.09"/>
<polygon fill="midnightblue" stroke="midnightblue" points="223.84,-191.03 213.74,-187.83 219.64,-196.63 223.84,-191.03"/>
</g>
<!-- Node14&#45;&gt;Node16 -->
<g id="edge22" class="edge">
<title>Node14&#45;&gt;Node16</title>
<path fill="none" stroke="midnightblue" d="M291.8,-224.32C309.68,-215.62 337.44,-202.12 358.01,-192.11"/>
<polygon fill="midnightblue" stroke="midnightblue" points="359.71,-195.18 367.17,-187.65 356.65,-188.88 359.71,-195.18"/>
</g>
</g>
</svg>
