<?xml version="1.0" encoding="UTF-8" standalone="no"?>
<!DOCTYPE svg PUBLIC "-//W3C//DTD SVG 1.1//EN"
 "http://www.w3.org/Graphics/SVG/1.1/DTD/svg11.dtd">
<!-- Generated by graphviz version 2.43.0 (0)
 -->
<!-- Title: ft_cy_cap_hit Pages: 1 -->
<svg width="624pt" height="294pt"
 viewBox="0.00 0.00 624.00 294.00" xmlns="http://www.w3.org/2000/svg" xmlns:xlink="http://www.w3.org/1999/xlink">
<g id="graph0" class="graph" transform="scale(1 1) rotate(0) translate(4 290)">
<title>ft_cy_cap_hit</title>
<!-- Node1 -->
<g id="node1" class="node">
<title>Node1</title>
<g id="a_node1"><a xlink:title="Calculates the hit point of the ray with the cylinder cap.">
<polygon fill="#bfbfbf" stroke="black" points="0,-95.5 0,-114.5 80,-114.5 80,-95.5 0,-95.5"/>
<text text-anchor="middle" x="40" y="-102.5" font-family="Helvetica,sans-Serif" font-size="10.00">ft_cy_cap_hit</text>
</a>
</g>
</g>
<!-- Node2 -->
<g id="node2" class="node">
<title>Node2</title>
<g id="a_node2"><a xlink:href="hit__manager_8h.html#a04f04eb6383f01a28b0c7201ab52782e" target="_top" xlink:title="Calculates if a plane was hit by a ray.">
<polygon fill="none" stroke="black" points="125.5,-114.5 125.5,-133.5 199.5,-133.5 199.5,-114.5 125.5,-114.5"/>
<text text-anchor="middle" x="162.5" y="-121.5" font-family="Helvetica,sans-Serif" font-size="10.00">ft_hit_plane</text>
</a>
</g>
</g>
<!-- Node1&#45;&gt;Node2 -->
<g id="edge1" class="edge">
<title>Node1&#45;&gt;Node2</title>
<path fill="none" stroke="midnightblue" d="M80.12,-111.17C91.39,-112.95 103.79,-114.9 115.44,-116.74"/>
<polygon fill="midnightblue" stroke="midnightblue" points="115.01,-120.21 125.43,-118.31 116.1,-113.3 115.01,-120.21"/>
</g>
<!-- Node14 -->
<g id="node14" class="node">
<title>Node14</title>
<g id="a_node14"><a xlink:href="hit__manager_8h.html#aa5acefb1538a700dc595870ad630f83d" target="_top" xlink:title="Initiates hitrecord struct.">
<polygon fill="none" stroke="black" points="116,-76.5 116,-95.5 209,-95.5 209,-76.5 116,-76.5"/>
<text text-anchor="middle" x="162.5" y="-83.5" font-family="Helvetica,sans-Serif" font-size="10.00">ft_init_hitrecord</text>
</a>
</g>
</g>
<!-- Node1&#45;&gt;Node14 -->
<g id="edge15" class="edge">
<title>Node1&#45;&gt;Node14</title>
<path fill="none" stroke="midnightblue" d="M80.12,-98.83C88.32,-97.54 97.12,-96.15 105.79,-94.78"/>
<polygon fill="midnightblue" stroke="midnightblue" points="106.53,-98.21 115.87,-93.2 105.44,-91.3 106.53,-98.21"/>
</g>
<!-- Node3 -->
<g id="node3" class="node">
<title>Node3</title>
<g id="a_node3"><a xlink:href="hit__plane__bonus_8c.html#a87d41de805dc36f90fb5002fa2d34da0" target="_top" xlink:title="Transforms the Cartesian coordinates of a hit point on a plane into 2D texture UV&#45;coordinates in the ...">
<polygon fill="none" stroke="black" points="245,-228.5 245,-247.5 353,-247.5 353,-228.5 245,-228.5"/>
<text text-anchor="middle" x="299" y="-235.5" font-family="Helvetica,sans-Serif" font-size="10.00">ft_get_pl_uvcoords</text>
</a>
</g>
</g>
<!-- Node2&#45;&gt;Node3 -->
<g id="edge2" class="edge">
<title>Node2&#45;&gt;Node3</title>
<path fill="none" stroke="midnightblue" d="M170.1,-133.59C182.81,-151.45 212.3,-190.15 245,-214 250.2,-217.79 256.08,-221.18 262,-224.13"/>
<polygon fill="midnightblue" stroke="midnightblue" points="260.68,-227.37 271.22,-228.41 263.62,-221.02 260.68,-227.37"/>
</g>
<!-- Node5 -->
<g id="node5" class="node">
<title>Node5</title>
<g id="a_node5"><a xlink:href="vec3_8h.html#a89fd02ae4b8b3602bc001664eb5e8f91" target="_top" xlink:title="Calculate the scalar product of two vectors.">
<polygon fill="none" stroke="black" points="394.5,-190.5 394.5,-209.5 467.5,-209.5 467.5,-190.5 394.5,-190.5"/>
<text text-anchor="middle" x="431" y="-197.5" font-family="Helvetica,sans-Serif" font-size="10.00">ft_vec3_dot</text>
</a>
</g>
</g>
<!-- Node2&#45;&gt;Node5 -->
<g id="edge12" class="edge">
<title>Node2&#45;&gt;Node5</title>
<path fill="none" stroke="midnightblue" d="M173.57,-133.66C188.05,-146.91 216.2,-170.28 245,-181 290.22,-197.83 345.69,-201.49 384.03,-201.61"/>
<polygon fill="midnightblue" stroke="midnightblue" points="384.39,-205.11 394.37,-201.56 384.36,-198.11 384.39,-205.11"/>
</g>
<!-- Node8 -->
<g id="node8" class="node">
<title>Node8</title>
<g id="a_node8"><a xlink:href="ray_8h.html#ac56e9ac7acfb4658469e190c022b0d63" target="_top" xlink:title="Represents a ray.">
<polygon fill="none" stroke="black" points="261.5,-152.5 261.5,-171.5 336.5,-171.5 336.5,-152.5 261.5,-152.5"/>
<text text-anchor="middle" x="299" y="-159.5" font-family="Helvetica,sans-Serif" font-size="10.00">ft_scale_ray</text>
</a>
</g>
</g>
<!-- Node2&#45;&gt;Node8 -->
<g id="edge7" class="edge">
<title>Node2&#45;&gt;Node8</title>
<path fill="none" stroke="midnightblue" d="M197.44,-133.59C214.72,-138.47 235.93,-144.46 254.41,-149.68"/>
<polygon fill="midnightblue" stroke="midnightblue" points="253.5,-153.06 264.07,-152.41 255.4,-146.33 253.5,-153.06"/>
</g>
<!-- Node10 -->
<g id="node10" class="node">
<title>Node10</title>
<g id="a_node10"><a xlink:href="vec3_8h.html#ac80a1c20941c96a8fafad255dac59092" target="_top" xlink:title="Scale a vector.">
<polygon fill="none" stroke="black" points="389.5,-114.5 389.5,-133.5 472.5,-133.5 472.5,-114.5 389.5,-114.5"/>
<text text-anchor="middle" x="431" y="-121.5" font-family="Helvetica,sans-Serif" font-size="10.00">ft_vec3_scale</text>
</a>
</g>
</g>
<!-- Node2&#45;&gt;Node10 -->
<g id="edge13" class="edge">
<title>Node2&#45;&gt;Node10</title>
<path fill="none" stroke="midnightblue" d="M199.72,-124C246.15,-124 326.91,-124 379.4,-124"/>
<polygon fill="midnightblue" stroke="midnightblue" points="379.5,-127.5 389.5,-124 379.5,-120.5 379.5,-127.5"/>
</g>
<!-- Node11 -->
<g id="node11" class="node">
<title>Node11</title>
<g id="a_node11"><a xlink:href="utils_8h.html#a90ba8fcafcfab2af9f361cde331dbb06" target="_top" xlink:title="Solves the given equation.">
<polygon fill="none" stroke="black" points="271.5,-76.5 271.5,-95.5 326.5,-95.5 326.5,-76.5 271.5,-76.5"/>
<text text-anchor="middle" x="299" y="-83.5" font-family="Helvetica,sans-Serif" font-size="10.00">ft_solve</text>
</a>
</g>
</g>
<!-- Node2&#45;&gt;Node11 -->
<g id="edge10" class="edge">
<title>Node2&#45;&gt;Node11</title>
<path fill="none" stroke="midnightblue" d="M197.44,-114.41C217.01,-108.88 241.62,-101.93 261.6,-96.29"/>
<polygon fill="midnightblue" stroke="midnightblue" points="262.6,-99.64 271.28,-93.55 260.7,-92.9 262.6,-99.64"/>
</g>
<!-- Node12 -->
<g id="node12" class="node">
<title>Node12</title>
<g id="a_node12"><a xlink:href="utils_8h.html#add4de5ba94d3f8475d0a1c4ce8abd3aa" target="_top" xlink:title="Determines if value is surrounded by the interval.">
<polygon fill="none" stroke="black" points="260.5,-38.5 260.5,-57.5 337.5,-57.5 337.5,-38.5 260.5,-38.5"/>
<text text-anchor="middle" x="299" y="-45.5" font-family="Helvetica,sans-Serif" font-size="10.00">ft_surrounds</text>
</a>
</g>
</g>
<!-- Node2&#45;&gt;Node12 -->
<g id="edge11" class="edge">
<title>Node2&#45;&gt;Node12</title>
<path fill="none" stroke="midnightblue" d="M191.89,-114.3C197.78,-111.7 203.79,-108.6 209,-105 228.15,-91.79 225.52,-79.72 245,-67 247.95,-65.07 251.13,-63.31 254.4,-61.7"/>
<polygon fill="midnightblue" stroke="midnightblue" points="256.04,-64.81 263.79,-57.59 253.23,-58.4 256.04,-64.81"/>
</g>
<!-- Node13 -->
<g id="node13" class="node">
<title>Node13</title>
<g id="a_node13"><a xlink:href="vec3_8h.html#a54e984820b74bd803de43ce36c8cb292" target="_top" xlink:title="Subtract two vectors.">
<polygon fill="none" stroke="black" points="262,-0.5 262,-19.5 336,-19.5 336,-0.5 262,-0.5"/>
<text text-anchor="middle" x="299" y="-7.5" font-family="Helvetica,sans-Serif" font-size="10.00">ft_vec3_sub</text>
</a>
</g>
</g>
<!-- Node2&#45;&gt;Node13 -->
<g id="edge14" class="edge">
<title>Node2&#45;&gt;Node13</title>
<path fill="none" stroke="midnightblue" d="M195.2,-114.35C200.21,-111.86 205.04,-108.78 209,-105 236.04,-79.2 217.31,-54.1 245,-29 247.43,-26.8 250.13,-24.85 252.98,-23.13"/>
<polygon fill="midnightblue" stroke="midnightblue" points="254.59,-26.23 261.93,-18.59 251.42,-19.99 254.59,-26.23"/>
</g>
<!-- Node4 -->
<g id="node4" class="node">
<title>Node4</title>
<g id="a_node4"><a xlink:href="vec3_8h.html#a19bc1d17592698776e89a5093110320c" target="_top" xlink:title="Calculate the cross product of two vectors.">
<polygon fill="none" stroke="black" points="389.5,-266.5 389.5,-285.5 472.5,-285.5 472.5,-266.5 389.5,-266.5"/>
<text text-anchor="middle" x="431" y="-273.5" font-family="Helvetica,sans-Serif" font-size="10.00">ft_vec3_cross</text>
</a>
</g>
</g>
<!-- Node3&#45;&gt;Node4 -->
<g id="edge3" class="edge">
<title>Node3&#45;&gt;Node4</title>
<path fill="none" stroke="midnightblue" d="M332.8,-247.59C349.28,-252.4 369.44,-258.3 387.13,-263.47"/>
<polygon fill="midnightblue" stroke="midnightblue" points="386.63,-266.97 397.21,-266.41 388.59,-260.25 386.63,-266.97"/>
</g>
<!-- Node3&#45;&gt;Node5 -->
<g id="edge4" class="edge">
<title>Node3&#45;&gt;Node5</title>
<path fill="none" stroke="midnightblue" d="M332.8,-228.41C349.28,-223.6 369.44,-217.7 387.13,-212.53"/>
<polygon fill="midnightblue" stroke="midnightblue" points="388.59,-215.75 397.21,-209.59 386.63,-209.03 388.59,-215.75"/>
</g>
<!-- Node6 -->
<g id="node6" class="node">
<title>Node6</title>
<g id="a_node6"><a xlink:href="vec3_8h.html#add7f4f27ee8cadcbf62ffbfecb98f64f" target="_top" xlink:title="Determines if two vectors are equal.">
<polygon fill="none" stroke="black" points="389,-228.5 389,-247.5 473,-247.5 473,-228.5 389,-228.5"/>
<text text-anchor="middle" x="431" y="-235.5" font-family="Helvetica,sans-Serif" font-size="10.00">ft_vec3_equal</text>
</a>
</g>
</g>
<!-- Node3&#45;&gt;Node6 -->
<g id="edge5" class="edge">
<title>Node3&#45;&gt;Node6</title>
<path fill="none" stroke="midnightblue" d="M353.25,-238C361.73,-238 370.48,-238 378.9,-238"/>
<polygon fill="midnightblue" stroke="midnightblue" points="378.97,-241.5 388.97,-238 378.97,-234.5 378.97,-241.5"/>
</g>
<!-- Node7 -->
<g id="node7" class="node">
<title>Node7</title>
<g id="a_node7"><a xlink:href="utils_8h.html#a518be72ffbfd90cedf995e72dde0aff6" target="_top" xlink:title="Checks if two floats are (almost) equal.">
<polygon fill="none" stroke="black" points="509,-228.5 509,-247.5 616,-247.5 616,-228.5 509,-228.5"/>
<text text-anchor="middle" x="562.5" y="-235.5" font-family="Helvetica,sans-Serif" font-size="10.00">ft_nearly_equal_flt</text>
</a>
</g>
</g>
<!-- Node6&#45;&gt;Node7 -->
<g id="edge6" class="edge">
<title>Node6&#45;&gt;Node7</title>
<path fill="none" stroke="midnightblue" d="M473.33,-238C481.42,-238 490.07,-238 498.67,-238"/>
<polygon fill="midnightblue" stroke="midnightblue" points="498.72,-241.5 508.72,-238 498.72,-234.5 498.72,-241.5"/>
</g>
<!-- Node9 -->
<g id="node9" class="node">
<title>Node9</title>
<g id="a_node9"><a xlink:href="vec3_8h.html#a73e2caf4c2a51ed954b7349c6be2b3c3" target="_top" xlink:title="Add two vectors.">
<polygon fill="none" stroke="black" points="393.5,-152.5 393.5,-171.5 468.5,-171.5 468.5,-152.5 393.5,-152.5"/>
<text text-anchor="middle" x="431" y="-159.5" font-family="Helvetica,sans-Serif" font-size="10.00">ft_vec3_add</text>
</a>
</g>
</g>
<!-- Node8&#45;&gt;Node9 -->
<g id="edge8" class="edge">
<title>Node8&#45;&gt;Node9</title>
<path fill="none" stroke="midnightblue" d="M336.56,-162C350.96,-162 367.68,-162 382.96,-162"/>
<polygon fill="midnightblue" stroke="midnightblue" points="383.27,-165.5 393.27,-162 383.27,-158.5 383.27,-165.5"/>
</g>
<!-- Node8&#45;&gt;Node10 -->
<g id="edge9" class="edge">
<title>Node8&#45;&gt;Node10</title>
<path fill="none" stroke="midnightblue" d="M332.8,-152.41C349.28,-147.6 369.44,-141.7 387.13,-136.53"/>
<polygon fill="midnightblue" stroke="midnightblue" points="388.59,-139.75 397.21,-133.59 386.63,-133.03 388.59,-139.75"/>
</g>
</g>
</svg>
