<?xml version="1.0" encoding="UTF-8" standalone="no"?>
<!DOCTYPE svg PUBLIC "-//W3C//DTD SVG 1.1//EN"
 "http://www.w3.org/Graphics/SVG/1.1/DTD/svg11.dtd">
<!-- Generated by graphviz version 2.43.0 (0)
 -->
<!-- Title: src/import_file_buffer.c Pages: 1 -->
<svg width="467pt" height="476pt"
 viewBox="0.00 0.00 467.00 476.00" xmlns="http://www.w3.org/2000/svg" xmlns:xlink="http://www.w3.org/1999/xlink">
<g id="graph0" class="graph" transform="scale(1 1) rotate(0) translate(4 472)">
<title>src/import_file_buffer.c</title>
<!-- Node1 -->
<g id="node1" class="node">
<title>Node1</title>
<g id="a_node1"><a xlink:title=" ">
<polygon fill="#bfbfbf" stroke="black" points="205,-448.5 205,-467.5 333,-467.5 333,-448.5 205,-448.5"/>
<text text-anchor="middle" x="269" y="-455.5" font-family="Helvetica,sans-Serif" font-size="10.00">src/import_file_buffer.c</text>
</a>
</g>
</g>
<!-- Node2 -->
<g id="node2" class="node">
<title>Node2</title>
<g id="a_node2"><a xlink:href="import__file_8h.html" target="_top" xlink:title=" ">
<polygon fill="none" stroke="black" points="230,-392.5 230,-411.5 308,-411.5 308,-392.5 230,-392.5"/>
<text text-anchor="middle" x="269" y="-399.5" font-family="Helvetica,sans-Serif" font-size="10.00">import_file.h</text>
</a>
</g>
</g>
<!-- Node1&#45;&gt;Node2 -->
<g id="edge1" class="edge">
<title>Node1&#45;&gt;Node2</title>
<path fill="none" stroke="midnightblue" d="M269,-448.08C269,-441.01 269,-430.86 269,-421.99"/>
<polygon fill="midnightblue" stroke="midnightblue" points="272.5,-421.75 269,-411.75 265.5,-421.75 272.5,-421.75"/>
</g>
<!-- Node3 -->
<g id="node3" class="node">
<title>Node3</title>
<g id="a_node3"><a xlink:href="error__syscall_8h.html" target="_top" xlink:title=" ">
<polygon fill="none" stroke="black" points="225,-336.5 225,-355.5 313,-355.5 313,-336.5 225,-336.5"/>
<text text-anchor="middle" x="269" y="-343.5" font-family="Helvetica,sans-Serif" font-size="10.00">error_syscall.h</text>
</a>
</g>
</g>
<!-- Node2&#45;&gt;Node3 -->
<g id="edge2" class="edge">
<title>Node2&#45;&gt;Node3</title>
<path fill="none" stroke="midnightblue" d="M269,-392.08C269,-385.01 269,-374.86 269,-365.99"/>
<polygon fill="midnightblue" stroke="midnightblue" points="272.5,-365.75 269,-355.75 265.5,-365.75 272.5,-365.75"/>
</g>
<!-- Node18 -->
<g id="node18" class="node">
<title>Node18</title>
<g id="a_node18"><a xlink:href="cleanup_8h.html" target="_top" xlink:title=" ">
<polygon fill="none" stroke="black" points="0,-168.5 0,-187.5 64,-187.5 64,-168.5 0,-168.5"/>
<text text-anchor="middle" x="32" y="-175.5" font-family="Helvetica,sans-Serif" font-size="10.00">cleanup.h</text>
</a>
</g>
</g>
<!-- Node2&#45;&gt;Node18 -->
<g id="edge23" class="edge">
<title>Node2&#45;&gt;Node18</title>
<path fill="none" stroke="midnightblue" d="M258.28,-392.22C247.46,-383.28 230.34,-368.93 216,-356 152.24,-298.51 79.63,-226.69 48.06,-195.13"/>
<polygon fill="midnightblue" stroke="midnightblue" points="50.16,-192.28 40.62,-187.68 45.21,-197.23 50.16,-192.28"/>
</g>
<!-- Node19 -->
<g id="node19" class="node">
<title>Node19</title>
<g id="a_node19"><a xlink:href="mini_r_t__config__bonus_8h.html" target="_top" xlink:title=" ">
<polygon fill="none" stroke="black" points="331,-336.5 331,-355.5 459,-355.5 459,-336.5 331,-336.5"/>
<text text-anchor="middle" x="395" y="-343.5" font-family="Helvetica,sans-Serif" font-size="10.00">miniRT_config_bonus.h</text>
</a>
</g>
</g>
<!-- Node2&#45;&gt;Node19 -->
<g id="edge25" class="edge">
<title>Node2&#45;&gt;Node19</title>
<path fill="none" stroke="midnightblue" d="M288.97,-392.44C309.61,-383.6 342.06,-369.69 365.63,-359.59"/>
<polygon fill="midnightblue" stroke="midnightblue" points="367.32,-362.67 375.13,-355.52 364.56,-356.24 367.32,-362.67"/>
</g>
<!-- Node4 -->
<g id="node4" class="node">
<title>Node4</title>
<g id="a_node4"><a xlink:title=" ">
<polygon fill="none" stroke="#bfbfbf" points="372.5,-280.5 372.5,-299.5 419.5,-299.5 419.5,-280.5 372.5,-280.5"/>
<text text-anchor="middle" x="396" y="-287.5" font-family="Helvetica,sans-Serif" font-size="10.00">fcntl.h</text>
</a>
</g>
</g>
<!-- Node3&#45;&gt;Node4 -->
<g id="edge3" class="edge">
<title>Node3&#45;&gt;Node4</title>
<path fill="none" stroke="midnightblue" d="M289.12,-336.44C310.02,-327.56 342.93,-313.56 366.72,-303.45"/>
<polygon fill="midnightblue" stroke="midnightblue" points="368.14,-306.65 375.97,-299.52 365.4,-300.21 368.14,-306.65"/>
</g>
<!-- Node5 -->
<g id="node5" class="node">
<title>Node5</title>
<g id="a_node5"><a xlink:href="error__type_8h.html" target="_top" xlink:title=" ">
<polygon fill="none" stroke="black" points="278,-280.5 278,-299.5 354,-299.5 354,-280.5 278,-280.5"/>
<text text-anchor="middle" x="316" y="-287.5" font-family="Helvetica,sans-Serif" font-size="10.00">error_type.h</text>
</a>
</g>
</g>
<!-- Node3&#45;&gt;Node5 -->
<g id="edge4" class="edge">
<title>Node3&#45;&gt;Node5</title>
<path fill="none" stroke="midnightblue" d="M276.76,-336.08C283.54,-328.3 293.54,-316.8 301.76,-307.37"/>
<polygon fill="midnightblue" stroke="midnightblue" points="304.46,-309.59 308.38,-299.75 299.18,-305 304.46,-309.59"/>
</g>
<!-- Node6 -->
<g id="node6" class="node">
<title>Node6</title>
<g id="a_node6"><a xlink:href="error__msg_8h.html" target="_top" xlink:title=" ">
<polygon fill="none" stroke="black" points="184.5,-280.5 184.5,-299.5 259.5,-299.5 259.5,-280.5 184.5,-280.5"/>
<text text-anchor="middle" x="222" y="-287.5" font-family="Helvetica,sans-Serif" font-size="10.00">error_msg.h</text>
</a>
</g>
</g>
<!-- Node3&#45;&gt;Node6 -->
<g id="edge5" class="edge">
<title>Node3&#45;&gt;Node6</title>
<path fill="none" stroke="midnightblue" d="M261.24,-336.08C254.46,-328.3 244.46,-316.8 236.24,-307.37"/>
<polygon fill="midnightblue" stroke="midnightblue" points="238.82,-305 229.62,-299.75 233.54,-309.59 238.82,-305"/>
</g>
<!-- Node7 -->
<g id="node7" class="node">
<title>Node7</title>
<g id="a_node7"><a xlink:title=" ">
<polygon fill="none" stroke="#bfbfbf" points="367,-112.5 367,-131.5 417,-131.5 417,-112.5 367,-112.5"/>
<text text-anchor="middle" x="392" y="-119.5" font-family="Helvetica,sans-Serif" font-size="10.00">stdio.h</text>
</a>
</g>
</g>
<!-- Node6&#45;&gt;Node7 -->
<g id="edge6" class="edge">
<title>Node6&#45;&gt;Node7</title>
<path fill="none" stroke="midnightblue" d="M256.29,-280.42C289.17,-271.59 335.72,-257.27 349,-244 377.16,-215.86 386.96,-168.1 390.31,-141.79"/>
<polygon fill="midnightblue" stroke="midnightblue" points="393.81,-141.97 391.41,-131.65 386.85,-141.21 393.81,-141.97"/>
</g>
<!-- Node8 -->
<g id="node8" class="node">
<title>Node8</title>
<g id="a_node8"><a xlink:title=" ">
<polygon fill="none" stroke="#bfbfbf" points="288.5,-224.5 288.5,-243.5 339.5,-243.5 339.5,-224.5 288.5,-224.5"/>
<text text-anchor="middle" x="314" y="-231.5" font-family="Helvetica,sans-Serif" font-size="10.00">errno.h</text>
</a>
</g>
</g>
<!-- Node6&#45;&gt;Node8 -->
<g id="edge7" class="edge">
<title>Node6&#45;&gt;Node8</title>
<path fill="none" stroke="midnightblue" d="M236.78,-280.32C251.27,-271.82 273.57,-258.73 290.49,-248.8"/>
<polygon fill="midnightblue" stroke="midnightblue" points="292.4,-251.74 299.26,-243.65 288.86,-245.7 292.4,-251.74"/>
</g>
<!-- Node9 -->
<g id="node9" class="node">
<title>Node9</title>
<g id="a_node9"><a xlink:title=" ">
<polygon fill="none" stroke="#bfbfbf" points="108.5,-224.5 108.5,-243.5 155.5,-243.5 155.5,-224.5 108.5,-224.5"/>
<text text-anchor="middle" x="132" y="-231.5" font-family="Helvetica,sans-Serif" font-size="10.00">ft_fd.h</text>
</a>
</g>
</g>
<!-- Node6&#45;&gt;Node9 -->
<g id="edge8" class="edge">
<title>Node6&#45;&gt;Node9</title>
<path fill="none" stroke="midnightblue" d="M207.54,-280.32C193.5,-271.9 171.95,-258.97 155.46,-249.07"/>
<polygon fill="midnightblue" stroke="midnightblue" points="156.8,-245.8 146.42,-243.65 153.2,-251.8 156.8,-245.8"/>
</g>
<!-- Node10 -->
<g id="node10" class="node">
<title>Node10</title>
<g id="a_node10"><a xlink:href="entities__bonus_8h.html" target="_top" xlink:title=" ">
<polygon fill="none" stroke="black" points="173.5,-224.5 173.5,-243.5 270.5,-243.5 270.5,-224.5 173.5,-224.5"/>
<text text-anchor="middle" x="222" y="-231.5" font-family="Helvetica,sans-Serif" font-size="10.00">entities_bonus.h</text>
</a>
</g>
</g>
<!-- Node6&#45;&gt;Node10 -->
<g id="edge9" class="edge">
<title>Node6&#45;&gt;Node10</title>
<path fill="none" stroke="midnightblue" d="M222,-280.08C222,-273.01 222,-262.86 222,-253.99"/>
<polygon fill="midnightblue" stroke="midnightblue" points="225.5,-253.75 222,-243.75 218.5,-253.75 225.5,-253.75"/>
</g>
<!-- Node11 -->
<g id="node11" class="node">
<title>Node11</title>
<g id="a_node11"><a xlink:title=" ">
<polygon fill="none" stroke="#bfbfbf" points="137,-0.5 137,-19.5 199,-19.5 199,-0.5 137,-0.5"/>
<text text-anchor="middle" x="168" y="-7.5" font-family="Helvetica,sans-Serif" font-size="10.00">stdbool.h</text>
</a>
</g>
</g>
<!-- Node10&#45;&gt;Node11 -->
<g id="edge10" class="edge">
<title>Node10&#45;&gt;Node11</title>
<path fill="none" stroke="midnightblue" d="M212.73,-224.38C196.1,-208.19 161.72,-171.32 149,-132 137.54,-96.58 150.64,-53.01 160.07,-29"/>
<polygon fill="midnightblue" stroke="midnightblue" points="163.32,-30.3 163.92,-19.72 156.86,-27.62 163.32,-30.3"/>
</g>
<!-- Node12 -->
<g id="node12" class="node">
<title>Node12</title>
<g id="a_node12"><a xlink:title=" ">
<polygon fill="none" stroke="#bfbfbf" points="48.5,-56.5 48.5,-75.5 101.5,-75.5 101.5,-56.5 48.5,-56.5"/>
<text text-anchor="middle" x="75" y="-63.5" font-family="Helvetica,sans-Serif" font-size="10.00">stdlib.h</text>
</a>
</g>
</g>
<!-- Node10&#45;&gt;Node12 -->
<g id="edge11" class="edge">
<title>Node10&#45;&gt;Node12</title>
<path fill="none" stroke="midnightblue" d="M181.79,-224.49C159.7,-217.92 133.34,-206.69 116,-188 89.06,-158.97 79.75,-111.56 76.59,-85.54"/>
<polygon fill="midnightblue" stroke="midnightblue" points="80.06,-85.11 75.55,-75.52 73.1,-85.83 80.06,-85.11"/>
</g>
<!-- Node13 -->
<g id="node13" class="node">
<title>Node13</title>
<g id="a_node13"><a xlink:href="vec3_8h.html" target="_top" xlink:title=" ">
<polygon fill="none" stroke="black" points="234.5,-56.5 234.5,-75.5 283.5,-75.5 283.5,-56.5 234.5,-56.5"/>
<text text-anchor="middle" x="259" y="-63.5" font-family="Helvetica,sans-Serif" font-size="10.00">vec3.h</text>
</a>
</g>
</g>
<!-- Node10&#45;&gt;Node13 -->
<g id="edge12" class="edge">
<title>Node10&#45;&gt;Node13</title>
<path fill="none" stroke="midnightblue" d="M248.11,-224.45C265.95,-217.34 288.85,-205.52 303,-188 319.34,-167.76 316.18,-157.73 320,-132 321.31,-123.21 324.01,-119.93 320,-112 313.19,-98.52 300.23,-88.08 288,-80.67"/>
<polygon fill="midnightblue" stroke="midnightblue" points="289.34,-77.41 278.91,-75.59 285.93,-83.52 289.34,-77.41"/>
</g>
<!-- Node15 -->
<g id="node15" class="node">
<title>Node15</title>
<g id="a_node15"><a xlink:href="colour__bonus_8h.html" target="_top" xlink:title=" ">
<polygon fill="none" stroke="black" points="204,-168.5 204,-187.5 294,-187.5 294,-168.5 204,-168.5"/>
<text text-anchor="middle" x="249" y="-175.5" font-family="Helvetica,sans-Serif" font-size="10.00">colour_bonus.h</text>
</a>
</g>
</g>
<!-- Node10&#45;&gt;Node15 -->
<g id="edge15" class="edge">
<title>Node10&#45;&gt;Node15</title>
<path fill="none" stroke="midnightblue" d="M226.46,-224.08C230.15,-216.69 235.52,-205.95 240.09,-196.81"/>
<polygon fill="midnightblue" stroke="midnightblue" points="243.28,-198.26 244.62,-187.75 237.02,-195.13 243.28,-198.26"/>
</g>
<!-- Node13&#45;&gt;Node11 -->
<g id="edge14" class="edge">
<title>Node13&#45;&gt;Node11</title>
<path fill="none" stroke="midnightblue" d="M244.38,-56.32C230.05,-47.82 207.99,-34.73 191.25,-24.8"/>
<polygon fill="midnightblue" stroke="midnightblue" points="192.97,-21.75 182.58,-19.65 189.4,-27.77 192.97,-21.75"/>
</g>
<!-- Node14 -->
<g id="node14" class="node">
<title>Node14</title>
<g id="a_node14"><a xlink:title=" ">
<polygon fill="none" stroke="#bfbfbf" points="225.5,-0.5 225.5,-19.5 276.5,-19.5 276.5,-0.5 225.5,-0.5"/>
<text text-anchor="middle" x="251" y="-7.5" font-family="Helvetica,sans-Serif" font-size="10.00">math.h</text>
</a>
</g>
</g>
<!-- Node13&#45;&gt;Node14 -->
<g id="edge13" class="edge">
<title>Node13&#45;&gt;Node14</title>
<path fill="none" stroke="midnightblue" d="M257.68,-56.08C256.62,-48.93 255.09,-38.64 253.77,-29.69"/>
<polygon fill="midnightblue" stroke="midnightblue" points="257.22,-29.13 252.3,-19.75 250.3,-30.16 257.22,-29.13"/>
</g>
<!-- Node15&#45;&gt;Node7 -->
<g id="edge16" class="edge">
<title>Node15&#45;&gt;Node7</title>
<path fill="none" stroke="midnightblue" d="M271.66,-168.44C295.4,-159.48 332.91,-145.31 359.74,-135.18"/>
<polygon fill="midnightblue" stroke="midnightblue" points="361.33,-138.32 369.45,-131.52 358.86,-131.77 361.33,-138.32"/>
</g>
<!-- Node16 -->
<g id="node16" class="node">
<title>Node16</title>
<g id="a_node16"><a xlink:title=" ">
<polygon fill="none" stroke="#bfbfbf" points="257.5,-112.5 257.5,-131.5 310.5,-131.5 310.5,-112.5 257.5,-112.5"/>
<text text-anchor="middle" x="284" y="-119.5" font-family="Helvetica,sans-Serif" font-size="10.00">stdint.h</text>
</a>
</g>
</g>
<!-- Node15&#45;&gt;Node16 -->
<g id="edge17" class="edge">
<title>Node15&#45;&gt;Node16</title>
<path fill="none" stroke="midnightblue" d="M254.78,-168.08C259.67,-160.53 266.83,-149.49 272.83,-140.23"/>
<polygon fill="midnightblue" stroke="midnightblue" points="275.83,-142.05 278.33,-131.75 269.95,-138.24 275.83,-142.05"/>
</g>
<!-- Node17 -->
<g id="node17" class="node">
<title>Node17</title>
<g id="a_node17"><a xlink:href="utils__bonus_8h.html" target="_top" xlink:title=" ">
<polygon fill="none" stroke="black" points="158.5,-112.5 158.5,-131.5 239.5,-131.5 239.5,-112.5 158.5,-112.5"/>
<text text-anchor="middle" x="199" y="-119.5" font-family="Helvetica,sans-Serif" font-size="10.00">utils_bonus.h</text>
</a>
</g>
</g>
<!-- Node15&#45;&gt;Node17 -->
<g id="edge18" class="edge">
<title>Node15&#45;&gt;Node17</title>
<path fill="none" stroke="midnightblue" d="M240.74,-168.08C233.54,-160.3 222.89,-148.8 214.15,-139.37"/>
<polygon fill="midnightblue" stroke="midnightblue" points="216.47,-136.71 207.1,-131.75 211.33,-141.47 216.47,-136.71"/>
</g>
<!-- Node17&#45;&gt;Node11 -->
<g id="edge20" class="edge">
<title>Node17&#45;&gt;Node11</title>
<path fill="none" stroke="midnightblue" d="M196.57,-112.37C191.54,-94.54 179.92,-53.3 173.15,-29.27"/>
<polygon fill="midnightblue" stroke="midnightblue" points="176.5,-28.27 170.42,-19.59 169.77,-30.17 176.5,-28.27"/>
</g>
<!-- Node17&#45;&gt;Node12 -->
<g id="edge21" class="edge">
<title>Node17&#45;&gt;Node12</title>
<path fill="none" stroke="midnightblue" d="M179.35,-112.44C159.04,-103.6 127.1,-89.69 103.9,-79.59"/>
<polygon fill="midnightblue" stroke="midnightblue" points="105.12,-76.3 94.56,-75.52 102.33,-82.72 105.12,-76.3"/>
</g>
<!-- Node17&#45;&gt;Node13 -->
<g id="edge22" class="edge">
<title>Node17&#45;&gt;Node13</title>
<path fill="none" stroke="midnightblue" d="M208.64,-112.32C217.51,-104.34 230.87,-92.31 241.61,-82.65"/>
<polygon fill="midnightblue" stroke="midnightblue" points="244.09,-85.13 249.18,-75.83 239.41,-79.92 244.09,-85.13"/>
</g>
<!-- Node17&#45;&gt;Node14 -->
<g id="edge19" class="edge">
<title>Node17&#45;&gt;Node14</title>
<path fill="none" stroke="midnightblue" d="M202.19,-112.45C206.97,-99.89 216.42,-75.8 226,-56 230.47,-46.75 235.97,-36.73 240.67,-28.5"/>
<polygon fill="midnightblue" stroke="midnightblue" points="243.72,-30.21 245.72,-19.81 237.67,-26.7 243.72,-30.21"/>
</g>
<!-- Node18&#45;&gt;Node12 -->
<g id="edge24" class="edge">
<title>Node18&#45;&gt;Node12</title>
<path fill="none" stroke="midnightblue" d="M35.37,-168.37C42.38,-150.46 58.61,-108.92 67.98,-84.95"/>
<polygon fill="midnightblue" stroke="midnightblue" points="71.26,-86.18 71.64,-75.59 64.74,-83.63 71.26,-86.18"/>
</g>
</g>
</svg>
