<?xml version="1.0" encoding="UTF-8" standalone="no"?>
<!DOCTYPE svg PUBLIC "-//W3C//DTD SVG 1.1//EN"
 "http://www.w3.org/Graphics/SVG/1.1/DTD/svg11.dtd">
<!-- Generated by graphviz version 2.43.0 (0)
 -->
<!-- Title: ft_read_and_split Pages: 1 -->
<svg width="565pt" height="208pt"
 viewBox="0.00 0.00 565.00 208.00" xmlns="http://www.w3.org/2000/svg" xmlns:xlink="http://www.w3.org/1999/xlink">
<g id="graph0" class="graph" transform="scale(1 1) rotate(0) translate(4 204)">
<title>ft_read_and_split</title>
<!-- Node1 -->
<g id="node1" class="node">
<title>Node1</title>
<g id="a_node1"><a xlink:title="Import file and split it into lines.">
<polygon fill="#bfbfbf" stroke="black" points="0,-123.5 0,-142.5 100,-142.5 100,-123.5 0,-123.5"/>
<text text-anchor="middle" x="50" y="-130.5" font-family="Helvetica,sans-Serif" font-size="10.00">ft_read_and_split</text>
</a>
</g>
</g>
<!-- Node2 -->
<g id="node2" class="node">
<title>Node2</title>
<g id="a_node2"><a xlink:href="import__file_8h.html#af1a4fd87c14e1f5d0b126bfc848d4761" target="_top" xlink:title="Destroy malloced buffer.">
<polygon fill="none" stroke="black" points="139,-180.5 139,-199.5 225,-199.5 225,-180.5 139,-180.5"/>
<text text-anchor="middle" x="182" y="-187.5" font-family="Helvetica,sans-Serif" font-size="10.00">ft_buf_destroy</text>
</a>
</g>
</g>
<!-- Node1&#45;&gt;Node2 -->
<g id="edge1" class="edge">
<title>Node1&#45;&gt;Node2</title>
<path fill="none" stroke="midnightblue" d="M72.76,-142.54C93.85,-151.79 126.06,-165.91 149.86,-176.35"/>
<polygon fill="midnightblue" stroke="midnightblue" points="148.61,-179.62 159.17,-180.43 151.42,-173.21 148.61,-179.62"/>
</g>
<!-- Node3 -->
<g id="node3" class="node">
<title>Node3</title>
<g id="a_node3"><a xlink:href="import__file_8h.html#a738f6fd9290967f972da877e935cb8d8" target="_top" xlink:title="Initiates a t_buf buffer.">
<polygon fill="none" stroke="black" points="149.5,-104.5 149.5,-123.5 214.5,-123.5 214.5,-104.5 149.5,-104.5"/>
<text text-anchor="middle" x="182" y="-111.5" font-family="Helvetica,sans-Serif" font-size="10.00">ft_buf_init</text>
</a>
</g>
</g>
<!-- Node1&#45;&gt;Node3 -->
<g id="edge2" class="edge">
<title>Node1&#45;&gt;Node3</title>
<path fill="none" stroke="midnightblue" d="M100.15,-125.82C113.07,-123.93 126.88,-121.91 139.36,-120.09"/>
<polygon fill="midnightblue" stroke="midnightblue" points="140.1,-123.52 149.49,-118.61 139.09,-116.59 140.1,-123.52"/>
</g>
<!-- Node6 -->
<g id="node6" class="node">
<title>Node6</title>
<g id="a_node6"><a xlink:href="error__msg__generic_8c.html#aee5d10b82b6780869c9cc69cd64e44cc" target="_top" xlink:title=" ">
<polygon fill="none" stroke="black" points="499,-47.5 499,-66.5 557,-66.5 557,-47.5 499,-47.5"/>
<text text-anchor="middle" x="528" y="-54.5" font-family="Helvetica,sans-Serif" font-size="10.00">ft_perror</text>
</a>
</g>
</g>
<!-- Node1&#45;&gt;Node6 -->
<g id="edge11" class="edge">
<title>Node1&#45;&gt;Node6</title>
<path fill="none" stroke="midnightblue" d="M100.04,-138.89C159.24,-144.66 261.5,-150.31 347,-133 405.04,-121.25 467.64,-90.18 501.58,-71.61"/>
<polygon fill="midnightblue" stroke="midnightblue" points="503.32,-74.64 510.36,-66.72 499.92,-68.52 503.32,-74.64"/>
</g>
<!-- Node7 -->
<g id="node7" class="node">
<title>Node7</title>
<g id="a_node7"><a xlink:href="import__file_8h.html#af0392d80791e758ec536af492c9cfe07" target="_top" xlink:title="Reads provided file into buffer.">
<polygon fill="none" stroke="black" points="136,-28.5 136,-47.5 228,-47.5 228,-28.5 136,-28.5"/>
<text text-anchor="middle" x="182" y="-35.5" font-family="Helvetica,sans-Serif" font-size="10.00">ft_buf_read_file</text>
</a>
</g>
</g>
<!-- Node1&#45;&gt;Node7 -->
<g id="edge6" class="edge">
<title>Node1&#45;&gt;Node7</title>
<path fill="none" stroke="midnightblue" d="M64.42,-123.19C86.92,-106.75 132.43,-73.5 159.45,-53.75"/>
<polygon fill="midnightblue" stroke="midnightblue" points="161.84,-56.34 167.84,-47.61 157.7,-50.69 161.84,-56.34"/>
</g>
<!-- Node4 -->
<g id="node4" class="node">
<title>Node4</title>
<g id="a_node4"><a xlink:href="import__file__buffer_8c.html#a99b094d3ffec975b672948cc9f681af9" target="_top" xlink:title="Set buffer to zero.">
<polygon fill="none" stroke="black" points="268.5,-104.5 268.5,-123.5 342.5,-123.5 342.5,-104.5 268.5,-104.5"/>
<text text-anchor="middle" x="305.5" y="-111.5" font-family="Helvetica,sans-Serif" font-size="10.00">ft_buf_clear</text>
</a>
</g>
</g>
<!-- Node3&#45;&gt;Node4 -->
<g id="edge3" class="edge">
<title>Node3&#45;&gt;Node4</title>
<path fill="none" stroke="midnightblue" d="M214.61,-114C227.85,-114 243.5,-114 258.01,-114"/>
<polygon fill="midnightblue" stroke="midnightblue" points="258.32,-117.5 268.32,-114 258.32,-110.5 258.32,-117.5"/>
</g>
<!-- Node5 -->
<g id="node5" class="node">
<title>Node5</title>
<g id="a_node5"><a xlink:href="error__syscall_8h.html#a1ab50ff4af961d85a53bf12a8f398ba3" target="_top" xlink:title="Wrapper function for malloc() to print errno.">
<polygon fill="none" stroke="black" points="383,-47.5 383,-66.5 463,-66.5 463,-47.5 383,-47.5"/>
<text text-anchor="middle" x="423" y="-54.5" font-family="Helvetica,sans-Serif" font-size="10.00">ft_err_malloc</text>
</a>
</g>
</g>
<!-- Node3&#45;&gt;Node5 -->
<g id="edge4" class="edge">
<title>Node3&#45;&gt;Node5</title>
<path fill="none" stroke="midnightblue" d="M214.74,-106.43C255.28,-96.76 325.86,-79.93 373.25,-68.63"/>
<polygon fill="midnightblue" stroke="midnightblue" points="374.07,-72.03 382.99,-66.3 372.45,-65.22 374.07,-72.03"/>
</g>
<!-- Node5&#45;&gt;Node6 -->
<g id="edge5" class="edge">
<title>Node5&#45;&gt;Node6</title>
<path fill="none" stroke="midnightblue" d="M463.23,-57C471.55,-57 480.32,-57 488.6,-57"/>
<polygon fill="midnightblue" stroke="midnightblue" points="488.76,-60.5 498.76,-57 488.76,-53.5 488.76,-60.5"/>
</g>
<!-- Node8 -->
<g id="node8" class="node">
<title>Node8</title>
<g id="a_node8"><a xlink:href="import__file__buffer_8c.html#abdf4c7ee723013cce62274cf29be648d" target="_top" xlink:title="Doubles buffer size and copies content into new malloc&#39;d buffer.">
<polygon fill="none" stroke="black" points="264,-28.5 264,-47.5 347,-47.5 347,-28.5 264,-28.5"/>
<text text-anchor="middle" x="305.5" y="-35.5" font-family="Helvetica,sans-Serif" font-size="10.00">ft_buf_double</text>
</a>
</g>
</g>
<!-- Node7&#45;&gt;Node8 -->
<g id="edge7" class="edge">
<title>Node7&#45;&gt;Node8</title>
<path fill="none" stroke="midnightblue" d="M228.24,-38C236.49,-38 245.15,-38 253.55,-38"/>
<polygon fill="midnightblue" stroke="midnightblue" points="253.63,-41.5 263.63,-38 253.63,-34.5 253.63,-41.5"/>
</g>
<!-- Node9 -->
<g id="node9" class="node">
<title>Node9</title>
<g id="a_node9"><a xlink:href="error__syscall_8h.html#af521961510b5af3e286f0ccd77cd691d" target="_top" xlink:title="Wrapper function for read() to print errno.">
<polygon fill="none" stroke="black" points="388.5,-0.5 388.5,-19.5 457.5,-19.5 457.5,-0.5 388.5,-0.5"/>
<text text-anchor="middle" x="423" y="-7.5" font-family="Helvetica,sans-Serif" font-size="10.00">ft_err_read</text>
</a>
</g>
</g>
<!-- Node7&#45;&gt;Node9 -->
<g id="edge9" class="edge">
<title>Node7&#45;&gt;Node9</title>
<path fill="none" stroke="midnightblue" d="M217.83,-28.43C232.04,-24.89 248.7,-21.21 264,-19 302.23,-13.47 346.13,-11.3 377.94,-10.47"/>
<polygon fill="midnightblue" stroke="midnightblue" points="378.32,-13.96 388.23,-10.23 378.16,-6.96 378.32,-13.96"/>
</g>
<!-- Node8&#45;&gt;Node5 -->
<g id="edge8" class="edge">
<title>Node8&#45;&gt;Node5</title>
<path fill="none" stroke="midnightblue" d="M347.22,-44.7C355.53,-46.07 364.36,-47.52 372.92,-48.93"/>
<polygon fill="midnightblue" stroke="midnightblue" points="372.37,-52.38 382.81,-50.55 373.51,-45.48 372.37,-52.38"/>
</g>
<!-- Node9&#45;&gt;Node6 -->
<g id="edge10" class="edge">
<title>Node9&#45;&gt;Node6</title>
<path fill="none" stroke="midnightblue" d="M444.84,-19.51C459.68,-26.28 479.86,-35.49 496.51,-43.09"/>
<polygon fill="midnightblue" stroke="midnightblue" points="495.28,-46.37 505.83,-47.34 498.19,-40.01 495.28,-46.37"/>
</g>
</g>
</svg>
