<?xml version="1.0" encoding="UTF-8" standalone="no"?>
<!DOCTYPE svg PUBLIC "-//W3C//DTD SVG 1.1//EN"
 "http://www.w3.org/Graphics/SVG/1.1/DTD/svg11.dtd">
<!-- Generated by graphviz version 2.43.0 (0)
 -->
<!-- Title: ft_enlighten Pages: 1 -->
<svg width="903pt" height="655pt"
 viewBox="0.00 0.00 903.00 655.00" xmlns="http://www.w3.org/2000/svg" xmlns:xlink="http://www.w3.org/1999/xlink">
<g id="graph0" class="graph" transform="scale(1 1) rotate(0) translate(4 651)">
<title>ft_enlighten</title>
<!-- Node1 -->
<g id="node1" class="node">
<title>Node1</title>
<g id="a_node1"><a xlink:title="Calculate the effect of different lighting on perception.">
<polygon fill="#bfbfbf" stroke="black" points="0,-551.5 0,-570.5 74,-570.5 74,-551.5 0,-551.5"/>
<text text-anchor="middle" x="37" y="-558.5" font-family="Helvetica,sans-Serif" font-size="10.00">ft_enlighten</text>
</a>
</g>
</g>
<!-- Node2 -->
<g id="node2" class="node">
<title>Node2</title>
<g id="a_node2"><a xlink:href="colour_8h.html#ae5c090d9193f6bcf449f12c299f186b7" target="_top" xlink:title="Add two colours.">
<polygon fill="none" stroke="black" points="125.5,-627.5 125.5,-646.5 207.5,-646.5 207.5,-627.5 125.5,-627.5"/>
<text text-anchor="middle" x="166.5" y="-634.5" font-family="Helvetica,sans-Serif" font-size="10.00">ft_add_colour</text>
</a>
</g>
</g>
<!-- Node1&#45;&gt;Node2 -->
<g id="edge1" class="edge">
<title>Node1&#45;&gt;Node2</title>
<path fill="none" stroke="midnightblue" d="M47.93,-570.71C61.14,-583.15 85.65,-604.71 110,-618 113.77,-620.06 117.81,-621.96 121.92,-623.69"/>
<polygon fill="midnightblue" stroke="midnightblue" points="120.96,-627.07 131.55,-627.43 123.5,-620.55 120.96,-627.07"/>
</g>
<!-- Node3 -->
<g id="node3" class="node">
<title>Node3</title>
<g id="a_node3"><a xlink:href="scene__light_8c.html#a691cc177466ad1a6b1ababe4272dca1b" target="_top" xlink:title="Create ambient lighting.">
<polygon fill="none" stroke="black" points="118.5,-589.5 118.5,-608.5 214.5,-608.5 214.5,-589.5 118.5,-589.5"/>
<text text-anchor="middle" x="166.5" y="-596.5" font-family="Helvetica,sans-Serif" font-size="10.00">ft_ambient_light</text>
</a>
</g>
</g>
<!-- Node1&#45;&gt;Node3 -->
<g id="edge2" class="edge">
<title>Node1&#45;&gt;Node3</title>
<path fill="none" stroke="midnightblue" d="M70.17,-570.59C86.33,-575.4 106.11,-581.3 123.45,-586.47"/>
<polygon fill="midnightblue" stroke="midnightblue" points="122.75,-589.91 133.34,-589.41 124.75,-583.2 122.75,-589.91"/>
</g>
<!-- Node4 -->
<g id="node4" class="node">
<title>Node4</title>
<g id="a_node4"><a xlink:href="scene__light_8c.html#ae50a6e06925c764b3caad3f805bc4c8a" target="_top" xlink:title="Create diffuse lighting.">
<polygon fill="none" stroke="black" points="122,-551.5 122,-570.5 211,-570.5 211,-551.5 122,-551.5"/>
<text text-anchor="middle" x="166.5" y="-558.5" font-family="Helvetica,sans-Serif" font-size="10.00">ft_diffuse_light</text>
</a>
</g>
</g>
<!-- Node1&#45;&gt;Node4 -->
<g id="edge3" class="edge">
<title>Node1&#45;&gt;Node4</title>
<path fill="none" stroke="midnightblue" d="M74.2,-561C85.93,-561 99.21,-561 111.93,-561"/>
<polygon fill="midnightblue" stroke="midnightblue" points="111.97,-564.5 121.97,-561 111.97,-557.5 111.97,-564.5"/>
</g>
<!-- Node5 -->
<g id="node5" class="node">
<title>Node5</title>
<g id="a_node5"><a xlink:href="colour_8h.html#a9e6968b360ba0fa607a8571c262995ea" target="_top" xlink:title="Calculates the Hadamard product of two colours.">
<polygon fill="none" stroke="black" points="110,-513.5 110,-532.5 223,-532.5 223,-513.5 110,-513.5"/>
<text text-anchor="middle" x="166.5" y="-520.5" font-family="Helvetica,sans-Serif" font-size="10.00">ft_hadamard_colour</text>
</a>
</g>
</g>
<!-- Node1&#45;&gt;Node5 -->
<g id="edge4" class="edge">
<title>Node1&#45;&gt;Node5</title>
<path fill="none" stroke="midnightblue" d="M70.17,-551.41C86.33,-546.6 106.11,-540.7 123.45,-535.53"/>
<polygon fill="midnightblue" stroke="midnightblue" points="124.75,-538.8 133.34,-532.59 122.75,-532.09 124.75,-538.8"/>
</g>
<!-- Node7 -->
<g id="node7" class="node">
<title>Node7</title>
<g id="a_node7"><a xlink:href="lighting_8h.html#a382179d88a3a971b5853322389bacf04" target="_top" xlink:title="Determines whether the point of intersection lies in a shadow regarding the current light source.">
<polygon fill="none" stroke="black" points="126.5,-456.5 126.5,-475.5 206.5,-475.5 206.5,-456.5 126.5,-456.5"/>
<text text-anchor="middle" x="166.5" y="-463.5" font-family="Helvetica,sans-Serif" font-size="10.00">ft_in_shadow</text>
</a>
</g>
</g>
<!-- Node1&#45;&gt;Node7 -->
<g id="edge6" class="edge">
<title>Node1&#45;&gt;Node7</title>
<path fill="none" stroke="midnightblue" d="M49.53,-551.47C63.59,-539.94 88.18,-520.08 110,-504 120.36,-496.36 132.1,-488.26 142.09,-481.5"/>
<polygon fill="midnightblue" stroke="midnightblue" points="144.34,-484.21 150.7,-475.73 140.45,-478.39 144.34,-484.21"/>
</g>
<!-- Node6 -->
<g id="node6" class="node">
<title>Node6</title>
<g id="a_node6"><a xlink:href="utils_8h.html#a241b2b1d75c68c1eefd36b569901c9f9" target="_top" xlink:title="Ensure that the returned float lies within the interval.">
<polygon fill="none" stroke="black" points="294.5,-532.5 294.5,-551.5 353.5,-551.5 353.5,-532.5 294.5,-532.5"/>
<text text-anchor="middle" x="324" y="-539.5" font-family="Helvetica,sans-Serif" font-size="10.00">ft_clamp</text>
</a>
</g>
</g>
<!-- Node5&#45;&gt;Node6 -->
<g id="edge5" class="edge">
<title>Node5&#45;&gt;Node6</title>
<path fill="none" stroke="midnightblue" d="M223.2,-529.81C243.4,-532.27 265.77,-535.01 284.19,-537.26"/>
<polygon fill="midnightblue" stroke="midnightblue" points="283.92,-540.75 294.27,-538.49 284.76,-533.8 283.92,-540.75"/>
</g>
<!-- Node8 -->
<g id="node8" class="node">
<title>Node8</title>
<g id="a_node8"><a xlink:href="scene__shadow_8c.html#a931177e8edb2dd5393cef7a468389a4d" target="_top" xlink:title="Determines whether the shadow ray emitted from the point of intersection is blocked on its way to the...">
<polygon fill="none" stroke="black" points="259,-285.5 259,-304.5 389,-304.5 389,-285.5 259,-285.5"/>
<text text-anchor="middle" x="324" y="-292.5" font-family="Helvetica,sans-Serif" font-size="10.00">ft_shadow_ray_blocked</text>
</a>
</g>
</g>
<!-- Node7&#45;&gt;Node8 -->
<g id="edge7" class="edge">
<title>Node7&#45;&gt;Node8</title>
<path fill="none" stroke="midnightblue" d="M176.31,-456.32C201.64,-428.45 274.99,-347.8 307.34,-312.22"/>
<polygon fill="midnightblue" stroke="midnightblue" points="310.15,-314.33 314.29,-304.58 304.97,-309.62 310.15,-314.33"/>
</g>
<!-- Node23 -->
<g id="node23" class="node">
<title>Node23</title>
<g id="a_node23"><a xlink:href="vec3_8h.html#a54e984820b74bd803de43ce36c8cb292" target="_top" xlink:title="Subtract two vectors.">
<polygon fill="none" stroke="black" points="684.5,-418.5 684.5,-437.5 758.5,-437.5 758.5,-418.5 684.5,-418.5"/>
<text text-anchor="middle" x="721.5" y="-425.5" font-family="Helvetica,sans-Serif" font-size="10.00">ft_vec3_sub</text>
</a>
</g>
</g>
<!-- Node7&#45;&gt;Node23 -->
<g id="edge38" class="edge">
<title>Node7&#45;&gt;Node23</title>
<path fill="none" stroke="midnightblue" d="M206.45,-456.45C222.61,-452.87 241.61,-449.15 259,-447 410.11,-428.33 590.95,-426.9 674.28,-427.41"/>
<polygon fill="midnightblue" stroke="midnightblue" points="674.41,-430.91 684.43,-427.49 674.46,-423.91 674.41,-430.91"/>
</g>
<!-- Node25 -->
<g id="node25" class="node">
<title>Node25</title>
<g id="a_node25"><a xlink:href="vec3_8h.html#a38fe500bd27847b866b9630146e43250" target="_top" xlink:title="Normalise a vector.">
<polygon fill="none" stroke="black" points="680,-494.5 680,-513.5 763,-513.5 763,-494.5 680,-494.5"/>
<text text-anchor="middle" x="721.5" y="-501.5" font-family="Helvetica,sans-Serif" font-size="10.00">ft_vec3_norm</text>
</a>
</g>
</g>
<!-- Node7&#45;&gt;Node25 -->
<g id="edge37" class="edge">
<title>Node7&#45;&gt;Node25</title>
<path fill="none" stroke="midnightblue" d="M206.45,-475.55C222.61,-479.13 241.61,-482.85 259,-485 407.4,-503.34 584.47,-505.04 669.71,-504.61"/>
<polygon fill="midnightblue" stroke="midnightblue" points="669.91,-508.11 679.88,-504.55 669.86,-501.11 669.91,-508.11"/>
</g>
<!-- Node27 -->
<g id="node27" class="node">
<title>Node27</title>
<g id="a_node27"><a xlink:href="vec3_8h.html#aa84621bd979d3b12b97908f653faf88e" target="_top" xlink:title="Calculate the absolute value of a vector.">
<polygon fill="none" stroke="black" points="287,-456.5 287,-475.5 361,-475.5 361,-456.5 287,-456.5"/>
<text text-anchor="middle" x="324" y="-463.5" font-family="Helvetica,sans-Serif" font-size="10.00">ft_vec3_abs</text>
</a>
</g>
</g>
<!-- Node7&#45;&gt;Node27 -->
<g id="edge36" class="edge">
<title>Node7&#45;&gt;Node27</title>
<path fill="none" stroke="midnightblue" d="M206.74,-466C228.02,-466 254.45,-466 276.73,-466"/>
<polygon fill="midnightblue" stroke="midnightblue" points="276.97,-469.5 286.97,-466 276.97,-462.5 276.97,-469.5"/>
</g>
<!-- Node9 -->
<g id="node9" class="node">
<title>Node9</title>
<g id="a_node9"><a xlink:href="hit__manager_8h.html#a9d5972226064b0a4d0e1359d9230abec" target="_top" xlink:title="Investigate a hittable and returns whether a hit occured or not.">
<polygon fill="none" stroke="black" points="425,-285.5 425,-304.5 509,-304.5 509,-285.5 425,-285.5"/>
<text text-anchor="middle" x="467" y="-292.5" font-family="Helvetica,sans-Serif" font-size="10.00">ft_hit_hittable</text>
</a>
</g>
</g>
<!-- Node8&#45;&gt;Node9 -->
<g id="edge8" class="edge">
<title>Node8&#45;&gt;Node9</title>
<path fill="none" stroke="midnightblue" d="M389.31,-295C397.79,-295 406.39,-295 414.61,-295"/>
<polygon fill="midnightblue" stroke="midnightblue" points="414.79,-298.5 424.79,-295 414.79,-291.5 414.79,-298.5"/>
</g>
<!-- Node16 -->
<g id="node16" class="node">
<title>Node16</title>
<g id="a_node16"><a xlink:href="hit__manager_8h.html#aa5acefb1538a700dc595870ad630f83d" target="_top" xlink:title="Initiates hitrecord struct.">
<polygon fill="none" stroke="black" points="675,-0.5 675,-19.5 768,-19.5 768,-0.5 675,-0.5"/>
<text text-anchor="middle" x="721.5" y="-7.5" font-family="Helvetica,sans-Serif" font-size="10.00">ft_init_hitrecord</text>
</a>
</g>
</g>
<!-- Node8&#45;&gt;Node16 -->
<g id="edge35" class="edge">
<title>Node8&#45;&gt;Node16</title>
<path fill="none" stroke="midnightblue" d="M333.3,-285.1C360.7,-252.89 451.85,-149.51 545,-86 587.25,-57.19 642.19,-35.54 679.25,-22.86"/>
<polygon fill="midnightblue" stroke="midnightblue" points="680.84,-26.02 689.21,-19.52 678.61,-19.38 680.84,-26.02"/>
</g>
<!-- Node10 -->
<g id="node10" class="node">
<title>Node10</title>
<g id="a_node10"><a xlink:href="hit__manager_8h.html#ad1c0dcb3141fe78ed26368ca7bb8d2b8" target="_top" xlink:title="Calculates if a cylinder was hit by a ray.">
<polygon fill="none" stroke="black" points="545,-95.5 545,-114.5 631,-114.5 631,-95.5 545,-95.5"/>
<text text-anchor="middle" x="588" y="-102.5" font-family="Helvetica,sans-Serif" font-size="10.00">ft_hit_cylinder</text>
</a>
</g>
</g>
<!-- Node9&#45;&gt;Node10 -->
<g id="edge9" class="edge">
<title>Node9&#45;&gt;Node10</title>
<path fill="none" stroke="midnightblue" d="M474.06,-285.32C492.84,-255.34 550.24,-163.69 575.2,-123.84"/>
<polygon fill="midnightblue" stroke="midnightblue" points="578.46,-125.22 580.8,-114.89 572.53,-121.51 578.46,-125.22"/>
</g>
<!-- Node17 -->
<g id="node17" class="node">
<title>Node17</title>
<g id="a_node17"><a xlink:href="hit__manager_8h.html#a04f04eb6383f01a28b0c7201ab52782e" target="_top" xlink:title="Calculates if a plane was hit by a ray.">
<polygon fill="none" stroke="black" points="551,-285.5 551,-304.5 625,-304.5 625,-285.5 551,-285.5"/>
<text text-anchor="middle" x="588" y="-292.5" font-family="Helvetica,sans-Serif" font-size="10.00">ft_hit_plane</text>
</a>
</g>
</g>
<!-- Node9&#45;&gt;Node17 -->
<g id="edge16" class="edge">
<title>Node9&#45;&gt;Node17</title>
<path fill="none" stroke="midnightblue" d="M509.29,-295C519.46,-295 530.41,-295 540.8,-295"/>
<polygon fill="midnightblue" stroke="midnightblue" points="540.94,-298.5 550.94,-295 540.94,-291.5 540.94,-298.5"/>
</g>
<!-- Node24 -->
<g id="node24" class="node">
<title>Node24</title>
<g id="a_node24"><a xlink:href="hit__manager_8h.html#aee999b32d6cebbb7bcd64995f8e88b6e" target="_top" xlink:title="Calculates if a sphere was hit by a ray.">
<polygon fill="none" stroke="black" points="548,-361.5 548,-380.5 628,-380.5 628,-361.5 548,-361.5"/>
<text text-anchor="middle" x="588" y="-368.5" font-family="Helvetica,sans-Serif" font-size="10.00">ft_hit_sphere</text>
</a>
</g>
</g>
<!-- Node9&#45;&gt;Node24 -->
<g id="edge25" class="edge">
<title>Node9&#45;&gt;Node24</title>
<path fill="none" stroke="midnightblue" d="M483.07,-304.63C503.37,-317.59 539.69,-340.79 563.57,-356.04"/>
<polygon fill="midnightblue" stroke="midnightblue" points="561.74,-359.02 572.05,-361.45 565.51,-353.12 561.74,-359.02"/>
</g>
<!-- Node11 -->
<g id="node11" class="node">
<title>Node11</title>
<g id="a_node11"><a xlink:href="hit__cylinder_8c.html#afb7b50ad2f9161c61fc1065975ec7cbf" target="_top" xlink:title="Calculates all four potential hits of a cylinder.">
<polygon fill="none" stroke="black" points="667,-76.5 667,-95.5 776,-95.5 776,-76.5 667,-76.5"/>
<text text-anchor="middle" x="721.5" y="-83.5" font-family="Helvetica,sans-Serif" font-size="10.00">ft_cy_calc_pot_hits</text>
</a>
</g>
</g>
<!-- Node10&#45;&gt;Node11 -->
<g id="edge10" class="edge">
<title>Node10&#45;&gt;Node11</title>
<path fill="none" stroke="midnightblue" d="M631.33,-98.88C639.43,-97.71 648.07,-96.47 656.66,-95.22"/>
<polygon fill="midnightblue" stroke="midnightblue" points="657.3,-98.67 666.7,-93.77 656.3,-91.74 657.3,-98.67"/>
</g>
<!-- Node12 -->
<g id="node12" class="node">
<title>Node12</title>
<g id="a_node12"><a xlink:href="hit__cylinder_8c.html#a40c47553b6ecb8ff1834e44c4c308e9b" target="_top" xlink:title="Determines if the potential hits are accurate.">
<polygon fill="none" stroke="black" points="669,-38.5 669,-57.5 774,-57.5 774,-38.5 669,-38.5"/>
<text text-anchor="middle" x="721.5" y="-45.5" font-family="Helvetica,sans-Serif" font-size="10.00">ft_cy_identify_hits</text>
</a>
</g>
</g>
<!-- Node10&#45;&gt;Node12 -->
<g id="edge11" class="edge">
<title>Node10&#45;&gt;Node12</title>
<path fill="none" stroke="midnightblue" d="M607.33,-95.35C622.97,-87.29 646.17,-75.74 667,-67 671.82,-64.98 676.94,-62.98 682.02,-61.08"/>
<polygon fill="midnightblue" stroke="midnightblue" points="683.47,-64.28 691.68,-57.57 681.08,-57.7 683.47,-64.28"/>
</g>
<!-- Node13 -->
<g id="node13" class="node">
<title>Node13</title>
<g id="a_node13"><a xlink:href="hit__cylinder_8c.html#a72c52cc4f5c57fc6171137d9eb6c3500" target="_top" xlink:title="Overwrites the hit record &quot;rec&quot; with the new hit data found in the &quot;tmp&quot; hit record.">
<polygon fill="none" stroke="black" points="667,-114.5 667,-133.5 776,-133.5 776,-114.5 667,-114.5"/>
<text text-anchor="middle" x="721.5" y="-121.5" font-family="Helvetica,sans-Serif" font-size="10.00">ft_cy_set_hitrecord</text>
</a>
</g>
</g>
<!-- Node10&#45;&gt;Node13 -->
<g id="edge12" class="edge">
<title>Node10&#45;&gt;Node13</title>
<path fill="none" stroke="midnightblue" d="M631.33,-111.12C639.43,-112.29 648.07,-113.53 656.66,-114.78"/>
<polygon fill="midnightblue" stroke="midnightblue" points="656.3,-118.26 666.7,-116.23 657.3,-111.33 656.3,-118.26"/>
</g>
<!-- Node14 -->
<g id="node14" class="node">
<title>Node14</title>
<g id="a_node14"><a xlink:href="hit__manager_8h.html#a55af5b9bdf1ed07d3128dd3e15dd3e6b" target="_top" xlink:title="Checks if cylinder is not blocked by another object.">
<polygon fill="none" stroke="black" points="683,-152.5 683,-171.5 760,-171.5 760,-152.5 683,-152.5"/>
<text text-anchor="middle" x="721.5" y="-159.5" font-family="Helvetica,sans-Serif" font-size="10.00">ft_cy_visible</text>
</a>
</g>
</g>
<!-- Node10&#45;&gt;Node14 -->
<g id="edge13" class="edge">
<title>Node10&#45;&gt;Node14</title>
<path fill="none" stroke="midnightblue" d="M607.33,-114.65C622.97,-122.71 646.17,-134.26 667,-143 671.82,-145.02 676.94,-147.02 682.02,-148.92"/>
<polygon fill="midnightblue" stroke="midnightblue" points="681.08,-152.3 691.68,-152.43 683.47,-145.72 681.08,-152.3"/>
</g>
<!-- Node10&#45;&gt;Node16 -->
<g id="edge15" class="edge">
<title>Node10&#45;&gt;Node16</title>
<path fill="none" stroke="midnightblue" d="M598.55,-95.24C617.59,-75.84 659.14,-33.9 667,-29 670.2,-27.01 673.64,-25.19 677.17,-23.53"/>
<polygon fill="midnightblue" stroke="midnightblue" points="678.8,-26.64 686.65,-19.52 676.08,-20.19 678.8,-26.64"/>
</g>
<!-- Node15 -->
<g id="node15" class="node">
<title>Node15</title>
<g id="a_node15"><a xlink:href="utils_8h.html#add4de5ba94d3f8475d0a1c4ce8abd3aa" target="_top" xlink:title="Determines if value is surrounded by the interval.">
<polygon fill="none" stroke="black" points="815,-190.5 815,-209.5 892,-209.5 892,-190.5 815,-190.5"/>
<text text-anchor="middle" x="853.5" y="-197.5" font-family="Helvetica,sans-Serif" font-size="10.00">ft_surrounds</text>
</a>
</g>
</g>
<!-- Node14&#45;&gt;Node15 -->
<g id="edge14" class="edge">
<title>Node14&#45;&gt;Node15</title>
<path fill="none" stroke="midnightblue" d="M755.3,-171.59C771.78,-176.4 791.94,-182.3 809.63,-187.47"/>
<polygon fill="midnightblue" stroke="midnightblue" points="809.13,-190.97 819.71,-190.41 811.09,-184.25 809.13,-190.97"/>
</g>
<!-- Node17&#45;&gt;Node15 -->
<g id="edge21" class="edge">
<title>Node17&#45;&gt;Node15</title>
<path fill="none" stroke="midnightblue" d="M596.17,-285.44C608.63,-269.64 635.93,-238.39 667,-224 710.5,-203.86 765.52,-198.97 804.3,-198.43"/>
<polygon fill="midnightblue" stroke="midnightblue" points="804.8,-201.93 814.79,-198.39 804.77,-194.93 804.8,-201.93"/>
</g>
<!-- Node18 -->
<g id="node18" class="node">
<title>Node18</title>
<g id="a_node18"><a xlink:href="ray_8h.html#ac56e9ac7acfb4658469e190c022b0d63" target="_top" xlink:title="Represents a ray.">
<polygon fill="none" stroke="black" points="684,-380.5 684,-399.5 759,-399.5 759,-380.5 684,-380.5"/>
<text text-anchor="middle" x="721.5" y="-387.5" font-family="Helvetica,sans-Serif" font-size="10.00">ft_scale_ray</text>
</a>
</g>
</g>
<!-- Node17&#45;&gt;Node18 -->
<g id="edge17" class="edge">
<title>Node17&#45;&gt;Node18</title>
<path fill="none" stroke="midnightblue" d="M602.58,-304.81C625.43,-321.32 671.77,-354.79 699.05,-374.51"/>
<polygon fill="midnightblue" stroke="midnightblue" points="697.04,-377.37 707.19,-380.39 701.14,-371.69 697.04,-377.37"/>
</g>
<!-- Node20 -->
<g id="node20" class="node">
<title>Node20</title>
<g id="a_node20"><a xlink:href="vec3_8h.html#ac80a1c20941c96a8fafad255dac59092" target="_top" xlink:title="Scale a vector.">
<polygon fill="none" stroke="black" points="812,-437.5 812,-456.5 895,-456.5 895,-437.5 812,-437.5"/>
<text text-anchor="middle" x="853.5" y="-444.5" font-family="Helvetica,sans-Serif" font-size="10.00">ft_vec3_scale</text>
</a>
</g>
</g>
<!-- Node17&#45;&gt;Node20 -->
<g id="edge23" class="edge">
<title>Node17&#45;&gt;Node20</title>
<path fill="none" stroke="midnightblue" d="M602.94,-285.42C636.57,-263.62 723.25,-215.28 776,-257 830.45,-300.06 777.21,-348.92 812,-409 816.72,-417.16 823.74,-424.62 830.62,-430.74"/>
<polygon fill="midnightblue" stroke="midnightblue" points="828.55,-433.57 838.48,-437.26 833.02,-428.18 828.55,-433.57"/>
</g>
<!-- Node21 -->
<g id="node21" class="node">
<title>Node21</title>
<g id="a_node21"><a xlink:href="utils_8h.html#ae65513c75ce8a8538c22393e0af3ab1f" target="_top" xlink:title="Solves the given equation.">
<polygon fill="none" stroke="black" points="694,-304.5 694,-323.5 749,-323.5 749,-304.5 694,-304.5"/>
<text text-anchor="middle" x="721.5" y="-311.5" font-family="Helvetica,sans-Serif" font-size="10.00">ft_solve</text>
</a>
</g>
</g>
<!-- Node17&#45;&gt;Node21 -->
<g id="edge20" class="edge">
<title>Node17&#45;&gt;Node21</title>
<path fill="none" stroke="midnightblue" d="M625.28,-300.24C643.54,-302.88 665.62,-306.07 683.93,-308.72"/>
<polygon fill="midnightblue" stroke="midnightblue" points="683.53,-312.19 693.93,-310.16 684.53,-305.27 683.53,-312.19"/>
</g>
<!-- Node22 -->
<g id="node22" class="node">
<title>Node22</title>
<g id="a_node22"><a xlink:href="vec3_8h.html#a89fd02ae4b8b3602bc001664eb5e8f91" target="_top" xlink:title="Calculate the scalar product of two vectors.">
<polygon fill="none" stroke="black" points="685,-266.5 685,-285.5 758,-285.5 758,-266.5 685,-266.5"/>
<text text-anchor="middle" x="721.5" y="-273.5" font-family="Helvetica,sans-Serif" font-size="10.00">ft_vec3_dot</text>
</a>
</g>
</g>
<!-- Node17&#45;&gt;Node22 -->
<g id="edge22" class="edge">
<title>Node17&#45;&gt;Node22</title>
<path fill="none" stroke="midnightblue" d="M625.28,-289.76C640.5,-287.56 658.37,-284.98 674.49,-282.65"/>
<polygon fill="midnightblue" stroke="midnightblue" points="675.4,-286.05 684.79,-281.16 674.39,-279.13 675.4,-286.05"/>
</g>
<!-- Node17&#45;&gt;Node23 -->
<g id="edge24" class="edge">
<title>Node17&#45;&gt;Node23</title>
<path fill="none" stroke="midnightblue" d="M596.35,-304.53C604.91,-315.73 619.35,-334.95 631,-352 647.9,-376.74 643.6,-390.29 667,-409 669.54,-411.03 672.32,-412.85 675.22,-414.49"/>
<polygon fill="midnightblue" stroke="midnightblue" points="673.71,-417.64 684.23,-418.85 676.76,-411.34 673.71,-417.64"/>
</g>
<!-- Node19 -->
<g id="node19" class="node">
<title>Node19</title>
<g id="a_node19"><a xlink:href="vec3_8h.html#a73e2caf4c2a51ed954b7349c6be2b3c3" target="_top" xlink:title="Add two vectors.">
<polygon fill="none" stroke="black" points="816,-380.5 816,-399.5 891,-399.5 891,-380.5 816,-380.5"/>
<text text-anchor="middle" x="853.5" y="-387.5" font-family="Helvetica,sans-Serif" font-size="10.00">ft_vec3_add</text>
</a>
</g>
</g>
<!-- Node18&#45;&gt;Node19 -->
<g id="edge18" class="edge">
<title>Node18&#45;&gt;Node19</title>
<path fill="none" stroke="midnightblue" d="M759.06,-390C773.46,-390 790.18,-390 805.46,-390"/>
<polygon fill="midnightblue" stroke="midnightblue" points="805.77,-393.5 815.77,-390 805.77,-386.5 805.77,-393.5"/>
</g>
<!-- Node18&#45;&gt;Node20 -->
<g id="edge19" class="edge">
<title>Node18&#45;&gt;Node20</title>
<path fill="none" stroke="midnightblue" d="M751.34,-399.53C759.4,-402.38 768.11,-405.65 776,-409 792.91,-416.17 811.37,-425.3 825.91,-432.81"/>
<polygon fill="midnightblue" stroke="midnightblue" points="824.37,-435.95 834.85,-437.48 827.61,-429.75 824.37,-435.95"/>
</g>
<!-- Node24&#45;&gt;Node15 -->
<g id="edge28" class="edge">
<title>Node24&#45;&gt;Node15</title>
<path fill="none" stroke="midnightblue" d="M628.14,-372.09C668.75,-371.31 732.33,-364.48 776,-333 815.47,-304.54 837.56,-248.98 846.98,-219.48"/>
<polygon fill="midnightblue" stroke="midnightblue" points="850.43,-220.15 849.98,-209.57 843.73,-218.13 850.43,-220.15"/>
</g>
<!-- Node24&#45;&gt;Node18 -->
<g id="edge26" class="edge">
<title>Node24&#45;&gt;Node18</title>
<path fill="none" stroke="midnightblue" d="M628.1,-376.65C642.37,-378.71 658.66,-381.06 673.54,-383.22"/>
<polygon fill="midnightblue" stroke="midnightblue" points="673.18,-386.7 683.58,-384.67 674.18,-379.77 673.18,-386.7"/>
</g>
<!-- Node24&#45;&gt;Node20 -->
<g id="edge33" class="edge">
<title>Node24&#45;&gt;Node20</title>
<path fill="none" stroke="midnightblue" d="M595.06,-380.58C606.59,-397.79 633.55,-433.4 667,-447 710,-464.48 763.37,-462.28 801.81,-457.02"/>
<polygon fill="midnightblue" stroke="midnightblue" points="802.37,-460.47 811.75,-455.54 801.34,-453.55 802.37,-460.47"/>
</g>
<!-- Node24&#45;&gt;Node21 -->
<g id="edge27" class="edge">
<title>Node24&#45;&gt;Node21</title>
<path fill="none" stroke="midnightblue" d="M611.01,-361.46C632.34,-352.21 664.92,-338.09 689,-327.65"/>
<polygon fill="midnightblue" stroke="midnightblue" points="690.63,-330.76 698.42,-323.57 687.85,-324.34 690.63,-330.76"/>
</g>
<!-- Node24&#45;&gt;Node22 -->
<g id="edge29" class="edge">
<title>Node24&#45;&gt;Node22</title>
<path fill="none" stroke="midnightblue" d="M596.4,-361.49C609.2,-345.63 636.99,-313.69 667,-295 670.2,-293.01 673.64,-291.19 677.17,-289.53"/>
<polygon fill="midnightblue" stroke="midnightblue" points="678.8,-292.64 686.65,-285.52 676.08,-286.19 678.8,-292.64"/>
</g>
<!-- Node24&#45;&gt;Node23 -->
<g id="edge34" class="edge">
<title>Node24&#45;&gt;Node23</title>
<path fill="none" stroke="midnightblue" d="M607.33,-380.65C622.97,-388.71 646.17,-400.26 667,-409 671.82,-411.02 676.94,-413.02 682.02,-414.92"/>
<polygon fill="midnightblue" stroke="midnightblue" points="681.08,-418.3 691.68,-418.43 683.47,-411.72 681.08,-418.3"/>
</g>
<!-- Node24&#45;&gt;Node25 -->
<g id="edge30" class="edge">
<title>Node24&#45;&gt;Node25</title>
<path fill="none" stroke="midnightblue" d="M593.71,-380.76C604.18,-401.58 631.34,-450.83 667,-480 671.69,-483.84 677.1,-487.19 682.63,-490.08"/>
<polygon fill="midnightblue" stroke="midnightblue" points="681.43,-493.38 691.96,-494.49 684.42,-487.05 681.43,-493.38"/>
</g>
<!-- Node25&#45;&gt;Node20 -->
<g id="edge32" class="edge">
<title>Node25&#45;&gt;Node20</title>
<path fill="none" stroke="midnightblue" d="M744.26,-494.46C765.35,-485.21 797.56,-471.09 821.36,-460.65"/>
<polygon fill="midnightblue" stroke="midnightblue" points="822.92,-463.79 830.67,-456.57 820.11,-457.38 822.92,-463.79"/>
</g>
<!-- Node26 -->
<g id="node26" class="node">
<title>Node26</title>
<g id="a_node26"><a xlink:href="vec3__linalgebra_8c.html#aa84621bd979d3b12b97908f653faf88e" target="_top" xlink:title="Calculate the absolute value of a vector.">
<polygon fill="none" stroke="black" points="816.5,-494.5 816.5,-513.5 890.5,-513.5 890.5,-494.5 816.5,-494.5"/>
<text text-anchor="middle" x="853.5" y="-501.5" font-family="Helvetica,sans-Serif" font-size="10.00">ft_vec3_abs</text>
</a>
</g>
</g>
<!-- Node25&#45;&gt;Node26 -->
<g id="edge31" class="edge">
<title>Node25&#45;&gt;Node26</title>
<path fill="none" stroke="midnightblue" d="M763.28,-504C776.81,-504 791.97,-504 805.9,-504"/>
<polygon fill="midnightblue" stroke="midnightblue" points="806.27,-507.5 816.27,-504 806.27,-500.5 806.27,-507.5"/>
</g>
</g>
</svg>
