<?xml version="1.0" encoding="UTF-8" standalone="no"?>
<!DOCTYPE svg PUBLIC "-//W3C//DTD SVG 1.1//EN"
 "http://www.w3.org/Graphics/SVG/1.1/DTD/svg11.dtd">
<!-- Generated by graphviz version 2.43.0 (0)
 -->
<!-- Title: ft_reflective_light Pages: 1 -->
<svg width="787pt" height="703pt"
 viewBox="0.00 0.00 787.00 703.33" xmlns="http://www.w3.org/2000/svg" xmlns:xlink="http://www.w3.org/1999/xlink">
<g id="graph0" class="graph" transform="scale(1 1) rotate(0) translate(4 699.33)">
<title>ft_reflective_light</title>
<!-- Node1 -->
<g id="node1" class="node">
<title>Node1</title>
<g id="a_node1"><a xlink:title="Create reflective lighting by recursion.">
<polygon fill="#bfbfbf" stroke="black" points="0,-550.5 0,-569.5 101,-569.5 101,-550.5 0,-550.5"/>
<text text-anchor="middle" x="50.5" y="-557.5" font-family="Helvetica,sans-Serif" font-size="10.00">ft_reflective_light</text>
</a>
</g>
</g>
<!-- Node2 -->
<g id="node2" class="node">
<title>Node2</title>
<g id="a_node2"><a xlink:href="lighting__bonus_8h.html#ac85883d276b27394b86511c7eaa4d4ae" target="_top" xlink:title="Computes the colour of light interacting with different material properties.">
<polygon fill="none" stroke="black" points="275,-508.5 275,-527.5 382,-527.5 382,-508.5 275,-508.5"/>
<text text-anchor="middle" x="328.5" y="-515.5" font-family="Helvetica,sans-Serif" font-size="10.00">ft_compute_colour</text>
</a>
</g>
</g>
<!-- Node1&#45;&gt;Node2 -->
<g id="edge1" class="edge">
<title>Node1&#45;&gt;Node2</title>
<path fill="none" stroke="midnightblue" d="M84.24,-550.46C128.54,-541.28 208.45,-528.72 264.56,-521.81"/>
<polygon fill="midnightblue" stroke="midnightblue" points="265.24,-525.25 274.75,-520.59 264.4,-518.3 265.24,-525.25"/>
</g>
<!-- Node5 -->
<g id="node5" class="node">
<title>Node5</title>
<g id="a_node5"><a xlink:href="vec3_8h.html#a89fd02ae4b8b3602bc001664eb5e8f91" target="_top" xlink:title="Calculate the scalar product of two vectors.">
<polygon fill="none" stroke="black" points="569,-494.5 569,-513.5 642,-513.5 642,-494.5 569,-494.5"/>
<text text-anchor="middle" x="605.5" y="-501.5" font-family="Helvetica,sans-Serif" font-size="10.00">ft_vec3_dot</text>
</a>
</g>
</g>
<!-- Node1&#45;&gt;Node5 -->
<g id="edge47" class="edge">
<title>Node1&#45;&gt;Node5</title>
<path fill="none" stroke="midnightblue" d="M84.52,-569.56C100.28,-573.74 119.48,-578.31 137,-581 220.12,-593.77 443.94,-643.97 515,-599 546.58,-579.01 523.27,-548.06 551,-523 553.64,-520.61 556.6,-518.52 559.73,-516.69"/>
<polygon fill="midnightblue" stroke="midnightblue" points="561.48,-519.73 568.92,-512.19 558.4,-513.45 561.48,-519.73"/>
</g>
<!-- Node6 -->
<g id="node6" class="node">
<title>Node6</title>
<g id="a_node6"><a xlink:href="vec3_8h.html#a38fe500bd27847b866b9630146e43250" target="_top" xlink:title="Normalise a vector.">
<polygon fill="none" stroke="black" points="564,-532.5 564,-551.5 647,-551.5 647,-532.5 564,-532.5"/>
<text text-anchor="middle" x="605.5" y="-539.5" font-family="Helvetica,sans-Serif" font-size="10.00">ft_vec3_norm</text>
</a>
</g>
</g>
<!-- Node1&#45;&gt;Node6 -->
<g id="edge48" class="edge">
<title>Node1&#45;&gt;Node6</title>
<path fill="none" stroke="midnightblue" d="M58.92,-569.63C72.36,-586.17 102.55,-619.43 137,-632 294.82,-689.6 359.88,-696.51 515,-632 549.89,-617.49 578.2,-582.03 593.09,-560.2"/>
<polygon fill="midnightblue" stroke="midnightblue" points="596.06,-562.06 598.63,-551.78 590.21,-558.21 596.06,-562.06"/>
</g>
<!-- Node8 -->
<g id="node8" class="node">
<title>Node8</title>
<g id="a_node8"><a xlink:href="vec3_8h.html#ac80a1c20941c96a8fafad255dac59092" target="_top" xlink:title="Scale a vector.">
<polygon fill="none" stroke="black" points="696,-418.5 696,-437.5 779,-437.5 779,-418.5 696,-418.5"/>
<text text-anchor="middle" x="737.5" y="-425.5" font-family="Helvetica,sans-Serif" font-size="10.00">ft_vec3_scale</text>
</a>
</g>
</g>
<!-- Node1&#45;&gt;Node8 -->
<g id="edge49" class="edge">
<title>Node1&#45;&gt;Node8</title>
<path fill="none" stroke="midnightblue" d="M56.39,-569.52C67.56,-590.19 97.09,-639.16 137,-662 211.51,-704.64 241.65,-694 327.5,-694 327.5,-694 327.5,-694 467.5,-694 608.13,-694 701.69,-507.92 728.55,-447.03"/>
<polygon fill="midnightblue" stroke="midnightblue" points="731.79,-448.35 732.53,-437.78 725.36,-445.58 731.79,-448.35"/>
</g>
<!-- Node9 -->
<g id="node9" class="node">
<title>Node9</title>
<g id="a_node9"><a xlink:href="vec3_8h.html#a54e984820b74bd803de43ce36c8cb292" target="_top" xlink:title="Subtract two vectors.">
<polygon fill="none" stroke="black" points="568.5,-418.5 568.5,-437.5 642.5,-437.5 642.5,-418.5 568.5,-418.5"/>
<text text-anchor="middle" x="605.5" y="-425.5" font-family="Helvetica,sans-Serif" font-size="10.00">ft_vec3_sub</text>
</a>
</g>
</g>
<!-- Node1&#45;&gt;Node9 -->
<g id="edge50" class="edge">
<title>Node1&#45;&gt;Node9</title>
<path fill="none" stroke="midnightblue" d="M67.93,-550.46C118.2,-521.89 275.22,-437.26 418,-409 466.01,-399.5 521.96,-407.71 559.96,-416.11"/>
<polygon fill="midnightblue" stroke="midnightblue" points="559.65,-419.63 570.18,-418.47 561.23,-412.81 559.65,-419.63"/>
</g>
<!-- Node12 -->
<g id="node12" class="node">
<title>Node12</title>
<g id="a_node12"><a xlink:href="lighting_8h.html#ae50a6e06925c764b3caad3f805bc4c8a" target="_top" xlink:title="Create diffuse lighting.">
<polygon fill="none" stroke="black" points="422,-570.5 422,-589.5 511,-589.5 511,-570.5 422,-570.5"/>
<text text-anchor="middle" x="466.5" y="-577.5" font-family="Helvetica,sans-Serif" font-size="10.00">ft_diffuse_light</text>
</a>
</g>
</g>
<!-- Node1&#45;&gt;Node12 -->
<g id="edge16" class="edge">
<title>Node1&#45;&gt;Node12</title>
<path fill="none" stroke="midnightblue" d="M101.03,-562.39C179.18,-566.17 330.53,-573.48 411.43,-577.39"/>
<polygon fill="midnightblue" stroke="midnightblue" points="411.73,-580.91 421.88,-577.89 412.06,-573.91 411.73,-580.91"/>
</g>
<!-- Node13 -->
<g id="node13" class="node">
<title>Node13</title>
<g id="a_node13"><a xlink:href="scene__reflection__bonus_8c.html#a7fe107fe556fd497ebfc4c4df70b83da" target="_top" xlink:title="Looks for the closest object hit by a ray.">
<polygon fill="none" stroke="black" points="137,-285.5 137,-304.5 239,-304.5 239,-285.5 137,-285.5"/>
<text text-anchor="middle" x="188" y="-292.5" font-family="Helvetica,sans-Serif" font-size="10.00">ft_get_closest_hit</text>
</a>
</g>
</g>
<!-- Node1&#45;&gt;Node13 -->
<g id="edge20" class="edge">
<title>Node1&#45;&gt;Node13</title>
<path fill="none" stroke="midnightblue" d="M55.56,-550.23C67.19,-522.44 102.09,-440.82 137,-376 148.92,-353.86 164.33,-329.43 174.88,-313.25"/>
<polygon fill="midnightblue" stroke="midnightblue" points="177.89,-315.03 180.46,-304.75 172.04,-311.19 177.89,-315.03"/>
</g>
<!-- Node2&#45;&gt;Node1 -->
<g id="edge9" class="edge">
<title>Node2&#45;&gt;Node1</title>
<path fill="none" stroke="midnightblue" d="M294.67,-527.55C249.54,-536.91 167.54,-549.76 111.34,-556.57"/>
<polygon fill="midnightblue" stroke="midnightblue" points="110.68,-553.12 101.16,-557.77 111.5,-560.08 110.68,-553.12"/>
</g>
<!-- Node3 -->
<g id="node3" class="node">
<title>Node3</title>
<g id="a_node3"><a xlink:href="colour_8h.html#ae5c090d9193f6bcf449f12c299f186b7" target="_top" xlink:title="Add two colours.">
<polygon fill="none" stroke="black" points="425.5,-532.5 425.5,-551.5 507.5,-551.5 507.5,-532.5 425.5,-532.5"/>
<text text-anchor="middle" x="466.5" y="-539.5" font-family="Helvetica,sans-Serif" font-size="10.00">ft_add_colour</text>
</a>
</g>
</g>
<!-- Node2&#45;&gt;Node3 -->
<g id="edge2" class="edge">
<title>Node2&#45;&gt;Node3</title>
<path fill="none" stroke="midnightblue" d="M382.08,-527.28C392.96,-529.2 404.39,-531.22 415.18,-533.12"/>
<polygon fill="midnightblue" stroke="midnightblue" points="414.84,-536.61 425.29,-534.9 416.05,-529.72 414.84,-536.61"/>
</g>
<!-- Node4 -->
<g id="node4" class="node">
<title>Node4</title>
<g id="a_node4"><a xlink:href="scene__light__bonus_8c.html#ae50a6e06925c764b3caad3f805bc4c8a" target="_top" xlink:title="Create diffuse lighting.">
<polygon fill="none" stroke="black" points="422,-456.5 422,-475.5 511,-475.5 511,-456.5 422,-456.5"/>
<text text-anchor="middle" x="466.5" y="-463.5" font-family="Helvetica,sans-Serif" font-size="10.00">ft_diffuse_light</text>
</a>
</g>
</g>
<!-- Node2&#45;&gt;Node4 -->
<g id="edge3" class="edge">
<title>Node2&#45;&gt;Node4</title>
<path fill="none" stroke="midnightblue" d="M354.44,-508.46C375.88,-500.27 407,-488.37 430.85,-479.25"/>
<polygon fill="midnightblue" stroke="midnightblue" points="432.16,-482.49 440.25,-475.65 429.66,-475.96 432.16,-482.49"/>
</g>
<!-- Node10 -->
<g id="node10" class="node">
<title>Node10</title>
<g id="a_node10"><a xlink:href="colour__bonus_8h.html#afe91799ffb8d0f5d46968cfdbd8918ea" target="_top" xlink:title="Scales the colour values.">
<polygon fill="none" stroke="black" points="422,-494.5 422,-513.5 511,-513.5 511,-494.5 422,-494.5"/>
<text text-anchor="middle" x="466.5" y="-501.5" font-family="Helvetica,sans-Serif" font-size="10.00">ft_scale_colour</text>
</a>
</g>
</g>
<!-- Node2&#45;&gt;Node10 -->
<g id="edge10" class="edge">
<title>Node2&#45;&gt;Node10</title>
<path fill="none" stroke="midnightblue" d="M382.08,-512.59C391.84,-511.58 402.06,-510.53 411.85,-509.52"/>
<polygon fill="midnightblue" stroke="midnightblue" points="412.28,-513 421.87,-508.49 411.57,-506.03 412.28,-513"/>
</g>
<!-- Node11 -->
<g id="node11" class="node">
<title>Node11</title>
<g id="a_node11"><a xlink:href="scene__light__bonus_8c.html#af5be68420f313176423a79d2df7d1b51" target="_top" xlink:title="Create specular lighting.">
<polygon fill="none" stroke="black" points="418,-418.5 418,-437.5 515,-437.5 515,-418.5 418,-418.5"/>
<text text-anchor="middle" x="466.5" y="-425.5" font-family="Helvetica,sans-Serif" font-size="10.00">ft_specular_light</text>
</a>
</g>
</g>
<!-- Node2&#45;&gt;Node11 -->
<g id="edge11" class="edge">
<title>Node2&#45;&gt;Node11</title>
<path fill="none" stroke="midnightblue" d="M339.39,-508.41C355.02,-493.64 386.87,-465.17 418,-447 421.26,-445.1 424.75,-443.3 428.3,-441.63"/>
<polygon fill="midnightblue" stroke="midnightblue" points="429.96,-444.73 437.72,-437.51 427.15,-438.31 429.96,-444.73"/>
</g>
<!-- Node4&#45;&gt;Node5 -->
<g id="edge4" class="edge">
<title>Node4&#45;&gt;Node5</title>
<path fill="none" stroke="midnightblue" d="M502.07,-475.59C519.68,-480.47 541.28,-486.46 560.1,-491.68"/>
<polygon fill="midnightblue" stroke="midnightblue" points="559.37,-495.11 569.94,-494.41 561.24,-488.37 559.37,-495.11"/>
</g>
<!-- Node4&#45;&gt;Node6 -->
<g id="edge5" class="edge">
<title>Node4&#45;&gt;Node6</title>
<path fill="none" stroke="midnightblue" d="M497.14,-475.56C503.3,-478.16 509.56,-481.31 515,-485 534.25,-498.07 531.5,-510.31 551,-523 554.07,-525 557.38,-526.82 560.79,-528.47"/>
<polygon fill="midnightblue" stroke="midnightblue" points="559.4,-531.68 569.97,-532.44 562.19,-525.26 559.4,-531.68"/>
</g>
<!-- Node4&#45;&gt;Node9 -->
<g id="edge8" class="edge">
<title>Node4&#45;&gt;Node9</title>
<path fill="none" stroke="midnightblue" d="M502.07,-456.41C519.68,-451.53 541.28,-445.54 560.1,-440.32"/>
<polygon fill="midnightblue" stroke="midnightblue" points="561.24,-443.63 569.94,-437.59 559.37,-436.89 561.24,-443.63"/>
</g>
<!-- Node7 -->
<g id="node7" class="node">
<title>Node7</title>
<g id="a_node7"><a xlink:href="vec3__linalgebra_8c.html#aa84621bd979d3b12b97908f653faf88e" target="_top" xlink:title="Calculate the absolute value of a vector.">
<polygon fill="none" stroke="black" points="700.5,-532.5 700.5,-551.5 774.5,-551.5 774.5,-532.5 700.5,-532.5"/>
<text text-anchor="middle" x="737.5" y="-539.5" font-family="Helvetica,sans-Serif" font-size="10.00">ft_vec3_abs</text>
</a>
</g>
</g>
<!-- Node6&#45;&gt;Node7 -->
<g id="edge6" class="edge">
<title>Node6&#45;&gt;Node7</title>
<path fill="none" stroke="midnightblue" d="M647.28,-542C660.81,-542 675.97,-542 689.9,-542"/>
<polygon fill="midnightblue" stroke="midnightblue" points="690.27,-545.5 700.27,-542 690.27,-538.5 690.27,-545.5"/>
</g>
<!-- Node6&#45;&gt;Node8 -->
<g id="edge7" class="edge">
<title>Node6&#45;&gt;Node8</title>
<path fill="none" stroke="midnightblue" d="M642.12,-532.47C648.38,-529.94 654.61,-526.82 660,-523 689.21,-502.28 713.21,-467.48 726.14,-446.25"/>
<polygon fill="midnightblue" stroke="midnightblue" points="729.2,-447.93 731.28,-437.54 723.18,-444.37 729.2,-447.93"/>
</g>
<!-- Node11&#45;&gt;Node5 -->
<g id="edge12" class="edge">
<title>Node11&#45;&gt;Node5</title>
<path fill="none" stroke="midnightblue" d="M496.45,-437.64C502.78,-440.27 509.29,-443.41 515,-447 533.38,-458.55 532.87,-468.07 551,-480 556.77,-483.8 563.24,-487.27 569.64,-490.32"/>
<polygon fill="midnightblue" stroke="midnightblue" points="568.3,-493.55 578.86,-494.47 571.18,-487.17 568.3,-493.55"/>
</g>
<!-- Node11&#45;&gt;Node6 -->
<g id="edge13" class="edge">
<title>Node11&#45;&gt;Node6</title>
<path fill="none" stroke="midnightblue" d="M501.08,-437.7C506.13,-440.17 510.99,-443.23 515,-447 542.23,-472.6 523.27,-497.94 551,-523 552.89,-524.71 554.94,-526.26 557.1,-527.68"/>
<polygon fill="midnightblue" stroke="midnightblue" points="555.43,-530.75 565.88,-532.49 558.79,-524.61 555.43,-530.75"/>
</g>
<!-- Node11&#45;&gt;Node8 -->
<g id="edge14" class="edge">
<title>Node11&#45;&gt;Node8</title>
<path fill="none" stroke="midnightblue" d="M501.33,-437.51C516.4,-441.27 534.45,-445.14 551,-447 599.14,-452.41 611.91,-452.88 660,-447 671.77,-445.56 684.33,-442.92 695.8,-440.06"/>
<polygon fill="midnightblue" stroke="midnightblue" points="696.77,-443.42 705.56,-437.51 695,-436.65 696.77,-443.42"/>
</g>
<!-- Node11&#45;&gt;Node9 -->
<g id="edge15" class="edge">
<title>Node11&#45;&gt;Node9</title>
<path fill="none" stroke="midnightblue" d="M515.03,-428C528.95,-428 544.15,-428 558,-428"/>
<polygon fill="midnightblue" stroke="midnightblue" points="558.29,-431.5 568.29,-428 558.29,-424.5 558.29,-431.5"/>
</g>
<!-- Node12&#45;&gt;Node5 -->
<g id="edge17" class="edge">
<title>Node12&#45;&gt;Node5</title>
<path fill="none" stroke="midnightblue" d="M497.14,-570.44C503.3,-567.84 509.56,-564.69 515,-561 534.25,-547.93 531.5,-535.69 551,-523 554.07,-521 557.38,-519.18 560.79,-517.53"/>
<polygon fill="midnightblue" stroke="midnightblue" points="562.19,-520.74 569.97,-513.56 559.4,-514.32 562.19,-520.74"/>
</g>
<!-- Node12&#45;&gt;Node6 -->
<g id="edge18" class="edge">
<title>Node12&#45;&gt;Node6</title>
<path fill="none" stroke="midnightblue" d="M502.07,-570.41C519.68,-565.53 541.28,-559.54 560.1,-554.32"/>
<polygon fill="midnightblue" stroke="midnightblue" points="561.24,-557.63 569.94,-551.59 559.37,-550.89 561.24,-557.63"/>
</g>
<!-- Node12&#45;&gt;Node9 -->
<g id="edge19" class="edge">
<title>Node12&#45;&gt;Node9</title>
<path fill="none" stroke="midnightblue" d="M501.08,-570.3C506.13,-567.83 510.99,-564.77 515,-561 542.23,-535.4 529.96,-515.89 551,-485 561.08,-470.2 574.99,-455.51 586.1,-444.75"/>
<polygon fill="midnightblue" stroke="midnightblue" points="588.73,-447.08 593.59,-437.67 583.92,-441.99 588.73,-447.08"/>
</g>
<!-- Node14 -->
<g id="node14" class="node">
<title>Node14</title>
<g id="a_node14"><a xlink:href="hit__manager_8h.html#a9d5972226064b0a4d0e1359d9230abec" target="_top" xlink:title="Investigate a hittable and returns whether a hit occured or not.">
<polygon fill="none" stroke="black" points="286.5,-285.5 286.5,-304.5 370.5,-304.5 370.5,-285.5 286.5,-285.5"/>
<text text-anchor="middle" x="328.5" y="-292.5" font-family="Helvetica,sans-Serif" font-size="10.00">ft_hit_hittable</text>
</a>
</g>
</g>
<!-- Node13&#45;&gt;Node14 -->
<g id="edge21" class="edge">
<title>Node13&#45;&gt;Node14</title>
<path fill="none" stroke="midnightblue" d="M239,-295C250.99,-295 263.81,-295 275.87,-295"/>
<polygon fill="midnightblue" stroke="midnightblue" points="276.23,-298.5 286.23,-295 276.23,-291.5 276.23,-298.5"/>
</g>
<!-- Node21 -->
<g id="node21" class="node">
<title>Node21</title>
<g id="a_node21"><a xlink:href="hit__manager_8h.html#aa5acefb1538a700dc595870ad630f83d" target="_top" xlink:title="Initiates hitrecord struct.">
<polygon fill="none" stroke="black" points="559,-0.5 559,-19.5 652,-19.5 652,-0.5 559,-0.5"/>
<text text-anchor="middle" x="605.5" y="-7.5" font-family="Helvetica,sans-Serif" font-size="10.00">ft_init_hitrecord</text>
</a>
</g>
</g>
<!-- Node13&#45;&gt;Node21 -->
<g id="edge46" class="edge">
<title>Node13&#45;&gt;Node21</title>
<path fill="none" stroke="midnightblue" d="M197.25,-285.46C225.32,-253.49 320.72,-148.68 418,-86 463.39,-56.76 521.87,-35.14 561.14,-22.59"/>
<polygon fill="midnightblue" stroke="midnightblue" points="562.2,-25.93 570.7,-19.6 560.11,-19.25 562.2,-25.93"/>
</g>
<!-- Node15 -->
<g id="node15" class="node">
<title>Node15</title>
<g id="a_node15"><a xlink:href="hit__manager_8h.html#ad1c0dcb3141fe78ed26368ca7bb8d2b8" target="_top" xlink:title="Calculates if a cylinder was hit by a ray.">
<polygon fill="none" stroke="black" points="423.5,-95.5 423.5,-114.5 509.5,-114.5 509.5,-95.5 423.5,-95.5"/>
<text text-anchor="middle" x="466.5" y="-102.5" font-family="Helvetica,sans-Serif" font-size="10.00">ft_hit_cylinder</text>
</a>
</g>
</g>
<!-- Node14&#45;&gt;Node15 -->
<g id="edge22" class="edge">
<title>Node14&#45;&gt;Node15</title>
<path fill="none" stroke="midnightblue" d="M336.43,-285.32C357.98,-255.21 424.04,-162.92 452.38,-123.34"/>
<polygon fill="midnightblue" stroke="midnightblue" points="455.45,-125.06 458.42,-114.89 449.75,-120.99 455.45,-125.06"/>
</g>
<!-- Node22 -->
<g id="node22" class="node">
<title>Node22</title>
<g id="a_node22"><a xlink:href="hit__manager_8h.html#a04f04eb6383f01a28b0c7201ab52782e" target="_top" xlink:title="Calculates if a plane was hit by a ray.">
<polygon fill="none" stroke="black" points="429.5,-285.5 429.5,-304.5 503.5,-304.5 503.5,-285.5 429.5,-285.5"/>
<text text-anchor="middle" x="466.5" y="-292.5" font-family="Helvetica,sans-Serif" font-size="10.00">ft_hit_plane</text>
</a>
</g>
</g>
<!-- Node14&#45;&gt;Node22 -->
<g id="edge29" class="edge">
<title>Node14&#45;&gt;Node22</title>
<path fill="none" stroke="midnightblue" d="M370.67,-295C385.94,-295 403.35,-295 419.05,-295"/>
<polygon fill="midnightblue" stroke="midnightblue" points="419.08,-298.5 429.08,-295 419.08,-291.5 419.08,-298.5"/>
</g>
<!-- Node26 -->
<g id="node26" class="node">
<title>Node26</title>
<g id="a_node26"><a xlink:href="hit__manager_8h.html#aee999b32d6cebbb7bcd64995f8e88b6e" target="_top" xlink:title="Calculates if a sphere was hit by a ray.">
<polygon fill="none" stroke="black" points="426.5,-342.5 426.5,-361.5 506.5,-361.5 506.5,-342.5 426.5,-342.5"/>
<text text-anchor="middle" x="466.5" y="-349.5" font-family="Helvetica,sans-Serif" font-size="10.00">ft_hit_sphere</text>
</a>
</g>
</g>
<!-- Node14&#45;&gt;Node26 -->
<g id="edge38" class="edge">
<title>Node14&#45;&gt;Node26</title>
<path fill="none" stroke="midnightblue" d="M352.26,-304.54C374.43,-313.83 408.32,-328.04 433.26,-338.49"/>
<polygon fill="midnightblue" stroke="midnightblue" points="432.09,-341.79 442.66,-342.43 434.79,-335.33 432.09,-341.79"/>
</g>
<!-- Node16 -->
<g id="node16" class="node">
<title>Node16</title>
<g id="a_node16"><a xlink:href="hit__cylinder_8c.html#afb7b50ad2f9161c61fc1065975ec7cbf" target="_top" xlink:title="Calculates all four potential hits of a cylinder.">
<polygon fill="none" stroke="black" points="551,-114.5 551,-133.5 660,-133.5 660,-114.5 551,-114.5"/>
<text text-anchor="middle" x="605.5" y="-121.5" font-family="Helvetica,sans-Serif" font-size="10.00">ft_cy_calc_pot_hits</text>
</a>
</g>
</g>
<!-- Node15&#45;&gt;Node16 -->
<g id="edge23" class="edge">
<title>Node15&#45;&gt;Node16</title>
<path fill="none" stroke="midnightblue" d="M509.72,-110.86C519.49,-112.21 530.11,-113.68 540.57,-115.13"/>
<polygon fill="midnightblue" stroke="midnightblue" points="540.15,-118.61 550.54,-116.52 541.11,-111.68 540.15,-118.61"/>
</g>
<!-- Node17 -->
<g id="node17" class="node">
<title>Node17</title>
<g id="a_node17"><a xlink:href="hit__cylinder_8c.html#a40c47553b6ecb8ff1834e44c4c308e9b" target="_top" xlink:title="Determines if the potential hits are accurate.">
<polygon fill="none" stroke="black" points="553,-76.5 553,-95.5 658,-95.5 658,-76.5 553,-76.5"/>
<text text-anchor="middle" x="605.5" y="-83.5" font-family="Helvetica,sans-Serif" font-size="10.00">ft_cy_identify_hits</text>
</a>
</g>
</g>
<!-- Node15&#45;&gt;Node17 -->
<g id="edge24" class="edge">
<title>Node15&#45;&gt;Node17</title>
<path fill="none" stroke="midnightblue" d="M509.72,-99.14C520.08,-97.71 531.37,-96.14 542.44,-94.61"/>
<polygon fill="midnightblue" stroke="midnightblue" points="543.09,-98.05 552.51,-93.21 542.13,-91.12 543.09,-98.05"/>
</g>
<!-- Node18 -->
<g id="node18" class="node">
<title>Node18</title>
<g id="a_node18"><a xlink:href="hit__cylinder_8c.html#a72c52cc4f5c57fc6171137d9eb6c3500" target="_top" xlink:title="Overwrites the hit record &quot;rec&quot; with the new hit data found in the &quot;tmp&quot; hit record.">
<polygon fill="none" stroke="black" points="551,-38.5 551,-57.5 660,-57.5 660,-38.5 551,-38.5"/>
<text text-anchor="middle" x="605.5" y="-45.5" font-family="Helvetica,sans-Serif" font-size="10.00">ft_cy_set_hitrecord</text>
</a>
</g>
</g>
<!-- Node15&#45;&gt;Node18 -->
<g id="edge25" class="edge">
<title>Node15&#45;&gt;Node18</title>
<path fill="none" stroke="midnightblue" d="M487.2,-95.46C503.99,-87.46 528.85,-75.95 551,-67 556.08,-64.95 561.48,-62.89 566.82,-60.92"/>
<polygon fill="midnightblue" stroke="midnightblue" points="568.07,-64.19 576.29,-57.51 565.69,-57.61 568.07,-64.19"/>
</g>
<!-- Node19 -->
<g id="node19" class="node">
<title>Node19</title>
<g id="a_node19"><a xlink:href="hit__manager_8h.html#a55af5b9bdf1ed07d3128dd3e15dd3e6b" target="_top" xlink:title="Checks if cylinder is not blocked by another object.">
<polygon fill="none" stroke="black" points="567,-152.5 567,-171.5 644,-171.5 644,-152.5 567,-152.5"/>
<text text-anchor="middle" x="605.5" y="-159.5" font-family="Helvetica,sans-Serif" font-size="10.00">ft_cy_visible</text>
</a>
</g>
</g>
<!-- Node15&#45;&gt;Node19 -->
<g id="edge26" class="edge">
<title>Node15&#45;&gt;Node19</title>
<path fill="none" stroke="midnightblue" d="M487.2,-114.54C503.99,-122.54 528.85,-134.05 551,-143 556.08,-145.05 561.48,-147.11 566.82,-149.08"/>
<polygon fill="midnightblue" stroke="midnightblue" points="565.69,-152.39 576.29,-152.49 568.07,-145.81 565.69,-152.39"/>
</g>
<!-- Node15&#45;&gt;Node21 -->
<g id="edge28" class="edge">
<title>Node15&#45;&gt;Node21</title>
<path fill="none" stroke="midnightblue" d="M478.08,-95.45C487.72,-86.75 502.34,-73.54 515,-62 531.05,-47.38 532.4,-40.19 551,-29 554.37,-26.97 557.99,-25.11 561.7,-23.42"/>
<polygon fill="midnightblue" stroke="midnightblue" points="563.12,-26.62 571.02,-19.56 560.44,-20.16 563.12,-26.62"/>
</g>
<!-- Node20 -->
<g id="node20" class="node">
<title>Node20</title>
<g id="a_node20"><a xlink:href="utils_8h.html#add4de5ba94d3f8475d0a1c4ce8abd3aa" target="_top" xlink:title="Determines if value is surrounded by the interval.">
<polygon fill="none" stroke="black" points="699,-190.5 699,-209.5 776,-209.5 776,-190.5 699,-190.5"/>
<text text-anchor="middle" x="737.5" y="-197.5" font-family="Helvetica,sans-Serif" font-size="10.00">ft_surrounds</text>
</a>
</g>
</g>
<!-- Node19&#45;&gt;Node20 -->
<g id="edge27" class="edge">
<title>Node19&#45;&gt;Node20</title>
<path fill="none" stroke="midnightblue" d="M639.3,-171.59C655.78,-176.4 675.94,-182.3 693.63,-187.47"/>
<polygon fill="midnightblue" stroke="midnightblue" points="693.13,-190.97 703.71,-190.41 695.09,-184.25 693.13,-190.97"/>
</g>
<!-- Node22&#45;&gt;Node5 -->
<g id="edge35" class="edge">
<title>Node22&#45;&gt;Node5</title>
<path fill="none" stroke="midnightblue" d="M484.13,-304.71C494.36,-311.46 507,-321.33 515,-333 545.04,-376.82 524.15,-401.15 551,-447 559.94,-462.27 573.65,-476.77 584.95,-487.32"/>
<polygon fill="midnightblue" stroke="midnightblue" points="582.88,-490.17 592.65,-494.26 587.57,-484.97 582.88,-490.17"/>
</g>
<!-- Node22&#45;&gt;Node8 -->
<g id="edge36" class="edge">
<title>Node22&#45;&gt;Node8</title>
<path fill="none" stroke="midnightblue" d="M481.92,-285.37C516.3,-263.73 604.36,-216.22 660,-257 702.86,-288.41 672.33,-323.43 696,-371 703,-385.06 713.27,-399.47 721.72,-410.29"/>
<polygon fill="midnightblue" stroke="midnightblue" points="719.01,-412.51 728,-418.11 724.47,-408.12 719.01,-412.51"/>
</g>
<!-- Node22&#45;&gt;Node9 -->
<g id="edge37" class="edge">
<title>Node22&#45;&gt;Node9</title>
<path fill="none" stroke="midnightblue" d="M480.4,-304.54C490.19,-311.96 503.82,-322.69 515,-333 516.93,-334.78 563.2,-384.01 588.43,-410.88"/>
<polygon fill="midnightblue" stroke="midnightblue" points="586.12,-413.53 595.51,-418.43 591.22,-408.74 586.12,-413.53"/>
</g>
<!-- Node22&#45;&gt;Node20 -->
<g id="edge34" class="edge">
<title>Node22&#45;&gt;Node20</title>
<path fill="none" stroke="midnightblue" d="M475.34,-285.45C488.91,-269.65 518.46,-238.4 551,-224 594.84,-204.6 649.8,-199.59 688.48,-198.83"/>
<polygon fill="midnightblue" stroke="midnightblue" points="688.97,-202.33 698.93,-198.72 688.9,-195.33 688.97,-202.33"/>
</g>
<!-- Node23 -->
<g id="node23" class="node">
<title>Node23</title>
<g id="a_node23"><a xlink:href="ray_8h.html#ac56e9ac7acfb4658469e190c022b0d63" target="_top" xlink:title="Represents a ray.">
<polygon fill="none" stroke="black" points="568,-342.5 568,-361.5 643,-361.5 643,-342.5 568,-342.5"/>
<text text-anchor="middle" x="605.5" y="-349.5" font-family="Helvetica,sans-Serif" font-size="10.00">ft_scale_ray</text>
</a>
</g>
</g>
<!-- Node22&#45;&gt;Node23 -->
<g id="edge30" class="edge">
<title>Node22&#45;&gt;Node23</title>
<path fill="none" stroke="midnightblue" d="M490.43,-304.54C512.76,-313.83 546.9,-328.04 572.02,-338.49"/>
<polygon fill="midnightblue" stroke="midnightblue" points="570.92,-341.82 581.49,-342.43 573.61,-335.36 570.92,-341.82"/>
</g>
<!-- Node25 -->
<g id="node25" class="node">
<title>Node25</title>
<g id="a_node25"><a xlink:href="utils_8h.html#ae65513c75ce8a8538c22393e0af3ab1f" target="_top" xlink:title="Solves the given equation.">
<polygon fill="none" stroke="black" points="578,-266.5 578,-285.5 633,-285.5 633,-266.5 578,-266.5"/>
<text text-anchor="middle" x="605.5" y="-273.5" font-family="Helvetica,sans-Serif" font-size="10.00">ft_solve</text>
</a>
</g>
</g>
<!-- Node22&#45;&gt;Node25 -->
<g id="edge33" class="edge">
<title>Node22&#45;&gt;Node25</title>
<path fill="none" stroke="midnightblue" d="M503.85,-289.96C523.7,-287.21 548.2,-283.81 568.06,-281.05"/>
<polygon fill="midnightblue" stroke="midnightblue" points="568.55,-284.52 577.97,-279.68 567.59,-277.59 568.55,-284.52"/>
</g>
<!-- Node23&#45;&gt;Node8 -->
<g id="edge32" class="edge">
<title>Node23&#45;&gt;Node8</title>
<path fill="none" stroke="midnightblue" d="M630.11,-361.53C639.58,-365.62 650.49,-370.69 660,-376 679.69,-387 700.8,-401.58 715.84,-412.5"/>
<polygon fill="midnightblue" stroke="midnightblue" points="713.82,-415.35 723.95,-418.45 717.96,-409.71 713.82,-415.35"/>
</g>
<!-- Node24 -->
<g id="node24" class="node">
<title>Node24</title>
<g id="a_node24"><a xlink:href="vec3_8h.html#a73e2caf4c2a51ed954b7349c6be2b3c3" target="_top" xlink:title="Add two vectors.">
<polygon fill="none" stroke="black" points="700,-342.5 700,-361.5 775,-361.5 775,-342.5 700,-342.5"/>
<text text-anchor="middle" x="737.5" y="-349.5" font-family="Helvetica,sans-Serif" font-size="10.00">ft_vec3_add</text>
</a>
</g>
</g>
<!-- Node23&#45;&gt;Node24 -->
<g id="edge31" class="edge">
<title>Node23&#45;&gt;Node24</title>
<path fill="none" stroke="midnightblue" d="M643.06,-352C657.46,-352 674.18,-352 689.46,-352"/>
<polygon fill="midnightblue" stroke="midnightblue" points="689.77,-355.5 699.77,-352 689.77,-348.5 689.77,-355.5"/>
</g>
<!-- Node26&#45;&gt;Node5 -->
<g id="edge42" class="edge">
<title>Node26&#45;&gt;Node5</title>
<path fill="none" stroke="midnightblue" d="M475.69,-361.53C490.54,-378.75 522.95,-416.12 551,-447 563.34,-460.58 577.56,-475.71 588.24,-486.97"/>
<polygon fill="midnightblue" stroke="midnightblue" points="585.89,-489.57 595.32,-494.41 590.96,-484.75 585.89,-489.57"/>
</g>
<!-- Node26&#45;&gt;Node6 -->
<g id="edge43" class="edge">
<title>Node26&#45;&gt;Node6</title>
<path fill="none" stroke="midnightblue" d="M477.57,-361.61C488.22,-372.28 504.87,-390.46 515,-409 540.49,-455.62 514.1,-484.77 551,-523 552.41,-524.46 553.94,-525.81 555.57,-527.06"/>
<polygon fill="midnightblue" stroke="midnightblue" points="553.96,-530.18 564.31,-532.47 557.65,-524.23 553.96,-530.18"/>
</g>
<!-- Node26&#45;&gt;Node8 -->
<g id="edge44" class="edge">
<title>Node26&#45;&gt;Node8</title>
<path fill="none" stroke="midnightblue" d="M501.3,-361.55C549.82,-375.26 639.24,-400.52 692.75,-415.64"/>
<polygon fill="midnightblue" stroke="midnightblue" points="692.06,-419.08 702.63,-418.43 693.96,-412.34 692.06,-419.08"/>
</g>
<!-- Node26&#45;&gt;Node9 -->
<g id="edge45" class="edge">
<title>Node26&#45;&gt;Node9</title>
<path fill="none" stroke="midnightblue" d="M488.79,-361.67C497.16,-365.75 506.73,-370.76 515,-376 532.13,-386.84 533.63,-393.55 551,-404 557.1,-407.67 563.85,-411.12 570.45,-414.2"/>
<polygon fill="midnightblue" stroke="midnightblue" points="569.35,-417.54 579.91,-418.43 572.21,-411.16 569.35,-417.54"/>
</g>
<!-- Node26&#45;&gt;Node20 -->
<g id="edge41" class="edge">
<title>Node26&#45;&gt;Node20</title>
<path fill="none" stroke="midnightblue" d="M506.76,-343.3C555.39,-332.03 634.88,-311.83 660,-295 689.75,-275.07 713.57,-240.02 726.32,-218.52"/>
<polygon fill="midnightblue" stroke="midnightblue" points="729.44,-220.11 731.38,-209.7 723.37,-216.63 729.44,-220.11"/>
</g>
<!-- Node26&#45;&gt;Node23 -->
<g id="edge39" class="edge">
<title>Node26&#45;&gt;Node23</title>
<path fill="none" stroke="midnightblue" d="M506.76,-352C522.6,-352 541.02,-352 557.57,-352"/>
<polygon fill="midnightblue" stroke="midnightblue" points="557.59,-355.5 567.59,-352 557.59,-348.5 557.59,-355.5"/>
</g>
<!-- Node26&#45;&gt;Node25 -->
<g id="edge40" class="edge">
<title>Node26&#45;&gt;Node25</title>
<path fill="none" stroke="midnightblue" d="M481.63,-342.38C497.96,-331.45 525.83,-313.41 551,-300 557.67,-296.45 564.97,-292.94 571.98,-289.74"/>
<polygon fill="midnightblue" stroke="midnightblue" points="573.55,-292.87 581.26,-285.61 570.7,-286.48 573.55,-292.87"/>
</g>
</g>
</svg>
