<?xml version="1.0" encoding="UTF-8" standalone="no"?>
<!DOCTYPE svg PUBLIC "-//W3C//DTD SVG 1.1//EN"
 "http://www.w3.org/Graphics/SVG/1.1/DTD/svg11.dtd">
<!-- Generated by graphviz version 2.43.0 (0)
 -->
<!-- Title: ft_diffuse_light Pages: 1 -->
<svg width="1237pt" height="66pt"
 viewBox="0.00 0.00 1237.00 66.00" xmlns="http://www.w3.org/2000/svg" xmlns:xlink="http://www.w3.org/1999/xlink">
<g id="graph0" class="graph" transform="scale(1 1) rotate(0) translate(4 62)">
<title>ft_diffuse_light</title>
<!-- Node1 -->
<g id="node1" class="node">
<title>Node1</title>
<g id="a_node1"><a xlink:title="Create diffuse lighting.">
<polygon fill="#bfbfbf" stroke="black" points="1140,-19.5 1140,-38.5 1229,-38.5 1229,-19.5 1140,-19.5"/>
<text text-anchor="middle" x="1184.5" y="-26.5" font-family="Helvetica,sans-Serif" font-size="10.00">ft_diffuse_light</text>
</a>
</g>
</g>
<!-- Node2 -->
<g id="node2" class="node">
<title>Node2</title>
<g id="a_node2"><a xlink:href="lighting__bonus_8h.html#ab380b8bbadc80a5a668141c8edcc4754" target="_top" xlink:title="Create reflective lighting by recursion.">
<polygon fill="none" stroke="black" points="1003,-19.5 1003,-38.5 1104,-38.5 1104,-19.5 1003,-19.5"/>
<text text-anchor="middle" x="1053.5" y="-26.5" font-family="Helvetica,sans-Serif" font-size="10.00">ft_reflective_light</text>
</a>
</g>
</g>
<!-- Node1&#45;&gt;Node2 -->
<g id="edge1" class="edge">
<title>Node1&#45;&gt;Node2</title>
<path fill="none" stroke="midnightblue" d="M1129.73,-29C1121.33,-29 1112.67,-29 1104.35,-29"/>
<polygon fill="midnightblue" stroke="midnightblue" points="1129.83,-32.5 1139.83,-29 1129.83,-25.5 1129.83,-32.5"/>
</g>
<!-- Node3 -->
<g id="node3" class="node">
<title>Node3</title>
<g id="a_node3"><a xlink:href="lighting__bonus_8h.html#a31af89240f5ffa2f65f1525d06121d73" target="_top" xlink:title="Computes the colour of light interacting with different material properties.">
<polygon fill="none" stroke="black" points="860,-19.5 860,-38.5 967,-38.5 967,-19.5 860,-19.5"/>
<text text-anchor="middle" x="913.5" y="-26.5" font-family="Helvetica,sans-Serif" font-size="10.00">ft_compute_colour</text>
</a>
</g>
</g>
<!-- Node2&#45;&gt;Node3 -->
<g id="edge2" class="edge">
<title>Node2&#45;&gt;Node3</title>
<path fill="none" stroke="midnightblue" d="M992.48,-22.3C984.01,-22.2 975.35,-22.25 967.04,-22.42"/>
<polygon fill="midnightblue" stroke="midnightblue" points="992.62,-25.8 1002.68,-22.49 992.74,-18.81 992.62,-25.8"/>
</g>
<!-- Node3&#45;&gt;Node2 -->
<g id="edge12" class="edge">
<title>Node3&#45;&gt;Node2</title>
<path fill="none" stroke="midnightblue" d="M977.31,-35.73C985.82,-35.79 994.45,-35.72 1002.68,-35.51"/>
<polygon fill="midnightblue" stroke="midnightblue" points="977.09,-32.22 967.04,-35.58 976.99,-39.22 977.09,-32.22"/>
</g>
<!-- Node4 -->
<g id="node4" class="node">
<title>Node4</title>
<g id="a_node4"><a xlink:href="scene__light__bonus_8c.html#a3d54436a3f695a60b1c2d9e504a61de8" target="_top" xlink:title="Calculate the effect of different lighting on perception.">
<polygon fill="none" stroke="black" points="750,-19.5 750,-38.5 824,-38.5 824,-19.5 750,-19.5"/>
<text text-anchor="middle" x="787" y="-26.5" font-family="Helvetica,sans-Serif" font-size="10.00">ft_enlighten</text>
</a>
</g>
</g>
<!-- Node3&#45;&gt;Node4 -->
<g id="edge3" class="edge">
<title>Node3&#45;&gt;Node4</title>
<path fill="none" stroke="midnightblue" d="M849.56,-29C840.9,-29 832.25,-29 824.3,-29"/>
<polygon fill="midnightblue" stroke="midnightblue" points="849.7,-32.5 859.7,-29 849.7,-25.5 849.7,-32.5"/>
</g>
<!-- Node5 -->
<g id="node5" class="node">
<title>Node5</title>
<g id="a_node5"><a xlink:href="ray_8h.html#a2cffd188fb76990901db47a2c3ac638f" target="_top" xlink:title="Returns the colour of a ray.">
<polygon fill="none" stroke="black" points="634,-19.5 634,-38.5 714,-38.5 714,-19.5 634,-19.5"/>
<text text-anchor="middle" x="674" y="-26.5" font-family="Helvetica,sans-Serif" font-size="10.00">ft_ray_colour</text>
</a>
</g>
</g>
<!-- Node4&#45;&gt;Node5 -->
<g id="edge4" class="edge">
<title>Node4&#45;&gt;Node5</title>
<path fill="none" stroke="midnightblue" d="M739.82,-29C731.34,-29 722.56,-29 714.31,-29"/>
<polygon fill="midnightblue" stroke="midnightblue" points="739.96,-32.5 749.96,-29 739.96,-25.5 739.96,-32.5"/>
</g>
<!-- Node6 -->
<g id="node6" class="node">
<title>Node6</title>
<g id="a_node6"><a xlink:href="ray__bonus_8h.html#af9c073d2966aa21738e1d2083762055f" target="_top" xlink:title="Returns the colour of a pixel by means of anti&#45;aliasing.">
<polygon fill="none" stroke="black" points="481,-38.5 481,-57.5 598,-57.5 598,-38.5 481,-38.5"/>
<text text-anchor="middle" x="539.5" y="-45.5" font-family="Helvetica,sans-Serif" font-size="10.00">ft_anti_aliase_colour</text>
</a>
</g>
</g>
<!-- Node5&#45;&gt;Node6 -->
<g id="edge5" class="edge">
<title>Node5&#45;&gt;Node6</title>
<path fill="none" stroke="midnightblue" d="M624.02,-36.02C615.69,-37.22 606.95,-38.47 598.41,-39.7"/>
<polygon fill="midnightblue" stroke="midnightblue" points="624.56,-39.48 633.96,-34.6 623.57,-32.55 624.56,-39.48"/>
</g>
<!-- Node11 -->
<g id="node11" class="node">
<title>Node11</title>
<g id="a_node11"><a xlink:href="render_8h.html#a4f238596a8fca72f9af80be57cf06d34" target="_top" xlink:title="Renders the scene to the mlx img.">
<polygon fill="none" stroke="black" points="349,-0.5 349,-19.5 445,-19.5 445,-0.5 349,-0.5"/>
<text text-anchor="middle" x="397" y="-7.5" font-family="Helvetica,sans-Serif" font-size="10.00">ft_render_image</text>
</a>
</g>
</g>
<!-- Node5&#45;&gt;Node11 -->
<g id="edge10" class="edge">
<title>Node5&#45;&gt;Node11</title>
<path fill="none" stroke="midnightblue" d="M623.86,-25.6C573.31,-22.11 495.12,-16.71 445.27,-13.27"/>
<polygon fill="midnightblue" stroke="midnightblue" points="623.67,-29.1 633.89,-26.3 624.16,-22.12 623.67,-29.1"/>
</g>
<!-- Node7 -->
<g id="node7" class="node">
<title>Node7</title>
<g id="a_node7"><a xlink:href="render__draw__bonus_8c.html#a4f238596a8fca72f9af80be57cf06d34" target="_top" xlink:title="Renders the scene to the mlx img.">
<polygon fill="none" stroke="black" points="349,-38.5 349,-57.5 445,-57.5 445,-38.5 349,-38.5"/>
<text text-anchor="middle" x="397" y="-45.5" font-family="Helvetica,sans-Serif" font-size="10.00">ft_render_image</text>
</a>
</g>
</g>
<!-- Node6&#45;&gt;Node7 -->
<g id="edge6" class="edge">
<title>Node6&#45;&gt;Node7</title>
<path fill="none" stroke="midnightblue" d="M470.89,-48C462.27,-48 453.6,-48 445.39,-48"/>
<polygon fill="midnightblue" stroke="midnightblue" points="470.95,-51.5 480.95,-48 470.95,-44.5 470.95,-51.5"/>
</g>
<!-- Node8 -->
<g id="node8" class="node">
<title>Node8</title>
<g id="a_node8"><a xlink:href="render_8h.html#af908c05cb19e716220bc98fcf9582573" target="_top" xlink:title=" ">
<polygon fill="none" stroke="black" points="227,-19.5 227,-38.5 313,-38.5 313,-19.5 227,-19.5"/>
<text text-anchor="middle" x="270" y="-26.5" font-family="Helvetica,sans-Serif" font-size="10.00">ft_draw_scene</text>
</a>
</g>
</g>
<!-- Node7&#45;&gt;Node8 -->
<g id="edge7" class="edge">
<title>Node7&#45;&gt;Node8</title>
<path fill="none" stroke="midnightblue" d="M338.8,-39.31C330.25,-38.01 321.57,-36.69 313.4,-35.44"/>
<polygon fill="midnightblue" stroke="midnightblue" points="338.33,-42.77 348.74,-40.82 339.38,-35.85 338.33,-42.77"/>
</g>
<!-- Node9 -->
<g id="node9" class="node">
<title>Node9</title>
<g id="a_node9"><a xlink:href="render_8h.html#ab7a01aa5d27d2fad2942a43a31ae0d52" target="_top" xlink:title="Starts the mlx loop.">
<polygon fill="none" stroke="black" points="77,-19.5 77,-38.5 191,-38.5 191,-19.5 77,-19.5"/>
<text text-anchor="middle" x="134" y="-26.5" font-family="Helvetica,sans-Serif" font-size="10.00">ft_render_start_loop</text>
</a>
</g>
</g>
<!-- Node8&#45;&gt;Node9 -->
<g id="edge8" class="edge">
<title>Node8&#45;&gt;Node9</title>
<path fill="none" stroke="midnightblue" d="M216.88,-29C208.44,-29 199.66,-29 191.13,-29"/>
<polygon fill="midnightblue" stroke="midnightblue" points="216.97,-32.5 226.97,-29 216.97,-25.5 216.97,-32.5"/>
</g>
<!-- Node10 -->
<g id="node10" class="node">
<title>Node10</title>
<g id="a_node10"><a xlink:href="main_8c.html#a3c04138a5bfe5d72780bb7e82a18e627" target="_top" xlink:title=" ">
<polygon fill="none" stroke="black" points="0,-19.5 0,-38.5 41,-38.5 41,-19.5 0,-19.5"/>
<text text-anchor="middle" x="20.5" y="-26.5" font-family="Helvetica,sans-Serif" font-size="10.00">main</text>
</a>
</g>
</g>
<!-- Node9&#45;&gt;Node10 -->
<g id="edge9" class="edge">
<title>Node9&#45;&gt;Node10</title>
<path fill="none" stroke="midnightblue" d="M66.7,-29C57.37,-29 48.45,-29 41.04,-29"/>
<polygon fill="midnightblue" stroke="midnightblue" points="66.92,-32.5 76.92,-29 66.92,-25.5 66.92,-32.5"/>
</g>
<!-- Node11&#45;&gt;Node8 -->
<g id="edge11" class="edge">
<title>Node11&#45;&gt;Node8</title>
<path fill="none" stroke="midnightblue" d="M338.8,-18.69C330.25,-19.99 321.57,-21.31 313.4,-22.56"/>
<polygon fill="midnightblue" stroke="midnightblue" points="339.38,-22.15 348.74,-17.18 338.33,-15.23 339.38,-22.15"/>
</g>
</g>
</svg>
