<?xml version="1.0" encoding="UTF-8" standalone="no"?>
<!DOCTYPE svg PUBLIC "-//W3C//DTD SVG 1.1//EN"
 "http://www.w3.org/Graphics/SVG/1.1/DTD/svg11.dtd">
<!-- Generated by graphviz version 2.43.0 (0)
 -->
<!-- Title: main Pages: 1 -->
<svg width="677pt" height="876pt"
 viewBox="0.00 0.00 677.00 876.00" xmlns="http://www.w3.org/2000/svg" xmlns:xlink="http://www.w3.org/1999/xlink">
<g id="graph0" class="graph" transform="scale(1 1) rotate(0) translate(4 872)">
<title>main</title>
<!-- Node1 -->
<g id="node1" class="node">
<title>Node1</title>
<g id="a_node1"><a xlink:title=" ">
<polygon fill="#bfbfbf" stroke="black" points="0,-266.5 0,-285.5 41,-285.5 41,-266.5 0,-266.5"/>
<text text-anchor="middle" x="20.5" y="-273.5" font-family="Helvetica,sans-Serif" font-size="10.00">main</text>
</a>
</g>
</g>
<!-- Node2 -->
<g id="node2" class="node">
<title>Node2</title>
<g id="a_node2"><a xlink:href="camera_8h.html#af7d021ad81a192b9ae379a76210706aa" target="_top" xlink:title="Initializes camera parameters.">
<polygon fill="none" stroke="black" points="258.5,-788.5 258.5,-807.5 329.5,-807.5 329.5,-788.5 258.5,-788.5"/>
<text text-anchor="middle" x="294" y="-795.5" font-family="Helvetica,sans-Serif" font-size="10.00">ft_cam_init</text>
</a>
</g>
</g>
<!-- Node1&#45;&gt;Node2 -->
<g id="edge1" class="edge">
<title>Node1&#45;&gt;Node2</title>
<path fill="none" stroke="midnightblue" d="M21.06,-285.54C19.61,-325.75 18.08,-484.42 77,-594 124.08,-681.55 222.69,-752.9 268.56,-782.82"/>
<polygon fill="midnightblue" stroke="midnightblue" points="266.95,-785.94 277.26,-788.4 270.74,-780.05 266.95,-785.94"/>
</g>
<!-- Node10 -->
<g id="node10" class="node">
<title>Node10</title>
<g id="a_node10"><a xlink:href="cleanup_8h.html#a8612292955a412b88ad5dc29e381ed1f" target="_top" xlink:title="Frees memory allocated for a scene.">
<polygon fill="none" stroke="black" points="93,-152.5 93,-171.5 175,-171.5 175,-152.5 93,-152.5"/>
<text text-anchor="middle" x="134" y="-159.5" font-family="Helvetica,sans-Serif" font-size="10.00">ft_free_scene</text>
</a>
</g>
</g>
<!-- Node1&#45;&gt;Node10 -->
<g id="edge10" class="edge">
<title>Node1&#45;&gt;Node10</title>
<path fill="none" stroke="midnightblue" d="M24.54,-266.4C31.05,-247.35 48.14,-204.55 77,-181 79.24,-179.17 81.66,-177.52 84.2,-176.02"/>
<polygon fill="midnightblue" stroke="midnightblue" points="85.81,-179.13 93.18,-171.51 82.67,-172.87 85.81,-179.13"/>
</g>
<!-- Node11 -->
<g id="node11" class="node">
<title>Node11</title>
<g id="a_node11"><a xlink:href="render_8h.html#a12e519bd02c237459e067c614b9482e2" target="_top" xlink:title="Initializes the mlx_ptrs struct.">
<polygon fill="none" stroke="black" points="88,-437.5 88,-456.5 180,-456.5 180,-437.5 88,-437.5"/>
<text text-anchor="middle" x="134" y="-444.5" font-family="Helvetica,sans-Serif" font-size="10.00">ft_init_mlx_ptrs</text>
</a>
</g>
</g>
<!-- Node1&#45;&gt;Node11 -->
<g id="edge11" class="edge">
<title>Node1&#45;&gt;Node11</title>
<path fill="none" stroke="midnightblue" d="M27.81,-285.68C45.83,-313.31 97.69,-392.84 121.18,-428.87"/>
<polygon fill="midnightblue" stroke="midnightblue" points="118.36,-430.96 126.76,-437.42 124.22,-427.13 118.36,-430.96"/>
</g>
<!-- Node13 -->
<g id="node13" class="node">
<title>Node13</title>
<g id="a_node13"><a xlink:href="error__msg_8h.html#aee5d10b82b6780869c9cc69cd64e44cc" target="_top" xlink:title="Print generic error message.">
<polygon fill="none" stroke="black" points="594,-437.5 594,-456.5 652,-456.5 652,-437.5 594,-437.5"/>
<text text-anchor="middle" x="623" y="-444.5" font-family="Helvetica,sans-Serif" font-size="10.00">ft_perror</text>
</a>
</g>
</g>
<!-- Node1&#45;&gt;Node13 -->
<g id="edge44" class="edge">
<title>Node1&#45;&gt;Node13</title>
<path fill="none" stroke="midnightblue" d="M21.97,-285.75C23.88,-315.69 33.19,-407.79 77,-466 124.46,-529.05 151.21,-539.02 227,-561 361.42,-599.99 417.2,-602.28 541,-537 572.44,-520.42 597.69,-486.47 611.21,-465.34"/>
<polygon fill="midnightblue" stroke="midnightblue" points="614.3,-466.99 616.57,-456.64 608.34,-463.31 614.3,-466.99"/>
</g>
<!-- Node19 -->
<g id="node19" class="node">
<title>Node19</title>
<g id="a_node19"><a xlink:href="render__menu_8h.html#a75e05a690430becef1c647f119c01657" target="_top" xlink:title=" ">
<polygon fill="none" stroke="black" points="95.5,-114.5 95.5,-133.5 172.5,-133.5 172.5,-114.5 95.5,-114.5"/>
<text text-anchor="middle" x="134" y="-121.5" font-family="Helvetica,sans-Serif" font-size="10.00">ft_menu_init</text>
</a>
</g>
</g>
<!-- Node1&#45;&gt;Node19 -->
<g id="edge21" class="edge">
<title>Node1&#45;&gt;Node19</title>
<path fill="none" stroke="midnightblue" d="M22.77,-266.44C26.48,-242.24 39.52,-178.01 77,-143 79.75,-140.43 82.86,-138.21 86.17,-136.29"/>
<polygon fill="midnightblue" stroke="midnightblue" points="87.83,-139.37 95.3,-131.86 84.77,-133.07 87.83,-139.37"/>
</g>
<!-- Node20 -->
<g id="node20" class="node">
<title>Node20</title>
<g id="a_node20"><a xlink:href="parse_8h.html#ac08e53c371b438bc37757b81d0df11b8" target="_top" xlink:title="Imports, checks, and parses the provided file.">
<polygon fill="none" stroke="black" points="96,-266.5 96,-285.5 172,-285.5 172,-266.5 96,-266.5"/>
<text text-anchor="middle" x="134" y="-273.5" font-family="Helvetica,sans-Serif" font-size="10.00">ft_parse_file</text>
</a>
</g>
</g>
<!-- Node1&#45;&gt;Node20 -->
<g id="edge22" class="edge">
<title>Node1&#45;&gt;Node20</title>
<path fill="none" stroke="midnightblue" d="M41.18,-276C53.59,-276 70.18,-276 85.84,-276"/>
<polygon fill="midnightblue" stroke="midnightblue" points="85.95,-279.5 95.95,-276 85.95,-272.5 85.95,-279.5"/>
</g>
<!-- Node41 -->
<g id="node37" class="node">
<title>Node41</title>
<g id="a_node37"><a xlink:href="render_8h.html#ab7a01aa5d27d2fad2942a43a31ae0d52" target="_top" xlink:title="Starts the mlx loop.">
<polygon fill="none" stroke="black" points="77,-190.5 77,-209.5 191,-209.5 191,-190.5 77,-190.5"/>
<text text-anchor="middle" x="134" y="-197.5" font-family="Helvetica,sans-Serif" font-size="10.00">ft_render_start_loop</text>
</a>
</g>
</g>
<!-- Node1&#45;&gt;Node41 -->
<g id="edge45" class="edge">
<title>Node1&#45;&gt;Node41</title>
<path fill="none" stroke="midnightblue" d="M35.62,-266.37C54.47,-253.53 88.07,-230.62 110.45,-215.37"/>
<polygon fill="midnightblue" stroke="midnightblue" points="112.7,-218.07 118.99,-209.55 108.76,-212.29 112.7,-218.07"/>
</g>
<!-- Node3 -->
<g id="node3" class="node">
<title>Node3</title>
<g id="a_node3"><a xlink:href="camera_8c.html#a02ed3f7206927a02c44eab5f5aba26e1" target="_top" xlink:title="Calculates basis vectors u, v, w.">
<polygon fill="none" stroke="black" points="397,-848.5 397,-867.5 541,-867.5 541,-848.5 397,-848.5"/>
<text text-anchor="middle" x="469" y="-855.5" font-family="Helvetica,sans-Serif" font-size="10.00">ft_cam_calc_base_vectors</text>
</a>
</g>
</g>
<!-- Node2&#45;&gt;Node3 -->
<g id="edge2" class="edge">
<title>Node2&#45;&gt;Node3</title>
<path fill="none" stroke="midnightblue" d="M316.6,-807.57C337.06,-816.42 368.76,-829.58 397,-839 404.15,-841.39 411.79,-843.68 419.3,-845.8"/>
<polygon fill="midnightblue" stroke="midnightblue" points="418.49,-849.21 429.06,-848.49 420.34,-842.46 418.49,-849.21"/>
</g>
<!-- Node6 -->
<g id="node6" class="node">
<title>Node6</title>
<g id="a_node6"><a xlink:href="camera_8c.html#a96132dcb4eac578fbee24bbf591fe090" target="_top" xlink:title="Calculates the pixel grid parameters of the viewport.">
<polygon fill="none" stroke="black" points="405.5,-810.5 405.5,-829.5 532.5,-829.5 532.5,-810.5 405.5,-810.5"/>
<text text-anchor="middle" x="469" y="-817.5" font-family="Helvetica,sans-Serif" font-size="10.00">ft_cam_calc_pixel_grid</text>
</a>
</g>
</g>
<!-- Node2&#45;&gt;Node6 -->
<g id="edge5" class="edge">
<title>Node2&#45;&gt;Node6</title>
<path fill="none" stroke="midnightblue" d="M329.59,-802.4C348.49,-804.8 372.63,-807.87 395.44,-810.77"/>
<polygon fill="midnightblue" stroke="midnightblue" points="395.1,-814.26 405.46,-812.05 395.98,-807.31 395.1,-814.26"/>
</g>
<!-- Node9 -->
<g id="node9" class="node">
<title>Node9</title>
<g id="a_node9"><a xlink:href="camera_8c.html#acf892f39174bd3b89ad83a6e901a7b4f" target="_top" xlink:title="Calculates viewport dimensions.">
<polygon fill="none" stroke="black" points="408,-761 408,-791 530,-791 530,-761 408,-761"/>
<text text-anchor="start" x="416" y="-779" font-family="Helvetica,sans-Serif" font-size="10.00">ft_cam_calc_viewport</text>
<text text-anchor="middle" x="469" y="-768" font-family="Helvetica,sans-Serif" font-size="10.00">_dimensions</text>
</a>
</g>
</g>
<!-- Node2&#45;&gt;Node9 -->
<g id="edge9" class="edge">
<title>Node2&#45;&gt;Node9</title>
<path fill="none" stroke="midnightblue" d="M329.59,-793.6C349.18,-791.11 374.4,-787.9 397.93,-784.91"/>
<polygon fill="midnightblue" stroke="midnightblue" points="398.42,-788.38 407.89,-783.64 397.53,-781.43 398.42,-788.38"/>
</g>
<!-- Node4 -->
<g id="node4" class="node">
<title>Node4</title>
<g id="a_node4"><a xlink:href="vec3_8h.html#a19bc1d17592698776e89a5093110320c" target="_top" xlink:title="Calculate the cross product of two vectors.">
<polygon fill="none" stroke="black" points="581.5,-848.5 581.5,-867.5 664.5,-867.5 664.5,-848.5 581.5,-848.5"/>
<text text-anchor="middle" x="623" y="-855.5" font-family="Helvetica,sans-Serif" font-size="10.00">ft_vec3_cross</text>
</a>
</g>
</g>
<!-- Node3&#45;&gt;Node4 -->
<g id="edge3" class="edge">
<title>Node3&#45;&gt;Node4</title>
<path fill="none" stroke="midnightblue" d="M541.1,-858C551.2,-858 561.42,-858 571.03,-858"/>
<polygon fill="midnightblue" stroke="midnightblue" points="571.2,-861.5 581.2,-858 571.2,-854.5 571.2,-861.5"/>
</g>
<!-- Node5 -->
<g id="node5" class="node">
<title>Node5</title>
<g id="a_node5"><a xlink:href="vec3_8h.html#ac80a1c20941c96a8fafad255dac59092" target="_top" xlink:title="Scale a vector.">
<polygon fill="none" stroke="black" points="581.5,-810.5 581.5,-829.5 664.5,-829.5 664.5,-810.5 581.5,-810.5"/>
<text text-anchor="middle" x="623" y="-817.5" font-family="Helvetica,sans-Serif" font-size="10.00">ft_vec3_scale</text>
</a>
</g>
</g>
<!-- Node3&#45;&gt;Node5 -->
<g id="edge4" class="edge">
<title>Node3&#45;&gt;Node5</title>
<path fill="none" stroke="midnightblue" d="M508.36,-848.41C528.32,-843.42 552.93,-837.27 574.13,-831.97"/>
<polygon fill="midnightblue" stroke="midnightblue" points="575.07,-835.34 583.92,-829.52 573.37,-828.55 575.07,-835.34"/>
</g>
<!-- Node6&#45;&gt;Node5 -->
<g id="edge7" class="edge">
<title>Node6&#45;&gt;Node5</title>
<path fill="none" stroke="midnightblue" d="M532.7,-820C545.48,-820 558.77,-820 571.08,-820"/>
<polygon fill="midnightblue" stroke="midnightblue" points="571.15,-823.5 581.15,-820 571.15,-816.5 571.15,-823.5"/>
</g>
<!-- Node7 -->
<g id="node7" class="node">
<title>Node7</title>
<g id="a_node7"><a xlink:href="vec3_8h.html#a73e2caf4c2a51ed954b7349c6be2b3c3" target="_top" xlink:title="Add two vectors.">
<polygon fill="none" stroke="black" points="585.5,-766.5 585.5,-785.5 660.5,-785.5 660.5,-766.5 585.5,-766.5"/>
<text text-anchor="middle" x="623" y="-773.5" font-family="Helvetica,sans-Serif" font-size="10.00">ft_vec3_add</text>
</a>
</g>
</g>
<!-- Node6&#45;&gt;Node7 -->
<g id="edge6" class="edge">
<title>Node6&#45;&gt;Node7</title>
<path fill="none" stroke="midnightblue" d="M506.92,-810.4C517.91,-807.47 529.96,-804.18 541,-801 554.52,-797.11 569.25,-792.63 582.38,-788.56"/>
<polygon fill="midnightblue" stroke="midnightblue" points="583.57,-791.85 592.08,-785.53 581.49,-785.17 583.57,-791.85"/>
</g>
<!-- Node8 -->
<g id="node8" class="node">
<title>Node8</title>
<g id="a_node8"><a xlink:href="vec3_8h.html#a54e984820b74bd803de43ce36c8cb292" target="_top" xlink:title="Subtract two vectors.">
<polygon fill="none" stroke="black" points="586,-725.5 586,-744.5 660,-744.5 660,-725.5 586,-725.5"/>
<text text-anchor="middle" x="623" y="-732.5" font-family="Helvetica,sans-Serif" font-size="10.00">ft_vec3_sub</text>
</a>
</g>
</g>
<!-- Node6&#45;&gt;Node8 -->
<g id="edge8" class="edge">
<title>Node6&#45;&gt;Node8</title>
<path fill="none" stroke="midnightblue" d="M521.3,-810.43C528.22,-807.96 535,-804.88 541,-801 562.23,-787.3 557.19,-772.69 577,-757 580.55,-754.19 584.51,-751.61 588.58,-749.29"/>
<polygon fill="midnightblue" stroke="midnightblue" points="590.27,-752.36 597.51,-744.62 587.03,-746.15 590.27,-752.36"/>
</g>
<!-- Node12 -->
<g id="node12" class="node">
<title>Node12</title>
<g id="a_node12"><a xlink:href="error__mlx_8h.html#abd6a66916fc4bc87ff5d14ded2606585" target="_top" xlink:title="Wrapper function for mlx_init() to print errno.">
<polygon fill="none" stroke="black" points="250.5,-532.5 250.5,-551.5 337.5,-551.5 337.5,-532.5 250.5,-532.5"/>
<text text-anchor="middle" x="294" y="-539.5" font-family="Helvetica,sans-Serif" font-size="10.00">ft_err_mlx_init</text>
</a>
</g>
</g>
<!-- Node11&#45;&gt;Node12 -->
<g id="edge12" class="edge">
<title>Node11&#45;&gt;Node12</title>
<path fill="none" stroke="midnightblue" d="M143.98,-456.65C159.44,-472.7 192.73,-504.93 227,-523 231.32,-525.28 235.95,-527.32 240.68,-529.13"/>
<polygon fill="midnightblue" stroke="midnightblue" points="239.85,-532.55 250.45,-532.54 242.16,-525.94 239.85,-532.55"/>
</g>
<!-- Node14 -->
<g id="node14" class="node">
<title>Node14</title>
<g id="a_node14"><a xlink:href="error__mlx_8h.html#a4901d88031fcb0508d2e6fe728701816" target="_top" xlink:title="Wrapper function for mlx_new_window() to print errno.">
<polygon fill="none" stroke="black" points="227,-494.5 227,-513.5 361,-513.5 361,-494.5 227,-494.5"/>
<text text-anchor="middle" x="294" y="-501.5" font-family="Helvetica,sans-Serif" font-size="10.00">ft_err_mlx_new_window</text>
</a>
</g>
</g>
<!-- Node11&#45;&gt;Node14 -->
<g id="edge14" class="edge">
<title>Node11&#45;&gt;Node14</title>
<path fill="none" stroke="midnightblue" d="M156.3,-456.59C174.78,-464.72 202.36,-476.4 227,-485 233.5,-487.27 240.43,-489.49 247.27,-491.55"/>
<polygon fill="midnightblue" stroke="midnightblue" points="246.57,-494.99 257.15,-494.46 248.55,-488.28 246.57,-494.99"/>
</g>
<!-- Node15 -->
<g id="node15" class="node">
<title>Node15</title>
<g id="a_node15"><a xlink:href="cleanup_8h.html#a9229589988c3bd4de6a2fdcc8b22444d" target="_top" xlink:title="Frees ressources allocated for mlx.">
<polygon fill="none" stroke="black" points="258,-380.5 258,-399.5 330,-399.5 330,-380.5 258,-380.5"/>
<text text-anchor="middle" x="294" y="-387.5" font-family="Helvetica,sans-Serif" font-size="10.00">ft_free_mlx</text>
</a>
</g>
</g>
<!-- Node11&#45;&gt;Node15 -->
<g id="edge16" class="edge">
<title>Node11&#45;&gt;Node15</title>
<path fill="none" stroke="midnightblue" d="M156.3,-437.41C174.78,-429.28 202.36,-417.6 227,-409 233.81,-406.62 241.09,-404.31 248.23,-402.16"/>
<polygon fill="midnightblue" stroke="midnightblue" points="249.22,-405.51 257.83,-399.34 247.25,-398.8 249.22,-405.51"/>
</g>
<!-- Node16 -->
<g id="node16" class="node">
<title>Node16</title>
<g id="a_node16"><a xlink:href="render__init__mlx_8c.html#a0af0fd19adc919c3966816890c89f291" target="_top" xlink:title="Initializes the mlx img struct.">
<polygon fill="none" stroke="black" points="254,-456.5 254,-475.5 334,-475.5 334,-456.5 254,-456.5"/>
<text text-anchor="middle" x="294" y="-463.5" font-family="Helvetica,sans-Serif" font-size="10.00">ft_init_image</text>
</a>
</g>
</g>
<!-- Node11&#45;&gt;Node16 -->
<g id="edge17" class="edge">
<title>Node11&#45;&gt;Node16</title>
<path fill="none" stroke="midnightblue" d="M180.28,-452.44C200.17,-454.84 223.57,-457.65 243.89,-460.09"/>
<polygon fill="midnightblue" stroke="midnightblue" points="243.54,-463.58 253.88,-461.3 244.37,-456.63 243.54,-463.58"/>
</g>
<!-- Node18 -->
<g id="node18" class="node">
<title>Node18</title>
<g id="a_node18"><a xlink:href="render__init__mlx_8c.html#a9e5e36f10c3b51d43b36a71ea2c314bb" target="_top" xlink:title="Sets the window to fullscreen.">
<polygon fill="none" stroke="black" points="245.5,-418.5 245.5,-437.5 342.5,-437.5 342.5,-418.5 245.5,-418.5"/>
<text text-anchor="middle" x="294" y="-425.5" font-family="Helvetica,sans-Serif" font-size="10.00">ft_set_fullscreen</text>
</a>
</g>
</g>
<!-- Node11&#45;&gt;Node18 -->
<g id="edge20" class="edge">
<title>Node11&#45;&gt;Node18</title>
<path fill="none" stroke="midnightblue" d="M180.28,-441.56C197.35,-439.5 217.02,-437.14 235.1,-434.96"/>
<polygon fill="midnightblue" stroke="midnightblue" points="235.73,-438.41 245.24,-433.74 234.89,-431.46 235.73,-438.41"/>
</g>
<!-- Node12&#45;&gt;Node13 -->
<g id="edge13" class="edge">
<title>Node12&#45;&gt;Node13</title>
<path fill="none" stroke="midnightblue" d="M337.59,-542.52C388.01,-541.71 473.65,-535.8 541,-508 565.71,-497.8 589.61,-478.23 604.97,-464"/>
<polygon fill="midnightblue" stroke="midnightblue" points="607.75,-466.18 612.57,-456.74 602.92,-461.12 607.75,-466.18"/>
</g>
<!-- Node14&#45;&gt;Node13 -->
<g id="edge15" class="edge">
<title>Node14&#45;&gt;Node13</title>
<path fill="none" stroke="midnightblue" d="M361.07,-505.3C411.22,-504.76 481.46,-500.7 541,-485 560.78,-479.78 581.64,-469.88 597.24,-461.49"/>
<polygon fill="midnightblue" stroke="midnightblue" points="599.16,-464.43 606.21,-456.52 595.77,-458.3 599.16,-464.43"/>
</g>
<!-- Node17 -->
<g id="node17" class="node">
<title>Node17</title>
<g id="a_node17"><a xlink:href="error__mlx_8h.html#a609cd65b568e138870202147aff64449" target="_top" xlink:title="Wrapper function for mlx_new_image() to print errno.">
<polygon fill="none" stroke="black" points="405,-456.5 405,-475.5 533,-475.5 533,-456.5 405,-456.5"/>
<text text-anchor="middle" x="469" y="-463.5" font-family="Helvetica,sans-Serif" font-size="10.00">ft_err_mlx_new_image</text>
</a>
</g>
</g>
<!-- Node16&#45;&gt;Node17 -->
<g id="edge18" class="edge">
<title>Node16&#45;&gt;Node17</title>
<path fill="none" stroke="midnightblue" d="M334.26,-466C352.16,-466 373.96,-466 394.72,-466"/>
<polygon fill="midnightblue" stroke="midnightblue" points="394.81,-469.5 404.81,-466 394.81,-462.5 394.81,-469.5"/>
</g>
<!-- Node17&#45;&gt;Node13 -->
<g id="edge19" class="edge">
<title>Node17&#45;&gt;Node13</title>
<path fill="none" stroke="midnightblue" d="M533.14,-458.11C550.24,-455.97 568.23,-453.72 583.52,-451.81"/>
<polygon fill="midnightblue" stroke="midnightblue" points="584.14,-455.26 593.63,-450.55 583.27,-448.31 584.14,-455.26"/>
</g>
<!-- Node21 -->
<g id="node21" class="node">
<title>Node21</title>
<g id="a_node21"><a xlink:href="check_8h.html#afdfc858822cc349d9aa87b6aa28a6dd8" target="_top" xlink:title="Check array of imported lines.">
<polygon fill="none" stroke="black" points="251,-266.5 251,-285.5 337,-285.5 337,-266.5 251,-266.5"/>
<text text-anchor="middle" x="294" y="-273.5" font-family="Helvetica,sans-Serif" font-size="10.00">ft_check_lines</text>
</a>
</g>
</g>
<!-- Node20&#45;&gt;Node21 -->
<g id="edge23" class="edge">
<title>Node20&#45;&gt;Node21</title>
<path fill="none" stroke="midnightblue" d="M172.04,-276C192.53,-276 218.32,-276 240.82,-276"/>
<polygon fill="midnightblue" stroke="midnightblue" points="240.89,-279.5 250.89,-276 240.89,-272.5 240.89,-279.5"/>
</g>
<!-- Node26 -->
<g id="node26" class="node">
<title>Node26</title>
<g id="a_node26"><a xlink:href="cleanup_8h.html#afd12c2961e60b6147c54c2ea99a70669" target="_top" xlink:title="Frees a NULL&#45;terminated char ** array.">
<polygon fill="none" stroke="black" points="422.5,-266.5 422.5,-285.5 515.5,-285.5 515.5,-266.5 422.5,-266.5"/>
<text text-anchor="middle" x="469" y="-273.5" font-family="Helvetica,sans-Serif" font-size="10.00">ft_free_char_arr</text>
</a>
</g>
</g>
<!-- Node20&#45;&gt;Node26 -->
<g id="edge28" class="edge">
<title>Node20&#45;&gt;Node26</title>
<path fill="none" stroke="midnightblue" d="M172.33,-285.51C188.95,-289.27 208.83,-293.14 227,-295 286.25,-301.05 301.67,-300.23 361,-295 378.43,-293.46 397.28,-290.55 414.22,-287.45"/>
<polygon fill="midnightblue" stroke="midnightblue" points="415.32,-290.81 424.5,-285.51 414.03,-283.93 415.32,-290.81"/>
</g>
<!-- Node27 -->
<g id="node27" class="node">
<title>Node27</title>
<g id="a_node27"><a xlink:href="import__file_8h.html#a996e353fb1cf0ba1e9706f5d0c12e111" target="_top" xlink:title="Check file extension, import file and prepare for use.">
<polygon fill="none" stroke="black" points="253.5,-342.5 253.5,-361.5 334.5,-361.5 334.5,-342.5 253.5,-342.5"/>
<text text-anchor="middle" x="294" y="-349.5" font-family="Helvetica,sans-Serif" font-size="10.00">ft_import_file</text>
</a>
</g>
</g>
<!-- Node20&#45;&gt;Node27 -->
<g id="edge29" class="edge">
<title>Node20&#45;&gt;Node27</title>
<path fill="none" stroke="midnightblue" d="M150.21,-285.64C168.13,-296.74 199,-315.11 227,-328 235.54,-331.93 244.92,-335.67 253.87,-338.98"/>
<polygon fill="midnightblue" stroke="midnightblue" points="252.74,-342.3 263.34,-342.39 255.11,-335.71 252.74,-342.3"/>
</g>
<!-- Node39 -->
<g id="node35" class="node">
<title>Node39</title>
<g id="a_node35"><a xlink:href="parse_8c.html#a5c7cd128e38180fcea33c559a075424e" target="_top" xlink:title="Allocates memory for lights and hittable array.">
<polygon fill="none" stroke="black" points="250,-228.5 250,-247.5 338,-247.5 338,-228.5 250,-228.5"/>
<text text-anchor="middle" x="294" y="-235.5" font-family="Helvetica,sans-Serif" font-size="10.00">ft_malloc_ents</text>
</a>
</g>
</g>
<!-- Node20&#45;&gt;Node39 -->
<g id="edge42" class="edge">
<title>Node20&#45;&gt;Node39</title>
<path fill="none" stroke="midnightblue" d="M172.04,-267.09C193.34,-261.97 220.36,-255.47 243.46,-249.91"/>
<polygon fill="midnightblue" stroke="midnightblue" points="244.52,-253.26 253.43,-247.52 242.88,-246.45 244.52,-253.26"/>
</g>
<!-- Node40 -->
<g id="node36" class="node">
<title>Node40</title>
<g id="a_node36"><a xlink:href="parse_8c.html#a5da409b03d9f22daaa6d5673944800d3" target="_top" xlink:title="Dispatcher for different parsing functions.">
<polygon fill="none" stroke="black" points="252,-190.5 252,-209.5 336,-209.5 336,-190.5 252,-190.5"/>
<text text-anchor="middle" x="294" y="-197.5" font-family="Helvetica,sans-Serif" font-size="10.00">ft_parse_lines</text>
</a>
</g>
</g>
<!-- Node20&#45;&gt;Node40 -->
<g id="edge43" class="edge">
<title>Node20&#45;&gt;Node40</title>
<path fill="none" stroke="midnightblue" d="M147.78,-266.5C164.99,-254.07 196.94,-232.33 227,-219 232.31,-216.65 237.98,-214.5 243.69,-212.57"/>
<polygon fill="midnightblue" stroke="midnightblue" points="244.81,-215.89 253.28,-209.52 242.69,-209.21 244.81,-215.89"/>
</g>
<!-- Node22 -->
<g id="node22" class="node">
<title>Node22</title>
<g id="a_node22"><a xlink:href="check_8c.html#a4560f2d54698ffbfb8262bc7cad02768" target="_top" xlink:title="Check if minimum number of specific entities was found.">
<polygon fill="none" stroke="black" points="407.5,-228.5 407.5,-247.5 530.5,-247.5 530.5,-228.5 407.5,-228.5"/>
<text text-anchor="middle" x="469" y="-235.5" font-family="Helvetica,sans-Serif" font-size="10.00">ft_check_entity_count</text>
</a>
</g>
</g>
<!-- Node21&#45;&gt;Node22 -->
<g id="edge24" class="edge">
<title>Node21&#45;&gt;Node22</title>
<path fill="none" stroke="midnightblue" d="M337.32,-266.7C360.62,-261.59 389.76,-255.19 414.61,-249.73"/>
<polygon fill="midnightblue" stroke="midnightblue" points="415.6,-253.09 424.61,-247.53 414.09,-246.26 415.6,-253.09"/>
</g>
<!-- Node23 -->
<g id="node23" class="node">
<title>Node23</title>
<g id="a_node23"><a xlink:href="check_8c.html#a9d550a03e395942fd0bb735c1dda47d9" target="_top" xlink:title="Dispatch function for different line types.">
<polygon fill="none" stroke="black" points="415.5,-190.5 415.5,-209.5 522.5,-209.5 522.5,-190.5 415.5,-190.5"/>
<text text-anchor="middle" x="469" y="-197.5" font-family="Helvetica,sans-Serif" font-size="10.00">ft_check_line_type</text>
</a>
</g>
</g>
<!-- Node21&#45;&gt;Node23 -->
<g id="edge25" class="edge">
<title>Node21&#45;&gt;Node23</title>
<path fill="none" stroke="midnightblue" d="M337.25,-267.47C345.47,-264.82 353.77,-261.4 361,-257 380.88,-244.91 377.01,-230.9 397,-219 400.64,-216.83 404.53,-214.91 408.54,-213.2"/>
<polygon fill="midnightblue" stroke="midnightblue" points="409.95,-216.41 418.07,-209.6 407.48,-209.86 409.95,-216.41"/>
</g>
<!-- Node24 -->
<g id="node24" class="node">
<title>Node24</title>
<g id="a_node24"><a xlink:href="check_8c.html#a3a2c8238788feab0a8d61cb6ef42d121" target="_top" xlink:title="Increase entity count, and check if too many.">
<polygon fill="none" stroke="black" points="419,-152.5 419,-171.5 519,-171.5 519,-152.5 419,-152.5"/>
<text text-anchor="middle" x="469" y="-159.5" font-family="Helvetica,sans-Serif" font-size="10.00">ft_incr_ent_count</text>
</a>
</g>
</g>
<!-- Node21&#45;&gt;Node24 -->
<g id="edge26" class="edge">
<title>Node21&#45;&gt;Node24</title>
<path fill="none" stroke="midnightblue" d="M337.11,-269.62C345.7,-266.82 354.19,-262.79 361,-257 389.48,-232.8 368.29,-204.93 397,-181 400.72,-177.9 404.91,-175.29 409.33,-173.11"/>
<polygon fill="midnightblue" stroke="midnightblue" points="410.8,-176.29 418.68,-169.21 408.1,-169.83 410.8,-176.29"/>
</g>
<!-- Node25 -->
<g id="node25" class="node">
<title>Node25</title>
<g id="a_node25"><a xlink:href="error__msg_8h.html#a278f4b45a52fcddd1925e2b9c50266ed" target="_top" xlink:title="Print error message with a number.">
<polygon fill="none" stroke="black" points="418.5,-114.5 418.5,-133.5 519.5,-133.5 519.5,-114.5 418.5,-114.5"/>
<text text-anchor="middle" x="469" y="-121.5" font-family="Helvetica,sans-Serif" font-size="10.00">ft_perror_number</text>
</a>
</g>
</g>
<!-- Node21&#45;&gt;Node25 -->
<g id="edge27" class="edge">
<title>Node21&#45;&gt;Node25</title>
<path fill="none" stroke="midnightblue" d="M337.04,-270.52C345.83,-267.68 354.43,-263.41 361,-257 399.05,-219.91 358.6,-179.73 397,-143 400.56,-139.6 404.66,-136.79 409.05,-134.47"/>
<polygon fill="midnightblue" stroke="midnightblue" points="410.66,-137.59 418.42,-130.37 407.85,-131.18 410.66,-137.59"/>
</g>
<!-- Node27&#45;&gt;Node26 -->
<g id="edge34" class="edge">
<title>Node27&#45;&gt;Node26</title>
<path fill="none" stroke="midnightblue" d="M329.07,-342.47C339.7,-338.76 351.2,-333.95 361,-328 379.56,-316.74 377.97,-305.44 397,-295 401.89,-292.32 407.19,-289.99 412.61,-287.99"/>
<polygon fill="midnightblue" stroke="midnightblue" points="414.05,-291.2 422.42,-284.71 411.83,-284.56 414.05,-291.2"/>
</g>
<!-- Node28 -->
<g id="node28" class="node">
<title>Node28</title>
<g id="a_node28"><a xlink:href="error__syscall_8h.html#a3e39b3f560404b954295453e40c41171" target="_top" xlink:title="Wrapper function for close() to print errno.">
<polygon fill="none" stroke="black" points="432.5,-418.5 432.5,-437.5 505.5,-437.5 505.5,-418.5 432.5,-418.5"/>
<text text-anchor="middle" x="469" y="-425.5" font-family="Helvetica,sans-Serif" font-size="10.00">ft_err_close</text>
</a>
</g>
</g>
<!-- Node27&#45;&gt;Node28 -->
<g id="edge30" class="edge">
<title>Node27&#45;&gt;Node28</title>
<path fill="none" stroke="midnightblue" d="M334.83,-359.77C343.82,-362.52 353.05,-366.17 361,-371 380.88,-383.09 377.01,-397.1 397,-409 404.73,-413.6 413.58,-417.11 422.36,-419.77"/>
<polygon fill="midnightblue" stroke="midnightblue" points="421.6,-423.2 432.16,-422.44 423.43,-416.44 421.6,-423.2"/>
</g>
<!-- Node29 -->
<g id="node29" class="node">
<title>Node29</title>
<g id="a_node29"><a xlink:href="error__syscall_8h.html#abf340aed99dd0770e292523412675343" target="_top" xlink:title="Wrapper function for open() to print errno.">
<polygon fill="none" stroke="black" points="433.5,-380.5 433.5,-399.5 504.5,-399.5 504.5,-380.5 433.5,-380.5"/>
<text text-anchor="middle" x="469" y="-387.5" font-family="Helvetica,sans-Serif" font-size="10.00">ft_err_open</text>
</a>
</g>
</g>
<!-- Node27&#45;&gt;Node29 -->
<g id="edge32" class="edge">
<title>Node27&#45;&gt;Node29</title>
<path fill="none" stroke="midnightblue" d="M334.69,-360.72C361.14,-366.53 395.94,-374.17 423.36,-380.19"/>
<polygon fill="midnightblue" stroke="midnightblue" points="422.95,-383.69 433.47,-382.41 424.45,-376.85 422.95,-383.69"/>
</g>
<!-- Node30 -->
<g id="node30" class="node">
<title>Node30</title>
<g id="a_node30"><a xlink:href="import__file_8c.html#ab0b327c549706e7478db9544c25886a5" target="_top" xlink:title="Check if valid file extension.">
<polygon fill="none" stroke="black" points="414.5,-342.5 414.5,-361.5 523.5,-361.5 523.5,-342.5 414.5,-342.5"/>
<text text-anchor="middle" x="469" y="-349.5" font-family="Helvetica,sans-Serif" font-size="10.00">ft_isvalid_filename</text>
</a>
</g>
</g>
<!-- Node27&#45;&gt;Node30 -->
<g id="edge35" class="edge">
<title>Node27&#45;&gt;Node30</title>
<path fill="none" stroke="midnightblue" d="M334.69,-352C355.28,-352 380.95,-352 404.24,-352"/>
<polygon fill="midnightblue" stroke="midnightblue" points="404.4,-355.5 414.4,-352 404.4,-348.5 404.4,-355.5"/>
</g>
<!-- Node31 -->
<g id="node31" class="node">
<title>Node31</title>
<g id="a_node31"><a xlink:href="import__file_8c.html#a9260f4680d33314ef51e7096426acdae" target="_top" xlink:title="Import file and split it into lines.">
<polygon fill="none" stroke="black" points="419,-304.5 419,-323.5 519,-323.5 519,-304.5 419,-304.5"/>
<text text-anchor="middle" x="469" y="-311.5" font-family="Helvetica,sans-Serif" font-size="10.00">ft_read_and_split</text>
</a>
</g>
</g>
<!-- Node27&#45;&gt;Node31 -->
<g id="edge37" class="edge">
<title>Node27&#45;&gt;Node31</title>
<path fill="none" stroke="midnightblue" d="M334.69,-343.28C358.38,-338.08 388.77,-331.4 414.55,-325.74"/>
<polygon fill="midnightblue" stroke="midnightblue" points="415.54,-329.11 424.55,-323.54 414.03,-322.27 415.54,-329.11"/>
</g>
<!-- Node28&#45;&gt;Node13 -->
<g id="edge31" class="edge">
<title>Node28&#45;&gt;Node13</title>
<path fill="none" stroke="midnightblue" d="M505.64,-432.45C529.03,-435.38 559.6,-439.2 583.54,-442.19"/>
<polygon fill="midnightblue" stroke="midnightblue" points="583.33,-445.69 593.69,-443.46 584.2,-438.75 583.33,-445.69"/>
</g>
<!-- Node29&#45;&gt;Node13 -->
<g id="edge33" class="edge">
<title>Node29&#45;&gt;Node13</title>
<path fill="none" stroke="midnightblue" d="M504.69,-397.97C516.36,-401 529.37,-404.76 541,-409 559.49,-415.75 579.52,-425.13 595.03,-432.88"/>
<polygon fill="midnightblue" stroke="midnightblue" points="593.55,-436.05 604.06,-437.45 596.72,-429.81 593.55,-436.05"/>
</g>
<!-- Node30&#45;&gt;Node13 -->
<g id="edge36" class="edge">
<title>Node30&#45;&gt;Node13</title>
<path fill="none" stroke="midnightblue" d="M518.61,-361.57C526.36,-364.06 534.09,-367.16 541,-371 568.23,-386.14 593.35,-412.44 608.18,-429.78"/>
<polygon fill="midnightblue" stroke="midnightblue" points="605.51,-432.05 614.6,-437.49 610.89,-427.57 605.51,-432.05"/>
</g>
<!-- Node31&#45;&gt;Node13 -->
<g id="edge41" class="edge">
<title>Node31&#45;&gt;Node13</title>
<path fill="none" stroke="midnightblue" d="M519.33,-322.42C526.99,-325.04 534.5,-328.49 541,-333 559.45,-345.82 593.56,-399.69 611.04,-428.55"/>
<polygon fill="midnightblue" stroke="midnightblue" points="608.14,-430.51 616.29,-437.29 614.14,-426.91 608.14,-430.51"/>
</g>
<!-- Node32 -->
<g id="node32" class="node">
<title>Node32</title>
<g id="a_node32"><a xlink:href="import__file_8h.html#af1a4fd87c14e1f5d0b126bfc848d4761" target="_top" xlink:title="Destroy malloced buffer.">
<polygon fill="none" stroke="black" points="580,-342.5 580,-361.5 666,-361.5 666,-342.5 580,-342.5"/>
<text text-anchor="middle" x="623" y="-349.5" font-family="Helvetica,sans-Serif" font-size="10.00">ft_buf_destroy</text>
</a>
</g>
</g>
<!-- Node31&#45;&gt;Node32 -->
<g id="edge38" class="edge">
<title>Node31&#45;&gt;Node32</title>
<path fill="none" stroke="midnightblue" d="M508.36,-323.59C528.32,-328.58 552.93,-334.73 574.13,-340.03"/>
<polygon fill="midnightblue" stroke="midnightblue" points="573.37,-343.45 583.92,-342.48 575.07,-336.66 573.37,-343.45"/>
</g>
<!-- Node33 -->
<g id="node33" class="node">
<title>Node33</title>
<g id="a_node33"><a xlink:href="import__file_8h.html#a738f6fd9290967f972da877e935cb8d8" target="_top" xlink:title="Initiates a t_buf buffer.">
<polygon fill="none" stroke="red" points="590.5,-304.5 590.5,-323.5 655.5,-323.5 655.5,-304.5 590.5,-304.5"/>
<text text-anchor="middle" x="623" y="-311.5" font-family="Helvetica,sans-Serif" font-size="10.00">ft_buf_init</text>
</a>
</g>
</g>
<!-- Node31&#45;&gt;Node33 -->
<g id="edge39" class="edge">
<title>Node31&#45;&gt;Node33</title>
<path fill="none" stroke="midnightblue" d="M519.35,-314C538.95,-314 561.26,-314 580.06,-314"/>
<polygon fill="midnightblue" stroke="midnightblue" points="580.11,-317.5 590.11,-314 580.11,-310.5 580.11,-317.5"/>
</g>
<!-- Node36 -->
<g id="node34" class="node">
<title>Node36</title>
<g id="a_node34"><a xlink:href="import__file_8h.html#af0392d80791e758ec536af492c9cfe07" target="_top" xlink:title="Reads provided file into buffer.">
<polygon fill="none" stroke="red" points="577,-266.5 577,-285.5 669,-285.5 669,-266.5 577,-266.5"/>
<text text-anchor="middle" x="623" y="-273.5" font-family="Helvetica,sans-Serif" font-size="10.00">ft_buf_read_file</text>
</a>
</g>
</g>
<!-- Node31&#45;&gt;Node36 -->
<g id="edge40" class="edge">
<title>Node31&#45;&gt;Node36</title>
<path fill="none" stroke="midnightblue" d="M508.36,-304.41C528.32,-299.42 552.93,-293.27 574.13,-287.97"/>
<polygon fill="midnightblue" stroke="midnightblue" points="575.07,-291.34 583.92,-285.52 573.37,-284.55 575.07,-291.34"/>
</g>
<!-- Node41&#45;&gt;Node15 -->
<g id="edge56" class="edge">
<title>Node41&#45;&gt;Node15</title>
<path fill="none" stroke="midnightblue" d="M147.42,-209.62C160.07,-220.03 179.42,-237.74 191,-257 218.37,-302.54 188.95,-333.91 227,-371 232.89,-376.74 240.39,-380.77 248.22,-383.58"/>
<polygon fill="midnightblue" stroke="midnightblue" points="247.25,-386.95 257.83,-386.46 249.25,-380.24 247.25,-386.95"/>
</g>
<!-- Node42 -->
<g id="node38" class="node">
<title>Node42</title>
<g id="a_node38"><a xlink:href="render__loop__mlx_8c.html#af908c05cb19e716220bc98fcf9582573" target="_top" xlink:title=" ">
<polygon fill="none" stroke="black" points="251,-646.5 251,-665.5 337,-665.5 337,-646.5 251,-646.5"/>
<text text-anchor="middle" x="294" y="-653.5" font-family="Helvetica,sans-Serif" font-size="10.00">ft_draw_scene</text>
</a>
</g>
</g>
<!-- Node41&#45;&gt;Node42 -->
<g id="edge46" class="edge">
<title>Node41&#45;&gt;Node42</title>
<path fill="none" stroke="midnightblue" d="M148.67,-209.59C161.93,-219.72 181.4,-236.99 191,-257 249.84,-379.68 178.75,-433.79 227,-561 238.38,-591.01 261.28,-620.58 276.88,-638.56"/>
<polygon fill="midnightblue" stroke="midnightblue" points="274.6,-641.27 283.87,-646.41 279.83,-636.61 274.6,-641.27"/>
</g>
<!-- Node108 -->
<g id="node45" class="node">
<title>Node108</title>
<g id="a_node45"><a xlink:href="render_8h.html#a367bbd1df5c5d7a6480f93589d027d12" target="_top" xlink:title="Handles keypresses.">
<polygon fill="none" stroke="black" points="243.5,-152.5 243.5,-171.5 344.5,-171.5 344.5,-152.5 243.5,-152.5"/>
<text text-anchor="middle" x="294" y="-159.5" font-family="Helvetica,sans-Serif" font-size="10.00">ft_keyhook_press</text>
</a>
</g>
</g>
<!-- Node41&#45;&gt;Node108 -->
<g id="edge57" class="edge">
<title>Node41&#45;&gt;Node108</title>
<path fill="none" stroke="midnightblue" d="M174.87,-190.41C195.72,-185.4 221.43,-179.21 243.54,-173.89"/>
<polygon fill="midnightblue" stroke="midnightblue" points="244.51,-177.26 253.42,-171.52 242.88,-170.46 244.51,-177.26"/>
</g>
<!-- Node109 -->
<g id="node46" class="node">
<title>Node109</title>
<g id="a_node46"><a xlink:href="render_8h.html#a2c564d8558abdc381bb98e5da40461a6" target="_top" xlink:title="Handles key releases.">
<polygon fill="none" stroke="black" points="238.5,-114.5 238.5,-133.5 349.5,-133.5 349.5,-114.5 238.5,-114.5"/>
<text text-anchor="middle" x="294" y="-121.5" font-family="Helvetica,sans-Serif" font-size="10.00">ft_keyhook_release</text>
</a>
</g>
</g>
<!-- Node41&#45;&gt;Node109 -->
<g id="edge58" class="edge">
<title>Node41&#45;&gt;Node109</title>
<path fill="none" stroke="midnightblue" d="M171.73,-190.4C178.41,-187.87 185.12,-184.77 191,-181 210.59,-168.45 207.12,-155.09 227,-143 230.55,-140.84 234.36,-138.91 238.29,-137.2"/>
<polygon fill="midnightblue" stroke="midnightblue" points="239.57,-140.46 247.62,-133.58 237.03,-133.94 239.57,-140.46"/>
</g>
<!-- Node110 -->
<g id="node47" class="node">
<title>Node110</title>
<g id="a_node47"><a xlink:href="render_8h.html#a789550edaaab12e30e0d8c779abdc1b8" target="_top" xlink:title="Handles mouse movement.">
<polygon fill="none" stroke="black" points="232,-76.5 232,-95.5 356,-95.5 356,-76.5 232,-76.5"/>
<text text-anchor="middle" x="294" y="-83.5" font-family="Helvetica,sans-Serif" font-size="10.00">ft_mouse_hook_move</text>
</a>
</g>
</g>
<!-- Node41&#45;&gt;Node110 -->
<g id="edge59" class="edge">
<title>Node41&#45;&gt;Node110</title>
<path fill="none" stroke="midnightblue" d="M175.99,-190.46C181.43,-187.99 186.63,-184.89 191,-181 218.91,-156.14 198.52,-129.2 227,-105 228.99,-103.31 231.12,-101.77 233.35,-100.37"/>
<polygon fill="midnightblue" stroke="midnightblue" points="235.18,-103.36 242.39,-95.61 231.92,-97.17 235.18,-103.36"/>
</g>
<!-- Node121 -->
<g id="node49" class="node">
<title>Node121</title>
<g id="a_node49"><a xlink:href="render_8h.html#a187d0ce87f143b9dcd622e8d34968250" target="_top" xlink:title="Handles mouse button presses.">
<polygon fill="none" stroke="black" points="233,-38.5 233,-57.5 355,-57.5 355,-38.5 233,-38.5"/>
<text text-anchor="middle" x="294" y="-45.5" font-family="Helvetica,sans-Serif" font-size="10.00">ft_mouse_hook_press</text>
</a>
</g>
</g>
<!-- Node41&#45;&gt;Node121 -->
<g id="edge61" class="edge">
<title>Node41&#45;&gt;Node121</title>
<path fill="none" stroke="midnightblue" d="M177.61,-190.44C182.56,-187.98 187.19,-184.89 191,-181 228.17,-143.03 188.95,-104.09 227,-67 228.47,-65.56 230.05,-64.24 231.7,-63.01"/>
<polygon fill="midnightblue" stroke="midnightblue" points="233.81,-65.82 240.56,-57.65 230.19,-59.83 233.81,-65.82"/>
</g>
<!-- Node122 -->
<g id="node50" class="node">
<title>Node122</title>
<g id="a_node50"><a xlink:href="render_8h.html#aeb525488cde2bb2dd2881042a083957a" target="_top" xlink:title="Handles mouse button releases.">
<polygon fill="none" stroke="black" points="228,-0.5 228,-19.5 360,-19.5 360,-0.5 228,-0.5"/>
<text text-anchor="middle" x="294" y="-7.5" font-family="Helvetica,sans-Serif" font-size="10.00">ft_mouse_hook_release</text>
</a>
</g>
</g>
<!-- Node41&#45;&gt;Node122 -->
<g id="edge62" class="edge">
<title>Node41&#45;&gt;Node122</title>
<path fill="none" stroke="midnightblue" d="M178.44,-190.41C183.13,-187.96 187.48,-184.87 191,-181 237.72,-129.64 179.1,-79.25 227,-29 228.39,-27.54 229.88,-26.2 231.46,-24.95"/>
<polygon fill="midnightblue" stroke="midnightblue" points="233.4,-27.86 239.95,-19.53 229.63,-21.96 233.4,-27.86"/>
</g>
<!-- Node43 -->
<g id="node39" class="node">
<title>Node43</title>
<g id="a_node39"><a xlink:href="render_8h.html#aef5f4f911a32ea5cc0ee9666358c049d" target="_top" xlink:title="Aplha blends current image with menu color to create overlay.">
<polygon fill="none" stroke="black" points="410,-684.5 410,-703.5 528,-703.5 528,-684.5 410,-684.5"/>
<text text-anchor="middle" x="469" y="-691.5" font-family="Helvetica,sans-Serif" font-size="10.00">ft_blend_background</text>
</a>
</g>
</g>
<!-- Node42&#45;&gt;Node43 -->
<g id="edge47" class="edge">
<title>Node42&#45;&gt;Node43</title>
<path fill="none" stroke="midnightblue" d="M337.32,-665.3C360.62,-670.41 389.76,-676.81 414.61,-682.27"/>
<polygon fill="midnightblue" stroke="midnightblue" points="414.09,-685.74 424.61,-684.47 415.6,-678.91 414.09,-685.74"/>
</g>
<!-- Node44 -->
<g id="node40" class="node">
<title>Node44</title>
<g id="a_node40"><a xlink:href="render_8h.html#a735dfeb13434c88e3b4a76990386763b" target="_top" xlink:title="Puts the current menu page on the screen.">
<polygon fill="none" stroke="red" points="418,-646.5 418,-665.5 520,-665.5 520,-646.5 418,-646.5"/>
<text text-anchor="middle" x="469" y="-653.5" font-family="Helvetica,sans-Serif" font-size="10.00">ft_menu_put_text</text>
</a>
</g>
</g>
<!-- Node42&#45;&gt;Node44 -->
<g id="edge48" class="edge">
<title>Node42&#45;&gt;Node44</title>
<path fill="none" stroke="midnightblue" d="M337.32,-656C358.49,-656 384.5,-656 407.72,-656"/>
<polygon fill="midnightblue" stroke="midnightblue" points="407.82,-659.5 417.82,-656 407.82,-652.5 407.82,-659.5"/>
</g>
<!-- Node78 -->
<g id="node43" class="node">
<title>Node78</title>
<g id="a_node43"><a xlink:href="render_8h.html#ac6bbab3b2e39615661f011a484a5251e" target="_top" xlink:title="Outputs the current mlx img as a ppm file.">
<polygon fill="none" stroke="black" points="417,-608.5 417,-627.5 521,-627.5 521,-608.5 417,-608.5"/>
<text text-anchor="middle" x="469" y="-615.5" font-family="Helvetica,sans-Serif" font-size="10.00">ft_output_as_ppm</text>
</a>
</g>
</g>
<!-- Node42&#45;&gt;Node78 -->
<g id="edge51" class="edge">
<title>Node42&#45;&gt;Node78</title>
<path fill="none" stroke="midnightblue" d="M337.32,-646.7C360.62,-641.59 389.76,-635.19 414.61,-629.73"/>
<polygon fill="midnightblue" stroke="midnightblue" points="415.6,-633.09 424.61,-627.53 414.09,-626.26 415.6,-633.09"/>
</g>
<!-- Node79 -->
<g id="node44" class="node">
<title>Node79</title>
<g id="a_node44"><a xlink:href="render_8h.html#a4f238596a8fca72f9af80be57cf06d34" target="_top" xlink:title="Renders the scene to the mlx img.">
<polygon fill="none" stroke="red" points="421,-722.5 421,-741.5 517,-741.5 517,-722.5 421,-722.5"/>
<text text-anchor="middle" x="469" y="-729.5" font-family="Helvetica,sans-Serif" font-size="10.00">ft_render_image</text>
</a>
</g>
</g>
<!-- Node42&#45;&gt;Node79 -->
<g id="edge52" class="edge">
<title>Node42&#45;&gt;Node79</title>
<path fill="none" stroke="midnightblue" d="M309.62,-665.71C328.93,-678.16 364.29,-699.73 397,-713 402.9,-715.39 409.19,-717.58 415.5,-719.54"/>
<polygon fill="midnightblue" stroke="midnightblue" points="414.8,-722.98 425.38,-722.44 416.78,-716.26 414.8,-722.98"/>
</g>
<!-- Node45 -->
<g id="node41" class="node">
<title>Node45</title>
<g id="a_node41"><a xlink:href="menu__put_8h.html#ab168a506eaeb6b31df4edaea80406d68" target="_top" xlink:title="Puts generic info on the screen.">
<polygon fill="none" stroke="red" points="589,-665.5 589,-684.5 657,-684.5 657,-665.5 589,-665.5"/>
<text text-anchor="middle" x="623" y="-672.5" font-family="Helvetica,sans-Serif" font-size="10.00">ft_put_info</text>
</a>
</g>
</g>
<!-- Node44&#45;&gt;Node45 -->
<g id="edge49" class="edge">
<title>Node44&#45;&gt;Node45</title>
<path fill="none" stroke="midnightblue" d="M520.19,-662.27C539.07,-664.63 560.37,-667.3 578.58,-669.57"/>
<polygon fill="midnightblue" stroke="midnightblue" points="578.27,-673.06 588.63,-670.83 579.14,-666.12 578.27,-673.06"/>
</g>
<!-- Node47 -->
<g id="node42" class="node">
<title>Node47</title>
<g id="a_node42"><a xlink:href="menu__put_8h.html#a9edd796e7ba561ccf2d26e9b9863bee1" target="_top" xlink:title="Puts the current control mode on the screen.">
<polygon fill="none" stroke="red" points="584.5,-627.5 584.5,-646.5 661.5,-646.5 661.5,-627.5 584.5,-627.5"/>
<text text-anchor="middle" x="623" y="-634.5" font-family="Helvetica,sans-Serif" font-size="10.00">ft_put_mode</text>
</a>
</g>
</g>
<!-- Node44&#45;&gt;Node47 -->
<g id="edge50" class="edge">
<title>Node44&#45;&gt;Node47</title>
<path fill="none" stroke="midnightblue" d="M520.19,-649.73C537.52,-647.56 556.88,-645.14 574.03,-643"/>
<polygon fill="midnightblue" stroke="midnightblue" points="574.89,-646.42 584.38,-641.7 574.03,-639.47 574.89,-646.42"/>
</g>
<!-- Node79&#45;&gt;Node5 -->
<g id="edge54" class="edge">
<title>Node79&#45;&gt;Node5</title>
<path fill="none" stroke="midnightblue" d="M517.18,-740.99C525.5,-743.75 533.8,-747.34 541,-752 561.93,-765.54 557.78,-779.13 577,-795 581.48,-798.7 586.58,-802.13 591.71,-805.2"/>
<polygon fill="midnightblue" stroke="midnightblue" points="590.39,-808.47 600.82,-810.29 593.8,-802.35 590.39,-808.47"/>
</g>
<!-- Node79&#45;&gt;Node7 -->
<g id="edge53" class="edge">
<title>Node79&#45;&gt;Node7</title>
<path fill="none" stroke="midnightblue" d="M504.33,-741.57C515.98,-744.84 529.07,-748.55 541,-752 553.79,-755.69 567.68,-759.79 580.3,-763.53"/>
<polygon fill="midnightblue" stroke="midnightblue" points="579.52,-766.95 590.1,-766.44 581.51,-760.24 579.52,-766.95"/>
</g>
<!-- Node79&#45;&gt;Node8 -->
<g id="edge55" class="edge">
<title>Node79&#45;&gt;Node8</title>
<path fill="none" stroke="midnightblue" d="M517.26,-732.93C535.85,-733.3 557.13,-733.72 575.63,-734.08"/>
<polygon fill="midnightblue" stroke="midnightblue" points="575.81,-737.59 585.88,-734.29 575.95,-730.59 575.81,-737.59"/>
</g>
<!-- Node111 -->
<g id="node48" class="node">
<title>Node111</title>
<g id="a_node48"><a xlink:href="render__mouse_8c.html#a8b0cab63a8053d366bbefead351d039a" target="_top" xlink:title="Rotates the camera with the mouse.">
<polygon fill="none" stroke="red" points="401,-76.5 401,-95.5 537,-95.5 537,-76.5 401,-76.5"/>
<text text-anchor="middle" x="469" y="-83.5" font-family="Helvetica,sans-Serif" font-size="10.00">ft_mouse_hook_rot_cam</text>
</a>
</g>
</g>
<!-- Node110&#45;&gt;Node111 -->
<g id="edge60" class="edge">
<title>Node110&#45;&gt;Node111</title>
<path fill="none" stroke="midnightblue" d="M356.48,-86C367.6,-86 379.32,-86 390.82,-86"/>
<polygon fill="midnightblue" stroke="midnightblue" points="390.84,-89.5 400.84,-86 390.84,-82.5 390.84,-89.5"/>
</g>
</g>
</svg>
