<?xml version="1.0" encoding="UTF-8" standalone="no"?>
<!DOCTYPE svg PUBLIC "-//W3C//DTD SVG 1.1//EN"
 "http://www.w3.org/Graphics/SVG/1.1/DTD/svg11.dtd">
<!-- Generated by graphviz version 2.43.0 (0)
 -->
<!-- Title: src/main.c Pages: 1 -->
<svg width="1343pt" height="644pt"
 viewBox="0.00 0.00 1342.70 644.00" xmlns="http://www.w3.org/2000/svg" xmlns:xlink="http://www.w3.org/1999/xlink">
<g id="graph0" class="graph" transform="scale(1 1) rotate(0) translate(4 640)">
<title>src/main.c</title>
<!-- Node1 -->
<g id="node1" class="node">
<title>Node1</title>
<g id="a_node1"><a xlink:title=" ">
<polygon fill="#bfbfbf" stroke="black" points="174.2,-616.5 174.2,-635.5 241.2,-635.5 241.2,-616.5 174.2,-616.5"/>
<text text-anchor="middle" x="207.7" y="-623.5" font-family="Helvetica,sans-Serif" font-size="10.00">src/main.c</text>
</a>
</g>
</g>
<!-- Node2 -->
<g id="node2" class="node">
<title>Node2</title>
<g id="a_node2"><a xlink:href="mini_r_t_8h.html" target="_top" xlink:title=" ">
<polygon fill="none" stroke="black" points="178.2,-560.5 178.2,-579.5 237.2,-579.5 237.2,-560.5 178.2,-560.5"/>
<text text-anchor="middle" x="207.7" y="-567.5" font-family="Helvetica,sans-Serif" font-size="10.00">miniRT.h</text>
</a>
</g>
</g>
<!-- Node1&#45;&gt;Node2 -->
<g id="edge1" class="edge">
<title>Node1&#45;&gt;Node2</title>
<path fill="none" stroke="midnightblue" d="M207.7,-616.08C207.7,-609.01 207.7,-598.86 207.7,-589.99"/>
<polygon fill="midnightblue" stroke="midnightblue" points="211.2,-589.75 207.7,-579.75 204.2,-589.75 211.2,-589.75"/>
</g>
<!-- Node3 -->
<g id="node3" class="node">
<title>Node3</title>
<g id="a_node3"><a xlink:title=" ">
<polygon fill="none" stroke="#bfbfbf" points="320.7,-112.5 320.7,-131.5 370.7,-131.5 370.7,-112.5 320.7,-112.5"/>
<text text-anchor="middle" x="345.7" y="-119.5" font-family="Helvetica,sans-Serif" font-size="10.00">stdio.h</text>
</a>
</g>
</g>
<!-- Node2&#45;&gt;Node3 -->
<g id="edge2" class="edge">
<title>Node2&#45;&gt;Node3</title>
<path fill="none" stroke="midnightblue" d="M177.91,-565.52C130.83,-559.45 42.25,-545.46 19.7,-524 -2.1,-503.25 0.7,-489.1 0.7,-459 0.7,-459 0.7,-459 0.7,-345 0.7,-299.19 43.11,-306.19 80.7,-280 125.08,-249.08 264.8,-168.99 321.47,-136.75"/>
<polygon fill="midnightblue" stroke="midnightblue" points="323.47,-139.63 330.43,-131.65 320.01,-133.55 323.47,-139.63"/>
</g>
<!-- Node4 -->
<g id="node4" class="node">
<title>Node4</title>
<g id="a_node4"><a xlink:title=" ">
<polygon fill="none" stroke="#bfbfbf" points="327.2,-280.5 327.2,-299.5 374.2,-299.5 374.2,-280.5 327.2,-280.5"/>
<text text-anchor="middle" x="350.7" y="-287.5" font-family="Helvetica,sans-Serif" font-size="10.00">fcntl.h</text>
</a>
</g>
</g>
<!-- Node2&#45;&gt;Node4 -->
<g id="edge3" class="edge">
<title>Node2&#45;&gt;Node4</title>
<path fill="none" stroke="midnightblue" d="M188.64,-560.43C173.55,-552.78 152.88,-540.29 139.7,-524 100.8,-475.93 60.94,-443.15 95.7,-392 145.98,-318 259.82,-298.22 316.83,-292.93"/>
<polygon fill="midnightblue" stroke="midnightblue" points="317.44,-296.39 327.12,-292.08 316.86,-289.42 317.44,-296.39"/>
</g>
<!-- Node5 -->
<g id="node5" class="node">
<title>Node5</title>
<g id="a_node5"><a xlink:title=" ">
<polygon fill="none" stroke="#bfbfbf" points="1190.7,-392.5 1190.7,-411.5 1246.7,-411.5 1246.7,-392.5 1190.7,-392.5"/>
<text text-anchor="middle" x="1218.7" y="-399.5" font-family="Helvetica,sans-Serif" font-size="10.00">unistd.h</text>
</a>
</g>
</g>
<!-- Node2&#45;&gt;Node5 -->
<g id="edge4" class="edge">
<title>Node2&#45;&gt;Node5</title>
<path fill="none" stroke="midnightblue" d="M237.44,-567.81C393.66,-561.29 1115.24,-528.09 1192.7,-468 1206.93,-456.96 1213.4,-436.91 1216.32,-421.99"/>
<polygon fill="midnightblue" stroke="midnightblue" points="1219.83,-422.24 1217.94,-411.81 1212.92,-421.14 1219.83,-422.24"/>
</g>
<!-- Node6 -->
<g id="node6" class="node">
<title>Node6</title>
<g id="a_node6"><a xlink:title=" ">
<polygon fill="none" stroke="#bfbfbf" points="148.7,-504.5 148.7,-523.5 208.7,-523.5 208.7,-504.5 148.7,-504.5"/>
<text text-anchor="middle" x="178.7" y="-511.5" font-family="Helvetica,sans-Serif" font-size="10.00">ft_print.h</text>
</a>
</g>
</g>
<!-- Node2&#45;&gt;Node6 -->
<g id="edge5" class="edge">
<title>Node2&#45;&gt;Node6</title>
<path fill="none" stroke="midnightblue" d="M202.91,-560.08C198.94,-552.69 193.18,-541.95 188.27,-532.81"/>
<polygon fill="midnightblue" stroke="midnightblue" points="191.21,-530.91 183.4,-523.75 185.05,-534.22 191.21,-530.91"/>
</g>
<!-- Node7 -->
<g id="node7" class="node">
<title>Node7</title>
<g id="a_node7"><a xlink:href="init_8h.html" target="_top" xlink:title=" ">
<polygon fill="none" stroke="black" points="29.2,-504.5 29.2,-523.5 70.2,-523.5 70.2,-504.5 29.2,-504.5"/>
<text text-anchor="middle" x="49.7" y="-511.5" font-family="Helvetica,sans-Serif" font-size="10.00">init.h</text>
</a>
</g>
</g>
<!-- Node2&#45;&gt;Node7 -->
<g id="edge6" class="edge">
<title>Node2&#45;&gt;Node7</title>
<path fill="none" stroke="midnightblue" d="M182.66,-560.44C154.83,-550.93 109.89,-535.57 80.07,-525.38"/>
<polygon fill="midnightblue" stroke="midnightblue" points="81.18,-522.06 70.58,-522.14 78.91,-528.68 81.18,-522.06"/>
</g>
<!-- Node16 -->
<g id="node16" class="node">
<title>Node16</title>
<g id="a_node16"><a xlink:href="camera_8h.html" target="_top" xlink:title=" ">
<polygon fill="none" stroke="black" points="525.7,-392.5 525.7,-411.5 587.7,-411.5 587.7,-392.5 525.7,-392.5"/>
<text text-anchor="middle" x="556.7" y="-399.5" font-family="Helvetica,sans-Serif" font-size="10.00">camera.h</text>
</a>
</g>
</g>
<!-- Node2&#45;&gt;Node16 -->
<g id="edge21" class="edge">
<title>Node2&#45;&gt;Node16</title>
<path fill="none" stroke="midnightblue" d="M216.2,-560.46C238.75,-538.3 302.81,-478.6 367.7,-448 415.73,-425.35 476.16,-413.54 515.58,-407.8"/>
<polygon fill="midnightblue" stroke="midnightblue" points="516.2,-411.25 525.62,-406.41 515.23,-404.32 516.2,-411.25"/>
</g>
<!-- Node24 -->
<g id="node24" class="node">
<title>Node24</title>
<g id="a_node24"><a xlink:href="parse__bonus_8h.html" target="_top" xlink:title=" ">
<polygon fill="none" stroke="black" points="193.2,-448.5 193.2,-467.5 280.2,-467.5 280.2,-448.5 193.2,-448.5"/>
<text text-anchor="middle" x="236.7" y="-455.5" font-family="Helvetica,sans-Serif" font-size="10.00">parse_bonus.h</text>
</a>
</g>
</g>
<!-- Node2&#45;&gt;Node24 -->
<g id="edge34" class="edge">
<title>Node2&#45;&gt;Node24</title>
<path fill="none" stroke="midnightblue" d="M209.98,-560.37C214.68,-542.54 225.55,-501.3 231.88,-477.27"/>
<polygon fill="midnightblue" stroke="midnightblue" points="235.27,-478.15 234.44,-467.59 228.5,-476.37 235.27,-478.15"/>
</g>
<!-- Node29 -->
<g id="node29" class="node">
<title>Node29</title>
<g id="a_node29"><a xlink:href="render__bonus_8h.html" target="_top" xlink:title=" ">
<polygon fill="none" stroke="black" points="660.7,-504.5 660.7,-523.5 752.7,-523.5 752.7,-504.5 660.7,-504.5"/>
<text text-anchor="middle" x="706.7" y="-511.5" font-family="Helvetica,sans-Serif" font-size="10.00">render_bonus.h</text>
</a>
</g>
</g>
<!-- Node2&#45;&gt;Node29 -->
<g id="edge45" class="edge">
<title>Node2&#45;&gt;Node29</title>
<path fill="none" stroke="midnightblue" d="M237.42,-565.78C318.44,-557.02 544.17,-532.59 650.26,-521.11"/>
<polygon fill="midnightblue" stroke="midnightblue" points="650.88,-524.56 660.45,-520.01 650.13,-517.6 650.88,-524.56"/>
</g>
<!-- Node8 -->
<g id="node8" class="node">
<title>Node8</title>
<g id="a_node8"><a xlink:href="entities__bonus_8h.html" target="_top" xlink:title=" ">
<polygon fill="none" stroke="black" points="263.2,-224.5 263.2,-243.5 360.2,-243.5 360.2,-224.5 263.2,-224.5"/>
<text text-anchor="middle" x="311.7" y="-231.5" font-family="Helvetica,sans-Serif" font-size="10.00">entities_bonus.h</text>
</a>
</g>
</g>
<!-- Node7&#45;&gt;Node8 -->
<g id="edge7" class="edge">
<title>Node7&#45;&gt;Node8</title>
<path fill="none" stroke="midnightblue" d="M48.26,-504.47C45.28,-486.02 38.7,-441 38.7,-403 38.7,-403 38.7,-403 38.7,-345 38.7,-298.51 176.63,-262.53 256.41,-245.61"/>
<polygon fill="midnightblue" stroke="midnightblue" points="257.24,-249.02 266.31,-243.55 255.81,-242.16 257.24,-249.02"/>
</g>
<!-- Node9 -->
<g id="node9" class="node">
<title>Node9</title>
<g id="a_node9"><a xlink:title=" ">
<polygon fill="none" stroke="#bfbfbf" points="493.7,-0.5 493.7,-19.5 555.7,-19.5 555.7,-0.5 493.7,-0.5"/>
<text text-anchor="middle" x="524.7" y="-7.5" font-family="Helvetica,sans-Serif" font-size="10.00">stdbool.h</text>
</a>
</g>
</g>
<!-- Node8&#45;&gt;Node9 -->
<g id="edge8" class="edge">
<title>Node8&#45;&gt;Node9</title>
<path fill="none" stroke="midnightblue" d="M360.62,-226.57C407,-219.45 472.15,-206.5 489.7,-188 531.34,-144.12 530.07,-65.73 526.94,-29.86"/>
<polygon fill="midnightblue" stroke="midnightblue" points="530.41,-29.39 525.91,-19.8 523.45,-30.11 530.41,-29.39"/>
</g>
<!-- Node10 -->
<g id="node10" class="node">
<title>Node10</title>
<g id="a_node10"><a xlink:title=" ">
<polygon fill="none" stroke="#bfbfbf" points="222.2,-56.5 222.2,-75.5 275.2,-75.5 275.2,-56.5 222.2,-56.5"/>
<text text-anchor="middle" x="248.7" y="-63.5" font-family="Helvetica,sans-Serif" font-size="10.00">stdlib.h</text>
</a>
</g>
</g>
<!-- Node8&#45;&gt;Node10 -->
<g id="edge9" class="edge">
<title>Node8&#45;&gt;Node10</title>
<path fill="none" stroke="midnightblue" d="M301.74,-224.4C292.72,-216.03 279.79,-202.49 272.7,-188 256.29,-154.45 251.1,-110.46 249.46,-85.82"/>
<polygon fill="midnightblue" stroke="midnightblue" points="252.95,-85.49 248.92,-75.69 245.96,-85.87 252.95,-85.49"/>
</g>
<!-- Node11 -->
<g id="node11" class="node">
<title>Node11</title>
<g id="a_node11"><a xlink:href="vec3_8h.html" target="_top" xlink:title=" ">
<polygon fill="none" stroke="black" points="417.2,-56.5 417.2,-75.5 466.2,-75.5 466.2,-56.5 417.2,-56.5"/>
<text text-anchor="middle" x="441.7" y="-63.5" font-family="Helvetica,sans-Serif" font-size="10.00">vec3.h</text>
</a>
</g>
</g>
<!-- Node8&#45;&gt;Node11 -->
<g id="edge10" class="edge">
<title>Node8&#45;&gt;Node11</title>
<path fill="none" stroke="midnightblue" d="M308.62,-224.37C301.6,-203.02 286.84,-146.91 311.7,-112 333.14,-81.89 376.16,-71.74 406.84,-68.42"/>
<polygon fill="midnightblue" stroke="midnightblue" points="407.47,-71.88 417.12,-67.51 406.85,-64.91 407.47,-71.88"/>
</g>
<!-- Node13 -->
<g id="node13" class="node">
<title>Node13</title>
<g id="a_node13"><a xlink:href="colour__bonus_8h.html" target="_top" xlink:title=" ">
<polygon fill="none" stroke="black" points="390.7,-168.5 390.7,-187.5 480.7,-187.5 480.7,-168.5 390.7,-168.5"/>
<text text-anchor="middle" x="435.7" y="-175.5" font-family="Helvetica,sans-Serif" font-size="10.00">colour_bonus.h</text>
</a>
</g>
</g>
<!-- Node8&#45;&gt;Node13 -->
<g id="edge13" class="edge">
<title>Node8&#45;&gt;Node13</title>
<path fill="none" stroke="midnightblue" d="M331.35,-224.44C351.67,-215.6 383.6,-201.69 406.8,-191.59"/>
<polygon fill="midnightblue" stroke="midnightblue" points="408.37,-194.72 416.14,-187.52 405.58,-188.3 408.37,-194.72"/>
</g>
<!-- Node11&#45;&gt;Node9 -->
<g id="edge12" class="edge">
<title>Node11&#45;&gt;Node9</title>
<path fill="none" stroke="midnightblue" d="M455.04,-56.32C467.86,-47.98 487.49,-35.21 502.64,-25.35"/>
<polygon fill="midnightblue" stroke="midnightblue" points="504.92,-28.04 511.4,-19.65 501.11,-22.17 504.92,-28.04"/>
</g>
<!-- Node12 -->
<g id="node12" class="node">
<title>Node12</title>
<g id="a_node12"><a xlink:title=" ">
<polygon fill="none" stroke="#bfbfbf" points="363.2,-0.5 363.2,-19.5 414.2,-19.5 414.2,-0.5 363.2,-0.5"/>
<text text-anchor="middle" x="388.7" y="-7.5" font-family="Helvetica,sans-Serif" font-size="10.00">math.h</text>
</a>
</g>
</g>
<!-- Node11&#45;&gt;Node12 -->
<g id="edge11" class="edge">
<title>Node11&#45;&gt;Node12</title>
<path fill="none" stroke="midnightblue" d="M432.95,-56.08C425.23,-48.22 413.8,-36.57 404.48,-27.08"/>
<polygon fill="midnightblue" stroke="midnightblue" points="406.79,-24.44 397.29,-19.75 401.8,-29.34 406.79,-24.44"/>
</g>
<!-- Node13&#45;&gt;Node3 -->
<g id="edge14" class="edge">
<title>Node13&#45;&gt;Node3</title>
<path fill="none" stroke="midnightblue" d="M421.24,-168.32C407.2,-159.9 385.65,-146.97 369.16,-137.07"/>
<polygon fill="midnightblue" stroke="midnightblue" points="370.5,-133.8 360.12,-131.65 366.9,-139.8 370.5,-133.8"/>
</g>
<!-- Node14 -->
<g id="node14" class="node">
<title>Node14</title>
<g id="a_node14"><a xlink:title=" ">
<polygon fill="none" stroke="#bfbfbf" points="1036.2,-112.5 1036.2,-131.5 1089.2,-131.5 1089.2,-112.5 1036.2,-112.5"/>
<text text-anchor="middle" x="1062.7" y="-119.5" font-family="Helvetica,sans-Serif" font-size="10.00">stdint.h</text>
</a>
</g>
</g>
<!-- Node13&#45;&gt;Node14 -->
<g id="edge15" class="edge">
<title>Node13&#45;&gt;Node14</title>
<path fill="none" stroke="midnightblue" d="M480.79,-173.12C599.27,-162.91 917.69,-135.49 1026.03,-126.16"/>
<polygon fill="midnightblue" stroke="midnightblue" points="1026.47,-129.63 1036.13,-125.29 1025.87,-122.66 1026.47,-129.63"/>
</g>
<!-- Node15 -->
<g id="node15" class="node">
<title>Node15</title>
<g id="a_node15"><a xlink:href="utils__bonus_8h.html" target="_top" xlink:title=" ">
<polygon fill="none" stroke="black" points="397.2,-112.5 397.2,-131.5 478.2,-131.5 478.2,-112.5 397.2,-112.5"/>
<text text-anchor="middle" x="437.7" y="-119.5" font-family="Helvetica,sans-Serif" font-size="10.00">utils_bonus.h</text>
</a>
</g>
</g>
<!-- Node13&#45;&gt;Node15 -->
<g id="edge16" class="edge">
<title>Node13&#45;&gt;Node15</title>
<path fill="none" stroke="midnightblue" d="M436.03,-168.08C436.29,-161.01 436.67,-150.86 437,-141.99"/>
<polygon fill="midnightblue" stroke="midnightblue" points="440.5,-141.87 437.38,-131.75 433.51,-141.61 440.5,-141.87"/>
</g>
<!-- Node15&#45;&gt;Node9 -->
<g id="edge18" class="edge">
<title>Node15&#45;&gt;Node9</title>
<path fill="none" stroke="midnightblue" d="M445.13,-112.49C452.89,-103.53 465.37,-88.95 475.7,-76 488.59,-59.85 502.75,-40.94 512.51,-27.69"/>
<polygon fill="midnightblue" stroke="midnightblue" points="515.41,-29.66 518.5,-19.53 509.77,-25.52 515.41,-29.66"/>
</g>
<!-- Node15&#45;&gt;Node10 -->
<g id="edge19" class="edge">
<title>Node15&#45;&gt;Node10</title>
<path fill="none" stroke="midnightblue" d="M407.75,-112.44C374.6,-102.97 321.13,-87.69 285.46,-77.5"/>
<polygon fill="midnightblue" stroke="midnightblue" points="286.03,-74.03 275.45,-74.64 284.11,-80.76 286.03,-74.03"/>
</g>
<!-- Node15&#45;&gt;Node11 -->
<g id="edge20" class="edge">
<title>Node15&#45;&gt;Node11</title>
<path fill="none" stroke="midnightblue" d="M438.36,-112.08C438.89,-105.01 439.64,-94.86 440.29,-85.99"/>
<polygon fill="midnightblue" stroke="midnightblue" points="443.8,-85.98 441.05,-75.75 436.82,-85.47 443.8,-85.98"/>
</g>
<!-- Node15&#45;&gt;Node12 -->
<g id="edge17" class="edge">
<title>Node15&#45;&gt;Node12</title>
<path fill="none" stroke="midnightblue" d="M431.17,-112.45C424.73,-103.69 414.97,-89.48 408.7,-76 401.7,-60.95 396.35,-42.82 392.96,-29.53"/>
<polygon fill="midnightblue" stroke="midnightblue" points="396.33,-28.58 390.57,-19.69 389.53,-30.23 396.33,-28.58"/>
</g>
<!-- Node16&#45;&gt;Node11 -->
<g id="edge23" class="edge">
<title>Node16&#45;&gt;Node11</title>
<path fill="none" stroke="midnightblue" d="M560.48,-392.35C568.12,-374.03 584.7,-329.82 584.7,-291 584.7,-291 584.7,-291 584.7,-233 584.7,-161.54 507.69,-105.56 466.7,-80.83"/>
<polygon fill="midnightblue" stroke="midnightblue" points="468.22,-77.67 457.83,-75.63 464.68,-83.71 468.22,-77.67"/>
</g>
<!-- Node16&#45;&gt;Node15 -->
<g id="edge32" class="edge">
<title>Node16&#45;&gt;Node15</title>
<path fill="none" stroke="midnightblue" d="M525.51,-395.63C502.98,-389.95 474.09,-378.53 459.7,-356 414.17,-284.68 524.87,-244.96 489.7,-168 483.92,-155.36 472.65,-144.91 462.07,-137.27"/>
<polygon fill="midnightblue" stroke="midnightblue" points="463.74,-134.18 453.48,-131.53 459.85,-140 463.74,-134.18"/>
</g>
<!-- Node17 -->
<g id="node17" class="node">
<title>Node17</title>
<g id="a_node17"><a xlink:href="vec2_8h.html" target="_top" xlink:title=" ">
<polygon fill="none" stroke="black" points="613.2,-336.5 613.2,-355.5 662.2,-355.5 662.2,-336.5 613.2,-336.5"/>
<text text-anchor="middle" x="637.7" y="-343.5" font-family="Helvetica,sans-Serif" font-size="10.00">vec2.h</text>
</a>
</g>
</g>
<!-- Node16&#45;&gt;Node17 -->
<g id="edge22" class="edge">
<title>Node16&#45;&gt;Node17</title>
<path fill="none" stroke="midnightblue" d="M569.71,-392.32C582.23,-383.98 601.38,-371.21 616.17,-361.35"/>
<polygon fill="midnightblue" stroke="midnightblue" points="618.34,-364.11 624.72,-355.65 614.46,-358.29 618.34,-364.11"/>
</g>
<!-- Node18 -->
<g id="node18" class="node">
<title>Node18</title>
<g id="a_node18"><a xlink:href="error__syscall_8h.html" target="_top" xlink:title=" ">
<polygon fill="none" stroke="black" points="468.7,-336.5 468.7,-355.5 556.7,-355.5 556.7,-336.5 468.7,-336.5"/>
<text text-anchor="middle" x="512.7" y="-343.5" font-family="Helvetica,sans-Serif" font-size="10.00">error_syscall.h</text>
</a>
</g>
</g>
<!-- Node16&#45;&gt;Node18 -->
<g id="edge24" class="edge">
<title>Node16&#45;&gt;Node18</title>
<path fill="none" stroke="midnightblue" d="M549.43,-392.08C543.16,-384.38 533.91,-373.03 526.27,-363.65"/>
<polygon fill="midnightblue" stroke="midnightblue" points="528.86,-361.29 519.83,-355.75 523.43,-365.71 528.86,-361.29"/>
</g>
<!-- Node23 -->
<g id="node23" class="node">
<title>Node23</title>
<g id="a_node23"><a xlink:href="mini_r_t__config__bonus_8h.html" target="_top" xlink:title=" ">
<polygon fill="none" stroke="black" points="818.7,-336.5 818.7,-355.5 946.7,-355.5 946.7,-336.5 818.7,-336.5"/>
<text text-anchor="middle" x="882.7" y="-343.5" font-family="Helvetica,sans-Serif" font-size="10.00">miniRT_config_bonus.h</text>
</a>
</g>
</g>
<!-- Node16&#45;&gt;Node23 -->
<g id="edge33" class="edge">
<title>Node16&#45;&gt;Node23</title>
<path fill="none" stroke="midnightblue" d="M587.96,-395.82C641.58,-386.94 752,-368.65 821.42,-357.15"/>
<polygon fill="midnightblue" stroke="midnightblue" points="822.06,-360.59 831.36,-355.5 820.92,-353.69 822.06,-360.59"/>
</g>
<!-- Node18&#45;&gt;Node4 -->
<g id="edge25" class="edge">
<title>Node18&#45;&gt;Node4</title>
<path fill="none" stroke="midnightblue" d="M487.03,-336.44C459.22,-327.17 414.73,-312.34 384.18,-302.16"/>
<polygon fill="midnightblue" stroke="midnightblue" points="385,-298.74 374.41,-298.9 382.79,-305.38 385,-298.74"/>
</g>
<!-- Node19 -->
<g id="node19" class="node">
<title>Node19</title>
<g id="a_node19"><a xlink:href="error__type_8h.html" target="_top" xlink:title=" ">
<polygon fill="none" stroke="black" points="612.7,-280.5 612.7,-299.5 688.7,-299.5 688.7,-280.5 612.7,-280.5"/>
<text text-anchor="middle" x="650.7" y="-287.5" font-family="Helvetica,sans-Serif" font-size="10.00">error_type.h</text>
</a>
</g>
</g>
<!-- Node18&#45;&gt;Node19 -->
<g id="edge26" class="edge">
<title>Node18&#45;&gt;Node19</title>
<path fill="none" stroke="midnightblue" d="M534.57,-336.44C557.48,-327.48 593.68,-313.31 619.57,-303.18"/>
<polygon fill="midnightblue" stroke="midnightblue" points="620.9,-306.42 628.94,-299.52 618.35,-299.9 620.9,-306.42"/>
</g>
<!-- Node20 -->
<g id="node20" class="node">
<title>Node20</title>
<g id="a_node20"><a xlink:href="error__msg_8h.html" target="_top" xlink:title=" ">
<polygon fill="none" stroke="black" points="707.2,-280.5 707.2,-299.5 782.2,-299.5 782.2,-280.5 707.2,-280.5"/>
<text text-anchor="middle" x="744.7" y="-287.5" font-family="Helvetica,sans-Serif" font-size="10.00">error_msg.h</text>
</a>
</g>
</g>
<!-- Node18&#45;&gt;Node20 -->
<g id="edge27" class="edge">
<title>Node18&#45;&gt;Node20</title>
<path fill="none" stroke="midnightblue" d="M549.46,-336.44C589.76,-327.06 654.51,-311.99 698.29,-301.8"/>
<polygon fill="midnightblue" stroke="midnightblue" points="699.17,-305.19 708.11,-299.52 697.58,-298.37 699.17,-305.19"/>
</g>
<!-- Node20&#45;&gt;Node3 -->
<g id="edge28" class="edge">
<title>Node20&#45;&gt;Node3</title>
<path fill="none" stroke="midnightblue" d="M707.82,-280.45C620.74,-260.03 407.76,-208.57 381.7,-188 366.55,-176.04 356.81,-155.84 351.33,-141.13"/>
<polygon fill="midnightblue" stroke="midnightblue" points="354.62,-139.93 348.08,-131.59 347.99,-142.18 354.62,-139.93"/>
</g>
<!-- Node20&#45;&gt;Node8 -->
<g id="edge31" class="edge">
<title>Node20&#45;&gt;Node8</title>
<path fill="none" stroke="midnightblue" d="M707.03,-281.54C703.88,-280.99 700.74,-280.47 697.7,-280 582.27,-262.24 446.45,-247.92 370.59,-240.51"/>
<polygon fill="midnightblue" stroke="midnightblue" points="370.59,-237 360.3,-239.51 369.91,-243.96 370.59,-237"/>
</g>
<!-- Node21 -->
<g id="node21" class="node">
<title>Node21</title>
<g id="a_node21"><a xlink:title=" ">
<polygon fill="none" stroke="#bfbfbf" points="753.2,-224.5 753.2,-243.5 804.2,-243.5 804.2,-224.5 753.2,-224.5"/>
<text text-anchor="middle" x="778.7" y="-231.5" font-family="Helvetica,sans-Serif" font-size="10.00">errno.h</text>
</a>
</g>
</g>
<!-- Node20&#45;&gt;Node21 -->
<g id="edge29" class="edge">
<title>Node20&#45;&gt;Node21</title>
<path fill="none" stroke="midnightblue" d="M750.31,-280.08C755.07,-272.53 762.02,-261.49 767.85,-252.23"/>
<polygon fill="midnightblue" stroke="midnightblue" points="770.82,-254.08 773.19,-243.75 764.9,-250.35 770.82,-254.08"/>
</g>
<!-- Node22 -->
<g id="node22" class="node">
<title>Node22</title>
<g id="a_node22"><a xlink:title=" ">
<polygon fill="none" stroke="#bfbfbf" points="688.2,-224.5 688.2,-243.5 735.2,-243.5 735.2,-224.5 688.2,-224.5"/>
<text text-anchor="middle" x="711.7" y="-231.5" font-family="Helvetica,sans-Serif" font-size="10.00">ft_fd.h</text>
</a>
</g>
</g>
<!-- Node20&#45;&gt;Node22 -->
<g id="edge30" class="edge">
<title>Node20&#45;&gt;Node22</title>
<path fill="none" stroke="midnightblue" d="M739.25,-280.08C734.69,-272.61 728.03,-261.72 722.41,-252.52"/>
<polygon fill="midnightblue" stroke="midnightblue" points="725.25,-250.46 717.05,-243.75 719.28,-254.11 725.25,-250.46"/>
</g>
<!-- Node24&#45;&gt;Node8 -->
<g id="edge43" class="edge">
<title>Node24&#45;&gt;Node8</title>
<path fill="none" stroke="midnightblue" d="M238.19,-448.24C242.84,-421.97 258.38,-341.81 284.7,-280 288.81,-270.36 294.67,-260.3 299.89,-252.14"/>
<polygon fill="midnightblue" stroke="midnightblue" points="302.96,-253.85 305.57,-243.58 297.12,-249.98 302.96,-253.85"/>
</g>
<!-- Node24&#45;&gt;Node16 -->
<g id="edge44" class="edge">
<title>Node24&#45;&gt;Node16</title>
<path fill="none" stroke="midnightblue" d="M280.52,-449.6C342.5,-439.15 454.92,-420.17 515.46,-409.96"/>
<polygon fill="midnightblue" stroke="midnightblue" points="516.15,-413.39 525.42,-408.28 514.98,-406.49 516.15,-413.39"/>
</g>
<!-- Node24&#45;&gt;Node18 -->
<g id="edge36" class="edge">
<title>Node24&#45;&gt;Node18</title>
<path fill="none" stroke="midnightblue" d="M246.27,-448.47C262.36,-434.59 296.33,-407.13 329.7,-392 370.97,-373.3 421.14,-361.66 458.5,-354.92"/>
<polygon fill="midnightblue" stroke="midnightblue" points="459.43,-358.31 468.68,-353.14 458.23,-351.41 459.43,-358.31"/>
</g>
<!-- Node25 -->
<g id="node25" class="node">
<title>Node25</title>
<g id="a_node25"><a xlink:title=" ">
<polygon fill="none" stroke="#bfbfbf" points="338.7,-392.5 338.7,-411.5 382.7,-411.5 382.7,-392.5 338.7,-392.5"/>
<text text-anchor="middle" x="360.7" y="-399.5" font-family="Helvetica,sans-Serif" font-size="10.00">libft.h</text>
</a>
</g>
</g>
<!-- Node24&#45;&gt;Node25 -->
<g id="edge35" class="edge">
<title>Node24&#45;&gt;Node25</title>
<path fill="none" stroke="midnightblue" d="M256.35,-448.44C276.67,-439.6 308.6,-425.69 331.8,-415.59"/>
<polygon fill="midnightblue" stroke="midnightblue" points="333.37,-418.72 341.14,-411.52 330.58,-412.3 333.37,-418.72"/>
</g>
<!-- Node26 -->
<g id="node26" class="node">
<title>Node26</title>
<g id="a_node26"><a xlink:href="cleanup_8h.html" target="_top" xlink:title=" ">
<polygon fill="none" stroke="black" points="104.7,-392.5 104.7,-411.5 168.7,-411.5 168.7,-392.5 104.7,-392.5"/>
<text text-anchor="middle" x="136.7" y="-399.5" font-family="Helvetica,sans-Serif" font-size="10.00">cleanup.h</text>
</a>
</g>
</g>
<!-- Node24&#45;&gt;Node26 -->
<g id="edge37" class="edge">
<title>Node24&#45;&gt;Node26</title>
<path fill="none" stroke="midnightblue" d="M220.63,-448.32C204.74,-439.74 180.19,-426.49 161.74,-416.52"/>
<polygon fill="midnightblue" stroke="midnightblue" points="163.19,-413.33 152.73,-411.65 159.86,-419.49 163.19,-413.33"/>
</g>
<!-- Node27 -->
<g id="node27" class="node">
<title>Node27</title>
<g id="a_node27"><a xlink:href="ft__strtod_8h.html" target="_top" xlink:title=" ">
<polygon fill="none" stroke="black" points="154.7,-168.5 154.7,-187.5 220.7,-187.5 220.7,-168.5 154.7,-168.5"/>
<text text-anchor="middle" x="187.7" y="-175.5" font-family="Helvetica,sans-Serif" font-size="10.00">ft_strtod.h</text>
</a>
</g>
</g>
<!-- Node24&#45;&gt;Node27 -->
<g id="edge39" class="edge">
<title>Node24&#45;&gt;Node27</title>
<path fill="none" stroke="midnightblue" d="M231.14,-448.27C220.15,-430.15 196.7,-386.83 196.7,-347 196.7,-347 196.7,-347 196.7,-289 196.7,-256.84 192.83,-219.57 190.17,-197.71"/>
<polygon fill="midnightblue" stroke="midnightblue" points="193.61,-197.02 188.88,-187.54 186.66,-197.9 193.61,-197.02"/>
</g>
<!-- Node26&#45;&gt;Node10 -->
<g id="edge38" class="edge">
<title>Node26&#45;&gt;Node10</title>
<path fill="none" stroke="midnightblue" d="M134.16,-392.33C123.66,-354.55 87.2,-202.22 153.7,-112 167.75,-92.94 191.97,-81.64 212.43,-75.13"/>
<polygon fill="midnightblue" stroke="midnightblue" points="213.5,-78.46 222.12,-72.31 211.54,-71.74 213.5,-78.46"/>
</g>
<!-- Node27&#45;&gt;Node3 -->
<g id="edge40" class="edge">
<title>Node27&#45;&gt;Node3</title>
<path fill="none" stroke="midnightblue" d="M212.74,-168.44C239.32,-159.36 281.51,-144.94 311.22,-134.78"/>
<polygon fill="midnightblue" stroke="midnightblue" points="312.45,-138.06 320.78,-131.52 310.19,-131.44 312.45,-138.06"/>
</g>
<!-- Node27&#45;&gt;Node12 -->
<g id="edge41" class="edge">
<title>Node27&#45;&gt;Node12</title>
<path fill="none" stroke="midnightblue" d="M177.66,-168.38C164.69,-156.12 144.75,-132.83 153.7,-112 167.97,-78.78 181.06,-73.49 212.7,-56 257.3,-31.36 315.7,-19.9 352.72,-14.79"/>
<polygon fill="midnightblue" stroke="midnightblue" points="353.56,-18.21 363.02,-13.46 352.66,-11.27 353.56,-18.21"/>
</g>
<!-- Node28 -->
<g id="node28" class="node">
<title>Node28</title>
<g id="a_node28"><a xlink:title=" ">
<polygon fill="none" stroke="#bfbfbf" points="162.7,-112.5 162.7,-131.5 220.7,-131.5 220.7,-112.5 162.7,-112.5"/>
<text text-anchor="middle" x="191.7" y="-119.5" font-family="Helvetica,sans-Serif" font-size="10.00">ft_char.h</text>
</a>
</g>
</g>
<!-- Node27&#45;&gt;Node28 -->
<g id="edge42" class="edge">
<title>Node27&#45;&gt;Node28</title>
<path fill="none" stroke="midnightblue" d="M188.36,-168.08C188.89,-161.01 189.64,-150.86 190.29,-141.99"/>
<polygon fill="midnightblue" stroke="midnightblue" points="193.8,-141.98 191.05,-131.75 186.82,-141.47 193.8,-141.98"/>
</g>
<!-- Node29&#45;&gt;Node8 -->
<g id="edge66" class="edge">
<title>Node29&#45;&gt;Node8</title>
<path fill="none" stroke="midnightblue" d="M660.61,-511.49C579.61,-508.1 415.75,-497.68 367.7,-468 295.11,-423.16 302.89,-300.62 308.85,-253.66"/>
<polygon fill="midnightblue" stroke="midnightblue" points="312.33,-254.06 310.24,-243.67 305.4,-253.09 312.33,-254.06"/>
</g>
<!-- Node29&#45;&gt;Node16 -->
<g id="edge56" class="edge">
<title>Node29&#45;&gt;Node16</title>
<path fill="none" stroke="midnightblue" d="M694.93,-504.37C669.3,-485.57 608.2,-440.77 576.52,-417.53"/>
<polygon fill="midnightblue" stroke="midnightblue" points="578.55,-414.68 568.42,-411.59 574.41,-420.33 578.55,-414.68"/>
</g>
<!-- Node29&#45;&gt;Node17 -->
<g id="edge58" class="edge">
<title>Node29&#45;&gt;Node17</title>
<path fill="none" stroke="midnightblue" d="M702.66,-504.44C694.53,-487.13 675.81,-446.67 661.7,-412 655.4,-396.51 648.86,-378.66 644.2,-365.6"/>
<polygon fill="midnightblue" stroke="midnightblue" points="647.41,-364.17 640.78,-355.9 640.81,-366.5 647.41,-364.17"/>
</g>
<!-- Node29&#45;&gt;Node23 -->
<g id="edge62" class="edge">
<title>Node29&#45;&gt;Node23</title>
<path fill="none" stroke="midnightblue" d="M715.03,-504.23C734.43,-483.93 784.34,-432.34 828.7,-392 839.99,-381.74 853.12,-370.77 863.62,-362.23"/>
<polygon fill="midnightblue" stroke="midnightblue" points="866.13,-364.7 871.71,-355.7 861.73,-359.25 866.13,-364.7"/>
</g>
<!-- Node29&#45;&gt;Node25 -->
<g id="edge50" class="edge">
<title>Node29&#45;&gt;Node25</title>
<path fill="none" stroke="midnightblue" d="M660.34,-505.92C619.78,-498.9 559.71,-486.51 509.7,-468 491.8,-461.37 489.01,-456.04 471.7,-448 445.42,-435.79 414.85,-423.54 392.46,-414.91"/>
<polygon fill="midnightblue" stroke="midnightblue" points="393.68,-411.63 383.09,-411.33 391.18,-418.17 393.68,-411.63"/>
</g>
<!-- Node29&#45;&gt;Node26 -->
<g id="edge57" class="edge">
<title>Node29&#45;&gt;Node26</title>
<path fill="none" stroke="midnightblue" d="M660.63,-511.22C540.6,-506.28 224.69,-491.21 183.7,-468 165.19,-457.52 152.04,-436.4 144.44,-421.08"/>
<polygon fill="midnightblue" stroke="midnightblue" points="147.43,-419.21 140.07,-411.59 141.07,-422.14 147.43,-419.21"/>
</g>
<!-- Node30 -->
<g id="node30" class="node">
<title>Node30</title>
<g id="a_node30"><a xlink:title=" ">
<polygon fill="none" stroke="#bfbfbf" points="756.7,-336.5 756.7,-355.5 800.7,-355.5 800.7,-336.5 756.7,-336.5"/>
<text text-anchor="middle" x="778.7" y="-343.5" font-family="Helvetica,sans-Serif" font-size="10.00">mlx.h</text>
</a>
</g>
</g>
<!-- Node29&#45;&gt;Node30 -->
<g id="edge46" class="edge">
<title>Node29&#45;&gt;Node30</title>
<path fill="none" stroke="midnightblue" d="M710.78,-504.41C718.97,-487.07 737.93,-446.55 752.7,-412 759.34,-396.46 766.44,-378.62 771.54,-365.57"/>
<polygon fill="midnightblue" stroke="midnightblue" points="774.94,-366.47 775.3,-355.89 768.42,-363.94 774.94,-366.47"/>
</g>
<!-- Node31 -->
<g id="node31" class="node">
<title>Node31</title>
<g id="a_node31"><a xlink:title=" ">
<polygon fill="none" stroke="#bfbfbf" points="913.7,-448.5 913.7,-467.5 979.7,-467.5 979.7,-448.5 913.7,-448.5"/>
<text text-anchor="middle" x="946.7" y="-455.5" font-family="Helvetica,sans-Serif" font-size="10.00">X11/Xlib.h</text>
</a>
</g>
</g>
<!-- Node29&#45;&gt;Node31 -->
<g id="edge47" class="edge">
<title>Node29&#45;&gt;Node31</title>
<path fill="none" stroke="midnightblue" d="M744.73,-504.44C787.98,-494.71 858.46,-478.86 903.68,-468.68"/>
<polygon fill="midnightblue" stroke="midnightblue" points="904.5,-472.08 913.49,-466.47 902.96,-465.25 904.5,-472.08"/>
</g>
<!-- Node32 -->
<g id="node32" class="node">
<title>Node32</title>
<g id="a_node32"><a xlink:title=" ">
<polygon fill="none" stroke="#bfbfbf" points="997.7,-448.5 997.7,-467.5 1051.7,-467.5 1051.7,-448.5 997.7,-448.5"/>
<text text-anchor="middle" x="1024.7" y="-455.5" font-family="Helvetica,sans-Serif" font-size="10.00">X11/X.h</text>
</a>
</g>
</g>
<!-- Node29&#45;&gt;Node32 -->
<g id="edge48" class="edge">
<title>Node29&#45;&gt;Node32</title>
<path fill="none" stroke="midnightblue" d="M752.84,-506.89C806.84,-499.46 899.15,-485.9 987.69,-468.06"/>
<polygon fill="midnightblue" stroke="midnightblue" points="988.53,-471.46 997.63,-466.03 987.13,-464.6 988.53,-471.46"/>
</g>
<!-- Node33 -->
<g id="node33" class="node">
<title>Node33</title>
<g id="a_node33"><a xlink:title=" ">
<polygon fill="none" stroke="#bfbfbf" points="376.7,-448.5 376.7,-467.5 462.7,-467.5 462.7,-448.5 376.7,-448.5"/>
<text text-anchor="middle" x="419.7" y="-455.5" font-family="Helvetica,sans-Serif" font-size="10.00">X11/keysym.h</text>
</a>
</g>
</g>
<!-- Node29&#45;&gt;Node33 -->
<g id="edge49" class="edge">
<title>Node29&#45;&gt;Node33</title>
<path fill="none" stroke="midnightblue" d="M661.22,-504.44C610.14,-494.83 527.32,-479.25 473.18,-469.06"/>
<polygon fill="midnightblue" stroke="midnightblue" points="473.56,-465.57 463.09,-467.16 472.27,-472.45 473.56,-465.57"/>
</g>
<!-- Node34 -->
<g id="node34" class="node">
<title>Node34</title>
<g id="a_node34"><a xlink:href="error__mlx_8h.html" target="_top" xlink:title=" ">
<polygon fill="none" stroke="black" points="670.2,-392.5 670.2,-411.5 743.2,-411.5 743.2,-392.5 670.2,-392.5"/>
<text text-anchor="middle" x="706.7" y="-399.5" font-family="Helvetica,sans-Serif" font-size="10.00">error_mlx.h</text>
</a>
</g>
</g>
<!-- Node29&#45;&gt;Node34 -->
<g id="edge51" class="edge">
<title>Node29&#45;&gt;Node34</title>
<path fill="none" stroke="midnightblue" d="M706.7,-504.37C706.7,-486.62 706.7,-445.67 706.7,-421.6"/>
<polygon fill="midnightblue" stroke="midnightblue" points="710.2,-421.59 706.7,-411.59 703.2,-421.59 710.2,-421.59"/>
</g>
<!-- Node35 -->
<g id="node35" class="node">
<title>Node35</title>
<g id="a_node35"><a xlink:href="render__menu_8h.html" target="_top" xlink:title=" ">
<polygon fill="none" stroke="black" points="837.7,-392.5 837.7,-411.5 927.7,-411.5 927.7,-392.5 837.7,-392.5"/>
<text text-anchor="middle" x="882.7" y="-399.5" font-family="Helvetica,sans-Serif" font-size="10.00">render_menu.h</text>
</a>
</g>
</g>
<!-- Node29&#45;&gt;Node35 -->
<g id="edge59" class="edge">
<title>Node29&#45;&gt;Node35</title>
<path fill="none" stroke="midnightblue" d="M740.73,-504.49C765.23,-497.31 798.29,-485.4 823.7,-468 842.86,-454.88 860.11,-434.35 870.94,-419.88"/>
<polygon fill="midnightblue" stroke="midnightblue" points="873.78,-421.92 876.82,-411.77 868.11,-417.82 873.78,-421.92"/>
</g>
<!-- Node36 -->
<g id="node36" class="node">
<title>Node36</title>
<g id="a_node36"><a xlink:href="ray__bonus_8h.html" target="_top" xlink:title=" ">
<polygon fill="none" stroke="black" points="518.7,-448.5 518.7,-467.5 594.7,-467.5 594.7,-448.5 518.7,-448.5"/>
<text text-anchor="middle" x="556.7" y="-455.5" font-family="Helvetica,sans-Serif" font-size="10.00">ray_bonus.h</text>
</a>
</g>
</g>
<!-- Node29&#45;&gt;Node36 -->
<g id="edge63" class="edge">
<title>Node29&#45;&gt;Node36</title>
<path fill="none" stroke="midnightblue" d="M682.93,-504.44C657.81,-495.4 617.99,-481.06 589.8,-470.92"/>
<polygon fill="midnightblue" stroke="midnightblue" points="590.95,-467.61 580.36,-467.52 588.58,-474.2 590.95,-467.61"/>
</g>
<!-- Node37 -->
<g id="node37" class="node">
<title>Node37</title>
<g id="a_node37"><a xlink:href="render__bit__field__bonus_8h.html" target="_top" xlink:title=" ">
<polygon fill="none" stroke="black" points="1198.7,-168.5 1198.7,-187.5 1334.7,-187.5 1334.7,-168.5 1198.7,-168.5"/>
<text text-anchor="middle" x="1266.7" y="-175.5" font-family="Helvetica,sans-Serif" font-size="10.00">render_bit_field_bonus.h</text>
</a>
</g>
</g>
<!-- Node29&#45;&gt;Node37 -->
<g id="edge67" class="edge">
<title>Node29&#45;&gt;Node37</title>
<path fill="none" stroke="midnightblue" d="M752.7,-513.82C887.92,-515 1274.7,-509.09 1274.7,-403 1274.7,-403 1274.7,-403 1274.7,-289 1274.7,-256.86 1271.26,-219.58 1268.89,-197.72"/>
<polygon fill="midnightblue" stroke="midnightblue" points="1272.34,-197.09 1267.75,-187.54 1265.39,-197.87 1272.34,-197.09"/>
</g>
<!-- Node38 -->
<g id="node38" class="node">
<title>Node38</title>
<g id="a_node38"><a xlink:href="threads__bonus_8h.html" target="_top" xlink:title=" ">
<polygon fill="none" stroke="black" points="946.2,-392.5 946.2,-411.5 1043.2,-411.5 1043.2,-392.5 946.2,-392.5"/>
<text text-anchor="middle" x="994.7" y="-399.5" font-family="Helvetica,sans-Serif" font-size="10.00">threads_bonus.h</text>
</a>
</g>
</g>
<!-- Node29&#45;&gt;Node38 -->
<g id="edge70" class="edge">
<title>Node29&#45;&gt;Node38</title>
<path fill="none" stroke="midnightblue" d="M736.73,-504.44C765.5,-495.99 809.98,-482.31 847.7,-468 890.36,-451.81 938.5,-429.79 967.71,-415.98"/>
<polygon fill="midnightblue" stroke="midnightblue" points="969.33,-419.09 976.86,-411.64 966.32,-412.77 969.33,-419.09"/>
</g>
<!-- Node40 -->
<g id="node40" class="node">
<title>Node40</title>
<g id="a_node40"><a xlink:href="time__bonus_8h.html" target="_top" xlink:title=" ">
<polygon fill="none" stroke="black" points="1100.2,-448.5 1100.2,-467.5 1183.2,-467.5 1183.2,-448.5 1100.2,-448.5"/>
<text text-anchor="middle" x="1141.7" y="-455.5" font-family="Helvetica,sans-Serif" font-size="10.00">time_bonus.h</text>
</a>
</g>
</g>
<!-- Node29&#45;&gt;Node40 -->
<g id="edge75" class="edge">
<title>Node29&#45;&gt;Node40</title>
<path fill="none" stroke="midnightblue" d="M752.84,-507.27C834.68,-497.11 1004.67,-476.01 1090.2,-465.39"/>
<polygon fill="midnightblue" stroke="midnightblue" points="1090.71,-468.86 1100.2,-464.15 1089.84,-461.91 1090.71,-468.86"/>
</g>
<!-- Node34&#45;&gt;Node17 -->
<g id="edge55" class="edge">
<title>Node34&#45;&gt;Node17</title>
<path fill="none" stroke="midnightblue" d="M695.61,-392.32C685.21,-384.18 669.44,-371.84 656.98,-362.09"/>
<polygon fill="midnightblue" stroke="midnightblue" points="659.02,-359.24 648.99,-355.83 654.71,-364.75 659.02,-359.24"/>
</g>
<!-- Node34&#45;&gt;Node19 -->
<g id="edge53" class="edge">
<title>Node34&#45;&gt;Node19</title>
<path fill="none" stroke="midnightblue" d="M702.31,-392.37C693.15,-374.38 671.85,-332.55 659.67,-308.63"/>
<polygon fill="midnightblue" stroke="midnightblue" points="662.73,-306.92 655.07,-299.59 656.49,-310.09 662.73,-306.92"/>
</g>
<!-- Node34&#45;&gt;Node20 -->
<g id="edge54" class="edge">
<title>Node34&#45;&gt;Node20</title>
<path fill="none" stroke="midnightblue" d="M709.68,-392.37C715.84,-374.54 730.09,-333.3 738.39,-309.27"/>
<polygon fill="midnightblue" stroke="midnightblue" points="741.78,-310.19 741.73,-299.59 735.16,-307.9 741.78,-310.19"/>
</g>
<!-- Node34&#45;&gt;Node30 -->
<g id="edge52" class="edge">
<title>Node34&#45;&gt;Node30</title>
<path fill="none" stroke="midnightblue" d="M718.27,-392.32C729.12,-384.18 745.58,-371.84 758.58,-362.09"/>
<polygon fill="midnightblue" stroke="midnightblue" points="761.02,-364.63 766.92,-355.83 756.82,-359.03 761.02,-364.63"/>
</g>
<!-- Node35&#45;&gt;Node14 -->
<g id="edge60" class="edge">
<title>Node35&#45;&gt;Node14</title>
<path fill="none" stroke="midnightblue" d="M908.38,-392.47C946.27,-378.07 1012.7,-345.1 1012.7,-291 1012.7,-291 1012.7,-291 1012.7,-233 1012.7,-197.18 1034.94,-160.21 1049.76,-139.56"/>
<polygon fill="midnightblue" stroke="midnightblue" points="1052.58,-141.63 1055.75,-131.52 1046.97,-137.45 1052.58,-141.63"/>
</g>
<!-- Node35&#45;&gt;Node23 -->
<g id="edge61" class="edge">
<title>Node35&#45;&gt;Node23</title>
<path fill="none" stroke="midnightblue" d="M882.7,-392.08C882.7,-385.01 882.7,-374.86 882.7,-365.99"/>
<polygon fill="midnightblue" stroke="midnightblue" points="886.2,-365.75 882.7,-355.75 879.2,-365.75 886.2,-365.75"/>
</g>
<!-- Node36&#45;&gt;Node8 -->
<g id="edge64" class="edge">
<title>Node36&#45;&gt;Node8</title>
<path fill="none" stroke="midnightblue" d="M542.35,-448.48C516.72,-432.73 462.41,-396.91 426.7,-356 401.04,-326.59 409.74,-308.15 382.7,-280 370.26,-267.05 353.38,-256.15 339.19,-248.33"/>
<polygon fill="midnightblue" stroke="midnightblue" points="340.81,-245.22 330.34,-243.64 337.54,-251.41 340.81,-245.22"/>
</g>
<!-- Node36&#45;&gt;Node16 -->
<g id="edge65" class="edge">
<title>Node36&#45;&gt;Node16</title>
<path fill="none" stroke="midnightblue" d="M556.7,-448.08C556.7,-441.01 556.7,-430.86 556.7,-421.99"/>
<polygon fill="midnightblue" stroke="midnightblue" points="560.2,-421.75 556.7,-411.75 553.2,-421.75 560.2,-421.75"/>
</g>
<!-- Node37&#45;&gt;Node9 -->
<g id="edge69" class="edge">
<title>Node37&#45;&gt;Node9</title>
<path fill="none" stroke="midnightblue" d="M1247.96,-168.36C1217.35,-154.56 1154.43,-127.53 1098.7,-112 903.05,-57.5 661.32,-26.37 566.06,-15.47"/>
<polygon fill="midnightblue" stroke="midnightblue" points="566.3,-11.98 555.97,-14.33 565.52,-18.93 566.3,-11.98"/>
</g>
<!-- Node37&#45;&gt;Node14 -->
<g id="edge68" class="edge">
<title>Node37&#45;&gt;Node14</title>
<path fill="none" stroke="midnightblue" d="M1234.38,-168.44C1197.56,-158.7 1137.54,-142.81 1099.1,-132.64"/>
<polygon fill="midnightblue" stroke="midnightblue" points="1099.91,-129.23 1089.35,-130.05 1098.12,-136 1099.91,-129.23"/>
</g>
<!-- Node38&#45;&gt;Node19 -->
<g id="edge72" class="edge">
<title>Node38&#45;&gt;Node19</title>
<path fill="none" stroke="midnightblue" d="M992.13,-392.11C987.45,-377.7 976.11,-349.51 955.7,-336 862.16,-274.07 815.13,-316.18 698.89,-299.85"/>
<polygon fill="midnightblue" stroke="midnightblue" points="699.34,-296.38 688.92,-298.33 698.28,-303.3 699.34,-296.38"/>
</g>
<!-- Node38&#45;&gt;Node20 -->
<g id="edge73" class="edge">
<title>Node38&#45;&gt;Node20</title>
<path fill="none" stroke="midnightblue" d="M996.88,-392.12C999.71,-378.24 1002.76,-351.4 988.7,-336 962.97,-307.83 856.02,-297.1 792.57,-293.16"/>
<polygon fill="midnightblue" stroke="midnightblue" points="792.59,-289.66 782.4,-292.56 792.18,-296.64 792.59,-289.66"/>
</g>
<!-- Node38&#45;&gt;Node23 -->
<g id="edge74" class="edge">
<title>Node38&#45;&gt;Node23</title>
<path fill="none" stroke="midnightblue" d="M976.71,-392.32C958.66,-383.62 930.65,-370.12 909.9,-360.11"/>
<polygon fill="midnightblue" stroke="midnightblue" points="911.18,-356.84 900.65,-355.65 908.14,-363.15 911.18,-356.84"/>
</g>
<!-- Node39 -->
<g id="node39" class="node">
<title>Node39</title>
<g id="a_node39"><a xlink:title=" ">
<polygon fill="none" stroke="#bfbfbf" points="1079.2,-336.5 1079.2,-355.5 1142.2,-355.5 1142.2,-336.5 1079.2,-336.5"/>
<text text-anchor="middle" x="1110.7" y="-343.5" font-family="Helvetica,sans-Serif" font-size="10.00">pthread.h</text>
</a>
</g>
</g>
<!-- Node38&#45;&gt;Node39 -->
<g id="edge71" class="edge">
<title>Node38&#45;&gt;Node39</title>
<path fill="none" stroke="midnightblue" d="M1013.08,-392.44C1031.92,-383.68 1061.43,-369.94 1083.08,-359.86"/>
<polygon fill="midnightblue" stroke="midnightblue" points="1084.82,-362.91 1092.41,-355.52 1081.86,-356.56 1084.82,-362.91"/>
</g>
<!-- Node40&#45;&gt;Node5 -->
<g id="edge77" class="edge">
<title>Node40&#45;&gt;Node5</title>
<path fill="none" stroke="midnightblue" d="M1154.07,-448.32C1165.86,-440.06 1183.83,-427.45 1197.84,-417.63"/>
<polygon fill="midnightblue" stroke="midnightblue" points="1200.18,-420.26 1206.36,-411.65 1196.16,-414.53 1200.18,-420.26"/>
</g>
<!-- Node40&#45;&gt;Node14 -->
<g id="edge76" class="edge">
<title>Node40&#45;&gt;Node14</title>
<path fill="none" stroke="midnightblue" d="M1144.27,-448.45C1151.37,-424.09 1170.7,-352.14 1170.7,-291 1170.7,-291 1170.7,-291 1170.7,-233 1170.7,-187.21 1122.45,-153.49 1090.45,-136.16"/>
<polygon fill="midnightblue" stroke="midnightblue" points="1092,-133.02 1081.51,-131.51 1088.77,-139.23 1092,-133.02"/>
</g>
<!-- Node41 -->
<g id="node41" class="node">
<title>Node41</title>
<g id="a_node41"><a xlink:title=" ">
<polygon fill="none" stroke="#bfbfbf" points="1086.7,-392.5 1086.7,-411.5 1134.7,-411.5 1134.7,-392.5 1086.7,-392.5"/>
<text text-anchor="middle" x="1110.7" y="-399.5" font-family="Helvetica,sans-Serif" font-size="10.00">time.h</text>
</a>
</g>
</g>
<!-- Node40&#45;&gt;Node41 -->
<g id="edge78" class="edge">
<title>Node40&#45;&gt;Node41</title>
<path fill="none" stroke="midnightblue" d="M1136.58,-448.08C1132.29,-440.61 1126.04,-429.72 1120.76,-420.52"/>
<polygon fill="midnightblue" stroke="midnightblue" points="1123.74,-418.68 1115.72,-411.75 1117.67,-422.17 1123.74,-418.68"/>
</g>
</g>
</svg>
