<?xml version="1.0" encoding="UTF-8" standalone="no"?>
<!DOCTYPE svg PUBLIC "-//W3C//DTD SVG 1.1//EN"
 "http://www.w3.org/Graphics/SVG/1.1/DTD/svg11.dtd">
<!-- Generated by graphviz version 2.43.0 (0)
 -->
<!-- Title: ft_keyhook_change_col Pages: 1 -->
<svg width="557pt" height="47pt"
 viewBox="0.00 0.00 557.00 47.00" xmlns="http://www.w3.org/2000/svg" xmlns:xlink="http://www.w3.org/1999/xlink">
<g id="graph0" class="graph" transform="scale(1 1) rotate(0) translate(4 43)">
<title>ft_keyhook_change_col</title>
<!-- Node1 -->
<g id="node1" class="node">
<title>Node1</title>
<g id="a_node1"><a xlink:title="Changes the colour with a keypress.">
<polygon fill="#bfbfbf" stroke="black" points="0,-19.5 0,-38.5 130,-38.5 130,-19.5 0,-19.5"/>
<text text-anchor="middle" x="65" y="-26.5" font-family="Helvetica,sans-Serif" font-size="10.00">ft_keyhook_change_col</text>
</a>
</g>
</g>
<!-- Node2 -->
<g id="node2" class="node">
<title>Node2</title>
<g id="a_node2"><a xlink:href="manip__colour_8c.html#a5d187c5314483276ba15560dcf620e39" target="_top" xlink:title="Returns a colour based on the given colour name.">
<polygon fill="none" stroke="black" points="469,-19.5 469,-38.5 549,-38.5 549,-19.5 469,-19.5"/>
<text text-anchor="middle" x="509" y="-26.5" font-family="Helvetica,sans-Serif" font-size="10.00">ft_get_colour</text>
</a>
</g>
</g>
<!-- Node1&#45;&gt;Node2 -->
<g id="edge1" class="edge">
<title>Node1&#45;&gt;Node2</title>
<path fill="none" stroke="midnightblue" d="M130.27,-29C219.29,-29 378.21,-29 458.57,-29"/>
<polygon fill="midnightblue" stroke="midnightblue" points="458.91,-32.5 468.91,-29 458.91,-25.5 458.91,-32.5"/>
</g>
<!-- Node3 -->
<g id="node3" class="node">
<title>Node3</title>
<g id="a_node3"><a xlink:href="manip__colour_8c.html#a02dd1323bf99ad166e22cf0dcbef39f2" target="_top" xlink:title="Interpolates between two colours while keeping track of progress.">
<polygon fill="none" stroke="black" points="166,-0.5 166,-19.5 280,-19.5 280,-0.5 166,-0.5"/>
<text text-anchor="middle" x="223" y="-7.5" font-family="Helvetica,sans-Serif" font-size="10.00">ft_static_interpolate</text>
</a>
</g>
</g>
<!-- Node1&#45;&gt;Node3 -->
<g id="edge2" class="edge">
<title>Node1&#45;&gt;Node3</title>
<path fill="none" stroke="midnightblue" d="M130.35,-21.16C138.71,-20.14 147.27,-19.1 155.66,-18.08"/>
<polygon fill="midnightblue" stroke="midnightblue" points="156.27,-21.53 165.77,-16.85 155.42,-14.58 156.27,-21.53"/>
</g>
<!-- Node4 -->
<g id="node4" class="node">
<title>Node4</title>
<g id="a_node4"><a xlink:href="manip__colour_8c.html#a41e18bc0bce27f7169b29f79e5de0423" target="_top" xlink:title="Interpolates between two colours.">
<polygon fill="none" stroke="black" points="316,-0.5 316,-19.5 433,-19.5 433,-0.5 316,-0.5"/>
<text text-anchor="middle" x="374.5" y="-7.5" font-family="Helvetica,sans-Serif" font-size="10.00">ft_interpolate_colour</text>
</a>
</g>
</g>
<!-- Node3&#45;&gt;Node4 -->
<g id="edge3" class="edge">
<title>Node3&#45;&gt;Node4</title>
<path fill="none" stroke="midnightblue" d="M280.09,-10C288.34,-10 296.91,-10 305.37,-10"/>
<polygon fill="midnightblue" stroke="midnightblue" points="305.6,-13.5 315.6,-10 305.6,-6.5 305.6,-13.5"/>
</g>
<!-- Node4&#45;&gt;Node2 -->
<g id="edge4" class="edge">
<title>Node4&#45;&gt;Node2</title>
<path fill="none" stroke="midnightblue" d="M433.23,-18.28C441.76,-19.5 450.48,-20.75 458.81,-21.95"/>
<polygon fill="midnightblue" stroke="midnightblue" points="458.35,-25.42 468.74,-23.37 459.34,-18.49 458.35,-25.42"/>
</g>
</g>
</svg>
