<?xml version="1.0" encoding="UTF-8" standalone="no"?>
<!DOCTYPE svg PUBLIC "-//W3C//DTD SVG 1.1//EN"
 "http://www.w3.org/Graphics/SVG/1.1/DTD/svg11.dtd">
<!-- Generated by graphviz version 2.43.0 (0)
 -->
<!-- Title: ft_keyhook_inc_dec Pages: 1 -->
<svg width="529pt" height="180pt"
 viewBox="0.00 0.00 529.00 180.00" xmlns="http://www.w3.org/2000/svg" xmlns:xlink="http://www.w3.org/1999/xlink">
<g id="graph0" class="graph" transform="scale(1 1) rotate(0) translate(4 176)">
<title>ft_keyhook_inc_dec</title>
<!-- Node1 -->
<g id="node1" class="node">
<title>Node1</title>
<g id="a_node1"><a xlink:title="Increases or decreases a value with a keypress.">
<polygon fill="#bfbfbf" stroke="black" points="409,-76.5 409,-95.5 521,-95.5 521,-76.5 409,-76.5"/>
<text text-anchor="middle" x="465" y="-83.5" font-family="Helvetica,sans-Serif" font-size="10.00">ft_keyhook_inc_dec</text>
</a>
</g>
</g>
<!-- Node2 -->
<g id="node2" class="node">
<title>Node2</title>
<g id="a_node2"><a xlink:href="manip_8h.html#a597d35b7bd3aa66272e3c2ff3a1e8f78" target="_top" xlink:title="Manipulates the ambient light.">
<polygon fill="none" stroke="black" points="267.5,-152.5 267.5,-171.5 372.5,-171.5 372.5,-152.5 267.5,-152.5"/>
<text text-anchor="middle" x="320" y="-159.5" font-family="Helvetica,sans-Serif" font-size="10.00">ft_manip_ambient</text>
</a>
</g>
</g>
<!-- Node1&#45;&gt;Node2 -->
<g id="edge1" class="edge">
<title>Node1&#45;&gt;Node2</title>
<path fill="none" stroke="midnightblue" d="M442.06,-101.57C424.08,-113.88 397.67,-130.93 373,-143 365.83,-146.51 357.85,-149.74 350.33,-152.5"/>
<polygon fill="midnightblue" stroke="midnightblue" points="444.42,-104.2 450.64,-95.62 440.43,-98.44 444.42,-104.2"/>
</g>
<!-- Node5 -->
<g id="node5" class="node">
<title>Node5</title>
<g id="a_node5"><a xlink:href="manip__bonus_8h.html#a81fa5494e17be06ab12b226ff9dd7c2a" target="_top" xlink:title="Manipulates the active cone.">
<polygon fill="none" stroke="black" points="276,-76.5 276,-95.5 364,-95.5 364,-76.5 276,-76.5"/>
<text text-anchor="middle" x="320" y="-83.5" font-family="Helvetica,sans-Serif" font-size="10.00">ft_manip_cone</text>
</a>
</g>
</g>
<!-- Node1&#45;&gt;Node5 -->
<g id="edge4" class="edge">
<title>Node1&#45;&gt;Node5</title>
<path fill="none" stroke="midnightblue" d="M398.55,-86C386.89,-86 375.01,-86 364.17,-86"/>
<polygon fill="midnightblue" stroke="midnightblue" points="398.71,-89.5 408.71,-86 398.71,-82.5 398.71,-89.5"/>
</g>
<!-- Node7 -->
<g id="node7" class="node">
<title>Node7</title>
<g id="a_node7"><a xlink:href="manip_8h.html#a2737927d8cc8ff5dc3bd94b3e11fc1a9" target="_top" xlink:title="Manipulates the active cylinder.">
<polygon fill="none" stroke="black" points="268,-38.5 268,-57.5 372,-57.5 372,-38.5 268,-38.5"/>
<text text-anchor="middle" x="320" y="-45.5" font-family="Helvetica,sans-Serif" font-size="10.00">ft_manip_cylinder</text>
</a>
</g>
</g>
<!-- Node1&#45;&gt;Node7 -->
<g id="edge7" class="edge">
<title>Node1&#45;&gt;Node7</title>
<path fill="none" stroke="midnightblue" d="M418.19,-73.83C398.41,-68.57 375.62,-62.51 357.07,-57.59"/>
<polygon fill="midnightblue" stroke="midnightblue" points="417.35,-77.23 427.92,-76.41 419.15,-70.46 417.35,-77.23"/>
</g>
<!-- Node8 -->
<g id="node8" class="node">
<title>Node8</title>
<g id="a_node8"><a xlink:href="manip_8h.html#a16d57d13773703e93274caef6b5ccde1" target="_top" xlink:title="Manipulates a light source.">
<polygon fill="none" stroke="black" points="267,-114.5 267,-133.5 373,-133.5 373,-114.5 267,-114.5"/>
<text text-anchor="middle" x="320" y="-121.5" font-family="Helvetica,sans-Serif" font-size="10.00">ft_manip_light_src</text>
</a>
</g>
</g>
<!-- Node1&#45;&gt;Node8 -->
<g id="edge9" class="edge">
<title>Node1&#45;&gt;Node8</title>
<path fill="none" stroke="midnightblue" d="M418.19,-98.17C398.41,-103.43 375.62,-109.49 357.07,-114.41"/>
<polygon fill="midnightblue" stroke="midnightblue" points="419.15,-101.54 427.92,-95.59 417.35,-94.77 419.15,-101.54"/>
</g>
<!-- Node9 -->
<g id="node9" class="node">
<title>Node9</title>
<g id="a_node9"><a xlink:href="manip_8h.html#a3af9cb325ad292f339446b63917a9ea2" target="_top" xlink:title="Manipulates the active sphere.">
<polygon fill="none" stroke="black" points="271,-0.5 271,-19.5 369,-19.5 369,-0.5 271,-0.5"/>
<text text-anchor="middle" x="320" y="-7.5" font-family="Helvetica,sans-Serif" font-size="10.00">ft_manip_sphere</text>
</a>
</g>
</g>
<!-- Node1&#45;&gt;Node9 -->
<g id="edge11" class="edge">
<title>Node1&#45;&gt;Node9</title>
<path fill="none" stroke="midnightblue" d="M442.06,-70.43C424.08,-58.12 397.67,-41.07 373,-29 365.83,-25.49 357.85,-22.26 350.33,-19.5"/>
<polygon fill="midnightblue" stroke="midnightblue" points="440.43,-73.56 450.64,-76.38 444.42,-67.8 440.43,-73.56"/>
</g>
<!-- Node3 -->
<g id="node3" class="node">
<title>Node3</title>
<g id="a_node3"><a xlink:href="manip_8h.html#acff7acf5eb6145177496e67b32a74fba" target="_top" xlink:title="Manipulates the active light.">
<polygon fill="none" stroke="black" points="137,-114.5 137,-133.5 223,-133.5 223,-114.5 137,-114.5"/>
<text text-anchor="middle" x="180" y="-121.5" font-family="Helvetica,sans-Serif" font-size="10.00">ft_manip_light</text>
</a>
</g>
</g>
<!-- Node2&#45;&gt;Node3 -->
<g id="edge2" class="edge">
<title>Node2&#45;&gt;Node3</title>
<path fill="none" stroke="midnightblue" d="M274.53,-149.75C255.51,-144.52 233.62,-138.49 215.81,-133.59"/>
<polygon fill="midnightblue" stroke="midnightblue" points="273.61,-153.13 284.18,-152.41 275.46,-146.38 273.61,-153.13"/>
</g>
<!-- Node4 -->
<g id="node4" class="node">
<title>Node4</title>
<g id="a_node4"><a xlink:href="manip_8h.html#ad4c2931e2e9392390f987c8ca3c99a5d" target="_top" xlink:title="Branches to the corresponding manipulation function.">
<polygon fill="none" stroke="black" points="0,-95.5 0,-114.5 93,-114.5 93,-95.5 0,-95.5"/>
<text text-anchor="middle" x="46.5" y="-102.5" font-family="Helvetica,sans-Serif" font-size="10.00">ft_manip_scene</text>
</a>
</g>
</g>
<!-- Node3&#45;&gt;Node4 -->
<g id="edge3" class="edge">
<title>Node3&#45;&gt;Node4</title>
<path fill="none" stroke="midnightblue" d="M126.73,-116.45C115.71,-114.86 104.16,-113.19 93.39,-111.63"/>
<polygon fill="midnightblue" stroke="midnightblue" points="126.27,-119.92 136.67,-117.88 127.27,-112.99 126.27,-119.92"/>
</g>
<!-- Node6 -->
<g id="node6" class="node">
<title>Node6</title>
<g id="a_node6"><a xlink:href="manip_8h.html#a58cfb6d04ac9120cc228cbc5411b2005" target="_top" xlink:title="Manipulates the active hittable.">
<polygon fill="none" stroke="black" points="129,-57.5 129,-76.5 231,-76.5 231,-57.5 129,-57.5"/>
<text text-anchor="middle" x="180" y="-64.5" font-family="Helvetica,sans-Serif" font-size="10.00">ft_manip_hittable</text>
</a>
</g>
</g>
<!-- Node5&#45;&gt;Node6 -->
<g id="edge5" class="edge">
<title>Node5&#45;&gt;Node6</title>
<path fill="none" stroke="midnightblue" d="M265.58,-78.65C254.33,-77.1 242.5,-75.47 231.37,-73.93"/>
<polygon fill="midnightblue" stroke="midnightblue" points="265.33,-82.14 275.71,-80.04 266.29,-75.21 265.33,-82.14"/>
</g>
<!-- Node6&#45;&gt;Node4 -->
<g id="edge6" class="edge">
<title>Node6&#45;&gt;Node4</title>
<path fill="none" stroke="midnightblue" d="M136.12,-79.39C118.11,-84.59 97.49,-90.55 80.67,-95.41"/>
<polygon fill="midnightblue" stroke="midnightblue" points="137.18,-82.73 145.82,-76.59 135.24,-76 137.18,-82.73"/>
</g>
<!-- Node7&#45;&gt;Node6 -->
<g id="edge8" class="edge">
<title>Node7&#45;&gt;Node6</title>
<path fill="none" stroke="midnightblue" d="M257.67,-56.44C248.77,-57.67 239.7,-58.92 231.05,-60.11"/>
<polygon fill="midnightblue" stroke="midnightblue" points="258.18,-59.91 267.61,-55.07 257.23,-52.97 258.18,-59.91"/>
</g>
<!-- Node8&#45;&gt;Node3 -->
<g id="edge10" class="edge">
<title>Node8&#45;&gt;Node3</title>
<path fill="none" stroke="midnightblue" d="M256.6,-124C245.36,-124 233.88,-124 223.37,-124"/>
<polygon fill="midnightblue" stroke="midnightblue" points="256.83,-127.5 266.83,-124 256.83,-120.5 256.83,-127.5"/>
</g>
<!-- Node9&#45;&gt;Node6 -->
<g id="edge12" class="edge">
<title>Node9&#45;&gt;Node6</title>
<path fill="none" stroke="midnightblue" d="M282.19,-23.11C277.07,-25.03 271.89,-27.03 267,-29 244.44,-38.09 219.01,-49.47 201.69,-57.4"/>
<polygon fill="midnightblue" stroke="midnightblue" points="283.72,-26.28 291.88,-19.53 281.29,-19.71 283.72,-26.28"/>
</g>
</g>
</svg>
