<?xml version="1.0" encoding="UTF-8" standalone="no"?>
<!DOCTYPE svg PUBLIC "-//W3C//DTD SVG 1.1//EN"
 "http://www.w3.org/Graphics/SVG/1.1/DTD/svg11.dtd">
<!-- Generated by graphviz version 2.43.0 (0)
 -->
<!-- Title: ft_manip_sphere Pages: 1 -->
<svg width="691pt" height="104pt"
 viewBox="0.00 0.00 691.00 104.00" xmlns="http://www.w3.org/2000/svg" xmlns:xlink="http://www.w3.org/1999/xlink">
<g id="graph0" class="graph" transform="scale(1 1) rotate(0) translate(4 100)">
<title>ft_manip_sphere</title>
<!-- Node1 -->
<g id="node1" class="node">
<title>Node1</title>
<g id="a_node1"><a xlink:title="Manipulates the active sphere.">
<polygon fill="#bfbfbf" stroke="black" points="0,-38.5 0,-57.5 98,-57.5 98,-38.5 0,-38.5"/>
<text text-anchor="middle" x="49" y="-45.5" font-family="Helvetica,sans-Serif" font-size="10.00">ft_manip_sphere</text>
</a>
</g>
</g>
<!-- Node2 -->
<g id="node2" class="node">
<title>Node2</title>
<g id="a_node2"><a xlink:href="manip_8h.html#a7f7526c1b74ae22e7d9f477e20a9890f" target="_top" xlink:title="Changes the colour with a keypress.">
<polygon fill="none" stroke="black" points="134,-76.5 134,-95.5 264,-95.5 264,-76.5 134,-76.5"/>
<text text-anchor="middle" x="199" y="-83.5" font-family="Helvetica,sans-Serif" font-size="10.00">ft_keyhook_change_col</text>
</a>
</g>
</g>
<!-- Node1&#45;&gt;Node2 -->
<g id="edge1" class="edge">
<title>Node1&#45;&gt;Node2</title>
<path fill="none" stroke="midnightblue" d="M87.35,-57.59C106.7,-62.56 130.53,-68.68 151.11,-73.96"/>
<polygon fill="midnightblue" stroke="midnightblue" points="150.37,-77.38 160.92,-76.48 152.11,-70.6 150.37,-77.38"/>
</g>
<!-- Node6 -->
<g id="node6" class="node">
<title>Node6</title>
<g id="a_node6"><a xlink:href="manip_8h.html#a7b262237fcbe352cb4ef79235666956b" target="_top" xlink:title="Increases or decreases a value with a keypress.">
<polygon fill="none" stroke="black" points="143,-38.5 143,-57.5 255,-57.5 255,-38.5 143,-38.5"/>
<text text-anchor="middle" x="199" y="-45.5" font-family="Helvetica,sans-Serif" font-size="10.00">ft_keyhook_inc_dec</text>
</a>
</g>
</g>
<!-- Node1&#45;&gt;Node6 -->
<g id="edge6" class="edge">
<title>Node1&#45;&gt;Node6</title>
<path fill="none" stroke="midnightblue" d="M98.05,-48C109.15,-48 121.14,-48 132.83,-48"/>
<polygon fill="midnightblue" stroke="midnightblue" points="133,-51.5 143,-48 133,-44.5 133,-51.5"/>
</g>
<!-- Node7 -->
<g id="node7" class="node">
<title>Node7</title>
<g id="a_node7"><a xlink:href="manip_8h.html#aa620096ce57b0280c8e9162eff12a938" target="_top" xlink:title="Moves a 3D point with a keypress.">
<polygon fill="none" stroke="black" points="138.5,-0.5 138.5,-19.5 259.5,-19.5 259.5,-0.5 138.5,-0.5"/>
<text text-anchor="middle" x="199" y="-7.5" font-family="Helvetica,sans-Serif" font-size="10.00">ft_keyhook_mv_point</text>
</a>
</g>
</g>
<!-- Node1&#45;&gt;Node7 -->
<g id="edge7" class="edge">
<title>Node1&#45;&gt;Node7</title>
<path fill="none" stroke="midnightblue" d="M87.35,-38.41C106.7,-33.44 130.53,-27.32 151.11,-22.04"/>
<polygon fill="midnightblue" stroke="midnightblue" points="152.11,-25.4 160.92,-19.52 150.37,-18.62 152.11,-25.4"/>
</g>
<!-- Node3 -->
<g id="node3" class="node">
<title>Node3</title>
<g id="a_node3"><a xlink:href="manip__colour_8c.html#a5d187c5314483276ba15560dcf620e39" target="_top" xlink:title="Returns a colour based on the given colour name.">
<polygon fill="none" stroke="black" points="603,-76.5 603,-95.5 683,-95.5 683,-76.5 603,-76.5"/>
<text text-anchor="middle" x="643" y="-83.5" font-family="Helvetica,sans-Serif" font-size="10.00">ft_get_colour</text>
</a>
</g>
</g>
<!-- Node2&#45;&gt;Node3 -->
<g id="edge2" class="edge">
<title>Node2&#45;&gt;Node3</title>
<path fill="none" stroke="midnightblue" d="M264.27,-86C353.29,-86 512.21,-86 592.57,-86"/>
<polygon fill="midnightblue" stroke="midnightblue" points="592.91,-89.5 602.91,-86 592.91,-82.5 592.91,-89.5"/>
</g>
<!-- Node4 -->
<g id="node4" class="node">
<title>Node4</title>
<g id="a_node4"><a xlink:href="manip__colour_8c.html#a02dd1323bf99ad166e22cf0dcbef39f2" target="_top" xlink:title="Interpolates between two colours while keeping track of progress.">
<polygon fill="none" stroke="black" points="300,-57.5 300,-76.5 414,-76.5 414,-57.5 300,-57.5"/>
<text text-anchor="middle" x="357" y="-64.5" font-family="Helvetica,sans-Serif" font-size="10.00">ft_static_interpolate</text>
</a>
</g>
</g>
<!-- Node2&#45;&gt;Node4 -->
<g id="edge3" class="edge">
<title>Node2&#45;&gt;Node4</title>
<path fill="none" stroke="midnightblue" d="M264.35,-78.16C272.71,-77.14 281.27,-76.1 289.66,-75.08"/>
<polygon fill="midnightblue" stroke="midnightblue" points="290.27,-78.53 299.77,-73.85 289.42,-71.58 290.27,-78.53"/>
</g>
<!-- Node5 -->
<g id="node5" class="node">
<title>Node5</title>
<g id="a_node5"><a xlink:href="manip__colour_8c.html#a41e18bc0bce27f7169b29f79e5de0423" target="_top" xlink:title="Interpolates between two colours.">
<polygon fill="none" stroke="black" points="450,-57.5 450,-76.5 567,-76.5 567,-57.5 450,-57.5"/>
<text text-anchor="middle" x="508.5" y="-64.5" font-family="Helvetica,sans-Serif" font-size="10.00">ft_interpolate_colour</text>
</a>
</g>
</g>
<!-- Node4&#45;&gt;Node5 -->
<g id="edge4" class="edge">
<title>Node4&#45;&gt;Node5</title>
<path fill="none" stroke="midnightblue" d="M414.09,-67C422.34,-67 430.91,-67 439.37,-67"/>
<polygon fill="midnightblue" stroke="midnightblue" points="439.6,-70.5 449.6,-67 439.6,-63.5 439.6,-70.5"/>
</g>
<!-- Node5&#45;&gt;Node3 -->
<g id="edge5" class="edge">
<title>Node5&#45;&gt;Node3</title>
<path fill="none" stroke="midnightblue" d="M567.23,-75.28C575.76,-76.5 584.48,-77.75 592.81,-78.95"/>
<polygon fill="midnightblue" stroke="midnightblue" points="592.35,-82.42 602.74,-80.37 593.34,-75.49 592.35,-82.42"/>
</g>
</g>
</svg>
