<?xml version="1.0" encoding="UTF-8" standalone="no"?>
<!DOCTYPE svg PUBLIC "-//W3C//DTD SVG 1.1//EN"
 "http://www.w3.org/Graphics/SVG/1.1/DTD/svg11.dtd">
<!-- Generated by graphviz version 2.43.0 (0)
 -->
<!-- Title: src/manip_colour.c Pages: 1 -->
<svg width="996pt" height="644pt"
 viewBox="0.00 0.00 996.00 644.00" xmlns="http://www.w3.org/2000/svg" xmlns:xlink="http://www.w3.org/1999/xlink">
<g id="graph0" class="graph" transform="scale(1 1) rotate(0) translate(4 640)">
<title>src/manip_colour.c</title>
<!-- Node1 -->
<g id="node1" class="node">
<title>Node1</title>
<g id="a_node1"><a xlink:title=" ">
<polygon fill="#bfbfbf" stroke="black" points="507.5,-616.5 507.5,-635.5 614.5,-635.5 614.5,-616.5 507.5,-616.5"/>
<text text-anchor="middle" x="561" y="-623.5" font-family="Helvetica,sans-Serif" font-size="10.00">src/manip_colour.c</text>
</a>
</g>
</g>
<!-- Node2 -->
<g id="node2" class="node">
<title>Node2</title>
<g id="a_node2"><a xlink:href="render_8h.html" target="_top" xlink:title=" ">
<polygon fill="none" stroke="black" points="533,-560.5 533,-579.5 589,-579.5 589,-560.5 533,-560.5"/>
<text text-anchor="middle" x="561" y="-567.5" font-family="Helvetica,sans-Serif" font-size="10.00">render.h</text>
</a>
</g>
</g>
<!-- Node1&#45;&gt;Node2 -->
<g id="edge1" class="edge">
<title>Node1&#45;&gt;Node2</title>
<path fill="none" stroke="midnightblue" d="M561,-616.08C561,-609.01 561,-598.86 561,-589.99"/>
<polygon fill="midnightblue" stroke="midnightblue" points="564.5,-589.75 561,-579.75 557.5,-589.75 564.5,-589.75"/>
</g>
<!-- Node3 -->
<g id="node3" class="node">
<title>Node3</title>
<g id="a_node3"><a xlink:title=" ">
<polygon fill="none" stroke="#bfbfbf" points="0,-448.5 0,-467.5 44,-467.5 44,-448.5 0,-448.5"/>
<text text-anchor="middle" x="22" y="-455.5" font-family="Helvetica,sans-Serif" font-size="10.00">mlx.h</text>
</a>
</g>
</g>
<!-- Node2&#45;&gt;Node3 -->
<g id="edge2" class="edge">
<title>Node2&#45;&gt;Node3</title>
<path fill="none" stroke="midnightblue" d="M532.94,-568.33C445.91,-565.92 181.7,-556.08 103,-524 76.27,-513.1 51.29,-490.42 36.33,-474.94"/>
<polygon fill="midnightblue" stroke="midnightblue" points="38.86,-472.52 29.46,-467.61 33.75,-477.3 38.86,-472.52"/>
</g>
<!-- Node4 -->
<g id="node4" class="node">
<title>Node4</title>
<g id="a_node4"><a xlink:title=" ">
<polygon fill="none" stroke="#bfbfbf" points="684,-504.5 684,-523.5 750,-523.5 750,-504.5 684,-504.5"/>
<text text-anchor="middle" x="717" y="-511.5" font-family="Helvetica,sans-Serif" font-size="10.00">X11/Xlib.h</text>
</a>
</g>
</g>
<!-- Node2&#45;&gt;Node4 -->
<g id="edge3" class="edge">
<title>Node2&#45;&gt;Node4</title>
<path fill="none" stroke="midnightblue" d="M585.72,-560.44C611.85,-551.4 653.26,-537.06 682.58,-526.92"/>
<polygon fill="midnightblue" stroke="midnightblue" points="684.09,-530.1 692.4,-523.52 681.8,-523.48 684.09,-530.1"/>
</g>
<!-- Node5 -->
<g id="node5" class="node">
<title>Node5</title>
<g id="a_node5"><a xlink:title=" ">
<polygon fill="none" stroke="#bfbfbf" points="768,-504.5 768,-523.5 822,-523.5 822,-504.5 768,-504.5"/>
<text text-anchor="middle" x="795" y="-511.5" font-family="Helvetica,sans-Serif" font-size="10.00">X11/X.h</text>
</a>
</g>
</g>
<!-- Node2&#45;&gt;Node5 -->
<g id="edge4" class="edge">
<title>Node2&#45;&gt;Node5</title>
<path fill="none" stroke="midnightblue" d="M589.24,-562.78C625.89,-554.67 692.07,-539.87 758.14,-524.17"/>
<polygon fill="midnightblue" stroke="midnightblue" points="758.97,-527.57 767.89,-521.84 757.35,-520.76 758.97,-527.57"/>
</g>
<!-- Node6 -->
<g id="node6" class="node">
<title>Node6</title>
<g id="a_node6"><a xlink:title=" ">
<polygon fill="none" stroke="#bfbfbf" points="840,-504.5 840,-523.5 926,-523.5 926,-504.5 840,-504.5"/>
<text text-anchor="middle" x="883" y="-511.5" font-family="Helvetica,sans-Serif" font-size="10.00">X11/keysym.h</text>
</a>
</g>
</g>
<!-- Node2&#45;&gt;Node6 -->
<g id="edge5" class="edge">
<title>Node2&#45;&gt;Node6</title>
<path fill="none" stroke="midnightblue" d="M589.39,-564.33C636.91,-556.49 735.85,-540.13 829.91,-524.18"/>
<polygon fill="midnightblue" stroke="midnightblue" points="830.6,-527.61 839.87,-522.49 829.43,-520.71 830.6,-527.61"/>
</g>
<!-- Node7 -->
<g id="node7" class="node">
<title>Node7</title>
<g id="a_node7"><a xlink:title=" ">
<polygon fill="none" stroke="#bfbfbf" points="944,-504.5 944,-523.5 988,-523.5 988,-504.5 944,-504.5"/>
<text text-anchor="middle" x="966" y="-511.5" font-family="Helvetica,sans-Serif" font-size="10.00">libft.h</text>
</a>
</g>
</g>
<!-- Node2&#45;&gt;Node7 -->
<g id="edge6" class="edge">
<title>Node2&#45;&gt;Node7</title>
<path fill="none" stroke="midnightblue" d="M589.4,-567.17C650.69,-562.88 799.95,-550.62 933.74,-523.96"/>
<polygon fill="midnightblue" stroke="midnightblue" points="934.65,-527.34 943.76,-521.93 933.26,-520.48 934.65,-527.34"/>
</g>
<!-- Node8 -->
<g id="node8" class="node">
<title>Node8</title>
<g id="a_node8"><a xlink:href="render__struct_8h.html" target="_top" xlink:title=" ">
<polygon fill="none" stroke="black" points="214,-336.5 214,-355.5 304,-355.5 304,-336.5 214,-336.5"/>
<text text-anchor="middle" x="259" y="-343.5" font-family="Helvetica,sans-Serif" font-size="10.00">render_struct.h</text>
</a>
</g>
</g>
<!-- Node2&#45;&gt;Node8 -->
<g id="edge7" class="edge">
<title>Node2&#45;&gt;Node8</title>
<path fill="none" stroke="midnightblue" d="M532.92,-567.73C472.59,-564.46 333.18,-553.78 298,-524 251.41,-484.55 253.04,-403.24 256.56,-366.17"/>
<polygon fill="midnightblue" stroke="midnightblue" points="260.08,-366.13 257.71,-355.8 253.13,-365.36 260.08,-366.13"/>
</g>
<!-- Node21 -->
<g id="node21" class="node">
<title>Node21</title>
<g id="a_node21"><a xlink:href="utils_8h.html" target="_top" xlink:title=" ">
<polygon fill="none" stroke="black" points="476.5,-112.5 476.5,-131.5 523.5,-131.5 523.5,-112.5 476.5,-112.5"/>
<text text-anchor="middle" x="500" y="-119.5" font-family="Helvetica,sans-Serif" font-size="10.00">utils.h</text>
</a>
</g>
</g>
<!-- Node2&#45;&gt;Node21 -->
<g id="edge55" class="edge">
<title>Node2&#45;&gt;Node21</title>
<path fill="none" stroke="midnightblue" d="M572.83,-560.21C583.79,-551.72 600.13,-538.09 612,-524 668.6,-456.81 700,-434.85 700,-347 700,-347 700,-347 700,-233 700,-158.02 590.73,-133.78 533.73,-126.24"/>
<polygon fill="midnightblue" stroke="midnightblue" points="534.08,-122.76 523.73,-125.02 533.23,-129.71 534.08,-122.76"/>
</g>
<!-- Node22 -->
<g id="node22" class="node">
<title>Node22</title>
<g id="a_node22"><a xlink:href="mini_r_t__config__bonus_8h.html" target="_top" xlink:title=" ">
<polygon fill="none" stroke="black" points="506,-224.5 506,-243.5 634,-243.5 634,-224.5 506,-224.5"/>
<text text-anchor="middle" x="570" y="-231.5" font-family="Helvetica,sans-Serif" font-size="10.00">miniRT_config_bonus.h</text>
</a>
</g>
</g>
<!-- Node2&#45;&gt;Node22 -->
<g id="edge39" class="edge">
<title>Node2&#45;&gt;Node22</title>
<path fill="none" stroke="midnightblue" d="M563.56,-560.25C568.75,-541.74 580,-497.18 580,-459 580,-459 580,-459 580,-345 580,-312.82 575.7,-275.55 572.74,-253.7"/>
<polygon fill="midnightblue" stroke="midnightblue" points="576.17,-252.95 571.31,-243.53 569.24,-253.92 576.17,-252.95"/>
</g>
<!-- Node27 -->
<g id="node27" class="node">
<title>Node27</title>
<g id="a_node27"><a xlink:href="render__struct__bonus_8h.html" target="_top" xlink:title=" ">
<polygon fill="none" stroke="black" points="267.5,-392.5 267.5,-411.5 392.5,-411.5 392.5,-392.5 267.5,-392.5"/>
<text text-anchor="middle" x="330" y="-399.5" font-family="Helvetica,sans-Serif" font-size="10.00">render_struct_bonus.h</text>
</a>
</g>
</g>
<!-- Node2&#45;&gt;Node27 -->
<g id="edge36" class="edge">
<title>Node2&#45;&gt;Node27</title>
<path fill="none" stroke="midnightblue" d="M532.74,-568.26C473.59,-566.04 339.88,-557.37 312,-524 287.36,-494.5 306.55,-446.24 319.92,-420.49"/>
<polygon fill="midnightblue" stroke="midnightblue" points="323.1,-421.97 324.82,-411.52 316.95,-418.61 323.1,-421.97"/>
</g>
<!-- Node28 -->
<g id="node28" class="node">
<title>Node28</title>
<g id="a_node28"><a xlink:href="ray__bonus_8h.html" target="_top" xlink:title=" ">
<polygon fill="none" stroke="black" points="397,-336.5 397,-355.5 473,-355.5 473,-336.5 397,-336.5"/>
<text text-anchor="middle" x="435" y="-343.5" font-family="Helvetica,sans-Serif" font-size="10.00">ray_bonus.h</text>
</a>
</g>
</g>
<!-- Node2&#45;&gt;Node28 -->
<g id="edge40" class="edge">
<title>Node2&#45;&gt;Node28</title>
<path fill="none" stroke="midnightblue" d="M559.54,-560.3C555.83,-539.71 544.73,-486.81 523,-448 503.92,-413.94 472.03,-381.12 452.32,-362.56"/>
<polygon fill="midnightblue" stroke="midnightblue" points="454.66,-359.95 444.94,-355.73 449.91,-365.09 454.66,-359.95"/>
</g>
<!-- Node29 -->
<g id="node29" class="node">
<title>Node29</title>
<g id="a_node29"><a xlink:href="manip__bonus_8h.html" target="_top" xlink:title=" ">
<polygon fill="none" stroke="black" points="320.5,-504.5 320.5,-523.5 411.5,-523.5 411.5,-504.5 320.5,-504.5"/>
<text text-anchor="middle" x="366" y="-511.5" font-family="Helvetica,sans-Serif" font-size="10.00">manip_bonus.h</text>
</a>
</g>
</g>
<!-- Node2&#45;&gt;Node29 -->
<g id="edge43" class="edge">
<title>Node2&#45;&gt;Node29</title>
<path fill="none" stroke="midnightblue" d="M532.65,-561.15C499.48,-551.96 444.33,-536.69 406.63,-526.25"/>
<polygon fill="midnightblue" stroke="midnightblue" points="407.54,-522.87 396.97,-523.58 405.67,-529.62 407.54,-522.87"/>
</g>
<!-- Node31 -->
<g id="node31" class="node">
<title>Node31</title>
<g id="a_node31"><a xlink:href="render__bit__field_8h.html" target="_top" xlink:title=" ">
<polygon fill="none" stroke="black" points="412.5,-448.5 412.5,-467.5 513.5,-467.5 513.5,-448.5 412.5,-448.5"/>
<text text-anchor="middle" x="463" y="-455.5" font-family="Helvetica,sans-Serif" font-size="10.00">render_bit_field.h</text>
</a>
</g>
</g>
<!-- Node2&#45;&gt;Node31 -->
<g id="edge47" class="edge">
<title>Node2&#45;&gt;Node31</title>
<path fill="none" stroke="midnightblue" d="M553.31,-560.37C536.99,-542.05 498.68,-499.05 477.58,-475.36"/>
<polygon fill="midnightblue" stroke="midnightblue" points="479.92,-472.73 470.65,-467.59 474.69,-477.39 479.92,-472.73"/>
</g>
<!-- Node32 -->
<g id="node32" class="node">
<title>Node32</title>
<g id="a_node32"><a xlink:href="cleanup_8h.html" target="_top" xlink:title=" ">
<polygon fill="none" stroke="black" points="608,-392.5 608,-411.5 672,-411.5 672,-392.5 608,-392.5"/>
<text text-anchor="middle" x="640" y="-399.5" font-family="Helvetica,sans-Serif" font-size="10.00">cleanup.h</text>
</a>
</g>
</g>
<!-- Node2&#45;&gt;Node32 -->
<g id="edge49" class="edge">
<title>Node2&#45;&gt;Node32</title>
<path fill="none" stroke="midnightblue" d="M568.59,-560.18C575.83,-551.44 586.69,-537.45 594,-524 612.81,-489.41 627.41,-445.51 634.76,-421.23"/>
<polygon fill="midnightblue" stroke="midnightblue" points="638.14,-422.14 637.62,-411.56 631.43,-420.16 638.14,-422.14"/>
</g>
<!-- Node33 -->
<g id="node33" class="node">
<title>Node33</title>
<g id="a_node33"><a xlink:href="error__mlx_8h.html" target="_top" xlink:title=" ">
<polygon fill="none" stroke="black" points="112.5,-504.5 112.5,-523.5 185.5,-523.5 185.5,-504.5 112.5,-504.5"/>
<text text-anchor="middle" x="149" y="-511.5" font-family="Helvetica,sans-Serif" font-size="10.00">error_mlx.h</text>
</a>
</g>
</g>
<!-- Node2&#45;&gt;Node33 -->
<g id="edge51" class="edge">
<title>Node2&#45;&gt;Node33</title>
<path fill="none" stroke="midnightblue" d="M532.68,-565.29C462.8,-556.13 281.6,-532.38 195.61,-521.11"/>
<polygon fill="midnightblue" stroke="midnightblue" points="195.98,-517.63 185.61,-519.8 195.07,-524.57 195.98,-517.63"/>
</g>
<!-- Node9 -->
<g id="node9" class="node">
<title>Node9</title>
<g id="a_node9"><a xlink:title=" ">
<polygon fill="none" stroke="#bfbfbf" points="359,-0.5 359,-19.5 421,-19.5 421,-0.5 359,-0.5"/>
<text text-anchor="middle" x="390" y="-7.5" font-family="Helvetica,sans-Serif" font-size="10.00">stdbool.h</text>
</a>
</g>
</g>
<!-- Node8&#45;&gt;Node9 -->
<g id="edge8" class="edge">
<title>Node8&#45;&gt;Node9</title>
<path fill="none" stroke="midnightblue" d="M239.64,-336.41C222.21,-328.24 196.3,-315.01 176,-300 97.98,-242.31 5.39,-188.57 65,-112 100.3,-66.66 269.59,-31.91 348.87,-17.83"/>
<polygon fill="midnightblue" stroke="midnightblue" points="349.74,-21.23 358.99,-16.06 348.53,-14.34 349.74,-21.23"/>
</g>
<!-- Node10 -->
<g id="node10" class="node">
<title>Node10</title>
<g id="a_node10"><a xlink:title=" ">
<polygon fill="none" stroke="#bfbfbf" points="280.5,-112.5 280.5,-131.5 333.5,-131.5 333.5,-112.5 280.5,-112.5"/>
<text text-anchor="middle" x="307" y="-119.5" font-family="Helvetica,sans-Serif" font-size="10.00">stdint.h</text>
</a>
</g>
</g>
<!-- Node8&#45;&gt;Node10 -->
<g id="edge9" class="edge">
<title>Node8&#45;&gt;Node10</title>
<path fill="none" stroke="midnightblue" d="M243.65,-336.31C213.67,-318.06 151.51,-273.35 167,-224 176.08,-195.06 182.62,-187.32 206,-168 224.94,-152.34 250.21,-141.09 270.73,-133.75"/>
<polygon fill="midnightblue" stroke="midnightblue" points="272.03,-137 280.37,-130.46 269.78,-130.38 272.03,-137"/>
</g>
<!-- Node11 -->
<g id="node11" class="node">
<title>Node11</title>
<g id="a_node11"><a xlink:href="vec2_8h.html" target="_top" xlink:title=" ">
<polygon fill="none" stroke="black" points="176.5,-224.5 176.5,-243.5 225.5,-243.5 225.5,-224.5 176.5,-224.5"/>
<text text-anchor="middle" x="201" y="-231.5" font-family="Helvetica,sans-Serif" font-size="10.00">vec2.h</text>
</a>
</g>
</g>
<!-- Node8&#45;&gt;Node11 -->
<g id="edge10" class="edge">
<title>Node8&#45;&gt;Node11</title>
<path fill="none" stroke="midnightblue" d="M254.45,-336.37C244.96,-318.38 222.91,-276.55 210.29,-252.63"/>
<polygon fill="midnightblue" stroke="midnightblue" points="213.29,-250.8 205.53,-243.59 207.1,-254.07 213.29,-250.8"/>
</g>
<!-- Node12 -->
<g id="node12" class="node">
<title>Node12</title>
<g id="a_node12"><a xlink:href="camera_8h.html" target="_top" xlink:title=" ">
<polygon fill="none" stroke="black" points="404,-280.5 404,-299.5 466,-299.5 466,-280.5 404,-280.5"/>
<text text-anchor="middle" x="435" y="-287.5" font-family="Helvetica,sans-Serif" font-size="10.00">camera.h</text>
</a>
</g>
</g>
<!-- Node8&#45;&gt;Node12 -->
<g id="edge11" class="edge">
<title>Node8&#45;&gt;Node12</title>
<path fill="none" stroke="midnightblue" d="M286.89,-336.44C316.75,-327.28 364.31,-312.69 397.46,-302.52"/>
<polygon fill="midnightblue" stroke="midnightblue" points="398.71,-305.8 407.24,-299.52 396.66,-299.1 398.71,-305.8"/>
</g>
<!-- Node23 -->
<g id="node23" class="node">
<title>Node23</title>
<g id="a_node23"><a xlink:href="entities__bonus_8h.html" target="_top" xlink:title=" ">
<polygon fill="none" stroke="black" points="286.5,-280.5 286.5,-299.5 383.5,-299.5 383.5,-280.5 286.5,-280.5"/>
<text text-anchor="middle" x="335" y="-287.5" font-family="Helvetica,sans-Serif" font-size="10.00">entities_bonus.h</text>
</a>
</g>
</g>
<!-- Node8&#45;&gt;Node23 -->
<g id="edge27" class="edge">
<title>Node8&#45;&gt;Node23</title>
<path fill="none" stroke="midnightblue" d="M271.21,-336.32C282.78,-328.11 300.38,-315.6 314.16,-305.81"/>
<polygon fill="midnightblue" stroke="midnightblue" points="316.44,-308.48 322.57,-299.83 312.39,-302.77 316.44,-308.48"/>
</g>
<!-- Node12&#45;&gt;Node11 -->
<g id="edge12" class="edge">
<title>Node12&#45;&gt;Node11</title>
<path fill="none" stroke="midnightblue" d="M403.99,-282.17C359.76,-272.41 279.85,-254.68 235.74,-244.09"/>
<polygon fill="midnightblue" stroke="midnightblue" points="236.4,-240.65 225.85,-241.69 234.75,-247.46 236.4,-240.65"/>
</g>
<!-- Node13 -->
<g id="node13" class="node">
<title>Node13</title>
<g id="a_node13"><a xlink:href="vec3_8h.html" target="_top" xlink:title=" ">
<polygon fill="none" stroke="black" points="392.5,-56.5 392.5,-75.5 441.5,-75.5 441.5,-56.5 392.5,-56.5"/>
<text text-anchor="middle" x="417" y="-63.5" font-family="Helvetica,sans-Serif" font-size="10.00">vec3.h</text>
</a>
</g>
</g>
<!-- Node12&#45;&gt;Node13 -->
<g id="edge13" class="edge">
<title>Node12&#45;&gt;Node13</title>
<path fill="none" stroke="midnightblue" d="M434.29,-280.3C431.65,-247.63 422.26,-131.87 418.54,-85.96"/>
<polygon fill="midnightblue" stroke="midnightblue" points="422.02,-85.57 417.72,-75.88 415.04,-86.13 422.02,-85.57"/>
</g>
<!-- Node15 -->
<g id="node15" class="node">
<title>Node15</title>
<g id="a_node15"><a xlink:href="error__syscall_8h.html" target="_top" xlink:title=" ">
<polygon fill="none" stroke="black" points="244,-224.5 244,-243.5 332,-243.5 332,-224.5 244,-224.5"/>
<text text-anchor="middle" x="288" y="-231.5" font-family="Helvetica,sans-Serif" font-size="10.00">error_syscall.h</text>
</a>
</g>
</g>
<!-- Node12&#45;&gt;Node15 -->
<g id="edge16" class="edge">
<title>Node12&#45;&gt;Node15</title>
<path fill="none" stroke="midnightblue" d="M411.71,-280.44C387.19,-271.44 348.4,-257.19 320.8,-247.05"/>
<polygon fill="midnightblue" stroke="midnightblue" points="321.78,-243.68 311.18,-243.52 319.36,-250.25 321.78,-243.68"/>
</g>
<!-- Node12&#45;&gt;Node21 -->
<g id="edge22" class="edge">
<title>Node12&#45;&gt;Node21</title>
<path fill="none" stroke="midnightblue" d="M443.16,-280.46C466.29,-256.23 530.71,-188.74 531,-188 537.77,-171.05 526.73,-152.29 516,-139.3"/>
<polygon fill="midnightblue" stroke="midnightblue" points="518.45,-136.79 509.18,-131.67 513.24,-141.46 518.45,-136.79"/>
</g>
<!-- Node12&#45;&gt;Node22 -->
<g id="edge26" class="edge">
<title>Node12&#45;&gt;Node22</title>
<path fill="none" stroke="midnightblue" d="M456.39,-280.44C478.71,-271.52 513.9,-257.44 539.21,-247.32"/>
<polygon fill="midnightblue" stroke="midnightblue" points="540.72,-250.48 548.71,-243.52 538.12,-243.98 540.72,-250.48"/>
</g>
<!-- Node13&#45;&gt;Node9 -->
<g id="edge15" class="edge">
<title>Node13&#45;&gt;Node9</title>
<path fill="none" stroke="midnightblue" d="M412.54,-56.08C408.85,-48.69 403.48,-37.95 398.91,-28.81"/>
<polygon fill="midnightblue" stroke="midnightblue" points="401.98,-27.13 394.38,-19.75 395.72,-30.26 401.98,-27.13"/>
</g>
<!-- Node14 -->
<g id="node14" class="node">
<title>Node14</title>
<g id="a_node14"><a xlink:title=" ">
<polygon fill="none" stroke="#bfbfbf" points="460.5,-0.5 460.5,-19.5 511.5,-19.5 511.5,-0.5 460.5,-0.5"/>
<text text-anchor="middle" x="486" y="-7.5" font-family="Helvetica,sans-Serif" font-size="10.00">math.h</text>
</a>
</g>
</g>
<!-- Node13&#45;&gt;Node14 -->
<g id="edge14" class="edge">
<title>Node13&#45;&gt;Node14</title>
<path fill="none" stroke="midnightblue" d="M428.09,-56.32C438.49,-48.18 454.26,-35.84 466.72,-26.09"/>
<polygon fill="midnightblue" stroke="midnightblue" points="468.99,-28.75 474.71,-19.83 464.68,-23.24 468.99,-28.75"/>
</g>
<!-- Node16 -->
<g id="node16" class="node">
<title>Node16</title>
<g id="a_node16"><a xlink:title=" ">
<polygon fill="none" stroke="#bfbfbf" points="215.5,-168.5 215.5,-187.5 262.5,-187.5 262.5,-168.5 215.5,-168.5"/>
<text text-anchor="middle" x="239" y="-175.5" font-family="Helvetica,sans-Serif" font-size="10.00">fcntl.h</text>
</a>
</g>
</g>
<!-- Node15&#45;&gt;Node16 -->
<g id="edge17" class="edge">
<title>Node15&#45;&gt;Node16</title>
<path fill="none" stroke="midnightblue" d="M279.91,-224.08C272.84,-216.3 262.41,-204.8 253.85,-195.37"/>
<polygon fill="midnightblue" stroke="midnightblue" points="256.25,-192.8 246.94,-187.75 251.07,-197.51 256.25,-192.8"/>
</g>
<!-- Node17 -->
<g id="node17" class="node">
<title>Node17</title>
<g id="a_node17"><a xlink:href="mini_r_t__error_8h.html" target="_top" xlink:title=" ">
<polygon fill="none" stroke="black" points="71.5,-168.5 71.5,-187.5 158.5,-187.5 158.5,-168.5 71.5,-168.5"/>
<text text-anchor="middle" x="115" y="-175.5" font-family="Helvetica,sans-Serif" font-size="10.00">miniRT_error.h</text>
</a>
</g>
</g>
<!-- Node15&#45;&gt;Node17 -->
<g id="edge18" class="edge">
<title>Node15&#45;&gt;Node17</title>
<path fill="none" stroke="midnightblue" d="M260.59,-224.44C231.23,-215.28 184.48,-200.69 151.9,-190.52"/>
<polygon fill="midnightblue" stroke="midnightblue" points="152.87,-187.16 142.28,-187.52 150.79,-193.84 152.87,-187.16"/>
</g>
<!-- Node18 -->
<g id="node18" class="node">
<title>Node18</title>
<g id="a_node18"><a xlink:title=" ">
<polygon fill="none" stroke="#bfbfbf" points="211,-112.5 211,-131.5 261,-131.5 261,-112.5 211,-112.5"/>
<text text-anchor="middle" x="236" y="-119.5" font-family="Helvetica,sans-Serif" font-size="10.00">stdio.h</text>
</a>
</g>
</g>
<!-- Node17&#45;&gt;Node18 -->
<g id="edge19" class="edge">
<title>Node17&#45;&gt;Node18</title>
<path fill="none" stroke="midnightblue" d="M134.17,-168.44C153.91,-159.64 184.89,-145.81 207.49,-135.72"/>
<polygon fill="midnightblue" stroke="midnightblue" points="209.21,-138.79 216.92,-131.52 206.36,-132.4 209.21,-138.79"/>
</g>
<!-- Node19 -->
<g id="node19" class="node">
<title>Node19</title>
<g id="a_node19"><a xlink:title=" ">
<polygon fill="none" stroke="#bfbfbf" points="139.5,-112.5 139.5,-131.5 190.5,-131.5 190.5,-112.5 139.5,-112.5"/>
<text text-anchor="middle" x="165" y="-119.5" font-family="Helvetica,sans-Serif" font-size="10.00">errno.h</text>
</a>
</g>
</g>
<!-- Node17&#45;&gt;Node19 -->
<g id="edge20" class="edge">
<title>Node17&#45;&gt;Node19</title>
<path fill="none" stroke="midnightblue" d="M123.26,-168.08C130.46,-160.3 141.11,-148.8 149.85,-139.37"/>
<polygon fill="midnightblue" stroke="midnightblue" points="152.67,-141.47 156.9,-131.75 147.53,-136.71 152.67,-141.47"/>
</g>
<!-- Node20 -->
<g id="node20" class="node">
<title>Node20</title>
<g id="a_node20"><a xlink:title=" ">
<polygon fill="none" stroke="#bfbfbf" points="74.5,-112.5 74.5,-131.5 121.5,-131.5 121.5,-112.5 74.5,-112.5"/>
<text text-anchor="middle" x="98" y="-119.5" font-family="Helvetica,sans-Serif" font-size="10.00">ft_fd.h</text>
</a>
</g>
</g>
<!-- Node17&#45;&gt;Node20 -->
<g id="edge21" class="edge">
<title>Node17&#45;&gt;Node20</title>
<path fill="none" stroke="midnightblue" d="M112.19,-168.08C109.92,-160.85 106.63,-150.41 103.79,-141.4"/>
<polygon fill="midnightblue" stroke="midnightblue" points="107.1,-140.24 100.75,-131.75 100.42,-142.34 107.1,-140.24"/>
</g>
<!-- Node21&#45;&gt;Node9 -->
<g id="edge24" class="edge">
<title>Node21&#45;&gt;Node9</title>
<path fill="none" stroke="midnightblue" d="M494.67,-112.38C486.33,-99.31 469.28,-74.09 451,-56 439.37,-44.49 424.65,-33.55 412.59,-25.34"/>
<polygon fill="midnightblue" stroke="midnightblue" points="414.24,-22.23 403.97,-19.62 410.37,-28.07 414.24,-22.23"/>
</g>
<!-- Node21&#45;&gt;Node13 -->
<g id="edge25" class="edge">
<title>Node21&#45;&gt;Node13</title>
<path fill="none" stroke="midnightblue" d="M486.66,-112.32C473.84,-103.98 454.22,-91.21 439.06,-81.35"/>
<polygon fill="midnightblue" stroke="midnightblue" points="440.59,-78.17 430.3,-75.65 436.78,-84.04 440.59,-78.17"/>
</g>
<!-- Node21&#45;&gt;Node14 -->
<g id="edge23" class="edge">
<title>Node21&#45;&gt;Node14</title>
<path fill="none" stroke="midnightblue" d="M498.9,-112.37C496.64,-94.62 491.43,-53.67 488.37,-29.6"/>
<polygon fill="midnightblue" stroke="midnightblue" points="491.83,-29.07 487.09,-19.59 484.88,-29.95 491.83,-29.07"/>
</g>
<!-- Node24 -->
<g id="node24" class="node">
<title>Node24</title>
<g id="a_node24"><a xlink:href="entities_8h.html" target="_top" xlink:title=" ">
<polygon fill="none" stroke="black" points="350,-224.5 350,-243.5 412,-243.5 412,-224.5 350,-224.5"/>
<text text-anchor="middle" x="381" y="-231.5" font-family="Helvetica,sans-Serif" font-size="10.00">entities.h</text>
</a>
</g>
</g>
<!-- Node23&#45;&gt;Node24 -->
<g id="edge28" class="edge">
<title>Node23&#45;&gt;Node24</title>
<path fill="none" stroke="midnightblue" d="M342.6,-280.08C349.23,-272.3 359.02,-260.8 367.06,-251.37"/>
<polygon fill="midnightblue" stroke="midnightblue" points="369.73,-253.63 373.55,-243.75 364.4,-249.09 369.73,-253.63"/>
</g>
<!-- Node24&#45;&gt;Node9 -->
<g id="edge29" class="edge">
<title>Node24&#45;&gt;Node9</title>
<path fill="none" stroke="midnightblue" d="M380.79,-224.14C380.25,-198.24 379.18,-120.36 384,-56 384.65,-47.35 385.85,-37.81 387.01,-29.75"/>
<polygon fill="midnightblue" stroke="midnightblue" points="390.51,-30.01 388.55,-19.6 383.59,-28.96 390.51,-30.01"/>
</g>
<!-- Node24&#45;&gt;Node13 -->
<g id="edge31" class="edge">
<title>Node24&#45;&gt;Node13</title>
<path fill="none" stroke="midnightblue" d="M382.94,-224.08C388.6,-197.95 405.24,-121.21 412.97,-85.58"/>
<polygon fill="midnightblue" stroke="midnightblue" points="416.44,-86.08 415.14,-75.57 409.6,-84.6 416.44,-86.08"/>
</g>
<!-- Node25 -->
<g id="node25" class="node">
<title>Node25</title>
<g id="a_node25"><a xlink:title=" ">
<polygon fill="none" stroke="#bfbfbf" points="468.5,-168.5 468.5,-187.5 521.5,-187.5 521.5,-168.5 468.5,-168.5"/>
<text text-anchor="middle" x="495" y="-175.5" font-family="Helvetica,sans-Serif" font-size="10.00">stdlib.h</text>
</a>
</g>
</g>
<!-- Node24&#45;&gt;Node25 -->
<g id="edge30" class="edge">
<title>Node24&#45;&gt;Node25</title>
<path fill="none" stroke="midnightblue" d="M399.06,-224.44C417.57,-215.68 446.58,-201.94 467.86,-191.86"/>
<polygon fill="midnightblue" stroke="midnightblue" points="469.48,-194.96 477.02,-187.52 466.49,-188.63 469.48,-194.96"/>
</g>
<!-- Node26 -->
<g id="node26" class="node">
<title>Node26</title>
<g id="a_node26"><a xlink:href="colour_8h.html" target="_top" xlink:title=" ">
<polygon fill="none" stroke="black" points="280.5,-168.5 280.5,-187.5 335.5,-187.5 335.5,-168.5 280.5,-168.5"/>
<text text-anchor="middle" x="308" y="-175.5" font-family="Helvetica,sans-Serif" font-size="10.00">colour.h</text>
</a>
</g>
</g>
<!-- Node24&#45;&gt;Node26 -->
<g id="edge32" class="edge">
<title>Node24&#45;&gt;Node26</title>
<path fill="none" stroke="midnightblue" d="M369.27,-224.32C358.16,-216.11 341.26,-203.6 328.02,-193.81"/>
<polygon fill="midnightblue" stroke="midnightblue" points="330.06,-190.97 319.94,-187.83 325.9,-196.59 330.06,-190.97"/>
</g>
<!-- Node26&#45;&gt;Node10 -->
<g id="edge34" class="edge">
<title>Node26&#45;&gt;Node10</title>
<path fill="none" stroke="midnightblue" d="M307.83,-168.08C307.7,-161.01 307.52,-150.86 307.35,-141.99"/>
<polygon fill="midnightblue" stroke="midnightblue" points="310.85,-141.68 307.16,-131.75 303.85,-141.81 310.85,-141.68"/>
</g>
<!-- Node26&#45;&gt;Node18 -->
<g id="edge33" class="edge">
<title>Node26&#45;&gt;Node18</title>
<path fill="none" stroke="midnightblue" d="M296.43,-168.32C285.58,-160.18 269.12,-147.84 256.12,-138.09"/>
<polygon fill="midnightblue" stroke="midnightblue" points="257.88,-135.03 247.78,-131.83 253.68,-140.63 257.88,-135.03"/>
</g>
<!-- Node26&#45;&gt;Node21 -->
<g id="edge35" class="edge">
<title>Node26&#45;&gt;Node21</title>
<path fill="none" stroke="midnightblue" d="M335.51,-169.26C370.1,-159.53 429.46,-142.84 466.62,-132.39"/>
<polygon fill="midnightblue" stroke="midnightblue" points="467.79,-135.7 476.47,-129.62 465.89,-128.96 467.79,-135.7"/>
</g>
<!-- Node27&#45;&gt;Node8 -->
<g id="edge37" class="edge">
<title>Node27&#45;&gt;Node8</title>
<path fill="none" stroke="midnightblue" d="M318.59,-392.32C307.89,-384.18 291.66,-371.84 278.84,-362.09"/>
<polygon fill="midnightblue" stroke="midnightblue" points="280.69,-359.1 270.61,-355.83 276.46,-364.67 280.69,-359.1"/>
</g>
<!-- Node27&#45;&gt;Node23 -->
<g id="edge38" class="edge">
<title>Node27&#45;&gt;Node23</title>
<path fill="none" stroke="midnightblue" d="M330.39,-392.37C331.2,-374.62 333.06,-333.67 334.15,-309.6"/>
<polygon fill="midnightblue" stroke="midnightblue" points="337.65,-309.74 334.61,-299.59 330.66,-309.42 337.65,-309.74"/>
</g>
<!-- Node28&#45;&gt;Node12 -->
<g id="edge42" class="edge">
<title>Node28&#45;&gt;Node12</title>
<path fill="none" stroke="midnightblue" d="M435,-336.08C435,-329.01 435,-318.86 435,-309.99"/>
<polygon fill="midnightblue" stroke="midnightblue" points="438.5,-309.75 435,-299.75 431.5,-309.75 438.5,-309.75"/>
</g>
<!-- Node28&#45;&gt;Node23 -->
<g id="edge41" class="edge">
<title>Node28&#45;&gt;Node23</title>
<path fill="none" stroke="midnightblue" d="M418.93,-336.32C403.04,-327.74 378.49,-314.49 360.04,-304.52"/>
<polygon fill="midnightblue" stroke="midnightblue" points="361.49,-301.33 351.03,-299.65 358.16,-307.49 361.49,-301.33"/>
</g>
<!-- Node29&#45;&gt;Node27 -->
<g id="edge46" class="edge">
<title>Node29&#45;&gt;Node27</title>
<path fill="none" stroke="midnightblue" d="M355.56,-504.24C346.58,-495.97 334.25,-482.66 329,-468 323.65,-453.06 324.48,-434.92 326.31,-421.6"/>
<polygon fill="midnightblue" stroke="midnightblue" points="329.77,-422.17 327.98,-411.73 322.86,-421.01 329.77,-422.17"/>
</g>
<!-- Node30 -->
<g id="node30" class="node">
<title>Node30</title>
<g id="a_node30"><a xlink:href="manip_8h.html" target="_top" xlink:title=" ">
<polygon fill="none" stroke="black" points="338,-448.5 338,-467.5 394,-467.5 394,-448.5 338,-448.5"/>
<text text-anchor="middle" x="366" y="-455.5" font-family="Helvetica,sans-Serif" font-size="10.00">manip.h</text>
</a>
</g>
</g>
<!-- Node29&#45;&gt;Node30 -->
<g id="edge44" class="edge">
<title>Node29&#45;&gt;Node30</title>
<path fill="none" stroke="midnightblue" d="M366,-504.08C366,-497.01 366,-486.86 366,-477.99"/>
<polygon fill="midnightblue" stroke="midnightblue" points="369.5,-477.75 366,-467.75 362.5,-477.75 369.5,-477.75"/>
</g>
<!-- Node30&#45;&gt;Node27 -->
<g id="edge45" class="edge">
<title>Node30&#45;&gt;Node27</title>
<path fill="none" stroke="midnightblue" d="M360.06,-448.08C355.02,-440.53 347.66,-429.49 341.49,-420.23"/>
<polygon fill="midnightblue" stroke="midnightblue" points="344.29,-418.13 335.83,-411.75 338.47,-422.01 344.29,-418.13"/>
</g>
<!-- Node31&#45;&gt;Node27 -->
<g id="edge48" class="edge">
<title>Node31&#45;&gt;Node27</title>
<path fill="none" stroke="midnightblue" d="M441.93,-448.44C419.94,-439.52 385.27,-425.44 360.34,-415.32"/>
<polygon fill="midnightblue" stroke="midnightblue" points="361.56,-412.04 350.98,-411.52 358.92,-418.52 361.56,-412.04"/>
</g>
<!-- Node32&#45;&gt;Node25 -->
<g id="edge50" class="edge">
<title>Node32&#45;&gt;Node25</title>
<path fill="none" stroke="midnightblue" d="M643.52,-392.15C654.02,-364.2 681.98,-276.59 643,-224 617.64,-189.78 566.9,-180.69 531.96,-178.73"/>
<polygon fill="midnightblue" stroke="midnightblue" points="531.8,-175.22 521.67,-178.32 531.53,-182.21 531.8,-175.22"/>
</g>
<!-- Node33&#45;&gt;Node3 -->
<g id="edge52" class="edge">
<title>Node33&#45;&gt;Node3</title>
<path fill="none" stroke="midnightblue" d="M128.88,-504.44C107.98,-495.56 75.07,-481.56 51.28,-471.45"/>
<polygon fill="midnightblue" stroke="midnightblue" points="52.6,-468.21 42.03,-467.52 49.86,-474.65 52.6,-468.21"/>
</g>
<!-- Node33&#45;&gt;Node11 -->
<g id="edge54" class="edge">
<title>Node33&#45;&gt;Node11</title>
<path fill="none" stroke="midnightblue" d="M153.99,-504.49C164.09,-486.44 186,-442.69 186,-403 186,-403 186,-403 186,-345 186,-312.5 192.51,-275.1 196.95,-253.34"/>
<polygon fill="midnightblue" stroke="midnightblue" points="200.39,-254.01 199.04,-243.5 193.54,-252.56 200.39,-254.01"/>
</g>
<!-- Node33&#45;&gt;Node17 -->
<g id="edge53" class="edge">
<title>Node33&#45;&gt;Node17</title>
<path fill="none" stroke="midnightblue" d="M137.31,-504.47C115.76,-487.66 72,-447.99 72,-403 72,-403 72,-403 72,-289 72,-254.31 90.78,-217.42 103.52,-196.4"/>
<polygon fill="midnightblue" stroke="midnightblue" points="106.65,-198 109.02,-187.67 100.73,-194.27 106.65,-198"/>
</g>
</g>
</svg>
