<?xml version="1.0" encoding="UTF-8" standalone="no"?>
<!DOCTYPE svg PUBLIC "-//W3C//DTD SVG 1.1//EN"
 "http://www.w3.org/Graphics/SVG/1.1/DTD/svg11.dtd">
<!-- Generated by graphviz version 2.43.0 (0)
 -->
<!-- Title: inc/manip_bonus.h Pages: 1 -->
<!--zoomable 532 -->
<svg id="main" version="1.1" xmlns="http://www.w3.org/2000/svg" xmlns:xlink="http://www.w3.org/1999/xlink" xml:space="preserve" onload="init(evt)">
<style type="text/css"><![CDATA[
.edge:hover path { stroke: red; }
.edge:hover polygon { stroke: red; fill: red; }
]]></style>
<script type="text/javascript"><![CDATA[
var edges = document.getElementsByTagName('g');
if (edges && edges.length) {
  for (var i=0;i<edges.length;i++) {
    if (edges[i].id.substr(0,4)=='edge') {
      edges[i].setAttribute('class','edge');
    }
  }
}
]]></script>
        <defs>
                <circle id="rim" cx="0" cy="0" r="7"/>
                <circle id="rim2" cx="0" cy="0" r="3.5"/>
                <g id="zoomPlus">
                        <use xlink:href="#rim" fill="#404040">
                                <set attributeName="fill" to="#808080" begin="zoomplus.mouseover" end="zoomplus.mouseout"/>
                        </use>
                        <path d="M-4,0h8M0,-4v8" fill="none" stroke="white" stroke-width="1.5" pointer-events="none"/>
                </g>
                <g id="zoomMin">
                        <use xlink:href="#rim" fill="#404040">
                                <set attributeName="fill" to="#808080" begin="zoomminus.mouseover" end="zoomminus.mouseout"/>
                        </use>
                        <path d="M-4,0h8" fill="none" stroke="white" stroke-width="1.5" pointer-events="none"/>
                </g>
                <g id="dirArrow">
                        <path fill="none" stroke="white" stroke-width="1.5" d="M0,-3.0v7 M-2.5,-0.5L0,-3.0L2.5,-0.5"/>
                </g>
               <g id="resetDef">
                       <use xlink:href="#rim2" fill="#404040">
                               <set attributeName="fill" to="#808080" begin="reset.mouseover" end="reset.mouseout"/>
                       </use>
               </g>
        </defs>

<script type="text/javascript">
var viewWidth = 657;
var viewHeight = 532;
var sectionId = 'dynsection-0';
</script>
<script xlink:href="svgpan.js"/>
<svg id="graph" class="graph">
<g id="viewport">
<title>inc/manip_bonus.h</title>
<!-- Node1 -->
<g id="node1" class="node">
<title>Node1</title>
<g id="a_node1"><a xlink:title=" ">
<polygon fill="#bfbfbf" stroke="black" points="480.5,-504.5 480.5,-523.5 588.5,-523.5 588.5,-504.5 480.5,-504.5"/>
<text text-anchor="middle" x="534.5" y="-511.5" font-family="Helvetica,sans-Serif" font-size="10.00">inc/manip_bonus.h</text>
</a>
</g>
</g>
<!-- Node2 -->
<g id="node2" class="node">
<title>Node2</title>
<g id="a_node2"><a xlink:href="manip_8h.html" target="_top" xlink:title=" ">
<polygon fill="none" stroke="black" points="478.5,-448.5 478.5,-467.5 534.5,-467.5 534.5,-448.5 478.5,-448.5"/>
<text text-anchor="middle" x="506.5" y="-455.5" font-family="Helvetica,sans-Serif" font-size="10.00">manip.h</text>
</a>
</g>
</g>
<!-- Node1&#45;&gt;Node2 -->
<g id="edge1" class="edge">
<title>Node1&#45;&gt;Node2</title>
<path fill="none" stroke="midnightblue" d="M529.88,-504.08C526.04,-496.69 520.48,-485.95 515.74,-476.81"/>
<polygon fill="midnightblue" stroke="midnightblue" points="518.75,-475.02 511.04,-467.75 512.53,-478.24 518.75,-475.02"/>
</g>
<!-- Node3 -->
<g id="node3" class="node">
<title>Node3</title>
<g id="a_node3"><a xlink:href="render__struct__bonus_8h.html" target="_top" xlink:title=" ">
<polygon fill="none" stroke="black" points="472,-392.5 472,-411.5 597,-411.5 597,-392.5 472,-392.5"/>
<text text-anchor="middle" x="534.5" y="-399.5" font-family="Helvetica,sans-Serif" font-size="10.00">render_struct_bonus.h</text>
</a>
</g>
</g>
<!-- Node1&#45;&gt;Node3 -->
<g id="edge33" class="edge">
<title>Node1&#45;&gt;Node3</title>
<path fill="none" stroke="midnightblue" d="M537.05,-504.19C540.37,-491.72 545.5,-468.18 543.5,-448 542.63,-439.17 540.81,-429.51 539.03,-421.4"/>
<polygon fill="midnightblue" stroke="midnightblue" points="542.42,-420.49 536.73,-411.55 535.6,-422.08 542.42,-420.49"/>
</g>
<!-- Node2&#45;&gt;Node3 -->
<g id="edge2" class="edge">
<title>Node2&#45;&gt;Node3</title>
<path fill="none" stroke="midnightblue" d="M511.12,-448.08C514.96,-440.69 520.52,-429.95 525.26,-420.81"/>
<polygon fill="midnightblue" stroke="midnightblue" points="528.47,-422.24 529.96,-411.75 522.25,-419.02 528.47,-422.24"/>
</g>
<!-- Node4 -->
<g id="node4" class="node">
<title>Node4</title>
<g id="a_node4"><a xlink:href="render__struct_8h.html" target="_top" xlink:title=" ">
<polygon fill="none" stroke="black" points="453.5,-336.5 453.5,-355.5 543.5,-355.5 543.5,-336.5 453.5,-336.5"/>
<text text-anchor="middle" x="498.5" y="-343.5" font-family="Helvetica,sans-Serif" font-size="10.00">render_struct.h</text>
</a>
</g>
</g>
<!-- Node3&#45;&gt;Node4 -->
<g id="edge3" class="edge">
<title>Node3&#45;&gt;Node4</title>
<path fill="none" stroke="midnightblue" d="M528.56,-392.08C523.52,-384.53 516.16,-373.49 509.99,-364.23"/>
<polygon fill="midnightblue" stroke="midnightblue" points="512.79,-362.13 504.33,-355.75 506.97,-366.01 512.79,-362.13"/>
</g>
<!-- Node19 -->
<g id="node19" class="node">
<title>Node19</title>
<g id="a_node19"><a xlink:href="entities__bonus_8h.html" target="_top" xlink:title=" ">
<polygon fill="none" stroke="black" points="546,-280.5 546,-299.5 643,-299.5 643,-280.5 546,-280.5"/>
<text text-anchor="middle" x="594.5" y="-287.5" font-family="Helvetica,sans-Serif" font-size="10.00">entities_bonus.h</text>
</a>
</g>
</g>
<!-- Node3&#45;&gt;Node19 -->
<g id="edge32" class="edge">
<title>Node3&#45;&gt;Node19</title>
<path fill="none" stroke="midnightblue" d="M539.21,-392.37C549.02,-374.38 571.84,-332.55 584.89,-308.63"/>
<polygon fill="midnightblue" stroke="midnightblue" points="588.1,-310.05 589.81,-299.59 581.95,-306.69 588.1,-310.05"/>
</g>
<!-- Node5 -->
<g id="node5" class="node">
<title>Node5</title>
<g id="a_node5"><a xlink:title=" ">
<polygon fill="none" stroke="#bfbfbf" points="466.5,-0.5 466.5,-19.5 528.5,-19.5 528.5,-0.5 466.5,-0.5"/>
<text text-anchor="middle" x="497.5" y="-7.5" font-family="Helvetica,sans-Serif" font-size="10.00">stdbool.h</text>
</a>
</g>
</g>
<!-- Node4&#45;&gt;Node5 -->
<g id="edge4" class="edge">
<title>Node4&#45;&gt;Node5</title>
<path fill="none" stroke="midnightblue" d="M501.06,-336.25C506.25,-317.74 517.5,-273.18 517.5,-235 517.5,-235 517.5,-235 517.5,-121 517.5,-88.44 508.91,-51.32 502.99,-29.59"/>
<polygon fill="midnightblue" stroke="midnightblue" points="506.29,-28.41 500.2,-19.74 499.56,-30.32 506.29,-28.41"/>
</g>
<!-- Node6 -->
<g id="node6" class="node">
<title>Node6</title>
<g id="a_node6"><a xlink:title=" ">
<polygon fill="none" stroke="#bfbfbf" points="436,-112.5 436,-131.5 489,-131.5 489,-112.5 436,-112.5"/>
<text text-anchor="middle" x="462.5" y="-119.5" font-family="Helvetica,sans-Serif" font-size="10.00">stdint.h</text>
</a>
</g>
</g>
<!-- Node4&#45;&gt;Node6 -->
<g id="edge5" class="edge">
<title>Node4&#45;&gt;Node6</title>
<path fill="none" stroke="midnightblue" d="M497.09,-336.3C491.79,-303.63 473.02,-187.87 465.57,-141.96"/>
<polygon fill="midnightblue" stroke="midnightblue" points="469,-141.19 463.94,-131.88 462.09,-142.32 469,-141.19"/>
</g>
<!-- Node7 -->
<g id="node7" class="node">
<title>Node7</title>
<g id="a_node7"><a xlink:href="vec2_8h.html" target="_top" xlink:title=" ">
<polygon fill="none" stroke="black" points="0,-224.5 0,-243.5 49,-243.5 49,-224.5 0,-224.5"/>
<text text-anchor="middle" x="24.5" y="-231.5" font-family="Helvetica,sans-Serif" font-size="10.00">vec2.h</text>
</a>
</g>
</g>
<!-- Node4&#45;&gt;Node7 -->
<g id="edge6" class="edge">
<title>Node4&#45;&gt;Node7</title>
<path fill="none" stroke="midnightblue" d="M453.31,-340.96C394.77,-335.08 289.87,-322.36 202.5,-300 148.54,-286.19 88.11,-262.22 53.36,-247.57"/>
<polygon fill="midnightblue" stroke="midnightblue" points="54.42,-244.22 43.85,-243.52 51.68,-250.66 54.42,-244.22"/>
</g>
<!-- Node8 -->
<g id="node8" class="node">
<title>Node8</title>
<g id="a_node8"><a xlink:href="camera_8h.html" target="_top" xlink:title=" ">
<polygon fill="none" stroke="black" points="211.5,-280.5 211.5,-299.5 273.5,-299.5 273.5,-280.5 211.5,-280.5"/>
<text text-anchor="middle" x="242.5" y="-287.5" font-family="Helvetica,sans-Serif" font-size="10.00">camera.h</text>
</a>
</g>
</g>
<!-- Node4&#45;&gt;Node8 -->
<g id="edge7" class="edge">
<title>Node4&#45;&gt;Node8</title>
<path fill="none" stroke="midnightblue" d="M457.94,-336.44C410.26,-326.39 331.57,-309.79 283.64,-299.68"/>
<polygon fill="midnightblue" stroke="midnightblue" points="284.12,-296.2 273.61,-297.56 282.68,-303.05 284.12,-296.2"/>
</g>
<!-- Node4&#45;&gt;Node19 -->
<g id="edge23" class="edge">
<title>Node4&#45;&gt;Node19</title>
<path fill="none" stroke="midnightblue" d="M513.92,-336.32C529.04,-327.82 552.32,-314.73 569.97,-304.8"/>
<polygon fill="midnightblue" stroke="midnightblue" points="572.11,-307.61 579.11,-299.65 568.68,-301.51 572.11,-307.61"/>
</g>
<!-- Node8&#45;&gt;Node7 -->
<g id="edge8" class="edge">
<title>Node8&#45;&gt;Node7</title>
<path fill="none" stroke="midnightblue" d="M211.27,-281.26C170.91,-271.27 100.89,-253.92 59.01,-243.55"/>
<polygon fill="midnightblue" stroke="midnightblue" points="59.8,-240.14 49.25,-241.13 58.12,-246.93 59.8,-240.14"/>
</g>
<!-- Node9 -->
<g id="node9" class="node">
<title>Node9</title>
<g id="a_node9"><a xlink:href="vec3_8h.html" target="_top" xlink:title=" ">
<polygon fill="none" stroke="black" points="402,-56.5 402,-75.5 451,-75.5 451,-56.5 402,-56.5"/>
<text text-anchor="middle" x="426.5" y="-63.5" font-family="Helvetica,sans-Serif" font-size="10.00">vec3.h</text>
</a>
</g>
</g>
<!-- Node8&#45;&gt;Node9 -->
<g id="edge9" class="edge">
<title>Node8&#45;&gt;Node9</title>
<path fill="none" stroke="midnightblue" d="M211.38,-283.82C172.73,-276.68 110.2,-262.57 96.5,-244 68.38,-205.9 27.51,-202.26 137.5,-112 175.79,-80.58 323.52,-70.92 391.68,-68.1"/>
<polygon fill="midnightblue" stroke="midnightblue" points="392.05,-71.58 401.91,-67.7 391.78,-64.59 392.05,-71.58"/>
</g>
<!-- Node11 -->
<g id="node11" class="node">
<title>Node11</title>
<g id="a_node11"><a xlink:href="error__syscall_8h.html" target="_top" xlink:title=" ">
<polygon fill="none" stroke="black" points="251.5,-224.5 251.5,-243.5 339.5,-243.5 339.5,-224.5 251.5,-224.5"/>
<text text-anchor="middle" x="295.5" y="-231.5" font-family="Helvetica,sans-Serif" font-size="10.00">error_syscall.h</text>
</a>
</g>
</g>
<!-- Node8&#45;&gt;Node11 -->
<g id="edge12" class="edge">
<title>Node8&#45;&gt;Node11</title>
<path fill="none" stroke="midnightblue" d="M251.25,-280.08C258.97,-272.22 270.4,-260.57 279.72,-251.08"/>
<polygon fill="midnightblue" stroke="midnightblue" points="282.4,-253.34 286.91,-243.75 277.41,-248.44 282.4,-253.34"/>
</g>
<!-- Node17 -->
<g id="node17" class="node">
<title>Node17</title>
<g id="a_node17"><a xlink:href="utils_8h.html" target="_top" xlink:title=" ">
<polygon fill="none" stroke="black" points="371,-112.5 371,-131.5 418,-131.5 418,-112.5 371,-112.5"/>
<text text-anchor="middle" x="394.5" y="-119.5" font-family="Helvetica,sans-Serif" font-size="10.00">utils.h</text>
</a>
</g>
</g>
<!-- Node8&#45;&gt;Node17 -->
<g id="edge18" class="edge">
<title>Node8&#45;&gt;Node17</title>
<path fill="none" stroke="midnightblue" d="M273.67,-282.74C297.06,-276.55 328.4,-264.89 348.5,-244 376.33,-215.09 387.72,-167.63 392.06,-141.57"/>
<polygon fill="midnightblue" stroke="midnightblue" points="395.54,-141.95 393.55,-131.54 388.62,-140.92 395.54,-141.95"/>
</g>
<!-- Node18 -->
<g id="node18" class="node">
<title>Node18</title>
<g id="a_node18"><a xlink:href="mini_r_t__config__bonus_8h.html" target="_top" xlink:title=" ">
<polygon fill="none" stroke="black" points="105.5,-224.5 105.5,-243.5 233.5,-243.5 233.5,-224.5 105.5,-224.5"/>
<text text-anchor="middle" x="169.5" y="-231.5" font-family="Helvetica,sans-Serif" font-size="10.00">miniRT_config_bonus.h</text>
</a>
</g>
</g>
<!-- Node8&#45;&gt;Node18 -->
<g id="edge22" class="edge">
<title>Node8&#45;&gt;Node18</title>
<path fill="none" stroke="midnightblue" d="M230.77,-280.32C219.66,-272.11 202.76,-259.6 189.52,-249.81"/>
<polygon fill="midnightblue" stroke="midnightblue" points="191.56,-246.97 181.44,-243.83 187.4,-252.59 191.56,-246.97"/>
</g>
<!-- Node9&#45;&gt;Node5 -->
<g id="edge11" class="edge">
<title>Node9&#45;&gt;Node5</title>
<path fill="none" stroke="midnightblue" d="M437.91,-56.32C448.61,-48.18 464.84,-35.84 477.66,-26.09"/>
<polygon fill="midnightblue" stroke="midnightblue" points="480.04,-28.67 485.89,-19.83 475.81,-23.1 480.04,-28.67"/>
</g>
<!-- Node10 -->
<g id="node10" class="node">
<title>Node10</title>
<g id="a_node10"><a xlink:title=" ">
<polygon fill="none" stroke="#bfbfbf" points="382,-0.5 382,-19.5 433,-19.5 433,-0.5 382,-0.5"/>
<text text-anchor="middle" x="407.5" y="-7.5" font-family="Helvetica,sans-Serif" font-size="10.00">math.h</text>
</a>
</g>
</g>
<!-- Node9&#45;&gt;Node10 -->
<g id="edge10" class="edge">
<title>Node9&#45;&gt;Node10</title>
<path fill="none" stroke="midnightblue" d="M423.36,-56.08C420.82,-48.85 417.14,-38.41 413.97,-29.4"/>
<polygon fill="midnightblue" stroke="midnightblue" points="417.2,-28.02 410.58,-19.75 410.6,-30.35 417.2,-28.02"/>
</g>
<!-- Node12 -->
<g id="node12" class="node">
<title>Node12</title>
<g id="a_node12"><a xlink:title=" ">
<polygon fill="none" stroke="#bfbfbf" points="292,-168.5 292,-187.5 339,-187.5 339,-168.5 292,-168.5"/>
<text text-anchor="middle" x="315.5" y="-175.5" font-family="Helvetica,sans-Serif" font-size="10.00">fcntl.h</text>
</a>
</g>
</g>
<!-- Node11&#45;&gt;Node12 -->
<g id="edge13" class="edge">
<title>Node11&#45;&gt;Node12</title>
<path fill="none" stroke="midnightblue" d="M298.8,-224.08C301.48,-216.85 305.35,-206.41 308.69,-197.4"/>
<polygon fill="midnightblue" stroke="midnightblue" points="312.07,-198.34 312.26,-187.75 305.5,-195.91 312.07,-198.34"/>
</g>
<!-- Node13 -->
<g id="node13" class="node">
<title>Node13</title>
<g id="a_node13"><a xlink:href="mini_r_t__error_8h.html" target="_top" xlink:title=" ">
<polygon fill="none" stroke="black" points="187,-168.5 187,-187.5 274,-187.5 274,-168.5 187,-168.5"/>
<text text-anchor="middle" x="230.5" y="-175.5" font-family="Helvetica,sans-Serif" font-size="10.00">miniRT_error.h</text>
</a>
</g>
</g>
<!-- Node11&#45;&gt;Node13 -->
<g id="edge14" class="edge">
<title>Node11&#45;&gt;Node13</title>
<path fill="none" stroke="midnightblue" d="M285.06,-224.32C275.35,-216.26 260.68,-204.08 249,-194.37"/>
<polygon fill="midnightblue" stroke="midnightblue" points="251.06,-191.53 241.13,-187.83 246.59,-196.92 251.06,-191.53"/>
</g>
<!-- Node14 -->
<g id="node14" class="node">
<title>Node14</title>
<g id="a_node14"><a xlink:title=" ">
<polygon fill="none" stroke="#bfbfbf" points="295.5,-112.5 295.5,-131.5 345.5,-131.5 345.5,-112.5 295.5,-112.5"/>
<text text-anchor="middle" x="320.5" y="-119.5" font-family="Helvetica,sans-Serif" font-size="10.00">stdio.h</text>
</a>
</g>
</g>
<!-- Node13&#45;&gt;Node14 -->
<g id="edge15" class="edge">
<title>Node13&#45;&gt;Node14</title>
<path fill="none" stroke="midnightblue" d="M244.96,-168.32C259,-159.9 280.55,-146.97 297.04,-137.07"/>
<polygon fill="midnightblue" stroke="midnightblue" points="299.3,-139.8 306.08,-131.65 295.7,-133.8 299.3,-139.8"/>
</g>
<!-- Node15 -->
<g id="node15" class="node">
<title>Node15</title>
<g id="a_node15"><a xlink:title=" ">
<polygon fill="none" stroke="#bfbfbf" points="212,-112.5 212,-131.5 263,-131.5 263,-112.5 212,-112.5"/>
<text text-anchor="middle" x="237.5" y="-119.5" font-family="Helvetica,sans-Serif" font-size="10.00">errno.h</text>
</a>
</g>
</g>
<!-- Node13&#45;&gt;Node15 -->
<g id="edge16" class="edge">
<title>Node13&#45;&gt;Node15</title>
<path fill="none" stroke="midnightblue" d="M231.66,-168.08C232.58,-160.93 233.92,-150.64 235.08,-141.69"/>
<polygon fill="midnightblue" stroke="midnightblue" points="238.55,-142.12 236.37,-131.75 231.61,-141.22 238.55,-142.12"/>
</g>
<!-- Node16 -->
<g id="node16" class="node">
<title>Node16</title>
<g id="a_node16"><a xlink:title=" ">
<polygon fill="none" stroke="#bfbfbf" points="147,-112.5 147,-131.5 194,-131.5 194,-112.5 147,-112.5"/>
<text text-anchor="middle" x="170.5" y="-119.5" font-family="Helvetica,sans-Serif" font-size="10.00">ft_fd.h</text>
</a>
</g>
</g>
<!-- Node13&#45;&gt;Node16 -->
<g id="edge17" class="edge">
<title>Node13&#45;&gt;Node16</title>
<path fill="none" stroke="midnightblue" d="M220.86,-168.32C211.99,-160.34 198.63,-148.31 187.89,-138.65"/>
<polygon fill="midnightblue" stroke="midnightblue" points="190.09,-135.92 180.32,-131.83 185.41,-141.13 190.09,-135.92"/>
</g>
<!-- Node17&#45;&gt;Node5 -->
<g id="edge20" class="edge">
<title>Node17&#45;&gt;Node5</title>
<path fill="none" stroke="midnightblue" d="M410.67,-112.49C424.8,-104.47 445.23,-91.41 459.5,-76 472.38,-62.09 482.86,-43.08 489.53,-29.21"/>
<polygon fill="midnightblue" stroke="midnightblue" points="492.87,-30.33 493.86,-19.78 486.51,-27.41 492.87,-30.33"/>
</g>
<!-- Node17&#45;&gt;Node9 -->
<g id="edge21" class="edge">
<title>Node17&#45;&gt;Node9</title>
<path fill="none" stroke="midnightblue" d="M399.78,-112.08C404.21,-104.61 410.66,-93.72 416.12,-84.52"/>
<polygon fill="midnightblue" stroke="midnightblue" points="419.23,-86.14 421.31,-75.75 413.21,-82.57 419.23,-86.14"/>
</g>
<!-- Node17&#45;&gt;Node10 -->
<g id="edge19" class="edge">
<title>Node17&#45;&gt;Node10</title>
<path fill="none" stroke="midnightblue" d="M393.16,-112.1C391.51,-99.51 389.28,-75.84 392.5,-56 393.97,-46.96 396.99,-37.28 399.94,-29.22"/>
<polygon fill="midnightblue" stroke="midnightblue" points="403.26,-30.34 403.64,-19.75 396.74,-27.79 403.26,-30.34"/>
</g>
<!-- Node20 -->
<g id="node20" class="node">
<title>Node20</title>
<g id="a_node20"><a xlink:href="entities_8h.html" target="_top" xlink:title=" ">
<polygon fill="none" stroke="black" points="563.5,-224.5 563.5,-243.5 625.5,-243.5 625.5,-224.5 563.5,-224.5"/>
<text text-anchor="middle" x="594.5" y="-231.5" font-family="Helvetica,sans-Serif" font-size="10.00">entities.h</text>
</a>
</g>
</g>
<!-- Node19&#45;&gt;Node20 -->
<g id="edge24" class="edge">
<title>Node19&#45;&gt;Node20</title>
<path fill="none" stroke="midnightblue" d="M594.5,-280.08C594.5,-273.01 594.5,-262.86 594.5,-253.99"/>
<polygon fill="midnightblue" stroke="midnightblue" points="598,-253.75 594.5,-243.75 591,-253.75 598,-253.75"/>
</g>
<!-- Node20&#45;&gt;Node5 -->
<g id="edge25" class="edge">
<title>Node20&#45;&gt;Node5</title>
<path fill="none" stroke="midnightblue" d="M610.28,-224.47C622.7,-216.77 639.11,-204.18 646.5,-188 650.2,-179.92 649.79,-176.26 646.5,-168 620.68,-103.28 554.09,-49.95 519.34,-25.46"/>
<polygon fill="midnightblue" stroke="midnightblue" points="521.06,-22.39 510.84,-19.6 517.08,-28.16 521.06,-22.39"/>
</g>
<!-- Node20&#45;&gt;Node9 -->
<g id="edge27" class="edge">
<title>Node20&#45;&gt;Node9</title>
<path fill="none" stroke="midnightblue" d="M588.99,-224.28C575.36,-203.18 538.23,-148.45 497.5,-112 483.76,-99.71 466.29,-88.59 452.12,-80.48"/>
<polygon fill="midnightblue" stroke="midnightblue" points="453.8,-77.4 443.36,-75.6 450.39,-83.52 453.8,-77.4"/>
</g>
<!-- Node21 -->
<g id="node21" class="node">
<title>Node21</title>
<g id="a_node21"><a xlink:title=" ">
<polygon fill="none" stroke="#bfbfbf" points="584,-168.5 584,-187.5 637,-187.5 637,-168.5 584,-168.5"/>
<text text-anchor="middle" x="610.5" y="-175.5" font-family="Helvetica,sans-Serif" font-size="10.00">stdlib.h</text>
</a>
</g>
</g>
<!-- Node20&#45;&gt;Node21 -->
<g id="edge26" class="edge">
<title>Node20&#45;&gt;Node21</title>
<path fill="none" stroke="midnightblue" d="M597.14,-224.08C599.29,-216.85 602.38,-206.41 605.05,-197.4"/>
<polygon fill="midnightblue" stroke="midnightblue" points="608.42,-198.33 607.91,-187.75 601.71,-196.34 608.42,-198.33"/>
</g>
<!-- Node22 -->
<g id="node22" class="node">
<title>Node22</title>
<g id="a_node22"><a xlink:href="colour_8h.html" target="_top" xlink:title=" ">
<polygon fill="none" stroke="black" points="396,-168.5 396,-187.5 451,-187.5 451,-168.5 396,-168.5"/>
<text text-anchor="middle" x="423.5" y="-175.5" font-family="Helvetica,sans-Serif" font-size="10.00">colour.h</text>
</a>
</g>
</g>
<!-- Node20&#45;&gt;Node22 -->
<g id="edge28" class="edge">
<title>Node20&#45;&gt;Node22</title>
<path fill="none" stroke="midnightblue" d="M567.4,-224.44C538.51,-215.32 492.58,-200.81 460.39,-190.65"/>
<polygon fill="midnightblue" stroke="midnightblue" points="461.06,-187.19 450.47,-187.52 458.95,-193.87 461.06,-187.19"/>
</g>
<!-- Node22&#45;&gt;Node6 -->
<g id="edge30" class="edge">
<title>Node22&#45;&gt;Node6</title>
<path fill="none" stroke="midnightblue" d="M429.94,-168.08C435.45,-160.46 443.53,-149.26 450.26,-139.94"/>
<polygon fill="midnightblue" stroke="midnightblue" points="453.16,-141.91 456.18,-131.75 447.49,-137.81 453.16,-141.91"/>
</g>
<!-- Node22&#45;&gt;Node14 -->
<g id="edge29" class="edge">
<title>Node22&#45;&gt;Node14</title>
<path fill="none" stroke="midnightblue" d="M406.95,-168.32C390.51,-159.7 365.07,-146.36 346.03,-136.39"/>
<polygon fill="midnightblue" stroke="midnightblue" points="347.49,-133.2 337.01,-131.65 344.24,-139.4 347.49,-133.2"/>
</g>
<!-- Node22&#45;&gt;Node17 -->
<g id="edge31" class="edge">
<title>Node22&#45;&gt;Node17</title>
<path fill="none" stroke="midnightblue" d="M418.71,-168.08C414.74,-160.69 408.97,-149.95 404.07,-140.81"/>
<polygon fill="midnightblue" stroke="midnightblue" points="407.01,-138.91 399.2,-131.75 400.85,-142.22 407.01,-138.91"/>
</g>
</g>
</svg>
        <g id="navigator" transform="translate(0 0)" fill="#404254">
                <rect fill="#f2f5e9" fill-opacity="0.5" stroke="#606060" stroke-width=".5" x="0" y="0" width="60" height="60"/>
                <use id="zoomplus" xlink:href="#zoomPlus" x="17" y="9" onmousedown="handleZoom(evt,'in')"/>
                <use id="zoomminus" xlink:href="#zoomMin" x="42" y="9" onmousedown="handleZoom(evt,'out')"/>
                <use id="reset" xlink:href="#resetDef" x="30" y="36" onmousedown="handleReset()"/>
                <g id="arrowUp" xlink:href="#dirArrow" transform="translate(30 24)" onmousedown="handlePan(0,-1)">
                  <use xlink:href="#rim" fill="#404040">
                        <set attributeName="fill" to="#808080" begin="arrowUp.mouseover" end="arrowUp.mouseout"/>
                  </use>
                  <path fill="none" stroke="white" stroke-width="1.5" d="M0,-3.0v7 M-2.5,-0.5L0,-3.0L2.5,-0.5"/>
                </g>
                <g id="arrowRight" xlink:href="#dirArrow" transform="rotate(90) translate(36 -43)" onmousedown="handlePan(1,0)">
                  <use xlink:href="#rim" fill="#404040">
                        <set attributeName="fill" to="#808080" begin="arrowRight.mouseover" end="arrowRight.mouseout"/>
                  </use>
                  <path fill="none" stroke="white" stroke-width="1.5" d="M0,-3.0v7 M-2.5,-0.5L0,-3.0L2.5,-0.5"/>
                </g>
                <g id="arrowDown" xlink:href="#dirArrow" transform="rotate(180) translate(-30 -48)" onmousedown="handlePan(0,1)">
                  <use xlink:href="#rim" fill="#404040">
                        <set attributeName="fill" to="#808080" begin="arrowDown.mouseover" end="arrowDown.mouseout"/>
                  </use>
                  <path fill="none" stroke="white" stroke-width="1.5" d="M0,-3.0v7 M-2.5,-0.5L0,-3.0L2.5,-0.5"/>
                </g>
                <g id="arrowLeft" xlink:href="#dirArrow" transform="rotate(270) translate(-36 17)" onmousedown="handlePan(-1,0)">
                  <use xlink:href="#rim" fill="#404040">
                        <set attributeName="fill" to="#808080" begin="arrowLeft.mouseover" end="arrowLeft.mouseout"/>
                  </use>
                  <path fill="none" stroke="white" stroke-width="1.5" d="M0,-3.0v7 M-2.5,-0.5L0,-3.0L2.5,-0.5"/>
                </g>
        </g>
        <svg viewBox="0 0 15 15" width="100%" height="30px" preserveAspectRatio="xMaxYMin meet">
         <g id="arrow_out" transform="scale(0.3 0.3)">
          <a xlink:href="manip__bonus_8h__incl_org.svg" target="_base">
           <rect id="button" ry="5" rx="5" y="6" x="6" height="38" width="38"
                fill="#f2f5e9" fill-opacity="0.5" stroke="#606060" stroke-width="1.0"/>
           <path id="arrow"
             d="M 11.500037,31.436501 C 11.940474,20.09759 22.043105,11.32322 32.158766,21.979434 L 37.068811,17.246167 C 37.068811,17.246167 37.088388,32 37.088388,32 L 22.160133,31.978069 C 22.160133,31.978069 26.997745,27.140456 26.997745,27.140456 C 18.528582,18.264221 13.291696,25.230495 11.500037,31.436501 z"
             style="fill:#404040;"/>
          </a>
         </g>
        </svg>
</svg>
