<?xml version="1.0" encoding="UTF-8" standalone="no"?>
<!DOCTYPE svg PUBLIC "-//W3C//DTD SVG 1.1//EN"
 "http://www.w3.org/Graphics/SVG/1.1/DTD/svg11.dtd">
<!-- Generated by graphviz version 2.43.0 (0)
 -->
<!-- Title: ft_mat4_set_identity Pages: 1 -->
<svg width="743pt" height="123pt"
 viewBox="0.00 0.00 743.00 123.00" xmlns="http://www.w3.org/2000/svg" xmlns:xlink="http://www.w3.org/1999/xlink">
<g id="graph0" class="graph" transform="scale(1 1) rotate(0) translate(4 119)">
<title>ft_mat4_set_identity</title>
<!-- Node1 -->
<g id="node1" class="node">
<title>Node1</title>
<g id="a_node1"><a xlink:title="Returns a 4x4 identity matrix.">
<polygon fill="#bfbfbf" stroke="black" points="618,-38.5 618,-57.5 735,-57.5 735,-38.5 618,-38.5"/>
<text text-anchor="middle" x="676.5" y="-45.5" font-family="Helvetica,sans-Serif" font-size="10.00">ft_mat4_set_identity</text>
</a>
</g>
</g>
<!-- Node2 -->
<g id="node2" class="node">
<title>Node2</title>
<g id="a_node2"><a xlink:href="mat4_8h.html#a96153e828811e816c64e7d0e19fcf654" target="_top" xlink:title="Creates a 4x4 transformation matrix for x&#45;axis rotation.">
<polygon fill="none" stroke="black" points="446,-38.5 446,-57.5 582,-57.5 582,-38.5 446,-38.5"/>
<text text-anchor="middle" x="514" y="-45.5" font-family="Helvetica,sans-Serif" font-size="10.00">ft_mat4_create_rotate_x</text>
</a>
</g>
</g>
<!-- Node1&#45;&gt;Node2 -->
<g id="edge1" class="edge">
<title>Node1&#45;&gt;Node2</title>
<path fill="none" stroke="midnightblue" d="M607.45,-48C599.07,-48 590.5,-48 582.14,-48"/>
<polygon fill="midnightblue" stroke="midnightblue" points="607.56,-51.5 617.56,-48 607.56,-44.5 607.56,-51.5"/>
</g>
<!-- Node9 -->
<g id="node9" class="node">
<title>Node9</title>
<g id="a_node9"><a xlink:href="mat4_8h.html#a3f33a47cb6e2a560791c9be852f27b35" target="_top" xlink:title="Creates a 4x4 transformation matrix for y&#45;axis rotation.">
<polygon fill="none" stroke="black" points="446,-76.5 446,-95.5 582,-95.5 582,-76.5 446,-76.5"/>
<text text-anchor="middle" x="514" y="-83.5" font-family="Helvetica,sans-Serif" font-size="10.00">ft_mat4_create_rotate_y</text>
</a>
</g>
</g>
<!-- Node1&#45;&gt;Node9 -->
<g id="edge8" class="edge">
<title>Node1&#45;&gt;Node9</title>
<path fill="none" stroke="midnightblue" d="M625.25,-59.9C602.69,-65.24 576.44,-71.45 555.21,-76.48"/>
<polygon fill="midnightblue" stroke="midnightblue" points="626.07,-63.3 635,-57.59 624.46,-56.49 626.07,-63.3"/>
</g>
<!-- Node11 -->
<g id="node11" class="node">
<title>Node11</title>
<g id="a_node11"><a xlink:href="mat4_8h.html#a104dcf3f153038933ffa4f22b3d192a6" target="_top" xlink:title="Creates a 4x4 transformation matrix for z&#45;axis rotation.">
<polygon fill="none" stroke="black" points="446.5,-0.5 446.5,-19.5 581.5,-19.5 581.5,-0.5 446.5,-0.5"/>
<text text-anchor="middle" x="514" y="-7.5" font-family="Helvetica,sans-Serif" font-size="10.00">ft_mat4_create_rotate_z</text>
</a>
</g>
</g>
<!-- Node1&#45;&gt;Node11 -->
<g id="edge13" class="edge">
<title>Node1&#45;&gt;Node11</title>
<path fill="none" stroke="midnightblue" d="M625.25,-36.1C602.69,-30.76 576.44,-24.55 555.21,-19.52"/>
<polygon fill="midnightblue" stroke="midnightblue" points="624.46,-39.51 635,-38.41 626.07,-32.7 624.46,-39.51"/>
</g>
<!-- Node3 -->
<g id="node3" class="node">
<title>Node3</title>
<g id="a_node3"><a xlink:href="mat4__vec3_8h.html#a211f9d6535bb54bea2299ee5ea8a54a0" target="_top" xlink:title="Rotates a 3D vector around the x&#45;axis.">
<polygon fill="none" stroke="black" points="312,-38.5 312,-57.5 410,-57.5 410,-38.5 312,-38.5"/>
<text text-anchor="middle" x="361" y="-45.5" font-family="Helvetica,sans-Serif" font-size="10.00">ft_vec3_rotate_x</text>
</a>
</g>
</g>
<!-- Node2&#45;&gt;Node3 -->
<g id="edge2" class="edge">
<title>Node2&#45;&gt;Node3</title>
<path fill="none" stroke="midnightblue" d="M435.75,-48C427.1,-48 418.48,-48 410.34,-48"/>
<polygon fill="midnightblue" stroke="midnightblue" points="435.89,-51.5 445.89,-48 435.89,-44.5 435.89,-51.5"/>
</g>
<!-- Node4 -->
<g id="node4" class="node">
<title>Node4</title>
<g id="a_node4"><a xlink:href="render_8h.html#a492035e87e08c0c7a9e93a3fe4605cc2" target="_top" xlink:title="Rotates the camera with a keypress.">
<polygon fill="none" stroke="black" points="150.5,-95.5 150.5,-114.5 265.5,-114.5 265.5,-95.5 150.5,-95.5"/>
<text text-anchor="middle" x="208" y="-102.5" font-family="Helvetica,sans-Serif" font-size="10.00">ft_keyhook_rot_cam</text>
</a>
</g>
</g>
<!-- Node3&#45;&gt;Node4 -->
<g id="edge3" class="edge">
<title>Node3&#45;&gt;Node4</title>
<path fill="none" stroke="midnightblue" d="M324.91,-61.38C320.53,-63.2 316.14,-65.09 312,-67 295.56,-74.56 292.79,-79.27 276,-86 267.13,-89.55 257.36,-92.72 248.08,-95.4"/>
<polygon fill="midnightblue" stroke="midnightblue" points="326.42,-64.54 334.37,-57.55 323.79,-58.05 326.42,-64.54"/>
</g>
<!-- Node5 -->
<g id="node5" class="node">
<title>Node5</title>
<g id="a_node5"><a xlink:href="render_8h.html#a19285d1e97e1ac6d6d0708ecceb354ed" target="_top" xlink:title="Rotates a 3D vector with a keypress.">
<polygon fill="none" stroke="black" points="152.5,-57.5 152.5,-76.5 263.5,-76.5 263.5,-57.5 152.5,-57.5"/>
<text text-anchor="middle" x="208" y="-64.5" font-family="Helvetica,sans-Serif" font-size="10.00">ft_keyhook_rot_vec</text>
</a>
</g>
</g>
<!-- Node3&#45;&gt;Node5 -->
<g id="edge4" class="edge">
<title>Node3&#45;&gt;Node5</title>
<path fill="none" stroke="midnightblue" d="M301.88,-55.31C289.29,-56.9 276.01,-58.57 263.56,-60.14"/>
<polygon fill="midnightblue" stroke="midnightblue" points="302.32,-58.79 311.81,-54.06 301.45,-51.84 302.32,-58.79"/>
</g>
<!-- Node8 -->
<g id="node8" class="node">
<title>Node8</title>
<g id="a_node8"><a xlink:href="render_8h.html#a8b0cab63a8053d366bbefead351d039a" target="_top" xlink:title="Rotates the camera with the mouse.">
<polygon fill="none" stroke="black" points="140,-19.5 140,-38.5 276,-38.5 276,-19.5 140,-19.5"/>
<text text-anchor="middle" x="208" y="-26.5" font-family="Helvetica,sans-Serif" font-size="10.00">ft_mouse_hook_rot_cam</text>
</a>
</g>
</g>
<!-- Node3&#45;&gt;Node8 -->
<g id="edge7" class="edge">
<title>Node3&#45;&gt;Node8</title>
<path fill="none" stroke="midnightblue" d="M301.72,-40.67C293.3,-39.61 284.58,-38.51 276,-37.43"/>
<polygon fill="midnightblue" stroke="midnightblue" points="301.45,-44.16 311.81,-41.94 302.32,-37.21 301.45,-44.16"/>
</g>
<!-- Node6 -->
<g id="node6" class="node">
<title>Node6</title>
<g id="a_node6"><a xlink:href="render_8h.html#a2737927d8cc8ff5dc3bd94b3e11fc1a9" target="_top" xlink:title="Manipulates the active cylinder.">
<polygon fill="none" stroke="black" points="0,-76.5 0,-95.5 104,-95.5 104,-76.5 0,-76.5"/>
<text text-anchor="middle" x="52" y="-83.5" font-family="Helvetica,sans-Serif" font-size="10.00">ft_manip_cylinder</text>
</a>
</g>
</g>
<!-- Node5&#45;&gt;Node6 -->
<g id="edge5" class="edge">
<title>Node5&#45;&gt;Node6</title>
<path fill="none" stroke="midnightblue" d="M142.22,-74.99C129.53,-76.56 116.38,-78.18 104.2,-79.68"/>
<polygon fill="midnightblue" stroke="midnightblue" points="142.78,-78.45 152.27,-73.75 141.92,-71.5 142.78,-78.45"/>
</g>
<!-- Node7 -->
<g id="node7" class="node">
<title>Node7</title>
<g id="a_node7"><a xlink:href="render_8h.html#a2b397fc2e0dd418d497c05b3dff894f1" target="_top" xlink:title="Manipulates the active plane.">
<polygon fill="none" stroke="black" points="6,-38.5 6,-57.5 98,-57.5 98,-38.5 6,-38.5"/>
<text text-anchor="middle" x="52" y="-45.5" font-family="Helvetica,sans-Serif" font-size="10.00">ft_manip_plane</text>
</a>
</g>
</g>
<!-- Node5&#45;&gt;Node7 -->
<g id="edge6" class="edge">
<title>Node5&#45;&gt;Node7</title>
<path fill="none" stroke="midnightblue" d="M142.2,-59.01C127.47,-57.19 112.13,-55.29 98.4,-53.6"/>
<polygon fill="midnightblue" stroke="midnightblue" points="141.92,-62.5 152.27,-60.25 142.78,-55.55 141.92,-62.5"/>
</g>
<!-- Node10 -->
<g id="node10" class="node">
<title>Node10</title>
<g id="a_node10"><a xlink:href="mat4__vec3_8h.html#ac8a4ca6fb927e3746e7129f8eb04aa46" target="_top" xlink:title="Rotates a 3D vector around the y&#45;axis.">
<polygon fill="none" stroke="black" points="312,-76.5 312,-95.5 410,-95.5 410,-76.5 312,-76.5"/>
<text text-anchor="middle" x="361" y="-83.5" font-family="Helvetica,sans-Serif" font-size="10.00">ft_vec3_rotate_y</text>
</a>
</g>
</g>
<!-- Node9&#45;&gt;Node10 -->
<g id="edge9" class="edge">
<title>Node9&#45;&gt;Node10</title>
<path fill="none" stroke="midnightblue" d="M435.75,-86C427.1,-86 418.48,-86 410.34,-86"/>
<polygon fill="midnightblue" stroke="midnightblue" points="435.89,-89.5 445.89,-86 435.89,-82.5 435.89,-89.5"/>
</g>
<!-- Node10&#45;&gt;Node4 -->
<g id="edge10" class="edge">
<title>Node10&#45;&gt;Node4</title>
<path fill="none" stroke="midnightblue" d="M301.62,-93.35C289.82,-94.83 277.43,-96.39 265.69,-97.87"/>
<polygon fill="midnightblue" stroke="midnightblue" points="302.32,-96.79 311.81,-92.06 301.45,-89.84 302.32,-96.79"/>
</g>
<!-- Node10&#45;&gt;Node5 -->
<g id="edge11" class="edge">
<title>Node10&#45;&gt;Node5</title>
<path fill="none" stroke="midnightblue" d="M301.88,-78.69C289.29,-77.1 276.01,-75.43 263.56,-73.86"/>
<polygon fill="midnightblue" stroke="midnightblue" points="301.45,-82.16 311.81,-79.94 302.32,-75.21 301.45,-82.16"/>
</g>
<!-- Node10&#45;&gt;Node8 -->
<g id="edge12" class="edge">
<title>Node10&#45;&gt;Node8</title>
<path fill="none" stroke="midnightblue" d="M324.91,-72.62C320.53,-70.8 316.14,-68.91 312,-67 295.56,-59.44 292.79,-54.73 276,-48 267.13,-44.45 257.36,-41.28 248.08,-38.6"/>
<polygon fill="midnightblue" stroke="midnightblue" points="323.79,-75.95 334.37,-76.45 326.42,-69.46 323.79,-75.95"/>
</g>
<!-- Node12 -->
<g id="node12" class="node">
<title>Node12</title>
<g id="a_node12"><a xlink:href="mat4__vec3_8h.html#ad39f8d1d44f9bce6c5025b87a09f7dfc" target="_top" xlink:title="Rotates a 3D vector around the z&#45;axis.">
<polygon fill="none" stroke="black" points="312.5,-0.5 312.5,-19.5 409.5,-19.5 409.5,-0.5 312.5,-0.5"/>
<text text-anchor="middle" x="361" y="-7.5" font-family="Helvetica,sans-Serif" font-size="10.00">ft_vec3_rotate_z</text>
</a>
</g>
</g>
<!-- Node11&#45;&gt;Node12 -->
<g id="edge14" class="edge">
<title>Node11&#45;&gt;Node12</title>
<path fill="none" stroke="midnightblue" d="M436.18,-10C427.17,-10 418.18,-10 409.74,-10"/>
<polygon fill="midnightblue" stroke="midnightblue" points="436.33,-13.5 446.33,-10 436.33,-6.5 436.33,-13.5"/>
</g>
</g>
</svg>
