<?xml version="1.0" encoding="UTF-8" standalone="no"?>
<!DOCTYPE svg PUBLIC "-//W3C//DTD SVG 1.1//EN"
 "http://www.w3.org/Graphics/SVG/1.1/DTD/svg11.dtd">
<!-- Generated by graphviz version 2.43.0 (0)
 -->
<!-- Title: inc/mat4_vec3.h Pages: 1 -->
<svg width="140pt" height="196pt"
 viewBox="0.00 0.00 139.50 196.00" xmlns="http://www.w3.org/2000/svg" xmlns:xlink="http://www.w3.org/1999/xlink">
<g id="graph0" class="graph" transform="scale(1 1) rotate(0) translate(4 192)">
<title>inc/mat4_vec3.h</title>
<!-- Node1 -->
<g id="node1" class="node">
<title>Node1</title>
<g id="a_node1"><a xlink:title=" ">
<polygon fill="#bfbfbf" stroke="black" points="14,-168.5 14,-187.5 111,-187.5 111,-168.5 14,-168.5"/>
<text text-anchor="middle" x="62.5" y="-175.5" font-family="Helvetica,sans-Serif" font-size="10.00">inc/mat4_vec3.h</text>
</a>
</g>
</g>
<!-- Node2 -->
<g id="node2" class="node">
<title>Node2</title>
<g id="a_node2"><a xlink:href="vec3_8h.html" target="_top" xlink:title=" ">
<polygon fill="none" stroke="black" points="5,-56.5 5,-75.5 54,-75.5 54,-56.5 5,-56.5"/>
<text text-anchor="middle" x="29.5" y="-63.5" font-family="Helvetica,sans-Serif" font-size="10.00">vec3.h</text>
</a>
</g>
</g>
<!-- Node1&#45;&gt;Node2 -->
<g id="edge1" class="edge">
<title>Node1&#45;&gt;Node2</title>
<path fill="none" stroke="midnightblue" d="M59.91,-168.37C54.56,-150.54 42.19,-109.3 34.98,-85.27"/>
<polygon fill="midnightblue" stroke="midnightblue" points="38.3,-84.16 32.08,-75.59 31.6,-86.18 38.3,-84.16"/>
</g>
<!-- Node5 -->
<g id="node5" class="node">
<title>Node5</title>
<g id="a_node5"><a xlink:href="mat4_8h.html" target="_top" xlink:title=" ">
<polygon fill="none" stroke="black" points="67,-112.5 67,-131.5 118,-131.5 118,-112.5 67,-112.5"/>
<text text-anchor="middle" x="92.5" y="-119.5" font-family="Helvetica,sans-Serif" font-size="10.00">mat4.h</text>
</a>
</g>
</g>
<!-- Node1&#45;&gt;Node5 -->
<g id="edge4" class="edge">
<title>Node1&#45;&gt;Node5</title>
<path fill="none" stroke="midnightblue" d="M67.45,-168.08C71.6,-160.61 77.65,-149.72 82.77,-140.52"/>
<polygon fill="midnightblue" stroke="midnightblue" points="85.84,-142.19 87.64,-131.75 79.72,-138.79 85.84,-142.19"/>
</g>
<!-- Node3 -->
<g id="node3" class="node">
<title>Node3</title>
<g id="a_node3"><a xlink:title=" ">
<polygon fill="none" stroke="#bfbfbf" points="0,-0.5 0,-19.5 51,-19.5 51,-0.5 0,-0.5"/>
<text text-anchor="middle" x="25.5" y="-7.5" font-family="Helvetica,sans-Serif" font-size="10.00">math.h</text>
</a>
</g>
</g>
<!-- Node2&#45;&gt;Node3 -->
<g id="edge2" class="edge">
<title>Node2&#45;&gt;Node3</title>
<path fill="none" stroke="midnightblue" d="M28.84,-56.08C28.32,-49.01 27.56,-38.86 26.91,-29.99"/>
<polygon fill="midnightblue" stroke="midnightblue" points="30.38,-29.47 26.15,-19.75 23.4,-29.98 30.38,-29.47"/>
</g>
<!-- Node4 -->
<g id="node4" class="node">
<title>Node4</title>
<g id="a_node4"><a xlink:title=" ">
<polygon fill="none" stroke="#bfbfbf" points="69.5,-0.5 69.5,-19.5 131.5,-19.5 131.5,-0.5 69.5,-0.5"/>
<text text-anchor="middle" x="100.5" y="-7.5" font-family="Helvetica,sans-Serif" font-size="10.00">stdbool.h</text>
</a>
</g>
</g>
<!-- Node2&#45;&gt;Node4 -->
<g id="edge3" class="edge">
<title>Node2&#45;&gt;Node4</title>
<path fill="none" stroke="midnightblue" d="M40.91,-56.32C51.61,-48.18 67.84,-35.84 80.66,-26.09"/>
<polygon fill="midnightblue" stroke="midnightblue" points="83.04,-28.67 88.89,-19.83 78.81,-23.1 83.04,-28.67"/>
</g>
<!-- Node6 -->
<g id="node6" class="node">
<title>Node6</title>
<g id="a_node6"><a xlink:href="utils_8h.html" target="_top" xlink:title=" ">
<polygon fill="none" stroke="black" points="72,-56.5 72,-75.5 119,-75.5 119,-56.5 72,-56.5"/>
<text text-anchor="middle" x="95.5" y="-63.5" font-family="Helvetica,sans-Serif" font-size="10.00">utils.h</text>
</a>
</g>
</g>
<!-- Node5&#45;&gt;Node6 -->
<g id="edge5" class="edge">
<title>Node5&#45;&gt;Node6</title>
<path fill="none" stroke="midnightblue" d="M93,-112.08C93.39,-105.01 93.95,-94.86 94.45,-85.99"/>
<polygon fill="midnightblue" stroke="midnightblue" points="97.95,-85.93 95.01,-75.75 90.96,-85.54 97.95,-85.93"/>
</g>
<!-- Node6&#45;&gt;Node3 -->
<g id="edge6" class="edge">
<title>Node6&#45;&gt;Node3</title>
<path fill="none" stroke="midnightblue" d="M84.25,-56.32C73.7,-48.18 57.7,-35.84 45.06,-26.09"/>
<polygon fill="midnightblue" stroke="midnightblue" points="47.01,-23.17 36.95,-19.83 42.73,-28.71 47.01,-23.17"/>
</g>
<!-- Node6&#45;&gt;Node4 -->
<g id="edge7" class="edge">
<title>Node6&#45;&gt;Node4</title>
<path fill="none" stroke="midnightblue" d="M96.33,-56.08C96.98,-49.01 97.92,-38.86 98.74,-29.99"/>
<polygon fill="midnightblue" stroke="midnightblue" points="102.25,-30.03 99.69,-19.75 95.28,-29.39 102.25,-30.03"/>
</g>
</g>
</svg>
