<?xml version="1.0" encoding="UTF-8" standalone="no"?>
<!DOCTYPE svg PUBLIC "-//W3C//DTD SVG 1.1//EN"
 "http://www.w3.org/Graphics/SVG/1.1/DTD/svg11.dtd">
<!-- Generated by graphviz version 2.43.0 (0)
 -->
<!-- Title: inc/mat4.h Pages: 1 -->
<!--zoomable 274 -->
<svg id="main" version="1.1" xmlns="http://www.w3.org/2000/svg" xmlns:xlink="http://www.w3.org/1999/xlink" xml:space="preserve" onload="init(evt)">
<style type="text/css"><![CDATA[
.edge:hover path { stroke: red; }
.edge:hover polygon { stroke: red; fill: red; }
]]></style>
<script type="text/javascript"><![CDATA[
var edges = document.getElementsByTagName('g');
if (edges && edges.length) {
  for (var i=0;i<edges.length;i++) {
    if (edges[i].id.substr(0,4)=='edge') {
      edges[i].setAttribute('class','edge');
    }
  }
}
]]></script>
        <defs>
                <circle id="rim" cx="0" cy="0" r="7"/>
                <circle id="rim2" cx="0" cy="0" r="3.5"/>
                <g id="zoomPlus">
                        <use xlink:href="#rim" fill="#404040">
                                <set attributeName="fill" to="#808080" begin="zoomplus.mouseover" end="zoomplus.mouseout"/>
                        </use>
                        <path d="M-4,0h8M0,-4v8" fill="none" stroke="white" stroke-width="1.5" pointer-events="none"/>
                </g>
                <g id="zoomMin">
                        <use xlink:href="#rim" fill="#404040">
                                <set attributeName="fill" to="#808080" begin="zoomminus.mouseover" end="zoomminus.mouseout"/>
                        </use>
                        <path d="M-4,0h8" fill="none" stroke="white" stroke-width="1.5" pointer-events="none"/>
                </g>
                <g id="dirArrow">
                        <path fill="none" stroke="white" stroke-width="1.5" d="M0,-3.0v7 M-2.5,-0.5L0,-3.0L2.5,-0.5"/>
                </g>
               <g id="resetDef">
                       <use xlink:href="#rim2" fill="#404040">
                               <set attributeName="fill" to="#808080" begin="reset.mouseover" end="reset.mouseout"/>
                       </use>
               </g>
        </defs>

<script type="text/javascript">
var viewWidth = 3961;
var viewHeight = 274;
var sectionId = 'dynsection-1';
</script>
<script xlink:href="svgpan.js"/>
<svg id="graph" class="graph">
<g id="viewport">
<title>inc/mat4.h</title>
<!-- Node1 -->
<g id="node1" class="node">
<title>Node1</title>
<g id="a_node1"><a xlink:title=" ">
<polygon fill="#bfbfbf" stroke="black" points="1961,-246.5 1961,-265.5 2029,-265.5 2029,-246.5 1961,-246.5"/>
<text text-anchor="middle" x="1995" y="-253.5" font-family="Helvetica,sans-Serif" font-size="10.00">inc/mat4.h</text>
</a>
</g>
</g>
<!-- Node2 -->
<g id="node2" class="node">
<title>Node2</title>
<g id="a_node2"><a xlink:href="debug__print_8h.html" target="_top" xlink:title=" ">
<polygon fill="none" stroke="black" points="994.5,-190.5 994.5,-209.5 1095.5,-209.5 1095.5,-190.5 994.5,-190.5"/>
<text text-anchor="middle" x="1045" y="-197.5" font-family="Helvetica,sans-Serif" font-size="10.00">inc/debug_print.h</text>
</a>
</g>
</g>
<!-- Node1&#45;&gt;Node2 -->
<g id="edge1" class="edge">
<title>Node1&#45;&gt;Node2</title>
<path fill="none" stroke="midnightblue" d="M1950.67,-252.48C1793.42,-243.54 1262.82,-213.38 1095.79,-203.89"/>
<polygon fill="midnightblue" stroke="midnightblue" points="1950.73,-255.99 1960.91,-253.06 1951.12,-249 1950.73,-255.99"/>
</g>
<!-- Node5 -->
<g id="node5" class="node">
<title>Node5</title>
<g id="a_node5"><a xlink:href="mat4__vec3_8h.html" target="_top" xlink:title=" ">
<polygon fill="none" stroke="black" points="1896.5,-190.5 1896.5,-209.5 1993.5,-209.5 1993.5,-190.5 1896.5,-190.5"/>
<text text-anchor="middle" x="1945" y="-197.5" font-family="Helvetica,sans-Serif" font-size="10.00">inc/mat4_vec3.h</text>
</a>
</g>
</g>
<!-- Node1&#45;&gt;Node5 -->
<g id="edge4" class="edge">
<title>Node1&#45;&gt;Node5</title>
<path fill="none" stroke="midnightblue" d="M1979.92,-238.72C1971.11,-229.2 1960.33,-217.56 1953.1,-209.75"/>
<polygon fill="midnightblue" stroke="midnightblue" points="1977.38,-241.12 1986.74,-246.08 1982.52,-236.37 1977.38,-241.12"/>
</g>
<!-- Node56 -->
<g id="node49" class="node">
<title>Node56</title>
<g id="a_node49"><a xlink:href="mat4_8c.html" target="_top" xlink:title=" ">
<polygon fill="none" stroke="black" points="2012,-190.5 2012,-209.5 2080,-209.5 2080,-190.5 2012,-190.5"/>
<text text-anchor="middle" x="2046" y="-197.5" font-family="Helvetica,sans-Serif" font-size="10.00">src/mat4.c</text>
</a>
</g>
</g>
<!-- Node1&#45;&gt;Node56 -->
<g id="edge48" class="edge">
<title>Node1&#45;&gt;Node56</title>
<path fill="none" stroke="midnightblue" d="M2010.38,-238.72C2019.37,-229.2 2030.36,-217.56 2037.74,-209.75"/>
<polygon fill="midnightblue" stroke="midnightblue" points="2007.74,-236.41 2003.42,-246.08 2012.83,-241.22 2007.74,-236.41"/>
</g>
<!-- Node57 -->
<g id="node50" class="node">
<title>Node57</title>
<g id="a_node50"><a xlink:href="mat4__rotation_8c.html" target="_top" xlink:title=" ">
<polygon fill="none" stroke="black" points="2098.5,-190.5 2098.5,-209.5 2209.5,-209.5 2209.5,-190.5 2098.5,-190.5"/>
<text text-anchor="middle" x="2154" y="-197.5" font-family="Helvetica,sans-Serif" font-size="10.00">src/mat4_rotation.c</text>
</a>
</g>
</g>
<!-- Node1&#45;&gt;Node57 -->
<g id="edge49" class="edge">
<title>Node1&#45;&gt;Node57</title>
<path fill="none" stroke="midnightblue" d="M2029.83,-243.17C2059.77,-233 2102.22,-218.59 2128.92,-209.52"/>
<polygon fill="midnightblue" stroke="midnightblue" points="2028.54,-239.91 2020.19,-246.44 2030.79,-246.54 2028.54,-239.91"/>
</g>
<!-- Node3 -->
<g id="node3" class="node">
<title>Node3</title>
<g id="a_node3"><a xlink:href="debug__print__entity_8c.html" target="_top" xlink:title=" ">
<polygon fill="none" stroke="black" points="828,-134.5 828,-153.5 960,-153.5 960,-134.5 828,-134.5"/>
<text text-anchor="middle" x="894" y="-141.5" font-family="Helvetica,sans-Serif" font-size="10.00">src/debug_print_entity.c</text>
</a>
</g>
</g>
<!-- Node2&#45;&gt;Node3 -->
<g id="edge2" class="edge">
<title>Node2&#45;&gt;Node3</title>
<path fill="none" stroke="midnightblue" d="M1011.55,-187.04C983.14,-176.88 943.06,-162.55 917.81,-153.52"/>
<polygon fill="midnightblue" stroke="midnightblue" points="1010.48,-190.37 1021.07,-190.44 1012.84,-183.78 1010.48,-190.37"/>
</g>
<!-- Node4 -->
<g id="node4" class="node">
<title>Node4</title>
<g id="a_node4"><a xlink:href="debug__print__struct_8c.html" target="_top" xlink:title=" ">
<polygon fill="none" stroke="black" points="978.5,-134.5 978.5,-153.5 1111.5,-153.5 1111.5,-134.5 978.5,-134.5"/>
<text text-anchor="middle" x="1045" y="-141.5" font-family="Helvetica,sans-Serif" font-size="10.00">src/debug_print_struct.c</text>
</a>
</g>
</g>
<!-- Node2&#45;&gt;Node4 -->
<g id="edge3" class="edge">
<title>Node2&#45;&gt;Node4</title>
<path fill="none" stroke="midnightblue" d="M1045,-179.8C1045,-170.91 1045,-160.78 1045,-153.75"/>
<polygon fill="midnightblue" stroke="midnightblue" points="1041.5,-180.08 1045,-190.08 1048.5,-180.08 1041.5,-180.08"/>
</g>
<!-- Node6 -->
<g id="node6" class="node">
<title>Node6</title>
<g id="a_node6"><a xlink:href="render_8h.html" target="_top" xlink:title=" ">
<polygon fill="none" stroke="black" points="1130,-134.5 1130,-153.5 1204,-153.5 1204,-134.5 1130,-134.5"/>
<text text-anchor="middle" x="1167" y="-141.5" font-family="Helvetica,sans-Serif" font-size="10.00">inc/render.h</text>
</a>
</g>
</g>
<!-- Node5&#45;&gt;Node6 -->
<g id="edge5" class="edge">
<title>Node5&#45;&gt;Node6</title>
<path fill="none" stroke="midnightblue" d="M1886.24,-194.92C1733.88,-184.35 1329.33,-156.27 1204.33,-147.59"/>
<polygon fill="midnightblue" stroke="midnightblue" points="1886.11,-198.42 1896.33,-195.62 1886.6,-191.44 1886.11,-198.42"/>
</g>
<!-- Node22 -->
<g id="node22" class="node">
<title>Node22</title>
<g id="a_node22"><a xlink:href="render__bonus_8h.html" target="_top" xlink:title=" ">
<polygon fill="none" stroke="black" points="2733.5,-134.5 2733.5,-153.5 2842.5,-153.5 2842.5,-134.5 2733.5,-134.5"/>
<text text-anchor="middle" x="2788" y="-141.5" font-family="Helvetica,sans-Serif" font-size="10.00">inc/render_bonus.h</text>
</a>
</g>
</g>
<!-- Node5&#45;&gt;Node22 -->
<g id="edge21" class="edge">
<title>Node5&#45;&gt;Node22</title>
<path fill="none" stroke="midnightblue" d="M2003.64,-190.05C2283.87,-160.78 2606.49,-149.76 2733.13,-146.32"/>
<polygon fill="midnightblue" stroke="midnightblue" points="2003.27,-186.57 1993.69,-191.1 2004,-193.53 2003.27,-186.57"/>
</g>
<!-- Node55 -->
<g id="node48" class="node">
<title>Node55</title>
<g id="a_node48"><a xlink:href="mat4__vec3__rotate_8c.html" target="_top" xlink:title=" ">
<polygon fill="none" stroke="black" points="2860.5,-134.5 2860.5,-153.5 2991.5,-153.5 2991.5,-134.5 2860.5,-134.5"/>
<text text-anchor="middle" x="2926" y="-141.5" font-family="Helvetica,sans-Serif" font-size="10.00">src/mat4_vec3_rotate.c</text>
</a>
</g>
</g>
<!-- Node5&#45;&gt;Node55 -->
<g id="edge47" class="edge">
<title>Node5&#45;&gt;Node55</title>
<path fill="none" stroke="midnightblue" d="M2003.77,-190.05C2380.58,-153.54 2478.9,-184.55 2852,-154 2854.71,-153.78 2857.47,-153.53 2860.26,-153.27"/>
<polygon fill="midnightblue" stroke="midnightblue" points="2003.3,-186.58 1993.68,-191.04 2003.98,-193.55 2003.3,-186.58"/>
</g>
<!-- Node7 -->
<g id="node7" class="node">
<title>Node7</title>
<g id="a_node7"><a xlink:href="render__blend__background_8c.html" target="_top" xlink:title=" ">
<polygon fill="none" stroke="black" points="0,-73 0,-92 168,-92 168,-73 0,-73"/>
<text text-anchor="middle" x="84" y="-80" font-family="Helvetica,sans-Serif" font-size="10.00">src/render_blend_background.c</text>
</a>
</g>
</g>
<!-- Node6&#45;&gt;Node7 -->
<g id="edge6" class="edge">
<title>Node6&#45;&gt;Node7</title>
<path fill="none" stroke="midnightblue" d="M1119.94,-134.23C701.57,-87.23 591.21,-138.06 177,-98 162.2,-96.57 146.17,-94.32 131.65,-92.02"/>
<polygon fill="midnightblue" stroke="midnightblue" points="1119.55,-137.7 1129.88,-135.36 1120.34,-130.75 1119.55,-137.7"/>
</g>
<!-- Node8 -->
<g id="node8" class="node">
<title>Node8</title>
<g id="a_node8"><a xlink:href="render__cleanup_8c.html" target="_top" xlink:title=" ">
<polygon fill="none" stroke="black" points="186.5,-73 186.5,-92 303.5,-92 303.5,-73 186.5,-73"/>
<text text-anchor="middle" x="245" y="-80" font-family="Helvetica,sans-Serif" font-size="10.00">src/render_cleanup.c</text>
</a>
</g>
</g>
<!-- Node6&#45;&gt;Node8 -->
<g id="edge7" class="edge">
<title>Node6&#45;&gt;Node8</title>
<path fill="none" stroke="midnightblue" d="M1119.75,-134.2C761.65,-93.08 665.81,-143.17 313,-98 302.1,-96.61 290.36,-94.37 279.75,-92.07"/>
<polygon fill="midnightblue" stroke="midnightblue" points="1119.54,-137.7 1129.88,-135.38 1120.35,-130.74 1119.54,-137.7"/>
</g>
<!-- Node9 -->
<g id="node9" class="node">
<title>Node9</title>
<g id="a_node9"><a xlink:href="render__draw_8c.html" target="_top" xlink:title=" ">
<polygon fill="none" stroke="black" points="322,-73 322,-92 424,-92 424,-73 322,-73"/>
<text text-anchor="middle" x="373" y="-80" font-family="Helvetica,sans-Serif" font-size="10.00">src/render_draw.c</text>
</a>
</g>
</g>
<!-- Node6&#45;&gt;Node9 -->
<g id="edge8" class="edge">
<title>Node6&#45;&gt;Node9</title>
<path fill="none" stroke="midnightblue" d="M1119.85,-134.2C814.71,-98.12 732.31,-141.63 433,-98 423.35,-96.59 412.98,-94.35 403.62,-92.05"/>
<polygon fill="midnightblue" stroke="midnightblue" points="1119.53,-137.69 1129.87,-135.4 1120.36,-130.74 1119.53,-137.69"/>
</g>
<!-- Node10 -->
<g id="node10" class="node">
<title>Node10</title>
<g id="a_node10"><a xlink:href="render__init__base_8c.html" target="_top" xlink:title=" ">
<polygon fill="none" stroke="black" points="442.5,-73 442.5,-92 565.5,-92 565.5,-73 442.5,-73"/>
<text text-anchor="middle" x="504" y="-80" font-family="Helvetica,sans-Serif" font-size="10.00">src/render_init_base.c</text>
</a>
</g>
</g>
<!-- Node6&#45;&gt;Node10 -->
<g id="edge9" class="edge">
<title>Node6&#45;&gt;Node10</title>
<path fill="none" stroke="midnightblue" d="M1119.67,-134.16C877,-103.82 811.68,-130.3 574,-98 563.05,-96.51 551.26,-94.31 540.53,-92.06"/>
<polygon fill="midnightblue" stroke="midnightblue" points="1119.51,-137.66 1129.87,-135.45 1120.39,-130.72 1119.51,-137.66"/>
</g>
<!-- Node11 -->
<g id="node11" class="node">
<title>Node11</title>
<g id="a_node11"><a xlink:href="render__init__mlx_8c.html" target="_top" xlink:title=" ">
<polygon fill="none" stroke="black" points="583.5,-73 583.5,-92 702.5,-92 702.5,-73 583.5,-73"/>
<text text-anchor="middle" x="643" y="-80" font-family="Helvetica,sans-Serif" font-size="10.00">src/render_init_mlx.c</text>
</a>
</g>
</g>
<!-- Node6&#45;&gt;Node11 -->
<g id="edge10" class="edge">
<title>Node6&#45;&gt;Node11</title>
<path fill="none" stroke="midnightblue" d="M1119.69,-134.12C937.94,-109.41 888.81,-124.28 712,-98 701.47,-96.43 690.12,-94.26 679.74,-92.07"/>
<polygon fill="midnightblue" stroke="midnightblue" points="1119.47,-137.63 1129.86,-135.53 1120.43,-130.69 1119.47,-137.63"/>
</g>
<!-- Node12 -->
<g id="node12" class="node">
<title>Node12</title>
<g id="a_node12"><a xlink:href="render__keyhook__camera_8c.html" target="_top" xlink:title=" ">
<polygon fill="none" stroke="black" points="721,-67.5 721,-97.5 833,-97.5 833,-67.5 721,-67.5"/>
<text text-anchor="start" x="729" y="-85.5" font-family="Helvetica,sans-Serif" font-size="10.00">src/render_keyhook</text>
<text text-anchor="middle" x="777" y="-74.5" font-family="Helvetica,sans-Serif" font-size="10.00">_camera.c</text>
</a>
</g>
</g>
<!-- Node6&#45;&gt;Node12 -->
<g id="edge11" class="edge">
<title>Node6&#45;&gt;Node12</title>
<path fill="none" stroke="midnightblue" d="M1119.91,-134.09C995.29,-114.53 961.59,-119.04 842,-98 839.15,-97.5 836.24,-96.96 833.31,-96.39"/>
<polygon fill="midnightblue" stroke="midnightblue" points="1119.41,-137.55 1129.84,-135.67 1120.51,-130.64 1119.41,-137.55"/>
</g>
<!-- Node13 -->
<g id="node13" class="node">
<title>Node13</title>
<g id="a_node13"><a xlink:href="render__keyhook__colour_8c.html" target="_top" xlink:title=" ">
<polygon fill="none" stroke="black" points="851,-67.5 851,-97.5 963,-97.5 963,-67.5 851,-67.5"/>
<text text-anchor="start" x="859" y="-85.5" font-family="Helvetica,sans-Serif" font-size="10.00">src/render_keyhook</text>
<text text-anchor="middle" x="907" y="-74.5" font-family="Helvetica,sans-Serif" font-size="10.00">_colour.c</text>
</a>
</g>
</g>
<!-- Node6&#45;&gt;Node13 -->
<g id="edge12" class="edge">
<title>Node6&#45;&gt;Node13</title>
<path fill="none" stroke="midnightblue" d="M1119.88,-132.22C1075.86,-122.14 1010.1,-107.09 963.33,-96.39"/>
<polygon fill="midnightblue" stroke="midnightblue" points="1119.22,-135.66 1129.75,-134.48 1120.78,-128.83 1119.22,-135.66"/>
</g>
<!-- Node14 -->
<g id="node14" class="node">
<title>Node14</title>
<g id="a_node14"><a xlink:href="render__keyhook__hittable_8c.html" target="_top" xlink:title=" ">
<polygon fill="none" stroke="black" points="981,-67.5 981,-97.5 1093,-97.5 1093,-67.5 981,-67.5"/>
<text text-anchor="start" x="989" y="-85.5" font-family="Helvetica,sans-Serif" font-size="10.00">src/render_keyhook</text>
<text text-anchor="middle" x="1037" y="-74.5" font-family="Helvetica,sans-Serif" font-size="10.00">_hittable.c</text>
</a>
</g>
</g>
<!-- Node6&#45;&gt;Node14 -->
<g id="edge13" class="edge">
<title>Node6&#45;&gt;Node14</title>
<path fill="none" stroke="midnightblue" d="M1139.03,-130.2C1118.03,-120.58 1089.27,-107.42 1067.64,-97.52"/>
<polygon fill="midnightblue" stroke="midnightblue" points="1137.82,-133.5 1148.37,-134.48 1140.74,-127.13 1137.82,-133.5"/>
</g>
<!-- Node15 -->
<g id="node15" class="node">
<title>Node15</title>
<g id="a_node15"><a xlink:href="render__keyhook__light_8c.html" target="_top" xlink:title=" ">
<polygon fill="none" stroke="black" points="1111,-67.5 1111,-97.5 1223,-97.5 1223,-67.5 1111,-67.5"/>
<text text-anchor="start" x="1119" y="-85.5" font-family="Helvetica,sans-Serif" font-size="10.00">src/render_keyhook</text>
<text text-anchor="middle" x="1167" y="-74.5" font-family="Helvetica,sans-Serif" font-size="10.00">_light.c</text>
</a>
</g>
</g>
<!-- Node6&#45;&gt;Node15 -->
<g id="edge14" class="edge">
<title>Node6&#45;&gt;Node15</title>
<path fill="none" stroke="midnightblue" d="M1167,-124.23C1167,-115.59 1167,-105.5 1167,-97.52"/>
<polygon fill="midnightblue" stroke="midnightblue" points="1163.5,-124.48 1167,-134.48 1170.5,-124.48 1163.5,-124.48"/>
</g>
<!-- Node16 -->
<g id="node16" class="node">
<title>Node16</title>
<g id="a_node16"><a xlink:href="render__keyhook__options_8c.html" target="_top" xlink:title=" ">
<polygon fill="none" stroke="black" points="1241,-67.5 1241,-97.5 1353,-97.5 1353,-67.5 1241,-67.5"/>
<text text-anchor="start" x="1249" y="-85.5" font-family="Helvetica,sans-Serif" font-size="10.00">src/render_keyhook</text>
<text text-anchor="middle" x="1297" y="-74.5" font-family="Helvetica,sans-Serif" font-size="10.00">_options.c</text>
</a>
</g>
</g>
<!-- Node6&#45;&gt;Node16 -->
<g id="edge15" class="edge">
<title>Node6&#45;&gt;Node16</title>
<path fill="none" stroke="midnightblue" d="M1194.97,-130.2C1215.97,-120.58 1244.73,-107.42 1266.36,-97.52"/>
<polygon fill="midnightblue" stroke="midnightblue" points="1193.26,-127.13 1185.63,-134.48 1196.18,-133.5 1193.26,-127.13"/>
</g>
<!-- Node17 -->
<g id="node17" class="node">
<title>Node17</title>
<g id="a_node17"><a xlink:href="render__keyhook__press_8c.html" target="_top" xlink:title=" ">
<polygon fill="none" stroke="black" points="1371,-67.5 1371,-97.5 1483,-97.5 1483,-67.5 1371,-67.5"/>
<text text-anchor="start" x="1379" y="-85.5" font-family="Helvetica,sans-Serif" font-size="10.00">src/render_keyhook</text>
<text text-anchor="middle" x="1427" y="-74.5" font-family="Helvetica,sans-Serif" font-size="10.00">_press.c</text>
</a>
</g>
</g>
<!-- Node6&#45;&gt;Node17 -->
<g id="edge16" class="edge">
<title>Node6&#45;&gt;Node17</title>
<path fill="none" stroke="midnightblue" d="M1214.12,-132.22C1258.14,-122.14 1323.9,-107.09 1370.67,-96.39"/>
<polygon fill="midnightblue" stroke="midnightblue" points="1213.22,-128.83 1204.25,-134.48 1214.78,-135.66 1213.22,-128.83"/>
</g>
<!-- Node18 -->
<g id="node18" class="node">
<title>Node18</title>
<g id="a_node18"><a xlink:href="render__keyhook__select_8c.html" target="_top" xlink:title=" ">
<polygon fill="none" stroke="black" points="1501,-67.5 1501,-97.5 1613,-97.5 1613,-67.5 1501,-67.5"/>
<text text-anchor="start" x="1509" y="-85.5" font-family="Helvetica,sans-Serif" font-size="10.00">src/render_keyhook</text>
<text text-anchor="middle" x="1557" y="-74.5" font-family="Helvetica,sans-Serif" font-size="10.00">_select.c</text>
</a>
</g>
</g>
<!-- Node6&#45;&gt;Node18 -->
<g id="edge17" class="edge">
<title>Node6&#45;&gt;Node18</title>
<path fill="none" stroke="midnightblue" d="M1214.29,-137.68C1277.73,-130.27 1393.76,-115.73 1492,-98 1494.84,-97.49 1497.75,-96.94 1500.69,-96.36"/>
<polygon fill="midnightblue" stroke="midnightblue" points="1213.73,-134.23 1204.2,-138.85 1214.54,-141.18 1213.73,-134.23"/>
</g>
<!-- Node19 -->
<g id="node19" class="node">
<title>Node19</title>
<g id="a_node19"><a xlink:href="render__keyhook__utils_8c.html" target="_top" xlink:title=" ">
<polygon fill="none" stroke="black" points="1631,-67.5 1631,-97.5 1743,-97.5 1743,-67.5 1631,-67.5"/>
<text text-anchor="start" x="1639" y="-85.5" font-family="Helvetica,sans-Serif" font-size="10.00">src/render_keyhook</text>
<text text-anchor="middle" x="1687" y="-74.5" font-family="Helvetica,sans-Serif" font-size="10.00">_utils.c</text>
</a>
</g>
</g>
<!-- Node6&#45;&gt;Node19 -->
<g id="edge18" class="edge">
<title>Node6&#45;&gt;Node19</title>
<path fill="none" stroke="midnightblue" d="M1214.17,-140.22C1297.06,-134.92 1474.12,-121.72 1622,-98 1624.85,-97.54 1627.77,-97.04 1630.71,-96.49"/>
<polygon fill="midnightblue" stroke="midnightblue" points="1213.82,-136.74 1204.06,-140.86 1214.26,-143.72 1213.82,-136.74"/>
</g>
<!-- Node20 -->
<g id="node20" class="node">
<title>Node20</title>
<g id="a_node20"><a xlink:href="render__loop__mlx_8c.html" target="_top" xlink:title=" ">
<polygon fill="none" stroke="black" points="1761,-73 1761,-92 1885,-92 1885,-73 1761,-73"/>
<text text-anchor="middle" x="1823" y="-80" font-family="Helvetica,sans-Serif" font-size="10.00">src/render_loop_mlx.c</text>
</a>
</g>
</g>
<!-- Node6&#45;&gt;Node20 -->
<g id="edge19" class="edge">
<title>Node6&#45;&gt;Node20</title>
<path fill="none" stroke="midnightblue" d="M1214.19,-141.37C1313.91,-137.48 1553.24,-125.83 1752,-98 1762.96,-96.46 1774.78,-94.27 1785.57,-92.05"/>
<polygon fill="midnightblue" stroke="midnightblue" points="1213.99,-137.87 1204.13,-141.75 1214.26,-144.87 1213.99,-137.87"/>
</g>
<!-- Node21 -->
<g id="node21" class="node">
<title>Node21</title>
<g id="a_node21"><a xlink:href="render__mouse_8c.html" target="_top" xlink:title=" ">
<polygon fill="none" stroke="black" points="1903,-73 1903,-92 2015,-92 2015,-73 1903,-73"/>
<text text-anchor="middle" x="1959" y="-80" font-family="Helvetica,sans-Serif" font-size="10.00">src/render_mouse.c</text>
</a>
</g>
</g>
<!-- Node6&#45;&gt;Node21 -->
<g id="edge20" class="edge">
<title>Node6&#45;&gt;Node21</title>
<path fill="none" stroke="midnightblue" d="M1214.62,-142.64C1331.14,-141.21 1639.63,-134.02 1894,-98 1904.3,-96.54 1915.4,-94.32 1925.45,-92.04"/>
<polygon fill="midnightblue" stroke="midnightblue" points="1214.24,-139.15 1204.28,-142.76 1214.32,-146.15 1214.24,-139.15"/>
</g>
<!-- Node23 -->
<g id="node23" class="node">
<title>Node23</title>
<g id="a_node23"><a xlink:href="menu__put_8h.html" target="_top" xlink:title=" ">
<polygon fill="none" stroke="red" points="2033,-73 2033,-92 2125,-92 2125,-73 2033,-73"/>
<text text-anchor="middle" x="2079" y="-80" font-family="Helvetica,sans-Serif" font-size="10.00">inc/menu_put.h</text>
</a>
</g>
</g>
<!-- Node22&#45;&gt;Node23 -->
<g id="edge22" class="edge">
<title>Node22&#45;&gt;Node23</title>
<path fill="none" stroke="midnightblue" d="M2723.03,-142.58C2604.96,-140.93 2347.65,-133.19 2134,-98 2125.23,-96.56 2115.83,-94.33 2107.32,-92.06"/>
<polygon fill="midnightblue" stroke="midnightblue" points="2723.29,-146.09 2733.34,-142.72 2723.38,-139.09 2723.29,-146.09"/>
</g>
<!-- Node41 -->
<g id="node35" class="node">
<title>Node41</title>
<g id="a_node35"><a xlink:href="mini_r_t_8h.html" target="_top" xlink:title=" ">
<polygon fill="none" stroke="red" points="2143,-73 2143,-92 2219,-92 2219,-73 2143,-73"/>
<text text-anchor="middle" x="2181" y="-80" font-family="Helvetica,sans-Serif" font-size="10.00">inc/miniRT.h</text>
</a>
</g>
</g>
<!-- Node22&#45;&gt;Node41 -->
<g id="edge34" class="edge">
<title>Node22&#45;&gt;Node41</title>
<path fill="none" stroke="midnightblue" d="M2723.02,-142.24C2618.18,-140.02 2405.61,-131.39 2229,-98 2221.3,-96.54 2213.08,-94.32 2205.66,-92.05"/>
<polygon fill="midnightblue" stroke="midnightblue" points="2723.06,-145.74 2733.13,-142.44 2723.2,-138.75 2723.06,-145.74"/>
</g>
<!-- Node43 -->
<g id="node36" class="node">
<title>Node43</title>
<g id="a_node36"><a xlink:href="render__cleanup__bonus_8c.html" target="_top" xlink:title=" ">
<polygon fill="none" stroke="black" points="2237.5,-67.5 2237.5,-97.5 2346.5,-97.5 2346.5,-67.5 2237.5,-67.5"/>
<text text-anchor="start" x="2245.5" y="-85.5" font-family="Helvetica,sans-Serif" font-size="10.00">src/render_cleanup</text>
<text text-anchor="middle" x="2292" y="-74.5" font-family="Helvetica,sans-Serif" font-size="10.00">_bonus.c</text>
</a>
</g>
</g>
<!-- Node22&#45;&gt;Node43 -->
<g id="edge35" class="edge">
<title>Node22&#45;&gt;Node43</title>
<path fill="none" stroke="midnightblue" d="M2723.17,-138.66C2638.39,-132.44 2485.41,-119.32 2356,-98 2352.96,-97.5 2349.86,-96.94 2346.73,-96.35"/>
<polygon fill="midnightblue" stroke="midnightblue" points="2722.94,-142.16 2733.17,-139.39 2723.44,-135.18 2722.94,-142.16"/>
</g>
<!-- Node44 -->
<g id="node37" class="node">
<title>Node44</title>
<g id="a_node37"><a xlink:href="render__draw__bonus_8c.html" target="_top" xlink:title=" ">
<polygon fill="none" stroke="black" points="2364.5,-73 2364.5,-92 2501.5,-92 2501.5,-73 2364.5,-73"/>
<text text-anchor="middle" x="2433" y="-80" font-family="Helvetica,sans-Serif" font-size="10.00">src/render_draw_bonus.c</text>
</a>
</g>
</g>
<!-- Node22&#45;&gt;Node44 -->
<g id="edge36" class="edge">
<title>Node22&#45;&gt;Node44</title>
<path fill="none" stroke="midnightblue" d="M2723.11,-132.89C2666.93,-124.03 2583.52,-110.63 2511,-98 2500.28,-96.13 2488.75,-94.04 2477.93,-92.03"/>
<polygon fill="midnightblue" stroke="midnightblue" points="2722.86,-136.39 2733.28,-134.49 2723.94,-129.47 2722.86,-136.39"/>
</g>
<!-- Node45 -->
<g id="node38" class="node">
<title>Node45</title>
<g id="a_node38"><a xlink:href="render__init__bonus_8c.html" target="_top" xlink:title=" ">
<polygon fill="none" stroke="black" points="2519.5,-73 2519.5,-92 2648.5,-92 2648.5,-73 2519.5,-73"/>
<text text-anchor="middle" x="2584" y="-80" font-family="Helvetica,sans-Serif" font-size="10.00">src/render_init_bonus.c</text>
</a>
</g>
</g>
<!-- Node22&#45;&gt;Node45 -->
<g id="edge37" class="edge">
<title>Node22&#45;&gt;Node45</title>
<path fill="none" stroke="midnightblue" d="M2748.92,-131.6C2709.28,-120.04 2648.82,-102.41 2613.17,-92.01"/>
<polygon fill="midnightblue" stroke="midnightblue" points="2748.19,-135.04 2758.77,-134.48 2750.15,-128.32 2748.19,-135.04"/>
</g>
<!-- Node46 -->
<g id="node39" class="node">
<title>Node46</title>
<g id="a_node39"><a xlink:href="render__keyhook__camera__bonus_8c.html" target="_top" xlink:title=" ">
<polygon fill="none" stroke="black" points="2667,-67.5 2667,-97.5 2779,-97.5 2779,-67.5 2667,-67.5"/>
<text text-anchor="start" x="2675" y="-85.5" font-family="Helvetica,sans-Serif" font-size="10.00">src/render_keyhook</text>
<text text-anchor="middle" x="2723" y="-74.5" font-family="Helvetica,sans-Serif" font-size="10.00">_camera_bonus.c</text>
</a>
</g>
</g>
<!-- Node22&#45;&gt;Node46 -->
<g id="edge38" class="edge">
<title>Node22&#45;&gt;Node46</title>
<path fill="none" stroke="midnightblue" d="M2771.23,-127.65C2761.07,-118.35 2748.2,-106.57 2738.32,-97.52"/>
<polygon fill="midnightblue" stroke="midnightblue" points="2768.95,-130.3 2778.69,-134.48 2773.67,-125.14 2768.95,-130.3"/>
</g>
<!-- Node47 -->
<g id="node40" class="node">
<title>Node47</title>
<g id="a_node40"><a xlink:href="render__keyhook__options__bonus_8c.html" target="_top" xlink:title=" ">
<polygon fill="none" stroke="black" points="2797,-67.5 2797,-97.5 2909,-97.5 2909,-67.5 2797,-67.5"/>
<text text-anchor="start" x="2805" y="-85.5" font-family="Helvetica,sans-Serif" font-size="10.00">src/render_keyhook</text>
<text text-anchor="middle" x="2853" y="-74.5" font-family="Helvetica,sans-Serif" font-size="10.00">_options_bonus.c</text>
</a>
</g>
</g>
<!-- Node22&#45;&gt;Node47 -->
<g id="edge39" class="edge">
<title>Node22&#45;&gt;Node47</title>
<path fill="none" stroke="midnightblue" d="M2804.77,-127.65C2814.93,-118.35 2827.8,-106.57 2837.68,-97.52"/>
<polygon fill="midnightblue" stroke="midnightblue" points="2802.33,-125.14 2797.31,-134.48 2807.05,-130.3 2802.33,-125.14"/>
</g>
<!-- Node48 -->
<g id="node41" class="node">
<title>Node48</title>
<g id="a_node41"><a xlink:href="render__keyhook__press__bonus_8c.html" target="_top" xlink:title=" ">
<polygon fill="none" stroke="black" points="2927,-67.5 2927,-97.5 3039,-97.5 3039,-67.5 2927,-67.5"/>
<text text-anchor="start" x="2935" y="-85.5" font-family="Helvetica,sans-Serif" font-size="10.00">src/render_keyhook</text>
<text text-anchor="middle" x="2983" y="-74.5" font-family="Helvetica,sans-Serif" font-size="10.00">_press_bonus.c</text>
</a>
</g>
</g>
<!-- Node22&#45;&gt;Node48 -->
<g id="edge40" class="edge">
<title>Node22&#45;&gt;Node48</title>
<path fill="none" stroke="midnightblue" d="M2825.74,-131.48C2857.54,-121.78 2903.13,-107.87 2937.04,-97.52"/>
<polygon fill="midnightblue" stroke="midnightblue" points="2824.48,-128.21 2815.94,-134.48 2826.52,-134.9 2824.48,-128.21"/>
</g>
<!-- Node49 -->
<g id="node42" class="node">
<title>Node49</title>
<g id="a_node42"><a xlink:href="render__loop__mlx__bonus_8c.html" target="_top" xlink:title=" ">
<polygon fill="none" stroke="black" points="3057,-67.5 3057,-97.5 3173,-97.5 3173,-67.5 3057,-67.5"/>
<text text-anchor="start" x="3065" y="-85.5" font-family="Helvetica,sans-Serif" font-size="10.00">src/render_loop_mlx</text>
<text text-anchor="middle" x="3115" y="-74.5" font-family="Helvetica,sans-Serif" font-size="10.00">_bonus.c</text>
</a>
</g>
</g>
<!-- Node22&#45;&gt;Node49 -->
<g id="edge41" class="edge">
<title>Node22&#45;&gt;Node49</title>
<path fill="none" stroke="midnightblue" d="M2851.28,-132.81C2904.02,-124.13 2981.04,-111.03 3048,-98 3050.92,-97.43 3053.91,-96.84 3056.93,-96.22"/>
<polygon fill="midnightblue" stroke="midnightblue" points="2850.7,-129.35 2841.4,-134.43 2851.83,-136.26 2850.7,-129.35"/>
</g>
<!-- Node50 -->
<g id="node43" class="node">
<title>Node50</title>
<g id="a_node43"><a xlink:href="render__mouse__bonus_8c.html" target="_top" xlink:title=" ">
<polygon fill="none" stroke="black" points="3191,-73 3191,-92 3337,-92 3337,-73 3191,-73"/>
<text text-anchor="middle" x="3264" y="-80" font-family="Helvetica,sans-Serif" font-size="10.00">src/render_mouse_bonus.c</text>
</a>
</g>
</g>
<!-- Node22&#45;&gt;Node50 -->
<g id="edge42" class="edge">
<title>Node22&#45;&gt;Node50</title>
<path fill="none" stroke="midnightblue" d="M2853.11,-133.9C3000.14,-115.85 3039.23,-118.39 3182,-98 3194.02,-96.28 3206.98,-94.13 3218.97,-92.02"/>
<polygon fill="midnightblue" stroke="midnightblue" points="2852.29,-130.48 2842.8,-135.18 2853.15,-137.42 2852.29,-130.48"/>
</g>
<!-- Node51 -->
<g id="node44" class="node">
<title>Node51</title>
<g id="a_node44"><a xlink:href="render__output__ppm__bonus_8c.html" target="_top" xlink:title=" ">
<polygon fill="none" stroke="black" points="3355.5,-67.5 3355.5,-97.5 3484.5,-97.5 3484.5,-67.5 3355.5,-67.5"/>
<text text-anchor="start" x="3363.5" y="-85.5" font-family="Helvetica,sans-Serif" font-size="10.00">src/render_output_ppm</text>
<text text-anchor="middle" x="3420" y="-74.5" font-family="Helvetica,sans-Serif" font-size="10.00">_bonus.c</text>
</a>
</g>
</g>
<!-- Node22&#45;&gt;Node51 -->
<g id="edge43" class="edge">
<title>Node22&#45;&gt;Node51</title>
<path fill="none" stroke="midnightblue" d="M2853.03,-133.97C3072.66,-111.15 3131.11,-126.78 3346,-98 3348.98,-97.6 3352.03,-97.16 3355.1,-96.68"/>
<polygon fill="midnightblue" stroke="midnightblue" points="2852.36,-130.52 2842.78,-135.05 2853.09,-137.48 2852.36,-130.52"/>
</g>
<!-- Node52 -->
<g id="node45" class="node">
<title>Node52</title>
<g id="a_node45"><a xlink:href="render__output__threaded__bonus_8c.html" target="_top" xlink:title=" ">
<polygon fill="none" stroke="black" points="3502.5,-67.5 3502.5,-97.5 3653.5,-97.5 3653.5,-67.5 3502.5,-67.5"/>
<text text-anchor="start" x="3510.5" y="-85.5" font-family="Helvetica,sans-Serif" font-size="10.00">src/render_output_threaded</text>
<text text-anchor="middle" x="3578" y="-74.5" font-family="Helvetica,sans-Serif" font-size="10.00">_bonus.c</text>
</a>
</g>
</g>
<!-- Node22&#45;&gt;Node52 -->
<g id="edge44" class="edge">
<title>Node22&#45;&gt;Node52</title>
<path fill="none" stroke="midnightblue" d="M2853.01,-134C3138.17,-106.64 3213.38,-129.98 3494,-98 3496.65,-97.7 3499.34,-97.37 3502.05,-97.01"/>
<polygon fill="midnightblue" stroke="midnightblue" points="2852.39,-130.54 2842.78,-134.99 2853.07,-137.51 2852.39,-130.54"/>
</g>
<!-- Node53 -->
<g id="node46" class="node">
<title>Node53</title>
<g id="a_node46"><a xlink:href="render__sample__bonus_8c.html" target="_top" xlink:title=" ">
<polygon fill="none" stroke="black" points="3671.5,-73 3671.5,-92 3820.5,-92 3820.5,-73 3671.5,-73"/>
<text text-anchor="middle" x="3746" y="-80" font-family="Helvetica,sans-Serif" font-size="10.00">src/render_sample_bonus.c</text>
</a>
</g>
</g>
<!-- Node22&#45;&gt;Node53 -->
<g id="edge45" class="edge">
<title>Node22&#45;&gt;Node53</title>
<path fill="none" stroke="midnightblue" d="M2852.96,-134.02C3213.02,-101.51 3307.66,-136.76 3663,-98 3676.23,-96.56 3690.55,-94.31 3703.5,-92.01"/>
<polygon fill="midnightblue" stroke="midnightblue" points="2852.41,-130.55 2842.77,-134.95 2853.05,-137.52 2852.41,-130.55"/>
</g>
<!-- Node54 -->
<g id="node47" class="node">
<title>Node54</title>
<g id="a_node47"><a xlink:href="render__threaded__fts__bonus_8c.html" target="_top" xlink:title=" ">
<polygon fill="none" stroke="black" points="3839,-67.5 3839,-97.5 3953,-97.5 3953,-67.5 3839,-67.5"/>
<text text-anchor="start" x="3847" y="-85.5" font-family="Helvetica,sans-Serif" font-size="10.00">src/render_threaded</text>
<text text-anchor="middle" x="3896" y="-74.5" font-family="Helvetica,sans-Serif" font-size="10.00">_fts_bonus.c</text>
</a>
</g>
</g>
<!-- Node22&#45;&gt;Node54 -->
<g id="edge46" class="edge">
<title>Node22&#45;&gt;Node54</title>
<path fill="none" stroke="midnightblue" d="M2852.76,-134.05C3287,-96.52 3401.78,-152.47 3830,-98 3832.91,-97.63 3835.88,-97.19 3838.87,-96.71"/>
<polygon fill="midnightblue" stroke="midnightblue" points="2852.43,-130.56 2842.77,-134.92 2853.04,-137.53 2852.43,-130.56"/>
</g>
<!-- Node24 -->
<g id="node24" class="node">
<title>Node24</title>
<g id="a_node24"><a xlink:href="menu__put__bonus_8h.html" target="_top" xlink:title=" ">
<polygon fill="none" stroke="red" points="1265,-6 1265,-25 1391,-25 1391,-6 1265,-6"/>
<text text-anchor="middle" x="1328" y="-13" font-family="Helvetica,sans-Serif" font-size="10.00">inc/menu_put_bonus.h</text>
</a>
</g>
</g>
<!-- Node23&#45;&gt;Node24 -->
<g id="edge23" class="edge">
<title>Node23&#45;&gt;Node24</title>
<path fill="none" stroke="midnightblue" d="M2041.01,-70.43C2035.34,-69.09 2029.55,-67.88 2024,-67 1749.65,-23.37 1675.52,-66.51 1400,-31 1388.62,-29.53 1376.34,-27.31 1365.2,-25.03"/>
<polygon fill="midnightblue" stroke="midnightblue" points="2040.42,-73.89 2050.97,-72.95 2042.13,-67.11 2040.42,-73.89"/>
</g>
<!-- Node27 -->
<g id="node25" class="node">
<title>Node27</title>
<g id="a_node25"><a xlink:href="menu__put__cam__light_8c.html" target="_top" xlink:title=" ">
<polygon fill="none" stroke="black" points="1409,-6 1409,-25 1553,-25 1553,-6 1409,-6"/>
<text text-anchor="middle" x="1481" y="-13" font-family="Helvetica,sans-Serif" font-size="10.00">src/menu_put_cam_light.c</text>
</a>
</g>
</g>
<!-- Node23&#45;&gt;Node27 -->
<g id="edge24" class="edge">
<title>Node23&#45;&gt;Node27</title>
<path fill="none" stroke="midnightblue" d="M2040.8,-70.49C2035.2,-69.15 2029.48,-67.93 2024,-67 1820.94,-32.61 1766.29,-57.18 1562,-31 1549.67,-29.42 1536.37,-27.24 1524.18,-25.05"/>
<polygon fill="midnightblue" stroke="midnightblue" points="2040.11,-73.92 2050.67,-72.99 2041.83,-67.14 2040.11,-73.92"/>
</g>
<!-- Node28 -->
<g id="node26" class="node">
<title>Node28</title>
<g id="a_node26"><a xlink:href="menu__put__cam__light__ctrl_8c.html" target="_top" xlink:title=" ">
<polygon fill="none" stroke="black" points="1571,-0.5 1571,-30.5 1707,-30.5 1707,-0.5 1571,-0.5"/>
<text text-anchor="start" x="1579" y="-18.5" font-family="Helvetica,sans-Serif" font-size="10.00">src/menu_put_cam_light</text>
<text text-anchor="middle" x="1639" y="-7.5" font-family="Helvetica,sans-Serif" font-size="10.00">_ctrl.c</text>
</a>
</g>
</g>
<!-- Node23&#45;&gt;Node28 -->
<g id="edge25" class="edge">
<title>Node23&#45;&gt;Node28</title>
<path fill="none" stroke="midnightblue" d="M2039.8,-70.44C2034.52,-69.17 2029.14,-67.97 2024,-67 1888.58,-41.37 1852.25,-51.77 1716,-31 1713.18,-30.57 1710.3,-30.11 1707.39,-29.64"/>
<polygon fill="midnightblue" stroke="midnightblue" points="2039.22,-73.91 2049.78,-72.97 2040.94,-67.12 2039.22,-73.91"/>
</g>
<!-- Node29 -->
<g id="node27" class="node">
<title>Node29</title>
<g id="a_node27"><a xlink:href="menu__put__general__info_8c.html" target="_top" xlink:title=" ">
<polygon fill="none" stroke="black" points="1725.5,-0.5 1725.5,-30.5 1850.5,-30.5 1850.5,-0.5 1725.5,-0.5"/>
<text text-anchor="start" x="1733.5" y="-18.5" font-family="Helvetica,sans-Serif" font-size="10.00">src/menu_put_general</text>
<text text-anchor="middle" x="1788" y="-7.5" font-family="Helvetica,sans-Serif" font-size="10.00">_info.c</text>
</a>
</g>
</g>
<!-- Node23&#45;&gt;Node29 -->
<g id="edge26" class="edge">
<title>Node23&#45;&gt;Node29</title>
<path fill="none" stroke="midnightblue" d="M2037.68,-70.38C2033.07,-69.21 2028.44,-68.06 2024,-67 1991.7,-59.29 1908.93,-41.77 1850.57,-29.54"/>
<polygon fill="midnightblue" stroke="midnightblue" points="2037.09,-73.85 2047.65,-72.96 2038.85,-67.07 2037.09,-73.85"/>
</g>
<!-- Node30 -->
<g id="node28" class="node">
<title>Node30</title>
<g id="a_node28"><a xlink:href="menu__put__general__info__bonus_8c.html" target="_top" xlink:title=" ">
<polygon fill="none" stroke="black" points="1868.5,-0.5 1868.5,-30.5 1993.5,-30.5 1993.5,-0.5 1868.5,-0.5"/>
<text text-anchor="start" x="1876.5" y="-18.5" font-family="Helvetica,sans-Serif" font-size="10.00">src/menu_put_general</text>
<text text-anchor="middle" x="1931" y="-7.5" font-family="Helvetica,sans-Serif" font-size="10.00">_info_bonus.c</text>
</a>
</g>
</g>
<!-- Node23&#45;&gt;Node30 -->
<g id="edge27" class="edge">
<title>Node23&#45;&gt;Node30</title>
<path fill="none" stroke="midnightblue" d="M2050.01,-68.77C2024.96,-57.77 1988.81,-41.89 1962.94,-30.53"/>
<polygon fill="midnightblue" stroke="midnightblue" points="2048.78,-72.05 2059.35,-72.87 2051.6,-65.64 2048.78,-72.05"/>
</g>
<!-- Node31 -->
<g id="node29" class="node">
<title>Node31</title>
<g id="a_node29"><a xlink:href="menu__put__hittable_8c.html" target="_top" xlink:title=" ">
<polygon fill="none" stroke="black" points="2012,-6 2012,-25 2146,-25 2146,-6 2012,-6"/>
<text text-anchor="middle" x="2079" y="-13" font-family="Helvetica,sans-Serif" font-size="10.00">src/menu_put_hittable.c</text>
</a>
</g>
</g>
<!-- Node23&#45;&gt;Node31 -->
<g id="edge28" class="edge">
<title>Node23&#45;&gt;Node31</title>
<path fill="none" stroke="midnightblue" d="M2079,-62.54C2079,-50.17 2079,-34.62 2079,-25.13"/>
<polygon fill="midnightblue" stroke="midnightblue" points="2075.5,-62.73 2079,-72.73 2082.5,-62.73 2075.5,-62.73"/>
</g>
<!-- Node32 -->
<g id="node30" class="node">
<title>Node32</title>
<g id="a_node30"><a xlink:href="menu__put__hittable__bonus_8c.html" target="_top" xlink:title=" ">
<polygon fill="none" stroke="black" points="2164.5,-0.5 2164.5,-30.5 2289.5,-30.5 2289.5,-0.5 2164.5,-0.5"/>
<text text-anchor="start" x="2172.5" y="-18.5" font-family="Helvetica,sans-Serif" font-size="10.00">src/menu_put_hittable</text>
<text text-anchor="middle" x="2227" y="-7.5" font-family="Helvetica,sans-Serif" font-size="10.00">_bonus.c</text>
</a>
</g>
</g>
<!-- Node23&#45;&gt;Node32 -->
<g id="edge29" class="edge">
<title>Node23&#45;&gt;Node32</title>
<path fill="none" stroke="midnightblue" d="M2107.99,-68.77C2133.04,-57.77 2169.19,-41.89 2195.06,-30.53"/>
<polygon fill="midnightblue" stroke="midnightblue" points="2106.4,-65.64 2098.65,-72.87 2109.22,-72.05 2106.4,-65.64"/>
</g>
<!-- Node33 -->
<g id="node31" class="node">
<title>Node33</title>
<g id="a_node31"><a xlink:href="menu__put__hittable__ctrl_8c.html" target="_top" xlink:title=" ">
<polygon fill="none" stroke="black" points="2307.5,-0.5 2307.5,-30.5 2432.5,-30.5 2432.5,-0.5 2307.5,-0.5"/>
<text text-anchor="start" x="2315.5" y="-18.5" font-family="Helvetica,sans-Serif" font-size="10.00">src/menu_put_hittable</text>
<text text-anchor="middle" x="2370" y="-7.5" font-family="Helvetica,sans-Serif" font-size="10.00">_ctrl.c</text>
</a>
</g>
</g>
<!-- Node23&#45;&gt;Node33 -->
<g id="edge30" class="edge">
<title>Node23&#45;&gt;Node33</title>
<path fill="none" stroke="midnightblue" d="M2120.32,-70.38C2124.93,-69.21 2129.56,-68.06 2134,-67 2166.3,-59.29 2249.07,-41.77 2307.43,-29.54"/>
<polygon fill="midnightblue" stroke="midnightblue" points="2119.15,-67.07 2110.35,-72.96 2120.91,-73.85 2119.15,-67.07"/>
</g>
<!-- Node34 -->
<g id="node32" class="node">
<title>Node34</title>
<g id="a_node32"><a xlink:href="menu__put__hittable__ctrl__bonus_8c.html" target="_top" xlink:title=" ">
<polygon fill="none" stroke="black" points="2450.5,-0.5 2450.5,-30.5 2575.5,-30.5 2575.5,-0.5 2450.5,-0.5"/>
<text text-anchor="start" x="2458.5" y="-18.5" font-family="Helvetica,sans-Serif" font-size="10.00">src/menu_put_hittable</text>
<text text-anchor="middle" x="2513" y="-7.5" font-family="Helvetica,sans-Serif" font-size="10.00">_ctrl_bonus.c</text>
</a>
</g>
</g>
<!-- Node23&#45;&gt;Node34 -->
<g id="edge31" class="edge">
<title>Node23&#45;&gt;Node34</title>
<path fill="none" stroke="midnightblue" d="M2118.2,-70.44C2123.48,-69.17 2128.86,-67.97 2134,-67 2269.42,-41.37 2305.92,-52.81 2442,-31 2444.73,-30.56 2447.52,-30.09 2450.33,-29.6"/>
<polygon fill="midnightblue" stroke="midnightblue" points="2117.06,-67.12 2108.22,-72.97 2118.78,-73.91 2117.06,-67.12"/>
</g>
<!-- Node35 -->
<g id="node33" class="node">
<title>Node35</title>
<g id="a_node33"><a xlink:href="menu__put__page_8c.html" target="_top" xlink:title=" ">
<polygon fill="none" stroke="black" points="2594,-6 2594,-25 2714,-25 2714,-6 2594,-6"/>
<text text-anchor="middle" x="2654" y="-13" font-family="Helvetica,sans-Serif" font-size="10.00">src/menu_put_page.c</text>
</a>
</g>
</g>
<!-- Node23&#45;&gt;Node35 -->
<g id="edge32" class="edge">
<title>Node23&#45;&gt;Node35</title>
<path fill="none" stroke="midnightblue" d="M2117.2,-70.5C2122.8,-69.16 2128.52,-67.93 2134,-67 2332.23,-33.24 2385.98,-59.73 2585,-31 2595.66,-29.46 2607.15,-27.27 2617.63,-25.05"/>
<polygon fill="midnightblue" stroke="midnightblue" points="2116.17,-67.15 2107.33,-73 2117.89,-73.93 2116.17,-67.15"/>
</g>
<!-- Node36 -->
<g id="node34" class="node">
<title>Node36</title>
<g id="a_node34"><a xlink:href="menu__put__str__num_8c.html" target="_top" xlink:title=" ">
<polygon fill="none" stroke="black" points="2732,-6 2732,-25 2868,-25 2868,-6 2732,-6"/>
<text text-anchor="middle" x="2800" y="-13" font-family="Helvetica,sans-Serif" font-size="10.00">src/menu_put_str_num.c</text>
</a>
</g>
</g>
<!-- Node23&#45;&gt;Node36 -->
<g id="edge33" class="edge">
<title>Node23&#45;&gt;Node36</title>
<path fill="none" stroke="midnightblue" d="M2117,-70.45C2122.66,-69.1 2128.45,-67.89 2134,-67 2392.94,-25.37 2462.73,-63.33 2723,-31 2735.01,-29.51 2747.98,-27.3 2759.79,-25.06"/>
<polygon fill="midnightblue" stroke="midnightblue" points="2115.87,-67.12 2107.03,-72.97 2117.59,-73.91 2115.87,-67.12"/>
</g>
</g>
</svg>
        <g id="navigator" transform="translate(0 0)" fill="#404254">
                <rect fill="#f2f5e9" fill-opacity="0.5" stroke="#606060" stroke-width=".5" x="0" y="0" width="60" height="60"/>
                <use id="zoomplus" xlink:href="#zoomPlus" x="17" y="9" onmousedown="handleZoom(evt,'in')"/>
                <use id="zoomminus" xlink:href="#zoomMin" x="42" y="9" onmousedown="handleZoom(evt,'out')"/>
                <use id="reset" xlink:href="#resetDef" x="30" y="36" onmousedown="handleReset()"/>
                <g id="arrowUp" xlink:href="#dirArrow" transform="translate(30 24)" onmousedown="handlePan(0,-1)">
                  <use xlink:href="#rim" fill="#404040">
                        <set attributeName="fill" to="#808080" begin="arrowUp.mouseover" end="arrowUp.mouseout"/>
                  </use>
                  <path fill="none" stroke="white" stroke-width="1.5" d="M0,-3.0v7 M-2.5,-0.5L0,-3.0L2.5,-0.5"/>
                </g>
                <g id="arrowRight" xlink:href="#dirArrow" transform="rotate(90) translate(36 -43)" onmousedown="handlePan(1,0)">
                  <use xlink:href="#rim" fill="#404040">
                        <set attributeName="fill" to="#808080" begin="arrowRight.mouseover" end="arrowRight.mouseout"/>
                  </use>
                  <path fill="none" stroke="white" stroke-width="1.5" d="M0,-3.0v7 M-2.5,-0.5L0,-3.0L2.5,-0.5"/>
                </g>
                <g id="arrowDown" xlink:href="#dirArrow" transform="rotate(180) translate(-30 -48)" onmousedown="handlePan(0,1)">
                  <use xlink:href="#rim" fill="#404040">
                        <set attributeName="fill" to="#808080" begin="arrowDown.mouseover" end="arrowDown.mouseout"/>
                  </use>
                  <path fill="none" stroke="white" stroke-width="1.5" d="M0,-3.0v7 M-2.5,-0.5L0,-3.0L2.5,-0.5"/>
                </g>
                <g id="arrowLeft" xlink:href="#dirArrow" transform="rotate(270) translate(-36 17)" onmousedown="handlePan(-1,0)">
                  <use xlink:href="#rim" fill="#404040">
                        <set attributeName="fill" to="#808080" begin="arrowLeft.mouseover" end="arrowLeft.mouseout"/>
                  </use>
                  <path fill="none" stroke="white" stroke-width="1.5" d="M0,-3.0v7 M-2.5,-0.5L0,-3.0L2.5,-0.5"/>
                </g>
        </g>
        <svg viewBox="0 0 15 15" width="100%" height="30px" preserveAspectRatio="xMaxYMin meet">
         <g id="arrow_out" transform="scale(0.3 0.3)">
          <a xlink:href="mat4_8h__dep__incl_org.svg" target="_base">
           <rect id="button" ry="5" rx="5" y="6" x="6" height="38" width="38"
                fill="#f2f5e9" fill-opacity="0.5" stroke="#606060" stroke-width="1.0"/>
           <path id="arrow"
             d="M 11.500037,31.436501 C 11.940474,20.09759 22.043105,11.32322 32.158766,21.979434 L 37.068811,17.246167 C 37.068811,17.246167 37.088388,32 37.088388,32 L 22.160133,31.978069 C 22.160133,31.978069 26.997745,27.140456 26.997745,27.140456 C 18.528582,18.264221 13.291696,25.230495 11.500037,31.436501 z"
             style="fill:#404040;"/>
          </a>
         </g>
        </svg>
</svg>
