<?xml version="1.0" encoding="UTF-8" standalone="no"?>
<!DOCTYPE svg PUBLIC "-//W3C//DTD SVG 1.1//EN"
 "http://www.w3.org/Graphics/SVG/1.1/DTD/svg11.dtd">
<!-- Generated by graphviz version 2.43.0 (0)
 -->
<!-- Title: src/mat4_vec3_rotate.c Pages: 1 -->
<svg width="212pt" height="308pt"
 viewBox="0.00 0.00 212.00 308.00" xmlns="http://www.w3.org/2000/svg" xmlns:xlink="http://www.w3.org/1999/xlink">
<g id="graph0" class="graph" transform="scale(1 1) rotate(0) translate(4 304)">
<title>src/mat4_vec3_rotate.c</title>
<!-- Node1 -->
<g id="node1" class="node">
<title>Node1</title>
<g id="a_node1"><a xlink:title=" ">
<polygon fill="#bfbfbf" stroke="black" points="73,-280.5 73,-299.5 204,-299.5 204,-280.5 73,-280.5"/>
<text text-anchor="middle" x="138.5" y="-287.5" font-family="Helvetica,sans-Serif" font-size="10.00">src/mat4_vec3_rotate.c</text>
</a>
</g>
</g>
<!-- Node2 -->
<g id="node2" class="node">
<title>Node2</title>
<g id="a_node2"><a xlink:href="mat4__vec3_8h.html" target="_top" xlink:title=" ">
<polygon fill="none" stroke="black" points="98.5,-224.5 98.5,-243.5 178.5,-243.5 178.5,-224.5 98.5,-224.5"/>
<text text-anchor="middle" x="138.5" y="-231.5" font-family="Helvetica,sans-Serif" font-size="10.00">mat4_vec3.h</text>
</a>
</g>
</g>
<!-- Node1&#45;&gt;Node2 -->
<g id="edge1" class="edge">
<title>Node1&#45;&gt;Node2</title>
<path fill="none" stroke="midnightblue" d="M138.5,-280.08C138.5,-273.01 138.5,-262.86 138.5,-253.99"/>
<polygon fill="midnightblue" stroke="midnightblue" points="142,-253.75 138.5,-243.75 135,-253.75 142,-253.75"/>
</g>
<!-- Node3 -->
<g id="node3" class="node">
<title>Node3</title>
<g id="a_node3"><a xlink:href="vec3_8h.html" target="_top" xlink:title=" ">
<polygon fill="none" stroke="black" points="148,-56.5 148,-75.5 197,-75.5 197,-56.5 148,-56.5"/>
<text text-anchor="middle" x="172.5" y="-63.5" font-family="Helvetica,sans-Serif" font-size="10.00">vec3.h</text>
</a>
</g>
</g>
<!-- Node2&#45;&gt;Node3 -->
<g id="edge2" class="edge">
<title>Node2&#45;&gt;Node3</title>
<path fill="none" stroke="midnightblue" d="M140.33,-224.08C145.68,-197.95 161.4,-121.21 168.7,-85.58"/>
<polygon fill="midnightblue" stroke="midnightblue" points="172.17,-86.07 170.75,-75.57 165.31,-84.66 172.17,-86.07"/>
</g>
<!-- Node6 -->
<g id="node6" class="node">
<title>Node6</title>
<g id="a_node6"><a xlink:href="mat4_8h.html" target="_top" xlink:title=" ">
<polygon fill="none" stroke="black" points="86,-168.5 86,-187.5 137,-187.5 137,-168.5 86,-168.5"/>
<text text-anchor="middle" x="111.5" y="-175.5" font-family="Helvetica,sans-Serif" font-size="10.00">mat4.h</text>
</a>
</g>
</g>
<!-- Node2&#45;&gt;Node6 -->
<g id="edge5" class="edge">
<title>Node2&#45;&gt;Node6</title>
<path fill="none" stroke="midnightblue" d="M134.04,-224.08C130.35,-216.69 124.98,-205.95 120.41,-196.81"/>
<polygon fill="midnightblue" stroke="midnightblue" points="123.48,-195.13 115.88,-187.75 117.22,-198.26 123.48,-195.13"/>
</g>
<!-- Node4 -->
<g id="node4" class="node">
<title>Node4</title>
<g id="a_node4"><a xlink:title=" ">
<polygon fill="none" stroke="#bfbfbf" points="143,-0.5 143,-19.5 194,-19.5 194,-0.5 143,-0.5"/>
<text text-anchor="middle" x="168.5" y="-7.5" font-family="Helvetica,sans-Serif" font-size="10.00">math.h</text>
</a>
</g>
</g>
<!-- Node3&#45;&gt;Node4 -->
<g id="edge3" class="edge">
<title>Node3&#45;&gt;Node4</title>
<path fill="none" stroke="midnightblue" d="M171.84,-56.08C171.32,-49.01 170.56,-38.86 169.91,-29.99"/>
<polygon fill="midnightblue" stroke="midnightblue" points="173.38,-29.47 169.15,-19.75 166.4,-29.98 173.38,-29.47"/>
</g>
<!-- Node5 -->
<g id="node5" class="node">
<title>Node5</title>
<g id="a_node5"><a xlink:title=" ">
<polygon fill="none" stroke="#bfbfbf" points="58.5,-0.5 58.5,-19.5 120.5,-19.5 120.5,-0.5 58.5,-0.5"/>
<text text-anchor="middle" x="89.5" y="-7.5" font-family="Helvetica,sans-Serif" font-size="10.00">stdbool.h</text>
</a>
</g>
</g>
<!-- Node3&#45;&gt;Node5 -->
<g id="edge4" class="edge">
<title>Node3&#45;&gt;Node5</title>
<path fill="none" stroke="midnightblue" d="M159.16,-56.32C146.34,-47.98 126.72,-35.21 111.56,-25.35"/>
<polygon fill="midnightblue" stroke="midnightblue" points="113.09,-22.17 102.8,-19.65 109.28,-28.04 113.09,-22.17"/>
</g>
<!-- Node7 -->
<g id="node7" class="node">
<title>Node7</title>
<g id="a_node7"><a xlink:href="utils__bonus_8h.html" target="_top" xlink:title=" ">
<polygon fill="none" stroke="black" points="63,-112.5 63,-131.5 144,-131.5 144,-112.5 63,-112.5"/>
<text text-anchor="middle" x="103.5" y="-119.5" font-family="Helvetica,sans-Serif" font-size="10.00">utils_bonus.h</text>
</a>
</g>
</g>
<!-- Node6&#45;&gt;Node7 -->
<g id="edge6" class="edge">
<title>Node6&#45;&gt;Node7</title>
<path fill="none" stroke="midnightblue" d="M110.18,-168.08C109.12,-160.93 107.59,-150.64 106.27,-141.69"/>
<polygon fill="midnightblue" stroke="midnightblue" points="109.72,-141.13 104.8,-131.75 102.8,-142.16 109.72,-141.13"/>
</g>
<!-- Node7&#45;&gt;Node3 -->
<g id="edge10" class="edge">
<title>Node7&#45;&gt;Node3</title>
<path fill="none" stroke="midnightblue" d="M114.59,-112.32C124.99,-104.18 140.76,-91.84 153.22,-82.09"/>
<polygon fill="midnightblue" stroke="midnightblue" points="155.49,-84.75 161.21,-75.83 151.18,-79.24 155.49,-84.75"/>
</g>
<!-- Node7&#45;&gt;Node4 -->
<g id="edge7" class="edge">
<title>Node7&#45;&gt;Node4</title>
<path fill="none" stroke="midnightblue" d="M107.98,-112.48C114.62,-99.97 127.58,-75.93 139.5,-56 145.12,-46.61 151.7,-36.34 157.17,-27.99"/>
<polygon fill="midnightblue" stroke="midnightblue" points="160.18,-29.79 162.77,-19.52 154.34,-25.93 160.18,-29.79"/>
</g>
<!-- Node7&#45;&gt;Node5 -->
<g id="edge8" class="edge">
<title>Node7&#45;&gt;Node5</title>
<path fill="none" stroke="midnightblue" d="M102.4,-112.37C100.14,-94.62 94.93,-53.67 91.87,-29.6"/>
<polygon fill="midnightblue" stroke="midnightblue" points="95.33,-29.07 90.59,-19.59 88.38,-29.95 95.33,-29.07"/>
</g>
<!-- Node8 -->
<g id="node8" class="node">
<title>Node8</title>
<g id="a_node8"><a xlink:title=" ">
<polygon fill="none" stroke="#bfbfbf" points="0,-56.5 0,-75.5 53,-75.5 53,-56.5 0,-56.5"/>
<text text-anchor="middle" x="26.5" y="-63.5" font-family="Helvetica,sans-Serif" font-size="10.00">stdlib.h</text>
</a>
</g>
</g>
<!-- Node7&#45;&gt;Node8 -->
<g id="edge9" class="edge">
<title>Node7&#45;&gt;Node8</title>
<path fill="none" stroke="midnightblue" d="M91.13,-112.32C79.34,-104.06 61.37,-91.45 47.36,-81.63"/>
<polygon fill="midnightblue" stroke="midnightblue" points="49.04,-78.53 38.84,-75.65 45.02,-84.26 49.04,-78.53"/>
</g>
</g>
</svg>
