<?xml version="1.0" encoding="UTF-8" standalone="no"?>
<!DOCTYPE svg PUBLIC "-//W3C//DTD SVG 1.1//EN"
 "http://www.w3.org/Graphics/SVG/1.1/DTD/svg11.dtd">
<!-- Generated by graphviz version 2.43.0 (0)
 -->
<!-- Title: ft_vec3_rotate_x Pages: 1 -->
<svg width="431pt" height="151pt"
 viewBox="0.00 0.00 431.00 151.00" xmlns="http://www.w3.org/2000/svg" xmlns:xlink="http://www.w3.org/1999/xlink">
<g id="graph0" class="graph" transform="scale(1 1) rotate(0) translate(4 147)">
<title>ft_vec3_rotate_x</title>
<!-- Node1 -->
<g id="node1" class="node">
<title>Node1</title>
<g id="a_node1"><a xlink:title="Rotates a 3D vector around the x&#45;axis.">
<polygon fill="#bfbfbf" stroke="black" points="0,-57.5 0,-76.5 98,-76.5 98,-57.5 0,-57.5"/>
<text text-anchor="middle" x="49" y="-64.5" font-family="Helvetica,sans-Serif" font-size="10.00">ft_vec3_rotate_x</text>
</a>
</g>
</g>
<!-- Node2 -->
<g id="node2" class="node">
<title>Node2</title>
<g id="a_node2"><a xlink:href="mat4_8h.html#a96153e828811e816c64e7d0e19fcf654" target="_top" xlink:title="Creates a 4x4 transformation matrix for x&#45;axis rotation.">
<polygon fill="none" stroke="black" points="134,-95.5 134,-114.5 270,-114.5 270,-95.5 134,-95.5"/>
<text text-anchor="middle" x="202" y="-102.5" font-family="Helvetica,sans-Serif" font-size="10.00">ft_mat4_create_rotate_x</text>
</a>
</g>
</g>
<!-- Node1&#45;&gt;Node2 -->
<g id="edge1" class="edge">
<title>Node1&#45;&gt;Node2</title>
<path fill="none" stroke="midnightblue" d="M88.1,-76.59C107.94,-81.58 132.38,-87.73 153.45,-93.03"/>
<polygon fill="midnightblue" stroke="midnightblue" points="152.62,-96.43 163.17,-95.48 154.33,-89.65 152.62,-96.43"/>
</g>
<!-- Node5 -->
<g id="node5" class="node">
<title>Node5</title>
<g id="a_node5"><a xlink:href="mat4__vec3__rotate_8c.html#a53ea797ed37dea591e9e86121a849aca" target="_top" xlink:title="Multiplies a 4x4 matrix with a 3D vector.">
<polygon fill="none" stroke="black" points="147,-57.5 147,-76.5 257,-76.5 257,-57.5 147,-57.5"/>
<text text-anchor="middle" x="202" y="-64.5" font-family="Helvetica,sans-Serif" font-size="10.00">ft_vec3_mult_mat4</text>
</a>
</g>
</g>
<!-- Node1&#45;&gt;Node5 -->
<g id="edge4" class="edge">
<title>Node1&#45;&gt;Node5</title>
<path fill="none" stroke="midnightblue" d="M98.19,-67C110.45,-67 123.82,-67 136.74,-67"/>
<polygon fill="midnightblue" stroke="midnightblue" points="136.98,-70.5 146.98,-67 136.98,-63.5 136.98,-70.5"/>
</g>
<!-- Node6 -->
<g id="node6" class="node">
<title>Node6</title>
<g id="a_node6"><a xlink:href="vec3_8h.html#a38fe500bd27847b866b9630146e43250" target="_top" xlink:title="Normalise a vector.">
<polygon fill="none" stroke="black" points="160.5,-19.5 160.5,-38.5 243.5,-38.5 243.5,-19.5 160.5,-19.5"/>
<text text-anchor="middle" x="202" y="-26.5" font-family="Helvetica,sans-Serif" font-size="10.00">ft_vec3_norm</text>
</a>
</g>
</g>
<!-- Node1&#45;&gt;Node6 -->
<g id="edge5" class="edge">
<title>Node1&#45;&gt;Node6</title>
<path fill="none" stroke="midnightblue" d="M88.1,-57.41C107.94,-52.42 132.38,-46.27 153.45,-40.97"/>
<polygon fill="midnightblue" stroke="midnightblue" points="154.33,-44.35 163.17,-38.52 152.62,-37.57 154.33,-44.35"/>
</g>
<!-- Node3 -->
<g id="node3" class="node">
<title>Node3</title>
<g id="a_node3"><a xlink:href="utils_8h.html#a7d1328722f9dc6edd652f7c732856ae9" target="_top" xlink:title="Transforms degrees into radian.">
<polygon fill="none" stroke="black" points="308,-123.5 308,-142.5 421,-142.5 421,-123.5 308,-123.5"/>
<text text-anchor="middle" x="364.5" y="-130.5" font-family="Helvetica,sans-Serif" font-size="10.00">ft_degree_to_radian</text>
</a>
</g>
</g>
<!-- Node2&#45;&gt;Node3 -->
<g id="edge2" class="edge">
<title>Node2&#45;&gt;Node3</title>
<path fill="none" stroke="midnightblue" d="M257.79,-114.56C270.96,-116.86 285.15,-119.33 298.73,-121.7"/>
<polygon fill="midnightblue" stroke="midnightblue" points="298.51,-125.21 308.96,-123.49 299.71,-118.32 298.51,-125.21"/>
</g>
<!-- Node4 -->
<g id="node4" class="node">
<title>Node4</title>
<g id="a_node4"><a xlink:href="mat4_8h.html#ad20d2d0fd3d7862225345a79b062f03a" target="_top" xlink:title="Returns a 4x4 identity matrix.">
<polygon fill="none" stroke="black" points="306,-85.5 306,-104.5 423,-104.5 423,-85.5 306,-85.5"/>
<text text-anchor="middle" x="364.5" y="-92.5" font-family="Helvetica,sans-Serif" font-size="10.00">ft_mat4_set_identity</text>
</a>
</g>
</g>
<!-- Node2&#45;&gt;Node4 -->
<g id="edge3" class="edge">
<title>Node2&#45;&gt;Node4</title>
<path fill="none" stroke="midnightblue" d="M270.14,-100.82C278.56,-100.29 287.19,-99.75 295.63,-99.23"/>
<polygon fill="midnightblue" stroke="midnightblue" points="296.04,-102.71 305.8,-98.59 295.61,-95.72 296.04,-102.71"/>
</g>
<!-- Node7 -->
<g id="node7" class="node">
<title>Node7</title>
<g id="a_node7"><a xlink:href="vec3__linalgebra_8c.html#aa84621bd979d3b12b97908f653faf88e" target="_top" xlink:title="Calculate the absolute value of a vector.">
<polygon fill="none" stroke="black" points="327.5,-38.5 327.5,-57.5 401.5,-57.5 401.5,-38.5 327.5,-38.5"/>
<text text-anchor="middle" x="364.5" y="-45.5" font-family="Helvetica,sans-Serif" font-size="10.00">ft_vec3_abs</text>
</a>
</g>
</g>
<!-- Node6&#45;&gt;Node7 -->
<g id="edge6" class="edge">
<title>Node6&#45;&gt;Node7</title>
<path fill="none" stroke="midnightblue" d="M243.5,-33.79C265.99,-36.46 294.05,-39.78 317.38,-42.54"/>
<polygon fill="midnightblue" stroke="midnightblue" points="317.05,-46.03 327.39,-43.73 317.87,-39.07 317.05,-46.03"/>
</g>
<!-- Node8 -->
<g id="node8" class="node">
<title>Node8</title>
<g id="a_node8"><a xlink:href="vec3_8h.html#ac80a1c20941c96a8fafad255dac59092" target="_top" xlink:title="Scale a vector.">
<polygon fill="none" stroke="black" points="323,-0.5 323,-19.5 406,-19.5 406,-0.5 323,-0.5"/>
<text text-anchor="middle" x="364.5" y="-7.5" font-family="Helvetica,sans-Serif" font-size="10.00">ft_vec3_scale</text>
</a>
</g>
</g>
<!-- Node6&#45;&gt;Node8 -->
<g id="edge7" class="edge">
<title>Node6&#45;&gt;Node8</title>
<path fill="none" stroke="midnightblue" d="M243.5,-24.21C264.52,-21.72 290.41,-18.65 312.75,-16.01"/>
<polygon fill="midnightblue" stroke="midnightblue" points="313.21,-19.48 322.73,-14.83 312.39,-12.53 313.21,-19.48"/>
</g>
</g>
</svg>
