<?xml version="1.0" encoding="UTF-8" standalone="no"?>
<!DOCTYPE svg PUBLIC "-//W3C//DTD SVG 1.1//EN"
 "http://www.w3.org/Graphics/SVG/1.1/DTD/svg11.dtd">
<!-- Generated by graphviz version 2.43.0 (0)
 -->
<!-- Title: inc/menu_put.h Pages: 1 -->
<svg width="1410pt" height="95pt"
 viewBox="0.00 0.00 1410.00 95.00" xmlns="http://www.w3.org/2000/svg" xmlns:xlink="http://www.w3.org/1999/xlink">
<g id="graph0" class="graph" transform="scale(1 1) rotate(0) translate(4 91)">
<title>inc/menu_put.h</title>
<!-- Node1 -->
<g id="node1" class="node">
<title>Node1</title>
<g id="a_node1"><a xlink:title=" ">
<polygon fill="#bfbfbf" stroke="black" points="664.5,-67.5 664.5,-86.5 756.5,-86.5 756.5,-67.5 664.5,-67.5"/>
<text text-anchor="middle" x="710.5" y="-74.5" font-family="Helvetica,sans-Serif" font-size="10.00">inc/menu_put.h</text>
</a>
</g>
</g>
<!-- Node2 -->
<g id="node2" class="node">
<title>Node2</title>
<g id="a_node2"><a xlink:href="menu__put_8c.html" target="_top" xlink:title=" ">
<polygon fill="none" stroke="black" points="0,-6 0,-25 91,-25 91,-6 0,-6"/>
<text text-anchor="middle" x="45.5" y="-13" font-family="Helvetica,sans-Serif" font-size="10.00">src/menu_put.c</text>
</a>
</g>
</g>
<!-- Node1&#45;&gt;Node2 -->
<g id="edge1" class="edge">
<title>Node1&#45;&gt;Node2</title>
<path fill="none" stroke="midnightblue" d="M654.21,-75.3C546.15,-73.2 302.41,-64.77 100.5,-31 91.73,-29.53 82.33,-27.31 73.83,-25.03"/>
<polygon fill="midnightblue" stroke="midnightblue" points="654.18,-78.8 664.24,-75.48 654.31,-71.8 654.18,-78.8"/>
</g>
<!-- Node3 -->
<g id="node3" class="node">
<title>Node3</title>
<g id="a_node3"><a xlink:href="menu__put__cam__light_8c.html" target="_top" xlink:title=" ">
<polygon fill="none" stroke="black" points="109.5,-6 109.5,-25 253.5,-25 253.5,-6 109.5,-6"/>
<text text-anchor="middle" x="181.5" y="-13" font-family="Helvetica,sans-Serif" font-size="10.00">src/menu_put_cam_light.c</text>
</a>
</g>
</g>
<!-- Node1&#45;&gt;Node3 -->
<g id="edge2" class="edge">
<title>Node1&#45;&gt;Node3</title>
<path fill="none" stroke="midnightblue" d="M654.03,-71.73C568.91,-64.98 402.78,-50.57 262.5,-31 250.47,-29.32 237.5,-27.16 225.54,-25.02"/>
<polygon fill="midnightblue" stroke="midnightblue" points="654,-75.24 664.25,-72.54 654.55,-68.26 654,-75.24"/>
</g>
<!-- Node4 -->
<g id="node4" class="node">
<title>Node4</title>
<g id="a_node4"><a xlink:href="menu__put__cam__light__ctrl_8c.html" target="_top" xlink:title=" ">
<polygon fill="none" stroke="black" points="271.5,-0.5 271.5,-30.5 407.5,-30.5 407.5,-0.5 271.5,-0.5"/>
<text text-anchor="start" x="279.5" y="-18.5" font-family="Helvetica,sans-Serif" font-size="10.00">src/menu_put_cam_light</text>
<text text-anchor="middle" x="339.5" y="-7.5" font-family="Helvetica,sans-Serif" font-size="10.00">_ctrl.c</text>
</a>
</g>
</g>
<!-- Node1&#45;&gt;Node4 -->
<g id="edge3" class="edge">
<title>Node1&#45;&gt;Node4</title>
<path fill="none" stroke="midnightblue" d="M654.44,-68C595.21,-59.42 499.14,-45.1 416.5,-31 413.68,-30.52 410.81,-30.02 407.91,-29.51"/>
<polygon fill="midnightblue" stroke="midnightblue" points="653.94,-71.47 664.34,-69.43 654.94,-64.54 653.94,-71.47"/>
</g>
<!-- Node5 -->
<g id="node5" class="node">
<title>Node5</title>
<g id="a_node5"><a xlink:href="menu__put__general__info_8c.html" target="_top" xlink:title=" ">
<polygon fill="none" stroke="black" points="426,-0.5 426,-30.5 551,-30.5 551,-0.5 426,-0.5"/>
<text text-anchor="start" x="434" y="-18.5" font-family="Helvetica,sans-Serif" font-size="10.00">src/menu_put_general</text>
<text text-anchor="middle" x="488.5" y="-7.5" font-family="Helvetica,sans-Serif" font-size="10.00">_info.c</text>
</a>
</g>
</g>
<!-- Node1&#45;&gt;Node5 -->
<g id="edge4" class="edge">
<title>Node1&#45;&gt;Node5</title>
<path fill="none" stroke="midnightblue" d="M668.93,-64.86C632.69,-55.14 579.93,-41.01 540.82,-30.52"/>
<polygon fill="midnightblue" stroke="midnightblue" points="668.13,-68.27 678.69,-67.48 669.94,-61.51 668.13,-68.27"/>
</g>
<!-- Node6 -->
<g id="node6" class="node">
<title>Node6</title>
<g id="a_node6"><a xlink:href="menu__put__hittable_8c.html" target="_top" xlink:title=" ">
<polygon fill="none" stroke="black" points="569.5,-6 569.5,-25 703.5,-25 703.5,-6 569.5,-6"/>
<text text-anchor="middle" x="636.5" y="-13" font-family="Helvetica,sans-Serif" font-size="10.00">src/menu_put_hittable.c</text>
</a>
</g>
</g>
<!-- Node1&#45;&gt;Node6 -->
<g id="edge5" class="edge">
<title>Node1&#45;&gt;Node6</title>
<path fill="none" stroke="midnightblue" d="M691.81,-60.97C677.66,-49.59 658.72,-34.37 647.08,-25.01"/>
<polygon fill="midnightblue" stroke="midnightblue" points="689.91,-63.94 699.9,-67.48 694.3,-58.48 689.91,-63.94"/>
</g>
<!-- Node7 -->
<g id="node7" class="node">
<title>Node7</title>
<g id="a_node7"><a xlink:href="menu__put__hittable__ctrl_8c.html" target="_top" xlink:title=" ">
<polygon fill="none" stroke="black" points="722,-0.5 722,-30.5 847,-30.5 847,-0.5 722,-0.5"/>
<text text-anchor="start" x="730" y="-18.5" font-family="Helvetica,sans-Serif" font-size="10.00">src/menu_put_hittable</text>
<text text-anchor="middle" x="784.5" y="-7.5" font-family="Helvetica,sans-Serif" font-size="10.00">_ctrl.c</text>
</a>
</g>
</g>
<!-- Node1&#45;&gt;Node7 -->
<g id="edge6" class="edge">
<title>Node1&#45;&gt;Node7</title>
<path fill="none" stroke="midnightblue" d="M728.91,-61.2C740.58,-51.81 755.58,-39.75 767.06,-30.52"/>
<polygon fill="midnightblue" stroke="midnightblue" points="726.7,-58.48 721.1,-67.48 731.09,-63.94 726.7,-58.48"/>
</g>
<!-- Node8 -->
<g id="node8" class="node">
<title>Node8</title>
<g id="a_node8"><a xlink:href="menu__put__page_8c.html" target="_top" xlink:title=" ">
<polygon fill="none" stroke="black" points="865.5,-6 865.5,-25 985.5,-25 985.5,-6 865.5,-6"/>
<text text-anchor="middle" x="925.5" y="-13" font-family="Helvetica,sans-Serif" font-size="10.00">src/menu_put_page.c</text>
</a>
</g>
</g>
<!-- Node1&#45;&gt;Node8 -->
<g id="edge7" class="edge">
<title>Node1&#45;&gt;Node8</title>
<path fill="none" stroke="midnightblue" d="M751.15,-64.75C792.92,-53.19 857.02,-35.45 894.75,-25.01"/>
<polygon fill="midnightblue" stroke="midnightblue" points="750.01,-61.43 741.3,-67.48 751.88,-68.18 750.01,-61.43"/>
</g>
<!-- Node9 -->
<g id="node9" class="node">
<title>Node9</title>
<g id="a_node9"><a xlink:href="menu__put__str__num_8c.html" target="_top" xlink:title=" ">
<polygon fill="none" stroke="black" points="1003.5,-6 1003.5,-25 1139.5,-25 1139.5,-6 1003.5,-6"/>
<text text-anchor="middle" x="1071.5" y="-13" font-family="Helvetica,sans-Serif" font-size="10.00">src/menu_put_str_num.c</text>
</a>
</g>
</g>
<!-- Node1&#45;&gt;Node9 -->
<g id="edge8" class="edge">
<title>Node1&#45;&gt;Node9</title>
<path fill="none" stroke="midnightblue" d="M766.76,-67.58C824.11,-58.88 915.62,-44.67 994.5,-31 1005.22,-29.14 1016.76,-27.03 1027.56,-25"/>
<polygon fill="midnightblue" stroke="midnightblue" points="766.17,-64.13 756.81,-69.08 767.22,-71.05 766.17,-64.13"/>
</g>
<!-- Node10 -->
<g id="node10" class="node">
<title>Node10</title>
<g id="a_node10"><a xlink:href="menu__put__utils_8c.html" target="_top" xlink:title=" ">
<polygon fill="none" stroke="black" points="1158,-6 1158,-25 1275,-25 1275,-6 1158,-6"/>
<text text-anchor="middle" x="1216.5" y="-13" font-family="Helvetica,sans-Serif" font-size="10.00">src/menu_put_utils.c</text>
</a>
</g>
</g>
<!-- Node1&#45;&gt;Node10 -->
<g id="edge9" class="edge">
<title>Node1&#45;&gt;Node10</title>
<path fill="none" stroke="midnightblue" d="M766.79,-72.17C850.41,-66.03 1012.22,-52.47 1148.5,-31 1158.75,-29.38 1169.79,-27.22 1179.93,-25.05"/>
<polygon fill="midnightblue" stroke="midnightblue" points="766.47,-68.68 756.75,-72.89 766.97,-75.66 766.47,-68.68"/>
</g>
<!-- Node11 -->
<g id="node11" class="node">
<title>Node11</title>
<g id="a_node11"><a xlink:href="menu__put__utils__ctrl_8c.html" target="_top" xlink:title=" ">
<polygon fill="none" stroke="black" points="1293,-0.5 1293,-30.5 1402,-30.5 1402,-0.5 1293,-0.5"/>
<text text-anchor="start" x="1301" y="-18.5" font-family="Helvetica,sans-Serif" font-size="10.00">src/menu_put_utils</text>
<text text-anchor="middle" x="1347.5" y="-7.5" font-family="Helvetica,sans-Serif" font-size="10.00">_ctrl.c</text>
</a>
</g>
</g>
<!-- Node1&#45;&gt;Node11 -->
<g id="edge10" class="edge">
<title>Node1&#45;&gt;Node11</title>
<path fill="none" stroke="midnightblue" d="M766.71,-74.35C869.86,-70.72 1096.08,-59.91 1284.5,-31 1287.27,-30.57 1290.11,-30.09 1292.96,-29.57"/>
<polygon fill="midnightblue" stroke="midnightblue" points="766.4,-70.86 756.52,-74.7 766.64,-77.86 766.4,-70.86"/>
</g>
</g>
</svg>
