<?xml version="1.0" encoding="UTF-8" standalone="no"?>
<!DOCTYPE svg PUBLIC "-//W3C//DTD SVG 1.1//EN"
 "http://www.w3.org/Graphics/SVG/1.1/DTD/svg11.dtd">
<!-- Generated by graphviz version 2.43.0 (0)
 -->
<!-- Title: ft_put_page_ambient Pages: 1 -->
<!--zoomable 268 -->
<svg id="main" version="1.1" xmlns="http://www.w3.org/2000/svg" xmlns:xlink="http://www.w3.org/1999/xlink" xml:space="preserve" onload="init(evt)">
<style type="text/css"><![CDATA[
.edge:hover path { stroke: red; }
.edge:hover polygon { stroke: red; fill: red; }
]]></style>
<script type="text/javascript"><![CDATA[
var edges = document.getElementsByTagName('g');
if (edges && edges.length) {
  for (var i=0;i<edges.length;i++) {
    if (edges[i].id.substr(0,4)=='edge') {
      edges[i].setAttribute('class','edge');
    }
  }
}
]]></script>
        <defs>
                <circle id="rim" cx="0" cy="0" r="7"/>
                <circle id="rim2" cx="0" cy="0" r="3.5"/>
                <g id="zoomPlus">
                        <use xlink:href="#rim" fill="#404040">
                                <set attributeName="fill" to="#808080" begin="zoomplus.mouseover" end="zoomplus.mouseout"/>
                        </use>
                        <path d="M-4,0h8M0,-4v8" fill="none" stroke="white" stroke-width="1.5" pointer-events="none"/>
                </g>
                <g id="zoomMin">
                        <use xlink:href="#rim" fill="#404040">
                                <set attributeName="fill" to="#808080" begin="zoomminus.mouseover" end="zoomminus.mouseout"/>
                        </use>
                        <path d="M-4,0h8" fill="none" stroke="white" stroke-width="1.5" pointer-events="none"/>
                </g>
                <g id="dirArrow">
                        <path fill="none" stroke="white" stroke-width="1.5" d="M0,-3.0v7 M-2.5,-0.5L0,-3.0L2.5,-0.5"/>
                </g>
               <g id="resetDef">
                       <use xlink:href="#rim2" fill="#404040">
                               <set attributeName="fill" to="#808080" begin="reset.mouseover" end="reset.mouseout"/>
                       </use>
               </g>
        </defs>

<script type="text/javascript">
var viewWidth = 603;
var viewHeight = 268;
var sectionId = 'dynsection-44';
</script>
<script xlink:href="svgpan.js"/>
<svg id="graph" class="graph">
<g id="viewport">
<title>ft_put_page_ambient</title>
<!-- Node1 -->
<g id="node1" class="node">
<title>Node1</title>
<g id="a_node1"><a xlink:title="Puts an ambient page on the screen.">
<polygon fill="#bfbfbf" stroke="black" points="0,-114.5 0,-133.5 119,-133.5 119,-114.5 0,-114.5"/>
<text text-anchor="middle" x="59.5" y="-121.5" font-family="Helvetica,sans-Serif" font-size="10.00">ft_put_page_ambient</text>
</a>
</g>
</g>
<!-- Node2 -->
<g id="node2" class="node">
<title>Node2</title>
<g id="a_node2"><a xlink:href="menu__put_8h.html#a77a2ed2d37b91adb0fe09dd2db3e8618" target="_top" xlink:title="Puts ambient info on the screen.">
<polygon fill="none" stroke="black" points="156,-152.5 156,-171.5 246,-171.5 246,-152.5 156,-152.5"/>
<text text-anchor="middle" x="201" y="-159.5" font-family="Helvetica,sans-Serif" font-size="10.00">ft_put_ambient</text>
</a>
</g>
</g>
<!-- Node1&#45;&gt;Node2 -->
<g id="edge1" class="edge">
<title>Node1&#45;&gt;Node2</title>
<path fill="none" stroke="midnightblue" d="M95.7,-133.59C113.71,-138.49 135.83,-144.52 155.06,-149.76"/>
<polygon fill="midnightblue" stroke="midnightblue" points="154.24,-153.16 164.81,-152.41 156.08,-146.41 154.24,-153.16"/>
</g>
<!-- Node11 -->
<g id="node11" class="node">
<title>Node11</title>
<g id="a_node11"><a xlink:href="menu__put_8h.html#acb49d711643bd638023d9317cd528174" target="_top" xlink:title="Puts control scheme for light on the screen.">
<polygon fill="none" stroke="black" points="155,-95.5 155,-114.5 247,-114.5 247,-95.5 155,-95.5"/>
<text text-anchor="middle" x="201" y="-102.5" font-family="Helvetica,sans-Serif" font-size="10.00">ft_put_ctrl_light</text>
</a>
</g>
</g>
<!-- Node1&#45;&gt;Node11 -->
<g id="edge14" class="edge">
<title>Node1&#45;&gt;Node11</title>
<path fill="none" stroke="midnightblue" d="M119.26,-116C127.73,-114.84 136.42,-113.66 144.82,-112.52"/>
<polygon fill="midnightblue" stroke="midnightblue" points="145.44,-115.96 154.88,-111.15 144.5,-109.03 145.44,-115.96"/>
</g>
<!-- Node3 -->
<g id="node3" class="node">
<title>Node3</title>
<g id="a_node3"><a xlink:href="menu__put_8h.html#a05f3a769bd3fbea5c4d66ce5055701c7" target="_top" xlink:title="Puts a colour on the screen.">
<polygon fill="none" stroke="black" points="296.5,-190.5 296.5,-209.5 376.5,-209.5 376.5,-190.5 296.5,-190.5"/>
<text text-anchor="middle" x="336.5" y="-197.5" font-family="Helvetica,sans-Serif" font-size="10.00">ft_put_colour</text>
</a>
</g>
</g>
<!-- Node2&#45;&gt;Node3 -->
<g id="edge2" class="edge">
<title>Node2&#45;&gt;Node3</title>
<path fill="none" stroke="midnightblue" d="M235.69,-171.59C252.76,-176.45 273.7,-182.41 291.98,-187.61"/>
<polygon fill="midnightblue" stroke="midnightblue" points="291.25,-191.04 301.82,-190.41 293.16,-184.31 291.25,-191.04"/>
</g>
<!-- Node5 -->
<g id="node5" class="node">
<title>Node5</title>
<g id="a_node5"><a xlink:href="menu__put_8h.html#a3d812757fc50aadab47e468736eafb73" target="_top" xlink:title="Puts the ID of a hittable or a light on the screen.">
<polygon fill="none" stroke="black" points="307,-152.5 307,-171.5 366,-171.5 366,-152.5 307,-152.5"/>
<text text-anchor="middle" x="336.5" y="-159.5" font-family="Helvetica,sans-Serif" font-size="10.00">ft_put_id</text>
</a>
</g>
</g>
<!-- Node2&#45;&gt;Node5 -->
<g id="edge4" class="edge">
<title>Node2&#45;&gt;Node5</title>
<path fill="none" stroke="midnightblue" d="M246.08,-162C262.53,-162 281.06,-162 296.97,-162"/>
<polygon fill="midnightblue" stroke="midnightblue" points="297,-165.5 307,-162 297,-158.5 297,-165.5"/>
</g>
<!-- Node8 -->
<g id="node8" class="node">
<title>Node8</title>
<g id="a_node8"><a xlink:href="menu__put_8h.html#a46110b7c3be87e212dcfd9105fb4df03" target="_top" xlink:title="Puts a single float value on the screen.">
<polygon fill="none" stroke="black" points="283.5,-229 283.5,-259 389.5,-259 389.5,-229 283.5,-229"/>
<text text-anchor="start" x="291.5" y="-247" font-family="Helvetica,sans-Serif" font-size="10.00">ft_put_single_float</text>
<text text-anchor="middle" x="336.5" y="-236" font-family="Helvetica,sans-Serif" font-size="10.00">_value</text>
</a>
</g>
</g>
<!-- Node2&#45;&gt;Node8 -->
<g id="edge8" class="edge">
<title>Node2&#45;&gt;Node8</title>
<path fill="none" stroke="midnightblue" d="M214.19,-171.56C229.68,-183.48 257.46,-204.08 283,-219 286.15,-220.84 289.45,-222.66 292.81,-224.42"/>
<polygon fill="midnightblue" stroke="midnightblue" points="291.23,-227.55 301.73,-228.96 294.4,-221.31 291.23,-227.55"/>
</g>
<!-- Node10 -->
<g id="node10" class="node">
<title>Node10</title>
<g id="a_node10"><a xlink:href="menu__put_8h.html#a8d53c0c28e59d4db8e6bb03ee433f724" target="_top" xlink:title="Puts the type of a hittable or a light on the screen.">
<polygon fill="none" stroke="black" points="301,-114.5 301,-133.5 372,-133.5 372,-114.5 301,-114.5"/>
<text text-anchor="middle" x="336.5" y="-121.5" font-family="Helvetica,sans-Serif" font-size="10.00">ft_put_type</text>
</a>
</g>
</g>
<!-- Node2&#45;&gt;Node10 -->
<g id="edge12" class="edge">
<title>Node2&#45;&gt;Node10</title>
<path fill="none" stroke="midnightblue" d="M235.69,-152.41C252.76,-147.55 273.7,-141.59 291.98,-136.39"/>
<polygon fill="midnightblue" stroke="midnightblue" points="293.16,-139.69 301.82,-133.59 291.25,-132.96 293.16,-139.69"/>
</g>
<!-- Node4 -->
<g id="node4" class="node">
<title>Node4</title>
<g id="a_node4"><a xlink:href="menu__put_8h.html#a1a2da0ddd033aa4e2ad293ef4b8db2af" target="_top" xlink:title="Wrapper for mlx_string_put().">
<polygon fill="none" stroke="black" points="430.5,-114.5 430.5,-133.5 492.5,-133.5 492.5,-114.5 430.5,-114.5"/>
<text text-anchor="middle" x="461.5" y="-121.5" font-family="Helvetica,sans-Serif" font-size="10.00">ft_put_str</text>
</a>
</g>
</g>
<!-- Node3&#45;&gt;Node4 -->
<g id="edge3" class="edge">
<title>Node3&#45;&gt;Node4</title>
<path fill="none" stroke="midnightblue" d="M369.35,-190.4C376.35,-187.76 383.58,-184.62 390,-181 409.75,-169.86 429.61,-153.2 443.19,-140.77"/>
<polygon fill="midnightblue" stroke="midnightblue" points="445.87,-143.05 450.78,-133.66 441.09,-137.94 445.87,-143.05"/>
</g>
<!-- Node5&#45;&gt;Node4 -->
<g id="edge7" class="edge">
<title>Node5&#45;&gt;Node4</title>
<path fill="none" stroke="midnightblue" d="M366.03,-153.19C382.31,-148.15 402.98,-141.77 420.83,-136.26"/>
<polygon fill="midnightblue" stroke="midnightblue" points="421.89,-139.59 430.41,-133.3 419.82,-132.9 421.89,-139.59"/>
</g>
<!-- Node6 -->
<g id="node6" class="node">
<title>Node6</title>
<g id="a_node6"><a xlink:href="menu__put_8h.html#afdfa5611d84fa2c8cbb73cb66a339c98" target="_top" xlink:title="Converts integer to string and puts it on the screen.">
<polygon fill="none" stroke="black" points="430.5,-174.5 430.5,-193.5 492.5,-193.5 492.5,-174.5 430.5,-174.5"/>
<text text-anchor="middle" x="461.5" y="-181.5" font-family="Helvetica,sans-Serif" font-size="10.00">ft_put_int</text>
</a>
</g>
</g>
<!-- Node5&#45;&gt;Node6 -->
<g id="edge5" class="edge">
<title>Node5&#45;&gt;Node6</title>
<path fill="none" stroke="midnightblue" d="M366.03,-167.1C382.16,-169.99 402.6,-173.64 420.33,-176.82"/>
<polygon fill="midnightblue" stroke="midnightblue" points="419.95,-180.3 430.41,-178.62 421.18,-173.41 419.95,-180.3"/>
</g>
<!-- Node7 -->
<g id="node7" class="node">
<title>Node7</title>
<g id="a_node7"><a xlink:href="menu__put__str__num_8c.html#a1a2da0ddd033aa4e2ad293ef4b8db2af" target="_top" xlink:title="Wrapper for mlx_string_put().">
<polygon fill="none" stroke="black" points="533,-198.5 533,-217.5 595,-217.5 595,-198.5 533,-198.5"/>
<text text-anchor="middle" x="564" y="-205.5" font-family="Helvetica,sans-Serif" font-size="10.00">ft_put_str</text>
</a>
</g>
</g>
<!-- Node6&#45;&gt;Node7 -->
<g id="edge6" class="edge">
<title>Node6&#45;&gt;Node7</title>
<path fill="none" stroke="midnightblue" d="M492.65,-191.2C502.19,-193.48 512.89,-196.03 523.01,-198.45"/>
<polygon fill="midnightblue" stroke="midnightblue" points="522.33,-201.89 532.87,-200.8 523.95,-195.08 522.33,-201.89"/>
</g>
<!-- Node8&#45;&gt;Node4 -->
<g id="edge11" class="edge">
<title>Node8&#45;&gt;Node4</title>
<path fill="none" stroke="midnightblue" d="M375.46,-228.99C380.63,-226.1 385.65,-222.77 390,-219 411.81,-200.12 408.69,-188.07 426,-165 432.02,-156.98 439.09,-148.44 445.25,-141.25"/>
<polygon fill="midnightblue" stroke="midnightblue" points="448.04,-143.37 451.96,-133.53 442.76,-138.78 448.04,-143.37"/>
</g>
<!-- Node9 -->
<g id="node9" class="node">
<title>Node9</title>
<g id="a_node9"><a xlink:href="menu__put_8h.html#abba80f1bfc48c436f54f5a0740683a75" target="_top" xlink:title="Converts float to string and puts it on the screen.">
<polygon fill="none" stroke="black" points="426,-223.5 426,-242.5 497,-242.5 497,-223.5 426,-223.5"/>
<text text-anchor="middle" x="461.5" y="-230.5" font-family="Helvetica,sans-Serif" font-size="10.00">ft_put_float</text>
</a>
</g>
</g>
<!-- Node8&#45;&gt;Node9 -->
<g id="edge9" class="edge">
<title>Node8&#45;&gt;Node9</title>
<path fill="none" stroke="midnightblue" d="M389.66,-239.34C398.32,-238.56 407.23,-237.76 415.69,-237.01"/>
<polygon fill="midnightblue" stroke="midnightblue" points="416.08,-240.49 425.73,-236.11 415.46,-233.51 416.08,-240.49"/>
</g>
<!-- Node9&#45;&gt;Node7 -->
<g id="edge10" class="edge">
<title>Node9&#45;&gt;Node7</title>
<path fill="none" stroke="midnightblue" d="M497.09,-224.4C505.41,-222.33 514.37,-220.1 522.93,-217.97"/>
<polygon fill="midnightblue" stroke="midnightblue" points="523.86,-221.34 532.71,-215.53 522.17,-214.55 523.86,-221.34"/>
</g>
<!-- Node10&#45;&gt;Node4 -->
<g id="edge13" class="edge">
<title>Node10&#45;&gt;Node4</title>
<path fill="none" stroke="midnightblue" d="M372.09,-124C386.98,-124 404.5,-124 420,-124"/>
<polygon fill="midnightblue" stroke="midnightblue" points="420.35,-127.5 430.35,-124 420.35,-120.5 420.35,-127.5"/>
</g>
<!-- Node11&#45;&gt;Node4 -->
<g id="edge20" class="edge">
<title>Node11&#45;&gt;Node4</title>
<path fill="none" stroke="midnightblue" d="M247.04,-101.7C285.26,-99.68 341.47,-98.57 390,-105 400.67,-106.41 412.01,-108.98 422.41,-111.77"/>
<polygon fill="midnightblue" stroke="midnightblue" points="421.46,-115.14 432.03,-114.5 423.37,-108.41 421.46,-115.14"/>
</g>
<!-- Node11&#45;&gt;Node5 -->
<g id="edge19" class="edge">
<title>Node11&#45;&gt;Node5</title>
<path fill="none" stroke="midnightblue" d="M221.09,-114.56C237.37,-122.57 261.48,-134.08 283,-143 287.8,-144.99 292.9,-146.98 297.95,-148.88"/>
<polygon fill="midnightblue" stroke="midnightblue" points="296.93,-152.24 307.53,-152.41 299.35,-145.67 296.93,-152.24"/>
</g>
<!-- Node11&#45;&gt;Node10 -->
<g id="edge21" class="edge">
<title>Node11&#45;&gt;Node10</title>
<path fill="none" stroke="midnightblue" d="M247.2,-111.43C261.32,-113.44 276.88,-115.66 290.96,-117.66"/>
<polygon fill="midnightblue" stroke="midnightblue" points="290.51,-121.13 300.9,-119.08 291.5,-114.2 290.51,-121.13"/>
</g>
<!-- Node12 -->
<g id="node12" class="node">
<title>Node12</title>
<g id="a_node12"><a xlink:href="menu__put_8h.html#a0dd38606280deb85fca8f3d4db628552" target="_top" xlink:title="Puts control scheme for incrementing and decrementing a value on the screen.">
<polygon fill="none" stroke="black" points="283,-38.5 283,-57.5 390,-57.5 390,-38.5 283,-38.5"/>
<text text-anchor="middle" x="336.5" y="-45.5" font-family="Helvetica,sans-Serif" font-size="10.00">ft_put_ctrl_inc_dec</text>
</a>
</g>
</g>
<!-- Node11&#45;&gt;Node12 -->
<g id="edge15" class="edge">
<title>Node11&#45;&gt;Node12</title>
<path fill="none" stroke="midnightblue" d="M224.34,-95.46C246.1,-86.17 279.37,-71.96 303.85,-61.51"/>
<polygon fill="midnightblue" stroke="midnightblue" points="305.26,-64.72 313.08,-57.57 302.51,-58.28 305.26,-64.72"/>
</g>
<!-- Node13 -->
<g id="node13" class="node">
<title>Node13</title>
<g id="a_node13"><a xlink:href="menu__put_8h.html#a6387702d64aea5e1908a16e2baf024c0" target="_top" xlink:title="Puts control scheme for movement on the screen.">
<polygon fill="none" stroke="black" points="287.5,-0.5 287.5,-19.5 385.5,-19.5 385.5,-0.5 287.5,-0.5"/>
<text text-anchor="middle" x="336.5" y="-7.5" font-family="Helvetica,sans-Serif" font-size="10.00">ft_put_ctrl_move</text>
</a>
</g>
</g>
<!-- Node11&#45;&gt;Node13 -->
<g id="edge17" class="edge">
<title>Node11&#45;&gt;Node13</title>
<path fill="none" stroke="midnightblue" d="M210,-95.27C223.52,-79.38 252.43,-47.76 283,-29 286.2,-27.03 289.64,-25.23 293.17,-23.58"/>
<polygon fill="midnightblue" stroke="midnightblue" points="294.78,-26.7 302.62,-19.57 292.04,-20.25 294.78,-26.7"/>
</g>
<!-- Node12&#45;&gt;Node4 -->
<g id="edge16" class="edge">
<title>Node12&#45;&gt;Node4</title>
<path fill="none" stroke="midnightblue" d="M361.02,-57.51C370.27,-61.57 380.85,-66.61 390,-72 408.23,-82.74 427.47,-97.16 441.24,-108.09"/>
<polygon fill="midnightblue" stroke="midnightblue" points="439.06,-110.84 449.04,-114.39 443.45,-105.39 439.06,-110.84"/>
</g>
<!-- Node13&#45;&gt;Node4 -->
<g id="edge18" class="edge">
<title>Node13&#45;&gt;Node4</title>
<path fill="none" stroke="midnightblue" d="M372.85,-19.55C378.89,-22.07 384.87,-25.18 390,-29 417.74,-49.64 439.48,-84.22 451.12,-105.47"/>
<polygon fill="midnightblue" stroke="midnightblue" points="448.1,-107.26 455.87,-114.46 454.29,-103.99 448.1,-107.26"/>
</g>
</g>
</svg>
        <g id="navigator" transform="translate(0 0)" fill="#404254">
                <rect fill="#f2f5e9" fill-opacity="0.5" stroke="#606060" stroke-width=".5" x="0" y="0" width="60" height="60"/>
                <use id="zoomplus" xlink:href="#zoomPlus" x="17" y="9" onmousedown="handleZoom(evt,'in')"/>
                <use id="zoomminus" xlink:href="#zoomMin" x="42" y="9" onmousedown="handleZoom(evt,'out')"/>
                <use id="reset" xlink:href="#resetDef" x="30" y="36" onmousedown="handleReset()"/>
                <g id="arrowUp" xlink:href="#dirArrow" transform="translate(30 24)" onmousedown="handlePan(0,-1)">
                  <use xlink:href="#rim" fill="#404040">
                        <set attributeName="fill" to="#808080" begin="arrowUp.mouseover" end="arrowUp.mouseout"/>
                  </use>
                  <path fill="none" stroke="white" stroke-width="1.5" d="M0,-3.0v7 M-2.5,-0.5L0,-3.0L2.5,-0.5"/>
                </g>
                <g id="arrowRight" xlink:href="#dirArrow" transform="rotate(90) translate(36 -43)" onmousedown="handlePan(1,0)">
                  <use xlink:href="#rim" fill="#404040">
                        <set attributeName="fill" to="#808080" begin="arrowRight.mouseover" end="arrowRight.mouseout"/>
                  </use>
                  <path fill="none" stroke="white" stroke-width="1.5" d="M0,-3.0v7 M-2.5,-0.5L0,-3.0L2.5,-0.5"/>
                </g>
                <g id="arrowDown" xlink:href="#dirArrow" transform="rotate(180) translate(-30 -48)" onmousedown="handlePan(0,1)">
                  <use xlink:href="#rim" fill="#404040">
                        <set attributeName="fill" to="#808080" begin="arrowDown.mouseover" end="arrowDown.mouseout"/>
                  </use>
                  <path fill="none" stroke="white" stroke-width="1.5" d="M0,-3.0v7 M-2.5,-0.5L0,-3.0L2.5,-0.5"/>
                </g>
                <g id="arrowLeft" xlink:href="#dirArrow" transform="rotate(270) translate(-36 17)" onmousedown="handlePan(-1,0)">
                  <use xlink:href="#rim" fill="#404040">
                        <set attributeName="fill" to="#808080" begin="arrowLeft.mouseover" end="arrowLeft.mouseout"/>
                  </use>
                  <path fill="none" stroke="white" stroke-width="1.5" d="M0,-3.0v7 M-2.5,-0.5L0,-3.0L2.5,-0.5"/>
                </g>
        </g>
        <svg viewBox="0 0 15 15" width="100%" height="30px" preserveAspectRatio="xMaxYMin meet">
         <g id="arrow_out" transform="scale(0.3 0.3)">
          <a xlink:href="menu__put_8h_a588aec662fefad0f2ddbf36c3828de25_cgraph_org.svg" target="_base">
           <rect id="button" ry="5" rx="5" y="6" x="6" height="38" width="38"
                fill="#f2f5e9" fill-opacity="0.5" stroke="#606060" stroke-width="1.0"/>
           <path id="arrow"
             d="M 11.500037,31.436501 C 11.940474,20.09759 22.043105,11.32322 32.158766,21.979434 L 37.068811,17.246167 C 37.068811,17.246167 37.088388,32 37.088388,32 L 22.160133,31.978069 C 22.160133,31.978069 26.997745,27.140456 26.997745,27.140456 C 18.528582,18.264221 13.291696,25.230495 11.500037,31.436501 z"
             style="fill:#404040;"/>
          </a>
         </g>
        </svg>
</svg>
