<?xml version="1.0" encoding="UTF-8" standalone="no"?>
<!DOCTYPE svg PUBLIC "-//W3C//DTD SVG 1.1//EN"
 "http://www.w3.org/Graphics/SVG/1.1/DTD/svg11.dtd">
<!-- Generated by graphviz version 2.43.0 (0)
 -->
<!-- Title: ft_put_light Pages: 1 -->
<svg width="426pt" height="192pt"
 viewBox="0.00 0.00 426.00 192.00" xmlns="http://www.w3.org/2000/svg" xmlns:xlink="http://www.w3.org/1999/xlink">
<g id="graph0" class="graph" transform="scale(1 1) rotate(0) translate(4 188)">
<title>ft_put_light</title>
<!-- Node1 -->
<g id="node1" class="node">
<title>Node1</title>
<g id="a_node1"><a xlink:title="Puts light info on the screen.">
<polygon fill="#bfbfbf" stroke="black" points="0,-88.5 0,-107.5 71,-107.5 71,-88.5 0,-88.5"/>
<text text-anchor="middle" x="35.5" y="-95.5" font-family="Helvetica,sans-Serif" font-size="10.00">ft_put_light</text>
</a>
</g>
</g>
<!-- Node2 -->
<g id="node2" class="node">
<title>Node2</title>
<g id="a_node2"><a xlink:href="menu__put_8h.html#a250c5483eff2fa1f225b6a16dab45481" target="_top" xlink:title="Puts a 3D point on the screen.">
<polygon fill="none" stroke="black" points="114,-164.5 114,-183.5 206,-183.5 206,-164.5 114,-164.5"/>
<text text-anchor="middle" x="160" y="-171.5" font-family="Helvetica,sans-Serif" font-size="10.00">ft_put_3d_point</text>
</a>
</g>
</g>
<!-- Node1&#45;&gt;Node2 -->
<g id="edge1" class="edge">
<title>Node1&#45;&gt;Node2</title>
<path fill="none" stroke="midnightblue" d="M46.23,-107.65C59.16,-120.02 83.17,-141.51 107,-155 110.62,-157.05 114.51,-158.95 118.46,-160.69"/>
<polygon fill="midnightblue" stroke="midnightblue" points="117.15,-163.94 127.73,-164.47 119.79,-157.46 117.15,-163.94"/>
</g>
<!-- Node4 -->
<g id="node4" class="node">
<title>Node4</title>
<g id="a_node4"><a xlink:href="menu__put_8h.html#a05f3a769bd3fbea5c4d66ce5055701c7" target="_top" xlink:title="Puts a colour on the screen.">
<polygon fill="none" stroke="black" points="120,-126.5 120,-145.5 200,-145.5 200,-126.5 120,-126.5"/>
<text text-anchor="middle" x="160" y="-133.5" font-family="Helvetica,sans-Serif" font-size="10.00">ft_put_colour</text>
</a>
</g>
</g>
<!-- Node1&#45;&gt;Node4 -->
<g id="edge3" class="edge">
<title>Node1&#45;&gt;Node4</title>
<path fill="none" stroke="midnightblue" d="M67.41,-107.59C82.79,-112.36 101.58,-118.19 118.13,-123.32"/>
<polygon fill="midnightblue" stroke="midnightblue" points="117.51,-126.79 128.1,-126.41 119.58,-120.11 117.51,-126.79"/>
</g>
<!-- Node5 -->
<g id="node5" class="node">
<title>Node5</title>
<g id="a_node5"><a xlink:href="menu__put_8h.html#a3d812757fc50aadab47e468736eafb73" target="_top" xlink:title="Puts the ID of a hittable or a light on the screen.">
<polygon fill="none" stroke="black" points="130.5,-0.5 130.5,-19.5 189.5,-19.5 189.5,-0.5 130.5,-0.5"/>
<text text-anchor="middle" x="160" y="-7.5" font-family="Helvetica,sans-Serif" font-size="10.00">ft_put_id</text>
</a>
</g>
</g>
<!-- Node1&#45;&gt;Node5 -->
<g id="edge5" class="edge">
<title>Node1&#45;&gt;Node5</title>
<path fill="none" stroke="midnightblue" d="M44.16,-88.2C56.12,-73.48 80.63,-45.62 107,-29 111.36,-26.25 116.18,-23.82 121.06,-21.7"/>
<polygon fill="midnightblue" stroke="midnightblue" points="122.44,-24.91 130.45,-17.98 119.87,-18.4 122.44,-24.91"/>
</g>
<!-- Node8 -->
<g id="node8" class="node">
<title>Node8</title>
<g id="a_node8"><a xlink:href="menu__put_8h.html#a46110b7c3be87e212dcfd9105fb4df03" target="_top" xlink:title="Puts a single float value on the screen.">
<polygon fill="none" stroke="black" points="107,-39 107,-69 213,-69 213,-39 107,-39"/>
<text text-anchor="start" x="115" y="-57" font-family="Helvetica,sans-Serif" font-size="10.00">ft_put_single_float</text>
<text text-anchor="middle" x="160" y="-46" font-family="Helvetica,sans-Serif" font-size="10.00">_value</text>
</a>
</g>
</g>
<!-- Node1&#45;&gt;Node8 -->
<g id="edge9" class="edge">
<title>Node1&#45;&gt;Node8</title>
<path fill="none" stroke="midnightblue" d="M63.08,-88.45C76.01,-83.81 92.01,-78.06 107.22,-72.6"/>
<polygon fill="midnightblue" stroke="midnightblue" points="108.83,-75.74 117.06,-69.07 106.46,-69.15 108.83,-75.74"/>
</g>
<!-- Node10 -->
<g id="node10" class="node">
<title>Node10</title>
<g id="a_node10"><a xlink:href="menu__put_8h.html#a8d53c0c28e59d4db8e6bb03ee433f724" target="_top" xlink:title="Puts the type of a hittable or a light on the screen.">
<polygon fill="none" stroke="black" points="124.5,-88.5 124.5,-107.5 195.5,-107.5 195.5,-88.5 124.5,-88.5"/>
<text text-anchor="middle" x="160" y="-95.5" font-family="Helvetica,sans-Serif" font-size="10.00">ft_put_type</text>
</a>
</g>
</g>
<!-- Node1&#45;&gt;Node10 -->
<g id="edge13" class="edge">
<title>Node1&#45;&gt;Node10</title>
<path fill="none" stroke="midnightblue" d="M71.28,-98C84.6,-98 99.98,-98 114.12,-98"/>
<polygon fill="midnightblue" stroke="midnightblue" points="114.14,-101.5 124.14,-98 114.14,-94.5 114.14,-101.5"/>
</g>
<!-- Node3 -->
<g id="node3" class="node">
<title>Node3</title>
<g id="a_node3"><a xlink:href="menu__put_8h.html#a1a2da0ddd033aa4e2ad293ef4b8db2af" target="_top" xlink:title="Wrapper for mlx_string_put().">
<polygon fill="none" stroke="black" points="253.5,-88.5 253.5,-107.5 315.5,-107.5 315.5,-88.5 253.5,-88.5"/>
<text text-anchor="middle" x="284.5" y="-95.5" font-family="Helvetica,sans-Serif" font-size="10.00">ft_put_str</text>
</a>
</g>
</g>
<!-- Node2&#45;&gt;Node3 -->
<g id="edge2" class="edge">
<title>Node2&#45;&gt;Node3</title>
<path fill="none" stroke="midnightblue" d="M192.27,-164.47C199.29,-161.82 206.56,-158.65 213,-155 232.74,-143.83 252.59,-127.17 266.18,-114.75"/>
<polygon fill="midnightblue" stroke="midnightblue" points="268.86,-117.03 273.77,-107.65 264.08,-111.92 268.86,-117.03"/>
</g>
<!-- Node4&#45;&gt;Node3 -->
<g id="edge4" class="edge">
<title>Node4&#45;&gt;Node3</title>
<path fill="none" stroke="midnightblue" d="M191.91,-126.41C207.67,-121.52 227.02,-115.52 243.86,-110.3"/>
<polygon fill="midnightblue" stroke="midnightblue" points="244.93,-113.63 253.44,-107.32 242.86,-106.94 244.93,-113.63"/>
</g>
<!-- Node5&#45;&gt;Node3 -->
<g id="edge8" class="edge">
<title>Node5&#45;&gt;Node3</title>
<path fill="none" stroke="midnightblue" d="M189.5,-17.54C197.51,-20.4 205.94,-24.17 213,-29 233.01,-42.7 231.52,-53.19 249,-70 253.24,-74.08 258.01,-78.21 262.63,-82"/>
<polygon fill="midnightblue" stroke="midnightblue" points="260.61,-84.87 270.61,-88.38 264.98,-79.4 260.61,-84.87"/>
</g>
<!-- Node6 -->
<g id="node6" class="node">
<title>Node6</title>
<g id="a_node6"><a xlink:href="menu__put_8h.html#afdfa5611d84fa2c8cbb73cb66a339c98" target="_top" xlink:title="Converts integer to string and puts it on the screen.">
<polygon fill="none" stroke="black" points="253.5,-2.5 253.5,-21.5 315.5,-21.5 315.5,-2.5 253.5,-2.5"/>
<text text-anchor="middle" x="284.5" y="-9.5" font-family="Helvetica,sans-Serif" font-size="10.00">ft_put_int</text>
</a>
</g>
</g>
<!-- Node5&#45;&gt;Node6 -->
<g id="edge6" class="edge">
<title>Node5&#45;&gt;Node6</title>
<path fill="none" stroke="midnightblue" d="M189.72,-10.47C205.53,-10.73 225.42,-11.05 242.81,-11.34"/>
<polygon fill="midnightblue" stroke="midnightblue" points="243.19,-14.84 253.25,-11.51 243.31,-7.84 243.19,-14.84"/>
</g>
<!-- Node7 -->
<g id="node7" class="node">
<title>Node7</title>
<g id="a_node7"><a xlink:href="menu__put__str__num_8c.html#a1a2da0ddd033aa4e2ad293ef4b8db2af" target="_top" xlink:title="Wrapper for mlx_string_put().">
<polygon fill="none" stroke="black" points="356,-21.5 356,-40.5 418,-40.5 418,-21.5 356,-21.5"/>
<text text-anchor="middle" x="387" y="-28.5" font-family="Helvetica,sans-Serif" font-size="10.00">ft_put_str</text>
</a>
</g>
</g>
<!-- Node6&#45;&gt;Node7 -->
<g id="edge7" class="edge">
<title>Node6&#45;&gt;Node7</title>
<path fill="none" stroke="midnightblue" d="M315.65,-17.7C325.19,-19.5 335.89,-21.53 346.01,-23.44"/>
<polygon fill="midnightblue" stroke="midnightblue" points="345.39,-26.88 355.87,-25.3 346.69,-20.01 345.39,-26.88"/>
</g>
<!-- Node8&#45;&gt;Node3 -->
<g id="edge12" class="edge">
<title>Node8&#45;&gt;Node3</title>
<path fill="none" stroke="midnightblue" d="M202.81,-69.02C217.2,-74.19 233.19,-79.93 247.11,-84.93"/>
<polygon fill="midnightblue" stroke="midnightblue" points="246.24,-88.34 256.83,-88.42 248.61,-81.75 246.24,-88.34"/>
</g>
<!-- Node9 -->
<g id="node9" class="node">
<title>Node9</title>
<g id="a_node9"><a xlink:href="menu__put_8h.html#abba80f1bfc48c436f54f5a0740683a75" target="_top" xlink:title="Converts float to string and puts it on the screen.">
<polygon fill="none" stroke="black" points="249,-41.5 249,-60.5 320,-60.5 320,-41.5 249,-41.5"/>
<text text-anchor="middle" x="284.5" y="-48.5" font-family="Helvetica,sans-Serif" font-size="10.00">ft_put_float</text>
</a>
</g>
</g>
<!-- Node8&#45;&gt;Node9 -->
<g id="edge10" class="edge">
<title>Node8&#45;&gt;Node9</title>
<path fill="none" stroke="midnightblue" d="M213.31,-52.72C221.72,-52.51 230.36,-52.3 238.58,-52.1"/>
<polygon fill="midnightblue" stroke="midnightblue" points="238.81,-55.6 248.72,-51.85 238.64,-48.6 238.81,-55.6"/>
</g>
<!-- Node9&#45;&gt;Node7 -->
<g id="edge11" class="edge">
<title>Node9&#45;&gt;Node7</title>
<path fill="none" stroke="midnightblue" d="M320.09,-44.12C328.32,-42.48 337.18,-40.72 345.65,-39.03"/>
<polygon fill="midnightblue" stroke="midnightblue" points="346.59,-42.41 355.71,-37.03 345.22,-35.55 346.59,-42.41"/>
</g>
<!-- Node10&#45;&gt;Node3 -->
<g id="edge14" class="edge">
<title>Node10&#45;&gt;Node3</title>
<path fill="none" stroke="midnightblue" d="M195.78,-98C210.49,-98 227.73,-98 243.01,-98"/>
<polygon fill="midnightblue" stroke="midnightblue" points="243.22,-101.5 253.22,-98 243.22,-94.5 243.22,-101.5"/>
</g>
</g>
</svg>
