<?xml version="1.0" encoding="UTF-8" standalone="no"?>
<!DOCTYPE svg PUBLIC "-//W3C//DTD SVG 1.1//EN"
 "http://www.w3.org/Graphics/SVG/1.1/DTD/svg11.dtd">
<!-- Generated by graphviz version 2.43.0 (0)
 -->
<!-- Title: ft_put_ctrl_change_ent Pages: 1 -->
<svg width="690pt" height="142pt"
 viewBox="0.00 0.00 690.00 142.00" xmlns="http://www.w3.org/2000/svg" xmlns:xlink="http://www.w3.org/1999/xlink">
<g id="graph0" class="graph" transform="scale(1 1) rotate(0) translate(4 138)">
<title>ft_put_ctrl_change_ent</title>
<!-- Node1 -->
<g id="node1" class="node">
<title>Node1</title>
<g id="a_node1"><a xlink:title="Puts control scheme for changing active entity on the screen.">
<polygon fill="#bfbfbf" stroke="black" points="555,-57.5 555,-76.5 682,-76.5 682,-57.5 555,-57.5"/>
<text text-anchor="middle" x="618.5" y="-64.5" font-family="Helvetica,sans-Serif" font-size="10.00">ft_put_ctrl_change_ent</text>
</a>
</g>
</g>
<!-- Node2 -->
<g id="node2" class="node">
<title>Node2</title>
<g id="a_node2"><a xlink:href="menu__put_8h.html#a458660b29d84e5f35cb7d4e7fc1e0308" target="_top" xlink:title="Puts control scheme for cylinder on the screen.">
<polygon fill="none" stroke="black" points="432,-114.5 432,-133.5 514,-133.5 514,-114.5 432,-114.5"/>
<text text-anchor="middle" x="473" y="-121.5" font-family="Helvetica,sans-Serif" font-size="10.00">ft_put_ctrl_cy</text>
</a>
</g>
</g>
<!-- Node1&#45;&gt;Node2 -->
<g id="edge1" class="edge">
<title>Node1&#45;&gt;Node2</title>
<path fill="none" stroke="midnightblue" d="M583.91,-80.34C557.6,-90.8 521.61,-105.09 498.1,-114.43"/>
<polygon fill="midnightblue" stroke="midnightblue" points="585.48,-83.48 593.48,-76.54 582.9,-76.98 585.48,-83.48"/>
</g>
<!-- Node6 -->
<g id="node6" class="node">
<title>Node6</title>
<g id="a_node6"><a xlink:href="menu__put_8h.html#acb49d711643bd638023d9317cd528174" target="_top" xlink:title="Puts control scheme for light on the screen.">
<polygon fill="none" stroke="black" points="427,-0.5 427,-19.5 519,-19.5 519,-0.5 427,-0.5"/>
<text text-anchor="middle" x="473" y="-7.5" font-family="Helvetica,sans-Serif" font-size="10.00">ft_put_ctrl_light</text>
</a>
</g>
</g>
<!-- Node1&#45;&gt;Node6 -->
<g id="edge5" class="edge">
<title>Node1&#45;&gt;Node6</title>
<path fill="none" stroke="midnightblue" d="M583.91,-53.66C557.6,-43.2 521.61,-28.91 498.1,-19.57"/>
<polygon fill="midnightblue" stroke="midnightblue" points="582.9,-57.02 593.48,-57.46 585.48,-50.52 582.9,-57.02"/>
</g>
<!-- Node8 -->
<g id="node8" class="node">
<title>Node8</title>
<g id="a_node8"><a xlink:href="menu__put_8h.html#abd4665c14b3ab0c1c22d5b2b93b898b6" target="_top" xlink:title="Puts control scheme for plane on the screen.">
<polygon fill="none" stroke="black" points="433,-76.5 433,-95.5 513,-95.5 513,-76.5 433,-76.5"/>
<text text-anchor="middle" x="473" y="-83.5" font-family="Helvetica,sans-Serif" font-size="10.00">ft_put_ctrl_pl</text>
</a>
</g>
</g>
<!-- Node1&#45;&gt;Node8 -->
<g id="edge8" class="edge">
<title>Node1&#45;&gt;Node8</title>
<path fill="none" stroke="midnightblue" d="M544.94,-76.61C533.99,-78.06 523.06,-79.5 513.18,-80.81"/>
<polygon fill="midnightblue" stroke="midnightblue" points="545.52,-80.06 554.98,-75.28 544.6,-73.12 545.52,-80.06"/>
</g>
<!-- Node9 -->
<g id="node9" class="node">
<title>Node9</title>
<g id="a_node9"><a xlink:href="menu__put_8h.html#a068dec8435039453ac1f404de98bd31c" target="_top" xlink:title="Puts control scheme for sphere on the screen.">
<polygon fill="none" stroke="black" points="432,-38.5 432,-57.5 514,-57.5 514,-38.5 432,-38.5"/>
<text text-anchor="middle" x="473" y="-45.5" font-family="Helvetica,sans-Serif" font-size="10.00">ft_put_ctrl_sp</text>
</a>
</g>
</g>
<!-- Node1&#45;&gt;Node9 -->
<g id="edge10" class="edge">
<title>Node1&#45;&gt;Node9</title>
<path fill="none" stroke="midnightblue" d="M544.83,-57.38C534.22,-55.97 523.64,-54.57 514.01,-53.3"/>
<polygon fill="midnightblue" stroke="midnightblue" points="544.6,-60.88 554.98,-58.72 545.52,-53.94 544.6,-60.88"/>
</g>
<!-- Node3 -->
<g id="node3" class="node">
<title>Node3</title>
<g id="a_node3"><a xlink:href="menu__put_8h.html#a4297546f5daae0553e8fb746134a720d" target="_top" xlink:title="Puts control scheme for hittable on the screen.">
<polygon fill="none" stroke="black" points="283,-73.5 283,-92.5 391,-92.5 391,-73.5 283,-73.5"/>
<text text-anchor="middle" x="337" y="-80.5" font-family="Helvetica,sans-Serif" font-size="10.00">ft_put_ctrl_hittable</text>
</a>
</g>
</g>
<!-- Node2&#45;&gt;Node3 -->
<g id="edge2" class="edge">
<title>Node2&#45;&gt;Node3</title>
<path fill="none" stroke="midnightblue" d="M431.2,-111.52C411.34,-105.44 387.82,-98.24 369.37,-92.6"/>
<polygon fill="midnightblue" stroke="midnightblue" points="430.33,-114.91 440.92,-114.49 432.38,-108.22 430.33,-114.91"/>
</g>
<!-- Node4 -->
<g id="node4" class="node">
<title>Node4</title>
<g id="a_node4"><a xlink:href="menu__put_8h.html#a18613445d2379eca738e6cf789dfecf5" target="_top" xlink:title="Puts a scene page on the screen.">
<polygon fill="none" stroke="black" points="140,-71.5 140,-90.5 247,-90.5 247,-71.5 140,-71.5"/>
<text text-anchor="middle" x="193.5" y="-78.5" font-family="Helvetica,sans-Serif" font-size="10.00">ft_put_page_scene</text>
</a>
</g>
</g>
<!-- Node3&#45;&gt;Node4 -->
<g id="edge3" class="edge">
<title>Node3&#45;&gt;Node4</title>
<path fill="none" stroke="midnightblue" d="M272.71,-82.11C264.26,-81.99 255.67,-81.86 247.42,-81.75"/>
<polygon fill="midnightblue" stroke="midnightblue" points="272.86,-85.61 282.91,-82.25 272.96,-78.61 272.86,-85.61"/>
</g>
<!-- Node5 -->
<g id="node5" class="node">
<title>Node5</title>
<g id="a_node5"><a xlink:href="menu__put_8h.html#aaa97bcdc39838b3da803447ea82e444c" target="_top" xlink:title="Puts the main page of menu on the screen.">
<polygon fill="none" stroke="black" points="0,-47.5 0,-66.5 104,-66.5 104,-47.5 0,-47.5"/>
<text text-anchor="middle" x="52" y="-54.5" font-family="Helvetica,sans-Serif" font-size="10.00">ft_put_main_page</text>
</a>
</g>
</g>
<!-- Node4&#45;&gt;Node5 -->
<g id="edge4" class="edge">
<title>Node4&#45;&gt;Node5</title>
<path fill="none" stroke="midnightblue" d="M129.87,-70.22C121.36,-68.76 112.71,-67.27 104.43,-65.85"/>
<polygon fill="midnightblue" stroke="midnightblue" points="129.31,-73.68 139.76,-71.93 130.5,-66.78 129.31,-73.68"/>
</g>
<!-- Node7 -->
<g id="node7" class="node">
<title>Node7</title>
<g id="a_node7"><a xlink:href="menu__put_8h.html#a11eed0e0d38826c89da2d71031a08593" target="_top" xlink:title="Puts a light page on the screen.">
<polygon fill="none" stroke="black" points="143,-28.5 143,-47.5 244,-47.5 244,-28.5 143,-28.5"/>
<text text-anchor="middle" x="193.5" y="-35.5" font-family="Helvetica,sans-Serif" font-size="10.00">ft_put_page_light</text>
</a>
</g>
</g>
<!-- Node6&#45;&gt;Node7 -->
<g id="edge6" class="edge">
<title>Node6&#45;&gt;Node7</title>
<path fill="none" stroke="midnightblue" d="M416.75,-15.57C366.47,-20.65 292.9,-28.07 244.37,-32.97"/>
<polygon fill="midnightblue" stroke="midnightblue" points="417.2,-19.05 426.8,-14.56 416.5,-12.08 417.2,-19.05"/>
</g>
<!-- Node7&#45;&gt;Node5 -->
<g id="edge7" class="edge">
<title>Node7&#45;&gt;Node5</title>
<path fill="none" stroke="midnightblue" d="M132.77,-46.13C123.29,-47.43 113.56,-48.75 104.3,-50.01"/>
<polygon fill="midnightblue" stroke="midnightblue" points="133.49,-49.57 142.92,-44.75 132.54,-42.63 133.49,-49.57"/>
</g>
<!-- Node8&#45;&gt;Node3 -->
<g id="edge9" class="edge">
<title>Node8&#45;&gt;Node3</title>
<path fill="none" stroke="midnightblue" d="M422.87,-84.9C412.62,-84.67 401.76,-84.43 391.36,-84.19"/>
<polygon fill="midnightblue" stroke="midnightblue" points="422.81,-88.4 432.88,-85.12 422.96,-81.4 422.81,-88.4"/>
</g>
<!-- Node9&#45;&gt;Node3 -->
<g id="edge11" class="edge">
<title>Node9&#45;&gt;Node3</title>
<path fill="none" stroke="midnightblue" d="M425.31,-60.19C408.69,-64.54 390.22,-69.36 374.57,-73.45"/>
<polygon fill="midnightblue" stroke="midnightblue" points="426.59,-63.48 435.38,-57.56 424.82,-56.7 426.59,-63.48"/>
</g>
</g>
</svg>
