<?xml version="1.0" encoding="UTF-8" standalone="no"?>
<!DOCTYPE svg PUBLIC "-//W3C//DTD SVG 1.1//EN"
 "http://www.w3.org/Graphics/SVG/1.1/DTD/svg11.dtd">
<!-- Generated by graphviz version 2.43.0 (0)
 -->
<!-- Title: ft_put_ctrl_hittable Pages: 1 -->
<svg width="475pt" height="315pt"
 viewBox="0.00 0.00 475.00 315.15" xmlns="http://www.w3.org/2000/svg" xmlns:xlink="http://www.w3.org/1999/xlink">
<g id="graph0" class="graph" transform="scale(1 1) rotate(0) translate(4 311.15)">
<title>ft_put_ctrl_hittable</title>
<!-- Node1 -->
<g id="node1" class="node">
<title>Node1</title>
<g id="a_node1"><a xlink:title="Puts control scheme for hittable on the screen.">
<polygon fill="#bfbfbf" stroke="black" points="0,-135.65 0,-154.65 108,-154.65 108,-135.65 0,-135.65"/>
<text text-anchor="middle" x="54" y="-142.65" font-family="Helvetica,sans-Serif" font-size="10.00">ft_put_ctrl_hittable</text>
</a>
</g>
</g>
<!-- Node2 -->
<g id="node2" class="node">
<title>Node2</title>
<g id="a_node2"><a xlink:href="menu__put__hittable__ctrl_8c.html#a458660b29d84e5f35cb7d4e7fc1e0308" target="_top" xlink:title="Puts control scheme for cylinder on the screen.">
<polygon fill="none" stroke="black" points="144,-97.65 144,-116.65 226,-116.65 226,-97.65 144,-97.65"/>
<text text-anchor="middle" x="185" y="-104.65" font-family="Helvetica,sans-Serif" font-size="10.00">ft_put_ctrl_cy</text>
</a>
</g>
</g>
<!-- Node1&#45;&gt;Node2 -->
<g id="edge1" class="edge">
<title>Node1&#45;&gt;Node2</title>
<path fill="none" stroke="midnightblue" d="M87.55,-135.56C103.9,-130.75 123.91,-124.85 141.46,-119.68"/>
<polygon fill="midnightblue" stroke="midnightblue" points="142.85,-122.92 151.46,-116.74 140.88,-116.21 142.85,-122.92"/>
</g>
<!-- Node7 -->
<g id="node7" class="node">
<title>Node7</title>
<g id="a_node7"><a xlink:href="menu__put__hittable__ctrl_8c.html#abd4665c14b3ab0c1c22d5b2b93b898b6" target="_top" xlink:title="Puts control scheme for plane on the screen.">
<polygon fill="none" stroke="black" points="145,-40.65 145,-59.65 225,-59.65 225,-40.65 145,-40.65"/>
<text text-anchor="middle" x="185" y="-47.65" font-family="Helvetica,sans-Serif" font-size="10.00">ft_put_ctrl_pl</text>
</a>
</g>
</g>
<!-- Node1&#45;&gt;Node7 -->
<g id="edge9" class="edge">
<title>Node1&#45;&gt;Node7</title>
<path fill="none" stroke="midnightblue" d="M68.32,-135.34C90.64,-118.9 135.8,-85.65 162.61,-65.9"/>
<polygon fill="midnightblue" stroke="midnightblue" points="164.97,-68.51 170.95,-59.77 160.82,-62.88 164.97,-68.51"/>
</g>
<!-- Node8 -->
<g id="node8" class="node">
<title>Node8</title>
<g id="a_node8"><a xlink:href="menu__put__hittable__ctrl_8c.html#a068dec8435039453ac1f404de98bd31c" target="_top" xlink:title="Puts control scheme for sphere on the screen.">
<polygon fill="none" stroke="black" points="144,-135.65 144,-154.65 226,-154.65 226,-135.65 144,-135.65"/>
<text text-anchor="middle" x="185" y="-142.65" font-family="Helvetica,sans-Serif" font-size="10.00">ft_put_ctrl_sp</text>
</a>
</g>
</g>
<!-- Node1&#45;&gt;Node8 -->
<g id="edge13" class="edge">
<title>Node1&#45;&gt;Node8</title>
<path fill="none" stroke="midnightblue" d="M108.21,-145.15C116.7,-145.15 125.46,-145.15 133.87,-145.15"/>
<polygon fill="midnightblue" stroke="midnightblue" points="133.92,-148.65 143.92,-145.15 133.92,-141.65 133.92,-148.65"/>
</g>
<!-- Node9 -->
<g id="node9" class="node">
<title>Node9</title>
<g id="a_node9"><a xlink:href="menu__put_8h.html#a3d812757fc50aadab47e468736eafb73" target="_top" xlink:title="Puts the ID of a hittable or a light on the screen.">
<polygon fill="none" stroke="black" points="155.5,-249.65 155.5,-268.65 214.5,-268.65 214.5,-249.65 155.5,-249.65"/>
<text text-anchor="middle" x="185" y="-256.65" font-family="Helvetica,sans-Serif" font-size="10.00">ft_put_id</text>
</a>
</g>
</g>
<!-- Node1&#45;&gt;Node9 -->
<g id="edge17" class="edge">
<title>Node1&#45;&gt;Node9</title>
<path fill="none" stroke="midnightblue" d="M66,-154.87C88.09,-174.39 138.05,-218.54 165.34,-242.66"/>
<polygon fill="midnightblue" stroke="midnightblue" points="163.22,-245.46 173.03,-249.46 167.85,-240.21 163.22,-245.46"/>
</g>
<!-- Node12 -->
<g id="node12" class="node">
<title>Node12</title>
<g id="a_node12"><a xlink:href="menu__put_8h.html#a8d53c0c28e59d4db8e6bb03ee433f724" target="_top" xlink:title="Puts the type of a hittable or a light on the screen.">
<polygon fill="none" stroke="black" points="280,-211.65 280,-230.65 351,-230.65 351,-211.65 280,-211.65"/>
<text text-anchor="middle" x="315.5" y="-218.65" font-family="Helvetica,sans-Serif" font-size="10.00">ft_put_type</text>
</a>
</g>
</g>
<!-- Node1&#45;&gt;Node12 -->
<g id="edge21" class="edge">
<title>Node1&#45;&gt;Node12</title>
<path fill="none" stroke="midnightblue" d="M87.6,-154.7C134.31,-168.38 220.32,-193.57 271.97,-208.7"/>
<polygon fill="midnightblue" stroke="midnightblue" points="271.25,-212.13 281.83,-211.58 273.21,-205.41 271.25,-212.13"/>
</g>
<!-- Node3 -->
<g id="node3" class="node">
<title>Node3</title>
<g id="a_node3"><a xlink:href="menu__put_8h.html#a0dd38606280deb85fca8f3d4db628552" target="_top" xlink:title="Puts control scheme for incrementing and decrementing a value on the screen.">
<polygon fill="none" stroke="black" points="262,-135.65 262,-154.65 369,-154.65 369,-135.65 262,-135.65"/>
<text text-anchor="middle" x="315.5" y="-142.65" font-family="Helvetica,sans-Serif" font-size="10.00">ft_put_ctrl_inc_dec</text>
</a>
</g>
</g>
<!-- Node2&#45;&gt;Node3 -->
<g id="edge2" class="edge">
<title>Node2&#45;&gt;Node3</title>
<path fill="none" stroke="midnightblue" d="M218.43,-116.74C234.71,-121.56 254.64,-127.45 272.12,-132.62"/>
<polygon fill="midnightblue" stroke="midnightblue" points="271.5,-136.09 282.08,-135.57 273.49,-129.37 271.5,-136.09"/>
</g>
<!-- Node4 -->
<g id="node4" class="node">
<title>Node4</title>
<g id="a_node4"><a xlink:href="menu__put_8h.html#a1a2da0ddd033aa4e2ad293ef4b8db2af" target="_top" xlink:title="Wrapper for mlx_string_put().">
<polygon fill="none" stroke="black" points="405,-116.65 405,-135.65 467,-135.65 467,-116.65 405,-116.65"/>
<text text-anchor="middle" x="436" y="-123.65" font-family="Helvetica,sans-Serif" font-size="10.00">ft_put_str</text>
</a>
</g>
</g>
<!-- Node2&#45;&gt;Node4 -->
<g id="edge8" class="edge">
<title>Node2&#45;&gt;Node4</title>
<path fill="none" stroke="midnightblue" d="M226.01,-110.2C272.4,-113.74 348.43,-119.55 394.88,-123.09"/>
<polygon fill="midnightblue" stroke="midnightblue" points="394.64,-126.58 404.88,-123.85 395.18,-119.6 394.64,-126.58"/>
</g>
<!-- Node5 -->
<g id="node5" class="node">
<title>Node5</title>
<g id="a_node5"><a xlink:href="menu__put_8h.html#a6387702d64aea5e1908a16e2baf024c0" target="_top" xlink:title="Puts control scheme for movement on the screen.">
<polygon fill="none" stroke="black" points="266.5,-59.65 266.5,-78.65 364.5,-78.65 364.5,-59.65 266.5,-59.65"/>
<text text-anchor="middle" x="315.5" y="-66.65" font-family="Helvetica,sans-Serif" font-size="10.00">ft_put_ctrl_move</text>
</a>
</g>
</g>
<!-- Node2&#45;&gt;Node5 -->
<g id="edge4" class="edge">
<title>Node2&#45;&gt;Node5</title>
<path fill="none" stroke="midnightblue" d="M218.43,-97.56C234.71,-92.75 254.64,-86.85 272.12,-81.68"/>
<polygon fill="midnightblue" stroke="midnightblue" points="273.49,-84.93 282.08,-78.74 271.5,-78.22 273.49,-84.93"/>
</g>
<!-- Node6 -->
<g id="node6" class="node">
<title>Node6</title>
<g id="a_node6"><a xlink:href="menu__put_8h.html#aa437add454e160d93213f33176c86b9f" target="_top" xlink:title="Puts control scheme for rotation on the screen.">
<polygon fill="none" stroke="black" points="273.5,-21.65 273.5,-40.65 357.5,-40.65 357.5,-21.65 273.5,-21.65"/>
<text text-anchor="middle" x="315.5" y="-28.65" font-family="Helvetica,sans-Serif" font-size="10.00">ft_put_ctrl_rot</text>
</a>
</g>
</g>
<!-- Node2&#45;&gt;Node6 -->
<g id="edge6" class="edge">
<title>Node2&#45;&gt;Node6</title>
<path fill="none" stroke="midnightblue" d="M196.63,-97.55C210.72,-85.22 236.75,-63.79 262,-50.15 265.74,-48.13 269.74,-46.24 273.8,-44.5"/>
<polygon fill="midnightblue" stroke="midnightblue" points="275.3,-47.68 283.3,-40.72 272.71,-41.17 275.3,-47.68"/>
</g>
<!-- Node3&#45;&gt;Node4 -->
<g id="edge3" class="edge">
<title>Node3&#45;&gt;Node4</title>
<path fill="none" stroke="midnightblue" d="M369.17,-136.71C377.77,-135.33 386.56,-133.92 394.81,-132.6"/>
<polygon fill="midnightblue" stroke="midnightblue" points="395.58,-136.02 404.9,-130.98 394.47,-129.11 395.58,-136.02"/>
</g>
<!-- Node5&#45;&gt;Node4 -->
<g id="edge5" class="edge">
<title>Node5&#45;&gt;Node4</title>
<path fill="none" stroke="midnightblue" d="M337.78,-78.68C347.36,-83.02 358.78,-88.26 369,-93.15 381.55,-99.16 395.33,-106 407.04,-111.9"/>
<polygon fill="midnightblue" stroke="midnightblue" points="405.81,-115.2 416.31,-116.59 408.96,-108.95 405.81,-115.2"/>
</g>
<!-- Node6&#45;&gt;Node4 -->
<g id="edge7" class="edge">
<title>Node6&#45;&gt;Node4</title>
<path fill="none" stroke="midnightblue" d="M350.79,-40.7C357.13,-43.24 363.49,-46.37 369,-50.15 391.73,-65.75 411.52,-90.99 423.35,-108.06"/>
<polygon fill="midnightblue" stroke="midnightblue" points="420.59,-110.24 429.07,-116.59 426.41,-106.34 420.59,-110.24"/>
</g>
<!-- Node7&#45;&gt;Node4 -->
<g id="edge12" class="edge">
<title>Node7&#45;&gt;Node4</title>
<path fill="none" stroke="midnightblue" d="M200.86,-40.54C233.51,-20.75 313.06,20.1 369,-12.15 404.35,-32.53 422.48,-79.88 430.23,-106.7"/>
<polygon fill="midnightblue" stroke="midnightblue" points="426.88,-107.75 432.86,-116.5 433.65,-105.93 426.88,-107.75"/>
</g>
<!-- Node7&#45;&gt;Node5 -->
<g id="edge10" class="edge">
<title>Node7&#45;&gt;Node5</title>
<path fill="none" stroke="midnightblue" d="M225.25,-55.96C235.1,-57.41 245.87,-59 256.42,-60.56"/>
<polygon fill="midnightblue" stroke="midnightblue" points="256.02,-64.04 266.42,-62.04 257.04,-57.12 256.02,-64.04"/>
</g>
<!-- Node7&#45;&gt;Node6 -->
<g id="edge11" class="edge">
<title>Node7&#45;&gt;Node6</title>
<path fill="none" stroke="midnightblue" d="M225.25,-44.35C237.25,-42.57 250.62,-40.6 263.29,-38.72"/>
<polygon fill="midnightblue" stroke="midnightblue" points="263.88,-42.17 273.26,-37.25 262.86,-35.25 263.88,-42.17"/>
</g>
<!-- Node8&#45;&gt;Node3 -->
<g id="edge14" class="edge">
<title>Node8&#45;&gt;Node3</title>
<path fill="none" stroke="midnightblue" d="M226.31,-145.15C234.35,-145.15 242.97,-145.15 251.57,-145.15"/>
<polygon fill="midnightblue" stroke="midnightblue" points="251.6,-148.65 261.6,-145.15 251.6,-141.65 251.6,-148.65"/>
</g>
<!-- Node8&#45;&gt;Node4 -->
<g id="edge16" class="edge">
<title>Node8&#45;&gt;Node4</title>
<path fill="none" stroke="midnightblue" d="M215.68,-154.71C252.31,-165.04 316.23,-178.26 369,-164.15 385.45,-159.76 402.04,-150.17 414.48,-141.73"/>
<polygon fill="midnightblue" stroke="midnightblue" points="416.61,-144.51 422.74,-135.87 412.56,-138.8 416.61,-144.51"/>
</g>
<!-- Node8&#45;&gt;Node5 -->
<g id="edge15" class="edge">
<title>Node8&#45;&gt;Node5</title>
<path fill="none" stroke="midnightblue" d="M207.43,-135.59C213.51,-132.72 220.09,-129.44 226,-126.15 249.25,-113.21 274.69,-96.55 292.3,-84.59"/>
<polygon fill="midnightblue" stroke="midnightblue" points="294.47,-87.34 300.74,-78.8 290.51,-81.57 294.47,-87.34"/>
</g>
<!-- Node9&#45;&gt;Node4 -->
<g id="edge20" class="edge">
<title>Node9&#45;&gt;Node4</title>
<path fill="none" stroke="midnightblue" d="M214.62,-263.7C253.01,-268.23 321.81,-270.71 369,-240.15 403.08,-218.08 421.63,-171.79 429.8,-145.49"/>
<polygon fill="midnightblue" stroke="midnightblue" points="433.17,-146.46 432.6,-135.88 426.45,-144.5 433.17,-146.46"/>
</g>
<!-- Node10 -->
<g id="node10" class="node">
<title>Node10</title>
<g id="a_node10"><a xlink:href="menu__put_8h.html#afdfa5611d84fa2c8cbb73cb66a339c98" target="_top" xlink:title="Converts integer to string and puts it on the screen.">
<polygon fill="none" stroke="black" points="284.5,-287.65 284.5,-306.65 346.5,-306.65 346.5,-287.65 284.5,-287.65"/>
<text text-anchor="middle" x="315.5" y="-294.65" font-family="Helvetica,sans-Serif" font-size="10.00">ft_put_int</text>
</a>
</g>
</g>
<!-- Node9&#45;&gt;Node10 -->
<g id="edge18" class="edge">
<title>Node9&#45;&gt;Node10</title>
<path fill="none" stroke="midnightblue" d="M214.52,-267.59C232.15,-272.8 255.04,-279.57 274.47,-285.31"/>
<polygon fill="midnightblue" stroke="midnightblue" points="273.69,-288.73 284.27,-288.21 275.67,-282.02 273.69,-288.73"/>
</g>
<!-- Node11 -->
<g id="node11" class="node">
<title>Node11</title>
<g id="a_node11"><a xlink:href="menu__put__str__num_8c.html#a1a2da0ddd033aa4e2ad293ef4b8db2af" target="_top" xlink:title="Wrapper for mlx_string_put().">
<polygon fill="none" stroke="black" points="405,-287.65 405,-306.65 467,-306.65 467,-287.65 405,-287.65"/>
<text text-anchor="middle" x="436" y="-294.65" font-family="Helvetica,sans-Serif" font-size="10.00">ft_put_str</text>
</a>
</g>
</g>
<!-- Node10&#45;&gt;Node11 -->
<g id="edge19" class="edge">
<title>Node10&#45;&gt;Node11</title>
<path fill="none" stroke="midnightblue" d="M346.71,-297.15C361.33,-297.15 379.1,-297.15 394.84,-297.15"/>
<polygon fill="midnightblue" stroke="midnightblue" points="394.85,-300.65 404.85,-297.15 394.85,-293.65 394.85,-300.65"/>
</g>
<!-- Node12&#45;&gt;Node4 -->
<g id="edge22" class="edge">
<title>Node12&#45;&gt;Node4</title>
<path fill="none" stroke="midnightblue" d="M342.71,-211.58C351.48,-207.77 361.04,-202.9 369,-197.15 389.76,-182.16 409.15,-159.91 421.48,-144.33"/>
<polygon fill="midnightblue" stroke="midnightblue" points="424.54,-146.08 427.87,-136.03 418.99,-141.81 424.54,-146.08"/>
</g>
</g>
</svg>
