<?xml version="1.0" encoding="UTF-8" standalone="no"?>
<!DOCTYPE svg PUBLIC "-//W3C//DTD SVG 1.1//EN"
 "http://www.w3.org/Graphics/SVG/1.1/DTD/svg11.dtd">
<!-- Generated by graphviz version 2.43.0 (0)
 -->
<!-- Title: ft_put_ambient Pages: 1 -->
<svg width="445pt" height="154pt"
 viewBox="0.00 0.00 445.00 153.50" xmlns="http://www.w3.org/2000/svg" xmlns:xlink="http://www.w3.org/1999/xlink">
<g id="graph0" class="graph" transform="scale(1 1) rotate(0) translate(4 149.5)">
<title>ft_put_ambient</title>
<!-- Node1 -->
<g id="node1" class="node">
<title>Node1</title>
<g id="a_node1"><a xlink:title="Puts ambient info on the screen.">
<polygon fill="#bfbfbf" stroke="black" points="0,-57.5 0,-76.5 90,-76.5 90,-57.5 0,-57.5"/>
<text text-anchor="middle" x="45" y="-64.5" font-family="Helvetica,sans-Serif" font-size="10.00">ft_put_ambient</text>
</a>
</g>
</g>
<!-- Node2 -->
<g id="node2" class="node">
<title>Node2</title>
<g id="a_node2"><a xlink:href="menu__put_8h.html#a05f3a769bd3fbea5c4d66ce5055701c7" target="_top" xlink:title="Puts a colour on the screen.">
<polygon fill="none" stroke="black" points="139,-38.5 139,-57.5 219,-57.5 219,-38.5 139,-38.5"/>
<text text-anchor="middle" x="179" y="-45.5" font-family="Helvetica,sans-Serif" font-size="10.00">ft_put_colour</text>
</a>
</g>
</g>
<!-- Node1&#45;&gt;Node2 -->
<g id="edge1" class="edge">
<title>Node1&#45;&gt;Node2</title>
<path fill="none" stroke="midnightblue" d="M90.32,-60.62C102.73,-58.83 116.29,-56.88 128.96,-55.06"/>
<polygon fill="midnightblue" stroke="midnightblue" points="129.49,-58.52 138.89,-53.63 128.49,-51.59 129.49,-58.52"/>
</g>
<!-- Node6 -->
<g id="node6" class="node">
<title>Node6</title>
<g id="a_node6"><a xlink:href="menu__put_8h.html#a9435ae23ec438c58bcd794dcb400a8ae" target="_top" xlink:title="Puts the ID of a hittable or a light on the screen.">
<polygon fill="none" stroke="black" points="149.5,-0.5 149.5,-19.5 208.5,-19.5 208.5,-0.5 149.5,-0.5"/>
<text text-anchor="middle" x="179" y="-7.5" font-family="Helvetica,sans-Serif" font-size="10.00">ft_put_id</text>
</a>
</g>
</g>
<!-- Node1&#45;&gt;Node6 -->
<g id="edge5" class="edge">
<title>Node1&#45;&gt;Node6</title>
<path fill="none" stroke="midnightblue" d="M64.85,-57.44C80.92,-49.43 104.73,-37.92 126,-29 130.75,-27.01 135.8,-25.02 140.8,-23.11"/>
<polygon fill="midnightblue" stroke="midnightblue" points="142.14,-26.35 150.29,-19.58 139.69,-19.79 142.14,-26.35"/>
</g>
<!-- Node7 -->
<g id="node7" class="node">
<title>Node7</title>
<g id="a_node7"><a xlink:href="menu__put_8h.html#a46110b7c3be87e212dcfd9105fb4df03" target="_top" xlink:title="Puts a single float value on the screen.">
<polygon fill="none" stroke="black" points="126,-115 126,-145 232,-145 232,-115 126,-115"/>
<text text-anchor="start" x="134" y="-133" font-family="Helvetica,sans-Serif" font-size="10.00">ft_put_single_float</text>
<text text-anchor="middle" x="179" y="-122" font-family="Helvetica,sans-Serif" font-size="10.00">_value</text>
</a>
</g>
</g>
<!-- Node1&#45;&gt;Node7 -->
<g id="edge8" class="edge">
<title>Node1&#45;&gt;Node7</title>
<path fill="none" stroke="midnightblue" d="M66.05,-76.57C84.89,-85.56 113.66,-99.29 137.32,-110.58"/>
<polygon fill="midnightblue" stroke="midnightblue" points="135.9,-113.79 146.44,-114.93 138.92,-107.47 135.9,-113.79"/>
</g>
<!-- Node9 -->
<g id="node9" class="node">
<title>Node9</title>
<g id="a_node9"><a xlink:href="menu__put_8h.html#a8d53c0c28e59d4db8e6bb03ee433f724" target="_top" xlink:title="Puts the type of a hittable or a light on the screen.">
<polygon fill="none" stroke="black" points="143.5,-76.5 143.5,-95.5 214.5,-95.5 214.5,-76.5 143.5,-76.5"/>
<text text-anchor="middle" x="179" y="-83.5" font-family="Helvetica,sans-Serif" font-size="10.00">ft_put_type</text>
</a>
</g>
</g>
<!-- Node1&#45;&gt;Node9 -->
<g id="edge12" class="edge">
<title>Node1&#45;&gt;Node9</title>
<path fill="none" stroke="midnightblue" d="M90.32,-73.38C104.05,-75.36 119.18,-77.53 132.96,-79.52"/>
<polygon fill="midnightblue" stroke="midnightblue" points="132.79,-83.03 143.18,-80.99 133.78,-76.1 132.79,-83.03"/>
</g>
<!-- Node3 -->
<g id="node3" class="node">
<title>Node3</title>
<g id="a_node3"><a xlink:href="menu__put_8h.html#afdfa5611d84fa2c8cbb73cb66a339c98" target="_top" xlink:title="Converts integer to string and puts it on the screen.">
<polygon fill="none" stroke="black" points="272.5,-38.5 272.5,-57.5 334.5,-57.5 334.5,-38.5 272.5,-38.5"/>
<text text-anchor="middle" x="303.5" y="-45.5" font-family="Helvetica,sans-Serif" font-size="10.00">ft_put_int</text>
</a>
</g>
</g>
<!-- Node2&#45;&gt;Node3 -->
<g id="edge2" class="edge">
<title>Node2&#45;&gt;Node3</title>
<path fill="none" stroke="midnightblue" d="M219.1,-48C232.82,-48 248.26,-48 262.1,-48"/>
<polygon fill="midnightblue" stroke="midnightblue" points="262.3,-51.5 272.3,-48 262.3,-44.5 262.3,-51.5"/>
</g>
<!-- Node5 -->
<g id="node5" class="node">
<title>Node5</title>
<g id="a_node5"><a xlink:href="menu__put_8h.html#a1a2da0ddd033aa4e2ad293ef4b8db2af" target="_top" xlink:title="Wrapper for mlx_string_put().">
<polygon fill="none" stroke="black" points="272.5,-76.5 272.5,-95.5 334.5,-95.5 334.5,-76.5 272.5,-76.5"/>
<text text-anchor="middle" x="303.5" y="-83.5" font-family="Helvetica,sans-Serif" font-size="10.00">ft_put_str</text>
</a>
</g>
</g>
<!-- Node2&#45;&gt;Node5 -->
<g id="edge4" class="edge">
<title>Node2&#45;&gt;Node5</title>
<path fill="none" stroke="midnightblue" d="M210.91,-57.59C226.67,-62.48 246.02,-68.48 262.86,-73.7"/>
<polygon fill="midnightblue" stroke="midnightblue" points="261.86,-77.06 272.44,-76.68 263.93,-70.37 261.86,-77.06"/>
</g>
<!-- Node4 -->
<g id="node4" class="node">
<title>Node4</title>
<g id="a_node4"><a xlink:href="menu__put__str__num_8c.html#a1a2da0ddd033aa4e2ad293ef4b8db2af" target="_top" xlink:title="Wrapper for mlx_string_put().">
<polygon fill="none" stroke="black" points="375,-76.5 375,-95.5 437,-95.5 437,-76.5 375,-76.5"/>
<text text-anchor="middle" x="406" y="-83.5" font-family="Helvetica,sans-Serif" font-size="10.00">ft_put_str</text>
</a>
</g>
</g>
<!-- Node3&#45;&gt;Node4 -->
<g id="edge3" class="edge">
<title>Node3&#45;&gt;Node4</title>
<path fill="none" stroke="midnightblue" d="M329.86,-57.59C342,-62.18 356.73,-67.75 369.93,-72.74"/>
<polygon fill="midnightblue" stroke="midnightblue" points="369.06,-76.15 379.65,-76.41 371.53,-69.6 369.06,-76.15"/>
</g>
<!-- Node6&#45;&gt;Node3 -->
<g id="edge6" class="edge">
<title>Node6&#45;&gt;Node3</title>
<path fill="none" stroke="midnightblue" d="M208.72,-18.91C224.68,-23.86 244.79,-30.1 262.3,-35.53"/>
<polygon fill="midnightblue" stroke="midnightblue" points="261.66,-39 272.25,-38.62 263.74,-32.31 261.66,-39"/>
</g>
<!-- Node6&#45;&gt;Node5 -->
<g id="edge7" class="edge">
<title>Node6&#45;&gt;Node5</title>
<path fill="none" stroke="midnightblue" d="M208.66,-17.81C216.58,-20.66 224.93,-24.36 232,-29 251.44,-41.78 249.59,-52.77 268,-67 269.8,-68.39 271.72,-69.74 273.69,-71.04"/>
<polygon fill="midnightblue" stroke="midnightblue" points="272.13,-74.19 282.5,-76.35 275.74,-68.19 272.13,-74.19"/>
</g>
<!-- Node7&#45;&gt;Node5 -->
<g id="edge11" class="edge">
<title>Node7&#45;&gt;Node5</title>
<path fill="none" stroke="midnightblue" d="M221.81,-114.98C236.2,-109.81 252.19,-104.07 266.11,-99.07"/>
<polygon fill="midnightblue" stroke="midnightblue" points="267.61,-102.25 275.83,-95.58 265.24,-95.66 267.61,-102.25"/>
</g>
<!-- Node8 -->
<g id="node8" class="node">
<title>Node8</title>
<g id="a_node8"><a xlink:href="menu__put_8h.html#abba80f1bfc48c436f54f5a0740683a75" target="_top" xlink:title="Converts float to string and puts it on the screen.">
<polygon fill="none" stroke="black" points="268,-117.5 268,-136.5 339,-136.5 339,-117.5 268,-117.5"/>
<text text-anchor="middle" x="303.5" y="-124.5" font-family="Helvetica,sans-Serif" font-size="10.00">ft_put_float</text>
</a>
</g>
</g>
<!-- Node7&#45;&gt;Node8 -->
<g id="edge9" class="edge">
<title>Node7&#45;&gt;Node8</title>
<path fill="none" stroke="midnightblue" d="M232.31,-128.72C240.72,-128.51 249.36,-128.3 257.58,-128.1"/>
<polygon fill="midnightblue" stroke="midnightblue" points="257.81,-131.6 267.72,-127.85 257.64,-124.6 257.81,-131.6"/>
</g>
<!-- Node8&#45;&gt;Node4 -->
<g id="edge10" class="edge">
<title>Node8&#45;&gt;Node4</title>
<path fill="none" stroke="midnightblue" d="M327.81,-117.49C340.91,-112.15 357.47,-105.39 371.89,-99.51"/>
<polygon fill="midnightblue" stroke="midnightblue" points="373.53,-102.62 381.47,-95.6 370.89,-96.14 373.53,-102.62"/>
</g>
<!-- Node9&#45;&gt;Node5 -->
<g id="edge13" class="edge">
<title>Node9&#45;&gt;Node5</title>
<path fill="none" stroke="midnightblue" d="M214.78,-86C229.49,-86 246.73,-86 262.01,-86"/>
<polygon fill="midnightblue" stroke="midnightblue" points="262.22,-89.5 272.22,-86 262.22,-82.5 262.22,-89.5"/>
</g>
</g>
</svg>
