<?xml version="1.0" encoding="UTF-8" standalone="no"?>
<!DOCTYPE svg PUBLIC "-//W3C//DTD SVG 1.1//EN"
 "http://www.w3.org/Graphics/SVG/1.1/DTD/svg11.dtd">
<!-- Generated by graphviz version 2.43.0 (0)
 -->
<!-- Title: ft_put_single_float_value Pages: 1 -->
<!--zoomable 180 -->
<svg id="main" version="1.1" xmlns="http://www.w3.org/2000/svg" xmlns:xlink="http://www.w3.org/1999/xlink" xml:space="preserve" onload="init(evt)">
<style type="text/css"><![CDATA[
.edge:hover path { stroke: red; }
.edge:hover polygon { stroke: red; fill: red; }
]]></style>
<script type="text/javascript"><![CDATA[
var edges = document.getElementsByTagName('g');
if (edges && edges.length) {
  for (var i=0;i<edges.length;i++) {
    if (edges[i].id.substr(0,4)=='edge') {
      edges[i].setAttribute('class','edge');
    }
  }
}
]]></script>
        <defs>
                <circle id="rim" cx="0" cy="0" r="7"/>
                <circle id="rim2" cx="0" cy="0" r="3.5"/>
                <g id="zoomPlus">
                        <use xlink:href="#rim" fill="#404040">
                                <set attributeName="fill" to="#808080" begin="zoomplus.mouseover" end="zoomplus.mouseout"/>
                        </use>
                        <path d="M-4,0h8M0,-4v8" fill="none" stroke="white" stroke-width="1.5" pointer-events="none"/>
                </g>
                <g id="zoomMin">
                        <use xlink:href="#rim" fill="#404040">
                                <set attributeName="fill" to="#808080" begin="zoomminus.mouseover" end="zoomminus.mouseout"/>
                        </use>
                        <path d="M-4,0h8" fill="none" stroke="white" stroke-width="1.5" pointer-events="none"/>
                </g>
                <g id="dirArrow">
                        <path fill="none" stroke="white" stroke-width="1.5" d="M0,-3.0v7 M-2.5,-0.5L0,-3.0L2.5,-0.5"/>
                </g>
               <g id="resetDef">
                       <use xlink:href="#rim2" fill="#404040">
                               <set attributeName="fill" to="#808080" begin="reset.mouseover" end="reset.mouseout"/>
                       </use>
               </g>
        </defs>

<script type="text/javascript">
var viewWidth = 660;
var viewHeight = 180;
var sectionId = 'dynsection-6';
</script>
<script xlink:href="svgpan.js"/>
<svg id="graph" class="graph">
<g id="viewport">
<title>ft_put_single_float_value</title>
<!-- Node1 -->
<g id="node1" class="node">
<title>Node1</title>
<g id="a_node1"><a xlink:title="Puts a single float value on the screen.">
<polygon fill="#bfbfbf" stroke="black" points="546,-71 546,-101 652,-101 652,-71 546,-71"/>
<text text-anchor="start" x="554" y="-89" font-family="Helvetica,sans-Serif" font-size="10.00">ft_put_single_float</text>
<text text-anchor="middle" x="599" y="-78" font-family="Helvetica,sans-Serif" font-size="10.00">_value</text>
</a>
</g>
</g>
<!-- Node2 -->
<g id="node2" class="node">
<title>Node2</title>
<g id="a_node2"><a xlink:href="menu__put_8h.html#a9151e6af892c25ae1839ba30b7bd8c91" target="_top" xlink:title="Puts ambient info on the screen.">
<polygon fill="none" stroke="black" points="420,-152.5 420,-171.5 510,-171.5 510,-152.5 420,-152.5"/>
<text text-anchor="middle" x="465" y="-159.5" font-family="Helvetica,sans-Serif" font-size="10.00">ft_put_ambient</text>
</a>
</g>
</g>
<!-- Node1&#45;&gt;Node2 -->
<g id="edge1" class="edge">
<title>Node1&#45;&gt;Node2</title>
<path fill="none" stroke="midnightblue" d="M568.63,-106.79C551.87,-118.2 530.23,-132.18 510,-143 503.69,-146.38 496.65,-149.63 490.09,-152.46"/>
<polygon fill="midnightblue" stroke="midnightblue" points="570.66,-109.64 576.91,-101.09 566.69,-103.87 570.66,-109.64"/>
</g>
<!-- Node3 -->
<g id="node3" class="node">
<title>Node3</title>
<g id="a_node3"><a xlink:href="menu__put_8h.html#a86f02d860bd5b9a3795b20ba72f8e359" target="_top" xlink:title="Puts camera info on the screen.">
<polygon fill="none" stroke="black" points="429.5,-114.5 429.5,-133.5 500.5,-133.5 500.5,-114.5 429.5,-114.5"/>
<text text-anchor="middle" x="465" y="-121.5" font-family="Helvetica,sans-Serif" font-size="10.00">ft_put_cam</text>
</a>
</g>
</g>
<!-- Node1&#45;&gt;Node3 -->
<g id="edge2" class="edge">
<title>Node1&#45;&gt;Node3</title>
<path fill="none" stroke="midnightblue" d="M536.15,-103.8C523.4,-107.47 510.45,-111.2 499.2,-114.44"/>
<polygon fill="midnightblue" stroke="midnightblue" points="537.19,-107.15 545.83,-101.02 535.25,-100.42 537.19,-107.15"/>
</g>
<!-- Node6 -->
<g id="node6" class="node">
<title>Node6</title>
<g id="a_node6"><a xlink:href="menu__put_8h.html#a8fb9ef8bf3aa98d9125937611f738a9b" target="_top" xlink:title="Puts cylinder info on the screen.">
<polygon fill="none" stroke="black" points="434.5,-76.5 434.5,-95.5 495.5,-95.5 495.5,-76.5 434.5,-76.5"/>
<text text-anchor="middle" x="465" y="-83.5" font-family="Helvetica,sans-Serif" font-size="10.00">ft_put_cy</text>
</a>
</g>
</g>
<!-- Node1&#45;&gt;Node6 -->
<g id="edge5" class="edge">
<title>Node1&#45;&gt;Node6</title>
<path fill="none" stroke="midnightblue" d="M535.75,-86C521.81,-86 507.65,-86 495.76,-86"/>
<polygon fill="midnightblue" stroke="midnightblue" points="535.83,-89.5 545.83,-86 535.83,-82.5 535.83,-89.5"/>
</g>
<!-- Node9 -->
<g id="node9" class="node">
<title>Node9</title>
<g id="a_node9"><a xlink:href="menu__put_8h.html#ab1aa03b80f8d7af17d305cb8b61c2b6b" target="_top" xlink:title="Puts light info on the screen.">
<polygon fill="none" stroke="black" points="429.5,-0.5 429.5,-19.5 500.5,-19.5 500.5,-0.5 429.5,-0.5"/>
<text text-anchor="middle" x="465" y="-7.5" font-family="Helvetica,sans-Serif" font-size="10.00">ft_put_light</text>
</a>
</g>
</g>
<!-- Node1&#45;&gt;Node9 -->
<g id="edge9" class="edge">
<title>Node1&#45;&gt;Node9</title>
<path fill="none" stroke="midnightblue" d="M568.63,-65.21C551.87,-53.8 530.23,-39.82 510,-29 503.69,-25.62 496.65,-22.37 490.09,-19.54"/>
<polygon fill="midnightblue" stroke="midnightblue" points="566.69,-68.13 576.91,-70.91 570.66,-62.36 566.69,-68.13"/>
</g>
<!-- Node11 -->
<g id="node11" class="node">
<title>Node11</title>
<g id="a_node11"><a xlink:href="menu__put_8h.html#a94cfa4cebace291a60ab7a8bd9bd852c" target="_top" xlink:title="Puts sphere info on the screen.">
<polygon fill="none" stroke="black" points="434.5,-38.5 434.5,-57.5 495.5,-57.5 495.5,-38.5 434.5,-38.5"/>
<text text-anchor="middle" x="465" y="-45.5" font-family="Helvetica,sans-Serif" font-size="10.00">ft_put_sp</text>
</a>
</g>
</g>
<!-- Node1&#45;&gt;Node11 -->
<g id="edge12" class="edge">
<title>Node1&#45;&gt;Node11</title>
<path fill="none" stroke="midnightblue" d="M536.16,-68.2C522.09,-64.15 507.76,-60.02 495.76,-56.57"/>
<polygon fill="midnightblue" stroke="midnightblue" points="535.25,-71.58 545.83,-70.98 537.19,-64.85 535.25,-71.58"/>
</g>
<!-- Node4 -->
<g id="node4" class="node">
<title>Node4</title>
<g id="a_node4"><a xlink:href="menu__put_8h.html#a6466842cb9367072865c07608f1e4c7d" target="_top" xlink:title="Puts a camera page on the screen.">
<polygon fill="none" stroke="black" points="143.5,-104.5 143.5,-123.5 243.5,-123.5 243.5,-104.5 143.5,-104.5"/>
<text text-anchor="middle" x="193.5" y="-111.5" font-family="Helvetica,sans-Serif" font-size="10.00">ft_put_page_cam</text>
</a>
</g>
</g>
<!-- Node3&#45;&gt;Node4 -->
<g id="edge3" class="edge">
<title>Node3&#45;&gt;Node4</title>
<path fill="none" stroke="midnightblue" d="M419.14,-122.34C370.68,-120.54 293.72,-117.68 243.66,-115.82"/>
<polygon fill="midnightblue" stroke="midnightblue" points="419.2,-125.84 429.32,-122.71 419.46,-118.84 419.2,-125.84"/>
</g>
<!-- Node5 -->
<g id="node5" class="node">
<title>Node5</title>
<g id="a_node5"><a xlink:href="menu__put_8h.html#aaa97bcdc39838b3da803447ea82e444c" target="_top" xlink:title="Puts the main page of menu on the screen.">
<polygon fill="none" stroke="black" points="0,-57.5 0,-76.5 104,-76.5 104,-57.5 0,-57.5"/>
<text text-anchor="middle" x="52" y="-64.5" font-family="Helvetica,sans-Serif" font-size="10.00">ft_put_main_page</text>
</a>
</g>
</g>
<!-- Node4&#45;&gt;Node5 -->
<g id="edge4" class="edge">
<title>Node4&#45;&gt;Node5</title>
<path fill="none" stroke="midnightblue" d="M154.5,-101.2C131.53,-93.46 102.72,-83.75 81.67,-76.66"/>
<polygon fill="midnightblue" stroke="midnightblue" points="153.68,-104.61 164.27,-104.49 155.91,-97.98 153.68,-104.61"/>
</g>
<!-- Node7 -->
<g id="node7" class="node">
<title>Node7</title>
<g id="a_node7"><a xlink:href="menu__put_8h.html#a893f0e65e417aaf6be0152e2f74782d1" target="_top" xlink:title="Puts hittable info on the screen.">
<polygon fill="none" stroke="black" points="290,-57.5 290,-76.5 377,-76.5 377,-57.5 290,-57.5"/>
<text text-anchor="middle" x="333.5" y="-64.5" font-family="Helvetica,sans-Serif" font-size="10.00">ft_put_hittable</text>
</a>
</g>
</g>
<!-- Node6&#45;&gt;Node7 -->
<g id="edge6" class="edge">
<title>Node6&#45;&gt;Node7</title>
<path fill="none" stroke="midnightblue" d="M424.37,-80.18C409.48,-78 392.49,-75.51 377.33,-73.28"/>
<polygon fill="midnightblue" stroke="midnightblue" points="423.89,-83.65 434.29,-81.64 424.9,-76.73 423.89,-83.65"/>
</g>
<!-- Node8 -->
<g id="node8" class="node">
<title>Node8</title>
<g id="a_node8"><a xlink:href="menu__put_8h.html#a18613445d2379eca738e6cf789dfecf5" target="_top" xlink:title="Puts a scene page on the screen.">
<polygon fill="none" stroke="black" points="140,-57.5 140,-76.5 247,-76.5 247,-57.5 140,-57.5"/>
<text text-anchor="middle" x="193.5" y="-64.5" font-family="Helvetica,sans-Serif" font-size="10.00">ft_put_page_scene</text>
</a>
</g>
</g>
<!-- Node7&#45;&gt;Node8 -->
<g id="edge7" class="edge">
<title>Node7&#45;&gt;Node8</title>
<path fill="none" stroke="midnightblue" d="M279.94,-67C269.27,-67 258.04,-67 247.36,-67"/>
<polygon fill="midnightblue" stroke="midnightblue" points="279.97,-70.5 289.97,-67 279.97,-63.5 279.97,-70.5"/>
</g>
<!-- Node8&#45;&gt;Node5 -->
<g id="edge8" class="edge">
<title>Node8&#45;&gt;Node5</title>
<path fill="none" stroke="midnightblue" d="M129.59,-67C121.17,-67 112.62,-67 104.43,-67"/>
<polygon fill="midnightblue" stroke="midnightblue" points="129.76,-70.5 139.76,-67 129.76,-63.5 129.76,-70.5"/>
</g>
<!-- Node10 -->
<g id="node10" class="node">
<title>Node10</title>
<g id="a_node10"><a xlink:href="menu__put_8h.html#a11eed0e0d38826c89da2d71031a08593" target="_top" xlink:title="Puts a light page on the screen.">
<polygon fill="none" stroke="black" points="283,-10.5 283,-29.5 384,-29.5 384,-10.5 283,-10.5"/>
<text text-anchor="middle" x="333.5" y="-17.5" font-family="Helvetica,sans-Serif" font-size="10.00">ft_put_page_light</text>
</a>
</g>
</g>
<!-- Node9&#45;&gt;Node10 -->
<g id="edge10" class="edge">
<title>Node9&#45;&gt;Node10</title>
<path fill="none" stroke="midnightblue" d="M419.26,-13.45C408.02,-14.32 395.88,-15.26 384.39,-16.15"/>
<polygon fill="midnightblue" stroke="midnightblue" points="419.6,-16.94 429.3,-12.68 419.06,-9.96 419.6,-16.94"/>
</g>
<!-- Node10&#45;&gt;Node5 -->
<g id="edge11" class="edge">
<title>Node10&#45;&gt;Node5</title>
<path fill="none" stroke="midnightblue" d="M272.49,-27.62C234.42,-32.73 184.19,-39.97 140,-48 124.94,-50.74 108.52,-54.2 94.04,-57.41"/>
<polygon fill="midnightblue" stroke="midnightblue" points="273.44,-31.02 282.89,-26.24 272.51,-24.09 273.44,-31.02"/>
</g>
<!-- Node11&#45;&gt;Node7 -->
<g id="edge13" class="edge">
<title>Node11&#45;&gt;Node7</title>
<path fill="none" stroke="midnightblue" d="M424.37,-53.82C409.48,-56 392.49,-58.49 377.33,-60.72"/>
<polygon fill="midnightblue" stroke="midnightblue" points="424.9,-57.27 434.29,-52.36 423.89,-50.35 424.9,-57.27"/>
</g>
</g>
</svg>
        <g id="navigator" transform="translate(0 0)" fill="#404254">
                <rect fill="#f2f5e9" fill-opacity="0.5" stroke="#606060" stroke-width=".5" x="0" y="0" width="60" height="60"/>
                <use id="zoomplus" xlink:href="#zoomPlus" x="17" y="9" onmousedown="handleZoom(evt,'in')"/>
                <use id="zoomminus" xlink:href="#zoomMin" x="42" y="9" onmousedown="handleZoom(evt,'out')"/>
                <use id="reset" xlink:href="#resetDef" x="30" y="36" onmousedown="handleReset()"/>
                <g id="arrowUp" xlink:href="#dirArrow" transform="translate(30 24)" onmousedown="handlePan(0,-1)">
                  <use xlink:href="#rim" fill="#404040">
                        <set attributeName="fill" to="#808080" begin="arrowUp.mouseover" end="arrowUp.mouseout"/>
                  </use>
                  <path fill="none" stroke="white" stroke-width="1.5" d="M0,-3.0v7 M-2.5,-0.5L0,-3.0L2.5,-0.5"/>
                </g>
                <g id="arrowRight" xlink:href="#dirArrow" transform="rotate(90) translate(36 -43)" onmousedown="handlePan(1,0)">
                  <use xlink:href="#rim" fill="#404040">
                        <set attributeName="fill" to="#808080" begin="arrowRight.mouseover" end="arrowRight.mouseout"/>
                  </use>
                  <path fill="none" stroke="white" stroke-width="1.5" d="M0,-3.0v7 M-2.5,-0.5L0,-3.0L2.5,-0.5"/>
                </g>
                <g id="arrowDown" xlink:href="#dirArrow" transform="rotate(180) translate(-30 -48)" onmousedown="handlePan(0,1)">
                  <use xlink:href="#rim" fill="#404040">
                        <set attributeName="fill" to="#808080" begin="arrowDown.mouseover" end="arrowDown.mouseout"/>
                  </use>
                  <path fill="none" stroke="white" stroke-width="1.5" d="M0,-3.0v7 M-2.5,-0.5L0,-3.0L2.5,-0.5"/>
                </g>
                <g id="arrowLeft" xlink:href="#dirArrow" transform="rotate(270) translate(-36 17)" onmousedown="handlePan(-1,0)">
                  <use xlink:href="#rim" fill="#404040">
                        <set attributeName="fill" to="#808080" begin="arrowLeft.mouseover" end="arrowLeft.mouseout"/>
                  </use>
                  <path fill="none" stroke="white" stroke-width="1.5" d="M0,-3.0v7 M-2.5,-0.5L0,-3.0L2.5,-0.5"/>
                </g>
        </g>
        <svg viewBox="0 0 15 15" width="100%" height="30px" preserveAspectRatio="xMaxYMin meet">
         <g id="arrow_out" transform="scale(0.3 0.3)">
          <a xlink:href="menu__put__utils_8c_a46110b7c3be87e212dcfd9105fb4df03_icgraph_org.svg" target="_base">
           <rect id="button" ry="5" rx="5" y="6" x="6" height="38" width="38"
                fill="#f2f5e9" fill-opacity="0.5" stroke="#606060" stroke-width="1.0"/>
           <path id="arrow"
             d="M 11.500037,31.436501 C 11.940474,20.09759 22.043105,11.32322 32.158766,21.979434 L 37.068811,17.246167 C 37.068811,17.246167 37.088388,32 37.088388,32 L 22.160133,31.978069 C 22.160133,31.978069 26.997745,27.140456 26.997745,27.140456 C 18.528582,18.264221 13.291696,25.230495 11.500037,31.436501 z"
             style="fill:#404040;"/>
          </a>
         </g>
        </svg>
</svg>
