<?xml version="1.0" encoding="UTF-8" standalone="no"?>
<!DOCTYPE svg PUBLIC "-//W3C//DTD SVG 1.1//EN"
 "http://www.w3.org/Graphics/SVG/1.1/DTD/svg11.dtd">
<!-- Generated by graphviz version 2.43.0 (0)
 -->
<!-- Title: ft_put_type Pages: 1 -->
<svg width="865pt" height="180pt"
 viewBox="0.00 0.00 865.00 180.00" xmlns="http://www.w3.org/2000/svg" xmlns:xlink="http://www.w3.org/1999/xlink">
<g id="graph0" class="graph" transform="scale(1 1) rotate(0) translate(4 176)">
<title>ft_put_type</title>
<!-- Node1 -->
<g id="node1" class="node">
<title>Node1</title>
<g id="a_node1"><a xlink:title="Puts the type of a hittable or a light on the screen.">
<polygon fill="#bfbfbf" stroke="black" points="786,-76.5 786,-95.5 857,-95.5 857,-76.5 786,-76.5"/>
<text text-anchor="middle" x="821.5" y="-83.5" font-family="Helvetica,sans-Serif" font-size="10.00">ft_put_type</text>
</a>
</g>
</g>
<!-- Node2 -->
<g id="node2" class="node">
<title>Node2</title>
<g id="a_node2"><a xlink:href="menu__put_8h.html#a77a2ed2d37b91adb0fe09dd2db3e8618" target="_top" xlink:title="Puts ambient info on the screen.">
<polygon fill="none" stroke="black" points="651,-152.5 651,-171.5 741,-171.5 741,-152.5 651,-152.5"/>
<text text-anchor="middle" x="696" y="-159.5" font-family="Helvetica,sans-Serif" font-size="10.00">ft_put_ambient</text>
</a>
</g>
</g>
<!-- Node1&#45;&gt;Node2 -->
<g id="edge1" class="edge">
<title>Node1&#45;&gt;Node2</title>
<path fill="none" stroke="midnightblue" d="M803.2,-102.78C789.62,-115.23 769.77,-131.89 750,-143 743.52,-146.64 736.22,-149.79 729.16,-152.43"/>
<polygon fill="midnightblue" stroke="midnightblue" points="805.88,-105.06 810.78,-95.67 801.09,-99.96 805.88,-105.06"/>
</g>
<!-- Node8 -->
<g id="node8" class="node">
<title>Node8</title>
<g id="a_node8"><a xlink:href="menu__put_8h.html#ade4cb77b913a25a4d5ace2ffa4abaa4a" target="_top" xlink:title="Puts control scheme for hittable on the screen.">
<polygon fill="none" stroke="black" points="642,-38.5 642,-57.5 750,-57.5 750,-38.5 642,-38.5"/>
<text text-anchor="middle" x="696" y="-45.5" font-family="Helvetica,sans-Serif" font-size="10.00">ft_put_ctrl_hittable</text>
</a>
</g>
</g>
<!-- Node1&#45;&gt;Node8 -->
<g id="edge7" class="edge">
<title>Node1&#45;&gt;Node8</title>
<path fill="none" stroke="midnightblue" d="M779.76,-73.46C762.96,-68.3 743.8,-62.4 728.15,-57.59"/>
<polygon fill="midnightblue" stroke="midnightblue" points="778.75,-76.82 789.34,-76.41 780.81,-70.12 778.75,-76.82"/>
</g>
<!-- Node10 -->
<g id="node10" class="node">
<title>Node10</title>
<g id="a_node10"><a xlink:href="menu__put_8h.html#acb49d711643bd638023d9317cd528174" target="_top" xlink:title="Puts control scheme for light on the screen.">
<polygon fill="none" stroke="black" points="650,-114.5 650,-133.5 742,-133.5 742,-114.5 650,-114.5"/>
<text text-anchor="middle" x="696" y="-121.5" font-family="Helvetica,sans-Serif" font-size="10.00">ft_put_ctrl_light</text>
</a>
</g>
</g>
<!-- Node1&#45;&gt;Node10 -->
<g id="edge10" class="edge">
<title>Node1&#45;&gt;Node10</title>
<path fill="none" stroke="midnightblue" d="M779.76,-98.54C762.96,-103.7 743.8,-109.6 728.15,-114.41"/>
<polygon fill="midnightblue" stroke="midnightblue" points="780.81,-101.88 789.34,-95.59 778.75,-95.18 780.81,-101.88"/>
</g>
<!-- Node12 -->
<g id="node12" class="node">
<title>Node12</title>
<g id="a_node12"><a xlink:href="menu__put_8h.html#ae3322e0fef7cdf8e68982fbd93f687e2" target="_top" xlink:title="Puts hittable info on the screen.">
<polygon fill="none" stroke="black" points="652.5,-0.5 652.5,-19.5 739.5,-19.5 739.5,-0.5 652.5,-0.5"/>
<text text-anchor="middle" x="696" y="-7.5" font-family="Helvetica,sans-Serif" font-size="10.00">ft_put_hittable</text>
</a>
</g>
</g>
<!-- Node1&#45;&gt;Node12 -->
<g id="edge14" class="edge">
<title>Node1&#45;&gt;Node12</title>
<path fill="none" stroke="midnightblue" d="M803.2,-69.22C789.62,-56.77 769.77,-40.11 750,-29 743.52,-25.36 736.22,-22.21 729.16,-19.57"/>
<polygon fill="midnightblue" stroke="midnightblue" points="801.09,-72.04 810.78,-76.33 805.88,-66.94 801.09,-72.04"/>
</g>
<!-- Node13 -->
<g id="node13" class="node">
<title>Node13</title>
<g id="a_node13"><a xlink:href="menu__put_8h.html#aeacc1ffd9a704a9c1dc92fafc65597d1" target="_top" xlink:title="Puts light info on the screen.">
<polygon fill="none" stroke="black" points="660.5,-76.5 660.5,-95.5 731.5,-95.5 731.5,-76.5 660.5,-76.5"/>
<text text-anchor="middle" x="696" y="-83.5" font-family="Helvetica,sans-Serif" font-size="10.00">ft_put_light</text>
</a>
</g>
</g>
<!-- Node1&#45;&gt;Node13 -->
<g id="edge16" class="edge">
<title>Node1&#45;&gt;Node13</title>
<path fill="none" stroke="midnightblue" d="M775.57,-86C761.18,-86 745.46,-86 731.9,-86"/>
<polygon fill="midnightblue" stroke="midnightblue" points="775.77,-89.5 785.77,-86 775.77,-82.5 775.77,-89.5"/>
</g>
<!-- Node3 -->
<g id="node3" class="node">
<title>Node3</title>
<g id="a_node3"><a xlink:href="menu__put_8h.html#a588aec662fefad0f2ddbf36c3828de25" target="_top" xlink:title="Puts an ambient page on the screen.">
<polygon fill="none" stroke="black" points="487,-114.5 487,-133.5 606,-133.5 606,-114.5 487,-114.5"/>
<text text-anchor="middle" x="546.5" y="-121.5" font-family="Helvetica,sans-Serif" font-size="10.00">ft_put_page_ambient</text>
</a>
</g>
</g>
<!-- Node2&#45;&gt;Node3 -->
<g id="edge2" class="edge">
<title>Node2&#45;&gt;Node3</title>
<path fill="none" stroke="midnightblue" d="M647.99,-149.89C627.44,-144.6 603.7,-138.48 584.45,-133.52"/>
<polygon fill="midnightblue" stroke="midnightblue" points="647.22,-153.31 657.78,-152.41 648.97,-146.53 647.22,-153.31"/>
</g>
<!-- Node4 -->
<g id="node4" class="node">
<title>Node4</title>
<g id="a_node4"><a xlink:href="render_8h.html#a735dfeb13434c88e3b4a76990386763b" target="_top" xlink:title="Puts the current menu page on the screen.">
<polygon fill="none" stroke="black" points="349,-76.5 349,-95.5 451,-95.5 451,-76.5 349,-76.5"/>
<text text-anchor="middle" x="400" y="-83.5" font-family="Helvetica,sans-Serif" font-size="10.00">ft_menu_put_text</text>
</a>
</g>
</g>
<!-- Node3&#45;&gt;Node4 -->
<g id="edge3" class="edge">
<title>Node3&#45;&gt;Node4</title>
<path fill="none" stroke="midnightblue" d="M499.17,-111.82C479.11,-106.54 455.97,-100.46 437.2,-95.52"/>
<polygon fill="midnightblue" stroke="midnightblue" points="498.48,-115.25 509.04,-114.41 500.26,-108.48 498.48,-115.25"/>
</g>
<!-- Node5 -->
<g id="node5" class="node">
<title>Node5</title>
<g id="a_node5"><a xlink:href="render__loop__mlx_8c.html#af908c05cb19e716220bc98fcf9582573" target="_top" xlink:title=" ">
<polygon fill="none" stroke="black" points="227,-76.5 227,-95.5 313,-95.5 313,-76.5 227,-76.5"/>
<text text-anchor="middle" x="270" y="-83.5" font-family="Helvetica,sans-Serif" font-size="10.00">ft_draw_scene</text>
</a>
</g>
</g>
<!-- Node4&#45;&gt;Node5 -->
<g id="edge4" class="edge">
<title>Node4&#45;&gt;Node5</title>
<path fill="none" stroke="midnightblue" d="M338.73,-86C330.11,-86 321.39,-86 313.22,-86"/>
<polygon fill="midnightblue" stroke="midnightblue" points="338.78,-89.5 348.78,-86 338.78,-82.5 338.78,-89.5"/>
</g>
<!-- Node6 -->
<g id="node6" class="node">
<title>Node6</title>
<g id="a_node6"><a xlink:href="render_8h.html#ab7a01aa5d27d2fad2942a43a31ae0d52" target="_top" xlink:title="Starts the mlx loop.">
<polygon fill="none" stroke="black" points="77,-76.5 77,-95.5 191,-95.5 191,-76.5 77,-76.5"/>
<text text-anchor="middle" x="134" y="-83.5" font-family="Helvetica,sans-Serif" font-size="10.00">ft_render_start_loop</text>
</a>
</g>
</g>
<!-- Node5&#45;&gt;Node6 -->
<g id="edge5" class="edge">
<title>Node5&#45;&gt;Node6</title>
<path fill="none" stroke="midnightblue" d="M216.88,-86C208.44,-86 199.66,-86 191.13,-86"/>
<polygon fill="midnightblue" stroke="midnightblue" points="216.97,-89.5 226.97,-86 216.97,-82.5 216.97,-89.5"/>
</g>
<!-- Node7 -->
<g id="node7" class="node">
<title>Node7</title>
<g id="a_node7"><a xlink:href="main_8c.html#a3c04138a5bfe5d72780bb7e82a18e627" target="_top" xlink:title=" ">
<polygon fill="none" stroke="black" points="0,-76.5 0,-95.5 41,-95.5 41,-76.5 0,-76.5"/>
<text text-anchor="middle" x="20.5" y="-83.5" font-family="Helvetica,sans-Serif" font-size="10.00">main</text>
</a>
</g>
</g>
<!-- Node6&#45;&gt;Node7 -->
<g id="edge6" class="edge">
<title>Node6&#45;&gt;Node7</title>
<path fill="none" stroke="midnightblue" d="M66.7,-86C57.37,-86 48.45,-86 41.04,-86"/>
<polygon fill="midnightblue" stroke="midnightblue" points="66.92,-89.5 76.92,-86 66.92,-82.5 66.92,-89.5"/>
</g>
<!-- Node9 -->
<g id="node9" class="node">
<title>Node9</title>
<g id="a_node9"><a xlink:href="menu__put_8h.html#ab175cf6607817105e92bd541f28a11a6" target="_top" xlink:title="Puts a scene page on the screen.">
<polygon fill="none" stroke="black" points="493,-38.5 493,-57.5 600,-57.5 600,-38.5 493,-38.5"/>
<text text-anchor="middle" x="546.5" y="-45.5" font-family="Helvetica,sans-Serif" font-size="10.00">ft_put_page_scene</text>
</a>
</g>
</g>
<!-- Node8&#45;&gt;Node9 -->
<g id="edge8" class="edge">
<title>Node8&#45;&gt;Node9</title>
<path fill="none" stroke="midnightblue" d="M631.44,-48C621.01,-48 610.31,-48 600.18,-48"/>
<polygon fill="midnightblue" stroke="midnightblue" points="631.75,-51.5 641.75,-48 631.75,-44.5 631.75,-51.5"/>
</g>
<!-- Node9&#45;&gt;Node4 -->
<g id="edge9" class="edge">
<title>Node9&#45;&gt;Node4</title>
<path fill="none" stroke="midnightblue" d="M499.17,-60.18C479.11,-65.46 455.97,-71.54 437.2,-76.48"/>
<polygon fill="midnightblue" stroke="midnightblue" points="500.26,-63.52 509.04,-57.59 498.48,-56.75 500.26,-63.52"/>
</g>
<!-- Node10&#45;&gt;Node3 -->
<g id="edge11" class="edge">
<title>Node10&#45;&gt;Node3</title>
<path fill="none" stroke="midnightblue" d="M639.66,-124C628.72,-124 617.2,-124 606.16,-124"/>
<polygon fill="midnightblue" stroke="midnightblue" points="639.94,-127.5 649.94,-124 639.94,-120.5 639.94,-127.5"/>
</g>
<!-- Node11 -->
<g id="node11" class="node">
<title>Node11</title>
<g id="a_node11"><a xlink:href="menu__put_8h.html#a0358e73d3f7165a9dc25c5b8a029fefb" target="_top" xlink:title="Puts a light page on the screen.">
<polygon fill="none" stroke="black" points="496,-76.5 496,-95.5 597,-95.5 597,-76.5 496,-76.5"/>
<text text-anchor="middle" x="546.5" y="-83.5" font-family="Helvetica,sans-Serif" font-size="10.00">ft_put_page_light</text>
</a>
</g>
</g>
<!-- Node10&#45;&gt;Node11 -->
<g id="edge12" class="edge">
<title>Node10&#45;&gt;Node11</title>
<path fill="none" stroke="midnightblue" d="M647.99,-111.89C627.44,-106.6 603.7,-100.48 584.45,-95.52"/>
<polygon fill="midnightblue" stroke="midnightblue" points="647.22,-115.31 657.78,-114.41 648.97,-108.53 647.22,-115.31"/>
</g>
<!-- Node11&#45;&gt;Node4 -->
<g id="edge13" class="edge">
<title>Node11&#45;&gt;Node4</title>
<path fill="none" stroke="midnightblue" d="M485.48,-86C474.12,-86 462.34,-86 451.31,-86"/>
<polygon fill="midnightblue" stroke="midnightblue" points="485.77,-89.5 495.77,-86 485.77,-82.5 485.77,-89.5"/>
</g>
<!-- Node12&#45;&gt;Node9 -->
<g id="edge15" class="edge">
<title>Node12&#45;&gt;Node9</title>
<path fill="none" stroke="midnightblue" d="M647.99,-22.11C627.44,-27.4 603.7,-33.52 584.45,-38.48"/>
<polygon fill="midnightblue" stroke="midnightblue" points="648.97,-25.47 657.78,-19.59 647.22,-18.69 648.97,-25.47"/>
</g>
<!-- Node13&#45;&gt;Node11 -->
<g id="edge17" class="edge">
<title>Node13&#45;&gt;Node11</title>
<path fill="none" stroke="midnightblue" d="M650.33,-86C633.57,-86 614.42,-86 597.23,-86"/>
<polygon fill="midnightblue" stroke="midnightblue" points="650.42,-89.5 660.42,-86 650.42,-82.5 650.42,-89.5"/>
</g>
</g>
</svg>
