<?xml version="1.0" encoding="UTF-8" standalone="no"?>
<!DOCTYPE svg PUBLIC "-//W3C//DTD SVG 1.1//EN"
 "http://www.w3.org/Graphics/SVG/1.1/DTD/svg11.dtd">
<!-- Generated by graphviz version 2.43.0 (0)
 -->
<!-- Title: ft_put_time Pages: 1 -->
<svg width="285pt" height="104pt"
 viewBox="0.00 0.00 285.00 104.00" xmlns="http://www.w3.org/2000/svg" xmlns:xlink="http://www.w3.org/1999/xlink">
<g id="graph0" class="graph" transform="scale(1 1) rotate(0) translate(4 100)">
<title>ft_put_time</title>
<!-- Node1 -->
<g id="node1" class="node">
<title>Node1</title>
<g id="a_node1"><a xlink:title="Puts a timestamp on the screen.">
<polygon fill="#bfbfbf" stroke="black" points="0,-38.5 0,-57.5 72,-57.5 72,-38.5 0,-38.5"/>
<text text-anchor="middle" x="36" y="-45.5" font-family="Helvetica,sans-Serif" font-size="10.00">ft_put_time</text>
</a>
</g>
</g>
<!-- Node2 -->
<g id="node2" class="node">
<title>Node2</title>
<g id="a_node2"><a xlink:href="menu__put_8h.html#abba80f1bfc48c436f54f5a0740683a75" target="_top" xlink:title="Converts float to string and puts it on the screen.">
<polygon fill="none" stroke="black" points="108,-76.5 108,-95.5 179,-95.5 179,-76.5 108,-76.5"/>
<text text-anchor="middle" x="143.5" y="-83.5" font-family="Helvetica,sans-Serif" font-size="10.00">ft_put_float</text>
</a>
</g>
</g>
<!-- Node1&#45;&gt;Node2 -->
<g id="edge1" class="edge">
<title>Node1&#45;&gt;Node2</title>
<path fill="none" stroke="midnightblue" d="M63.62,-57.59C76.49,-62.22 92.14,-67.86 106.09,-72.89"/>
<polygon fill="midnightblue" stroke="midnightblue" points="105.29,-76.32 115.89,-76.41 107.66,-69.73 105.29,-76.32"/>
</g>
<!-- Node4 -->
<g id="node4" class="node">
<title>Node4</title>
<g id="a_node4"><a xlink:href="menu__put_8h.html#afdfa5611d84fa2c8cbb73cb66a339c98" target="_top" xlink:title="Converts integer to string and puts it on the screen.">
<polygon fill="none" stroke="black" points="112.5,-38.5 112.5,-57.5 174.5,-57.5 174.5,-38.5 112.5,-38.5"/>
<text text-anchor="middle" x="143.5" y="-45.5" font-family="Helvetica,sans-Serif" font-size="10.00">ft_put_int</text>
</a>
</g>
</g>
<!-- Node1&#45;&gt;Node4 -->
<g id="edge3" class="edge">
<title>Node1&#45;&gt;Node4</title>
<path fill="none" stroke="midnightblue" d="M72.13,-48C81.83,-48 92.42,-48 102.38,-48"/>
<polygon fill="midnightblue" stroke="midnightblue" points="102.46,-51.5 112.46,-48 102.46,-44.5 102.46,-51.5"/>
</g>
<!-- Node5 -->
<g id="node5" class="node">
<title>Node5</title>
<g id="a_node5"><a xlink:href="menu__put_8h.html#a1a2da0ddd033aa4e2ad293ef4b8db2af" target="_top" xlink:title="Wrapper for mlx_string_put().">
<polygon fill="none" stroke="black" points="112.5,-0.5 112.5,-19.5 174.5,-19.5 174.5,-0.5 112.5,-0.5"/>
<text text-anchor="middle" x="143.5" y="-7.5" font-family="Helvetica,sans-Serif" font-size="10.00">ft_put_str</text>
</a>
</g>
</g>
<!-- Node1&#45;&gt;Node5 -->
<g id="edge5" class="edge">
<title>Node1&#45;&gt;Node5</title>
<path fill="none" stroke="midnightblue" d="M63.62,-38.41C76.49,-33.78 92.14,-28.14 106.09,-23.11"/>
<polygon fill="midnightblue" stroke="midnightblue" points="107.66,-26.27 115.89,-19.59 105.29,-19.68 107.66,-26.27"/>
</g>
<!-- Node3 -->
<g id="node3" class="node">
<title>Node3</title>
<g id="a_node3"><a xlink:href="menu__put__str__num_8c.html#a1a2da0ddd033aa4e2ad293ef4b8db2af" target="_top" xlink:title="Wrapper for mlx_string_put().">
<polygon fill="none" stroke="black" points="215,-57.5 215,-76.5 277,-76.5 277,-57.5 215,-57.5"/>
<text text-anchor="middle" x="246" y="-64.5" font-family="Helvetica,sans-Serif" font-size="10.00">ft_put_str</text>
</a>
</g>
</g>
<!-- Node2&#45;&gt;Node3 -->
<g id="edge2" class="edge">
<title>Node2&#45;&gt;Node3</title>
<path fill="none" stroke="midnightblue" d="M179.09,-79.46C187.32,-77.9 196.18,-76.23 204.65,-74.63"/>
<polygon fill="midnightblue" stroke="midnightblue" points="205.54,-78.02 214.71,-72.73 204.24,-71.14 205.54,-78.02"/>
</g>
<!-- Node4&#45;&gt;Node3 -->
<g id="edge4" class="edge">
<title>Node4&#45;&gt;Node3</title>
<path fill="none" stroke="midnightblue" d="M174.65,-53.7C184.19,-55.5 194.89,-57.53 205.01,-59.44"/>
<polygon fill="midnightblue" stroke="midnightblue" points="204.39,-62.88 214.87,-61.3 205.69,-56.01 204.39,-62.88"/>
</g>
</g>
</svg>
