<?xml version="1.0" encoding="UTF-8" standalone="no"?>
<!DOCTYPE svg PUBLIC "-//W3C//DTD SVG 1.1//EN"
 "http://www.w3.org/Graphics/SVG/1.1/DTD/svg11.dtd">
<!-- Generated by graphviz version 2.43.0 (0)
 -->
<!-- Title: ft_put_type Pages: 1 -->
<!--zoomable 180 -->
<svg id="main" version="1.1" xmlns="http://www.w3.org/2000/svg" xmlns:xlink="http://www.w3.org/1999/xlink" xml:space="preserve" onload="init(evt)">
<style type="text/css"><![CDATA[
.edge:hover path { stroke: red; }
.edge:hover polygon { stroke: red; fill: red; }
]]></style>
<script type="text/javascript"><![CDATA[
var edges = document.getElementsByTagName('g');
if (edges && edges.length) {
  for (var i=0;i<edges.length;i++) {
    if (edges[i].id.substr(0,4)=='edge') {
      edges[i].setAttribute('class','edge');
    }
  }
}
]]></script>
        <defs>
                <circle id="rim" cx="0" cy="0" r="7"/>
                <circle id="rim2" cx="0" cy="0" r="3.5"/>
                <g id="zoomPlus">
                        <use xlink:href="#rim" fill="#404040">
                                <set attributeName="fill" to="#808080" begin="zoomplus.mouseover" end="zoomplus.mouseout"/>
                        </use>
                        <path d="M-4,0h8M0,-4v8" fill="none" stroke="white" stroke-width="1.5" pointer-events="none"/>
                </g>
                <g id="zoomMin">
                        <use xlink:href="#rim" fill="#404040">
                                <set attributeName="fill" to="#808080" begin="zoomminus.mouseover" end="zoomminus.mouseout"/>
                        </use>
                        <path d="M-4,0h8" fill="none" stroke="white" stroke-width="1.5" pointer-events="none"/>
                </g>
                <g id="dirArrow">
                        <path fill="none" stroke="white" stroke-width="1.5" d="M0,-3.0v7 M-2.5,-0.5L0,-3.0L2.5,-0.5"/>
                </g>
               <g id="resetDef">
                       <use xlink:href="#rim2" fill="#404040">
                               <set attributeName="fill" to="#808080" begin="reset.mouseover" end="reset.mouseout"/>
                       </use>
               </g>
        </defs>

<script type="text/javascript">
var viewWidth = 506;
var viewHeight = 180;
var sectionId = 'dynsection-2';
</script>
<script xlink:href="svgpan.js"/>
<svg id="graph" class="graph">
<g id="viewport">
<title>ft_put_type</title>
<!-- Node1 -->
<g id="node1" class="node">
<title>Node1</title>
<g id="a_node1"><a xlink:title="Puts the type of a hittable or a light on the screen.">
<polygon fill="#bfbfbf" stroke="black" points="427,-76.5 427,-95.5 498,-95.5 498,-76.5 427,-76.5"/>
<text text-anchor="middle" x="462.5" y="-83.5" font-family="Helvetica,sans-Serif" font-size="10.00">ft_put_type</text>
</a>
</g>
</g>
<!-- Node2 -->
<g id="node2" class="node">
<title>Node2</title>
<g id="a_node2"><a xlink:href="menu__put_8h.html#a9151e6af892c25ae1839ba30b7bd8c91" target="_top" xlink:title="Puts ambient info on the screen.">
<polygon fill="none" stroke="black" points="292,-152.5 292,-171.5 382,-171.5 382,-152.5 292,-152.5"/>
<text text-anchor="middle" x="337" y="-159.5" font-family="Helvetica,sans-Serif" font-size="10.00">ft_put_ambient</text>
</a>
</g>
</g>
<!-- Node1&#45;&gt;Node2 -->
<g id="edge1" class="edge">
<title>Node1&#45;&gt;Node2</title>
<path fill="none" stroke="midnightblue" d="M444.2,-102.78C430.62,-115.23 410.77,-131.89 391,-143 384.52,-146.64 377.22,-149.79 370.16,-152.43"/>
<polygon fill="midnightblue" stroke="midnightblue" points="446.88,-105.06 451.78,-95.67 442.09,-99.96 446.88,-105.06"/>
</g>
<!-- Node3 -->
<g id="node3" class="node">
<title>Node3</title>
<g id="a_node3"><a xlink:href="menu__put_8h.html#a4297546f5daae0553e8fb746134a720d" target="_top" xlink:title="Puts control scheme for hittable on the screen.">
<polygon fill="none" stroke="black" points="283,-114.5 283,-133.5 391,-133.5 391,-114.5 283,-114.5"/>
<text text-anchor="middle" x="337" y="-121.5" font-family="Helvetica,sans-Serif" font-size="10.00">ft_put_ctrl_hittable</text>
</a>
</g>
</g>
<!-- Node1&#45;&gt;Node3 -->
<g id="edge2" class="edge">
<title>Node1&#45;&gt;Node3</title>
<path fill="none" stroke="midnightblue" d="M420.76,-98.54C403.96,-103.7 384.8,-109.6 369.15,-114.41"/>
<polygon fill="midnightblue" stroke="midnightblue" points="421.81,-101.88 430.34,-95.59 419.75,-95.18 421.81,-101.88"/>
</g>
<!-- Node6 -->
<g id="node6" class="node">
<title>Node6</title>
<g id="a_node6"><a xlink:href="menu__put_8h.html#acb49d711643bd638023d9317cd528174" target="_top" xlink:title="Puts control scheme for light on the screen.">
<polygon fill="none" stroke="black" points="291,-38.5 291,-57.5 383,-57.5 383,-38.5 291,-38.5"/>
<text text-anchor="middle" x="337" y="-45.5" font-family="Helvetica,sans-Serif" font-size="10.00">ft_put_ctrl_light</text>
</a>
</g>
</g>
<!-- Node1&#45;&gt;Node6 -->
<g id="edge5" class="edge">
<title>Node1&#45;&gt;Node6</title>
<path fill="none" stroke="midnightblue" d="M420.76,-73.46C403.96,-68.3 384.8,-62.4 369.15,-57.59"/>
<polygon fill="midnightblue" stroke="midnightblue" points="419.75,-76.82 430.34,-76.41 421.81,-70.12 419.75,-76.82"/>
</g>
<!-- Node8 -->
<g id="node8" class="node">
<title>Node8</title>
<g id="a_node8"><a xlink:href="menu__put_8h.html#a893f0e65e417aaf6be0152e2f74782d1" target="_top" xlink:title="Puts hittable info on the screen.">
<polygon fill="none" stroke="black" points="293.5,-76.5 293.5,-95.5 380.5,-95.5 380.5,-76.5 293.5,-76.5"/>
<text text-anchor="middle" x="337" y="-83.5" font-family="Helvetica,sans-Serif" font-size="10.00">ft_put_hittable</text>
</a>
</g>
</g>
<!-- Node1&#45;&gt;Node8 -->
<g id="edge8" class="edge">
<title>Node1&#45;&gt;Node8</title>
<path fill="none" stroke="midnightblue" d="M416.75,-86C405.03,-86 392.43,-86 380.82,-86"/>
<polygon fill="midnightblue" stroke="midnightblue" points="416.77,-89.5 426.77,-86 416.77,-82.5 416.77,-89.5"/>
</g>
<!-- Node9 -->
<g id="node9" class="node">
<title>Node9</title>
<g id="a_node9"><a xlink:href="menu__put_8h.html#ab1aa03b80f8d7af17d305cb8b61c2b6b" target="_top" xlink:title="Puts light info on the screen.">
<polygon fill="none" stroke="black" points="301.5,-0.5 301.5,-19.5 372.5,-19.5 372.5,-0.5 301.5,-0.5"/>
<text text-anchor="middle" x="337" y="-7.5" font-family="Helvetica,sans-Serif" font-size="10.00">ft_put_light</text>
</a>
</g>
</g>
<!-- Node1&#45;&gt;Node9 -->
<g id="edge10" class="edge">
<title>Node1&#45;&gt;Node9</title>
<path fill="none" stroke="midnightblue" d="M444.2,-69.22C430.62,-56.77 410.77,-40.11 391,-29 384.52,-25.36 377.22,-22.21 370.16,-19.57"/>
<polygon fill="midnightblue" stroke="midnightblue" points="442.09,-72.04 451.78,-76.33 446.88,-66.94 442.09,-72.04"/>
</g>
<!-- Node4 -->
<g id="node4" class="node">
<title>Node4</title>
<g id="a_node4"><a xlink:href="menu__put_8h.html#a18613445d2379eca738e6cf789dfecf5" target="_top" xlink:title="Puts a scene page on the screen.">
<polygon fill="none" stroke="black" points="140,-76.5 140,-95.5 247,-95.5 247,-76.5 140,-76.5"/>
<text text-anchor="middle" x="193.5" y="-83.5" font-family="Helvetica,sans-Serif" font-size="10.00">ft_put_page_scene</text>
</a>
</g>
</g>
<!-- Node3&#45;&gt;Node4 -->
<g id="edge3" class="edge">
<title>Node3&#45;&gt;Node4</title>
<path fill="none" stroke="midnightblue" d="M290.4,-111.75C270.89,-106.52 248.46,-100.49 230.2,-95.59"/>
<polygon fill="midnightblue" stroke="midnightblue" points="289.73,-115.2 300.29,-114.41 291.54,-108.44 289.73,-115.2"/>
</g>
<!-- Node5 -->
<g id="node5" class="node">
<title>Node5</title>
<g id="a_node5"><a xlink:href="menu__put_8h.html#aaa97bcdc39838b3da803447ea82e444c" target="_top" xlink:title="Puts the main page of menu on the screen.">
<polygon fill="none" stroke="black" points="0,-57.5 0,-76.5 104,-76.5 104,-57.5 0,-57.5"/>
<text text-anchor="middle" x="52" y="-64.5" font-family="Helvetica,sans-Serif" font-size="10.00">ft_put_main_page</text>
</a>
</g>
</g>
<!-- Node4&#45;&gt;Node5 -->
<g id="edge4" class="edge">
<title>Node4&#45;&gt;Node5</title>
<path fill="none" stroke="midnightblue" d="M129.59,-77.43C121.17,-76.29 112.62,-75.12 104.43,-74"/>
<polygon fill="midnightblue" stroke="midnightblue" points="129.38,-80.94 139.76,-78.82 130.32,-74 129.38,-80.94"/>
</g>
<!-- Node7 -->
<g id="node7" class="node">
<title>Node7</title>
<g id="a_node7"><a xlink:href="menu__put_8h.html#a11eed0e0d38826c89da2d71031a08593" target="_top" xlink:title="Puts a light page on the screen.">
<polygon fill="none" stroke="black" points="143,-38.5 143,-57.5 244,-57.5 244,-38.5 143,-38.5"/>
<text text-anchor="middle" x="193.5" y="-45.5" font-family="Helvetica,sans-Serif" font-size="10.00">ft_put_page_light</text>
</a>
</g>
</g>
<!-- Node6&#45;&gt;Node7 -->
<g id="edge6" class="edge">
<title>Node6&#45;&gt;Node7</title>
<path fill="none" stroke="midnightblue" d="M280.49,-48C268.5,-48 255.89,-48 244.13,-48"/>
<polygon fill="midnightblue" stroke="midnightblue" points="280.84,-51.5 290.84,-48 280.84,-44.5 280.84,-51.5"/>
</g>
<!-- Node7&#45;&gt;Node5 -->
<g id="edge7" class="edge">
<title>Node7&#45;&gt;Node5</title>
<path fill="none" stroke="midnightblue" d="M132.77,-56.13C123.29,-57.43 113.56,-58.75 104.3,-60.01"/>
<polygon fill="midnightblue" stroke="midnightblue" points="133.49,-59.57 142.92,-54.75 132.54,-52.63 133.49,-59.57"/>
</g>
<!-- Node8&#45;&gt;Node4 -->
<g id="edge9" class="edge">
<title>Node8&#45;&gt;Node4</title>
<path fill="none" stroke="midnightblue" d="M283.07,-86C271.34,-86 258.91,-86 247.19,-86"/>
<polygon fill="midnightblue" stroke="midnightblue" points="283.16,-89.5 293.16,-86 283.16,-82.5 283.16,-89.5"/>
</g>
<!-- Node9&#45;&gt;Node7 -->
<g id="edge11" class="edge">
<title>Node9&#45;&gt;Node7</title>
<path fill="none" stroke="midnightblue" d="M291.67,-21.9C271.89,-27.22 248.89,-33.39 230.23,-38.4"/>
<polygon fill="midnightblue" stroke="midnightblue" points="292.64,-25.27 301.39,-19.3 290.82,-18.51 292.64,-25.27"/>
</g>
</g>
</svg>
        <g id="navigator" transform="translate(0 0)" fill="#404254">
                <rect fill="#f2f5e9" fill-opacity="0.5" stroke="#606060" stroke-width=".5" x="0" y="0" width="60" height="60"/>
                <use id="zoomplus" xlink:href="#zoomPlus" x="17" y="9" onmousedown="handleZoom(evt,'in')"/>
                <use id="zoomminus" xlink:href="#zoomMin" x="42" y="9" onmousedown="handleZoom(evt,'out')"/>
                <use id="reset" xlink:href="#resetDef" x="30" y="36" onmousedown="handleReset()"/>
                <g id="arrowUp" xlink:href="#dirArrow" transform="translate(30 24)" onmousedown="handlePan(0,-1)">
                  <use xlink:href="#rim" fill="#404040">
                        <set attributeName="fill" to="#808080" begin="arrowUp.mouseover" end="arrowUp.mouseout"/>
                  </use>
                  <path fill="none" stroke="white" stroke-width="1.5" d="M0,-3.0v7 M-2.5,-0.5L0,-3.0L2.5,-0.5"/>
                </g>
                <g id="arrowRight" xlink:href="#dirArrow" transform="rotate(90) translate(36 -43)" onmousedown="handlePan(1,0)">
                  <use xlink:href="#rim" fill="#404040">
                        <set attributeName="fill" to="#808080" begin="arrowRight.mouseover" end="arrowRight.mouseout"/>
                  </use>
                  <path fill="none" stroke="white" stroke-width="1.5" d="M0,-3.0v7 M-2.5,-0.5L0,-3.0L2.5,-0.5"/>
                </g>
                <g id="arrowDown" xlink:href="#dirArrow" transform="rotate(180) translate(-30 -48)" onmousedown="handlePan(0,1)">
                  <use xlink:href="#rim" fill="#404040">
                        <set attributeName="fill" to="#808080" begin="arrowDown.mouseover" end="arrowDown.mouseout"/>
                  </use>
                  <path fill="none" stroke="white" stroke-width="1.5" d="M0,-3.0v7 M-2.5,-0.5L0,-3.0L2.5,-0.5"/>
                </g>
                <g id="arrowLeft" xlink:href="#dirArrow" transform="rotate(270) translate(-36 17)" onmousedown="handlePan(-1,0)">
                  <use xlink:href="#rim" fill="#404040">
                        <set attributeName="fill" to="#808080" begin="arrowLeft.mouseover" end="arrowLeft.mouseout"/>
                  </use>
                  <path fill="none" stroke="white" stroke-width="1.5" d="M0,-3.0v7 M-2.5,-0.5L0,-3.0L2.5,-0.5"/>
                </g>
        </g>
        <svg viewBox="0 0 15 15" width="100%" height="30px" preserveAspectRatio="xMaxYMin meet">
         <g id="arrow_out" transform="scale(0.3 0.3)">
          <a xlink:href="menu__put__general__info__bonus_8c_a8d53c0c28e59d4db8e6bb03ee433f724_icgraph_org.svg" target="_base">
           <rect id="button" ry="5" rx="5" y="6" x="6" height="38" width="38"
                fill="#f2f5e9" fill-opacity="0.5" stroke="#606060" stroke-width="1.0"/>
           <path id="arrow"
             d="M 11.500037,31.436501 C 11.940474,20.09759 22.043105,11.32322 32.158766,21.979434 L 37.068811,17.246167 C 37.068811,17.246167 37.088388,32 37.088388,32 L 22.160133,31.978069 C 22.160133,31.978069 26.997745,27.140456 26.997745,27.140456 C 18.528582,18.264221 13.291696,25.230495 11.500037,31.436501 z"
             style="fill:#404040;"/>
          </a>
         </g>
        </svg>
</svg>
