<?xml version="1.0" encoding="UTF-8" standalone="no"?>
<!DOCTYPE svg PUBLIC "-//W3C//DTD SVG 1.1//EN"
 "http://www.w3.org/Graphics/SVG/1.1/DTD/svg11.dtd">
<!-- Generated by graphviz version 2.43.0 (0)
 -->
<!-- Title: ft_put_ctrl_light Pages: 1 -->
<svg width="439pt" height="180pt"
 viewBox="0.00 0.00 439.00 180.00" xmlns="http://www.w3.org/2000/svg" xmlns:xlink="http://www.w3.org/1999/xlink">
<g id="graph0" class="graph" transform="scale(1 1) rotate(0) translate(4 176)">
<title>ft_put_ctrl_light</title>
<!-- Node1 -->
<g id="node1" class="node">
<title>Node1</title>
<g id="a_node1"><a xlink:title="Puts control scheme for light on the screen.">
<polygon fill="#bfbfbf" stroke="black" points="0,-76.5 0,-95.5 92,-95.5 92,-76.5 0,-76.5"/>
<text text-anchor="middle" x="46" y="-83.5" font-family="Helvetica,sans-Serif" font-size="10.00">ft_put_ctrl_light</text>
</a>
</g>
</g>
<!-- Node2 -->
<g id="node2" class="node">
<title>Node2</title>
<g id="a_node2"><a xlink:href="menu__put_8h.html#a0dd38606280deb85fca8f3d4db628552" target="_top" xlink:title="Puts control scheme for incrementing and decrementing a value on the screen.">
<polygon fill="none" stroke="black" points="128,-152.5 128,-171.5 235,-171.5 235,-152.5 128,-152.5"/>
<text text-anchor="middle" x="181.5" y="-159.5" font-family="Helvetica,sans-Serif" font-size="10.00">ft_put_ctrl_inc_dec</text>
</a>
</g>
</g>
<!-- Node1&#45;&gt;Node2 -->
<g id="edge1" class="edge">
<title>Node1&#45;&gt;Node2</title>
<path fill="none" stroke="midnightblue" d="M60.68,-95.64C76.5,-106.57 103.51,-124.63 128,-138 134.53,-141.57 141.69,-145.08 148.56,-148.28"/>
<polygon fill="midnightblue" stroke="midnightblue" points="147.12,-151.47 157.67,-152.41 150.01,-145.09 147.12,-151.47"/>
</g>
<!-- Node3 -->
<g id="node3" class="node">
<title>Node3</title>
<g id="a_node3"><a xlink:href="menu__put_8h.html#a1a2da0ddd033aa4e2ad293ef4b8db2af" target="_top" xlink:title="Wrapper for mlx_string_put().">
<polygon fill="none" stroke="black" points="271,-76.5 271,-95.5 333,-95.5 333,-76.5 271,-76.5"/>
<text text-anchor="middle" x="302" y="-83.5" font-family="Helvetica,sans-Serif" font-size="10.00">ft_put_str</text>
</a>
</g>
</g>
<!-- Node1&#45;&gt;Node3 -->
<g id="edge9" class="edge">
<title>Node1&#45;&gt;Node3</title>
<path fill="none" stroke="midnightblue" d="M79.8,-95.51C94.42,-99.27 111.93,-103.14 128,-105 175.24,-110.47 187.91,-111.64 235,-105 244.81,-103.62 255.21,-101.13 264.78,-98.4"/>
<polygon fill="midnightblue" stroke="midnightblue" points="265.83,-101.74 274.4,-95.5 263.81,-95.03 265.83,-101.74"/>
</g>
<!-- Node4 -->
<g id="node4" class="node">
<title>Node4</title>
<g id="a_node4"><a xlink:href="menu__put_8h.html#a6387702d64aea5e1908a16e2baf024c0" target="_top" xlink:title="Puts control scheme for movement on the screen.">
<polygon fill="none" stroke="black" points="132.5,-76.5 132.5,-95.5 230.5,-95.5 230.5,-76.5 132.5,-76.5"/>
<text text-anchor="middle" x="181.5" y="-83.5" font-family="Helvetica,sans-Serif" font-size="10.00">ft_put_ctrl_move</text>
</a>
</g>
</g>
<!-- Node1&#45;&gt;Node4 -->
<g id="edge3" class="edge">
<title>Node1&#45;&gt;Node4</title>
<path fill="none" stroke="midnightblue" d="M92.2,-86C101.74,-86 111.94,-86 121.9,-86"/>
<polygon fill="midnightblue" stroke="midnightblue" points="122.15,-89.5 132.15,-86 122.15,-82.5 122.15,-89.5"/>
</g>
<!-- Node5 -->
<g id="node5" class="node">
<title>Node5</title>
<g id="a_node5"><a xlink:href="menu__put_8h.html#a3d812757fc50aadab47e468736eafb73" target="_top" xlink:title="Puts the ID of a hittable or a light on the screen.">
<polygon fill="none" stroke="black" points="152,-0.5 152,-19.5 211,-19.5 211,-0.5 152,-0.5"/>
<text text-anchor="middle" x="181.5" y="-7.5" font-family="Helvetica,sans-Serif" font-size="10.00">ft_put_id</text>
</a>
</g>
</g>
<!-- Node1&#45;&gt;Node5 -->
<g id="edge5" class="edge">
<title>Node1&#45;&gt;Node5</title>
<path fill="none" stroke="midnightblue" d="M58.44,-76.46C73.58,-64.19 101.46,-42.82 128,-29 132.56,-26.63 137.48,-24.42 142.42,-22.42"/>
<polygon fill="midnightblue" stroke="midnightblue" points="143.75,-25.65 151.85,-18.81 141.26,-19.11 143.75,-25.65"/>
</g>
<!-- Node8 -->
<g id="node8" class="node">
<title>Node8</title>
<g id="a_node8"><a xlink:href="menu__put_8h.html#a8d53c0c28e59d4db8e6bb03ee433f724" target="_top" xlink:title="Puts the type of a hittable or a light on the screen.">
<polygon fill="none" stroke="black" points="146,-38.5 146,-57.5 217,-57.5 217,-38.5 146,-38.5"/>
<text text-anchor="middle" x="181.5" y="-45.5" font-family="Helvetica,sans-Serif" font-size="10.00">ft_put_type</text>
</a>
</g>
</g>
<!-- Node1&#45;&gt;Node8 -->
<g id="edge10" class="edge">
<title>Node1&#45;&gt;Node8</title>
<path fill="none" stroke="midnightblue" d="M80.69,-76.41C97.76,-71.55 118.7,-65.59 136.98,-60.39"/>
<polygon fill="midnightblue" stroke="midnightblue" points="138.16,-63.69 146.82,-57.59 136.25,-56.96 138.16,-63.69"/>
</g>
<!-- Node2&#45;&gt;Node3 -->
<g id="edge2" class="edge">
<title>Node2&#45;&gt;Node3</title>
<path fill="none" stroke="midnightblue" d="M206.64,-152.41C215.77,-148.41 226.1,-143.43 235,-138 252.16,-127.53 269.97,-113.26 282.76,-102.32"/>
<polygon fill="midnightblue" stroke="midnightblue" points="285.14,-104.89 290.38,-95.68 280.54,-99.61 285.14,-104.89"/>
</g>
<!-- Node4&#45;&gt;Node3 -->
<g id="edge4" class="edge">
<title>Node4&#45;&gt;Node3</title>
<path fill="none" stroke="midnightblue" d="M230.7,-86C240.67,-86 251.08,-86 260.74,-86"/>
<polygon fill="midnightblue" stroke="midnightblue" points="260.87,-89.5 270.87,-86 260.87,-82.5 260.87,-89.5"/>
</g>
<!-- Node5&#45;&gt;Node3 -->
<g id="edge8" class="edge">
<title>Node5&#45;&gt;Node3</title>
<path fill="none" stroke="midnightblue" d="M211.14,-18.24C219.14,-21.1 227.64,-24.69 235,-29 253.83,-40.02 272.37,-56.7 284.98,-69.17"/>
<polygon fill="midnightblue" stroke="midnightblue" points="282.51,-71.64 292.02,-76.3 287.49,-66.72 282.51,-71.64"/>
</g>
<!-- Node6 -->
<g id="node6" class="node">
<title>Node6</title>
<g id="a_node6"><a xlink:href="menu__put_8h.html#afdfa5611d84fa2c8cbb73cb66a339c98" target="_top" xlink:title="Converts integer to string and puts it on the screen.">
<polygon fill="none" stroke="black" points="271,-0.5 271,-19.5 333,-19.5 333,-0.5 271,-0.5"/>
<text text-anchor="middle" x="302" y="-7.5" font-family="Helvetica,sans-Serif" font-size="10.00">ft_put_int</text>
</a>
</g>
</g>
<!-- Node5&#45;&gt;Node6 -->
<g id="edge6" class="edge">
<title>Node5&#45;&gt;Node6</title>
<path fill="none" stroke="midnightblue" d="M211.19,-10C226.02,-10 244.37,-10 260.61,-10"/>
<polygon fill="midnightblue" stroke="midnightblue" points="260.93,-13.5 270.93,-10 260.93,-6.5 260.93,-13.5"/>
</g>
<!-- Node7 -->
<g id="node7" class="node">
<title>Node7</title>
<g id="a_node7"><a xlink:href="menu__put__str__num_8c.html#a1a2da0ddd033aa4e2ad293ef4b8db2af" target="_top" xlink:title="Wrapper for mlx_string_put().">
<polygon fill="none" stroke="black" points="369,-0.5 369,-19.5 431,-19.5 431,-0.5 369,-0.5"/>
<text text-anchor="middle" x="400" y="-7.5" font-family="Helvetica,sans-Serif" font-size="10.00">ft_put_str</text>
</a>
</g>
</g>
<!-- Node6&#45;&gt;Node7 -->
<g id="edge7" class="edge">
<title>Node6&#45;&gt;Node7</title>
<path fill="none" stroke="midnightblue" d="M333.11,-10C341.24,-10 350.17,-10 358.76,-10"/>
<polygon fill="midnightblue" stroke="midnightblue" points="359,-13.5 369,-10 359,-6.5 359,-13.5"/>
</g>
<!-- Node8&#45;&gt;Node3 -->
<g id="edge11" class="edge">
<title>Node8&#45;&gt;Node3</title>
<path fill="none" stroke="midnightblue" d="M212.4,-57.59C227.28,-62.36 245.46,-68.19 261.47,-73.32"/>
<polygon fill="midnightblue" stroke="midnightblue" points="260.52,-76.69 271.11,-76.41 262.65,-70.03 260.52,-76.69"/>
</g>
</g>
</svg>
