<?xml version="1.0" encoding="UTF-8" standalone="no"?>
<!DOCTYPE svg PUBLIC "-//W3C//DTD SVG 1.1//EN"
 "http://www.w3.org/Graphics/SVG/1.1/DTD/svg11.dtd">
<!-- Generated by graphviz version 2.43.0 (0)
 -->
<!-- Title: ft_put_single_float_value Pages: 1 -->
<svg width="1019pt" height="180pt"
 viewBox="0.00 0.00 1019.00 180.00" xmlns="http://www.w3.org/2000/svg" xmlns:xlink="http://www.w3.org/1999/xlink">
<g id="graph0" class="graph" transform="scale(1 1) rotate(0) translate(4 176)">
<title>ft_put_single_float_value</title>
<!-- Node1 -->
<g id="node1" class="node">
<title>Node1</title>
<g id="a_node1"><a xlink:title="Puts a single float value on the screen.">
<polygon fill="#bfbfbf" stroke="black" points="905,-71 905,-101 1011,-101 1011,-71 905,-71"/>
<text text-anchor="start" x="913" y="-89" font-family="Helvetica,sans-Serif" font-size="10.00">ft_put_single_float</text>
<text text-anchor="middle" x="958" y="-78" font-family="Helvetica,sans-Serif" font-size="10.00">_value</text>
</a>
</g>
</g>
<!-- Node2 -->
<g id="node2" class="node">
<title>Node2</title>
<g id="a_node2"><a xlink:href="menu__put_8h.html#a77a2ed2d37b91adb0fe09dd2db3e8618" target="_top" xlink:title="Puts ambient info on the screen.">
<polygon fill="none" stroke="black" points="779,-152.5 779,-171.5 869,-171.5 869,-152.5 779,-152.5"/>
<text text-anchor="middle" x="824" y="-159.5" font-family="Helvetica,sans-Serif" font-size="10.00">ft_put_ambient</text>
</a>
</g>
</g>
<!-- Node1&#45;&gt;Node2 -->
<g id="edge1" class="edge">
<title>Node1&#45;&gt;Node2</title>
<path fill="none" stroke="midnightblue" d="M927.63,-106.79C910.87,-118.2 889.23,-132.18 869,-143 862.69,-146.38 855.65,-149.63 849.09,-152.46"/>
<polygon fill="midnightblue" stroke="midnightblue" points="929.66,-109.64 935.91,-101.09 925.69,-103.87 929.66,-109.64"/>
</g>
<!-- Node8 -->
<g id="node8" class="node">
<title>Node8</title>
<g id="a_node8"><a xlink:href="menu__put_8h.html#a86f02d860bd5b9a3795b20ba72f8e359" target="_top" xlink:title="Puts camera info on the screen.">
<polygon fill="none" stroke="black" points="788.5,-114.5 788.5,-133.5 859.5,-133.5 859.5,-114.5 788.5,-114.5"/>
<text text-anchor="middle" x="824" y="-121.5" font-family="Helvetica,sans-Serif" font-size="10.00">ft_put_cam</text>
</a>
</g>
</g>
<!-- Node1&#45;&gt;Node8 -->
<g id="edge7" class="edge">
<title>Node1&#45;&gt;Node8</title>
<path fill="none" stroke="midnightblue" d="M895.15,-103.8C882.4,-107.47 869.45,-111.2 858.2,-114.44"/>
<polygon fill="midnightblue" stroke="midnightblue" points="896.19,-107.15 904.83,-101.02 894.25,-100.42 896.19,-107.15"/>
</g>
<!-- Node10 -->
<g id="node10" class="node">
<title>Node10</title>
<g id="a_node10"><a xlink:href="menu__put_8h.html#a8fb9ef8bf3aa98d9125937611f738a9b" target="_top" xlink:title="Puts cylinder info on the screen.">
<polygon fill="none" stroke="black" points="793.5,-76.5 793.5,-95.5 854.5,-95.5 854.5,-76.5 793.5,-76.5"/>
<text text-anchor="middle" x="824" y="-83.5" font-family="Helvetica,sans-Serif" font-size="10.00">ft_put_cy</text>
</a>
</g>
</g>
<!-- Node1&#45;&gt;Node10 -->
<g id="edge10" class="edge">
<title>Node1&#45;&gt;Node10</title>
<path fill="none" stroke="midnightblue" d="M894.75,-86C880.81,-86 866.65,-86 854.76,-86"/>
<polygon fill="midnightblue" stroke="midnightblue" points="894.83,-89.5 904.83,-86 894.83,-82.5 894.83,-89.5"/>
</g>
<!-- Node13 -->
<g id="node13" class="node">
<title>Node13</title>
<g id="a_node13"><a xlink:href="menu__put_8h.html#aeacc1ffd9a704a9c1dc92fafc65597d1" target="_top" xlink:title="Puts light info on the screen.">
<polygon fill="none" stroke="black" points="788.5,-0.5 788.5,-19.5 859.5,-19.5 859.5,-0.5 788.5,-0.5"/>
<text text-anchor="middle" x="824" y="-7.5" font-family="Helvetica,sans-Serif" font-size="10.00">ft_put_light</text>
</a>
</g>
</g>
<!-- Node1&#45;&gt;Node13 -->
<g id="edge14" class="edge">
<title>Node1&#45;&gt;Node13</title>
<path fill="none" stroke="midnightblue" d="M927.63,-65.21C910.87,-53.8 889.23,-39.82 869,-29 862.69,-25.62 855.65,-22.37 849.09,-19.54"/>
<polygon fill="midnightblue" stroke="midnightblue" points="925.69,-68.13 935.91,-70.91 929.66,-62.36 925.69,-68.13"/>
</g>
<!-- Node15 -->
<g id="node15" class="node">
<title>Node15</title>
<g id="a_node15"><a xlink:href="menu__put_8h.html#a94cfa4cebace291a60ab7a8bd9bd852c" target="_top" xlink:title="Puts sphere info on the screen.">
<polygon fill="none" stroke="black" points="793.5,-38.5 793.5,-57.5 854.5,-57.5 854.5,-38.5 793.5,-38.5"/>
<text text-anchor="middle" x="824" y="-45.5" font-family="Helvetica,sans-Serif" font-size="10.00">ft_put_sp</text>
</a>
</g>
</g>
<!-- Node1&#45;&gt;Node15 -->
<g id="edge17" class="edge">
<title>Node1&#45;&gt;Node15</title>
<path fill="none" stroke="midnightblue" d="M895.16,-68.2C881.09,-64.15 866.76,-60.02 854.76,-56.57"/>
<polygon fill="midnightblue" stroke="midnightblue" points="894.25,-71.58 904.83,-70.98 896.19,-64.85 894.25,-71.58"/>
</g>
<!-- Node3 -->
<g id="node3" class="node">
<title>Node3</title>
<g id="a_node3"><a xlink:href="menu__put_8h.html#a588aec662fefad0f2ddbf36c3828de25" target="_top" xlink:title="Puts an ambient page on the screen.">
<polygon fill="none" stroke="black" points="487,-152.5 487,-171.5 606,-171.5 606,-152.5 487,-152.5"/>
<text text-anchor="middle" x="546.5" y="-159.5" font-family="Helvetica,sans-Serif" font-size="10.00">ft_put_page_ambient</text>
</a>
</g>
</g>
<!-- Node2&#45;&gt;Node3 -->
<g id="edge2" class="edge">
<title>Node2&#45;&gt;Node3</title>
<path fill="none" stroke="midnightblue" d="M768.47,-162C721.57,-162 654.09,-162 606.06,-162"/>
<polygon fill="midnightblue" stroke="midnightblue" points="768.74,-165.5 778.74,-162 768.74,-158.5 768.74,-165.5"/>
</g>
<!-- Node4 -->
<g id="node4" class="node">
<title>Node4</title>
<g id="a_node4"><a xlink:href="render_8h.html#a735dfeb13434c88e3b4a76990386763b" target="_top" xlink:title="Puts the current menu page on the screen.">
<polygon fill="none" stroke="black" points="349,-95.5 349,-114.5 451,-114.5 451,-95.5 349,-95.5"/>
<text text-anchor="middle" x="400" y="-102.5" font-family="Helvetica,sans-Serif" font-size="10.00">ft_menu_put_text</text>
</a>
</g>
</g>
<!-- Node3&#45;&gt;Node4 -->
<g id="edge3" class="edge">
<title>Node3&#45;&gt;Node4</title>
<path fill="none" stroke="midnightblue" d="M504.32,-149.21C498.47,-147.22 492.56,-145.12 487,-143 464.13,-134.26 438.53,-122.72 421.26,-114.65"/>
<polygon fill="midnightblue" stroke="midnightblue" points="503.43,-152.6 514.02,-152.43 505.63,-145.96 503.43,-152.6"/>
</g>
<!-- Node5 -->
<g id="node5" class="node">
<title>Node5</title>
<g id="a_node5"><a xlink:href="render__loop__mlx_8c.html#af908c05cb19e716220bc98fcf9582573" target="_top" xlink:title=" ">
<polygon fill="none" stroke="black" points="227,-95.5 227,-114.5 313,-114.5 313,-95.5 227,-95.5"/>
<text text-anchor="middle" x="270" y="-102.5" font-family="Helvetica,sans-Serif" font-size="10.00">ft_draw_scene</text>
</a>
</g>
</g>
<!-- Node4&#45;&gt;Node5 -->
<g id="edge4" class="edge">
<title>Node4&#45;&gt;Node5</title>
<path fill="none" stroke="midnightblue" d="M338.73,-105C330.11,-105 321.39,-105 313.22,-105"/>
<polygon fill="midnightblue" stroke="midnightblue" points="338.78,-108.5 348.78,-105 338.78,-101.5 338.78,-108.5"/>
</g>
<!-- Node6 -->
<g id="node6" class="node">
<title>Node6</title>
<g id="a_node6"><a xlink:href="render_8h.html#ab7a01aa5d27d2fad2942a43a31ae0d52" target="_top" xlink:title="Starts the mlx loop.">
<polygon fill="none" stroke="black" points="77,-95.5 77,-114.5 191,-114.5 191,-95.5 77,-95.5"/>
<text text-anchor="middle" x="134" y="-102.5" font-family="Helvetica,sans-Serif" font-size="10.00">ft_render_start_loop</text>
</a>
</g>
</g>
<!-- Node5&#45;&gt;Node6 -->
<g id="edge5" class="edge">
<title>Node5&#45;&gt;Node6</title>
<path fill="none" stroke="midnightblue" d="M216.88,-105C208.44,-105 199.66,-105 191.13,-105"/>
<polygon fill="midnightblue" stroke="midnightblue" points="216.97,-108.5 226.97,-105 216.97,-101.5 216.97,-108.5"/>
</g>
<!-- Node7 -->
<g id="node7" class="node">
<title>Node7</title>
<g id="a_node7"><a xlink:href="main_8c.html#a3c04138a5bfe5d72780bb7e82a18e627" target="_top" xlink:title=" ">
<polygon fill="none" stroke="black" points="0,-95.5 0,-114.5 41,-114.5 41,-95.5 0,-95.5"/>
<text text-anchor="middle" x="20.5" y="-102.5" font-family="Helvetica,sans-Serif" font-size="10.00">main</text>
</a>
</g>
</g>
<!-- Node6&#45;&gt;Node7 -->
<g id="edge6" class="edge">
<title>Node6&#45;&gt;Node7</title>
<path fill="none" stroke="midnightblue" d="M66.7,-105C57.37,-105 48.45,-105 41.04,-105"/>
<polygon fill="midnightblue" stroke="midnightblue" points="66.92,-108.5 76.92,-105 66.92,-101.5 66.92,-108.5"/>
</g>
<!-- Node9 -->
<g id="node9" class="node">
<title>Node9</title>
<g id="a_node9"><a xlink:href="menu__put_8h.html#a33000f70f8d23d70b515e38109c63917" target="_top" xlink:title="Puts a camera page on the screen.">
<polygon fill="none" stroke="black" points="496.5,-114.5 496.5,-133.5 596.5,-133.5 596.5,-114.5 496.5,-114.5"/>
<text text-anchor="middle" x="546.5" y="-121.5" font-family="Helvetica,sans-Serif" font-size="10.00">ft_put_page_cam</text>
</a>
</g>
</g>
<!-- Node8&#45;&gt;Node9 -->
<g id="edge8" class="edge">
<title>Node8&#45;&gt;Node9</title>
<path fill="none" stroke="midnightblue" d="M778.24,-124C728.41,-124 648.12,-124 596.6,-124"/>
<polygon fill="midnightblue" stroke="midnightblue" points="778.39,-127.5 788.39,-124 778.39,-120.5 778.39,-127.5"/>
</g>
<!-- Node9&#45;&gt;Node4 -->
<g id="edge9" class="edge">
<title>Node9&#45;&gt;Node4</title>
<path fill="none" stroke="midnightblue" d="M486.1,-116.19C474.47,-114.66 462.38,-113.07 451.08,-111.59"/>
<polygon fill="midnightblue" stroke="midnightblue" points="485.8,-119.68 496.18,-117.51 486.72,-112.74 485.8,-119.68"/>
</g>
<!-- Node11 -->
<g id="node11" class="node">
<title>Node11</title>
<g id="a_node11"><a xlink:href="menu__put_8h.html#ae3322e0fef7cdf8e68982fbd93f687e2" target="_top" xlink:title="Puts hittable info on the screen.">
<polygon fill="none" stroke="black" points="649,-76.5 649,-95.5 736,-95.5 736,-76.5 649,-76.5"/>
<text text-anchor="middle" x="692.5" y="-83.5" font-family="Helvetica,sans-Serif" font-size="10.00">ft_put_hittable</text>
</a>
</g>
</g>
<!-- Node10&#45;&gt;Node11 -->
<g id="edge11" class="edge">
<title>Node10&#45;&gt;Node11</title>
<path fill="none" stroke="midnightblue" d="M782.94,-86C768.15,-86 751.35,-86 736.33,-86"/>
<polygon fill="midnightblue" stroke="midnightblue" points="783.29,-89.5 793.29,-86 783.29,-82.5 783.29,-89.5"/>
</g>
<!-- Node12 -->
<g id="node12" class="node">
<title>Node12</title>
<g id="a_node12"><a xlink:href="menu__put_8h.html#ab175cf6607817105e92bd541f28a11a6" target="_top" xlink:title="Puts a scene page on the screen.">
<polygon fill="none" stroke="black" points="493,-76.5 493,-95.5 600,-95.5 600,-76.5 493,-76.5"/>
<text text-anchor="middle" x="546.5" y="-83.5" font-family="Helvetica,sans-Serif" font-size="10.00">ft_put_page_scene</text>
</a>
</g>
</g>
<!-- Node11&#45;&gt;Node12 -->
<g id="edge12" class="edge">
<title>Node11&#45;&gt;Node12</title>
<path fill="none" stroke="midnightblue" d="M638.41,-86C625.9,-86 612.58,-86 600.09,-86"/>
<polygon fill="midnightblue" stroke="midnightblue" points="638.69,-89.5 648.69,-86 638.69,-82.5 638.69,-89.5"/>
</g>
<!-- Node12&#45;&gt;Node4 -->
<g id="edge13" class="edge">
<title>Node12&#45;&gt;Node4</title>
<path fill="none" stroke="midnightblue" d="M482.93,-94.23C472.38,-95.61 461.55,-97.04 451.37,-98.38"/>
<polygon fill="midnightblue" stroke="midnightblue" points="483.47,-97.69 492.92,-92.91 482.55,-90.75 483.47,-97.69"/>
</g>
<!-- Node14 -->
<g id="node14" class="node">
<title>Node14</title>
<g id="a_node14"><a xlink:href="menu__put_8h.html#a0358e73d3f7165a9dc25c5b8a029fefb" target="_top" xlink:title="Puts a light page on the screen.">
<polygon fill="none" stroke="black" points="642,-19.5 642,-38.5 743,-38.5 743,-19.5 642,-19.5"/>
<text text-anchor="middle" x="692.5" y="-26.5" font-family="Helvetica,sans-Serif" font-size="10.00">ft_put_page_light</text>
</a>
</g>
</g>
<!-- Node13&#45;&gt;Node14 -->
<g id="edge15" class="edge">
<title>Node13&#45;&gt;Node14</title>
<path fill="none" stroke="midnightblue" d="M778.26,-16.56C767.02,-18.21 754.88,-20 743.39,-21.68"/>
<polygon fill="midnightblue" stroke="midnightblue" points="778.91,-20.01 788.3,-15.09 777.89,-13.08 778.91,-20.01"/>
</g>
<!-- Node14&#45;&gt;Node4 -->
<g id="edge16" class="edge">
<title>Node14&#45;&gt;Node4</title>
<path fill="none" stroke="midnightblue" d="M631.81,-36.36C590.54,-42.35 534.71,-52.25 487,-67 462.83,-74.47 436.4,-86.83 419.31,-95.41"/>
<polygon fill="midnightblue" stroke="midnightblue" points="632.56,-39.79 641.97,-34.92 631.58,-32.86 632.56,-39.79"/>
</g>
<!-- Node15&#45;&gt;Node11 -->
<g id="edge18" class="edge">
<title>Node15&#45;&gt;Node11</title>
<path fill="none" stroke="midnightblue" d="M783.49,-59.59C765.17,-64.97 743.65,-71.28 726.25,-76.39"/>
<polygon fill="midnightblue" stroke="midnightblue" points="784.68,-62.89 793.29,-56.72 782.71,-56.18 784.68,-62.89"/>
</g>
</g>
</svg>
