<?xml version="1.0" encoding="UTF-8" standalone="no"?>
<!DOCTYPE svg PUBLIC "-//W3C//DTD SVG 1.1//EN"
 "http://www.w3.org/Graphics/SVG/1.1/DTD/svg11.dtd">
<!-- Generated by graphviz version 2.43.0 (0)
 -->
<!-- Title: src/menu_put_cam_light.c Pages: 1 -->
<svg width="1263pt" height="476pt"
 viewBox="0.00 0.00 1263.23 476.00" xmlns="http://www.w3.org/2000/svg" xmlns:xlink="http://www.w3.org/1999/xlink">
<g id="graph0" class="graph" transform="scale(1 1) rotate(0) translate(4 472)">
<title>src/menu_put_cam_light.c</title>
<!-- Node1 -->
<g id="node1" class="node">
<title>Node1</title>
<g id="a_node1"><a xlink:title=" ">
<polygon fill="#bfbfbf" stroke="black" points="494.73,-448.5 494.73,-467.5 638.73,-467.5 638.73,-448.5 494.73,-448.5"/>
<text text-anchor="middle" x="566.73" y="-455.5" font-family="Helvetica,sans-Serif" font-size="10.00">src/menu_put_cam_light.c</text>
</a>
</g>
</g>
<!-- Node2 -->
<g id="node2" class="node">
<title>Node2</title>
<g id="a_node2"><a xlink:href="menu__put_8h.html" target="_top" xlink:title=" ">
<polygon fill="none" stroke="black" points="529.73,-392.5 529.73,-411.5 603.73,-411.5 603.73,-392.5 529.73,-392.5"/>
<text text-anchor="middle" x="566.73" y="-399.5" font-family="Helvetica,sans-Serif" font-size="10.00">menu_put.h</text>
</a>
</g>
</g>
<!-- Node1&#45;&gt;Node2 -->
<g id="edge1" class="edge">
<title>Node1&#45;&gt;Node2</title>
<path fill="none" stroke="midnightblue" d="M566.73,-448.08C566.73,-441.01 566.73,-430.86 566.73,-421.99"/>
<polygon fill="midnightblue" stroke="midnightblue" points="570.23,-421.75 566.73,-411.75 563.23,-421.75 570.23,-421.75"/>
</g>
<!-- Node3 -->
<g id="node3" class="node">
<title>Node3</title>
<g id="a_node3"><a xlink:href="vec2_8h.html" target="_top" xlink:title=" ">
<polygon fill="none" stroke="black" points="788.23,-168.5 788.23,-187.5 837.23,-187.5 837.23,-168.5 788.23,-168.5"/>
<text text-anchor="middle" x="812.73" y="-175.5" font-family="Helvetica,sans-Serif" font-size="10.00">vec2.h</text>
</a>
</g>
</g>
<!-- Node2&#45;&gt;Node3 -->
<g id="edge2" class="edge">
<title>Node2&#45;&gt;Node3</title>
<path fill="none" stroke="midnightblue" d="M603.8,-399.8C713.5,-395.38 1032.78,-376.1 1095.73,-300 1113.61,-278.38 1090.71,-239.01 1071.73,-224 1037.54,-196.98 910.25,-185.23 847.77,-181.01"/>
<polygon fill="midnightblue" stroke="midnightblue" points="847.82,-177.5 837.61,-180.35 847.36,-184.49 847.82,-177.5"/>
</g>
<!-- Node4 -->
<g id="node4" class="node">
<title>Node4</title>
<g id="a_node4"><a xlink:href="mini_r_t__config_8h.html" target="_top" xlink:title=" ">
<polygon fill="none" stroke="black" points="66.73,-168.5 66.73,-187.5 160.73,-187.5 160.73,-168.5 66.73,-168.5"/>
<text text-anchor="middle" x="113.73" y="-175.5" font-family="Helvetica,sans-Serif" font-size="10.00">miniRT_config.h</text>
</a>
</g>
</g>
<!-- Node2&#45;&gt;Node4 -->
<g id="edge3" class="edge">
<title>Node2&#45;&gt;Node4</title>
<path fill="none" stroke="midnightblue" d="M529.57,-397.34C412.37,-384.86 55.1,-339.36 3.73,-244 -10.92,-216.81 22.91,-199.96 56.82,-190.26"/>
<polygon fill="midnightblue" stroke="midnightblue" points="58.06,-193.55 66.82,-187.59 56.25,-186.79 58.06,-193.55"/>
</g>
<!-- Node5 -->
<g id="node5" class="node">
<title>Node5</title>
<g id="a_node5"><a xlink:href="render_8h.html" target="_top" xlink:title=" ">
<polygon fill="none" stroke="black" points="538.73,-336.5 538.73,-355.5 594.73,-355.5 594.73,-336.5 538.73,-336.5"/>
<text text-anchor="middle" x="566.73" y="-343.5" font-family="Helvetica,sans-Serif" font-size="10.00">render.h</text>
</a>
</g>
</g>
<!-- Node2&#45;&gt;Node5 -->
<g id="edge4" class="edge">
<title>Node2&#45;&gt;Node5</title>
<path fill="none" stroke="midnightblue" d="M566.73,-392.08C566.73,-385.01 566.73,-374.86 566.73,-365.99"/>
<polygon fill="midnightblue" stroke="midnightblue" points="570.23,-365.75 566.73,-355.75 563.23,-365.75 570.23,-365.75"/>
</g>
<!-- Node5&#45;&gt;Node3 -->
<g id="edge49" class="edge">
<title>Node5&#45;&gt;Node3</title>
<path fill="none" stroke="midnightblue" d="M594.88,-344.68C696.93,-343.22 1043.08,-335.66 1075.73,-300 1145.53,-223.75 933.42,-191.92 847.32,-182.35"/>
<polygon fill="midnightblue" stroke="midnightblue" points="847.55,-178.86 837.23,-181.27 846.8,-185.82 847.55,-178.86"/>
</g>
<!-- Node5&#45;&gt;Node4 -->
<g id="edge54" class="edge">
<title>Node5&#45;&gt;Node4</title>
<path fill="none" stroke="midnightblue" d="M538.62,-343.17C467.28,-338.23 280.82,-323.41 223.73,-300 185.56,-284.35 176.75,-275.16 149.73,-244 137.47,-229.87 127.55,-210.88 121.25,-197.08"/>
<polygon fill="midnightblue" stroke="midnightblue" points="124.36,-195.47 117.16,-187.71 117.95,-198.27 124.36,-195.47"/>
</g>
<!-- Node6 -->
<g id="node6" class="node">
<title>Node6</title>
<g id="a_node6"><a xlink:title=" ">
<polygon fill="none" stroke="#bfbfbf" points="670.73,-224.5 670.73,-243.5 714.73,-243.5 714.73,-224.5 670.73,-224.5"/>
<text text-anchor="middle" x="692.73" y="-231.5" font-family="Helvetica,sans-Serif" font-size="10.00">mlx.h</text>
</a>
</g>
</g>
<!-- Node5&#45;&gt;Node6 -->
<g id="edge5" class="edge">
<title>Node5&#45;&gt;Node6</title>
<path fill="none" stroke="midnightblue" d="M576.61,-336.37C597.87,-317.81 648.15,-273.91 675.04,-250.44"/>
<polygon fill="midnightblue" stroke="midnightblue" points="677.65,-252.8 682.88,-243.59 673.05,-247.53 677.65,-252.8"/>
</g>
<!-- Node7 -->
<g id="node7" class="node">
<title>Node7</title>
<g id="a_node7"><a xlink:title=" ">
<polygon fill="none" stroke="#bfbfbf" points="746.73,-280.5 746.73,-299.5 812.73,-299.5 812.73,-280.5 746.73,-280.5"/>
<text text-anchor="middle" x="779.73" y="-287.5" font-family="Helvetica,sans-Serif" font-size="10.00">X11/Xlib.h</text>
</a>
</g>
</g>
<!-- Node5&#45;&gt;Node7 -->
<g id="edge6" class="edge">
<title>Node5&#45;&gt;Node7</title>
<path fill="none" stroke="midnightblue" d="M595.01,-337.83C631.26,-328.64 694.45,-312.62 736.68,-301.91"/>
<polygon fill="midnightblue" stroke="midnightblue" points="737.58,-305.3 746.41,-299.45 735.86,-298.51 737.58,-305.3"/>
</g>
<!-- Node8 -->
<g id="node8" class="node">
<title>Node8</title>
<g id="a_node8"><a xlink:title=" ">
<polygon fill="none" stroke="#bfbfbf" points="830.73,-280.5 830.73,-299.5 884.73,-299.5 884.73,-280.5 830.73,-280.5"/>
<text text-anchor="middle" x="857.73" y="-287.5" font-family="Helvetica,sans-Serif" font-size="10.00">X11/X.h</text>
</a>
</g>
</g>
<!-- Node5&#45;&gt;Node8 -->
<g id="edge7" class="edge">
<title>Node5&#45;&gt;Node8</title>
<path fill="none" stroke="midnightblue" d="M594.77,-340.71C640.16,-333.63 732.72,-318.6 820.77,-300.08"/>
<polygon fill="midnightblue" stroke="midnightblue" points="821.59,-303.49 830.65,-297.99 820.14,-296.64 821.59,-303.49"/>
</g>
<!-- Node9 -->
<g id="node9" class="node">
<title>Node9</title>
<g id="a_node9"><a xlink:title=" ">
<polygon fill="none" stroke="#bfbfbf" points="902.73,-280.5 902.73,-299.5 988.73,-299.5 988.73,-280.5 902.73,-280.5"/>
<text text-anchor="middle" x="945.73" y="-287.5" font-family="Helvetica,sans-Serif" font-size="10.00">X11/keysym.h</text>
</a>
</g>
</g>
<!-- Node5&#45;&gt;Node9 -->
<g id="edge8" class="edge">
<title>Node5&#45;&gt;Node9</title>
<path fill="none" stroke="midnightblue" d="M594.77,-341.47C649.77,-334.49 775.89,-318.11 892.45,-300.15"/>
<polygon fill="midnightblue" stroke="midnightblue" points="893.27,-303.57 902.61,-298.58 892.2,-296.65 893.27,-303.57"/>
</g>
<!-- Node10 -->
<g id="node10" class="node">
<title>Node10</title>
<g id="a_node10"><a xlink:href="error__mlx_8h.html" target="_top" xlink:title=" ">
<polygon fill="none" stroke="black" points="655.23,-280.5 655.23,-299.5 728.23,-299.5 728.23,-280.5 655.23,-280.5"/>
<text text-anchor="middle" x="691.73" y="-287.5" font-family="Helvetica,sans-Serif" font-size="10.00">error_mlx.h</text>
</a>
</g>
</g>
<!-- Node5&#45;&gt;Node10 -->
<g id="edge9" class="edge">
<title>Node5&#45;&gt;Node10</title>
<path fill="none" stroke="midnightblue" d="M586.53,-336.44C607.01,-327.6 639.21,-313.69 662.59,-303.59"/>
<polygon fill="midnightblue" stroke="midnightblue" points="664.22,-306.7 672.01,-299.52 661.44,-300.27 664.22,-306.7"/>
</g>
<!-- Node16 -->
<g id="node16" class="node">
<title>Node16</title>
<g id="a_node16"><a xlink:href="entities_8h.html" target="_top" xlink:title=" ">
<polygon fill="none" stroke="black" points="450.73,-168.5 450.73,-187.5 512.73,-187.5 512.73,-168.5 450.73,-168.5"/>
<text text-anchor="middle" x="481.73" y="-175.5" font-family="Helvetica,sans-Serif" font-size="10.00">entities.h</text>
</a>
</g>
</g>
<!-- Node5&#45;&gt;Node16 -->
<g id="edge57" class="edge">
<title>Node5&#45;&gt;Node16</title>
<path fill="none" stroke="midnightblue" d="M554.07,-336.2C542.85,-327.9 526.6,-314.57 515.73,-300 499.31,-278.01 497.27,-270.38 489.73,-244 485.37,-228.78 483.39,-210.89 482.48,-197.74"/>
<polygon fill="midnightblue" stroke="midnightblue" points="485.97,-197.38 481.93,-187.58 478.98,-197.76 485.97,-197.38"/>
</g>
<!-- Node24 -->
<g id="node24" class="node">
<title>Node24</title>
<g id="a_node24"><a xlink:title=" ">
<polygon fill="none" stroke="#bfbfbf" points="1006.73,-280.5 1006.73,-299.5 1066.73,-299.5 1066.73,-280.5 1006.73,-280.5"/>
<text text-anchor="middle" x="1036.73" y="-287.5" font-family="Helvetica,sans-Serif" font-size="10.00">ft_print.h</text>
</a>
</g>
</g>
<!-- Node5&#45;&gt;Node24 -->
<g id="edge29" class="edge">
<title>Node5&#45;&gt;Node24</title>
<path fill="none" stroke="midnightblue" d="M594.87,-343.26C662.41,-338.84 839.09,-325.76 996.24,-300.06"/>
<polygon fill="midnightblue" stroke="midnightblue" points="997.27,-303.43 1006.57,-298.35 996.13,-296.53 997.27,-303.43"/>
</g>
<!-- Node25 -->
<g id="node25" class="node">
<title>Node25</title>
<g id="a_node25"><a xlink:href="cleanup_8h.html" target="_top" xlink:title=" ">
<polygon fill="none" stroke="black" points="534.73,-280.5 534.73,-299.5 598.73,-299.5 598.73,-280.5 534.73,-280.5"/>
<text text-anchor="middle" x="566.73" y="-287.5" font-family="Helvetica,sans-Serif" font-size="10.00">cleanup.h</text>
</a>
</g>
</g>
<!-- Node5&#45;&gt;Node25 -->
<g id="edge30" class="edge">
<title>Node5&#45;&gt;Node25</title>
<path fill="none" stroke="midnightblue" d="M566.73,-336.08C566.73,-329.01 566.73,-318.86 566.73,-309.99"/>
<polygon fill="midnightblue" stroke="midnightblue" points="570.23,-309.75 566.73,-299.75 563.23,-309.75 570.23,-309.75"/>
</g>
<!-- Node26 -->
<g id="node26" class="node">
<title>Node26</title>
<g id="a_node26"><a xlink:href="mat4__vec3_8h.html" target="_top" xlink:title=" ">
<polygon fill="none" stroke="black" points="262.73,-280.5 262.73,-299.5 342.73,-299.5 342.73,-280.5 262.73,-280.5"/>
<text text-anchor="middle" x="302.73" y="-287.5" font-family="Helvetica,sans-Serif" font-size="10.00">mat4_vec3.h</text>
</a>
</g>
</g>
<!-- Node5&#45;&gt;Node26 -->
<g id="edge34" class="edge">
<title>Node5&#45;&gt;Node26</title>
<path fill="none" stroke="midnightblue" d="M538.47,-339.22C494.14,-330.15 407.64,-312.46 352.65,-301.21"/>
<polygon fill="midnightblue" stroke="midnightblue" points="353.27,-297.77 342.77,-299.19 351.86,-304.62 353.27,-297.77"/>
</g>
<!-- Node28 -->
<g id="node28" class="node">
<title>Node28</title>
<g id="a_node28"><a xlink:href="print_8h.html" target="_top" xlink:title=" ">
<polygon fill="none" stroke="black" points="370.73,-280.5 370.73,-299.5 418.73,-299.5 418.73,-280.5 370.73,-280.5"/>
<text text-anchor="middle" x="394.73" y="-287.5" font-family="Helvetica,sans-Serif" font-size="10.00">print.h</text>
</a>
</g>
</g>
<!-- Node5&#45;&gt;Node28 -->
<g id="edge38" class="edge">
<title>Node5&#45;&gt;Node28</title>
<path fill="none" stroke="midnightblue" d="M539.47,-336.44C509.47,-327.02 461.2,-311.87 428.74,-301.68"/>
<polygon fill="midnightblue" stroke="midnightblue" points="429.39,-298.21 418.8,-298.56 427.29,-304.89 429.39,-298.21"/>
</g>
<!-- Node29 -->
<g id="node29" class="node">
<title>Node29</title>
<g id="a_node29"><a xlink:href="camera_8h.html" target="_top" xlink:title=" ">
<polygon fill="none" stroke="black" points="158.73,-224.5 158.73,-243.5 220.73,-243.5 220.73,-224.5 158.73,-224.5"/>
<text text-anchor="middle" x="189.73" y="-231.5" font-family="Helvetica,sans-Serif" font-size="10.00">camera.h</text>
</a>
</g>
</g>
<!-- Node5&#45;&gt;Node29 -->
<g id="edge53" class="edge">
<title>Node5&#45;&gt;Node29</title>
<path fill="none" stroke="midnightblue" d="M538.43,-343.24C471.13,-338.7 303.46,-325.14 253.73,-300 231.75,-288.89 212.86,-267.3 201.41,-252.06"/>
<polygon fill="midnightblue" stroke="midnightblue" points="204.25,-250.01 195.57,-243.94 198.57,-254.1 204.25,-250.01"/>
</g>
<!-- Node30 -->
<g id="node30" class="node">
<title>Node30</title>
<g id="a_node30"><a xlink:href="render__menu_8h.html" target="_top" xlink:title=" ">
<polygon fill="none" stroke="black" points="12.73,-224.5 12.73,-243.5 102.73,-243.5 102.73,-224.5 12.73,-224.5"/>
<text text-anchor="middle" x="57.73" y="-231.5" font-family="Helvetica,sans-Serif" font-size="10.00">render_menu.h</text>
</a>
</g>
</g>
<!-- Node5&#45;&gt;Node30 -->
<g id="edge50" class="edge">
<title>Node5&#45;&gt;Node30</title>
<path fill="none" stroke="midnightblue" d="M538.62,-344.79C452.11,-343.76 191.23,-337.54 116.73,-300 95.54,-289.32 78.3,-267.59 68.04,-252.2"/>
<polygon fill="midnightblue" stroke="midnightblue" points="70.9,-250.17 62.59,-243.59 64.98,-253.91 70.9,-250.17"/>
</g>
<!-- Node31 -->
<g id="node31" class="node">
<title>Node31</title>
<g id="a_node31"><a xlink:href="ray_8h.html" target="_top" xlink:title=" ">
<polygon fill="none" stroke="black" points="498.73,-224.5 498.73,-243.5 538.73,-243.5 538.73,-224.5 498.73,-224.5"/>
<text text-anchor="middle" x="518.73" y="-231.5" font-family="Helvetica,sans-Serif" font-size="10.00">ray.h</text>
</a>
</g>
</g>
<!-- Node5&#45;&gt;Node31 -->
<g id="edge55" class="edge">
<title>Node5&#45;&gt;Node31</title>
<path fill="none" stroke="midnightblue" d="M555.57,-336.33C545.89,-328.11 532.41,-314.84 525.73,-300 519.24,-285.59 517.74,-267.63 517.72,-254.24"/>
<polygon fill="midnightblue" stroke="midnightblue" points="521.23,-253.95 517.99,-243.86 514.23,-253.76 521.23,-253.95"/>
</g>
<!-- Node10&#45;&gt;Node3 -->
<g id="edge28" class="edge">
<title>Node10&#45;&gt;Node3</title>
<path fill="none" stroke="midnightblue" d="M701.17,-280.09C714.55,-267.5 739.84,-243.81 761.73,-224 772.81,-213.97 785.4,-202.86 795.29,-194.19"/>
<polygon fill="midnightblue" stroke="midnightblue" points="797.66,-196.77 802.88,-187.55 793.05,-191.5 797.66,-196.77"/>
</g>
<!-- Node10&#45;&gt;Node6 -->
<g id="edge10" class="edge">
<title>Node10&#45;&gt;Node6</title>
<path fill="none" stroke="midnightblue" d="M691.89,-280.08C692.02,-273.01 692.21,-262.86 692.37,-253.99"/>
<polygon fill="midnightblue" stroke="midnightblue" points="695.88,-253.81 692.56,-243.75 688.88,-253.68 695.88,-253.81"/>
</g>
<!-- Node11 -->
<g id="node11" class="node">
<title>Node11</title>
<g id="a_node11"><a xlink:href="error__type_8h.html" target="_top" xlink:title=" ">
<polygon fill="none" stroke="black" points="770.73,-224.5 770.73,-243.5 846.73,-243.5 846.73,-224.5 770.73,-224.5"/>
<text text-anchor="middle" x="808.73" y="-231.5" font-family="Helvetica,sans-Serif" font-size="10.00">error_type.h</text>
</a>
</g>
</g>
<!-- Node10&#45;&gt;Node11 -->
<g id="edge11" class="edge">
<title>Node10&#45;&gt;Node11</title>
<path fill="none" stroke="midnightblue" d="M710.26,-280.44C729.35,-271.64 759.3,-257.81 781.16,-247.72"/>
<polygon fill="midnightblue" stroke="midnightblue" points="782.66,-250.88 790.27,-243.52 779.73,-244.53 782.66,-250.88"/>
</g>
<!-- Node12 -->
<g id="node12" class="node">
<title>Node12</title>
<g id="a_node12"><a xlink:href="error__msg_8h.html" target="_top" xlink:title=" ">
<polygon fill="none" stroke="black" points="1161.23,-224.5 1161.23,-243.5 1236.23,-243.5 1236.23,-224.5 1161.23,-224.5"/>
<text text-anchor="middle" x="1198.73" y="-231.5" font-family="Helvetica,sans-Serif" font-size="10.00">error_msg.h</text>
</a>
</g>
</g>
<!-- Node10&#45;&gt;Node12 -->
<g id="edge12" class="edge">
<title>Node10&#45;&gt;Node12</title>
<path fill="none" stroke="midnightblue" d="M728.33,-281.51C731.5,-280.96 734.67,-280.45 737.73,-280 887.82,-258.04 1067.02,-244.01 1150.94,-238.15"/>
<polygon fill="midnightblue" stroke="midnightblue" points="1151.2,-241.64 1160.93,-237.46 1150.71,-234.65 1151.2,-241.64"/>
</g>
<!-- Node13 -->
<g id="node13" class="node">
<title>Node13</title>
<g id="a_node13"><a xlink:title=" ">
<polygon fill="none" stroke="#bfbfbf" points="579.73,-56.5 579.73,-75.5 629.73,-75.5 629.73,-56.5 579.73,-56.5"/>
<text text-anchor="middle" x="604.73" y="-63.5" font-family="Helvetica,sans-Serif" font-size="10.00">stdio.h</text>
</a>
</g>
</g>
<!-- Node12&#45;&gt;Node13 -->
<g id="edge13" class="edge">
<title>Node12&#45;&gt;Node13</title>
<path fill="none" stroke="midnightblue" d="M1168.04,-224.42C1067.22,-196.25 746.54,-106.63 639.72,-76.78"/>
<polygon fill="midnightblue" stroke="midnightblue" points="640.35,-73.32 629.78,-74 638.47,-80.06 640.35,-73.32"/>
</g>
<!-- Node14 -->
<g id="node14" class="node">
<title>Node14</title>
<g id="a_node14"><a xlink:title=" ">
<polygon fill="none" stroke="#bfbfbf" points="1139.23,-168.5 1139.23,-187.5 1190.23,-187.5 1190.23,-168.5 1139.23,-168.5"/>
<text text-anchor="middle" x="1164.73" y="-175.5" font-family="Helvetica,sans-Serif" font-size="10.00">errno.h</text>
</a>
</g>
</g>
<!-- Node12&#45;&gt;Node14 -->
<g id="edge14" class="edge">
<title>Node12&#45;&gt;Node14</title>
<path fill="none" stroke="midnightblue" d="M1193.11,-224.08C1188.36,-216.53 1181.41,-205.49 1175.57,-196.23"/>
<polygon fill="midnightblue" stroke="midnightblue" points="1178.53,-194.35 1170.24,-187.75 1172.6,-198.08 1178.53,-194.35"/>
</g>
<!-- Node15 -->
<g id="node15" class="node">
<title>Node15</title>
<g id="a_node15"><a xlink:title=" ">
<polygon fill="none" stroke="#bfbfbf" points="1208.23,-168.5 1208.23,-187.5 1255.23,-187.5 1255.23,-168.5 1208.23,-168.5"/>
<text text-anchor="middle" x="1231.73" y="-175.5" font-family="Helvetica,sans-Serif" font-size="10.00">ft_fd.h</text>
</a>
</g>
</g>
<!-- Node12&#45;&gt;Node15 -->
<g id="edge15" class="edge">
<title>Node12&#45;&gt;Node15</title>
<path fill="none" stroke="midnightblue" d="M1204.18,-224.08C1208.74,-216.61 1215.39,-205.72 1221.02,-196.52"/>
<polygon fill="midnightblue" stroke="midnightblue" points="1224.15,-198.11 1226.38,-187.75 1218.18,-194.46 1224.15,-198.11"/>
</g>
<!-- Node12&#45;&gt;Node16 -->
<g id="edge16" class="edge">
<title>Node12&#45;&gt;Node16</title>
<path fill="none" stroke="midnightblue" d="M1161.19,-230.17C1038.71,-220.95 651.31,-191.77 523.26,-182.13"/>
<polygon fill="midnightblue" stroke="midnightblue" points="523.32,-178.62 513.09,-181.36 522.8,-185.6 523.32,-178.62"/>
</g>
<!-- Node17 -->
<g id="node17" class="node">
<title>Node17</title>
<g id="a_node17"><a xlink:title=" ">
<polygon fill="none" stroke="#bfbfbf" points="368.73,-0.5 368.73,-19.5 430.73,-19.5 430.73,-0.5 368.73,-0.5"/>
<text text-anchor="middle" x="399.73" y="-7.5" font-family="Helvetica,sans-Serif" font-size="10.00">stdbool.h</text>
</a>
</g>
</g>
<!-- Node16&#45;&gt;Node17 -->
<g id="edge17" class="edge">
<title>Node16&#45;&gt;Node17</title>
<path fill="none" stroke="midnightblue" d="M479.98,-168.32C477.25,-155.6 471.38,-131.31 462.73,-112 448.65,-80.57 426.21,-47.27 412.26,-27.85"/>
<polygon fill="midnightblue" stroke="midnightblue" points="415.05,-25.74 406.33,-19.73 409.4,-29.87 415.05,-25.74"/>
</g>
<!-- Node18 -->
<g id="node18" class="node">
<title>Node18</title>
<g id="a_node18"><a xlink:title=" ">
<polygon fill="none" stroke="#bfbfbf" points="633.23,-112.5 633.23,-131.5 686.23,-131.5 686.23,-112.5 633.23,-112.5"/>
<text text-anchor="middle" x="659.73" y="-119.5" font-family="Helvetica,sans-Serif" font-size="10.00">stdlib.h</text>
</a>
</g>
</g>
<!-- Node16&#45;&gt;Node18 -->
<g id="edge18" class="edge">
<title>Node16&#45;&gt;Node18</title>
<path fill="none" stroke="midnightblue" d="M509.93,-168.44C540.58,-159.15 589.66,-144.26 623.22,-134.07"/>
<polygon fill="midnightblue" stroke="midnightblue" points="624.55,-137.33 633.11,-131.08 622.52,-130.63 624.55,-137.33"/>
</g>
<!-- Node19 -->
<g id="node19" class="node">
<title>Node19</title>
<g id="a_node19"><a xlink:href="vec3_8h.html" target="_top" xlink:title=" ">
<polygon fill="none" stroke="black" points="331.23,-112.5 331.23,-131.5 380.23,-131.5 380.23,-112.5 331.23,-112.5"/>
<text text-anchor="middle" x="355.73" y="-119.5" font-family="Helvetica,sans-Serif" font-size="10.00">vec3.h</text>
</a>
</g>
</g>
<!-- Node16&#45;&gt;Node19 -->
<g id="edge19" class="edge">
<title>Node16&#45;&gt;Node19</title>
<path fill="none" stroke="midnightblue" d="M461.76,-168.44C441.12,-159.6 408.66,-145.69 385.09,-135.59"/>
<polygon fill="midnightblue" stroke="midnightblue" points="386.17,-132.24 375.6,-131.52 383.41,-138.67 386.17,-132.24"/>
</g>
<!-- Node21 -->
<g id="node21" class="node">
<title>Node21</title>
<g id="a_node21"><a xlink:href="colour_8h.html" target="_top" xlink:title=" ">
<polygon fill="none" stroke="black" points="398.23,-112.5 398.23,-131.5 453.23,-131.5 453.23,-112.5 398.23,-112.5"/>
<text text-anchor="middle" x="425.73" y="-119.5" font-family="Helvetica,sans-Serif" font-size="10.00">colour.h</text>
</a>
</g>
</g>
<!-- Node16&#45;&gt;Node21 -->
<g id="edge22" class="edge">
<title>Node16&#45;&gt;Node21</title>
<path fill="none" stroke="midnightblue" d="M472.73,-168.32C464.53,-160.42 452.22,-148.55 442.25,-138.94"/>
<polygon fill="midnightblue" stroke="midnightblue" points="444.52,-136.26 434.89,-131.83 439.66,-141.29 444.52,-136.26"/>
</g>
<!-- Node19&#45;&gt;Node17 -->
<g id="edge21" class="edge">
<title>Node19&#45;&gt;Node17</title>
<path fill="none" stroke="midnightblue" d="M361.02,-112.28C366.27,-103.39 374.28,-89.08 379.73,-76 386.1,-60.67 391.51,-42.57 395.09,-29.37"/>
<polygon fill="midnightblue" stroke="midnightblue" points="398.5,-30.16 397.64,-19.6 391.73,-28.39 398.5,-30.16"/>
</g>
<!-- Node20 -->
<g id="node20" class="node">
<title>Node20</title>
<g id="a_node20"><a xlink:title=" ">
<polygon fill="none" stroke="#bfbfbf" points="249.23,-0.5 249.23,-19.5 300.23,-19.5 300.23,-0.5 249.23,-0.5"/>
<text text-anchor="middle" x="274.73" y="-7.5" font-family="Helvetica,sans-Serif" font-size="10.00">math.h</text>
</a>
</g>
</g>
<!-- Node19&#45;&gt;Node20 -->
<g id="edge20" class="edge">
<title>Node19&#45;&gt;Node20</title>
<path fill="none" stroke="midnightblue" d="M331.15,-118.91C304.52,-115.19 263.21,-104.82 243.73,-76 233.19,-60.41 245.75,-40.69 257.89,-27.08"/>
<polygon fill="midnightblue" stroke="midnightblue" points="260.43,-29.5 264.82,-19.86 255.37,-24.66 260.43,-29.5"/>
</g>
<!-- Node21&#45;&gt;Node13 -->
<g id="edge23" class="edge">
<title>Node21&#45;&gt;Node13</title>
<path fill="none" stroke="midnightblue" d="M453.3,-112.68C484.59,-103.24 535.67,-87.83 569.73,-77.56"/>
<polygon fill="midnightblue" stroke="midnightblue" points="571.16,-80.78 579.72,-74.54 569.13,-74.08 571.16,-80.78"/>
</g>
<!-- Node22 -->
<g id="node22" class="node">
<title>Node22</title>
<g id="a_node22"><a xlink:title=" ">
<polygon fill="none" stroke="#bfbfbf" points="253.23,-56.5 253.23,-75.5 306.23,-75.5 306.23,-56.5 253.23,-56.5"/>
<text text-anchor="middle" x="279.73" y="-63.5" font-family="Helvetica,sans-Serif" font-size="10.00">stdint.h</text>
</a>
</g>
</g>
<!-- Node21&#45;&gt;Node22 -->
<g id="edge24" class="edge">
<title>Node21&#45;&gt;Node22</title>
<path fill="none" stroke="midnightblue" d="M402.59,-112.44C378.24,-103.44 339.72,-89.19 312.3,-79.05"/>
<polygon fill="midnightblue" stroke="midnightblue" points="313.35,-75.7 302.75,-75.52 310.92,-82.27 313.35,-75.7"/>
</g>
<!-- Node23 -->
<g id="node23" class="node">
<title>Node23</title>
<g id="a_node23"><a xlink:href="utils_8h.html" target="_top" xlink:title=" ">
<polygon fill="none" stroke="black" points="324.23,-56.5 324.23,-75.5 371.23,-75.5 371.23,-56.5 324.23,-56.5"/>
<text text-anchor="middle" x="347.73" y="-63.5" font-family="Helvetica,sans-Serif" font-size="10.00">utils.h</text>
</a>
</g>
</g>
<!-- Node21&#45;&gt;Node23 -->
<g id="edge25" class="edge">
<title>Node21&#45;&gt;Node23</title>
<path fill="none" stroke="midnightblue" d="M413.19,-112.32C401.14,-103.98 382.7,-91.21 368.46,-81.35"/>
<polygon fill="midnightblue" stroke="midnightblue" points="370.44,-78.47 360.23,-75.65 366.46,-84.22 370.44,-78.47"/>
</g>
<!-- Node23&#45;&gt;Node17 -->
<g id="edge27" class="edge">
<title>Node23&#45;&gt;Node17</title>
<path fill="none" stroke="midnightblue" d="M356.31,-56.08C363.88,-48.22 375.1,-36.57 384.24,-27.08"/>
<polygon fill="midnightblue" stroke="midnightblue" points="386.88,-29.38 391.3,-19.75 381.84,-24.53 386.88,-29.38"/>
</g>
<!-- Node23&#45;&gt;Node20 -->
<g id="edge26" class="edge">
<title>Node23&#45;&gt;Node20</title>
<path fill="none" stroke="midnightblue" d="M336,-56.32C324.89,-48.11 307.98,-35.6 294.74,-25.81"/>
<polygon fill="midnightblue" stroke="midnightblue" points="296.79,-22.97 286.67,-19.83 292.63,-28.59 296.79,-22.97"/>
</g>
<!-- Node25&#45;&gt;Node6 -->
<g id="edge32" class="edge">
<title>Node25&#45;&gt;Node6</title>
<path fill="none" stroke="midnightblue" d="M586.69,-280.44C607.34,-271.6 639.79,-257.69 663.36,-247.59"/>
<polygon fill="midnightblue" stroke="midnightblue" points="665.04,-250.67 672.85,-243.52 662.28,-244.24 665.04,-250.67"/>
</g>
<!-- Node25&#45;&gt;Node16 -->
<g id="edge33" class="edge">
<title>Node25&#45;&gt;Node16</title>
<path fill="none" stroke="midnightblue" d="M566.03,-280.19C564.6,-266.86 560.3,-241.31 547.73,-224 537.99,-210.6 522.97,-199.91 509.72,-192.31"/>
<polygon fill="midnightblue" stroke="midnightblue" points="511.38,-189.23 500.91,-187.56 508.05,-195.39 511.38,-189.23"/>
</g>
<!-- Node25&#45;&gt;Node18 -->
<g id="edge31" class="edge">
<title>Node25&#45;&gt;Node18</title>
<path fill="none" stroke="midnightblue" d="M580.48,-280.21C592.17,-272.1 608.6,-259.06 618.73,-244 640.52,-211.6 651.73,-166.54 656.6,-141.56"/>
<polygon fill="midnightblue" stroke="midnightblue" points="660.07,-142.07 658.41,-131.61 653.18,-140.82 660.07,-142.07"/>
</g>
<!-- Node26&#45;&gt;Node19 -->
<g id="edge35" class="edge">
<title>Node26&#45;&gt;Node19</title>
<path fill="none" stroke="midnightblue" d="M292.29,-280.11C279.32,-267.93 259.81,-245.12 267.73,-224 281.34,-187.66 314.59,-155.79 336.1,-137.99"/>
<polygon fill="midnightblue" stroke="midnightblue" points="338.36,-140.66 343.97,-131.67 333.98,-135.21 338.36,-140.66"/>
</g>
<!-- Node27 -->
<g id="node27" class="node">
<title>Node27</title>
<g id="a_node27"><a xlink:href="mat4_8h.html" target="_top" xlink:title=" ">
<polygon fill="none" stroke="black" points="277.23,-224.5 277.23,-243.5 328.23,-243.5 328.23,-224.5 277.23,-224.5"/>
<text text-anchor="middle" x="302.73" y="-231.5" font-family="Helvetica,sans-Serif" font-size="10.00">mat4.h</text>
</a>
</g>
</g>
<!-- Node26&#45;&gt;Node27 -->
<g id="edge36" class="edge">
<title>Node26&#45;&gt;Node27</title>
<path fill="none" stroke="midnightblue" d="M302.73,-280.08C302.73,-273.01 302.73,-262.86 302.73,-253.99"/>
<polygon fill="midnightblue" stroke="midnightblue" points="306.23,-253.75 302.73,-243.75 299.23,-253.75 306.23,-253.75"/>
</g>
<!-- Node27&#45;&gt;Node23 -->
<g id="edge37" class="edge">
<title>Node27&#45;&gt;Node23</title>
<path fill="none" stroke="midnightblue" d="M303.01,-224.22C303.89,-203.91 307.48,-152.3 321.73,-112 325.14,-102.34 330.64,-92.39 335.71,-84.32"/>
<polygon fill="midnightblue" stroke="midnightblue" points="338.72,-86.1 341.3,-75.83 332.88,-82.25 338.72,-86.1"/>
</g>
<!-- Node28&#45;&gt;Node13 -->
<g id="edge39" class="edge">
<title>Node28&#45;&gt;Node13</title>
<path fill="none" stroke="midnightblue" d="M418.85,-288.59C452.25,-286.72 512.44,-278.4 547.73,-244 592.36,-200.48 602.09,-121.91 604.18,-85.92"/>
<polygon fill="midnightblue" stroke="midnightblue" points="607.68,-85.98 604.62,-75.84 600.69,-85.67 607.68,-85.98"/>
</g>
<!-- Node28&#45;&gt;Node16 -->
<g id="edge48" class="edge">
<title>Node28&#45;&gt;Node16</title>
<path fill="none" stroke="midnightblue" d="M401.55,-280.37C415.97,-262.14 449.75,-219.43 468.54,-195.68"/>
<polygon fill="midnightblue" stroke="midnightblue" points="471.47,-197.61 474.93,-187.59 465.98,-193.26 471.47,-197.61"/>
</g>
<!-- Node28&#45;&gt;Node19 -->
<g id="edge40" class="edge">
<title>Node28&#45;&gt;Node19</title>
<path fill="none" stroke="midnightblue" d="M392.63,-280.08C386.49,-253.95 368.46,-177.21 360.09,-141.58"/>
<polygon fill="midnightblue" stroke="midnightblue" points="363.43,-140.5 357.74,-131.57 356.62,-142.1 363.43,-140.5"/>
</g>
<!-- Node28&#45;&gt;Node21 -->
<g id="edge47" class="edge">
<title>Node28&#45;&gt;Node21</title>
<path fill="none" stroke="midnightblue" d="M396.39,-280.08C401.27,-253.95 415.6,-177.21 422.26,-141.58"/>
<polygon fill="midnightblue" stroke="midnightblue" points="425.73,-142.04 424.13,-131.57 418.85,-140.76 425.73,-142.04"/>
</g>
<!-- Node28&#45;&gt;Node27 -->
<g id="edge41" class="edge">
<title>Node28&#45;&gt;Node27</title>
<path fill="none" stroke="midnightblue" d="M379.94,-280.32C365.46,-271.82 343.15,-258.73 326.23,-248.8"/>
<polygon fill="midnightblue" stroke="midnightblue" points="327.87,-245.7 317.47,-243.65 324.32,-251.74 327.87,-245.7"/>
</g>
<!-- Node28&#45;&gt;Node29 -->
<g id="edge42" class="edge">
<title>Node28&#45;&gt;Node29</title>
<path fill="none" stroke="midnightblue" d="M370.4,-282.59C336.01,-273.53 272.71,-256.86 230.92,-245.85"/>
<polygon fill="midnightblue" stroke="midnightblue" points="231.61,-242.41 221.04,-243.25 229.82,-249.18 231.61,-242.41"/>
</g>
<!-- Node29&#45;&gt;Node3 -->
<g id="edge43" class="edge">
<title>Node29&#45;&gt;Node3</title>
<path fill="none" stroke="midnightblue" d="M220.82,-229.18C235.1,-227.48 252.26,-225.53 267.73,-224 460.23,-204.95 691.54,-187.72 777.94,-181.48"/>
<polygon fill="midnightblue" stroke="midnightblue" points="778.26,-184.96 787.98,-180.76 777.76,-177.98 778.26,-184.96"/>
</g>
<!-- Node29&#45;&gt;Node4 -->
<g id="edge46" class="edge">
<title>Node29&#45;&gt;Node4</title>
<path fill="none" stroke="midnightblue" d="M177.52,-224.32C165.95,-216.11 148.35,-203.6 134.57,-193.81"/>
<polygon fill="midnightblue" stroke="midnightblue" points="136.34,-190.77 126.16,-187.83 132.28,-196.48 136.34,-190.77"/>
</g>
<!-- Node29&#45;&gt;Node19 -->
<g id="edge44" class="edge">
<title>Node29&#45;&gt;Node19</title>
<path fill="none" stroke="midnightblue" d="M195.95,-224.34C206.09,-210.77 227.4,-184.34 250.73,-168 272.32,-152.87 299.81,-141.32 321.24,-133.71"/>
<polygon fill="midnightblue" stroke="midnightblue" points="322.59,-136.95 330.92,-130.39 320.32,-130.33 322.59,-136.95"/>
</g>
<!-- Node29&#45;&gt;Node23 -->
<g id="edge45" class="edge">
<title>Node29&#45;&gt;Node23</title>
<path fill="none" stroke="midnightblue" d="M193.09,-224.36C198.47,-211.27 209.9,-186.01 224.73,-168 254.57,-131.74 299,-99.11 325.5,-81.27"/>
<polygon fill="midnightblue" stroke="midnightblue" points="327.66,-84.03 334.07,-75.6 323.8,-78.2 327.66,-84.03"/>
</g>
<!-- Node30&#45;&gt;Node4 -->
<g id="edge52" class="edge">
<title>Node30&#45;&gt;Node4</title>
<path fill="none" stroke="midnightblue" d="M66.72,-224.32C74.92,-216.42 87.23,-204.55 97.2,-194.94"/>
<polygon fill="midnightblue" stroke="midnightblue" points="99.8,-197.29 104.56,-187.83 94.94,-192.26 99.8,-197.29"/>
</g>
<!-- Node30&#45;&gt;Node22 -->
<g id="edge51" class="edge">
<title>Node30&#45;&gt;Node22</title>
<path fill="none" stroke="midnightblue" d="M54.94,-224.18C51.3,-210.84 46.61,-185.27 57.73,-168 98.78,-104.21 191.1,-80.24 242.83,-71.6"/>
<polygon fill="midnightblue" stroke="midnightblue" points="243.57,-75.02 252.91,-70.02 242.49,-68.11 243.57,-75.02"/>
</g>
<!-- Node31&#45;&gt;Node16 -->
<g id="edge56" class="edge">
<title>Node31&#45;&gt;Node16</title>
<path fill="none" stroke="midnightblue" d="M512.62,-224.08C507.44,-216.53 499.88,-205.49 493.53,-196.23"/>
<polygon fill="midnightblue" stroke="midnightblue" points="496.26,-194.02 487.72,-187.75 490.49,-197.98 496.26,-194.02"/>
</g>
</g>
</svg>
