<?xml version="1.0" encoding="UTF-8" standalone="no"?>
<!DOCTYPE svg PUBLIC "-//W3C//DTD SVG 1.1//EN"
 "http://www.w3.org/Graphics/SVG/1.1/DTD/svg11.dtd">
<!-- Generated by graphviz version 2.43.0 (0)
 -->
<!-- Title: ft_put_inc Pages: 1 -->
<svg width="294pt" height="104pt"
 viewBox="0.00 0.00 294.00 104.00" xmlns="http://www.w3.org/2000/svg" xmlns:xlink="http://www.w3.org/1999/xlink">
<g id="graph0" class="graph" transform="scale(1 1) rotate(0) translate(4 100)">
<title>ft_put_inc</title>
<!-- Node1 -->
<g id="node1" class="node">
<title>Node1</title>
<g id="a_node1"><a xlink:title="Puts the current increment mode on the screen.">
<polygon fill="#bfbfbf" stroke="black" points="0,-38.5 0,-57.5 64,-57.5 64,-38.5 0,-38.5"/>
<text text-anchor="middle" x="32" y="-45.5" font-family="Helvetica,sans-Serif" font-size="10.00">ft_put_inc</text>
</a>
</g>
</g>
<!-- Node2 -->
<g id="node2" class="node">
<title>Node2</title>
<g id="a_node2"><a xlink:href="render__bit__field_8h.html#aea0daf263880cbf1cf1a0dd050320e7a" target="_top" xlink:title="Checks if bit is set in the bit field.">
<polygon fill="none" stroke="black" points="100,-76.5 100,-95.5 188,-95.5 188,-76.5 100,-76.5"/>
<text text-anchor="middle" x="144" y="-83.5" font-family="Helvetica,sans-Serif" font-size="10.00">ft_option_isset</text>
</a>
</g>
</g>
<!-- Node1&#45;&gt;Node2 -->
<g id="edge1" class="edge">
<title>Node1&#45;&gt;Node2</title>
<path fill="none" stroke="midnightblue" d="M60.76,-57.59C74.31,-62.27 90.81,-67.97 105.46,-73.03"/>
<polygon fill="midnightblue" stroke="midnightblue" points="104.66,-76.46 115.25,-76.41 106.94,-69.84 104.66,-76.46"/>
</g>
<!-- Node3 -->
<g id="node3" class="node">
<title>Node3</title>
<g id="a_node3"><a xlink:href="menu__put_8h.html#abba80f1bfc48c436f54f5a0740683a75" target="_top" xlink:title="Converts float to string and puts it on the screen.">
<polygon fill="none" stroke="black" points="108.5,-38.5 108.5,-57.5 179.5,-57.5 179.5,-38.5 108.5,-38.5"/>
<text text-anchor="middle" x="144" y="-45.5" font-family="Helvetica,sans-Serif" font-size="10.00">ft_put_float</text>
</a>
</g>
</g>
<!-- Node1&#45;&gt;Node3 -->
<g id="edge2" class="edge">
<title>Node1&#45;&gt;Node3</title>
<path fill="none" stroke="midnightblue" d="M64.23,-48C74.73,-48 86.67,-48 98.02,-48"/>
<polygon fill="midnightblue" stroke="midnightblue" points="98.21,-51.5 108.21,-48 98.21,-44.5 98.21,-51.5"/>
</g>
<!-- Node5 -->
<g id="node5" class="node">
<title>Node5</title>
<g id="a_node5"><a xlink:href="menu__put_8h.html#a1a2da0ddd033aa4e2ad293ef4b8db2af" target="_top" xlink:title="Wrapper for mlx_string_put().">
<polygon fill="none" stroke="black" points="113,-0.5 113,-19.5 175,-19.5 175,-0.5 113,-0.5"/>
<text text-anchor="middle" x="144" y="-7.5" font-family="Helvetica,sans-Serif" font-size="10.00">ft_put_str</text>
</a>
</g>
</g>
<!-- Node1&#45;&gt;Node5 -->
<g id="edge4" class="edge">
<title>Node1&#45;&gt;Node5</title>
<path fill="none" stroke="midnightblue" d="M60.76,-38.41C74.31,-33.73 90.81,-28.03 105.46,-22.97"/>
<polygon fill="midnightblue" stroke="midnightblue" points="106.94,-26.16 115.25,-19.59 104.66,-19.54 106.94,-26.16"/>
</g>
<!-- Node4 -->
<g id="node4" class="node">
<title>Node4</title>
<g id="a_node4"><a xlink:href="menu__put__str__num_8c.html#a1a2da0ddd033aa4e2ad293ef4b8db2af" target="_top" xlink:title="Wrapper for mlx_string_put().">
<polygon fill="none" stroke="black" points="224,-38.5 224,-57.5 286,-57.5 286,-38.5 224,-38.5"/>
<text text-anchor="middle" x="255" y="-45.5" font-family="Helvetica,sans-Serif" font-size="10.00">ft_put_str</text>
</a>
</g>
</g>
<!-- Node3&#45;&gt;Node4 -->
<g id="edge3" class="edge">
<title>Node3&#45;&gt;Node4</title>
<path fill="none" stroke="midnightblue" d="M179.79,-48C190.55,-48 202.5,-48 213.61,-48"/>
<polygon fill="midnightblue" stroke="midnightblue" points="213.94,-51.5 223.94,-48 213.94,-44.5 213.94,-51.5"/>
</g>
</g>
</svg>
