<?xml version="1.0" encoding="UTF-8" standalone="no"?>
<!DOCTYPE svg PUBLIC "-//W3C//DTD SVG 1.1//EN"
 "http://www.w3.org/Graphics/SVG/1.1/DTD/svg11.dtd">
<!-- Generated by graphviz version 2.43.0 (0)
 -->
<!-- Title: ft_put_single_float_value Pages: 1 -->
<svg width="319pt" height="66pt"
 viewBox="0.00 0.00 319.00 66.00" xmlns="http://www.w3.org/2000/svg" xmlns:xlink="http://www.w3.org/1999/xlink">
<g id="graph0" class="graph" transform="scale(1 1) rotate(0) translate(4 62)">
<title>ft_put_single_float_value</title>
<!-- Node1 -->
<g id="node1" class="node">
<title>Node1</title>
<g id="a_node1"><a xlink:title="Puts a single float value on the screen.">
<polygon fill="#bfbfbf" stroke="black" points="0,-14 0,-44 106,-44 106,-14 0,-14"/>
<text text-anchor="start" x="8" y="-32" font-family="Helvetica,sans-Serif" font-size="10.00">ft_put_single_float</text>
<text text-anchor="middle" x="53" y="-21" font-family="Helvetica,sans-Serif" font-size="10.00">_value</text>
</a>
</g>
</g>
<!-- Node2 -->
<g id="node2" class="node">
<title>Node2</title>
<g id="a_node2"><a xlink:href="menu__put_8h.html#abba80f1bfc48c436f54f5a0740683a75" target="_top" xlink:title="Converts float to string and puts it on the screen.">
<polygon fill="none" stroke="black" points="142,-38.5 142,-57.5 213,-57.5 213,-38.5 142,-38.5"/>
<text text-anchor="middle" x="177.5" y="-45.5" font-family="Helvetica,sans-Serif" font-size="10.00">ft_put_float</text>
</a>
</g>
</g>
<!-- Node1&#45;&gt;Node2 -->
<g id="edge1" class="edge">
<title>Node1&#45;&gt;Node2</title>
<path fill="none" stroke="midnightblue" d="M106.31,-37.11C114.72,-38.42 123.36,-39.76 131.58,-41.03"/>
<polygon fill="midnightblue" stroke="midnightblue" points="131.3,-44.53 141.72,-42.61 132.37,-37.61 131.3,-44.53"/>
</g>
<!-- Node4 -->
<g id="node4" class="node">
<title>Node4</title>
<g id="a_node4"><a xlink:href="menu__put_8h.html#a1a2da0ddd033aa4e2ad293ef4b8db2af" target="_top" xlink:title="Wrapper for mlx_string_put().">
<polygon fill="none" stroke="black" points="146.5,-0.5 146.5,-19.5 208.5,-19.5 208.5,-0.5 146.5,-0.5"/>
<text text-anchor="middle" x="177.5" y="-7.5" font-family="Helvetica,sans-Serif" font-size="10.00">ft_put_str</text>
</a>
</g>
</g>
<!-- Node1&#45;&gt;Node4 -->
<g id="edge3" class="edge">
<title>Node1&#45;&gt;Node4</title>
<path fill="none" stroke="midnightblue" d="M106.31,-20.89C116.34,-19.33 126.69,-17.73 136.27,-16.24"/>
<polygon fill="midnightblue" stroke="midnightblue" points="136.95,-19.68 146.3,-14.68 135.88,-12.76 136.95,-19.68"/>
</g>
<!-- Node3 -->
<g id="node3" class="node">
<title>Node3</title>
<g id="a_node3"><a xlink:href="menu__put__str__num_8c.html#a1a2da0ddd033aa4e2ad293ef4b8db2af" target="_top" xlink:title="Wrapper for mlx_string_put().">
<polygon fill="none" stroke="black" points="249,-38.5 249,-57.5 311,-57.5 311,-38.5 249,-38.5"/>
<text text-anchor="middle" x="280" y="-45.5" font-family="Helvetica,sans-Serif" font-size="10.00">ft_put_str</text>
</a>
</g>
</g>
<!-- Node2&#45;&gt;Node3 -->
<g id="edge2" class="edge">
<title>Node2&#45;&gt;Node3</title>
<path fill="none" stroke="midnightblue" d="M213.09,-48C221.32,-48 230.18,-48 238.65,-48"/>
<polygon fill="midnightblue" stroke="midnightblue" points="238.71,-51.5 248.71,-48 238.71,-44.5 238.71,-51.5"/>
</g>
</g>
</svg>
