<?xml version="1.0" encoding="UTF-8" standalone="no"?>
<!DOCTYPE svg PUBLIC "-//W3C//DTD SVG 1.1//EN"
 "http://www.w3.org/Graphics/SVG/1.1/DTD/svg11.dtd">
<!-- Generated by graphviz version 2.43.0 (0)
 -->
<!-- Title: ft_put_ctrl_hittable Pages: 1 -->
<!--zoomable 246 -->
<svg id="main" version="1.1" xmlns="http://www.w3.org/2000/svg" xmlns:xlink="http://www.w3.org/1999/xlink" xml:space="preserve" onload="init(evt)">
<style type="text/css"><![CDATA[
.edge:hover path { stroke: red; }
.edge:hover polygon { stroke: red; fill: red; }
]]></style>
<script type="text/javascript"><![CDATA[
var edges = document.getElementsByTagName('g');
if (edges && edges.length) {
  for (var i=0;i<edges.length;i++) {
    if (edges[i].id.substr(0,4)=='edge') {
      edges[i].setAttribute('class','edge');
    }
  }
}
]]></script>
        <defs>
                <circle id="rim" cx="0" cy="0" r="7"/>
                <circle id="rim2" cx="0" cy="0" r="3.5"/>
                <g id="zoomPlus">
                        <use xlink:href="#rim" fill="#404040">
                                <set attributeName="fill" to="#808080" begin="zoomplus.mouseover" end="zoomplus.mouseout"/>
                        </use>
                        <path d="M-4,0h8M0,-4v8" fill="none" stroke="white" stroke-width="1.5" pointer-events="none"/>
                </g>
                <g id="zoomMin">
                        <use xlink:href="#rim" fill="#404040">
                                <set attributeName="fill" to="#808080" begin="zoomminus.mouseover" end="zoomminus.mouseout"/>
                        </use>
                        <path d="M-4,0h8" fill="none" stroke="white" stroke-width="1.5" pointer-events="none"/>
                </g>
                <g id="dirArrow">
                        <path fill="none" stroke="white" stroke-width="1.5" d="M0,-3.0v7 M-2.5,-0.5L0,-3.0L2.5,-0.5"/>
                </g>
               <g id="resetDef">
                       <use xlink:href="#rim2" fill="#404040">
                               <set attributeName="fill" to="#808080" begin="reset.mouseover" end="reset.mouseout"/>
                       </use>
               </g>
        </defs>

<script type="text/javascript">
var viewWidth = 545;
var viewHeight = 246;
var sectionId = 'dynsection-17';
</script>
<script xlink:href="svgpan.js"/>
<svg id="graph" class="graph">
<g id="viewport">
<title>ft_put_ctrl_hittable</title>
<!-- Node1 -->
<g id="node1" class="node">
<title>Node1</title>
<g id="a_node1"><a xlink:title="Puts control scheme for hittable on the screen.">
<polygon fill="#bfbfbf" stroke="black" points="0,-114.5 0,-133.5 108,-133.5 108,-114.5 0,-114.5"/>
<text text-anchor="middle" x="54" y="-121.5" font-family="Helvetica,sans-Serif" font-size="10.00">ft_put_ctrl_hittable</text>
</a>
</g>
</g>
<!-- Node2 -->
<g id="node2" class="node">
<title>Node2</title>
<g id="a_node2"><a xlink:href="menu__put__hittable__ctrl_8c.html#a458660b29d84e5f35cb7d4e7fc1e0308" target="_top" xlink:title="Puts control scheme for cylinder on the screen.">
<polygon fill="none" stroke="black" points="169,-114.5 169,-133.5 251,-133.5 251,-114.5 169,-114.5"/>
<text text-anchor="middle" x="210" y="-121.5" font-family="Helvetica,sans-Serif" font-size="10.00">ft_put_ctrl_cy</text>
</a>
</g>
</g>
<!-- Node1&#45;&gt;Node2 -->
<g id="edge1" class="edge">
<title>Node1&#45;&gt;Node2</title>
<path fill="none" stroke="midnightblue" d="M108.43,-124C124.68,-124 142.47,-124 158.52,-124"/>
<polygon fill="midnightblue" stroke="midnightblue" points="158.78,-127.5 168.78,-124 158.78,-120.5 158.78,-127.5"/>
</g>
<!-- Node9 -->
<g id="node9" class="node">
<title>Node9</title>
<g id="a_node9"><a xlink:href="menu__put__hittable__ctrl_8c.html#abd4665c14b3ab0c1c22d5b2b93b898b6" target="_top" xlink:title="Puts control scheme for plane on the screen.">
<polygon fill="none" stroke="black" points="170,-76.5 170,-95.5 250,-95.5 250,-76.5 170,-76.5"/>
<text text-anchor="middle" x="210" y="-83.5" font-family="Helvetica,sans-Serif" font-size="10.00">ft_put_ctrl_pl</text>
</a>
</g>
</g>
<!-- Node1&#45;&gt;Node9 -->
<g id="edge12" class="edge">
<title>Node1&#45;&gt;Node9</title>
<path fill="none" stroke="midnightblue" d="M93.86,-114.41C114.09,-109.42 139.02,-103.27 160.5,-97.97"/>
<polygon fill="midnightblue" stroke="midnightblue" points="161.55,-101.31 170.42,-95.52 159.87,-94.52 161.55,-101.31"/>
</g>
<!-- Node10 -->
<g id="node10" class="node">
<title>Node10</title>
<g id="a_node10"><a xlink:href="menu__put__hittable__ctrl_8c.html#a068dec8435039453ac1f404de98bd31c" target="_top" xlink:title="Puts control scheme for sphere on the screen.">
<polygon fill="none" stroke="black" points="169,-152.5 169,-171.5 251,-171.5 251,-152.5 169,-152.5"/>
<text text-anchor="middle" x="210" y="-159.5" font-family="Helvetica,sans-Serif" font-size="10.00">ft_put_ctrl_sp</text>
</a>
</g>
</g>
<!-- Node1&#45;&gt;Node10 -->
<g id="edge17" class="edge">
<title>Node1&#45;&gt;Node10</title>
<path fill="none" stroke="midnightblue" d="M93.86,-133.59C114.09,-138.58 139.02,-144.73 160.5,-150.03"/>
<polygon fill="midnightblue" stroke="midnightblue" points="159.87,-153.48 170.42,-152.48 161.55,-146.69 159.87,-153.48"/>
</g>
<!-- Node11 -->
<g id="node11" class="node">
<title>Node11</title>
<g id="a_node11"><a xlink:href="menu__put_8h.html#a297dd823c51fe8c418aa75fc1cbfa0a5" target="_top" xlink:title="Puts a string and moves to next line.">
<polygon fill="none" stroke="black" points="144,-19.5 144,-38.5 276,-38.5 276,-19.5 144,-19.5"/>
<text text-anchor="middle" x="210" y="-26.5" font-family="Helvetica,sans-Serif" font-size="10.00">ft_put_str_and_advance</text>
</a>
</g>
</g>
<!-- Node1&#45;&gt;Node11 -->
<g id="edge22" class="edge">
<title>Node1&#45;&gt;Node11</title>
<path fill="none" stroke="midnightblue" d="M69.69,-114.33C87.24,-102.85 117.55,-83.19 144,-67 156.76,-59.19 171.09,-50.77 183.05,-43.85"/>
<polygon fill="midnightblue" stroke="midnightblue" points="185.14,-46.68 192.05,-38.66 181.64,-40.62 185.14,-46.68"/>
</g>
<!-- Node13 -->
<g id="node13" class="node">
<title>Node13</title>
<g id="a_node13"><a xlink:href="menu__put_8h.html#a8d53c0c28e59d4db8e6bb03ee433f724" target="_top" xlink:title="Puts the type of a hittable or a light on the screen.">
<polygon fill="none" stroke="black" points="174.5,-209.5 174.5,-228.5 245.5,-228.5 245.5,-209.5 174.5,-209.5"/>
<text text-anchor="middle" x="210" y="-216.5" font-family="Helvetica,sans-Serif" font-size="10.00">ft_put_type</text>
</a>
</g>
</g>
<!-- Node1&#45;&gt;Node13 -->
<g id="edge24" class="edge">
<title>Node1&#45;&gt;Node13</title>
<path fill="none" stroke="midnightblue" d="M69.69,-133.67C87.24,-145.15 117.55,-164.81 144,-181 156.76,-188.81 171.09,-197.23 183.05,-204.15"/>
<polygon fill="midnightblue" stroke="midnightblue" points="181.64,-207.38 192.05,-209.34 185.14,-201.32 181.64,-207.38"/>
</g>
<!-- Node3 -->
<g id="node3" class="node">
<title>Node3</title>
<g id="a_node3"><a xlink:href="menu__put_8h.html#a5aceec72932738d71b7d1bbd95ce525c" target="_top" xlink:title="Puts control scheme for changing active entity on the screen.">
<polygon fill="none" stroke="black" points="312,-114.5 312,-133.5 439,-133.5 439,-114.5 312,-114.5"/>
<text text-anchor="middle" x="375.5" y="-121.5" font-family="Helvetica,sans-Serif" font-size="10.00">ft_put_ctrl_change_ent</text>
</a>
</g>
</g>
<!-- Node2&#45;&gt;Node3 -->
<g id="edge2" class="edge">
<title>Node2&#45;&gt;Node3</title>
<path fill="none" stroke="midnightblue" d="M251.42,-124C266.67,-124 284.54,-124 301.85,-124"/>
<polygon fill="midnightblue" stroke="midnightblue" points="301.95,-127.5 311.95,-124 301.95,-120.5 301.95,-127.5"/>
</g>
<!-- Node5 -->
<g id="node5" class="node">
<title>Node5</title>
<g id="a_node5"><a xlink:href="menu__put_8h.html#a50838cd4750b34dedcc348fbdc91f908" target="_top" xlink:title="Puts control scheme for changing colour on the screen.">
<polygon fill="none" stroke="black" points="325,-76.5 325,-95.5 426,-95.5 426,-76.5 325,-76.5"/>
<text text-anchor="middle" x="375.5" y="-83.5" font-family="Helvetica,sans-Serif" font-size="10.00">ft_put_ctrl_colour</text>
</a>
</g>
</g>
<!-- Node2&#45;&gt;Node5 -->
<g id="edge4" class="edge">
<title>Node2&#45;&gt;Node5</title>
<path fill="none" stroke="midnightblue" d="M251.42,-114.61C273.16,-109.55 300.21,-103.27 323.4,-97.88"/>
<polygon fill="midnightblue" stroke="midnightblue" points="324.47,-101.22 333.41,-95.55 322.88,-94.4 324.47,-101.22"/>
</g>
<!-- Node6 -->
<g id="node6" class="node">
<title>Node6</title>
<g id="a_node6"><a xlink:href="menu__put_8h.html#a0dd38606280deb85fca8f3d4db628552" target="_top" xlink:title="Puts control scheme for incrementing and decrementing a value on the screen.">
<polygon fill="none" stroke="black" points="322,-190.5 322,-209.5 429,-209.5 429,-190.5 322,-190.5"/>
<text text-anchor="middle" x="375.5" y="-197.5" font-family="Helvetica,sans-Serif" font-size="10.00">ft_put_ctrl_inc_dec</text>
</a>
</g>
</g>
<!-- Node2&#45;&gt;Node6 -->
<g id="edge6" class="edge">
<title>Node2&#45;&gt;Node6</title>
<path fill="none" stroke="midnightblue" d="M251.25,-132.17C259.78,-134.87 268.48,-138.4 276,-143 295.85,-155.13 292.21,-168.77 312,-181 315.38,-183.09 319,-184.96 322.73,-186.64"/>
<polygon fill="midnightblue" stroke="midnightblue" points="321.6,-189.95 332.18,-190.41 324.2,-183.45 321.6,-189.95"/>
</g>
<!-- Node7 -->
<g id="node7" class="node">
<title>Node7</title>
<g id="a_node7"><a xlink:href="menu__put_8h.html#a6387702d64aea5e1908a16e2baf024c0" target="_top" xlink:title="Puts control scheme for movement on the screen.">
<polygon fill="none" stroke="black" points="326.5,-152.5 326.5,-171.5 424.5,-171.5 424.5,-152.5 326.5,-152.5"/>
<text text-anchor="middle" x="375.5" y="-159.5" font-family="Helvetica,sans-Serif" font-size="10.00">ft_put_ctrl_move</text>
</a>
</g>
</g>
<!-- Node2&#45;&gt;Node7 -->
<g id="edge8" class="edge">
<title>Node2&#45;&gt;Node7</title>
<path fill="none" stroke="midnightblue" d="M251.42,-133.39C273.16,-138.45 300.21,-144.73 323.4,-150.12"/>
<polygon fill="midnightblue" stroke="midnightblue" points="322.88,-153.6 333.41,-152.45 324.47,-146.78 322.88,-153.6"/>
</g>
<!-- Node8 -->
<g id="node8" class="node">
<title>Node8</title>
<g id="a_node8"><a xlink:href="menu__put_8h.html#aa437add454e160d93213f33176c86b9f" target="_top" xlink:title="Puts control scheme for rotation on the screen.">
<polygon fill="none" stroke="black" points="333.5,-38.5 333.5,-57.5 417.5,-57.5 417.5,-38.5 333.5,-38.5"/>
<text text-anchor="middle" x="375.5" y="-45.5" font-family="Helvetica,sans-Serif" font-size="10.00">ft_put_ctrl_rot</text>
</a>
</g>
</g>
<!-- Node2&#45;&gt;Node8 -->
<g id="edge10" class="edge">
<title>Node2&#45;&gt;Node8</title>
<path fill="none" stroke="midnightblue" d="M251.25,-115.83C259.78,-113.13 268.48,-109.6 276,-105 295.85,-92.87 292.21,-79.23 312,-67 315.79,-64.66 319.89,-62.58 324.12,-60.75"/>
<polygon fill="midnightblue" stroke="midnightblue" points="325.43,-64 333.5,-57.13 322.91,-57.47 325.43,-64"/>
</g>
<!-- Node4 -->
<g id="node4" class="node">
<title>Node4</title>
<g id="a_node4"><a xlink:href="menu__put_8h.html#a1a2da0ddd033aa4e2ad293ef4b8db2af" target="_top" xlink:title="Wrapper for mlx_string_put().">
<polygon fill="none" stroke="black" points="475,-133.5 475,-152.5 537,-152.5 537,-133.5 475,-133.5"/>
<text text-anchor="middle" x="506" y="-140.5" font-family="Helvetica,sans-Serif" font-size="10.00">ft_put_str</text>
</a>
</g>
</g>
<!-- Node3&#45;&gt;Node4 -->
<g id="edge3" class="edge">
<title>Node3&#45;&gt;Node4</title>
<path fill="none" stroke="midnightblue" d="M439.24,-133.28C447.93,-134.56 456.66,-135.85 464.79,-137.05"/>
<polygon fill="midnightblue" stroke="midnightblue" points="464.31,-140.52 474.72,-138.52 465.33,-133.6 464.31,-140.52"/>
</g>
<!-- Node5&#45;&gt;Node4 -->
<g id="edge5" class="edge">
<title>Node5&#45;&gt;Node4</title>
<path fill="none" stroke="midnightblue" d="M413.03,-95.58C421.68,-98.27 430.78,-101.44 439,-105 453.79,-111.41 469.46,-120.33 481.82,-127.92"/>
<polygon fill="midnightblue" stroke="midnightblue" points="480.23,-131.05 490.56,-133.4 483.95,-125.12 480.23,-131.05"/>
</g>
<!-- Node6&#45;&gt;Node4 -->
<g id="edge7" class="edge">
<title>Node6&#45;&gt;Node4</title>
<path fill="none" stroke="midnightblue" d="M413.03,-190.42C421.68,-187.73 430.78,-184.56 439,-181 453.79,-174.59 469.46,-165.67 481.82,-158.08"/>
<polygon fill="midnightblue" stroke="midnightblue" points="483.95,-160.88 490.56,-152.6 480.23,-154.95 483.95,-160.88"/>
</g>
<!-- Node7&#45;&gt;Node4 -->
<g id="edge9" class="edge">
<title>Node7&#45;&gt;Node4</title>
<path fill="none" stroke="midnightblue" d="M424.71,-154.87C437.84,-152.93 451.93,-150.85 464.58,-148.98"/>
<polygon fill="midnightblue" stroke="midnightblue" points="465.43,-152.39 474.81,-147.46 464.41,-145.46 465.43,-152.39"/>
</g>
<!-- Node8&#45;&gt;Node4 -->
<g id="edge11" class="edge">
<title>Node8&#45;&gt;Node4</title>
<path fill="none" stroke="midnightblue" d="M417.65,-56.9C425.09,-59.5 432.53,-62.8 439,-67 462.13,-82 481.82,-107.38 493.52,-124.65"/>
<polygon fill="midnightblue" stroke="midnightblue" points="490.77,-126.84 499.18,-133.29 496.63,-123 490.77,-126.84"/>
</g>
<!-- Node9&#45;&gt;Node3 -->
<g id="edge13" class="edge">
<title>Node9&#45;&gt;Node3</title>
<path fill="none" stroke="midnightblue" d="M250.16,-95.1C272.15,-100.21 299.84,-106.65 323.51,-112.15"/>
<polygon fill="midnightblue" stroke="midnightblue" points="322.84,-115.59 333.38,-114.44 324.43,-108.77 322.84,-115.59"/>
</g>
<!-- Node9&#45;&gt;Node5 -->
<g id="edge14" class="edge">
<title>Node9&#45;&gt;Node5</title>
<path fill="none" stroke="midnightblue" d="M250.16,-86C269.49,-86 293.23,-86 314.76,-86"/>
<polygon fill="midnightblue" stroke="midnightblue" points="314.8,-89.5 324.8,-86 314.8,-82.5 314.8,-89.5"/>
</g>
<!-- Node9&#45;&gt;Node7 -->
<g id="edge15" class="edge">
<title>Node9&#45;&gt;Node7</title>
<path fill="none" stroke="midnightblue" d="M250.22,-93.85C259.08,-96.59 268.17,-100.22 276,-105 295.85,-117.13 292.21,-130.77 312,-143 315.38,-145.09 319,-146.96 322.73,-148.64"/>
<polygon fill="midnightblue" stroke="midnightblue" points="321.6,-151.95 332.18,-152.41 324.2,-145.45 321.6,-151.95"/>
</g>
<!-- Node9&#45;&gt;Node8 -->
<g id="edge16" class="edge">
<title>Node9&#45;&gt;Node8</title>
<path fill="none" stroke="midnightblue" d="M250.16,-76.9C272.15,-71.79 299.84,-65.35 323.51,-59.85"/>
<polygon fill="midnightblue" stroke="midnightblue" points="324.43,-63.23 333.38,-57.56 322.84,-56.41 324.43,-63.23"/>
</g>
<!-- Node10&#45;&gt;Node3 -->
<g id="edge18" class="edge">
<title>Node10&#45;&gt;Node3</title>
<path fill="none" stroke="midnightblue" d="M251.42,-152.61C273.16,-147.55 300.21,-141.27 323.4,-135.88"/>
<polygon fill="midnightblue" stroke="midnightblue" points="324.47,-139.22 333.41,-133.55 322.88,-132.4 324.47,-139.22"/>
</g>
<!-- Node10&#45;&gt;Node5 -->
<g id="edge19" class="edge">
<title>Node10&#45;&gt;Node5</title>
<path fill="none" stroke="midnightblue" d="M251.25,-153.83C259.78,-151.13 268.48,-147.6 276,-143 295.85,-130.87 292.21,-117.23 312,-105 315.38,-102.91 319,-101.04 322.73,-99.36"/>
<polygon fill="midnightblue" stroke="midnightblue" points="324.2,-102.55 332.18,-95.59 321.6,-96.05 324.2,-102.55"/>
</g>
<!-- Node10&#45;&gt;Node6 -->
<g id="edge20" class="edge">
<title>Node10&#45;&gt;Node6</title>
<path fill="none" stroke="midnightblue" d="M251.42,-171.39C273.16,-176.45 300.21,-182.73 323.4,-188.12"/>
<polygon fill="midnightblue" stroke="midnightblue" points="322.88,-191.6 333.41,-190.45 324.47,-184.78 322.88,-191.6"/>
</g>
<!-- Node10&#45;&gt;Node7 -->
<g id="edge21" class="edge">
<title>Node10&#45;&gt;Node7</title>
<path fill="none" stroke="midnightblue" d="M251.42,-162C271.01,-162 294.9,-162 316.4,-162"/>
<polygon fill="midnightblue" stroke="midnightblue" points="316.41,-165.5 326.41,-162 316.41,-158.5 316.41,-165.5"/>
</g>
<!-- Node12 -->
<g id="node12" class="node">
<title>Node12</title>
<g id="a_node12"><a xlink:href="menu__put__str__num_8c.html#a1a2da0ddd033aa4e2ad293ef4b8db2af" target="_top" xlink:title="Wrapper for mlx_string_put().">
<polygon fill="none" stroke="black" points="344.5,-0.5 344.5,-19.5 406.5,-19.5 406.5,-0.5 344.5,-0.5"/>
<text text-anchor="middle" x="375.5" y="-7.5" font-family="Helvetica,sans-Serif" font-size="10.00">ft_put_str</text>
</a>
</g>
</g>
<!-- Node11&#45;&gt;Node12 -->
<g id="edge23" class="edge">
<title>Node11&#45;&gt;Node12</title>
<path fill="none" stroke="midnightblue" d="M276.09,-21.44C295.56,-19.17 316.34,-16.76 333.77,-14.73"/>
<polygon fill="midnightblue" stroke="midnightblue" points="334.62,-18.16 344.15,-13.53 333.81,-11.2 334.62,-18.16"/>
</g>
<!-- Node13&#45;&gt;Node4 -->
<g id="edge25" class="edge">
<title>Node13&#45;&gt;Node4</title>
<path fill="none" stroke="midnightblue" d="M245.71,-227.55C292.09,-237.13 375.79,-247.82 439,-219 464.74,-207.26 484.32,-179.97 495.24,-161.5"/>
<polygon fill="midnightblue" stroke="midnightblue" points="498.43,-162.97 500.27,-152.53 492.32,-159.54 498.43,-162.97"/>
</g>
</g>
</svg>
        <g id="navigator" transform="translate(0 0)" fill="#404254">
                <rect fill="#f2f5e9" fill-opacity="0.5" stroke="#606060" stroke-width=".5" x="0" y="0" width="60" height="60"/>
                <use id="zoomplus" xlink:href="#zoomPlus" x="17" y="9" onmousedown="handleZoom(evt,'in')"/>
                <use id="zoomminus" xlink:href="#zoomMin" x="42" y="9" onmousedown="handleZoom(evt,'out')"/>
                <use id="reset" xlink:href="#resetDef" x="30" y="36" onmousedown="handleReset()"/>
                <g id="arrowUp" xlink:href="#dirArrow" transform="translate(30 24)" onmousedown="handlePan(0,-1)">
                  <use xlink:href="#rim" fill="#404040">
                        <set attributeName="fill" to="#808080" begin="arrowUp.mouseover" end="arrowUp.mouseout"/>
                  </use>
                  <path fill="none" stroke="white" stroke-width="1.5" d="M0,-3.0v7 M-2.5,-0.5L0,-3.0L2.5,-0.5"/>
                </g>
                <g id="arrowRight" xlink:href="#dirArrow" transform="rotate(90) translate(36 -43)" onmousedown="handlePan(1,0)">
                  <use xlink:href="#rim" fill="#404040">
                        <set attributeName="fill" to="#808080" begin="arrowRight.mouseover" end="arrowRight.mouseout"/>
                  </use>
                  <path fill="none" stroke="white" stroke-width="1.5" d="M0,-3.0v7 M-2.5,-0.5L0,-3.0L2.5,-0.5"/>
                </g>
                <g id="arrowDown" xlink:href="#dirArrow" transform="rotate(180) translate(-30 -48)" onmousedown="handlePan(0,1)">
                  <use xlink:href="#rim" fill="#404040">
                        <set attributeName="fill" to="#808080" begin="arrowDown.mouseover" end="arrowDown.mouseout"/>
                  </use>
                  <path fill="none" stroke="white" stroke-width="1.5" d="M0,-3.0v7 M-2.5,-0.5L0,-3.0L2.5,-0.5"/>
                </g>
                <g id="arrowLeft" xlink:href="#dirArrow" transform="rotate(270) translate(-36 17)" onmousedown="handlePan(-1,0)">
                  <use xlink:href="#rim" fill="#404040">
                        <set attributeName="fill" to="#808080" begin="arrowLeft.mouseover" end="arrowLeft.mouseout"/>
                  </use>
                  <path fill="none" stroke="white" stroke-width="1.5" d="M0,-3.0v7 M-2.5,-0.5L0,-3.0L2.5,-0.5"/>
                </g>
        </g>
        <svg viewBox="0 0 15 15" width="100%" height="30px" preserveAspectRatio="xMaxYMin meet">
         <g id="arrow_out" transform="scale(0.3 0.3)">
          <a xlink:href="menu__put_8h_a4297546f5daae0553e8fb746134a720d_cgraph_org.svg" target="_base">
           <rect id="button" ry="5" rx="5" y="6" x="6" height="38" width="38"
                fill="#f2f5e9" fill-opacity="0.5" stroke="#606060" stroke-width="1.0"/>
           <path id="arrow"
             d="M 11.500037,31.436501 C 11.940474,20.09759 22.043105,11.32322 32.158766,21.979434 L 37.068811,17.246167 C 37.068811,17.246167 37.088388,32 37.088388,32 L 22.160133,31.978069 C 22.160133,31.978069 26.997745,27.140456 26.997745,27.140456 C 18.528582,18.264221 13.291696,25.230495 11.500037,31.436501 z"
             style="fill:#404040;"/>
          </a>
         </g>
        </svg>
</svg>
