<?xml version="1.0" encoding="UTF-8" standalone="no"?>
<!DOCTYPE svg PUBLIC "-//W3C//DTD SVG 1.1//EN"
 "http://www.w3.org/Graphics/SVG/1.1/DTD/svg11.dtd">
<!-- Generated by graphviz version 2.43.0 (0)
 -->
<!-- Title: ft_put_ctrl_move Pages: 1 -->
<!--zoomable 218 -->
<svg id="main" version="1.1" xmlns="http://www.w3.org/2000/svg" xmlns:xlink="http://www.w3.org/1999/xlink" xml:space="preserve" onload="init(evt)">
<style type="text/css"><![CDATA[
.edge:hover path { stroke: red; }
.edge:hover polygon { stroke: red; fill: red; }
]]></style>
<script type="text/javascript"><![CDATA[
var edges = document.getElementsByTagName('g');
if (edges && edges.length) {
  for (var i=0;i<edges.length;i++) {
    if (edges[i].id.substr(0,4)=='edge') {
      edges[i].setAttribute('class','edge');
    }
  }
}
]]></script>
        <defs>
                <circle id="rim" cx="0" cy="0" r="7"/>
                <circle id="rim2" cx="0" cy="0" r="3.5"/>
                <g id="zoomPlus">
                        <use xlink:href="#rim" fill="#404040">
                                <set attributeName="fill" to="#808080" begin="zoomplus.mouseover" end="zoomplus.mouseout"/>
                        </use>
                        <path d="M-4,0h8M0,-4v8" fill="none" stroke="white" stroke-width="1.5" pointer-events="none"/>
                </g>
                <g id="zoomMin">
                        <use xlink:href="#rim" fill="#404040">
                                <set attributeName="fill" to="#808080" begin="zoomminus.mouseover" end="zoomminus.mouseout"/>
                        </use>
                        <path d="M-4,0h8" fill="none" stroke="white" stroke-width="1.5" pointer-events="none"/>
                </g>
                <g id="dirArrow">
                        <path fill="none" stroke="white" stroke-width="1.5" d="M0,-3.0v7 M-2.5,-0.5L0,-3.0L2.5,-0.5"/>
                </g>
               <g id="resetDef">
                       <use xlink:href="#rim2" fill="#404040">
                               <set attributeName="fill" to="#808080" begin="reset.mouseover" end="reset.mouseout"/>
                       </use>
               </g>
        </defs>

<script type="text/javascript">
var viewWidth = 661;
var viewHeight = 218;
var sectionId = 'dynsection-37';
</script>
<script xlink:href="svgpan.js"/>
<svg id="graph" class="graph">
<g id="viewport">
<title>ft_put_ctrl_move</title>
<!-- Node1 -->
<g id="node1" class="node">
<title>Node1</title>
<g id="a_node1"><a xlink:title="Puts control scheme for movement on the screen.">
<polygon fill="#bfbfbf" stroke="black" points="555,-95.5 555,-114.5 653,-114.5 653,-95.5 555,-95.5"/>
<text text-anchor="middle" x="604" y="-102.5" font-family="Helvetica,sans-Serif" font-size="10.00">ft_put_ctrl_move</text>
</a>
</g>
</g>
<!-- Node2 -->
<g id="node2" class="node">
<title>Node2</title>
<g id="a_node2"><a xlink:href="menu__put_8h.html#a6f5886ed0d2e8de8f0df680db3535336" target="_top" xlink:title="Puts control scheme for camera on the screen.">
<polygon fill="none" stroke="black" points="427,-190.5 427,-209.5 519,-209.5 519,-190.5 427,-190.5"/>
<text text-anchor="middle" x="473" y="-197.5" font-family="Helvetica,sans-Serif" font-size="10.00">ft_put_ctrl_cam</text>
</a>
</g>
</g>
<!-- Node1&#45;&gt;Node2 -->
<g id="edge1" class="edge">
<title>Node1&#45;&gt;Node2</title>
<path fill="none" stroke="midnightblue" d="M587.57,-121.96C571.66,-138.68 545.51,-164.1 519,-181 513.42,-184.56 507.07,-187.71 500.92,-190.37"/>
<polygon fill="midnightblue" stroke="midnightblue" points="590.24,-124.23 594.51,-114.53 585.13,-119.45 590.24,-124.23"/>
</g>
<!-- Node5 -->
<g id="node5" class="node">
<title>Node5</title>
<g id="a_node5"><a xlink:href="menu__put_8h.html#af8c58ee6bca605b3e9c5642fcb76cdc5" target="_top" xlink:title="Puts control scheme for cone on the screen.">
<polygon fill="none" stroke="black" points="432,-152.5 432,-171.5 514,-171.5 514,-152.5 432,-152.5"/>
<text text-anchor="middle" x="473" y="-159.5" font-family="Helvetica,sans-Serif" font-size="10.00">ft_put_ctrl_co</text>
</a>
</g>
</g>
<!-- Node1&#45;&gt;Node5 -->
<g id="edge4" class="edge">
<title>Node1&#45;&gt;Node5</title>
<path fill="none" stroke="midnightblue" d="M572.98,-118.8C556.99,-126.1 536.97,-135.14 519,-143 511.85,-146.13 504.03,-149.46 496.94,-152.45"/>
<polygon fill="midnightblue" stroke="midnightblue" points="574.71,-121.86 582.35,-114.52 571.8,-115.49 574.71,-121.86"/>
</g>
<!-- Node8 -->
<g id="node8" class="node">
<title>Node8</title>
<g id="a_node8"><a xlink:href="menu__put_8h.html#a458660b29d84e5f35cb7d4e7fc1e0308" target="_top" xlink:title="Puts control scheme for cylinder on the screen.">
<polygon fill="none" stroke="black" points="432,-114.5 432,-133.5 514,-133.5 514,-114.5 432,-114.5"/>
<text text-anchor="middle" x="473" y="-121.5" font-family="Helvetica,sans-Serif" font-size="10.00">ft_put_ctrl_cy</text>
</a>
</g>
</g>
<!-- Node1&#45;&gt;Node8 -->
<g id="edge8" class="edge">
<title>Node1&#45;&gt;Node8</title>
<path fill="none" stroke="midnightblue" d="M545.04,-113.54C534.57,-115.08 523.87,-116.66 514.05,-118.1"/>
<polygon fill="midnightblue" stroke="midnightblue" points="545.58,-116.99 554.97,-112.07 544.56,-110.07 545.58,-116.99"/>
</g>
<!-- Node9 -->
<g id="node9" class="node">
<title>Node9</title>
<g id="a_node9"><a xlink:href="menu__put_8h.html#acb49d711643bd638023d9317cd528174" target="_top" xlink:title="Puts control scheme for light on the screen.">
<polygon fill="none" stroke="black" points="427,-0.5 427,-19.5 519,-19.5 519,-0.5 427,-0.5"/>
<text text-anchor="middle" x="473" y="-7.5" font-family="Helvetica,sans-Serif" font-size="10.00">ft_put_ctrl_light</text>
</a>
</g>
</g>
<!-- Node1&#45;&gt;Node9 -->
<g id="edge10" class="edge">
<title>Node1&#45;&gt;Node9</title>
<path fill="none" stroke="midnightblue" d="M587.57,-88.04C571.66,-71.32 545.51,-45.9 519,-29 513.42,-25.44 507.07,-22.29 500.92,-19.63"/>
<polygon fill="midnightblue" stroke="midnightblue" points="585.13,-90.55 594.51,-95.47 590.24,-85.77 585.13,-90.55"/>
</g>
<!-- Node11 -->
<g id="node11" class="node">
<title>Node11</title>
<g id="a_node11"><a xlink:href="menu__put_8h.html#abd4665c14b3ab0c1c22d5b2b93b898b6" target="_top" xlink:title="Puts control scheme for plane on the screen.">
<polygon fill="none" stroke="black" points="433,-76.5 433,-95.5 513,-95.5 513,-76.5 433,-76.5"/>
<text text-anchor="middle" x="473" y="-83.5" font-family="Helvetica,sans-Serif" font-size="10.00">ft_put_ctrl_pl</text>
</a>
</g>
</g>
<!-- Node1&#45;&gt;Node11 -->
<g id="edge13" class="edge">
<title>Node1&#45;&gt;Node11</title>
<path fill="none" stroke="midnightblue" d="M544.82,-96.43C534.13,-94.86 523.2,-93.25 513.23,-91.78"/>
<polygon fill="midnightblue" stroke="midnightblue" points="544.56,-99.93 554.97,-97.93 545.58,-93.01 544.56,-99.93"/>
</g>
<!-- Node12 -->
<g id="node12" class="node">
<title>Node12</title>
<g id="a_node12"><a xlink:href="menu__put_8h.html#a068dec8435039453ac1f404de98bd31c" target="_top" xlink:title="Puts control scheme for sphere on the screen.">
<polygon fill="none" stroke="black" points="432,-38.5 432,-57.5 514,-57.5 514,-38.5 432,-38.5"/>
<text text-anchor="middle" x="473" y="-45.5" font-family="Helvetica,sans-Serif" font-size="10.00">ft_put_ctrl_sp</text>
</a>
</g>
</g>
<!-- Node1&#45;&gt;Node12 -->
<g id="edge15" class="edge">
<title>Node1&#45;&gt;Node12</title>
<path fill="none" stroke="midnightblue" d="M572.98,-91.2C556.99,-83.9 536.97,-74.86 519,-67 511.85,-63.87 504.03,-60.54 496.94,-57.55"/>
<polygon fill="midnightblue" stroke="midnightblue" points="571.8,-94.51 582.35,-95.48 574.71,-88.14 571.8,-94.51"/>
</g>
<!-- Node3 -->
<g id="node3" class="node">
<title>Node3</title>
<g id="a_node3"><a xlink:href="menu__put_8h.html#a6466842cb9367072865c07608f1e4c7d" target="_top" xlink:title="Puts a camera page on the screen.">
<polygon fill="none" stroke="black" points="143.5,-161.5 143.5,-180.5 243.5,-180.5 243.5,-161.5 143.5,-161.5"/>
<text text-anchor="middle" x="193.5" y="-168.5" font-family="Helvetica,sans-Serif" font-size="10.00">ft_put_page_cam</text>
</a>
</g>
</g>
<!-- Node2&#45;&gt;Node3 -->
<g id="edge2" class="edge">
<title>Node2&#45;&gt;Node3</title>
<path fill="none" stroke="midnightblue" d="M416.72,-194.22C366.28,-188.95 292.41,-181.23 243.9,-176.16"/>
<polygon fill="midnightblue" stroke="midnightblue" points="416.49,-197.72 426.8,-195.28 417.22,-190.76 416.49,-197.72"/>
</g>
<!-- Node4 -->
<g id="node4" class="node">
<title>Node4</title>
<g id="a_node4"><a xlink:href="menu__put_8h.html#aaa97bcdc39838b3da803447ea82e444c" target="_top" xlink:title="Puts the main page of menu on the screen.">
<polygon fill="none" stroke="black" points="0,-85.5 0,-104.5 104,-104.5 104,-85.5 0,-85.5"/>
<text text-anchor="middle" x="52" y="-92.5" font-family="Helvetica,sans-Serif" font-size="10.00">ft_put_main_page</text>
</a>
</g>
</g>
<!-- Node3&#45;&gt;Node4 -->
<g id="edge3" class="edge">
<title>Node3&#45;&gt;Node4</title>
<path fill="none" stroke="midnightblue" d="M165.97,-156.54C137.94,-141.28 94.56,-117.64 70.52,-104.55"/>
<polygon fill="midnightblue" stroke="midnightblue" points="164.38,-159.66 174.83,-161.37 167.73,-153.52 164.38,-159.66"/>
</g>
<!-- Node6 -->
<g id="node6" class="node">
<title>Node6</title>
<g id="a_node6"><a xlink:href="menu__put_8h.html#a4297546f5daae0553e8fb746134a720d" target="_top" xlink:title="Puts control scheme for hittable on the screen.">
<polygon fill="none" stroke="black" points="283,-85.5 283,-104.5 391,-104.5 391,-85.5 283,-85.5"/>
<text text-anchor="middle" x="337" y="-92.5" font-family="Helvetica,sans-Serif" font-size="10.00">ft_put_ctrl_hittable</text>
</a>
</g>
</g>
<!-- Node5&#45;&gt;Node6 -->
<g id="edge5" class="edge">
<title>Node5&#45;&gt;Node6</title>
<path fill="none" stroke="midnightblue" d="M438.79,-148.4C434.79,-146.64 430.79,-144.81 427,-143 401.2,-130.63 372.17,-114.55 354.49,-104.5"/>
<polygon fill="midnightblue" stroke="midnightblue" points="437.42,-151.62 447.99,-152.36 440.19,-145.19 437.42,-151.62"/>
</g>
<!-- Node7 -->
<g id="node7" class="node">
<title>Node7</title>
<g id="a_node7"><a xlink:href="menu__put_8h.html#a18613445d2379eca738e6cf789dfecf5" target="_top" xlink:title="Puts a scene page on the screen.">
<polygon fill="none" stroke="black" points="140,-85.5 140,-104.5 247,-104.5 247,-85.5 140,-85.5"/>
<text text-anchor="middle" x="193.5" y="-92.5" font-family="Helvetica,sans-Serif" font-size="10.00">ft_put_page_scene</text>
</a>
</g>
</g>
<!-- Node6&#45;&gt;Node7 -->
<g id="edge6" class="edge">
<title>Node6&#45;&gt;Node7</title>
<path fill="none" stroke="midnightblue" d="M272.71,-95C264.26,-95 255.67,-95 247.42,-95"/>
<polygon fill="midnightblue" stroke="midnightblue" points="272.91,-98.5 282.91,-95 272.91,-91.5 272.91,-98.5"/>
</g>
<!-- Node7&#45;&gt;Node4 -->
<g id="edge7" class="edge">
<title>Node7&#45;&gt;Node4</title>
<path fill="none" stroke="midnightblue" d="M129.59,-95C121.17,-95 112.62,-95 104.43,-95"/>
<polygon fill="midnightblue" stroke="midnightblue" points="129.76,-98.5 139.76,-95 129.76,-91.5 129.76,-98.5"/>
</g>
<!-- Node8&#45;&gt;Node6 -->
<g id="edge9" class="edge">
<title>Node8&#45;&gt;Node6</title>
<path fill="none" stroke="midnightblue" d="M421.96,-113.17C408.81,-110.32 394.72,-107.28 381.92,-104.5"/>
<polygon fill="midnightblue" stroke="midnightblue" points="421.28,-116.6 431.8,-115.3 422.76,-109.76 421.28,-116.6"/>
</g>
<!-- Node10 -->
<g id="node10" class="node">
<title>Node10</title>
<g id="a_node10"><a xlink:href="menu__put_8h.html#a11eed0e0d38826c89da2d71031a08593" target="_top" xlink:title="Puts a light page on the screen.">
<polygon fill="none" stroke="black" points="286.5,-28.5 286.5,-47.5 387.5,-47.5 387.5,-28.5 286.5,-28.5"/>
<text text-anchor="middle" x="337" y="-35.5" font-family="Helvetica,sans-Serif" font-size="10.00">ft_put_page_light</text>
</a>
</g>
</g>
<!-- Node9&#45;&gt;Node10 -->
<g id="edge11" class="edge">
<title>Node9&#45;&gt;Node10</title>
<path fill="none" stroke="midnightblue" d="M416.73,-21.55C405.77,-23.84 394.38,-26.22 383.78,-28.43"/>
<polygon fill="midnightblue" stroke="midnightblue" points="417.56,-24.95 426.63,-19.48 416.13,-18.1 417.56,-24.95"/>
</g>
<!-- Node10&#45;&gt;Node4 -->
<g id="edge12" class="edge">
<title>Node10&#45;&gt;Node4</title>
<path fill="none" stroke="midnightblue" d="M276.3,-49.2C237.43,-56.58 185.65,-66.59 140,-76 125.62,-78.96 109.93,-82.35 95.88,-85.43"/>
<polygon fill="midnightblue" stroke="midnightblue" points="277.22,-52.58 286.4,-47.28 275.92,-45.71 277.22,-52.58"/>
</g>
<!-- Node11&#45;&gt;Node6 -->
<g id="edge14" class="edge">
<title>Node11&#45;&gt;Node6</title>
<path fill="none" stroke="midnightblue" d="M422.87,-89.3C412.62,-89.99 401.76,-90.72 391.36,-91.42"/>
<polygon fill="midnightblue" stroke="midnightblue" points="423.14,-92.79 432.88,-88.63 422.67,-85.81 423.14,-92.79"/>
</g>
<!-- Node12&#45;&gt;Node6 -->
<g id="edge16" class="edge">
<title>Node12&#45;&gt;Node6</title>
<path fill="none" stroke="midnightblue" d="M435.2,-60.91C413.19,-68.63 385.67,-78.28 365.54,-85.34"/>
<polygon fill="midnightblue" stroke="midnightblue" points="436.61,-64.12 444.88,-57.51 434.29,-57.52 436.61,-64.12"/>
</g>
</g>
</svg>
        <g id="navigator" transform="translate(0 0)" fill="#404254">
                <rect fill="#f2f5e9" fill-opacity="0.5" stroke="#606060" stroke-width=".5" x="0" y="0" width="60" height="60"/>
                <use id="zoomplus" xlink:href="#zoomPlus" x="17" y="9" onmousedown="handleZoom(evt,'in')"/>
                <use id="zoomminus" xlink:href="#zoomMin" x="42" y="9" onmousedown="handleZoom(evt,'out')"/>
                <use id="reset" xlink:href="#resetDef" x="30" y="36" onmousedown="handleReset()"/>
                <g id="arrowUp" xlink:href="#dirArrow" transform="translate(30 24)" onmousedown="handlePan(0,-1)">
                  <use xlink:href="#rim" fill="#404040">
                        <set attributeName="fill" to="#808080" begin="arrowUp.mouseover" end="arrowUp.mouseout"/>
                  </use>
                  <path fill="none" stroke="white" stroke-width="1.5" d="M0,-3.0v7 M-2.5,-0.5L0,-3.0L2.5,-0.5"/>
                </g>
                <g id="arrowRight" xlink:href="#dirArrow" transform="rotate(90) translate(36 -43)" onmousedown="handlePan(1,0)">
                  <use xlink:href="#rim" fill="#404040">
                        <set attributeName="fill" to="#808080" begin="arrowRight.mouseover" end="arrowRight.mouseout"/>
                  </use>
                  <path fill="none" stroke="white" stroke-width="1.5" d="M0,-3.0v7 M-2.5,-0.5L0,-3.0L2.5,-0.5"/>
                </g>
                <g id="arrowDown" xlink:href="#dirArrow" transform="rotate(180) translate(-30 -48)" onmousedown="handlePan(0,1)">
                  <use xlink:href="#rim" fill="#404040">
                        <set attributeName="fill" to="#808080" begin="arrowDown.mouseover" end="arrowDown.mouseout"/>
                  </use>
                  <path fill="none" stroke="white" stroke-width="1.5" d="M0,-3.0v7 M-2.5,-0.5L0,-3.0L2.5,-0.5"/>
                </g>
                <g id="arrowLeft" xlink:href="#dirArrow" transform="rotate(270) translate(-36 17)" onmousedown="handlePan(-1,0)">
                  <use xlink:href="#rim" fill="#404040">
                        <set attributeName="fill" to="#808080" begin="arrowLeft.mouseover" end="arrowLeft.mouseout"/>
                  </use>
                  <path fill="none" stroke="white" stroke-width="1.5" d="M0,-3.0v7 M-2.5,-0.5L0,-3.0L2.5,-0.5"/>
                </g>
        </g>
        <svg viewBox="0 0 15 15" width="100%" height="30px" preserveAspectRatio="xMaxYMin meet">
         <g id="arrow_out" transform="scale(0.3 0.3)">
          <a xlink:href="menu__put_8h_a6387702d64aea5e1908a16e2baf024c0_icgraph_org.svg" target="_base">
           <rect id="button" ry="5" rx="5" y="6" x="6" height="38" width="38"
                fill="#f2f5e9" fill-opacity="0.5" stroke="#606060" stroke-width="1.0"/>
           <path id="arrow"
             d="M 11.500037,31.436501 C 11.940474,20.09759 22.043105,11.32322 32.158766,21.979434 L 37.068811,17.246167 C 37.068811,17.246167 37.088388,32 37.088388,32 L 22.160133,31.978069 C 22.160133,31.978069 26.997745,27.140456 26.997745,27.140456 C 18.528582,18.264221 13.291696,25.230495 11.500037,31.436501 z"
             style="fill:#404040;"/>
          </a>
         </g>
        </svg>
</svg>
