<?xml version="1.0" encoding="UTF-8" standalone="no"?>
<!DOCTYPE svg PUBLIC "-//W3C//DTD SVG 1.1//EN"
 "http://www.w3.org/Graphics/SVG/1.1/DTD/svg11.dtd">
<!-- Generated by graphviz version 2.43.0 (0)
 -->
<!-- Title: ft_put_ctrl_move Pages: 1 -->
<svg width="1020pt" height="180pt"
 viewBox="0.00 0.00 1020.00 180.00" xmlns="http://www.w3.org/2000/svg" xmlns:xlink="http://www.w3.org/1999/xlink">
<g id="graph0" class="graph" transform="scale(1 1) rotate(0) translate(4 176)">
<title>ft_put_ctrl_move</title>
<!-- Node1 -->
<g id="node1" class="node">
<title>Node1</title>
<g id="a_node1"><a xlink:title="Puts control scheme for movement on the screen.">
<polygon fill="#bfbfbf" stroke="black" points="914,-76.5 914,-95.5 1012,-95.5 1012,-76.5 914,-76.5"/>
<text text-anchor="middle" x="963" y="-83.5" font-family="Helvetica,sans-Serif" font-size="10.00">ft_put_ctrl_move</text>
</a>
</g>
</g>
<!-- Node2 -->
<g id="node2" class="node">
<title>Node2</title>
<g id="a_node2"><a xlink:href="menu__put_8h.html#a6f5886ed0d2e8de8f0df680db3535336" target="_top" xlink:title="Puts control scheme for camera on the screen.">
<polygon fill="none" stroke="black" points="786,-152.5 786,-171.5 878,-171.5 878,-152.5 786,-152.5"/>
<text text-anchor="middle" x="832" y="-159.5" font-family="Helvetica,sans-Serif" font-size="10.00">ft_put_ctrl_cam</text>
</a>
</g>
</g>
<!-- Node1&#45;&gt;Node2 -->
<g id="edge1" class="edge">
<title>Node1&#45;&gt;Node2</title>
<path fill="none" stroke="midnightblue" d="M941.02,-101.94C924.46,-114.1 900.47,-130.79 878,-143 871.74,-146.4 864.74,-149.62 858.17,-152.4"/>
<polygon fill="midnightblue" stroke="midnightblue" points="943.47,-104.48 949.41,-95.71 939.29,-98.87 943.47,-104.48"/>
</g>
<!-- Node8 -->
<g id="node8" class="node">
<title>Node8</title>
<g id="a_node8"><a xlink:href="menu__put_8h.html#a458660b29d84e5f35cb7d4e7fc1e0308" target="_top" xlink:title="Puts control scheme for cylinder on the screen.">
<polygon fill="none" stroke="black" points="791,-114.5 791,-133.5 873,-133.5 873,-114.5 791,-114.5"/>
<text text-anchor="middle" x="832" y="-121.5" font-family="Helvetica,sans-Serif" font-size="10.00">ft_put_ctrl_cy</text>
</a>
</g>
</g>
<!-- Node1&#45;&gt;Node8 -->
<g id="edge7" class="edge">
<title>Node1&#45;&gt;Node8</title>
<path fill="none" stroke="midnightblue" d="M919.45,-98.54C901.9,-103.7 881.89,-109.6 865.54,-114.41"/>
<polygon fill="midnightblue" stroke="midnightblue" points="920.84,-101.77 929.45,-95.59 918.87,-95.06 920.84,-101.77"/>
</g>
<!-- Node11 -->
<g id="node11" class="node">
<title>Node11</title>
<g id="a_node11"><a xlink:href="menu__put_8h.html#acb49d711643bd638023d9317cd528174" target="_top" xlink:title="Puts control scheme for light on the screen.">
<polygon fill="none" stroke="black" points="650,-0.5 650,-19.5 742,-19.5 742,-0.5 650,-0.5"/>
<text text-anchor="middle" x="696" y="-7.5" font-family="Helvetica,sans-Serif" font-size="10.00">ft_put_ctrl_light</text>
</a>
</g>
</g>
<!-- Node1&#45;&gt;Node11 -->
<g id="edge11" class="edge">
<title>Node1&#45;&gt;Node11</title>
<path fill="none" stroke="midnightblue" d="M943.55,-69.49C927.46,-56.13 902.86,-38.09 878,-29 833.78,-12.84 779.72,-9.05 742.25,-8.71"/>
<polygon fill="midnightblue" stroke="midnightblue" points="941.69,-72.51 951.56,-76.35 946.24,-67.19 941.69,-72.51"/>
</g>
<!-- Node14 -->
<g id="node14" class="node">
<title>Node14</title>
<g id="a_node14"><a xlink:href="menu__put_8h.html#abd4665c14b3ab0c1c22d5b2b93b898b6" target="_top" xlink:title="Puts control scheme for plane on the screen.">
<polygon fill="none" stroke="black" points="792,-76.5 792,-95.5 872,-95.5 872,-76.5 792,-76.5"/>
<text text-anchor="middle" x="832" y="-83.5" font-family="Helvetica,sans-Serif" font-size="10.00">ft_put_ctrl_pl</text>
</a>
</g>
</g>
<!-- Node1&#45;&gt;Node14 -->
<g id="edge16" class="edge">
<title>Node1&#45;&gt;Node14</title>
<path fill="none" stroke="midnightblue" d="M903.82,-86C893.13,-86 882.2,-86 872.23,-86"/>
<polygon fill="midnightblue" stroke="midnightblue" points="903.97,-89.5 913.97,-86 903.97,-82.5 903.97,-89.5"/>
</g>
<!-- Node15 -->
<g id="node15" class="node">
<title>Node15</title>
<g id="a_node15"><a xlink:href="menu__put_8h.html#a068dec8435039453ac1f404de98bd31c" target="_top" xlink:title="Puts control scheme for sphere on the screen.">
<polygon fill="none" stroke="black" points="791,-38.5 791,-57.5 873,-57.5 873,-38.5 791,-38.5"/>
<text text-anchor="middle" x="832" y="-45.5" font-family="Helvetica,sans-Serif" font-size="10.00">ft_put_ctrl_sp</text>
</a>
</g>
</g>
<!-- Node1&#45;&gt;Node15 -->
<g id="edge18" class="edge">
<title>Node1&#45;&gt;Node15</title>
<path fill="none" stroke="midnightblue" d="M919.45,-73.46C901.9,-68.3 881.89,-62.4 865.54,-57.59"/>
<polygon fill="midnightblue" stroke="midnightblue" points="918.87,-76.94 929.45,-76.41 920.84,-70.23 918.87,-76.94"/>
</g>
<!-- Node3 -->
<g id="node3" class="node">
<title>Node3</title>
<g id="a_node3"><a xlink:href="menu__put_8h.html#a33000f70f8d23d70b515e38109c63917" target="_top" xlink:title="Puts a camera page on the screen.">
<polygon fill="none" stroke="black" points="646,-133.5 646,-152.5 746,-152.5 746,-133.5 646,-133.5"/>
<text text-anchor="middle" x="696" y="-140.5" font-family="Helvetica,sans-Serif" font-size="10.00">ft_put_page_cam</text>
</a>
</g>
</g>
<!-- Node2&#45;&gt;Node3 -->
<g id="edge2" class="edge">
<title>Node2&#45;&gt;Node3</title>
<path fill="none" stroke="midnightblue" d="M775.69,-154.16C766,-152.78 755.98,-151.36 746.46,-150.01"/>
<polygon fill="midnightblue" stroke="midnightblue" points="775.24,-157.63 785.63,-155.57 776.22,-150.7 775.24,-157.63"/>
</g>
<!-- Node4 -->
<g id="node4" class="node">
<title>Node4</title>
<g id="a_node4"><a xlink:href="render_8h.html#a735dfeb13434c88e3b4a76990386763b" target="_top" xlink:title="Puts the current menu page on the screen.">
<polygon fill="none" stroke="black" points="349,-57.5 349,-76.5 451,-76.5 451,-57.5 349,-57.5"/>
<text text-anchor="middle" x="400" y="-64.5" font-family="Helvetica,sans-Serif" font-size="10.00">ft_menu_put_text</text>
</a>
</g>
</g>
<!-- Node3&#45;&gt;Node4 -->
<g id="edge3" class="edge">
<title>Node3&#45;&gt;Node4</title>
<path fill="none" stroke="midnightblue" d="M635.8,-135.97C593.69,-130.05 536.11,-120.1 487,-105 462.82,-97.56 436.39,-85.2 419.3,-76.6"/>
<polygon fill="midnightblue" stroke="midnightblue" points="635.51,-139.46 645.89,-137.35 636.46,-132.52 635.51,-139.46"/>
</g>
<!-- Node5 -->
<g id="node5" class="node">
<title>Node5</title>
<g id="a_node5"><a xlink:href="render__loop__mlx_8c.html#af908c05cb19e716220bc98fcf9582573" target="_top" xlink:title=" ">
<polygon fill="none" stroke="black" points="227,-57.5 227,-76.5 313,-76.5 313,-57.5 227,-57.5"/>
<text text-anchor="middle" x="270" y="-64.5" font-family="Helvetica,sans-Serif" font-size="10.00">ft_draw_scene</text>
</a>
</g>
</g>
<!-- Node4&#45;&gt;Node5 -->
<g id="edge4" class="edge">
<title>Node4&#45;&gt;Node5</title>
<path fill="none" stroke="midnightblue" d="M338.73,-67C330.11,-67 321.39,-67 313.22,-67"/>
<polygon fill="midnightblue" stroke="midnightblue" points="338.78,-70.5 348.78,-67 338.78,-63.5 338.78,-70.5"/>
</g>
<!-- Node6 -->
<g id="node6" class="node">
<title>Node6</title>
<g id="a_node6"><a xlink:href="render_8h.html#ab7a01aa5d27d2fad2942a43a31ae0d52" target="_top" xlink:title="Starts the mlx loop.">
<polygon fill="none" stroke="black" points="77,-57.5 77,-76.5 191,-76.5 191,-57.5 77,-57.5"/>
<text text-anchor="middle" x="134" y="-64.5" font-family="Helvetica,sans-Serif" font-size="10.00">ft_render_start_loop</text>
</a>
</g>
</g>
<!-- Node5&#45;&gt;Node6 -->
<g id="edge5" class="edge">
<title>Node5&#45;&gt;Node6</title>
<path fill="none" stroke="midnightblue" d="M216.88,-67C208.44,-67 199.66,-67 191.13,-67"/>
<polygon fill="midnightblue" stroke="midnightblue" points="216.97,-70.5 226.97,-67 216.97,-63.5 216.97,-70.5"/>
</g>
<!-- Node7 -->
<g id="node7" class="node">
<title>Node7</title>
<g id="a_node7"><a xlink:href="main_8c.html#a3c04138a5bfe5d72780bb7e82a18e627" target="_top" xlink:title=" ">
<polygon fill="none" stroke="black" points="0,-57.5 0,-76.5 41,-76.5 41,-57.5 0,-57.5"/>
<text text-anchor="middle" x="20.5" y="-64.5" font-family="Helvetica,sans-Serif" font-size="10.00">main</text>
</a>
</g>
</g>
<!-- Node6&#45;&gt;Node7 -->
<g id="edge6" class="edge">
<title>Node6&#45;&gt;Node7</title>
<path fill="none" stroke="midnightblue" d="M66.7,-67C57.37,-67 48.45,-67 41.04,-67"/>
<polygon fill="midnightblue" stroke="midnightblue" points="66.92,-70.5 76.92,-67 66.92,-63.5 66.92,-70.5"/>
</g>
<!-- Node9 -->
<g id="node9" class="node">
<title>Node9</title>
<g id="a_node9"><a xlink:href="menu__put_8h.html#ade4cb77b913a25a4d5ace2ffa4abaa4a" target="_top" xlink:title="Puts control scheme for hittable on the screen.">
<polygon fill="none" stroke="black" points="642,-76.5 642,-95.5 750,-95.5 750,-76.5 642,-76.5"/>
<text text-anchor="middle" x="696" y="-83.5" font-family="Helvetica,sans-Serif" font-size="10.00">ft_put_ctrl_hittable</text>
</a>
</g>
</g>
<!-- Node8&#45;&gt;Node9 -->
<g id="edge8" class="edge">
<title>Node8&#45;&gt;Node9</title>
<path fill="none" stroke="midnightblue" d="M787.56,-111.68C769.15,-106.46 748.02,-100.47 730.8,-95.59"/>
<polygon fill="midnightblue" stroke="midnightblue" points="786.61,-115.05 797.19,-114.41 788.52,-108.32 786.61,-115.05"/>
</g>
<!-- Node10 -->
<g id="node10" class="node">
<title>Node10</title>
<g id="a_node10"><a xlink:href="menu__put_8h.html#ab175cf6607817105e92bd541f28a11a6" target="_top" xlink:title="Puts a scene page on the screen.">
<polygon fill="none" stroke="black" points="493,-76.5 493,-95.5 600,-95.5 600,-76.5 493,-76.5"/>
<text text-anchor="middle" x="546.5" y="-83.5" font-family="Helvetica,sans-Serif" font-size="10.00">ft_put_page_scene</text>
</a>
</g>
</g>
<!-- Node9&#45;&gt;Node10 -->
<g id="edge9" class="edge">
<title>Node9&#45;&gt;Node10</title>
<path fill="none" stroke="midnightblue" d="M631.44,-86C621.01,-86 610.31,-86 600.18,-86"/>
<polygon fill="midnightblue" stroke="midnightblue" points="631.75,-89.5 641.75,-86 631.75,-82.5 631.75,-89.5"/>
</g>
<!-- Node10&#45;&gt;Node4 -->
<g id="edge10" class="edge">
<title>Node10&#45;&gt;Node4</title>
<path fill="none" stroke="midnightblue" d="M482.93,-77.77C472.38,-76.39 461.55,-74.96 451.37,-73.62"/>
<polygon fill="midnightblue" stroke="midnightblue" points="482.55,-81.25 492.92,-79.09 483.47,-74.31 482.55,-81.25"/>
</g>
<!-- Node12 -->
<g id="node12" class="node">
<title>Node12</title>
<g id="a_node12"><a xlink:href="menu__put_8h.html#a588aec662fefad0f2ddbf36c3828de25" target="_top" xlink:title="Puts an ambient page on the screen.">
<polygon fill="none" stroke="black" points="487,-38.5 487,-57.5 606,-57.5 606,-38.5 487,-38.5"/>
<text text-anchor="middle" x="546.5" y="-45.5" font-family="Helvetica,sans-Serif" font-size="10.00">ft_put_page_ambient</text>
</a>
</g>
</g>
<!-- Node11&#45;&gt;Node12 -->
<g id="edge12" class="edge">
<title>Node11&#45;&gt;Node12</title>
<path fill="none" stroke="midnightblue" d="M647.99,-22.11C627.44,-27.4 603.7,-33.52 584.45,-38.48"/>
<polygon fill="midnightblue" stroke="midnightblue" points="648.97,-25.47 657.78,-19.59 647.22,-18.69 648.97,-25.47"/>
</g>
<!-- Node13 -->
<g id="node13" class="node">
<title>Node13</title>
<g id="a_node13"><a xlink:href="menu__put_8h.html#a0358e73d3f7165a9dc25c5b8a029fefb" target="_top" xlink:title="Puts a light page on the screen.">
<polygon fill="none" stroke="black" points="496,-0.5 496,-19.5 597,-19.5 597,-0.5 496,-0.5"/>
<text text-anchor="middle" x="546.5" y="-7.5" font-family="Helvetica,sans-Serif" font-size="10.00">ft_put_page_light</text>
</a>
</g>
</g>
<!-- Node11&#45;&gt;Node13 -->
<g id="edge14" class="edge">
<title>Node11&#45;&gt;Node13</title>
<path fill="none" stroke="midnightblue" d="M639.93,-10C625.9,-10 610.91,-10 597.16,-10"/>
<polygon fill="midnightblue" stroke="midnightblue" points="639.94,-13.5 649.94,-10 639.94,-6.5 639.94,-13.5"/>
</g>
<!-- Node12&#45;&gt;Node4 -->
<g id="edge13" class="edge">
<title>Node12&#45;&gt;Node4</title>
<path fill="none" stroke="midnightblue" d="M476.75,-57.04C468.2,-58.16 459.59,-59.3 451.39,-60.37"/>
<polygon fill="midnightblue" stroke="midnightblue" points="477.27,-60.5 486.73,-55.73 476.36,-53.56 477.27,-60.5"/>
</g>
<!-- Node13&#45;&gt;Node4 -->
<g id="edge15" class="edge">
<title>Node13&#45;&gt;Node4</title>
<path fill="none" stroke="midnightblue" d="M504.32,-22.79C498.47,-24.78 492.56,-26.88 487,-29 464.13,-37.74 438.53,-49.28 421.26,-57.35"/>
<polygon fill="midnightblue" stroke="midnightblue" points="505.63,-26.04 514.02,-19.57 503.43,-19.4 505.63,-26.04"/>
</g>
<!-- Node14&#45;&gt;Node9 -->
<g id="edge17" class="edge">
<title>Node14&#45;&gt;Node9</title>
<path fill="none" stroke="midnightblue" d="M781.87,-86C771.62,-86 760.76,-86 750.36,-86"/>
<polygon fill="midnightblue" stroke="midnightblue" points="781.88,-89.5 791.88,-86 781.88,-82.5 781.88,-89.5"/>
</g>
<!-- Node15&#45;&gt;Node9 -->
<g id="edge19" class="edge">
<title>Node15&#45;&gt;Node9</title>
<path fill="none" stroke="midnightblue" d="M787.56,-60.32C769.15,-65.54 748.02,-71.53 730.8,-76.41"/>
<polygon fill="midnightblue" stroke="midnightblue" points="788.52,-63.68 797.19,-57.59 786.61,-56.95 788.52,-63.68"/>
</g>
</g>
</svg>
