<?xml version="1.0" encoding="UTF-8" standalone="no"?>
<!DOCTYPE svg PUBLIC "-//W3C//DTD SVG 1.1//EN"
 "http://www.w3.org/Graphics/SVG/1.1/DTD/svg11.dtd">
<!-- Generated by graphviz version 2.43.0 (0)
 -->
<!-- Title: ft_put_3d_point Pages: 1 -->
<!--zoomable 218 -->
<svg id="main" version="1.1" xmlns="http://www.w3.org/2000/svg" xmlns:xlink="http://www.w3.org/1999/xlink" xml:space="preserve" onload="init(evt)">
<style type="text/css"><![CDATA[
.edge:hover path { stroke: red; }
.edge:hover polygon { stroke: red; fill: red; }
]]></style>
<script type="text/javascript"><![CDATA[
var edges = document.getElementsByTagName('g');
if (edges && edges.length) {
  for (var i=0;i<edges.length;i++) {
    if (edges[i].id.substr(0,4)=='edge') {
      edges[i].setAttribute('class','edge');
    }
  }
}
]]></script>
        <defs>
                <circle id="rim" cx="0" cy="0" r="7"/>
                <circle id="rim2" cx="0" cy="0" r="3.5"/>
                <g id="zoomPlus">
                        <use xlink:href="#rim" fill="#404040">
                                <set attributeName="fill" to="#808080" begin="zoomplus.mouseover" end="zoomplus.mouseout"/>
                        </use>
                        <path d="M-4,0h8M0,-4v8" fill="none" stroke="white" stroke-width="1.5" pointer-events="none"/>
                </g>
                <g id="zoomMin">
                        <use xlink:href="#rim" fill="#404040">
                                <set attributeName="fill" to="#808080" begin="zoomminus.mouseover" end="zoomminus.mouseout"/>
                        </use>
                        <path d="M-4,0h8" fill="none" stroke="white" stroke-width="1.5" pointer-events="none"/>
                </g>
                <g id="dirArrow">
                        <path fill="none" stroke="white" stroke-width="1.5" d="M0,-3.0v7 M-2.5,-0.5L0,-3.0L2.5,-0.5"/>
                </g>
               <g id="resetDef">
                       <use xlink:href="#rim2" fill="#404040">
                               <set attributeName="fill" to="#808080" begin="reset.mouseover" end="reset.mouseout"/>
                       </use>
               </g>
        </defs>

<script type="text/javascript">
var viewWidth = 627;
var viewHeight = 218;
var sectionId = 'dynsection-10';
</script>
<script xlink:href="svgpan.js"/>
<svg id="graph" class="graph">
<g id="viewport">
<title>ft_put_3d_point</title>
<!-- Node1 -->
<g id="node1" class="node">
<title>Node1</title>
<g id="a_node1"><a xlink:title="Puts a 3D point on the screen.">
<polygon fill="#bfbfbf" stroke="black" points="527,-95.5 527,-114.5 619,-114.5 619,-95.5 527,-95.5"/>
<text text-anchor="middle" x="573" y="-102.5" font-family="Helvetica,sans-Serif" font-size="10.00">ft_put_3d_point</text>
</a>
</g>
</g>
<!-- Node2 -->
<g id="node2" class="node">
<title>Node2</title>
<g id="a_node2"><a xlink:href="menu__put_8h.html#a86f02d860bd5b9a3795b20ba72f8e359" target="_top" xlink:title="Puts camera info on the screen.">
<polygon fill="none" stroke="black" points="420,-190.5 420,-209.5 491,-209.5 491,-190.5 420,-190.5"/>
<text text-anchor="middle" x="455.5" y="-197.5" font-family="Helvetica,sans-Serif" font-size="10.00">ft_put_cam</text>
</a>
</g>
</g>
<!-- Node1&#45;&gt;Node2 -->
<g id="edge1" class="edge">
<title>Node1&#45;&gt;Node2</title>
<path fill="none" stroke="midnightblue" d="M555.92,-122.42C540.31,-138.75 515.44,-163.24 491,-181 486.35,-184.38 481.04,-187.58 476,-190.37"/>
<polygon fill="midnightblue" stroke="midnightblue" points="558.88,-124.38 563.19,-114.7 553.79,-119.58 558.88,-124.38"/>
</g>
<!-- Node5 -->
<g id="node5" class="node">
<title>Node5</title>
<g id="a_node5"><a xlink:href="menu__put__bonus_8h.html#af86e62ade8b462c44092a160d876544e" target="_top" xlink:title="Puts cone info on the screen.">
<polygon fill="none" stroke="black" points="425,-152.5 425,-171.5 486,-171.5 486,-152.5 425,-152.5"/>
<text text-anchor="middle" x="455.5" y="-159.5" font-family="Helvetica,sans-Serif" font-size="10.00">ft_put_co</text>
</a>
</g>
</g>
<!-- Node1&#45;&gt;Node5 -->
<g id="edge4" class="edge">
<title>Node1&#45;&gt;Node5</title>
<path fill="none" stroke="midnightblue" d="M543.56,-119.04C522.51,-129.42 494.41,-143.29 475.9,-152.43"/>
<polygon fill="midnightblue" stroke="midnightblue" points="545.25,-122.1 552.67,-114.54 542.15,-115.83 545.25,-122.1"/>
</g>
<!-- Node8 -->
<g id="node8" class="node">
<title>Node8</title>
<g id="a_node8"><a xlink:href="menu__put_8h.html#a8fb9ef8bf3aa98d9125937611f738a9b" target="_top" xlink:title="Puts cylinder info on the screen.">
<polygon fill="none" stroke="black" points="425,-114.5 425,-133.5 486,-133.5 486,-114.5 425,-114.5"/>
<text text-anchor="middle" x="455.5" y="-121.5" font-family="Helvetica,sans-Serif" font-size="10.00">ft_put_cy</text>
</a>
</g>
</g>
<!-- Node1&#45;&gt;Node8 -->
<g id="edge8" class="edge">
<title>Node1&#45;&gt;Node8</title>
<path fill="none" stroke="midnightblue" d="M516.64,-114.11C506.08,-115.84 495.42,-117.6 486.06,-119.14"/>
<polygon fill="midnightblue" stroke="midnightblue" points="517.38,-117.53 526.68,-112.45 516.25,-110.62 517.38,-117.53"/>
</g>
<!-- Node9 -->
<g id="node9" class="node">
<title>Node9</title>
<g id="a_node9"><a xlink:href="menu__put_8h.html#ab1aa03b80f8d7af17d305cb8b61c2b6b" target="_top" xlink:title="Puts light info on the screen.">
<polygon fill="none" stroke="black" points="420,-0.5 420,-19.5 491,-19.5 491,-0.5 420,-0.5"/>
<text text-anchor="middle" x="455.5" y="-7.5" font-family="Helvetica,sans-Serif" font-size="10.00">ft_put_light</text>
</a>
</g>
</g>
<!-- Node1&#45;&gt;Node9 -->
<g id="edge10" class="edge">
<title>Node1&#45;&gt;Node9</title>
<path fill="none" stroke="midnightblue" d="M555.92,-87.58C540.31,-71.25 515.44,-46.76 491,-29 486.35,-25.62 481.04,-22.42 476,-19.63"/>
<polygon fill="midnightblue" stroke="midnightblue" points="553.79,-90.42 563.19,-95.3 558.88,-85.62 553.79,-90.42"/>
</g>
<!-- Node11 -->
<g id="node11" class="node">
<title>Node11</title>
<g id="a_node11"><a xlink:href="menu__put_8h.html#ac2a5de89e48dc4e914b474c744618e1f" target="_top" xlink:title="Puts plane info on the screen.">
<polygon fill="none" stroke="black" points="426,-76.5 426,-95.5 485,-95.5 485,-76.5 426,-76.5"/>
<text text-anchor="middle" x="455.5" y="-83.5" font-family="Helvetica,sans-Serif" font-size="10.00">ft_put_pl</text>
</a>
</g>
</g>
<!-- Node1&#45;&gt;Node11 -->
<g id="edge13" class="edge">
<title>Node1&#45;&gt;Node11</title>
<path fill="none" stroke="midnightblue" d="M516.69,-95.9C505.73,-94.1 494.65,-92.28 485.04,-90.69"/>
<polygon fill="midnightblue" stroke="midnightblue" points="516.25,-99.38 526.68,-97.55 517.38,-92.47 516.25,-99.38"/>
</g>
<!-- Node12 -->
<g id="node12" class="node">
<title>Node12</title>
<g id="a_node12"><a xlink:href="menu__put_8h.html#a94cfa4cebace291a60ab7a8bd9bd852c" target="_top" xlink:title="Puts sphere info on the screen.">
<polygon fill="none" stroke="black" points="425,-38.5 425,-57.5 486,-57.5 486,-38.5 425,-38.5"/>
<text text-anchor="middle" x="455.5" y="-45.5" font-family="Helvetica,sans-Serif" font-size="10.00">ft_put_sp</text>
</a>
</g>
</g>
<!-- Node1&#45;&gt;Node12 -->
<g id="edge15" class="edge">
<title>Node1&#45;&gt;Node12</title>
<path fill="none" stroke="midnightblue" d="M543.56,-90.96C522.51,-80.58 494.41,-66.71 475.9,-57.57"/>
<polygon fill="midnightblue" stroke="midnightblue" points="542.15,-94.17 552.67,-95.46 545.25,-87.9 542.15,-94.17"/>
</g>
<!-- Node3 -->
<g id="node3" class="node">
<title>Node3</title>
<g id="a_node3"><a xlink:href="menu__put_8h.html#a6466842cb9367072865c07608f1e4c7d" target="_top" xlink:title="Puts a camera page on the screen.">
<polygon fill="none" stroke="black" points="143.5,-161.5 143.5,-180.5 243.5,-180.5 243.5,-161.5 143.5,-161.5"/>
<text text-anchor="middle" x="193.5" y="-168.5" font-family="Helvetica,sans-Serif" font-size="10.00">ft_put_page_cam</text>
</a>
</g>
</g>
<!-- Node2&#45;&gt;Node3 -->
<g id="edge2" class="edge">
<title>Node2&#45;&gt;Node3</title>
<path fill="none" stroke="midnightblue" d="M409.96,-195.03C363.77,-189.88 291.74,-181.85 243.85,-176.5"/>
<polygon fill="midnightblue" stroke="midnightblue" points="409.65,-198.52 419.97,-196.15 410.42,-191.56 409.65,-198.52"/>
</g>
<!-- Node4 -->
<g id="node4" class="node">
<title>Node4</title>
<g id="a_node4"><a xlink:href="menu__put_8h.html#aaa97bcdc39838b3da803447ea82e444c" target="_top" xlink:title="Puts the main page of menu on the screen.">
<polygon fill="none" stroke="black" points="0,-85.5 0,-104.5 104,-104.5 104,-85.5 0,-85.5"/>
<text text-anchor="middle" x="52" y="-92.5" font-family="Helvetica,sans-Serif" font-size="10.00">ft_put_main_page</text>
</a>
</g>
</g>
<!-- Node3&#45;&gt;Node4 -->
<g id="edge3" class="edge">
<title>Node3&#45;&gt;Node4</title>
<path fill="none" stroke="midnightblue" d="M165.97,-156.54C137.94,-141.28 94.56,-117.64 70.52,-104.55"/>
<polygon fill="midnightblue" stroke="midnightblue" points="164.38,-159.66 174.83,-161.37 167.73,-153.52 164.38,-159.66"/>
</g>
<!-- Node6 -->
<g id="node6" class="node">
<title>Node6</title>
<g id="a_node6"><a xlink:href="menu__put_8h.html#a893f0e65e417aaf6be0152e2f74782d1" target="_top" xlink:title="Puts hittable info on the screen.">
<polygon fill="none" stroke="black" points="290,-85.5 290,-104.5 377,-104.5 377,-85.5 290,-85.5"/>
<text text-anchor="middle" x="333.5" y="-92.5" font-family="Helvetica,sans-Serif" font-size="10.00">ft_put_hittable</text>
</a>
</g>
</g>
<!-- Node5&#45;&gt;Node6 -->
<g id="edge5" class="edge">
<title>Node5&#45;&gt;Node6</title>
<path fill="none" stroke="midnightblue" d="M427.95,-147.41C425.27,-145.92 422.58,-144.43 420,-143 396.2,-129.76 368.75,-114.32 351.51,-104.6"/>
<polygon fill="midnightblue" stroke="midnightblue" points="426.49,-150.6 436.93,-152.36 429.87,-144.47 426.49,-150.6"/>
</g>
<!-- Node7 -->
<g id="node7" class="node">
<title>Node7</title>
<g id="a_node7"><a xlink:href="menu__put_8h.html#a18613445d2379eca738e6cf789dfecf5" target="_top" xlink:title="Puts a scene page on the screen.">
<polygon fill="none" stroke="black" points="140,-85.5 140,-104.5 247,-104.5 247,-85.5 140,-85.5"/>
<text text-anchor="middle" x="193.5" y="-92.5" font-family="Helvetica,sans-Serif" font-size="10.00">ft_put_page_scene</text>
</a>
</g>
</g>
<!-- Node6&#45;&gt;Node7 -->
<g id="edge6" class="edge">
<title>Node6&#45;&gt;Node7</title>
<path fill="none" stroke="midnightblue" d="M279.94,-95C269.27,-95 258.04,-95 247.36,-95"/>
<polygon fill="midnightblue" stroke="midnightblue" points="279.97,-98.5 289.97,-95 279.97,-91.5 279.97,-98.5"/>
</g>
<!-- Node7&#45;&gt;Node4 -->
<g id="edge7" class="edge">
<title>Node7&#45;&gt;Node4</title>
<path fill="none" stroke="midnightblue" d="M129.59,-95C121.17,-95 112.62,-95 104.43,-95"/>
<polygon fill="midnightblue" stroke="midnightblue" points="129.76,-98.5 139.76,-95 129.76,-91.5 129.76,-98.5"/>
</g>
<!-- Node8&#45;&gt;Node6 -->
<g id="edge9" class="edge">
<title>Node8&#45;&gt;Node6</title>
<path fill="none" stroke="midnightblue" d="M414.75,-114.39C401.73,-111.25 387.26,-107.75 374.23,-104.6"/>
<polygon fill="midnightblue" stroke="midnightblue" points="414.29,-117.88 424.84,-116.83 415.94,-111.08 414.29,-117.88"/>
</g>
<!-- Node10 -->
<g id="node10" class="node">
<title>Node10</title>
<g id="a_node10"><a xlink:href="menu__put_8h.html#a11eed0e0d38826c89da2d71031a08593" target="_top" xlink:title="Puts a light page on the screen.">
<polygon fill="none" stroke="black" points="283,-28.5 283,-47.5 384,-47.5 384,-28.5 283,-28.5"/>
<text text-anchor="middle" x="333.5" y="-35.5" font-family="Helvetica,sans-Serif" font-size="10.00">ft_put_page_light</text>
</a>
</g>
</g>
<!-- Node9&#45;&gt;Node10 -->
<g id="edge11" class="edge">
<title>Node9&#45;&gt;Node10</title>
<path fill="none" stroke="midnightblue" d="M409.74,-20.44C398.52,-23.06 386.53,-25.86 375.49,-28.43"/>
<polygon fill="midnightblue" stroke="midnightblue" points="410.85,-23.78 419.79,-18.1 409.26,-16.96 410.85,-23.78"/>
</g>
<!-- Node10&#45;&gt;Node4 -->
<g id="edge12" class="edge">
<title>Node10&#45;&gt;Node4</title>
<path fill="none" stroke="midnightblue" d="M273.09,-49.41C235.01,-56.8 184.55,-66.74 140,-76 125.62,-78.99 109.93,-82.38 95.89,-85.45"/>
<polygon fill="midnightblue" stroke="midnightblue" points="273.84,-52.83 282.99,-47.49 272.51,-45.96 273.84,-52.83"/>
</g>
<!-- Node11&#45;&gt;Node6 -->
<g id="edge14" class="edge">
<title>Node11&#45;&gt;Node6</title>
<path fill="none" stroke="midnightblue" d="M415.77,-88.9C403.42,-89.83 389.7,-90.86 377.1,-91.81"/>
<polygon fill="midnightblue" stroke="midnightblue" points="416.05,-92.39 425.76,-88.16 415.52,-85.41 416.05,-92.39"/>
</g>
<!-- Node12&#45;&gt;Node6 -->
<g id="edge16" class="edge">
<title>Node12&#45;&gt;Node6</title>
<path fill="none" stroke="midnightblue" d="M420.74,-61.22C401.17,-68.89 376.94,-78.38 359.16,-85.34"/>
<polygon fill="midnightblue" stroke="midnightblue" points="422.18,-64.42 430.22,-57.51 419.63,-57.9 422.18,-64.42"/>
</g>
</g>
</svg>
        <g id="navigator" transform="translate(0 0)" fill="#404254">
                <rect fill="#f2f5e9" fill-opacity="0.5" stroke="#606060" stroke-width=".5" x="0" y="0" width="60" height="60"/>
                <use id="zoomplus" xlink:href="#zoomPlus" x="17" y="9" onmousedown="handleZoom(evt,'in')"/>
                <use id="zoomminus" xlink:href="#zoomMin" x="42" y="9" onmousedown="handleZoom(evt,'out')"/>
                <use id="reset" xlink:href="#resetDef" x="30" y="36" onmousedown="handleReset()"/>
                <g id="arrowUp" xlink:href="#dirArrow" transform="translate(30 24)" onmousedown="handlePan(0,-1)">
                  <use xlink:href="#rim" fill="#404040">
                        <set attributeName="fill" to="#808080" begin="arrowUp.mouseover" end="arrowUp.mouseout"/>
                  </use>
                  <path fill="none" stroke="white" stroke-width="1.5" d="M0,-3.0v7 M-2.5,-0.5L0,-3.0L2.5,-0.5"/>
                </g>
                <g id="arrowRight" xlink:href="#dirArrow" transform="rotate(90) translate(36 -43)" onmousedown="handlePan(1,0)">
                  <use xlink:href="#rim" fill="#404040">
                        <set attributeName="fill" to="#808080" begin="arrowRight.mouseover" end="arrowRight.mouseout"/>
                  </use>
                  <path fill="none" stroke="white" stroke-width="1.5" d="M0,-3.0v7 M-2.5,-0.5L0,-3.0L2.5,-0.5"/>
                </g>
                <g id="arrowDown" xlink:href="#dirArrow" transform="rotate(180) translate(-30 -48)" onmousedown="handlePan(0,1)">
                  <use xlink:href="#rim" fill="#404040">
                        <set attributeName="fill" to="#808080" begin="arrowDown.mouseover" end="arrowDown.mouseout"/>
                  </use>
                  <path fill="none" stroke="white" stroke-width="1.5" d="M0,-3.0v7 M-2.5,-0.5L0,-3.0L2.5,-0.5"/>
                </g>
                <g id="arrowLeft" xlink:href="#dirArrow" transform="rotate(270) translate(-36 17)" onmousedown="handlePan(-1,0)">
                  <use xlink:href="#rim" fill="#404040">
                        <set attributeName="fill" to="#808080" begin="arrowLeft.mouseover" end="arrowLeft.mouseout"/>
                  </use>
                  <path fill="none" stroke="white" stroke-width="1.5" d="M0,-3.0v7 M-2.5,-0.5L0,-3.0L2.5,-0.5"/>
                </g>
        </g>
        <svg viewBox="0 0 15 15" width="100%" height="30px" preserveAspectRatio="xMaxYMin meet">
         <g id="arrow_out" transform="scale(0.3 0.3)">
          <a xlink:href="menu__put_8h_a250c5483eff2fa1f225b6a16dab45481_icgraph_org.svg" target="_base">
           <rect id="button" ry="5" rx="5" y="6" x="6" height="38" width="38"
                fill="#f2f5e9" fill-opacity="0.5" stroke="#606060" stroke-width="1.0"/>
           <path id="arrow"
             d="M 11.500037,31.436501 C 11.940474,20.09759 22.043105,11.32322 32.158766,21.979434 L 37.068811,17.246167 C 37.068811,17.246167 37.088388,32 37.088388,32 L 22.160133,31.978069 C 22.160133,31.978069 26.997745,27.140456 26.997745,27.140456 C 18.528582,18.264221 13.291696,25.230495 11.500037,31.436501 z"
             style="fill:#404040;"/>
          </a>
         </g>
        </svg>
</svg>
