<?xml version="1.0" encoding="UTF-8" standalone="no"?>
<!DOCTYPE svg PUBLIC "-//W3C//DTD SVG 1.1//EN"
 "http://www.w3.org/Graphics/SVG/1.1/DTD/svg11.dtd">
<!-- Generated by graphviz version 2.43.0 (0)
 -->
<!-- Title: inc/miniRT_config_bonus.h Pages: 1 -->
<svg width="2780pt" height="341pt"
 viewBox="0.00 0.00 2780.00 341.00" xmlns="http://www.w3.org/2000/svg" xmlns:xlink="http://www.w3.org/1999/xlink">
<g id="graph0" class="graph" transform="scale(1 1) rotate(0) translate(4 337)">
<title>inc/miniRT_config_bonus.h</title>
<!-- Node1 -->
<g id="node1" class="node">
<title>Node1</title>
<g id="a_node1"><a xlink:title=" ">
<polygon fill="#bfbfbf" stroke="black" points="960,-313.5 960,-332.5 1106,-332.5 1106,-313.5 960,-313.5"/>
<text text-anchor="middle" x="1033" y="-320.5" font-family="Helvetica,sans-Serif" font-size="10.00">inc/miniRT_config_bonus.h</text>
</a>
</g>
</g>
<!-- Node2 -->
<g id="node2" class="node">
<title>Node2</title>
<g id="a_node2"><a xlink:href="camera_8h.html" target="_top" xlink:title=" ">
<polygon fill="none" stroke="black" points="362,-257.5 362,-276.5 442,-276.5 442,-257.5 362,-257.5"/>
<text text-anchor="middle" x="402" y="-264.5" font-family="Helvetica,sans-Serif" font-size="10.00">inc/camera.h</text>
</a>
</g>
</g>
<!-- Node1&#45;&gt;Node2 -->
<g id="edge1" class="edge">
<title>Node1&#45;&gt;Node2</title>
<path fill="none" stroke="midnightblue" d="M949.95,-314.89C812.78,-303.15 543.93,-280.15 442.25,-271.44"/>
<polygon fill="midnightblue" stroke="midnightblue" points="949.74,-318.39 960,-315.75 950.33,-311.41 949.74,-318.39"/>
</g>
<!-- Node24 -->
<g id="node8" class="node">
<title>Node24</title>
<g id="a_node8"><a xlink:href="hit__manager__bonus_8h.html" target="_top" xlink:title=" ">
<polygon fill="none" stroke="black" points="1803.5,-134.5 1803.5,-153.5 1942.5,-153.5 1942.5,-134.5 1803.5,-134.5"/>
<text text-anchor="middle" x="1873" y="-141.5" font-family="Helvetica,sans-Serif" font-size="10.00">inc/hit_manager_bonus.h</text>
</a>
</g>
</g>
<!-- Node1&#45;&gt;Node24 -->
<g id="edge51" class="edge">
<title>Node1&#45;&gt;Node24</title>
<path fill="none" stroke="midnightblue" d="M1040.58,-304.12C1055.8,-268.25 1088.74,-190.88 1090,-190 1147.64,-149.69 1622.32,-145.14 1803.29,-144.88"/>
<polygon fill="midnightblue" stroke="midnightblue" points="1037.32,-302.84 1036.64,-313.41 1043.77,-305.57 1037.32,-302.84"/>
</g>
<!-- Node42 -->
<g id="node19" class="node">
<title>Node42</title>
<g id="a_node19"><a xlink:href="render_8h.html" target="_top" xlink:title=" ">
<polygon fill="none" stroke="red" points="772,-134.5 772,-153.5 846,-153.5 846,-134.5 772,-134.5"/>
<text text-anchor="middle" x="809" y="-141.5" font-family="Helvetica,sans-Serif" font-size="10.00">inc/render.h</text>
</a>
</g>
</g>
<!-- Node1&#45;&gt;Node42 -->
<g id="edge55" class="edge">
<title>Node1&#45;&gt;Node42</title>
<path fill="none" stroke="midnightblue" d="M1036.18,-302.98C1039.77,-274.49 1041.81,-220.8 1013,-190 990.7,-166.16 898.91,-153.6 846.37,-148.24"/>
<polygon fill="midnightblue" stroke="midnightblue" points="1032.67,-302.79 1034.68,-313.19 1039.6,-303.81 1032.67,-302.79"/>
</g>
<!-- Node58 -->
<g id="node30" class="node">
<title>Node58</title>
<g id="a_node30"><a xlink:href="render__bonus_8h.html" target="_top" xlink:title=" ">
<polygon fill="none" stroke="red" points="573.5,-134.5 573.5,-153.5 682.5,-153.5 682.5,-134.5 573.5,-134.5"/>
<text text-anchor="middle" x="628" y="-141.5" font-family="Helvetica,sans-Serif" font-size="10.00">inc/render_bonus.h</text>
</a>
</g>
</g>
<!-- Node1&#45;&gt;Node58 -->
<g id="edge56" class="edge">
<title>Node1&#45;&gt;Node58</title>
<path fill="none" stroke="midnightblue" d="M949.72,-314.48C837.68,-302.43 647.6,-274.51 606,-221 590.15,-200.61 609.45,-169.18 620.81,-153.92"/>
<polygon fill="midnightblue" stroke="midnightblue" points="949.67,-317.99 959.98,-315.56 950.4,-311.03 949.67,-317.99"/>
</g>
<!-- Node92 -->
<g id="node33" class="node">
<title>Node92</title>
<g id="a_node33"><a xlink:href="check_8h.html" target="_top" xlink:title=" ">
<polygon fill="none" stroke="black" points="1450.5,-257.5 1450.5,-276.5 1521.5,-276.5 1521.5,-257.5 1450.5,-257.5"/>
<text text-anchor="middle" x="1486" y="-264.5" font-family="Helvetica,sans-Serif" font-size="10.00">inc/check.h</text>
</a>
</g>
</g>
<!-- Node1&#45;&gt;Node92 -->
<g id="edge38" class="edge">
<title>Node1&#45;&gt;Node92</title>
<path fill="none" stroke="midnightblue" d="M1114.81,-312.25C1214.44,-300.37 1378.31,-280.84 1450.25,-272.26"/>
<polygon fill="midnightblue" stroke="midnightblue" points="1114.29,-308.78 1104.78,-313.44 1115.12,-315.74 1114.29,-308.78"/>
</g>
<!-- Node100 -->
<g id="node41" class="node">
<title>Node100</title>
<g id="a_node41"><a xlink:href="check__bonus_8h.html" target="_top" xlink:title=" ">
<polygon fill="none" stroke="black" points="2147,-257.5 2147,-276.5 2253,-276.5 2253,-257.5 2147,-257.5"/>
<text text-anchor="middle" x="2200" y="-264.5" font-family="Helvetica,sans-Serif" font-size="10.00">inc/check_bonus.h</text>
</a>
</g>
</g>
<!-- Node1&#45;&gt;Node100 -->
<g id="edge46" class="edge">
<title>Node1&#45;&gt;Node100</title>
<path fill="none" stroke="midnightblue" d="M1116.13,-318.15C1341.84,-307.71 1961.63,-279.03 2146.97,-270.45"/>
<polygon fill="midnightblue" stroke="midnightblue" points="1115.83,-314.66 1106,-318.62 1116.15,-321.66 1115.83,-314.66"/>
</g>
<!-- Node105 -->
<g id="node46" class="node">
<title>Node105</title>
<g id="a_node46"><a xlink:href="import__file_8h.html" target="_top" xlink:title=" ">
<polygon fill="none" stroke="black" points="2530.5,-257.5 2530.5,-276.5 2625.5,-276.5 2625.5,-257.5 2530.5,-257.5"/>
<text text-anchor="middle" x="2578" y="-264.5" font-family="Helvetica,sans-Serif" font-size="10.00">inc/import_file.h</text>
</a>
</g>
</g>
<!-- Node1&#45;&gt;Node105 -->
<g id="edge52" class="edge">
<title>Node1&#45;&gt;Node105</title>
<path fill="none" stroke="midnightblue" d="M1116.38,-319.09C1398.4,-309.23 2311.12,-277.33 2530.34,-269.67"/>
<polygon fill="midnightblue" stroke="midnightblue" points="1116.09,-315.59 1106.22,-319.44 1116.34,-322.59 1116.09,-315.59"/>
</g>
<!-- Node108 -->
<g id="node49" class="node">
<title>Node108</title>
<g id="a_node49"><a xlink:href="render__menu_8h.html" target="_top" xlink:title=" ">
<polygon fill="none" stroke="red" points="615.5,-196 615.5,-215 722.5,-215 722.5,-196 615.5,-196"/>
<text text-anchor="middle" x="669" y="-203" font-family="Helvetica,sans-Serif" font-size="10.00">inc/render_menu.h</text>
</a>
</g>
</g>
<!-- Node1&#45;&gt;Node108 -->
<g id="edge57" class="edge">
<title>Node1&#45;&gt;Node108</title>
<path fill="none" stroke="midnightblue" d="M996.23,-310.33C923.07,-287.12 760.78,-235.62 696.24,-215.14"/>
<polygon fill="midnightblue" stroke="midnightblue" points="995.35,-313.72 1005.94,-313.41 997.47,-307.05 995.35,-313.72"/>
</g>
<!-- Node110 -->
<g id="node50" class="node">
<title>Node110</title>
<g id="a_node50"><a xlink:href="threads__bonus_8h.html" target="_top" xlink:title=" ">
<polygon fill="none" stroke="red" points="779,-196 779,-215 893,-215 893,-196 779,-196"/>
<text text-anchor="middle" x="836" y="-203" font-family="Helvetica,sans-Serif" font-size="10.00">inc/threads_bonus.h</text>
</a>
</g>
</g>
<!-- Node1&#45;&gt;Node110 -->
<g id="edge60" class="edge">
<title>Node1&#45;&gt;Node110</title>
<path fill="none" stroke="midnightblue" d="M1009.4,-308.16C968.26,-284.04 884.57,-234.98 850.71,-215.12"/>
<polygon fill="midnightblue" stroke="midnightblue" points="1007.8,-311.28 1018.19,-313.32 1011.34,-305.24 1007.8,-311.28"/>
</g>
<!-- Node3 -->
<g id="node3" class="node">
<title>Node3</title>
<g id="a_node3"><a xlink:href="debug__print_8h.html" target="_top" xlink:title=" ">
<polygon fill="none" stroke="red" points="419.5,-196 419.5,-215 520.5,-215 520.5,-196 419.5,-196"/>
<text text-anchor="middle" x="470" y="-203" font-family="Helvetica,sans-Serif" font-size="10.00">inc/debug_print.h</text>
</a>
</g>
</g>
<!-- Node2&#45;&gt;Node3 -->
<g id="edge2" class="edge">
<title>Node2&#45;&gt;Node3</title>
<path fill="none" stroke="midnightblue" d="M419.54,-250.65C432.51,-239.31 449.68,-224.28 460.28,-215.01"/>
<polygon fill="midnightblue" stroke="midnightblue" points="416.96,-248.26 411.74,-257.48 421.57,-253.52 416.96,-248.26"/>
</g>
<!-- Node6 -->
<g id="node4" class="node">
<title>Node6</title>
<g id="a_node4"><a xlink:href="mini_r_t_8h.html" target="_top" xlink:title=" ">
<polygon fill="none" stroke="red" points="0,-73 0,-92 76,-92 76,-73 0,-73"/>
<text text-anchor="middle" x="38" y="-80" font-family="Helvetica,sans-Serif" font-size="10.00">inc/miniRT.h</text>
</a>
</g>
</g>
<!-- Node2&#45;&gt;Node6 -->
<g id="edge3" class="edge">
<title>Node2&#45;&gt;Node6</title>
<path fill="none" stroke="midnightblue" d="M351.55,-263.54C255.03,-258.31 51.91,-244.6 31,-221 -1.97,-183.79 23.26,-116.27 33.88,-92.26"/>
<polygon fill="midnightblue" stroke="midnightblue" points="351.49,-267.04 361.66,-264.08 351.86,-260.05 351.49,-267.04"/>
</g>
<!-- Node8 -->
<g id="node5" class="node">
<title>Node8</title>
<g id="a_node5"><a xlink:href="parse_8h.html" target="_top" xlink:title=" ">
<polygon fill="none" stroke="red" points="40,-196 40,-215 110,-215 110,-196 40,-196"/>
<text text-anchor="middle" x="75" y="-203" font-family="Helvetica,sans-Serif" font-size="10.00">inc/parse.h</text>
</a>
</g>
</g>
<!-- Node2&#45;&gt;Node8 -->
<g id="edge4" class="edge">
<title>Node2&#45;&gt;Node8</title>
<path fill="none" stroke="midnightblue" d="M351.58,-260.46C294.6,-253.64 199.33,-240.49 119,-221 112.28,-219.37 105.11,-217.2 98.55,-215.03"/>
<polygon fill="midnightblue" stroke="midnightblue" points="351.42,-263.97 361.76,-261.67 352.24,-257.02 351.42,-263.97"/>
</g>
<!-- Node13 -->
<g id="node6" class="node">
<title>Node13</title>
<g id="a_node6"><a xlink:href="parse__bonus_8h.html" target="_top" xlink:title=" ">
<polygon fill="none" stroke="red" points="112,-134.5 112,-153.5 216,-153.5 216,-134.5 112,-134.5"/>
<text text-anchor="middle" x="164" y="-141.5" font-family="Helvetica,sans-Serif" font-size="10.00">inc/parse_bonus.h</text>
</a>
</g>
</g>
<!-- Node2&#45;&gt;Node13 -->
<g id="edge5" class="edge">
<title>Node2&#45;&gt;Node13</title>
<path fill="none" stroke="midnightblue" d="M351.89,-255.91C322.51,-248.74 285.33,-237.43 255,-221 245.95,-216.1 195.5,-172.47 173.86,-153.62"/>
<polygon fill="midnightblue" stroke="midnightblue" points="351.4,-259.39 361.93,-258.28 353,-252.58 351.4,-259.39"/>
</g>
<!-- Node17 -->
<g id="node7" class="node">
<title>Node17</title>
<g id="a_node7"><a xlink:href="ray__bonus_8h.html" target="_top" xlink:title=" ">
<polygon fill="none" stroke="red" points="911.5,-196 911.5,-215 1004.5,-215 1004.5,-196 911.5,-196"/>
<text text-anchor="middle" x="958" y="-203" font-family="Helvetica,sans-Serif" font-size="10.00">inc/ray_bonus.h</text>
</a>
</g>
</g>
<!-- Node2&#45;&gt;Node17 -->
<g id="edge7" class="edge">
<title>Node2&#45;&gt;Node17</title>
<path fill="none" stroke="midnightblue" d="M452.4,-264.19C542.99,-260.33 739.06,-249.23 902,-221 910.81,-219.47 920.26,-217.26 928.84,-215.01"/>
<polygon fill="midnightblue" stroke="midnightblue" points="452,-260.7 442.15,-264.62 452.29,-267.7 452,-260.7"/>
</g>
<!-- Node2&#45;&gt;Node42 -->
<g id="edge34" class="edge">
<title>Node2&#45;&gt;Node42</title>
<path fill="none" stroke="midnightblue" d="M452.58,-262.95C532.3,-257.5 683.03,-244.42 731,-221 747.82,-212.79 785.28,-171.82 801.39,-153.67"/>
<polygon fill="midnightblue" stroke="midnightblue" points="452.04,-259.48 442.29,-263.64 452.5,-266.46 452.04,-259.48"/>
</g>
<!-- Node2&#45;&gt;Node58 -->
<g id="edge35" class="edge">
<title>Node2&#45;&gt;Node58</title>
<path fill="none" stroke="midnightblue" d="M444.47,-254.61C469.84,-246.93 502.23,-235.54 529,-221 547.75,-210.81 596.27,-171.3 617.64,-153.63"/>
<polygon fill="midnightblue" stroke="midnightblue" points="443.36,-251.29 434.76,-257.48 445.34,-258 443.36,-251.29"/>
</g>
<!-- Node90 -->
<g id="node31" class="node">
<title>Node90</title>
<g id="a_node31"><a xlink:href="camera_8c.html" target="_top" xlink:title=" ">
<polygon fill="none" stroke="black" points="128.5,-196 128.5,-215 207.5,-215 207.5,-196 128.5,-196"/>
<text text-anchor="middle" x="168" y="-203" font-family="Helvetica,sans-Serif" font-size="10.00">src/camera.c</text>
</a>
</g>
</g>
<!-- Node2&#45;&gt;Node90 -->
<g id="edge36" class="edge">
<title>Node2&#45;&gt;Node90</title>
<path fill="none" stroke="midnightblue" d="M357.28,-255.05C320.83,-246.07 268.03,-232.93 222,-221 214.67,-219.1 206.79,-217.01 199.39,-215.03"/>
<polygon fill="midnightblue" stroke="midnightblue" points="356.56,-258.48 367.11,-257.47 358.24,-251.68 356.56,-258.48"/>
</g>
<!-- Node91 -->
<g id="node32" class="node">
<title>Node91</title>
<g id="a_node32"><a xlink:href="camera__movement_8c.html" target="_top" xlink:title=" ">
<polygon fill="none" stroke="black" points="264.5,-196 264.5,-215 401.5,-215 401.5,-196 264.5,-196"/>
<text text-anchor="middle" x="333" y="-203" font-family="Helvetica,sans-Serif" font-size="10.00">src/camera_movement.c</text>
</a>
</g>
</g>
<!-- Node2&#45;&gt;Node91 -->
<g id="edge37" class="edge">
<title>Node2&#45;&gt;Node91</title>
<path fill="none" stroke="midnightblue" d="M384.2,-250.65C371.04,-239.31 353.62,-224.28 342.87,-215.01"/>
<polygon fill="midnightblue" stroke="midnightblue" points="382.26,-253.6 392.11,-257.48 386.83,-248.29 382.26,-253.6"/>
</g>
<!-- Node13&#45;&gt;Node6 -->
<g id="edge6" class="edge">
<title>Node13&#45;&gt;Node6</title>
<path fill="none" stroke="midnightblue" d="M136.84,-130.17C112.39,-118.63 77.15,-101.99 56.02,-92.01"/>
<polygon fill="midnightblue" stroke="midnightblue" points="135.41,-133.37 145.95,-134.48 138.4,-127.04 135.41,-133.37"/>
</g>
<!-- Node17&#45;&gt;Node24 -->
<g id="edge8" class="edge">
<title>Node17&#45;&gt;Node24</title>
<path fill="none" stroke="midnightblue" d="M1015.01,-195.25C1028.73,-193.27 1043.36,-191.37 1057,-190 1332.46,-162.29 1662.07,-150.68 1803.25,-146.72"/>
<polygon fill="midnightblue" stroke="midnightblue" points="1014.11,-191.85 1004.73,-196.77 1015.13,-198.77 1014.11,-191.85"/>
</g>
<!-- Node17&#45;&gt;Node42 -->
<g id="edge21" class="edge">
<title>Node17&#45;&gt;Node42</title>
<path fill="none" stroke="midnightblue" d="M927.03,-192.13C898.08,-180.57 855.63,-163.62 830.31,-153.51"/>
<polygon fill="midnightblue" stroke="midnightblue" points="926.07,-195.52 936.65,-195.98 928.66,-189.02 926.07,-195.52"/>
</g>
<!-- Node17&#45;&gt;Node58 -->
<g id="edge32" class="edge">
<title>Node17&#45;&gt;Node58</title>
<path fill="none" stroke="midnightblue" d="M917.29,-193.5C912.16,-192.25 906.97,-191.05 902,-190 826.41,-174.04 738.09,-160.43 682.6,-152.48"/>
<polygon fill="midnightblue" stroke="midnightblue" points="916.47,-196.9 927.02,-195.94 918.17,-190.11 916.47,-196.9"/>
</g>
<!-- Node25 -->
<g id="node9" class="node">
<title>Node25</title>
<g id="a_node9"><a xlink:href="lighting_8h.html" target="_top" xlink:title=" ">
<polygon fill="none" stroke="red" points="2460,-73 2460,-92 2540,-92 2540,-73 2460,-73"/>
<text text-anchor="middle" x="2500" y="-80" font-family="Helvetica,sans-Serif" font-size="10.00">inc/lighting.h</text>
</a>
</g>
</g>
<!-- Node24&#45;&gt;Node25 -->
<g id="edge9" class="edge">
<title>Node24&#45;&gt;Node25</title>
<path fill="none" stroke="midnightblue" d="M1952.77,-142.07C2064.91,-139.56 2275.12,-130.5 2451,-98 2458.85,-96.55 2467.24,-94.33 2474.81,-92.05"/>
<polygon fill="midnightblue" stroke="midnightblue" points="1952.49,-138.57 1942.56,-142.28 1952.63,-145.57 1952.49,-138.57"/>
</g>
<!-- Node29 -->
<g id="node10" class="node">
<title>Node29</title>
<g id="a_node10"><a xlink:href="lighting__bonus_8h.html" target="_top" xlink:title=" ">
<polygon fill="none" stroke="red" points="2048,-6 2048,-25 2162,-25 2162,-6 2048,-6"/>
<text text-anchor="middle" x="2105" y="-13" font-family="Helvetica,sans-Serif" font-size="10.00">inc/lighting_bonus.h</text>
</a>
</g>
</g>
<!-- Node24&#45;&gt;Node29 -->
<g id="edge10" class="edge">
<title>Node24&#45;&gt;Node29</title>
<path fill="none" stroke="midnightblue" d="M1952.83,-143.66C2122.96,-144.22 2509.03,-140.72 2549,-98 2558.41,-87.94 2558.18,-77.28 2549,-67 2523.65,-38.61 2276.24,-24.07 2162.13,-18.83"/>
<polygon fill="midnightblue" stroke="midnightblue" points="1952.7,-140.16 1942.68,-143.62 1952.67,-147.16 1952.7,-140.16"/>
</g>
<!-- Node33 -->
<g id="node11" class="node">
<title>Node33</title>
<g id="a_node11"><a xlink:href="texture__bonus_8h.html" target="_top" xlink:title=" ">
<polygon fill="none" stroke="red" points="1503.5,-73 1503.5,-92 1616.5,-92 1616.5,-73 1503.5,-73"/>
<text text-anchor="middle" x="1560" y="-80" font-family="Helvetica,sans-Serif" font-size="10.00">inc/texture_bonus.h</text>
</a>
</g>
</g>
<!-- Node24&#45;&gt;Node33 -->
<g id="edge11" class="edge">
<title>Node24&#45;&gt;Node33</title>
<path fill="none" stroke="midnightblue" d="M1812.48,-132.72C1762.19,-124 1688.8,-110.9 1625,-98 1615.93,-96.17 1606.19,-94.06 1597.07,-92.04"/>
<polygon fill="midnightblue" stroke="midnightblue" points="1812.09,-136.2 1822.54,-134.45 1813.28,-129.3 1812.09,-136.2"/>
</g>
<!-- Node35 -->
<g id="node12" class="node">
<title>Node35</title>
<g id="a_node12"><a xlink:href="utils__cylinder__bonus_8c.html" target="_top" xlink:title=" ">
<polygon fill="none" stroke="black" points="1467.5,-0.5 1467.5,-30.5 1566.5,-30.5 1566.5,-0.5 1467.5,-0.5"/>
<text text-anchor="start" x="1475.5" y="-18.5" font-family="Helvetica,sans-Serif" font-size="10.00">src/utils_cylinder</text>
<text text-anchor="middle" x="1517" y="-7.5" font-family="Helvetica,sans-Serif" font-size="10.00">_bonus.c</text>
</a>
</g>
</g>
<!-- Node24&#45;&gt;Node35 -->
<g id="edge20" class="edge">
<title>Node24&#45;&gt;Node35</title>
<path fill="none" stroke="midnightblue" d="M1793.18,-139.09C1687.87,-133.09 1513.51,-119.96 1494,-98 1477.11,-78.98 1493.55,-48.45 1505.99,-30.65"/>
<polygon fill="midnightblue" stroke="midnightblue" points="1793.28,-142.6 1803.46,-139.66 1793.67,-135.61 1793.28,-142.6"/>
</g>
<!-- Node36 -->
<g id="node13" class="node">
<title>Node36</title>
<g id="a_node13"><a xlink:href="hit__bonus_8c.html" target="_top" xlink:title=" ">
<polygon fill="none" stroke="black" points="1634.5,-73 1634.5,-92 1723.5,-92 1723.5,-73 1634.5,-73"/>
<text text-anchor="middle" x="1679" y="-80" font-family="Helvetica,sans-Serif" font-size="10.00">src/hit_bonus.c</text>
</a>
</g>
</g>
<!-- Node24&#45;&gt;Node36 -->
<g id="edge14" class="edge">
<title>Node24&#45;&gt;Node36</title>
<path fill="none" stroke="midnightblue" d="M1835.6,-131.53C1797.89,-119.96 1740.57,-102.38 1706.74,-92.01"/>
<polygon fill="midnightblue" stroke="midnightblue" points="1834.62,-134.89 1845.2,-134.48 1836.67,-128.2 1834.62,-134.89"/>
</g>
<!-- Node37 -->
<g id="node14" class="node">
<title>Node37</title>
<g id="a_node14"><a xlink:href="hit__cone__bonus_8c.html" target="_top" xlink:title=" ">
<polygon fill="none" stroke="black" points="1742,-73 1742,-92 1860,-92 1860,-73 1742,-73"/>
<text text-anchor="middle" x="1801" y="-80" font-family="Helvetica,sans-Serif" font-size="10.00">src/hit_cone_bonus.c</text>
</a>
</g>
</g>
<!-- Node24&#45;&gt;Node37 -->
<g id="edge15" class="edge">
<title>Node24&#45;&gt;Node37</title>
<path fill="none" stroke="midnightblue" d="M1854.82,-127.97C1841.04,-116.59 1822.62,-101.37 1811.3,-92.01"/>
<polygon fill="midnightblue" stroke="midnightblue" points="1852.75,-130.8 1862.68,-134.48 1857.21,-125.41 1852.75,-130.8"/>
</g>
<!-- Node38 -->
<g id="node15" class="node">
<title>Node38</title>
<g id="a_node15"><a xlink:href="hit__cylinder__bonus_8c.html" target="_top" xlink:title=" ">
<polygon fill="none" stroke="black" points="1878,-73 1878,-92 2012,-92 2012,-73 1878,-73"/>
<text text-anchor="middle" x="1945" y="-80" font-family="Helvetica,sans-Serif" font-size="10.00">src/hit_cylinder_bonus.c</text>
</a>
</g>
</g>
<!-- Node24&#45;&gt;Node38 -->
<g id="edge16" class="edge">
<title>Node24&#45;&gt;Node38</title>
<path fill="none" stroke="midnightblue" d="M1891.18,-127.97C1904.96,-116.59 1923.38,-101.37 1934.7,-92.01"/>
<polygon fill="midnightblue" stroke="midnightblue" points="1888.79,-125.41 1883.32,-134.48 1893.25,-130.8 1888.79,-125.41"/>
</g>
<!-- Node39 -->
<g id="node16" class="node">
<title>Node39</title>
<g id="a_node16"><a xlink:href="hit__plane__bonus_8c.html" target="_top" xlink:title=" ">
<polygon fill="none" stroke="black" points="2030,-73 2030,-92 2152,-92 2152,-73 2030,-73"/>
<text text-anchor="middle" x="2091" y="-80" font-family="Helvetica,sans-Serif" font-size="10.00">src/hit_plane_bonus.c</text>
</a>
</g>
</g>
<!-- Node24&#45;&gt;Node39 -->
<g id="edge17" class="edge">
<title>Node24&#45;&gt;Node39</title>
<path fill="none" stroke="midnightblue" d="M1913.95,-131.82C1956.3,-120.26 2021.48,-102.47 2059.82,-92.01"/>
<polygon fill="midnightblue" stroke="midnightblue" points="1912.96,-128.47 1904.23,-134.48 1914.8,-135.22 1912.96,-128.47"/>
</g>
<!-- Node40 -->
<g id="node17" class="node">
<title>Node40</title>
<g id="a_node17"><a xlink:href="hit__sphere__bonus_8c.html" target="_top" xlink:title=" ">
<polygon fill="none" stroke="black" points="2170,-73 2170,-92 2298,-92 2298,-73 2170,-73"/>
<text text-anchor="middle" x="2234" y="-80" font-family="Helvetica,sans-Serif" font-size="10.00">src/hit_sphere_bonus.c</text>
</a>
</g>
</g>
<!-- Node24&#45;&gt;Node40 -->
<g id="edge18" class="edge">
<title>Node24&#45;&gt;Node40</title>
<path fill="none" stroke="midnightblue" d="M1942.36,-132.98C2000.77,-124.34 2086.49,-111.21 2161,-98 2171.31,-96.17 2182.4,-94.05 2192.75,-92"/>
<polygon fill="midnightblue" stroke="midnightblue" points="1941.52,-129.56 1932.14,-134.49 1942.54,-136.49 1941.52,-129.56"/>
</g>
<!-- Node41 -->
<g id="node18" class="node">
<title>Node41</title>
<g id="a_node18"><a xlink:href="utils__cone__bonus_8c.html" target="_top" xlink:title=" ">
<polygon fill="none" stroke="black" points="2316,-73 2316,-92 2442,-92 2442,-73 2316,-73"/>
<text text-anchor="middle" x="2379" y="-80" font-family="Helvetica,sans-Serif" font-size="10.00">src/utils_cone_bonus.c</text>
</a>
</g>
</g>
<!-- Node24&#45;&gt;Node41 -->
<g id="edge19" class="edge">
<title>Node24&#45;&gt;Node41</title>
<path fill="none" stroke="midnightblue" d="M1952.89,-137.02C2040.18,-129.94 2184,-116.72 2307,-98 2317.84,-96.35 2329.52,-94.17 2340.26,-92.01"/>
<polygon fill="midnightblue" stroke="midnightblue" points="1952.48,-133.54 1942.79,-137.83 1953.04,-140.51 1952.48,-133.54"/>
</g>
<!-- Node33&#45;&gt;Node29 -->
<g id="edge12" class="edge">
<title>Node33&#45;&gt;Node29</title>
<path fill="none" stroke="midnightblue" d="M1605.18,-70.72C1611.8,-69.35 1618.56,-68.05 1625,-67 1776.74,-42.18 1957.57,-26.99 2047.82,-20.38"/>
<polygon fill="midnightblue" stroke="midnightblue" points="1603.98,-67.4 1594.94,-72.93 1605.45,-74.24 1603.98,-67.4"/>
</g>
<!-- Node33&#45;&gt;Node35 -->
<g id="edge13" class="edge">
<title>Node33&#45;&gt;Node35</title>
<path fill="none" stroke="midnightblue" d="M1548.66,-64.35C1541.69,-53.82 1532.88,-40.5 1526.32,-30.59"/>
<polygon fill="midnightblue" stroke="midnightblue" points="1545.76,-66.32 1554.2,-72.73 1551.6,-62.46 1545.76,-66.32"/>
</g>
<!-- Node43 -->
<g id="node20" class="node">
<title>Node43</title>
<g id="a_node20"><a xlink:href="render__blend__background_8c.html" target="_top" xlink:title=" ">
<polygon fill="none" stroke="black" points="1143,-73 1143,-92 1311,-92 1311,-73 1143,-73"/>
<text text-anchor="middle" x="1227" y="-80" font-family="Helvetica,sans-Serif" font-size="10.00">src/render_blend_background.c</text>
</a>
</g>
</g>
<!-- Node42&#45;&gt;Node43 -->
<g id="edge22" class="edge">
<title>Node42&#45;&gt;Node43</title>
<path fill="none" stroke="midnightblue" d="M856.14,-136.73C919.4,-128.26 1035.24,-112.53 1134,-98 1146.77,-96.12 1160.52,-94.02 1173.42,-92.01"/>
<polygon fill="midnightblue" stroke="midnightblue" points="855.52,-133.28 846.07,-138.08 856.45,-140.22 855.52,-133.28"/>
</g>
<!-- Node44 -->
<g id="node21" class="node">
<title>Node44</title>
<g id="a_node21"><a xlink:href="render__cleanup_8c.html" target="_top" xlink:title=" ">
<polygon fill="none" stroke="black" points="1329.5,-73 1329.5,-92 1446.5,-92 1446.5,-73 1329.5,-73"/>
<text text-anchor="middle" x="1388" y="-80" font-family="Helvetica,sans-Serif" font-size="10.00">src/render_cleanup.c</text>
</a>
</g>
</g>
<!-- Node42&#45;&gt;Node44 -->
<g id="edge23" class="edge">
<title>Node42&#45;&gt;Node44</title>
<path fill="none" stroke="midnightblue" d="M856.26,-140.77C946.7,-136.08 1150.35,-123.46 1320,-98 1330.5,-96.42 1341.82,-94.22 1352.15,-92"/>
<polygon fill="midnightblue" stroke="midnightblue" points="855.86,-137.29 846.06,-141.29 856.22,-144.28 855.86,-137.29"/>
</g>
<!-- Node45 -->
<g id="node22" class="node">
<title>Node45</title>
<g id="a_node22"><a xlink:href="render__draw_8c.html" target="_top" xlink:title=" ">
<polygon fill="none" stroke="black" points="94,-73 94,-92 196,-92 196,-73 94,-73"/>
<text text-anchor="middle" x="145" y="-80" font-family="Helvetica,sans-Serif" font-size="10.00">src/render_draw.c</text>
</a>
</g>
</g>
<!-- Node42&#45;&gt;Node45 -->
<g id="edge24" class="edge">
<title>Node42&#45;&gt;Node45</title>
<path fill="none" stroke="midnightblue" d="M761.6,-139.36C740.05,-137.71 714.24,-135.75 691,-134 475.02,-117.76 418.98,-131.55 205,-98 195.58,-96.52 185.45,-94.32 176.26,-92.07"/>
<polygon fill="midnightblue" stroke="midnightblue" points="761.56,-142.87 771.8,-140.14 762.1,-135.89 761.56,-142.87"/>
</g>
<!-- Node46 -->
<g id="node23" class="node">
<title>Node46</title>
<g id="a_node23"><a xlink:href="render__init__base_8c.html" target="_top" xlink:title=" ">
<polygon fill="none" stroke="black" points="214.5,-73 214.5,-92 337.5,-92 337.5,-73 214.5,-73"/>
<text text-anchor="middle" x="276" y="-80" font-family="Helvetica,sans-Serif" font-size="10.00">src/render_init_base.c</text>
</a>
</g>
</g>
<!-- Node42&#45;&gt;Node46 -->
<g id="edge25" class="edge">
<title>Node42&#45;&gt;Node46</title>
<path fill="none" stroke="midnightblue" d="M761.75,-139.06C660.48,-130.5 425.33,-110.04 346,-98 335.45,-96.4 324.09,-94.24 313.65,-92.07"/>
<polygon fill="midnightblue" stroke="midnightblue" points="761.72,-142.57 771.98,-139.92 762.31,-135.59 761.72,-142.57"/>
</g>
<!-- Node47 -->
<g id="node24" class="node">
<title>Node47</title>
<g id="a_node24"><a xlink:href="render__init__mlx_8c.html" target="_top" xlink:title=" ">
<polygon fill="none" stroke="black" points="355.5,-73 355.5,-92 474.5,-92 474.5,-73 355.5,-73"/>
<text text-anchor="middle" x="415" y="-80" font-family="Helvetica,sans-Serif" font-size="10.00">src/render_init_mlx.c</text>
</a>
</g>
</g>
<!-- Node42&#45;&gt;Node47 -->
<g id="edge26" class="edge">
<title>Node42&#45;&gt;Node47</title>
<path fill="none" stroke="midnightblue" d="M761.74,-137.5C698.34,-129.89 582.34,-115.12 484,-98 473.99,-96.26 463.22,-94.12 453.23,-92.03"/>
<polygon fill="midnightblue" stroke="midnightblue" points="761.48,-141 771.83,-138.71 762.31,-134.05 761.48,-141"/>
</g>
<!-- Node48 -->
<g id="node25" class="node">
<title>Node48</title>
<g id="a_node25"><a xlink:href="render__keyhook__camera_8c.html" target="_top" xlink:title=" ">
<polygon fill="none" stroke="black" points="493,-67.5 493,-97.5 605,-97.5 605,-67.5 493,-67.5"/>
<text text-anchor="start" x="501" y="-85.5" font-family="Helvetica,sans-Serif" font-size="10.00">src/render_keyhook</text>
<text text-anchor="middle" x="549" y="-74.5" font-family="Helvetica,sans-Serif" font-size="10.00">_camera.c</text>
</a>
</g>
</g>
<!-- Node42&#45;&gt;Node48 -->
<g id="edge27" class="edge">
<title>Node42&#45;&gt;Node48</title>
<path fill="none" stroke="midnightblue" d="M761.88,-132.22C717.86,-122.14 652.1,-107.09 605.33,-96.39"/>
<polygon fill="midnightblue" stroke="midnightblue" points="761.22,-135.66 771.75,-134.48 762.78,-128.83 761.22,-135.66"/>
</g>
<!-- Node49 -->
<g id="node26" class="node">
<title>Node49</title>
<g id="a_node26"><a xlink:href="render__keyhook__colour_8c.html" target="_top" xlink:title=" ">
<polygon fill="none" stroke="black" points="623,-67.5 623,-97.5 735,-97.5 735,-67.5 623,-67.5"/>
<text text-anchor="start" x="631" y="-85.5" font-family="Helvetica,sans-Serif" font-size="10.00">src/render_keyhook</text>
<text text-anchor="middle" x="679" y="-74.5" font-family="Helvetica,sans-Serif" font-size="10.00">_colour.c</text>
</a>
</g>
</g>
<!-- Node42&#45;&gt;Node49 -->
<g id="edge28" class="edge">
<title>Node42&#45;&gt;Node49</title>
<path fill="none" stroke="midnightblue" d="M781.03,-130.2C760.03,-120.58 731.27,-107.42 709.64,-97.52"/>
<polygon fill="midnightblue" stroke="midnightblue" points="779.82,-133.5 790.37,-134.48 782.74,-127.13 779.82,-133.5"/>
</g>
<!-- Node50 -->
<g id="node27" class="node">
<title>Node50</title>
<g id="a_node27"><a xlink:href="render__keyhook__hittable_8c.html" target="_top" xlink:title=" ">
<polygon fill="none" stroke="black" points="753,-67.5 753,-97.5 865,-97.5 865,-67.5 753,-67.5"/>
<text text-anchor="start" x="761" y="-85.5" font-family="Helvetica,sans-Serif" font-size="10.00">src/render_keyhook</text>
<text text-anchor="middle" x="809" y="-74.5" font-family="Helvetica,sans-Serif" font-size="10.00">_hittable.c</text>
</a>
</g>
</g>
<!-- Node42&#45;&gt;Node50 -->
<g id="edge29" class="edge">
<title>Node42&#45;&gt;Node50</title>
<path fill="none" stroke="midnightblue" d="M809,-124.23C809,-115.59 809,-105.5 809,-97.52"/>
<polygon fill="midnightblue" stroke="midnightblue" points="805.5,-124.48 809,-134.48 812.5,-124.48 805.5,-124.48"/>
</g>
<!-- Node51 -->
<g id="node28" class="node">
<title>Node51</title>
<g id="a_node28"><a xlink:href="render__keyhook__light_8c.html" target="_top" xlink:title=" ">
<polygon fill="none" stroke="black" points="883,-67.5 883,-97.5 995,-97.5 995,-67.5 883,-67.5"/>
<text text-anchor="start" x="891" y="-85.5" font-family="Helvetica,sans-Serif" font-size="10.00">src/render_keyhook</text>
<text text-anchor="middle" x="939" y="-74.5" font-family="Helvetica,sans-Serif" font-size="10.00">_light.c</text>
</a>
</g>
</g>
<!-- Node42&#45;&gt;Node51 -->
<g id="edge30" class="edge">
<title>Node42&#45;&gt;Node51</title>
<path fill="none" stroke="midnightblue" d="M836.97,-130.2C857.97,-120.58 886.73,-107.42 908.36,-97.52"/>
<polygon fill="midnightblue" stroke="midnightblue" points="835.26,-127.13 827.63,-134.48 838.18,-133.5 835.26,-127.13"/>
</g>
<!-- Node52 -->
<g id="node29" class="node">
<title>Node52</title>
<g id="a_node29"><a xlink:href="render__keyhook__options_8c.html" target="_top" xlink:title=" ">
<polygon fill="none" stroke="black" points="1013,-67.5 1013,-97.5 1125,-97.5 1125,-67.5 1013,-67.5"/>
<text text-anchor="start" x="1021" y="-85.5" font-family="Helvetica,sans-Serif" font-size="10.00">src/render_keyhook</text>
<text text-anchor="middle" x="1069" y="-74.5" font-family="Helvetica,sans-Serif" font-size="10.00">_options.c</text>
</a>
</g>
</g>
<!-- Node42&#45;&gt;Node52 -->
<g id="edge31" class="edge">
<title>Node42&#45;&gt;Node52</title>
<path fill="none" stroke="midnightblue" d="M856.12,-132.22C900.14,-122.14 965.9,-107.09 1012.67,-96.39"/>
<polygon fill="midnightblue" stroke="midnightblue" points="855.22,-128.83 846.25,-134.48 856.78,-135.66 855.22,-128.83"/>
</g>
<!-- Node58&#45;&gt;Node6 -->
<g id="edge33" class="edge">
<title>Node58&#45;&gt;Node6</title>
<path fill="none" stroke="midnightblue" d="M562.94,-142.14C460.41,-139.78 255.38,-130.94 85,-98 77.45,-96.54 69.41,-94.32 62.14,-92.04"/>
<polygon fill="midnightblue" stroke="midnightblue" points="563.06,-145.65 573.13,-142.36 563.21,-138.65 563.06,-145.65"/>
</g>
<!-- Node93 -->
<g id="node34" class="node">
<title>Node93</title>
<g id="a_node34"><a xlink:href="check_8c.html" target="_top" xlink:title=" ">
<polygon fill="none" stroke="black" points="1391.5,-196 1391.5,-215 1462.5,-215 1462.5,-196 1391.5,-196"/>
<text text-anchor="middle" x="1427" y="-203" font-family="Helvetica,sans-Serif" font-size="10.00">src/check.c</text>
</a>
</g>
</g>
<!-- Node92&#45;&gt;Node93 -->
<g id="edge39" class="edge">
<title>Node92&#45;&gt;Node93</title>
<path fill="none" stroke="midnightblue" d="M1470.46,-250.32C1459.25,-239.02 1444.54,-224.19 1435.44,-215.01"/>
<polygon fill="midnightblue" stroke="midnightblue" points="1468.02,-252.84 1477.55,-257.48 1472.99,-247.91 1468.02,-252.84"/>
</g>
<!-- Node94 -->
<g id="node35" class="node">
<title>Node94</title>
<g id="a_node35"><a xlink:href="check__entity___a_c_l_8c.html" target="_top" xlink:title=" ">
<polygon fill="none" stroke="black" points="1481,-196 1481,-215 1609,-215 1609,-196 1481,-196"/>
<text text-anchor="middle" x="1545" y="-203" font-family="Helvetica,sans-Serif" font-size="10.00">src/check_entity_ACL.c</text>
</a>
</g>
</g>
<!-- Node92&#45;&gt;Node94 -->
<g id="edge40" class="edge">
<title>Node92&#45;&gt;Node94</title>
<path fill="none" stroke="midnightblue" d="M1501.54,-250.32C1512.75,-239.02 1527.46,-224.19 1536.56,-215.01"/>
<polygon fill="midnightblue" stroke="midnightblue" points="1499.01,-247.91 1494.45,-257.48 1503.98,-252.84 1499.01,-247.91"/>
</g>
<!-- Node95 -->
<g id="node36" class="node">
<title>Node95</title>
<g id="a_node36"><a xlink:href="check__entity__sp__pl__cy_8c.html" target="_top" xlink:title=" ">
<polygon fill="none" stroke="black" points="1627.5,-190.5 1627.5,-220.5 1740.5,-220.5 1740.5,-190.5 1627.5,-190.5"/>
<text text-anchor="start" x="1635.5" y="-208.5" font-family="Helvetica,sans-Serif" font-size="10.00">src/check_entity_sp</text>
<text text-anchor="middle" x="1684" y="-197.5" font-family="Helvetica,sans-Serif" font-size="10.00">_pl_cy.c</text>
</a>
</g>
</g>
<!-- Node92&#45;&gt;Node95 -->
<g id="edge41" class="edge">
<title>Node92&#45;&gt;Node95</title>
<path fill="none" stroke="midnightblue" d="M1524.32,-254.48C1556.61,-244.78 1602.9,-230.87 1637.34,-220.52"/>
<polygon fill="midnightblue" stroke="midnightblue" points="1522.94,-251.25 1514.37,-257.48 1524.95,-257.95 1522.94,-251.25"/>
</g>
<!-- Node96 -->
<g id="node37" class="node">
<title>Node96</title>
<g id="a_node37"><a xlink:href="check__line_8c.html" target="_top" xlink:title=" ">
<polygon fill="none" stroke="black" points="1759,-196 1759,-215 1853,-215 1853,-196 1759,-196"/>
<text text-anchor="middle" x="1806" y="-203" font-family="Helvetica,sans-Serif" font-size="10.00">src/check_line.c</text>
</a>
</g>
</g>
<!-- Node92&#45;&gt;Node96 -->
<g id="edge42" class="edge">
<title>Node92&#45;&gt;Node96</title>
<path fill="none" stroke="midnightblue" d="M1531.94,-259.27C1584.6,-251.3 1673.38,-237.06 1749,-221 1757.29,-219.24 1766.2,-217.1 1774.45,-215"/>
<polygon fill="midnightblue" stroke="midnightblue" points="1531.27,-255.84 1521.91,-260.78 1532.31,-262.76 1531.27,-255.84"/>
</g>
<!-- Node97 -->
<g id="node38" class="node">
<title>Node97</title>
<g id="a_node38"><a xlink:href="check__rm__space_8c.html" target="_top" xlink:title=" ">
<polygon fill="none" stroke="black" points="1871.5,-196 1871.5,-215 1994.5,-215 1994.5,-196 1871.5,-196"/>
<text text-anchor="middle" x="1933" y="-203" font-family="Helvetica,sans-Serif" font-size="10.00">src/check_rm_space.c</text>
</a>
</g>
</g>
<!-- Node92&#45;&gt;Node97 -->
<g id="edge43" class="edge">
<title>Node92&#45;&gt;Node97</title>
<path fill="none" stroke="midnightblue" d="M1532.03,-261.72C1603.07,-254.85 1743.63,-240.14 1862,-221 1872.43,-219.31 1883.66,-217.17 1894.04,-215.06"/>
<polygon fill="midnightblue" stroke="midnightblue" points="1531.27,-258.28 1521.65,-262.72 1531.94,-265.25 1531.27,-258.28"/>
</g>
<!-- Node98 -->
<g id="node39" class="node">
<title>Node98</title>
<g id="a_node39"><a xlink:href="error__msg__check_8c.html" target="_top" xlink:title=" ">
<polygon fill="none" stroke="black" points="1099.5,-196 1099.5,-215 1224.5,-215 1224.5,-196 1099.5,-196"/>
<text text-anchor="middle" x="1162" y="-203" font-family="Helvetica,sans-Serif" font-size="10.00">src/error_msg_check.c</text>
</a>
</g>
</g>
<!-- Node92&#45;&gt;Node98 -->
<g id="edge44" class="edge">
<title>Node92&#45;&gt;Node98</title>
<path fill="none" stroke="midnightblue" d="M1440.34,-258.24C1389.63,-249.53 1305.36,-234.82 1233,-221 1223.24,-219.14 1212.74,-217.04 1202.89,-215.04"/>
<polygon fill="midnightblue" stroke="midnightblue" points="1439.89,-261.71 1450.33,-259.95 1441.07,-254.81 1439.89,-261.71"/>
</g>
<!-- Node99 -->
<g id="node40" class="node">
<title>Node99</title>
<g id="a_node40"><a xlink:href="error__msg__check2_8c.html" target="_top" xlink:title=" ">
<polygon fill="none" stroke="black" points="1242.5,-196 1242.5,-215 1373.5,-215 1373.5,-196 1242.5,-196"/>
<text text-anchor="middle" x="1308" y="-203" font-family="Helvetica,sans-Serif" font-size="10.00">src/error_msg_check2.c</text>
</a>
</g>
</g>
<!-- Node92&#45;&gt;Node99 -->
<g id="edge45" class="edge">
<title>Node92&#45;&gt;Node99</title>
<path fill="none" stroke="midnightblue" d="M1450.79,-254.23C1416.19,-242.67 1364.23,-225.3 1333.46,-215.01"/>
<polygon fill="midnightblue" stroke="midnightblue" points="1449.9,-257.62 1460.5,-257.48 1452.12,-250.99 1449.9,-257.62"/>
</g>
<!-- Node101 -->
<g id="node42" class="node">
<title>Node101</title>
<g id="a_node42"><a xlink:href="check__bonus_8c.html" target="_top" xlink:title=" ">
<polygon fill="none" stroke="black" points="2276.5,-196 2276.5,-215 2381.5,-215 2381.5,-196 2276.5,-196"/>
<text text-anchor="middle" x="2329" y="-203" font-family="Helvetica,sans-Serif" font-size="10.00">src/check_bonus.c</text>
</a>
</g>
</g>
<!-- Node100&#45;&gt;Node101 -->
<g id="edge47" class="edge">
<title>Node100&#45;&gt;Node101</title>
<path fill="none" stroke="midnightblue" d="M2227.81,-253.17C2252.84,-241.63 2288.92,-224.99 2310.55,-215.01"/>
<polygon fill="midnightblue" stroke="midnightblue" points="2226.1,-250.11 2218.48,-257.48 2229.03,-256.46 2226.1,-250.11"/>
</g>
<!-- Node102 -->
<g id="node43" class="node">
<title>Node102</title>
<g id="a_node43"><a xlink:href="check__entity__sp__pl__cy__bonus_8c.html" target="_top" xlink:title=" ">
<polygon fill="none" stroke="black" points="2399.5,-190.5 2399.5,-220.5 2512.5,-220.5 2512.5,-190.5 2399.5,-190.5"/>
<text text-anchor="start" x="2407.5" y="-208.5" font-family="Helvetica,sans-Serif" font-size="10.00">src/check_entity_sp</text>
<text text-anchor="middle" x="2456" y="-197.5" font-family="Helvetica,sans-Serif" font-size="10.00">_pl_cy_bonus.c</text>
</a>
</g>
</g>
<!-- Node100&#45;&gt;Node102 -->
<g id="edge48" class="edge">
<title>Node100&#45;&gt;Node102</title>
<path fill="none" stroke="midnightblue" d="M2246.57,-255.18C2289.46,-245.21 2353.2,-230.39 2399.09,-219.73"/>
<polygon fill="midnightblue" stroke="midnightblue" points="2245.63,-251.8 2236.68,-257.48 2247.21,-258.62 2245.63,-251.8"/>
</g>
<!-- Node103 -->
<g id="node44" class="node">
<title>Node103</title>
<g id="a_node44"><a xlink:href="check__win__size__bonus_8c.html" target="_top" xlink:title=" ">
<polygon fill="none" stroke="black" points="2013,-190.5 2013,-220.5 2123,-220.5 2123,-190.5 2013,-190.5"/>
<text text-anchor="start" x="2021" y="-208.5" font-family="Helvetica,sans-Serif" font-size="10.00">src/check_win_size</text>
<text text-anchor="middle" x="2068" y="-197.5" font-family="Helvetica,sans-Serif" font-size="10.00">_bonus.c</text>
</a>
</g>
</g>
<!-- Node100&#45;&gt;Node103 -->
<g id="edge49" class="edge">
<title>Node100&#45;&gt;Node103</title>
<path fill="none" stroke="midnightblue" d="M2171.89,-253.33C2150.54,-243.7 2121.17,-230.47 2099.11,-220.52"/>
<polygon fill="midnightblue" stroke="midnightblue" points="2170.53,-256.56 2181.09,-257.48 2173.41,-250.17 2170.53,-256.56"/>
</g>
<!-- Node104 -->
<g id="node45" class="node">
<title>Node104</title>
<g id="a_node45"><a xlink:href="error__msg__check__bonus_8c.html" target="_top" xlink:title=" ">
<polygon fill="none" stroke="black" points="2141.5,-190.5 2141.5,-220.5 2258.5,-220.5 2258.5,-190.5 2141.5,-190.5"/>
<text text-anchor="start" x="2149.5" y="-208.5" font-family="Helvetica,sans-Serif" font-size="10.00">src/error_msg_check</text>
<text text-anchor="middle" x="2200" y="-197.5" font-family="Helvetica,sans-Serif" font-size="10.00">_bonus.c</text>
</a>
</g>
</g>
<!-- Node100&#45;&gt;Node104 -->
<g id="edge50" class="edge">
<title>Node100&#45;&gt;Node104</title>
<path fill="none" stroke="midnightblue" d="M2200,-247.23C2200,-238.59 2200,-228.5 2200,-220.52"/>
<polygon fill="midnightblue" stroke="midnightblue" points="2196.5,-247.48 2200,-257.48 2203.5,-247.48 2196.5,-247.48"/>
</g>
<!-- Node106 -->
<g id="node47" class="node">
<title>Node106</title>
<g id="a_node47"><a xlink:href="import__file_8c.html" target="_top" xlink:title=" ">
<polygon fill="none" stroke="black" points="2530.5,-196 2530.5,-215 2625.5,-215 2625.5,-196 2530.5,-196"/>
<text text-anchor="middle" x="2578" y="-203" font-family="Helvetica,sans-Serif" font-size="10.00">src/import_file.c</text>
</a>
</g>
</g>
<!-- Node105&#45;&gt;Node106 -->
<g id="edge53" class="edge">
<title>Node105&#45;&gt;Node106</title>
<path fill="none" stroke="midnightblue" d="M2578,-247.32C2578,-236.5 2578,-223.4 2578,-215.01"/>
<polygon fill="midnightblue" stroke="midnightblue" points="2574.5,-247.48 2578,-257.48 2581.5,-247.48 2574.5,-247.48"/>
</g>
<!-- Node107 -->
<g id="node48" class="node">
<title>Node107</title>
<g id="a_node48"><a xlink:href="import__file__buffer_8c.html" target="_top" xlink:title=" ">
<polygon fill="none" stroke="black" points="2644,-196 2644,-215 2772,-215 2772,-196 2644,-196"/>
<text text-anchor="middle" x="2708" y="-203" font-family="Helvetica,sans-Serif" font-size="10.00">src/import_file_buffer.c</text>
</a>
</g>
</g>
<!-- Node105&#45;&gt;Node107 -->
<g id="edge54" class="edge">
<title>Node105&#45;&gt;Node107</title>
<path fill="none" stroke="midnightblue" d="M2606.02,-253.17C2631.25,-241.63 2667.61,-224.99 2689.41,-215.01"/>
<polygon fill="midnightblue" stroke="midnightblue" points="2604.26,-250.13 2596.63,-257.48 2607.18,-256.5 2604.26,-250.13"/>
</g>
<!-- Node108&#45;&gt;Node42 -->
<g id="edge58" class="edge">
<title>Node108&#45;&gt;Node42</title>
<path fill="none" stroke="midnightblue" d="M698.46,-191.98C725.65,-180.42 765.29,-163.58 788.98,-153.51"/>
<polygon fill="midnightblue" stroke="midnightblue" points="696.89,-188.84 689.06,-195.98 699.63,-195.28 696.89,-188.84"/>
</g>
<!-- Node108&#45;&gt;Node58 -->
<g id="edge59" class="edge">
<title>Node108&#45;&gt;Node58</title>
<path fill="none" stroke="midnightblue" d="M657.29,-187.51C649.63,-176.39 639.95,-162.34 633.86,-153.51"/>
<polygon fill="midnightblue" stroke="midnightblue" points="654.57,-189.73 663.13,-195.98 660.33,-185.75 654.57,-189.73"/>
</g>
<!-- Node110&#45;&gt;Node42 -->
<g id="edge61" class="edge">
<title>Node110&#45;&gt;Node42</title>
<path fill="none" stroke="midnightblue" d="M827.98,-186.83C822.99,-175.83 816.79,-162.16 812.86,-153.51"/>
<polygon fill="midnightblue" stroke="midnightblue" points="824.81,-188.32 832.13,-195.98 831.19,-185.42 824.81,-188.32"/>
</g>
<!-- Node110&#45;&gt;Node58 -->
<g id="edge62" class="edge">
<title>Node110&#45;&gt;Node58</title>
<path fill="none" stroke="midnightblue" d="M796.41,-193.18C756,-181.61 694.17,-163.93 657.75,-153.51"/>
<polygon fill="midnightblue" stroke="midnightblue" points="795.62,-196.59 806.2,-195.98 797.55,-189.86 795.62,-196.59"/>
</g>
</g>
</svg>
