<?xml version="1.0" encoding="UTF-8" standalone="no"?>
<!DOCTYPE svg PUBLIC "-//W3C//DTD SVG 1.1//EN"
 "http://www.w3.org/Graphics/SVG/1.1/DTD/svg11.dtd">
<!-- Generated by graphviz version 2.43.0 (0)
 -->
<!-- Title: inc/miniRT_config_bonus.h Pages: 1 -->
<svg width="3648pt" height="330pt"
 viewBox="0.00 0.00 3648.00 330.00" xmlns="http://www.w3.org/2000/svg" xmlns:xlink="http://www.w3.org/1999/xlink">
<g id="graph0" class="graph" transform="scale(1 1) rotate(0) translate(4 326)">
<title>inc/miniRT_config_bonus.h</title>
<!-- Node1 -->
<g id="node1" class="node">
<title>Node1</title>
<g id="a_node1"><a xlink:title=" ">
<polygon fill="#bfbfbf" stroke="black" points="1958,-302.5 1958,-321.5 2104,-321.5 2104,-302.5 1958,-302.5"/>
<text text-anchor="middle" x="2031" y="-309.5" font-family="Helvetica,sans-Serif" font-size="10.00">inc/miniRT_config_bonus.h</text>
</a>
</g>
</g>
<!-- Node2 -->
<g id="node2" class="node">
<title>Node2</title>
<g id="a_node2"><a xlink:href="camera_8h.html" target="_top" xlink:title=" ">
<polygon fill="none" stroke="black" points="1459,-246.5 1459,-265.5 1539,-265.5 1539,-246.5 1459,-246.5"/>
<text text-anchor="middle" x="1499" y="-253.5" font-family="Helvetica,sans-Serif" font-size="10.00">inc/camera.h</text>
</a>
</g>
</g>
<!-- Node1&#45;&gt;Node2 -->
<g id="edge1" class="edge">
<title>Node1&#45;&gt;Node2</title>
<path fill="none" stroke="midnightblue" d="M1947.61,-302.54C1831.56,-290.76 1625.88,-269.88 1539.25,-261.09"/>
<polygon fill="midnightblue" stroke="midnightblue" points="1947.56,-306.05 1957.86,-303.58 1948.27,-299.08 1947.56,-306.05"/>
</g>
<!-- Node18 -->
<g id="node8" class="node">
<title>Node18</title>
<g id="a_node8"><a xlink:href="render__bonus_8h.html" target="_top" xlink:title=" ">
<polygon fill="none" stroke="red" points="1713.5,-123.5 1713.5,-142.5 1822.5,-142.5 1822.5,-123.5 1713.5,-123.5"/>
<text text-anchor="middle" x="1768" y="-130.5" font-family="Helvetica,sans-Serif" font-size="10.00">inc/render_bonus.h</text>
</a>
</g>
</g>
<!-- Node1&#45;&gt;Node18 -->
<g id="edge60" class="edge">
<title>Node1&#45;&gt;Node18</title>
<path fill="none" stroke="midnightblue" d="M2002.65,-298.16C1965.49,-280.72 1899.07,-247.39 1848,-210 1818.94,-188.72 1789.42,-157.71 1775.78,-142.73"/>
<polygon fill="midnightblue" stroke="midnightblue" points="2001.33,-301.4 2011.87,-302.44 2004.28,-295.06 2001.33,-301.4"/>
</g>
<!-- Node19 -->
<g id="node9" class="node">
<title>Node19</title>
<g id="a_node9"><a xlink:href="menu__put_8h.html" target="_top" xlink:title=" ">
<polygon fill="none" stroke="red" points="1983,-67.5 1983,-86.5 2075,-86.5 2075,-67.5 1983,-67.5"/>
<text text-anchor="middle" x="2029" y="-74.5" font-family="Helvetica,sans-Serif" font-size="10.00">inc/menu_put.h</text>
</a>
</g>
</g>
<!-- Node1&#45;&gt;Node19 -->
<g id="edge58" class="edge">
<title>Node1&#45;&gt;Node19</title>
<path fill="none" stroke="midnightblue" d="M2032.53,-292.21C2033.12,-284.15 2033.71,-274.62 2034,-266 2036.3,-196.82 2031.36,-113.29 2029.6,-86.62"/>
<polygon fill="midnightblue" stroke="midnightblue" points="2029.03,-292.14 2031.75,-302.38 2036.01,-292.68 2029.03,-292.14"/>
</g>
<!-- Node47 -->
<g id="node22" class="node">
<title>Node47</title>
<g id="a_node22"><a xlink:href="hit__manager__bonus_8h.html" target="_top" xlink:title=" ">
<polygon fill="none" stroke="black" points="587.5,-123.5 587.5,-142.5 726.5,-142.5 726.5,-123.5 587.5,-123.5"/>
<text text-anchor="middle" x="657" y="-130.5" font-family="Helvetica,sans-Serif" font-size="10.00">inc/hit_manager_bonus.h</text>
</a>
</g>
</g>
<!-- Node1&#45;&gt;Node47 -->
<g id="edge54" class="edge">
<title>Node1&#45;&gt;Node47</title>
<path fill="none" stroke="midnightblue" d="M1947.57,-306.84C1834.52,-300.68 1626.52,-287.49 1450,-266 1162.17,-230.97 819.26,-165.86 700.22,-142.57"/>
<polygon fill="midnightblue" stroke="midnightblue" points="1947.71,-310.35 1957.88,-307.4 1948.08,-303.36 1947.71,-310.35"/>
</g>
<!-- Node61 -->
<g id="node32" class="node">
<title>Node61</title>
<g id="a_node32"><a xlink:href="render_8h.html" target="_top" xlink:title=" ">
<polygon fill="none" stroke="red" points="1915,-123.5 1915,-142.5 1989,-142.5 1989,-123.5 1915,-123.5"/>
<text text-anchor="middle" x="1952" y="-130.5" font-family="Helvetica,sans-Serif" font-size="10.00">inc/render.h</text>
</a>
</g>
</g>
<!-- Node1&#45;&gt;Node61 -->
<g id="edge59" class="edge">
<title>Node1&#45;&gt;Node61</title>
<path fill="none" stroke="midnightblue" d="M2027.91,-292.35C2022.96,-265.88 2011.66,-216.44 1991,-179 1983.21,-164.88 1970.43,-151.26 1961.64,-142.77"/>
<polygon fill="midnightblue" stroke="midnightblue" points="2024.51,-293.25 2029.69,-302.49 2031.4,-292.03 2024.51,-293.25"/>
</g>
<!-- Node80 -->
<g id="node35" class="node">
<title>Node80</title>
<g id="a_node35"><a xlink:href="check_8h.html" target="_top" xlink:title=" ">
<polygon fill="none" stroke="black" points="2450.5,-246.5 2450.5,-265.5 2521.5,-265.5 2521.5,-246.5 2450.5,-246.5"/>
<text text-anchor="middle" x="2486" y="-253.5" font-family="Helvetica,sans-Serif" font-size="10.00">inc/check.h</text>
</a>
</g>
</g>
<!-- Node1&#45;&gt;Node80 -->
<g id="edge42" class="edge">
<title>Node1&#45;&gt;Node80</title>
<path fill="none" stroke="midnightblue" d="M2112.93,-301.28C2213.08,-289.39 2378.14,-269.8 2450.33,-261.23"/>
<polygon fill="midnightblue" stroke="midnightblue" points="2112.36,-297.82 2102.85,-302.47 2113.19,-304.77 2112.36,-297.82"/>
</g>
<!-- Node88 -->
<g id="node43" class="node">
<title>Node88</title>
<g id="a_node43"><a xlink:href="check__bonus_8h.html" target="_top" xlink:title=" ">
<polygon fill="none" stroke="black" points="3072,-246.5 3072,-265.5 3178,-265.5 3178,-246.5 3072,-246.5"/>
<text text-anchor="middle" x="3125" y="-253.5" font-family="Helvetica,sans-Serif" font-size="10.00">inc/check_bonus.h</text>
</a>
</g>
</g>
<!-- Node1&#45;&gt;Node88 -->
<g id="edge50" class="edge">
<title>Node1&#45;&gt;Node88</title>
<path fill="none" stroke="midnightblue" d="M2114.3,-306.89C2328.81,-296.3 2895.61,-268.32 3071.9,-259.62"/>
<polygon fill="midnightblue" stroke="midnightblue" points="2113.87,-303.41 2104.05,-307.39 2114.21,-310.4 2113.87,-303.41"/>
</g>
<!-- Node92 -->
<g id="node47" class="node">
<title>Node92</title>
<g id="a_node47"><a xlink:href="import__file_8h.html" target="_top" xlink:title=" ">
<polygon fill="none" stroke="black" points="3398.5,-246.5 3398.5,-265.5 3493.5,-265.5 3493.5,-246.5 3398.5,-246.5"/>
<text text-anchor="middle" x="3446" y="-253.5" font-family="Helvetica,sans-Serif" font-size="10.00">inc/import_file.h</text>
</a>
</g>
</g>
<!-- Node1&#45;&gt;Node92 -->
<g id="edge55" class="edge">
<title>Node1&#45;&gt;Node92</title>
<path fill="none" stroke="midnightblue" d="M2114.4,-307.82C2378.79,-297.73 3192.95,-266.66 3398.49,-258.81"/>
<polygon fill="midnightblue" stroke="midnightblue" points="2113.96,-304.33 2104.1,-308.21 2114.22,-311.33 2113.96,-304.33"/>
</g>
<!-- Node95 -->
<g id="node50" class="node">
<title>Node95</title>
<g id="a_node50"><a xlink:href="render__menu_8h.html" target="_top" xlink:title=" ">
<polygon fill="none" stroke="red" points="1857.5,-185 1857.5,-204 1964.5,-204 1964.5,-185 1857.5,-185"/>
<text text-anchor="middle" x="1911" y="-192" font-family="Helvetica,sans-Serif" font-size="10.00">inc/render_menu.h</text>
</a>
</g>
</g>
<!-- Node1&#45;&gt;Node95 -->
<g id="edge61" class="edge">
<title>Node1&#45;&gt;Node95</title>
<path fill="none" stroke="midnightblue" d="M2014.53,-295.15C1988.89,-270.47 1940.29,-223.69 1920.12,-204.28"/>
<polygon fill="midnightblue" stroke="midnightblue" points="2012.35,-297.91 2021.98,-302.32 2017.2,-292.86 2012.35,-297.91"/>
</g>
<!-- Node3 -->
<g id="node3" class="node">
<title>Node3</title>
<g id="a_node3"><a xlink:href="lighting__bonus_8h.html" target="_top" xlink:title=" ">
<polygon fill="none" stroke="red" points="1046,-6 1046,-25 1160,-25 1160,-6 1046,-6"/>
<text text-anchor="middle" x="1103" y="-13" font-family="Helvetica,sans-Serif" font-size="10.00">inc/lighting_bonus.h</text>
</a>
</g>
</g>
<!-- Node2&#45;&gt;Node3 -->
<g id="edge2" class="edge">
<title>Node2&#45;&gt;Node3</title>
<path fill="none" stroke="midnightblue" d="M1448.54,-249.76C1356.75,-240.02 1170.84,-219.28 1160,-210 1130.74,-184.94 1109.67,-60.05 1104.33,-25.42"/>
<polygon fill="midnightblue" stroke="midnightblue" points="1448.41,-253.26 1458.72,-250.83 1449.15,-246.3 1448.41,-253.26"/>
</g>
<!-- Node7 -->
<g id="node4" class="node">
<title>Node7</title>
<g id="a_node4"><a xlink:href="mini_r_t_8h.html" target="_top" xlink:title=" ">
<polygon fill="none" stroke="red" points="1309,-67.5 1309,-86.5 1385,-86.5 1385,-67.5 1309,-67.5"/>
<text text-anchor="middle" x="1347" y="-74.5" font-family="Helvetica,sans-Serif" font-size="10.00">inc/miniRT.h</text>
</a>
</g>
</g>
<!-- Node2&#45;&gt;Node7 -->
<g id="edge3" class="edge">
<title>Node2&#45;&gt;Node7</title>
<path fill="none" stroke="midnightblue" d="M1448.71,-254.53C1408.31,-251.61 1352.33,-241.52 1315,-210 1283.85,-183.71 1267.63,-159.38 1286,-123 1294.54,-106.08 1312.78,-93.96 1327.09,-86.59"/>
<polygon fill="midnightblue" stroke="midnightblue" points="1448.69,-258.03 1458.88,-255.14 1449.11,-251.04 1448.69,-258.03"/>
</g>
<!-- Node9 -->
<g id="node5" class="node">
<title>Node9</title>
<g id="a_node5"><a xlink:href="parse_8h.html" target="_top" xlink:title=" ">
<polygon fill="none" stroke="red" points="1169,-185 1169,-204 1239,-204 1239,-185 1169,-185"/>
<text text-anchor="middle" x="1204" y="-192" font-family="Helvetica,sans-Serif" font-size="10.00">inc/parse.h</text>
</a>
</g>
</g>
<!-- Node2&#45;&gt;Node9 -->
<g id="edge4" class="edge">
<title>Node2&#45;&gt;Node9</title>
<path fill="none" stroke="midnightblue" d="M1448.77,-247.42C1398.82,-239.51 1320.16,-226.03 1253,-210 1245.84,-208.29 1238.17,-206.17 1231.08,-204.07"/>
<polygon fill="midnightblue" stroke="midnightblue" points="1448.25,-250.88 1458.67,-248.98 1449.34,-243.97 1448.25,-250.88"/>
</g>
<!-- Node14 -->
<g id="node6" class="node">
<title>Node14</title>
<g id="a_node6"><a xlink:href="parse__bonus_8h.html" target="_top" xlink:title=" ">
<polygon fill="none" stroke="red" points="1295,-123.5 1295,-142.5 1399,-142.5 1399,-123.5 1295,-123.5"/>
<text text-anchor="middle" x="1347" y="-130.5" font-family="Helvetica,sans-Serif" font-size="10.00">inc/parse_bonus.h</text>
</a>
</g>
</g>
<!-- Node2&#45;&gt;Node14 -->
<g id="edge5" class="edge">
<title>Node2&#45;&gt;Node14</title>
<path fill="none" stroke="midnightblue" d="M1448.82,-248.94C1402.7,-242.22 1339.24,-229.65 1324,-210 1308.12,-189.52 1327.97,-158.13 1339.63,-142.9"/>
<polygon fill="midnightblue" stroke="midnightblue" points="1448.57,-252.44 1458.96,-250.37 1449.55,-245.51 1448.57,-252.44"/>
</g>
<!-- Node17 -->
<g id="node7" class="node">
<title>Node17</title>
<g id="a_node7"><a xlink:href="print_8h.html" target="_top" xlink:title=" ">
<polygon fill="none" stroke="red" points="1735.5,-185 1735.5,-204 1800.5,-204 1800.5,-185 1735.5,-185"/>
<text text-anchor="middle" x="1768" y="-192" font-family="Helvetica,sans-Serif" font-size="10.00">inc/print.h</text>
</a>
</g>
</g>
<!-- Node2&#45;&gt;Node17 -->
<g id="edge7" class="edge">
<title>Node2&#45;&gt;Node17</title>
<path fill="none" stroke="midnightblue" d="M1549.23,-247.07C1595.54,-239.29 1665.97,-226.23 1726,-210 1732.26,-208.31 1738.93,-206.17 1745.07,-204.05"/>
<polygon fill="midnightblue" stroke="midnightblue" points="1548.45,-243.65 1539.16,-248.75 1549.6,-250.56 1548.45,-243.65"/>
</g>
<!-- Node2&#45;&gt;Node18 -->
<g id="edge39" class="edge">
<title>Node2&#45;&gt;Node18</title>
<path fill="none" stroke="midnightblue" d="M1524.23,-241.46C1539.54,-232.94 1559.28,-221.44 1576,-210 1594.27,-197.49 1595.35,-189.2 1615,-179 1649.03,-161.33 1691.03,-149.61 1722.4,-142.57"/>
<polygon fill="midnightblue" stroke="midnightblue" points="1522.42,-238.46 1515.34,-246.34 1525.79,-244.59 1522.42,-238.46"/>
</g>
<!-- Node40 -->
<g id="node21" class="node">
<title>Node40</title>
<g id="a_node21"><a xlink:href="ray__bonus_8h.html" target="_top" xlink:title=" ">
<polygon fill="none" stroke="red" points="1624.5,-185 1624.5,-204 1717.5,-204 1717.5,-185 1624.5,-185"/>
<text text-anchor="middle" x="1671" y="-192" font-family="Helvetica,sans-Serif" font-size="10.00">inc/ray_bonus.h</text>
</a>
</g>
</g>
<!-- Node2&#45;&gt;Node40 -->
<g id="edge22" class="edge">
<title>Node2&#45;&gt;Node40</title>
<path fill="none" stroke="midnightblue" d="M1533.45,-243.08C1566.88,-231.52 1616.79,-214.25 1646.4,-204.01"/>
<polygon fill="midnightblue" stroke="midnightblue" points="1531.95,-239.9 1523.64,-246.48 1534.24,-246.51 1531.95,-239.9"/>
</g>
<!-- Node2&#45;&gt;Node61 -->
<g id="edge38" class="edge">
<title>Node2&#45;&gt;Node61</title>
<path fill="none" stroke="midnightblue" d="M1549.37,-253.97C1665.62,-251.06 1944.89,-240.9 1973,-210 1990.5,-190.76 1970.46,-158.22 1958.96,-142.71"/>
<polygon fill="midnightblue" stroke="midnightblue" points="1549.21,-250.47 1539.3,-254.21 1549.38,-257.47 1549.21,-250.47"/>
</g>
<!-- Node78 -->
<g id="node33" class="node">
<title>Node78</title>
<g id="a_node33"><a xlink:href="camera_8c.html" target="_top" xlink:title=" ">
<polygon fill="none" stroke="black" points="1333.5,-185 1333.5,-204 1412.5,-204 1412.5,-185 1333.5,-185"/>
<text text-anchor="middle" x="1373" y="-192" font-family="Helvetica,sans-Serif" font-size="10.00">src/camera.c</text>
</a>
</g>
</g>
<!-- Node2&#45;&gt;Node78 -->
<g id="edge40" class="edge">
<title>Node2&#45;&gt;Node78</title>
<path fill="none" stroke="midnightblue" d="M1471.84,-242.17C1447.39,-230.63 1412.15,-213.99 1391.02,-204.01"/>
<polygon fill="midnightblue" stroke="midnightblue" points="1470.41,-245.37 1480.95,-246.48 1473.4,-239.04 1470.41,-245.37"/>
</g>
<!-- Node79 -->
<g id="node34" class="node">
<title>Node79</title>
<g id="a_node34"><a xlink:href="camera__movement_8c.html" target="_top" xlink:title=" ">
<polygon fill="none" stroke="black" points="1430.5,-185 1430.5,-204 1567.5,-204 1567.5,-185 1430.5,-185"/>
<text text-anchor="middle" x="1499" y="-192" font-family="Helvetica,sans-Serif" font-size="10.00">src/camera_movement.c</text>
</a>
</g>
</g>
<!-- Node2&#45;&gt;Node79 -->
<g id="edge41" class="edge">
<title>Node2&#45;&gt;Node79</title>
<path fill="none" stroke="midnightblue" d="M1499,-236.32C1499,-225.5 1499,-212.4 1499,-204.01"/>
<polygon fill="midnightblue" stroke="midnightblue" points="1495.5,-236.48 1499,-246.48 1502.5,-236.48 1495.5,-236.48"/>
</g>
<!-- Node14&#45;&gt;Node7 -->
<g id="edge6" class="edge">
<title>Node14&#45;&gt;Node7</title>
<path fill="none" stroke="midnightblue" d="M1347,-112.8C1347,-103.91 1347,-93.78 1347,-86.75"/>
<polygon fill="midnightblue" stroke="midnightblue" points="1343.5,-113.08 1347,-123.08 1350.5,-113.08 1343.5,-113.08"/>
</g>
<!-- Node17&#45;&gt;Node18 -->
<g id="edge8" class="edge">
<title>Node17&#45;&gt;Node18</title>
<path fill="none" stroke="midnightblue" d="M1768,-174.82C1768,-164 1768,-150.9 1768,-142.51"/>
<polygon fill="midnightblue" stroke="midnightblue" points="1764.5,-174.98 1768,-184.98 1771.5,-174.98 1764.5,-174.98"/>
</g>
<!-- Node18&#45;&gt;Node7 -->
<g id="edge21" class="edge">
<title>Node18&#45;&gt;Node7</title>
<path fill="none" stroke="midnightblue" d="M1703.42,-123.72C1614.48,-112.31 1457.11,-92.12 1385,-82.87"/>
<polygon fill="midnightblue" stroke="midnightblue" points="1703.03,-127.2 1713.39,-125 1703.92,-120.25 1703.03,-127.2"/>
</g>
<!-- Node18&#45;&gt;Node19 -->
<g id="edge9" class="edge">
<title>Node18&#45;&gt;Node19</title>
<path fill="none" stroke="midnightblue" d="M1819.19,-121.41C1868.51,-111.2 1942.19,-95.96 1987.84,-86.52"/>
<polygon fill="midnightblue" stroke="midnightblue" points="1818.44,-117.99 1809.36,-123.44 1819.86,-124.84 1818.44,-117.99"/>
</g>
<!-- Node20 -->
<g id="node10" class="node">
<title>Node20</title>
<g id="a_node10"><a xlink:href="menu__put__bonus_8h.html" target="_top" xlink:title=" ">
<polygon fill="none" stroke="red" points="1655,-6 1655,-25 1781,-25 1781,-6 1655,-6"/>
<text text-anchor="middle" x="1718" y="-13" font-family="Helvetica,sans-Serif" font-size="10.00">inc/menu_put_bonus.h</text>
</a>
</g>
</g>
<!-- Node19&#45;&gt;Node20 -->
<g id="edge10" class="edge">
<title>Node19&#45;&gt;Node20</title>
<path fill="none" stroke="midnightblue" d="M1972.73,-65.61C1924.27,-56.62 1852.49,-43.17 1790,-31 1780.24,-29.1 1769.74,-27.01 1759.86,-25.02"/>
<polygon fill="midnightblue" stroke="midnightblue" points="1972.23,-69.08 1982.7,-67.46 1973.51,-62.2 1972.23,-69.08"/>
</g>
<!-- Node22 -->
<g id="node11" class="node">
<title>Node22</title>
<g id="a_node11"><a xlink:href="menu__put__cam__light_8c.html" target="_top" xlink:title=" ">
<polygon fill="none" stroke="black" points="1799,-6 1799,-25 1943,-25 1943,-6 1799,-6"/>
<text text-anchor="middle" x="1871" y="-13" font-family="Helvetica,sans-Serif" font-size="10.00">src/menu_put_cam_light.c</text>
</a>
</g>
</g>
<!-- Node19&#45;&gt;Node22 -->
<g id="edge11" class="edge">
<title>Node19&#45;&gt;Node22</title>
<path fill="none" stroke="midnightblue" d="M1996.96,-63.93C1966.25,-52.37 1920.68,-35.21 1893.6,-25.01"/>
<polygon fill="midnightblue" stroke="midnightblue" points="1995.77,-67.23 2006.36,-67.48 1998.24,-60.68 1995.77,-67.23"/>
</g>
<!-- Node23 -->
<g id="node12" class="node">
<title>Node23</title>
<g id="a_node12"><a xlink:href="menu__put__cam__light__ctrl_8c.html" target="_top" xlink:title=" ">
<polygon fill="none" stroke="black" points="1961,-0.5 1961,-30.5 2097,-30.5 2097,-0.5 1961,-0.5"/>
<text text-anchor="start" x="1969" y="-18.5" font-family="Helvetica,sans-Serif" font-size="10.00">src/menu_put_cam_light</text>
<text text-anchor="middle" x="2029" y="-7.5" font-family="Helvetica,sans-Serif" font-size="10.00">_ctrl.c</text>
</a>
</g>
</g>
<!-- Node19&#45;&gt;Node23 -->
<g id="edge12" class="edge">
<title>Node19&#45;&gt;Node23</title>
<path fill="none" stroke="midnightblue" d="M2029,-57.23C2029,-48.59 2029,-38.5 2029,-30.52"/>
<polygon fill="midnightblue" stroke="midnightblue" points="2025.5,-57.48 2029,-67.48 2032.5,-57.48 2025.5,-57.48"/>
</g>
<!-- Node24 -->
<g id="node13" class="node">
<title>Node24</title>
<g id="a_node13"><a xlink:href="menu__put__general__info_8c.html" target="_top" xlink:title=" ">
<polygon fill="none" stroke="black" points="2115.5,-0.5 2115.5,-30.5 2240.5,-30.5 2240.5,-0.5 2115.5,-0.5"/>
<text text-anchor="start" x="2123.5" y="-18.5" font-family="Helvetica,sans-Serif" font-size="10.00">src/menu_put_general</text>
<text text-anchor="middle" x="2178" y="-7.5" font-family="Helvetica,sans-Serif" font-size="10.00">_info.c</text>
</a>
</g>
</g>
<!-- Node19&#45;&gt;Node24 -->
<g id="edge13" class="edge">
<title>Node19&#45;&gt;Node24</title>
<path fill="none" stroke="midnightblue" d="M2059.75,-63.72C2083.94,-54.06 2117.64,-40.6 2142.88,-30.52"/>
<polygon fill="midnightblue" stroke="midnightblue" points="2058.34,-60.52 2050.35,-67.48 2060.93,-67.02 2058.34,-60.52"/>
</g>
<!-- Node25 -->
<g id="node14" class="node">
<title>Node25</title>
<g id="a_node14"><a xlink:href="menu__put__general__info__bonus_8c.html" target="_top" xlink:title=" ">
<polygon fill="none" stroke="black" points="2258.5,-0.5 2258.5,-30.5 2383.5,-30.5 2383.5,-0.5 2258.5,-0.5"/>
<text text-anchor="start" x="2266.5" y="-18.5" font-family="Helvetica,sans-Serif" font-size="10.00">src/menu_put_general</text>
<text text-anchor="middle" x="2321" y="-7.5" font-family="Helvetica,sans-Serif" font-size="10.00">_info_bonus.c</text>
</a>
</g>
</g>
<!-- Node19&#45;&gt;Node25 -->
<g id="edge14" class="edge">
<title>Node19&#45;&gt;Node25</title>
<path fill="none" stroke="midnightblue" d="M2080.71,-65.46C2130.32,-55.36 2205.29,-40.08 2258.28,-29.28"/>
<polygon fill="midnightblue" stroke="midnightblue" points="2079.94,-62.05 2070.84,-67.48 2081.33,-68.91 2079.94,-62.05"/>
</g>
<!-- Node26 -->
<g id="node15" class="node">
<title>Node26</title>
<g id="a_node15"><a xlink:href="menu__put__hittable_8c.html" target="_top" xlink:title=" ">
<polygon fill="none" stroke="black" points="2402,-6 2402,-25 2536,-25 2536,-6 2402,-6"/>
<text text-anchor="middle" x="2469" y="-13" font-family="Helvetica,sans-Serif" font-size="10.00">src/menu_put_hittable.c</text>
</a>
</g>
</g>
<!-- Node19&#45;&gt;Node26 -->
<g id="edge15" class="edge">
<title>Node19&#45;&gt;Node26</title>
<path fill="none" stroke="midnightblue" d="M2085.4,-70.12C2156.9,-62.41 2283.91,-47.86 2392,-31 2403.16,-29.26 2415.17,-27.12 2426.32,-25.03"/>
<polygon fill="midnightblue" stroke="midnightblue" points="2084.83,-66.66 2075.26,-71.21 2085.57,-73.62 2084.83,-66.66"/>
</g>
<!-- Node27 -->
<g id="node16" class="node">
<title>Node27</title>
<g id="a_node16"><a xlink:href="menu__put__hittable__bonus_8c.html" target="_top" xlink:title=" ">
<polygon fill="none" stroke="black" points="2554.5,-0.5 2554.5,-30.5 2679.5,-30.5 2679.5,-0.5 2554.5,-0.5"/>
<text text-anchor="start" x="2562.5" y="-18.5" font-family="Helvetica,sans-Serif" font-size="10.00">src/menu_put_hittable</text>
<text text-anchor="middle" x="2617" y="-7.5" font-family="Helvetica,sans-Serif" font-size="10.00">_bonus.c</text>
</a>
</g>
</g>
<!-- Node19&#45;&gt;Node27 -->
<g id="edge16" class="edge">
<title>Node19&#45;&gt;Node27</title>
<path fill="none" stroke="midnightblue" d="M2085.36,-73.15C2180.48,-67.88 2378.78,-54.91 2545,-31 2548.03,-30.56 2551.12,-30.08 2554.24,-29.57"/>
<polygon fill="midnightblue" stroke="midnightblue" points="2084.9,-69.67 2075.1,-73.71 2085.28,-76.66 2084.9,-69.67"/>
</g>
<!-- Node28 -->
<g id="node17" class="node">
<title>Node28</title>
<g id="a_node17"><a xlink:href="menu__put__hittable__ctrl_8c.html" target="_top" xlink:title=" ">
<polygon fill="none" stroke="black" points="2697.5,-0.5 2697.5,-30.5 2822.5,-30.5 2822.5,-0.5 2697.5,-0.5"/>
<text text-anchor="start" x="2705.5" y="-18.5" font-family="Helvetica,sans-Serif" font-size="10.00">src/menu_put_hittable</text>
<text text-anchor="middle" x="2760" y="-7.5" font-family="Helvetica,sans-Serif" font-size="10.00">_ctrl.c</text>
</a>
</g>
</g>
<!-- Node19&#45;&gt;Node28 -->
<g id="edge17" class="edge">
<title>Node19&#45;&gt;Node28</title>
<path fill="none" stroke="midnightblue" d="M2085.39,-74.63C2199.59,-71.31 2466.19,-60.78 2688,-31 2691.03,-30.59 2694.13,-30.13 2697.25,-29.64"/>
<polygon fill="midnightblue" stroke="midnightblue" points="2085.04,-71.14 2075.15,-74.92 2085.24,-78.13 2085.04,-71.14"/>
</g>
<!-- Node29 -->
<g id="node18" class="node">
<title>Node29</title>
<g id="a_node18"><a xlink:href="menu__put__hittable__ctrl__bonus_8c.html" target="_top" xlink:title=" ">
<polygon fill="none" stroke="black" points="1219.5,-0.5 1219.5,-30.5 1344.5,-30.5 1344.5,-0.5 1219.5,-0.5"/>
<text text-anchor="start" x="1227.5" y="-18.5" font-family="Helvetica,sans-Serif" font-size="10.00">src/menu_put_hittable</text>
<text text-anchor="middle" x="1282" y="-7.5" font-family="Helvetica,sans-Serif" font-size="10.00">_ctrl_bonus.c</text>
</a>
</g>
</g>
<!-- Node19&#45;&gt;Node29 -->
<g id="edge18" class="edge">
<title>Node19&#45;&gt;Node29</title>
<path fill="none" stroke="midnightblue" d="M1972.89,-74.76C1856.86,-71.66 1582.27,-61.46 1354,-31 1350.97,-30.6 1347.87,-30.14 1344.75,-29.64"/>
<polygon fill="midnightblue" stroke="midnightblue" points="1972.87,-78.26 1982.96,-75.03 1973.05,-71.27 1972.87,-78.26"/>
</g>
<!-- Node30 -->
<g id="node19" class="node">
<title>Node30</title>
<g id="a_node19"><a xlink:href="menu__put__page_8c.html" target="_top" xlink:title=" ">
<polygon fill="none" stroke="black" points="1363,-6 1363,-25 1483,-25 1483,-6 1363,-6"/>
<text text-anchor="middle" x="1423" y="-13" font-family="Helvetica,sans-Serif" font-size="10.00">src/menu_put_page.c</text>
</a>
</g>
</g>
<!-- Node19&#45;&gt;Node30 -->
<g id="edge19" class="edge">
<title>Node19&#45;&gt;Node30</title>
<path fill="none" stroke="midnightblue" d="M1972.53,-73.57C1874.38,-68.82 1666.16,-56.5 1492,-31 1481.34,-29.44 1469.86,-27.24 1459.38,-25.02"/>
<polygon fill="midnightblue" stroke="midnightblue" points="1972.65,-77.08 1982.81,-74.05 1972.99,-70.08 1972.65,-77.08"/>
</g>
<!-- Node31 -->
<g id="node20" class="node">
<title>Node31</title>
<g id="a_node20"><a xlink:href="menu__put__str__num_8c.html" target="_top" xlink:title=" ">
<polygon fill="none" stroke="black" points="1501,-6 1501,-25 1637,-25 1637,-6 1501,-6"/>
<text text-anchor="middle" x="1569" y="-13" font-family="Helvetica,sans-Serif" font-size="10.00">src/menu_put_str_num.c</text>
</a>
</g>
</g>
<!-- Node19&#45;&gt;Node31 -->
<g id="edge20" class="edge">
<title>Node19&#45;&gt;Node31</title>
<path fill="none" stroke="midnightblue" d="M1972.74,-70.62C1897.92,-63.18 1761.67,-48.67 1646,-31 1634.7,-29.27 1622.53,-27.12 1611.27,-25"/>
<polygon fill="midnightblue" stroke="midnightblue" points="1972.58,-74.12 1982.88,-71.62 1973.27,-67.16 1972.58,-74.12"/>
</g>
<!-- Node40&#45;&gt;Node18 -->
<g id="edge37" class="edge">
<title>Node40&#45;&gt;Node18</title>
<path fill="none" stroke="midnightblue" d="M1693.43,-179.74C1712.16,-168.25 1738.29,-152.22 1754.13,-142.51"/>
<polygon fill="midnightblue" stroke="midnightblue" points="1691.59,-176.76 1684.9,-184.98 1695.25,-182.73 1691.59,-176.76"/>
</g>
<!-- Node40&#45;&gt;Node47 -->
<g id="edge23" class="edge">
<title>Node40&#45;&gt;Node47</title>
<path fill="none" stroke="midnightblue" d="M1614.34,-183.88C1601.75,-182.01 1588.44,-180.25 1576,-179 1259.91,-147.22 880.31,-137.66 726.64,-134.98"/>
<polygon fill="midnightblue" stroke="midnightblue" points="1613.84,-187.34 1624.25,-185.39 1614.89,-180.42 1613.84,-187.34"/>
</g>
<!-- Node40&#45;&gt;Node61 -->
<g id="edge36" class="edge">
<title>Node40&#45;&gt;Node61</title>
<path fill="none" stroke="midnightblue" d="M1711.75,-182.46C1716.54,-181.25 1721.37,-180.07 1726,-179 1792.07,-163.73 1869.72,-148.95 1914.66,-140.71"/>
<polygon fill="midnightblue" stroke="midnightblue" points="1710.85,-179.08 1702.04,-184.96 1712.6,-185.86 1710.85,-179.08"/>
</g>
<!-- Node47&#45;&gt;Node3 -->
<g id="edge25" class="edge">
<title>Node47&#45;&gt;Node3</title>
<path fill="none" stroke="midnightblue" d="M736.93,-128.41C853.25,-122.47 1058.2,-109.01 1084,-87 1102.32,-71.37 1103.91,-40.11 1103.52,-25.02"/>
<polygon fill="midnightblue" stroke="midnightblue" points="736.46,-124.93 726.65,-128.93 736.81,-131.92 736.46,-124.93"/>
</g>
<!-- Node48 -->
<g id="node23" class="node">
<title>Node48</title>
<g id="a_node23"><a xlink:href="lighting_8h.html" target="_top" xlink:title=" ">
<polygon fill="none" stroke="red" points="290,-67.5 290,-86.5 370,-86.5 370,-67.5 290,-67.5"/>
<text text-anchor="middle" x="330" y="-74.5" font-family="Helvetica,sans-Serif" font-size="10.00">inc/lighting.h</text>
</a>
</g>
</g>
<!-- Node47&#45;&gt;Node48 -->
<g id="edge24" class="edge">
<title>Node47&#45;&gt;Node48</title>
<path fill="none" stroke="midnightblue" d="M595.17,-121.84C539.83,-112.74 456.49,-99.02 384,-87 379.5,-86.25 374.79,-85.47 370.1,-84.69"/>
<polygon fill="midnightblue" stroke="midnightblue" points="594.73,-125.32 605.17,-123.48 595.87,-118.41 594.73,-125.32"/>
</g>
<!-- Node52 -->
<g id="node24" class="node">
<title>Node52</title>
<g id="a_node24"><a xlink:href="texture__bonus_8h.html" target="_top" xlink:title=" ">
<polygon fill="none" stroke="red" points="533.5,-67.5 533.5,-86.5 646.5,-86.5 646.5,-67.5 533.5,-67.5"/>
<text text-anchor="middle" x="590" y="-74.5" font-family="Helvetica,sans-Serif" font-size="10.00">inc/texture_bonus.h</text>
</a>
</g>
</g>
<!-- Node47&#45;&gt;Node52 -->
<g id="edge26" class="edge">
<title>Node47&#45;&gt;Node52</title>
<path fill="none" stroke="midnightblue" d="M638.17,-116.82C626.16,-107.15 611.03,-94.95 600.96,-86.83"/>
<polygon fill="midnightblue" stroke="midnightblue" points="636.25,-119.77 646.24,-123.32 640.65,-114.32 636.25,-119.77"/>
</g>
<!-- Node54 -->
<g id="node25" class="node">
<title>Node54</title>
<g id="a_node25"><a xlink:href="utils__cylinder__bonus_8c.html" target="_top" xlink:title=" ">
<polygon fill="none" stroke="black" points="444.5,-0.5 444.5,-30.5 543.5,-30.5 543.5,-0.5 444.5,-0.5"/>
<text text-anchor="start" x="452.5" y="-18.5" font-family="Helvetica,sans-Serif" font-size="10.00">src/utils_cylinder</text>
<text text-anchor="middle" x="494" y="-7.5" font-family="Helvetica,sans-Serif" font-size="10.00">_bonus.c</text>
</a>
</g>
</g>
<!-- Node47&#45;&gt;Node54 -->
<g id="edge35" class="edge">
<title>Node47&#45;&gt;Node54</title>
<path fill="none" stroke="midnightblue" d="M577.08,-127.74C515.37,-122.59 437.2,-111.33 417,-87 399,-65.31 431.28,-43.96 459.39,-30.54"/>
<polygon fill="midnightblue" stroke="midnightblue" points="576.97,-131.25 587.22,-128.55 577.53,-124.27 576.97,-131.25"/>
</g>
<!-- Node55 -->
<g id="node26" class="node">
<title>Node55</title>
<g id="a_node26"><a xlink:href="hit__bonus_8c.html" target="_top" xlink:title=" ">
<polygon fill="none" stroke="black" points="426.5,-67.5 426.5,-86.5 515.5,-86.5 515.5,-67.5 426.5,-67.5"/>
<text text-anchor="middle" x="471" y="-74.5" font-family="Helvetica,sans-Serif" font-size="10.00">src/hit_bonus.c</text>
</a>
</g>
</g>
<!-- Node47&#45;&gt;Node55 -->
<g id="edge29" class="edge">
<title>Node47&#45;&gt;Node55</title>
<path fill="none" stroke="midnightblue" d="M617.62,-120.57C582.53,-110.38 531.98,-95.7 500.33,-86.52"/>
<polygon fill="midnightblue" stroke="midnightblue" points="616.95,-124.02 627.53,-123.44 618.9,-117.29 616.95,-124.02"/>
</g>
<!-- Node56 -->
<g id="node27" class="node">
<title>Node56</title>
<g id="a_node27"><a xlink:href="hit__cone__bonus_8c.html" target="_top" xlink:title=" ">
<polygon fill="none" stroke="black" points="665,-67.5 665,-86.5 783,-86.5 783,-67.5 665,-67.5"/>
<text text-anchor="middle" x="724" y="-74.5" font-family="Helvetica,sans-Serif" font-size="10.00">src/hit_cone_bonus.c</text>
</a>
</g>
</g>
<!-- Node47&#45;&gt;Node56 -->
<g id="edge30" class="edge">
<title>Node47&#45;&gt;Node56</title>
<path fill="none" stroke="midnightblue" d="M675.83,-116.82C687.84,-107.15 702.97,-94.95 713.04,-86.83"/>
<polygon fill="midnightblue" stroke="midnightblue" points="673.35,-114.32 667.76,-123.32 677.75,-119.77 673.35,-114.32"/>
</g>
<!-- Node57 -->
<g id="node28" class="node">
<title>Node57</title>
<g id="a_node28"><a xlink:href="hit__cylinder__bonus_8c.html" target="_top" xlink:title=" ">
<polygon fill="none" stroke="black" points="801,-67.5 801,-86.5 935,-86.5 935,-67.5 801,-67.5"/>
<text text-anchor="middle" x="868" y="-74.5" font-family="Helvetica,sans-Serif" font-size="10.00">src/hit_cylinder_bonus.c</text>
</a>
</g>
</g>
<!-- Node47&#45;&gt;Node57 -->
<g id="edge31" class="edge">
<title>Node47&#45;&gt;Node57</title>
<path fill="none" stroke="midnightblue" d="M700.14,-120.96C739.99,-110.76 798.36,-95.82 834.72,-86.52"/>
<polygon fill="midnightblue" stroke="midnightblue" points="699.25,-117.57 690.43,-123.44 700.99,-124.35 699.25,-117.57"/>
</g>
<!-- Node58 -->
<g id="node29" class="node">
<title>Node58</title>
<g id="a_node29"><a xlink:href="hit__plane__bonus_8c.html" target="_top" xlink:title=" ">
<polygon fill="none" stroke="black" points="953,-67.5 953,-86.5 1075,-86.5 1075,-67.5 953,-67.5"/>
<text text-anchor="middle" x="1014" y="-74.5" font-family="Helvetica,sans-Serif" font-size="10.00">src/hit_plane_bonus.c</text>
</a>
</g>
</g>
<!-- Node47&#45;&gt;Node58 -->
<g id="edge32" class="edge">
<title>Node47&#45;&gt;Node58</title>
<path fill="none" stroke="midnightblue" d="M723.66,-121.92C791.11,-111.71 894.22,-96.12 957.7,-86.52"/>
<polygon fill="midnightblue" stroke="midnightblue" points="722.93,-118.49 713.57,-123.44 723.98,-125.41 722.93,-118.49"/>
</g>
<!-- Node59 -->
<g id="node30" class="node">
<title>Node59</title>
<g id="a_node30"><a xlink:href="hit__sphere__bonus_8c.html" target="_top" xlink:title=" ">
<polygon fill="none" stroke="black" points="0,-67.5 0,-86.5 128,-86.5 128,-67.5 0,-67.5"/>
<text text-anchor="middle" x="64" y="-74.5" font-family="Helvetica,sans-Serif" font-size="10.00">src/hit_sphere_bonus.c</text>
</a>
</g>
</g>
<!-- Node47&#45;&gt;Node59 -->
<g id="edge33" class="edge">
<title>Node47&#45;&gt;Node59</title>
<path fill="none" stroke="midnightblue" d="M576.87,-125.97C474.67,-118.08 292.52,-103.31 137,-87 134.08,-86.69 131.09,-86.37 128.08,-86.03"/>
<polygon fill="midnightblue" stroke="midnightblue" points="576.87,-129.48 587.11,-126.76 577.41,-122.51 576.87,-129.48"/>
</g>
<!-- Node60 -->
<g id="node31" class="node">
<title>Node60</title>
<g id="a_node31"><a xlink:href="utils__cone__bonus_8c.html" target="_top" xlink:title=" ">
<polygon fill="none" stroke="black" points="146,-67.5 146,-86.5 272,-86.5 272,-67.5 146,-67.5"/>
<text text-anchor="middle" x="209" y="-74.5" font-family="Helvetica,sans-Serif" font-size="10.00">src/utils_cone_bonus.c</text>
</a>
</g>
</g>
<!-- Node47&#45;&gt;Node60 -->
<g id="edge34" class="edge">
<title>Node47&#45;&gt;Node60</title>
<path fill="none" stroke="midnightblue" d="M577.35,-122.59C501.23,-113.57 383.27,-99.51 281,-87 278.12,-86.65 275.18,-86.29 272.21,-85.92"/>
<polygon fill="midnightblue" stroke="midnightblue" points="577,-126.07 587.34,-123.77 577.82,-119.12 577,-126.07"/>
</g>
<!-- Node52&#45;&gt;Node3 -->
<g id="edge27" class="edge">
<title>Node52&#45;&gt;Node3</title>
<path fill="none" stroke="midnightblue" d="M656.6,-66.95C803.25,-48.76 962.64,-31.41 1045.8,-22.54"/>
<polygon fill="midnightblue" stroke="midnightblue" points="656.01,-63.5 646.51,-68.21 656.87,-70.44 656.01,-63.5"/>
</g>
<!-- Node52&#45;&gt;Node54 -->
<g id="edge28" class="edge">
<title>Node52&#45;&gt;Node54</title>
<path fill="none" stroke="midnightblue" d="M567.43,-62.01C552.11,-52.52 531.95,-40.02 516.63,-30.52"/>
<polygon fill="midnightblue" stroke="midnightblue" points="565.9,-65.18 576.25,-67.48 569.59,-59.23 565.9,-65.18"/>
</g>
<!-- Node81 -->
<g id="node36" class="node">
<title>Node81</title>
<g id="a_node36"><a xlink:href="check_8c.html" target="_top" xlink:title=" ">
<polygon fill="none" stroke="black" points="2642.5,-185 2642.5,-204 2713.5,-204 2713.5,-185 2642.5,-185"/>
<text text-anchor="middle" x="2678" y="-192" font-family="Helvetica,sans-Serif" font-size="10.00">src/check.c</text>
</a>
</g>
</g>
<!-- Node80&#45;&gt;Node81 -->
<g id="edge43" class="edge">
<title>Node80&#45;&gt;Node81</title>
<path fill="none" stroke="midnightblue" d="M2524.17,-243.48C2553.87,-234.48 2596.1,-221.59 2633,-210 2638.95,-208.13 2645.34,-206.09 2651.37,-204.15"/>
<polygon fill="midnightblue" stroke="midnightblue" points="2522.78,-240.25 2514.22,-246.5 2524.8,-246.95 2522.78,-240.25"/>
</g>
<!-- Node82 -->
<g id="node37" class="node">
<title>Node82</title>
<g id="a_node37"><a xlink:href="check__entity___a_c_l_8c.html" target="_top" xlink:title=" ">
<polygon fill="none" stroke="black" points="2732,-185 2732,-204 2860,-204 2860,-185 2732,-185"/>
<text text-anchor="middle" x="2796" y="-192" font-family="Helvetica,sans-Serif" font-size="10.00">src/check_entity_ACL.c</text>
</a>
</g>
</g>
<!-- Node80&#45;&gt;Node82 -->
<g id="edge44" class="edge">
<title>Node80&#45;&gt;Node82</title>
<path fill="none" stroke="midnightblue" d="M2531.57,-246.38C2579.12,-237.37 2655.8,-222.8 2722,-210 2731.9,-208.09 2742.54,-206.01 2752.57,-204.05"/>
<polygon fill="midnightblue" stroke="midnightblue" points="2530.77,-242.97 2521.59,-248.27 2532.07,-249.85 2530.77,-242.97"/>
</g>
<!-- Node83 -->
<g id="node38" class="node">
<title>Node83</title>
<g id="a_node38"><a xlink:href="check__entity__sp__pl__cy_8c.html" target="_top" xlink:title=" ">
<polygon fill="none" stroke="black" points="2878.5,-179.5 2878.5,-209.5 2991.5,-209.5 2991.5,-179.5 2878.5,-179.5"/>
<text text-anchor="start" x="2886.5" y="-197.5" font-family="Helvetica,sans-Serif" font-size="10.00">src/check_entity_sp</text>
<text text-anchor="middle" x="2935" y="-186.5" font-family="Helvetica,sans-Serif" font-size="10.00">_pl_cy.c</text>
</a>
</g>
</g>
<!-- Node80&#45;&gt;Node83 -->
<g id="edge45" class="edge">
<title>Node80&#45;&gt;Node83</title>
<path fill="none" stroke="midnightblue" d="M2531.63,-251.12C2603.63,-244.66 2747.86,-230.37 2869,-210 2872.01,-209.49 2875.09,-208.94 2878.19,-208.36"/>
<polygon fill="midnightblue" stroke="midnightblue" points="2531.2,-247.64 2521.54,-252.01 2531.82,-254.61 2531.2,-247.64"/>
</g>
<!-- Node84 -->
<g id="node39" class="node">
<title>Node84</title>
<g id="a_node39"><a xlink:href="check__line_8c.html" target="_top" xlink:title=" ">
<polygon fill="none" stroke="black" points="2097,-185 2097,-204 2191,-204 2191,-185 2097,-185"/>
<text text-anchor="middle" x="2144" y="-192" font-family="Helvetica,sans-Serif" font-size="10.00">src/check_line.c</text>
</a>
</g>
</g>
<!-- Node80&#45;&gt;Node84 -->
<g id="edge46" class="edge">
<title>Node80&#45;&gt;Node84</title>
<path fill="none" stroke="midnightblue" d="M2440.05,-249.17C2383.34,-241.66 2284.09,-227.46 2200,-210 2191.74,-208.29 2182.87,-206.13 2174.68,-204.02"/>
<polygon fill="midnightblue" stroke="midnightblue" points="2439.76,-252.66 2450.13,-250.5 2440.67,-245.72 2439.76,-252.66"/>
</g>
<!-- Node85 -->
<g id="node40" class="node">
<title>Node85</title>
<g id="a_node40"><a xlink:href="check__rm__space_8c.html" target="_top" xlink:title=" ">
<polygon fill="none" stroke="black" points="2209.5,-185 2209.5,-204 2332.5,-204 2332.5,-185 2209.5,-185"/>
<text text-anchor="middle" x="2271" y="-192" font-family="Helvetica,sans-Serif" font-size="10.00">src/check_rm_space.c</text>
</a>
</g>
</g>
<!-- Node80&#45;&gt;Node85 -->
<g id="edge47" class="edge">
<title>Node80&#45;&gt;Node85</title>
<path fill="none" stroke="midnightblue" d="M2445.35,-243.75C2403.58,-232.19 2339.48,-214.45 2301.75,-204.01"/>
<polygon fill="midnightblue" stroke="midnightblue" points="2444.62,-247.18 2455.2,-246.48 2446.49,-240.43 2444.62,-247.18"/>
</g>
<!-- Node86 -->
<g id="node41" class="node">
<title>Node86</title>
<g id="a_node41"><a xlink:href="error__msg__check_8c.html" target="_top" xlink:title=" ">
<polygon fill="none" stroke="black" points="2350.5,-185 2350.5,-204 2475.5,-204 2475.5,-185 2350.5,-185"/>
<text text-anchor="middle" x="2413" y="-192" font-family="Helvetica,sans-Serif" font-size="10.00">src/error_msg_check.c</text>
</a>
</g>
</g>
<!-- Node80&#45;&gt;Node86 -->
<g id="edge48" class="edge">
<title>Node80&#45;&gt;Node86</title>
<path fill="none" stroke="midnightblue" d="M2467.56,-239.97C2453.6,-228.59 2434.92,-213.37 2423.44,-204.01"/>
<polygon fill="midnightblue" stroke="midnightblue" points="2465.58,-242.87 2475.54,-246.48 2470,-237.44 2465.58,-242.87"/>
</g>
<!-- Node87 -->
<g id="node42" class="node">
<title>Node87</title>
<g id="a_node42"><a xlink:href="error__msg__check2_8c.html" target="_top" xlink:title=" ">
<polygon fill="none" stroke="black" points="2493.5,-185 2493.5,-204 2624.5,-204 2624.5,-185 2493.5,-185"/>
<text text-anchor="middle" x="2559" y="-192" font-family="Helvetica,sans-Serif" font-size="10.00">src/error_msg_check2.c</text>
</a>
</g>
</g>
<!-- Node80&#45;&gt;Node87 -->
<g id="edge49" class="edge">
<title>Node80&#45;&gt;Node87</title>
<path fill="none" stroke="midnightblue" d="M2504.44,-239.97C2518.4,-228.59 2537.08,-213.37 2548.56,-204.01"/>
<polygon fill="midnightblue" stroke="midnightblue" points="2502,-237.44 2496.46,-246.48 2506.42,-242.87 2502,-237.44"/>
</g>
<!-- Node89 -->
<g id="node44" class="node">
<title>Node89</title>
<g id="a_node44"><a xlink:href="check__bonus_8c.html" target="_top" xlink:title=" ">
<polygon fill="none" stroke="black" points="3009.5,-185 3009.5,-204 3114.5,-204 3114.5,-185 3009.5,-185"/>
<text text-anchor="middle" x="3062" y="-192" font-family="Helvetica,sans-Serif" font-size="10.00">src/check_bonus.c</text>
</a>
</g>
</g>
<!-- Node88&#45;&gt;Node89 -->
<g id="edge51" class="edge">
<title>Node88&#45;&gt;Node89</title>
<path fill="none" stroke="midnightblue" d="M3108.4,-239.32C3096.43,-228.02 3080.73,-213.19 3071.01,-204.01"/>
<polygon fill="midnightblue" stroke="midnightblue" points="3106.3,-242.15 3115.97,-246.48 3111.11,-237.06 3106.3,-242.15"/>
</g>
<!-- Node90 -->
<g id="node45" class="node">
<title>Node90</title>
<g id="a_node45"><a xlink:href="check__entity__sp__pl__cy__bonus_8c.html" target="_top" xlink:title=" ">
<polygon fill="none" stroke="black" points="3132.5,-179.5 3132.5,-209.5 3245.5,-209.5 3245.5,-179.5 3132.5,-179.5"/>
<text text-anchor="start" x="3140.5" y="-197.5" font-family="Helvetica,sans-Serif" font-size="10.00">src/check_entity_sp</text>
<text text-anchor="middle" x="3189" y="-186.5" font-family="Helvetica,sans-Serif" font-size="10.00">_pl_cy_bonus.c</text>
</a>
</g>
</g>
<!-- Node88&#45;&gt;Node90 -->
<g id="edge52" class="edge">
<title>Node88&#45;&gt;Node90</title>
<path fill="none" stroke="midnightblue" d="M3141.52,-239.65C3151.52,-230.35 3164.18,-218.57 3173.92,-209.52"/>
<polygon fill="midnightblue" stroke="midnightblue" points="3139.11,-237.1 3134.17,-246.48 3143.88,-242.23 3139.11,-237.1"/>
</g>
<!-- Node91 -->
<g id="node46" class="node">
<title>Node91</title>
<g id="a_node46"><a xlink:href="error__msg__check__bonus_8c.html" target="_top" xlink:title=" ">
<polygon fill="none" stroke="black" points="3263.5,-179.5 3263.5,-209.5 3380.5,-209.5 3380.5,-179.5 3263.5,-179.5"/>
<text text-anchor="start" x="3271.5" y="-197.5" font-family="Helvetica,sans-Serif" font-size="10.00">src/error_msg_check</text>
<text text-anchor="middle" x="3322" y="-186.5" font-family="Helvetica,sans-Serif" font-size="10.00">_bonus.c</text>
</a>
</g>
</g>
<!-- Node88&#45;&gt;Node91 -->
<g id="edge53" class="edge">
<title>Node88&#45;&gt;Node91</title>
<path fill="none" stroke="midnightblue" d="M3163.13,-243.48C3195.25,-233.78 3241.31,-219.87 3275.57,-209.52"/>
<polygon fill="midnightblue" stroke="midnightblue" points="3161.79,-240.23 3153.23,-246.48 3163.81,-246.93 3161.79,-240.23"/>
</g>
<!-- Node93 -->
<g id="node48" class="node">
<title>Node93</title>
<g id="a_node48"><a xlink:href="import__file_8c.html" target="_top" xlink:title=" ">
<polygon fill="none" stroke="black" points="3398.5,-185 3398.5,-204 3493.5,-204 3493.5,-185 3398.5,-185"/>
<text text-anchor="middle" x="3446" y="-192" font-family="Helvetica,sans-Serif" font-size="10.00">src/import_file.c</text>
</a>
</g>
</g>
<!-- Node92&#45;&gt;Node93 -->
<g id="edge56" class="edge">
<title>Node92&#45;&gt;Node93</title>
<path fill="none" stroke="midnightblue" d="M3446,-236.32C3446,-225.5 3446,-212.4 3446,-204.01"/>
<polygon fill="midnightblue" stroke="midnightblue" points="3442.5,-236.48 3446,-246.48 3449.5,-236.48 3442.5,-236.48"/>
</g>
<!-- Node94 -->
<g id="node49" class="node">
<title>Node94</title>
<g id="a_node49"><a xlink:href="import__file__buffer_8c.html" target="_top" xlink:title=" ">
<polygon fill="none" stroke="black" points="3512,-185 3512,-204 3640,-204 3640,-185 3512,-185"/>
<text text-anchor="middle" x="3576" y="-192" font-family="Helvetica,sans-Serif" font-size="10.00">src/import_file_buffer.c</text>
</a>
</g>
</g>
<!-- Node92&#45;&gt;Node94 -->
<g id="edge57" class="edge">
<title>Node92&#45;&gt;Node94</title>
<path fill="none" stroke="midnightblue" d="M3474.02,-242.17C3499.25,-230.63 3535.61,-213.99 3557.41,-204.01"/>
<polygon fill="midnightblue" stroke="midnightblue" points="3472.26,-239.13 3464.63,-246.48 3475.18,-245.5 3472.26,-239.13"/>
</g>
<!-- Node95&#45;&gt;Node18 -->
<g id="edge63" class="edge">
<title>Node95&#45;&gt;Node18</title>
<path fill="none" stroke="midnightblue" d="M1881.27,-181.13C1853.49,-169.57 1812.75,-152.62 1788.45,-142.51"/>
<polygon fill="midnightblue" stroke="midnightblue" points="1879.93,-184.36 1890.51,-184.98 1882.62,-177.9 1879.93,-184.36"/>
</g>
<!-- Node95&#45;&gt;Node61 -->
<g id="edge62" class="edge">
<title>Node95&#45;&gt;Node61</title>
<path fill="none" stroke="midnightblue" d="M1922.71,-176.51C1930.37,-165.39 1940.05,-151.34 1946.14,-142.51"/>
<polygon fill="midnightblue" stroke="midnightblue" points="1919.67,-174.75 1916.87,-184.98 1925.43,-178.73 1919.67,-174.75"/>
</g>
</g>
</svg>
