<?xml version="1.0" encoding="UTF-8" standalone="no"?>
<!DOCTYPE svg PUBLIC "-//W3C//DTD SVG 1.1//EN"
 "http://www.w3.org/Graphics/SVG/1.1/DTD/svg11.dtd">
<!-- Generated by graphviz version 2.43.0 (0)
 -->
<!-- Title: ft_parse_cone_bonus Pages: 1 -->
<svg width="528pt" height="218pt"
 viewBox="0.00 0.00 528.00 218.00" xmlns="http://www.w3.org/2000/svg" xmlns:xlink="http://www.w3.org/1999/xlink">
<g id="graph0" class="graph" transform="scale(1 1) rotate(0) translate(4 214)">
<title>ft_parse_cone_bonus</title>
<!-- Node1 -->
<g id="node1" class="node">
<title>Node1</title>
<g id="a_node1"><a xlink:title="Parse cone line.">
<polygon fill="#bfbfbf" stroke="black" points="0,-95.5 0,-114.5 119,-114.5 119,-95.5 0,-95.5"/>
<text text-anchor="middle" x="59.5" y="-102.5" font-family="Helvetica,sans-Serif" font-size="10.00">ft_parse_cone_bonus</text>
</a>
</g>
</g>
<!-- Node2 -->
<g id="node2" class="node">
<title>Node2</title>
<g id="a_node2"><a xlink:href="parse_8h.html#a2bb654728a666a68ad6b6627cd27e918" target="_top" xlink:title="Parses values of a rgb colour block.">
<polygon fill="none" stroke="black" points="305,-190.5 305,-209.5 427,-209.5 427,-190.5 305,-190.5"/>
<text text-anchor="middle" x="366" y="-197.5" font-family="Helvetica,sans-Serif" font-size="10.00">ft_parse_colour_block</text>
</a>
</g>
</g>
<!-- Node1&#45;&gt;Node2 -->
<g id="edge1" class="edge">
<title>Node1&#45;&gt;Node2</title>
<path fill="none" stroke="midnightblue" d="M68.71,-114.56C83.82,-131.41 117.91,-166.02 155,-181 199.22,-198.85 252.81,-203.46 294.78,-203.67"/>
<polygon fill="midnightblue" stroke="midnightblue" points="294.93,-207.17 304.92,-203.64 294.91,-200.17 294.93,-207.17"/>
</g>
<!-- Node4 -->
<g id="node4" class="node">
<title>Node4</title>
<g id="a_node4"><a xlink:href="parse_8h.html#a4df2d6a5cd30a4f3ca3a1283c7afaafa" target="_top" xlink:title="Parse a single float.">
<polygon fill="none" stroke="black" points="170.5,-152.5 170.5,-171.5 253.5,-171.5 253.5,-152.5 170.5,-152.5"/>
<text text-anchor="middle" x="212" y="-159.5" font-family="Helvetica,sans-Serif" font-size="10.00">ft_parse_float</text>
</a>
</g>
</g>
<!-- Node1&#45;&gt;Node4 -->
<g id="edge3" class="edge">
<title>Node1&#45;&gt;Node4</title>
<path fill="none" stroke="midnightblue" d="M83.28,-114.57C102.33,-122.48 130.29,-133.85 155,-143 160.55,-145.06 166.44,-147.15 172.24,-149.16"/>
<polygon fill="midnightblue" stroke="midnightblue" points="171.23,-152.51 181.83,-152.44 173.5,-145.89 171.23,-152.51"/>
</g>
<!-- Node5 -->
<g id="node5" class="node">
<title>Node5</title>
<g id="a_node5"><a xlink:href="parse_8h.html#ad1918f45b6a322a21c3541825b405eb6" target="_top" xlink:title="Parse values of a float block.">
<polygon fill="none" stroke="black" points="155,-114.5 155,-133.5 269,-133.5 269,-114.5 155,-114.5"/>
<text text-anchor="middle" x="212" y="-121.5" font-family="Helvetica,sans-Serif" font-size="10.00">ft_parse_float_block</text>
</a>
</g>
</g>
<!-- Node1&#45;&gt;Node5 -->
<g id="edge5" class="edge">
<title>Node1&#45;&gt;Node5</title>
<path fill="none" stroke="midnightblue" d="M119.12,-112.4C127.54,-113.46 136.26,-114.56 144.82,-115.64"/>
<polygon fill="midnightblue" stroke="midnightblue" points="144.4,-119.12 154.76,-116.9 145.28,-112.18 144.4,-119.12"/>
</g>
<!-- Node7 -->
<g id="node7" class="node">
<title>Node7</title>
<g id="a_node7"><a xlink:href="vec3_8h.html#a73e2caf4c2a51ed954b7349c6be2b3c3" target="_top" xlink:title="Add two vectors.">
<polygon fill="none" stroke="black" points="174.5,-76.5 174.5,-95.5 249.5,-95.5 249.5,-76.5 174.5,-76.5"/>
<text text-anchor="middle" x="212" y="-83.5" font-family="Helvetica,sans-Serif" font-size="10.00">ft_vec3_add</text>
</a>
</g>
</g>
<!-- Node1&#45;&gt;Node7 -->
<g id="edge8" class="edge">
<title>Node1&#45;&gt;Node7</title>
<path fill="none" stroke="midnightblue" d="M119.12,-97.6C134.13,-95.7 150.07,-93.69 164.38,-91.89"/>
<polygon fill="midnightblue" stroke="midnightblue" points="165,-95.34 174.48,-90.61 164.12,-88.39 165,-95.34"/>
</g>
<!-- Node8 -->
<g id="node8" class="node">
<title>Node8</title>
<g id="a_node8"><a xlink:href="vec3_8h.html#a38fe500bd27847b866b9630146e43250" target="_top" xlink:title="Normalise a vector.">
<polygon fill="none" stroke="black" points="170.5,-38.5 170.5,-57.5 253.5,-57.5 253.5,-38.5 170.5,-38.5"/>
<text text-anchor="middle" x="212" y="-45.5" font-family="Helvetica,sans-Serif" font-size="10.00">ft_vec3_norm</text>
</a>
</g>
</g>
<!-- Node1&#45;&gt;Node8 -->
<g id="edge9" class="edge">
<title>Node1&#45;&gt;Node8</title>
<path fill="none" stroke="midnightblue" d="M83.28,-95.43C102.33,-87.52 130.29,-76.15 155,-67 160.55,-64.94 166.44,-62.85 172.24,-60.84"/>
<polygon fill="midnightblue" stroke="midnightblue" points="173.5,-64.11 181.83,-57.56 171.23,-57.49 173.5,-64.11"/>
</g>
<!-- Node10 -->
<g id="node10" class="node">
<title>Node10</title>
<g id="a_node10"><a xlink:href="vec3_8h.html#ac80a1c20941c96a8fafad255dac59092" target="_top" xlink:title="Scale a vector.">
<polygon fill="none" stroke="black" points="324.5,-0.5 324.5,-19.5 407.5,-19.5 407.5,-0.5 324.5,-0.5"/>
<text text-anchor="middle" x="366" y="-7.5" font-family="Helvetica,sans-Serif" font-size="10.00">ft_vec3_scale</text>
</a>
</g>
</g>
<!-- Node1&#45;&gt;Node10 -->
<g id="edge12" class="edge">
<title>Node1&#45;&gt;Node10</title>
<path fill="none" stroke="midnightblue" d="M68.71,-95.44C83.82,-78.59 117.91,-43.98 155,-29 206.38,-8.25 270.42,-5.4 314.18,-6.53"/>
<polygon fill="midnightblue" stroke="midnightblue" points="314.19,-10.03 324.3,-6.87 314.42,-3.04 314.19,-10.03"/>
</g>
<!-- Node3 -->
<g id="node3" class="node">
<title>Node3</title>
<g id="a_node3"><a xlink:href="ft__strtod_8h.html#a0a1cbf0fef2bdcf6fde79c34014bc10e" target="_top" xlink:title="Converts a String to a double.">
<polygon fill="none" stroke="black" points="463,-152.5 463,-171.5 520,-171.5 520,-152.5 463,-152.5"/>
<text text-anchor="middle" x="491.5" y="-159.5" font-family="Helvetica,sans-Serif" font-size="10.00">ft_strtod</text>
</a>
</g>
</g>
<!-- Node2&#45;&gt;Node3 -->
<g id="edge2" class="edge">
<title>Node2&#45;&gt;Node3</title>
<path fill="none" stroke="midnightblue" d="M398.16,-190.41C414.77,-185.3 435.32,-178.98 452.82,-173.59"/>
<polygon fill="midnightblue" stroke="midnightblue" points="454.19,-176.83 462.72,-170.55 452.13,-170.14 454.19,-176.83"/>
</g>
<!-- Node4&#45;&gt;Node3 -->
<g id="edge4" class="edge">
<title>Node4&#45;&gt;Node3</title>
<path fill="none" stroke="midnightblue" d="M253.65,-162C307.17,-162 400.56,-162 452.64,-162"/>
<polygon fill="midnightblue" stroke="midnightblue" points="452.8,-165.5 462.8,-162 452.8,-158.5 452.8,-165.5"/>
</g>
<!-- Node6 -->
<g id="node6" class="node">
<title>Node6</title>
<g id="a_node6"><a xlink:href="parse__line_8c.html#a4df2d6a5cd30a4f3ca3a1283c7afaafa" target="_top" xlink:title="Parse a single float.">
<polygon fill="none" stroke="black" points="324.5,-114.5 324.5,-133.5 407.5,-133.5 407.5,-114.5 324.5,-114.5"/>
<text text-anchor="middle" x="366" y="-121.5" font-family="Helvetica,sans-Serif" font-size="10.00">ft_parse_float</text>
</a>
</g>
</g>
<!-- Node5&#45;&gt;Node6 -->
<g id="edge6" class="edge">
<title>Node5&#45;&gt;Node6</title>
<path fill="none" stroke="midnightblue" d="M269.17,-124C283.87,-124 299.63,-124 314.04,-124"/>
<polygon fill="midnightblue" stroke="midnightblue" points="314.26,-127.5 324.26,-124 314.26,-120.5 314.26,-127.5"/>
</g>
<!-- Node6&#45;&gt;Node3 -->
<g id="edge7" class="edge">
<title>Node6&#45;&gt;Node3</title>
<path fill="none" stroke="midnightblue" d="M398.16,-133.59C414.77,-138.7 435.32,-145.02 452.82,-150.41"/>
<polygon fill="midnightblue" stroke="midnightblue" points="452.13,-153.86 462.72,-153.45 454.19,-147.17 452.13,-153.86"/>
</g>
<!-- Node9 -->
<g id="node9" class="node">
<title>Node9</title>
<g id="a_node9"><a xlink:href="vec3__linalgebra_8c.html#aa84621bd979d3b12b97908f653faf88e" target="_top" xlink:title="Calculate the absolute value of a vector.">
<polygon fill="none" stroke="black" points="329,-38.5 329,-57.5 403,-57.5 403,-38.5 329,-38.5"/>
<text text-anchor="middle" x="366" y="-45.5" font-family="Helvetica,sans-Serif" font-size="10.00">ft_vec3_abs</text>
</a>
</g>
</g>
<!-- Node8&#45;&gt;Node9 -->
<g id="edge10" class="edge">
<title>Node8&#45;&gt;Node9</title>
<path fill="none" stroke="midnightblue" d="M253.73,-48C273.74,-48 297.95,-48 318.66,-48"/>
<polygon fill="midnightblue" stroke="midnightblue" points="318.82,-51.5 328.82,-48 318.82,-44.5 318.82,-51.5"/>
</g>
<!-- Node8&#45;&gt;Node10 -->
<g id="edge11" class="edge">
<title>Node8&#45;&gt;Node10</title>
<path fill="none" stroke="midnightblue" d="M251.36,-38.41C271.32,-33.42 295.93,-27.27 317.13,-21.97"/>
<polygon fill="midnightblue" stroke="midnightblue" points="318.07,-25.34 326.92,-19.52 316.37,-18.55 318.07,-25.34"/>
</g>
</g>
</svg>
