<?xml version="1.0" encoding="UTF-8" standalone="no"?>
<!DOCTYPE svg PUBLIC "-//W3C//DTD SVG 1.1//EN"
 "http://www.w3.org/Graphics/SVG/1.1/DTD/svg11.dtd">
<!-- Generated by graphviz version 2.43.0 (0)
 -->
<!-- Title: src/parse_bonus.c Pages: 1 -->
<svg width="919pt" height="420pt"
 viewBox="0.00 0.00 919.05 420.00" xmlns="http://www.w3.org/2000/svg" xmlns:xlink="http://www.w3.org/1999/xlink">
<g id="graph0" class="graph" transform="scale(1 1) rotate(0) translate(4 416)">
<title>src/parse_bonus.c</title>
<!-- Node1 -->
<g id="node1" class="node">
<title>Node1</title>
<g id="a_node1"><a xlink:title=" ">
<polygon fill="#bfbfbf" stroke="black" points="246.05,-392.5 246.05,-411.5 350.05,-411.5 350.05,-392.5 246.05,-392.5"/>
<text text-anchor="middle" x="298.05" y="-399.5" font-family="Helvetica,sans-Serif" font-size="10.00">src/parse_bonus.c</text>
</a>
</g>
</g>
<!-- Node2 -->
<g id="node2" class="node">
<title>Node2</title>
<g id="a_node2"><a xlink:href="parse__bonus_8h.html" target="_top" xlink:title=" ">
<polygon fill="none" stroke="black" points="254.55,-336.5 254.55,-355.5 341.55,-355.5 341.55,-336.5 254.55,-336.5"/>
<text text-anchor="middle" x="298.05" y="-343.5" font-family="Helvetica,sans-Serif" font-size="10.00">parse_bonus.h</text>
</a>
</g>
</g>
<!-- Node1&#45;&gt;Node2 -->
<g id="edge1" class="edge">
<title>Node1&#45;&gt;Node2</title>
<path fill="none" stroke="midnightblue" d="M298.05,-392.08C298.05,-385.01 298.05,-374.86 298.05,-365.99"/>
<polygon fill="midnightblue" stroke="midnightblue" points="301.55,-365.75 298.05,-355.75 294.55,-365.75 301.55,-365.75"/>
</g>
<!-- Node3 -->
<g id="node3" class="node">
<title>Node3</title>
<g id="a_node3"><a xlink:href="error__syscall_8h.html" target="_top" xlink:title=" ">
<polygon fill="none" stroke="black" points="127.05,-280.5 127.05,-299.5 215.05,-299.5 215.05,-280.5 127.05,-280.5"/>
<text text-anchor="middle" x="171.05" y="-287.5" font-family="Helvetica,sans-Serif" font-size="10.00">error_syscall.h</text>
</a>
</g>
</g>
<!-- Node2&#45;&gt;Node3 -->
<g id="edge2" class="edge">
<title>Node2&#45;&gt;Node3</title>
<path fill="none" stroke="midnightblue" d="M277.93,-336.44C257.03,-327.56 224.12,-313.56 200.33,-303.45"/>
<polygon fill="midnightblue" stroke="midnightblue" points="201.65,-300.21 191.08,-299.52 198.91,-306.65 201.65,-300.21"/>
</g>
<!-- Node18 -->
<g id="node18" class="node">
<title>Node18</title>
<g id="a_node18"><a xlink:href="cleanup_8h.html" target="_top" xlink:title=" ">
<polygon fill="none" stroke="black" points="266.05,-224.5 266.05,-243.5 330.05,-243.5 330.05,-224.5 266.05,-224.5"/>
<text text-anchor="middle" x="298.05" y="-231.5" font-family="Helvetica,sans-Serif" font-size="10.00">cleanup.h</text>
</a>
</g>
</g>
<!-- Node2&#45;&gt;Node18 -->
<g id="edge21" class="edge">
<title>Node2&#45;&gt;Node18</title>
<path fill="none" stroke="midnightblue" d="M298.05,-336.37C298.05,-318.62 298.05,-277.67 298.05,-253.6"/>
<polygon fill="midnightblue" stroke="midnightblue" points="301.55,-253.59 298.05,-243.59 294.55,-253.59 301.55,-253.59"/>
</g>
<!-- Node20 -->
<g id="node20" class="node">
<title>Node20</title>
<g id="a_node20"><a xlink:href="ft__strtod_8h.html" target="_top" xlink:title=" ">
<polygon fill="none" stroke="black" points="65.05,-112.5 65.05,-131.5 131.05,-131.5 131.05,-112.5 65.05,-112.5"/>
<text text-anchor="middle" x="98.05" y="-119.5" font-family="Helvetica,sans-Serif" font-size="10.00">ft_strtod.h</text>
</a>
</g>
</g>
<!-- Node2&#45;&gt;Node20 -->
<g id="edge25" class="edge">
<title>Node2&#45;&gt;Node20</title>
<path fill="none" stroke="midnightblue" d="M254.38,-345.54C186.17,-343.67 56.7,-328.52 4.05,-244 -9.16,-222.8 14.44,-179.79 24.05,-168 35.35,-154.14 52.12,-143.44 66.85,-135.96"/>
<polygon fill="midnightblue" stroke="midnightblue" points="68.64,-138.98 76.15,-131.51 65.61,-132.67 68.64,-138.98"/>
</g>
<!-- Node22 -->
<g id="node22" class="node">
<title>Node22</title>
<g id="a_node22"><a xlink:href="entities__bonus_8h.html" target="_top" xlink:title=" ">
<polygon fill="none" stroke="black" points="455.55,-224.5 455.55,-243.5 552.55,-243.5 552.55,-224.5 455.55,-224.5"/>
<text text-anchor="middle" x="504.05" y="-231.5" font-family="Helvetica,sans-Serif" font-size="10.00">entities_bonus.h</text>
</a>
</g>
</g>
<!-- Node2&#45;&gt;Node22 -->
<g id="edge29" class="edge">
<title>Node2&#45;&gt;Node22</title>
<path fill="none" stroke="midnightblue" d="M314.21,-336.37C350.02,-317.25 436.2,-271.23 479.03,-248.36"/>
<polygon fill="midnightblue" stroke="midnightblue" points="480.79,-251.39 487.96,-243.59 477.49,-245.21 480.79,-251.39"/>
</g>
<!-- Node26 -->
<g id="node26" class="node">
<title>Node26</title>
<g id="a_node26"><a xlink:href="camera_8h.html" target="_top" xlink:title=" ">
<polygon fill="none" stroke="black" points="746.05,-112.5 746.05,-131.5 808.05,-131.5 808.05,-112.5 746.05,-112.5"/>
<text text-anchor="middle" x="777.05" y="-119.5" font-family="Helvetica,sans-Serif" font-size="10.00">camera.h</text>
</a>
</g>
</g>
<!-- Node2&#45;&gt;Node26 -->
<g id="edge42" class="edge">
<title>Node2&#45;&gt;Node26</title>
<path fill="none" stroke="midnightblue" d="M323.95,-336.45C371.7,-320.37 476.47,-283.68 561.05,-244 633.87,-209.84 715.65,-160.96 754.38,-137.14"/>
<polygon fill="midnightblue" stroke="midnightblue" points="756.6,-139.88 763.27,-131.65 752.92,-133.93 756.6,-139.88"/>
</g>
<!-- Node4 -->
<g id="node4" class="node">
<title>Node4</title>
<g id="a_node4"><a xlink:title=" ">
<polygon fill="none" stroke="#bfbfbf" points="107.55,-224.5 107.55,-243.5 154.55,-243.5 154.55,-224.5 107.55,-224.5"/>
<text text-anchor="middle" x="131.05" y="-231.5" font-family="Helvetica,sans-Serif" font-size="10.00">fcntl.h</text>
</a>
</g>
</g>
<!-- Node3&#45;&gt;Node4 -->
<g id="edge3" class="edge">
<title>Node3&#45;&gt;Node4</title>
<path fill="none" stroke="midnightblue" d="M164.44,-280.08C158.79,-272.46 150.51,-261.26 143.6,-251.94"/>
<polygon fill="midnightblue" stroke="midnightblue" points="146.3,-249.7 137.53,-243.75 140.67,-253.87 146.3,-249.7"/>
</g>
<!-- Node5 -->
<g id="node5" class="node">
<title>Node5</title>
<g id="a_node5"><a xlink:href="error__type_8h.html" target="_top" xlink:title=" ">
<polygon fill="none" stroke="black" points="13.05,-224.5 13.05,-243.5 89.05,-243.5 89.05,-224.5 13.05,-224.5"/>
<text text-anchor="middle" x="51.05" y="-231.5" font-family="Helvetica,sans-Serif" font-size="10.00">error_type.h</text>
</a>
</g>
</g>
<!-- Node3&#45;&gt;Node5 -->
<g id="edge4" class="edge">
<title>Node3&#45;&gt;Node5</title>
<path fill="none" stroke="midnightblue" d="M152.04,-280.44C132.46,-271.64 101.74,-257.81 79.32,-247.72"/>
<polygon fill="midnightblue" stroke="midnightblue" points="80.53,-244.43 69.98,-243.52 77.66,-250.81 80.53,-244.43"/>
</g>
<!-- Node6 -->
<g id="node6" class="node">
<title>Node6</title>
<g id="a_node6"><a xlink:href="error__msg_8h.html" target="_top" xlink:title=" ">
<polygon fill="none" stroke="black" points="172.55,-224.5 172.55,-243.5 247.55,-243.5 247.55,-224.5 172.55,-224.5"/>
<text text-anchor="middle" x="210.05" y="-231.5" font-family="Helvetica,sans-Serif" font-size="10.00">error_msg.h</text>
</a>
</g>
</g>
<!-- Node3&#45;&gt;Node6 -->
<g id="edge5" class="edge">
<title>Node3&#45;&gt;Node6</title>
<path fill="none" stroke="midnightblue" d="M177.49,-280.08C183,-272.46 191.08,-261.26 197.82,-251.94"/>
<polygon fill="midnightblue" stroke="midnightblue" points="200.71,-253.91 203.73,-243.75 195.04,-249.81 200.71,-253.91"/>
</g>
<!-- Node7 -->
<g id="node7" class="node">
<title>Node7</title>
<g id="a_node7"><a xlink:title=" ">
<polygon fill="none" stroke="#bfbfbf" points="183.05,-56.5 183.05,-75.5 233.05,-75.5 233.05,-56.5 183.05,-56.5"/>
<text text-anchor="middle" x="208.05" y="-63.5" font-family="Helvetica,sans-Serif" font-size="10.00">stdio.h</text>
</a>
</g>
</g>
<!-- Node6&#45;&gt;Node7 -->
<g id="edge6" class="edge">
<title>Node6&#45;&gt;Node7</title>
<path fill="none" stroke="midnightblue" d="M206.71,-224.2C203.5,-215.24 198.87,-200.88 197.05,-188 191.94,-151.92 198.74,-109.44 203.7,-85.63"/>
<polygon fill="midnightblue" stroke="midnightblue" points="207.18,-86.06 205.92,-75.54 200.35,-84.55 207.18,-86.06"/>
</g>
<!-- Node8 -->
<g id="node8" class="node">
<title>Node8</title>
<g id="a_node8"><a xlink:title=" ">
<polygon fill="none" stroke="#bfbfbf" points="33.55,-168.5 33.55,-187.5 84.55,-187.5 84.55,-168.5 33.55,-168.5"/>
<text text-anchor="middle" x="59.05" y="-175.5" font-family="Helvetica,sans-Serif" font-size="10.00">errno.h</text>
</a>
</g>
</g>
<!-- Node6&#45;&gt;Node8 -->
<g id="edge7" class="edge">
<title>Node6&#45;&gt;Node8</title>
<path fill="none" stroke="midnightblue" d="M186.12,-224.44C160.83,-215.4 120.75,-201.06 92.37,-190.92"/>
<polygon fill="midnightblue" stroke="midnightblue" points="93.46,-187.59 82.86,-187.52 91.1,-194.18 93.46,-187.59"/>
</g>
<!-- Node9 -->
<g id="node9" class="node">
<title>Node9</title>
<g id="a_node9"><a xlink:title=" ">
<polygon fill="none" stroke="#bfbfbf" points="102.55,-168.5 102.55,-187.5 149.55,-187.5 149.55,-168.5 102.55,-168.5"/>
<text text-anchor="middle" x="126.05" y="-175.5" font-family="Helvetica,sans-Serif" font-size="10.00">ft_fd.h</text>
</a>
</g>
</g>
<!-- Node6&#45;&gt;Node9 -->
<g id="edge8" class="edge">
<title>Node6&#45;&gt;Node9</title>
<path fill="none" stroke="midnightblue" d="M196.55,-224.32C183.45,-215.9 163.34,-202.97 147.94,-193.07"/>
<polygon fill="midnightblue" stroke="midnightblue" points="149.82,-190.12 139.51,-187.65 146.03,-196.01 149.82,-190.12"/>
</g>
<!-- Node10 -->
<g id="node10" class="node">
<title>Node10</title>
<g id="a_node10"><a xlink:href="entities_8h.html" target="_top" xlink:title=" ">
<polygon fill="none" stroke="black" points="414.05,-168.5 414.05,-187.5 476.05,-187.5 476.05,-168.5 414.05,-168.5"/>
<text text-anchor="middle" x="445.05" y="-175.5" font-family="Helvetica,sans-Serif" font-size="10.00">entities.h</text>
</a>
</g>
</g>
<!-- Node6&#45;&gt;Node10 -->
<g id="edge9" class="edge">
<title>Node6&#45;&gt;Node10</title>
<path fill="none" stroke="midnightblue" d="M247.29,-224.44C290.03,-214.62 359.92,-198.56 404.15,-188.4"/>
<polygon fill="midnightblue" stroke="midnightblue" points="405.03,-191.79 413.99,-186.14 403.46,-184.97 405.03,-191.79"/>
</g>
<!-- Node11 -->
<g id="node11" class="node">
<title>Node11</title>
<g id="a_node11"><a xlink:title=" ">
<polygon fill="none" stroke="#bfbfbf" points="596.05,-0.5 596.05,-19.5 658.05,-19.5 658.05,-0.5 596.05,-0.5"/>
<text text-anchor="middle" x="627.05" y="-7.5" font-family="Helvetica,sans-Serif" font-size="10.00">stdbool.h</text>
</a>
</g>
</g>
<!-- Node10&#45;&gt;Node11 -->
<g id="edge10" class="edge">
<title>Node10&#45;&gt;Node11</title>
<path fill="none" stroke="midnightblue" d="M476.19,-173.56C510.57,-168.64 566.53,-157.22 608.05,-132 637.08,-114.37 647.64,-107.61 660.05,-76 666.8,-58.8 655.12,-40.07 643.83,-27.16"/>
<polygon fill="midnightblue" stroke="midnightblue" points="646.08,-24.45 636.67,-19.59 641,-29.26 646.08,-24.45"/>
</g>
<!-- Node12 -->
<g id="node12" class="node">
<title>Node12</title>
<g id="a_node12"><a xlink:title=" ">
<polygon fill="none" stroke="#bfbfbf" points="322.55,-56.5 322.55,-75.5 375.55,-75.5 375.55,-56.5 322.55,-56.5"/>
<text text-anchor="middle" x="349.05" y="-63.5" font-family="Helvetica,sans-Serif" font-size="10.00">stdlib.h</text>
</a>
</g>
</g>
<!-- Node10&#45;&gt;Node12 -->
<g id="edge11" class="edge">
<title>Node10&#45;&gt;Node12</title>
<path fill="none" stroke="midnightblue" d="M441.46,-168.31C435.74,-155.14 423.6,-129.79 408.05,-112 397.65,-100.1 383.66,-89.27 371.91,-81.21"/>
<polygon fill="midnightblue" stroke="midnightblue" points="373.74,-78.22 363.47,-75.63 369.88,-84.06 373.74,-78.22"/>
</g>
<!-- Node13 -->
<g id="node13" class="node">
<title>Node13</title>
<g id="a_node13"><a xlink:href="vec3_8h.html" target="_top" xlink:title=" ">
<polygon fill="none" stroke="black" points="602.55,-56.5 602.55,-75.5 651.55,-75.5 651.55,-56.5 602.55,-56.5"/>
<text text-anchor="middle" x="627.05" y="-63.5" font-family="Helvetica,sans-Serif" font-size="10.00">vec3.h</text>
</a>
</g>
</g>
<!-- Node10&#45;&gt;Node13 -->
<g id="edge12" class="edge">
<title>Node10&#45;&gt;Node13</title>
<path fill="none" stroke="midnightblue" d="M476.25,-172.97C506.38,-167.78 552.04,-156.32 584.05,-132 600.18,-119.75 612.14,-99.6 619.3,-84.98"/>
<polygon fill="midnightblue" stroke="midnightblue" points="622.66,-86.06 623.66,-75.51 616.3,-83.13 622.66,-86.06"/>
</g>
<!-- Node15 -->
<g id="node15" class="node">
<title>Node15</title>
<g id="a_node15"><a xlink:href="colour_8h.html" target="_top" xlink:title=" ">
<polygon fill="none" stroke="black" points="344.55,-112.5 344.55,-131.5 399.55,-131.5 399.55,-112.5 344.55,-112.5"/>
<text text-anchor="middle" x="372.05" y="-119.5" font-family="Helvetica,sans-Serif" font-size="10.00">colour.h</text>
</a>
</g>
</g>
<!-- Node10&#45;&gt;Node15 -->
<g id="edge15" class="edge">
<title>Node10&#45;&gt;Node15</title>
<path fill="none" stroke="midnightblue" d="M433.32,-168.32C422.21,-160.11 405.31,-147.6 392.07,-137.81"/>
<polygon fill="midnightblue" stroke="midnightblue" points="394.11,-134.97 383.99,-131.83 389.95,-140.59 394.11,-134.97"/>
</g>
<!-- Node13&#45;&gt;Node11 -->
<g id="edge14" class="edge">
<title>Node13&#45;&gt;Node11</title>
<path fill="none" stroke="midnightblue" d="M627.05,-56.08C627.05,-49.01 627.05,-38.86 627.05,-29.99"/>
<polygon fill="midnightblue" stroke="midnightblue" points="630.55,-29.75 627.05,-19.75 623.55,-29.75 630.55,-29.75"/>
</g>
<!-- Node14 -->
<g id="node14" class="node">
<title>Node14</title>
<g id="a_node14"><a xlink:title=" ">
<polygon fill="none" stroke="#bfbfbf" points="437.55,-0.5 437.55,-19.5 488.55,-19.5 488.55,-0.5 437.55,-0.5"/>
<text text-anchor="middle" x="463.05" y="-7.5" font-family="Helvetica,sans-Serif" font-size="10.00">math.h</text>
</a>
</g>
</g>
<!-- Node13&#45;&gt;Node14 -->
<g id="edge13" class="edge">
<title>Node13&#45;&gt;Node14</title>
<path fill="none" stroke="midnightblue" d="M602.5,-56.92C574.84,-47.81 529.66,-32.93 498.26,-22.59"/>
<polygon fill="midnightblue" stroke="midnightblue" points="499.17,-19.21 488.58,-19.41 496.99,-25.86 499.17,-19.21"/>
</g>
<!-- Node15&#45;&gt;Node7 -->
<g id="edge16" class="edge">
<title>Node15&#45;&gt;Node7</title>
<path fill="none" stroke="midnightblue" d="M346.06,-112.44C318.11,-103.24 273.52,-88.56 242.62,-78.38"/>
<polygon fill="midnightblue" stroke="midnightblue" points="243.7,-75.05 233.11,-75.25 241.51,-81.7 243.7,-75.05"/>
</g>
<!-- Node16 -->
<g id="node16" class="node">
<title>Node16</title>
<g id="a_node16"><a xlink:title=" ">
<polygon fill="none" stroke="#bfbfbf" points="251.55,-56.5 251.55,-75.5 304.55,-75.5 304.55,-56.5 251.55,-56.5"/>
<text text-anchor="middle" x="278.05" y="-63.5" font-family="Helvetica,sans-Serif" font-size="10.00">stdint.h</text>
</a>
</g>
</g>
<!-- Node15&#45;&gt;Node16 -->
<g id="edge17" class="edge">
<title>Node15&#45;&gt;Node16</title>
<path fill="none" stroke="midnightblue" d="M356.95,-112.32C342.15,-103.82 319.36,-90.73 302.07,-80.8"/>
<polygon fill="midnightblue" stroke="midnightblue" points="303.53,-77.6 293.12,-75.65 300.04,-83.67 303.53,-77.6"/>
</g>
<!-- Node17 -->
<g id="node17" class="node">
<title>Node17</title>
<g id="a_node17"><a xlink:href="utils_8h.html" target="_top" xlink:title=" ">
<polygon fill="none" stroke="black" points="498.55,-56.5 498.55,-75.5 545.55,-75.5 545.55,-56.5 498.55,-56.5"/>
<text text-anchor="middle" x="522.05" y="-63.5" font-family="Helvetica,sans-Serif" font-size="10.00">utils.h</text>
</a>
</g>
</g>
<!-- Node15&#45;&gt;Node17 -->
<g id="edge18" class="edge">
<title>Node15&#45;&gt;Node17</title>
<path fill="none" stroke="midnightblue" d="M395.82,-112.44C420.94,-103.4 460.76,-89.06 488.95,-78.92"/>
<polygon fill="midnightblue" stroke="midnightblue" points="490.17,-82.2 498.39,-75.52 487.8,-75.61 490.17,-82.2"/>
</g>
<!-- Node17&#45;&gt;Node11 -->
<g id="edge20" class="edge">
<title>Node17&#45;&gt;Node11</title>
<path fill="none" stroke="midnightblue" d="M538.92,-56.32C555.76,-47.66 581.86,-34.24 601.29,-24.25"/>
<polygon fill="midnightblue" stroke="midnightblue" points="602.93,-27.34 610.22,-19.65 599.73,-21.12 602.93,-27.34"/>
</g>
<!-- Node17&#45;&gt;Node14 -->
<g id="edge19" class="edge">
<title>Node17&#45;&gt;Node14</title>
<path fill="none" stroke="midnightblue" d="M512.57,-56.32C503.85,-48.34 490.71,-36.31 480.15,-26.65"/>
<polygon fill="midnightblue" stroke="midnightblue" points="482.44,-24 472.7,-19.83 477.72,-29.17 482.44,-24"/>
</g>
<!-- Node18&#45;&gt;Node10 -->
<g id="edge24" class="edge">
<title>Node18&#45;&gt;Node10</title>
<path fill="none" stroke="midnightblue" d="M321.34,-224.44C345.86,-215.44 384.65,-201.19 412.25,-191.05"/>
<polygon fill="midnightblue" stroke="midnightblue" points="413.69,-194.25 421.87,-187.52 411.27,-187.68 413.69,-194.25"/>
</g>
<!-- Node18&#45;&gt;Node12 -->
<g id="edge22" class="edge">
<title>Node18&#45;&gt;Node12</title>
<path fill="none" stroke="midnightblue" d="M296.57,-224.44C294.7,-211.86 292.27,-187.74 297.05,-168 304.75,-136.21 324.3,-103.22 337.11,-83.92"/>
<polygon fill="midnightblue" stroke="midnightblue" points="340.04,-85.85 342.78,-75.62 334.25,-81.91 340.04,-85.85"/>
</g>
<!-- Node19 -->
<g id="node19" class="node">
<title>Node19</title>
<g id="a_node19"><a xlink:title=" ">
<polygon fill="none" stroke="#bfbfbf" points="206.05,-168.5 206.05,-187.5 250.05,-187.5 250.05,-168.5 206.05,-168.5"/>
<text text-anchor="middle" x="228.05" y="-175.5" font-family="Helvetica,sans-Serif" font-size="10.00">mlx.h</text>
</a>
</g>
</g>
<!-- Node18&#45;&gt;Node19 -->
<g id="edge23" class="edge">
<title>Node18&#45;&gt;Node19</title>
<path fill="none" stroke="midnightblue" d="M286.8,-224.32C276.25,-216.18 260.25,-203.84 247.61,-194.09"/>
<polygon fill="midnightblue" stroke="midnightblue" points="249.56,-191.17 239.5,-187.83 245.28,-196.71 249.56,-191.17"/>
</g>
<!-- Node20&#45;&gt;Node7 -->
<g id="edge26" class="edge">
<title>Node20&#45;&gt;Node7</title>
<path fill="none" stroke="midnightblue" d="M115.72,-112.32C133.44,-103.62 160.95,-90.12 181.34,-80.11"/>
<polygon fill="midnightblue" stroke="midnightblue" points="182.99,-83.2 190.42,-75.65 179.9,-76.92 182.99,-83.2"/>
</g>
<!-- Node20&#45;&gt;Node14 -->
<g id="edge27" class="edge">
<title>Node20&#45;&gt;Node14</title>
<path fill="none" stroke="midnightblue" d="M94.79,-112.16C90.31,-98.33 84.3,-71.55 98.05,-56 119.69,-31.53 340.05,-17.42 427.53,-12.75"/>
<polygon fill="midnightblue" stroke="midnightblue" points="427.72,-16.24 437.52,-12.23 427.35,-9.25 427.72,-16.24"/>
</g>
<!-- Node21 -->
<g id="node21" class="node">
<title>Node21</title>
<g id="a_node21"><a xlink:title=" ">
<polygon fill="none" stroke="#bfbfbf" points="107.05,-56.5 107.05,-75.5 165.05,-75.5 165.05,-56.5 107.05,-56.5"/>
<text text-anchor="middle" x="136.05" y="-63.5" font-family="Helvetica,sans-Serif" font-size="10.00">ft_char.h</text>
</a>
</g>
</g>
<!-- Node20&#45;&gt;Node21 -->
<g id="edge28" class="edge">
<title>Node20&#45;&gt;Node21</title>
<path fill="none" stroke="midnightblue" d="M104.33,-112.08C109.69,-104.46 117.57,-93.26 124.13,-83.94"/>
<polygon fill="midnightblue" stroke="midnightblue" points="127,-85.94 129.89,-75.75 121.27,-81.91 127,-85.94"/>
</g>
<!-- Node22&#45;&gt;Node11 -->
<g id="edge30" class="edge">
<title>Node22&#45;&gt;Node11</title>
<path fill="none" stroke="midnightblue" d="M523.76,-224.48C540.8,-216.55 565.53,-203.61 584.05,-188 633.09,-146.66 653.59,-136.44 675.05,-76 678.02,-67.62 678.58,-64.16 675.05,-56 669.78,-43.84 659.43,-33.46 649.69,-25.74"/>
<polygon fill="midnightblue" stroke="midnightblue" points="651.55,-22.77 641.42,-19.67 647.41,-28.41 651.55,-22.77"/>
</g>
<!-- Node22&#45;&gt;Node12 -->
<g id="edge31" class="edge">
<title>Node22&#45;&gt;Node12</title>
<path fill="none" stroke="midnightblue" d="M502.92,-224.47C500.91,-211.52 495.87,-186.46 485.05,-168 460.31,-125.81 410.32,-95.81 378.33,-79.97"/>
<polygon fill="midnightblue" stroke="midnightblue" points="379.56,-76.68 369.03,-75.51 376.53,-82.99 379.56,-76.68"/>
</g>
<!-- Node22&#45;&gt;Node13 -->
<g id="edge32" class="edge">
<title>Node22&#45;&gt;Node13</title>
<path fill="none" stroke="midnightblue" d="M516.3,-224.49C538.04,-208.76 583.37,-172.96 608.05,-132 616.68,-117.68 621.58,-99.22 624.24,-85.63"/>
<polygon fill="midnightblue" stroke="midnightblue" points="627.72,-86.01 625.97,-75.56 620.83,-84.82 627.72,-86.01"/>
</g>
<!-- Node23 -->
<g id="node23" class="node">
<title>Node23</title>
<g id="a_node23"><a xlink:href="colour__bonus_8h.html" target="_top" xlink:title=" ">
<polygon fill="none" stroke="black" points="306.05,-168.5 306.05,-187.5 396.05,-187.5 396.05,-168.5 306.05,-168.5"/>
<text text-anchor="middle" x="351.05" y="-175.5" font-family="Helvetica,sans-Serif" font-size="10.00">colour_bonus.h</text>
</a>
</g>
</g>
<!-- Node22&#45;&gt;Node23 -->
<g id="edge33" class="edge">
<title>Node22&#45;&gt;Node23</title>
<path fill="none" stroke="midnightblue" d="M479.81,-224.44C454.18,-215.4 413.56,-201.06 384.81,-190.92"/>
<polygon fill="midnightblue" stroke="midnightblue" points="385.77,-187.54 375.18,-187.52 383.45,-194.15 385.77,-187.54"/>
</g>
<!-- Node23&#45;&gt;Node7 -->
<g id="edge34" class="edge">
<title>Node23&#45;&gt;Node7</title>
<path fill="none" stroke="midnightblue" d="M339.83,-168.37C315.5,-149.65 257.65,-105.15 227.33,-81.83"/>
<polygon fill="midnightblue" stroke="midnightblue" points="229.28,-78.91 219.22,-75.59 225.01,-84.46 229.28,-78.91"/>
</g>
<!-- Node23&#45;&gt;Node16 -->
<g id="edge35" class="edge">
<title>Node23&#45;&gt;Node16</title>
<path fill="none" stroke="midnightblue" d="M345.32,-168.37C333.27,-150.22 305.13,-107.8 289.33,-83.99"/>
<polygon fill="midnightblue" stroke="midnightblue" points="292.2,-81.99 283.75,-75.59 286.37,-85.86 292.2,-81.99"/>
</g>
<!-- Node24 -->
<g id="node24" class="node">
<title>Node24</title>
<g id="a_node24"><a xlink:href="utils__bonus_8h.html" target="_top" xlink:title=" ">
<polygon fill="none" stroke="black" points="494.55,-112.5 494.55,-131.5 575.55,-131.5 575.55,-112.5 494.55,-112.5"/>
<text text-anchor="middle" x="535.05" y="-119.5" font-family="Helvetica,sans-Serif" font-size="10.00">utils_bonus.h</text>
</a>
</g>
</g>
<!-- Node23&#45;&gt;Node24 -->
<g id="edge36" class="edge">
<title>Node23&#45;&gt;Node24</title>
<path fill="none" stroke="midnightblue" d="M380.21,-168.44C411.56,-159.24 461.58,-144.56 496.25,-134.39"/>
<polygon fill="midnightblue" stroke="midnightblue" points="497.42,-137.69 506.03,-131.52 495.45,-130.97 497.42,-137.69"/>
</g>
<!-- Node24&#45;&gt;Node11 -->
<g id="edge38" class="edge">
<title>Node24&#45;&gt;Node11</title>
<path fill="none" stroke="midnightblue" d="M542.27,-112.37C557.59,-94.05 593.55,-51.05 613.37,-27.36"/>
<polygon fill="midnightblue" stroke="midnightblue" points="616.13,-29.51 619.86,-19.59 610.76,-25.02 616.13,-29.51"/>
</g>
<!-- Node24&#45;&gt;Node12 -->
<g id="edge39" class="edge">
<title>Node24&#45;&gt;Node12</title>
<path fill="none" stroke="midnightblue" d="M505.58,-112.44C473.04,-103 420.63,-87.78 385.53,-77.59"/>
<polygon fill="midnightblue" stroke="midnightblue" points="386.25,-74.16 375.67,-74.73 384.3,-80.88 386.25,-74.16"/>
</g>
<!-- Node24&#45;&gt;Node13 -->
<g id="edge41" class="edge">
<title>Node24&#45;&gt;Node13</title>
<path fill="none" stroke="midnightblue" d="M549.83,-112.32C564.32,-103.82 586.62,-90.73 603.54,-80.8"/>
<polygon fill="midnightblue" stroke="midnightblue" points="605.45,-83.74 612.31,-75.65 601.91,-77.7 605.45,-83.74"/>
</g>
<!-- Node24&#45;&gt;Node14 -->
<g id="edge37" class="edge">
<title>Node24&#45;&gt;Node14</title>
<path fill="none" stroke="midnightblue" d="M503.01,-112.46C473.32,-103.82 432.38,-89.8 423.05,-76 411.78,-59.33 427.96,-39.56 442.99,-26.24"/>
<polygon fill="midnightblue" stroke="midnightblue" points="445.57,-28.64 451.04,-19.56 441.11,-23.25 445.57,-28.64"/>
</g>
<!-- Node25 -->
<g id="node25" class="node">
<title>Node25</title>
<g id="a_node25"><a xlink:title=" ">
<polygon fill="none" stroke="#bfbfbf" points="432.05,-56.5 432.05,-75.5 480.05,-75.5 480.05,-56.5 432.05,-56.5"/>
<text text-anchor="middle" x="456.05" y="-63.5" font-family="Helvetica,sans-Serif" font-size="10.00">time.h</text>
</a>
</g>
</g>
<!-- Node24&#45;&gt;Node25 -->
<g id="edge40" class="edge">
<title>Node24&#45;&gt;Node25</title>
<path fill="none" stroke="midnightblue" d="M522.36,-112.32C510.15,-103.98 491.47,-91.21 477.05,-81.35"/>
<polygon fill="midnightblue" stroke="midnightblue" points="478.94,-78.41 468.71,-75.65 474.99,-84.19 478.94,-78.41"/>
</g>
<!-- Node26&#45;&gt;Node13 -->
<g id="edge44" class="edge">
<title>Node26&#45;&gt;Node13</title>
<path fill="none" stroke="midnightblue" d="M753.28,-112.44C728.16,-103.4 688.34,-89.06 660.15,-78.92"/>
<polygon fill="midnightblue" stroke="midnightblue" points="661.3,-75.61 650.71,-75.52 658.93,-82.2 661.3,-75.61"/>
</g>
<!-- Node26&#45;&gt;Node17 -->
<g id="edge45" class="edge">
<title>Node26&#45;&gt;Node17</title>
<path fill="none" stroke="midnightblue" d="M746.04,-114.43C697.83,-104.22 605.32,-84.63 555.61,-74.11"/>
<polygon fill="midnightblue" stroke="midnightblue" points="556.19,-70.65 545.68,-72 554.74,-77.5 556.19,-70.65"/>
</g>
<!-- Node27 -->
<g id="node27" class="node">
<title>Node27</title>
<g id="a_node27"><a xlink:href="vec2_8h.html" target="_top" xlink:title=" ">
<polygon fill="none" stroke="black" points="749.55,-56.5 749.55,-75.5 798.55,-75.5 798.55,-56.5 749.55,-56.5"/>
<text text-anchor="middle" x="774.05" y="-63.5" font-family="Helvetica,sans-Serif" font-size="10.00">vec2.h</text>
</a>
</g>
</g>
<!-- Node26&#45;&gt;Node27 -->
<g id="edge43" class="edge">
<title>Node26&#45;&gt;Node27</title>
<path fill="none" stroke="midnightblue" d="M776.55,-112.08C776.16,-105.01 775.6,-94.86 775.1,-85.99"/>
<polygon fill="midnightblue" stroke="midnightblue" points="778.59,-85.54 774.54,-75.75 771.6,-85.93 778.59,-85.54"/>
</g>
<!-- Node28 -->
<g id="node28" class="node">
<title>Node28</title>
<g id="a_node28"><a xlink:href="mini_r_t__config_8h.html" target="_top" xlink:title=" ">
<polygon fill="none" stroke="black" points="817.05,-56.5 817.05,-75.5 911.05,-75.5 911.05,-56.5 817.05,-56.5"/>
<text text-anchor="middle" x="864.05" y="-63.5" font-family="Helvetica,sans-Serif" font-size="10.00">miniRT_config.h</text>
</a>
</g>
</g>
<!-- Node26&#45;&gt;Node28 -->
<g id="edge46" class="edge">
<title>Node26&#45;&gt;Node28</title>
<path fill="none" stroke="midnightblue" d="M791.03,-112.32C804.6,-103.9 825.43,-90.97 841.38,-81.07"/>
<polygon fill="midnightblue" stroke="midnightblue" points="843.46,-83.9 850.11,-75.65 839.76,-77.95 843.46,-83.9"/>
</g>
</g>
</svg>
