<?xml version="1.0" encoding="UTF-8" standalone="no"?>
<!DOCTYPE svg PUBLIC "-//W3C//DTD SVG 1.1//EN"
 "http://www.w3.org/Graphics/SVG/1.1/DTD/svg11.dtd">
<!-- Generated by graphviz version 2.43.0 (0)
 -->
<!-- Title: ft_malloc_ents Pages: 1 -->
<svg width="306pt" height="28pt"
 viewBox="0.00 0.00 306.00 28.00" xmlns="http://www.w3.org/2000/svg" xmlns:xlink="http://www.w3.org/1999/xlink">
<g id="graph0" class="graph" transform="scale(1 1) rotate(0) translate(4 24)">
<title>ft_malloc_ents</title>
<!-- Node1 -->
<g id="node1" class="node">
<title>Node1</title>
<g id="a_node1"><a xlink:title="Allocates memory for lights and hittable array.">
<polygon fill="#bfbfbf" stroke="black" points="0,-0.5 0,-19.5 88,-19.5 88,-0.5 0,-0.5"/>
<text text-anchor="middle" x="44" y="-7.5" font-family="Helvetica,sans-Serif" font-size="10.00">ft_malloc_ents</text>
</a>
</g>
</g>
<!-- Node2 -->
<g id="node2" class="node">
<title>Node2</title>
<g id="a_node2"><a xlink:href="error__syscall_8h.html#a1ab50ff4af961d85a53bf12a8f398ba3" target="_top" xlink:title="Wrapper function for malloc() to print errno.">
<polygon fill="none" stroke="black" points="124,-0.5 124,-19.5 204,-19.5 204,-0.5 124,-0.5"/>
<text text-anchor="middle" x="164" y="-7.5" font-family="Helvetica,sans-Serif" font-size="10.00">ft_err_malloc</text>
</a>
</g>
</g>
<!-- Node1&#45;&gt;Node2 -->
<g id="edge1" class="edge">
<title>Node1&#45;&gt;Node2</title>
<path fill="none" stroke="midnightblue" d="M88.27,-10C96.5,-10 105.17,-10 113.57,-10"/>
<polygon fill="midnightblue" stroke="midnightblue" points="113.65,-13.5 123.65,-10 113.65,-6.5 113.65,-13.5"/>
</g>
<!-- Node3 -->
<g id="node3" class="node">
<title>Node3</title>
<g id="a_node3"><a xlink:href="error__msg__generic_8c.html#aee5d10b82b6780869c9cc69cd64e44cc" target="_top" xlink:title=" ">
<polygon fill="none" stroke="black" points="240,-0.5 240,-19.5 298,-19.5 298,-0.5 240,-0.5"/>
<text text-anchor="middle" x="269" y="-7.5" font-family="Helvetica,sans-Serif" font-size="10.00">ft_perror</text>
</a>
</g>
</g>
<!-- Node2&#45;&gt;Node3 -->
<g id="edge2" class="edge">
<title>Node2&#45;&gt;Node3</title>
<path fill="none" stroke="midnightblue" d="M204.23,-10C212.55,-10 221.32,-10 229.6,-10"/>
<polygon fill="midnightblue" stroke="midnightblue" points="229.76,-13.5 239.76,-10 229.76,-6.5 229.76,-13.5"/>
</g>
</g>
</svg>
