<?xml version="1.0" encoding="UTF-8" standalone="no"?>
<!DOCTYPE svg PUBLIC "-//W3C//DTD SVG 1.1//EN"
 "http://www.w3.org/Graphics/SVG/1.1/DTD/svg11.dtd">
<!-- Generated by graphviz version 2.43.0 (0)
 -->
<!-- Title: ft_parse_plane Pages: 1 -->
<svg width="466pt" height="142pt"
 viewBox="0.00 0.00 466.00 142.00" xmlns="http://www.w3.org/2000/svg" xmlns:xlink="http://www.w3.org/1999/xlink">
<g id="graph0" class="graph" transform="scale(1 1) rotate(0) translate(4 138)">
<title>ft_parse_plane</title>
<!-- Node1 -->
<g id="node1" class="node">
<title>Node1</title>
<g id="a_node1"><a xlink:title="Parse plane line.">
<polygon fill="#bfbfbf" stroke="black" points="0,-76.5 0,-95.5 88,-95.5 88,-76.5 0,-76.5"/>
<text text-anchor="middle" x="44" y="-83.5" font-family="Helvetica,sans-Serif" font-size="10.00">ft_parse_plane</text>
</a>
</g>
</g>
<!-- Node2 -->
<g id="node2" class="node">
<title>Node2</title>
<g id="a_node2"><a xlink:href="parse_8h.html#a2bb654728a666a68ad6b6627cd27e918" target="_top" xlink:title="Parses values of a rgb colour block.">
<polygon fill="none" stroke="black" points="124,-114.5 124,-133.5 246,-133.5 246,-114.5 124,-114.5"/>
<text text-anchor="middle" x="185" y="-121.5" font-family="Helvetica,sans-Serif" font-size="10.00">ft_parse_colour_block</text>
</a>
</g>
</g>
<!-- Node1&#45;&gt;Node2 -->
<g id="edge1" class="edge">
<title>Node1&#45;&gt;Node2</title>
<path fill="none" stroke="midnightblue" d="M80.08,-95.59C98.02,-100.49 120.06,-106.52 139.22,-111.76"/>
<polygon fill="midnightblue" stroke="midnightblue" points="138.37,-115.15 148.94,-114.41 140.21,-108.4 138.37,-115.15"/>
</g>
<!-- Node4 -->
<g id="node4" class="node">
<title>Node4</title>
<g id="a_node4"><a xlink:href="parse_8h.html#ad1918f45b6a322a21c3541825b405eb6" target="_top" xlink:title="Parse values of a float block.">
<polygon fill="none" stroke="black" points="128,-76.5 128,-95.5 242,-95.5 242,-76.5 128,-76.5"/>
<text text-anchor="middle" x="185" y="-83.5" font-family="Helvetica,sans-Serif" font-size="10.00">ft_parse_float_block</text>
</a>
</g>
</g>
<!-- Node1&#45;&gt;Node4 -->
<g id="edge3" class="edge">
<title>Node1&#45;&gt;Node4</title>
<path fill="none" stroke="midnightblue" d="M88.22,-86C97.5,-86 107.53,-86 117.46,-86"/>
<polygon fill="midnightblue" stroke="midnightblue" points="117.76,-89.5 127.76,-86 117.76,-82.5 117.76,-89.5"/>
</g>
<!-- Node6 -->
<g id="node6" class="node">
<title>Node6</title>
<g id="a_node6"><a xlink:href="vec3_8h.html#a38fe500bd27847b866b9630146e43250" target="_top" xlink:title="Normalise a vector.">
<polygon fill="none" stroke="black" points="143.5,-38.5 143.5,-57.5 226.5,-57.5 226.5,-38.5 143.5,-38.5"/>
<text text-anchor="middle" x="185" y="-45.5" font-family="Helvetica,sans-Serif" font-size="10.00">ft_vec3_norm</text>
</a>
</g>
</g>
<!-- Node1&#45;&gt;Node6 -->
<g id="edge6" class="edge">
<title>Node1&#45;&gt;Node6</title>
<path fill="none" stroke="midnightblue" d="M80.08,-76.41C98.02,-71.51 120.06,-65.48 139.22,-60.24"/>
<polygon fill="midnightblue" stroke="midnightblue" points="140.21,-63.6 148.94,-57.59 138.37,-56.85 140.21,-63.6"/>
</g>
<!-- Node3 -->
<g id="node3" class="node">
<title>Node3</title>
<g id="a_node3"><a xlink:href="ft__strtod_8h.html#a0a1cbf0fef2bdcf6fde79c34014bc10e" target="_top" xlink:title="Converts a String to a double.">
<polygon fill="none" stroke="black" points="401,-95.5 401,-114.5 458,-114.5 458,-95.5 401,-95.5"/>
<text text-anchor="middle" x="429.5" y="-102.5" font-family="Helvetica,sans-Serif" font-size="10.00">ft_strtod</text>
</a>
</g>
</g>
<!-- Node2&#45;&gt;Node3 -->
<g id="edge2" class="edge">
<title>Node2&#45;&gt;Node3</title>
<path fill="none" stroke="midnightblue" d="M246.26,-119.28C291.39,-115.74 351.77,-111.01 390.41,-107.98"/>
<polygon fill="midnightblue" stroke="midnightblue" points="391,-111.45 400.7,-107.18 390.45,-104.47 391,-111.45"/>
</g>
<!-- Node5 -->
<g id="node5" class="node">
<title>Node5</title>
<g id="a_node5"><a xlink:href="parse__line_8c.html#a4df2d6a5cd30a4f3ca3a1283c7afaafa" target="_top" xlink:title="Parse a single float.">
<polygon fill="none" stroke="black" points="282,-76.5 282,-95.5 365,-95.5 365,-76.5 282,-76.5"/>
<text text-anchor="middle" x="323.5" y="-83.5" font-family="Helvetica,sans-Serif" font-size="10.00">ft_parse_float</text>
</a>
</g>
</g>
<!-- Node4&#45;&gt;Node5 -->
<g id="edge4" class="edge">
<title>Node4&#45;&gt;Node5</title>
<path fill="none" stroke="midnightblue" d="M242.31,-86C252.02,-86 262.06,-86 271.61,-86"/>
<polygon fill="midnightblue" stroke="midnightblue" points="271.75,-89.5 281.75,-86 271.75,-82.5 271.75,-89.5"/>
</g>
<!-- Node5&#45;&gt;Node3 -->
<g id="edge5" class="edge">
<title>Node5&#45;&gt;Node3</title>
<path fill="none" stroke="midnightblue" d="M365.01,-93.4C373.52,-94.96 382.47,-96.59 390.87,-98.13"/>
<polygon fill="midnightblue" stroke="midnightblue" points="390.32,-101.58 400.79,-99.94 391.58,-94.7 390.32,-101.58"/>
</g>
<!-- Node7 -->
<g id="node7" class="node">
<title>Node7</title>
<g id="a_node7"><a xlink:href="vec3__linalgebra_8c.html#aa84621bd979d3b12b97908f653faf88e" target="_top" xlink:title="Calculate the absolute value of a vector.">
<polygon fill="none" stroke="black" points="286.5,-38.5 286.5,-57.5 360.5,-57.5 360.5,-38.5 286.5,-38.5"/>
<text text-anchor="middle" x="323.5" y="-45.5" font-family="Helvetica,sans-Serif" font-size="10.00">ft_vec3_abs</text>
</a>
</g>
</g>
<!-- Node6&#45;&gt;Node7 -->
<g id="edge7" class="edge">
<title>Node6&#45;&gt;Node7</title>
<path fill="none" stroke="midnightblue" d="M226.58,-48C242.19,-48 260.11,-48 276.21,-48"/>
<polygon fill="midnightblue" stroke="midnightblue" points="276.48,-51.5 286.48,-48 276.48,-44.5 276.48,-51.5"/>
</g>
<!-- Node8 -->
<g id="node8" class="node">
<title>Node8</title>
<g id="a_node8"><a xlink:href="vec3_8h.html#ac80a1c20941c96a8fafad255dac59092" target="_top" xlink:title="Scale a vector.">
<polygon fill="none" stroke="black" points="282,-0.5 282,-19.5 365,-19.5 365,-0.5 282,-0.5"/>
<text text-anchor="middle" x="323.5" y="-7.5" font-family="Helvetica,sans-Serif" font-size="10.00">ft_vec3_scale</text>
</a>
</g>
</g>
<!-- Node6&#45;&gt;Node8 -->
<g id="edge8" class="edge">
<title>Node6&#45;&gt;Node8</title>
<path fill="none" stroke="midnightblue" d="M220.44,-38.41C237.98,-33.53 259.51,-27.54 278.26,-22.32"/>
<polygon fill="midnightblue" stroke="midnightblue" points="279.37,-25.64 288.07,-19.59 277.49,-18.9 279.37,-25.64"/>
</g>
</g>
</svg>
