<?xml version="1.0" encoding="UTF-8" standalone="no"?>
<!DOCTYPE svg PUBLIC "-//W3C//DTD SVG 1.1//EN"
 "http://www.w3.org/Graphics/SVG/1.1/DTD/svg11.dtd">
<!-- Generated by graphviz version 2.43.0 (0)
 -->
<!-- Title: inc/parse.h Pages: 1 -->
<!--zoomable 364 -->
<svg id="main" version="1.1" xmlns="http://www.w3.org/2000/svg" xmlns:xlink="http://www.w3.org/1999/xlink" xml:space="preserve" onload="init(evt)">
<style type="text/css"><![CDATA[
.edge:hover path { stroke: red; }
.edge:hover polygon { stroke: red; fill: red; }
]]></style>
<script type="text/javascript"><![CDATA[
var edges = document.getElementsByTagName('g');
if (edges && edges.length) {
  for (var i=0;i<edges.length;i++) {
    if (edges[i].id.substr(0,4)=='edge') {
      edges[i].setAttribute('class','edge');
    }
  }
}
]]></script>
        <defs>
                <circle id="rim" cx="0" cy="0" r="7"/>
                <circle id="rim2" cx="0" cy="0" r="3.5"/>
                <g id="zoomPlus">
                        <use xlink:href="#rim" fill="#404040">
                                <set attributeName="fill" to="#808080" begin="zoomplus.mouseover" end="zoomplus.mouseout"/>
                        </use>
                        <path d="M-4,0h8M0,-4v8" fill="none" stroke="white" stroke-width="1.5" pointer-events="none"/>
                </g>
                <g id="zoomMin">
                        <use xlink:href="#rim" fill="#404040">
                                <set attributeName="fill" to="#808080" begin="zoomminus.mouseover" end="zoomminus.mouseout"/>
                        </use>
                        <path d="M-4,0h8" fill="none" stroke="white" stroke-width="1.5" pointer-events="none"/>
                </g>
                <g id="dirArrow">
                        <path fill="none" stroke="white" stroke-width="1.5" d="M0,-3.0v7 M-2.5,-0.5L0,-3.0L2.5,-0.5"/>
                </g>
               <g id="resetDef">
                       <use xlink:href="#rim2" fill="#404040">
                               <set attributeName="fill" to="#808080" begin="reset.mouseover" end="reset.mouseout"/>
                       </use>
               </g>
        </defs>

<script type="text/javascript">
var viewWidth = 623;
var viewHeight = 364;
var sectionId = 'dynsection-0';
</script>
<script xlink:href="svgpan.js"/>
<svg id="graph" class="graph">
<g id="viewport">
<title>inc/parse.h</title>
<!-- Node1 -->
<g id="node1" class="node">
<title>Node1</title>
<g id="a_node1"><a xlink:title=" ">
<polygon fill="#bfbfbf" stroke="black" points="295.5,-336.5 295.5,-355.5 365.5,-355.5 365.5,-336.5 295.5,-336.5"/>
<text text-anchor="middle" x="330.5" y="-343.5" font-family="Helvetica,sans-Serif" font-size="10.00">inc/parse.h</text>
</a>
</g>
</g>
<!-- Node2 -->
<g id="node2" class="node">
<title>Node2</title>
<g id="a_node2"><a xlink:href="error__syscall_8h.html" target="_top" xlink:title=" ">
<polygon fill="none" stroke="black" points="106.5,-280.5 106.5,-299.5 194.5,-299.5 194.5,-280.5 106.5,-280.5"/>
<text text-anchor="middle" x="150.5" y="-287.5" font-family="Helvetica,sans-Serif" font-size="10.00">error_syscall.h</text>
</a>
</g>
</g>
<!-- Node1&#45;&gt;Node2 -->
<g id="edge1" class="edge">
<title>Node1&#45;&gt;Node2</title>
<path fill="none" stroke="midnightblue" d="M301.98,-336.44C271.43,-327.28 222.79,-312.69 188.9,-302.52"/>
<polygon fill="midnightblue" stroke="midnightblue" points="189.47,-299.04 178.89,-299.52 187.46,-305.74 189.47,-299.04"/>
</g>
<!-- Node9 -->
<g id="node9" class="node">
<title>Node9</title>
<g id="a_node9"><a xlink:href="entities_8h.html" target="_top" xlink:title=" ">
<polygon fill="none" stroke="black" points="239.5,-168.5 239.5,-187.5 301.5,-187.5 301.5,-168.5 239.5,-168.5"/>
<text text-anchor="middle" x="270.5" y="-175.5" font-family="Helvetica,sans-Serif" font-size="10.00">entities.h</text>
</a>
</g>
</g>
<!-- Node1&#45;&gt;Node9 -->
<g id="edge33" class="edge">
<title>Node1&#45;&gt;Node9</title>
<path fill="none" stroke="midnightblue" d="M326.69,-336.47C319.07,-319.21 301.63,-278.85 289.5,-244 284.06,-228.39 278.87,-210.31 275.29,-197.19"/>
<polygon fill="midnightblue" stroke="midnightblue" points="278.66,-196.25 272.69,-187.5 271.9,-198.07 278.66,-196.25"/>
</g>
<!-- Node17 -->
<g id="node17" class="node">
<title>Node17</title>
<g id="a_node17"><a xlink:href="cleanup_8h.html" target="_top" xlink:title=" ">
<polygon fill="none" stroke="black" points="298.5,-224.5 298.5,-243.5 362.5,-243.5 362.5,-224.5 298.5,-224.5"/>
<text text-anchor="middle" x="330.5" y="-231.5" font-family="Helvetica,sans-Serif" font-size="10.00">cleanup.h</text>
</a>
</g>
</g>
<!-- Node1&#45;&gt;Node17 -->
<g id="edge20" class="edge">
<title>Node1&#45;&gt;Node17</title>
<path fill="none" stroke="midnightblue" d="M330.5,-336.37C330.5,-318.62 330.5,-277.67 330.5,-253.6"/>
<polygon fill="midnightblue" stroke="midnightblue" points="334,-253.59 330.5,-243.59 327,-253.59 334,-253.59"/>
</g>
<!-- Node19 -->
<g id="node19" class="node">
<title>Node19</title>
<g id="a_node19"><a xlink:href="ft__strtod_8h.html" target="_top" xlink:title=" ">
<polygon fill="none" stroke="black" points="370.5,-112.5 370.5,-131.5 436.5,-131.5 436.5,-112.5 370.5,-112.5"/>
<text text-anchor="middle" x="403.5" y="-119.5" font-family="Helvetica,sans-Serif" font-size="10.00">ft_strtod.h</text>
</a>
</g>
</g>
<!-- Node1&#45;&gt;Node19 -->
<g id="edge24" class="edge">
<title>Node1&#45;&gt;Node19</title>
<path fill="none" stroke="midnightblue" d="M336.78,-336.38C352.95,-313.6 395.79,-249.28 410.5,-188 414.23,-172.48 411.75,-154.4 408.75,-141.25"/>
<polygon fill="midnightblue" stroke="midnightblue" points="412.13,-140.34 406.25,-131.53 405.36,-142.09 412.13,-140.34"/>
</g>
<!-- Node21 -->
<g id="node21" class="node">
<title>Node21</title>
<g id="a_node21"><a xlink:href="camera_8h.html" target="_top" xlink:title=" ">
<polygon fill="none" stroke="black" points="454.5,-112.5 454.5,-131.5 516.5,-131.5 516.5,-112.5 454.5,-112.5"/>
<text text-anchor="middle" x="485.5" y="-119.5" font-family="Helvetica,sans-Serif" font-size="10.00">camera.h</text>
</a>
</g>
</g>
<!-- Node1&#45;&gt;Node21 -->
<g id="edge28" class="edge">
<title>Node1&#45;&gt;Node21</title>
<path fill="none" stroke="midnightblue" d="M342.4,-336.27C353.41,-327.81 369.78,-314.21 381.5,-300 424.87,-247.4 461.5,-174.57 477.24,-141.12"/>
<polygon fill="midnightblue" stroke="midnightblue" points="480.57,-142.27 481.6,-131.72 474.22,-139.32 480.57,-142.27"/>
</g>
<!-- Node3 -->
<g id="node3" class="node">
<title>Node3</title>
<g id="a_node3"><a xlink:title=" ">
<polygon fill="none" stroke="#bfbfbf" points="0,-224.5 0,-243.5 47,-243.5 47,-224.5 0,-224.5"/>
<text text-anchor="middle" x="23.5" y="-231.5" font-family="Helvetica,sans-Serif" font-size="10.00">fcntl.h</text>
</a>
</g>
</g>
<!-- Node2&#45;&gt;Node3 -->
<g id="edge2" class="edge">
<title>Node2&#45;&gt;Node3</title>
<path fill="none" stroke="midnightblue" d="M130.38,-280.44C109.48,-271.56 76.57,-257.56 52.78,-247.45"/>
<polygon fill="midnightblue" stroke="midnightblue" points="54.1,-244.21 43.53,-243.52 51.36,-250.65 54.1,-244.21"/>
</g>
<!-- Node4 -->
<g id="node4" class="node">
<title>Node4</title>
<g id="a_node4"><a xlink:href="error__type_8h.html" target="_top" xlink:title=" ">
<polygon fill="none" stroke="black" points="65.5,-224.5 65.5,-243.5 141.5,-243.5 141.5,-224.5 65.5,-224.5"/>
<text text-anchor="middle" x="103.5" y="-231.5" font-family="Helvetica,sans-Serif" font-size="10.00">error_type.h</text>
</a>
</g>
</g>
<!-- Node2&#45;&gt;Node4 -->
<g id="edge3" class="edge">
<title>Node2&#45;&gt;Node4</title>
<path fill="none" stroke="midnightblue" d="M142.74,-280.08C135.96,-272.3 125.96,-260.8 117.74,-251.37"/>
<polygon fill="midnightblue" stroke="midnightblue" points="120.32,-249 111.12,-243.75 115.04,-253.59 120.32,-249"/>
</g>
<!-- Node5 -->
<g id="node5" class="node">
<title>Node5</title>
<g id="a_node5"><a xlink:href="error__msg_8h.html" target="_top" xlink:title=" ">
<polygon fill="none" stroke="black" points="160,-224.5 160,-243.5 235,-243.5 235,-224.5 160,-224.5"/>
<text text-anchor="middle" x="197.5" y="-231.5" font-family="Helvetica,sans-Serif" font-size="10.00">error_msg.h</text>
</a>
</g>
</g>
<!-- Node2&#45;&gt;Node5 -->
<g id="edge4" class="edge">
<title>Node2&#45;&gt;Node5</title>
<path fill="none" stroke="midnightblue" d="M158.26,-280.08C165.04,-272.3 175.04,-260.8 183.26,-251.37"/>
<polygon fill="midnightblue" stroke="midnightblue" points="185.96,-253.59 189.88,-243.75 180.68,-249 185.96,-253.59"/>
</g>
<!-- Node6 -->
<g id="node6" class="node">
<title>Node6</title>
<g id="a_node6"><a xlink:title=" ">
<polygon fill="none" stroke="#bfbfbf" points="66.5,-56.5 66.5,-75.5 116.5,-75.5 116.5,-56.5 66.5,-56.5"/>
<text text-anchor="middle" x="91.5" y="-63.5" font-family="Helvetica,sans-Serif" font-size="10.00">stdio.h</text>
</a>
</g>
</g>
<!-- Node5&#45;&gt;Node6 -->
<g id="edge5" class="edge">
<title>Node5&#45;&gt;Node6</title>
<path fill="none" stroke="midnightblue" d="M159.98,-226.72C137.29,-220.81 110.02,-209.49 95.5,-188 74.59,-157.05 80.78,-110.77 86.53,-85.35"/>
<polygon fill="midnightblue" stroke="midnightblue" points="89.95,-86.1 88.96,-75.55 83.15,-84.41 89.95,-86.1"/>
</g>
<!-- Node7 -->
<g id="node7" class="node">
<title>Node7</title>
<g id="a_node7"><a xlink:title=" ">
<polygon fill="none" stroke="#bfbfbf" points="105,-168.5 105,-187.5 156,-187.5 156,-168.5 105,-168.5"/>
<text text-anchor="middle" x="130.5" y="-175.5" font-family="Helvetica,sans-Serif" font-size="10.00">errno.h</text>
</a>
</g>
</g>
<!-- Node5&#45;&gt;Node7 -->
<g id="edge6" class="edge">
<title>Node5&#45;&gt;Node7</title>
<path fill="none" stroke="midnightblue" d="M186.74,-224.32C176.73,-216.26 161.61,-204.08 149.57,-194.37"/>
<polygon fill="midnightblue" stroke="midnightblue" points="151.44,-191.38 141.46,-187.83 147.05,-196.83 151.44,-191.38"/>
</g>
<!-- Node8 -->
<g id="node8" class="node">
<title>Node8</title>
<g id="a_node8"><a xlink:title=" ">
<polygon fill="none" stroke="#bfbfbf" points="174,-168.5 174,-187.5 221,-187.5 221,-168.5 174,-168.5"/>
<text text-anchor="middle" x="197.5" y="-175.5" font-family="Helvetica,sans-Serif" font-size="10.00">ft_fd.h</text>
</a>
</g>
</g>
<!-- Node5&#45;&gt;Node8 -->
<g id="edge7" class="edge">
<title>Node5&#45;&gt;Node8</title>
<path fill="none" stroke="midnightblue" d="M197.5,-224.08C197.5,-217.01 197.5,-206.86 197.5,-197.99"/>
<polygon fill="midnightblue" stroke="midnightblue" points="201,-197.75 197.5,-187.75 194,-197.75 201,-197.75"/>
</g>
<!-- Node5&#45;&gt;Node9 -->
<g id="edge8" class="edge">
<title>Node5&#45;&gt;Node9</title>
<path fill="none" stroke="midnightblue" d="M209.23,-224.32C220.34,-216.11 237.24,-203.6 250.48,-193.81"/>
<polygon fill="midnightblue" stroke="midnightblue" points="252.6,-196.59 258.56,-187.83 248.44,-190.97 252.6,-196.59"/>
</g>
<!-- Node10 -->
<g id="node10" class="node">
<title>Node10</title>
<g id="a_node10"><a xlink:title=" ">
<polygon fill="none" stroke="#bfbfbf" points="198.5,-0.5 198.5,-19.5 260.5,-19.5 260.5,-0.5 198.5,-0.5"/>
<text text-anchor="middle" x="229.5" y="-7.5" font-family="Helvetica,sans-Serif" font-size="10.00">stdbool.h</text>
</a>
</g>
</g>
<!-- Node9&#45;&gt;Node10 -->
<g id="edge9" class="edge">
<title>Node9&#45;&gt;Node10</title>
<path fill="none" stroke="midnightblue" d="M243.33,-168.45C190.44,-151.16 77.13,-110.74 57.5,-76 28.83,-25.27 128.5,-13.84 188.06,-11.45"/>
<polygon fill="midnightblue" stroke="midnightblue" points="188.44,-14.94 198.32,-11.12 188.21,-7.95 188.44,-14.94"/>
</g>
<!-- Node11 -->
<g id="node11" class="node">
<title>Node11</title>
<g id="a_node11"><a xlink:title=" ">
<polygon fill="none" stroke="#bfbfbf" points="299,-112.5 299,-131.5 352,-131.5 352,-112.5 299,-112.5"/>
<text text-anchor="middle" x="325.5" y="-119.5" font-family="Helvetica,sans-Serif" font-size="10.00">stdlib.h</text>
</a>
</g>
</g>
<!-- Node9&#45;&gt;Node11 -->
<g id="edge10" class="edge">
<title>Node9&#45;&gt;Node11</title>
<path fill="none" stroke="midnightblue" d="M279.58,-168.08C287.67,-160.14 299.7,-148.34 309.41,-138.8"/>
<polygon fill="midnightblue" stroke="midnightblue" points="311.9,-141.25 316.59,-131.75 307,-136.26 311.9,-141.25"/>
</g>
<!-- Node12 -->
<g id="node12" class="node">
<title>Node12</title>
<g id="a_node12"><a xlink:href="vec3_8h.html" target="_top" xlink:title=" ">
<polygon fill="none" stroke="black" points="348,-56.5 348,-75.5 397,-75.5 397,-56.5 348,-56.5"/>
<text text-anchor="middle" x="372.5" y="-63.5" font-family="Helvetica,sans-Serif" font-size="10.00">vec3.h</text>
</a>
</g>
</g>
<!-- Node9&#45;&gt;Node12 -->
<g id="edge11" class="edge">
<title>Node9&#45;&gt;Node12</title>
<path fill="none" stroke="midnightblue" d="M270.94,-168.46C272.04,-155.05 275.91,-128.83 289.5,-112 301.98,-96.54 321.25,-85.63 338.08,-78.43"/>
<polygon fill="midnightblue" stroke="midnightblue" points="339.65,-81.57 347.64,-74.61 337.05,-75.07 339.65,-81.57"/>
</g>
<!-- Node14 -->
<g id="node14" class="node">
<title>Node14</title>
<g id="a_node14"><a xlink:href="colour_8h.html" target="_top" xlink:title=" ">
<polygon fill="none" stroke="black" points="160,-112.5 160,-131.5 215,-131.5 215,-112.5 160,-112.5"/>
<text text-anchor="middle" x="187.5" y="-119.5" font-family="Helvetica,sans-Serif" font-size="10.00">colour.h</text>
</a>
</g>
</g>
<!-- Node9&#45;&gt;Node14 -->
<g id="edge14" class="edge">
<title>Node9&#45;&gt;Node14</title>
<path fill="none" stroke="midnightblue" d="M257.16,-168.32C244.34,-159.98 224.72,-147.21 209.56,-137.35"/>
<polygon fill="midnightblue" stroke="midnightblue" points="211.09,-134.17 200.8,-131.65 207.28,-140.04 211.09,-134.17"/>
</g>
<!-- Node12&#45;&gt;Node10 -->
<g id="edge13" class="edge">
<title>Node12&#45;&gt;Node10</title>
<path fill="none" stroke="midnightblue" d="M349.84,-56.44C326.1,-47.48 288.59,-33.31 261.76,-23.18"/>
<polygon fill="midnightblue" stroke="midnightblue" points="262.64,-19.77 252.05,-19.52 260.17,-26.32 262.64,-19.77"/>
</g>
<!-- Node13 -->
<g id="node13" class="node">
<title>Node13</title>
<g id="a_node13"><a xlink:title=" ">
<polygon fill="none" stroke="#bfbfbf" points="347,-0.5 347,-19.5 398,-19.5 398,-0.5 347,-0.5"/>
<text text-anchor="middle" x="372.5" y="-7.5" font-family="Helvetica,sans-Serif" font-size="10.00">math.h</text>
</a>
</g>
</g>
<!-- Node12&#45;&gt;Node13 -->
<g id="edge12" class="edge">
<title>Node12&#45;&gt;Node13</title>
<path fill="none" stroke="midnightblue" d="M372.5,-56.08C372.5,-49.01 372.5,-38.86 372.5,-29.99"/>
<polygon fill="midnightblue" stroke="midnightblue" points="376,-29.75 372.5,-19.75 369,-29.75 376,-29.75"/>
</g>
<!-- Node14&#45;&gt;Node6 -->
<g id="edge15" class="edge">
<title>Node14&#45;&gt;Node6</title>
<path fill="none" stroke="midnightblue" d="M172.08,-112.32C156.96,-103.82 133.68,-90.73 116.03,-80.8"/>
<polygon fill="midnightblue" stroke="midnightblue" points="117.32,-77.51 106.89,-75.65 113.89,-83.61 117.32,-77.51"/>
</g>
<!-- Node15 -->
<g id="node15" class="node">
<title>Node15</title>
<g id="a_node15"><a xlink:title=" ">
<polygon fill="none" stroke="#bfbfbf" points="135,-56.5 135,-75.5 188,-75.5 188,-56.5 135,-56.5"/>
<text text-anchor="middle" x="161.5" y="-63.5" font-family="Helvetica,sans-Serif" font-size="10.00">stdint.h</text>
</a>
</g>
</g>
<!-- Node14&#45;&gt;Node15 -->
<g id="edge16" class="edge">
<title>Node14&#45;&gt;Node15</title>
<path fill="none" stroke="midnightblue" d="M183.21,-112.08C179.65,-104.69 174.48,-93.95 170.08,-84.81"/>
<polygon fill="midnightblue" stroke="midnightblue" points="173.21,-83.24 165.71,-75.75 166.9,-86.28 173.21,-83.24"/>
</g>
<!-- Node16 -->
<g id="node16" class="node">
<title>Node16</title>
<g id="a_node16"><a xlink:href="utils_8h.html" target="_top" xlink:title=" ">
<polygon fill="none" stroke="black" points="206,-56.5 206,-75.5 253,-75.5 253,-56.5 206,-56.5"/>
<text text-anchor="middle" x="229.5" y="-63.5" font-family="Helvetica,sans-Serif" font-size="10.00">utils.h</text>
</a>
</g>
</g>
<!-- Node14&#45;&gt;Node16 -->
<g id="edge17" class="edge">
<title>Node14&#45;&gt;Node16</title>
<path fill="none" stroke="midnightblue" d="M194.44,-112.08C200.43,-104.38 209.25,-93.03 216.55,-83.65"/>
<polygon fill="midnightblue" stroke="midnightblue" points="219.32,-85.79 222.69,-75.75 213.79,-81.5 219.32,-85.79"/>
</g>
<!-- Node16&#45;&gt;Node10 -->
<g id="edge19" class="edge">
<title>Node16&#45;&gt;Node10</title>
<path fill="none" stroke="midnightblue" d="M229.5,-56.08C229.5,-49.01 229.5,-38.86 229.5,-29.99"/>
<polygon fill="midnightblue" stroke="midnightblue" points="233,-29.75 229.5,-19.75 226,-29.75 233,-29.75"/>
</g>
<!-- Node16&#45;&gt;Node13 -->
<g id="edge18" class="edge">
<title>Node16&#45;&gt;Node13</title>
<path fill="none" stroke="midnightblue" d="M252.16,-56.44C275.9,-47.48 313.41,-33.31 340.24,-23.18"/>
<polygon fill="midnightblue" stroke="midnightblue" points="341.83,-26.32 349.95,-19.52 339.36,-19.77 341.83,-26.32"/>
</g>
<!-- Node17&#45;&gt;Node9 -->
<g id="edge23" class="edge">
<title>Node17&#45;&gt;Node9</title>
<path fill="none" stroke="midnightblue" d="M320.86,-224.32C311.99,-216.34 298.63,-204.31 287.89,-194.65"/>
<polygon fill="midnightblue" stroke="midnightblue" points="290.09,-191.92 280.32,-187.83 285.41,-197.13 290.09,-191.92"/>
</g>
<!-- Node17&#45;&gt;Node11 -->
<g id="edge21" class="edge">
<title>Node17&#45;&gt;Node11</title>
<path fill="none" stroke="midnightblue" d="M330.11,-224.37C329.3,-206.62 327.44,-165.67 326.35,-141.6"/>
<polygon fill="midnightblue" stroke="midnightblue" points="329.84,-141.42 325.89,-131.59 322.85,-141.74 329.84,-141.42"/>
</g>
<!-- Node18 -->
<g id="node18" class="node">
<title>Node18</title>
<g id="a_node18"><a xlink:title=" ">
<polygon fill="none" stroke="#bfbfbf" points="357.5,-168.5 357.5,-187.5 401.5,-187.5 401.5,-168.5 357.5,-168.5"/>
<text text-anchor="middle" x="379.5" y="-175.5" font-family="Helvetica,sans-Serif" font-size="10.00">mlx.h</text>
</a>
</g>
</g>
<!-- Node17&#45;&gt;Node18 -->
<g id="edge22" class="edge">
<title>Node17&#45;&gt;Node18</title>
<path fill="none" stroke="midnightblue" d="M338.59,-224.08C345.66,-216.3 356.09,-204.8 364.65,-195.37"/>
<polygon fill="midnightblue" stroke="midnightblue" points="367.43,-197.51 371.56,-187.75 362.25,-192.8 367.43,-197.51"/>
</g>
<!-- Node19&#45;&gt;Node6 -->
<g id="edge25" class="edge">
<title>Node19&#45;&gt;Node6</title>
<path fill="none" stroke="midnightblue" d="M370.2,-113.84C366.93,-113.2 363.65,-112.57 360.5,-112 259.68,-93.74 230.68,-97.31 126.65,-76.05"/>
<polygon fill="midnightblue" stroke="midnightblue" points="127.18,-72.59 116.68,-73.99 125.76,-79.44 127.18,-72.59"/>
</g>
<!-- Node19&#45;&gt;Node13 -->
<g id="edge26" class="edge">
<title>Node19&#45;&gt;Node13</title>
<path fill="none" stroke="midnightblue" d="M405.6,-112.32C408.27,-99.6 411.82,-75.31 405.5,-56 402.01,-45.34 394.93,-35.12 388.21,-27.12"/>
<polygon fill="midnightblue" stroke="midnightblue" points="390.8,-24.76 381.52,-19.66 385.6,-29.44 390.8,-24.76"/>
</g>
<!-- Node20 -->
<g id="node20" class="node">
<title>Node20</title>
<g id="a_node20"><a xlink:title=" ">
<polygon fill="none" stroke="#bfbfbf" points="271.5,-56.5 271.5,-75.5 329.5,-75.5 329.5,-56.5 271.5,-56.5"/>
<text text-anchor="middle" x="300.5" y="-63.5" font-family="Helvetica,sans-Serif" font-size="10.00">ft_char.h</text>
</a>
</g>
</g>
<!-- Node19&#45;&gt;Node20 -->
<g id="edge27" class="edge">
<title>Node19&#45;&gt;Node20</title>
<path fill="none" stroke="midnightblue" d="M386.95,-112.32C370.51,-103.7 345.07,-90.36 326.03,-80.39"/>
<polygon fill="midnightblue" stroke="midnightblue" points="327.49,-77.2 317.01,-75.65 324.24,-83.4 327.49,-77.2"/>
</g>
<!-- Node21&#45;&gt;Node12 -->
<g id="edge30" class="edge">
<title>Node21&#45;&gt;Node12</title>
<path fill="none" stroke="midnightblue" d="M467.59,-112.44C449.25,-103.68 420.49,-89.94 399.41,-79.86"/>
<polygon fill="midnightblue" stroke="midnightblue" points="400.85,-76.67 390.32,-75.52 397.83,-82.99 400.85,-76.67"/>
</g>
<!-- Node21&#45;&gt;Node16 -->
<g id="edge31" class="edge">
<title>Node21&#45;&gt;Node16</title>
<path fill="none" stroke="midnightblue" d="M454.07,-113.84C451.18,-113.21 448.29,-112.59 445.5,-112 367.4,-95.54 344.86,-94.94 262.98,-75.97"/>
<polygon fill="midnightblue" stroke="midnightblue" points="263.78,-72.56 253.24,-73.69 262.18,-79.38 263.78,-72.56"/>
</g>
<!-- Node22 -->
<g id="node22" class="node">
<title>Node22</title>
<g id="a_node22"><a xlink:href="vec2_8h.html" target="_top" xlink:title=" ">
<polygon fill="none" stroke="black" points="566,-56.5 566,-75.5 615,-75.5 615,-56.5 566,-56.5"/>
<text text-anchor="middle" x="590.5" y="-63.5" font-family="Helvetica,sans-Serif" font-size="10.00">vec2.h</text>
</a>
</g>
</g>
<!-- Node21&#45;&gt;Node22 -->
<g id="edge29" class="edge">
<title>Node21&#45;&gt;Node22</title>
<path fill="none" stroke="midnightblue" d="M502.37,-112.32C519.21,-103.66 545.31,-90.24 564.74,-80.25"/>
<polygon fill="midnightblue" stroke="midnightblue" points="566.38,-83.34 573.67,-75.65 563.18,-77.12 566.38,-83.34"/>
</g>
<!-- Node23 -->
<g id="node23" class="node">
<title>Node23</title>
<g id="a_node23"><a xlink:href="mini_r_t__config_8h.html" target="_top" xlink:title=" ">
<polygon fill="none" stroke="black" points="453.5,-56.5 453.5,-75.5 547.5,-75.5 547.5,-56.5 453.5,-56.5"/>
<text text-anchor="middle" x="500.5" y="-63.5" font-family="Helvetica,sans-Serif" font-size="10.00">miniRT_config.h</text>
</a>
</g>
</g>
<!-- Node21&#45;&gt;Node23 -->
<g id="edge32" class="edge">
<title>Node21&#45;&gt;Node23</title>
<path fill="none" stroke="midnightblue" d="M487.98,-112.08C489.99,-104.85 492.89,-94.41 495.39,-85.4"/>
<polygon fill="midnightblue" stroke="midnightblue" points="498.76,-86.32 498.07,-75.75 492.02,-84.45 498.76,-86.32"/>
</g>
</g>
</svg>
        <g id="navigator" transform="translate(0 0)" fill="#404254">
                <rect fill="#f2f5e9" fill-opacity="0.5" stroke="#606060" stroke-width=".5" x="0" y="0" width="60" height="60"/>
                <use id="zoomplus" xlink:href="#zoomPlus" x="17" y="9" onmousedown="handleZoom(evt,'in')"/>
                <use id="zoomminus" xlink:href="#zoomMin" x="42" y="9" onmousedown="handleZoom(evt,'out')"/>
                <use id="reset" xlink:href="#resetDef" x="30" y="36" onmousedown="handleReset()"/>
                <g id="arrowUp" xlink:href="#dirArrow" transform="translate(30 24)" onmousedown="handlePan(0,-1)">
                  <use xlink:href="#rim" fill="#404040">
                        <set attributeName="fill" to="#808080" begin="arrowUp.mouseover" end="arrowUp.mouseout"/>
                  </use>
                  <path fill="none" stroke="white" stroke-width="1.5" d="M0,-3.0v7 M-2.5,-0.5L0,-3.0L2.5,-0.5"/>
                </g>
                <g id="arrowRight" xlink:href="#dirArrow" transform="rotate(90) translate(36 -43)" onmousedown="handlePan(1,0)">
                  <use xlink:href="#rim" fill="#404040">
                        <set attributeName="fill" to="#808080" begin="arrowRight.mouseover" end="arrowRight.mouseout"/>
                  </use>
                  <path fill="none" stroke="white" stroke-width="1.5" d="M0,-3.0v7 M-2.5,-0.5L0,-3.0L2.5,-0.5"/>
                </g>
                <g id="arrowDown" xlink:href="#dirArrow" transform="rotate(180) translate(-30 -48)" onmousedown="handlePan(0,1)">
                  <use xlink:href="#rim" fill="#404040">
                        <set attributeName="fill" to="#808080" begin="arrowDown.mouseover" end="arrowDown.mouseout"/>
                  </use>
                  <path fill="none" stroke="white" stroke-width="1.5" d="M0,-3.0v7 M-2.5,-0.5L0,-3.0L2.5,-0.5"/>
                </g>
                <g id="arrowLeft" xlink:href="#dirArrow" transform="rotate(270) translate(-36 17)" onmousedown="handlePan(-1,0)">
                  <use xlink:href="#rim" fill="#404040">
                        <set attributeName="fill" to="#808080" begin="arrowLeft.mouseover" end="arrowLeft.mouseout"/>
                  </use>
                  <path fill="none" stroke="white" stroke-width="1.5" d="M0,-3.0v7 M-2.5,-0.5L0,-3.0L2.5,-0.5"/>
                </g>
        </g>
        <svg viewBox="0 0 15 15" width="100%" height="30px" preserveAspectRatio="xMaxYMin meet">
         <g id="arrow_out" transform="scale(0.3 0.3)">
          <a xlink:href="parse_8h__incl_org.svg" target="_base">
           <rect id="button" ry="5" rx="5" y="6" x="6" height="38" width="38"
                fill="#f2f5e9" fill-opacity="0.5" stroke="#606060" stroke-width="1.0"/>
           <path id="arrow"
             d="M 11.500037,31.436501 C 11.940474,20.09759 22.043105,11.32322 32.158766,21.979434 L 37.068811,17.246167 C 37.068811,17.246167 37.088388,32 37.088388,32 L 22.160133,31.978069 C 22.160133,31.978069 26.997745,27.140456 26.997745,27.140456 C 18.528582,18.264221 13.291696,25.230495 11.500037,31.436501 z"
             style="fill:#404040;"/>
          </a>
         </g>
        </svg>
</svg>
