<?xml version="1.0" encoding="UTF-8" standalone="no"?>
<!DOCTYPE svg PUBLIC "-//W3C//DTD SVG 1.1//EN"
 "http://www.w3.org/Graphics/SVG/1.1/DTD/svg11.dtd">
<!-- Generated by graphviz version 2.43.0 (0)
 -->
<!-- Title: ft_parse_colour_block Pages: 1 -->
<svg width="712pt" height="218pt"
 viewBox="0.00 0.00 712.00 218.00" xmlns="http://www.w3.org/2000/svg" xmlns:xlink="http://www.w3.org/1999/xlink">
<g id="graph0" class="graph" transform="scale(1 1) rotate(0) translate(4 214)">
<title>ft_parse_colour_block</title>
<!-- Node1 -->
<g id="node1" class="node">
<title>Node1</title>
<g id="a_node1"><a xlink:title="Parses values of a rgb colour block.">
<polygon fill="#bfbfbf" stroke="black" points="582,-95.5 582,-114.5 704,-114.5 704,-95.5 582,-95.5"/>
<text text-anchor="middle" x="643" y="-102.5" font-family="Helvetica,sans-Serif" font-size="10.00">ft_parse_colour_block</text>
</a>
</g>
</g>
<!-- Node2 -->
<g id="node2" class="node">
<title>Node2</title>
<g id="a_node2"><a xlink:href="parse_8h.html#a43353d6bde35357648843c359e4d00a5" target="_top" xlink:title="Parse ambient light line.">
<polygon fill="none" stroke="black" points="309,-152.5 309,-171.5 410,-171.5 410,-152.5 309,-152.5"/>
<text text-anchor="middle" x="359.5" y="-159.5" font-family="Helvetica,sans-Serif" font-size="10.00">ft_parse_ambient</text>
</a>
</g>
</g>
<!-- Node1&#45;&gt;Node2 -->
<g id="edge1" class="edge">
<title>Node1&#45;&gt;Node2</title>
<path fill="none" stroke="midnightblue" d="M596.06,-117.17C580.25,-121.17 562.4,-125.5 546,-129 500.26,-138.77 447.74,-147.93 410.28,-154.1"/>
<polygon fill="midnightblue" stroke="midnightblue" points="597.3,-120.46 606.12,-114.59 595.57,-113.68 597.3,-120.46"/>
</g>
<!-- Node4 -->
<g id="node4" class="node">
<title>Node4</title>
<g id="a_node4"><a xlink:href="parse__bonus_8h.html#ae972e22d4e9386b05598736b617c2ff2" target="_top" xlink:title="Parse cone line.">
<polygon fill="none" stroke="black" points="454,-190.5 454,-209.5 538,-209.5 538,-190.5 454,-190.5"/>
<text text-anchor="middle" x="496" y="-197.5" font-family="Helvetica,sans-Serif" font-size="10.00">ft_parse_cone</text>
</a>
</g>
</g>
<!-- Node1&#45;&gt;Node4 -->
<g id="edge3" class="edge">
<title>Node1&#45;&gt;Node4</title>
<path fill="none" stroke="midnightblue" d="M622.5,-121.07C603.6,-136.23 573.8,-159.1 546,-176 537.42,-181.22 527.54,-186.23 518.92,-190.31"/>
<polygon fill="midnightblue" stroke="midnightblue" points="624.8,-123.71 630.36,-114.69 620.39,-118.27 624.8,-123.71"/>
</g>
<!-- Node9 -->
<g id="node9" class="node">
<title>Node9</title>
<g id="a_node9"><a xlink:href="parse_8h.html#aa8d46dc12737db49e568b734cdbc614a" target="_top" xlink:title="Parse cylinder line.">
<polygon fill="none" stroke="black" points="446,-0.5 446,-19.5 546,-19.5 546,-0.5 446,-0.5"/>
<text text-anchor="middle" x="496" y="-7.5" font-family="Helvetica,sans-Serif" font-size="10.00">ft_parse_cylinder</text>
</a>
</g>
</g>
<!-- Node1&#45;&gt;Node9 -->
<g id="edge8" class="edge">
<title>Node1&#45;&gt;Node9</title>
<path fill="none" stroke="midnightblue" d="M624.52,-88.48C606.13,-71.77 575.76,-46.03 546,-29 539.74,-25.42 532.68,-22.24 525.91,-19.55"/>
<polygon fill="midnightblue" stroke="midnightblue" points="622.37,-91.26 632.09,-95.47 627.11,-86.11 622.37,-91.26"/>
</g>
<!-- Node11 -->
<g id="node11" class="node">
<title>Node11</title>
<g id="a_node11"><a xlink:href="parse_8h.html#a4aae05e7a38646951b318a2de0b24689" target="_top" xlink:title="Parse light line.">
<polygon fill="none" stroke="black" points="318,-114.5 318,-133.5 401,-133.5 401,-114.5 318,-114.5"/>
<text text-anchor="middle" x="359.5" y="-121.5" font-family="Helvetica,sans-Serif" font-size="10.00">ft_parse_light</text>
</a>
</g>
</g>
<!-- Node1&#45;&gt;Node11 -->
<g id="edge11" class="edge">
<title>Node1&#45;&gt;Node11</title>
<path fill="none" stroke="midnightblue" d="M571.82,-109.74C518.12,-113.36 445.94,-118.23 401.36,-121.24"/>
<polygon fill="midnightblue" stroke="midnightblue" points="572.21,-113.22 581.96,-109.05 571.74,-106.23 572.21,-113.22"/>
</g>
<!-- Node12 -->
<g id="node12" class="node">
<title>Node12</title>
<g id="a_node12"><a xlink:href="parse_8h.html#a64877aac0d88b33e1bb87b3c9a3496dc" target="_top" xlink:title="Parse plane line.">
<polygon fill="none" stroke="black" points="452,-76.5 452,-95.5 540,-95.5 540,-76.5 452,-76.5"/>
<text text-anchor="middle" x="496" y="-83.5" font-family="Helvetica,sans-Serif" font-size="10.00">ft_parse_plane</text>
</a>
</g>
</g>
<!-- Node1&#45;&gt;Node12 -->
<g id="edge13" class="edge">
<title>Node1&#45;&gt;Node12</title>
<path fill="none" stroke="midnightblue" d="M571.84,-95.81C560.99,-94.38 550.06,-92.95 540.04,-91.64"/>
<polygon fill="midnightblue" stroke="midnightblue" points="571.4,-99.28 581.77,-97.11 572.31,-92.34 571.4,-99.28"/>
</g>
<!-- Node13 -->
<g id="node13" class="node">
<title>Node13</title>
<g id="a_node13"><a xlink:href="parse_8h.html#aa1379d0b3d46c0fd44da3298e17866cc" target="_top" xlink:title="Parse sphere line.">
<polygon fill="none" stroke="black" points="449,-38.5 449,-57.5 543,-57.5 543,-38.5 449,-38.5"/>
<text text-anchor="middle" x="496" y="-45.5" font-family="Helvetica,sans-Serif" font-size="10.00">ft_parse_sphere</text>
</a>
</g>
</g>
<!-- Node1&#45;&gt;Node13 -->
<g id="edge15" class="edge">
<title>Node1&#45;&gt;Node13</title>
<path fill="none" stroke="midnightblue" d="M608.53,-91.68C590.09,-84.37 566.8,-75.15 546,-67 538.1,-63.9 529.47,-60.55 521.69,-57.53"/>
<polygon fill="midnightblue" stroke="midnightblue" points="607.37,-94.99 617.95,-95.43 609.95,-88.48 607.37,-94.99"/>
</g>
<!-- Node3 -->
<g id="node3" class="node">
<title>Node3</title>
<g id="a_node3"><a xlink:href="parse_8h.html#a5da409b03d9f22daaa6d5673944800d3" target="_top" xlink:title="Dispatcher for different parsing functions.">
<polygon fill="none" stroke="black" points="189,-114.5 189,-133.5 273,-133.5 273,-114.5 189,-114.5"/>
<text text-anchor="middle" x="231" y="-121.5" font-family="Helvetica,sans-Serif" font-size="10.00">ft_parse_lines</text>
</a>
</g>
</g>
<!-- Node2&#45;&gt;Node3 -->
<g id="edge2" class="edge">
<title>Node2&#45;&gt;Node3</title>
<path fill="none" stroke="midnightblue" d="M316.77,-149.46C299.56,-144.3 279.94,-138.4 263.91,-133.59"/>
<polygon fill="midnightblue" stroke="midnightblue" points="315.99,-152.89 326.58,-152.41 318.01,-146.18 315.99,-152.89"/>
</g>
<!-- Node5 -->
<g id="node5" class="node">
<title>Node5</title>
<g id="a_node5"><a xlink:href="parse__bonus_8c.html#ad530c7e1381c551510afa73f881fb907" target="_top" xlink:title=" ">
<polygon fill="none" stroke="black" points="315,-190.5 315,-209.5 404,-209.5 404,-190.5 315,-190.5"/>
<text text-anchor="middle" x="359.5" y="-197.5" font-family="Helvetica,sans-Serif" font-size="10.00">ft_parse_entity</text>
</a>
</g>
</g>
<!-- Node4&#45;&gt;Node5 -->
<g id="edge4" class="edge">
<title>Node4&#45;&gt;Node5</title>
<path fill="none" stroke="midnightblue" d="M443.68,-200C430.64,-200 416.75,-200 404.13,-200"/>
<polygon fill="midnightblue" stroke="midnightblue" points="443.91,-203.5 453.91,-200 443.91,-196.5 443.91,-203.5"/>
</g>
<!-- Node6 -->
<g id="node6" class="node">
<title>Node6</title>
<g id="a_node6"><a xlink:href="parse__bonus_8c.html#a5da409b03d9f22daaa6d5673944800d3" target="_top" xlink:title="Dispatcher for different parsing functions.">
<polygon fill="none" stroke="black" points="189,-190.5 189,-209.5 273,-209.5 273,-190.5 189,-190.5"/>
<text text-anchor="middle" x="231" y="-197.5" font-family="Helvetica,sans-Serif" font-size="10.00">ft_parse_lines</text>
</a>
</g>
</g>
<!-- Node5&#45;&gt;Node6 -->
<g id="edge5" class="edge">
<title>Node5&#45;&gt;Node6</title>
<path fill="none" stroke="midnightblue" d="M304.9,-200C294.25,-200 283.21,-200 273.06,-200"/>
<polygon fill="midnightblue" stroke="midnightblue" points="304.97,-203.5 314.97,-200 304.97,-196.5 304.97,-203.5"/>
</g>
<!-- Node7 -->
<g id="node7" class="node">
<title>Node7</title>
<g id="a_node7"><a xlink:href="parse__bonus_8c.html#ac08e53c371b438bc37757b81d0df11b8" target="_top" xlink:title="Imports, checks, and parses the provided file.">
<polygon fill="none" stroke="black" points="77,-190.5 77,-209.5 153,-209.5 153,-190.5 77,-190.5"/>
<text text-anchor="middle" x="115" y="-197.5" font-family="Helvetica,sans-Serif" font-size="10.00">ft_parse_file</text>
</a>
</g>
</g>
<!-- Node6&#45;&gt;Node7 -->
<g id="edge6" class="edge">
<title>Node6&#45;&gt;Node7</title>
<path fill="none" stroke="midnightblue" d="M178.59,-200C170.07,-200 161.39,-200 153.31,-200"/>
<polygon fill="midnightblue" stroke="midnightblue" points="178.84,-203.5 188.84,-200 178.84,-196.5 178.84,-203.5"/>
</g>
<!-- Node8 -->
<g id="node8" class="node">
<title>Node8</title>
<g id="a_node8"><a xlink:href="main_8c.html#a3c04138a5bfe5d72780bb7e82a18e627" target="_top" xlink:title=" ">
<polygon fill="none" stroke="black" points="0,-190.5 0,-209.5 41,-209.5 41,-190.5 0,-190.5"/>
<text text-anchor="middle" x="20.5" y="-197.5" font-family="Helvetica,sans-Serif" font-size="10.00">main</text>
</a>
</g>
</g>
<!-- Node7&#45;&gt;Node8 -->
<g id="edge7" class="edge">
<title>Node7&#45;&gt;Node8</title>
<path fill="none" stroke="midnightblue" d="M66.72,-200C57.65,-200 48.64,-200 41.07,-200"/>
<polygon fill="midnightblue" stroke="midnightblue" points="66.91,-203.5 76.91,-200 66.91,-196.5 66.91,-203.5"/>
</g>
<!-- Node10 -->
<g id="node10" class="node">
<title>Node10</title>
<g id="a_node10"><a xlink:href="parse_8c.html#ad530c7e1381c551510afa73f881fb907" target="_top" xlink:title=" ">
<polygon fill="none" stroke="black" points="315,-57.5 315,-76.5 404,-76.5 404,-57.5 315,-57.5"/>
<text text-anchor="middle" x="359.5" y="-64.5" font-family="Helvetica,sans-Serif" font-size="10.00">ft_parse_entity</text>
</a>
</g>
</g>
<!-- Node9&#45;&gt;Node10 -->
<g id="edge9" class="edge">
<title>Node9&#45;&gt;Node10</title>
<path fill="none" stroke="midnightblue" d="M460.13,-23.28C455.37,-25.17 450.55,-27.11 446,-29 423.8,-38.23 398.69,-49.49 381.46,-57.35"/>
<polygon fill="midnightblue" stroke="midnightblue" points="461.69,-26.43 469.73,-19.53 459.14,-19.91 461.69,-26.43"/>
</g>
<!-- Node10&#45;&gt;Node3 -->
<g id="edge10" class="edge">
<title>Node10&#45;&gt;Node3</title>
<path fill="none" stroke="midnightblue" d="M327.97,-80.76C304.86,-91.17 273.7,-105.21 253.24,-114.43"/>
<polygon fill="midnightblue" stroke="midnightblue" points="329.65,-83.84 337.33,-76.54 326.77,-77.46 329.65,-83.84"/>
</g>
<!-- Node11&#45;&gt;Node3 -->
<g id="edge12" class="edge">
<title>Node11&#45;&gt;Node3</title>
<path fill="none" stroke="midnightblue" d="M307.48,-124C296.04,-124 284.05,-124 273.08,-124"/>
<polygon fill="midnightblue" stroke="midnightblue" points="307.78,-127.5 317.78,-124 307.78,-120.5 307.78,-127.5"/>
</g>
<!-- Node12&#45;&gt;Node10 -->
<g id="edge14" class="edge">
<title>Node12&#45;&gt;Node10</title>
<path fill="none" stroke="midnightblue" d="M441.49,-78.44C429.11,-76.69 416.08,-74.85 404.18,-73.17"/>
<polygon fill="midnightblue" stroke="midnightblue" points="441.31,-81.95 451.7,-79.88 442.29,-75.02 441.31,-81.95"/>
</g>
<!-- Node13&#45;&gt;Node10 -->
<g id="edge16" class="edge">
<title>Node13&#45;&gt;Node10</title>
<path fill="none" stroke="midnightblue" d="M438.71,-55.95C427.17,-57.58 415.18,-59.28 404.15,-60.83"/>
<polygon fill="midnightblue" stroke="midnightblue" points="439.3,-59.4 448.71,-54.54 438.32,-52.47 439.3,-59.4"/>
</g>
</g>
</svg>
