<?xml version="1.0" encoding="UTF-8" standalone="no"?>
<!DOCTYPE svg PUBLIC "-//W3C//DTD SVG 1.1//EN"
 "http://www.w3.org/Graphics/SVG/1.1/DTD/svg11.dtd">
<!-- Generated by graphviz version 2.43.0 (0)
 -->
<!-- Title: ft_parse_lines_bonus Pages: 1 -->
<svg width="827pt" height="313pt"
 viewBox="0.00 0.00 827.00 313.00" xmlns="http://www.w3.org/2000/svg" xmlns:xlink="http://www.w3.org/1999/xlink">
<g id="graph0" class="graph" transform="scale(1 1) rotate(0) translate(4 309)">
<title>ft_parse_lines_bonus</title>
<!-- Node1 -->
<g id="node1" class="node">
<title>Node1</title>
<g id="a_node1"><a xlink:title="Dispatcher for different parsing functions.">
<polygon fill="#bfbfbf" stroke="black" points="0,-228.5 0,-247.5 119,-247.5 119,-228.5 0,-228.5"/>
<text text-anchor="middle" x="59.5" y="-235.5" font-family="Helvetica,sans-Serif" font-size="10.00">ft_parse_lines_bonus</text>
</a>
</g>
</g>
<!-- Node2 -->
<g id="node2" class="node">
<title>Node2</title>
<g id="a_node2"><a xlink:href="parse_8h.html#a43353d6bde35357648843c359e4d00a5" target="_top" xlink:title="Parse ambient light line.">
<polygon fill="none" stroke="black" points="331.5,-247.5 331.5,-266.5 432.5,-266.5 432.5,-247.5 331.5,-247.5"/>
<text text-anchor="middle" x="382" y="-254.5" font-family="Helvetica,sans-Serif" font-size="10.00">ft_parse_ambient</text>
</a>
</g>
</g>
<!-- Node1&#45;&gt;Node2 -->
<g id="edge1" class="edge">
<title>Node1&#45;&gt;Node2</title>
<path fill="none" stroke="midnightblue" d="M119.28,-241.48C176.65,-244.89 263.49,-250.03 321.2,-253.45"/>
<polygon fill="midnightblue" stroke="midnightblue" points="321.08,-256.95 331.27,-254.05 321.49,-249.97 321.08,-256.95"/>
</g>
<!-- Node6 -->
<g id="node6" class="node">
<title>Node6</title>
<g id="a_node6"><a xlink:href="parse_8h.html#a39197067937cd8880453eed92148ee31" target="_top" xlink:title="Parse camera line.">
<polygon fill="none" stroke="black" points="333,-285.5 333,-304.5 431,-304.5 431,-285.5 333,-285.5"/>
<text text-anchor="middle" x="382" y="-292.5" font-family="Helvetica,sans-Serif" font-size="10.00">ft_parse_camera</text>
</a>
</g>
</g>
<!-- Node1&#45;&gt;Node6 -->
<g id="edge6" class="edge">
<title>Node1&#45;&gt;Node6</title>
<path fill="none" stroke="midnightblue" d="M94.42,-247.52C112.34,-252.32 134.75,-257.96 155,-262 211.58,-273.28 276.85,-282.4 322.65,-288.17"/>
<polygon fill="midnightblue" stroke="midnightblue" points="322.34,-291.66 332.7,-289.42 323.21,-284.71 322.34,-291.66"/>
</g>
<!-- Node10 -->
<g id="node10" class="node">
<title>Node10</title>
<g id="a_node10"><a xlink:href="parse__bonus_8c.html#a65db4c46c2af2d9b570687b3a1458f15" target="_top" xlink:title=" ">
<polygon fill="none" stroke="black" points="155,-133.5 155,-152.5 279,-152.5 279,-133.5 155,-133.5"/>
<text text-anchor="middle" x="217" y="-140.5" font-family="Helvetica,sans-Serif" font-size="10.00">ft_parse_entity_bonus</text>
</a>
</g>
</g>
<!-- Node1&#45;&gt;Node10 -->
<g id="edge12" class="edge">
<title>Node1&#45;&gt;Node10</title>
<path fill="none" stroke="midnightblue" d="M76.27,-228.37C103.39,-211.8 159.08,-177.77 191.37,-158.05"/>
<polygon fill="midnightblue" stroke="midnightblue" points="193.48,-160.86 200.19,-152.66 189.83,-154.88 193.48,-160.86"/>
</g>
<!-- Node20 -->
<g id="node20" class="node">
<title>Node20</title>
<g id="a_node20"><a xlink:href="parse_8h.html#a4aae05e7a38646951b318a2de0b24689" target="_top" xlink:title="Parse light line.">
<polygon fill="none" stroke="black" points="340.5,-209.5 340.5,-228.5 423.5,-228.5 423.5,-209.5 340.5,-209.5"/>
<text text-anchor="middle" x="382" y="-216.5" font-family="Helvetica,sans-Serif" font-size="10.00">ft_parse_light</text>
</a>
</g>
</g>
<!-- Node1&#45;&gt;Node20 -->
<g id="edge39" class="edge">
<title>Node1&#45;&gt;Node20</title>
<path fill="none" stroke="midnightblue" d="M119.28,-234.52C179.68,-230.93 272.74,-225.42 330.09,-222.02"/>
<polygon fill="midnightblue" stroke="midnightblue" points="330.59,-225.49 340.36,-221.41 330.17,-218.51 330.59,-225.49"/>
</g>
<!-- Node3 -->
<g id="node3" class="node">
<title>Node3</title>
<g id="a_node3"><a xlink:href="parse_8h.html#a2bb654728a666a68ad6b6627cd27e918" target="_top" xlink:title="Parses values of a rgb colour block.">
<polygon fill="none" stroke="black" points="485,-133.5 485,-152.5 607,-152.5 607,-133.5 485,-133.5"/>
<text text-anchor="middle" x="546" y="-140.5" font-family="Helvetica,sans-Serif" font-size="10.00">ft_parse_colour_block</text>
</a>
</g>
</g>
<!-- Node2&#45;&gt;Node3 -->
<g id="edge2" class="edge">
<title>Node2&#45;&gt;Node3</title>
<path fill="none" stroke="midnightblue" d="M432.6,-247.83C438.53,-245.3 444.18,-242.09 449,-238 477.48,-213.8 456.84,-186.58 485,-162 486.94,-160.3 489.04,-158.76 491.25,-157.35"/>
<polygon fill="midnightblue" stroke="midnightblue" points="493.01,-160.37 500.19,-152.57 489.72,-154.2 493.01,-160.37"/>
</g>
<!-- Node5 -->
<g id="node5" class="node">
<title>Node5</title>
<g id="a_node5"><a xlink:href="parse_8h.html#a4df2d6a5cd30a4f3ca3a1283c7afaafa" target="_top" xlink:title="Parse a single float.">
<polygon fill="none" stroke="black" points="504.5,-209.5 504.5,-228.5 587.5,-228.5 587.5,-209.5 504.5,-209.5"/>
<text text-anchor="middle" x="546" y="-216.5" font-family="Helvetica,sans-Serif" font-size="10.00">ft_parse_float</text>
</a>
</g>
</g>
<!-- Node2&#45;&gt;Node5 -->
<g id="edge4" class="edge">
<title>Node2&#45;&gt;Node5</title>
<path fill="none" stroke="midnightblue" d="M423.88,-247.41C445.35,-242.37 471.86,-236.16 494.6,-230.82"/>
<polygon fill="midnightblue" stroke="midnightblue" points="495.48,-234.21 504.41,-228.52 493.88,-227.4 495.48,-234.21"/>
</g>
<!-- Node4 -->
<g id="node4" class="node">
<title>Node4</title>
<g id="a_node4"><a xlink:href="ft__strtod_8h.html#a0a1cbf0fef2bdcf6fde79c34014bc10e" target="_top" xlink:title="Converts a String to a double.">
<polygon fill="none" stroke="black" points="762,-171.5 762,-190.5 819,-190.5 819,-171.5 762,-171.5"/>
<text text-anchor="middle" x="790.5" y="-178.5" font-family="Helvetica,sans-Serif" font-size="10.00">ft_strtod</text>
</a>
</g>
</g>
<!-- Node3&#45;&gt;Node4 -->
<g id="edge3" class="edge">
<title>Node3&#45;&gt;Node4</title>
<path fill="none" stroke="midnightblue" d="M607.09,-146.59C642.03,-149.37 686.78,-154.12 726,-162 734.6,-163.73 743.7,-166.11 752.25,-168.6"/>
<polygon fill="midnightblue" stroke="midnightblue" points="751.38,-172 761.96,-171.55 753.41,-165.3 751.38,-172"/>
</g>
<!-- Node5&#45;&gt;Node4 -->
<g id="edge5" class="edge">
<title>Node5&#45;&gt;Node4</title>
<path fill="none" stroke="midnightblue" d="M587.85,-216.82C624.34,-214.36 679.12,-209.42 726,-200 734.6,-198.27 743.7,-195.89 752.25,-193.4"/>
<polygon fill="midnightblue" stroke="midnightblue" points="753.41,-196.7 761.96,-190.45 751.38,-190 753.41,-196.7"/>
</g>
<!-- Node6&#45;&gt;Node5 -->
<g id="edge8" class="edge">
<title>Node6&#45;&gt;Node5</title>
<path fill="none" stroke="midnightblue" d="M422.32,-285.47C431.24,-282.81 440.57,-279.64 449,-276 475.6,-264.5 503.88,-246.99 522.8,-234.41"/>
<polygon fill="midnightblue" stroke="midnightblue" points="524.96,-237.17 531.29,-228.68 521.04,-231.37 524.96,-237.17"/>
</g>
<!-- Node7 -->
<g id="node7" class="node">
<title>Node7</title>
<g id="a_node7"><a xlink:href="utils_8h.html#a7d1328722f9dc6edd652f7c732856ae9" target="_top" xlink:title="Transforms degrees into radian.">
<polygon fill="none" stroke="black" points="489.5,-285.5 489.5,-304.5 602.5,-304.5 602.5,-285.5 489.5,-285.5"/>
<text text-anchor="middle" x="546" y="-292.5" font-family="Helvetica,sans-Serif" font-size="10.00">ft_degree_to_radian</text>
</a>
</g>
</g>
<!-- Node6&#45;&gt;Node7 -->
<g id="edge7" class="edge">
<title>Node6&#45;&gt;Node7</title>
<path fill="none" stroke="midnightblue" d="M431.17,-295C446.16,-295 462.97,-295 478.96,-295"/>
<polygon fill="midnightblue" stroke="midnightblue" points="479.33,-298.5 489.33,-295 479.33,-291.5 479.33,-298.5"/>
</g>
<!-- Node8 -->
<g id="node8" class="node">
<title>Node8</title>
<g id="a_node8"><a xlink:href="parse_8h.html#ad1918f45b6a322a21c3541825b405eb6" target="_top" xlink:title="Parse values of a float block.">
<polygon fill="none" stroke="black" points="489,-171.5 489,-190.5 603,-190.5 603,-171.5 489,-171.5"/>
<text text-anchor="middle" x="546" y="-178.5" font-family="Helvetica,sans-Serif" font-size="10.00">ft_parse_float_block</text>
</a>
</g>
</g>
<!-- Node6&#45;&gt;Node8 -->
<g id="edge9" class="edge">
<title>Node6&#45;&gt;Node8</title>
<path fill="none" stroke="midnightblue" d="M431.25,-286.38C437.68,-283.78 443.82,-280.4 449,-276 477.48,-251.8 456.84,-224.58 485,-200 486.94,-198.3 489.04,-196.76 491.25,-195.35"/>
<polygon fill="midnightblue" stroke="midnightblue" points="493.01,-198.37 500.19,-190.57 489.72,-192.2 493.01,-198.37"/>
</g>
<!-- Node9 -->
<g id="node9" class="node">
<title>Node9</title>
<g id="a_node9"><a xlink:href="parse__line_8c.html#a4df2d6a5cd30a4f3ca3a1283c7afaafa" target="_top" xlink:title="Parse a single float.">
<polygon fill="none" stroke="black" points="643,-171.5 643,-190.5 726,-190.5 726,-171.5 643,-171.5"/>
<text text-anchor="middle" x="684.5" y="-178.5" font-family="Helvetica,sans-Serif" font-size="10.00">ft_parse_float</text>
</a>
</g>
</g>
<!-- Node8&#45;&gt;Node9 -->
<g id="edge10" class="edge">
<title>Node8&#45;&gt;Node9</title>
<path fill="none" stroke="midnightblue" d="M603.31,-181C613.02,-181 623.06,-181 632.61,-181"/>
<polygon fill="midnightblue" stroke="midnightblue" points="632.75,-184.5 642.75,-181 632.75,-177.5 632.75,-184.5"/>
</g>
<!-- Node9&#45;&gt;Node4 -->
<g id="edge11" class="edge">
<title>Node9&#45;&gt;Node4</title>
<path fill="none" stroke="midnightblue" d="M726.01,-181C734.43,-181 743.27,-181 751.6,-181"/>
<polygon fill="midnightblue" stroke="midnightblue" points="751.79,-184.5 761.79,-181 751.79,-177.5 751.79,-184.5"/>
</g>
<!-- Node11 -->
<g id="node11" class="node">
<title>Node11</title>
<g id="a_node11"><a xlink:href="parse__bonus_8h.html#a0ee220aca489e16d423c754b9d88e2dd" target="_top" xlink:title="Parse cone line.">
<polygon fill="none" stroke="black" points="322.5,-57.5 322.5,-76.5 441.5,-76.5 441.5,-57.5 322.5,-57.5"/>
<text text-anchor="middle" x="382" y="-64.5" font-family="Helvetica,sans-Serif" font-size="10.00">ft_parse_cone_bonus</text>
</a>
</g>
</g>
<!-- Node10&#45;&gt;Node11 -->
<g id="edge13" class="edge">
<title>Node10&#45;&gt;Node11</title>
<path fill="none" stroke="midnightblue" d="M231.87,-133.33C250.18,-120.93 283.77,-99.42 315,-86 320.4,-83.68 326.18,-81.55 331.97,-79.62"/>
<polygon fill="midnightblue" stroke="midnightblue" points="333.2,-82.9 341.69,-76.56 331.1,-76.22 333.2,-82.9"/>
</g>
<!-- Node16 -->
<g id="node16" class="node">
<title>Node16</title>
<g id="a_node16"><a xlink:href="parse__bonus_8h.html#a30041bb98ced6caf1debb5468bfb6ad4" target="_top" xlink:title="Parse cylinder line.">
<polygon fill="none" stroke="black" points="315,-95.5 315,-114.5 449,-114.5 449,-95.5 315,-95.5"/>
<text text-anchor="middle" x="382" y="-102.5" font-family="Helvetica,sans-Serif" font-size="10.00">ft_parse_cylinder_bonus</text>
</a>
</g>
</g>
<!-- Node10&#45;&gt;Node16 -->
<g id="edge22" class="edge">
<title>Node10&#45;&gt;Node16</title>
<path fill="none" stroke="midnightblue" d="M259.13,-133.41C280.74,-128.37 307.41,-122.16 330.29,-116.82"/>
<polygon fill="midnightblue" stroke="midnightblue" points="331.22,-120.2 340.16,-114.52 329.63,-113.38 331.22,-120.2"/>
</g>
<!-- Node18 -->
<g id="node18" class="node">
<title>Node18</title>
<g id="a_node18"><a xlink:href="parse__bonus_8h.html#a672a980c7d877d0d42971cd811541bd4" target="_top" xlink:title="Parse plane line.">
<polygon fill="none" stroke="black" points="321,-133.5 321,-152.5 443,-152.5 443,-133.5 321,-133.5"/>
<text text-anchor="middle" x="382" y="-140.5" font-family="Helvetica,sans-Serif" font-size="10.00">ft_parse_plane_bonus</text>
</a>
</g>
</g>
<!-- Node10&#45;&gt;Node18 -->
<g id="edge30" class="edge">
<title>Node10&#45;&gt;Node18</title>
<path fill="none" stroke="midnightblue" d="M279.16,-143C289.5,-143 300.3,-143 310.84,-143"/>
<polygon fill="midnightblue" stroke="midnightblue" points="310.85,-146.5 320.85,-143 310.85,-139.5 310.85,-146.5"/>
</g>
<!-- Node19 -->
<g id="node19" class="node">
<title>Node19</title>
<g id="a_node19"><a xlink:href="parse__bonus_8h.html#a756cf4a5c0b85e0c22b8fd64423850ec" target="_top" xlink:title="Parse sphere line.">
<polygon fill="none" stroke="black" points="318,-171.5 318,-190.5 446,-190.5 446,-171.5 318,-171.5"/>
<text text-anchor="middle" x="382" y="-178.5" font-family="Helvetica,sans-Serif" font-size="10.00">ft_parse_sphere_bonus</text>
</a>
</g>
</g>
<!-- Node10&#45;&gt;Node19 -->
<g id="edge35" class="edge">
<title>Node10&#45;&gt;Node19</title>
<path fill="none" stroke="midnightblue" d="M259.13,-152.59C280.74,-157.63 307.41,-163.84 330.29,-169.18"/>
<polygon fill="midnightblue" stroke="midnightblue" points="329.63,-172.62 340.16,-171.48 331.22,-165.8 329.63,-172.62"/>
</g>
<!-- Node11&#45;&gt;Node3 -->
<g id="edge14" class="edge">
<title>Node11&#45;&gt;Node3</title>
<path fill="none" stroke="midnightblue" d="M428.38,-76.58C435.56,-79.06 442.68,-82.16 449,-86 468.88,-98.09 465.28,-111.65 485,-124 488.34,-126.09 491.93,-127.97 495.64,-129.66"/>
<polygon fill="midnightblue" stroke="midnightblue" points="494.43,-132.94 505.01,-133.46 497.06,-126.46 494.43,-132.94"/>
</g>
<!-- Node11&#45;&gt;Node5 -->
<g id="edge15" class="edge">
<title>Node11&#45;&gt;Node5</title>
<path fill="none" stroke="midnightblue" d="M435.44,-76.65C440.43,-79.11 445.07,-82.17 449,-86 487.05,-123.09 447.44,-162.41 485,-200 488,-203 491.47,-205.53 495.19,-207.66"/>
<polygon fill="midnightblue" stroke="midnightblue" points="493.72,-210.83 504.26,-211.93 496.71,-204.5 493.72,-210.83"/>
</g>
<!-- Node11&#45;&gt;Node8 -->
<g id="edge16" class="edge">
<title>Node11&#45;&gt;Node8</title>
<path fill="none" stroke="midnightblue" d="M433.61,-76.61C439.17,-79.06 444.46,-82.14 449,-86 477.48,-110.2 456.84,-137.42 485,-162 486.94,-163.7 489.04,-165.24 491.25,-166.65"/>
<polygon fill="midnightblue" stroke="midnightblue" points="489.72,-169.8 500.19,-171.43 493.01,-163.63 489.72,-169.8"/>
</g>
<!-- Node12 -->
<g id="node12" class="node">
<title>Node12</title>
<g id="a_node12"><a xlink:href="vec3_8h.html#a73e2caf4c2a51ed954b7349c6be2b3c3" target="_top" xlink:title="Add two vectors.">
<polygon fill="none" stroke="black" points="647,-0.5 647,-19.5 722,-19.5 722,-0.5 647,-0.5"/>
<text text-anchor="middle" x="684.5" y="-7.5" font-family="Helvetica,sans-Serif" font-size="10.00">ft_vec3_add</text>
</a>
</g>
</g>
<!-- Node11&#45;&gt;Node12 -->
<g id="edge17" class="edge">
<title>Node11&#45;&gt;Node12</title>
<path fill="none" stroke="midnightblue" d="M415.4,-57.46C435.34,-51.83 461.5,-44.87 485,-40 536.49,-29.33 596.23,-20.82 636.61,-15.62"/>
<polygon fill="midnightblue" stroke="midnightblue" points="637.22,-19.07 646.7,-14.34 636.34,-12.13 637.22,-19.07"/>
</g>
<!-- Node13 -->
<g id="node13" class="node">
<title>Node13</title>
<g id="a_node13"><a xlink:href="vec3_8h.html#a38fe500bd27847b866b9630146e43250" target="_top" xlink:title="Normalise a vector.">
<polygon fill="none" stroke="black" points="504.5,-95.5 504.5,-114.5 587.5,-114.5 587.5,-95.5 504.5,-95.5"/>
<text text-anchor="middle" x="546" y="-102.5" font-family="Helvetica,sans-Serif" font-size="10.00">ft_vec3_norm</text>
</a>
</g>
</g>
<!-- Node11&#45;&gt;Node13 -->
<g id="edge18" class="edge">
<title>Node11&#45;&gt;Node13</title>
<path fill="none" stroke="midnightblue" d="M423.88,-76.59C445.35,-81.63 471.86,-87.84 494.6,-93.18"/>
<polygon fill="midnightblue" stroke="midnightblue" points="493.88,-96.6 504.41,-95.48 495.48,-89.79 493.88,-96.6"/>
</g>
<!-- Node15 -->
<g id="node15" class="node">
<title>Node15</title>
<g id="a_node15"><a xlink:href="vec3_8h.html#ac80a1c20941c96a8fafad255dac59092" target="_top" xlink:title="Scale a vector.">
<polygon fill="none" stroke="black" points="643,-57.5 643,-76.5 726,-76.5 726,-57.5 643,-57.5"/>
<text text-anchor="middle" x="684.5" y="-64.5" font-family="Helvetica,sans-Serif" font-size="10.00">ft_vec3_scale</text>
</a>
</g>
</g>
<!-- Node11&#45;&gt;Node15 -->
<g id="edge21" class="edge">
<title>Node11&#45;&gt;Node15</title>
<path fill="none" stroke="midnightblue" d="M424.44,-57.49C442.88,-53.72 464.91,-49.86 485,-48 538.99,-43.01 553.18,-41.42 607,-48 618.77,-49.44 631.33,-52.08 642.8,-54.94"/>
<polygon fill="midnightblue" stroke="midnightblue" points="642,-58.35 652.56,-57.49 643.77,-51.58 642,-58.35"/>
</g>
<!-- Node14 -->
<g id="node14" class="node">
<title>Node14</title>
<g id="a_node14"><a xlink:href="vec3__linalgebra_8c.html#aa84621bd979d3b12b97908f653faf88e" target="_top" xlink:title="Calculate the absolute value of a vector.">
<polygon fill="none" stroke="black" points="647.5,-95.5 647.5,-114.5 721.5,-114.5 721.5,-95.5 647.5,-95.5"/>
<text text-anchor="middle" x="684.5" y="-102.5" font-family="Helvetica,sans-Serif" font-size="10.00">ft_vec3_abs</text>
</a>
</g>
</g>
<!-- Node13&#45;&gt;Node14 -->
<g id="edge19" class="edge">
<title>Node13&#45;&gt;Node14</title>
<path fill="none" stroke="midnightblue" d="M587.58,-105C603.19,-105 621.11,-105 637.21,-105"/>
<polygon fill="midnightblue" stroke="midnightblue" points="637.48,-108.5 647.48,-105 637.48,-101.5 637.48,-108.5"/>
</g>
<!-- Node13&#45;&gt;Node15 -->
<g id="edge20" class="edge">
<title>Node13&#45;&gt;Node15</title>
<path fill="none" stroke="midnightblue" d="M581.44,-95.41C598.98,-90.53 620.51,-84.54 639.26,-79.32"/>
<polygon fill="midnightblue" stroke="midnightblue" points="640.37,-82.64 649.07,-76.59 638.49,-75.9 640.37,-82.64"/>
</g>
<!-- Node16&#45;&gt;Node3 -->
<g id="edge26" class="edge">
<title>Node16&#45;&gt;Node3</title>
<path fill="none" stroke="midnightblue" d="M423.88,-114.59C445.35,-119.63 471.86,-125.84 494.6,-131.18"/>
<polygon fill="midnightblue" stroke="midnightblue" points="493.88,-134.6 504.41,-133.48 495.48,-127.79 493.88,-134.6"/>
</g>
<!-- Node16&#45;&gt;Node5 -->
<g id="edge27" class="edge">
<title>Node16&#45;&gt;Node5</title>
<path fill="none" stroke="midnightblue" d="M433.61,-114.61C439.17,-117.06 444.46,-120.14 449,-124 477.48,-148.2 456.84,-175.42 485,-200 488.02,-202.63 491.4,-204.9 494.98,-206.85"/>
<polygon fill="midnightblue" stroke="midnightblue" points="493.65,-210.1 504.2,-211.09 496.57,-203.74 493.65,-210.1"/>
</g>
<!-- Node16&#45;&gt;Node8 -->
<g id="edge28" class="edge">
<title>Node16&#45;&gt;Node8</title>
<path fill="none" stroke="midnightblue" d="M428.38,-114.58C435.56,-117.06 442.68,-120.16 449,-124 468.88,-136.09 465.28,-149.65 485,-162 488.34,-164.09 491.93,-165.97 495.64,-167.66"/>
<polygon fill="midnightblue" stroke="midnightblue" points="494.43,-170.94 505.01,-171.46 497.06,-164.46 494.43,-170.94"/>
</g>
<!-- Node16&#45;&gt;Node13 -->
<g id="edge29" class="edge">
<title>Node16&#45;&gt;Node13</title>
<path fill="none" stroke="midnightblue" d="M449.36,-105C464.27,-105 479.86,-105 494.02,-105"/>
<polygon fill="midnightblue" stroke="midnightblue" points="494.05,-108.5 504.05,-105 494.05,-101.5 494.05,-108.5"/>
</g>
<!-- Node17 -->
<g id="node17" class="node">
<title>Node17</title>
<g id="a_node17"><a xlink:href="entities_8h.html#a04247c619f2a14a5a1fdb06004b8cb03" target="_top" xlink:title="Calculates the planes of the caps of a cylinder.">
<polygon fill="none" stroke="black" points="500,-57.5 500,-76.5 592,-76.5 592,-57.5 500,-57.5"/>
<text text-anchor="middle" x="546" y="-64.5" font-family="Helvetica,sans-Serif" font-size="10.00">ft_cy_calc_caps</text>
</a>
</g>
</g>
<!-- Node16&#45;&gt;Node17 -->
<g id="edge23" class="edge">
<title>Node16&#45;&gt;Node17</title>
<path fill="none" stroke="midnightblue" d="M423.88,-95.41C445.35,-90.37 471.86,-84.16 494.6,-78.82"/>
<polygon fill="midnightblue" stroke="midnightblue" points="495.48,-82.21 504.41,-76.52 493.88,-75.4 495.48,-82.21"/>
</g>
<!-- Node17&#45;&gt;Node12 -->
<g id="edge24" class="edge">
<title>Node17&#45;&gt;Node12</title>
<path fill="none" stroke="midnightblue" d="M569.85,-57.46C592.09,-48.17 626.11,-33.96 651.14,-23.51"/>
<polygon fill="midnightblue" stroke="midnightblue" points="652.7,-26.65 660.58,-19.57 650,-20.2 652.7,-26.65"/>
</g>
<!-- Node17&#45;&gt;Node15 -->
<g id="edge25" class="edge">
<title>Node17&#45;&gt;Node15</title>
<path fill="none" stroke="midnightblue" d="M592.07,-67C604.94,-67 619.06,-67 632.26,-67"/>
<polygon fill="midnightblue" stroke="midnightblue" points="632.62,-70.5 642.62,-67 632.62,-63.5 632.62,-70.5"/>
</g>
<!-- Node18&#45;&gt;Node3 -->
<g id="edge31" class="edge">
<title>Node18&#45;&gt;Node3</title>
<path fill="none" stroke="midnightblue" d="M443.32,-143C453.51,-143 464.17,-143 474.58,-143"/>
<polygon fill="midnightblue" stroke="midnightblue" points="474.9,-146.5 484.9,-143 474.9,-139.5 474.9,-146.5"/>
</g>
<!-- Node18&#45;&gt;Node5 -->
<g id="edge32" class="edge">
<title>Node18&#45;&gt;Node5</title>
<path fill="none" stroke="midnightblue" d="M428.38,-152.58C435.56,-155.06 442.68,-158.16 449,-162 468.88,-174.09 465.28,-187.65 485,-200 488.34,-202.09 491.93,-203.97 495.64,-205.66"/>
<polygon fill="midnightblue" stroke="midnightblue" points="494.43,-208.94 505.01,-209.46 497.06,-202.46 494.43,-208.94"/>
</g>
<!-- Node18&#45;&gt;Node8 -->
<g id="edge33" class="edge">
<title>Node18&#45;&gt;Node8</title>
<path fill="none" stroke="midnightblue" d="M423.88,-152.59C445.35,-157.63 471.86,-163.84 494.6,-169.18"/>
<polygon fill="midnightblue" stroke="midnightblue" points="493.88,-172.6 504.41,-171.48 495.48,-165.79 493.88,-172.6"/>
</g>
<!-- Node18&#45;&gt;Node13 -->
<g id="edge34" class="edge">
<title>Node18&#45;&gt;Node13</title>
<path fill="none" stroke="midnightblue" d="M423.88,-133.41C445.35,-128.37 471.86,-122.16 494.6,-116.82"/>
<polygon fill="midnightblue" stroke="midnightblue" points="495.48,-120.21 504.41,-114.52 493.88,-113.4 495.48,-120.21"/>
</g>
<!-- Node19&#45;&gt;Node3 -->
<g id="edge36" class="edge">
<title>Node19&#45;&gt;Node3</title>
<path fill="none" stroke="midnightblue" d="M423.88,-171.41C445.35,-166.37 471.86,-160.16 494.6,-154.82"/>
<polygon fill="midnightblue" stroke="midnightblue" points="495.48,-158.21 504.41,-152.52 493.88,-151.4 495.48,-158.21"/>
</g>
<!-- Node19&#45;&gt;Node5 -->
<g id="edge37" class="edge">
<title>Node19&#45;&gt;Node5</title>
<path fill="none" stroke="midnightblue" d="M423.88,-190.59C445.35,-195.63 471.86,-201.84 494.6,-207.18"/>
<polygon fill="midnightblue" stroke="midnightblue" points="493.88,-210.6 504.41,-209.48 495.48,-203.79 493.88,-210.6"/>
</g>
<!-- Node19&#45;&gt;Node8 -->
<g id="edge38" class="edge">
<title>Node19&#45;&gt;Node8</title>
<path fill="none" stroke="midnightblue" d="M446.1,-181C456.8,-181 467.95,-181 478.73,-181"/>
<polygon fill="midnightblue" stroke="midnightblue" points="478.93,-184.5 488.93,-181 478.93,-177.5 478.93,-184.5"/>
</g>
<!-- Node20&#45;&gt;Node3 -->
<g id="edge40" class="edge">
<title>Node20&#45;&gt;Node3</title>
<path fill="none" stroke="midnightblue" d="M423.52,-211.01C432.29,-208.3 441.26,-204.71 449,-200 468.88,-187.91 465.28,-174.35 485,-162 488.34,-159.91 491.93,-158.03 495.64,-156.34"/>
<polygon fill="midnightblue" stroke="midnightblue" points="497.06,-159.54 505.01,-152.54 494.43,-153.06 497.06,-159.54"/>
</g>
<!-- Node20&#45;&gt;Node5 -->
<g id="edge41" class="edge">
<title>Node20&#45;&gt;Node5</title>
<path fill="none" stroke="midnightblue" d="M423.88,-219C445.26,-219 471.62,-219 494.29,-219"/>
<polygon fill="midnightblue" stroke="midnightblue" points="494.41,-222.5 504.41,-219 494.41,-215.5 494.41,-222.5"/>
</g>
<!-- Node20&#45;&gt;Node8 -->
<g id="edge42" class="edge">
<title>Node20&#45;&gt;Node8</title>
<path fill="none" stroke="midnightblue" d="M423.88,-209.41C445.35,-204.37 471.86,-198.16 494.6,-192.82"/>
<polygon fill="midnightblue" stroke="midnightblue" points="495.48,-196.21 504.41,-190.52 493.88,-189.4 495.48,-196.21"/>
</g>
</g>
</svg>
