<?xml version="1.0" encoding="UTF-8" standalone="no"?>
<!DOCTYPE svg PUBLIC "-//W3C//DTD SVG 1.1//EN"
 "http://www.w3.org/Graphics/SVG/1.1/DTD/svg11.dtd">
<!-- Generated by graphviz version 2.43.0 (0)
 -->
<!-- Title: ft_parse_file Pages: 1 -->
<svg width="841pt" height="484pt"
 viewBox="0.00 0.00 841.00 484.00" xmlns="http://www.w3.org/2000/svg" xmlns:xlink="http://www.w3.org/1999/xlink">
<g id="graph0" class="graph" transform="scale(1 1) rotate(0) translate(4 480)">
<title>ft_parse_file</title>
<!-- Node1 -->
<g id="node1" class="node">
<title>Node1</title>
<g id="a_node1"><a xlink:title="Imports, checks, and parses the provided file.">
<polygon fill="#bfbfbf" stroke="black" points="0,-266.5 0,-285.5 76,-285.5 76,-266.5 0,-266.5"/>
<text text-anchor="middle" x="38" y="-273.5" font-family="Helvetica,sans-Serif" font-size="10.00">ft_parse_file</text>
</a>
</g>
</g>
<!-- Node2 -->
<g id="node2" class="node">
<title>Node2</title>
<g id="a_node2"><a xlink:href="check_8h.html#afdfc858822cc349d9aa87b6aa28a6dd8" target="_top" xlink:title="Check array of imported lines.">
<polygon fill="none" stroke="black" points="113,-380.5 113,-399.5 199,-399.5 199,-380.5 113,-380.5"/>
<text text-anchor="middle" x="156" y="-387.5" font-family="Helvetica,sans-Serif" font-size="10.00">ft_check_lines</text>
</a>
</g>
</g>
<!-- Node1&#45;&gt;Node2 -->
<g id="edge1" class="edge">
<title>Node1&#45;&gt;Node2</title>
<path fill="none" stroke="midnightblue" d="M48.89,-285.72C68.67,-305.15 113.29,-349.01 137.9,-373.2"/>
<polygon fill="midnightblue" stroke="midnightblue" points="135.55,-375.79 145.13,-380.31 140.46,-370.8 135.55,-375.79"/>
</g>
<!-- Node7 -->
<g id="node7" class="node">
<title>Node7</title>
<g id="a_node7"><a xlink:href="cleanup_8h.html#afd12c2961e60b6147c54c2ea99a70669" target="_top" xlink:title="Frees a NULL&#45;terminated char ** array.">
<polygon fill="none" stroke="black" points="251,-304.5 251,-323.5 344,-323.5 344,-304.5 251,-304.5"/>
<text text-anchor="middle" x="297.5" y="-311.5" font-family="Helvetica,sans-Serif" font-size="10.00">ft_free_char_arr</text>
</a>
</g>
</g>
<!-- Node1&#45;&gt;Node7 -->
<g id="edge6" class="edge">
<title>Node1&#45;&gt;Node7</title>
<path fill="none" stroke="midnightblue" d="M71.47,-285.58C84.04,-288.99 98.6,-292.58 112,-295 154.87,-302.74 203.95,-307.61 240.71,-310.47"/>
<polygon fill="midnightblue" stroke="midnightblue" points="240.5,-313.97 250.74,-311.23 241.03,-306.99 240.5,-313.97"/>
</g>
<!-- Node8 -->
<g id="node8" class="node">
<title>Node8</title>
<g id="a_node8"><a xlink:href="import__file_8h.html#a996e353fb1cf0ba1e9706f5d0c12e111" target="_top" xlink:title="Check file extension, import file and prepare for use.">
<polygon fill="none" stroke="black" points="115.5,-266.5 115.5,-285.5 196.5,-285.5 196.5,-266.5 115.5,-266.5"/>
<text text-anchor="middle" x="156" y="-273.5" font-family="Helvetica,sans-Serif" font-size="10.00">ft_import_file</text>
</a>
</g>
</g>
<!-- Node1&#45;&gt;Node8 -->
<g id="edge7" class="edge">
<title>Node1&#45;&gt;Node8</title>
<path fill="none" stroke="midnightblue" d="M76.02,-276C85.27,-276 95.35,-276 105.11,-276"/>
<polygon fill="midnightblue" stroke="midnightblue" points="105.12,-279.5 115.12,-276 105.12,-272.5 105.12,-279.5"/>
</g>
<!-- Node21 -->
<g id="node21" class="node">
<title>Node21</title>
<g id="a_node21"><a xlink:href="parse_8c.html#a5c7cd128e38180fcea33c559a075424e" target="_top" xlink:title="Allocates memory for lights and hittable array.">
<polygon fill="none" stroke="black" points="112,-228.5 112,-247.5 200,-247.5 200,-228.5 112,-228.5"/>
<text text-anchor="middle" x="156" y="-235.5" font-family="Helvetica,sans-Serif" font-size="10.00">ft_malloc_ents</text>
</a>
</g>
</g>
<!-- Node1&#45;&gt;Node21 -->
<g id="edge27" class="edge">
<title>Node1&#45;&gt;Node21</title>
<path fill="none" stroke="midnightblue" d="M68.27,-266.41C82.7,-261.69 100.29,-255.92 115.86,-250.82"/>
<polygon fill="midnightblue" stroke="midnightblue" points="117.32,-254.03 125.74,-247.59 115.14,-247.37 117.32,-254.03"/>
</g>
<!-- Node22 -->
<g id="node22" class="node">
<title>Node22</title>
<g id="a_node22"><a xlink:href="parse_8c.html#a5da409b03d9f22daaa6d5673944800d3" target="_top" xlink:title="Dispatcher for different parsing functions.">
<polygon fill="none" stroke="black" points="114,-190.5 114,-209.5 198,-209.5 198,-190.5 114,-190.5"/>
<text text-anchor="middle" x="156" y="-197.5" font-family="Helvetica,sans-Serif" font-size="10.00">ft_parse_lines</text>
</a>
</g>
</g>
<!-- Node1&#45;&gt;Node22 -->
<g id="edge28" class="edge">
<title>Node1&#45;&gt;Node22</title>
<path fill="none" stroke="midnightblue" d="M49.76,-266.21C63.47,-254.05 88.27,-233.21 112,-219 114.96,-217.23 118.12,-215.52 121.32,-213.91"/>
<polygon fill="midnightblue" stroke="midnightblue" points="122.82,-217.07 130.37,-209.64 119.83,-210.74 122.82,-217.07"/>
</g>
<!-- Node3 -->
<g id="node3" class="node">
<title>Node3</title>
<g id="a_node3"><a xlink:href="check_8c.html#a4560f2d54698ffbfb8262bc7cad02768" target="_top" xlink:title="Check if minimum number of specific entities was found.">
<polygon fill="none" stroke="black" points="236,-456.5 236,-475.5 359,-475.5 359,-456.5 236,-456.5"/>
<text text-anchor="middle" x="297.5" y="-463.5" font-family="Helvetica,sans-Serif" font-size="10.00">ft_check_entity_count</text>
</a>
</g>
</g>
<!-- Node2&#45;&gt;Node3 -->
<g id="edge2" class="edge">
<title>Node2&#45;&gt;Node3</title>
<path fill="none" stroke="midnightblue" d="M167.78,-399.52C182.34,-411.97 209.54,-433.74 236,-447 240.38,-449.2 245.07,-451.2 249.83,-453.02"/>
<polygon fill="midnightblue" stroke="midnightblue" points="249.01,-456.45 259.61,-456.49 251.35,-449.85 249.01,-456.45"/>
</g>
<!-- Node4 -->
<g id="node4" class="node">
<title>Node4</title>
<g id="a_node4"><a xlink:href="check_8c.html#a9d550a03e395942fd0bb735c1dda47d9" target="_top" xlink:title="Dispatch function for different line types.">
<polygon fill="none" stroke="black" points="244,-418.5 244,-437.5 351,-437.5 351,-418.5 244,-418.5"/>
<text text-anchor="middle" x="297.5" y="-425.5" font-family="Helvetica,sans-Serif" font-size="10.00">ft_check_line_type</text>
</a>
</g>
</g>
<!-- Node2&#45;&gt;Node4 -->
<g id="edge3" class="edge">
<title>Node2&#45;&gt;Node4</title>
<path fill="none" stroke="midnightblue" d="M192.2,-399.59C210.21,-404.49 232.33,-410.52 251.56,-415.76"/>
<polygon fill="midnightblue" stroke="midnightblue" points="250.74,-419.16 261.31,-418.41 252.58,-412.41 250.74,-419.16"/>
</g>
<!-- Node5 -->
<g id="node5" class="node">
<title>Node5</title>
<g id="a_node5"><a xlink:href="check_8c.html#a3a2c8238788feab0a8d61cb6ef42d121" target="_top" xlink:title="Increase entity count, and check if too many.">
<polygon fill="none" stroke="black" points="247.5,-380.5 247.5,-399.5 347.5,-399.5 347.5,-380.5 247.5,-380.5"/>
<text text-anchor="middle" x="297.5" y="-387.5" font-family="Helvetica,sans-Serif" font-size="10.00">ft_incr_ent_count</text>
</a>
</g>
</g>
<!-- Node2&#45;&gt;Node5 -->
<g id="edge4" class="edge">
<title>Node2&#45;&gt;Node5</title>
<path fill="none" stroke="midnightblue" d="M199.23,-390C211.13,-390 224.3,-390 237,-390"/>
<polygon fill="midnightblue" stroke="midnightblue" points="237.06,-393.5 247.06,-390 237.06,-386.5 237.06,-393.5"/>
</g>
<!-- Node6 -->
<g id="node6" class="node">
<title>Node6</title>
<g id="a_node6"><a xlink:href="error__msg_8h.html#a278f4b45a52fcddd1925e2b9c50266ed" target="_top" xlink:title="Print error message with a number.">
<polygon fill="none" stroke="black" points="247,-342.5 247,-361.5 348,-361.5 348,-342.5 247,-342.5"/>
<text text-anchor="middle" x="297.5" y="-349.5" font-family="Helvetica,sans-Serif" font-size="10.00">ft_perror_number</text>
</a>
</g>
</g>
<!-- Node2&#45;&gt;Node6 -->
<g id="edge5" class="edge">
<title>Node2&#45;&gt;Node6</title>
<path fill="none" stroke="midnightblue" d="M192.2,-380.41C210.21,-375.51 232.33,-369.48 251.56,-364.24"/>
<polygon fill="midnightblue" stroke="midnightblue" points="252.58,-367.59 261.31,-361.59 250.74,-360.84 252.58,-367.59"/>
</g>
<!-- Node8&#45;&gt;Node7 -->
<g id="edge12" class="edge">
<title>Node8&#45;&gt;Node7</title>
<path fill="none" stroke="midnightblue" d="M192.2,-285.59C210.21,-290.49 232.33,-296.52 251.56,-301.76"/>
<polygon fill="midnightblue" stroke="midnightblue" points="250.74,-305.16 261.31,-304.41 252.58,-298.41 250.74,-305.16"/>
</g>
<!-- Node9 -->
<g id="node9" class="node">
<title>Node9</title>
<g id="a_node9"><a xlink:href="error__syscall_8h.html#a3e39b3f560404b954295453e40c41171" target="_top" xlink:title="Wrapper function for close() to print errno.">
<polygon fill="none" stroke="black" points="662.5,-266.5 662.5,-285.5 735.5,-285.5 735.5,-266.5 662.5,-266.5"/>
<text text-anchor="middle" x="699" y="-273.5" font-family="Helvetica,sans-Serif" font-size="10.00">ft_err_close</text>
</a>
</g>
</g>
<!-- Node8&#45;&gt;Node9 -->
<g id="edge8" class="edge">
<title>Node8&#45;&gt;Node9</title>
<path fill="none" stroke="midnightblue" d="M196.78,-276C294.92,-276 548.15,-276 652.26,-276"/>
<polygon fill="midnightblue" stroke="midnightblue" points="652.45,-279.5 662.45,-276 652.45,-272.5 652.45,-279.5"/>
</g>
<!-- Node11 -->
<g id="node11" class="node">
<title>Node11</title>
<g id="a_node11"><a xlink:href="error__syscall_8h.html#abf340aed99dd0770e292523412675343" target="_top" xlink:title="Wrapper function for open() to print errno.">
<polygon fill="none" stroke="black" points="663.5,-228.5 663.5,-247.5 734.5,-247.5 734.5,-228.5 663.5,-228.5"/>
<text text-anchor="middle" x="699" y="-235.5" font-family="Helvetica,sans-Serif" font-size="10.00">ft_err_open</text>
</a>
</g>
</g>
<!-- Node8&#45;&gt;Node11 -->
<g id="edge10" class="edge">
<title>Node8&#45;&gt;Node11</title>
<path fill="none" stroke="midnightblue" d="M196.78,-273.21C295.28,-266.29 549.98,-248.4 653.39,-241.13"/>
<polygon fill="midnightblue" stroke="midnightblue" points="653.76,-244.62 663.49,-240.42 653.27,-237.63 653.76,-244.62"/>
</g>
<!-- Node12 -->
<g id="node12" class="node">
<title>Node12</title>
<g id="a_node12"><a xlink:href="import__file_8c.html#ab0b327c549706e7478db9544c25886a5" target="_top" xlink:title="Check if valid file extension.">
<polygon fill="none" stroke="black" points="395,-190.5 395,-209.5 504,-209.5 504,-190.5 395,-190.5"/>
<text text-anchor="middle" x="449.5" y="-197.5" font-family="Helvetica,sans-Serif" font-size="10.00">ft_isvalid_filename</text>
</a>
</g>
</g>
<!-- Node8&#45;&gt;Node12 -->
<g id="edge13" class="edge">
<title>Node8&#45;&gt;Node12</title>
<path fill="none" stroke="midnightblue" d="M182.28,-266.47C188.29,-263.77 194.53,-260.57 200,-257 218.17,-245.12 216.25,-232.99 236,-224 282.77,-202.71 341.08,-197.43 384.78,-197.06"/>
<polygon fill="midnightblue" stroke="midnightblue" points="385,-200.56 395,-197.06 385,-193.56 385,-200.56"/>
</g>
<!-- Node13 -->
<g id="node13" class="node">
<title>Node13</title>
<g id="a_node13"><a xlink:href="import__file_8c.html#a9260f4680d33314ef51e7096426acdae" target="_top" xlink:title="Import file and split it into lines.">
<polygon fill="none" stroke="black" points="247.5,-114.5 247.5,-133.5 347.5,-133.5 347.5,-114.5 247.5,-114.5"/>
<text text-anchor="middle" x="297.5" y="-121.5" font-family="Helvetica,sans-Serif" font-size="10.00">ft_read_and_split</text>
</a>
</g>
</g>
<!-- Node8&#45;&gt;Node13 -->
<g id="edge15" class="edge">
<title>Node8&#45;&gt;Node13</title>
<path fill="none" stroke="midnightblue" d="M185.99,-266.49C191.05,-263.95 195.97,-260.82 200,-257 225.67,-232.66 215.41,-214.77 236,-186 248.06,-169.15 264.67,-152.47 277.43,-140.67"/>
<polygon fill="midnightblue" stroke="midnightblue" points="280.11,-142.96 285.18,-133.66 275.42,-137.77 280.11,-142.96"/>
</g>
<!-- Node10 -->
<g id="node10" class="node">
<title>Node10</title>
<g id="a_node10"><a xlink:href="error__msg_8h.html#aee5d10b82b6780869c9cc69cd64e44cc" target="_top" xlink:title="Print generic error message.">
<polygon fill="none" stroke="black" points="775,-171.5 775,-190.5 833,-190.5 833,-171.5 775,-171.5"/>
<text text-anchor="middle" x="804" y="-178.5" font-family="Helvetica,sans-Serif" font-size="10.00">ft_perror</text>
</a>
</g>
</g>
<!-- Node9&#45;&gt;Node10 -->
<g id="edge9" class="edge">
<title>Node9&#45;&gt;Node10</title>
<path fill="none" stroke="midnightblue" d="M723.62,-266.46C728.94,-263.79 734.37,-260.61 739,-257 760.35,-240.36 779.58,-215.56 791.26,-198.86"/>
<polygon fill="midnightblue" stroke="midnightblue" points="794.2,-200.75 796.94,-190.52 788.42,-196.81 794.2,-200.75"/>
</g>
<!-- Node11&#45;&gt;Node10 -->
<g id="edge11" class="edge">
<title>Node11&#45;&gt;Node10</title>
<path fill="none" stroke="midnightblue" d="M717.47,-228.33C733.77,-219.31 758.31,-205.73 776.92,-195.43"/>
<polygon fill="midnightblue" stroke="midnightblue" points="778.73,-198.43 785.79,-190.53 775.34,-192.31 778.73,-198.43"/>
</g>
<!-- Node12&#45;&gt;Node10 -->
<g id="edge14" class="edge">
<title>Node12&#45;&gt;Node10</title>
<path fill="none" stroke="midnightblue" d="M504.04,-197.11C575.77,-193.25 701.34,-186.48 764.47,-183.08"/>
<polygon fill="midnightblue" stroke="midnightblue" points="764.98,-186.55 774.77,-182.52 764.6,-179.56 764.98,-186.55"/>
</g>
<!-- Node13&#45;&gt;Node10 -->
<g id="edge26" class="edge">
<title>Node13&#45;&gt;Node10</title>
<path fill="none" stroke="midnightblue" d="M342.05,-133.55C358.57,-136.92 377.59,-140.48 395,-143 530.22,-162.56 692.18,-174.16 764.66,-178.73"/>
<polygon fill="midnightblue" stroke="midnightblue" points="764.49,-182.23 774.69,-179.36 764.93,-175.24 764.49,-182.23"/>
</g>
<!-- Node14 -->
<g id="node14" class="node">
<title>Node14</title>
<g id="a_node14"><a xlink:href="import__file_8h.html#af1a4fd87c14e1f5d0b126bfc848d4761" target="_top" xlink:title="Destroy malloced buffer.">
<polygon fill="none" stroke="black" points="406.5,-114.5 406.5,-133.5 492.5,-133.5 492.5,-114.5 406.5,-114.5"/>
<text text-anchor="middle" x="449.5" y="-121.5" font-family="Helvetica,sans-Serif" font-size="10.00">ft_buf_destroy</text>
</a>
</g>
</g>
<!-- Node13&#45;&gt;Node14 -->
<g id="edge16" class="edge">
<title>Node13&#45;&gt;Node14</title>
<path fill="none" stroke="midnightblue" d="M347.62,-124C363.18,-124 380.43,-124 396.2,-124"/>
<polygon fill="midnightblue" stroke="midnightblue" points="396.32,-127.5 406.32,-124 396.32,-120.5 396.32,-127.5"/>
</g>
<!-- Node15 -->
<g id="node15" class="node">
<title>Node15</title>
<g id="a_node15"><a xlink:href="import__file_8h.html#a738f6fd9290967f972da877e935cb8d8" target="_top" xlink:title="Initiates a t_buf buffer.">
<polygon fill="none" stroke="black" points="417,-76.5 417,-95.5 482,-95.5 482,-76.5 417,-76.5"/>
<text text-anchor="middle" x="449.5" y="-83.5" font-family="Helvetica,sans-Serif" font-size="10.00">ft_buf_init</text>
</a>
</g>
</g>
<!-- Node13&#45;&gt;Node15 -->
<g id="edge17" class="edge">
<title>Node13&#45;&gt;Node15</title>
<path fill="none" stroke="midnightblue" d="M336.35,-114.41C357.88,-108.96 384.86,-102.12 406.97,-96.52"/>
<polygon fill="midnightblue" stroke="midnightblue" points="407.91,-99.89 416.75,-94.04 406.19,-93.11 407.91,-99.89"/>
</g>
<!-- Node18 -->
<g id="node18" class="node">
<title>Node18</title>
<g id="a_node18"><a xlink:href="import__file_8h.html#af0392d80791e758ec536af492c9cfe07" target="_top" xlink:title="Reads provided file into buffer.">
<polygon fill="none" stroke="black" points="403.5,-38.5 403.5,-57.5 495.5,-57.5 495.5,-38.5 403.5,-38.5"/>
<text text-anchor="middle" x="449.5" y="-45.5" font-family="Helvetica,sans-Serif" font-size="10.00">ft_buf_read_file</text>
</a>
</g>
</g>
<!-- Node13&#45;&gt;Node18 -->
<g id="edge21" class="edge">
<title>Node13&#45;&gt;Node18</title>
<path fill="none" stroke="midnightblue" d="M312.74,-114.41C331.16,-102.28 364.51,-81.26 395,-67 399.4,-64.94 404.09,-62.97 408.79,-61.13"/>
<polygon fill="midnightblue" stroke="midnightblue" points="410.23,-64.33 418.38,-57.56 407.79,-57.77 410.23,-64.33"/>
</g>
<!-- Node16 -->
<g id="node16" class="node">
<title>Node16</title>
<g id="a_node16"><a xlink:href="import__file__buffer_8c.html#a99b094d3ffec975b672948cc9f681af9" target="_top" xlink:title="Set buffer to zero.">
<polygon fill="none" stroke="black" points="544.5,-114.5 544.5,-133.5 618.5,-133.5 618.5,-114.5 544.5,-114.5"/>
<text text-anchor="middle" x="581.5" y="-121.5" font-family="Helvetica,sans-Serif" font-size="10.00">ft_buf_clear</text>
</a>
</g>
</g>
<!-- Node15&#45;&gt;Node16 -->
<g id="edge18" class="edge">
<title>Node15&#45;&gt;Node16</title>
<path fill="none" stroke="midnightblue" d="M482.3,-95.3C499.05,-100.19 519.81,-106.26 537.92,-111.55"/>
<polygon fill="midnightblue" stroke="midnightblue" points="537.09,-114.96 547.67,-114.4 539.05,-108.24 537.09,-114.96"/>
</g>
<!-- Node17 -->
<g id="node17" class="node">
<title>Node17</title>
<g id="a_node17"><a xlink:href="error__syscall_8h.html#a1ab50ff4af961d85a53bf12a8f398ba3" target="_top" xlink:title="Wrapper function for malloc() to print errno.">
<polygon fill="none" stroke="black" points="659,-76.5 659,-95.5 739,-95.5 739,-76.5 659,-76.5"/>
<text text-anchor="middle" x="699" y="-83.5" font-family="Helvetica,sans-Serif" font-size="10.00">ft_err_malloc</text>
</a>
</g>
</g>
<!-- Node15&#45;&gt;Node17 -->
<g id="edge19" class="edge">
<title>Node15&#45;&gt;Node17</title>
<path fill="none" stroke="midnightblue" d="M482.1,-86C524.19,-86 599.11,-86 648.68,-86"/>
<polygon fill="midnightblue" stroke="midnightblue" points="648.85,-89.5 658.85,-86 648.85,-82.5 648.85,-89.5"/>
</g>
<!-- Node17&#45;&gt;Node10 -->
<g id="edge20" class="edge">
<title>Node17&#45;&gt;Node10</title>
<path fill="none" stroke="midnightblue" d="M710.63,-95.81C728.23,-112.03 763.58,-144.64 785.08,-164.47"/>
<polygon fill="midnightblue" stroke="midnightblue" points="782.85,-167.18 792.58,-171.39 787.6,-162.03 782.85,-167.18"/>
</g>
<!-- Node19 -->
<g id="node19" class="node">
<title>Node19</title>
<g id="a_node19"><a xlink:href="import__file__buffer_8c.html#abdf4c7ee723013cce62274cf29be648d" target="_top" xlink:title="Doubles buffer size and copies content into new malloc&#39;d buffer.">
<polygon fill="none" stroke="black" points="540,-38.5 540,-57.5 623,-57.5 623,-38.5 540,-38.5"/>
<text text-anchor="middle" x="581.5" y="-45.5" font-family="Helvetica,sans-Serif" font-size="10.00">ft_buf_double</text>
</a>
</g>
</g>
<!-- Node18&#45;&gt;Node19 -->
<g id="edge22" class="edge">
<title>Node18&#45;&gt;Node19</title>
<path fill="none" stroke="midnightblue" d="M495.6,-48C506.61,-48 518.45,-48 529.7,-48"/>
<polygon fill="midnightblue" stroke="midnightblue" points="529.83,-51.5 539.83,-48 529.83,-44.5 529.83,-51.5"/>
</g>
<!-- Node20 -->
<g id="node20" class="node">
<title>Node20</title>
<g id="a_node20"><a xlink:href="error__syscall_8h.html#af521961510b5af3e286f0ccd77cd691d" target="_top" xlink:title="Wrapper function for read() to print errno.">
<polygon fill="none" stroke="black" points="547,-0.5 547,-19.5 616,-19.5 616,-0.5 547,-0.5"/>
<text text-anchor="middle" x="581.5" y="-7.5" font-family="Helvetica,sans-Serif" font-size="10.00">ft_err_read</text>
</a>
</g>
</g>
<!-- Node18&#45;&gt;Node20 -->
<g id="edge24" class="edge">
<title>Node18&#45;&gt;Node20</title>
<path fill="none" stroke="midnightblue" d="M483.3,-38.41C499.78,-33.6 519.94,-27.7 537.63,-22.53"/>
<polygon fill="midnightblue" stroke="midnightblue" points="539.09,-25.75 547.71,-19.59 537.13,-19.03 539.09,-25.75"/>
</g>
<!-- Node19&#45;&gt;Node17 -->
<g id="edge23" class="edge">
<title>Node19&#45;&gt;Node17</title>
<path fill="none" stroke="midnightblue" d="M611.65,-57.59C626.01,-62.31 643.53,-68.08 659.03,-73.18"/>
<polygon fill="midnightblue" stroke="midnightblue" points="658.27,-76.61 668.86,-76.41 660.46,-69.96 658.27,-76.61"/>
</g>
<!-- Node20&#45;&gt;Node10 -->
<g id="edge25" class="edge">
<title>Node20&#45;&gt;Node10</title>
<path fill="none" stroke="midnightblue" d="M616.18,-15.21C650.44,-21.99 703.41,-36.76 739,-67 769.27,-92.72 788.06,-136.55 796.92,-161.71"/>
<polygon fill="midnightblue" stroke="midnightblue" points="793.62,-162.87 800.12,-171.24 800.26,-160.65 793.62,-162.87"/>
</g>
</g>
</svg>
