<?xml version="1.0" encoding="UTF-8" standalone="no"?>
<!DOCTYPE svg PUBLIC "-//W3C//DTD SVG 1.1//EN"
 "http://www.w3.org/Graphics/SVG/1.1/DTD/svg11.dtd">
<!-- Generated by graphviz version 2.43.0 (0)
 -->
<!-- Title: ft_parse_plane_bonus Pages: 1 -->
<svg width="750pt" height="28pt"
 viewBox="0.00 0.00 750.00 28.00" xmlns="http://www.w3.org/2000/svg" xmlns:xlink="http://www.w3.org/1999/xlink">
<g id="graph0" class="graph" transform="scale(1 1) rotate(0) translate(4 24)">
<title>ft_parse_plane_bonus</title>
<!-- Node1 -->
<g id="node1" class="node">
<title>Node1</title>
<g id="a_node1"><a xlink:title="Parse plane line.">
<polygon fill="#bfbfbf" stroke="black" points="620,-0.5 620,-19.5 742,-19.5 742,-0.5 620,-0.5"/>
<text text-anchor="middle" x="681" y="-7.5" font-family="Helvetica,sans-Serif" font-size="10.00">ft_parse_plane_bonus</text>
</a>
</g>
</g>
<!-- Node2 -->
<g id="node2" class="node">
<title>Node2</title>
<g id="a_node2"><a xlink:href="parse__bonus_8c.html#a65db4c46c2af2d9b570687b3a1458f15" target="_top" xlink:title=" ">
<polygon fill="none" stroke="black" points="460,-0.5 460,-19.5 584,-19.5 584,-0.5 460,-0.5"/>
<text text-anchor="middle" x="522" y="-7.5" font-family="Helvetica,sans-Serif" font-size="10.00">ft_parse_entity_bonus</text>
</a>
</g>
</g>
<!-- Node1&#45;&gt;Node2 -->
<g id="edge1" class="edge">
<title>Node1&#45;&gt;Node2</title>
<path fill="none" stroke="midnightblue" d="M609.51,-10C601.04,-10 592.45,-10 584.13,-10"/>
<polygon fill="midnightblue" stroke="midnightblue" points="609.75,-13.5 619.75,-10 609.75,-6.5 609.75,-13.5"/>
</g>
<!-- Node3 -->
<g id="node3" class="node">
<title>Node3</title>
<g id="a_node3"><a xlink:href="parse__bonus_8h.html#a4ce5cad477407308f911966a9446f560" target="_top" xlink:title="Dispatcher for different parsing functions.">
<polygon fill="none" stroke="black" points="305,-0.5 305,-19.5 424,-19.5 424,-0.5 305,-0.5"/>
<text text-anchor="middle" x="364.5" y="-7.5" font-family="Helvetica,sans-Serif" font-size="10.00">ft_parse_lines_bonus</text>
</a>
</g>
</g>
<!-- Node2&#45;&gt;Node3 -->
<g id="edge2" class="edge">
<title>Node2&#45;&gt;Node3</title>
<path fill="none" stroke="midnightblue" d="M449.91,-10C441.25,-10 432.49,-10 424.05,-10"/>
<polygon fill="midnightblue" stroke="midnightblue" points="449.99,-13.5 459.99,-10 449.99,-6.5 449.99,-13.5"/>
</g>
<!-- Node4 -->
<g id="node4" class="node">
<title>Node4</title>
<g id="a_node4"><a xlink:href="parse__bonus_8h.html#a4192e948800f8db85951eb21432e0ab0" target="_top" xlink:title="Mallocs storage space and writes data into storage.">
<polygon fill="none" stroke="black" points="189,-0.5 189,-19.5 269,-19.5 269,-0.5 189,-0.5"/>
<text text-anchor="middle" x="229" y="-7.5" font-family="Helvetica,sans-Serif" font-size="10.00">ft_store_data</text>
</a>
</g>
</g>
<!-- Node3&#45;&gt;Node4 -->
<g id="edge3" class="edge">
<title>Node3&#45;&gt;Node4</title>
<path fill="none" stroke="midnightblue" d="M294.73,-10C286.01,-10 277.34,-10 269.31,-10"/>
<polygon fill="midnightblue" stroke="midnightblue" points="294.94,-13.5 304.94,-10 294.94,-6.5 294.94,-13.5"/>
</g>
<!-- Node5 -->
<g id="node5" class="node">
<title>Node5</title>
<g id="a_node5"><a xlink:href="parse_8h.html#ac08e53c371b438bc37757b81d0df11b8" target="_top" xlink:title="Imports, checks, and parses the provided file.">
<polygon fill="none" stroke="black" points="77,-0.5 77,-19.5 153,-19.5 153,-0.5 77,-0.5"/>
<text text-anchor="middle" x="115" y="-7.5" font-family="Helvetica,sans-Serif" font-size="10.00">ft_parse_file</text>
</a>
</g>
</g>
<!-- Node4&#45;&gt;Node5 -->
<g id="edge4" class="edge">
<title>Node4&#45;&gt;Node5</title>
<path fill="none" stroke="midnightblue" d="M178.55,-10C170,-10 161.24,-10 153.08,-10"/>
<polygon fill="midnightblue" stroke="midnightblue" points="178.83,-13.5 188.83,-10 178.83,-6.5 178.83,-13.5"/>
</g>
<!-- Node6 -->
<g id="node6" class="node">
<title>Node6</title>
<g id="a_node6"><a xlink:href="main_8c.html#a3c04138a5bfe5d72780bb7e82a18e627" target="_top" xlink:title=" ">
<polygon fill="none" stroke="black" points="0,-0.5 0,-19.5 41,-19.5 41,-0.5 0,-0.5"/>
<text text-anchor="middle" x="20.5" y="-7.5" font-family="Helvetica,sans-Serif" font-size="10.00">main</text>
</a>
</g>
</g>
<!-- Node5&#45;&gt;Node6 -->
<g id="edge5" class="edge">
<title>Node5&#45;&gt;Node6</title>
<path fill="none" stroke="midnightblue" d="M66.72,-10C57.65,-10 48.64,-10 41.07,-10"/>
<polygon fill="midnightblue" stroke="midnightblue" points="66.91,-13.5 76.91,-10 66.91,-6.5 66.91,-13.5"/>
</g>
</g>
</svg>
