<?xml version="1.0" encoding="UTF-8" standalone="no"?>
<!DOCTYPE svg PUBLIC "-//W3C//DTD SVG 1.1//EN"
 "http://www.w3.org/Graphics/SVG/1.1/DTD/svg11.dtd">
<!-- Generated by graphviz version 2.43.0 (0)
 -->
<!-- Title: ft_store_data Pages: 1 -->
<svg width="956pt" height="509pt"
 viewBox="0.00 0.00 956.00 509.35" xmlns="http://www.w3.org/2000/svg" xmlns:xlink="http://www.w3.org/1999/xlink">
<g id="graph0" class="graph" transform="scale(1 1) rotate(0) translate(4 505.35)">
<title>ft_store_data</title>
<!-- Node1 -->
<g id="node1" class="node">
<title>Node1</title>
<g id="a_node1"><a xlink:title="Mallocs storage space and writes data into storage.">
<polygon fill="#bfbfbf" stroke="black" points="0,-177.85 0,-196.85 80,-196.85 80,-177.85 0,-177.85"/>
<text text-anchor="middle" x="40" y="-184.85" font-family="Helvetica,sans-Serif" font-size="10.00">ft_store_data</text>
</a>
</g>
</g>
<!-- Node2 -->
<g id="node2" class="node">
<title>Node2</title>
<g id="a_node2"><a xlink:href="cleanup_8h.html#afd12c2961e60b6147c54c2ea99a70669" target="_top" xlink:title="Frees a NULL&#45;terminated char ** array.">
<polygon fill="none" stroke="black" points="135.5,-253.85 135.5,-272.85 228.5,-272.85 228.5,-253.85 135.5,-253.85"/>
<text text-anchor="middle" x="182" y="-260.85" font-family="Helvetica,sans-Serif" font-size="10.00">ft_free_char_arr</text>
</a>
</g>
</g>
<!-- Node1&#45;&gt;Node2 -->
<g id="edge1" class="edge">
<title>Node1&#45;&gt;Node2</title>
<path fill="none" stroke="midnightblue" d="M51.33,-197.2C65.07,-209.8 90.59,-231.53 116,-244.35 120.54,-246.64 125.4,-248.7 130.35,-250.54"/>
<polygon fill="midnightblue" stroke="midnightblue" points="129.31,-253.88 139.9,-253.81 131.58,-247.26 129.31,-253.88"/>
</g>
<!-- Node3 -->
<g id="node3" class="node">
<title>Node3</title>
<g id="a_node3"><a xlink:href="parse__bonus_8c.html#a4e5c3ac2d79382b3badd1426d1f5428d" target="_top" xlink:title="Initialises the bonus parameters of all entities to zero when reading a base file.">
<polygon fill="none" stroke="black" points="116,-215.85 116,-234.85 248,-234.85 248,-215.85 116,-215.85"/>
<text text-anchor="middle" x="182" y="-222.85" font-family="Helvetica,sans-Serif" font-size="10.00">ft_initialise_non_parsed</text>
</a>
</g>
</g>
<!-- Node1&#45;&gt;Node3 -->
<g id="edge2" class="edge">
<title>Node1&#45;&gt;Node3</title>
<path fill="none" stroke="midnightblue" d="M76.33,-196.94C94.4,-201.84 116.6,-207.87 135.89,-213.1"/>
<polygon fill="midnightblue" stroke="midnightblue" points="135.12,-216.52 145.68,-215.76 136.95,-209.76 135.12,-216.52"/>
</g>
<!-- Node4 -->
<g id="node4" class="node">
<title>Node4</title>
<g id="a_node4"><a xlink:href="parse_8h.html#a5c7cd128e38180fcea33c559a075424e" target="_top" xlink:title="Allocates memory for lights and hittable array.">
<polygon fill="none" stroke="black" points="138,-177.85 138,-196.85 226,-196.85 226,-177.85 138,-177.85"/>
<text text-anchor="middle" x="182" y="-184.85" font-family="Helvetica,sans-Serif" font-size="10.00">ft_malloc_ents</text>
</a>
</g>
</g>
<!-- Node1&#45;&gt;Node4 -->
<g id="edge3" class="edge">
<title>Node1&#45;&gt;Node4</title>
<path fill="none" stroke="midnightblue" d="M80.37,-187.35C94.97,-187.35 111.77,-187.35 127.42,-187.35"/>
<polygon fill="midnightblue" stroke="midnightblue" points="127.5,-190.85 137.5,-187.35 127.5,-183.85 127.5,-190.85"/>
</g>
<!-- Node7 -->
<g id="node7" class="node">
<title>Node7</title>
<g id="a_node7"><a xlink:href="parse_8h.html#a5da409b03d9f22daaa6d5673944800d3" target="_top" xlink:title="Dispatcher for different parsing functions.">
<polygon fill="none" stroke="black" points="140,-139.85 140,-158.85 224,-158.85 224,-139.85 140,-139.85"/>
<text text-anchor="middle" x="182" y="-146.85" font-family="Helvetica,sans-Serif" font-size="10.00">ft_parse_lines</text>
</a>
</g>
</g>
<!-- Node1&#45;&gt;Node7 -->
<g id="edge6" class="edge">
<title>Node1&#45;&gt;Node7</title>
<path fill="none" stroke="midnightblue" d="M76.33,-177.76C94.4,-172.85 116.6,-166.83 135.89,-161.59"/>
<polygon fill="midnightblue" stroke="midnightblue" points="136.95,-164.93 145.68,-158.93 135.12,-158.17 136.95,-164.93"/>
</g>
<!-- Node26 -->
<g id="node26" class="node">
<title>Node26</title>
<g id="a_node26"><a xlink:href="parse__bonus_8c.html#a4ce5cad477407308f911966a9446f560" target="_top" xlink:title="Dispatcher for different parsing functions.">
<polygon fill="none" stroke="black" points="122.5,-101.85 122.5,-120.85 241.5,-120.85 241.5,-101.85 122.5,-101.85"/>
<text text-anchor="middle" x="182" y="-108.85" font-family="Helvetica,sans-Serif" font-size="10.00">ft_parse_lines_bonus</text>
</a>
</g>
</g>
<!-- Node1&#45;&gt;Node26 -->
<g id="edge41" class="edge">
<title>Node1&#45;&gt;Node26</title>
<path fill="none" stroke="midnightblue" d="M51.33,-177.49C65.07,-164.89 90.59,-143.16 116,-130.35 120.54,-128.06 125.4,-126 130.35,-124.16"/>
<polygon fill="midnightblue" stroke="midnightblue" points="131.58,-127.44 139.9,-120.88 129.31,-120.81 131.58,-127.44"/>
</g>
<!-- Node5 -->
<g id="node5" class="node">
<title>Node5</title>
<g id="a_node5"><a xlink:href="error__syscall_8h.html#a1ab50ff4af961d85a53bf12a8f398ba3" target="_top" xlink:title="Wrapper function for malloc() to print errno.">
<polygon fill="none" stroke="black" points="306,-424.85 306,-443.85 386,-443.85 386,-424.85 306,-424.85"/>
<text text-anchor="middle" x="346" y="-431.85" font-family="Helvetica,sans-Serif" font-size="10.00">ft_err_malloc</text>
</a>
</g>
</g>
<!-- Node4&#45;&gt;Node5 -->
<g id="edge4" class="edge">
<title>Node4&#45;&gt;Node5</title>
<path fill="none" stroke="midnightblue" d="M226.1,-193.05C234.27,-195.9 242.09,-200.12 248,-206.35 295.8,-256.69 253.52,-295.97 284,-358.35 295.03,-380.92 313.79,-402.88 327.6,-417.34"/>
<polygon fill="midnightblue" stroke="midnightblue" points="325.18,-419.87 334.68,-424.56 330.18,-414.97 325.18,-419.87"/>
</g>
<!-- Node6 -->
<g id="node6" class="node">
<title>Node6</title>
<g id="a_node6"><a xlink:href="error__msg_8h.html#aee5d10b82b6780869c9cc69cd64e44cc" target="_top" xlink:title="Print generic error message.">
<polygon fill="none" stroke="black" points="482,-481.85 482,-500.85 540,-500.85 540,-481.85 482,-481.85"/>
<text text-anchor="middle" x="511" y="-488.85" font-family="Helvetica,sans-Serif" font-size="10.00">ft_perror</text>
</a>
</g>
</g>
<!-- Node5&#45;&gt;Node6 -->
<g id="edge5" class="edge">
<title>Node5&#45;&gt;Node6</title>
<path fill="none" stroke="midnightblue" d="M369.51,-443.86C389.04,-451.93 418.14,-463.58 444,-472.35 453.04,-475.41 462.88,-478.42 472.13,-481.1"/>
<polygon fill="midnightblue" stroke="midnightblue" points="471.31,-484.5 481.88,-483.87 473.22,-477.77 471.31,-484.5"/>
</g>
<!-- Node8 -->
<g id="node8" class="node">
<title>Node8</title>
<g id="a_node8"><a xlink:href="parse_8h.html#a43353d6bde35357648843c359e4d00a5" target="_top" xlink:title="Parse ambient light line.">
<polygon fill="none" stroke="black" points="295.5,-25.85 295.5,-44.85 396.5,-44.85 396.5,-25.85 295.5,-25.85"/>
<text text-anchor="middle" x="346" y="-32.85" font-family="Helvetica,sans-Serif" font-size="10.00">ft_parse_ambient</text>
</a>
</g>
</g>
<!-- Node7&#45;&gt;Node8 -->
<g id="edge7" class="edge">
<title>Node7&#45;&gt;Node8</title>
<path fill="none" stroke="midnightblue" d="M224.15,-140.64C232.36,-138 240.69,-134.62 248,-130.35 257.36,-124.87 303.36,-78.2 328.51,-52.38"/>
<polygon fill="midnightblue" stroke="midnightblue" points="331.12,-54.71 335.58,-45.1 326.1,-49.83 331.12,-54.71"/>
</g>
<!-- Node12 -->
<g id="node12" class="node">
<title>Node12</title>
<g id="a_node12"><a xlink:href="parse_8h.html#a39197067937cd8880453eed92148ee31" target="_top" xlink:title="Parse camera line.">
<polygon fill="none" stroke="black" points="297,-139.85 297,-158.85 395,-158.85 395,-139.85 297,-139.85"/>
<text text-anchor="middle" x="346" y="-146.85" font-family="Helvetica,sans-Serif" font-size="10.00">ft_parse_camera</text>
</a>
</g>
</g>
<!-- Node7&#45;&gt;Node12 -->
<g id="edge12" class="edge">
<title>Node7&#45;&gt;Node12</title>
<path fill="none" stroke="midnightblue" d="M224.3,-149.35C243.22,-149.35 265.99,-149.35 286.63,-149.35"/>
<polygon fill="midnightblue" stroke="midnightblue" points="286.88,-152.85 296.88,-149.35 286.88,-145.85 286.88,-152.85"/>
</g>
<!-- Node16 -->
<g id="node16" class="node">
<title>Node16</title>
<g id="a_node16"><a xlink:href="parse_8c.html#ad530c7e1381c551510afa73f881fb907" target="_top" xlink:title=" ">
<polygon fill="none" stroke="black" points="301.5,-329.85 301.5,-348.85 390.5,-348.85 390.5,-329.85 301.5,-329.85"/>
<text text-anchor="middle" x="346" y="-336.85" font-family="Helvetica,sans-Serif" font-size="10.00">ft_parse_entity</text>
</a>
</g>
</g>
<!-- Node7&#45;&gt;Node16 -->
<g id="edge18" class="edge">
<title>Node7&#45;&gt;Node16</title>
<path fill="none" stroke="midnightblue" d="M224.07,-154.83C232.85,-157.66 241.45,-161.93 248,-168.35 285.97,-205.51 255.66,-237.4 284,-282.35 294.21,-298.54 310.12,-313.19 323.13,-323.59"/>
<polygon fill="midnightblue" stroke="midnightblue" points="321.12,-326.45 331.18,-329.78 325.38,-320.91 321.12,-326.45"/>
</g>
<!-- Node25 -->
<g id="node25" class="node">
<title>Node25</title>
<g id="a_node25"><a xlink:href="parse_8h.html#a4aae05e7a38646951b318a2de0b24689" target="_top" xlink:title="Parse light line.">
<polygon fill="none" stroke="black" points="469.5,-63.85 469.5,-82.85 552.5,-82.85 552.5,-63.85 469.5,-63.85"/>
<text text-anchor="middle" x="511" y="-70.85" font-family="Helvetica,sans-Serif" font-size="10.00">ft_parse_light</text>
</a>
</g>
</g>
<!-- Node7&#45;&gt;Node25 -->
<g id="edge37" class="edge">
<title>Node7&#45;&gt;Node25</title>
<path fill="none" stroke="midnightblue" d="M224.07,-139.91C269.18,-129.52 343.77,-112.32 408,-97.35 424.73,-93.45 442.99,-89.16 459.38,-85.3"/>
<polygon fill="midnightblue" stroke="midnightblue" points="460.38,-88.66 469.31,-82.96 458.77,-81.85 460.38,-88.66"/>
</g>
<!-- Node9 -->
<g id="node9" class="node">
<title>Node9</title>
<g id="a_node9"><a xlink:href="parse_8h.html#a2bb654728a666a68ad6b6627cd27e918" target="_top" xlink:title="Parses values of a rgb colour block.">
<polygon fill="none" stroke="black" points="614,-253.85 614,-272.85 736,-272.85 736,-253.85 614,-253.85"/>
<text text-anchor="middle" x="675" y="-260.85" font-family="Helvetica,sans-Serif" font-size="10.00">ft_parse_colour_block</text>
</a>
</g>
</g>
<!-- Node8&#45;&gt;Node9 -->
<g id="edge8" class="edge">
<title>Node8&#45;&gt;Node9</title>
<path fill="none" stroke="midnightblue" d="M396.72,-32.67C456.56,-30.58 552.24,-31.16 578,-54.35 641.88,-111.84 556.96,-180.05 614,-244.35 615.17,-245.67 616.43,-246.9 617.77,-248.04"/>
<polygon fill="midnightblue" stroke="midnightblue" points="615.9,-251 626.14,-253.71 619.83,-245.21 615.9,-251"/>
</g>
<!-- Node11 -->
<g id="node11" class="node">
<title>Node11</title>
<g id="a_node11"><a xlink:href="parse_8h.html#a4df2d6a5cd30a4f3ca3a1283c7afaafa" target="_top" xlink:title="Parse a single float.">
<polygon fill="none" stroke="black" points="633.5,-215.85 633.5,-234.85 716.5,-234.85 716.5,-215.85 633.5,-215.85"/>
<text text-anchor="middle" x="675" y="-222.85" font-family="Helvetica,sans-Serif" font-size="10.00">ft_parse_float</text>
</a>
</g>
</g>
<!-- Node8&#45;&gt;Node11 -->
<g id="edge10" class="edge">
<title>Node8&#45;&gt;Node11</title>
<path fill="none" stroke="midnightblue" d="M369.85,-25.8C413.97,-9 512.36,20.31 578,-21.35 643.83,-63.12 665.34,-163.4 671.64,-205.84"/>
<polygon fill="midnightblue" stroke="midnightblue" points="668.17,-206.32 672.99,-215.75 675.11,-205.37 668.17,-206.32"/>
</g>
<!-- Node10 -->
<g id="node10" class="node">
<title>Node10</title>
<g id="a_node10"><a xlink:href="ft__strtod_8h.html#a0a1cbf0fef2bdcf6fde79c34014bc10e" target="_top" xlink:title="Converts a String to a double.">
<polygon fill="none" stroke="black" points="891,-253.85 891,-272.85 948,-272.85 948,-253.85 891,-253.85"/>
<text text-anchor="middle" x="919.5" y="-260.85" font-family="Helvetica,sans-Serif" font-size="10.00">ft_strtod</text>
</a>
</g>
</g>
<!-- Node9&#45;&gt;Node10 -->
<g id="edge9" class="edge">
<title>Node9&#45;&gt;Node10</title>
<path fill="none" stroke="midnightblue" d="M736.26,-263.35C781.39,-263.35 841.77,-263.35 880.41,-263.35"/>
<polygon fill="midnightblue" stroke="midnightblue" points="880.7,-266.85 890.7,-263.35 880.7,-259.85 880.7,-266.85"/>
</g>
<!-- Node11&#45;&gt;Node10 -->
<g id="edge11" class="edge">
<title>Node11&#45;&gt;Node10</title>
<path fill="none" stroke="midnightblue" d="M716.59,-231.71C762.4,-238.89 836.32,-250.47 880.88,-257.45"/>
<polygon fill="midnightblue" stroke="midnightblue" points="880.58,-260.95 891,-259.04 881.66,-254.03 880.58,-260.95"/>
</g>
<!-- Node12&#45;&gt;Node11 -->
<g id="edge14" class="edge">
<title>Node12&#45;&gt;Node11</title>
<path fill="none" stroke="midnightblue" d="M372.78,-139.83C416.74,-125.18 508.22,-101.66 578,-130.35 615.74,-145.86 646.53,-184.18 662.38,-207.13"/>
<polygon fill="midnightblue" stroke="midnightblue" points="659.6,-209.27 668.06,-215.65 665.42,-205.38 659.6,-209.27"/>
</g>
<!-- Node13 -->
<g id="node13" class="node">
<title>Node13</title>
<g id="a_node13"><a xlink:href="utils_8h.html#a7d1328722f9dc6edd652f7c732856ae9" target="_top" xlink:title="Transforms degrees into radian.">
<polygon fill="none" stroke="black" points="454.5,-139.85 454.5,-158.85 567.5,-158.85 567.5,-139.85 454.5,-139.85"/>
<text text-anchor="middle" x="511" y="-146.85" font-family="Helvetica,sans-Serif" font-size="10.00">ft_degree_to_radian</text>
</a>
</g>
</g>
<!-- Node12&#45;&gt;Node13 -->
<g id="edge13" class="edge">
<title>Node12&#45;&gt;Node13</title>
<path fill="none" stroke="midnightblue" d="M395.02,-149.35C410.42,-149.35 427.75,-149.35 444.19,-149.35"/>
<polygon fill="midnightblue" stroke="midnightblue" points="444.29,-152.85 454.29,-149.35 444.29,-145.85 444.29,-152.85"/>
</g>
<!-- Node14 -->
<g id="node14" class="node">
<title>Node14</title>
<g id="a_node14"><a xlink:href="parse_8h.html#ad1918f45b6a322a21c3541825b405eb6" target="_top" xlink:title="Parse values of a float block.">
<polygon fill="none" stroke="black" points="618,-291.85 618,-310.85 732,-310.85 732,-291.85 618,-291.85"/>
<text text-anchor="middle" x="675" y="-298.85" font-family="Helvetica,sans-Serif" font-size="10.00">ft_parse_float_block</text>
</a>
</g>
</g>
<!-- Node12&#45;&gt;Node14 -->
<g id="edge15" class="edge">
<title>Node12&#45;&gt;Node14</title>
<path fill="none" stroke="midnightblue" d="M353.44,-159.13C372.94,-188.59 430.79,-274.93 444,-282.35 493.74,-310.27 559.29,-313.01 607.69,-309.94"/>
<polygon fill="midnightblue" stroke="midnightblue" points="608.02,-313.43 617.74,-309.21 607.51,-306.45 608.02,-313.43"/>
</g>
<!-- Node15 -->
<g id="node15" class="node">
<title>Node15</title>
<g id="a_node15"><a xlink:href="parse__line_8c.html#a4df2d6a5cd30a4f3ca3a1283c7afaafa" target="_top" xlink:title="Parse a single float.">
<polygon fill="none" stroke="black" points="772,-291.85 772,-310.85 855,-310.85 855,-291.85 772,-291.85"/>
<text text-anchor="middle" x="813.5" y="-298.85" font-family="Helvetica,sans-Serif" font-size="10.00">ft_parse_float</text>
</a>
</g>
</g>
<!-- Node14&#45;&gt;Node15 -->
<g id="edge16" class="edge">
<title>Node14&#45;&gt;Node15</title>
<path fill="none" stroke="midnightblue" d="M732.31,-301.35C742.02,-301.35 752.06,-301.35 761.61,-301.35"/>
<polygon fill="midnightblue" stroke="midnightblue" points="761.75,-304.85 771.75,-301.35 761.75,-297.85 761.75,-304.85"/>
</g>
<!-- Node15&#45;&gt;Node10 -->
<g id="edge17" class="edge">
<title>Node15&#45;&gt;Node10</title>
<path fill="none" stroke="midnightblue" d="M840.74,-291.76C853.43,-287.12 868.85,-281.49 882.61,-276.46"/>
<polygon fill="midnightblue" stroke="midnightblue" points="884.07,-279.65 892.26,-272.93 881.67,-273.08 884.07,-279.65"/>
</g>
<!-- Node17 -->
<g id="node17" class="node">
<title>Node17</title>
<g id="a_node17"><a xlink:href="parse_8h.html#aa8d46dc12737db49e568b734cdbc614a" target="_top" xlink:title="Parse cylinder line.">
<polygon fill="none" stroke="black" points="461,-367.85 461,-386.85 561,-386.85 561,-367.85 461,-367.85"/>
<text text-anchor="middle" x="511" y="-374.85" font-family="Helvetica,sans-Serif" font-size="10.00">ft_parse_cylinder</text>
</a>
</g>
</g>
<!-- Node16&#45;&gt;Node17 -->
<g id="edge19" class="edge">
<title>Node16&#45;&gt;Node17</title>
<path fill="none" stroke="midnightblue" d="M388.13,-348.94C409.74,-353.97 436.41,-360.19 459.29,-365.52"/>
<polygon fill="midnightblue" stroke="midnightblue" points="458.63,-368.96 469.16,-367.83 460.22,-362.15 458.63,-368.96"/>
</g>
<!-- Node23 -->
<g id="node23" class="node">
<title>Node23</title>
<g id="a_node23"><a xlink:href="parse_8h.html#a64877aac0d88b33e1bb87b3c9a3496dc" target="_top" xlink:title="Parse plane line.">
<polygon fill="none" stroke="black" points="467,-405.85 467,-424.85 555,-424.85 555,-405.85 467,-405.85"/>
<text text-anchor="middle" x="511" y="-412.85" font-family="Helvetica,sans-Serif" font-size="10.00">ft_parse_plane</text>
</a>
</g>
</g>
<!-- Node16&#45;&gt;Node23 -->
<g id="edge29" class="edge">
<title>Node16&#45;&gt;Node23</title>
<path fill="none" stroke="midnightblue" d="M360.87,-349.02C379.18,-361.42 412.77,-382.93 444,-396.35 449.4,-398.67 455.18,-400.8 460.97,-402.73"/>
<polygon fill="midnightblue" stroke="midnightblue" points="460.1,-406.13 470.69,-405.78 462.2,-399.45 460.1,-406.13"/>
</g>
<!-- Node24 -->
<g id="node24" class="node">
<title>Node24</title>
<g id="a_node24"><a xlink:href="parse_8h.html#aa1379d0b3d46c0fd44da3298e17866cc" target="_top" xlink:title="Parse sphere line.">
<polygon fill="none" stroke="black" points="464,-215.85 464,-234.85 558,-234.85 558,-215.85 464,-215.85"/>
<text text-anchor="middle" x="511" y="-222.85" font-family="Helvetica,sans-Serif" font-size="10.00">ft_parse_sphere</text>
</a>
</g>
</g>
<!-- Node16&#45;&gt;Node24 -->
<g id="edge33" class="edge">
<title>Node16&#45;&gt;Node24</title>
<path fill="none" stroke="midnightblue" d="M357.99,-329.45C370.35,-318.23 390.93,-299.3 408,-282.35 424.51,-265.95 424.12,-256.43 444,-244.35 447.55,-242.19 451.36,-240.26 455.29,-238.55"/>
<polygon fill="midnightblue" stroke="midnightblue" points="456.57,-241.81 464.62,-234.93 454.03,-235.28 456.57,-241.81"/>
</g>
<!-- Node17&#45;&gt;Node9 -->
<g id="edge23" class="edge">
<title>Node17&#45;&gt;Node9</title>
<path fill="none" stroke="midnightblue" d="M561.26,-368.31C567.32,-365.77 573.09,-362.52 578,-358.35 606.48,-334.14 585.84,-306.92 614,-282.35 615.94,-280.65 618.04,-279.1 620.25,-277.7"/>
<polygon fill="midnightblue" stroke="midnightblue" points="622.01,-280.72 629.19,-272.92 618.72,-274.54 622.01,-280.72"/>
</g>
<!-- Node17&#45;&gt;Node11 -->
<g id="edge24" class="edge">
<title>Node17&#45;&gt;Node11</title>
<path fill="none" stroke="midnightblue" d="M561.15,-369.21C567.37,-366.54 573.22,-363.01 578,-358.35 616.05,-321.26 576.44,-281.93 614,-244.35 617,-241.35 620.47,-238.82 624.19,-236.69"/>
<polygon fill="midnightblue" stroke="midnightblue" points="625.71,-239.85 633.26,-232.41 622.72,-233.52 625.71,-239.85"/>
</g>
<!-- Node17&#45;&gt;Node14 -->
<g id="edge25" class="edge">
<title>Node17&#45;&gt;Node14</title>
<path fill="none" stroke="midnightblue" d="M557.38,-367.77C564.56,-365.28 571.68,-362.19 578,-358.35 597.88,-346.26 594.28,-332.7 614,-320.35 617.34,-318.25 620.93,-316.37 624.64,-314.69"/>
<polygon fill="midnightblue" stroke="midnightblue" points="626.06,-317.89 634.01,-310.88 623.43,-311.4 626.06,-317.89"/>
</g>
<!-- Node18 -->
<g id="node18" class="node">
<title>Node18</title>
<g id="a_node18"><a xlink:href="entities_8h.html#a04247c619f2a14a5a1fdb06004b8cb03" target="_top" xlink:title="Calculates the planes of the caps of a cylinder.">
<polygon fill="none" stroke="black" points="629,-329.85 629,-348.85 721,-348.85 721,-329.85 629,-329.85"/>
<text text-anchor="middle" x="675" y="-336.85" font-family="Helvetica,sans-Serif" font-size="10.00">ft_cy_calc_caps</text>
</a>
</g>
</g>
<!-- Node17&#45;&gt;Node18 -->
<g id="edge20" class="edge">
<title>Node17&#45;&gt;Node18</title>
<path fill="none" stroke="midnightblue" d="M552.88,-367.76C574.35,-362.72 600.86,-356.5 623.6,-351.17"/>
<polygon fill="midnightblue" stroke="midnightblue" points="624.48,-354.56 633.41,-348.87 622.88,-347.74 624.48,-354.56"/>
</g>
<!-- Node21 -->
<g id="node21" class="node">
<title>Node21</title>
<g id="a_node21"><a xlink:href="vec3_8h.html#a38fe500bd27847b866b9630146e43250" target="_top" xlink:title="Normalise a vector.">
<polygon fill="none" stroke="black" points="633.5,-367.85 633.5,-386.85 716.5,-386.85 716.5,-367.85 633.5,-367.85"/>
<text text-anchor="middle" x="675" y="-374.85" font-family="Helvetica,sans-Serif" font-size="10.00">ft_vec3_norm</text>
</a>
</g>
</g>
<!-- Node17&#45;&gt;Node21 -->
<g id="edge26" class="edge">
<title>Node17&#45;&gt;Node21</title>
<path fill="none" stroke="midnightblue" d="M561.04,-377.35C580.71,-377.35 603.37,-377.35 623.21,-377.35"/>
<polygon fill="midnightblue" stroke="midnightblue" points="623.3,-380.85 633.3,-377.35 623.3,-373.85 623.3,-380.85"/>
</g>
<!-- Node19 -->
<g id="node19" class="node">
<title>Node19</title>
<g id="a_node19"><a xlink:href="vec3_8h.html#a73e2caf4c2a51ed954b7349c6be2b3c3" target="_top" xlink:title="Add two vectors.">
<polygon fill="none" stroke="black" points="776,-329.85 776,-348.85 851,-348.85 851,-329.85 776,-329.85"/>
<text text-anchor="middle" x="813.5" y="-336.85" font-family="Helvetica,sans-Serif" font-size="10.00">ft_vec3_add</text>
</a>
</g>
</g>
<!-- Node18&#45;&gt;Node19 -->
<g id="edge21" class="edge">
<title>Node18&#45;&gt;Node19</title>
<path fill="none" stroke="midnightblue" d="M721.07,-339.35C735.32,-339.35 751.1,-339.35 765.48,-339.35"/>
<polygon fill="midnightblue" stroke="midnightblue" points="765.66,-342.85 775.66,-339.35 765.66,-335.85 765.66,-342.85"/>
</g>
<!-- Node20 -->
<g id="node20" class="node">
<title>Node20</title>
<g id="a_node20"><a xlink:href="vec3_8h.html#ac80a1c20941c96a8fafad255dac59092" target="_top" xlink:title="Scale a vector.">
<polygon fill="none" stroke="black" points="772,-405.85 772,-424.85 855,-424.85 855,-405.85 772,-405.85"/>
<text text-anchor="middle" x="813.5" y="-412.85" font-family="Helvetica,sans-Serif" font-size="10.00">ft_vec3_scale</text>
</a>
</g>
</g>
<!-- Node18&#45;&gt;Node20 -->
<g id="edge22" class="edge">
<title>Node18&#45;&gt;Node20</title>
<path fill="none" stroke="midnightblue" d="M715.99,-348.88C722.94,-351.4 729.89,-354.52 736,-358.35 755.72,-370.7 753.14,-382.72 772,-396.35 774.23,-397.95 776.61,-399.48 779.06,-400.92"/>
<polygon fill="midnightblue" stroke="midnightblue" points="777.64,-404.12 788.11,-405.71 780.91,-397.93 777.64,-404.12"/>
</g>
<!-- Node21&#45;&gt;Node20 -->
<g id="edge28" class="edge">
<title>Node21&#45;&gt;Node20</title>
<path fill="none" stroke="midnightblue" d="M710.44,-386.94C727.98,-391.82 749.51,-397.81 768.26,-403.03"/>
<polygon fill="midnightblue" stroke="midnightblue" points="767.49,-406.45 778.07,-405.76 769.37,-399.71 767.49,-406.45"/>
</g>
<!-- Node22 -->
<g id="node22" class="node">
<title>Node22</title>
<g id="a_node22"><a xlink:href="vec3__linalgebra_8c.html#aa84621bd979d3b12b97908f653faf88e" target="_top" xlink:title="Calculate the absolute value of a vector.">
<polygon fill="none" stroke="black" points="776.5,-367.85 776.5,-386.85 850.5,-386.85 850.5,-367.85 776.5,-367.85"/>
<text text-anchor="middle" x="813.5" y="-374.85" font-family="Helvetica,sans-Serif" font-size="10.00">ft_vec3_abs</text>
</a>
</g>
</g>
<!-- Node21&#45;&gt;Node22 -->
<g id="edge27" class="edge">
<title>Node21&#45;&gt;Node22</title>
<path fill="none" stroke="midnightblue" d="M716.58,-377.35C732.19,-377.35 750.11,-377.35 766.21,-377.35"/>
<polygon fill="midnightblue" stroke="midnightblue" points="766.48,-380.85 776.48,-377.35 766.48,-373.85 766.48,-380.85"/>
</g>
<!-- Node23&#45;&gt;Node9 -->
<g id="edge30" class="edge">
<title>Node23&#45;&gt;Node9</title>
<path fill="none" stroke="midnightblue" d="M555.06,-409.53C563.5,-406.69 571.68,-402.51 578,-396.35 616.05,-359.26 576.44,-319.93 614,-282.35 615.45,-280.9 617.01,-279.56 618.65,-278.32"/>
<polygon fill="midnightblue" stroke="midnightblue" points="620.75,-281.14 627.47,-272.95 617.11,-275.16 620.75,-281.14"/>
</g>
<!-- Node23&#45;&gt;Node14 -->
<g id="edge31" class="edge">
<title>Node23&#45;&gt;Node14</title>
<path fill="none" stroke="midnightblue" d="M555.14,-408.63C563.38,-405.84 571.46,-401.91 578,-396.35 606.48,-372.14 585.84,-344.92 614,-320.35 615.94,-318.65 618.04,-317.1 620.25,-315.7"/>
<polygon fill="midnightblue" stroke="midnightblue" points="622.01,-318.72 629.19,-310.92 618.72,-312.54 622.01,-318.72"/>
</g>
<!-- Node23&#45;&gt;Node21 -->
<g id="edge32" class="edge">
<title>Node23&#45;&gt;Node21</title>
<path fill="none" stroke="midnightblue" d="M552.88,-405.76C574.35,-400.72 600.86,-394.5 623.6,-389.17"/>
<polygon fill="midnightblue" stroke="midnightblue" points="624.48,-392.56 633.41,-386.87 622.88,-385.74 624.48,-392.56"/>
</g>
<!-- Node24&#45;&gt;Node9 -->
<g id="edge34" class="edge">
<title>Node24&#45;&gt;Node9</title>
<path fill="none" stroke="midnightblue" d="M552.88,-234.94C574.35,-239.97 600.86,-246.19 623.6,-251.52"/>
<polygon fill="midnightblue" stroke="midnightblue" points="622.88,-254.95 633.41,-253.83 624.48,-248.14 622.88,-254.95"/>
</g>
<!-- Node24&#45;&gt;Node11 -->
<g id="edge35" class="edge">
<title>Node24&#45;&gt;Node11</title>
<path fill="none" stroke="midnightblue" d="M558.42,-225.35C578.66,-225.35 602.44,-225.35 623.15,-225.35"/>
<polygon fill="midnightblue" stroke="midnightblue" points="623.35,-228.85 633.35,-225.35 623.35,-221.85 623.35,-228.85"/>
</g>
<!-- Node24&#45;&gt;Node14 -->
<g id="edge36" class="edge">
<title>Node24&#45;&gt;Node14</title>
<path fill="none" stroke="midnightblue" d="M557.38,-234.93C564.56,-237.41 571.68,-240.51 578,-244.35 597.88,-256.43 594.28,-270 614,-282.35 617.34,-284.44 620.93,-286.32 624.64,-288.01"/>
<polygon fill="midnightblue" stroke="midnightblue" points="623.43,-291.29 634.01,-291.81 626.06,-284.81 623.43,-291.29"/>
</g>
<!-- Node25&#45;&gt;Node9 -->
<g id="edge38" class="edge">
<title>Node25&#45;&gt;Node9</title>
<path fill="none" stroke="midnightblue" d="M527.55,-83.03C542.51,-93.12 564.76,-110.24 578,-130.35 607.21,-174.73 576.44,-206.76 614,-244.35 615.45,-245.8 617.01,-247.13 618.65,-248.37"/>
<polygon fill="midnightblue" stroke="midnightblue" points="617.11,-251.53 627.47,-253.74 620.75,-245.55 617.11,-251.53"/>
</g>
<!-- Node25&#45;&gt;Node11 -->
<g id="edge39" class="edge">
<title>Node25&#45;&gt;Node11</title>
<path fill="none" stroke="midnightblue" d="M549.86,-82.9C559.6,-86.45 569.68,-91.17 578,-97.35 618.54,-127.41 649.89,-179.27 664.68,-206.85"/>
<polygon fill="midnightblue" stroke="midnightblue" points="661.63,-208.58 669.36,-215.83 667.84,-205.34 661.63,-208.58"/>
</g>
<!-- Node25&#45;&gt;Node14 -->
<g id="edge40" class="edge">
<title>Node25&#45;&gt;Node14</title>
<path fill="none" stroke="midnightblue" d="M528.15,-83.02C543.36,-92.98 565.59,-109.9 578,-130.35 614.02,-189.7 566.76,-231.47 614,-282.35 615.23,-283.67 616.54,-284.9 617.94,-286.04"/>
<polygon fill="midnightblue" stroke="midnightblue" points="616.32,-289.17 626.6,-291.71 620.15,-283.31 616.32,-289.17"/>
</g>
<!-- Node26&#45;&gt;Node8 -->
<g id="edge42" class="edge">
<title>Node26&#45;&gt;Node8</title>
<path fill="none" stroke="midnightblue" d="M200.25,-101.79C220.16,-90.92 254,-72.93 284,-59.35 292.12,-55.67 300.99,-51.99 309.38,-48.67"/>
<polygon fill="midnightblue" stroke="midnightblue" points="310.89,-51.83 318.94,-44.94 308.35,-45.31 310.89,-51.83"/>
</g>
<!-- Node26&#45;&gt;Node12 -->
<g id="edge43" class="edge">
<title>Node26&#45;&gt;Node12</title>
<path fill="none" stroke="midnightblue" d="M223.88,-120.94C245.35,-125.97 271.86,-132.19 294.6,-137.52"/>
<polygon fill="midnightblue" stroke="midnightblue" points="293.88,-140.95 304.41,-139.83 295.48,-134.14 293.88,-140.95"/>
</g>
<!-- Node26&#45;&gt;Node25 -->
<g id="edge67" class="edge">
<title>Node26&#45;&gt;Node25</title>
<path fill="none" stroke="midnightblue" d="M241.71,-102.89C255.56,-100.98 270.29,-99.02 284,-97.35 344.08,-89.99 413.3,-82.84 459.14,-78.28"/>
<polygon fill="midnightblue" stroke="midnightblue" points="459.52,-81.76 469.13,-77.29 458.83,-74.79 459.52,-81.76"/>
</g>
<!-- Node27 -->
<g id="node27" class="node">
<title>Node27</title>
<g id="a_node27"><a xlink:href="parse__bonus_8c.html#a65db4c46c2af2d9b570687b3a1458f15" target="_top" xlink:title=" ">
<polygon fill="none" stroke="black" points="284,-253.85 284,-272.85 408,-272.85 408,-253.85 284,-253.85"/>
<text text-anchor="middle" x="346" y="-260.85" font-family="Helvetica,sans-Serif" font-size="10.00">ft_parse_entity_bonus</text>
</a>
</g>
</g>
<!-- Node26&#45;&gt;Node27 -->
<g id="edge44" class="edge">
<title>Node26&#45;&gt;Node27</title>
<path fill="none" stroke="midnightblue" d="M229.83,-120.96C236.25,-123.41 242.52,-126.49 248,-130.35 270.35,-146.05 313.4,-212.44 333.78,-245.08"/>
<polygon fill="midnightblue" stroke="midnightblue" points="330.86,-247.02 339.11,-253.68 336.81,-243.33 330.86,-247.02"/>
</g>
<!-- Node28 -->
<g id="node28" class="node">
<title>Node28</title>
<g id="a_node28"><a xlink:href="parse__bonus_8h.html#a0ee220aca489e16d423c754b9d88e2dd" target="_top" xlink:title="Parse cone line.">
<polygon fill="none" stroke="black" points="451.5,-443.85 451.5,-462.85 570.5,-462.85 570.5,-443.85 451.5,-443.85"/>
<text text-anchor="middle" x="511" y="-450.85" font-family="Helvetica,sans-Serif" font-size="10.00">ft_parse_cone_bonus</text>
</a>
</g>
</g>
<!-- Node27&#45;&gt;Node28 -->
<g id="edge45" class="edge">
<title>Node27&#45;&gt;Node28</title>
<path fill="none" stroke="midnightblue" d="M360.82,-272.91C374.64,-283.15 395.55,-300.61 408,-320.35 436.34,-365.29 405.95,-397.26 444,-434.35 445.47,-435.78 447.05,-437.11 448.7,-438.34"/>
<polygon fill="midnightblue" stroke="midnightblue" points="447.19,-441.51 457.56,-443.7 450.81,-435.52 447.19,-441.51"/>
</g>
<!-- Node29 -->
<g id="node29" class="node">
<title>Node29</title>
<g id="a_node29"><a xlink:href="parse__bonus_8h.html#a30041bb98ced6caf1debb5468bfb6ad4" target="_top" xlink:title="Parse cylinder line.">
<polygon fill="none" stroke="black" points="444,-329.85 444,-348.85 578,-348.85 578,-329.85 444,-329.85"/>
<text text-anchor="middle" x="511" y="-336.85" font-family="Helvetica,sans-Serif" font-size="10.00">ft_parse_cylinder_bonus</text>
</a>
</g>
</g>
<!-- Node27&#45;&gt;Node29 -->
<g id="edge52" class="edge">
<title>Node27&#45;&gt;Node29</title>
<path fill="none" stroke="midnightblue" d="M363.12,-272.91C382.08,-283.94 414.7,-302.24 444,-315.35 452.75,-319.26 462.34,-323.03 471.44,-326.38"/>
<polygon fill="midnightblue" stroke="midnightblue" points="470.46,-329.74 481.06,-329.83 472.83,-323.16 470.46,-329.74"/>
</g>
<!-- Node30 -->
<g id="node30" class="node">
<title>Node30</title>
<g id="a_node30"><a xlink:href="parse__bonus_8h.html#a672a980c7d877d0d42971cd811541bd4" target="_top" xlink:title="Parse plane line.">
<polygon fill="none" stroke="black" points="450,-253.85 450,-272.85 572,-272.85 572,-253.85 450,-253.85"/>
<text text-anchor="middle" x="511" y="-260.85" font-family="Helvetica,sans-Serif" font-size="10.00">ft_parse_plane_bonus</text>
</a>
</g>
</g>
<!-- Node27&#45;&gt;Node30 -->
<g id="edge58" class="edge">
<title>Node27&#45;&gt;Node30</title>
<path fill="none" stroke="midnightblue" d="M408.16,-263.35C418.5,-263.35 429.3,-263.35 439.84,-263.35"/>
<polygon fill="midnightblue" stroke="midnightblue" points="439.85,-266.85 449.85,-263.35 439.85,-259.85 439.85,-266.85"/>
</g>
<!-- Node31 -->
<g id="node31" class="node">
<title>Node31</title>
<g id="a_node31"><a xlink:href="parse__bonus_8h.html#a756cf4a5c0b85e0c22b8fd64423850ec" target="_top" xlink:title="Parse sphere line.">
<polygon fill="none" stroke="black" points="447,-177.85 447,-196.85 575,-196.85 575,-177.85 447,-177.85"/>
<text text-anchor="middle" x="511" y="-184.85" font-family="Helvetica,sans-Serif" font-size="10.00">ft_parse_sphere_bonus</text>
</a>
</g>
</g>
<!-- Node27&#45;&gt;Node31 -->
<g id="edge63" class="edge">
<title>Node27&#45;&gt;Node31</title>
<path fill="none" stroke="midnightblue" d="M360.87,-253.68C379.18,-241.27 412.77,-219.76 444,-206.35 449.4,-204.02 455.18,-201.89 460.97,-199.96"/>
<polygon fill="midnightblue" stroke="midnightblue" points="462.2,-203.24 470.69,-196.91 460.1,-196.57 462.2,-203.24"/>
</g>
<!-- Node28&#45;&gt;Node9 -->
<g id="edge46" class="edge">
<title>Node28&#45;&gt;Node9</title>
<path fill="none" stroke="midnightblue" d="M565.05,-443.82C569.86,-441.34 574.3,-438.23 578,-434.35 625.9,-384.1 566.76,-333.22 614,-282.35 615.23,-281.03 616.54,-279.8 617.94,-278.65"/>
<polygon fill="midnightblue" stroke="midnightblue" points="620.15,-281.38 626.6,-272.98 616.32,-275.53 620.15,-281.38"/>
</g>
<!-- Node28&#45;&gt;Node11 -->
<g id="edge47" class="edge">
<title>Node28&#45;&gt;Node11</title>
<path fill="none" stroke="midnightblue" d="M565.55,-443.82C570.2,-441.33 574.47,-438.22 578,-434.35 635.88,-370.81 556.96,-308.64 614,-244.35 616.9,-241.08 620.35,-238.37 624.11,-236.13"/>
<polygon fill="midnightblue" stroke="midnightblue" points="625.86,-239.17 633.35,-231.68 622.82,-232.86 625.86,-239.17"/>
</g>
<!-- Node28&#45;&gt;Node14 -->
<g id="edge48" class="edge">
<title>Node28&#45;&gt;Node14</title>
<path fill="none" stroke="midnightblue" d="M564.44,-443.7C569.43,-441.24 574.07,-438.17 578,-434.35 616.05,-397.26 576.44,-357.93 614,-320.35 615.45,-318.9 617.01,-317.56 618.65,-316.32"/>
<polygon fill="midnightblue" stroke="midnightblue" points="620.75,-319.14 627.47,-310.95 617.11,-313.16 620.75,-319.14"/>
</g>
<!-- Node28&#45;&gt;Node19 -->
<g id="edge49" class="edge">
<title>Node28&#45;&gt;Node19</title>
<path fill="none" stroke="midnightblue" d="M551.78,-443.83C613.97,-428.87 727.98,-401.06 736,-396.35 756.06,-384.57 753.14,-371.97 772,-358.35 774.23,-356.74 776.61,-355.21 779.06,-353.78"/>
<polygon fill="midnightblue" stroke="midnightblue" points="780.91,-356.76 788.11,-348.99 777.64,-350.57 780.91,-356.76"/>
</g>
<!-- Node28&#45;&gt;Node20 -->
<g id="edge51" class="edge">
<title>Node28&#45;&gt;Node20</title>
<path fill="none" stroke="midnightblue" d="M570.63,-448.27C615.91,-444.05 680.07,-437.45 736,-429.35 744.36,-428.14 753.19,-426.68 761.78,-425.17"/>
<polygon fill="midnightblue" stroke="midnightblue" points="762.48,-428.61 771.7,-423.39 761.24,-421.72 762.48,-428.61"/>
</g>
<!-- Node28&#45;&gt;Node21 -->
<g id="edge50" class="edge">
<title>Node28&#45;&gt;Node21</title>
<path fill="none" stroke="midnightblue" d="M555.76,-443.85C563.42,-441.32 571.14,-438.2 578,-434.35 596.93,-423.73 595.62,-412.9 614,-401.35 620.33,-397.36 627.44,-393.83 634.48,-390.78"/>
<polygon fill="midnightblue" stroke="midnightblue" points="636.03,-393.93 643.98,-386.92 633.39,-387.44 636.03,-393.93"/>
</g>
<!-- Node29&#45;&gt;Node9 -->
<g id="edge54" class="edge">
<title>Node29&#45;&gt;Node9</title>
<path fill="none" stroke="midnightblue" d="M527.06,-329.65C546.53,-317.41 581.79,-296.28 614,-282.35 619.08,-280.15 624.49,-278.08 629.91,-276.17"/>
<polygon fill="midnightblue" stroke="midnightblue" points="631.24,-279.42 639.61,-272.92 629.01,-272.78 631.24,-279.42"/>
</g>
<!-- Node29&#45;&gt;Node11 -->
<g id="edge55" class="edge">
<title>Node29&#45;&gt;Node11</title>
<path fill="none" stroke="midnightblue" d="M524,-329.6C537.47,-318.52 559.82,-299.7 578,-282.35 594.82,-266.28 594.28,-256.7 614,-244.35 617.34,-242.25 620.93,-240.37 624.64,-238.69"/>
<polygon fill="midnightblue" stroke="midnightblue" points="626.06,-241.89 634.01,-234.88 623.43,-235.4 626.06,-241.89"/>
</g>
<!-- Node29&#45;&gt;Node14 -->
<g id="edge56" class="edge">
<title>Node29&#45;&gt;Node14</title>
<path fill="none" stroke="midnightblue" d="M552.88,-329.76C574.35,-324.72 600.86,-318.5 623.6,-313.17"/>
<polygon fill="midnightblue" stroke="midnightblue" points="624.48,-316.56 633.41,-310.87 622.88,-309.74 624.48,-316.56"/>
</g>
<!-- Node29&#45;&gt;Node18 -->
<g id="edge53" class="edge">
<title>Node29&#45;&gt;Node18</title>
<path fill="none" stroke="midnightblue" d="M578.36,-339.35C591.73,-339.35 605.66,-339.35 618.61,-339.35"/>
<polygon fill="midnightblue" stroke="midnightblue" points="618.76,-342.85 628.76,-339.35 618.76,-335.85 618.76,-342.85"/>
</g>
<!-- Node29&#45;&gt;Node21 -->
<g id="edge57" class="edge">
<title>Node29&#45;&gt;Node21</title>
<path fill="none" stroke="midnightblue" d="M552.88,-348.94C574.35,-353.97 600.86,-360.19 623.6,-365.52"/>
<polygon fill="midnightblue" stroke="midnightblue" points="622.88,-368.95 633.41,-367.83 624.48,-362.14 622.88,-368.95"/>
</g>
<!-- Node30&#45;&gt;Node9 -->
<g id="edge59" class="edge">
<title>Node30&#45;&gt;Node9</title>
<path fill="none" stroke="midnightblue" d="M572.32,-263.35C582.51,-263.35 593.17,-263.35 603.58,-263.35"/>
<polygon fill="midnightblue" stroke="midnightblue" points="603.9,-266.85 613.9,-263.35 603.9,-259.85 603.9,-266.85"/>
</g>
<!-- Node30&#45;&gt;Node11 -->
<g id="edge60" class="edge">
<title>Node30&#45;&gt;Node11</title>
<path fill="none" stroke="midnightblue" d="M552.88,-253.76C574.35,-248.72 600.86,-242.5 623.6,-237.17"/>
<polygon fill="midnightblue" stroke="midnightblue" points="624.48,-240.56 633.41,-234.87 622.88,-233.74 624.48,-240.56"/>
</g>
<!-- Node30&#45;&gt;Node14 -->
<g id="edge61" class="edge">
<title>Node30&#45;&gt;Node14</title>
<path fill="none" stroke="midnightblue" d="M552.88,-272.94C574.35,-277.97 600.86,-284.19 623.6,-289.52"/>
<polygon fill="midnightblue" stroke="midnightblue" points="622.88,-292.95 633.41,-291.83 624.48,-286.14 622.88,-292.95"/>
</g>
<!-- Node30&#45;&gt;Node21 -->
<g id="edge62" class="edge">
<title>Node30&#45;&gt;Node21</title>
<path fill="none" stroke="midnightblue" d="M524,-273.09C537.47,-284.17 559.82,-302.99 578,-320.35 594.82,-336.41 594.28,-346 614,-358.35 617.34,-360.44 620.93,-362.32 624.64,-364.01"/>
<polygon fill="midnightblue" stroke="midnightblue" points="623.43,-367.29 634.01,-367.81 626.06,-360.81 623.43,-367.29"/>
</g>
<!-- Node31&#45;&gt;Node9 -->
<g id="edge64" class="edge">
<title>Node31&#45;&gt;Node9</title>
<path fill="none" stroke="midnightblue" d="M557.38,-196.93C564.56,-199.41 571.68,-202.51 578,-206.35 597.88,-218.43 594.28,-232 614,-244.35 617.34,-246.44 620.93,-248.32 624.64,-250.01"/>
<polygon fill="midnightblue" stroke="midnightblue" points="623.43,-253.29 634.01,-253.81 626.06,-246.81 623.43,-253.29"/>
</g>
<!-- Node31&#45;&gt;Node11 -->
<g id="edge65" class="edge">
<title>Node31&#45;&gt;Node11</title>
<path fill="none" stroke="midnightblue" d="M552.88,-196.94C574.35,-201.97 600.86,-208.19 623.6,-213.52"/>
<polygon fill="midnightblue" stroke="midnightblue" points="622.88,-216.95 633.41,-215.83 624.48,-210.14 622.88,-216.95"/>
</g>
<!-- Node31&#45;&gt;Node14 -->
<g id="edge66" class="edge">
<title>Node31&#45;&gt;Node14</title>
<path fill="none" stroke="midnightblue" d="M562.61,-196.96C568.17,-199.41 573.46,-202.49 578,-206.35 606.48,-230.55 585.84,-257.77 614,-282.35 615.94,-284.04 618.04,-285.59 620.25,-287"/>
<polygon fill="midnightblue" stroke="midnightblue" points="618.72,-290.15 629.19,-291.77 622.01,-283.97 618.72,-290.15"/>
</g>
</g>
</svg>
