<?xml version="1.0" encoding="UTF-8" standalone="no"?>
<!DOCTYPE svg PUBLIC "-//W3C//DTD SVG 1.1//EN"
 "http://www.w3.org/Graphics/SVG/1.1/DTD/svg11.dtd">
<!-- Generated by graphviz version 2.43.0 (0)
 -->
<!-- Title: ft_parse_cylinder Pages: 1 -->
<svg width="509pt" height="218pt"
 viewBox="0.00 0.00 509.00 218.00" xmlns="http://www.w3.org/2000/svg" xmlns:xlink="http://www.w3.org/1999/xlink">
<g id="graph0" class="graph" transform="scale(1 1) rotate(0) translate(4 214)">
<title>ft_parse_cylinder</title>
<!-- Node1 -->
<g id="node1" class="node">
<title>Node1</title>
<g id="a_node1"><a xlink:title="Parse cylinder line.">
<polygon fill="#bfbfbf" stroke="black" points="0,-95.5 0,-114.5 100,-114.5 100,-95.5 0,-95.5"/>
<text text-anchor="middle" x="50" y="-102.5" font-family="Helvetica,sans-Serif" font-size="10.00">ft_parse_cylinder</text>
</a>
</g>
</g>
<!-- Node2 -->
<g id="node2" class="node">
<title>Node2</title>
<g id="a_node2"><a xlink:href="parse_8h.html#a2bb654728a666a68ad6b6627cd27e918" target="_top" xlink:title="Parses values of a rgb colour block.">
<polygon fill="none" stroke="black" points="286,-190.5 286,-209.5 408,-209.5 408,-190.5 286,-190.5"/>
<text text-anchor="middle" x="347" y="-197.5" font-family="Helvetica,sans-Serif" font-size="10.00">ft_parse_colour_block</text>
</a>
</g>
</g>
<!-- Node1&#45;&gt;Node2 -->
<g id="edge1" class="edge">
<title>Node1&#45;&gt;Node2</title>
<path fill="none" stroke="midnightblue" d="M58.16,-114.56C71.39,-131.41 101.5,-166.01 136,-181 179.73,-200 233.33,-204.59 275.43,-204.5"/>
<polygon fill="midnightblue" stroke="midnightblue" points="275.64,-208 285.6,-204.39 275.56,-201 275.64,-208"/>
</g>
<!-- Node4 -->
<g id="node4" class="node">
<title>Node4</title>
<g id="a_node4"><a xlink:href="parse_8h.html#a4df2d6a5cd30a4f3ca3a1283c7afaafa" target="_top" xlink:title="Parse a single float.">
<polygon fill="none" stroke="black" points="151.5,-152.5 151.5,-171.5 234.5,-171.5 234.5,-152.5 151.5,-152.5"/>
<text text-anchor="middle" x="193" y="-159.5" font-family="Helvetica,sans-Serif" font-size="10.00">ft_parse_float</text>
</a>
</g>
</g>
<!-- Node1&#45;&gt;Node4 -->
<g id="edge3" class="edge">
<title>Node1&#45;&gt;Node4</title>
<path fill="none" stroke="midnightblue" d="M71.04,-114.6C88.12,-122.62 113.43,-134.15 136,-143 141.26,-145.06 146.84,-147.11 152.37,-149.07"/>
<polygon fill="midnightblue" stroke="midnightblue" points="151.57,-152.5 162.17,-152.45 153.86,-145.88 151.57,-152.5"/>
</g>
<!-- Node5 -->
<g id="node5" class="node">
<title>Node5</title>
<g id="a_node5"><a xlink:href="parse_8h.html#ad1918f45b6a322a21c3541825b405eb6" target="_top" xlink:title="Parse values of a float block.">
<polygon fill="none" stroke="black" points="136,-114.5 136,-133.5 250,-133.5 250,-114.5 136,-114.5"/>
<text text-anchor="middle" x="193" y="-121.5" font-family="Helvetica,sans-Serif" font-size="10.00">ft_parse_float_block</text>
</a>
</g>
</g>
<!-- Node1&#45;&gt;Node5 -->
<g id="edge5" class="edge">
<title>Node1&#45;&gt;Node5</title>
<path fill="none" stroke="midnightblue" d="M100.31,-111.65C108.53,-112.75 117.18,-113.92 125.74,-115.07"/>
<polygon fill="midnightblue" stroke="midnightblue" points="125.34,-118.55 135.72,-116.42 126.27,-111.61 125.34,-118.55"/>
</g>
<!-- Node7 -->
<g id="node7" class="node">
<title>Node7</title>
<g id="a_node7"><a xlink:href="vec3_8h.html#a73e2caf4c2a51ed954b7349c6be2b3c3" target="_top" xlink:title="Add two vectors.">
<polygon fill="none" stroke="black" points="155.5,-76.5 155.5,-95.5 230.5,-95.5 230.5,-76.5 155.5,-76.5"/>
<text text-anchor="middle" x="193" y="-83.5" font-family="Helvetica,sans-Serif" font-size="10.00">ft_vec3_add</text>
</a>
</g>
</g>
<!-- Node1&#45;&gt;Node7 -->
<g id="edge8" class="edge">
<title>Node1&#45;&gt;Node7</title>
<path fill="none" stroke="midnightblue" d="M100.31,-98.35C114.89,-96.39 130.79,-94.25 145.19,-92.31"/>
<polygon fill="midnightblue" stroke="midnightblue" points="145.94,-95.74 155.38,-90.93 145,-88.8 145.94,-95.74"/>
</g>
<!-- Node8 -->
<g id="node8" class="node">
<title>Node8</title>
<g id="a_node8"><a xlink:href="vec3_8h.html#a38fe500bd27847b866b9630146e43250" target="_top" xlink:title="Normalise a vector.">
<polygon fill="none" stroke="black" points="151.5,-38.5 151.5,-57.5 234.5,-57.5 234.5,-38.5 151.5,-38.5"/>
<text text-anchor="middle" x="193" y="-45.5" font-family="Helvetica,sans-Serif" font-size="10.00">ft_vec3_norm</text>
</a>
</g>
</g>
<!-- Node1&#45;&gt;Node8 -->
<g id="edge9" class="edge">
<title>Node1&#45;&gt;Node8</title>
<path fill="none" stroke="midnightblue" d="M71.04,-95.4C88.12,-87.38 113.43,-75.85 136,-67 141.26,-64.94 146.84,-62.89 152.37,-60.93"/>
<polygon fill="midnightblue" stroke="midnightblue" points="153.86,-64.12 162.17,-57.55 151.57,-57.5 153.86,-64.12"/>
</g>
<!-- Node10 -->
<g id="node10" class="node">
<title>Node10</title>
<g id="a_node10"><a xlink:href="vec3_8h.html#ac80a1c20941c96a8fafad255dac59092" target="_top" xlink:title="Scale a vector.">
<polygon fill="none" stroke="black" points="305.5,-0.5 305.5,-19.5 388.5,-19.5 388.5,-0.5 305.5,-0.5"/>
<text text-anchor="middle" x="347" y="-7.5" font-family="Helvetica,sans-Serif" font-size="10.00">ft_vec3_scale</text>
</a>
</g>
</g>
<!-- Node1&#45;&gt;Node10 -->
<g id="edge12" class="edge">
<title>Node1&#45;&gt;Node10</title>
<path fill="none" stroke="midnightblue" d="M58.16,-95.44C71.39,-78.59 101.5,-43.99 136,-29 186.98,-6.85 251.35,-4.29 295.3,-5.88"/>
<polygon fill="midnightblue" stroke="midnightblue" points="295.32,-9.38 305.46,-6.33 295.63,-2.39 295.32,-9.38"/>
</g>
<!-- Node3 -->
<g id="node3" class="node">
<title>Node3</title>
<g id="a_node3"><a xlink:href="ft__strtod_8h.html#a0a1cbf0fef2bdcf6fde79c34014bc10e" target="_top" xlink:title="Converts a String to a double.">
<polygon fill="none" stroke="black" points="444,-152.5 444,-171.5 501,-171.5 501,-152.5 444,-152.5"/>
<text text-anchor="middle" x="472.5" y="-159.5" font-family="Helvetica,sans-Serif" font-size="10.00">ft_strtod</text>
</a>
</g>
</g>
<!-- Node2&#45;&gt;Node3 -->
<g id="edge2" class="edge">
<title>Node2&#45;&gt;Node3</title>
<path fill="none" stroke="midnightblue" d="M379.16,-190.41C395.77,-185.3 416.32,-178.98 433.82,-173.59"/>
<polygon fill="midnightblue" stroke="midnightblue" points="435.19,-176.83 443.72,-170.55 433.13,-170.14 435.19,-176.83"/>
</g>
<!-- Node4&#45;&gt;Node3 -->
<g id="edge4" class="edge">
<title>Node4&#45;&gt;Node3</title>
<path fill="none" stroke="midnightblue" d="M234.65,-162C288.17,-162 381.56,-162 433.64,-162"/>
<polygon fill="midnightblue" stroke="midnightblue" points="433.8,-165.5 443.8,-162 433.8,-158.5 433.8,-165.5"/>
</g>
<!-- Node6 -->
<g id="node6" class="node">
<title>Node6</title>
<g id="a_node6"><a xlink:href="parse__line_8c.html#a4df2d6a5cd30a4f3ca3a1283c7afaafa" target="_top" xlink:title="Parse a single float.">
<polygon fill="none" stroke="black" points="305.5,-114.5 305.5,-133.5 388.5,-133.5 388.5,-114.5 305.5,-114.5"/>
<text text-anchor="middle" x="347" y="-121.5" font-family="Helvetica,sans-Serif" font-size="10.00">ft_parse_float</text>
</a>
</g>
</g>
<!-- Node5&#45;&gt;Node6 -->
<g id="edge6" class="edge">
<title>Node5&#45;&gt;Node6</title>
<path fill="none" stroke="midnightblue" d="M250.17,-124C264.87,-124 280.63,-124 295.04,-124"/>
<polygon fill="midnightblue" stroke="midnightblue" points="295.26,-127.5 305.26,-124 295.26,-120.5 295.26,-127.5"/>
</g>
<!-- Node6&#45;&gt;Node3 -->
<g id="edge7" class="edge">
<title>Node6&#45;&gt;Node3</title>
<path fill="none" stroke="midnightblue" d="M379.16,-133.59C395.77,-138.7 416.32,-145.02 433.82,-150.41"/>
<polygon fill="midnightblue" stroke="midnightblue" points="433.13,-153.86 443.72,-153.45 435.19,-147.17 433.13,-153.86"/>
</g>
<!-- Node9 -->
<g id="node9" class="node">
<title>Node9</title>
<g id="a_node9"><a xlink:href="vec3__linalgebra_8c.html#aa84621bd979d3b12b97908f653faf88e" target="_top" xlink:title="Calculate the absolute value of a vector.">
<polygon fill="none" stroke="black" points="310,-38.5 310,-57.5 384,-57.5 384,-38.5 310,-38.5"/>
<text text-anchor="middle" x="347" y="-45.5" font-family="Helvetica,sans-Serif" font-size="10.00">ft_vec3_abs</text>
</a>
</g>
</g>
<!-- Node8&#45;&gt;Node9 -->
<g id="edge10" class="edge">
<title>Node8&#45;&gt;Node9</title>
<path fill="none" stroke="midnightblue" d="M234.73,-48C254.74,-48 278.95,-48 299.66,-48"/>
<polygon fill="midnightblue" stroke="midnightblue" points="299.82,-51.5 309.82,-48 299.82,-44.5 299.82,-51.5"/>
</g>
<!-- Node8&#45;&gt;Node10 -->
<g id="edge11" class="edge">
<title>Node8&#45;&gt;Node10</title>
<path fill="none" stroke="midnightblue" d="M232.36,-38.41C252.32,-33.42 276.93,-27.27 298.13,-21.97"/>
<polygon fill="midnightblue" stroke="midnightblue" points="299.07,-25.34 307.92,-19.52 297.37,-18.55 299.07,-25.34"/>
</g>
</g>
</svg>
