<?xml version="1.0" encoding="UTF-8" standalone="no"?>
<!DOCTYPE svg PUBLIC "-//W3C//DTD SVG 1.1//EN"
 "http://www.w3.org/Graphics/SVG/1.1/DTD/svg11.dtd">
<!-- Generated by graphviz version 2.43.0 (0)
 -->
<!-- Title: src/parse_bonus.c Pages: 1 -->
<!--zoomable 476 -->
<svg id="main" version="1.1" xmlns="http://www.w3.org/2000/svg" xmlns:xlink="http://www.w3.org/1999/xlink" xml:space="preserve" onload="init(evt)">
<style type="text/css"><![CDATA[
.edge:hover path { stroke: red; }
.edge:hover polygon { stroke: red; fill: red; }
]]></style>
<script type="text/javascript"><![CDATA[
var edges = document.getElementsByTagName('g');
if (edges && edges.length) {
  for (var i=0;i<edges.length;i++) {
    if (edges[i].id.substr(0,4)=='edge') {
      edges[i].setAttribute('class','edge');
    }
  }
}
]]></script>
        <defs>
                <circle id="rim" cx="0" cy="0" r="7"/>
                <circle id="rim2" cx="0" cy="0" r="3.5"/>
                <g id="zoomPlus">
                        <use xlink:href="#rim" fill="#404040">
                                <set attributeName="fill" to="#808080" begin="zoomplus.mouseover" end="zoomplus.mouseout"/>
                        </use>
                        <path d="M-4,0h8M0,-4v8" fill="none" stroke="white" stroke-width="1.5" pointer-events="none"/>
                </g>
                <g id="zoomMin">
                        <use xlink:href="#rim" fill="#404040">
                                <set attributeName="fill" to="#808080" begin="zoomminus.mouseover" end="zoomminus.mouseout"/>
                        </use>
                        <path d="M-4,0h8" fill="none" stroke="white" stroke-width="1.5" pointer-events="none"/>
                </g>
                <g id="dirArrow">
                        <path fill="none" stroke="white" stroke-width="1.5" d="M0,-3.0v7 M-2.5,-0.5L0,-3.0L2.5,-0.5"/>
                </g>
               <g id="resetDef">
                       <use xlink:href="#rim2" fill="#404040">
                               <set attributeName="fill" to="#808080" begin="reset.mouseover" end="reset.mouseout"/>
                       </use>
               </g>
        </defs>

<script type="text/javascript">
var viewWidth = 667;
var viewHeight = 476;
var sectionId = 'dynsection-0';
</script>
<script xlink:href="svgpan.js"/>
<svg id="graph" class="graph">
<g id="viewport">
<title>src/parse_bonus.c</title>
<!-- Node1 -->
<g id="node1" class="node">
<title>Node1</title>
<g id="a_node1"><a xlink:title=" ">
<polygon fill="#bfbfbf" stroke="black" points="331,-448.5 331,-467.5 435,-467.5 435,-448.5 331,-448.5"/>
<text text-anchor="middle" x="383" y="-455.5" font-family="Helvetica,sans-Serif" font-size="10.00">src/parse_bonus.c</text>
</a>
</g>
</g>
<!-- Node2 -->
<g id="node2" class="node">
<title>Node2</title>
<g id="a_node2"><a xlink:href="parse__bonus_8h.html" target="_top" xlink:title=" ">
<polygon fill="none" stroke="black" points="339.5,-392.5 339.5,-411.5 426.5,-411.5 426.5,-392.5 339.5,-392.5"/>
<text text-anchor="middle" x="383" y="-399.5" font-family="Helvetica,sans-Serif" font-size="10.00">parse_bonus.h</text>
</a>
</g>
</g>
<!-- Node1&#45;&gt;Node2 -->
<g id="edge1" class="edge">
<title>Node1&#45;&gt;Node2</title>
<path fill="none" stroke="midnightblue" d="M383,-448.08C383,-441.01 383,-430.86 383,-421.99"/>
<polygon fill="midnightblue" stroke="midnightblue" points="386.5,-421.75 383,-411.75 379.5,-421.75 386.5,-421.75"/>
</g>
<!-- Node3 -->
<g id="node3" class="node">
<title>Node3</title>
<g id="a_node3"><a xlink:href="parse_8h.html" target="_top" xlink:title=" ">
<polygon fill="none" stroke="black" points="329.5,-336.5 329.5,-355.5 382.5,-355.5 382.5,-336.5 329.5,-336.5"/>
<text text-anchor="middle" x="356" y="-343.5" font-family="Helvetica,sans-Serif" font-size="10.00">parse.h</text>
</a>
</g>
</g>
<!-- Node2&#45;&gt;Node3 -->
<g id="edge2" class="edge">
<title>Node2&#45;&gt;Node3</title>
<path fill="none" stroke="midnightblue" d="M378.54,-392.08C374.85,-384.69 369.48,-373.95 364.91,-364.81"/>
<polygon fill="midnightblue" stroke="midnightblue" points="367.98,-363.13 360.38,-355.75 361.72,-366.26 367.98,-363.13"/>
</g>
<!-- Node22 -->
<g id="node22" class="node">
<title>Node22</title>
<g id="a_node22"><a xlink:href="entities__bonus_8h.html" target="_top" xlink:title=" ">
<polygon fill="none" stroke="black" points="478.5,-280.5 478.5,-299.5 575.5,-299.5 575.5,-280.5 478.5,-280.5"/>
<text text-anchor="middle" x="527" y="-287.5" font-family="Helvetica,sans-Serif" font-size="10.00">entities_bonus.h</text>
</a>
</g>
</g>
<!-- Node2&#45;&gt;Node22 -->
<g id="edge36" class="edge">
<title>Node2&#45;&gt;Node22</title>
<path fill="none" stroke="midnightblue" d="M394.3,-392.37C418.8,-373.65 477.06,-329.15 507.58,-305.83"/>
<polygon fill="midnightblue" stroke="midnightblue" points="509.93,-308.44 515.75,-299.59 505.68,-302.88 509.93,-308.44"/>
</g>
<!-- Node4 -->
<g id="node4" class="node">
<title>Node4</title>
<g id="a_node4"><a xlink:title=" ">
<polygon fill="none" stroke="#bfbfbf" points="334,-280.5 334,-299.5 378,-299.5 378,-280.5 334,-280.5"/>
<text text-anchor="middle" x="356" y="-287.5" font-family="Helvetica,sans-Serif" font-size="10.00">libft.h</text>
</a>
</g>
</g>
<!-- Node3&#45;&gt;Node4 -->
<g id="edge3" class="edge">
<title>Node3&#45;&gt;Node4</title>
<path fill="none" stroke="midnightblue" d="M356,-336.08C356,-329.01 356,-318.86 356,-309.99"/>
<polygon fill="midnightblue" stroke="midnightblue" points="359.5,-309.75 356,-299.75 352.5,-309.75 359.5,-309.75"/>
</g>
<!-- Node5 -->
<g id="node5" class="node">
<title>Node5</title>
<g id="a_node5"><a xlink:href="error__syscall_8h.html" target="_top" xlink:title=" ">
<polygon fill="none" stroke="black" points="116,-224.5 116,-243.5 204,-243.5 204,-224.5 116,-224.5"/>
<text text-anchor="middle" x="160" y="-231.5" font-family="Helvetica,sans-Serif" font-size="10.00">error_syscall.h</text>
</a>
</g>
</g>
<!-- Node3&#45;&gt;Node5 -->
<g id="edge4" class="edge">
<title>Node3&#45;&gt;Node5</title>
<path fill="none" stroke="midnightblue" d="M329.06,-336.36C305.98,-328.43 272.26,-315.57 245,-300 219.72,-285.56 193.55,-264.45 177.04,-250.24"/>
<polygon fill="midnightblue" stroke="midnightblue" points="179.18,-247.46 169.35,-243.51 174.57,-252.73 179.18,-247.46"/>
</g>
<!-- Node11 -->
<g id="node11" class="node">
<title>Node11</title>
<g id="a_node11"><a xlink:href="cleanup_8h.html" target="_top" xlink:title=" ">
<polygon fill="none" stroke="black" points="396,-280.5 396,-299.5 460,-299.5 460,-280.5 396,-280.5"/>
<text text-anchor="middle" x="428" y="-287.5" font-family="Helvetica,sans-Serif" font-size="10.00">cleanup.h</text>
</a>
</g>
</g>
<!-- Node3&#45;&gt;Node11 -->
<g id="edge10" class="edge">
<title>Node3&#45;&gt;Node11</title>
<path fill="none" stroke="midnightblue" d="M367.57,-336.32C378.42,-328.18 394.88,-315.84 407.88,-306.09"/>
<polygon fill="midnightblue" stroke="midnightblue" points="410.32,-308.63 416.22,-299.83 406.12,-303.03 410.32,-308.63"/>
</g>
<!-- Node13 -->
<g id="node13" class="node">
<title>Node13</title>
<g id="a_node13"><a xlink:href="ft__strtod_8h.html" target="_top" xlink:title=" ">
<polygon fill="none" stroke="black" points="0,-168.5 0,-187.5 66,-187.5 66,-168.5 0,-168.5"/>
<text text-anchor="middle" x="33" y="-175.5" font-family="Helvetica,sans-Serif" font-size="10.00">ft_strtod.h</text>
</a>
</g>
</g>
<!-- Node3&#45;&gt;Node13 -->
<g id="edge12" class="edge">
<title>Node3&#45;&gt;Node13</title>
<path fill="none" stroke="midnightblue" d="M329.26,-338.37C299.75,-330.66 251.1,-316.83 211,-300 162.59,-279.68 150.11,-273.96 107,-244 85.64,-229.15 63.53,-209 49.11,-195.08"/>
<polygon fill="midnightblue" stroke="midnightblue" points="51.16,-192.2 41.57,-187.7 46.27,-197.2 51.16,-192.2"/>
</g>
<!-- Node16 -->
<g id="node16" class="node">
<title>Node16</title>
<g id="a_node16"><a xlink:href="camera_8h.html" target="_top" xlink:title=" ">
<polygon fill="none" stroke="black" points="254,-280.5 254,-299.5 316,-299.5 316,-280.5 254,-280.5"/>
<text text-anchor="middle" x="285" y="-287.5" font-family="Helvetica,sans-Serif" font-size="10.00">camera.h</text>
</a>
</g>
</g>
<!-- Node3&#45;&gt;Node16 -->
<g id="edge16" class="edge">
<title>Node3&#45;&gt;Node16</title>
<path fill="none" stroke="midnightblue" d="M344.59,-336.32C333.89,-328.18 317.66,-315.84 304.84,-306.09"/>
<polygon fill="midnightblue" stroke="midnightblue" points="306.69,-303.1 296.61,-299.83 302.46,-308.67 306.69,-303.1"/>
</g>
<!-- Node3&#45;&gt;Node22 -->
<g id="edge27" class="edge">
<title>Node3&#45;&gt;Node22</title>
<path fill="none" stroke="midnightblue" d="M382.72,-336.56C411.66,-327.42 458.02,-312.78 490.36,-302.57"/>
<polygon fill="midnightblue" stroke="midnightblue" points="491.42,-305.91 499.9,-299.56 489.31,-299.23 491.42,-305.91"/>
</g>
<!-- Node6 -->
<g id="node6" class="node">
<title>Node6</title>
<g id="a_node6"><a xlink:title=" ">
<polygon fill="none" stroke="#bfbfbf" points="189.5,-168.5 189.5,-187.5 236.5,-187.5 236.5,-168.5 189.5,-168.5"/>
<text text-anchor="middle" x="213" y="-175.5" font-family="Helvetica,sans-Serif" font-size="10.00">fcntl.h</text>
</a>
</g>
</g>
<!-- Node5&#45;&gt;Node6 -->
<g id="edge5" class="edge">
<title>Node5&#45;&gt;Node6</title>
<path fill="none" stroke="midnightblue" d="M168.75,-224.08C176.47,-216.22 187.9,-204.57 197.22,-195.08"/>
<polygon fill="midnightblue" stroke="midnightblue" points="199.9,-197.34 204.41,-187.75 194.91,-192.44 199.9,-197.34"/>
</g>
<!-- Node7 -->
<g id="node7" class="node">
<title>Node7</title>
<g id="a_node7"><a xlink:href="mini_r_t__error_8h.html" target="_top" xlink:title=" ">
<polygon fill="none" stroke="black" points="84.5,-168.5 84.5,-187.5 171.5,-187.5 171.5,-168.5 84.5,-168.5"/>
<text text-anchor="middle" x="128" y="-175.5" font-family="Helvetica,sans-Serif" font-size="10.00">miniRT_error.h</text>
</a>
</g>
</g>
<!-- Node5&#45;&gt;Node7 -->
<g id="edge6" class="edge">
<title>Node5&#45;&gt;Node7</title>
<path fill="none" stroke="midnightblue" d="M154.72,-224.08C150.29,-216.61 143.84,-205.72 138.38,-196.52"/>
<polygon fill="midnightblue" stroke="midnightblue" points="141.29,-194.57 133.19,-187.75 135.27,-198.14 141.29,-194.57"/>
</g>
<!-- Node8 -->
<g id="node8" class="node">
<title>Node8</title>
<g id="a_node8"><a xlink:title=" ">
<polygon fill="none" stroke="#bfbfbf" points="226,-112.5 226,-131.5 276,-131.5 276,-112.5 226,-112.5"/>
<text text-anchor="middle" x="251" y="-119.5" font-family="Helvetica,sans-Serif" font-size="10.00">stdio.h</text>
</a>
</g>
</g>
<!-- Node7&#45;&gt;Node8 -->
<g id="edge7" class="edge">
<title>Node7&#45;&gt;Node8</title>
<path fill="none" stroke="midnightblue" d="M147.49,-168.44C167.64,-159.6 199.32,-145.69 222.33,-135.59"/>
<polygon fill="midnightblue" stroke="midnightblue" points="223.85,-138.74 231.6,-131.52 221.04,-132.33 223.85,-138.74"/>
</g>
<!-- Node9 -->
<g id="node9" class="node">
<title>Node9</title>
<g id="a_node9"><a xlink:title=" ">
<polygon fill="none" stroke="#bfbfbf" points="91.5,-112.5 91.5,-131.5 142.5,-131.5 142.5,-112.5 91.5,-112.5"/>
<text text-anchor="middle" x="117" y="-119.5" font-family="Helvetica,sans-Serif" font-size="10.00">errno.h</text>
</a>
</g>
</g>
<!-- Node7&#45;&gt;Node9 -->
<g id="edge8" class="edge">
<title>Node7&#45;&gt;Node9</title>
<path fill="none" stroke="midnightblue" d="M126.18,-168.08C124.73,-160.93 122.63,-150.64 120.81,-141.69"/>
<polygon fill="midnightblue" stroke="midnightblue" points="124.21,-140.85 118.78,-131.75 117.35,-142.25 124.21,-140.85"/>
</g>
<!-- Node10 -->
<g id="node10" class="node">
<title>Node10</title>
<g id="a_node10"><a xlink:title=" ">
<polygon fill="none" stroke="#bfbfbf" points="160.5,-112.5 160.5,-131.5 207.5,-131.5 207.5,-112.5 160.5,-112.5"/>
<text text-anchor="middle" x="184" y="-119.5" font-family="Helvetica,sans-Serif" font-size="10.00">ft_fd.h</text>
</a>
</g>
</g>
<!-- Node7&#45;&gt;Node10 -->
<g id="edge9" class="edge">
<title>Node7&#45;&gt;Node10</title>
<path fill="none" stroke="midnightblue" d="M137,-168.32C145.19,-160.42 157.51,-148.55 167.47,-138.94"/>
<polygon fill="midnightblue" stroke="midnightblue" points="170.07,-141.29 174.84,-131.83 165.21,-136.26 170.07,-141.29"/>
</g>
<!-- Node12 -->
<g id="node12" class="node">
<title>Node12</title>
<g id="a_node12"><a xlink:title=" ">
<polygon fill="none" stroke="#bfbfbf" points="495.5,-168.5 495.5,-187.5 548.5,-187.5 548.5,-168.5 495.5,-168.5"/>
<text text-anchor="middle" x="522" y="-175.5" font-family="Helvetica,sans-Serif" font-size="10.00">stdlib.h</text>
</a>
</g>
</g>
<!-- Node11&#45;&gt;Node12 -->
<g id="edge11" class="edge">
<title>Node11&#45;&gt;Node12</title>
<path fill="none" stroke="midnightblue" d="M448.03,-280.48C463.6,-272.94 484.7,-260.56 498,-244 508.82,-230.53 515.05,-211.72 518.44,-197.8"/>
<polygon fill="midnightblue" stroke="midnightblue" points="521.89,-198.39 520.58,-187.87 515.05,-196.91 521.89,-198.39"/>
</g>
<!-- Node13&#45;&gt;Node8 -->
<g id="edge13" class="edge">
<title>Node13&#45;&gt;Node8</title>
<path fill="none" stroke="midnightblue" d="M66.29,-169.06C101.23,-160.68 158.03,-146.94 216.06,-132.21"/>
<polygon fill="midnightblue" stroke="midnightblue" points="216.93,-135.6 225.76,-129.74 215.21,-128.81 216.93,-135.6"/>
</g>
<!-- Node14 -->
<g id="node14" class="node">
<title>Node14</title>
<g id="a_node14"><a xlink:title=" ">
<polygon fill="none" stroke="#bfbfbf" points="351.5,-0.5 351.5,-19.5 402.5,-19.5 402.5,-0.5 351.5,-0.5"/>
<text text-anchor="middle" x="377" y="-7.5" font-family="Helvetica,sans-Serif" font-size="10.00">math.h</text>
</a>
</g>
</g>
<!-- Node13&#45;&gt;Node14 -->
<g id="edge14" class="edge">
<title>Node13&#45;&gt;Node14</title>
<path fill="none" stroke="midnightblue" d="M24.15,-168.28C11.84,-155.07 -7.5,-129.67 6,-112 47.15,-58.15 256.45,-26.18 341.25,-15.26"/>
<polygon fill="midnightblue" stroke="midnightblue" points="341.94,-18.7 351.42,-13.98 341.06,-11.76 341.94,-18.7"/>
</g>
<!-- Node15 -->
<g id="node15" class="node">
<title>Node15</title>
<g id="a_node15"><a xlink:title=" ">
<polygon fill="none" stroke="#bfbfbf" points="15,-112.5 15,-131.5 73,-131.5 73,-112.5 15,-112.5"/>
<text text-anchor="middle" x="44" y="-119.5" font-family="Helvetica,sans-Serif" font-size="10.00">ft_char.h</text>
</a>
</g>
</g>
<!-- Node13&#45;&gt;Node15 -->
<g id="edge15" class="edge">
<title>Node13&#45;&gt;Node15</title>
<path fill="none" stroke="midnightblue" d="M34.82,-168.08C36.27,-160.93 38.37,-150.64 40.19,-141.69"/>
<polygon fill="midnightblue" stroke="midnightblue" points="43.65,-142.25 42.22,-131.75 36.79,-140.85 43.65,-142.25"/>
</g>
<!-- Node16&#45;&gt;Node5 -->
<g id="edge21" class="edge">
<title>Node16&#45;&gt;Node5</title>
<path fill="none" stroke="midnightblue" d="M265.19,-280.44C244.71,-271.6 212.52,-257.69 189.14,-247.59"/>
<polygon fill="midnightblue" stroke="midnightblue" points="190.28,-244.27 179.71,-243.52 187.51,-250.7 190.28,-244.27"/>
</g>
<!-- Node17 -->
<g id="node17" class="node">
<title>Node17</title>
<g id="a_node17"><a xlink:href="vec2_8h.html" target="_top" xlink:title=" ">
<polygon fill="none" stroke="black" points="260.5,-224.5 260.5,-243.5 309.5,-243.5 309.5,-224.5 260.5,-224.5"/>
<text text-anchor="middle" x="285" y="-231.5" font-family="Helvetica,sans-Serif" font-size="10.00">vec2.h</text>
</a>
</g>
</g>
<!-- Node16&#45;&gt;Node17 -->
<g id="edge17" class="edge">
<title>Node16&#45;&gt;Node17</title>
<path fill="none" stroke="midnightblue" d="M285,-280.08C285,-273.01 285,-262.86 285,-253.99"/>
<polygon fill="midnightblue" stroke="midnightblue" points="288.5,-253.75 285,-243.75 281.5,-253.75 288.5,-253.75"/>
</g>
<!-- Node18 -->
<g id="node18" class="node">
<title>Node18</title>
<g id="a_node18"><a xlink:href="vec3_8h.html" target="_top" xlink:title=" ">
<polygon fill="none" stroke="black" points="443.5,-56.5 443.5,-75.5 492.5,-75.5 492.5,-56.5 443.5,-56.5"/>
<text text-anchor="middle" x="468" y="-63.5" font-family="Helvetica,sans-Serif" font-size="10.00">vec3.h</text>
</a>
</g>
</g>
<!-- Node16&#45;&gt;Node18 -->
<g id="edge18" class="edge">
<title>Node16&#45;&gt;Node18</title>
<path fill="none" stroke="midnightblue" d="M316.26,-281.69C367.18,-269.72 462.65,-246.96 465,-244 484.01,-220.08 475.3,-126.53 470.46,-85.95"/>
<polygon fill="midnightblue" stroke="midnightblue" points="473.91,-85.3 469.2,-75.81 466.96,-86.16 473.91,-85.3"/>
</g>
<!-- Node20 -->
<g id="node20" class="node">
<title>Node20</title>
<g id="a_node20"><a xlink:href="utils_8h.html" target="_top" xlink:title=" ">
<polygon fill="none" stroke="black" points="391.5,-112.5 391.5,-131.5 438.5,-131.5 438.5,-112.5 391.5,-112.5"/>
<text text-anchor="middle" x="415" y="-119.5" font-family="Helvetica,sans-Serif" font-size="10.00">utils.h</text>
</a>
</g>
</g>
<!-- Node16&#45;&gt;Node20 -->
<g id="edge22" class="edge">
<title>Node16&#45;&gt;Node20</title>
<path fill="none" stroke="midnightblue" d="M275.07,-280.48C261.73,-267.95 240.92,-243.9 252,-224 279.56,-174.5 342.51,-146.18 381.62,-132.75"/>
<polygon fill="midnightblue" stroke="midnightblue" points="382.85,-136.03 391.25,-129.58 380.66,-129.38 382.85,-136.03"/>
</g>
<!-- Node21 -->
<g id="node21" class="node">
<title>Node21</title>
<g id="a_node21"><a xlink:href="mini_r_t__config__bonus_8h.html" target="_top" xlink:title=" ">
<polygon fill="none" stroke="black" points="328,-224.5 328,-243.5 456,-243.5 456,-224.5 328,-224.5"/>
<text text-anchor="middle" x="392" y="-231.5" font-family="Helvetica,sans-Serif" font-size="10.00">miniRT_config_bonus.h</text>
</a>
</g>
</g>
<!-- Node16&#45;&gt;Node21 -->
<g id="edge26" class="edge">
<title>Node16&#45;&gt;Node21</title>
<path fill="none" stroke="midnightblue" d="M302.19,-280.32C319.35,-271.66 345.95,-258.24 365.75,-248.25"/>
<polygon fill="midnightblue" stroke="midnightblue" points="367.5,-251.28 374.85,-243.65 364.35,-245.04 367.5,-251.28"/>
</g>
<!-- Node18&#45;&gt;Node14 -->
<g id="edge19" class="edge">
<title>Node18&#45;&gt;Node14</title>
<path fill="none" stroke="midnightblue" d="M453.38,-56.32C439.05,-47.82 416.99,-34.73 400.25,-24.8"/>
<polygon fill="midnightblue" stroke="midnightblue" points="401.97,-21.75 391.58,-19.65 398.4,-27.77 401.97,-21.75"/>
</g>
<!-- Node19 -->
<g id="node19" class="node">
<title>Node19</title>
<g id="a_node19"><a xlink:title=" ">
<polygon fill="none" stroke="#bfbfbf" points="437,-0.5 437,-19.5 499,-19.5 499,-0.5 437,-0.5"/>
<text text-anchor="middle" x="468" y="-7.5" font-family="Helvetica,sans-Serif" font-size="10.00">stdbool.h</text>
</a>
</g>
</g>
<!-- Node18&#45;&gt;Node19 -->
<g id="edge20" class="edge">
<title>Node18&#45;&gt;Node19</title>
<path fill="none" stroke="midnightblue" d="M468,-56.08C468,-49.01 468,-38.86 468,-29.99"/>
<polygon fill="midnightblue" stroke="midnightblue" points="471.5,-29.75 468,-19.75 464.5,-29.75 471.5,-29.75"/>
</g>
<!-- Node20&#45;&gt;Node14 -->
<g id="edge23" class="edge">
<title>Node20&#45;&gt;Node14</title>
<path fill="none" stroke="midnightblue" d="M412.02,-112.37C405.86,-94.54 391.61,-53.3 383.31,-29.27"/>
<polygon fill="midnightblue" stroke="midnightblue" points="386.54,-27.9 379.97,-19.59 379.93,-30.19 386.54,-27.9"/>
</g>
<!-- Node20&#45;&gt;Node18 -->
<g id="edge25" class="edge">
<title>Node20&#45;&gt;Node18</title>
<path fill="none" stroke="midnightblue" d="M423.75,-112.08C431.47,-104.22 442.9,-92.57 452.22,-83.08"/>
<polygon fill="midnightblue" stroke="midnightblue" points="454.9,-85.34 459.41,-75.75 449.91,-80.44 454.9,-85.34"/>
</g>
<!-- Node20&#45;&gt;Node19 -->
<g id="edge24" class="edge">
<title>Node20&#45;&gt;Node19</title>
<path fill="none" stroke="midnightblue" d="M416.72,-112.24C419.45,-99.41 425.46,-74.99 435,-56 440.05,-45.96 447.3,-35.77 453.72,-27.64"/>
<polygon fill="midnightblue" stroke="midnightblue" points="456.58,-29.67 460.22,-19.72 451.17,-25.23 456.58,-29.67"/>
</g>
<!-- Node23 -->
<g id="node23" class="node">
<title>Node23</title>
<g id="a_node23"><a xlink:href="entities_8h.html" target="_top" xlink:title=" ">
<polygon fill="none" stroke="black" points="563,-224.5 563,-243.5 625,-243.5 625,-224.5 563,-224.5"/>
<text text-anchor="middle" x="594" y="-231.5" font-family="Helvetica,sans-Serif" font-size="10.00">entities.h</text>
</a>
</g>
</g>
<!-- Node22&#45;&gt;Node23 -->
<g id="edge28" class="edge">
<title>Node22&#45;&gt;Node23</title>
<path fill="none" stroke="midnightblue" d="M537.76,-280.32C547.77,-272.26 562.89,-260.08 574.93,-250.37"/>
<polygon fill="midnightblue" stroke="midnightblue" points="577.45,-252.83 583.04,-243.83 573.06,-247.38 577.45,-252.83"/>
</g>
<!-- Node23&#45;&gt;Node12 -->
<g id="edge30" class="edge">
<title>Node23&#45;&gt;Node12</title>
<path fill="none" stroke="midnightblue" d="M582.43,-224.32C571.58,-216.18 555.12,-203.84 542.12,-194.09"/>
<polygon fill="midnightblue" stroke="midnightblue" points="543.88,-191.03 533.78,-187.83 539.68,-196.63 543.88,-191.03"/>
</g>
<!-- Node23&#45;&gt;Node18 -->
<g id="edge31" class="edge">
<title>Node23&#45;&gt;Node18</title>
<path fill="none" stroke="midnightblue" d="M604.44,-224.24C613.42,-215.97 625.75,-202.66 631,-188 636.49,-172.68 643.88,-129.93 630,-112 614.48,-91.96 545.45,-78.4 502.67,-71.75"/>
<polygon fill="midnightblue" stroke="midnightblue" points="503.07,-68.27 492.66,-70.25 502.03,-75.19 503.07,-68.27"/>
</g>
<!-- Node23&#45;&gt;Node19 -->
<g id="edge29" class="edge">
<title>Node23&#45;&gt;Node19</title>
<path fill="none" stroke="midnightblue" d="M610.33,-224.39C622.96,-216.72 639.5,-204.21 647,-188 661.19,-157.35 664.03,-141.17 647,-112 617.37,-61.26 551.79,-34.01 508.78,-21.02"/>
<polygon fill="midnightblue" stroke="midnightblue" points="509.74,-17.65 499.16,-18.24 507.8,-24.38 509.74,-17.65"/>
</g>
<!-- Node24 -->
<g id="node24" class="node">
<title>Node24</title>
<g id="a_node24"><a xlink:href="colour_8h.html" target="_top" xlink:title=" ">
<polygon fill="none" stroke="black" points="566.5,-168.5 566.5,-187.5 621.5,-187.5 621.5,-168.5 566.5,-168.5"/>
<text text-anchor="middle" x="594" y="-175.5" font-family="Helvetica,sans-Serif" font-size="10.00">colour.h</text>
</a>
</g>
</g>
<!-- Node23&#45;&gt;Node24 -->
<g id="edge32" class="edge">
<title>Node23&#45;&gt;Node24</title>
<path fill="none" stroke="midnightblue" d="M594,-224.08C594,-217.01 594,-206.86 594,-197.99"/>
<polygon fill="midnightblue" stroke="midnightblue" points="597.5,-197.75 594,-187.75 590.5,-197.75 597.5,-197.75"/>
</g>
<!-- Node24&#45;&gt;Node8 -->
<g id="edge33" class="edge">
<title>Node24&#45;&gt;Node8</title>
<path fill="none" stroke="midnightblue" d="M566.15,-169.75C563.41,-169.12 560.65,-168.52 558,-168 460.24,-148.67 343.46,-133.78 286.2,-127"/>
<polygon fill="midnightblue" stroke="midnightblue" points="286.55,-123.52 276.22,-125.83 285.74,-130.47 286.55,-123.52"/>
</g>
<!-- Node24&#45;&gt;Node20 -->
<g id="edge35" class="edge">
<title>Node24&#45;&gt;Node20</title>
<path fill="none" stroke="midnightblue" d="M566.42,-168.68C534.7,-159.11 482.6,-143.39 448.55,-133.12"/>
<polygon fill="midnightblue" stroke="midnightblue" points="449.19,-129.66 438.6,-130.12 447.17,-136.36 449.19,-129.66"/>
</g>
<!-- Node25 -->
<g id="node25" class="node">
<title>Node25</title>
<g id="a_node25"><a xlink:title=" ">
<polygon fill="none" stroke="#bfbfbf" points="567.5,-112.5 567.5,-131.5 620.5,-131.5 620.5,-112.5 567.5,-112.5"/>
<text text-anchor="middle" x="594" y="-119.5" font-family="Helvetica,sans-Serif" font-size="10.00">stdint.h</text>
</a>
</g>
</g>
<!-- Node24&#45;&gt;Node25 -->
<g id="edge34" class="edge">
<title>Node24&#45;&gt;Node25</title>
<path fill="none" stroke="midnightblue" d="M594,-168.08C594,-161.01 594,-150.86 594,-141.99"/>
<polygon fill="midnightblue" stroke="midnightblue" points="597.5,-141.75 594,-131.75 590.5,-141.75 597.5,-141.75"/>
</g>
</g>
</svg>
        <g id="navigator" transform="translate(0 0)" fill="#404254">
                <rect fill="#f2f5e9" fill-opacity="0.5" stroke="#606060" stroke-width=".5" x="0" y="0" width="60" height="60"/>
                <use id="zoomplus" xlink:href="#zoomPlus" x="17" y="9" onmousedown="handleZoom(evt,'in')"/>
                <use id="zoomminus" xlink:href="#zoomMin" x="42" y="9" onmousedown="handleZoom(evt,'out')"/>
                <use id="reset" xlink:href="#resetDef" x="30" y="36" onmousedown="handleReset()"/>
                <g id="arrowUp" xlink:href="#dirArrow" transform="translate(30 24)" onmousedown="handlePan(0,-1)">
                  <use xlink:href="#rim" fill="#404040">
                        <set attributeName="fill" to="#808080" begin="arrowUp.mouseover" end="arrowUp.mouseout"/>
                  </use>
                  <path fill="none" stroke="white" stroke-width="1.5" d="M0,-3.0v7 M-2.5,-0.5L0,-3.0L2.5,-0.5"/>
                </g>
                <g id="arrowRight" xlink:href="#dirArrow" transform="rotate(90) translate(36 -43)" onmousedown="handlePan(1,0)">
                  <use xlink:href="#rim" fill="#404040">
                        <set attributeName="fill" to="#808080" begin="arrowRight.mouseover" end="arrowRight.mouseout"/>
                  </use>
                  <path fill="none" stroke="white" stroke-width="1.5" d="M0,-3.0v7 M-2.5,-0.5L0,-3.0L2.5,-0.5"/>
                </g>
                <g id="arrowDown" xlink:href="#dirArrow" transform="rotate(180) translate(-30 -48)" onmousedown="handlePan(0,1)">
                  <use xlink:href="#rim" fill="#404040">
                        <set attributeName="fill" to="#808080" begin="arrowDown.mouseover" end="arrowDown.mouseout"/>
                  </use>
                  <path fill="none" stroke="white" stroke-width="1.5" d="M0,-3.0v7 M-2.5,-0.5L0,-3.0L2.5,-0.5"/>
                </g>
                <g id="arrowLeft" xlink:href="#dirArrow" transform="rotate(270) translate(-36 17)" onmousedown="handlePan(-1,0)">
                  <use xlink:href="#rim" fill="#404040">
                        <set attributeName="fill" to="#808080" begin="arrowLeft.mouseover" end="arrowLeft.mouseout"/>
                  </use>
                  <path fill="none" stroke="white" stroke-width="1.5" d="M0,-3.0v7 M-2.5,-0.5L0,-3.0L2.5,-0.5"/>
                </g>
        </g>
        <svg viewBox="0 0 15 15" width="100%" height="30px" preserveAspectRatio="xMaxYMin meet">
         <g id="arrow_out" transform="scale(0.3 0.3)">
          <a xlink:href="parse__bonus_8c__incl_org.svg" target="_base">
           <rect id="button" ry="5" rx="5" y="6" x="6" height="38" width="38"
                fill="#f2f5e9" fill-opacity="0.5" stroke="#606060" stroke-width="1.0"/>
           <path id="arrow"
             d="M 11.500037,31.436501 C 11.940474,20.09759 22.043105,11.32322 32.158766,21.979434 L 37.068811,17.246167 C 37.068811,17.246167 37.088388,32 37.088388,32 L 22.160133,31.978069 C 22.160133,31.978069 26.997745,27.140456 26.997745,27.140456 C 18.528582,18.264221 13.291696,25.230495 11.500037,31.436501 z"
             style="fill:#404040;"/>
          </a>
         </g>
        </svg>
</svg>
