<?xml version="1.0" encoding="UTF-8" standalone="no"?>
<!DOCTYPE svg PUBLIC "-//W3C//DTD SVG 1.1//EN"
 "http://www.w3.org/Graphics/SVG/1.1/DTD/svg11.dtd">
<!-- Generated by graphviz version 2.43.0 (0)
 -->
<!-- Title: inc/ray_bonus.h Pages: 1 -->
<svg width="558pt" height="308pt"
 viewBox="0.00 0.00 558.10 308.00" xmlns="http://www.w3.org/2000/svg" xmlns:xlink="http://www.w3.org/1999/xlink">
<g id="graph0" class="graph" transform="scale(1 1) rotate(0) translate(4 304)">
<title>inc/ray_bonus.h</title>
<!-- Node1 -->
<g id="node1" class="node">
<title>Node1</title>
<g id="a_node1"><a xlink:title=" ">
<polygon fill="#bfbfbf" stroke="black" points="126.6,-280.5 126.6,-299.5 219.6,-299.5 219.6,-280.5 126.6,-280.5"/>
<text text-anchor="middle" x="173.1" y="-287.5" font-family="Helvetica,sans-Serif" font-size="10.00">inc/ray_bonus.h</text>
</a>
</g>
</g>
<!-- Node2 -->
<g id="node2" class="node">
<title>Node2</title>
<g id="a_node2"><a xlink:href="entities__bonus_8h.html" target="_top" xlink:title=" ">
<polygon fill="none" stroke="black" points="86.6,-224.5 86.6,-243.5 183.6,-243.5 183.6,-224.5 86.6,-224.5"/>
<text text-anchor="middle" x="135.1" y="-231.5" font-family="Helvetica,sans-Serif" font-size="10.00">entities_bonus.h</text>
</a>
</g>
</g>
<!-- Node1&#45;&gt;Node2 -->
<g id="edge1" class="edge">
<title>Node1&#45;&gt;Node2</title>
<path fill="none" stroke="midnightblue" d="M166.82,-280.08C161.46,-272.46 153.58,-261.26 147.02,-251.94"/>
<polygon fill="midnightblue" stroke="midnightblue" points="149.87,-249.91 141.26,-243.75 144.15,-253.94 149.87,-249.91"/>
</g>
<!-- Node12 -->
<g id="node12" class="node">
<title>Node12</title>
<g id="a_node12"><a xlink:href="camera_8h.html" target="_top" xlink:title=" ">
<polygon fill="none" stroke="black" points="316.1,-168.5 316.1,-187.5 378.1,-187.5 378.1,-168.5 316.1,-168.5"/>
<text text-anchor="middle" x="347.1" y="-175.5" font-family="Helvetica,sans-Serif" font-size="10.00">camera.h</text>
</a>
</g>
</g>
<!-- Node1&#45;&gt;Node12 -->
<g id="edge16" class="edge">
<title>Node1&#45;&gt;Node12</title>
<path fill="none" stroke="midnightblue" d="M186.75,-280.37C216.74,-261.41 288.57,-216 325.04,-192.94"/>
<polygon fill="midnightblue" stroke="midnightblue" points="326.93,-195.89 333.51,-187.59 323.19,-189.98 326.93,-195.89"/>
</g>
<!-- Node3 -->
<g id="node3" class="node">
<title>Node3</title>
<g id="a_node3"><a xlink:title=" ">
<polygon fill="none" stroke="#bfbfbf" points="100.1,-0.5 100.1,-19.5 162.1,-19.5 162.1,-0.5 100.1,-0.5"/>
<text text-anchor="middle" x="131.1" y="-7.5" font-family="Helvetica,sans-Serif" font-size="10.00">stdbool.h</text>
</a>
</g>
</g>
<!-- Node2&#45;&gt;Node3 -->
<g id="edge2" class="edge">
<title>Node2&#45;&gt;Node3</title>
<path fill="none" stroke="midnightblue" d="M108.95,-224.48C90.27,-217.27 65.61,-205.32 49.1,-188 7.36,-144.24 -17.99,-105.95 16.1,-56 32.58,-31.85 64.15,-20.66 90.04,-15.47"/>
<polygon fill="midnightblue" stroke="midnightblue" points="90.77,-18.9 100.01,-13.71 89.55,-12.01 90.77,-18.9"/>
</g>
<!-- Node4 -->
<g id="node4" class="node">
<title>Node4</title>
<g id="a_node4"><a xlink:title=" ">
<polygon fill="none" stroke="#bfbfbf" points="25.6,-56.5 25.6,-75.5 78.6,-75.5 78.6,-56.5 25.6,-56.5"/>
<text text-anchor="middle" x="52.1" y="-63.5" font-family="Helvetica,sans-Serif" font-size="10.00">stdlib.h</text>
</a>
</g>
</g>
<!-- Node2&#45;&gt;Node4 -->
<g id="edge3" class="edge">
<title>Node2&#45;&gt;Node4</title>
<path fill="none" stroke="midnightblue" d="M119.53,-224.35C94.51,-209.38 46.38,-176.01 29.1,-132 22.83,-116.04 30.78,-97.59 38.99,-84.44"/>
<polygon fill="midnightblue" stroke="midnightblue" points="42.07,-86.13 44.83,-75.9 36.29,-82.18 42.07,-86.13"/>
</g>
<!-- Node5 -->
<g id="node5" class="node">
<title>Node5</title>
<g id="a_node5"><a xlink:href="vec3_8h.html" target="_top" xlink:title=" ">
<polygon fill="none" stroke="black" points="263.6,-56.5 263.6,-75.5 312.6,-75.5 312.6,-56.5 263.6,-56.5"/>
<text text-anchor="middle" x="288.1" y="-63.5" font-family="Helvetica,sans-Serif" font-size="10.00">vec3.h</text>
</a>
</g>
</g>
<!-- Node2&#45;&gt;Node5 -->
<g id="edge4" class="edge">
<title>Node2&#45;&gt;Node5</title>
<path fill="none" stroke="midnightblue" d="M152.56,-224.39C181,-209.49 237.21,-176.21 268.1,-132 277.71,-118.24 282.82,-99.71 285.46,-85.96"/>
<polygon fill="midnightblue" stroke="midnightblue" points="288.97,-86.17 287.14,-75.74 282.06,-85.04 288.97,-86.17"/>
</g>
<!-- Node7 -->
<g id="node7" class="node">
<title>Node7</title>
<g id="a_node7"><a xlink:href="colour__bonus_8h.html" target="_top" xlink:title=" ">
<polygon fill="none" stroke="black" points="90.1,-168.5 90.1,-187.5 180.1,-187.5 180.1,-168.5 90.1,-168.5"/>
<text text-anchor="middle" x="135.1" y="-175.5" font-family="Helvetica,sans-Serif" font-size="10.00">colour_bonus.h</text>
</a>
</g>
</g>
<!-- Node2&#45;&gt;Node7 -->
<g id="edge7" class="edge">
<title>Node2&#45;&gt;Node7</title>
<path fill="none" stroke="midnightblue" d="M135.1,-224.08C135.1,-217.01 135.1,-206.86 135.1,-197.99"/>
<polygon fill="midnightblue" stroke="midnightblue" points="138.6,-197.75 135.1,-187.75 131.6,-197.75 138.6,-197.75"/>
</g>
<!-- Node5&#45;&gt;Node3 -->
<g id="edge6" class="edge">
<title>Node5&#45;&gt;Node3</title>
<path fill="none" stroke="midnightblue" d="M263.57,-56.56C237.22,-47.5 195.16,-33.03 165.51,-22.84"/>
<polygon fill="midnightblue" stroke="midnightblue" points="166.57,-19.5 155.98,-19.56 164.29,-26.12 166.57,-19.5"/>
</g>
<!-- Node6 -->
<g id="node6" class="node">
<title>Node6</title>
<g id="a_node6"><a xlink:title=" ">
<polygon fill="none" stroke="#bfbfbf" points="235.6,-0.5 235.6,-19.5 286.6,-19.5 286.6,-0.5 235.6,-0.5"/>
<text text-anchor="middle" x="261.1" y="-7.5" font-family="Helvetica,sans-Serif" font-size="10.00">math.h</text>
</a>
</g>
</g>
<!-- Node5&#45;&gt;Node6 -->
<g id="edge5" class="edge">
<title>Node5&#45;&gt;Node6</title>
<path fill="none" stroke="midnightblue" d="M283.64,-56.08C279.94,-48.69 274.58,-37.95 270,-28.81"/>
<polygon fill="midnightblue" stroke="midnightblue" points="273.08,-27.13 265.47,-19.75 266.82,-30.26 273.08,-27.13"/>
</g>
<!-- Node8 -->
<g id="node8" class="node">
<title>Node8</title>
<g id="a_node8"><a xlink:title=" ">
<polygon fill="none" stroke="#bfbfbf" points="110.1,-112.5 110.1,-131.5 160.1,-131.5 160.1,-112.5 110.1,-112.5"/>
<text text-anchor="middle" x="135.1" y="-119.5" font-family="Helvetica,sans-Serif" font-size="10.00">stdio.h</text>
</a>
</g>
</g>
<!-- Node7&#45;&gt;Node8 -->
<g id="edge8" class="edge">
<title>Node7&#45;&gt;Node8</title>
<path fill="none" stroke="midnightblue" d="M135.1,-168.08C135.1,-161.01 135.1,-150.86 135.1,-141.99"/>
<polygon fill="midnightblue" stroke="midnightblue" points="138.6,-141.75 135.1,-131.75 131.6,-141.75 138.6,-141.75"/>
</g>
<!-- Node9 -->
<g id="node9" class="node">
<title>Node9</title>
<g id="a_node9"><a xlink:title=" ">
<polygon fill="none" stroke="#bfbfbf" points="38.6,-112.5 38.6,-131.5 91.6,-131.5 91.6,-112.5 38.6,-112.5"/>
<text text-anchor="middle" x="65.1" y="-119.5" font-family="Helvetica,sans-Serif" font-size="10.00">stdint.h</text>
</a>
</g>
</g>
<!-- Node7&#45;&gt;Node9 -->
<g id="edge9" class="edge">
<title>Node7&#45;&gt;Node9</title>
<path fill="none" stroke="midnightblue" d="M123.85,-168.32C113.3,-160.18 97.3,-147.84 84.66,-138.09"/>
<polygon fill="midnightblue" stroke="midnightblue" points="86.61,-135.17 76.55,-131.83 82.33,-140.71 86.61,-135.17"/>
</g>
<!-- Node10 -->
<g id="node10" class="node">
<title>Node10</title>
<g id="a_node10"><a xlink:href="utils__bonus_8h.html" target="_top" xlink:title=" ">
<polygon fill="none" stroke="black" points="178.6,-112.5 178.6,-131.5 259.6,-131.5 259.6,-112.5 178.6,-112.5"/>
<text text-anchor="middle" x="219.1" y="-119.5" font-family="Helvetica,sans-Serif" font-size="10.00">utils_bonus.h</text>
</a>
</g>
</g>
<!-- Node7&#45;&gt;Node10 -->
<g id="edge10" class="edge">
<title>Node7&#45;&gt;Node10</title>
<path fill="none" stroke="midnightblue" d="M148.59,-168.32C161.7,-159.9 181.81,-146.97 197.21,-137.07"/>
<polygon fill="midnightblue" stroke="midnightblue" points="199.12,-140.01 205.64,-131.65 195.33,-134.12 199.12,-140.01"/>
</g>
<!-- Node10&#45;&gt;Node3 -->
<g id="edge12" class="edge">
<title>Node10&#45;&gt;Node3</title>
<path fill="none" stroke="midnightblue" d="M198.4,-112.35C182.95,-104.88 162.46,-92.65 150.1,-76 140.13,-62.58 135.38,-44.01 133.12,-30.16"/>
<polygon fill="midnightblue" stroke="midnightblue" points="136.53,-29.3 131.75,-19.85 129.59,-30.22 136.53,-29.3"/>
</g>
<!-- Node10&#45;&gt;Node4 -->
<g id="edge13" class="edge">
<title>Node10&#45;&gt;Node4</title>
<path fill="none" stroke="midnightblue" d="M192.64,-112.44C164.42,-103.32 119.56,-88.81 88.13,-78.65"/>
<polygon fill="midnightblue" stroke="midnightblue" points="89.03,-75.26 78.44,-75.52 86.87,-81.92 89.03,-75.26"/>
</g>
<!-- Node10&#45;&gt;Node5 -->
<g id="edge15" class="edge">
<title>Node10&#45;&gt;Node5</title>
<path fill="none" stroke="midnightblue" d="M230.18,-112.32C240.58,-104.18 256.36,-91.84 268.82,-82.09"/>
<polygon fill="midnightblue" stroke="midnightblue" points="271.09,-84.75 276.81,-75.83 266.78,-79.24 271.09,-84.75"/>
</g>
<!-- Node10&#45;&gt;Node6 -->
<g id="edge11" class="edge">
<title>Node10&#45;&gt;Node6</title>
<path fill="none" stroke="midnightblue" d="M222.39,-112.37C229.23,-94.46 245.09,-52.92 254.25,-28.95"/>
<polygon fill="midnightblue" stroke="midnightblue" points="257.52,-30.18 257.82,-19.59 250.98,-27.69 257.52,-30.18"/>
</g>
<!-- Node11 -->
<g id="node11" class="node">
<title>Node11</title>
<g id="a_node11"><a xlink:title=" ">
<polygon fill="none" stroke="#bfbfbf" points="159.1,-56.5 159.1,-75.5 207.1,-75.5 207.1,-56.5 159.1,-56.5"/>
<text text-anchor="middle" x="183.1" y="-63.5" font-family="Helvetica,sans-Serif" font-size="10.00">time.h</text>
</a>
</g>
</g>
<!-- Node10&#45;&gt;Node11 -->
<g id="edge14" class="edge">
<title>Node10&#45;&gt;Node11</title>
<path fill="none" stroke="midnightblue" d="M213.15,-112.08C208.12,-104.53 200.76,-93.49 194.59,-84.23"/>
<polygon fill="midnightblue" stroke="midnightblue" points="197.39,-82.13 188.93,-75.75 191.57,-86.01 197.39,-82.13"/>
</g>
<!-- Node12&#45;&gt;Node5 -->
<g id="edge18" class="edge">
<title>Node12&#45;&gt;Node5</title>
<path fill="none" stroke="midnightblue" d="M342.47,-168.37C332.82,-150.38 310.38,-108.55 297.55,-84.63"/>
<polygon fill="midnightblue" stroke="midnightblue" points="300.52,-82.75 292.71,-75.59 294.35,-86.06 300.52,-82.75"/>
</g>
<!-- Node12&#45;&gt;Node10 -->
<g id="edge19" class="edge">
<title>Node12&#45;&gt;Node10</title>
<path fill="none" stroke="midnightblue" d="M326.82,-168.44C305.75,-159.56 272.58,-145.56 248.61,-135.45"/>
<polygon fill="midnightblue" stroke="midnightblue" points="249.86,-132.18 239.29,-131.52 247.14,-138.63 249.86,-132.18"/>
</g>
<!-- Node13 -->
<g id="node13" class="node">
<title>Node13</title>
<g id="a_node13"><a xlink:href="vec2_8h.html" target="_top" xlink:title=" ">
<polygon fill="none" stroke="black" points="354.6,-112.5 354.6,-131.5 403.6,-131.5 403.6,-112.5 354.6,-112.5"/>
<text text-anchor="middle" x="379.1" y="-119.5" font-family="Helvetica,sans-Serif" font-size="10.00">vec2.h</text>
</a>
</g>
</g>
<!-- Node12&#45;&gt;Node13 -->
<g id="edge17" class="edge">
<title>Node12&#45;&gt;Node13</title>
<path fill="none" stroke="midnightblue" d="M352.38,-168.08C356.81,-160.61 363.26,-149.72 368.72,-140.52"/>
<polygon fill="midnightblue" stroke="midnightblue" points="371.83,-142.14 373.91,-131.75 365.8,-138.57 371.83,-142.14"/>
</g>
<!-- Node14 -->
<g id="node14" class="node">
<title>Node14</title>
<g id="a_node14"><a xlink:href="mini_r_t__config__bonus_8h.html" target="_top" xlink:title=" ">
<polygon fill="none" stroke="black" points="422.1,-112.5 422.1,-131.5 550.1,-131.5 550.1,-112.5 422.1,-112.5"/>
<text text-anchor="middle" x="486.1" y="-119.5" font-family="Helvetica,sans-Serif" font-size="10.00">miniRT_config_bonus.h</text>
</a>
</g>
</g>
<!-- Node12&#45;&gt;Node14 -->
<g id="edge20" class="edge">
<title>Node12&#45;&gt;Node14</title>
<path fill="none" stroke="midnightblue" d="M369.12,-168.44C392.2,-159.48 428.66,-145.31 454.74,-135.18"/>
<polygon fill="midnightblue" stroke="midnightblue" points="456.12,-138.4 464.18,-131.52 453.59,-131.88 456.12,-138.4"/>
</g>
</g>
</svg>
