<?xml version="1.0" encoding="UTF-8" standalone="no"?>
<!DOCTYPE svg PUBLIC "-//W3C//DTD SVG 1.1//EN"
 "http://www.w3.org/Graphics/SVG/1.1/DTD/svg11.dtd">
<!-- Generated by graphviz version 2.43.0 (0)
 -->
<!-- Title: ft_create_sample_ray Pages: 1 -->
<svg width="388pt" height="142pt"
 viewBox="0.00 0.00 388.00 142.00" xmlns="http://www.w3.org/2000/svg" xmlns:xlink="http://www.w3.org/1999/xlink">
<g id="graph0" class="graph" transform="scale(1 1) rotate(0) translate(4 138)">
<title>ft_create_sample_ray</title>
<!-- Node1 -->
<g id="node1" class="node">
<title>Node1</title>
<g id="a_node1"><a xlink:title="Creates a random sample ray in a square surrounding the current pixel.">
<polygon fill="#bfbfbf" stroke="black" points="0,-57.5 0,-76.5 122,-76.5 122,-57.5 0,-57.5"/>
<text text-anchor="middle" x="61" y="-64.5" font-family="Helvetica,sans-Serif" font-size="10.00">ft_create_sample_ray</text>
</a>
</g>
</g>
<!-- Node2 -->
<g id="node2" class="node">
<title>Node2</title>
<g id="a_node2"><a xlink:href="ray__bonus_8c.html#a8706f722b73ae2ec7ec56e469ecbac02" target="_top" xlink:title="Generate a random vector that is confined within the square surrounding a pixel. The vector lies in t...">
<polygon fill="none" stroke="black" points="158,-76.5 158,-95.5 251,-95.5 251,-76.5 158,-76.5"/>
<text text-anchor="middle" x="204.5" y="-83.5" font-family="Helvetica,sans-Serif" font-size="10.00">ft_pixel_sample</text>
</a>
</g>
</g>
<!-- Node1&#45;&gt;Node2 -->
<g id="edge1" class="edge">
<title>Node1&#45;&gt;Node2</title>
<path fill="none" stroke="midnightblue" d="M122.01,-75.06C130.58,-76.21 139.36,-77.39 147.84,-78.53"/>
<polygon fill="midnightblue" stroke="midnightblue" points="147.62,-82.03 158,-79.89 148.55,-75.09 147.62,-82.03"/>
</g>
<!-- Node4 -->
<g id="node4" class="node">
<title>Node4</title>
<g id="a_node4"><a xlink:href="vec3_8h.html#a73e2caf4c2a51ed954b7349c6be2b3c3" target="_top" xlink:title="Add two vectors.">
<polygon fill="none" stroke="black" points="296,-114.5 296,-133.5 371,-133.5 371,-114.5 296,-114.5"/>
<text text-anchor="middle" x="333.5" y="-121.5" font-family="Helvetica,sans-Serif" font-size="10.00">ft_vec3_add</text>
</a>
</g>
</g>
<!-- Node1&#45;&gt;Node4 -->
<g id="edge5" class="edge">
<title>Node1&#45;&gt;Node4</title>
<path fill="none" stroke="midnightblue" d="M81.71,-76.62C100.76,-85.48 130.68,-98.24 158,-105 200.54,-115.53 250.35,-120.23 285.84,-122.32"/>
<polygon fill="midnightblue" stroke="midnightblue" points="285.73,-125.82 295.91,-122.87 286.11,-118.83 285.73,-125.82"/>
</g>
<!-- Node6 -->
<g id="node6" class="node">
<title>Node6</title>
<g id="a_node6"><a xlink:href="vec3_8h.html#a38fe500bd27847b866b9630146e43250" target="_top" xlink:title="Normalise a vector.">
<polygon fill="none" stroke="black" points="163,-38.5 163,-57.5 246,-57.5 246,-38.5 163,-38.5"/>
<text text-anchor="middle" x="204.5" y="-45.5" font-family="Helvetica,sans-Serif" font-size="10.00">ft_vec3_norm</text>
</a>
</g>
</g>
<!-- Node1&#45;&gt;Node6 -->
<g id="edge6" class="edge">
<title>Node1&#45;&gt;Node6</title>
<path fill="none" stroke="midnightblue" d="M122.01,-58.94C132.18,-57.58 142.66,-56.17 152.57,-54.84"/>
<polygon fill="midnightblue" stroke="midnightblue" points="153.22,-58.28 162.66,-53.48 152.29,-51.35 153.22,-58.28"/>
</g>
<!-- Node8 -->
<g id="node8" class="node">
<title>Node8</title>
<g id="a_node8"><a xlink:href="vec3_8h.html#a54e984820b74bd803de43ce36c8cb292" target="_top" xlink:title="Subtract two vectors.">
<polygon fill="none" stroke="black" points="167.5,-0.5 167.5,-19.5 241.5,-19.5 241.5,-0.5 167.5,-0.5"/>
<text text-anchor="middle" x="204.5" y="-7.5" font-family="Helvetica,sans-Serif" font-size="10.00">ft_vec3_sub</text>
</a>
</g>
</g>
<!-- Node1&#45;&gt;Node8 -->
<g id="edge9" class="edge">
<title>Node1&#45;&gt;Node8</title>
<path fill="none" stroke="midnightblue" d="M85.68,-57.46C108.85,-48.13 144.32,-33.84 170.3,-23.38"/>
<polygon fill="midnightblue" stroke="midnightblue" points="171.77,-26.55 179.74,-19.57 169.16,-20.06 171.77,-26.55"/>
</g>
<!-- Node3 -->
<g id="node3" class="node">
<title>Node3</title>
<g id="a_node3"><a xlink:href="utils__bonus_8h.html#ad2506d7ff542ccee53d1ff751d7ed217" target="_top" xlink:title="Return a random float.">
<polygon fill="none" stroke="black" points="287,-76.5 287,-95.5 380,-95.5 380,-76.5 287,-76.5"/>
<text text-anchor="middle" x="333.5" y="-83.5" font-family="Helvetica,sans-Serif" font-size="10.00">ft_random_float</text>
</a>
</g>
</g>
<!-- Node2&#45;&gt;Node3 -->
<g id="edge2" class="edge">
<title>Node2&#45;&gt;Node3</title>
<path fill="none" stroke="midnightblue" d="M251.35,-86C259.53,-86 268.14,-86 276.57,-86"/>
<polygon fill="midnightblue" stroke="midnightblue" points="276.72,-89.5 286.72,-86 276.72,-82.5 276.72,-89.5"/>
</g>
<!-- Node2&#45;&gt;Node4 -->
<g id="edge3" class="edge">
<title>Node2&#45;&gt;Node4</title>
<path fill="none" stroke="midnightblue" d="M237.55,-95.59C253.64,-100.4 273.34,-106.3 290.62,-111.47"/>
<polygon fill="midnightblue" stroke="midnightblue" points="289.88,-114.9 300.46,-114.41 291.89,-108.19 289.88,-114.9"/>
</g>
<!-- Node5 -->
<g id="node5" class="node">
<title>Node5</title>
<g id="a_node5"><a xlink:href="vec3_8h.html#ac80a1c20941c96a8fafad255dac59092" target="_top" xlink:title="Scale a vector.">
<polygon fill="none" stroke="black" points="292,-38.5 292,-57.5 375,-57.5 375,-38.5 292,-38.5"/>
<text text-anchor="middle" x="333.5" y="-45.5" font-family="Helvetica,sans-Serif" font-size="10.00">ft_vec3_scale</text>
</a>
</g>
</g>
<!-- Node2&#45;&gt;Node5 -->
<g id="edge4" class="edge">
<title>Node2&#45;&gt;Node5</title>
<path fill="none" stroke="midnightblue" d="M237.55,-76.41C253.64,-71.6 273.34,-65.7 290.62,-60.53"/>
<polygon fill="midnightblue" stroke="midnightblue" points="291.89,-63.81 300.46,-57.59 289.88,-57.1 291.89,-63.81"/>
</g>
<!-- Node6&#45;&gt;Node5 -->
<g id="edge8" class="edge">
<title>Node6&#45;&gt;Node5</title>
<path fill="none" stroke="midnightblue" d="M246.03,-48C257.37,-48 269.85,-48 281.7,-48"/>
<polygon fill="midnightblue" stroke="midnightblue" points="281.92,-51.5 291.92,-48 281.92,-44.5 281.92,-51.5"/>
</g>
<!-- Node7 -->
<g id="node7" class="node">
<title>Node7</title>
<g id="a_node7"><a xlink:href="vec3__linalgebra_8c.html#aa84621bd979d3b12b97908f653faf88e" target="_top" xlink:title="Calculate the absolute value of a vector.">
<polygon fill="none" stroke="black" points="296.5,-0.5 296.5,-19.5 370.5,-19.5 370.5,-0.5 296.5,-0.5"/>
<text text-anchor="middle" x="333.5" y="-7.5" font-family="Helvetica,sans-Serif" font-size="10.00">ft_vec3_abs</text>
</a>
</g>
</g>
<!-- Node6&#45;&gt;Node7 -->
<g id="edge7" class="edge">
<title>Node6&#45;&gt;Node7</title>
<path fill="none" stroke="midnightblue" d="M237.55,-38.41C253.64,-33.6 273.34,-27.7 290.62,-22.53"/>
<polygon fill="midnightblue" stroke="midnightblue" points="291.89,-25.81 300.46,-19.59 289.88,-19.1 291.89,-25.81"/>
</g>
</g>
</svg>
