<?xml version="1.0" encoding="UTF-8" standalone="no"?>
<!DOCTYPE svg PUBLIC "-//W3C//DTD SVG 1.1//EN"
 "http://www.w3.org/Graphics/SVG/1.1/DTD/svg11.dtd">
<!-- Generated by graphviz version 2.43.0 (0)
 -->
<!-- Title: ft_keyhook_inc_dec Pages: 1 -->
<svg width="262pt" height="142pt"
 viewBox="0.00 0.00 262.00 142.00" xmlns="http://www.w3.org/2000/svg" xmlns:xlink="http://www.w3.org/1999/xlink">
<g id="graph0" class="graph" transform="scale(1 1) rotate(0) translate(4 138)">
<title>ft_keyhook_inc_dec</title>
<!-- Node1 -->
<g id="node1" class="node">
<title>Node1</title>
<g id="a_node1"><a xlink:title="Increases or decreases a value with a keypress.">
<polygon fill="#bfbfbf" stroke="black" points="142,-57.5 142,-76.5 254,-76.5 254,-57.5 142,-57.5"/>
<text text-anchor="middle" x="198" y="-64.5" font-family="Helvetica,sans-Serif" font-size="10.00">ft_keyhook_inc_dec</text>
</a>
</g>
</g>
<!-- Node2 -->
<g id="node2" class="node">
<title>Node2</title>
<g id="a_node2"><a xlink:href="render_8h.html#a597d35b7bd3aa66272e3c2ff3a1e8f78" target="_top" xlink:title="Manipulates the ambient light.">
<polygon fill="none" stroke="black" points="0.5,-114.5 0.5,-133.5 105.5,-133.5 105.5,-114.5 0.5,-114.5"/>
<text text-anchor="middle" x="53" y="-121.5" font-family="Helvetica,sans-Serif" font-size="10.00">ft_manip_ambient</text>
</a>
</g>
</g>
<!-- Node1&#45;&gt;Node2 -->
<g id="edge1" class="edge">
<title>Node1&#45;&gt;Node2</title>
<path fill="none" stroke="midnightblue" d="M165.02,-80.77C147.64,-88.15 125.73,-97.28 106,-105 97.85,-108.19 88.93,-111.51 80.81,-114.47"/>
<polygon fill="midnightblue" stroke="midnightblue" points="166.85,-83.79 174.68,-76.65 164.1,-77.36 166.85,-83.79"/>
</g>
<!-- Node3 -->
<g id="node3" class="node">
<title>Node3</title>
<g id="a_node3"><a xlink:href="render_8h.html#a2737927d8cc8ff5dc3bd94b3e11fc1a9" target="_top" xlink:title="Manipulates the active cylinder.">
<polygon fill="none" stroke="black" points="1,-76.5 1,-95.5 105,-95.5 105,-76.5 1,-76.5"/>
<text text-anchor="middle" x="53" y="-83.5" font-family="Helvetica,sans-Serif" font-size="10.00">ft_manip_cylinder</text>
</a>
</g>
</g>
<!-- Node1&#45;&gt;Node3 -->
<g id="edge2" class="edge">
<title>Node1&#45;&gt;Node3</title>
<path fill="none" stroke="midnightblue" d="M131.8,-75.66C122.94,-76.84 113.96,-78.03 105.39,-79.17"/>
<polygon fill="midnightblue" stroke="midnightblue" points="132.26,-79.13 141.71,-74.35 131.34,-72.19 132.26,-79.13"/>
</g>
<!-- Node4 -->
<g id="node4" class="node">
<title>Node4</title>
<g id="a_node4"><a xlink:href="render_8h.html#a16d57d13773703e93274caef6b5ccde1" target="_top" xlink:title="Manipulates a light source.">
<polygon fill="none" stroke="black" points="0,-38.5 0,-57.5 106,-57.5 106,-38.5 0,-38.5"/>
<text text-anchor="middle" x="53" y="-45.5" font-family="Helvetica,sans-Serif" font-size="10.00">ft_manip_light_src</text>
</a>
</g>
</g>
<!-- Node1&#45;&gt;Node4 -->
<g id="edge3" class="edge">
<title>Node1&#45;&gt;Node4</title>
<path fill="none" stroke="midnightblue" d="M131.78,-58.33C123.25,-57.2 114.6,-56.05 106.33,-54.95"/>
<polygon fill="midnightblue" stroke="midnightblue" points="131.34,-61.81 141.71,-59.65 132.26,-54.87 131.34,-61.81"/>
</g>
<!-- Node5 -->
<g id="node5" class="node">
<title>Node5</title>
<g id="a_node5"><a xlink:href="render_8h.html#a3af9cb325ad292f339446b63917a9ea2" target="_top" xlink:title="Manipulates the active sphere.">
<polygon fill="none" stroke="black" points="4,-0.5 4,-19.5 102,-19.5 102,-0.5 4,-0.5"/>
<text text-anchor="middle" x="53" y="-7.5" font-family="Helvetica,sans-Serif" font-size="10.00">ft_manip_sphere</text>
</a>
</g>
</g>
<!-- Node1&#45;&gt;Node5 -->
<g id="edge4" class="edge">
<title>Node1&#45;&gt;Node5</title>
<path fill="none" stroke="midnightblue" d="M165.02,-53.23C147.64,-45.85 125.73,-36.72 106,-29 97.85,-25.81 88.93,-22.49 80.81,-19.53"/>
<polygon fill="midnightblue" stroke="midnightblue" points="164.1,-56.64 174.68,-57.35 166.85,-50.21 164.1,-56.64"/>
</g>
</g>
</svg>
