<?xml version="1.0" encoding="UTF-8" standalone="no"?>
<!DOCTYPE svg PUBLIC "-//W3C//DTD SVG 1.1//EN"
 "http://www.w3.org/Graphics/SVG/1.1/DTD/svg11.dtd">
<!-- Generated by graphviz version 2.43.0 (0)
 -->
<!-- Title: ft_raytrace_sample_threaded Pages: 1 -->
<!--zoomable 522 -->
<svg id="main" version="1.1" xmlns="http://www.w3.org/2000/svg" xmlns:xlink="http://www.w3.org/1999/xlink" xml:space="preserve" onload="init(evt)">
<style type="text/css"><![CDATA[
.edge:hover path { stroke: red; }
.edge:hover polygon { stroke: red; fill: red; }
]]></style>
<script type="text/javascript"><![CDATA[
var edges = document.getElementsByTagName('g');
if (edges && edges.length) {
  for (var i=0;i<edges.length;i++) {
    if (edges[i].id.substr(0,4)=='edge') {
      edges[i].setAttribute('class','edge');
    }
  }
}
]]></script>
        <defs>
                <circle id="rim" cx="0" cy="0" r="7"/>
                <circle id="rim2" cx="0" cy="0" r="3.5"/>
                <g id="zoomPlus">
                        <use xlink:href="#rim" fill="#404040">
                                <set attributeName="fill" to="#808080" begin="zoomplus.mouseover" end="zoomplus.mouseout"/>
                        </use>
                        <path d="M-4,0h8M0,-4v8" fill="none" stroke="white" stroke-width="1.5" pointer-events="none"/>
                </g>
                <g id="zoomMin">
                        <use xlink:href="#rim" fill="#404040">
                                <set attributeName="fill" to="#808080" begin="zoomminus.mouseover" end="zoomminus.mouseout"/>
                        </use>
                        <path d="M-4,0h8" fill="none" stroke="white" stroke-width="1.5" pointer-events="none"/>
                </g>
                <g id="dirArrow">
                        <path fill="none" stroke="white" stroke-width="1.5" d="M0,-3.0v7 M-2.5,-0.5L0,-3.0L2.5,-0.5"/>
                </g>
               <g id="resetDef">
                       <use xlink:href="#rim2" fill="#404040">
                               <set attributeName="fill" to="#808080" begin="reset.mouseover" end="reset.mouseout"/>
                       </use>
               </g>
        </defs>

<script type="text/javascript">
var viewWidth = 1364;
var viewHeight = 522;
var sectionId = 'dynsection-6';
</script>
<script xlink:href="svgpan.js"/>
<svg id="graph" class="graph">
<g id="viewport">
<title>ft_raytrace_sample_threaded</title>
<!-- Node1 -->
<g id="node1" class="node">
<title>Node1</title>
<g id="a_node1"><a xlink:title="Like ft_raytrace_sample(), but threaded.">
<polygon fill="#bfbfbf" stroke="black" points="0,-204 0,-234 110,-234 110,-204 0,-204"/>
<text text-anchor="start" x="8" y="-222" font-family="Helvetica,sans-Serif" font-size="10.00">ft_raytrace_sample</text>
<text text-anchor="middle" x="55" y="-211" font-family="Helvetica,sans-Serif" font-size="10.00">_threaded</text>
</a>
</g>
</g>
<!-- Node2 -->
<g id="node2" class="node">
<title>Node2</title>
<g id="a_node2"><a xlink:href="render_8h.html#a2c9085ad1ae8adcd3201a501a9a4dcde" target="_top" xlink:title="Constructs a ray and shoots it through the pixel.">
<polygon fill="none" stroke="black" points="146,-209.5 146,-228.5 223,-228.5 223,-209.5 146,-209.5"/>
<text text-anchor="middle" x="184.5" y="-216.5" font-family="Helvetica,sans-Serif" font-size="10.00">ft_shoot_ray</text>
</a>
</g>
</g>
<!-- Node1&#45;&gt;Node2 -->
<g id="edge1" class="edge">
<title>Node1&#45;&gt;Node2</title>
<path fill="none" stroke="midnightblue" d="M110.07,-219C118.66,-219 127.49,-219 135.91,-219"/>
<polygon fill="midnightblue" stroke="midnightblue" points="135.95,-222.5 145.95,-219 135.95,-215.5 135.95,-222.5"/>
</g>
<!-- Node3 -->
<g id="node3" class="node">
<title>Node3</title>
<g id="a_node3"><a xlink:href="colour_8h.html#a9a9b5dd0aae5d92b494eeaa001e68470" target="_top" xlink:title="Converts a t_colour struct to an int32_t.">
<polygon fill="none" stroke="black" points="259,-266.5 259,-285.5 378,-285.5 378,-266.5 259,-266.5"/>
<text text-anchor="middle" x="318.5" y="-273.5" font-family="Helvetica,sans-Serif" font-size="10.00">ft_convert_colour2int</text>
</a>
</g>
</g>
<!-- Node2&#45;&gt;Node3 -->
<g id="edge2" class="edge">
<title>Node2&#45;&gt;Node3</title>
<path fill="none" stroke="midnightblue" d="M206.33,-228.57C221,-235.26 241.14,-244.33 259,-252 267.19,-255.52 276.07,-259.22 284.38,-262.63"/>
<polygon fill="midnightblue" stroke="midnightblue" points="283.22,-265.94 293.8,-266.48 285.87,-259.46 283.22,-265.94"/>
</g>
<!-- Node4 -->
<g id="node4" class="node">
<title>Node4</title>
<g id="a_node4"><a xlink:href="ray_8h.html#a2cffd188fb76990901db47a2c3ac638f" target="_top" xlink:title="Returns the colour of a ray.">
<polygon fill="none" stroke="black" points="278.5,-190.5 278.5,-209.5 358.5,-209.5 358.5,-190.5 278.5,-190.5"/>
<text text-anchor="middle" x="318.5" y="-197.5" font-family="Helvetica,sans-Serif" font-size="10.00">ft_ray_colour</text>
</a>
</g>
</g>
<!-- Node2&#45;&gt;Node4 -->
<g id="edge3" class="edge">
<title>Node2&#45;&gt;Node4</title>
<path fill="none" stroke="midnightblue" d="M223.33,-213.56C237.32,-211.54 253.38,-209.23 268.24,-207.09"/>
<polygon fill="midnightblue" stroke="midnightblue" points="268.89,-210.53 278.29,-205.64 267.89,-203.6 268.89,-210.53"/>
</g>
<!-- Node28 -->
<g id="node28" class="node">
<title>Node28</title>
<g id="a_node28"><a xlink:href="vec3_8h.html#a54e984820b74bd803de43ce36c8cb292" target="_top" xlink:title="Subtract two vectors.">
<polygon fill="none" stroke="black" points="1145.5,-304.5 1145.5,-323.5 1219.5,-323.5 1219.5,-304.5 1145.5,-304.5"/>
<text text-anchor="middle" x="1182.5" y="-311.5" font-family="Helvetica,sans-Serif" font-size="10.00">ft_vec3_sub</text>
</a>
</g>
</g>
<!-- Node2&#45;&gt;Node28 -->
<g id="edge47" class="edge">
<title>Node2&#45;&gt;Node28</title>
<path fill="none" stroke="midnightblue" d="M223.19,-223.08C278.15,-228.66 383.55,-238 473.5,-238 473.5,-238 473.5,-238 929,-238 1013.87,-238 1108.24,-277.86 1153.84,-299.85"/>
<polygon fill="midnightblue" stroke="midnightblue" points="1152.55,-303.11 1163.07,-304.37 1155.63,-296.83 1152.55,-303.11"/>
</g>
<!-- Node30 -->
<g id="node30" class="node">
<title>Node30</title>
<g id="a_node30"><a xlink:href="vec3_8h.html#a38fe500bd27847b866b9630146e43250" target="_top" xlink:title="Normalise a vector.">
<polygon fill="none" stroke="black" points="1141,-0.5 1141,-19.5 1224,-19.5 1224,-0.5 1141,-0.5"/>
<text text-anchor="middle" x="1182.5" y="-7.5" font-family="Helvetica,sans-Serif" font-size="10.00">ft_vec3_norm</text>
</a>
</g>
</g>
<!-- Node2&#45;&gt;Node30 -->
<g id="edge46" class="edge">
<title>Node2&#45;&gt;Node30</title>
<path fill="none" stroke="midnightblue" d="M191.76,-209.48C219.45,-168.59 335.73,-10 473.5,-10 473.5,-10 473.5,-10 929,-10 998.92,-10 1079.74,-10 1130.73,-10"/>
<polygon fill="midnightblue" stroke="midnightblue" points="1130.83,-13.5 1140.83,-10 1130.83,-6.5 1130.83,-13.5"/>
</g>
<!-- Node5 -->
<g id="node5" class="node">
<title>Node5</title>
<g id="a_node5"><a xlink:href="ray_8c.html#a165a4eb7af65fda20a69dfd50b9ed119" target="_top" xlink:title="Returns the background colour.">
<polygon fill="none" stroke="black" points="414,-190.5 414,-209.5 535,-209.5 535,-190.5 414,-190.5"/>
<text text-anchor="middle" x="474.5" y="-197.5" font-family="Helvetica,sans-Serif" font-size="10.00">ft_background_colour</text>
</a>
</g>
</g>
<!-- Node4&#45;&gt;Node5 -->
<g id="edge4" class="edge">
<title>Node4&#45;&gt;Node5</title>
<path fill="none" stroke="midnightblue" d="M358.76,-200C372.5,-200 388.38,-200 403.85,-200"/>
<polygon fill="midnightblue" stroke="midnightblue" points="403.94,-203.5 413.94,-200 403.94,-196.5 403.94,-203.5"/>
</g>
<!-- Node6 -->
<g id="node6" class="node">
<title>Node6</title>
<g id="a_node6"><a xlink:href="lighting_8h.html#a3d54436a3f695a60b1c2d9e504a61de8" target="_top" xlink:title="Calculate the effect of different lighting on perception.">
<polygon fill="none" stroke="black" points="437.5,-152.5 437.5,-171.5 511.5,-171.5 511.5,-152.5 437.5,-152.5"/>
<text text-anchor="middle" x="474.5" y="-159.5" font-family="Helvetica,sans-Serif" font-size="10.00">ft_enlighten</text>
</a>
</g>
</g>
<!-- Node4&#45;&gt;Node6 -->
<g id="edge5" class="edge">
<title>Node4&#45;&gt;Node6</title>
<path fill="none" stroke="midnightblue" d="M358.36,-190.41C379.38,-185.22 405.47,-178.79 427.49,-173.35"/>
<polygon fill="midnightblue" stroke="midnightblue" points="428.43,-176.73 437.3,-170.93 426.75,-169.93 428.43,-176.73"/>
</g>
<!-- Node14 -->
<g id="node14" class="node">
<title>Node14</title>
<g id="a_node14"><a xlink:href="hit__manager_8h.html#a9d5972226064b0a4d0e1359d9230abec" target="_top" xlink:title="Investigate a hittable and returns whether a hit occured or not.">
<polygon fill="none" stroke="black" points="886,-190.5 886,-209.5 970,-209.5 970,-190.5 886,-190.5"/>
<text text-anchor="middle" x="928" y="-197.5" font-family="Helvetica,sans-Serif" font-size="10.00">ft_hit_hittable</text>
</a>
</g>
</g>
<!-- Node4&#45;&gt;Node14 -->
<g id="edge44" class="edge">
<title>Node4&#45;&gt;Node14</title>
<path fill="none" stroke="midnightblue" d="M332.15,-190.15C367.42,-163.41 470.86,-89.96 571,-67 691.86,-39.28 742.58,-5.06 850,-67 892.61,-91.57 913.78,-149.73 922.3,-180.35"/>
<polygon fill="midnightblue" stroke="midnightblue" points="918.97,-181.48 924.88,-190.28 925.75,-179.72 918.97,-181.48"/>
</g>
<!-- Node21 -->
<g id="node21" class="node">
<title>Node21</title>
<g id="a_node21"><a xlink:href="hit__manager_8h.html#aa5acefb1538a700dc595870ad630f83d" target="_top" xlink:title="Initiates hitrecord struct.">
<polygon fill="none" stroke="black" points="1136,-494.5 1136,-513.5 1229,-513.5 1229,-494.5 1136,-494.5"/>
<text text-anchor="middle" x="1182.5" y="-501.5" font-family="Helvetica,sans-Serif" font-size="10.00">ft_init_hitrecord</text>
</a>
</g>
</g>
<!-- Node4&#45;&gt;Node21 -->
<g id="edge45" class="edge">
<title>Node4&#45;&gt;Node21</title>
<path fill="none" stroke="midnightblue" d="M329.68,-209.81C381.75,-259.92 616.16,-485 626.5,-485 626.5,-485 626.5,-485 929,-485 996.86,-485 1074.69,-491.91 1125.79,-497.39"/>
<polygon fill="midnightblue" stroke="midnightblue" points="1125.64,-500.9 1135.96,-498.5 1126.4,-493.94 1125.64,-500.9"/>
</g>
<!-- Node7 -->
<g id="node7" class="node">
<title>Node7</title>
<g id="a_node7"><a xlink:href="colour_8h.html#ae5c090d9193f6bcf449f12c299f186b7" target="_top" xlink:title="Add two colours.">
<polygon fill="none" stroke="black" points="586.5,-114.5 586.5,-133.5 668.5,-133.5 668.5,-114.5 586.5,-114.5"/>
<text text-anchor="middle" x="627.5" y="-121.5" font-family="Helvetica,sans-Serif" font-size="10.00">ft_add_colour</text>
</a>
</g>
</g>
<!-- Node6&#45;&gt;Node7 -->
<g id="edge6" class="edge">
<title>Node6&#45;&gt;Node7</title>
<path fill="none" stroke="midnightblue" d="M511.67,-152.9C531.79,-147.83 557.09,-141.47 578.82,-136"/>
<polygon fill="midnightblue" stroke="midnightblue" points="579.68,-139.39 588.52,-133.56 577.97,-132.6 579.68,-139.39"/>
</g>
<!-- Node8 -->
<g id="node8" class="node">
<title>Node8</title>
<g id="a_node8"><a xlink:href="scene__light_8c.html#a691cc177466ad1a6b1ababe4272dca1b" target="_top" xlink:title="Create ambient lighting.">
<polygon fill="none" stroke="black" points="579.5,-190.5 579.5,-209.5 675.5,-209.5 675.5,-190.5 579.5,-190.5"/>
<text text-anchor="middle" x="627.5" y="-197.5" font-family="Helvetica,sans-Serif" font-size="10.00">ft_ambient_light</text>
</a>
</g>
</g>
<!-- Node6&#45;&gt;Node8 -->
<g id="edge7" class="edge">
<title>Node6&#45;&gt;Node8</title>
<path fill="none" stroke="midnightblue" d="M511.67,-171.1C531.79,-176.17 557.09,-182.53 578.82,-188"/>
<polygon fill="midnightblue" stroke="midnightblue" points="577.97,-191.4 588.52,-190.44 579.68,-184.61 577.97,-191.4"/>
</g>
<!-- Node9 -->
<g id="node9" class="node">
<title>Node9</title>
<g id="a_node9"><a xlink:href="scene__light_8c.html#ae50a6e06925c764b3caad3f805bc4c8a" target="_top" xlink:title="Create diffuse lighting.">
<polygon fill="none" stroke="black" points="583,-152.5 583,-171.5 672,-171.5 672,-152.5 583,-152.5"/>
<text text-anchor="middle" x="627.5" y="-159.5" font-family="Helvetica,sans-Serif" font-size="10.00">ft_diffuse_light</text>
</a>
</g>
</g>
<!-- Node6&#45;&gt;Node9 -->
<g id="edge8" class="edge">
<title>Node6&#45;&gt;Node9</title>
<path fill="none" stroke="midnightblue" d="M511.67,-162C529.95,-162 552.51,-162 572.78,-162"/>
<polygon fill="midnightblue" stroke="midnightblue" points="572.83,-165.5 582.83,-162 572.83,-158.5 572.83,-165.5"/>
</g>
<!-- Node10 -->
<g id="node10" class="node">
<title>Node10</title>
<g id="a_node10"><a xlink:href="colour_8h.html#a9e6968b360ba0fa607a8571c262995ea" target="_top" xlink:title="Calculates the Hadamard product of two colours.">
<polygon fill="none" stroke="black" points="571,-76.5 571,-95.5 684,-95.5 684,-76.5 571,-76.5"/>
<text text-anchor="middle" x="627.5" y="-83.5" font-family="Helvetica,sans-Serif" font-size="10.00">ft_hadamard_colour</text>
</a>
</g>
</g>
<!-- Node6&#45;&gt;Node10 -->
<g id="edge9" class="edge">
<title>Node6&#45;&gt;Node10</title>
<path fill="none" stroke="midnightblue" d="M489.55,-152.34C507.73,-140.14 540.69,-119.05 571,-105 575.62,-102.86 580.55,-100.83 585.49,-98.95"/>
<polygon fill="midnightblue" stroke="midnightblue" points="586.72,-102.23 594.94,-95.53 584.34,-95.65 586.72,-102.23"/>
</g>
<!-- Node12 -->
<g id="node12" class="node">
<title>Node12</title>
<g id="a_node12"><a xlink:href="lighting_8h.html#a382179d88a3a971b5853322389bacf04" target="_top" xlink:title="Determines whether the point of intersection lies in a shadow regarding the current light source.">
<polygon fill="none" stroke="black" points="587.5,-266.5 587.5,-285.5 667.5,-285.5 667.5,-266.5 587.5,-266.5"/>
<text text-anchor="middle" x="627.5" y="-273.5" font-family="Helvetica,sans-Serif" font-size="10.00">ft_in_shadow</text>
</a>
</g>
</g>
<!-- Node6&#45;&gt;Node12 -->
<g id="edge11" class="edge">
<title>Node6&#45;&gt;Node12</title>
<path fill="none" stroke="midnightblue" d="M511.72,-170.36C519.73,-173.07 527.93,-176.56 535,-181 554.7,-193.37 554.88,-202.22 571,-219 583.93,-232.47 598.68,-247.61 609.73,-258.9"/>
<polygon fill="midnightblue" stroke="midnightblue" points="607.54,-261.66 617.03,-266.36 612.54,-256.76 607.54,-261.66"/>
</g>
<!-- Node11 -->
<g id="node11" class="node">
<title>Node11</title>
<g id="a_node11"><a xlink:href="utils_8h.html#a241b2b1d75c68c1eefd36b569901c9f9" target="_top" xlink:title="Ensure that the returned float lies within the interval.">
<polygon fill="none" stroke="black" points="755.5,-76.5 755.5,-95.5 814.5,-95.5 814.5,-76.5 755.5,-76.5"/>
<text text-anchor="middle" x="785" y="-83.5" font-family="Helvetica,sans-Serif" font-size="10.00">ft_clamp</text>
</a>
</g>
</g>
<!-- Node10&#45;&gt;Node11 -->
<g id="edge10" class="edge">
<title>Node10&#45;&gt;Node11</title>
<path fill="none" stroke="midnightblue" d="M684.2,-86C704.4,-86 726.77,-86 745.19,-86"/>
<polygon fill="midnightblue" stroke="midnightblue" points="745.27,-89.5 755.27,-86 745.27,-82.5 745.27,-89.5"/>
</g>
<!-- Node13 -->
<g id="node13" class="node">
<title>Node13</title>
<g id="a_node13"><a xlink:href="scene__shadow_8c.html#a931177e8edb2dd5393cef7a468389a4d" target="_top" xlink:title="Determines whether the shadow ray emitted from the point of intersection is blocked on its way to the...">
<polygon fill="none" stroke="black" points="720,-304.5 720,-323.5 850,-323.5 850,-304.5 720,-304.5"/>
<text text-anchor="middle" x="785" y="-311.5" font-family="Helvetica,sans-Serif" font-size="10.00">ft_shadow_ray_blocked</text>
</a>
</g>
</g>
<!-- Node12&#45;&gt;Node13 -->
<g id="edge12" class="edge">
<title>Node12&#45;&gt;Node13</title>
<path fill="none" stroke="midnightblue" d="M667.74,-285.59C688.26,-290.6 713.57,-296.79 735.33,-302.11"/>
<polygon fill="midnightblue" stroke="midnightblue" points="734.5,-305.51 745.04,-304.48 736.16,-298.71 734.5,-305.51"/>
</g>
<!-- Node12&#45;&gt;Node28 -->
<g id="edge43" class="edge">
<title>Node12&#45;&gt;Node28</title>
<path fill="none" stroke="midnightblue" d="M639.34,-285.64C655.53,-299.32 687.61,-323.74 720,-333 867.06,-375.06 1051.19,-343.89 1135.5,-325.27"/>
<polygon fill="midnightblue" stroke="midnightblue" points="1136.29,-328.68 1145.27,-323.07 1134.75,-321.85 1136.29,-328.68"/>
</g>
<!-- Node12&#45;&gt;Node30 -->
<g id="edge42" class="edge">
<title>Node12&#45;&gt;Node30</title>
<path fill="none" stroke="midnightblue" d="M648.51,-266.38C732.09,-226.17 1053.54,-71.55 1152.4,-24"/>
<polygon fill="midnightblue" stroke="midnightblue" points="1154.02,-27.1 1161.52,-19.61 1150.99,-20.79 1154.02,-27.1"/>
</g>
<!-- Node32 -->
<g id="node32" class="node">
<title>Node32</title>
<g id="a_node32"><a xlink:href="vec3_8h.html#aa84621bd979d3b12b97908f653faf88e" target="_top" xlink:title="Calculate the absolute value of a vector.">
<polygon fill="none" stroke="black" points="748,-266.5 748,-285.5 822,-285.5 822,-266.5 748,-266.5"/>
<text text-anchor="middle" x="785" y="-273.5" font-family="Helvetica,sans-Serif" font-size="10.00">ft_vec3_abs</text>
</a>
</g>
</g>
<!-- Node12&#45;&gt;Node32 -->
<g id="edge41" class="edge">
<title>Node12&#45;&gt;Node32</title>
<path fill="none" stroke="midnightblue" d="M667.74,-276C689.02,-276 715.45,-276 737.73,-276"/>
<polygon fill="midnightblue" stroke="midnightblue" points="737.97,-279.5 747.97,-276 737.97,-272.5 737.97,-279.5"/>
</g>
<!-- Node13&#45;&gt;Node14 -->
<g id="edge13" class="edge">
<title>Node13&#45;&gt;Node14</title>
<path fill="none" stroke="midnightblue" d="M830.93,-304.44C837.63,-301.96 844.22,-298.86 850,-295 879.85,-275.05 903.86,-240.01 916.72,-218.51"/>
<polygon fill="midnightblue" stroke="midnightblue" points="919.85,-220.1 921.83,-209.69 913.79,-216.59 919.85,-220.1"/>
</g>
<!-- Node13&#45;&gt;Node21 -->
<g id="edge40" class="edge">
<title>Node13&#45;&gt;Node21</title>
<path fill="none" stroke="midnightblue" d="M803.44,-323.68C853.18,-351.07 1000.34,-430.66 1128,-485 1132.81,-487.05 1137.92,-489.06 1143,-490.97"/>
<polygon fill="midnightblue" stroke="midnightblue" points="1142.06,-494.35 1152.65,-494.48 1144.45,-487.77 1142.06,-494.35"/>
</g>
<!-- Node15 -->
<g id="node15" class="node">
<title>Node15</title>
<g id="a_node15"><a xlink:href="hit__manager_8h.html#ad1c0dcb3141fe78ed26368ca7bb8d2b8" target="_top" xlink:title="Calculates if a cylinder was hit by a ray.">
<polygon fill="none" stroke="black" points="1006,-380.5 1006,-399.5 1092,-399.5 1092,-380.5 1006,-380.5"/>
<text text-anchor="middle" x="1049" y="-387.5" font-family="Helvetica,sans-Serif" font-size="10.00">ft_hit_cylinder</text>
</a>
</g>
</g>
<!-- Node14&#45;&gt;Node15 -->
<g id="edge14" class="edge">
<title>Node14&#45;&gt;Node15</title>
<path fill="none" stroke="midnightblue" d="M935.06,-209.68C953.84,-239.66 1011.24,-331.31 1036.2,-371.16"/>
<polygon fill="midnightblue" stroke="midnightblue" points="1033.53,-373.49 1041.8,-380.11 1039.46,-369.78 1033.53,-373.49"/>
</g>
<!-- Node22 -->
<g id="node22" class="node">
<title>Node22</title>
<g id="a_node22"><a xlink:href="hit__manager_8h.html#a04f04eb6383f01a28b0c7201ab52782e" target="_top" xlink:title="Calculates if a plane was hit by a ray.">
<polygon fill="none" stroke="black" points="1012,-190.5 1012,-209.5 1086,-209.5 1086,-190.5 1012,-190.5"/>
<text text-anchor="middle" x="1049" y="-197.5" font-family="Helvetica,sans-Serif" font-size="10.00">ft_hit_plane</text>
</a>
</g>
</g>
<!-- Node14&#45;&gt;Node22 -->
<g id="edge21" class="edge">
<title>Node14&#45;&gt;Node22</title>
<path fill="none" stroke="midnightblue" d="M970.29,-200C980.46,-200 991.41,-200 1001.8,-200"/>
<polygon fill="midnightblue" stroke="midnightblue" points="1001.94,-203.5 1011.94,-200 1001.94,-196.5 1001.94,-203.5"/>
</g>
<!-- Node29 -->
<g id="node29" class="node">
<title>Node29</title>
<g id="a_node29"><a xlink:href="hit__manager_8h.html#aee999b32d6cebbb7bcd64995f8e88b6e" target="_top" xlink:title="Calculates if a sphere was hit by a ray.">
<polygon fill="none" stroke="black" points="1009,-152.5 1009,-171.5 1089,-171.5 1089,-152.5 1009,-152.5"/>
<text text-anchor="middle" x="1049" y="-159.5" font-family="Helvetica,sans-Serif" font-size="10.00">ft_hit_sphere</text>
</a>
</g>
</g>
<!-- Node14&#45;&gt;Node29 -->
<g id="edge30" class="edge">
<title>Node14&#45;&gt;Node29</title>
<path fill="none" stroke="midnightblue" d="M959.03,-190.41C973.97,-185.64 992.22,-179.81 1008.3,-174.68"/>
<polygon fill="midnightblue" stroke="midnightblue" points="1009.52,-177.96 1017.98,-171.59 1007.39,-171.29 1009.52,-177.96"/>
</g>
<!-- Node16 -->
<g id="node16" class="node">
<title>Node16</title>
<g id="a_node16"><a xlink:href="hit__cylinder_8c.html#afb7b50ad2f9161c61fc1065975ec7cbf" target="_top" xlink:title="Calculates all four potential hits of a cylinder.">
<polygon fill="none" stroke="black" points="1128,-418.5 1128,-437.5 1237,-437.5 1237,-418.5 1128,-418.5"/>
<text text-anchor="middle" x="1182.5" y="-425.5" font-family="Helvetica,sans-Serif" font-size="10.00">ft_cy_calc_pot_hits</text>
</a>
</g>
</g>
<!-- Node15&#45;&gt;Node16 -->
<g id="edge15" class="edge">
<title>Node15&#45;&gt;Node16</title>
<path fill="none" stroke="midnightblue" d="M1083.18,-399.59C1100,-404.45 1120.63,-410.41 1138.63,-415.61"/>
<polygon fill="midnightblue" stroke="midnightblue" points="1137.75,-419 1148.33,-418.41 1139.69,-412.28 1137.75,-419"/>
</g>
<!-- Node17 -->
<g id="node17" class="node">
<title>Node17</title>
<g id="a_node17"><a xlink:href="hit__cylinder_8c.html#a40c47553b6ecb8ff1834e44c4c308e9b" target="_top" xlink:title="Determines if the potential hits are accurate.">
<polygon fill="none" stroke="black" points="1130,-380.5 1130,-399.5 1235,-399.5 1235,-380.5 1130,-380.5"/>
<text text-anchor="middle" x="1182.5" y="-387.5" font-family="Helvetica,sans-Serif" font-size="10.00">ft_cy_identify_hits</text>
</a>
</g>
</g>
<!-- Node15&#45;&gt;Node17 -->
<g id="edge16" class="edge">
<title>Node15&#45;&gt;Node17</title>
<path fill="none" stroke="midnightblue" d="M1092.33,-390C1100.95,-390 1110.19,-390 1119.33,-390"/>
<polygon fill="midnightblue" stroke="midnightblue" points="1119.58,-393.5 1129.58,-390 1119.58,-386.5 1119.58,-393.5"/>
</g>
<!-- Node18 -->
<g id="node18" class="node">
<title>Node18</title>
<g id="a_node18"><a xlink:href="hit__cylinder_8c.html#a72c52cc4f5c57fc6171137d9eb6c3500" target="_top" xlink:title="Overwrites the hit record &quot;rec&quot; with the new hit data found in the &quot;tmp&quot; hit record.">
<polygon fill="none" stroke="black" points="1128,-456.5 1128,-475.5 1237,-475.5 1237,-456.5 1128,-456.5"/>
<text text-anchor="middle" x="1182.5" y="-463.5" font-family="Helvetica,sans-Serif" font-size="10.00">ft_cy_set_hitrecord</text>
</a>
</g>
</g>
<!-- Node15&#45;&gt;Node18 -->
<g id="edge17" class="edge">
<title>Node15&#45;&gt;Node18</title>
<path fill="none" stroke="midnightblue" d="M1068.96,-399.66C1076.37,-403.73 1084.81,-408.75 1092,-414 1109.53,-426.8 1109.4,-435.81 1128,-447 1131.37,-449.03 1134.99,-450.89 1138.7,-452.58"/>
<polygon fill="midnightblue" stroke="midnightblue" points="1137.44,-455.84 1148.02,-456.44 1140.12,-449.38 1137.44,-455.84"/>
</g>
<!-- Node19 -->
<g id="node19" class="node">
<title>Node19</title>
<g id="a_node19"><a xlink:href="hit__manager_8h.html#a55af5b9bdf1ed07d3128dd3e15dd3e6b" target="_top" xlink:title="Checks if cylinder is not blocked by another object.">
<polygon fill="none" stroke="black" points="1144,-342.5 1144,-361.5 1221,-361.5 1221,-342.5 1144,-342.5"/>
<text text-anchor="middle" x="1182.5" y="-349.5" font-family="Helvetica,sans-Serif" font-size="10.00">ft_cy_visible</text>
</a>
</g>
</g>
<!-- Node15&#45;&gt;Node19 -->
<g id="edge18" class="edge">
<title>Node15&#45;&gt;Node19</title>
<path fill="none" stroke="midnightblue" d="M1083.18,-380.41C1100,-375.55 1120.63,-369.59 1138.63,-364.39"/>
<polygon fill="midnightblue" stroke="midnightblue" points="1139.69,-367.72 1148.33,-361.59 1137.75,-361 1139.69,-367.72"/>
</g>
<!-- Node15&#45;&gt;Node21 -->
<g id="edge20" class="edge">
<title>Node15&#45;&gt;Node21</title>
<path fill="none" stroke="midnightblue" d="M1072.2,-399.56C1079.15,-403.32 1086.44,-408.16 1092,-414 1116.39,-439.63 1101.43,-461.63 1128,-485 1129.91,-486.68 1131.98,-488.21 1134.16,-489.62"/>
<polygon fill="midnightblue" stroke="midnightblue" points="1132.51,-492.71 1142.97,-494.39 1135.84,-486.55 1132.51,-492.71"/>
</g>
<!-- Node20 -->
<g id="node20" class="node">
<title>Node20</title>
<g id="a_node20"><a xlink:href="utils_8h.html#add4de5ba94d3f8475d0a1c4ce8abd3aa" target="_top" xlink:title="Determines if value is surrounded by the interval.">
<polygon fill="none" stroke="black" points="1276,-266.5 1276,-285.5 1353,-285.5 1353,-266.5 1276,-266.5"/>
<text text-anchor="middle" x="1314.5" y="-273.5" font-family="Helvetica,sans-Serif" font-size="10.00">ft_surrounds</text>
</a>
</g>
</g>
<!-- Node19&#45;&gt;Node20 -->
<g id="edge19" class="edge">
<title>Node19&#45;&gt;Node20</title>
<path fill="none" stroke="midnightblue" d="M1215.29,-342.47C1222.6,-339.8 1230.22,-336.62 1237,-333 1258.25,-321.65 1280.05,-304.79 1294.91,-292.36"/>
<polygon fill="midnightblue" stroke="midnightblue" points="1297.47,-294.77 1302.8,-285.62 1292.93,-289.45 1297.47,-294.77"/>
</g>
<!-- Node22&#45;&gt;Node20 -->
<g id="edge26" class="edge">
<title>Node22&#45;&gt;Node20</title>
<path fill="none" stroke="midnightblue" d="M1068.33,-209.73C1075.81,-213.89 1084.46,-218.95 1092,-224 1108.84,-235.28 1109.29,-244.2 1128,-252 1172.11,-270.38 1226.81,-275.56 1265.34,-276.64"/>
<polygon fill="midnightblue" stroke="midnightblue" points="1265.69,-280.15 1275.76,-276.85 1265.83,-273.15 1265.69,-280.15"/>
</g>
<!-- Node23 -->
<g id="node23" class="node">
<title>Node23</title>
<g id="a_node23"><a xlink:href="ray_8h.html#ac56e9ac7acfb4658469e190c022b0d63" target="_top" xlink:title="Represents a ray.">
<polygon fill="none" stroke="black" points="1145,-114.5 1145,-133.5 1220,-133.5 1220,-114.5 1145,-114.5"/>
<text text-anchor="middle" x="1182.5" y="-121.5" font-family="Helvetica,sans-Serif" font-size="10.00">ft_scale_ray</text>
</a>
</g>
</g>
<!-- Node22&#45;&gt;Node23 -->
<g id="edge22" class="edge">
<title>Node22&#45;&gt;Node23</title>
<path fill="none" stroke="midnightblue" d="M1072.96,-190.33C1079.22,-187.49 1085.95,-184.28 1092,-181 1115.73,-168.16 1141.6,-151.35 1159.4,-139.32"/>
<polygon fill="midnightblue" stroke="midnightblue" points="1161.63,-142.04 1167.92,-133.51 1157.68,-136.26 1161.63,-142.04"/>
</g>
<!-- Node25 -->
<g id="node25" class="node">
<title>Node25</title>
<g id="a_node25"><a xlink:href="vec3_8h.html#ac80a1c20941c96a8fafad255dac59092" target="_top" xlink:title="Scale a vector.">
<polygon fill="none" stroke="black" points="1273,-57.5 1273,-76.5 1356,-76.5 1356,-57.5 1273,-57.5"/>
<text text-anchor="middle" x="1314.5" y="-64.5" font-family="Helvetica,sans-Serif" font-size="10.00">ft_vec3_scale</text>
</a>
</g>
</g>
<!-- Node22&#45;&gt;Node25 -->
<g id="edge28" class="edge">
<title>Node22&#45;&gt;Node25</title>
<path fill="none" stroke="midnightblue" d="M1068.89,-209.52C1105.29,-226.37 1186.07,-256.33 1237,-219 1279.86,-187.59 1244.71,-149.97 1273,-105 1278.09,-96.91 1285.32,-89.38 1292.26,-83.2"/>
<polygon fill="midnightblue" stroke="midnightblue" points="1294.72,-85.7 1300.13,-76.6 1290.22,-80.34 1294.72,-85.7"/>
</g>
<!-- Node26 -->
<g id="node26" class="node">
<title>Node26</title>
<g id="a_node26"><a xlink:href="utils_8h.html#ae65513c75ce8a8538c22393e0af3ab1f" target="_top" xlink:title="Solves the given equation.">
<polygon fill="none" stroke="black" points="1155,-76.5 1155,-95.5 1210,-95.5 1210,-76.5 1155,-76.5"/>
<text text-anchor="middle" x="1182.5" y="-83.5" font-family="Helvetica,sans-Serif" font-size="10.00">ft_solve</text>
</a>
</g>
</g>
<!-- Node22&#45;&gt;Node26 -->
<g id="edge25" class="edge">
<title>Node22&#45;&gt;Node26</title>
<path fill="none" stroke="midnightblue" d="M1078.4,-190.48C1083.34,-187.94 1088.12,-184.81 1092,-181 1118.66,-154.8 1100.27,-130.06 1128,-105 1132.9,-100.58 1138.89,-97.17 1145.07,-94.54"/>
<polygon fill="midnightblue" stroke="midnightblue" points="1146.59,-97.72 1154.81,-91.04 1144.22,-91.13 1146.59,-97.72"/>
</g>
<!-- Node27 -->
<g id="node27" class="node">
<title>Node27</title>
<g id="a_node27"><a xlink:href="vec3_8h.html#a89fd02ae4b8b3602bc001664eb5e8f91" target="_top" xlink:title="Calculate the scalar product of two vectors.">
<polygon fill="none" stroke="black" points="1146,-190.5 1146,-209.5 1219,-209.5 1219,-190.5 1146,-190.5"/>
<text text-anchor="middle" x="1182.5" y="-197.5" font-family="Helvetica,sans-Serif" font-size="10.00">ft_vec3_dot</text>
</a>
</g>
</g>
<!-- Node22&#45;&gt;Node27 -->
<g id="edge27" class="edge">
<title>Node22&#45;&gt;Node27</title>
<path fill="none" stroke="midnightblue" d="M1086.28,-200C1101.5,-200 1119.37,-200 1135.49,-200"/>
<polygon fill="midnightblue" stroke="midnightblue" points="1135.79,-203.5 1145.79,-200 1135.79,-196.5 1135.79,-203.5"/>
</g>
<!-- Node22&#45;&gt;Node28 -->
<g id="edge29" class="edge">
<title>Node22&#45;&gt;Node28</title>
<path fill="none" stroke="midnightblue" d="M1072.1,-209.66C1079.04,-213.43 1086.36,-218.24 1092,-224 1115.39,-247.86 1103.47,-267.31 1128,-290 1132.11,-293.8 1136.92,-297.08 1141.95,-299.88"/>
<polygon fill="midnightblue" stroke="midnightblue" points="1140.6,-303.12 1151.11,-304.42 1143.71,-296.84 1140.6,-303.12"/>
</g>
<!-- Node24 -->
<g id="node24" class="node">
<title>Node24</title>
<g id="a_node24"><a xlink:href="vec3_8h.html#a73e2caf4c2a51ed954b7349c6be2b3c3" target="_top" xlink:title="Add two vectors.">
<polygon fill="none" stroke="black" points="1277,-114.5 1277,-133.5 1352,-133.5 1352,-114.5 1277,-114.5"/>
<text text-anchor="middle" x="1314.5" y="-121.5" font-family="Helvetica,sans-Serif" font-size="10.00">ft_vec3_add</text>
</a>
</g>
</g>
<!-- Node23&#45;&gt;Node24 -->
<g id="edge23" class="edge">
<title>Node23&#45;&gt;Node24</title>
<path fill="none" stroke="midnightblue" d="M1220.06,-124C1234.46,-124 1251.18,-124 1266.46,-124"/>
<polygon fill="midnightblue" stroke="midnightblue" points="1266.77,-127.5 1276.77,-124 1266.77,-120.5 1266.77,-127.5"/>
</g>
<!-- Node23&#45;&gt;Node25 -->
<g id="edge24" class="edge">
<title>Node23&#45;&gt;Node25</title>
<path fill="none" stroke="midnightblue" d="M1212.34,-114.47C1220.4,-111.62 1229.11,-108.35 1237,-105 1253.91,-97.83 1272.37,-88.7 1286.91,-81.19"/>
<polygon fill="midnightblue" stroke="midnightblue" points="1288.61,-84.25 1295.85,-76.52 1285.37,-78.05 1288.61,-84.25"/>
</g>
<!-- Node29&#45;&gt;Node20 -->
<g id="edge33" class="edge">
<title>Node29&#45;&gt;Node20</title>
<path fill="none" stroke="midnightblue" d="M1089.06,-157.56C1128.76,-154.89 1190.82,-155.95 1237,-181 1268.8,-198.25 1292.22,-234.78 1304.29,-257.18"/>
<polygon fill="midnightblue" stroke="midnightblue" points="1301.33,-259.08 1309.03,-266.36 1307.55,-255.87 1301.33,-259.08"/>
</g>
<!-- Node29&#45;&gt;Node23 -->
<g id="edge31" class="edge">
<title>Node29&#45;&gt;Node23</title>
<path fill="none" stroke="midnightblue" d="M1083.18,-152.41C1100,-147.55 1120.63,-141.59 1138.63,-136.39"/>
<polygon fill="midnightblue" stroke="midnightblue" points="1139.69,-139.72 1148.33,-133.59 1137.75,-133 1139.69,-139.72"/>
</g>
<!-- Node29&#45;&gt;Node25 -->
<g id="edge38" class="edge">
<title>Node29&#45;&gt;Node25</title>
<path fill="none" stroke="midnightblue" d="M1072.2,-152.44C1079.15,-148.68 1086.44,-143.84 1092,-138 1116.39,-112.37 1097.85,-85.52 1128,-67 1171.17,-40.49 1231.33,-46.56 1271.3,-55.18"/>
<polygon fill="midnightblue" stroke="midnightblue" points="1270.72,-58.64 1281.25,-57.47 1272.29,-51.82 1270.72,-58.64"/>
</g>
<!-- Node29&#45;&gt;Node26 -->
<g id="edge32" class="edge">
<title>Node29&#45;&gt;Node26</title>
<path fill="none" stroke="midnightblue" d="M1068.96,-152.34C1076.37,-148.27 1084.81,-143.25 1092,-138 1109.53,-125.2 1109.4,-116.19 1128,-105 1133.43,-101.73 1139.51,-98.91 1145.57,-96.51"/>
<polygon fill="midnightblue" stroke="midnightblue" points="1146.77,-99.79 1154.98,-93.09 1144.38,-93.22 1146.77,-99.79"/>
</g>
<!-- Node29&#45;&gt;Node27 -->
<g id="edge34" class="edge">
<title>Node29&#45;&gt;Node27</title>
<path fill="none" stroke="midnightblue" d="M1083.18,-171.59C1100,-176.45 1120.63,-182.41 1138.63,-187.61"/>
<polygon fill="midnightblue" stroke="midnightblue" points="1137.75,-191 1148.33,-190.41 1139.69,-184.28 1137.75,-191"/>
</g>
<!-- Node29&#45;&gt;Node28 -->
<g id="edge39" class="edge">
<title>Node29&#45;&gt;Node28</title>
<path fill="none" stroke="midnightblue" d="M1077.08,-171.57C1082.35,-174.15 1087.6,-177.28 1092,-181 1130.62,-213.64 1159.5,-266.94 1173.02,-295.14"/>
<polygon fill="midnightblue" stroke="midnightblue" points="1169.89,-296.72 1177.29,-304.3 1176.24,-293.76 1169.89,-296.72"/>
</g>
<!-- Node29&#45;&gt;Node30 -->
<g id="edge35" class="edge">
<title>Node29&#45;&gt;Node30</title>
<path fill="none" stroke="midnightblue" d="M1073.55,-152.39C1080.26,-148.72 1087.07,-143.95 1092,-138 1123.23,-100.35 1094.98,-70.08 1128,-34 1131.48,-30.2 1135.67,-26.97 1140.15,-24.22"/>
<polygon fill="midnightblue" stroke="midnightblue" points="1141.83,-27.29 1149.04,-19.53 1138.56,-21.11 1141.83,-27.29"/>
</g>
<!-- Node30&#45;&gt;Node25 -->
<g id="edge37" class="edge">
<title>Node30&#45;&gt;Node25</title>
<path fill="none" stroke="midnightblue" d="M1205.26,-19.54C1226.35,-28.79 1258.56,-42.91 1282.36,-53.35"/>
<polygon fill="midnightblue" stroke="midnightblue" points="1281.11,-56.62 1291.67,-57.43 1283.92,-50.21 1281.11,-56.62"/>
</g>
<!-- Node31 -->
<g id="node31" class="node">
<title>Node31</title>
<g id="a_node31"><a xlink:href="vec3__linalgebra_8c.html#aa84621bd979d3b12b97908f653faf88e" target="_top" xlink:title="Calculate the absolute value of a vector.">
<polygon fill="none" stroke="black" points="1277.5,-0.5 1277.5,-19.5 1351.5,-19.5 1351.5,-0.5 1277.5,-0.5"/>
<text text-anchor="middle" x="1314.5" y="-7.5" font-family="Helvetica,sans-Serif" font-size="10.00">ft_vec3_abs</text>
</a>
</g>
</g>
<!-- Node30&#45;&gt;Node31 -->
<g id="edge36" class="edge">
<title>Node30&#45;&gt;Node31</title>
<path fill="none" stroke="midnightblue" d="M1224.28,-10C1237.81,-10 1252.97,-10 1266.9,-10"/>
<polygon fill="midnightblue" stroke="midnightblue" points="1267.27,-13.5 1277.27,-10 1267.27,-6.5 1267.27,-13.5"/>
</g>
</g>
</svg>
        <g id="navigator" transform="translate(0 0)" fill="#404254">
                <rect fill="#f2f5e9" fill-opacity="0.5" stroke="#606060" stroke-width=".5" x="0" y="0" width="60" height="60"/>
                <use id="zoomplus" xlink:href="#zoomPlus" x="17" y="9" onmousedown="handleZoom(evt,'in')"/>
                <use id="zoomminus" xlink:href="#zoomMin" x="42" y="9" onmousedown="handleZoom(evt,'out')"/>
                <use id="reset" xlink:href="#resetDef" x="30" y="36" onmousedown="handleReset()"/>
                <g id="arrowUp" xlink:href="#dirArrow" transform="translate(30 24)" onmousedown="handlePan(0,-1)">
                  <use xlink:href="#rim" fill="#404040">
                        <set attributeName="fill" to="#808080" begin="arrowUp.mouseover" end="arrowUp.mouseout"/>
                  </use>
                  <path fill="none" stroke="white" stroke-width="1.5" d="M0,-3.0v7 M-2.5,-0.5L0,-3.0L2.5,-0.5"/>
                </g>
                <g id="arrowRight" xlink:href="#dirArrow" transform="rotate(90) translate(36 -43)" onmousedown="handlePan(1,0)">
                  <use xlink:href="#rim" fill="#404040">
                        <set attributeName="fill" to="#808080" begin="arrowRight.mouseover" end="arrowRight.mouseout"/>
                  </use>
                  <path fill="none" stroke="white" stroke-width="1.5" d="M0,-3.0v7 M-2.5,-0.5L0,-3.0L2.5,-0.5"/>
                </g>
                <g id="arrowDown" xlink:href="#dirArrow" transform="rotate(180) translate(-30 -48)" onmousedown="handlePan(0,1)">
                  <use xlink:href="#rim" fill="#404040">
                        <set attributeName="fill" to="#808080" begin="arrowDown.mouseover" end="arrowDown.mouseout"/>
                  </use>
                  <path fill="none" stroke="white" stroke-width="1.5" d="M0,-3.0v7 M-2.5,-0.5L0,-3.0L2.5,-0.5"/>
                </g>
                <g id="arrowLeft" xlink:href="#dirArrow" transform="rotate(270) translate(-36 17)" onmousedown="handlePan(-1,0)">
                  <use xlink:href="#rim" fill="#404040">
                        <set attributeName="fill" to="#808080" begin="arrowLeft.mouseover" end="arrowLeft.mouseout"/>
                  </use>
                  <path fill="none" stroke="white" stroke-width="1.5" d="M0,-3.0v7 M-2.5,-0.5L0,-3.0L2.5,-0.5"/>
                </g>
        </g>
        <svg viewBox="0 0 15 15" width="100%" height="30px" preserveAspectRatio="xMaxYMin meet">
         <g id="arrow_out" transform="scale(0.3 0.3)">
          <a xlink:href="render__threaded__fts__bonus_8c_a5d5ed6b28be3a532b4e17bd4a05df4d3_cgraph_org.svg" target="_base">
           <rect id="button" ry="5" rx="5" y="6" x="6" height="38" width="38"
                fill="#f2f5e9" fill-opacity="0.5" stroke="#606060" stroke-width="1.0"/>
           <path id="arrow"
             d="M 11.500037,31.436501 C 11.940474,20.09759 22.043105,11.32322 32.158766,21.979434 L 37.068811,17.246167 C 37.068811,17.246167 37.088388,32 37.088388,32 L 22.160133,31.978069 C 22.160133,31.978069 26.997745,27.140456 26.997745,27.140456 C 18.528582,18.264221 13.291696,25.230495 11.500037,31.436501 z"
             style="fill:#404040;"/>
          </a>
         </g>
        </svg>
</svg>
