<?xml version="1.0" encoding="UTF-8" standalone="no"?>
<!DOCTYPE svg PUBLIC "-//W3C//DTD SVG 1.1//EN"
 "http://www.w3.org/Graphics/SVG/1.1/DTD/svg11.dtd">
<!-- Generated by graphviz version 2.43.0 (0)
 -->
<!-- Title: ft_output_threaded Pages: 1 -->
<svg width="269pt" height="66pt"
 viewBox="0.00 0.00 269.00 66.00" xmlns="http://www.w3.org/2000/svg" xmlns:xlink="http://www.w3.org/1999/xlink">
<g id="graph0" class="graph" transform="scale(1 1) rotate(0) translate(4 62)">
<title>ft_output_threaded</title>
<!-- Node1 -->
<g id="node1" class="node">
<title>Node1</title>
<g id="a_node1"><a xlink:title="Wrapper function for threaded output.">
<polygon fill="#bfbfbf" stroke="black" points="0,-19.5 0,-38.5 109,-38.5 109,-19.5 0,-19.5"/>
<text text-anchor="middle" x="54.5" y="-26.5" font-family="Helvetica,sans-Serif" font-size="10.00">ft_output_threaded</text>
</a>
</g>
</g>
<!-- Node2 -->
<g id="node2" class="node">
<title>Node2</title>
<g id="a_node2"><a xlink:href="render__bonus_8h.html#a68b534edacde73b5710a8bcc823a1c1a" target="_top" xlink:title="Outputs the current render as a ppm file.">
<polygon fill="none" stroke="black" points="151,-38.5 151,-57.5 255,-57.5 255,-38.5 151,-38.5"/>
<text text-anchor="middle" x="203" y="-45.5" font-family="Helvetica,sans-Serif" font-size="10.00">ft_output_as_ppm</text>
</a>
</g>
</g>
<!-- Node1&#45;&gt;Node2 -->
<g id="edge1" class="edge">
<title>Node1&#45;&gt;Node2</title>
<path fill="none" stroke="midnightblue" d="M109.22,-35.97C119.49,-37.3 130.32,-38.7 140.8,-40.06"/>
<polygon fill="midnightblue" stroke="midnightblue" points="140.36,-43.53 150.73,-41.35 141.26,-36.59 140.36,-43.53"/>
</g>
<!-- Node3 -->
<g id="node3" class="node">
<title>Node3</title>
<g id="a_node3"><a xlink:href="render__output__threaded__bonus_8c.html#af0a811069d8f0d83135af5c7a8b60c76" target="_top" xlink:title="Helper function to toggle is_printing flag.">
<polygon fill="none" stroke="black" points="145,-0.5 145,-19.5 261,-19.5 261,-0.5 145,-0.5"/>
<text text-anchor="middle" x="203" y="-7.5" font-family="Helvetica,sans-Serif" font-size="10.00">ft_toggle_is_printing</text>
</a>
</g>
</g>
<!-- Node1&#45;&gt;Node3 -->
<g id="edge2" class="edge">
<title>Node1&#45;&gt;Node3</title>
<path fill="none" stroke="midnightblue" d="M109.22,-22.03C117.55,-20.95 126.25,-19.82 134.84,-18.71"/>
<polygon fill="midnightblue" stroke="midnightblue" points="135.37,-22.17 144.84,-17.41 134.47,-15.23 135.37,-22.17"/>
</g>
</g>
</svg>
