<?xml version="1.0" encoding="UTF-8" standalone="no"?>
<!DOCTYPE svg PUBLIC "-//W3C//DTD SVG 1.1//EN"
 "http://www.w3.org/Graphics/SVG/1.1/DTD/svg11.dtd">
<!-- Generated by graphviz version 2.43.0 (0)
 -->
<!-- Title: ft_fast_alpha_blend Pages: 1 -->
<svg width="274pt" height="78pt"
 viewBox="0.00 0.00 274.00 77.50" xmlns="http://www.w3.org/2000/svg" xmlns:xlink="http://www.w3.org/1999/xlink">
<g id="graph0" class="graph" transform="scale(1 1) rotate(0) translate(4 73.5)">
<title>ft_fast_alpha_blend</title>
<!-- Node1 -->
<g id="node1" class="node">
<title>Node1</title>
<g id="a_node1"><a xlink:title="Creates a blended colour from colour and menu colour.">
<polygon fill="#bfbfbf" stroke="black" points="154,-28 154,-47 266,-47 266,-28 154,-28"/>
<text text-anchor="middle" x="210" y="-35" font-family="Helvetica,sans-Serif" font-size="10.00">ft_fast_alpha_blend</text>
</a>
</g>
</g>
<!-- Node2 -->
<g id="node2" class="node">
<title>Node2</title>
<g id="a_node2"><a xlink:href="render_8h.html#ae04f0ec3394429ff447efb0611a8e78b" target="_top" xlink:title="Aplha blends current image with menu color to create overlay.">
<polygon fill="none" stroke="black" points="0,-50 0,-69 118,-69 118,-50 0,-50"/>
<text text-anchor="middle" x="59" y="-57" font-family="Helvetica,sans-Serif" font-size="10.00">ft_blend_background</text>
</a>
</g>
</g>
<!-- Node1&#45;&gt;Node2 -->
<g id="edge1" class="edge">
<title>Node1&#45;&gt;Node2</title>
<path fill="none" stroke="midnightblue" d="M143.94,-47.11C135.34,-48.38 126.56,-49.67 118.08,-50.92"/>
<polygon fill="midnightblue" stroke="midnightblue" points="144.56,-50.55 153.94,-45.63 143.54,-43.63 144.56,-50.55"/>
</g>
<!-- Node3 -->
<g id="node3" class="node">
<title>Node3</title>
<g id="a_node3"><a xlink:href="render__bonus_8h.html#a6831f3ff394ea0b5b817dc226f5c5b41" target="_top" xlink:title="Like ft_blend_background(), but threaded.">
<polygon fill="none" stroke="black" points="0,-0.5 0,-30.5 118,-30.5 118,-0.5 0,-0.5"/>
<text text-anchor="start" x="8" y="-18.5" font-family="Helvetica,sans-Serif" font-size="10.00">ft_blend_background</text>
<text text-anchor="middle" x="59" y="-7.5" font-family="Helvetica,sans-Serif" font-size="10.00">_threaded</text>
</a>
</g>
</g>
<!-- Node1&#45;&gt;Node3 -->
<g id="edge2" class="edge">
<title>Node1&#45;&gt;Node3</title>
<path fill="none" stroke="midnightblue" d="M143.94,-27.89C135.34,-26.62 126.56,-25.33 118.08,-24.08"/>
<polygon fill="midnightblue" stroke="midnightblue" points="143.54,-31.37 153.94,-29.37 144.56,-24.45 143.54,-31.37"/>
</g>
</g>
</svg>
