<?xml version="1.0" encoding="UTF-8" standalone="no"?>
<!DOCTYPE svg PUBLIC "-//W3C//DTD SVG 1.1//EN"
 "http://www.w3.org/Graphics/SVG/1.1/DTD/svg11.dtd">
<!-- Generated by graphviz version 2.43.0 (0)
 -->
<!-- Title: ft_manip_hittable Pages: 1 -->
<svg width="891pt" height="283pt"
 viewBox="0.00 0.00 891.00 283.24" xmlns="http://www.w3.org/2000/svg" xmlns:xlink="http://www.w3.org/1999/xlink">
<g id="graph0" class="graph" transform="scale(1 1) rotate(0) translate(4 279.24)">
<title>ft_manip_hittable</title>
<!-- Node1 -->
<g id="node1" class="node">
<title>Node1</title>
<g id="a_node1"><a xlink:title="Manipulates the active hittable.">
<polygon fill="#bfbfbf" stroke="black" points="0,-84.74 0,-103.74 102,-103.74 102,-84.74 0,-84.74"/>
<text text-anchor="middle" x="51" y="-91.74" font-family="Helvetica,sans-Serif" font-size="10.00">ft_manip_hittable</text>
</a>
</g>
</g>
<!-- Node2 -->
<g id="node2" class="node">
<title>Node2</title>
<g id="a_node2"><a xlink:href="render__keyhook__hittable_8c.html#a2737927d8cc8ff5dc3bd94b3e11fc1a9" target="_top" xlink:title="Manipulates the active cylinder.">
<polygon fill="none" stroke="black" points="138,-84.74 138,-103.74 242,-103.74 242,-84.74 138,-84.74"/>
<text text-anchor="middle" x="190" y="-91.74" font-family="Helvetica,sans-Serif" font-size="10.00">ft_manip_cylinder</text>
</a>
</g>
</g>
<!-- Node1&#45;&gt;Node2 -->
<g id="edge1" class="edge">
<title>Node1&#45;&gt;Node2</title>
<path fill="none" stroke="midnightblue" d="M102.24,-94.24C110.49,-94.24 119.12,-94.24 127.61,-94.24"/>
<polygon fill="midnightblue" stroke="midnightblue" points="127.85,-97.74 137.85,-94.24 127.85,-90.74 127.85,-97.74"/>
</g>
<!-- Node22 -->
<g id="node22" class="node">
<title>Node22</title>
<g id="a_node22"><a xlink:href="render__keyhook__hittable_8c.html#a2b397fc2e0dd418d497c05b3dff894f1" target="_top" xlink:title="Manipulates the active plane.">
<polygon fill="none" stroke="black" points="144,-122.74 144,-141.74 236,-141.74 236,-122.74 144,-122.74"/>
<text text-anchor="middle" x="190" y="-129.74" font-family="Helvetica,sans-Serif" font-size="10.00">ft_manip_plane</text>
</a>
</g>
</g>
<!-- Node1&#45;&gt;Node22 -->
<g id="edge27" class="edge">
<title>Node1&#45;&gt;Node22</title>
<path fill="none" stroke="midnightblue" d="M86.57,-103.83C104.18,-108.72 125.78,-114.71 144.6,-119.93"/>
<polygon fill="midnightblue" stroke="midnightblue" points="143.87,-123.36 154.44,-122.66 145.74,-116.61 143.87,-123.36"/>
</g>
<!-- Node23 -->
<g id="node23" class="node">
<title>Node23</title>
<g id="a_node23"><a xlink:href="render__keyhook__hittable_8c.html#a3af9cb325ad292f339446b63917a9ea2" target="_top" xlink:title="Manipulates the active sphere.">
<polygon fill="none" stroke="black" points="141,-46.74 141,-65.74 239,-65.74 239,-46.74 141,-46.74"/>
<text text-anchor="middle" x="190" y="-53.74" font-family="Helvetica,sans-Serif" font-size="10.00">ft_manip_sphere</text>
</a>
</g>
</g>
<!-- Node1&#45;&gt;Node23 -->
<g id="edge31" class="edge">
<title>Node1&#45;&gt;Node23</title>
<path fill="none" stroke="midnightblue" d="M86.57,-84.65C104.18,-79.77 125.78,-73.78 144.6,-68.56"/>
<polygon fill="midnightblue" stroke="midnightblue" points="145.74,-71.88 154.44,-65.83 143.87,-65.13 145.74,-71.88"/>
</g>
<!-- Node3 -->
<g id="node3" class="node">
<title>Node3</title>
<g id="a_node3"><a xlink:href="entities_8h.html#a04247c619f2a14a5a1fdb06004b8cb03" target="_top" xlink:title="Calculates the planes of the caps of a cylinder.">
<polygon fill="none" stroke="black" points="297,-84.74 297,-103.74 389,-103.74 389,-84.74 297,-84.74"/>
<text text-anchor="middle" x="343" y="-91.74" font-family="Helvetica,sans-Serif" font-size="10.00">ft_cy_calc_caps</text>
</a>
</g>
</g>
<!-- Node2&#45;&gt;Node3 -->
<g id="edge2" class="edge">
<title>Node2&#45;&gt;Node3</title>
<path fill="none" stroke="midnightblue" d="M242.12,-94.24C256.37,-94.24 271.92,-94.24 286.42,-94.24"/>
<polygon fill="midnightblue" stroke="midnightblue" points="286.75,-97.74 296.75,-94.24 286.75,-90.74 286.75,-97.74"/>
</g>
<!-- Node6 -->
<g id="node6" class="node">
<title>Node6</title>
<g id="a_node6"><a xlink:href="render_8h.html#a7f7526c1b74ae22e7d9f477e20a9890f" target="_top" xlink:title="Changes the colour with a keypress.">
<polygon fill="none" stroke="black" points="278,-46.74 278,-65.74 408,-65.74 408,-46.74 278,-46.74"/>
<text text-anchor="middle" x="343" y="-53.74" font-family="Helvetica,sans-Serif" font-size="10.00">ft_keyhook_change_col</text>
</a>
</g>
</g>
<!-- Node2&#45;&gt;Node6 -->
<g id="edge5" class="edge">
<title>Node2&#45;&gt;Node6</title>
<path fill="none" stroke="midnightblue" d="M229.1,-84.65C248.94,-79.66 273.38,-73.51 294.45,-68.21"/>
<polygon fill="midnightblue" stroke="midnightblue" points="295.33,-71.6 304.17,-65.76 293.62,-64.81 295.33,-71.6"/>
</g>
<!-- Node10 -->
<g id="node10" class="node">
<title>Node10</title>
<g id="a_node10"><a xlink:href="render_8h.html#a7b262237fcbe352cb4ef79235666956b" target="_top" xlink:title="Increases or decreases a value with a keypress.">
<polygon fill="none" stroke="black" points="287,-8.74 287,-27.74 399,-27.74 399,-8.74 287,-8.74"/>
<text text-anchor="middle" x="343" y="-15.74" font-family="Helvetica,sans-Serif" font-size="10.00">ft_keyhook_inc_dec</text>
</a>
</g>
</g>
<!-- Node2&#45;&gt;Node10 -->
<g id="edge10" class="edge">
<title>Node2&#45;&gt;Node10</title>
<path fill="none" stroke="midnightblue" d="M223.37,-84.73C229.81,-82.14 236.33,-79 242,-75.24 261.4,-62.41 258.17,-49.41 278,-37.24 281.4,-35.15 285.05,-33.28 288.81,-31.61"/>
<polygon fill="midnightblue" stroke="midnightblue" points="290.32,-34.78 298.33,-27.84 287.75,-28.27 290.32,-34.78"/>
</g>
<!-- Node11 -->
<g id="node11" class="node">
<title>Node11</title>
<g id="a_node11"><a xlink:href="render_8h.html#aa620096ce57b0280c8e9162eff12a938" target="_top" xlink:title="Moves a 3D point with a keypress.">
<polygon fill="none" stroke="black" points="282.5,-122.74 282.5,-141.74 403.5,-141.74 403.5,-122.74 282.5,-122.74"/>
<text text-anchor="middle" x="343" y="-129.74" font-family="Helvetica,sans-Serif" font-size="10.00">ft_keyhook_mv_point</text>
</a>
</g>
</g>
<!-- Node2&#45;&gt;Node11 -->
<g id="edge11" class="edge">
<title>Node2&#45;&gt;Node11</title>
<path fill="none" stroke="midnightblue" d="M229.1,-103.83C248.94,-108.82 273.38,-114.98 294.45,-120.28"/>
<polygon fill="midnightblue" stroke="midnightblue" points="293.62,-123.68 304.17,-122.72 295.33,-116.89 293.62,-123.68"/>
</g>
<!-- Node12 -->
<g id="node12" class="node">
<title>Node12</title>
<g id="a_node12"><a xlink:href="render_8h.html#a19285d1e97e1ac6d6d0708ecceb354ed" target="_top" xlink:title="Rotates a 3D vector with a keypress.">
<polygon fill="none" stroke="black" points="287.5,-169.74 287.5,-188.74 398.5,-188.74 398.5,-169.74 287.5,-169.74"/>
<text text-anchor="middle" x="343" y="-176.74" font-family="Helvetica,sans-Serif" font-size="10.00">ft_keyhook_rot_vec</text>
</a>
</g>
</g>
<!-- Node2&#45;&gt;Node12 -->
<g id="edge12" class="edge">
<title>Node2&#45;&gt;Node12</title>
<path fill="none" stroke="midnightblue" d="M223.37,-103.76C229.81,-106.34 236.33,-109.49 242,-113.24 261.4,-126.08 258.96,-137.87 278,-151.24 286.03,-156.88 295.37,-161.76 304.4,-165.78"/>
<polygon fill="midnightblue" stroke="midnightblue" points="303.05,-169.01 313.63,-169.67 305.77,-162.56 303.05,-169.01"/>
</g>
<!-- Node4 -->
<g id="node4" class="node">
<title>Node4</title>
<g id="a_node4"><a xlink:href="vec3_8h.html#a73e2caf4c2a51ed954b7349c6be2b3c3" target="_top" xlink:title="Add two vectors.">
<polygon fill="none" stroke="black" points="463.5,-65.74 463.5,-84.74 538.5,-84.74 538.5,-65.74 463.5,-65.74"/>
<text text-anchor="middle" x="501" y="-72.74" font-family="Helvetica,sans-Serif" font-size="10.00">ft_vec3_add</text>
</a>
</g>
</g>
<!-- Node3&#45;&gt;Node4 -->
<g id="edge3" class="edge">
<title>Node3&#45;&gt;Node4</title>
<path fill="none" stroke="midnightblue" d="M389.12,-88.75C409.29,-86.29 433.05,-83.4 453.39,-80.92"/>
<polygon fill="midnightblue" stroke="midnightblue" points="453.87,-84.39 463.37,-79.7 453.02,-77.44 453.87,-84.39"/>
</g>
<!-- Node5 -->
<g id="node5" class="node">
<title>Node5</title>
<g id="a_node5"><a xlink:href="vec3_8h.html#ac80a1c20941c96a8fafad255dac59092" target="_top" xlink:title="Scale a vector.">
<polygon fill="none" stroke="black" points="783,-103.74 783,-122.74 866,-122.74 866,-103.74 783,-103.74"/>
<text text-anchor="middle" x="824.5" y="-110.74" font-family="Helvetica,sans-Serif" font-size="10.00">ft_vec3_scale</text>
</a>
</g>
</g>
<!-- Node3&#45;&gt;Node5 -->
<g id="edge4" class="edge">
<title>Node3&#45;&gt;Node5</title>
<path fill="none" stroke="midnightblue" d="M389.11,-96.03C478.77,-99.58 678.82,-107.51 772.84,-111.24"/>
<polygon fill="midnightblue" stroke="midnightblue" points="772.82,-114.74 782.96,-111.64 773.1,-107.74 772.82,-114.74"/>
</g>
<!-- Node7 -->
<g id="node7" class="node">
<title>Node7</title>
<g id="a_node7"><a xlink:href="render__keyhook__colour_8c.html#a5d187c5314483276ba15560dcf620e39" target="_top" xlink:title="Returns a colour based on the given colour name.">
<polygon fill="none" stroke="black" points="784.5,-8.74 784.5,-27.74 864.5,-27.74 864.5,-8.74 784.5,-8.74"/>
<text text-anchor="middle" x="824.5" y="-15.74" font-family="Helvetica,sans-Serif" font-size="10.00">ft_get_colour</text>
</a>
</g>
</g>
<!-- Node6&#45;&gt;Node7 -->
<g id="edge6" class="edge">
<title>Node6&#45;&gt;Node7</title>
<path fill="none" stroke="midnightblue" d="M380.65,-46.72C389.71,-43.99 399.31,-40.79 408,-37.24 424.75,-30.41 426.44,-22.59 444,-18.24 559.36,10.33 700.56,-1.36 773.92,-10.76"/>
<polygon fill="midnightblue" stroke="midnightblue" points="773.86,-14.29 784.24,-12.13 774.78,-7.35 773.86,-14.29"/>
</g>
<!-- Node8 -->
<g id="node8" class="node">
<title>Node8</title>
<g id="a_node8"><a xlink:href="render__keyhook__colour_8c.html#a02dd1323bf99ad166e22cf0dcbef39f2" target="_top" xlink:title="Interpolates between two colours while keeping track of progress.">
<polygon fill="none" stroke="black" points="444,-27.74 444,-46.74 558,-46.74 558,-27.74 444,-27.74"/>
<text text-anchor="middle" x="501" y="-34.74" font-family="Helvetica,sans-Serif" font-size="10.00">ft_static_interpolate</text>
</a>
</g>
</g>
<!-- Node6&#45;&gt;Node8 -->
<g id="edge7" class="edge">
<title>Node6&#45;&gt;Node8</title>
<path fill="none" stroke="midnightblue" d="M408.35,-48.41C416.71,-47.39 425.27,-46.35 433.66,-45.32"/>
<polygon fill="midnightblue" stroke="midnightblue" points="434.27,-48.78 443.77,-44.09 433.42,-41.83 434.27,-48.78"/>
</g>
<!-- Node9 -->
<g id="node9" class="node">
<title>Node9</title>
<g id="a_node9"><a xlink:href="render__keyhook__colour_8c.html#a41e18bc0bce27f7169b29f79e5de0423" target="_top" xlink:title="Interpolates between two colours.">
<polygon fill="none" stroke="black" points="603.5,-27.74 603.5,-46.74 720.5,-46.74 720.5,-27.74 603.5,-27.74"/>
<text text-anchor="middle" x="662" y="-34.74" font-family="Helvetica,sans-Serif" font-size="10.00">ft_interpolate_colour</text>
</a>
</g>
</g>
<!-- Node8&#45;&gt;Node9 -->
<g id="edge8" class="edge">
<title>Node8&#45;&gt;Node9</title>
<path fill="none" stroke="midnightblue" d="M558.06,-37.24C569.4,-37.24 581.44,-37.24 593.13,-37.24"/>
<polygon fill="midnightblue" stroke="midnightblue" points="593.3,-40.74 603.3,-37.24 593.3,-33.74 593.3,-40.74"/>
</g>
<!-- Node9&#45;&gt;Node7 -->
<g id="edge9" class="edge">
<title>Node9&#45;&gt;Node7</title>
<path fill="none" stroke="midnightblue" d="M720.94,-30.38C738.34,-28.32 757.26,-26.08 774.06,-24.1"/>
<polygon fill="midnightblue" stroke="midnightblue" points="774.69,-27.55 784.21,-22.89 773.87,-20.59 774.69,-27.55"/>
</g>
<!-- Node13 -->
<g id="node13" class="node">
<title>Node13</title>
<g id="a_node13"><a xlink:href="mat4__vec3_8h.html#a211f9d6535bb54bea2299ee5ea8a54a0" target="_top" xlink:title="Rotates a 3D vector around the x&#45;axis.">
<polygon fill="none" stroke="black" points="452,-215.74 452,-234.74 550,-234.74 550,-215.74 452,-215.74"/>
<text text-anchor="middle" x="501" y="-222.74" font-family="Helvetica,sans-Serif" font-size="10.00">ft_vec3_rotate_x</text>
</a>
</g>
</g>
<!-- Node12&#45;&gt;Node13 -->
<g id="edge13" class="edge">
<title>Node12&#45;&gt;Node13</title>
<path fill="none" stroke="midnightblue" d="M376.32,-188.78C399.96,-195.74 432.24,-205.26 457.89,-212.83"/>
<polygon fill="midnightblue" stroke="midnightblue" points="457.14,-216.25 467.72,-215.72 459.12,-209.54 457.14,-216.25"/>
</g>
<!-- Node20 -->
<g id="node20" class="node">
<title>Node20</title>
<g id="a_node20"><a xlink:href="mat4__vec3_8h.html#ac8a4ca6fb927e3746e7129f8eb04aa46" target="_top" xlink:title="Rotates a 3D vector around the y&#45;axis.">
<polygon fill="none" stroke="black" points="452,-172.74 452,-191.74 550,-191.74 550,-172.74 452,-172.74"/>
<text text-anchor="middle" x="501" y="-179.74" font-family="Helvetica,sans-Serif" font-size="10.00">ft_vec3_rotate_y</text>
</a>
</g>
</g>
<!-- Node12&#45;&gt;Node20 -->
<g id="edge21" class="edge">
<title>Node12&#45;&gt;Node20</title>
<path fill="none" stroke="midnightblue" d="M398.56,-180.29C412.56,-180.56 427.67,-180.85 441.84,-181.13"/>
<polygon fill="midnightblue" stroke="midnightblue" points="441.9,-184.63 451.97,-181.32 442.04,-177.63 441.9,-184.63"/>
</g>
<!-- Node14 -->
<g id="node14" class="node">
<title>Node14</title>
<g id="a_node14"><a xlink:href="mat4_8h.html#a96153e828811e816c64e7d0e19fcf654" target="_top" xlink:title="Creates a 4x4 transformation matrix for x&#45;axis rotation.">
<polygon fill="none" stroke="black" points="594,-255.74 594,-274.74 730,-274.74 730,-255.74 594,-255.74"/>
<text text-anchor="middle" x="662" y="-262.74" font-family="Helvetica,sans-Serif" font-size="10.00">ft_mat4_create_rotate_x</text>
</a>
</g>
</g>
<!-- Node13&#45;&gt;Node14 -->
<g id="edge14" class="edge">
<title>Node13&#45;&gt;Node14</title>
<path fill="none" stroke="midnightblue" d="M540.08,-234.82C562.11,-240.37 590.02,-247.39 613.48,-253.29"/>
<polygon fill="midnightblue" stroke="midnightblue" points="612.67,-256.7 623.23,-255.74 614.38,-249.91 612.67,-256.7"/>
</g>
<!-- Node17 -->
<g id="node17" class="node">
<title>Node17</title>
<g id="a_node17"><a xlink:href="mat4__vec3__rotate_8c.html#a53ea797ed37dea591e9e86121a849aca" target="_top" xlink:title="Multiplies a 4x4 matrix with a 3D vector.">
<polygon fill="none" stroke="black" points="607,-217.74 607,-236.74 717,-236.74 717,-217.74 607,-217.74"/>
<text text-anchor="middle" x="662" y="-224.74" font-family="Helvetica,sans-Serif" font-size="10.00">ft_vec3_mult_mat4</text>
</a>
</g>
</g>
<!-- Node13&#45;&gt;Node17 -->
<g id="edge17" class="edge">
<title>Node13&#45;&gt;Node17</title>
<path fill="none" stroke="midnightblue" d="M550.14,-225.85C564.83,-226.03 581.23,-226.24 596.81,-226.44"/>
<polygon fill="midnightblue" stroke="midnightblue" points="596.87,-229.94 606.91,-226.56 596.95,-222.94 596.87,-229.94"/>
</g>
<!-- Node18 -->
<g id="node18" class="node">
<title>Node18</title>
<g id="a_node18"><a xlink:href="vec3_8h.html#a38fe500bd27847b866b9630146e43250" target="_top" xlink:title="Normalise a vector.">
<polygon fill="none" stroke="black" points="620.5,-141.74 620.5,-160.74 703.5,-160.74 703.5,-141.74 620.5,-141.74"/>
<text text-anchor="middle" x="662" y="-148.74" font-family="Helvetica,sans-Serif" font-size="10.00">ft_vec3_norm</text>
</a>
</g>
</g>
<!-- Node13&#45;&gt;Node18 -->
<g id="edge18" class="edge">
<title>Node13&#45;&gt;Node18</title>
<path fill="none" stroke="midnightblue" d="M528.76,-215.72C538.31,-211.83 548.94,-206.9 558,-201.24 575.91,-190.07 575.41,-180.25 594,-170.24 599.18,-167.45 604.82,-165.04 610.55,-162.96"/>
<polygon fill="midnightblue" stroke="midnightblue" points="611.82,-166.22 620.21,-159.76 609.62,-159.58 611.82,-166.22"/>
</g>
<!-- Node15 -->
<g id="node15" class="node">
<title>Node15</title>
<g id="a_node15"><a xlink:href="utils_8h.html#a7d1328722f9dc6edd652f7c732856ae9" target="_top" xlink:title="Transforms degrees into radian.">
<polygon fill="none" stroke="black" points="768,-245.74 768,-264.74 881,-264.74 881,-245.74 768,-245.74"/>
<text text-anchor="middle" x="824.5" y="-252.74" font-family="Helvetica,sans-Serif" font-size="10.00">ft_degree_to_radian</text>
</a>
</g>
</g>
<!-- Node14&#45;&gt;Node15 -->
<g id="edge15" class="edge">
<title>Node14&#45;&gt;Node15</title>
<path fill="none" stroke="midnightblue" d="M730.14,-261.06C739.25,-260.49 748.59,-259.91 757.68,-259.34"/>
<polygon fill="midnightblue" stroke="midnightblue" points="758.05,-262.83 767.81,-258.71 757.61,-255.84 758.05,-262.83"/>
</g>
<!-- Node16 -->
<g id="node16" class="node">
<title>Node16</title>
<g id="a_node16"><a xlink:href="mat4_8h.html#ad20d2d0fd3d7862225345a79b062f03a" target="_top" xlink:title="Returns a 4x4 identity matrix.">
<polygon fill="none" stroke="black" points="766,-198.74 766,-217.74 883,-217.74 883,-198.74 766,-198.74"/>
<text text-anchor="middle" x="824.5" y="-205.74" font-family="Helvetica,sans-Serif" font-size="10.00">ft_mat4_set_identity</text>
</a>
</g>
</g>
<!-- Node14&#45;&gt;Node16 -->
<g id="edge16" class="edge">
<title>Node14&#45;&gt;Node16</title>
<path fill="none" stroke="midnightblue" d="M699.39,-255.71C709.38,-252.88 720.17,-249.62 730,-246.24 751.11,-238.99 774.37,-229.54 792.41,-221.88"/>
<polygon fill="midnightblue" stroke="midnightblue" points="794.03,-224.99 801.84,-217.84 791.27,-218.56 794.03,-224.99"/>
</g>
<!-- Node18&#45;&gt;Node5 -->
<g id="edge20" class="edge">
<title>Node18&#45;&gt;Node5</title>
<path fill="none" stroke="midnightblue" d="M703.5,-141.65C724.68,-136.64 750.8,-130.46 773.26,-125.14"/>
<polygon fill="midnightblue" stroke="midnightblue" points="774.37,-128.47 783.29,-122.76 772.75,-121.66 774.37,-128.47"/>
</g>
<!-- Node19 -->
<g id="node19" class="node">
<title>Node19</title>
<g id="a_node19"><a xlink:href="vec3__linalgebra_8c.html#aa84621bd979d3b12b97908f653faf88e" target="_top" xlink:title="Calculate the absolute value of a vector.">
<polygon fill="none" stroke="black" points="787.5,-141.74 787.5,-160.74 861.5,-160.74 861.5,-141.74 787.5,-141.74"/>
<text text-anchor="middle" x="824.5" y="-148.74" font-family="Helvetica,sans-Serif" font-size="10.00">ft_vec3_abs</text>
</a>
</g>
</g>
<!-- Node18&#45;&gt;Node19 -->
<g id="edge19" class="edge">
<title>Node18&#45;&gt;Node19</title>
<path fill="none" stroke="midnightblue" d="M703.5,-151.24C725.99,-151.24 754.05,-151.24 777.38,-151.24"/>
<polygon fill="midnightblue" stroke="midnightblue" points="777.39,-154.74 787.39,-151.24 777.39,-147.74 777.39,-154.74"/>
</g>
<!-- Node20&#45;&gt;Node17 -->
<g id="edge25" class="edge">
<title>Node20&#45;&gt;Node17</title>
<path fill="none" stroke="midnightblue" d="M535.72,-191.79C559.54,-198.53 591.68,-207.62 617.44,-214.92"/>
<polygon fill="midnightblue" stroke="midnightblue" points="616.75,-218.36 627.33,-217.71 618.66,-211.62 616.75,-218.36"/>
</g>
<!-- Node20&#45;&gt;Node18 -->
<g id="edge26" class="edge">
<title>Node20&#45;&gt;Node18</title>
<path fill="none" stroke="midnightblue" d="M550.14,-172.86C569.21,-169.14 591.14,-164.86 610.44,-161.1"/>
<polygon fill="midnightblue" stroke="midnightblue" points="611.12,-164.53 620.27,-159.19 609.78,-157.66 611.12,-164.53"/>
</g>
<!-- Node21 -->
<g id="node21" class="node">
<title>Node21</title>
<g id="a_node21"><a xlink:href="mat4_8h.html#a3f33a47cb6e2a560791c9be852f27b35" target="_top" xlink:title="Creates a 4x4 transformation matrix for y&#45;axis rotation.">
<polygon fill="none" stroke="black" points="594,-179.74 594,-198.74 730,-198.74 730,-179.74 594,-179.74"/>
<text text-anchor="middle" x="662" y="-186.74" font-family="Helvetica,sans-Serif" font-size="10.00">ft_mat4_create_rotate_y</text>
</a>
</g>
</g>
<!-- Node20&#45;&gt;Node21 -->
<g id="edge22" class="edge">
<title>Node20&#45;&gt;Node21</title>
<path fill="none" stroke="midnightblue" d="M550.14,-184.36C560.81,-184.83 572.38,-185.34 583.89,-185.85"/>
<polygon fill="midnightblue" stroke="midnightblue" points="583.82,-189.35 593.96,-186.29 584.12,-182.36 583.82,-189.35"/>
</g>
<!-- Node21&#45;&gt;Node15 -->
<g id="edge23" class="edge">
<title>Node21&#45;&gt;Node15</title>
<path fill="none" stroke="midnightblue" d="M702.08,-198.84C711.36,-201.52 721.13,-204.69 730,-208.24 746.79,-214.97 749.87,-219.06 766,-227.24 775.19,-231.9 785.27,-236.86 794.39,-241.29"/>
<polygon fill="midnightblue" stroke="midnightblue" points="792.94,-244.48 803.46,-245.68 795.98,-238.18 792.94,-244.48"/>
</g>
<!-- Node21&#45;&gt;Node16 -->
<g id="edge24" class="edge">
<title>Node21&#45;&gt;Node16</title>
<path fill="none" stroke="midnightblue" d="M730.14,-197.19C738.56,-198.19 747.19,-199.21 755.63,-200.21"/>
<polygon fill="midnightblue" stroke="midnightblue" points="755.46,-203.71 765.8,-201.41 756.28,-196.76 755.46,-203.71"/>
</g>
<!-- Node22&#45;&gt;Node6 -->
<g id="edge28" class="edge">
<title>Node22&#45;&gt;Node6</title>
<path fill="none" stroke="midnightblue" d="M223.37,-122.73C229.81,-120.14 236.33,-117 242,-113.24 261.4,-100.41 258.17,-87.41 278,-75.24 281.4,-73.15 285.05,-71.28 288.81,-69.61"/>
<polygon fill="midnightblue" stroke="midnightblue" points="290.32,-72.78 298.33,-65.84 287.75,-66.27 290.32,-72.78"/>
</g>
<!-- Node22&#45;&gt;Node11 -->
<g id="edge29" class="edge">
<title>Node22&#45;&gt;Node11</title>
<path fill="none" stroke="midnightblue" d="M236.3,-132.24C247.64,-132.24 260.06,-132.24 272.28,-132.24"/>
<polygon fill="midnightblue" stroke="midnightblue" points="272.46,-135.74 282.46,-132.24 272.46,-128.74 272.46,-135.74"/>
</g>
<!-- Node22&#45;&gt;Node12 -->
<g id="edge30" class="edge">
<title>Node22&#45;&gt;Node12</title>
<path fill="none" stroke="midnightblue" d="M221.56,-141.76C244.61,-148.93 276.45,-158.84 301.6,-166.67"/>
<polygon fill="midnightblue" stroke="midnightblue" points="300.64,-170.04 311.23,-169.67 302.72,-163.35 300.64,-170.04"/>
</g>
<!-- Node23&#45;&gt;Node6 -->
<g id="edge32" class="edge">
<title>Node23&#45;&gt;Node6</title>
<path fill="none" stroke="midnightblue" d="M239.19,-56.24C248.29,-56.24 258,-56.24 267.68,-56.24"/>
<polygon fill="midnightblue" stroke="midnightblue" points="267.73,-59.74 277.73,-56.24 267.73,-52.74 267.73,-59.74"/>
</g>
<!-- Node23&#45;&gt;Node10 -->
<g id="edge33" class="edge">
<title>Node23&#45;&gt;Node10</title>
<path fill="none" stroke="midnightblue" d="M229.1,-46.65C248.94,-41.66 273.38,-35.51 294.45,-30.21"/>
<polygon fill="midnightblue" stroke="midnightblue" points="295.33,-33.6 304.17,-27.76 293.62,-26.81 295.33,-33.6"/>
</g>
<!-- Node23&#45;&gt;Node11 -->
<g id="edge34" class="edge">
<title>Node23&#45;&gt;Node11</title>
<path fill="none" stroke="midnightblue" d="M223.37,-65.76C229.81,-68.34 236.33,-71.49 242,-75.24 261.4,-88.08 258.17,-101.07 278,-113.24 281.4,-115.33 285.05,-117.2 288.81,-118.88"/>
<polygon fill="midnightblue" stroke="midnightblue" points="287.75,-122.22 298.33,-122.64 290.32,-115.71 287.75,-122.22"/>
</g>
</g>
</svg>
