<?xml version="1.0" encoding="UTF-8" standalone="no"?>
<!DOCTYPE svg PUBLIC "-//W3C//DTD SVG 1.1//EN"
 "http://www.w3.org/Graphics/SVG/1.1/DTD/svg11.dtd">
<!-- Generated by graphviz version 2.43.0 (0)
 -->
<!-- Title: ft_render_sample Pages: 1 -->
<svg width="1613pt" height="731pt"
 viewBox="0.00 0.00 1613.00 731.00" xmlns="http://www.w3.org/2000/svg" xmlns:xlink="http://www.w3.org/1999/xlink">
<g id="graph0" class="graph" transform="scale(1 1) rotate(0) translate(4 727)">
<title>ft_render_sample</title>
<!-- Node1 -->
<g id="node1" class="node">
<title>Node1</title>
<g id="a_node1"><a xlink:title="Raytraces a sample of the scene to the sample buffer.">
<polygon fill="#bfbfbf" stroke="black" points="0,-326.5 0,-345.5 101,-345.5 101,-326.5 0,-326.5"/>
<text text-anchor="middle" x="50.5" y="-333.5" font-family="Helvetica,sans-Serif" font-size="10.00">ft_render_sample</text>
</a>
</g>
</g>
<!-- Node2 -->
<g id="node2" class="node">
<title>Node2</title>
<g id="a_node2"><a xlink:href="time__bonus_8h.html#a0eb1b604aaecb5a41555b8f1e231f0a1" target="_top" xlink:title="Returns the current time in milliseconds.">
<polygon fill="none" stroke="black" points="140.5,-345.5 140.5,-364.5 232.5,-364.5 232.5,-345.5 140.5,-345.5"/>
<text text-anchor="middle" x="186.5" y="-352.5" font-family="Helvetica,sans-Serif" font-size="10.00">ft_get_time_ms</text>
</a>
</g>
</g>
<!-- Node1&#45;&gt;Node2 -->
<g id="edge1" class="edge">
<title>Node1&#45;&gt;Node2</title>
<path fill="none" stroke="midnightblue" d="M101.02,-343.02C110.53,-344.37 120.56,-345.79 130.24,-347.16"/>
<polygon fill="midnightblue" stroke="midnightblue" points="129.79,-350.64 140.18,-348.57 130.77,-343.7 129.79,-350.64"/>
</g>
<!-- Node3 -->
<g id="node3" class="node">
<title>Node3</title>
<g id="a_node3"><a xlink:href="render__sample__bonus_8c.html#a0ab696b1752ed3551f1cf8d8c2e7c5d8" target="_top" xlink:title="Raytraces a single sample of the scene to the sample buffer.">
<polygon fill="none" stroke="black" points="137,-307.5 137,-326.5 236,-326.5 236,-307.5 137,-307.5"/>
<text text-anchor="middle" x="186.5" y="-314.5" font-family="Helvetica,sans-Serif" font-size="10.00">ft_single_sample</text>
</a>
</g>
</g>
<!-- Node1&#45;&gt;Node3 -->
<g id="edge2" class="edge">
<title>Node1&#45;&gt;Node3</title>
<path fill="none" stroke="midnightblue" d="M101.02,-328.98C109.38,-327.79 118.13,-326.55 126.69,-325.34"/>
<polygon fill="midnightblue" stroke="midnightblue" points="127.22,-328.8 136.63,-323.93 126.24,-321.87 127.22,-328.8"/>
</g>
<!-- Node4 -->
<g id="node4" class="node">
<title>Node4</title>
<g id="a_node4"><a xlink:href="render__bit__field_8h.html#a0e353bbefbfd549ad2ebb5b821fc7900" target="_top" xlink:title="Clears bit in bit field.">
<polygon fill="none" stroke="black" points="282.5,-402.5 282.5,-421.5 371.5,-421.5 371.5,-402.5 282.5,-402.5"/>
<text text-anchor="middle" x="327" y="-409.5" font-family="Helvetica,sans-Serif" font-size="10.00">ft_option_clear</text>
</a>
</g>
</g>
<!-- Node3&#45;&gt;Node4 -->
<g id="edge3" class="edge">
<title>Node3&#45;&gt;Node4</title>
<path fill="none" stroke="midnightblue" d="M220.39,-326.58C225.95,-329.09 231.4,-332.2 236,-336 259.1,-355.08 248.57,-374.33 272,-393 274.26,-394.8 276.7,-396.44 279.25,-397.92"/>
<polygon fill="midnightblue" stroke="midnightblue" points="277.76,-401.09 288.27,-402.42 280.88,-394.82 277.76,-401.09"/>
</g>
<!-- Node5 -->
<g id="node5" class="node">
<title>Node5</title>
<g id="a_node5"><a xlink:href="render__bit__field_8h.html#aea0daf263880cbf1cf1a0dd050320e7a" target="_top" xlink:title="Checks if bit is set in the bit field.">
<polygon fill="none" stroke="black" points="283,-364.5 283,-383.5 371,-383.5 371,-364.5 283,-364.5"/>
<text text-anchor="middle" x="327" y="-371.5" font-family="Helvetica,sans-Serif" font-size="10.00">ft_option_isset</text>
</a>
</g>
</g>
<!-- Node3&#45;&gt;Node5 -->
<g id="edge4" class="edge">
<title>Node3&#45;&gt;Node5</title>
<path fill="none" stroke="midnightblue" d="M213.4,-326.53C220.77,-329.41 228.76,-332.69 236,-336 252.45,-343.53 255.42,-347.76 272,-355 276.72,-357.06 281.74,-359.07 286.74,-360.95"/>
<polygon fill="midnightblue" stroke="midnightblue" points="285.67,-364.29 296.27,-364.42 288.07,-357.71 285.67,-364.29"/>
</g>
<!-- Node6 -->
<g id="node6" class="node">
<title>Node6</title>
<g id="a_node6"><a xlink:href="render__bit__field_8h.html#ab984d9cbc7c648ef4481b9158b27da30" target="_top" xlink:title="Sets bit in bit field.">
<polygon fill="none" stroke="black" points="287,-326.5 287,-345.5 367,-345.5 367,-326.5 287,-326.5"/>
<text text-anchor="middle" x="327" y="-333.5" font-family="Helvetica,sans-Serif" font-size="10.00">ft_option_set</text>
</a>
</g>
</g>
<!-- Node3&#45;&gt;Node6 -->
<g id="edge5" class="edge">
<title>Node3&#45;&gt;Node6</title>
<path fill="none" stroke="midnightblue" d="M236.33,-323.7C249.36,-325.49 263.44,-327.42 276.51,-329.21"/>
<polygon fill="midnightblue" stroke="midnightblue" points="276.34,-332.72 286.73,-330.61 277.29,-325.79 276.34,-332.72"/>
</g>
<!-- Node7 -->
<g id="node7" class="node">
<title>Node7</title>
<g id="a_node7"><a xlink:href="render__bonus_8h.html#a396a2e84d5040d414ec16ab32303c8d1" target="_top" xlink:title="Raytraces the scene to the sample buffer.">
<polygon fill="none" stroke="black" points="272,-288.5 272,-307.5 382,-307.5 382,-288.5 272,-288.5"/>
<text text-anchor="middle" x="327" y="-295.5" font-family="Helvetica,sans-Serif" font-size="10.00">ft_raytrace_sample</text>
</a>
</g>
</g>
<!-- Node3&#45;&gt;Node7 -->
<g id="edge6" class="edge">
<title>Node3&#45;&gt;Node7</title>
<path fill="none" stroke="midnightblue" d="M236.33,-310.3C244.61,-309.16 253.33,-307.97 261.93,-306.79"/>
<polygon fill="midnightblue" stroke="midnightblue" points="262.52,-310.24 271.95,-305.41 261.57,-303.31 262.52,-310.24"/>
</g>
<!-- Node38 -->
<g id="node38" class="node">
<title>Node38</title>
<g id="a_node38"><a xlink:href="render__bonus_8h.html#a5d5ed6b28be3a532b4e17bd4a05df4d3" target="_top" xlink:title="Like ft_raytrace_sample(), but threaded.">
<polygon fill="none" stroke="black" points="272,-239 272,-269 382,-269 382,-239 272,-239"/>
<text text-anchor="start" x="280" y="-257" font-family="Helvetica,sans-Serif" font-size="10.00">ft_raytrace_sample</text>
<text text-anchor="middle" x="327" y="-246" font-family="Helvetica,sans-Serif" font-size="10.00">_threaded</text>
</a>
</g>
</g>
<!-- Node3&#45;&gt;Node38 -->
<g id="edge53" class="edge">
<title>Node3&#45;&gt;Node38</title>
<path fill="none" stroke="midnightblue" d="M208.54,-307.43C228.4,-298.4 258.76,-284.58 283.65,-273.27"/>
<polygon fill="midnightblue" stroke="midnightblue" points="285.23,-276.39 292.88,-269.07 282.33,-270.02 285.23,-276.39"/>
</g>
<!-- Node40 -->
<g id="node40" class="node">
<title>Node40</title>
<g id="a_node40"><a xlink:href="threads__bonus_8h.html#a2ebd69dd0aea05d27136b23dfb779788" target="_top" xlink:title="Creates NUM_THREADS threads and joins them.">
<polygon fill="none" stroke="black" points="281.5,-38.5 281.5,-57.5 372.5,-57.5 372.5,-38.5 281.5,-38.5"/>
<text text-anchor="middle" x="327" y="-45.5" font-family="Helvetica,sans-Serif" font-size="10.00">ft_spin_threads</text>
</a>
</g>
</g>
<!-- Node3&#45;&gt;Node40 -->
<g id="edge59" class="edge">
<title>Node3&#45;&gt;Node40</title>
<path fill="none" stroke="midnightblue" d="M192.43,-307.43C212.62,-268.21 289.22,-119.44 316.38,-66.69"/>
<polygon fill="midnightblue" stroke="midnightblue" points="319.52,-68.23 320.99,-57.74 313.3,-65.03 319.52,-68.23"/>
</g>
<!-- Node8 -->
<g id="node8" class="node">
<title>Node8</title>
<g id="a_node8"><a xlink:href="render__draw__bonus_8c.html#a8d0bd9d9ea57df013aa96dee7558d4b3" target="_top" xlink:title="Constructs a ray and shoots it through the pixel.">
<polygon fill="none" stroke="black" points="430,-304.5 430,-323.5 507,-323.5 507,-304.5 430,-304.5"/>
<text text-anchor="middle" x="468.5" y="-311.5" font-family="Helvetica,sans-Serif" font-size="10.00">ft_shoot_ray</text>
</a>
</g>
</g>
<!-- Node7&#45;&gt;Node8 -->
<g id="edge7" class="edge">
<title>Node7&#45;&gt;Node8</title>
<path fill="none" stroke="midnightblue" d="M382.33,-304.23C394.64,-305.64 407.62,-307.13 419.64,-308.51"/>
<polygon fill="midnightblue" stroke="midnightblue" points="419.58,-312.03 429.91,-309.69 420.37,-305.07 419.58,-312.03"/>
</g>
<!-- Node9 -->
<g id="node9" class="node">
<title>Node9</title>
<g id="a_node9"><a xlink:href="colour_8h.html#a9a9b5dd0aae5d92b494eeaa001e68470" target="_top" xlink:title="Converts a t_colour struct to an int32_t.">
<polygon fill="none" stroke="black" points="555,-266.5 555,-285.5 674,-285.5 674,-266.5 555,-266.5"/>
<text text-anchor="middle" x="614.5" y="-273.5" font-family="Helvetica,sans-Serif" font-size="10.00">ft_convert_colour2int</text>
</a>
</g>
</g>
<!-- Node8&#45;&gt;Node9 -->
<g id="edge8" class="edge">
<title>Node8&#45;&gt;Node9</title>
<path fill="none" stroke="midnightblue" d="M505.84,-304.41C524.58,-299.46 547.64,-293.38 567.61,-288.11"/>
<polygon fill="midnightblue" stroke="midnightblue" points="568.65,-291.46 577.42,-285.52 566.86,-284.69 568.65,-291.46"/>
</g>
<!-- Node10 -->
<g id="node10" class="node">
<title>Node10</title>
<g id="a_node10"><a xlink:href="ray_8h.html#a2cffd188fb76990901db47a2c3ac638f" target="_top" xlink:title="Returns the colour of a ray.">
<polygon fill="none" stroke="black" points="574.5,-380.5 574.5,-399.5 654.5,-399.5 654.5,-380.5 574.5,-380.5"/>
<text text-anchor="middle" x="614.5" y="-387.5" font-family="Helvetica,sans-Serif" font-size="10.00">ft_ray_colour</text>
</a>
</g>
</g>
<!-- Node8&#45;&gt;Node10 -->
<g id="edge9" class="edge">
<title>Node8&#45;&gt;Node10</title>
<path fill="none" stroke="midnightblue" d="M483.63,-323.54C500.27,-334.56 528.95,-352.84 555,-366 562.45,-369.77 570.64,-373.41 578.47,-376.68"/>
<polygon fill="midnightblue" stroke="midnightblue" points="577.19,-379.94 587.77,-380.46 579.82,-373.45 577.19,-379.94"/>
</g>
<!-- Node33 -->
<g id="node33" class="node">
<title>Node33</title>
<g id="a_node33"><a xlink:href="vec3_8h.html#a54e984820b74bd803de43ce36c8cb292" target="_top" xlink:title="Subtract two vectors.">
<polygon fill="none" stroke="black" points="1394.5,-247.5 1394.5,-266.5 1468.5,-266.5 1468.5,-247.5 1394.5,-247.5"/>
<text text-anchor="middle" x="1431.5" y="-254.5" font-family="Helvetica,sans-Serif" font-size="10.00">ft_vec3_sub</text>
</a>
</g>
</g>
<!-- Node8&#45;&gt;Node33 -->
<g id="edge52" class="edge">
<title>Node8&#45;&gt;Node33</title>
<path fill="none" stroke="midnightblue" d="M507.29,-322.53C560.33,-333.73 659.99,-352 746,-352 746,-352 746,-352 1178,-352 1267.67,-352 1364.44,-298.87 1407.54,-272.07"/>
<polygon fill="midnightblue" stroke="midnightblue" points="1409.56,-274.94 1416.14,-266.63 1405.81,-269.02 1409.56,-274.94"/>
</g>
<!-- Node35 -->
<g id="node35" class="node">
<title>Node35</title>
<g id="a_node35"><a xlink:href="vec3_8h.html#a38fe500bd27847b866b9630146e43250" target="_top" xlink:title="Normalise a vector.">
<polygon fill="none" stroke="black" points="1390,-209.5 1390,-228.5 1473,-228.5 1473,-209.5 1390,-209.5"/>
<text text-anchor="middle" x="1431.5" y="-216.5" font-family="Helvetica,sans-Serif" font-size="10.00">ft_vec3_norm</text>
</a>
</g>
</g>
<!-- Node8&#45;&gt;Node35 -->
<g id="edge51" class="edge">
<title>Node8&#45;&gt;Node35</title>
<path fill="none" stroke="midnightblue" d="M507.29,-321.5C551.85,-328.07 625.91,-331.61 674,-295 709.93,-267.65 684.12,-237 710,-200 747.02,-147.07 760.52,-130.19 820,-105 907.52,-67.93 937.96,-86 1033,-86 1033,-86 1033,-86 1178,-86 1276.57,-86 1374.44,-166.33 1413.16,-202.13"/>
<polygon fill="midnightblue" stroke="midnightblue" points="1411.23,-205.12 1420.9,-209.43 1416.03,-200.03 1411.23,-205.12"/>
</g>
<!-- Node11 -->
<g id="node11" class="node">
<title>Node11</title>
<g id="a_node11"><a xlink:href="lighting_8h.html#a3d54436a3f695a60b1c2d9e504a61de8" target="_top" xlink:title="Calculate the effect of different lighting on perception.">
<polygon fill="none" stroke="black" points="710,-209.5 710,-228.5 784,-228.5 784,-209.5 710,-209.5"/>
<text text-anchor="middle" x="747" y="-216.5" font-family="Helvetica,sans-Serif" font-size="10.00">ft_enlighten</text>
</a>
</g>
</g>
<!-- Node10&#45;&gt;Node11 -->
<g id="edge10" class="edge">
<title>Node10&#45;&gt;Node11</title>
<path fill="none" stroke="midnightblue" d="M625.58,-380.39C637.71,-368.59 658.38,-347.72 674,-328 697.92,-297.81 721.8,-259.69 735.16,-237.46"/>
<polygon fill="midnightblue" stroke="midnightblue" points="738.26,-239.1 740.36,-228.71 732.24,-235.52 738.26,-239.1"/>
</g>
<!-- Node19 -->
<g id="node19" class="node">
<title>Node19</title>
<g id="a_node19"><a xlink:href="hit__manager_8h.html#a9d5972226064b0a4d0e1359d9230abec" target="_top" xlink:title="Investigate a hittable and returns whether a hit occured or not.">
<polygon fill="none" stroke="black" points="1135,-418.5 1135,-437.5 1219,-437.5 1219,-418.5 1135,-418.5"/>
<text text-anchor="middle" x="1177" y="-425.5" font-family="Helvetica,sans-Serif" font-size="10.00">ft_hit_hittable</text>
</a>
</g>
</g>
<!-- Node10&#45;&gt;Node19 -->
<g id="edge49" class="edge">
<title>Node10&#45;&gt;Node19</title>
<path fill="none" stroke="midnightblue" d="M654.6,-388.87C737.15,-387.06 935.14,-385.81 1099,-409 1110.38,-410.61 1122.52,-413.19 1133.72,-415.94"/>
<polygon fill="midnightblue" stroke="midnightblue" points="1133.14,-419.4 1143.69,-418.48 1134.87,-412.62 1133.14,-419.4"/>
</g>
<!-- Node26 -->
<g id="node26" class="node">
<title>Node26</title>
<g id="a_node26"><a xlink:href="hit__manager_8h.html#aa5acefb1538a700dc595870ad630f83d" target="_top" xlink:title="Initiates hitrecord struct.">
<polygon fill="none" stroke="black" points="1385,-703.5 1385,-722.5 1478,-722.5 1478,-703.5 1385,-703.5"/>
<text text-anchor="middle" x="1431.5" y="-710.5" font-family="Helvetica,sans-Serif" font-size="10.00">ft_init_hitrecord</text>
</a>
</g>
</g>
<!-- Node10&#45;&gt;Node26 -->
<g id="edge50" class="edge">
<title>Node10&#45;&gt;Node26</title>
<path fill="none" stroke="midnightblue" d="M618.02,-399.52C632.66,-452.43 711.84,-708 875.5,-708 875.5,-708 875.5,-708 1178,-708 1245.68,-708 1323.55,-709.82 1374.71,-711.26"/>
<polygon fill="midnightblue" stroke="midnightblue" points="1374.79,-714.77 1384.89,-711.55 1375,-707.77 1374.79,-714.77"/>
</g>
<!-- Node12 -->
<g id="node12" class="node">
<title>Node12</title>
<g id="a_node12"><a xlink:href="colour_8h.html#ae5c090d9193f6bcf449f12c299f186b7" target="_top" xlink:title="Add two colours.">
<polygon fill="none" stroke="black" points="835.5,-228.5 835.5,-247.5 917.5,-247.5 917.5,-228.5 835.5,-228.5"/>
<text text-anchor="middle" x="876.5" y="-235.5" font-family="Helvetica,sans-Serif" font-size="10.00">ft_add_colour</text>
</a>
</g>
</g>
<!-- Node11&#45;&gt;Node12 -->
<g id="edge11" class="edge">
<title>Node11&#45;&gt;Node12</title>
<path fill="none" stroke="midnightblue" d="M784.2,-224.39C796.87,-226.28 811.34,-228.44 824.97,-230.47"/>
<polygon fill="midnightblue" stroke="midnightblue" points="824.77,-233.98 835.18,-231.99 825.81,-227.06 824.77,-233.98"/>
</g>
<!-- Node13 -->
<g id="node13" class="node">
<title>Node13</title>
<g id="a_node13"><a xlink:href="scene__light_8c.html#a691cc177466ad1a6b1ababe4272dca1b" target="_top" xlink:title="Create ambient lighting.">
<polygon fill="none" stroke="black" points="828.5,-190.5 828.5,-209.5 924.5,-209.5 924.5,-190.5 828.5,-190.5"/>
<text text-anchor="middle" x="876.5" y="-197.5" font-family="Helvetica,sans-Serif" font-size="10.00">ft_ambient_light</text>
</a>
</g>
</g>
<!-- Node11&#45;&gt;Node13 -->
<g id="edge12" class="edge">
<title>Node11&#45;&gt;Node13</title>
<path fill="none" stroke="midnightblue" d="M784.2,-213.61C794.79,-212.03 806.63,-210.26 818.2,-208.54"/>
<polygon fill="midnightblue" stroke="midnightblue" points="818.87,-211.98 828.24,-207.04 817.84,-205.05 818.87,-211.98"/>
</g>
<!-- Node14 -->
<g id="node14" class="node">
<title>Node14</title>
<g id="a_node14"><a xlink:href="scene__light_8c.html#ae50a6e06925c764b3caad3f805bc4c8a" target="_top" xlink:title="Create diffuse lighting.">
<polygon fill="none" stroke="black" points="832,-152.5 832,-171.5 921,-171.5 921,-152.5 832,-152.5"/>
<text text-anchor="middle" x="876.5" y="-159.5" font-family="Helvetica,sans-Serif" font-size="10.00">ft_diffuse_light</text>
</a>
</g>
</g>
<!-- Node11&#45;&gt;Node14 -->
<g id="edge13" class="edge">
<title>Node11&#45;&gt;Node14</title>
<path fill="none" stroke="midnightblue" d="M764.23,-209.5C778.59,-201.32 800.28,-189.52 820,-181 824.84,-178.91 830,-176.89 835.14,-174.99"/>
<polygon fill="midnightblue" stroke="midnightblue" points="836.68,-178.16 844.93,-171.51 834.34,-171.56 836.68,-178.16"/>
</g>
<!-- Node15 -->
<g id="node15" class="node">
<title>Node15</title>
<g id="a_node15"><a xlink:href="colour_8h.html#a9e6968b360ba0fa607a8571c262995ea" target="_top" xlink:title="Calculates the Hadamard product of two colours.">
<polygon fill="none" stroke="black" points="820,-114.5 820,-133.5 933,-133.5 933,-114.5 820,-114.5"/>
<text text-anchor="middle" x="876.5" y="-121.5" font-family="Helvetica,sans-Serif" font-size="10.00">ft_hadamard_colour</text>
</a>
</g>
</g>
<!-- Node11&#45;&gt;Node15 -->
<g id="edge14" class="edge">
<title>Node11&#45;&gt;Node15</title>
<path fill="none" stroke="midnightblue" d="M754.64,-209.42C766.17,-193.46 791.41,-161.37 820,-143 823.14,-140.98 826.52,-139.15 830,-137.5"/>
<polygon fill="midnightblue" stroke="midnightblue" points="831.54,-140.65 839.39,-133.52 828.81,-134.2 831.54,-140.65"/>
</g>
<!-- Node17 -->
<g id="node17" class="node">
<title>Node17</title>
<g id="a_node17"><a xlink:href="lighting_8h.html#a382179d88a3a971b5853322389bacf04" target="_top" xlink:title="Determines whether the point of intersection lies in a shadow regarding the current light source.">
<polygon fill="none" stroke="black" points="836.5,-304.5 836.5,-323.5 916.5,-323.5 916.5,-304.5 836.5,-304.5"/>
<text text-anchor="middle" x="876.5" y="-311.5" font-family="Helvetica,sans-Serif" font-size="10.00">ft_in_shadow</text>
</a>
</g>
</g>
<!-- Node11&#45;&gt;Node17 -->
<g id="edge16" class="edge">
<title>Node11&#45;&gt;Node17</title>
<path fill="none" stroke="midnightblue" d="M761.16,-228.81C783.23,-245.25 827.86,-278.5 854.36,-298.25"/>
<polygon fill="midnightblue" stroke="midnightblue" points="852.49,-301.22 862.6,-304.39 856.67,-295.6 852.49,-301.22"/>
</g>
<!-- Node16 -->
<g id="node16" class="node">
<title>Node16</title>
<g id="a_node16"><a xlink:href="utils_8h.html#a241b2b1d75c68c1eefd36b569901c9f9" target="_top" xlink:title="Ensure that the returned float lies within the interval.">
<polygon fill="none" stroke="black" points="1004.5,-114.5 1004.5,-133.5 1063.5,-133.5 1063.5,-114.5 1004.5,-114.5"/>
<text text-anchor="middle" x="1034" y="-121.5" font-family="Helvetica,sans-Serif" font-size="10.00">ft_clamp</text>
</a>
</g>
</g>
<!-- Node15&#45;&gt;Node16 -->
<g id="edge15" class="edge">
<title>Node15&#45;&gt;Node16</title>
<path fill="none" stroke="midnightblue" d="M933.2,-124C953.4,-124 975.77,-124 994.19,-124"/>
<polygon fill="midnightblue" stroke="midnightblue" points="994.27,-127.5 1004.27,-124 994.27,-120.5 994.27,-127.5"/>
</g>
<!-- Node18 -->
<g id="node18" class="node">
<title>Node18</title>
<g id="a_node18"><a xlink:href="scene__shadow_8c.html#a931177e8edb2dd5393cef7a468389a4d" target="_top" xlink:title="Determines whether the shadow ray emitted from the point of intersection is blocked on its way to the...">
<polygon fill="none" stroke="black" points="969,-418.5 969,-437.5 1099,-437.5 1099,-418.5 969,-418.5"/>
<text text-anchor="middle" x="1034" y="-425.5" font-family="Helvetica,sans-Serif" font-size="10.00">ft_shadow_ray_blocked</text>
</a>
</g>
</g>
<!-- Node17&#45;&gt;Node18 -->
<g id="edge17" class="edge">
<title>Node17&#45;&gt;Node18</title>
<path fill="none" stroke="midnightblue" d="M890.49,-323.52C917.18,-343.09 978.42,-387.99 1011.26,-412.06"/>
<polygon fill="midnightblue" stroke="midnightblue" points="1009.58,-415.17 1019.72,-418.26 1013.72,-409.53 1009.58,-415.17"/>
</g>
<!-- Node17&#45;&gt;Node33 -->
<g id="edge48" class="edge">
<title>Node17&#45;&gt;Node33</title>
<path fill="none" stroke="midnightblue" d="M916.74,-310.97C961.04,-307.48 1035.25,-301.39 1099,-295 1200.83,-284.8 1319.99,-270.58 1384.06,-262.75"/>
<polygon fill="midnightblue" stroke="midnightblue" points="1384.74,-266.19 1394.24,-261.5 1383.89,-259.24 1384.74,-266.19"/>
</g>
<!-- Node17&#45;&gt;Node35 -->
<g id="edge47" class="edge">
<title>Node17&#45;&gt;Node35</title>
<path fill="none" stroke="midnightblue" d="M904.4,-304.49C913.79,-300.62 924.19,-295.71 933,-290 951.21,-278.2 949.11,-265.69 969,-257 1107.71,-196.38 1292.04,-204.38 1379.84,-212.85"/>
<polygon fill="midnightblue" stroke="midnightblue" points="1379.51,-216.33 1389.81,-213.85 1380.21,-209.37 1379.51,-216.33"/>
</g>
<!-- Node37 -->
<g id="node37" class="node">
<title>Node37</title>
<g id="a_node37"><a xlink:href="vec3_8h.html#aa84621bd979d3b12b97908f653faf88e" target="_top" xlink:title="Calculate the absolute value of a vector.">
<polygon fill="none" stroke="black" points="997,-266.5 997,-285.5 1071,-285.5 1071,-266.5 997,-266.5"/>
<text text-anchor="middle" x="1034" y="-273.5" font-family="Helvetica,sans-Serif" font-size="10.00">ft_vec3_abs</text>
</a>
</g>
</g>
<!-- Node17&#45;&gt;Node37 -->
<g id="edge46" class="edge">
<title>Node17&#45;&gt;Node37</title>
<path fill="none" stroke="midnightblue" d="M916.74,-304.41C938.12,-299.19 964.69,-292.69 987.04,-287.23"/>
<polygon fill="midnightblue" stroke="midnightblue" points="988.09,-290.58 996.97,-284.8 986.43,-283.78 988.09,-290.58"/>
</g>
<!-- Node18&#45;&gt;Node19 -->
<g id="edge18" class="edge">
<title>Node18&#45;&gt;Node19</title>
<path fill="none" stroke="midnightblue" d="M1099.31,-428C1107.79,-428 1116.39,-428 1124.61,-428"/>
<polygon fill="midnightblue" stroke="midnightblue" points="1124.79,-431.5 1134.79,-428 1124.79,-424.5 1124.79,-431.5"/>
</g>
<!-- Node18&#45;&gt;Node26 -->
<g id="edge45" class="edge">
<title>Node18&#45;&gt;Node26</title>
<path fill="none" stroke="midnightblue" d="M1044.49,-437.68C1073.99,-467.47 1167.32,-559.59 1255,-623 1305.83,-659.76 1320.08,-667.61 1377,-694 1381.41,-696.04 1386.1,-698 1390.8,-699.84"/>
<polygon fill="midnightblue" stroke="midnightblue" points="1389.8,-703.2 1400.39,-703.41 1392.24,-696.64 1389.8,-703.2"/>
</g>
<!-- Node20 -->
<g id="node20" class="node">
<title>Node20</title>
<g id="a_node20"><a xlink:href="hit__manager_8h.html#ad1c0dcb3141fe78ed26368ca7bb8d2b8" target="_top" xlink:title="Calculates if a cylinder was hit by a ray.">
<polygon fill="none" stroke="black" points="1255,-594.5 1255,-613.5 1341,-613.5 1341,-594.5 1255,-594.5"/>
<text text-anchor="middle" x="1298" y="-601.5" font-family="Helvetica,sans-Serif" font-size="10.00">ft_hit_cylinder</text>
</a>
</g>
</g>
<!-- Node19&#45;&gt;Node20 -->
<g id="edge19" class="edge">
<title>Node19&#45;&gt;Node20</title>
<path fill="none" stroke="midnightblue" d="M1184.57,-437.71C1203.7,-466.01 1259.63,-548.73 1284.65,-585.74"/>
<polygon fill="midnightblue" stroke="midnightblue" points="1281.81,-587.78 1290.31,-594.1 1287.6,-583.86 1281.81,-587.78"/>
</g>
<!-- Node27 -->
<g id="node27" class="node">
<title>Node27</title>
<g id="a_node27"><a xlink:href="hit__manager_8h.html#a04f04eb6383f01a28b0c7201ab52782e" target="_top" xlink:title="Calculates if a plane was hit by a ray.">
<polygon fill="none" stroke="black" points="1261,-418.5 1261,-437.5 1335,-437.5 1335,-418.5 1261,-418.5"/>
<text text-anchor="middle" x="1298" y="-425.5" font-family="Helvetica,sans-Serif" font-size="10.00">ft_hit_plane</text>
</a>
</g>
</g>
<!-- Node19&#45;&gt;Node27 -->
<g id="edge26" class="edge">
<title>Node19&#45;&gt;Node27</title>
<path fill="none" stroke="midnightblue" d="M1219.29,-428C1229.46,-428 1240.41,-428 1250.8,-428"/>
<polygon fill="midnightblue" stroke="midnightblue" points="1250.94,-431.5 1260.94,-428 1250.94,-424.5 1250.94,-431.5"/>
</g>
<!-- Node34 -->
<g id="node34" class="node">
<title>Node34</title>
<g id="a_node34"><a xlink:href="hit__manager_8h.html#aee999b32d6cebbb7bcd64995f8e88b6e" target="_top" xlink:title="Calculates if a sphere was hit by a ray.">
<polygon fill="none" stroke="black" points="1258,-380.5 1258,-399.5 1338,-399.5 1338,-380.5 1258,-380.5"/>
<text text-anchor="middle" x="1298" y="-387.5" font-family="Helvetica,sans-Serif" font-size="10.00">ft_hit_sphere</text>
</a>
</g>
</g>
<!-- Node19&#45;&gt;Node34 -->
<g id="edge35" class="edge">
<title>Node19&#45;&gt;Node34</title>
<path fill="none" stroke="midnightblue" d="M1208.03,-418.41C1222.97,-413.64 1241.22,-407.81 1257.3,-402.68"/>
<polygon fill="midnightblue" stroke="midnightblue" points="1258.52,-405.96 1266.98,-399.59 1256.39,-399.29 1258.52,-405.96"/>
</g>
<!-- Node21 -->
<g id="node21" class="node">
<title>Node21</title>
<g id="a_node21"><a xlink:href="hit__cylinder_8c.html#afb7b50ad2f9161c61fc1065975ec7cbf" target="_top" xlink:title="Calculates all four potential hits of a cylinder.">
<polygon fill="none" stroke="black" points="1377,-627.5 1377,-646.5 1486,-646.5 1486,-627.5 1377,-627.5"/>
<text text-anchor="middle" x="1431.5" y="-634.5" font-family="Helvetica,sans-Serif" font-size="10.00">ft_cy_calc_pot_hits</text>
</a>
</g>
</g>
<!-- Node20&#45;&gt;Node21 -->
<g id="edge20" class="edge">
<title>Node20&#45;&gt;Node21</title>
<path fill="none" stroke="midnightblue" d="M1337.04,-613.54C1351.21,-617.1 1367.49,-621.19 1382.45,-624.94"/>
<polygon fill="midnightblue" stroke="midnightblue" points="1382,-628.44 1392.55,-627.48 1383.7,-621.65 1382,-628.44"/>
</g>
<!-- Node22 -->
<g id="node22" class="node">
<title>Node22</title>
<g id="a_node22"><a xlink:href="hit__cylinder_8c.html#a40c47553b6ecb8ff1834e44c4c308e9b" target="_top" xlink:title="Determines if the potential hits are accurate.">
<polygon fill="none" stroke="black" points="1379,-589.5 1379,-608.5 1484,-608.5 1484,-589.5 1379,-589.5"/>
<text text-anchor="middle" x="1431.5" y="-596.5" font-family="Helvetica,sans-Serif" font-size="10.00">ft_cy_identify_hits</text>
</a>
</g>
</g>
<!-- Node20&#45;&gt;Node22 -->
<g id="edge21" class="edge">
<title>Node20&#45;&gt;Node22</title>
<path fill="none" stroke="midnightblue" d="M1341.33,-602.39C1349.95,-602.06 1359.19,-601.71 1368.33,-601.36"/>
<polygon fill="midnightblue" stroke="midnightblue" points="1368.72,-604.85 1378.58,-600.97 1368.45,-597.86 1368.72,-604.85"/>
</g>
<!-- Node23 -->
<g id="node23" class="node">
<title>Node23</title>
<g id="a_node23"><a xlink:href="hit__cylinder_8c.html#a72c52cc4f5c57fc6171137d9eb6c3500" target="_top" xlink:title="Overwrites the hit record &quot;rec&quot; with the new hit data found in the &quot;tmp&quot; hit record.">
<polygon fill="none" stroke="black" points="1377,-665.5 1377,-684.5 1486,-684.5 1486,-665.5 1377,-665.5"/>
<text text-anchor="middle" x="1431.5" y="-672.5" font-family="Helvetica,sans-Serif" font-size="10.00">ft_cy_set_hitrecord</text>
</a>
</g>
</g>
<!-- Node20&#45;&gt;Node23 -->
<g id="edge22" class="edge">
<title>Node20&#45;&gt;Node23</title>
<path fill="none" stroke="midnightblue" d="M1311.38,-613.66C1326.29,-624.96 1352.41,-643.68 1377,-656 1381.08,-658.04 1385.42,-659.97 1389.82,-661.75"/>
<polygon fill="midnightblue" stroke="midnightblue" points="1388.81,-665.11 1399.4,-665.42 1391.31,-658.58 1388.81,-665.11"/>
</g>
<!-- Node24 -->
<g id="node24" class="node">
<title>Node24</title>
<g id="a_node24"><a xlink:href="hit__manager_8h.html#a55af5b9bdf1ed07d3128dd3e15dd3e6b" target="_top" xlink:title="Checks if cylinder is not blocked by another object.">
<polygon fill="none" stroke="black" points="1393,-551.5 1393,-570.5 1470,-570.5 1470,-551.5 1393,-551.5"/>
<text text-anchor="middle" x="1431.5" y="-558.5" font-family="Helvetica,sans-Serif" font-size="10.00">ft_cy_visible</text>
</a>
</g>
</g>
<!-- Node20&#45;&gt;Node24 -->
<g id="edge23" class="edge">
<title>Node20&#45;&gt;Node24</title>
<path fill="none" stroke="midnightblue" d="M1328.18,-594.46C1346.91,-588.33 1371.44,-580.31 1391.79,-573.66"/>
<polygon fill="midnightblue" stroke="midnightblue" points="1392.98,-576.95 1401.4,-570.52 1390.8,-570.3 1392.98,-576.95"/>
</g>
<!-- Node20&#45;&gt;Node26 -->
<g id="edge25" class="edge">
<title>Node20&#45;&gt;Node26</title>
<path fill="none" stroke="midnightblue" d="M1309.02,-613.59C1317.76,-622.1 1330.62,-635.01 1341,-647 1358.22,-666.89 1355.73,-678.52 1377,-694 1379.63,-695.91 1382.47,-697.65 1385.42,-699.22"/>
<polygon fill="midnightblue" stroke="midnightblue" points="1383.98,-702.41 1394.53,-703.46 1386.94,-696.07 1383.98,-702.41"/>
</g>
<!-- Node25 -->
<g id="node25" class="node">
<title>Node25</title>
<g id="a_node25"><a xlink:href="utils_8h.html#add4de5ba94d3f8475d0a1c4ce8abd3aa" target="_top" xlink:title="Determines if value is surrounded by the interval.">
<polygon fill="none" stroke="black" points="1525,-513.5 1525,-532.5 1602,-532.5 1602,-513.5 1525,-513.5"/>
<text text-anchor="middle" x="1563.5" y="-520.5" font-family="Helvetica,sans-Serif" font-size="10.00">ft_surrounds</text>
</a>
</g>
</g>
<!-- Node24&#45;&gt;Node25 -->
<g id="edge24" class="edge">
<title>Node24&#45;&gt;Node25</title>
<path fill="none" stroke="midnightblue" d="M1465.3,-551.41C1481.78,-546.6 1501.94,-540.7 1519.63,-535.53"/>
<polygon fill="midnightblue" stroke="midnightblue" points="1521.09,-538.75 1529.71,-532.59 1519.13,-532.03 1521.09,-538.75"/>
</g>
<!-- Node27&#45;&gt;Node25 -->
<g id="edge31" class="edge">
<title>Node27&#45;&gt;Node25</title>
<path fill="none" stroke="midnightblue" d="M1306.17,-437.56C1318.63,-453.36 1345.93,-484.61 1377,-499 1420.5,-519.14 1475.52,-524.03 1514.3,-524.57"/>
<polygon fill="midnightblue" stroke="midnightblue" points="1514.77,-528.07 1524.79,-524.61 1514.8,-521.07 1514.77,-528.07"/>
</g>
<!-- Node28 -->
<g id="node28" class="node">
<title>Node28</title>
<g id="a_node28"><a xlink:href="ray_8h.html#ac56e9ac7acfb4658469e190c022b0d63" target="_top" xlink:title="Represents a ray.">
<polygon fill="none" stroke="black" points="1394,-361.5 1394,-380.5 1469,-380.5 1469,-361.5 1394,-361.5"/>
<text text-anchor="middle" x="1431.5" y="-368.5" font-family="Helvetica,sans-Serif" font-size="10.00">ft_scale_ray</text>
</a>
</g>
</g>
<!-- Node27&#45;&gt;Node28 -->
<g id="edge27" class="edge">
<title>Node27&#45;&gt;Node28</title>
<path fill="none" stroke="midnightblue" d="M1321.01,-418.46C1342.34,-409.21 1374.92,-395.09 1399,-384.65"/>
<polygon fill="midnightblue" stroke="midnightblue" points="1400.63,-387.76 1408.42,-380.57 1397.85,-381.34 1400.63,-387.76"/>
</g>
<!-- Node30 -->
<g id="node30" class="node">
<title>Node30</title>
<g id="a_node30"><a xlink:href="vec3_8h.html#ac80a1c20941c96a8fafad255dac59092" target="_top" xlink:title="Scale a vector.">
<polygon fill="none" stroke="black" points="1522,-304.5 1522,-323.5 1605,-323.5 1605,-304.5 1522,-304.5"/>
<text text-anchor="middle" x="1563.5" y="-311.5" font-family="Helvetica,sans-Serif" font-size="10.00">ft_vec3_scale</text>
</a>
</g>
</g>
<!-- Node27&#45;&gt;Node30 -->
<g id="edge33" class="edge">
<title>Node27&#45;&gt;Node30</title>
<path fill="none" stroke="midnightblue" d="M1313.25,-437.64C1346.8,-459.03 1432.02,-505.56 1486,-466 1528.86,-434.59 1493.71,-396.97 1522,-352 1527.09,-343.91 1534.32,-336.38 1541.26,-330.2"/>
<polygon fill="midnightblue" stroke="midnightblue" points="1543.72,-332.7 1549.13,-323.6 1539.22,-327.34 1543.72,-332.7"/>
</g>
<!-- Node31 -->
<g id="node31" class="node">
<title>Node31</title>
<g id="a_node31"><a xlink:href="utils_8h.html#ae65513c75ce8a8538c22393e0af3ab1f" target="_top" xlink:title="Solves the given equation.">
<polygon fill="none" stroke="black" points="1404,-323.5 1404,-342.5 1459,-342.5 1459,-323.5 1404,-323.5"/>
<text text-anchor="middle" x="1431.5" y="-330.5" font-family="Helvetica,sans-Serif" font-size="10.00">ft_solve</text>
</a>
</g>
</g>
<!-- Node27&#45;&gt;Node31 -->
<g id="edge30" class="edge">
<title>Node27&#45;&gt;Node31</title>
<path fill="none" stroke="midnightblue" d="M1326.6,-418.31C1331.72,-415.76 1336.77,-412.68 1341,-409 1363.6,-389.33 1353.6,-370.71 1377,-352 1382.1,-347.92 1388.15,-344.68 1394.31,-342.12"/>
<polygon fill="midnightblue" stroke="midnightblue" points="1395.75,-345.32 1403.96,-338.63 1393.37,-338.74 1395.75,-345.32"/>
</g>
<!-- Node32 -->
<g id="node32" class="node">
<title>Node32</title>
<g id="a_node32"><a xlink:href="vec3_8h.html#a89fd02ae4b8b3602bc001664eb5e8f91" target="_top" xlink:title="Calculate the scalar product of two vectors.">
<polygon fill="none" stroke="black" points="1395,-437.5 1395,-456.5 1468,-456.5 1468,-437.5 1395,-437.5"/>
<text text-anchor="middle" x="1431.5" y="-444.5" font-family="Helvetica,sans-Serif" font-size="10.00">ft_vec3_dot</text>
</a>
</g>
</g>
<!-- Node27&#45;&gt;Node32 -->
<g id="edge32" class="edge">
<title>Node27&#45;&gt;Node32</title>
<path fill="none" stroke="midnightblue" d="M1335.28,-433.24C1350.5,-435.44 1368.37,-438.02 1384.49,-440.35"/>
<polygon fill="midnightblue" stroke="midnightblue" points="1384.39,-443.87 1394.79,-441.84 1385.4,-436.95 1384.39,-443.87"/>
</g>
<!-- Node27&#45;&gt;Node33 -->
<g id="edge34" class="edge">
<title>Node27&#45;&gt;Node33</title>
<path fill="none" stroke="midnightblue" d="M1328.09,-418.5C1332.84,-415.98 1337.38,-412.85 1341,-409 1371.91,-376.09 1353.09,-352.3 1377,-314 1386.37,-298.99 1400.07,-284.49 1411.26,-273.87"/>
<polygon fill="midnightblue" stroke="midnightblue" points="1413.88,-276.21 1418.87,-266.87 1409.14,-271.06 1413.88,-276.21"/>
</g>
<!-- Node29 -->
<g id="node29" class="node">
<title>Node29</title>
<g id="a_node29"><a xlink:href="vec3_8h.html#a73e2caf4c2a51ed954b7349c6be2b3c3" target="_top" xlink:title="Add two vectors.">
<polygon fill="none" stroke="black" points="1526,-361.5 1526,-380.5 1601,-380.5 1601,-361.5 1526,-361.5"/>
<text text-anchor="middle" x="1563.5" y="-368.5" font-family="Helvetica,sans-Serif" font-size="10.00">ft_vec3_add</text>
</a>
</g>
</g>
<!-- Node28&#45;&gt;Node29 -->
<g id="edge28" class="edge">
<title>Node28&#45;&gt;Node29</title>
<path fill="none" stroke="midnightblue" d="M1469.06,-371C1483.46,-371 1500.18,-371 1515.46,-371"/>
<polygon fill="midnightblue" stroke="midnightblue" points="1515.77,-374.5 1525.77,-371 1515.77,-367.5 1515.77,-374.5"/>
</g>
<!-- Node28&#45;&gt;Node30 -->
<g id="edge29" class="edge">
<title>Node28&#45;&gt;Node30</title>
<path fill="none" stroke="midnightblue" d="M1461.34,-361.47C1469.4,-358.62 1478.11,-355.35 1486,-352 1502.91,-344.83 1521.37,-335.7 1535.91,-328.19"/>
<polygon fill="midnightblue" stroke="midnightblue" points="1537.61,-331.25 1544.85,-323.52 1534.37,-325.05 1537.61,-331.25"/>
</g>
<!-- Node34&#45;&gt;Node25 -->
<g id="edge38" class="edge">
<title>Node34&#45;&gt;Node25</title>
<path fill="none" stroke="midnightblue" d="M1338.32,-390.36C1378.22,-392.39 1440.44,-400.27 1486,-428 1516.75,-446.71 1540.39,-482.45 1552.81,-504.36"/>
<polygon fill="midnightblue" stroke="midnightblue" points="1549.84,-506.24 1557.71,-513.35 1555.99,-502.89 1549.84,-506.24"/>
</g>
<!-- Node34&#45;&gt;Node28 -->
<g id="edge36" class="edge">
<title>Node34&#45;&gt;Node28</title>
<path fill="none" stroke="midnightblue" d="M1338.1,-384.35C1352.37,-382.29 1368.66,-379.94 1383.54,-377.78"/>
<polygon fill="midnightblue" stroke="midnightblue" points="1384.18,-381.23 1393.58,-376.33 1383.18,-374.3 1384.18,-381.23"/>
</g>
<!-- Node34&#45;&gt;Node30 -->
<g id="edge43" class="edge">
<title>Node34&#45;&gt;Node30</title>
<path fill="none" stroke="midnightblue" d="M1319.89,-380.45C1327.05,-376.58 1334.81,-371.68 1341,-366 1361.72,-347 1352.1,-327.05 1377,-314 1419.91,-291.52 1476.43,-295.45 1515.76,-302.53"/>
<polygon fill="midnightblue" stroke="midnightblue" points="1515.13,-305.97 1525.61,-304.43 1516.46,-299.1 1515.13,-305.97"/>
</g>
<!-- Node34&#45;&gt;Node31 -->
<g id="edge37" class="edge">
<title>Node34&#45;&gt;Node31</title>
<path fill="none" stroke="midnightblue" d="M1317.33,-380.35C1332.97,-372.29 1356.17,-360.74 1377,-352 1382.53,-349.68 1388.46,-347.39 1394.28,-345.24"/>
<polygon fill="midnightblue" stroke="midnightblue" points="1395.65,-348.47 1403.88,-341.79 1393.29,-341.88 1395.65,-348.47"/>
</g>
<!-- Node34&#45;&gt;Node32 -->
<g id="edge39" class="edge">
<title>Node34&#45;&gt;Node32</title>
<path fill="none" stroke="midnightblue" d="M1321.01,-399.54C1342.34,-408.79 1374.92,-422.91 1399,-433.35"/>
<polygon fill="midnightblue" stroke="midnightblue" points="1397.85,-436.66 1408.42,-437.43 1400.63,-430.24 1397.85,-436.66"/>
</g>
<!-- Node34&#45;&gt;Node33 -->
<g id="edge44" class="edge">
<title>Node34&#45;&gt;Node33</title>
<path fill="none" stroke="midnightblue" d="M1321.87,-380.42C1328.7,-376.71 1335.76,-371.9 1341,-366 1368.24,-335.32 1348.3,-310.31 1377,-281 1380.69,-277.23 1385.08,-274.01 1389.73,-271.26"/>
<polygon fill="midnightblue" stroke="midnightblue" points="1391.59,-274.23 1398.88,-266.54 1388.39,-268.01 1391.59,-274.23"/>
</g>
<!-- Node34&#45;&gt;Node35 -->
<g id="edge40" class="edge">
<title>Node34&#45;&gt;Node35</title>
<path fill="none" stroke="midnightblue" d="M1301.3,-380.26C1308.1,-353.58 1330.58,-278.63 1377,-238 1378.95,-236.3 1381.06,-234.74 1383.28,-233.32"/>
<polygon fill="midnightblue" stroke="midnightblue" points="1385.1,-236.32 1392.26,-228.51 1381.8,-230.15 1385.1,-236.32"/>
</g>
<!-- Node35&#45;&gt;Node30 -->
<g id="edge42" class="edge">
<title>Node35&#45;&gt;Node30</title>
<path fill="none" stroke="midnightblue" d="M1466.66,-228.59C1473.32,-231.15 1480.08,-234.27 1486,-238 1511.23,-253.88 1534.67,-279.41 1548.79,-296.44"/>
<polygon fill="midnightblue" stroke="midnightblue" points="1546.27,-298.9 1555.28,-304.48 1551.72,-294.5 1546.27,-298.9"/>
</g>
<!-- Node36 -->
<g id="node36" class="node">
<title>Node36</title>
<g id="a_node36"><a xlink:href="vec3__linalgebra_8c.html#aa84621bd979d3b12b97908f653faf88e" target="_top" xlink:title="Calculate the absolute value of a vector.">
<polygon fill="none" stroke="black" points="1526.5,-209.5 1526.5,-228.5 1600.5,-228.5 1600.5,-209.5 1526.5,-209.5"/>
<text text-anchor="middle" x="1563.5" y="-216.5" font-family="Helvetica,sans-Serif" font-size="10.00">ft_vec3_abs</text>
</a>
</g>
</g>
<!-- Node35&#45;&gt;Node36 -->
<g id="edge41" class="edge">
<title>Node35&#45;&gt;Node36</title>
<path fill="none" stroke="midnightblue" d="M1473.28,-219C1486.81,-219 1501.97,-219 1515.9,-219"/>
<polygon fill="midnightblue" stroke="midnightblue" points="1516.27,-222.5 1526.27,-219 1516.27,-215.5 1516.27,-222.5"/>
</g>
<!-- Node39 -->
<g id="node39" class="node">
<title>Node39</title>
<g id="a_node39"><a xlink:href="render_8h.html#a2c9085ad1ae8adcd3201a501a9a4dcde" target="_top" xlink:title="Constructs a ray and shoots it through the pixel.">
<polygon fill="none" stroke="black" points="430,-244.5 430,-263.5 507,-263.5 507,-244.5 430,-244.5"/>
<text text-anchor="middle" x="468.5" y="-251.5" font-family="Helvetica,sans-Serif" font-size="10.00">ft_shoot_ray</text>
</a>
</g>
</g>
<!-- Node38&#45;&gt;Node39 -->
<g id="edge54" class="edge">
<title>Node38&#45;&gt;Node39</title>
<path fill="none" stroke="midnightblue" d="M382.33,-254C394.64,-254 407.62,-254 419.64,-254"/>
<polygon fill="midnightblue" stroke="midnightblue" points="419.91,-257.5 429.91,-254 419.91,-250.5 419.91,-257.5"/>
</g>
<!-- Node39&#45;&gt;Node9 -->
<g id="edge55" class="edge">
<title>Node39&#45;&gt;Node9</title>
<path fill="none" stroke="midnightblue" d="M507.33,-259.78C518.78,-261.53 531.71,-263.5 544.53,-265.46"/>
<polygon fill="midnightblue" stroke="midnightblue" points="544.33,-268.97 554.74,-267.02 545.38,-262.05 544.33,-268.97"/>
</g>
<!-- Node39&#45;&gt;Node10 -->
<g id="edge56" class="edge">
<title>Node39&#45;&gt;Node10</title>
<path fill="none" stroke="midnightblue" d="M481.98,-263.79C492.16,-271.9 506.8,-283.87 519,-295 547.56,-321.08 578.88,-353.35 597.33,-372.77"/>
<polygon fill="midnightblue" stroke="midnightblue" points="594.99,-375.39 604.4,-380.25 600.08,-370.58 594.99,-375.39"/>
</g>
<!-- Node39&#45;&gt;Node33 -->
<g id="edge58" class="edge">
<title>Node39&#45;&gt;Node33</title>
<path fill="none" stroke="midnightblue" d="M507.37,-254.45C617.17,-255.74 928.17,-259.19 933,-257 955.09,-247 946.91,-226 969,-216 1021.63,-192.17 1041.33,-212.45 1099,-216 1201.26,-222.3 1320.25,-239.43 1384.18,-249.44"/>
<polygon fill="midnightblue" stroke="midnightblue" points="1383.91,-252.94 1394.34,-251.05 1385,-246.03 1383.91,-252.94"/>
</g>
<!-- Node39&#45;&gt;Node35 -->
<g id="edge57" class="edge">
<title>Node39&#45;&gt;Node35</title>
<path fill="none" stroke="midnightblue" d="M475.62,-244.34C502.27,-203.61 612.81,-48 746,-48 746,-48 746,-48 1178,-48 1251.23,-48 1279.95,-31.56 1341,-72 1387.77,-102.98 1414.08,-167.6 1424.78,-199.84"/>
<polygon fill="midnightblue" stroke="midnightblue" points="1421.47,-200.96 1427.82,-209.44 1428.14,-198.85 1421.47,-200.96"/>
</g>
<!-- Node41 -->
<g id="node41" class="node">
<title>Node41</title>
<g id="a_node41"><a xlink:href="threads__bonus_8c.html#adef619e7d6d95dba7464efd3edac7ca0" target="_top" xlink:title="Creates NUM_THREADS threads and calls routine with arg.">
<polygon fill="none" stroke="black" points="418,-38.5 418,-57.5 519,-57.5 519,-38.5 418,-38.5"/>
<text text-anchor="middle" x="468.5" y="-45.5" font-family="Helvetica,sans-Serif" font-size="10.00">ft_create_threads</text>
</a>
</g>
</g>
<!-- Node40&#45;&gt;Node41 -->
<g id="edge60" class="edge">
<title>Node40&#45;&gt;Node41</title>
<path fill="none" stroke="midnightblue" d="M372.52,-48C383.62,-48 395.71,-48 407.42,-48"/>
<polygon fill="midnightblue" stroke="midnightblue" points="407.59,-51.5 417.59,-48 407.59,-44.5 407.59,-51.5"/>
</g>
<!-- Node43 -->
<g id="node43" class="node">
<title>Node43</title>
<g id="a_node43"><a xlink:href="threads__bonus_8c.html#a8e3352c99f6ff37fac8b8c0f33e934ed" target="_top" xlink:title="Joins threads.">
<polygon fill="none" stroke="black" points="424,-0.5 424,-19.5 513,-19.5 513,-0.5 424,-0.5"/>
<text text-anchor="middle" x="468.5" y="-7.5" font-family="Helvetica,sans-Serif" font-size="10.00">ft_join_threads</text>
</a>
</g>
</g>
<!-- Node40&#45;&gt;Node43 -->
<g id="edge62" class="edge">
<title>Node40&#45;&gt;Node43</title>
<path fill="none" stroke="midnightblue" d="M363.2,-38.41C381.21,-33.51 403.33,-27.48 422.56,-22.24"/>
<polygon fill="midnightblue" stroke="midnightblue" points="423.58,-25.59 432.31,-19.59 421.74,-18.84 423.58,-25.59"/>
</g>
<!-- Node42 -->
<g id="node42" class="node">
<title>Node42</title>
<g id="a_node42"><a xlink:href="error__msg_8h.html#aee5d10b82b6780869c9cc69cd64e44cc" target="_top" xlink:title="Print generic error message.">
<polygon fill="none" stroke="black" points="585.5,-0.5 585.5,-19.5 643.5,-19.5 643.5,-0.5 585.5,-0.5"/>
<text text-anchor="middle" x="614.5" y="-7.5" font-family="Helvetica,sans-Serif" font-size="10.00">ft_perror</text>
</a>
</g>
</g>
<!-- Node41&#45;&gt;Node42 -->
<g id="edge61" class="edge">
<title>Node41&#45;&gt;Node42</title>
<path fill="none" stroke="midnightblue" d="M505.84,-38.41C527.13,-32.79 553.98,-25.71 575.55,-20.02"/>
<polygon fill="midnightblue" stroke="midnightblue" points="576.57,-23.36 585.35,-17.43 574.79,-16.6 576.57,-23.36"/>
</g>
<!-- Node43&#45;&gt;Node42 -->
<g id="edge63" class="edge">
<title>Node43&#45;&gt;Node42</title>
<path fill="none" stroke="midnightblue" d="M513.1,-10C532.93,-10 556.19,-10 575.33,-10"/>
<polygon fill="midnightblue" stroke="midnightblue" points="575.49,-13.5 585.49,-10 575.49,-6.5 575.49,-13.5"/>
</g>
</g>
</svg>
