<?xml version="1.0" encoding="UTF-8" standalone="no"?>
<!DOCTYPE svg PUBLIC "-//W3C//DTD SVG 1.1//EN"
 "http://www.w3.org/Graphics/SVG/1.1/DTD/svg11.dtd">
<!-- Generated by graphviz version 2.43.0 (0)
 -->
<!-- Title: ft_manip_light Pages: 1 -->
<svg width="821pt" height="104pt"
 viewBox="0.00 0.00 821.00 104.00" xmlns="http://www.w3.org/2000/svg" xmlns:xlink="http://www.w3.org/1999/xlink">
<g id="graph0" class="graph" transform="scale(1 1) rotate(0) translate(4 100)">
<title>ft_manip_light</title>
<!-- Node1 -->
<g id="node1" class="node">
<title>Node1</title>
<g id="a_node1"><a xlink:title="Manipulates the active light.">
<polygon fill="#bfbfbf" stroke="black" points="0,-57.5 0,-76.5 86,-76.5 86,-57.5 0,-57.5"/>
<text text-anchor="middle" x="43" y="-64.5" font-family="Helvetica,sans-Serif" font-size="10.00">ft_manip_light</text>
</a>
</g>
</g>
<!-- Node2 -->
<g id="node2" class="node">
<title>Node2</title>
<g id="a_node2"><a xlink:href="render__keyhook__light_8c.html#a597d35b7bd3aa66272e3c2ff3a1e8f78" target="_top" xlink:title="Manipulates the ambient light.">
<polygon fill="none" stroke="black" points="122.5,-76.5 122.5,-95.5 227.5,-95.5 227.5,-76.5 122.5,-76.5"/>
<text text-anchor="middle" x="175" y="-83.5" font-family="Helvetica,sans-Serif" font-size="10.00">ft_manip_ambient</text>
</a>
</g>
</g>
<!-- Node1&#45;&gt;Node2 -->
<g id="edge1" class="edge">
<title>Node1&#45;&gt;Node2</title>
<path fill="none" stroke="midnightblue" d="M86.21,-73.17C94.61,-74.4 103.6,-75.71 112.49,-77.01"/>
<polygon fill="midnightblue" stroke="midnightblue" points="112.06,-80.49 122.47,-78.47 113.08,-73.56 112.06,-80.49"/>
</g>
<!-- Node8 -->
<g id="node8" class="node">
<title>Node8</title>
<g id="a_node8"><a xlink:href="render__keyhook__light_8c.html#a16d57d13773703e93274caef6b5ccde1" target="_top" xlink:title="Manipulates a light source.">
<polygon fill="none" stroke="black" points="122,-38.5 122,-57.5 228,-57.5 228,-38.5 122,-38.5"/>
<text text-anchor="middle" x="175" y="-45.5" font-family="Helvetica,sans-Serif" font-size="10.00">ft_manip_light_src</text>
</a>
</g>
</g>
<!-- Node1&#45;&gt;Node8 -->
<g id="edge8" class="edge">
<title>Node1&#45;&gt;Node8</title>
<path fill="none" stroke="midnightblue" d="M86.21,-60.83C94.31,-59.65 102.95,-58.38 111.53,-57.13"/>
<polygon fill="midnightblue" stroke="midnightblue" points="112.15,-60.58 121.54,-55.67 111.14,-53.65 112.15,-60.58"/>
</g>
<!-- Node3 -->
<g id="node3" class="node">
<title>Node3</title>
<g id="a_node3"><a xlink:href="render_8h.html#a7f7526c1b74ae22e7d9f477e20a9890f" target="_top" xlink:title="Changes the colour with a keypress.">
<polygon fill="none" stroke="black" points="264,-38.5 264,-57.5 394,-57.5 394,-38.5 264,-38.5"/>
<text text-anchor="middle" x="329" y="-45.5" font-family="Helvetica,sans-Serif" font-size="10.00">ft_keyhook_change_col</text>
</a>
</g>
</g>
<!-- Node2&#45;&gt;Node3 -->
<g id="edge2" class="edge">
<title>Node2&#45;&gt;Node3</title>
<path fill="none" stroke="midnightblue" d="M214.36,-76.41C234.32,-71.42 258.93,-65.27 280.13,-59.97"/>
<polygon fill="midnightblue" stroke="midnightblue" points="281.07,-63.34 289.92,-57.52 279.37,-56.55 281.07,-63.34"/>
</g>
<!-- Node7 -->
<g id="node7" class="node">
<title>Node7</title>
<g id="a_node7"><a xlink:href="render_8h.html#a7b262237fcbe352cb4ef79235666956b" target="_top" xlink:title="Increases or decreases a value with a keypress.">
<polygon fill="none" stroke="black" points="273,-76.5 273,-95.5 385,-95.5 385,-76.5 273,-76.5"/>
<text text-anchor="middle" x="329" y="-83.5" font-family="Helvetica,sans-Serif" font-size="10.00">ft_keyhook_inc_dec</text>
</a>
</g>
</g>
<!-- Node2&#45;&gt;Node7 -->
<g id="edge7" class="edge">
<title>Node2&#45;&gt;Node7</title>
<path fill="none" stroke="midnightblue" d="M227.88,-86C239.13,-86 251.15,-86 262.83,-86"/>
<polygon fill="midnightblue" stroke="midnightblue" points="262.98,-89.5 272.98,-86 262.98,-82.5 262.98,-89.5"/>
</g>
<!-- Node4 -->
<g id="node4" class="node">
<title>Node4</title>
<g id="a_node4"><a xlink:href="render__keyhook__colour_8c.html#a5d187c5314483276ba15560dcf620e39" target="_top" xlink:title="Returns a colour based on the given colour name.">
<polygon fill="none" stroke="black" points="733,-38.5 733,-57.5 813,-57.5 813,-38.5 733,-38.5"/>
<text text-anchor="middle" x="773" y="-45.5" font-family="Helvetica,sans-Serif" font-size="10.00">ft_get_colour</text>
</a>
</g>
</g>
<!-- Node3&#45;&gt;Node4 -->
<g id="edge3" class="edge">
<title>Node3&#45;&gt;Node4</title>
<path fill="none" stroke="midnightblue" d="M394.27,-48C483.29,-48 642.21,-48 722.57,-48"/>
<polygon fill="midnightblue" stroke="midnightblue" points="722.91,-51.5 732.91,-48 722.91,-44.5 722.91,-51.5"/>
</g>
<!-- Node5 -->
<g id="node5" class="node">
<title>Node5</title>
<g id="a_node5"><a xlink:href="render__keyhook__colour_8c.html#a02dd1323bf99ad166e22cf0dcbef39f2" target="_top" xlink:title="Interpolates between two colours while keeping track of progress.">
<polygon fill="none" stroke="black" points="430,-19.5 430,-38.5 544,-38.5 544,-19.5 430,-19.5"/>
<text text-anchor="middle" x="487" y="-26.5" font-family="Helvetica,sans-Serif" font-size="10.00">ft_static_interpolate</text>
</a>
</g>
</g>
<!-- Node3&#45;&gt;Node5 -->
<g id="edge4" class="edge">
<title>Node3&#45;&gt;Node5</title>
<path fill="none" stroke="midnightblue" d="M394.35,-40.16C402.71,-39.14 411.27,-38.1 419.66,-37.08"/>
<polygon fill="midnightblue" stroke="midnightblue" points="420.27,-40.53 429.77,-35.85 419.42,-33.58 420.27,-40.53"/>
</g>
<!-- Node6 -->
<g id="node6" class="node">
<title>Node6</title>
<g id="a_node6"><a xlink:href="render__keyhook__colour_8c.html#a41e18bc0bce27f7169b29f79e5de0423" target="_top" xlink:title="Interpolates between two colours.">
<polygon fill="none" stroke="black" points="580,-19.5 580,-38.5 697,-38.5 697,-19.5 580,-19.5"/>
<text text-anchor="middle" x="638.5" y="-26.5" font-family="Helvetica,sans-Serif" font-size="10.00">ft_interpolate_colour</text>
</a>
</g>
</g>
<!-- Node5&#45;&gt;Node6 -->
<g id="edge5" class="edge">
<title>Node5&#45;&gt;Node6</title>
<path fill="none" stroke="midnightblue" d="M544.09,-29C552.34,-29 560.91,-29 569.37,-29"/>
<polygon fill="midnightblue" stroke="midnightblue" points="569.6,-32.5 579.6,-29 569.6,-25.5 569.6,-32.5"/>
</g>
<!-- Node6&#45;&gt;Node4 -->
<g id="edge6" class="edge">
<title>Node6&#45;&gt;Node4</title>
<path fill="none" stroke="midnightblue" d="M697.23,-37.28C705.76,-38.5 714.48,-39.75 722.81,-40.95"/>
<polygon fill="midnightblue" stroke="midnightblue" points="722.35,-44.42 732.74,-42.37 723.34,-37.49 722.35,-44.42"/>
</g>
<!-- Node8&#45;&gt;Node3 -->
<g id="edge9" class="edge">
<title>Node8&#45;&gt;Node3</title>
<path fill="none" stroke="midnightblue" d="M228.31,-48C236.52,-48 245.14,-48 253.73,-48"/>
<polygon fill="midnightblue" stroke="midnightblue" points="253.77,-51.5 263.77,-48 253.77,-44.5 253.77,-51.5"/>
</g>
<!-- Node8&#45;&gt;Node7 -->
<g id="edge10" class="edge">
<title>Node8&#45;&gt;Node7</title>
<path fill="none" stroke="midnightblue" d="M214.36,-57.59C234.32,-62.58 258.93,-68.73 280.13,-74.03"/>
<polygon fill="midnightblue" stroke="midnightblue" points="279.37,-77.45 289.92,-76.48 281.07,-70.66 279.37,-77.45"/>
</g>
<!-- Node9 -->
<g id="node9" class="node">
<title>Node9</title>
<g id="a_node9"><a xlink:href="render_8h.html#aa620096ce57b0280c8e9162eff12a938" target="_top" xlink:title="Moves a 3D point with a keypress.">
<polygon fill="none" stroke="black" points="268.5,-0.5 268.5,-19.5 389.5,-19.5 389.5,-0.5 268.5,-0.5"/>
<text text-anchor="middle" x="329" y="-7.5" font-family="Helvetica,sans-Serif" font-size="10.00">ft_keyhook_mv_point</text>
</a>
</g>
</g>
<!-- Node8&#45;&gt;Node9 -->
<g id="edge11" class="edge">
<title>Node8&#45;&gt;Node9</title>
<path fill="none" stroke="midnightblue" d="M214.36,-38.41C234.32,-33.42 258.93,-27.27 280.13,-21.97"/>
<polygon fill="midnightblue" stroke="midnightblue" points="281.07,-25.34 289.92,-19.52 279.37,-18.55 281.07,-25.34"/>
</g>
</g>
</svg>
