<?xml version="1.0" encoding="UTF-8" standalone="no"?>
<!DOCTYPE svg PUBLIC "-//W3C//DTD SVG 1.1//EN"
 "http://www.w3.org/Graphics/SVG/1.1/DTD/svg11.dtd">
<!-- Generated by graphviz version 2.43.0 (0)
 -->
<!-- Title: ft_mouse_hook_move Pages: 1 -->
<svg width="304pt" height="66pt"
 viewBox="0.00 0.00 304.00 66.00" xmlns="http://www.w3.org/2000/svg" xmlns:xlink="http://www.w3.org/1999/xlink">
<g id="graph0" class="graph" transform="scale(1 1) rotate(0) translate(4 62)">
<title>ft_mouse_hook_move</title>
<!-- Node1 -->
<g id="node1" class="node">
<title>Node1</title>
<g id="a_node1"><a xlink:title="Handles mouse movement.">
<polygon fill="#bfbfbf" stroke="black" points="0,-19.5 0,-38.5 124,-38.5 124,-19.5 0,-19.5"/>
<text text-anchor="middle" x="62" y="-26.5" font-family="Helvetica,sans-Serif" font-size="10.00">ft_mouse_hook_move</text>
</a>
</g>
</g>
<!-- Node2 -->
<g id="node2" class="node">
<title>Node2</title>
<g id="a_node2"><a xlink:href="render__mouse_8c.html#a8b0cab63a8053d366bbefead351d039a" target="_top" xlink:title="Rotates the camera with the mouse.">
<polygon fill="none" stroke="black" points="160,-38.5 160,-57.5 296,-57.5 296,-38.5 160,-38.5"/>
<text text-anchor="middle" x="228" y="-45.5" font-family="Helvetica,sans-Serif" font-size="10.00">ft_mouse_hook_rot_cam</text>
</a>
</g>
</g>
<!-- Node1&#45;&gt;Node2 -->
<g id="edge1" class="edge">
<title>Node1&#45;&gt;Node2</title>
<path fill="none" stroke="midnightblue" d="M124.07,-36.07C132.45,-37.05 141.14,-38.05 149.76,-39.05"/>
<polygon fill="midnightblue" stroke="midnightblue" points="149.49,-42.54 159.82,-40.22 150.29,-35.59 149.49,-42.54"/>
</g>
<!-- Node3 -->
<g id="node3" class="node">
<title>Node3</title>
<g id="a_node3"><a xlink:href="render__bit__field_8h.html#aea0daf263880cbf1cf1a0dd050320e7a" target="_top" xlink:title="Checks if bit is set in the bit field.">
<polygon fill="none" stroke="black" points="184,-0.5 184,-19.5 272,-19.5 272,-0.5 184,-0.5"/>
<text text-anchor="middle" x="228" y="-7.5" font-family="Helvetica,sans-Serif" font-size="10.00">ft_option_isset</text>
</a>
</g>
</g>
<!-- Node1&#45;&gt;Node3 -->
<g id="edge2" class="edge">
<title>Node1&#45;&gt;Node3</title>
<path fill="none" stroke="midnightblue" d="M124.07,-21.93C140.35,-20.04 157.82,-18.01 173.66,-16.18"/>
<polygon fill="midnightblue" stroke="midnightblue" points="174.27,-19.63 183.8,-15.01 173.46,-12.68 174.27,-19.63"/>
</g>
</g>
</svg>
