<?xml version="1.0" encoding="UTF-8" standalone="no"?>
<!DOCTYPE svg PUBLIC "-//W3C//DTD SVG 1.1//EN"
 "http://www.w3.org/Graphics/SVG/1.1/DTD/svg11.dtd">
<!-- Generated by graphviz version 2.43.0 (0)
 -->
<!-- Title: ft_keyhook_change_col Pages: 1 -->
<svg width="402pt" height="180pt"
 viewBox="0.00 0.00 402.00 180.00" xmlns="http://www.w3.org/2000/svg" xmlns:xlink="http://www.w3.org/1999/xlink">
<g id="graph0" class="graph" transform="scale(1 1) rotate(0) translate(4 176)">
<title>ft_keyhook_change_col</title>
<!-- Node1 -->
<g id="node1" class="node">
<title>Node1</title>
<g id="a_node1"><a xlink:title="Changes the colour with a keypress.">
<polygon fill="#bfbfbf" stroke="black" points="264,-76.5 264,-95.5 394,-95.5 394,-76.5 264,-76.5"/>
<text text-anchor="middle" x="329" y="-83.5" font-family="Helvetica,sans-Serif" font-size="10.00">ft_keyhook_change_col</text>
</a>
</g>
</g>
<!-- Node2 -->
<g id="node2" class="node">
<title>Node2</title>
<g id="a_node2"><a xlink:href="render__keyhook__light_8c.html#ae2de0183906701c2578d6bade8368e22" target="_top" xlink:title=" ">
<polygon fill="none" stroke="black" points="122.5,-152.5 122.5,-171.5 227.5,-171.5 227.5,-152.5 122.5,-152.5"/>
<text text-anchor="middle" x="175" y="-159.5" font-family="Helvetica,sans-Serif" font-size="10.00">ft_manip_ambient</text>
</a>
</g>
</g>
<!-- Node1&#45;&gt;Node2 -->
<g id="edge1" class="edge">
<title>Node1&#45;&gt;Node2</title>
<path fill="none" stroke="midnightblue" d="M304.49,-100.9C284.59,-113.14 255.08,-130.45 228,-143 220.59,-146.44 212.37,-149.69 204.69,-152.49"/>
<polygon fill="midnightblue" stroke="midnightblue" points="306.53,-103.76 313.17,-95.5 302.83,-97.81 306.53,-103.76"/>
</g>
<!-- Node4 -->
<g id="node4" class="node">
<title>Node4</title>
<g id="a_node4"><a xlink:href="render_8h.html#af500a65a1e441d08240efa30fa8c1e27" target="_top" xlink:title="Manipulates the active cylinder.">
<polygon fill="none" stroke="black" points="123,-114.5 123,-133.5 227,-133.5 227,-114.5 123,-114.5"/>
<text text-anchor="middle" x="175" y="-121.5" font-family="Helvetica,sans-Serif" font-size="10.00">ft_manip_cylinder</text>
</a>
</g>
</g>
<!-- Node1&#45;&gt;Node4 -->
<g id="edge3" class="edge">
<title>Node1&#45;&gt;Node4</title>
<path fill="none" stroke="midnightblue" d="M279.84,-98.04C258.6,-103.35 234,-109.5 214.08,-114.48"/>
<polygon fill="midnightblue" stroke="midnightblue" points="280.79,-101.41 289.64,-95.59 279.09,-94.62 280.79,-101.41"/>
</g>
<!-- Node5 -->
<g id="node5" class="node">
<title>Node5</title>
<g id="a_node5"><a xlink:href="render__keyhook__light_8c.html#aaf737a939ab08b513f1430342b291a5d" target="_top" xlink:title=" ">
<polygon fill="none" stroke="black" points="122,-76.5 122,-95.5 228,-95.5 228,-76.5 122,-76.5"/>
<text text-anchor="middle" x="175" y="-83.5" font-family="Helvetica,sans-Serif" font-size="10.00">ft_manip_light_src</text>
</a>
</g>
</g>
<!-- Node1&#45;&gt;Node5 -->
<g id="edge4" class="edge">
<title>Node1&#45;&gt;Node5</title>
<path fill="none" stroke="midnightblue" d="M253.92,-86C245.31,-86 236.67,-86 228.44,-86"/>
<polygon fill="midnightblue" stroke="midnightblue" points="253.98,-89.5 263.98,-86 253.98,-82.5 253.98,-89.5"/>
</g>
<!-- Node6 -->
<g id="node6" class="node">
<title>Node6</title>
<g id="a_node6"><a xlink:href="render_8h.html#a5fcb632e750265c23a4a6cd3fe090d35" target="_top" xlink:title="Manipulates the active plane.">
<polygon fill="none" stroke="black" points="129,-38.5 129,-57.5 221,-57.5 221,-38.5 129,-38.5"/>
<text text-anchor="middle" x="175" y="-45.5" font-family="Helvetica,sans-Serif" font-size="10.00">ft_manip_plane</text>
</a>
</g>
</g>
<!-- Node1&#45;&gt;Node6 -->
<g id="edge6" class="edge">
<title>Node1&#45;&gt;Node6</title>
<path fill="none" stroke="midnightblue" d="M279.84,-73.96C258.6,-68.65 234,-62.5 214.08,-57.52"/>
<polygon fill="midnightblue" stroke="midnightblue" points="279.09,-77.38 289.64,-76.41 280.79,-70.59 279.09,-77.38"/>
</g>
<!-- Node7 -->
<g id="node7" class="node">
<title>Node7</title>
<g id="a_node7"><a xlink:href="render_8h.html#ad16e4429a179a680b2bbf187f659f269" target="_top" xlink:title="Manipulates the active sphere.">
<polygon fill="none" stroke="black" points="126,-0.5 126,-19.5 224,-19.5 224,-0.5 126,-0.5"/>
<text text-anchor="middle" x="175" y="-7.5" font-family="Helvetica,sans-Serif" font-size="10.00">ft_manip_sphere</text>
</a>
</g>
</g>
<!-- Node1&#45;&gt;Node7 -->
<g id="edge7" class="edge">
<title>Node1&#45;&gt;Node7</title>
<path fill="none" stroke="midnightblue" d="M304.49,-71.1C284.59,-58.86 255.08,-41.55 228,-29 220.59,-25.56 212.37,-22.31 204.69,-19.51"/>
<polygon fill="midnightblue" stroke="midnightblue" points="302.83,-74.19 313.17,-76.5 306.53,-68.24 302.83,-74.19"/>
</g>
<!-- Node3 -->
<g id="node3" class="node">
<title>Node3</title>
<g id="a_node3"><a xlink:href="render_8h.html#a8e2f8743ff52334614e7dfd57624fd26" target="_top" xlink:title="Manipulates the active light.">
<polygon fill="none" stroke="black" points="0,-114.5 0,-133.5 86,-133.5 86,-114.5 0,-114.5"/>
<text text-anchor="middle" x="43" y="-121.5" font-family="Helvetica,sans-Serif" font-size="10.00">ft_manip_light</text>
</a>
</g>
</g>
<!-- Node2&#45;&gt;Node3 -->
<g id="edge2" class="edge">
<title>Node2&#45;&gt;Node3</title>
<path fill="none" stroke="midnightblue" d="M131.12,-149.46C113.43,-144.3 93.27,-138.4 76.79,-133.59"/>
<polygon fill="midnightblue" stroke="midnightblue" points="130.62,-152.96 141.2,-152.41 132.58,-146.25 130.62,-152.96"/>
</g>
<!-- Node5&#45;&gt;Node3 -->
<g id="edge5" class="edge">
<title>Node5&#45;&gt;Node3</title>
<path fill="none" stroke="midnightblue" d="M131.12,-98.54C113.43,-103.7 93.27,-109.6 76.79,-114.41"/>
<polygon fill="midnightblue" stroke="midnightblue" points="132.58,-101.75 141.2,-95.59 130.62,-95.04 132.58,-101.75"/>
</g>
</g>
</svg>
