<?xml version="1.0" encoding="UTF-8" standalone="no"?>
<!DOCTYPE svg PUBLIC "-//W3C//DTD SVG 1.1//EN"
 "http://www.w3.org/Graphics/SVG/1.1/DTD/svg11.dtd">
<!-- Generated by graphviz version 2.43.0 (0)
 -->
<!-- Title: ft_manip_cylinder Pages: 1 -->
<svg width="737pt" height="237pt"
 viewBox="0.00 0.00 737.00 237.00" xmlns="http://www.w3.org/2000/svg" xmlns:xlink="http://www.w3.org/1999/xlink">
<g id="graph0" class="graph" transform="scale(1 1) rotate(0) translate(4 233)">
<title>ft_manip_cylinder</title>
<!-- Node1 -->
<g id="node1" class="node">
<title>Node1</title>
<g id="a_node1"><a xlink:title="Manipulates the active cylinder.">
<polygon fill="#bfbfbf" stroke="black" points="0,-76.5 0,-95.5 104,-95.5 104,-76.5 0,-76.5"/>
<text text-anchor="middle" x="52" y="-83.5" font-family="Helvetica,sans-Serif" font-size="10.00">ft_manip_cylinder</text>
</a>
</g>
</g>
<!-- Node2 -->
<g id="node2" class="node">
<title>Node2</title>
<g id="a_node2"><a xlink:href="entities_8h.html#a04247c619f2a14a5a1fdb06004b8cb03" target="_top" xlink:title="Calculates the planes of the caps of a cylinder.">
<polygon fill="none" stroke="black" points="159,-171.5 159,-190.5 251,-190.5 251,-171.5 159,-171.5"/>
<text text-anchor="middle" x="205" y="-178.5" font-family="Helvetica,sans-Serif" font-size="10.00">ft_cy_calc_caps</text>
</a>
</g>
</g>
<!-- Node1&#45;&gt;Node2 -->
<g id="edge1" class="edge">
<title>Node1&#45;&gt;Node2</title>
<path fill="none" stroke="midnightblue" d="M67.34,-95.68C84.49,-107.18 114.11,-126.84 140,-143 152.54,-150.83 166.66,-159.25 178.43,-166.17"/>
<polygon fill="midnightblue" stroke="midnightblue" points="176.9,-169.33 187.3,-171.36 180.44,-163.29 176.9,-169.33"/>
</g>
<!-- Node5 -->
<g id="node5" class="node">
<title>Node5</title>
<g id="a_node5"><a xlink:href="render_8h.html#ae38e8dc9d9b53b672eab499e211c6d9a" target="_top" xlink:title="Changes the colour with a keypress.">
<polygon fill="none" stroke="black" points="140,-76.5 140,-95.5 270,-95.5 270,-76.5 140,-76.5"/>
<text text-anchor="middle" x="205" y="-83.5" font-family="Helvetica,sans-Serif" font-size="10.00">ft_keyhook_change_col</text>
</a>
</g>
</g>
<!-- Node1&#45;&gt;Node5 -->
<g id="edge4" class="edge">
<title>Node1&#45;&gt;Node5</title>
<path fill="none" stroke="midnightblue" d="M104.12,-86C112.36,-86 121.04,-86 129.69,-86"/>
<polygon fill="midnightblue" stroke="midnightblue" points="129.81,-89.5 139.81,-86 129.81,-82.5 129.81,-89.5"/>
</g>
<!-- Node7 -->
<g id="node7" class="node">
<title>Node7</title>
<g id="a_node7"><a xlink:href="render_8h.html#a4887ea4bfcf40faaa9be3002ec25d5ee" target="_top" xlink:title="Increases or decreases a value with a keypress.">
<polygon fill="none" stroke="black" points="149,-38.5 149,-57.5 261,-57.5 261,-38.5 149,-38.5"/>
<text text-anchor="middle" x="205" y="-45.5" font-family="Helvetica,sans-Serif" font-size="10.00">ft_keyhook_inc_dec</text>
</a>
</g>
</g>
<!-- Node1&#45;&gt;Node7 -->
<g id="edge6" class="edge">
<title>Node1&#45;&gt;Node7</title>
<path fill="none" stroke="midnightblue" d="M91.1,-76.41C110.94,-71.42 135.38,-65.27 156.45,-59.97"/>
<polygon fill="midnightblue" stroke="midnightblue" points="157.33,-63.35 166.17,-57.52 155.62,-56.57 157.33,-63.35"/>
</g>
<!-- Node8 -->
<g id="node8" class="node">
<title>Node8</title>
<g id="a_node8"><a xlink:href="render_8h.html#a7b4f1510b7e7eecfb0520b0765d5c9de" target="_top" xlink:title="Moves a 3D point with a keypress.">
<polygon fill="none" stroke="black" points="144.5,-0.5 144.5,-19.5 265.5,-19.5 265.5,-0.5 144.5,-0.5"/>
<text text-anchor="middle" x="205" y="-7.5" font-family="Helvetica,sans-Serif" font-size="10.00">ft_keyhook_mv_point</text>
</a>
</g>
</g>
<!-- Node1&#45;&gt;Node8 -->
<g id="edge7" class="edge">
<title>Node1&#45;&gt;Node8</title>
<path fill="none" stroke="midnightblue" d="M65.01,-76.49C81.2,-64.05 111.33,-42.3 140,-29 144.93,-26.71 150.2,-24.63 155.52,-22.75"/>
<polygon fill="midnightblue" stroke="midnightblue" points="156.69,-26.04 165.09,-19.58 154.49,-19.4 156.69,-26.04"/>
</g>
<!-- Node9 -->
<g id="node9" class="node">
<title>Node9</title>
<g id="a_node9"><a xlink:href="render_8h.html#adf1bfe4072ecc554c2084447411db434" target="_top" xlink:title="Rotates a 3D vector with a keypress.">
<polygon fill="none" stroke="black" points="149.5,-114.5 149.5,-133.5 260.5,-133.5 260.5,-114.5 149.5,-114.5"/>
<text text-anchor="middle" x="205" y="-121.5" font-family="Helvetica,sans-Serif" font-size="10.00">ft_keyhook_rot_vec</text>
</a>
</g>
</g>
<!-- Node1&#45;&gt;Node9 -->
<g id="edge8" class="edge">
<title>Node1&#45;&gt;Node9</title>
<path fill="none" stroke="midnightblue" d="M91.1,-95.59C110.94,-100.58 135.38,-106.73 156.45,-112.03"/>
<polygon fill="midnightblue" stroke="midnightblue" points="155.62,-115.43 166.17,-114.48 157.33,-108.65 155.62,-115.43"/>
</g>
<!-- Node3 -->
<g id="node3" class="node">
<title>Node3</title>
<g id="a_node3"><a xlink:href="vec3_8h.html#a73e2caf4c2a51ed954b7349c6be2b3c3" target="_top" xlink:title="Add two vectors.">
<polygon fill="none" stroke="black" points="317.5,-171.5 317.5,-190.5 392.5,-190.5 392.5,-171.5 317.5,-171.5"/>
<text text-anchor="middle" x="355" y="-178.5" font-family="Helvetica,sans-Serif" font-size="10.00">ft_vec3_add</text>
</a>
</g>
</g>
<!-- Node2&#45;&gt;Node3 -->
<g id="edge2" class="edge">
<title>Node2&#45;&gt;Node3</title>
<path fill="none" stroke="midnightblue" d="M251.21,-181C268.97,-181 289.36,-181 307.27,-181"/>
<polygon fill="midnightblue" stroke="midnightblue" points="307.49,-184.5 317.49,-181 307.49,-177.5 307.49,-184.5"/>
</g>
<!-- Node4 -->
<g id="node4" class="node">
<title>Node4</title>
<g id="a_node4"><a xlink:href="vec3_8h.html#ac80a1c20941c96a8fafad255dac59092" target="_top" xlink:title="Scale a vector.">
<polygon fill="none" stroke="black" points="629,-209.5 629,-228.5 712,-228.5 712,-209.5 629,-209.5"/>
<text text-anchor="middle" x="670.5" y="-216.5" font-family="Helvetica,sans-Serif" font-size="10.00">ft_vec3_scale</text>
</a>
</g>
</g>
<!-- Node2&#45;&gt;Node4 -->
<g id="edge3" class="edge">
<title>Node2&#45;&gt;Node4</title>
<path fill="none" stroke="midnightblue" d="M249.12,-190.52C266.68,-194.05 287.23,-197.74 306,-200 416.85,-213.37 547.83,-217.33 618.36,-218.51"/>
<polygon fill="midnightblue" stroke="midnightblue" points="618.68,-222.01 628.73,-218.67 618.79,-215.01 618.68,-222.01"/>
</g>
<!-- Node6 -->
<g id="node6" class="node">
<title>Node6</title>
<g id="a_node6"><a xlink:href="colour_8h.html#a5d187c5314483276ba15560dcf620e39" target="_top" xlink:title="Returns a colour based on the given colour name.">
<polygon fill="none" stroke="black" points="315,-57.5 315,-76.5 395,-76.5 395,-57.5 315,-57.5"/>
<text text-anchor="middle" x="355" y="-64.5" font-family="Helvetica,sans-Serif" font-size="10.00">ft_get_colour</text>
</a>
</g>
</g>
<!-- Node5&#45;&gt;Node6 -->
<g id="edge5" class="edge">
<title>Node5&#45;&gt;Node6</title>
<path fill="none" stroke="midnightblue" d="M270.05,-77.78C281.66,-76.29 293.59,-74.75 304.69,-73.33"/>
<polygon fill="midnightblue" stroke="midnightblue" points="305.14,-76.8 314.62,-72.06 304.25,-69.86 305.14,-76.8"/>
</g>
<!-- Node10 -->
<g id="node10" class="node">
<title>Node10</title>
<g id="a_node10"><a xlink:href="mat4__vec3_8h.html#a211f9d6535bb54bea2299ee5ea8a54a0" target="_top" xlink:title="Rotates a 3D vector around the x&#45;axis.">
<polygon fill="none" stroke="black" points="306,-133.5 306,-152.5 404,-152.5 404,-133.5 306,-133.5"/>
<text text-anchor="middle" x="355" y="-140.5" font-family="Helvetica,sans-Serif" font-size="10.00">ft_vec3_rotate_x</text>
</a>
</g>
</g>
<!-- Node9&#45;&gt;Node10 -->
<g id="edge9" class="edge">
<title>Node9&#45;&gt;Node10</title>
<path fill="none" stroke="midnightblue" d="M260.69,-131.02C272.15,-132.49 284.28,-134.05 295.87,-135.54"/>
<polygon fill="midnightblue" stroke="midnightblue" points="295.51,-139.02 305.88,-136.82 296.4,-132.08 295.51,-139.02"/>
</g>
<!-- Node17 -->
<g id="node17" class="node">
<title>Node17</title>
<g id="a_node17"><a xlink:href="mat4__vec3_8h.html#ac8a4ca6fb927e3746e7129f8eb04aa46" target="_top" xlink:title="Rotates a 3D vector around the y&#45;axis.">
<polygon fill="none" stroke="black" points="306,-95.5 306,-114.5 404,-114.5 404,-95.5 306,-95.5"/>
<text text-anchor="middle" x="355" y="-102.5" font-family="Helvetica,sans-Serif" font-size="10.00">ft_vec3_rotate_y</text>
</a>
</g>
</g>
<!-- Node9&#45;&gt;Node17 -->
<g id="edge17" class="edge">
<title>Node9&#45;&gt;Node17</title>
<path fill="none" stroke="midnightblue" d="M260.69,-116.98C272.15,-115.51 284.28,-113.95 295.87,-112.46"/>
<polygon fill="midnightblue" stroke="midnightblue" points="296.4,-115.92 305.88,-111.18 295.51,-108.98 296.4,-115.92"/>
</g>
<!-- Node11 -->
<g id="node11" class="node">
<title>Node11</title>
<g id="a_node11"><a xlink:href="mat4_8h.html#a96153e828811e816c64e7d0e19fcf654" target="_top" xlink:title="Creates a 4x4 transformation matrix for x&#45;axis rotation.">
<polygon fill="none" stroke="black" points="440,-133.5 440,-152.5 576,-152.5 576,-133.5 440,-133.5"/>
<text text-anchor="middle" x="508" y="-140.5" font-family="Helvetica,sans-Serif" font-size="10.00">ft_mat4_create_rotate_x</text>
</a>
</g>
</g>
<!-- Node10&#45;&gt;Node11 -->
<g id="edge10" class="edge">
<title>Node10&#45;&gt;Node11</title>
<path fill="none" stroke="midnightblue" d="M404.19,-143C412.38,-143 421.07,-143 429.78,-143"/>
<polygon fill="midnightblue" stroke="midnightblue" points="430,-146.5 440,-143 430,-139.5 430,-146.5"/>
</g>
<!-- Node14 -->
<g id="node14" class="node">
<title>Node14</title>
<g id="a_node14"><a xlink:href="mat4__vec3__rotate_8c.html#a53ea797ed37dea591e9e86121a849aca" target="_top" xlink:title="Multiplies a 4x4 matrix with a 3D vector.">
<polygon fill="none" stroke="black" points="453,-95.5 453,-114.5 563,-114.5 563,-95.5 453,-95.5"/>
<text text-anchor="middle" x="508" y="-102.5" font-family="Helvetica,sans-Serif" font-size="10.00">ft_vec3_mult_mat4</text>
</a>
</g>
</g>
<!-- Node10&#45;&gt;Node14 -->
<g id="edge13" class="edge">
<title>Node10&#45;&gt;Node14</title>
<path fill="none" stroke="midnightblue" d="M394.1,-133.41C413.94,-128.42 438.38,-122.27 459.45,-116.97"/>
<polygon fill="midnightblue" stroke="midnightblue" points="460.33,-120.35 469.17,-114.52 458.62,-113.57 460.33,-120.35"/>
</g>
<!-- Node15 -->
<g id="node15" class="node">
<title>Node15</title>
<g id="a_node15"><a xlink:href="vec3_8h.html#a38fe500bd27847b866b9630146e43250" target="_top" xlink:title="Normalise a vector.">
<polygon fill="none" stroke="black" points="466.5,-171.5 466.5,-190.5 549.5,-190.5 549.5,-171.5 466.5,-171.5"/>
<text text-anchor="middle" x="508" y="-178.5" font-family="Helvetica,sans-Serif" font-size="10.00">ft_vec3_norm</text>
</a>
</g>
</g>
<!-- Node10&#45;&gt;Node15 -->
<g id="edge14" class="edge">
<title>Node10&#45;&gt;Node15</title>
<path fill="none" stroke="midnightblue" d="M394.1,-152.59C413.94,-157.58 438.38,-163.73 459.45,-169.03"/>
<polygon fill="midnightblue" stroke="midnightblue" points="458.62,-172.43 469.17,-171.48 460.33,-165.65 458.62,-172.43"/>
</g>
<!-- Node12 -->
<g id="node12" class="node">
<title>Node12</title>
<g id="a_node12"><a xlink:href="utils_8h.html#a7d1328722f9dc6edd652f7c732856ae9" target="_top" xlink:title="Transforms degrees into radian.">
<polygon fill="none" stroke="black" points="614,-124.5 614,-143.5 727,-143.5 727,-124.5 614,-124.5"/>
<text text-anchor="middle" x="670.5" y="-131.5" font-family="Helvetica,sans-Serif" font-size="10.00">ft_degree_to_radian</text>
</a>
</g>
</g>
<!-- Node11&#45;&gt;Node12 -->
<g id="edge11" class="edge">
<title>Node11&#45;&gt;Node12</title>
<path fill="none" stroke="midnightblue" d="M576.14,-139.24C585.25,-138.72 594.59,-138.2 603.68,-137.69"/>
<polygon fill="midnightblue" stroke="midnightblue" points="604.02,-141.18 613.81,-137.12 603.63,-134.19 604.02,-141.18"/>
</g>
<!-- Node13 -->
<g id="node13" class="node">
<title>Node13</title>
<g id="a_node13"><a xlink:href="mat4_8h.html#ad20d2d0fd3d7862225345a79b062f03a" target="_top" xlink:title="Returns a 4x4 identity matrix.">
<polygon fill="none" stroke="black" points="612,-67.5 612,-86.5 729,-86.5 729,-67.5 612,-67.5"/>
<text text-anchor="middle" x="670.5" y="-74.5" font-family="Helvetica,sans-Serif" font-size="10.00">ft_mat4_set_identity</text>
</a>
</g>
</g>
<!-- Node11&#45;&gt;Node13 -->
<g id="edge12" class="edge">
<title>Node11&#45;&gt;Node13</title>
<path fill="none" stroke="midnightblue" d="M547.33,-133.48C556.81,-130.76 566.87,-127.55 576,-124 599.65,-114.8 625.32,-101.65 643.77,-91.6"/>
<polygon fill="midnightblue" stroke="midnightblue" points="645.65,-94.56 652.71,-86.66 642.27,-88.43 645.65,-94.56"/>
</g>
<!-- Node15&#45;&gt;Node4 -->
<g id="edge16" class="edge">
<title>Node15&#45;&gt;Node4</title>
<path fill="none" stroke="midnightblue" d="M549.5,-190.59C570.68,-195.6 596.8,-201.79 619.26,-207.11"/>
<polygon fill="midnightblue" stroke="midnightblue" points="618.75,-210.58 629.29,-209.48 620.37,-203.77 618.75,-210.58"/>
</g>
<!-- Node16 -->
<g id="node16" class="node">
<title>Node16</title>
<g id="a_node16"><a xlink:href="vec3__linalgebra_8c.html#aa84621bd979d3b12b97908f653faf88e" target="_top" xlink:title="Calculate the absolute value of a vector.">
<polygon fill="none" stroke="black" points="633.5,-171.5 633.5,-190.5 707.5,-190.5 707.5,-171.5 633.5,-171.5"/>
<text text-anchor="middle" x="670.5" y="-178.5" font-family="Helvetica,sans-Serif" font-size="10.00">ft_vec3_abs</text>
</a>
</g>
</g>
<!-- Node15&#45;&gt;Node16 -->
<g id="edge15" class="edge">
<title>Node15&#45;&gt;Node16</title>
<path fill="none" stroke="midnightblue" d="M549.5,-181C571.99,-181 600.05,-181 623.38,-181"/>
<polygon fill="midnightblue" stroke="midnightblue" points="623.39,-184.5 633.39,-181 623.39,-177.5 623.39,-184.5"/>
</g>
<!-- Node17&#45;&gt;Node14 -->
<g id="edge21" class="edge">
<title>Node17&#45;&gt;Node14</title>
<path fill="none" stroke="midnightblue" d="M404.19,-105C416.45,-105 429.82,-105 442.74,-105"/>
<polygon fill="midnightblue" stroke="midnightblue" points="442.98,-108.5 452.98,-105 442.98,-101.5 442.98,-108.5"/>
</g>
<!-- Node17&#45;&gt;Node15 -->
<g id="edge22" class="edge">
<title>Node17&#45;&gt;Node15</title>
<path fill="none" stroke="midnightblue" d="M385.96,-114.52C392.18,-117.13 398.51,-120.28 404,-124 423.27,-137.03 420.1,-149.95 440,-162 445.1,-165.09 450.73,-167.69 456.48,-169.88"/>
<polygon fill="midnightblue" stroke="midnightblue" points="455.62,-173.29 466.22,-173.19 457.88,-166.66 455.62,-173.29"/>
</g>
<!-- Node18 -->
<g id="node18" class="node">
<title>Node18</title>
<g id="a_node18"><a xlink:href="mat4_8h.html#a3f33a47cb6e2a560791c9be852f27b35" target="_top" xlink:title="Creates a 4x4 transformation matrix for y&#45;axis rotation.">
<polygon fill="none" stroke="black" points="440,-57.5 440,-76.5 576,-76.5 576,-57.5 440,-57.5"/>
<text text-anchor="middle" x="508" y="-64.5" font-family="Helvetica,sans-Serif" font-size="10.00">ft_mat4_create_rotate_y</text>
</a>
</g>
</g>
<!-- Node17&#45;&gt;Node18 -->
<g id="edge18" class="edge">
<title>Node17&#45;&gt;Node18</title>
<path fill="none" stroke="midnightblue" d="M394.1,-95.41C413.94,-90.42 438.38,-84.27 459.45,-78.97"/>
<polygon fill="midnightblue" stroke="midnightblue" points="460.33,-82.35 469.17,-76.52 458.62,-75.57 460.33,-82.35"/>
</g>
<!-- Node18&#45;&gt;Node12 -->
<g id="edge19" class="edge">
<title>Node18&#45;&gt;Node12</title>
<path fill="none" stroke="midnightblue" d="M547.7,-76.57C557.08,-79.27 567,-82.45 576,-86 600,-95.45 626,-109.1 644.48,-119.43"/>
<polygon fill="midnightblue" stroke="midnightblue" points="642.98,-122.6 653.41,-124.49 646.43,-116.51 642.98,-122.6"/>
</g>
<!-- Node18&#45;&gt;Node13 -->
<g id="edge20" class="edge">
<title>Node18&#45;&gt;Node13</title>
<path fill="none" stroke="midnightblue" d="M576.14,-71.18C584.56,-71.71 593.19,-72.25 601.63,-72.77"/>
<polygon fill="midnightblue" stroke="midnightblue" points="601.61,-76.28 611.8,-73.41 602.04,-69.29 601.61,-76.28"/>
</g>
</g>
</svg>
