<?xml version="1.0" encoding="UTF-8" standalone="no"?>
<!DOCTYPE svg PUBLIC "-//W3C//DTD SVG 1.1//EN"
 "http://www.w3.org/Graphics/SVG/1.1/DTD/svg11.dtd">
<!-- Generated by graphviz version 2.43.0 (0)
 -->
<!-- Title: inc/render.h Pages: 1 -->
<!--zoomable 95 -->
<svg id="main" version="1.1" xmlns="http://www.w3.org/2000/svg" xmlns:xlink="http://www.w3.org/1999/xlink" xml:space="preserve" onload="init(evt)">
<style type="text/css"><![CDATA[
.edge:hover path { stroke: red; }
.edge:hover polygon { stroke: red; fill: red; }
]]></style>
<script type="text/javascript"><![CDATA[
var edges = document.getElementsByTagName('g');
if (edges && edges.length) {
  for (var i=0;i<edges.length;i++) {
    if (edges[i].id.substr(0,4)=='edge') {
      edges[i].setAttribute('class','edge');
    }
  }
}
]]></script>
        <defs>
                <circle id="rim" cx="0" cy="0" r="7"/>
                <circle id="rim2" cx="0" cy="0" r="3.5"/>
                <g id="zoomPlus">
                        <use xlink:href="#rim" fill="#404040">
                                <set attributeName="fill" to="#808080" begin="zoomplus.mouseover" end="zoomplus.mouseout"/>
                        </use>
                        <path d="M-4,0h8M0,-4v8" fill="none" stroke="white" stroke-width="1.5" pointer-events="none"/>
                </g>
                <g id="zoomMin">
                        <use xlink:href="#rim" fill="#404040">
                                <set attributeName="fill" to="#808080" begin="zoomminus.mouseover" end="zoomminus.mouseout"/>
                        </use>
                        <path d="M-4,0h8" fill="none" stroke="white" stroke-width="1.5" pointer-events="none"/>
                </g>
                <g id="dirArrow">
                        <path fill="none" stroke="white" stroke-width="1.5" d="M0,-3.0v7 M-2.5,-0.5L0,-3.0L2.5,-0.5"/>
                </g>
               <g id="resetDef">
                       <use xlink:href="#rim2" fill="#404040">
                               <set attributeName="fill" to="#808080" begin="reset.mouseover" end="reset.mouseout"/>
                       </use>
               </g>
        </defs>

<script type="text/javascript">
var viewWidth = 2109;
var viewHeight = 95;
var sectionId = 'dynsection-1';
</script>
<script xlink:href="svgpan.js"/>
<svg id="graph" class="graph">
<g id="viewport">
<title>inc/render.h</title>
<!-- Node1 -->
<g id="node1" class="node">
<title>Node1</title>
<g id="a_node1"><a xlink:title=" ">
<polygon fill="#bfbfbf" stroke="black" points="995.5,-67.5 995.5,-86.5 1069.5,-86.5 1069.5,-67.5 995.5,-67.5"/>
<text text-anchor="middle" x="1032.5" y="-74.5" font-family="Helvetica,sans-Serif" font-size="10.00">inc/render.h</text>
</a>
</g>
</g>
<!-- Node2 -->
<g id="node2" class="node">
<title>Node2</title>
<g id="a_node2"><a xlink:href="render__compose__image_8c.html" target="_top" xlink:title=" ">
<polygon fill="none" stroke="black" points="0,-0.5 0,-30.5 115,-30.5 115,-0.5 0,-0.5"/>
<text text-anchor="start" x="8" y="-18.5" font-family="Helvetica,sans-Serif" font-size="10.00">src/render_compose</text>
<text text-anchor="middle" x="57.5" y="-7.5" font-family="Helvetica,sans-Serif" font-size="10.00">_image.c</text>
</a>
</g>
</g>
<!-- Node1&#45;&gt;Node2 -->
<g id="edge1" class="edge">
<title>Node1&#45;&gt;Node2</title>
<path fill="none" stroke="midnightblue" d="M985.09,-76.37C849.99,-76.86 451.61,-74.21 124.5,-31 121.43,-30.59 118.3,-30.12 115.14,-29.6"/>
<polygon fill="midnightblue" stroke="midnightblue" points="985.13,-79.87 995.11,-76.33 985.1,-72.87 985.13,-79.87"/>
</g>
<!-- Node3 -->
<g id="node3" class="node">
<title>Node3</title>
<g id="a_node3"><a xlink:href="render__draw_8c.html" target="_top" xlink:title=" ">
<polygon fill="none" stroke="black" points="133.5,-6 133.5,-25 235.5,-25 235.5,-6 133.5,-6"/>
<text text-anchor="middle" x="184.5" y="-13" font-family="Helvetica,sans-Serif" font-size="10.00">src/render_draw.c</text>
</a>
</g>
</g>
<!-- Node1&#45;&gt;Node3 -->
<g id="edge2" class="edge">
<title>Node1&#45;&gt;Node3</title>
<path fill="none" stroke="midnightblue" d="M985.14,-76.26C862.21,-76.28 523.07,-72.27 244.5,-31 234.85,-29.57 224.48,-27.33 215.12,-25.02"/>
<polygon fill="midnightblue" stroke="midnightblue" points="985.34,-79.76 995.33,-76.24 985.33,-72.76 985.34,-79.76"/>
</g>
<!-- Node4 -->
<g id="node4" class="node">
<title>Node4</title>
<g id="a_node4"><a xlink:href="render__init__mlx_8c.html" target="_top" xlink:title=" ">
<polygon fill="none" stroke="black" points="254,-6 254,-25 373,-25 373,-6 254,-6"/>
<text text-anchor="middle" x="313.5" y="-13" font-family="Helvetica,sans-Serif" font-size="10.00">src/render_init_mlx.c</text>
</a>
</g>
</g>
<!-- Node1&#45;&gt;Node4 -->
<g id="edge3" class="edge">
<title>Node1&#45;&gt;Node4</title>
<path fill="none" stroke="midnightblue" d="M985.11,-74.96C877.5,-72.1 606.68,-62.16 382.5,-31 371.71,-29.5 360.08,-27.29 349.5,-25.05"/>
<polygon fill="midnightblue" stroke="midnightblue" points="985.22,-78.46 995.3,-75.22 985.4,-71.46 985.22,-78.46"/>
</g>
<!-- Node5 -->
<g id="node5" class="node">
<title>Node5</title>
<g id="a_node5"><a xlink:href="render__keyhook__camera_8c.html" target="_top" xlink:title=" ">
<polygon fill="none" stroke="black" points="391.5,-0.5 391.5,-30.5 503.5,-30.5 503.5,-0.5 391.5,-0.5"/>
<text text-anchor="start" x="399.5" y="-18.5" font-family="Helvetica,sans-Serif" font-size="10.00">src/render_keyhook</text>
<text text-anchor="middle" x="447.5" y="-7.5" font-family="Helvetica,sans-Serif" font-size="10.00">_camera.c</text>
</a>
</g>
</g>
<!-- Node1&#45;&gt;Node5 -->
<g id="edge4" class="edge">
<title>Node1&#45;&gt;Node5</title>
<path fill="none" stroke="midnightblue" d="M985.35,-74.03C893.77,-69.72 685.62,-57.68 512.5,-31 509.64,-30.56 506.72,-30.07 503.78,-29.54"/>
<polygon fill="midnightblue" stroke="midnightblue" points="985.26,-77.52 995.42,-74.49 985.59,-70.53 985.26,-77.52"/>
</g>
<!-- Node6 -->
<g id="node6" class="node">
<title>Node6</title>
<g id="a_node6"><a xlink:href="render__keyhook__colour_8c.html" target="_top" xlink:title=" ">
<polygon fill="none" stroke="black" points="521.5,-0.5 521.5,-30.5 633.5,-30.5 633.5,-0.5 521.5,-0.5"/>
<text text-anchor="start" x="529.5" y="-18.5" font-family="Helvetica,sans-Serif" font-size="10.00">src/render_keyhook</text>
<text text-anchor="middle" x="577.5" y="-7.5" font-family="Helvetica,sans-Serif" font-size="10.00">_colour.c</text>
</a>
</g>
</g>
<!-- Node1&#45;&gt;Node6 -->
<g id="edge5" class="edge">
<title>Node1&#45;&gt;Node6</title>
<path fill="none" stroke="midnightblue" d="M985.16,-72.15C911.55,-65.8 765.33,-51.73 642.5,-31 639.65,-30.52 636.74,-29.99 633.8,-29.44"/>
<polygon fill="midnightblue" stroke="midnightblue" points="985.22,-75.67 995.49,-73.03 985.82,-68.69 985.22,-75.67"/>
</g>
<!-- Node7 -->
<g id="node7" class="node">
<title>Node7</title>
<g id="a_node7"><a xlink:href="render__keyhook__hittable_8c.html" target="_top" xlink:title=" ">
<polygon fill="none" stroke="black" points="651.5,-0.5 651.5,-30.5 763.5,-30.5 763.5,-0.5 651.5,-0.5"/>
<text text-anchor="start" x="659.5" y="-18.5" font-family="Helvetica,sans-Serif" font-size="10.00">src/render_keyhook</text>
<text text-anchor="middle" x="707.5" y="-7.5" font-family="Helvetica,sans-Serif" font-size="10.00">_hittable.c</text>
</a>
</g>
</g>
<!-- Node1&#45;&gt;Node7 -->
<g id="edge6" class="edge">
<title>Node1&#45;&gt;Node7</title>
<path fill="none" stroke="midnightblue" d="M985.4,-68.55C933.22,-60.13 846.65,-45.68 772.5,-31 769.66,-30.44 766.76,-29.85 763.84,-29.24"/>
<polygon fill="midnightblue" stroke="midnightblue" points="984.94,-72.02 995.37,-70.15 986.05,-65.11 984.94,-72.02"/>
</g>
<!-- Node8 -->
<g id="node8" class="node">
<title>Node8</title>
<g id="a_node8"><a xlink:href="render__keyhook__light_8c.html" target="_top" xlink:title=" ">
<polygon fill="none" stroke="black" points="781.5,-0.5 781.5,-30.5 893.5,-30.5 893.5,-0.5 781.5,-0.5"/>
<text text-anchor="start" x="789.5" y="-18.5" font-family="Helvetica,sans-Serif" font-size="10.00">src/render_keyhook</text>
<text text-anchor="middle" x="837.5" y="-7.5" font-family="Helvetica,sans-Serif" font-size="10.00">_light.c</text>
</a>
</g>
</g>
<!-- Node1&#45;&gt;Node8 -->
<g id="edge7" class="edge">
<title>Node1&#45;&gt;Node8</title>
<path fill="none" stroke="midnightblue" d="M994.76,-64.48C962.96,-54.78 917.37,-40.87 883.46,-30.52"/>
<polygon fill="midnightblue" stroke="midnightblue" points="993.98,-67.9 1004.56,-67.48 996.02,-61.21 993.98,-67.9"/>
</g>
<!-- Node9 -->
<g id="node9" class="node">
<title>Node9</title>
<g id="a_node9"><a xlink:href="render__keyhook__options_8c.html" target="_top" xlink:title=" ">
<polygon fill="none" stroke="black" points="911.5,-0.5 911.5,-30.5 1023.5,-30.5 1023.5,-0.5 911.5,-0.5"/>
<text text-anchor="start" x="919.5" y="-18.5" font-family="Helvetica,sans-Serif" font-size="10.00">src/render_keyhook</text>
<text text-anchor="middle" x="967.5" y="-7.5" font-family="Helvetica,sans-Serif" font-size="10.00">_options.c</text>
</a>
</g>
</g>
<!-- Node1&#45;&gt;Node9 -->
<g id="edge8" class="edge">
<title>Node1&#45;&gt;Node9</title>
<path fill="none" stroke="midnightblue" d="M1015.73,-60.65C1005.57,-51.35 992.7,-39.57 982.82,-30.52"/>
<polygon fill="midnightblue" stroke="midnightblue" points="1013.45,-63.3 1023.19,-67.48 1018.17,-58.14 1013.45,-63.3"/>
</g>
<!-- Node10 -->
<g id="node10" class="node">
<title>Node10</title>
<g id="a_node10"><a xlink:href="render__keyhook__options__bonus_8c.html" target="_top" xlink:title=" ">
<polygon fill="none" stroke="black" points="1041.5,-0.5 1041.5,-30.5 1153.5,-30.5 1153.5,-0.5 1041.5,-0.5"/>
<text text-anchor="start" x="1049.5" y="-18.5" font-family="Helvetica,sans-Serif" font-size="10.00">src/render_keyhook</text>
<text text-anchor="middle" x="1097.5" y="-7.5" font-family="Helvetica,sans-Serif" font-size="10.00">_options_bonus.c</text>
</a>
</g>
</g>
<!-- Node1&#45;&gt;Node10 -->
<g id="edge9" class="edge">
<title>Node1&#45;&gt;Node10</title>
<path fill="none" stroke="midnightblue" d="M1049.27,-60.65C1059.43,-51.35 1072.3,-39.57 1082.18,-30.52"/>
<polygon fill="midnightblue" stroke="midnightblue" points="1046.83,-58.14 1041.81,-67.48 1051.55,-63.3 1046.83,-58.14"/>
</g>
<!-- Node11 -->
<g id="node11" class="node">
<title>Node11</title>
<g id="a_node11"><a xlink:href="render__keyhook__press_8c.html" target="_top" xlink:title=" ">
<polygon fill="none" stroke="black" points="1171.5,-0.5 1171.5,-30.5 1283.5,-30.5 1283.5,-0.5 1171.5,-0.5"/>
<text text-anchor="start" x="1179.5" y="-18.5" font-family="Helvetica,sans-Serif" font-size="10.00">src/render_keyhook</text>
<text text-anchor="middle" x="1227.5" y="-7.5" font-family="Helvetica,sans-Serif" font-size="10.00">_press.c</text>
</a>
</g>
</g>
<!-- Node1&#45;&gt;Node11 -->
<g id="edge10" class="edge">
<title>Node1&#45;&gt;Node11</title>
<path fill="none" stroke="midnightblue" d="M1070.24,-64.48C1102.04,-54.78 1147.63,-40.87 1181.54,-30.52"/>
<polygon fill="midnightblue" stroke="midnightblue" points="1068.98,-61.21 1060.44,-67.48 1071.02,-67.9 1068.98,-61.21"/>
</g>
<!-- Node12 -->
<g id="node12" class="node">
<title>Node12</title>
<g id="a_node12"><a xlink:href="render__keyhook__release_8c.html" target="_top" xlink:title=" ">
<polygon fill="none" stroke="black" points="1301.5,-0.5 1301.5,-30.5 1413.5,-30.5 1413.5,-0.5 1301.5,-0.5"/>
<text text-anchor="start" x="1309.5" y="-18.5" font-family="Helvetica,sans-Serif" font-size="10.00">src/render_keyhook</text>
<text text-anchor="middle" x="1357.5" y="-7.5" font-family="Helvetica,sans-Serif" font-size="10.00">_release.c</text>
</a>
</g>
</g>
<!-- Node1&#45;&gt;Node12 -->
<g id="edge11" class="edge">
<title>Node1&#45;&gt;Node12</title>
<path fill="none" stroke="midnightblue" d="M1079.6,-68.55C1131.78,-60.13 1218.35,-45.68 1292.5,-31 1295.34,-30.44 1298.24,-29.85 1301.16,-29.24"/>
<polygon fill="midnightblue" stroke="midnightblue" points="1078.95,-65.11 1069.63,-70.15 1080.06,-72.02 1078.95,-65.11"/>
</g>
<!-- Node13 -->
<g id="node13" class="node">
<title>Node13</title>
<g id="a_node13"><a xlink:href="render__keyhook__scene_8c.html" target="_top" xlink:title=" ">
<polygon fill="none" stroke="black" points="1431.5,-0.5 1431.5,-30.5 1543.5,-30.5 1543.5,-0.5 1431.5,-0.5"/>
<text text-anchor="start" x="1439.5" y="-18.5" font-family="Helvetica,sans-Serif" font-size="10.00">src/render_keyhook</text>
<text text-anchor="middle" x="1487.5" y="-7.5" font-family="Helvetica,sans-Serif" font-size="10.00">_scene.c</text>
</a>
</g>
</g>
<!-- Node1&#45;&gt;Node13 -->
<g id="edge12" class="edge">
<title>Node1&#45;&gt;Node13</title>
<path fill="none" stroke="midnightblue" d="M1079.84,-72.15C1153.45,-65.8 1299.67,-51.73 1422.5,-31 1425.35,-30.52 1428.26,-29.99 1431.2,-29.44"/>
<polygon fill="midnightblue" stroke="midnightblue" points="1079.18,-68.69 1069.51,-73.03 1079.78,-75.67 1079.18,-68.69"/>
</g>
<!-- Node14 -->
<g id="node14" class="node">
<title>Node14</title>
<g id="a_node14"><a xlink:href="render__keyhook__utils_8c.html" target="_top" xlink:title=" ">
<polygon fill="none" stroke="black" points="1561.5,-0.5 1561.5,-30.5 1673.5,-30.5 1673.5,-0.5 1561.5,-0.5"/>
<text text-anchor="start" x="1569.5" y="-18.5" font-family="Helvetica,sans-Serif" font-size="10.00">src/render_keyhook</text>
<text text-anchor="middle" x="1617.5" y="-7.5" font-family="Helvetica,sans-Serif" font-size="10.00">_utils.c</text>
</a>
</g>
</g>
<!-- Node1&#45;&gt;Node14 -->
<g id="edge13" class="edge">
<title>Node1&#45;&gt;Node14</title>
<path fill="none" stroke="midnightblue" d="M1079.65,-74.03C1171.23,-69.72 1379.38,-57.68 1552.5,-31 1555.36,-30.56 1558.28,-30.07 1561.22,-29.54"/>
<polygon fill="midnightblue" stroke="midnightblue" points="1079.41,-70.53 1069.58,-74.49 1079.74,-77.52 1079.41,-70.53"/>
</g>
<!-- Node15 -->
<g id="node15" class="node">
<title>Node15</title>
<g id="a_node15"><a xlink:href="render__loop__mlx_8c.html" target="_top" xlink:title=" ">
<polygon fill="none" stroke="black" points="1691.5,-6 1691.5,-25 1815.5,-25 1815.5,-6 1691.5,-6"/>
<text text-anchor="middle" x="1753.5" y="-13" font-family="Helvetica,sans-Serif" font-size="10.00">src/render_loop_mlx.c</text>
</a>
</g>
</g>
<!-- Node1&#45;&gt;Node15 -->
<g id="edge14" class="edge">
<title>Node1&#45;&gt;Node15</title>
<path fill="none" stroke="midnightblue" d="M1079.88,-74.87C1187.46,-71.82 1458.23,-61.53 1682.5,-31 1693.59,-29.49 1705.56,-27.28 1716.44,-25.03"/>
<polygon fill="midnightblue" stroke="midnightblue" points="1079.59,-71.37 1069.69,-75.15 1079.78,-78.37 1079.59,-71.37"/>
</g>
<!-- Node16 -->
<g id="node16" class="node">
<title>Node16</title>
<g id="a_node16"><a xlink:href="render__mouse_8c.html" target="_top" xlink:title=" ">
<polygon fill="none" stroke="black" points="1833.5,-6 1833.5,-25 1945.5,-25 1945.5,-6 1833.5,-6"/>
<text text-anchor="middle" x="1889.5" y="-13" font-family="Helvetica,sans-Serif" font-size="10.00">src/render_mouse.c</text>
</a>
</g>
</g>
<!-- Node1&#45;&gt;Node16 -->
<g id="edge15" class="edge">
<title>Node1&#45;&gt;Node16</title>
<path fill="none" stroke="midnightblue" d="M1080.06,-75.99C1203.52,-75.37 1544.16,-69.97 1824.5,-31 1834.92,-29.55 1846.15,-27.3 1856.29,-25"/>
<polygon fill="midnightblue" stroke="midnightblue" points="1079.81,-72.49 1069.82,-76.03 1079.84,-79.49 1079.81,-72.49"/>
</g>
<!-- Node17 -->
<g id="node17" class="node">
<title>Node17</title>
<g id="a_node17"><a xlink:href="render__output__ppm_8c.html" target="_top" xlink:title=" ">
<polygon fill="none" stroke="black" points="1964,-6 1964,-25 2101,-25 2101,-6 1964,-6"/>
<text text-anchor="middle" x="2032.5" y="-13" font-family="Helvetica,sans-Serif" font-size="10.00">src/render_output_ppm.c</text>
</a>
</g>
</g>
<!-- Node1&#45;&gt;Node17 -->
<g id="edge16" class="edge">
<title>Node1&#45;&gt;Node17</title>
<path fill="none" stroke="midnightblue" d="M1079.62,-75.94C1215.72,-75.29 1620.96,-69.96 1954.5,-31 1966.81,-29.56 1980.11,-27.34 1992.17,-25.07"/>
<polygon fill="midnightblue" stroke="midnightblue" points="1079.52,-72.44 1069.54,-75.98 1079.55,-79.44 1079.52,-72.44"/>
</g>
</g>
</svg>
        <g id="navigator" transform="translate(0 0)" fill="#404254">
                <rect fill="#f2f5e9" fill-opacity="0.5" stroke="#606060" stroke-width=".5" x="0" y="0" width="60" height="60"/>
                <use id="zoomplus" xlink:href="#zoomPlus" x="17" y="9" onmousedown="handleZoom(evt,'in')"/>
                <use id="zoomminus" xlink:href="#zoomMin" x="42" y="9" onmousedown="handleZoom(evt,'out')"/>
                <use id="reset" xlink:href="#resetDef" x="30" y="36" onmousedown="handleReset()"/>
                <g id="arrowUp" xlink:href="#dirArrow" transform="translate(30 24)" onmousedown="handlePan(0,-1)">
                  <use xlink:href="#rim" fill="#404040">
                        <set attributeName="fill" to="#808080" begin="arrowUp.mouseover" end="arrowUp.mouseout"/>
                  </use>
                  <path fill="none" stroke="white" stroke-width="1.5" d="M0,-3.0v7 M-2.5,-0.5L0,-3.0L2.5,-0.5"/>
                </g>
                <g id="arrowRight" xlink:href="#dirArrow" transform="rotate(90) translate(36 -43)" onmousedown="handlePan(1,0)">
                  <use xlink:href="#rim" fill="#404040">
                        <set attributeName="fill" to="#808080" begin="arrowRight.mouseover" end="arrowRight.mouseout"/>
                  </use>
                  <path fill="none" stroke="white" stroke-width="1.5" d="M0,-3.0v7 M-2.5,-0.5L0,-3.0L2.5,-0.5"/>
                </g>
                <g id="arrowDown" xlink:href="#dirArrow" transform="rotate(180) translate(-30 -48)" onmousedown="handlePan(0,1)">
                  <use xlink:href="#rim" fill="#404040">
                        <set attributeName="fill" to="#808080" begin="arrowDown.mouseover" end="arrowDown.mouseout"/>
                  </use>
                  <path fill="none" stroke="white" stroke-width="1.5" d="M0,-3.0v7 M-2.5,-0.5L0,-3.0L2.5,-0.5"/>
                </g>
                <g id="arrowLeft" xlink:href="#dirArrow" transform="rotate(270) translate(-36 17)" onmousedown="handlePan(-1,0)">
                  <use xlink:href="#rim" fill="#404040">
                        <set attributeName="fill" to="#808080" begin="arrowLeft.mouseover" end="arrowLeft.mouseout"/>
                  </use>
                  <path fill="none" stroke="white" stroke-width="1.5" d="M0,-3.0v7 M-2.5,-0.5L0,-3.0L2.5,-0.5"/>
                </g>
        </g>
        <svg viewBox="0 0 15 15" width="100%" height="30px" preserveAspectRatio="xMaxYMin meet">
         <g id="arrow_out" transform="scale(0.3 0.3)">
          <a xlink:href="render_8h__dep__incl_org.svg" target="_base">
           <rect id="button" ry="5" rx="5" y="6" x="6" height="38" width="38"
                fill="#f2f5e9" fill-opacity="0.5" stroke="#606060" stroke-width="1.0"/>
           <path id="arrow"
             d="M 11.500037,31.436501 C 11.940474,20.09759 22.043105,11.32322 32.158766,21.979434 L 37.068811,17.246167 C 37.068811,17.246167 37.088388,32 37.088388,32 L 22.160133,31.978069 C 22.160133,31.978069 26.997745,27.140456 26.997745,27.140456 C 18.528582,18.264221 13.291696,25.230495 11.500037,31.436501 z"
             style="fill:#404040;"/>
          </a>
         </g>
        </svg>
</svg>
