<?xml version="1.0" encoding="UTF-8" standalone="no"?>
<!DOCTYPE svg PUBLIC "-//W3C//DTD SVG 1.1//EN"
 "http://www.w3.org/Graphics/SVG/1.1/DTD/svg11.dtd">
<!-- Generated by graphviz version 2.43.0 (0)
 -->
<!-- Title: ft_manip_scene Pages: 1 -->
<!--zoomable 283 -->
<svg id="main" version="1.1" xmlns="http://www.w3.org/2000/svg" xmlns:xlink="http://www.w3.org/1999/xlink" xml:space="preserve" onload="init(evt)">
<style type="text/css"><![CDATA[
.edge:hover path { stroke: red; }
.edge:hover polygon { stroke: red; fill: red; }
]]></style>
<script type="text/javascript"><![CDATA[
var edges = document.getElementsByTagName('g');
if (edges && edges.length) {
  for (var i=0;i<edges.length;i++) {
    if (edges[i].id.substr(0,4)=='edge') {
      edges[i].setAttribute('class','edge');
    }
  }
}
]]></script>
        <defs>
                <circle id="rim" cx="0" cy="0" r="7"/>
                <circle id="rim2" cx="0" cy="0" r="3.5"/>
                <g id="zoomPlus">
                        <use xlink:href="#rim" fill="#404040">
                                <set attributeName="fill" to="#808080" begin="zoomplus.mouseover" end="zoomplus.mouseout"/>
                        </use>
                        <path d="M-4,0h8M0,-4v8" fill="none" stroke="white" stroke-width="1.5" pointer-events="none"/>
                </g>
                <g id="zoomMin">
                        <use xlink:href="#rim" fill="#404040">
                                <set attributeName="fill" to="#808080" begin="zoomminus.mouseover" end="zoomminus.mouseout"/>
                        </use>
                        <path d="M-4,0h8" fill="none" stroke="white" stroke-width="1.5" pointer-events="none"/>
                </g>
                <g id="dirArrow">
                        <path fill="none" stroke="white" stroke-width="1.5" d="M0,-3.0v7 M-2.5,-0.5L0,-3.0L2.5,-0.5"/>
                </g>
               <g id="resetDef">
                       <use xlink:href="#rim2" fill="#404040">
                               <set attributeName="fill" to="#808080" begin="reset.mouseover" end="reset.mouseout"/>
                       </use>
               </g>
        </defs>

<script type="text/javascript">
var viewWidth = 1060;
var viewHeight = 283;
var sectionId = 'dynsection-27';
</script>
<script xlink:href="svgpan.js"/>
<svg id="graph" class="graph">
<g id="viewport">
<title>ft_manip_scene</title>
<!-- Node1 -->
<g id="node1" class="node">
<title>Node1</title>
<g id="a_node1"><a xlink:title="Manipulates the active hittable.">
<polygon fill="#bfbfbf" stroke="black" points="0,-103.74 0,-122.74 93,-122.74 93,-103.74 0,-103.74"/>
<text text-anchor="middle" x="46.5" y="-110.74" font-family="Helvetica,sans-Serif" font-size="10.00">ft_manip_scene</text>
</a>
</g>
</g>
<!-- Node2 -->
<g id="node2" class="node">
<title>Node2</title>
<g id="a_node2"><a xlink:href="render__keyhook__scene_8c.html#ab531dc49f0a5aa08f0e342d3c4ea2fe8" target="_top" xlink:title="Changes the active hittable.">
<polygon fill="none" stroke="black" points="129,-122.74 129,-141.74 271,-141.74 271,-122.74 129,-122.74"/>
<text text-anchor="middle" x="200" y="-129.74" font-family="Helvetica,sans-Serif" font-size="10.00">ft_change_active_hittable</text>
</a>
</g>
</g>
<!-- Node1&#45;&gt;Node2 -->
<g id="edge1" class="edge">
<title>Node1&#45;&gt;Node2</title>
<path fill="none" stroke="midnightblue" d="M93.37,-119C101.53,-120.02 110.24,-121.11 119.03,-122.21"/>
<polygon fill="midnightblue" stroke="midnightblue" points="118.61,-125.69 128.96,-123.46 119.48,-118.74 118.61,-125.69"/>
</g>
<!-- Node3 -->
<g id="node3" class="node">
<title>Node3</title>
<g id="a_node3"><a xlink:href="render_8h.html#a58cfb6d04ac9120cc228cbc5411b2005" target="_top" xlink:title="Manipulates the active hittable.">
<polygon fill="none" stroke="black" points="149,-84.74 149,-103.74 251,-103.74 251,-84.74 149,-84.74"/>
<text text-anchor="middle" x="200" y="-91.74" font-family="Helvetica,sans-Serif" font-size="10.00">ft_manip_hittable</text>
</a>
</g>
</g>
<!-- Node1&#45;&gt;Node3 -->
<g id="edge2" class="edge">
<title>Node1&#45;&gt;Node3</title>
<path fill="none" stroke="midnightblue" d="M93.37,-107.49C107.59,-105.71 123.49,-103.71 138.54,-101.83"/>
<polygon fill="midnightblue" stroke="midnightblue" points="139.31,-105.26 148.8,-100.54 138.44,-98.31 139.31,-105.26"/>
</g>
<!-- Node4 -->
<g id="node4" class="node">
<title>Node4</title>
<g id="a_node4"><a xlink:href="render__keyhook__hittable_8c.html#a2737927d8cc8ff5dc3bd94b3e11fc1a9" target="_top" xlink:title="Manipulates the active cylinder.">
<polygon fill="none" stroke="black" points="307,-84.74 307,-103.74 411,-103.74 411,-84.74 307,-84.74"/>
<text text-anchor="middle" x="359" y="-91.74" font-family="Helvetica,sans-Serif" font-size="10.00">ft_manip_cylinder</text>
</a>
</g>
</g>
<!-- Node3&#45;&gt;Node4 -->
<g id="edge3" class="edge">
<title>Node3&#45;&gt;Node4</title>
<path fill="none" stroke="midnightblue" d="M251.11,-94.24C265.54,-94.24 281.46,-94.24 296.5,-94.24"/>
<polygon fill="midnightblue" stroke="midnightblue" points="296.75,-97.74 306.75,-94.24 296.75,-90.74 296.75,-97.74"/>
</g>
<!-- Node24 -->
<g id="node24" class="node">
<title>Node24</title>
<g id="a_node24"><a xlink:href="render__keyhook__hittable_8c.html#a2b397fc2e0dd418d497c05b3dff894f1" target="_top" xlink:title="Manipulates the active plane.">
<polygon fill="none" stroke="black" points="313,-122.74 313,-141.74 405,-141.74 405,-122.74 313,-122.74"/>
<text text-anchor="middle" x="359" y="-129.74" font-family="Helvetica,sans-Serif" font-size="10.00">ft_manip_plane</text>
</a>
</g>
</g>
<!-- Node3&#45;&gt;Node24 -->
<g id="edge29" class="edge">
<title>Node3&#45;&gt;Node24</title>
<path fill="none" stroke="midnightblue" d="M240.62,-103.83C261.34,-108.85 286.89,-115.03 308.86,-120.35"/>
<polygon fill="midnightblue" stroke="midnightblue" points="308.12,-123.77 318.67,-122.72 309.77,-116.97 308.12,-123.77"/>
</g>
<!-- Node25 -->
<g id="node25" class="node">
<title>Node25</title>
<g id="a_node25"><a xlink:href="render__keyhook__hittable_8c.html#a3af9cb325ad292f339446b63917a9ea2" target="_top" xlink:title="Manipulates the active sphere.">
<polygon fill="none" stroke="black" points="310,-46.74 310,-65.74 408,-65.74 408,-46.74 310,-46.74"/>
<text text-anchor="middle" x="359" y="-53.74" font-family="Helvetica,sans-Serif" font-size="10.00">ft_manip_sphere</text>
</a>
</g>
</g>
<!-- Node3&#45;&gt;Node25 -->
<g id="edge33" class="edge">
<title>Node3&#45;&gt;Node25</title>
<path fill="none" stroke="midnightblue" d="M240.62,-84.65C261.34,-79.64 286.89,-73.46 308.86,-68.14"/>
<polygon fill="midnightblue" stroke="midnightblue" points="309.77,-71.52 318.67,-65.76 308.12,-64.71 309.77,-71.52"/>
</g>
<!-- Node5 -->
<g id="node5" class="node">
<title>Node5</title>
<g id="a_node5"><a xlink:href="entities_8h.html#a04247c619f2a14a5a1fdb06004b8cb03" target="_top" xlink:title="Calculates the planes of the caps of a cylinder.">
<polygon fill="none" stroke="black" points="466,-84.74 466,-103.74 558,-103.74 558,-84.74 466,-84.74"/>
<text text-anchor="middle" x="512" y="-91.74" font-family="Helvetica,sans-Serif" font-size="10.00">ft_cy_calc_caps</text>
</a>
</g>
</g>
<!-- Node4&#45;&gt;Node5 -->
<g id="edge4" class="edge">
<title>Node4&#45;&gt;Node5</title>
<path fill="none" stroke="midnightblue" d="M411.12,-94.24C425.37,-94.24 440.92,-94.24 455.42,-94.24"/>
<polygon fill="midnightblue" stroke="midnightblue" points="455.75,-97.74 465.75,-94.24 455.75,-90.74 455.75,-97.74"/>
</g>
<!-- Node8 -->
<g id="node8" class="node">
<title>Node8</title>
<g id="a_node8"><a xlink:href="render_8h.html#a7f7526c1b74ae22e7d9f477e20a9890f" target="_top" xlink:title="Changes the colour with a keypress.">
<polygon fill="none" stroke="black" points="447,-46.74 447,-65.74 577,-65.74 577,-46.74 447,-46.74"/>
<text text-anchor="middle" x="512" y="-53.74" font-family="Helvetica,sans-Serif" font-size="10.00">ft_keyhook_change_col</text>
</a>
</g>
</g>
<!-- Node4&#45;&gt;Node8 -->
<g id="edge7" class="edge">
<title>Node4&#45;&gt;Node8</title>
<path fill="none" stroke="midnightblue" d="M398.1,-84.65C417.94,-79.66 442.38,-73.51 463.45,-68.21"/>
<polygon fill="midnightblue" stroke="midnightblue" points="464.33,-71.6 473.17,-65.76 462.62,-64.81 464.33,-71.6"/>
</g>
<!-- Node12 -->
<g id="node12" class="node">
<title>Node12</title>
<g id="a_node12"><a xlink:href="render_8h.html#a7b262237fcbe352cb4ef79235666956b" target="_top" xlink:title="Increases or decreases a value with a keypress.">
<polygon fill="none" stroke="black" points="456,-8.74 456,-27.74 568,-27.74 568,-8.74 456,-8.74"/>
<text text-anchor="middle" x="512" y="-15.74" font-family="Helvetica,sans-Serif" font-size="10.00">ft_keyhook_inc_dec</text>
</a>
</g>
</g>
<!-- Node4&#45;&gt;Node12 -->
<g id="edge12" class="edge">
<title>Node4&#45;&gt;Node12</title>
<path fill="none" stroke="midnightblue" d="M392.37,-84.73C398.81,-82.14 405.33,-79 411,-75.24 430.4,-62.41 427.17,-49.41 447,-37.24 450.4,-35.15 454.05,-33.28 457.81,-31.61"/>
<polygon fill="midnightblue" stroke="midnightblue" points="459.32,-34.78 467.33,-27.84 456.75,-28.27 459.32,-34.78"/>
</g>
<!-- Node13 -->
<g id="node13" class="node">
<title>Node13</title>
<g id="a_node13"><a xlink:href="render_8h.html#aa620096ce57b0280c8e9162eff12a938" target="_top" xlink:title="Moves a 3D point with a keypress.">
<polygon fill="none" stroke="black" points="451.5,-122.74 451.5,-141.74 572.5,-141.74 572.5,-122.74 451.5,-122.74"/>
<text text-anchor="middle" x="512" y="-129.74" font-family="Helvetica,sans-Serif" font-size="10.00">ft_keyhook_mv_point</text>
</a>
</g>
</g>
<!-- Node4&#45;&gt;Node13 -->
<g id="edge13" class="edge">
<title>Node4&#45;&gt;Node13</title>
<path fill="none" stroke="midnightblue" d="M398.1,-103.83C417.94,-108.82 442.38,-114.98 463.45,-120.28"/>
<polygon fill="midnightblue" stroke="midnightblue" points="462.62,-123.68 473.17,-122.72 464.33,-116.89 462.62,-123.68"/>
</g>
<!-- Node14 -->
<g id="node14" class="node">
<title>Node14</title>
<g id="a_node14"><a xlink:href="render_8h.html#a19285d1e97e1ac6d6d0708ecceb354ed" target="_top" xlink:title="Rotates a 3D vector with a keypress.">
<polygon fill="none" stroke="black" points="456.5,-169.74 456.5,-188.74 567.5,-188.74 567.5,-169.74 456.5,-169.74"/>
<text text-anchor="middle" x="512" y="-176.74" font-family="Helvetica,sans-Serif" font-size="10.00">ft_keyhook_rot_vec</text>
</a>
</g>
</g>
<!-- Node4&#45;&gt;Node14 -->
<g id="edge14" class="edge">
<title>Node4&#45;&gt;Node14</title>
<path fill="none" stroke="midnightblue" d="M392.37,-103.76C398.81,-106.34 405.33,-109.49 411,-113.24 430.4,-126.08 427.96,-137.87 447,-151.24 455.03,-156.88 464.37,-161.76 473.4,-165.78"/>
<polygon fill="midnightblue" stroke="midnightblue" points="472.05,-169.01 482.63,-169.67 474.77,-162.56 472.05,-169.01"/>
</g>
<!-- Node6 -->
<g id="node6" class="node">
<title>Node6</title>
<g id="a_node6"><a xlink:href="vec3_8h.html#a73e2caf4c2a51ed954b7349c6be2b3c3" target="_top" xlink:title="Add two vectors.">
<polygon fill="none" stroke="black" points="632.5,-65.74 632.5,-84.74 707.5,-84.74 707.5,-65.74 632.5,-65.74"/>
<text text-anchor="middle" x="670" y="-72.74" font-family="Helvetica,sans-Serif" font-size="10.00">ft_vec3_add</text>
</a>
</g>
</g>
<!-- Node5&#45;&gt;Node6 -->
<g id="edge5" class="edge">
<title>Node5&#45;&gt;Node6</title>
<path fill="none" stroke="midnightblue" d="M558.12,-88.75C578.29,-86.29 602.05,-83.4 622.39,-80.92"/>
<polygon fill="midnightblue" stroke="midnightblue" points="622.87,-84.39 632.37,-79.7 622.02,-77.44 622.87,-84.39"/>
</g>
<!-- Node7 -->
<g id="node7" class="node">
<title>Node7</title>
<g id="a_node7"><a xlink:href="vec3_8h.html#ac80a1c20941c96a8fafad255dac59092" target="_top" xlink:title="Scale a vector.">
<polygon fill="none" stroke="black" points="952,-103.74 952,-122.74 1035,-122.74 1035,-103.74 952,-103.74"/>
<text text-anchor="middle" x="993.5" y="-110.74" font-family="Helvetica,sans-Serif" font-size="10.00">ft_vec3_scale</text>
</a>
</g>
</g>
<!-- Node5&#45;&gt;Node7 -->
<g id="edge6" class="edge">
<title>Node5&#45;&gt;Node7</title>
<path fill="none" stroke="midnightblue" d="M558.11,-96.03C647.77,-99.58 847.82,-107.51 941.84,-111.24"/>
<polygon fill="midnightblue" stroke="midnightblue" points="941.82,-114.74 951.96,-111.64 942.1,-107.74 941.82,-114.74"/>
</g>
<!-- Node9 -->
<g id="node9" class="node">
<title>Node9</title>
<g id="a_node9"><a xlink:href="render__keyhook__colour_8c.html#a5d187c5314483276ba15560dcf620e39" target="_top" xlink:title="Returns a colour based on the given colour name.">
<polygon fill="none" stroke="black" points="953.5,-8.74 953.5,-27.74 1033.5,-27.74 1033.5,-8.74 953.5,-8.74"/>
<text text-anchor="middle" x="993.5" y="-15.74" font-family="Helvetica,sans-Serif" font-size="10.00">ft_get_colour</text>
</a>
</g>
</g>
<!-- Node8&#45;&gt;Node9 -->
<g id="edge8" class="edge">
<title>Node8&#45;&gt;Node9</title>
<path fill="none" stroke="midnightblue" d="M549.65,-46.72C558.71,-43.99 568.31,-40.79 577,-37.24 593.75,-30.41 595.44,-22.59 613,-18.24 728.36,10.33 869.56,-1.36 942.92,-10.76"/>
<polygon fill="midnightblue" stroke="midnightblue" points="942.86,-14.29 953.24,-12.13 943.78,-7.35 942.86,-14.29"/>
</g>
<!-- Node10 -->
<g id="node10" class="node">
<title>Node10</title>
<g id="a_node10"><a xlink:href="render__keyhook__colour_8c.html#a02dd1323bf99ad166e22cf0dcbef39f2" target="_top" xlink:title="Interpolates between two colours while keeping track of progress.">
<polygon fill="none" stroke="black" points="613,-27.74 613,-46.74 727,-46.74 727,-27.74 613,-27.74"/>
<text text-anchor="middle" x="670" y="-34.74" font-family="Helvetica,sans-Serif" font-size="10.00">ft_static_interpolate</text>
</a>
</g>
</g>
<!-- Node8&#45;&gt;Node10 -->
<g id="edge9" class="edge">
<title>Node8&#45;&gt;Node10</title>
<path fill="none" stroke="midnightblue" d="M577.35,-48.41C585.71,-47.39 594.27,-46.35 602.66,-45.32"/>
<polygon fill="midnightblue" stroke="midnightblue" points="603.27,-48.78 612.77,-44.09 602.42,-41.83 603.27,-48.78"/>
</g>
<!-- Node11 -->
<g id="node11" class="node">
<title>Node11</title>
<g id="a_node11"><a xlink:href="render__keyhook__colour_8c.html#a41e18bc0bce27f7169b29f79e5de0423" target="_top" xlink:title="Interpolates between two colours.">
<polygon fill="none" stroke="black" points="772.5,-27.74 772.5,-46.74 889.5,-46.74 889.5,-27.74 772.5,-27.74"/>
<text text-anchor="middle" x="831" y="-34.74" font-family="Helvetica,sans-Serif" font-size="10.00">ft_interpolate_colour</text>
</a>
</g>
</g>
<!-- Node10&#45;&gt;Node11 -->
<g id="edge10" class="edge">
<title>Node10&#45;&gt;Node11</title>
<path fill="none" stroke="midnightblue" d="M727.06,-37.24C738.4,-37.24 750.44,-37.24 762.13,-37.24"/>
<polygon fill="midnightblue" stroke="midnightblue" points="762.3,-40.74 772.3,-37.24 762.3,-33.74 762.3,-40.74"/>
</g>
<!-- Node11&#45;&gt;Node9 -->
<g id="edge11" class="edge">
<title>Node11&#45;&gt;Node9</title>
<path fill="none" stroke="midnightblue" d="M889.94,-30.38C907.34,-28.32 926.26,-26.08 943.06,-24.1"/>
<polygon fill="midnightblue" stroke="midnightblue" points="943.69,-27.55 953.21,-22.89 942.87,-20.59 943.69,-27.55"/>
</g>
<!-- Node15 -->
<g id="node15" class="node">
<title>Node15</title>
<g id="a_node15"><a xlink:href="mat4__vec3_8h.html#a211f9d6535bb54bea2299ee5ea8a54a0" target="_top" xlink:title="Rotates a 3D vector around the x&#45;axis.">
<polygon fill="none" stroke="black" points="621,-215.74 621,-234.74 719,-234.74 719,-215.74 621,-215.74"/>
<text text-anchor="middle" x="670" y="-222.74" font-family="Helvetica,sans-Serif" font-size="10.00">ft_vec3_rotate_x</text>
</a>
</g>
</g>
<!-- Node14&#45;&gt;Node15 -->
<g id="edge15" class="edge">
<title>Node14&#45;&gt;Node15</title>
<path fill="none" stroke="midnightblue" d="M545.32,-188.78C568.96,-195.74 601.24,-205.26 626.89,-212.83"/>
<polygon fill="midnightblue" stroke="midnightblue" points="626.14,-216.25 636.72,-215.72 628.12,-209.54 626.14,-216.25"/>
</g>
<!-- Node22 -->
<g id="node22" class="node">
<title>Node22</title>
<g id="a_node22"><a xlink:href="mat4__vec3_8h.html#ac8a4ca6fb927e3746e7129f8eb04aa46" target="_top" xlink:title="Rotates a 3D vector around the y&#45;axis.">
<polygon fill="none" stroke="black" points="621,-172.74 621,-191.74 719,-191.74 719,-172.74 621,-172.74"/>
<text text-anchor="middle" x="670" y="-179.74" font-family="Helvetica,sans-Serif" font-size="10.00">ft_vec3_rotate_y</text>
</a>
</g>
</g>
<!-- Node14&#45;&gt;Node22 -->
<g id="edge23" class="edge">
<title>Node14&#45;&gt;Node22</title>
<path fill="none" stroke="midnightblue" d="M567.56,-180.29C581.56,-180.56 596.67,-180.85 610.84,-181.13"/>
<polygon fill="midnightblue" stroke="midnightblue" points="610.9,-184.63 620.97,-181.32 611.04,-177.63 610.9,-184.63"/>
</g>
<!-- Node16 -->
<g id="node16" class="node">
<title>Node16</title>
<g id="a_node16"><a xlink:href="mat4_8h.html#a96153e828811e816c64e7d0e19fcf654" target="_top" xlink:title="Creates a 4x4 transformation matrix for x&#45;axis rotation.">
<polygon fill="none" stroke="black" points="763,-255.74 763,-274.74 899,-274.74 899,-255.74 763,-255.74"/>
<text text-anchor="middle" x="831" y="-262.74" font-family="Helvetica,sans-Serif" font-size="10.00">ft_mat4_create_rotate_x</text>
</a>
</g>
</g>
<!-- Node15&#45;&gt;Node16 -->
<g id="edge16" class="edge">
<title>Node15&#45;&gt;Node16</title>
<path fill="none" stroke="midnightblue" d="M709.08,-234.82C731.11,-240.37 759.02,-247.39 782.48,-253.29"/>
<polygon fill="midnightblue" stroke="midnightblue" points="781.67,-256.7 792.23,-255.74 783.38,-249.91 781.67,-256.7"/>
</g>
<!-- Node19 -->
<g id="node19" class="node">
<title>Node19</title>
<g id="a_node19"><a xlink:href="mat4__vec3__rotate_8c.html#a53ea797ed37dea591e9e86121a849aca" target="_top" xlink:title="Multiplies a 4x4 matrix with a 3D vector.">
<polygon fill="none" stroke="black" points="776,-217.74 776,-236.74 886,-236.74 886,-217.74 776,-217.74"/>
<text text-anchor="middle" x="831" y="-224.74" font-family="Helvetica,sans-Serif" font-size="10.00">ft_vec3_mult_mat4</text>
</a>
</g>
</g>
<!-- Node15&#45;&gt;Node19 -->
<g id="edge19" class="edge">
<title>Node15&#45;&gt;Node19</title>
<path fill="none" stroke="midnightblue" d="M719.14,-225.85C733.83,-226.03 750.23,-226.24 765.81,-226.44"/>
<polygon fill="midnightblue" stroke="midnightblue" points="765.87,-229.94 775.91,-226.56 765.95,-222.94 765.87,-229.94"/>
</g>
<!-- Node20 -->
<g id="node20" class="node">
<title>Node20</title>
<g id="a_node20"><a xlink:href="vec3_8h.html#a38fe500bd27847b866b9630146e43250" target="_top" xlink:title="Normalise a vector.">
<polygon fill="none" stroke="black" points="789.5,-141.74 789.5,-160.74 872.5,-160.74 872.5,-141.74 789.5,-141.74"/>
<text text-anchor="middle" x="831" y="-148.74" font-family="Helvetica,sans-Serif" font-size="10.00">ft_vec3_norm</text>
</a>
</g>
</g>
<!-- Node15&#45;&gt;Node20 -->
<g id="edge20" class="edge">
<title>Node15&#45;&gt;Node20</title>
<path fill="none" stroke="midnightblue" d="M697.76,-215.72C707.31,-211.83 717.94,-206.9 727,-201.24 744.91,-190.07 744.41,-180.25 763,-170.24 768.18,-167.45 773.82,-165.04 779.55,-162.96"/>
<polygon fill="midnightblue" stroke="midnightblue" points="780.82,-166.22 789.21,-159.76 778.62,-159.58 780.82,-166.22"/>
</g>
<!-- Node17 -->
<g id="node17" class="node">
<title>Node17</title>
<g id="a_node17"><a xlink:href="utils_8h.html#a7d1328722f9dc6edd652f7c732856ae9" target="_top" xlink:title="Transforms degrees into radian.">
<polygon fill="none" stroke="black" points="937,-245.74 937,-264.74 1050,-264.74 1050,-245.74 937,-245.74"/>
<text text-anchor="middle" x="993.5" y="-252.74" font-family="Helvetica,sans-Serif" font-size="10.00">ft_degree_to_radian</text>
</a>
</g>
</g>
<!-- Node16&#45;&gt;Node17 -->
<g id="edge17" class="edge">
<title>Node16&#45;&gt;Node17</title>
<path fill="none" stroke="midnightblue" d="M899.14,-261.06C908.25,-260.49 917.59,-259.91 926.68,-259.34"/>
<polygon fill="midnightblue" stroke="midnightblue" points="927.05,-262.83 936.81,-258.71 926.61,-255.84 927.05,-262.83"/>
</g>
<!-- Node18 -->
<g id="node18" class="node">
<title>Node18</title>
<g id="a_node18"><a xlink:href="mat4_8h.html#ad20d2d0fd3d7862225345a79b062f03a" target="_top" xlink:title="Returns a 4x4 identity matrix.">
<polygon fill="none" stroke="black" points="935,-198.74 935,-217.74 1052,-217.74 1052,-198.74 935,-198.74"/>
<text text-anchor="middle" x="993.5" y="-205.74" font-family="Helvetica,sans-Serif" font-size="10.00">ft_mat4_set_identity</text>
</a>
</g>
</g>
<!-- Node16&#45;&gt;Node18 -->
<g id="edge18" class="edge">
<title>Node16&#45;&gt;Node18</title>
<path fill="none" stroke="midnightblue" d="M868.39,-255.71C878.38,-252.88 889.17,-249.62 899,-246.24 920.11,-238.99 943.37,-229.54 961.41,-221.88"/>
<polygon fill="midnightblue" stroke="midnightblue" points="963.03,-224.99 970.84,-217.84 960.27,-218.56 963.03,-224.99"/>
</g>
<!-- Node20&#45;&gt;Node7 -->
<g id="edge22" class="edge">
<title>Node20&#45;&gt;Node7</title>
<path fill="none" stroke="midnightblue" d="M872.5,-141.65C893.68,-136.64 919.8,-130.46 942.26,-125.14"/>
<polygon fill="midnightblue" stroke="midnightblue" points="943.37,-128.47 952.29,-122.76 941.75,-121.66 943.37,-128.47"/>
</g>
<!-- Node21 -->
<g id="node21" class="node">
<title>Node21</title>
<g id="a_node21"><a xlink:href="vec3__linalgebra_8c.html#aa84621bd979d3b12b97908f653faf88e" target="_top" xlink:title="Calculate the absolute value of a vector.">
<polygon fill="none" stroke="black" points="956.5,-141.74 956.5,-160.74 1030.5,-160.74 1030.5,-141.74 956.5,-141.74"/>
<text text-anchor="middle" x="993.5" y="-148.74" font-family="Helvetica,sans-Serif" font-size="10.00">ft_vec3_abs</text>
</a>
</g>
</g>
<!-- Node20&#45;&gt;Node21 -->
<g id="edge21" class="edge">
<title>Node20&#45;&gt;Node21</title>
<path fill="none" stroke="midnightblue" d="M872.5,-151.24C894.99,-151.24 923.05,-151.24 946.38,-151.24"/>
<polygon fill="midnightblue" stroke="midnightblue" points="946.39,-154.74 956.39,-151.24 946.39,-147.74 946.39,-154.74"/>
</g>
<!-- Node22&#45;&gt;Node19 -->
<g id="edge27" class="edge">
<title>Node22&#45;&gt;Node19</title>
<path fill="none" stroke="midnightblue" d="M704.72,-191.79C728.54,-198.53 760.68,-207.62 786.44,-214.92"/>
<polygon fill="midnightblue" stroke="midnightblue" points="785.75,-218.36 796.33,-217.71 787.66,-211.62 785.75,-218.36"/>
</g>
<!-- Node22&#45;&gt;Node20 -->
<g id="edge28" class="edge">
<title>Node22&#45;&gt;Node20</title>
<path fill="none" stroke="midnightblue" d="M719.14,-172.86C738.21,-169.14 760.14,-164.86 779.44,-161.1"/>
<polygon fill="midnightblue" stroke="midnightblue" points="780.12,-164.53 789.27,-159.19 778.78,-157.66 780.12,-164.53"/>
</g>
<!-- Node23 -->
<g id="node23" class="node">
<title>Node23</title>
<g id="a_node23"><a xlink:href="mat4_8h.html#a3f33a47cb6e2a560791c9be852f27b35" target="_top" xlink:title="Creates a 4x4 transformation matrix for y&#45;axis rotation.">
<polygon fill="none" stroke="black" points="763,-179.74 763,-198.74 899,-198.74 899,-179.74 763,-179.74"/>
<text text-anchor="middle" x="831" y="-186.74" font-family="Helvetica,sans-Serif" font-size="10.00">ft_mat4_create_rotate_y</text>
</a>
</g>
</g>
<!-- Node22&#45;&gt;Node23 -->
<g id="edge24" class="edge">
<title>Node22&#45;&gt;Node23</title>
<path fill="none" stroke="midnightblue" d="M719.14,-184.36C729.81,-184.83 741.38,-185.34 752.89,-185.85"/>
<polygon fill="midnightblue" stroke="midnightblue" points="752.82,-189.35 762.96,-186.29 753.12,-182.36 752.82,-189.35"/>
</g>
<!-- Node23&#45;&gt;Node17 -->
<g id="edge25" class="edge">
<title>Node23&#45;&gt;Node17</title>
<path fill="none" stroke="midnightblue" d="M871.08,-198.84C880.36,-201.52 890.13,-204.69 899,-208.24 915.79,-214.97 918.87,-219.06 935,-227.24 944.19,-231.9 954.27,-236.86 963.39,-241.29"/>
<polygon fill="midnightblue" stroke="midnightblue" points="961.94,-244.48 972.46,-245.68 964.98,-238.18 961.94,-244.48"/>
</g>
<!-- Node23&#45;&gt;Node18 -->
<g id="edge26" class="edge">
<title>Node23&#45;&gt;Node18</title>
<path fill="none" stroke="midnightblue" d="M899.14,-197.19C907.56,-198.19 916.19,-199.21 924.63,-200.21"/>
<polygon fill="midnightblue" stroke="midnightblue" points="924.46,-203.71 934.8,-201.41 925.28,-196.76 924.46,-203.71"/>
</g>
<!-- Node24&#45;&gt;Node8 -->
<g id="edge30" class="edge">
<title>Node24&#45;&gt;Node8</title>
<path fill="none" stroke="midnightblue" d="M392.37,-122.73C398.81,-120.14 405.33,-117 411,-113.24 430.4,-100.41 427.17,-87.41 447,-75.24 450.4,-73.15 454.05,-71.28 457.81,-69.61"/>
<polygon fill="midnightblue" stroke="midnightblue" points="459.32,-72.78 467.33,-65.84 456.75,-66.27 459.32,-72.78"/>
</g>
<!-- Node24&#45;&gt;Node13 -->
<g id="edge31" class="edge">
<title>Node24&#45;&gt;Node13</title>
<path fill="none" stroke="midnightblue" d="M405.3,-132.24C416.64,-132.24 429.06,-132.24 441.28,-132.24"/>
<polygon fill="midnightblue" stroke="midnightblue" points="441.46,-135.74 451.46,-132.24 441.46,-128.74 441.46,-135.74"/>
</g>
<!-- Node24&#45;&gt;Node14 -->
<g id="edge32" class="edge">
<title>Node24&#45;&gt;Node14</title>
<path fill="none" stroke="midnightblue" d="M390.56,-141.76C413.61,-148.93 445.45,-158.84 470.6,-166.67"/>
<polygon fill="midnightblue" stroke="midnightblue" points="469.64,-170.04 480.23,-169.67 471.72,-163.35 469.64,-170.04"/>
</g>
<!-- Node25&#45;&gt;Node8 -->
<g id="edge34" class="edge">
<title>Node25&#45;&gt;Node8</title>
<path fill="none" stroke="midnightblue" d="M408.19,-56.24C417.29,-56.24 427,-56.24 436.68,-56.24"/>
<polygon fill="midnightblue" stroke="midnightblue" points="436.73,-59.74 446.73,-56.24 436.73,-52.74 436.73,-59.74"/>
</g>
<!-- Node25&#45;&gt;Node12 -->
<g id="edge35" class="edge">
<title>Node25&#45;&gt;Node12</title>
<path fill="none" stroke="midnightblue" d="M398.1,-46.65C417.94,-41.66 442.38,-35.51 463.45,-30.21"/>
<polygon fill="midnightblue" stroke="midnightblue" points="464.33,-33.6 473.17,-27.76 462.62,-26.81 464.33,-33.6"/>
</g>
<!-- Node25&#45;&gt;Node13 -->
<g id="edge36" class="edge">
<title>Node25&#45;&gt;Node13</title>
<path fill="none" stroke="midnightblue" d="M392.37,-65.76C398.81,-68.34 405.33,-71.49 411,-75.24 430.4,-88.08 427.17,-101.07 447,-113.24 450.4,-115.33 454.05,-117.2 457.81,-118.88"/>
<polygon fill="midnightblue" stroke="midnightblue" points="456.75,-122.22 467.33,-122.64 459.32,-115.71 456.75,-122.22"/>
</g>
</g>
</svg>
        <g id="navigator" transform="translate(0 0)" fill="#404254">
                <rect fill="#f2f5e9" fill-opacity="0.5" stroke="#606060" stroke-width=".5" x="0" y="0" width="60" height="60"/>
                <use id="zoomplus" xlink:href="#zoomPlus" x="17" y="9" onmousedown="handleZoom(evt,'in')"/>
                <use id="zoomminus" xlink:href="#zoomMin" x="42" y="9" onmousedown="handleZoom(evt,'out')"/>
                <use id="reset" xlink:href="#resetDef" x="30" y="36" onmousedown="handleReset()"/>
                <g id="arrowUp" xlink:href="#dirArrow" transform="translate(30 24)" onmousedown="handlePan(0,-1)">
                  <use xlink:href="#rim" fill="#404040">
                        <set attributeName="fill" to="#808080" begin="arrowUp.mouseover" end="arrowUp.mouseout"/>
                  </use>
                  <path fill="none" stroke="white" stroke-width="1.5" d="M0,-3.0v7 M-2.5,-0.5L0,-3.0L2.5,-0.5"/>
                </g>
                <g id="arrowRight" xlink:href="#dirArrow" transform="rotate(90) translate(36 -43)" onmousedown="handlePan(1,0)">
                  <use xlink:href="#rim" fill="#404040">
                        <set attributeName="fill" to="#808080" begin="arrowRight.mouseover" end="arrowRight.mouseout"/>
                  </use>
                  <path fill="none" stroke="white" stroke-width="1.5" d="M0,-3.0v7 M-2.5,-0.5L0,-3.0L2.5,-0.5"/>
                </g>
                <g id="arrowDown" xlink:href="#dirArrow" transform="rotate(180) translate(-30 -48)" onmousedown="handlePan(0,1)">
                  <use xlink:href="#rim" fill="#404040">
                        <set attributeName="fill" to="#808080" begin="arrowDown.mouseover" end="arrowDown.mouseout"/>
                  </use>
                  <path fill="none" stroke="white" stroke-width="1.5" d="M0,-3.0v7 M-2.5,-0.5L0,-3.0L2.5,-0.5"/>
                </g>
                <g id="arrowLeft" xlink:href="#dirArrow" transform="rotate(270) translate(-36 17)" onmousedown="handlePan(-1,0)">
                  <use xlink:href="#rim" fill="#404040">
                        <set attributeName="fill" to="#808080" begin="arrowLeft.mouseover" end="arrowLeft.mouseout"/>
                  </use>
                  <path fill="none" stroke="white" stroke-width="1.5" d="M0,-3.0v7 M-2.5,-0.5L0,-3.0L2.5,-0.5"/>
                </g>
        </g>
        <svg viewBox="0 0 15 15" width="100%" height="30px" preserveAspectRatio="xMaxYMin meet">
         <g id="arrow_out" transform="scale(0.3 0.3)">
          <a xlink:href="render_8h_add5f6a250b6eb86fcd86080295083ebf_cgraph_org.svg" target="_base">
           <rect id="button" ry="5" rx="5" y="6" x="6" height="38" width="38"
                fill="#f2f5e9" fill-opacity="0.5" stroke="#606060" stroke-width="1.0"/>
           <path id="arrow"
             d="M 11.500037,31.436501 C 11.940474,20.09759 22.043105,11.32322 32.158766,21.979434 L 37.068811,17.246167 C 37.068811,17.246167 37.088388,32 37.088388,32 L 22.160133,31.978069 C 22.160133,31.978069 26.997745,27.140456 26.997745,27.140456 C 18.528582,18.264221 13.291696,25.230495 11.500037,31.436501 z"
             style="fill:#404040;"/>
          </a>
         </g>
        </svg>
</svg>
