<?xml version="1.0" encoding="UTF-8" standalone="no"?>
<!DOCTYPE svg PUBLIC "-//W3C//DTD SVG 1.1//EN"
 "http://www.w3.org/Graphics/SVG/1.1/DTD/svg11.dtd">
<!-- Generated by graphviz version 2.43.0 (0)
 -->
<!-- Title: ft_option_isset Pages: 1 -->
<!--zoomable 318 -->
<svg id="main" version="1.1" xmlns="http://www.w3.org/2000/svg" xmlns:xlink="http://www.w3.org/1999/xlink" xml:space="preserve" onload="init(evt)">
<style type="text/css"><![CDATA[
.edge:hover path { stroke: red; }
.edge:hover polygon { stroke: red; fill: red; }
]]></style>
<script type="text/javascript"><![CDATA[
var edges = document.getElementsByTagName('g');
if (edges && edges.length) {
  for (var i=0;i<edges.length;i++) {
    if (edges[i].id.substr(0,4)=='edge') {
      edges[i].setAttribute('class','edge');
    }
  }
}
]]></script>
        <defs>
                <circle id="rim" cx="0" cy="0" r="7"/>
                <circle id="rim2" cx="0" cy="0" r="3.5"/>
                <g id="zoomPlus">
                        <use xlink:href="#rim" fill="#404040">
                                <set attributeName="fill" to="#808080" begin="zoomplus.mouseover" end="zoomplus.mouseout"/>
                        </use>
                        <path d="M-4,0h8M0,-4v8" fill="none" stroke="white" stroke-width="1.5" pointer-events="none"/>
                </g>
                <g id="zoomMin">
                        <use xlink:href="#rim" fill="#404040">
                                <set attributeName="fill" to="#808080" begin="zoomminus.mouseover" end="zoomminus.mouseout"/>
                        </use>
                        <path d="M-4,0h8" fill="none" stroke="white" stroke-width="1.5" pointer-events="none"/>
                </g>
                <g id="dirArrow">
                        <path fill="none" stroke="white" stroke-width="1.5" d="M0,-3.0v7 M-2.5,-0.5L0,-3.0L2.5,-0.5"/>
                </g>
               <g id="resetDef">
                       <use xlink:href="#rim2" fill="#404040">
                               <set attributeName="fill" to="#808080" begin="reset.mouseover" end="reset.mouseout"/>
                       </use>
               </g>
        </defs>

<script type="text/javascript">
var viewWidth = 606;
var viewHeight = 318;
var sectionId = 'dynsection-2';
</script>
<script xlink:href="svgpan.js"/>
<svg id="graph" class="graph">
<g id="viewport">
<title>ft_option_isset</title>
<!-- Node1 -->
<g id="node1" class="node">
<title>Node1</title>
<g id="a_node1"><a xlink:title="Checks if bit is set in the bit field.">
<polygon fill="#bfbfbf" stroke="black" points="510,-152.5 510,-171.5 598,-171.5 598,-152.5 510,-152.5"/>
<text text-anchor="middle" x="554" y="-159.5" font-family="Helvetica,sans-Serif" font-size="10.00">ft_option_isset</text>
</a>
</g>
</g>
<!-- Node2 -->
<g id="node2" class="node">
<title>Node2</title>
<g id="a_node2"><a xlink:href="render_8h.html#af908c05cb19e716220bc98fcf9582573" target="_top" xlink:title=" ">
<polygon fill="none" stroke="black" points="236,-266.5 236,-285.5 322,-285.5 322,-266.5 236,-266.5"/>
<text text-anchor="middle" x="279" y="-273.5" font-family="Helvetica,sans-Serif" font-size="10.00">ft_draw_scene</text>
</a>
</g>
</g>
<!-- Node1&#45;&gt;Node2 -->
<g id="edge1" class="edge">
<title>Node1&#45;&gt;Node2</title>
<path fill="none" stroke="midnightblue" d="M548.01,-181.66C539.06,-212.32 517.03,-270.51 474,-295 418.26,-326.72 338.74,-301.07 301.19,-285.6"/>
<polygon fill="midnightblue" stroke="midnightblue" points="551.47,-182.3 550.74,-171.73 544.72,-180.45 551.47,-182.3"/>
</g>
<!-- Node5 -->
<g id="node5" class="node">
<title>Node5</title>
<g id="a_node5"><a xlink:href="render_8h.html#a83e529cd9901f21912824cd776d5aec9" target="_top" xlink:title="Get the current increment value.">
<polygon fill="none" stroke="black" points="371,-266.5 371,-285.5 470,-285.5 470,-266.5 371,-266.5"/>
<text text-anchor="middle" x="420.5" y="-273.5" font-family="Helvetica,sans-Serif" font-size="10.00">ft_get_increment</text>
</a>
</g>
</g>
<!-- Node1&#45;&gt;Node5 -->
<g id="edge4" class="edge">
<title>Node1&#45;&gt;Node5</title>
<path fill="none" stroke="midnightblue" d="M542.13,-180.2C528.62,-201.4 503.69,-236.16 474,-257 468.61,-260.79 462.37,-263.9 456.13,-266.44"/>
<polygon fill="midnightblue" stroke="midnightblue" points="545.22,-181.86 547.51,-171.52 539.27,-178.18 545.22,-181.86"/>
</g>
<!-- Node6 -->
<g id="node6" class="node">
<title>Node6</title>
<g id="a_node6"><a xlink:href="render_8h.html#a735dfeb13434c88e3b4a76990386763b" target="_top" xlink:title="Puts the current menu page on the screen.">
<polygon fill="none" stroke="black" points="369.5,-228.5 369.5,-247.5 471.5,-247.5 471.5,-228.5 369.5,-228.5"/>
<text text-anchor="middle" x="420.5" y="-235.5" font-family="Helvetica,sans-Serif" font-size="10.00">ft_menu_put_text</text>
</a>
</g>
</g>
<!-- Node1&#45;&gt;Node6 -->
<g id="edge5" class="edge">
<title>Node1&#45;&gt;Node6</title>
<path fill="none" stroke="midnightblue" d="M534.13,-177.93C518.71,-190.36 495.95,-207.4 474,-219 467.23,-222.58 459.64,-225.76 452.38,-228.44"/>
<polygon fill="midnightblue" stroke="midnightblue" points="536.37,-180.61 541.88,-171.57 531.93,-175.2 536.37,-180.61"/>
</g>
<!-- Node7 -->
<g id="node7" class="node">
<title>Node7</title>
<g id="a_node7"><a xlink:href="menu__put_8h.html#a3f0568f8727013cd58c74a0f6e62fc34" target="_top" xlink:title="Puts the current increment mode on the screen.">
<polygon fill="none" stroke="black" points="388.5,-190.5 388.5,-209.5 452.5,-209.5 452.5,-190.5 388.5,-190.5"/>
<text text-anchor="middle" x="420.5" y="-197.5" font-family="Helvetica,sans-Serif" font-size="10.00">ft_put_inc</text>
</a>
</g>
</g>
<!-- Node1&#45;&gt;Node7 -->
<g id="edge7" class="edge">
<title>Node1&#45;&gt;Node7</title>
<path fill="none" stroke="midnightblue" d="M510.07,-174.4C491.43,-179.79 469.98,-185.99 452.86,-190.94"/>
<polygon fill="midnightblue" stroke="midnightblue" points="511.18,-177.73 519.82,-171.59 509.24,-171 511.18,-177.73"/>
</g>
<!-- Node8 -->
<g id="node8" class="node">
<title>Node8</title>
<g id="a_node8"><a xlink:href="menu__put_8h.html#aaa97bcdc39838b3da803447ea82e444c" target="_top" xlink:title="Puts the main page of menu on the screen.">
<polygon fill="none" stroke="black" points="227,-57.5 227,-76.5 331,-76.5 331,-57.5 227,-57.5"/>
<text text-anchor="middle" x="279" y="-64.5" font-family="Helvetica,sans-Serif" font-size="10.00">ft_put_main_page</text>
</a>
</g>
</g>
<!-- Node1&#45;&gt;Node8 -->
<g id="edge8" class="edge">
<title>Node1&#45;&gt;Node8</title>
<path fill="none" stroke="midnightblue" d="M499.34,-164.99C460.96,-165.14 408.91,-161.21 367,-143 332.05,-127.81 301.06,-93.31 287.4,-76.52"/>
<polygon fill="midnightblue" stroke="midnightblue" points="499.83,-168.48 509.78,-164.84 499.73,-161.48 499.83,-168.48"/>
</g>
<!-- Node9 -->
<g id="node9" class="node">
<title>Node9</title>
<g id="a_node9"><a xlink:href="menu__put_8h.html#a1b38af48f27d255415119731c99f5e3a" target="_top" xlink:title="Puts the current control mode on the screen.">
<polygon fill="none" stroke="black" points="382,-114.5 382,-133.5 459,-133.5 459,-114.5 382,-114.5"/>
<text text-anchor="middle" x="420.5" y="-121.5" font-family="Helvetica,sans-Serif" font-size="10.00">ft_put_mode</text>
</a>
</g>
</g>
<!-- Node1&#45;&gt;Node9 -->
<g id="edge9" class="edge">
<title>Node1&#45;&gt;Node9</title>
<path fill="none" stroke="midnightblue" d="M510.12,-149.61C492.11,-144.41 471.49,-138.45 454.67,-133.59"/>
<polygon fill="midnightblue" stroke="midnightblue" points="509.24,-153 519.82,-152.41 511.18,-146.27 509.24,-153"/>
</g>
<!-- Node10 -->
<g id="node10" class="node">
<title>Node10</title>
<g id="a_node10"><a xlink:href="menu__put_8h.html#a6466842cb9367072865c07608f1e4c7d" target="_top" xlink:title="Puts a camera page on the screen.">
<polygon fill="none" stroke="black" points="370.5,-76.5 370.5,-95.5 470.5,-95.5 470.5,-76.5 370.5,-76.5"/>
<text text-anchor="middle" x="420.5" y="-83.5" font-family="Helvetica,sans-Serif" font-size="10.00">ft_put_page_cam</text>
</a>
</g>
</g>
<!-- Node1&#45;&gt;Node10 -->
<g id="edge10" class="edge">
<title>Node1&#45;&gt;Node10</title>
<path fill="none" stroke="midnightblue" d="M534.13,-146.07C518.71,-133.64 495.95,-116.6 474,-105 467.23,-101.42 459.64,-98.24 452.38,-95.56"/>
<polygon fill="midnightblue" stroke="midnightblue" points="531.93,-148.8 541.88,-152.43 536.37,-143.39 531.93,-148.8"/>
</g>
<!-- Node11 -->
<g id="node11" class="node">
<title>Node11</title>
<g id="a_node11"><a xlink:href="menu__put_8h.html#a11eed0e0d38826c89da2d71031a08593" target="_top" xlink:title="Puts a light page on the screen.">
<polygon fill="none" stroke="black" points="370,-38.5 370,-57.5 471,-57.5 471,-38.5 370,-38.5"/>
<text text-anchor="middle" x="420.5" y="-45.5" font-family="Helvetica,sans-Serif" font-size="10.00">ft_put_page_light</text>
</a>
</g>
</g>
<!-- Node1&#45;&gt;Node11 -->
<g id="edge12" class="edge">
<title>Node1&#45;&gt;Node11</title>
<path fill="none" stroke="midnightblue" d="M542.13,-143.8C528.62,-122.6 503.69,-87.84 474,-67 468.61,-63.21 462.37,-60.1 456.13,-57.56"/>
<polygon fill="midnightblue" stroke="midnightblue" points="539.27,-145.82 547.51,-152.48 545.22,-142.14 539.27,-145.82"/>
</g>
<!-- Node12 -->
<g id="node12" class="node">
<title>Node12</title>
<g id="a_node12"><a xlink:href="menu__put_8h.html#a18613445d2379eca738e6cf789dfecf5" target="_top" xlink:title="Puts a scene page on the screen.">
<polygon fill="none" stroke="black" points="367,-0.5 367,-19.5 474,-19.5 474,-0.5 367,-0.5"/>
<text text-anchor="middle" x="420.5" y="-7.5" font-family="Helvetica,sans-Serif" font-size="10.00">ft_put_page_scene</text>
</a>
</g>
</g>
<!-- Node1&#45;&gt;Node12 -->
<g id="edge14" class="edge">
<title>Node1&#45;&gt;Node12</title>
<path fill="none" stroke="midnightblue" d="M546.42,-142.79C535.65,-114.1 511.62,-60.11 474,-29 469.37,-25.17 463.9,-22.08 458.27,-19.6"/>
<polygon fill="midnightblue" stroke="midnightblue" points="543.21,-144.22 549.89,-152.45 549.8,-141.85 543.21,-144.22"/>
</g>
<!-- Node3 -->
<g id="node3" class="node">
<title>Node3</title>
<g id="a_node3"><a xlink:href="render_8h.html#ab7a01aa5d27d2fad2942a43a31ae0d52" target="_top" xlink:title="Starts the mlx loop.">
<polygon fill="none" stroke="black" points="77,-266.5 77,-285.5 191,-285.5 191,-266.5 77,-266.5"/>
<text text-anchor="middle" x="134" y="-273.5" font-family="Helvetica,sans-Serif" font-size="10.00">ft_render_start_loop</text>
</a>
</g>
</g>
<!-- Node2&#45;&gt;Node3 -->
<g id="edge2" class="edge">
<title>Node2&#45;&gt;Node3</title>
<path fill="none" stroke="midnightblue" d="M225.76,-276C214.5,-276 202.55,-276 191.15,-276"/>
<polygon fill="midnightblue" stroke="midnightblue" points="225.87,-279.5 235.87,-276 225.87,-272.5 225.87,-279.5"/>
</g>
<!-- Node4 -->
<g id="node4" class="node">
<title>Node4</title>
<g id="a_node4"><a xlink:href="main_8c.html#a3c04138a5bfe5d72780bb7e82a18e627" target="_top" xlink:title=" ">
<polygon fill="none" stroke="black" points="0,-266.5 0,-285.5 41,-285.5 41,-266.5 0,-266.5"/>
<text text-anchor="middle" x="20.5" y="-273.5" font-family="Helvetica,sans-Serif" font-size="10.00">main</text>
</a>
</g>
</g>
<!-- Node3&#45;&gt;Node4 -->
<g id="edge3" class="edge">
<title>Node3&#45;&gt;Node4</title>
<path fill="none" stroke="midnightblue" d="M66.7,-276C57.37,-276 48.45,-276 41.04,-276"/>
<polygon fill="midnightblue" stroke="midnightblue" points="66.92,-279.5 76.92,-276 66.92,-272.5 66.92,-279.5"/>
</g>
<!-- Node6&#45;&gt;Node2 -->
<g id="edge6" class="edge">
<title>Node6&#45;&gt;Node2</title>
<path fill="none" stroke="midnightblue" d="M374.54,-250.25C355.32,-255.48 333.2,-261.51 315.19,-266.41"/>
<polygon fill="midnightblue" stroke="midnightblue" points="375.57,-253.59 384.3,-247.59 373.73,-246.84 375.57,-253.59"/>
</g>
<!-- Node10&#45;&gt;Node8 -->
<g id="edge11" class="edge">
<title>Node10&#45;&gt;Node8</title>
<path fill="none" stroke="midnightblue" d="M360.32,-77.94C350.6,-76.62 340.6,-75.25 331.1,-73.96"/>
<polygon fill="midnightblue" stroke="midnightblue" points="359.94,-81.42 370.32,-79.3 360.88,-74.48 359.94,-81.42"/>
</g>
<!-- Node11&#45;&gt;Node8 -->
<g id="edge13" class="edge">
<title>Node11&#45;&gt;Node8</title>
<path fill="none" stroke="midnightblue" d="M359.77,-56.13C350.29,-57.43 340.56,-58.75 331.3,-60.01"/>
<polygon fill="midnightblue" stroke="midnightblue" points="360.49,-59.57 369.92,-54.75 359.54,-52.63 360.49,-59.57"/>
</g>
<!-- Node12&#45;&gt;Node8 -->
<g id="edge15" class="edge">
<title>Node12&#45;&gt;Node8</title>
<path fill="none" stroke="midnightblue" d="M382.34,-23.11C377.17,-25.03 371.94,-27.03 367,-29 344.19,-38.1 318.46,-49.48 300.94,-57.4"/>
<polygon fill="midnightblue" stroke="midnightblue" points="383.94,-26.25 392.13,-19.53 381.53,-19.68 383.94,-26.25"/>
</g>
</g>
</svg>
        <g id="navigator" transform="translate(0 0)" fill="#404254">
                <rect fill="#f2f5e9" fill-opacity="0.5" stroke="#606060" stroke-width=".5" x="0" y="0" width="60" height="60"/>
                <use id="zoomplus" xlink:href="#zoomPlus" x="17" y="9" onmousedown="handleZoom(evt,'in')"/>
                <use id="zoomminus" xlink:href="#zoomMin" x="42" y="9" onmousedown="handleZoom(evt,'out')"/>
                <use id="reset" xlink:href="#resetDef" x="30" y="36" onmousedown="handleReset()"/>
                <g id="arrowUp" xlink:href="#dirArrow" transform="translate(30 24)" onmousedown="handlePan(0,-1)">
                  <use xlink:href="#rim" fill="#404040">
                        <set attributeName="fill" to="#808080" begin="arrowUp.mouseover" end="arrowUp.mouseout"/>
                  </use>
                  <path fill="none" stroke="white" stroke-width="1.5" d="M0,-3.0v7 M-2.5,-0.5L0,-3.0L2.5,-0.5"/>
                </g>
                <g id="arrowRight" xlink:href="#dirArrow" transform="rotate(90) translate(36 -43)" onmousedown="handlePan(1,0)">
                  <use xlink:href="#rim" fill="#404040">
                        <set attributeName="fill" to="#808080" begin="arrowRight.mouseover" end="arrowRight.mouseout"/>
                  </use>
                  <path fill="none" stroke="white" stroke-width="1.5" d="M0,-3.0v7 M-2.5,-0.5L0,-3.0L2.5,-0.5"/>
                </g>
                <g id="arrowDown" xlink:href="#dirArrow" transform="rotate(180) translate(-30 -48)" onmousedown="handlePan(0,1)">
                  <use xlink:href="#rim" fill="#404040">
                        <set attributeName="fill" to="#808080" begin="arrowDown.mouseover" end="arrowDown.mouseout"/>
                  </use>
                  <path fill="none" stroke="white" stroke-width="1.5" d="M0,-3.0v7 M-2.5,-0.5L0,-3.0L2.5,-0.5"/>
                </g>
                <g id="arrowLeft" xlink:href="#dirArrow" transform="rotate(270) translate(-36 17)" onmousedown="handlePan(-1,0)">
                  <use xlink:href="#rim" fill="#404040">
                        <set attributeName="fill" to="#808080" begin="arrowLeft.mouseover" end="arrowLeft.mouseout"/>
                  </use>
                  <path fill="none" stroke="white" stroke-width="1.5" d="M0,-3.0v7 M-2.5,-0.5L0,-3.0L2.5,-0.5"/>
                </g>
        </g>
        <svg viewBox="0 0 15 15" width="100%" height="30px" preserveAspectRatio="xMaxYMin meet">
         <g id="arrow_out" transform="scale(0.3 0.3)">
          <a xlink:href="render__bit__field_8c_aea0daf263880cbf1cf1a0dd050320e7a_icgraph_org.svg" target="_base">
           <rect id="button" ry="5" rx="5" y="6" x="6" height="38" width="38"
                fill="#f2f5e9" fill-opacity="0.5" stroke="#606060" stroke-width="1.0"/>
           <path id="arrow"
             d="M 11.500037,31.436501 C 11.940474,20.09759 22.043105,11.32322 32.158766,21.979434 L 37.068811,17.246167 C 37.068811,17.246167 37.088388,32 37.088388,32 L 22.160133,31.978069 C 22.160133,31.978069 26.997745,27.140456 26.997745,27.140456 C 18.528582,18.264221 13.291696,25.230495 11.500037,31.436501 z"
             style="fill:#404040;"/>
          </a>
         </g>
        </svg>
</svg>
