<?xml version="1.0" encoding="UTF-8" standalone="no"?>
<!DOCTYPE svg PUBLIC "-//W3C//DTD SVG 1.1//EN"
 "http://www.w3.org/Graphics/SVG/1.1/DTD/svg11.dtd">
<!-- Generated by graphviz version 2.43.0 (0)
 -->
<!-- Title: ft_manip_light Pages: 1 -->
<!--zoomable 142 -->
<svg id="main" version="1.1" xmlns="http://www.w3.org/2000/svg" xmlns:xlink="http://www.w3.org/1999/xlink" xml:space="preserve" onload="init(evt)">
<style type="text/css"><![CDATA[
.edge:hover path { stroke: red; }
.edge:hover polygon { stroke: red; fill: red; }
]]></style>
<script type="text/javascript"><![CDATA[
var edges = document.getElementsByTagName('g');
if (edges && edges.length) {
  for (var i=0;i<edges.length;i++) {
    if (edges[i].id.substr(0,4)=='edge') {
      edges[i].setAttribute('class','edge');
    }
  }
}
]]></script>
        <defs>
                <circle id="rim" cx="0" cy="0" r="7"/>
                <circle id="rim2" cx="0" cy="0" r="3.5"/>
                <g id="zoomPlus">
                        <use xlink:href="#rim" fill="#404040">
                                <set attributeName="fill" to="#808080" begin="zoomplus.mouseover" end="zoomplus.mouseout"/>
                        </use>
                        <path d="M-4,0h8M0,-4v8" fill="none" stroke="white" stroke-width="1.5" pointer-events="none"/>
                </g>
                <g id="zoomMin">
                        <use xlink:href="#rim" fill="#404040">
                                <set attributeName="fill" to="#808080" begin="zoomminus.mouseover" end="zoomminus.mouseout"/>
                        </use>
                        <path d="M-4,0h8" fill="none" stroke="white" stroke-width="1.5" pointer-events="none"/>
                </g>
                <g id="dirArrow">
                        <path fill="none" stroke="white" stroke-width="1.5" d="M0,-3.0v7 M-2.5,-0.5L0,-3.0L2.5,-0.5"/>
                </g>
               <g id="resetDef">
                       <use xlink:href="#rim2" fill="#404040">
                               <set attributeName="fill" to="#808080" begin="reset.mouseover" end="reset.mouseout"/>
                       </use>
               </g>
        </defs>

<script type="text/javascript">
var viewWidth = 841;
var viewHeight = 142;
var sectionId = 'dynsection-25';
</script>
<script xlink:href="svgpan.js"/>
<svg id="graph" class="graph">
<g id="viewport">
<title>ft_manip_light</title>
<!-- Node1 -->
<g id="node1" class="node">
<title>Node1</title>
<g id="a_node1"><a xlink:title="Manipulates the active light.">
<polygon fill="#bfbfbf" stroke="black" points="0,-76.5 0,-95.5 86,-95.5 86,-76.5 0,-76.5"/>
<text text-anchor="middle" x="43" y="-83.5" font-family="Helvetica,sans-Serif" font-size="10.00">ft_manip_light</text>
</a>
</g>
</g>
<!-- Node2 -->
<g id="node2" class="node">
<title>Node2</title>
<g id="a_node2"><a xlink:href="render__keyhook__light_8c.html#a31f05b252db0e611f0a6e6a07d355dc1" target="_top" xlink:title=" ">
<polygon fill="none" stroke="black" points="122,-114.5 122,-133.5 248,-133.5 248,-114.5 122,-114.5"/>
<text text-anchor="middle" x="185" y="-121.5" font-family="Helvetica,sans-Serif" font-size="10.00">ft_change_active_light</text>
</a>
</g>
</g>
<!-- Node1&#45;&gt;Node2 -->
<g id="edge1" class="edge">
<title>Node1&#45;&gt;Node2</title>
<path fill="none" stroke="midnightblue" d="M79.33,-95.59C97.4,-100.49 119.6,-106.52 138.89,-111.76"/>
<polygon fill="midnightblue" stroke="midnightblue" points="138.12,-115.17 148.68,-114.41 139.95,-108.42 138.12,-115.17"/>
</g>
<!-- Node3 -->
<g id="node3" class="node">
<title>Node3</title>
<g id="a_node3"><a xlink:href="render__keyhook__light_8c.html#a597d35b7bd3aa66272e3c2ff3a1e8f78" target="_top" xlink:title=" ">
<polygon fill="none" stroke="black" points="132.5,-76.5 132.5,-95.5 237.5,-95.5 237.5,-76.5 132.5,-76.5"/>
<text text-anchor="middle" x="185" y="-83.5" font-family="Helvetica,sans-Serif" font-size="10.00">ft_manip_ambient</text>
</a>
</g>
</g>
<!-- Node1&#45;&gt;Node3 -->
<g id="edge2" class="edge">
<title>Node1&#45;&gt;Node3</title>
<path fill="none" stroke="midnightblue" d="M86,-86C97.39,-86 109.97,-86 122.2,-86"/>
<polygon fill="midnightblue" stroke="midnightblue" points="122.36,-89.5 132.36,-86 122.36,-82.5 122.36,-89.5"/>
</g>
<!-- Node9 -->
<g id="node9" class="node">
<title>Node9</title>
<g id="a_node9"><a xlink:href="render__keyhook__light_8c.html#a16d57d13773703e93274caef6b5ccde1" target="_top" xlink:title=" ">
<polygon fill="none" stroke="black" points="132,-38.5 132,-57.5 238,-57.5 238,-38.5 132,-38.5"/>
<text text-anchor="middle" x="185" y="-45.5" font-family="Helvetica,sans-Serif" font-size="10.00">ft_manip_light_src</text>
</a>
</g>
</g>
<!-- Node1&#45;&gt;Node9 -->
<g id="edge9" class="edge">
<title>Node1&#45;&gt;Node9</title>
<path fill="none" stroke="midnightblue" d="M79.33,-76.41C97.4,-71.51 119.6,-65.48 138.89,-60.24"/>
<polygon fill="midnightblue" stroke="midnightblue" points="139.95,-63.58 148.68,-57.59 138.12,-56.83 139.95,-63.58"/>
</g>
<!-- Node4 -->
<g id="node4" class="node">
<title>Node4</title>
<g id="a_node4"><a xlink:href="render_8h.html#a7f7526c1b74ae22e7d9f477e20a9890f" target="_top" xlink:title="Changes the colour with a keypress.">
<polygon fill="none" stroke="black" points="284,-38.5 284,-57.5 414,-57.5 414,-38.5 284,-38.5"/>
<text text-anchor="middle" x="349" y="-45.5" font-family="Helvetica,sans-Serif" font-size="10.00">ft_keyhook_change_col</text>
</a>
</g>
</g>
<!-- Node3&#45;&gt;Node4 -->
<g id="edge3" class="edge">
<title>Node3&#45;&gt;Node4</title>
<path fill="none" stroke="midnightblue" d="M226.88,-76.41C248.35,-71.37 274.86,-65.16 297.6,-59.82"/>
<polygon fill="midnightblue" stroke="midnightblue" points="298.48,-63.21 307.41,-57.52 296.88,-56.4 298.48,-63.21"/>
</g>
<!-- Node8 -->
<g id="node8" class="node">
<title>Node8</title>
<g id="a_node8"><a xlink:href="render_8h.html#a7b262237fcbe352cb4ef79235666956b" target="_top" xlink:title="Increases or decreases a value with a keypress.">
<polygon fill="none" stroke="black" points="293,-76.5 293,-95.5 405,-95.5 405,-76.5 293,-76.5"/>
<text text-anchor="middle" x="349" y="-83.5" font-family="Helvetica,sans-Serif" font-size="10.00">ft_keyhook_inc_dec</text>
</a>
</g>
</g>
<!-- Node3&#45;&gt;Node8 -->
<g id="edge8" class="edge">
<title>Node3&#45;&gt;Node8</title>
<path fill="none" stroke="midnightblue" d="M237.7,-86C252,-86 267.7,-86 282.66,-86"/>
<polygon fill="midnightblue" stroke="midnightblue" points="282.87,-89.5 292.87,-86 282.87,-82.5 282.87,-89.5"/>
</g>
<!-- Node5 -->
<g id="node5" class="node">
<title>Node5</title>
<g id="a_node5"><a xlink:href="render__keyhook__colour_8c.html#a5d187c5314483276ba15560dcf620e39" target="_top" xlink:title="Returns a colour based on the given colour name.">
<polygon fill="none" stroke="black" points="753,-38.5 753,-57.5 833,-57.5 833,-38.5 753,-38.5"/>
<text text-anchor="middle" x="793" y="-45.5" font-family="Helvetica,sans-Serif" font-size="10.00">ft_get_colour</text>
</a>
</g>
</g>
<!-- Node4&#45;&gt;Node5 -->
<g id="edge4" class="edge">
<title>Node4&#45;&gt;Node5</title>
<path fill="none" stroke="midnightblue" d="M414.27,-48C503.29,-48 662.21,-48 742.57,-48"/>
<polygon fill="midnightblue" stroke="midnightblue" points="742.91,-51.5 752.91,-48 742.91,-44.5 742.91,-51.5"/>
</g>
<!-- Node6 -->
<g id="node6" class="node">
<title>Node6</title>
<g id="a_node6"><a xlink:href="render__keyhook__colour_8c.html#a02dd1323bf99ad166e22cf0dcbef39f2" target="_top" xlink:title="Interpolates between two colours while keeping track of progress.">
<polygon fill="none" stroke="black" points="450,-19.5 450,-38.5 564,-38.5 564,-19.5 450,-19.5"/>
<text text-anchor="middle" x="507" y="-26.5" font-family="Helvetica,sans-Serif" font-size="10.00">ft_static_interpolate</text>
</a>
</g>
</g>
<!-- Node4&#45;&gt;Node6 -->
<g id="edge5" class="edge">
<title>Node4&#45;&gt;Node6</title>
<path fill="none" stroke="midnightblue" d="M414.35,-40.16C422.71,-39.14 431.27,-38.1 439.66,-37.08"/>
<polygon fill="midnightblue" stroke="midnightblue" points="440.27,-40.53 449.77,-35.85 439.42,-33.58 440.27,-40.53"/>
</g>
<!-- Node7 -->
<g id="node7" class="node">
<title>Node7</title>
<g id="a_node7"><a xlink:href="render__keyhook__colour_8c.html#a41e18bc0bce27f7169b29f79e5de0423" target="_top" xlink:title="Interpolates between two colours.">
<polygon fill="none" stroke="black" points="600,-19.5 600,-38.5 717,-38.5 717,-19.5 600,-19.5"/>
<text text-anchor="middle" x="658.5" y="-26.5" font-family="Helvetica,sans-Serif" font-size="10.00">ft_interpolate_colour</text>
</a>
</g>
</g>
<!-- Node6&#45;&gt;Node7 -->
<g id="edge6" class="edge">
<title>Node6&#45;&gt;Node7</title>
<path fill="none" stroke="midnightblue" d="M564.09,-29C572.34,-29 580.91,-29 589.37,-29"/>
<polygon fill="midnightblue" stroke="midnightblue" points="589.6,-32.5 599.6,-29 589.6,-25.5 589.6,-32.5"/>
</g>
<!-- Node7&#45;&gt;Node5 -->
<g id="edge7" class="edge">
<title>Node7&#45;&gt;Node5</title>
<path fill="none" stroke="midnightblue" d="M717.23,-37.28C725.76,-38.5 734.48,-39.75 742.81,-40.95"/>
<polygon fill="midnightblue" stroke="midnightblue" points="742.35,-44.42 752.74,-42.37 743.34,-37.49 742.35,-44.42"/>
</g>
<!-- Node9&#45;&gt;Node4 -->
<g id="edge10" class="edge">
<title>Node9&#45;&gt;Node4</title>
<path fill="none" stroke="midnightblue" d="M238.15,-48C249.49,-48 261.71,-48 273.72,-48"/>
<polygon fill="midnightblue" stroke="midnightblue" points="273.75,-51.5 283.75,-48 273.75,-44.5 273.75,-51.5"/>
</g>
<!-- Node9&#45;&gt;Node8 -->
<g id="edge11" class="edge">
<title>Node9&#45;&gt;Node8</title>
<path fill="none" stroke="midnightblue" d="M226.88,-57.59C248.35,-62.63 274.86,-68.84 297.6,-74.18"/>
<polygon fill="midnightblue" stroke="midnightblue" points="296.88,-77.6 307.41,-76.48 298.48,-70.79 296.88,-77.6"/>
</g>
<!-- Node10 -->
<g id="node10" class="node">
<title>Node10</title>
<g id="a_node10"><a xlink:href="render_8h.html#aa620096ce57b0280c8e9162eff12a938" target="_top" xlink:title="Moves a 3D point with a keypress.">
<polygon fill="none" stroke="black" points="288.5,-0.5 288.5,-19.5 409.5,-19.5 409.5,-0.5 288.5,-0.5"/>
<text text-anchor="middle" x="349" y="-7.5" font-family="Helvetica,sans-Serif" font-size="10.00">ft_keyhook_mv_point</text>
</a>
</g>
</g>
<!-- Node9&#45;&gt;Node10 -->
<g id="edge12" class="edge">
<title>Node9&#45;&gt;Node10</title>
<path fill="none" stroke="midnightblue" d="M226.88,-38.41C248.35,-33.37 274.86,-27.16 297.6,-21.82"/>
<polygon fill="midnightblue" stroke="midnightblue" points="298.48,-25.21 307.41,-19.52 296.88,-18.4 298.48,-25.21"/>
</g>
</g>
</svg>
        <g id="navigator" transform="translate(0 0)" fill="#404254">
                <rect fill="#f2f5e9" fill-opacity="0.5" stroke="#606060" stroke-width=".5" x="0" y="0" width="60" height="60"/>
                <use id="zoomplus" xlink:href="#zoomPlus" x="17" y="9" onmousedown="handleZoom(evt,'in')"/>
                <use id="zoomminus" xlink:href="#zoomMin" x="42" y="9" onmousedown="handleZoom(evt,'out')"/>
                <use id="reset" xlink:href="#resetDef" x="30" y="36" onmousedown="handleReset()"/>
                <g id="arrowUp" xlink:href="#dirArrow" transform="translate(30 24)" onmousedown="handlePan(0,-1)">
                  <use xlink:href="#rim" fill="#404040">
                        <set attributeName="fill" to="#808080" begin="arrowUp.mouseover" end="arrowUp.mouseout"/>
                  </use>
                  <path fill="none" stroke="white" stroke-width="1.5" d="M0,-3.0v7 M-2.5,-0.5L0,-3.0L2.5,-0.5"/>
                </g>
                <g id="arrowRight" xlink:href="#dirArrow" transform="rotate(90) translate(36 -43)" onmousedown="handlePan(1,0)">
                  <use xlink:href="#rim" fill="#404040">
                        <set attributeName="fill" to="#808080" begin="arrowRight.mouseover" end="arrowRight.mouseout"/>
                  </use>
                  <path fill="none" stroke="white" stroke-width="1.5" d="M0,-3.0v7 M-2.5,-0.5L0,-3.0L2.5,-0.5"/>
                </g>
                <g id="arrowDown" xlink:href="#dirArrow" transform="rotate(180) translate(-30 -48)" onmousedown="handlePan(0,1)">
                  <use xlink:href="#rim" fill="#404040">
                        <set attributeName="fill" to="#808080" begin="arrowDown.mouseover" end="arrowDown.mouseout"/>
                  </use>
                  <path fill="none" stroke="white" stroke-width="1.5" d="M0,-3.0v7 M-2.5,-0.5L0,-3.0L2.5,-0.5"/>
                </g>
                <g id="arrowLeft" xlink:href="#dirArrow" transform="rotate(270) translate(-36 17)" onmousedown="handlePan(-1,0)">
                  <use xlink:href="#rim" fill="#404040">
                        <set attributeName="fill" to="#808080" begin="arrowLeft.mouseover" end="arrowLeft.mouseout"/>
                  </use>
                  <path fill="none" stroke="white" stroke-width="1.5" d="M0,-3.0v7 M-2.5,-0.5L0,-3.0L2.5,-0.5"/>
                </g>
        </g>
        <svg viewBox="0 0 15 15" width="100%" height="30px" preserveAspectRatio="xMaxYMin meet">
         <g id="arrow_out" transform="scale(0.3 0.3)">
          <a xlink:href="render_8h_acff7acf5eb6145177496e67b32a74fba_cgraph_org.svg" target="_base">
           <rect id="button" ry="5" rx="5" y="6" x="6" height="38" width="38"
                fill="#f2f5e9" fill-opacity="0.5" stroke="#606060" stroke-width="1.0"/>
           <path id="arrow"
             d="M 11.500037,31.436501 C 11.940474,20.09759 22.043105,11.32322 32.158766,21.979434 L 37.068811,17.246167 C 37.068811,17.246167 37.088388,32 37.088388,32 L 22.160133,31.978069 C 22.160133,31.978069 26.997745,27.140456 26.997745,27.140456 C 18.528582,18.264221 13.291696,25.230495 11.500037,31.436501 z"
             style="fill:#404040;"/>
          </a>
         </g>
        </svg>
</svg>
