<?xml version="1.0" encoding="UTF-8" standalone="no"?>
<!DOCTYPE svg PUBLIC "-//W3C//DTD SVG 1.1//EN"
 "http://www.w3.org/Graphics/SVG/1.1/DTD/svg11.dtd">
<!-- Generated by graphviz version 2.43.0 (0)
 -->
<!-- Title: ft_single_sample Pages: 1 -->
<svg width="1476pt" height="731pt"
 viewBox="0.00 0.00 1476.00 731.00" xmlns="http://www.w3.org/2000/svg" xmlns:xlink="http://www.w3.org/1999/xlink">
<g id="graph0" class="graph" transform="scale(1 1) rotate(0) translate(4 727)">
<title>ft_single_sample</title>
<!-- Node1 -->
<g id="node1" class="node">
<title>Node1</title>
<g id="a_node1"><a xlink:title="Raytraces a single sample of the scene to the sample buffer.">
<polygon fill="#bfbfbf" stroke="black" points="0,-307.5 0,-326.5 99,-326.5 99,-307.5 0,-307.5"/>
<text text-anchor="middle" x="49.5" y="-314.5" font-family="Helvetica,sans-Serif" font-size="10.00">ft_single_sample</text>
</a>
</g>
</g>
<!-- Node2 -->
<g id="node2" class="node">
<title>Node2</title>
<g id="a_node2"><a xlink:href="render__bit__field_8h.html#a0e353bbefbfd549ad2ebb5b821fc7900" target="_top" xlink:title="Clears bit in bit field.">
<polygon fill="none" stroke="black" points="145.5,-402.5 145.5,-421.5 234.5,-421.5 234.5,-402.5 145.5,-402.5"/>
<text text-anchor="middle" x="190" y="-409.5" font-family="Helvetica,sans-Serif" font-size="10.00">ft_option_clear</text>
</a>
</g>
</g>
<!-- Node1&#45;&gt;Node2 -->
<g id="edge1" class="edge">
<title>Node1&#45;&gt;Node2</title>
<path fill="none" stroke="midnightblue" d="M58.92,-326.74C73.13,-342.64 103.44,-374.28 135,-393 138.41,-395.02 142.07,-396.88 145.82,-398.57"/>
<polygon fill="midnightblue" stroke="midnightblue" points="144.65,-401.87 155.23,-402.43 147.31,-395.4 144.65,-401.87"/>
</g>
<!-- Node3 -->
<g id="node3" class="node">
<title>Node3</title>
<g id="a_node3"><a xlink:href="render__bit__field_8h.html#aea0daf263880cbf1cf1a0dd050320e7a" target="_top" xlink:title="Checks if bit is set in the bit field.">
<polygon fill="none" stroke="black" points="146,-364.5 146,-383.5 234,-383.5 234,-364.5 146,-364.5"/>
<text text-anchor="middle" x="190" y="-371.5" font-family="Helvetica,sans-Serif" font-size="10.00">ft_option_isset</text>
</a>
</g>
</g>
<!-- Node1&#45;&gt;Node3 -->
<g id="edge2" class="edge">
<title>Node1&#45;&gt;Node3</title>
<path fill="none" stroke="midnightblue" d="M70.44,-326.54C87.44,-334.53 112.6,-346.04 135,-355 140.13,-357.05 145.58,-359.11 150.97,-361.07"/>
<polygon fill="midnightblue" stroke="midnightblue" points="149.93,-364.42 160.53,-364.49 152.29,-357.83 149.93,-364.42"/>
</g>
<!-- Node4 -->
<g id="node4" class="node">
<title>Node4</title>
<g id="a_node4"><a xlink:href="render__bit__field_8h.html#ab984d9cbc7c648ef4481b9158b27da30" target="_top" xlink:title="Sets bit in bit field.">
<polygon fill="none" stroke="black" points="150,-326.5 150,-345.5 230,-345.5 230,-326.5 150,-326.5"/>
<text text-anchor="middle" x="190" y="-333.5" font-family="Helvetica,sans-Serif" font-size="10.00">ft_option_set</text>
</a>
</g>
</g>
<!-- Node1&#45;&gt;Node4 -->
<g id="edge3" class="edge">
<title>Node1&#45;&gt;Node4</title>
<path fill="none" stroke="midnightblue" d="M99.33,-323.7C112.36,-325.49 126.44,-327.42 139.51,-329.21"/>
<polygon fill="midnightblue" stroke="midnightblue" points="139.34,-332.72 149.73,-330.61 140.29,-325.79 139.34,-332.72"/>
</g>
<!-- Node5 -->
<g id="node5" class="node">
<title>Node5</title>
<g id="a_node5"><a xlink:href="render__bonus_8h.html#a396a2e84d5040d414ec16ab32303c8d1" target="_top" xlink:title="Raytraces the scene to the sample buffer.">
<polygon fill="none" stroke="black" points="135,-288.5 135,-307.5 245,-307.5 245,-288.5 135,-288.5"/>
<text text-anchor="middle" x="190" y="-295.5" font-family="Helvetica,sans-Serif" font-size="10.00">ft_raytrace_sample</text>
</a>
</g>
</g>
<!-- Node1&#45;&gt;Node5 -->
<g id="edge4" class="edge">
<title>Node1&#45;&gt;Node5</title>
<path fill="none" stroke="midnightblue" d="M99.33,-310.3C107.61,-309.16 116.33,-307.97 124.93,-306.79"/>
<polygon fill="midnightblue" stroke="midnightblue" points="125.52,-310.24 134.95,-305.41 124.57,-303.31 125.52,-310.24"/>
</g>
<!-- Node36 -->
<g id="node36" class="node">
<title>Node36</title>
<g id="a_node36"><a xlink:href="render__bonus_8h.html#a5d5ed6b28be3a532b4e17bd4a05df4d3" target="_top" xlink:title="Like ft_raytrace_sample(), but threaded.">
<polygon fill="none" stroke="black" points="135,-239 135,-269 245,-269 245,-239 135,-239"/>
<text text-anchor="start" x="143" y="-257" font-family="Helvetica,sans-Serif" font-size="10.00">ft_raytrace_sample</text>
<text text-anchor="middle" x="190" y="-246" font-family="Helvetica,sans-Serif" font-size="10.00">_threaded</text>
</a>
</g>
</g>
<!-- Node1&#45;&gt;Node36 -->
<g id="edge51" class="edge">
<title>Node1&#45;&gt;Node36</title>
<path fill="none" stroke="midnightblue" d="M71.54,-307.43C91.4,-298.4 121.76,-284.58 146.65,-273.27"/>
<polygon fill="midnightblue" stroke="midnightblue" points="148.23,-276.39 155.88,-269.07 145.33,-270.02 148.23,-276.39"/>
</g>
<!-- Node38 -->
<g id="node38" class="node">
<title>Node38</title>
<g id="a_node38"><a xlink:href="threads__bonus_8h.html#a2ebd69dd0aea05d27136b23dfb779788" target="_top" xlink:title="Creates NUM_THREADS threads and joins them.">
<polygon fill="none" stroke="black" points="144.5,-38.5 144.5,-57.5 235.5,-57.5 235.5,-38.5 144.5,-38.5"/>
<text text-anchor="middle" x="190" y="-45.5" font-family="Helvetica,sans-Serif" font-size="10.00">ft_spin_threads</text>
</a>
</g>
</g>
<!-- Node1&#45;&gt;Node38 -->
<g id="edge57" class="edge">
<title>Node1&#45;&gt;Node38</title>
<path fill="none" stroke="midnightblue" d="M55.43,-307.43C75.62,-268.21 152.22,-119.44 179.38,-66.69"/>
<polygon fill="midnightblue" stroke="midnightblue" points="182.52,-68.23 183.99,-57.74 176.3,-65.03 182.52,-68.23"/>
</g>
<!-- Node6 -->
<g id="node6" class="node">
<title>Node6</title>
<g id="a_node6"><a xlink:href="render__draw__bonus_8c.html#a8d0bd9d9ea57df013aa96dee7558d4b3" target="_top" xlink:title="Constructs a ray and shoots it through the pixel.">
<polygon fill="none" stroke="black" points="293,-304.5 293,-323.5 370,-323.5 370,-304.5 293,-304.5"/>
<text text-anchor="middle" x="331.5" y="-311.5" font-family="Helvetica,sans-Serif" font-size="10.00">ft_shoot_ray</text>
</a>
</g>
</g>
<!-- Node5&#45;&gt;Node6 -->
<g id="edge5" class="edge">
<title>Node5&#45;&gt;Node6</title>
<path fill="none" stroke="midnightblue" d="M245.33,-304.23C257.64,-305.64 270.62,-307.13 282.64,-308.51"/>
<polygon fill="midnightblue" stroke="midnightblue" points="282.58,-312.03 292.91,-309.69 283.37,-305.07 282.58,-312.03"/>
</g>
<!-- Node7 -->
<g id="node7" class="node">
<title>Node7</title>
<g id="a_node7"><a xlink:href="colour_8h.html#a9a9b5dd0aae5d92b494eeaa001e68470" target="_top" xlink:title="Converts a t_colour struct to an int32_t.">
<polygon fill="none" stroke="black" points="418,-266.5 418,-285.5 537,-285.5 537,-266.5 418,-266.5"/>
<text text-anchor="middle" x="477.5" y="-273.5" font-family="Helvetica,sans-Serif" font-size="10.00">ft_convert_colour2int</text>
</a>
</g>
</g>
<!-- Node6&#45;&gt;Node7 -->
<g id="edge6" class="edge">
<title>Node6&#45;&gt;Node7</title>
<path fill="none" stroke="midnightblue" d="M368.84,-304.41C387.58,-299.46 410.64,-293.38 430.61,-288.11"/>
<polygon fill="midnightblue" stroke="midnightblue" points="431.65,-291.46 440.42,-285.52 429.86,-284.69 431.65,-291.46"/>
</g>
<!-- Node8 -->
<g id="node8" class="node">
<title>Node8</title>
<g id="a_node8"><a xlink:href="ray_8h.html#a2cffd188fb76990901db47a2c3ac638f" target="_top" xlink:title="Returns the colour of a ray.">
<polygon fill="none" stroke="black" points="437.5,-380.5 437.5,-399.5 517.5,-399.5 517.5,-380.5 437.5,-380.5"/>
<text text-anchor="middle" x="477.5" y="-387.5" font-family="Helvetica,sans-Serif" font-size="10.00">ft_ray_colour</text>
</a>
</g>
</g>
<!-- Node6&#45;&gt;Node8 -->
<g id="edge7" class="edge">
<title>Node6&#45;&gt;Node8</title>
<path fill="none" stroke="midnightblue" d="M346.63,-323.54C363.27,-334.56 391.95,-352.84 418,-366 425.45,-369.77 433.64,-373.41 441.47,-376.68"/>
<polygon fill="midnightblue" stroke="midnightblue" points="440.19,-379.94 450.77,-380.46 442.82,-373.45 440.19,-379.94"/>
</g>
<!-- Node31 -->
<g id="node31" class="node">
<title>Node31</title>
<g id="a_node31"><a xlink:href="vec3_8h.html#a54e984820b74bd803de43ce36c8cb292" target="_top" xlink:title="Subtract two vectors.">
<polygon fill="none" stroke="black" points="1257.5,-247.5 1257.5,-266.5 1331.5,-266.5 1331.5,-247.5 1257.5,-247.5"/>
<text text-anchor="middle" x="1294.5" y="-254.5" font-family="Helvetica,sans-Serif" font-size="10.00">ft_vec3_sub</text>
</a>
</g>
</g>
<!-- Node6&#45;&gt;Node31 -->
<g id="edge50" class="edge">
<title>Node6&#45;&gt;Node31</title>
<path fill="none" stroke="midnightblue" d="M370.29,-322.53C423.33,-333.73 522.99,-352 609,-352 609,-352 609,-352 1041,-352 1130.67,-352 1227.44,-298.87 1270.54,-272.07"/>
<polygon fill="midnightblue" stroke="midnightblue" points="1272.56,-274.94 1279.14,-266.63 1268.81,-269.02 1272.56,-274.94"/>
</g>
<!-- Node33 -->
<g id="node33" class="node">
<title>Node33</title>
<g id="a_node33"><a xlink:href="vec3_8h.html#a38fe500bd27847b866b9630146e43250" target="_top" xlink:title="Normalise a vector.">
<polygon fill="none" stroke="black" points="1253,-209.5 1253,-228.5 1336,-228.5 1336,-209.5 1253,-209.5"/>
<text text-anchor="middle" x="1294.5" y="-216.5" font-family="Helvetica,sans-Serif" font-size="10.00">ft_vec3_norm</text>
</a>
</g>
</g>
<!-- Node6&#45;&gt;Node33 -->
<g id="edge49" class="edge">
<title>Node6&#45;&gt;Node33</title>
<path fill="none" stroke="midnightblue" d="M370.29,-321.5C414.85,-328.07 488.91,-331.61 537,-295 572.93,-267.65 547.12,-237 573,-200 610.02,-147.07 623.52,-130.19 683,-105 770.52,-67.93 800.96,-86 896,-86 896,-86 896,-86 1041,-86 1139.57,-86 1237.44,-166.33 1276.16,-202.13"/>
<polygon fill="midnightblue" stroke="midnightblue" points="1274.23,-205.12 1283.9,-209.43 1279.03,-200.03 1274.23,-205.12"/>
</g>
<!-- Node9 -->
<g id="node9" class="node">
<title>Node9</title>
<g id="a_node9"><a xlink:href="lighting_8h.html#a3d54436a3f695a60b1c2d9e504a61de8" target="_top" xlink:title="Calculate the effect of different lighting on perception.">
<polygon fill="none" stroke="black" points="573,-209.5 573,-228.5 647,-228.5 647,-209.5 573,-209.5"/>
<text text-anchor="middle" x="610" y="-216.5" font-family="Helvetica,sans-Serif" font-size="10.00">ft_enlighten</text>
</a>
</g>
</g>
<!-- Node8&#45;&gt;Node9 -->
<g id="edge8" class="edge">
<title>Node8&#45;&gt;Node9</title>
<path fill="none" stroke="midnightblue" d="M488.58,-380.39C500.71,-368.59 521.38,-347.72 537,-328 560.92,-297.81 584.8,-259.69 598.16,-237.46"/>
<polygon fill="midnightblue" stroke="midnightblue" points="601.26,-239.1 603.36,-228.71 595.24,-235.52 601.26,-239.1"/>
</g>
<!-- Node17 -->
<g id="node17" class="node">
<title>Node17</title>
<g id="a_node17"><a xlink:href="hit__manager_8h.html#a9d5972226064b0a4d0e1359d9230abec" target="_top" xlink:title="Investigate a hittable and returns whether a hit occured or not.">
<polygon fill="none" stroke="black" points="998,-418.5 998,-437.5 1082,-437.5 1082,-418.5 998,-418.5"/>
<text text-anchor="middle" x="1040" y="-425.5" font-family="Helvetica,sans-Serif" font-size="10.00">ft_hit_hittable</text>
</a>
</g>
</g>
<!-- Node8&#45;&gt;Node17 -->
<g id="edge47" class="edge">
<title>Node8&#45;&gt;Node17</title>
<path fill="none" stroke="midnightblue" d="M517.6,-388.87C600.15,-387.06 798.14,-385.81 962,-409 973.38,-410.61 985.52,-413.19 996.72,-415.94"/>
<polygon fill="midnightblue" stroke="midnightblue" points="996.14,-419.4 1006.69,-418.48 997.87,-412.62 996.14,-419.4"/>
</g>
<!-- Node24 -->
<g id="node24" class="node">
<title>Node24</title>
<g id="a_node24"><a xlink:href="hit__manager_8h.html#aa5acefb1538a700dc595870ad630f83d" target="_top" xlink:title="Initiates hitrecord struct.">
<polygon fill="none" stroke="black" points="1248,-703.5 1248,-722.5 1341,-722.5 1341,-703.5 1248,-703.5"/>
<text text-anchor="middle" x="1294.5" y="-710.5" font-family="Helvetica,sans-Serif" font-size="10.00">ft_init_hitrecord</text>
</a>
</g>
</g>
<!-- Node8&#45;&gt;Node24 -->
<g id="edge48" class="edge">
<title>Node8&#45;&gt;Node24</title>
<path fill="none" stroke="midnightblue" d="M481.02,-399.52C495.66,-452.43 574.84,-708 738.5,-708 738.5,-708 738.5,-708 1041,-708 1108.68,-708 1186.55,-709.82 1237.71,-711.26"/>
<polygon fill="midnightblue" stroke="midnightblue" points="1237.79,-714.77 1247.89,-711.55 1238,-707.77 1237.79,-714.77"/>
</g>
<!-- Node10 -->
<g id="node10" class="node">
<title>Node10</title>
<g id="a_node10"><a xlink:href="colour_8h.html#ae5c090d9193f6bcf449f12c299f186b7" target="_top" xlink:title="Add two colours.">
<polygon fill="none" stroke="black" points="698.5,-228.5 698.5,-247.5 780.5,-247.5 780.5,-228.5 698.5,-228.5"/>
<text text-anchor="middle" x="739.5" y="-235.5" font-family="Helvetica,sans-Serif" font-size="10.00">ft_add_colour</text>
</a>
</g>
</g>
<!-- Node9&#45;&gt;Node10 -->
<g id="edge9" class="edge">
<title>Node9&#45;&gt;Node10</title>
<path fill="none" stroke="midnightblue" d="M647.2,-224.39C659.87,-226.28 674.34,-228.44 687.97,-230.47"/>
<polygon fill="midnightblue" stroke="midnightblue" points="687.77,-233.98 698.18,-231.99 688.81,-227.06 687.77,-233.98"/>
</g>
<!-- Node11 -->
<g id="node11" class="node">
<title>Node11</title>
<g id="a_node11"><a xlink:href="scene__light_8c.html#a691cc177466ad1a6b1ababe4272dca1b" target="_top" xlink:title="Create ambient lighting.">
<polygon fill="none" stroke="black" points="691.5,-190.5 691.5,-209.5 787.5,-209.5 787.5,-190.5 691.5,-190.5"/>
<text text-anchor="middle" x="739.5" y="-197.5" font-family="Helvetica,sans-Serif" font-size="10.00">ft_ambient_light</text>
</a>
</g>
</g>
<!-- Node9&#45;&gt;Node11 -->
<g id="edge10" class="edge">
<title>Node9&#45;&gt;Node11</title>
<path fill="none" stroke="midnightblue" d="M647.2,-213.61C657.79,-212.03 669.63,-210.26 681.2,-208.54"/>
<polygon fill="midnightblue" stroke="midnightblue" points="681.87,-211.98 691.24,-207.04 680.84,-205.05 681.87,-211.98"/>
</g>
<!-- Node12 -->
<g id="node12" class="node">
<title>Node12</title>
<g id="a_node12"><a xlink:href="scene__light_8c.html#ae50a6e06925c764b3caad3f805bc4c8a" target="_top" xlink:title="Create diffuse lighting.">
<polygon fill="none" stroke="black" points="695,-152.5 695,-171.5 784,-171.5 784,-152.5 695,-152.5"/>
<text text-anchor="middle" x="739.5" y="-159.5" font-family="Helvetica,sans-Serif" font-size="10.00">ft_diffuse_light</text>
</a>
</g>
</g>
<!-- Node9&#45;&gt;Node12 -->
<g id="edge11" class="edge">
<title>Node9&#45;&gt;Node12</title>
<path fill="none" stroke="midnightblue" d="M627.23,-209.5C641.59,-201.32 663.28,-189.52 683,-181 687.84,-178.91 693,-176.89 698.14,-174.99"/>
<polygon fill="midnightblue" stroke="midnightblue" points="699.68,-178.16 707.93,-171.51 697.34,-171.56 699.68,-178.16"/>
</g>
<!-- Node13 -->
<g id="node13" class="node">
<title>Node13</title>
<g id="a_node13"><a xlink:href="colour_8h.html#a9e6968b360ba0fa607a8571c262995ea" target="_top" xlink:title="Calculates the Hadamard product of two colours.">
<polygon fill="none" stroke="black" points="683,-114.5 683,-133.5 796,-133.5 796,-114.5 683,-114.5"/>
<text text-anchor="middle" x="739.5" y="-121.5" font-family="Helvetica,sans-Serif" font-size="10.00">ft_hadamard_colour</text>
</a>
</g>
</g>
<!-- Node9&#45;&gt;Node13 -->
<g id="edge12" class="edge">
<title>Node9&#45;&gt;Node13</title>
<path fill="none" stroke="midnightblue" d="M617.64,-209.42C629.17,-193.46 654.41,-161.37 683,-143 686.14,-140.98 689.52,-139.15 693,-137.5"/>
<polygon fill="midnightblue" stroke="midnightblue" points="694.54,-140.65 702.39,-133.52 691.81,-134.2 694.54,-140.65"/>
</g>
<!-- Node15 -->
<g id="node15" class="node">
<title>Node15</title>
<g id="a_node15"><a xlink:href="lighting_8h.html#a382179d88a3a971b5853322389bacf04" target="_top" xlink:title="Determines whether the point of intersection lies in a shadow regarding the current light source.">
<polygon fill="none" stroke="black" points="699.5,-304.5 699.5,-323.5 779.5,-323.5 779.5,-304.5 699.5,-304.5"/>
<text text-anchor="middle" x="739.5" y="-311.5" font-family="Helvetica,sans-Serif" font-size="10.00">ft_in_shadow</text>
</a>
</g>
</g>
<!-- Node9&#45;&gt;Node15 -->
<g id="edge14" class="edge">
<title>Node9&#45;&gt;Node15</title>
<path fill="none" stroke="midnightblue" d="M624.16,-228.81C646.23,-245.25 690.86,-278.5 717.36,-298.25"/>
<polygon fill="midnightblue" stroke="midnightblue" points="715.49,-301.22 725.6,-304.39 719.67,-295.6 715.49,-301.22"/>
</g>
<!-- Node14 -->
<g id="node14" class="node">
<title>Node14</title>
<g id="a_node14"><a xlink:href="utils_8h.html#a241b2b1d75c68c1eefd36b569901c9f9" target="_top" xlink:title="Ensure that the returned float lies within the interval.">
<polygon fill="none" stroke="black" points="867.5,-114.5 867.5,-133.5 926.5,-133.5 926.5,-114.5 867.5,-114.5"/>
<text text-anchor="middle" x="897" y="-121.5" font-family="Helvetica,sans-Serif" font-size="10.00">ft_clamp</text>
</a>
</g>
</g>
<!-- Node13&#45;&gt;Node14 -->
<g id="edge13" class="edge">
<title>Node13&#45;&gt;Node14</title>
<path fill="none" stroke="midnightblue" d="M796.2,-124C816.4,-124 838.77,-124 857.19,-124"/>
<polygon fill="midnightblue" stroke="midnightblue" points="857.27,-127.5 867.27,-124 857.27,-120.5 857.27,-127.5"/>
</g>
<!-- Node16 -->
<g id="node16" class="node">
<title>Node16</title>
<g id="a_node16"><a xlink:href="scene__shadow_8c.html#a931177e8edb2dd5393cef7a468389a4d" target="_top" xlink:title="Determines whether the shadow ray emitted from the point of intersection is blocked on its way to the...">
<polygon fill="none" stroke="black" points="832,-418.5 832,-437.5 962,-437.5 962,-418.5 832,-418.5"/>
<text text-anchor="middle" x="897" y="-425.5" font-family="Helvetica,sans-Serif" font-size="10.00">ft_shadow_ray_blocked</text>
</a>
</g>
</g>
<!-- Node15&#45;&gt;Node16 -->
<g id="edge15" class="edge">
<title>Node15&#45;&gt;Node16</title>
<path fill="none" stroke="midnightblue" d="M753.49,-323.52C780.18,-343.09 841.42,-387.99 874.26,-412.06"/>
<polygon fill="midnightblue" stroke="midnightblue" points="872.58,-415.17 882.72,-418.26 876.72,-409.53 872.58,-415.17"/>
</g>
<!-- Node15&#45;&gt;Node31 -->
<g id="edge46" class="edge">
<title>Node15&#45;&gt;Node31</title>
<path fill="none" stroke="midnightblue" d="M779.74,-310.97C824.04,-307.48 898.25,-301.39 962,-295 1063.83,-284.8 1182.99,-270.58 1247.06,-262.75"/>
<polygon fill="midnightblue" stroke="midnightblue" points="1247.74,-266.19 1257.24,-261.5 1246.89,-259.24 1247.74,-266.19"/>
</g>
<!-- Node15&#45;&gt;Node33 -->
<g id="edge45" class="edge">
<title>Node15&#45;&gt;Node33</title>
<path fill="none" stroke="midnightblue" d="M767.4,-304.49C776.79,-300.62 787.19,-295.71 796,-290 814.21,-278.2 812.11,-265.69 832,-257 970.71,-196.38 1155.04,-204.38 1242.84,-212.85"/>
<polygon fill="midnightblue" stroke="midnightblue" points="1242.51,-216.33 1252.81,-213.85 1243.21,-209.37 1242.51,-216.33"/>
</g>
<!-- Node35 -->
<g id="node35" class="node">
<title>Node35</title>
<g id="a_node35"><a xlink:href="vec3_8h.html#aa84621bd979d3b12b97908f653faf88e" target="_top" xlink:title="Calculate the absolute value of a vector.">
<polygon fill="none" stroke="black" points="860,-266.5 860,-285.5 934,-285.5 934,-266.5 860,-266.5"/>
<text text-anchor="middle" x="897" y="-273.5" font-family="Helvetica,sans-Serif" font-size="10.00">ft_vec3_abs</text>
</a>
</g>
</g>
<!-- Node15&#45;&gt;Node35 -->
<g id="edge44" class="edge">
<title>Node15&#45;&gt;Node35</title>
<path fill="none" stroke="midnightblue" d="M779.74,-304.41C801.12,-299.19 827.69,-292.69 850.04,-287.23"/>
<polygon fill="midnightblue" stroke="midnightblue" points="851.09,-290.58 859.97,-284.8 849.43,-283.78 851.09,-290.58"/>
</g>
<!-- Node16&#45;&gt;Node17 -->
<g id="edge16" class="edge">
<title>Node16&#45;&gt;Node17</title>
<path fill="none" stroke="midnightblue" d="M962.31,-428C970.79,-428 979.39,-428 987.61,-428"/>
<polygon fill="midnightblue" stroke="midnightblue" points="987.79,-431.5 997.79,-428 987.79,-424.5 987.79,-431.5"/>
</g>
<!-- Node16&#45;&gt;Node24 -->
<g id="edge43" class="edge">
<title>Node16&#45;&gt;Node24</title>
<path fill="none" stroke="midnightblue" d="M907.49,-437.68C936.99,-467.47 1030.32,-559.59 1118,-623 1168.83,-659.76 1183.08,-667.61 1240,-694 1244.41,-696.04 1249.1,-698 1253.8,-699.84"/>
<polygon fill="midnightblue" stroke="midnightblue" points="1252.8,-703.2 1263.39,-703.41 1255.24,-696.64 1252.8,-703.2"/>
</g>
<!-- Node18 -->
<g id="node18" class="node">
<title>Node18</title>
<g id="a_node18"><a xlink:href="hit__manager_8h.html#ad1c0dcb3141fe78ed26368ca7bb8d2b8" target="_top" xlink:title="Calculates if a cylinder was hit by a ray.">
<polygon fill="none" stroke="black" points="1118,-594.5 1118,-613.5 1204,-613.5 1204,-594.5 1118,-594.5"/>
<text text-anchor="middle" x="1161" y="-601.5" font-family="Helvetica,sans-Serif" font-size="10.00">ft_hit_cylinder</text>
</a>
</g>
</g>
<!-- Node17&#45;&gt;Node18 -->
<g id="edge17" class="edge">
<title>Node17&#45;&gt;Node18</title>
<path fill="none" stroke="midnightblue" d="M1047.57,-437.71C1066.7,-466.01 1122.63,-548.73 1147.65,-585.74"/>
<polygon fill="midnightblue" stroke="midnightblue" points="1144.81,-587.78 1153.31,-594.1 1150.6,-583.86 1144.81,-587.78"/>
</g>
<!-- Node25 -->
<g id="node25" class="node">
<title>Node25</title>
<g id="a_node25"><a xlink:href="hit__manager_8h.html#a04f04eb6383f01a28b0c7201ab52782e" target="_top" xlink:title="Calculates if a plane was hit by a ray.">
<polygon fill="none" stroke="black" points="1124,-418.5 1124,-437.5 1198,-437.5 1198,-418.5 1124,-418.5"/>
<text text-anchor="middle" x="1161" y="-425.5" font-family="Helvetica,sans-Serif" font-size="10.00">ft_hit_plane</text>
</a>
</g>
</g>
<!-- Node17&#45;&gt;Node25 -->
<g id="edge24" class="edge">
<title>Node17&#45;&gt;Node25</title>
<path fill="none" stroke="midnightblue" d="M1082.29,-428C1092.46,-428 1103.41,-428 1113.8,-428"/>
<polygon fill="midnightblue" stroke="midnightblue" points="1113.94,-431.5 1123.94,-428 1113.94,-424.5 1113.94,-431.5"/>
</g>
<!-- Node32 -->
<g id="node32" class="node">
<title>Node32</title>
<g id="a_node32"><a xlink:href="hit__manager_8h.html#aee999b32d6cebbb7bcd64995f8e88b6e" target="_top" xlink:title="Calculates if a sphere was hit by a ray.">
<polygon fill="none" stroke="black" points="1121,-380.5 1121,-399.5 1201,-399.5 1201,-380.5 1121,-380.5"/>
<text text-anchor="middle" x="1161" y="-387.5" font-family="Helvetica,sans-Serif" font-size="10.00">ft_hit_sphere</text>
</a>
</g>
</g>
<!-- Node17&#45;&gt;Node32 -->
<g id="edge33" class="edge">
<title>Node17&#45;&gt;Node32</title>
<path fill="none" stroke="midnightblue" d="M1071.03,-418.41C1085.97,-413.64 1104.22,-407.81 1120.3,-402.68"/>
<polygon fill="midnightblue" stroke="midnightblue" points="1121.52,-405.96 1129.98,-399.59 1119.39,-399.29 1121.52,-405.96"/>
</g>
<!-- Node19 -->
<g id="node19" class="node">
<title>Node19</title>
<g id="a_node19"><a xlink:href="hit__cylinder_8c.html#afb7b50ad2f9161c61fc1065975ec7cbf" target="_top" xlink:title="Calculates all four potential hits of a cylinder.">
<polygon fill="none" stroke="black" points="1240,-627.5 1240,-646.5 1349,-646.5 1349,-627.5 1240,-627.5"/>
<text text-anchor="middle" x="1294.5" y="-634.5" font-family="Helvetica,sans-Serif" font-size="10.00">ft_cy_calc_pot_hits</text>
</a>
</g>
</g>
<!-- Node18&#45;&gt;Node19 -->
<g id="edge18" class="edge">
<title>Node18&#45;&gt;Node19</title>
<path fill="none" stroke="midnightblue" d="M1200.04,-613.54C1214.21,-617.1 1230.49,-621.19 1245.45,-624.94"/>
<polygon fill="midnightblue" stroke="midnightblue" points="1245,-628.44 1255.55,-627.48 1246.7,-621.65 1245,-628.44"/>
</g>
<!-- Node20 -->
<g id="node20" class="node">
<title>Node20</title>
<g id="a_node20"><a xlink:href="hit__cylinder_8c.html#a40c47553b6ecb8ff1834e44c4c308e9b" target="_top" xlink:title="Determines if the potential hits are accurate.">
<polygon fill="none" stroke="black" points="1242,-589.5 1242,-608.5 1347,-608.5 1347,-589.5 1242,-589.5"/>
<text text-anchor="middle" x="1294.5" y="-596.5" font-family="Helvetica,sans-Serif" font-size="10.00">ft_cy_identify_hits</text>
</a>
</g>
</g>
<!-- Node18&#45;&gt;Node20 -->
<g id="edge19" class="edge">
<title>Node18&#45;&gt;Node20</title>
<path fill="none" stroke="midnightblue" d="M1204.33,-602.39C1212.95,-602.06 1222.19,-601.71 1231.33,-601.36"/>
<polygon fill="midnightblue" stroke="midnightblue" points="1231.72,-604.85 1241.58,-600.97 1231.45,-597.86 1231.72,-604.85"/>
</g>
<!-- Node21 -->
<g id="node21" class="node">
<title>Node21</title>
<g id="a_node21"><a xlink:href="hit__cylinder_8c.html#a72c52cc4f5c57fc6171137d9eb6c3500" target="_top" xlink:title="Overwrites the hit record &quot;rec&quot; with the new hit data found in the &quot;tmp&quot; hit record.">
<polygon fill="none" stroke="black" points="1240,-665.5 1240,-684.5 1349,-684.5 1349,-665.5 1240,-665.5"/>
<text text-anchor="middle" x="1294.5" y="-672.5" font-family="Helvetica,sans-Serif" font-size="10.00">ft_cy_set_hitrecord</text>
</a>
</g>
</g>
<!-- Node18&#45;&gt;Node21 -->
<g id="edge20" class="edge">
<title>Node18&#45;&gt;Node21</title>
<path fill="none" stroke="midnightblue" d="M1174.38,-613.66C1189.29,-624.96 1215.41,-643.68 1240,-656 1244.08,-658.04 1248.42,-659.97 1252.82,-661.75"/>
<polygon fill="midnightblue" stroke="midnightblue" points="1251.81,-665.11 1262.4,-665.42 1254.31,-658.58 1251.81,-665.11"/>
</g>
<!-- Node22 -->
<g id="node22" class="node">
<title>Node22</title>
<g id="a_node22"><a xlink:href="hit__manager_8h.html#a55af5b9bdf1ed07d3128dd3e15dd3e6b" target="_top" xlink:title="Checks if cylinder is not blocked by another object.">
<polygon fill="none" stroke="black" points="1256,-551.5 1256,-570.5 1333,-570.5 1333,-551.5 1256,-551.5"/>
<text text-anchor="middle" x="1294.5" y="-558.5" font-family="Helvetica,sans-Serif" font-size="10.00">ft_cy_visible</text>
</a>
</g>
</g>
<!-- Node18&#45;&gt;Node22 -->
<g id="edge21" class="edge">
<title>Node18&#45;&gt;Node22</title>
<path fill="none" stroke="midnightblue" d="M1191.18,-594.46C1209.91,-588.33 1234.44,-580.31 1254.79,-573.66"/>
<polygon fill="midnightblue" stroke="midnightblue" points="1255.98,-576.95 1264.4,-570.52 1253.8,-570.3 1255.98,-576.95"/>
</g>
<!-- Node18&#45;&gt;Node24 -->
<g id="edge23" class="edge">
<title>Node18&#45;&gt;Node24</title>
<path fill="none" stroke="midnightblue" d="M1172.02,-613.59C1180.76,-622.1 1193.62,-635.01 1204,-647 1221.22,-666.89 1218.73,-678.52 1240,-694 1242.63,-695.91 1245.47,-697.65 1248.42,-699.22"/>
<polygon fill="midnightblue" stroke="midnightblue" points="1246.98,-702.41 1257.53,-703.46 1249.94,-696.07 1246.98,-702.41"/>
</g>
<!-- Node23 -->
<g id="node23" class="node">
<title>Node23</title>
<g id="a_node23"><a xlink:href="utils_8h.html#add4de5ba94d3f8475d0a1c4ce8abd3aa" target="_top" xlink:title="Determines if value is surrounded by the interval.">
<polygon fill="none" stroke="black" points="1388,-513.5 1388,-532.5 1465,-532.5 1465,-513.5 1388,-513.5"/>
<text text-anchor="middle" x="1426.5" y="-520.5" font-family="Helvetica,sans-Serif" font-size="10.00">ft_surrounds</text>
</a>
</g>
</g>
<!-- Node22&#45;&gt;Node23 -->
<g id="edge22" class="edge">
<title>Node22&#45;&gt;Node23</title>
<path fill="none" stroke="midnightblue" d="M1328.3,-551.41C1344.78,-546.6 1364.94,-540.7 1382.63,-535.53"/>
<polygon fill="midnightblue" stroke="midnightblue" points="1384.09,-538.75 1392.71,-532.59 1382.13,-532.03 1384.09,-538.75"/>
</g>
<!-- Node25&#45;&gt;Node23 -->
<g id="edge29" class="edge">
<title>Node25&#45;&gt;Node23</title>
<path fill="none" stroke="midnightblue" d="M1169.17,-437.56C1181.63,-453.36 1208.93,-484.61 1240,-499 1283.5,-519.14 1338.52,-524.03 1377.3,-524.57"/>
<polygon fill="midnightblue" stroke="midnightblue" points="1377.77,-528.07 1387.79,-524.61 1377.8,-521.07 1377.77,-528.07"/>
</g>
<!-- Node26 -->
<g id="node26" class="node">
<title>Node26</title>
<g id="a_node26"><a xlink:href="ray_8h.html#ac56e9ac7acfb4658469e190c022b0d63" target="_top" xlink:title="Represents a ray.">
<polygon fill="none" stroke="black" points="1257,-361.5 1257,-380.5 1332,-380.5 1332,-361.5 1257,-361.5"/>
<text text-anchor="middle" x="1294.5" y="-368.5" font-family="Helvetica,sans-Serif" font-size="10.00">ft_scale_ray</text>
</a>
</g>
</g>
<!-- Node25&#45;&gt;Node26 -->
<g id="edge25" class="edge">
<title>Node25&#45;&gt;Node26</title>
<path fill="none" stroke="midnightblue" d="M1184.01,-418.46C1205.34,-409.21 1237.92,-395.09 1262,-384.65"/>
<polygon fill="midnightblue" stroke="midnightblue" points="1263.63,-387.76 1271.42,-380.57 1260.85,-381.34 1263.63,-387.76"/>
</g>
<!-- Node28 -->
<g id="node28" class="node">
<title>Node28</title>
<g id="a_node28"><a xlink:href="vec3_8h.html#ac80a1c20941c96a8fafad255dac59092" target="_top" xlink:title="Scale a vector.">
<polygon fill="none" stroke="black" points="1385,-304.5 1385,-323.5 1468,-323.5 1468,-304.5 1385,-304.5"/>
<text text-anchor="middle" x="1426.5" y="-311.5" font-family="Helvetica,sans-Serif" font-size="10.00">ft_vec3_scale</text>
</a>
</g>
</g>
<!-- Node25&#45;&gt;Node28 -->
<g id="edge31" class="edge">
<title>Node25&#45;&gt;Node28</title>
<path fill="none" stroke="midnightblue" d="M1176.25,-437.64C1209.8,-459.03 1295.02,-505.56 1349,-466 1391.86,-434.59 1356.71,-396.97 1385,-352 1390.09,-343.91 1397.32,-336.38 1404.26,-330.2"/>
<polygon fill="midnightblue" stroke="midnightblue" points="1406.72,-332.7 1412.13,-323.6 1402.22,-327.34 1406.72,-332.7"/>
</g>
<!-- Node29 -->
<g id="node29" class="node">
<title>Node29</title>
<g id="a_node29"><a xlink:href="utils_8h.html#a90ba8fcafcfab2af9f361cde331dbb06" target="_top" xlink:title="Solves the given equation.">
<polygon fill="none" stroke="black" points="1267,-323.5 1267,-342.5 1322,-342.5 1322,-323.5 1267,-323.5"/>
<text text-anchor="middle" x="1294.5" y="-330.5" font-family="Helvetica,sans-Serif" font-size="10.00">ft_solve</text>
</a>
</g>
</g>
<!-- Node25&#45;&gt;Node29 -->
<g id="edge28" class="edge">
<title>Node25&#45;&gt;Node29</title>
<path fill="none" stroke="midnightblue" d="M1189.6,-418.31C1194.72,-415.76 1199.77,-412.68 1204,-409 1226.6,-389.33 1216.6,-370.71 1240,-352 1245.1,-347.92 1251.15,-344.68 1257.31,-342.12"/>
<polygon fill="midnightblue" stroke="midnightblue" points="1258.75,-345.32 1266.96,-338.63 1256.37,-338.74 1258.75,-345.32"/>
</g>
<!-- Node30 -->
<g id="node30" class="node">
<title>Node30</title>
<g id="a_node30"><a xlink:href="vec3_8h.html#a89fd02ae4b8b3602bc001664eb5e8f91" target="_top" xlink:title="Calculate the scalar product of two vectors.">
<polygon fill="none" stroke="black" points="1258,-437.5 1258,-456.5 1331,-456.5 1331,-437.5 1258,-437.5"/>
<text text-anchor="middle" x="1294.5" y="-444.5" font-family="Helvetica,sans-Serif" font-size="10.00">ft_vec3_dot</text>
</a>
</g>
</g>
<!-- Node25&#45;&gt;Node30 -->
<g id="edge30" class="edge">
<title>Node25&#45;&gt;Node30</title>
<path fill="none" stroke="midnightblue" d="M1198.28,-433.24C1213.5,-435.44 1231.37,-438.02 1247.49,-440.35"/>
<polygon fill="midnightblue" stroke="midnightblue" points="1247.39,-443.87 1257.79,-441.84 1248.4,-436.95 1247.39,-443.87"/>
</g>
<!-- Node25&#45;&gt;Node31 -->
<g id="edge32" class="edge">
<title>Node25&#45;&gt;Node31</title>
<path fill="none" stroke="midnightblue" d="M1191.09,-418.5C1195.84,-415.98 1200.38,-412.85 1204,-409 1234.91,-376.09 1216.09,-352.3 1240,-314 1249.37,-298.99 1263.07,-284.49 1274.26,-273.87"/>
<polygon fill="midnightblue" stroke="midnightblue" points="1276.88,-276.21 1281.87,-266.87 1272.14,-271.06 1276.88,-276.21"/>
</g>
<!-- Node27 -->
<g id="node27" class="node">
<title>Node27</title>
<g id="a_node27"><a xlink:href="vec3_8h.html#a73e2caf4c2a51ed954b7349c6be2b3c3" target="_top" xlink:title="Add two vectors.">
<polygon fill="none" stroke="black" points="1389,-361.5 1389,-380.5 1464,-380.5 1464,-361.5 1389,-361.5"/>
<text text-anchor="middle" x="1426.5" y="-368.5" font-family="Helvetica,sans-Serif" font-size="10.00">ft_vec3_add</text>
</a>
</g>
</g>
<!-- Node26&#45;&gt;Node27 -->
<g id="edge26" class="edge">
<title>Node26&#45;&gt;Node27</title>
<path fill="none" stroke="midnightblue" d="M1332.06,-371C1346.46,-371 1363.18,-371 1378.46,-371"/>
<polygon fill="midnightblue" stroke="midnightblue" points="1378.77,-374.5 1388.77,-371 1378.77,-367.5 1378.77,-374.5"/>
</g>
<!-- Node26&#45;&gt;Node28 -->
<g id="edge27" class="edge">
<title>Node26&#45;&gt;Node28</title>
<path fill="none" stroke="midnightblue" d="M1324.34,-361.47C1332.4,-358.62 1341.11,-355.35 1349,-352 1365.91,-344.83 1384.37,-335.7 1398.91,-328.19"/>
<polygon fill="midnightblue" stroke="midnightblue" points="1400.61,-331.25 1407.85,-323.52 1397.37,-325.05 1400.61,-331.25"/>
</g>
<!-- Node32&#45;&gt;Node23 -->
<g id="edge36" class="edge">
<title>Node32&#45;&gt;Node23</title>
<path fill="none" stroke="midnightblue" d="M1201.32,-390.36C1241.22,-392.39 1303.44,-400.27 1349,-428 1379.75,-446.71 1403.39,-482.45 1415.81,-504.36"/>
<polygon fill="midnightblue" stroke="midnightblue" points="1412.84,-506.24 1420.71,-513.35 1418.99,-502.89 1412.84,-506.24"/>
</g>
<!-- Node32&#45;&gt;Node26 -->
<g id="edge34" class="edge">
<title>Node32&#45;&gt;Node26</title>
<path fill="none" stroke="midnightblue" d="M1201.1,-384.35C1215.37,-382.29 1231.66,-379.94 1246.54,-377.78"/>
<polygon fill="midnightblue" stroke="midnightblue" points="1247.18,-381.23 1256.58,-376.33 1246.18,-374.3 1247.18,-381.23"/>
</g>
<!-- Node32&#45;&gt;Node28 -->
<g id="edge41" class="edge">
<title>Node32&#45;&gt;Node28</title>
<path fill="none" stroke="midnightblue" d="M1182.89,-380.45C1190.05,-376.58 1197.81,-371.68 1204,-366 1224.72,-347 1215.1,-327.05 1240,-314 1282.91,-291.52 1339.43,-295.45 1378.76,-302.53"/>
<polygon fill="midnightblue" stroke="midnightblue" points="1378.13,-305.97 1388.61,-304.43 1379.46,-299.1 1378.13,-305.97"/>
</g>
<!-- Node32&#45;&gt;Node29 -->
<g id="edge35" class="edge">
<title>Node32&#45;&gt;Node29</title>
<path fill="none" stroke="midnightblue" d="M1180.33,-380.35C1195.97,-372.29 1219.17,-360.74 1240,-352 1245.53,-349.68 1251.46,-347.39 1257.28,-345.24"/>
<polygon fill="midnightblue" stroke="midnightblue" points="1258.65,-348.47 1266.88,-341.79 1256.29,-341.88 1258.65,-348.47"/>
</g>
<!-- Node32&#45;&gt;Node30 -->
<g id="edge37" class="edge">
<title>Node32&#45;&gt;Node30</title>
<path fill="none" stroke="midnightblue" d="M1184.01,-399.54C1205.34,-408.79 1237.92,-422.91 1262,-433.35"/>
<polygon fill="midnightblue" stroke="midnightblue" points="1260.85,-436.66 1271.42,-437.43 1263.63,-430.24 1260.85,-436.66"/>
</g>
<!-- Node32&#45;&gt;Node31 -->
<g id="edge42" class="edge">
<title>Node32&#45;&gt;Node31</title>
<path fill="none" stroke="midnightblue" d="M1184.87,-380.42C1191.7,-376.71 1198.76,-371.9 1204,-366 1231.24,-335.32 1211.3,-310.31 1240,-281 1243.69,-277.23 1248.08,-274.01 1252.73,-271.26"/>
<polygon fill="midnightblue" stroke="midnightblue" points="1254.59,-274.23 1261.88,-266.54 1251.39,-268.01 1254.59,-274.23"/>
</g>
<!-- Node32&#45;&gt;Node33 -->
<g id="edge38" class="edge">
<title>Node32&#45;&gt;Node33</title>
<path fill="none" stroke="midnightblue" d="M1164.3,-380.26C1171.1,-353.58 1193.58,-278.63 1240,-238 1241.95,-236.3 1244.06,-234.74 1246.28,-233.32"/>
<polygon fill="midnightblue" stroke="midnightblue" points="1248.1,-236.32 1255.26,-228.51 1244.8,-230.15 1248.1,-236.32"/>
</g>
<!-- Node33&#45;&gt;Node28 -->
<g id="edge40" class="edge">
<title>Node33&#45;&gt;Node28</title>
<path fill="none" stroke="midnightblue" d="M1329.66,-228.59C1336.32,-231.15 1343.08,-234.27 1349,-238 1374.23,-253.88 1397.67,-279.41 1411.79,-296.44"/>
<polygon fill="midnightblue" stroke="midnightblue" points="1409.27,-298.9 1418.28,-304.48 1414.72,-294.5 1409.27,-298.9"/>
</g>
<!-- Node34 -->
<g id="node34" class="node">
<title>Node34</title>
<g id="a_node34"><a xlink:href="vec3__linalgebra_8c.html#aa84621bd979d3b12b97908f653faf88e" target="_top" xlink:title="Calculate the absolute value of a vector.">
<polygon fill="none" stroke="black" points="1389.5,-209.5 1389.5,-228.5 1463.5,-228.5 1463.5,-209.5 1389.5,-209.5"/>
<text text-anchor="middle" x="1426.5" y="-216.5" font-family="Helvetica,sans-Serif" font-size="10.00">ft_vec3_abs</text>
</a>
</g>
</g>
<!-- Node33&#45;&gt;Node34 -->
<g id="edge39" class="edge">
<title>Node33&#45;&gt;Node34</title>
<path fill="none" stroke="midnightblue" d="M1336.28,-219C1349.81,-219 1364.97,-219 1378.9,-219"/>
<polygon fill="midnightblue" stroke="midnightblue" points="1379.27,-222.5 1389.27,-219 1379.27,-215.5 1379.27,-222.5"/>
</g>
<!-- Node37 -->
<g id="node37" class="node">
<title>Node37</title>
<g id="a_node37"><a xlink:href="render_8h.html#a2c9085ad1ae8adcd3201a501a9a4dcde" target="_top" xlink:title="Constructs a ray and shoots it through the pixel.">
<polygon fill="none" stroke="black" points="293,-244.5 293,-263.5 370,-263.5 370,-244.5 293,-244.5"/>
<text text-anchor="middle" x="331.5" y="-251.5" font-family="Helvetica,sans-Serif" font-size="10.00">ft_shoot_ray</text>
</a>
</g>
</g>
<!-- Node36&#45;&gt;Node37 -->
<g id="edge52" class="edge">
<title>Node36&#45;&gt;Node37</title>
<path fill="none" stroke="midnightblue" d="M245.33,-254C257.64,-254 270.62,-254 282.64,-254"/>
<polygon fill="midnightblue" stroke="midnightblue" points="282.91,-257.5 292.91,-254 282.91,-250.5 282.91,-257.5"/>
</g>
<!-- Node37&#45;&gt;Node7 -->
<g id="edge53" class="edge">
<title>Node37&#45;&gt;Node7</title>
<path fill="none" stroke="midnightblue" d="M370.33,-259.78C381.78,-261.53 394.71,-263.5 407.53,-265.46"/>
<polygon fill="midnightblue" stroke="midnightblue" points="407.33,-268.97 417.74,-267.02 408.38,-262.05 407.33,-268.97"/>
</g>
<!-- Node37&#45;&gt;Node8 -->
<g id="edge54" class="edge">
<title>Node37&#45;&gt;Node8</title>
<path fill="none" stroke="midnightblue" d="M344.98,-263.79C355.16,-271.9 369.8,-283.87 382,-295 410.56,-321.08 441.88,-353.35 460.33,-372.77"/>
<polygon fill="midnightblue" stroke="midnightblue" points="457.99,-375.39 467.4,-380.25 463.08,-370.58 457.99,-375.39"/>
</g>
<!-- Node37&#45;&gt;Node31 -->
<g id="edge56" class="edge">
<title>Node37&#45;&gt;Node31</title>
<path fill="none" stroke="midnightblue" d="M370.37,-254.45C480.17,-255.74 791.17,-259.19 796,-257 818.09,-247 809.91,-226 832,-216 884.63,-192.17 904.33,-212.45 962,-216 1064.26,-222.3 1183.25,-239.43 1247.18,-249.44"/>
<polygon fill="midnightblue" stroke="midnightblue" points="1246.91,-252.94 1257.34,-251.05 1248,-246.03 1246.91,-252.94"/>
</g>
<!-- Node37&#45;&gt;Node33 -->
<g id="edge55" class="edge">
<title>Node37&#45;&gt;Node33</title>
<path fill="none" stroke="midnightblue" d="M338.62,-244.34C365.27,-203.61 475.81,-48 609,-48 609,-48 609,-48 1041,-48 1114.23,-48 1142.95,-31.56 1204,-72 1250.77,-102.98 1277.08,-167.6 1287.78,-199.84"/>
<polygon fill="midnightblue" stroke="midnightblue" points="1284.47,-200.96 1290.82,-209.44 1291.14,-198.85 1284.47,-200.96"/>
</g>
<!-- Node39 -->
<g id="node39" class="node">
<title>Node39</title>
<g id="a_node39"><a xlink:href="threads__bonus_8c.html#adef619e7d6d95dba7464efd3edac7ca0" target="_top" xlink:title="Creates NUM_THREADS threads and calls routine with arg.">
<polygon fill="none" stroke="black" points="281,-38.5 281,-57.5 382,-57.5 382,-38.5 281,-38.5"/>
<text text-anchor="middle" x="331.5" y="-45.5" font-family="Helvetica,sans-Serif" font-size="10.00">ft_create_threads</text>
</a>
</g>
</g>
<!-- Node38&#45;&gt;Node39 -->
<g id="edge58" class="edge">
<title>Node38&#45;&gt;Node39</title>
<path fill="none" stroke="midnightblue" d="M235.52,-48C246.62,-48 258.71,-48 270.42,-48"/>
<polygon fill="midnightblue" stroke="midnightblue" points="270.59,-51.5 280.59,-48 270.59,-44.5 270.59,-51.5"/>
</g>
<!-- Node41 -->
<g id="node41" class="node">
<title>Node41</title>
<g id="a_node41"><a xlink:href="threads__bonus_8c.html#a8e3352c99f6ff37fac8b8c0f33e934ed" target="_top" xlink:title="Joins threads.">
<polygon fill="none" stroke="black" points="287,-0.5 287,-19.5 376,-19.5 376,-0.5 287,-0.5"/>
<text text-anchor="middle" x="331.5" y="-7.5" font-family="Helvetica,sans-Serif" font-size="10.00">ft_join_threads</text>
</a>
</g>
</g>
<!-- Node38&#45;&gt;Node41 -->
<g id="edge60" class="edge">
<title>Node38&#45;&gt;Node41</title>
<path fill="none" stroke="midnightblue" d="M226.2,-38.41C244.21,-33.51 266.33,-27.48 285.56,-22.24"/>
<polygon fill="midnightblue" stroke="midnightblue" points="286.58,-25.59 295.31,-19.59 284.74,-18.84 286.58,-25.59"/>
</g>
<!-- Node40 -->
<g id="node40" class="node">
<title>Node40</title>
<g id="a_node40"><a xlink:href="error__msg_8h.html#aee5d10b82b6780869c9cc69cd64e44cc" target="_top" xlink:title="Print generic error message.">
<polygon fill="none" stroke="black" points="448.5,-0.5 448.5,-19.5 506.5,-19.5 506.5,-0.5 448.5,-0.5"/>
<text text-anchor="middle" x="477.5" y="-7.5" font-family="Helvetica,sans-Serif" font-size="10.00">ft_perror</text>
</a>
</g>
</g>
<!-- Node39&#45;&gt;Node40 -->
<g id="edge59" class="edge">
<title>Node39&#45;&gt;Node40</title>
<path fill="none" stroke="midnightblue" d="M368.84,-38.41C390.13,-32.79 416.98,-25.71 438.55,-20.02"/>
<polygon fill="midnightblue" stroke="midnightblue" points="439.57,-23.36 448.35,-17.43 437.79,-16.6 439.57,-23.36"/>
</g>
<!-- Node41&#45;&gt;Node40 -->
<g id="edge61" class="edge">
<title>Node41&#45;&gt;Node40</title>
<path fill="none" stroke="midnightblue" d="M376.1,-10C395.93,-10 419.19,-10 438.33,-10"/>
<polygon fill="midnightblue" stroke="midnightblue" points="438.49,-13.5 448.49,-10 438.49,-6.5 438.49,-13.5"/>
</g>
</g>
</svg>
