<?xml version="1.0" encoding="UTF-8" standalone="no"?>
<!DOCTYPE svg PUBLIC "-//W3C//DTD SVG 1.1//EN"
 "http://www.w3.org/Graphics/SVG/1.1/DTD/svg11.dtd">
<!-- Generated by graphviz version 2.43.0 (0)
 -->
<!-- Title: ft_keyhook_rot_vec Pages: 1 -->
<svg width="578pt" height="161pt"
 viewBox="0.00 0.00 578.00 161.00" xmlns="http://www.w3.org/2000/svg" xmlns:xlink="http://www.w3.org/1999/xlink">
<g id="graph0" class="graph" transform="scale(1 1) rotate(0) translate(4 157)">
<title>ft_keyhook_rot_vec</title>
<!-- Node1 -->
<g id="node1" class="node">
<title>Node1</title>
<g id="a_node1"><a xlink:title="Rotates a 3D vector with a keypress.">
<polygon fill="#bfbfbf" stroke="black" points="0,-76.5 0,-95.5 111,-95.5 111,-76.5 0,-76.5"/>
<text text-anchor="middle" x="55.5" y="-83.5" font-family="Helvetica,sans-Serif" font-size="10.00">ft_keyhook_rot_vec</text>
</a>
</g>
</g>
<!-- Node2 -->
<g id="node2" class="node">
<title>Node2</title>
<g id="a_node2"><a xlink:href="mat4__vec3_8h.html#a211f9d6535bb54bea2299ee5ea8a54a0" target="_top" xlink:title="Rotates a 3D vector around the x&#45;axis.">
<polygon fill="none" stroke="black" points="147,-95.5 147,-114.5 245,-114.5 245,-95.5 147,-95.5"/>
<text text-anchor="middle" x="196" y="-102.5" font-family="Helvetica,sans-Serif" font-size="10.00">ft_vec3_rotate_x</text>
</a>
</g>
</g>
<!-- Node1&#45;&gt;Node2 -->
<g id="edge1" class="edge">
<title>Node1&#45;&gt;Node2</title>
<path fill="none" stroke="midnightblue" d="M111.24,-93.51C119.62,-94.66 128.31,-95.85 136.77,-97.01"/>
<polygon fill="midnightblue" stroke="midnightblue" points="136.55,-100.51 146.94,-98.41 137.5,-93.58 136.55,-100.51"/>
</g>
<!-- Node10 -->
<g id="node10" class="node">
<title>Node10</title>
<g id="a_node10"><a xlink:href="mat4__vec3_8h.html#ac8a4ca6fb927e3746e7129f8eb04aa46" target="_top" xlink:title="Rotates a 3D vector around the y&#45;axis.">
<polygon fill="none" stroke="black" points="147,-57.5 147,-76.5 245,-76.5 245,-57.5 147,-57.5"/>
<text text-anchor="middle" x="196" y="-64.5" font-family="Helvetica,sans-Serif" font-size="10.00">ft_vec3_rotate_y</text>
</a>
</g>
</g>
<!-- Node1&#45;&gt;Node10 -->
<g id="edge9" class="edge">
<title>Node1&#45;&gt;Node10</title>
<path fill="none" stroke="midnightblue" d="M111.24,-78.49C119.62,-77.34 128.31,-76.15 136.77,-74.99"/>
<polygon fill="midnightblue" stroke="midnightblue" points="137.5,-78.42 146.94,-73.59 136.55,-71.49 137.5,-78.42"/>
</g>
<!-- Node3 -->
<g id="node3" class="node">
<title>Node3</title>
<g id="a_node3"><a xlink:href="mat4_8h.html#a96153e828811e816c64e7d0e19fcf654" target="_top" xlink:title="Creates a 4x4 transformation matrix for x&#45;axis rotation.">
<polygon fill="none" stroke="black" points="281,-133.5 281,-152.5 417,-152.5 417,-133.5 281,-133.5"/>
<text text-anchor="middle" x="349" y="-140.5" font-family="Helvetica,sans-Serif" font-size="10.00">ft_mat4_create_rotate_x</text>
</a>
</g>
</g>
<!-- Node2&#45;&gt;Node3 -->
<g id="edge2" class="edge">
<title>Node2&#45;&gt;Node3</title>
<path fill="none" stroke="midnightblue" d="M235.1,-114.59C254.94,-119.58 279.38,-125.73 300.45,-131.03"/>
<polygon fill="midnightblue" stroke="midnightblue" points="299.62,-134.43 310.17,-133.48 301.33,-127.65 299.62,-134.43"/>
</g>
<!-- Node6 -->
<g id="node6" class="node">
<title>Node6</title>
<g id="a_node6"><a xlink:href="mat4__vec3__rotate_8c.html#a53ea797ed37dea591e9e86121a849aca" target="_top" xlink:title="Multiplies a 4x4 matrix with a 3D vector.">
<polygon fill="none" stroke="black" points="294,-95.5 294,-114.5 404,-114.5 404,-95.5 294,-95.5"/>
<text text-anchor="middle" x="349" y="-102.5" font-family="Helvetica,sans-Serif" font-size="10.00">ft_vec3_mult_mat4</text>
</a>
</g>
</g>
<!-- Node2&#45;&gt;Node6 -->
<g id="edge5" class="edge">
<title>Node2&#45;&gt;Node6</title>
<path fill="none" stroke="midnightblue" d="M245.19,-105C257.45,-105 270.82,-105 283.74,-105"/>
<polygon fill="midnightblue" stroke="midnightblue" points="283.98,-108.5 293.98,-105 283.98,-101.5 283.98,-108.5"/>
</g>
<!-- Node7 -->
<g id="node7" class="node">
<title>Node7</title>
<g id="a_node7"><a xlink:href="vec3_8h.html#a38fe500bd27847b866b9630146e43250" target="_top" xlink:title="Normalise a vector.">
<polygon fill="none" stroke="black" points="307.5,-19.5 307.5,-38.5 390.5,-38.5 390.5,-19.5 307.5,-19.5"/>
<text text-anchor="middle" x="349" y="-26.5" font-family="Helvetica,sans-Serif" font-size="10.00">ft_vec3_norm</text>
</a>
</g>
</g>
<!-- Node2&#45;&gt;Node7 -->
<g id="edge6" class="edge">
<title>Node2&#45;&gt;Node7</title>
<path fill="none" stroke="midnightblue" d="M226.96,-95.48C233.18,-92.87 239.51,-89.72 245,-86 264.27,-72.97 261.1,-60.05 281,-48 286.1,-44.91 291.73,-42.31 297.48,-40.12"/>
<polygon fill="midnightblue" stroke="midnightblue" points="298.88,-43.34 307.22,-36.81 296.62,-36.71 298.88,-43.34"/>
</g>
<!-- Node4 -->
<g id="node4" class="node">
<title>Node4</title>
<g id="a_node4"><a xlink:href="utils_8h.html#a7d1328722f9dc6edd652f7c732856ae9" target="_top" xlink:title="Transforms degrees into radian.">
<polygon fill="none" stroke="black" points="455,-81.5 455,-100.5 568,-100.5 568,-81.5 455,-81.5"/>
<text text-anchor="middle" x="511.5" y="-88.5" font-family="Helvetica,sans-Serif" font-size="10.00">ft_degree_to_radian</text>
</a>
</g>
</g>
<!-- Node3&#45;&gt;Node4 -->
<g id="edge3" class="edge">
<title>Node3&#45;&gt;Node4</title>
<path fill="none" stroke="midnightblue" d="M385.24,-133.45C395.52,-130.55 406.75,-127.26 417,-124 436.34,-117.85 457.69,-110.37 475.1,-104.09"/>
<polygon fill="midnightblue" stroke="midnightblue" points="476.65,-107.25 484.85,-100.54 474.26,-100.67 476.65,-107.25"/>
</g>
<!-- Node5 -->
<g id="node5" class="node">
<title>Node5</title>
<g id="a_node5"><a xlink:href="mat4_8h.html#ad20d2d0fd3d7862225345a79b062f03a" target="_top" xlink:title="Returns a 4x4 identity matrix.">
<polygon fill="none" stroke="black" points="453,-128.5 453,-147.5 570,-147.5 570,-128.5 453,-128.5"/>
<text text-anchor="middle" x="511.5" y="-135.5" font-family="Helvetica,sans-Serif" font-size="10.00">ft_mat4_set_identity</text>
</a>
</g>
</g>
<!-- Node3&#45;&gt;Node5 -->
<g id="edge4" class="edge">
<title>Node3&#45;&gt;Node5</title>
<path fill="none" stroke="midnightblue" d="M417.14,-140.91C425.56,-140.65 434.19,-140.38 442.63,-140.11"/>
<polygon fill="midnightblue" stroke="midnightblue" points="442.92,-143.61 452.8,-139.8 442.7,-136.61 442.92,-143.61"/>
</g>
<!-- Node8 -->
<g id="node8" class="node">
<title>Node8</title>
<g id="a_node8"><a xlink:href="vec3__linalgebra_8c.html#aa84621bd979d3b12b97908f653faf88e" target="_top" xlink:title="Calculate the absolute value of a vector.">
<polygon fill="none" stroke="black" points="474.5,-38.5 474.5,-57.5 548.5,-57.5 548.5,-38.5 474.5,-38.5"/>
<text text-anchor="middle" x="511.5" y="-45.5" font-family="Helvetica,sans-Serif" font-size="10.00">ft_vec3_abs</text>
</a>
</g>
</g>
<!-- Node7&#45;&gt;Node8 -->
<g id="edge7" class="edge">
<title>Node7&#45;&gt;Node8</title>
<path fill="none" stroke="midnightblue" d="M390.5,-33.79C412.99,-36.46 441.05,-39.78 464.38,-42.54"/>
<polygon fill="midnightblue" stroke="midnightblue" points="464.05,-46.03 474.39,-43.73 464.87,-39.07 464.05,-46.03"/>
</g>
<!-- Node9 -->
<g id="node9" class="node">
<title>Node9</title>
<g id="a_node9"><a xlink:href="vec3_8h.html#ac80a1c20941c96a8fafad255dac59092" target="_top" xlink:title="Scale a vector.">
<polygon fill="none" stroke="black" points="470,-0.5 470,-19.5 553,-19.5 553,-0.5 470,-0.5"/>
<text text-anchor="middle" x="511.5" y="-7.5" font-family="Helvetica,sans-Serif" font-size="10.00">ft_vec3_scale</text>
</a>
</g>
</g>
<!-- Node7&#45;&gt;Node9 -->
<g id="edge8" class="edge">
<title>Node7&#45;&gt;Node9</title>
<path fill="none" stroke="midnightblue" d="M390.5,-24.21C411.52,-21.72 437.41,-18.65 459.75,-16.01"/>
<polygon fill="midnightblue" stroke="midnightblue" points="460.21,-19.48 469.73,-14.83 459.39,-12.53 460.21,-19.48"/>
</g>
<!-- Node10&#45;&gt;Node6 -->
<g id="edge13" class="edge">
<title>Node10&#45;&gt;Node6</title>
<path fill="none" stroke="midnightblue" d="M235.1,-76.59C254.94,-81.58 279.38,-87.73 300.45,-93.03"/>
<polygon fill="midnightblue" stroke="midnightblue" points="299.62,-96.43 310.17,-95.48 301.33,-89.65 299.62,-96.43"/>
</g>
<!-- Node10&#45;&gt;Node7 -->
<g id="edge14" class="edge">
<title>Node10&#45;&gt;Node7</title>
<path fill="none" stroke="midnightblue" d="M235.1,-57.41C254.94,-52.42 279.38,-46.27 300.45,-40.97"/>
<polygon fill="midnightblue" stroke="midnightblue" points="301.33,-44.35 310.17,-38.52 299.62,-37.57 301.33,-44.35"/>
</g>
<!-- Node11 -->
<g id="node11" class="node">
<title>Node11</title>
<g id="a_node11"><a xlink:href="mat4_8h.html#a3f33a47cb6e2a560791c9be852f27b35" target="_top" xlink:title="Creates a 4x4 transformation matrix for y&#45;axis rotation.">
<polygon fill="none" stroke="black" points="281,-57.5 281,-76.5 417,-76.5 417,-57.5 281,-57.5"/>
<text text-anchor="middle" x="349" y="-64.5" font-family="Helvetica,sans-Serif" font-size="10.00">ft_mat4_create_rotate_y</text>
</a>
</g>
</g>
<!-- Node10&#45;&gt;Node11 -->
<g id="edge10" class="edge">
<title>Node10&#45;&gt;Node11</title>
<path fill="none" stroke="midnightblue" d="M245.19,-67C253.38,-67 262.07,-67 270.78,-67"/>
<polygon fill="midnightblue" stroke="midnightblue" points="271,-70.5 281,-67 271,-63.5 271,-70.5"/>
</g>
<!-- Node11&#45;&gt;Node4 -->
<g id="edge11" class="edge">
<title>Node11&#45;&gt;Node4</title>
<path fill="none" stroke="midnightblue" d="M413.9,-76.55C424.06,-78.07 434.59,-79.65 444.79,-81.17"/>
<polygon fill="midnightblue" stroke="midnightblue" points="444.45,-84.66 454.86,-82.68 445.49,-77.74 444.45,-84.66"/>
</g>
<!-- Node11&#45;&gt;Node5 -->
<g id="edge12" class="edge">
<title>Node11&#45;&gt;Node5</title>
<path fill="none" stroke="midnightblue" d="M391.48,-76.58C400.09,-79.17 408.99,-82.3 417,-86 434.46,-94.05 436.32,-100.44 453,-110 461.56,-114.91 471.1,-119.78 479.92,-124.05"/>
<polygon fill="midnightblue" stroke="midnightblue" points="478.58,-127.29 489.12,-128.43 481.59,-120.97 478.58,-127.29"/>
</g>
</g>
</svg>
