<?xml version="1.0" encoding="UTF-8" standalone="no"?>
<!DOCTYPE svg PUBLIC "-//W3C//DTD SVG 1.1//EN"
 "http://www.w3.org/Graphics/SVG/1.1/DTD/svg11.dtd">
<!-- Generated by graphviz version 2.43.0 (0)
 -->
<!-- Title: ft_manip_cone Pages: 1 -->
<!--zoomable 218 -->
<svg id="main" version="1.1" xmlns="http://www.w3.org/2000/svg" xmlns:xlink="http://www.w3.org/1999/xlink" xml:space="preserve" onload="init(evt)">
<style type="text/css"><![CDATA[
.edge:hover path { stroke: red; }
.edge:hover polygon { stroke: red; fill: red; }
]]></style>
<script type="text/javascript"><![CDATA[
var edges = document.getElementsByTagName('g');
if (edges && edges.length) {
  for (var i=0;i<edges.length;i++) {
    if (edges[i].id.substr(0,4)=='edge') {
      edges[i].setAttribute('class','edge');
    }
  }
}
]]></script>
        <defs>
                <circle id="rim" cx="0" cy="0" r="7"/>
                <circle id="rim2" cx="0" cy="0" r="3.5"/>
                <g id="zoomPlus">
                        <use xlink:href="#rim" fill="#404040">
                                <set attributeName="fill" to="#808080" begin="zoomplus.mouseover" end="zoomplus.mouseout"/>
                        </use>
                        <path d="M-4,0h8M0,-4v8" fill="none" stroke="white" stroke-width="1.5" pointer-events="none"/>
                </g>
                <g id="zoomMin">
                        <use xlink:href="#rim" fill="#404040">
                                <set attributeName="fill" to="#808080" begin="zoomminus.mouseover" end="zoomminus.mouseout"/>
                        </use>
                        <path d="M-4,0h8" fill="none" stroke="white" stroke-width="1.5" pointer-events="none"/>
                </g>
                <g id="dirArrow">
                        <path fill="none" stroke="white" stroke-width="1.5" d="M0,-3.0v7 M-2.5,-0.5L0,-3.0L2.5,-0.5"/>
                </g>
               <g id="resetDef">
                       <use xlink:href="#rim2" fill="#404040">
                               <set attributeName="fill" to="#808080" begin="reset.mouseover" end="reset.mouseout"/>
                       </use>
               </g>
        </defs>

<script type="text/javascript">
var viewWidth = 710;
var viewHeight = 218;
var sectionId = 'dynsection-20';
</script>
<script xlink:href="svgpan.js"/>
<svg id="graph" class="graph">
<g id="viewport">
<title>ft_manip_cone</title>
<!-- Node1 -->
<g id="node1" class="node">
<title>Node1</title>
<g id="a_node1"><a xlink:title="Manipulates the active cone.">
<polygon fill="#bfbfbf" stroke="black" points="0,-95.5 0,-114.5 88,-114.5 88,-95.5 0,-95.5"/>
<text text-anchor="middle" x="44" y="-102.5" font-family="Helvetica,sans-Serif" font-size="10.00">ft_manip_cone</text>
</a>
</g>
</g>
<!-- Node2 -->
<g id="node2" class="node">
<title>Node2</title>
<g id="a_node2"><a xlink:href="render_8h.html#a7f7526c1b74ae22e7d9f477e20a9890f" target="_top" xlink:title="Changes the colour with a keypress.">
<polygon fill="none" stroke="black" points="124,-190.5 124,-209.5 254,-209.5 254,-190.5 124,-190.5"/>
<text text-anchor="middle" x="189" y="-197.5" font-family="Helvetica,sans-Serif" font-size="10.00">ft_keyhook_change_col</text>
</a>
</g>
</g>
<!-- Node1&#45;&gt;Node2 -->
<g id="edge1" class="edge">
<title>Node1&#45;&gt;Node2</title>
<path fill="none" stroke="midnightblue" d="M52.42,-114.68C65.27,-130.79 93.25,-163.09 124,-181 127.72,-183.17 131.7,-185.1 135.8,-186.83"/>
<polygon fill="midnightblue" stroke="midnightblue" points="134.9,-190.23 145.49,-190.5 137.38,-183.69 134.9,-190.23"/>
</g>
<!-- Node6 -->
<g id="node6" class="node">
<title>Node6</title>
<g id="a_node6"><a xlink:href="render_8h.html#a7b262237fcbe352cb4ef79235666956b" target="_top" xlink:title="Increases or decreases a value with a keypress.">
<polygon fill="none" stroke="black" points="133,-152.5 133,-171.5 245,-171.5 245,-152.5 133,-152.5"/>
<text text-anchor="middle" x="189" y="-159.5" font-family="Helvetica,sans-Serif" font-size="10.00">ft_keyhook_inc_dec</text>
</a>
</g>
</g>
<!-- Node1&#45;&gt;Node6 -->
<g id="edge6" class="edge">
<title>Node1&#45;&gt;Node6</title>
<path fill="none" stroke="midnightblue" d="M62.84,-114.59C78.61,-122.83 102.42,-134.67 124,-143 129.89,-145.27 136.17,-147.44 142.41,-149.44"/>
<polygon fill="midnightblue" stroke="midnightblue" points="141.53,-152.83 152.12,-152.44 143.6,-146.15 141.53,-152.83"/>
</g>
<!-- Node7 -->
<g id="node7" class="node">
<title>Node7</title>
<g id="a_node7"><a xlink:href="render_8h.html#aa620096ce57b0280c8e9162eff12a938" target="_top" xlink:title="Moves a 3D point with a keypress.">
<polygon fill="none" stroke="black" points="128.5,-114.5 128.5,-133.5 249.5,-133.5 249.5,-114.5 128.5,-114.5"/>
<text text-anchor="middle" x="189" y="-121.5" font-family="Helvetica,sans-Serif" font-size="10.00">ft_keyhook_mv_point</text>
</a>
</g>
</g>
<!-- Node1&#45;&gt;Node7 -->
<g id="edge7" class="edge">
<title>Node1&#45;&gt;Node7</title>
<path fill="none" stroke="midnightblue" d="M88.29,-110.75C97.79,-112.01 108.07,-113.38 118.31,-114.74"/>
<polygon fill="midnightblue" stroke="midnightblue" points="118.12,-118.25 128.5,-116.09 119.04,-111.31 118.12,-118.25"/>
</g>
<!-- Node8 -->
<g id="node8" class="node">
<title>Node8</title>
<g id="a_node8"><a xlink:href="render_8h.html#a19285d1e97e1ac6d6d0708ecceb354ed" target="_top" xlink:title="Rotates a 3D vector with a keypress.">
<polygon fill="none" stroke="black" points="133.5,-76.5 133.5,-95.5 244.5,-95.5 244.5,-76.5 133.5,-76.5"/>
<text text-anchor="middle" x="189" y="-83.5" font-family="Helvetica,sans-Serif" font-size="10.00">ft_keyhook_rot_vec</text>
</a>
</g>
</g>
<!-- Node1&#45;&gt;Node8 -->
<g id="edge8" class="edge">
<title>Node1&#45;&gt;Node8</title>
<path fill="none" stroke="midnightblue" d="M88.29,-99.25C99.4,-97.77 111.6,-96.15 123.53,-94.57"/>
<polygon fill="midnightblue" stroke="midnightblue" points="124,-98.03 133.45,-93.25 123.08,-91.1 124,-98.03"/>
</g>
<!-- Node13 -->
<g id="node13" class="node">
<title>Node13</title>
<g id="a_node13"><a xlink:href="vec3_8h.html#ac80a1c20941c96a8fafad255dac59092" target="_top" xlink:title="Scale a vector.">
<polygon fill="none" stroke="black" points="606,-57.5 606,-76.5 689,-76.5 689,-57.5 606,-57.5"/>
<text text-anchor="middle" x="647.5" y="-64.5" font-family="Helvetica,sans-Serif" font-size="10.00">ft_vec3_scale</text>
</a>
</g>
</g>
<!-- Node1&#45;&gt;Node13 -->
<g id="edge18" class="edge">
<title>Node1&#45;&gt;Node13</title>
<path fill="none" stroke="midnightblue" d="M59.69,-95.44C75.02,-86.07 100.11,-72.45 124,-67 293.21,-28.42 501.35,-47.51 595.71,-59.61"/>
<polygon fill="midnightblue" stroke="midnightblue" points="595.46,-63.11 605.83,-60.94 596.37,-56.17 595.46,-63.11"/>
</g>
<!-- Node15 -->
<g id="node15" class="node">
<title>Node15</title>
<g id="a_node15"><a xlink:href="vec3_8h.html#a73e2caf4c2a51ed954b7349c6be2b3c3" target="_top" xlink:title="Add two vectors.">
<polygon fill="none" stroke="black" points="151.5,-0.5 151.5,-19.5 226.5,-19.5 226.5,-0.5 151.5,-0.5"/>
<text text-anchor="middle" x="189" y="-7.5" font-family="Helvetica,sans-Serif" font-size="10.00">ft_vec3_add</text>
</a>
</g>
</g>
<!-- Node1&#45;&gt;Node15 -->
<g id="edge17" class="edge">
<title>Node1&#45;&gt;Node15</title>
<path fill="none" stroke="midnightblue" d="M53.35,-95.49C66.87,-80.58 94.99,-51.6 124,-34 130.78,-29.89 138.37,-26.29 145.9,-23.21"/>
<polygon fill="midnightblue" stroke="midnightblue" points="147.25,-26.44 155.33,-19.6 144.74,-19.91 147.25,-26.44"/>
</g>
<!-- Node3 -->
<g id="node3" class="node">
<title>Node3</title>
<g id="a_node3"><a xlink:href="render__keyhook__colour_8c.html#a5d187c5314483276ba15560dcf620e39" target="_top" xlink:title="Returns a colour based on the given colour name.">
<polygon fill="none" stroke="black" points="607.5,-171.5 607.5,-190.5 687.5,-190.5 687.5,-171.5 607.5,-171.5"/>
<text text-anchor="middle" x="647.5" y="-178.5" font-family="Helvetica,sans-Serif" font-size="10.00">ft_get_colour</text>
</a>
</g>
</g>
<!-- Node2&#45;&gt;Node3 -->
<g id="edge2" class="edge">
<title>Node2&#45;&gt;Node3</title>
<path fill="none" stroke="midnightblue" d="M254.04,-199.67C327.33,-198.96 450.93,-196.77 557,-190 570.04,-189.17 584.11,-187.92 597.15,-186.61"/>
<polygon fill="midnightblue" stroke="midnightblue" points="597.75,-190.07 607.34,-185.56 597.04,-183.11 597.75,-190.07"/>
</g>
<!-- Node4 -->
<g id="node4" class="node">
<title>Node4</title>
<g id="a_node4"><a xlink:href="render__keyhook__colour_8c.html#a02dd1323bf99ad166e22cf0dcbef39f2" target="_top" xlink:title="Interpolates between two colours while keeping track of progress.">
<polygon fill="none" stroke="black" points="290,-161.5 290,-180.5 404,-180.5 404,-161.5 290,-161.5"/>
<text text-anchor="middle" x="347" y="-168.5" font-family="Helvetica,sans-Serif" font-size="10.00">ft_static_interpolate</text>
</a>
</g>
</g>
<!-- Node2&#45;&gt;Node4 -->
<g id="edge3" class="edge">
<title>Node2&#45;&gt;Node4</title>
<path fill="none" stroke="midnightblue" d="M241.51,-190.42C255.3,-187.86 270.33,-185.07 284.59,-182.42"/>
<polygon fill="midnightblue" stroke="midnightblue" points="285.62,-185.79 294.81,-180.52 284.34,-178.9 285.62,-185.79"/>
</g>
<!-- Node5 -->
<g id="node5" class="node">
<title>Node5</title>
<g id="a_node5"><a xlink:href="render__keyhook__colour_8c.html#a41e18bc0bce27f7169b29f79e5de0423" target="_top" xlink:title="Interpolates between two colours.">
<polygon fill="none" stroke="black" points="440,-161.5 440,-180.5 557,-180.5 557,-161.5 440,-161.5"/>
<text text-anchor="middle" x="498.5" y="-168.5" font-family="Helvetica,sans-Serif" font-size="10.00">ft_interpolate_colour</text>
</a>
</g>
</g>
<!-- Node4&#45;&gt;Node5 -->
<g id="edge4" class="edge">
<title>Node4&#45;&gt;Node5</title>
<path fill="none" stroke="midnightblue" d="M404.09,-171C412.34,-171 420.91,-171 429.37,-171"/>
<polygon fill="midnightblue" stroke="midnightblue" points="429.6,-174.5 439.6,-171 429.6,-167.5 429.6,-174.5"/>
</g>
<!-- Node5&#45;&gt;Node3 -->
<g id="edge5" class="edge">
<title>Node5&#45;&gt;Node3</title>
<path fill="none" stroke="midnightblue" d="M557.18,-174.92C570.38,-175.82 584.29,-176.77 597.11,-177.64"/>
<polygon fill="midnightblue" stroke="midnightblue" points="596.9,-181.13 607.12,-178.32 597.38,-174.15 596.9,-181.13"/>
</g>
<!-- Node9 -->
<g id="node9" class="node">
<title>Node9</title>
<g id="a_node9"><a xlink:href="utils_8h.html#a211f9d6535bb54bea2299ee5ea8a54a0" target="_top" xlink:title="Rotates a 3D vector around the x&#45;axis.">
<polygon fill="none" stroke="black" points="298,-114.5 298,-133.5 396,-133.5 396,-114.5 298,-114.5"/>
<text text-anchor="middle" x="347" y="-121.5" font-family="Helvetica,sans-Serif" font-size="10.00">ft_vec3_rotate_x</text>
</a>
</g>
</g>
<!-- Node8&#45;&gt;Node9 -->
<g id="edge9" class="edge">
<title>Node8&#45;&gt;Node9</title>
<path fill="none" stroke="midnightblue" d="M229.37,-95.59C249.95,-100.6 275.34,-106.79 297.17,-112.11"/>
<polygon fill="midnightblue" stroke="midnightblue" points="296.37,-115.51 306.92,-114.48 298.03,-108.71 296.37,-115.51"/>
</g>
<!-- Node14 -->
<g id="node14" class="node">
<title>Node14</title>
<g id="a_node14"><a xlink:href="utils_8h.html#ac8a4ca6fb927e3746e7129f8eb04aa46" target="_top" xlink:title="Rotates a 3D vector around the y&#45;axis.">
<polygon fill="none" stroke="black" points="298,-76.5 298,-95.5 396,-95.5 396,-76.5 298,-76.5"/>
<text text-anchor="middle" x="347" y="-83.5" font-family="Helvetica,sans-Serif" font-size="10.00">ft_vec3_rotate_y</text>
</a>
</g>
</g>
<!-- Node8&#45;&gt;Node14 -->
<g id="edge14" class="edge">
<title>Node8&#45;&gt;Node14</title>
<path fill="none" stroke="midnightblue" d="M244.56,-86C258.56,-86 273.67,-86 287.84,-86"/>
<polygon fill="midnightblue" stroke="midnightblue" points="287.97,-89.5 297.97,-86 287.97,-82.5 287.97,-89.5"/>
</g>
<!-- Node10 -->
<g id="node10" class="node">
<title>Node10</title>
<g id="a_node10"><a xlink:href="utils_8h.html#a7d1328722f9dc6edd652f7c732856ae9" target="_top" xlink:title="Transforms degrees into radian.">
<polygon fill="none" stroke="black" points="442,-76.5 442,-95.5 555,-95.5 555,-76.5 442,-76.5"/>
<text text-anchor="middle" x="498.5" y="-83.5" font-family="Helvetica,sans-Serif" font-size="10.00">ft_degree_to_radian</text>
</a>
</g>
</g>
<!-- Node9&#45;&gt;Node10 -->
<g id="edge10" class="edge">
<title>Node9&#45;&gt;Node10</title>
<path fill="none" stroke="midnightblue" d="M385.73,-114.41C405.28,-109.44 429.35,-103.32 450.14,-98.04"/>
<polygon fill="midnightblue" stroke="midnightblue" points="451.22,-101.38 460.05,-95.52 449.49,-94.59 451.22,-101.38"/>
</g>
<!-- Node11 -->
<g id="node11" class="node">
<title>Node11</title>
<g id="a_node11"><a xlink:href="utils__quaternion_8c.html#a4b67c731c02a7ba35f27473295bfb753" target="_top" xlink:title="Performs a rotation of a given vector around an axis by a given angle.">
<polygon fill="none" stroke="black" points="448.5,-114.5 448.5,-133.5 548.5,-133.5 548.5,-114.5 448.5,-114.5"/>
<text text-anchor="middle" x="498.5" y="-121.5" font-family="Helvetica,sans-Serif" font-size="10.00">ft_quaternion_rot</text>
</a>
</g>
</g>
<!-- Node9&#45;&gt;Node11 -->
<g id="edge11" class="edge">
<title>Node9&#45;&gt;Node11</title>
<path fill="none" stroke="midnightblue" d="M396.13,-124C409.59,-124 424.38,-124 438.4,-124"/>
<polygon fill="midnightblue" stroke="midnightblue" points="438.44,-127.5 448.44,-124 438.44,-120.5 438.44,-127.5"/>
</g>
<!-- Node12 -->
<g id="node12" class="node">
<title>Node12</title>
<g id="a_node12"><a xlink:href="utils__quaternion_8c.html#a15b6fa9c749e827cd1d52bf1c8e0a8f3" target="_top" xlink:title="Performs quaternion multiplication.">
<polygon fill="none" stroke="black" points="593,-114.5 593,-133.5 702,-133.5 702,-114.5 593,-114.5"/>
<text text-anchor="middle" x="647.5" y="-121.5" font-family="Helvetica,sans-Serif" font-size="10.00">ft_quaternion_mult</text>
</a>
</g>
</g>
<!-- Node11&#45;&gt;Node12 -->
<g id="edge12" class="edge">
<title>Node11&#45;&gt;Node12</title>
<path fill="none" stroke="midnightblue" d="M548.86,-124C559.71,-124 571.36,-124 582.69,-124"/>
<polygon fill="midnightblue" stroke="midnightblue" points="582.98,-127.5 592.98,-124 582.98,-120.5 582.98,-127.5"/>
</g>
<!-- Node11&#45;&gt;Node13 -->
<g id="edge13" class="edge">
<title>Node11&#45;&gt;Node13</title>
<path fill="none" stroke="midnightblue" d="M530.1,-114.41C538.84,-111.53 548.34,-108.26 557,-105 576.81,-97.54 598.68,-88.27 615.85,-80.75"/>
<polygon fill="midnightblue" stroke="midnightblue" points="617.62,-83.8 625.36,-76.56 614.8,-77.39 617.62,-83.8"/>
</g>
<!-- Node14&#45;&gt;Node10 -->
<g id="edge15" class="edge">
<title>Node14&#45;&gt;Node10</title>
<path fill="none" stroke="midnightblue" d="M396.13,-86C407.53,-86 419.88,-86 431.92,-86"/>
<polygon fill="midnightblue" stroke="midnightblue" points="431.92,-89.5 441.92,-86 431.92,-82.5 431.92,-89.5"/>
</g>
<!-- Node14&#45;&gt;Node11 -->
<g id="edge16" class="edge">
<title>Node14&#45;&gt;Node11</title>
<path fill="none" stroke="midnightblue" d="M385.73,-95.59C405.28,-100.56 429.35,-106.68 450.14,-111.96"/>
<polygon fill="midnightblue" stroke="midnightblue" points="449.49,-115.41 460.05,-114.48 451.22,-108.62 449.49,-115.41"/>
</g>
</g>
</svg>
        <g id="navigator" transform="translate(0 0)" fill="#404254">
                <rect fill="#f2f5e9" fill-opacity="0.5" stroke="#606060" stroke-width=".5" x="0" y="0" width="60" height="60"/>
                <use id="zoomplus" xlink:href="#zoomPlus" x="17" y="9" onmousedown="handleZoom(evt,'in')"/>
                <use id="zoomminus" xlink:href="#zoomMin" x="42" y="9" onmousedown="handleZoom(evt,'out')"/>
                <use id="reset" xlink:href="#resetDef" x="30" y="36" onmousedown="handleReset()"/>
                <g id="arrowUp" xlink:href="#dirArrow" transform="translate(30 24)" onmousedown="handlePan(0,-1)">
                  <use xlink:href="#rim" fill="#404040">
                        <set attributeName="fill" to="#808080" begin="arrowUp.mouseover" end="arrowUp.mouseout"/>
                  </use>
                  <path fill="none" stroke="white" stroke-width="1.5" d="M0,-3.0v7 M-2.5,-0.5L0,-3.0L2.5,-0.5"/>
                </g>
                <g id="arrowRight" xlink:href="#dirArrow" transform="rotate(90) translate(36 -43)" onmousedown="handlePan(1,0)">
                  <use xlink:href="#rim" fill="#404040">
                        <set attributeName="fill" to="#808080" begin="arrowRight.mouseover" end="arrowRight.mouseout"/>
                  </use>
                  <path fill="none" stroke="white" stroke-width="1.5" d="M0,-3.0v7 M-2.5,-0.5L0,-3.0L2.5,-0.5"/>
                </g>
                <g id="arrowDown" xlink:href="#dirArrow" transform="rotate(180) translate(-30 -48)" onmousedown="handlePan(0,1)">
                  <use xlink:href="#rim" fill="#404040">
                        <set attributeName="fill" to="#808080" begin="arrowDown.mouseover" end="arrowDown.mouseout"/>
                  </use>
                  <path fill="none" stroke="white" stroke-width="1.5" d="M0,-3.0v7 M-2.5,-0.5L0,-3.0L2.5,-0.5"/>
                </g>
                <g id="arrowLeft" xlink:href="#dirArrow" transform="rotate(270) translate(-36 17)" onmousedown="handlePan(-1,0)">
                  <use xlink:href="#rim" fill="#404040">
                        <set attributeName="fill" to="#808080" begin="arrowLeft.mouseover" end="arrowLeft.mouseout"/>
                  </use>
                  <path fill="none" stroke="white" stroke-width="1.5" d="M0,-3.0v7 M-2.5,-0.5L0,-3.0L2.5,-0.5"/>
                </g>
        </g>
        <svg viewBox="0 0 15 15" width="100%" height="30px" preserveAspectRatio="xMaxYMin meet">
         <g id="arrow_out" transform="scale(0.3 0.3)">
          <a xlink:href="render__bonus_8h_a81fa5494e17be06ab12b226ff9dd7c2a_cgraph_org.svg" target="_base">
           <rect id="button" ry="5" rx="5" y="6" x="6" height="38" width="38"
                fill="#f2f5e9" fill-opacity="0.5" stroke="#606060" stroke-width="1.0"/>
           <path id="arrow"
             d="M 11.500037,31.436501 C 11.940474,20.09759 22.043105,11.32322 32.158766,21.979434 L 37.068811,17.246167 C 37.068811,17.246167 37.088388,32 37.088388,32 L 22.160133,31.978069 C 22.160133,31.978069 26.997745,27.140456 26.997745,27.140456 C 18.528582,18.264221 13.291696,25.230495 11.500037,31.436501 z"
             style="fill:#404040;"/>
          </a>
         </g>
        </svg>
</svg>
