<?xml version="1.0" encoding="UTF-8" standalone="no"?>
<!DOCTYPE svg PUBLIC "-//W3C//DTD SVG 1.1//EN"
 "http://www.w3.org/Graphics/SVG/1.1/DTD/svg11.dtd">
<!-- Generated by graphviz version 2.43.0 (0)
 -->
<!-- Title: inc/render_bonus.h Pages: 1 -->
<svg width="3606pt" height="229pt"
 viewBox="0.00 0.00 3606.00 229.00" xmlns="http://www.w3.org/2000/svg" xmlns:xlink="http://www.w3.org/1999/xlink">
<g id="graph0" class="graph" transform="scale(1 1) rotate(0) translate(4 225)">
<title>inc/render_bonus.h</title>
<!-- Node1 -->
<g id="node1" class="node">
<title>Node1</title>
<g id="a_node1"><a xlink:title=" ">
<polygon fill="#bfbfbf" stroke="black" points="2508.5,-201.5 2508.5,-220.5 2617.5,-220.5 2617.5,-201.5 2508.5,-201.5"/>
<text text-anchor="middle" x="2563" y="-208.5" font-family="Helvetica,sans-Serif" font-size="10.00">inc/render_bonus.h</text>
</a>
</g>
</g>
<!-- Node2 -->
<g id="node2" class="node">
<title>Node2</title>
<g id="a_node2"><a xlink:href="menu__put_8h.html" target="_top" xlink:title=" ">
<polygon fill="none" stroke="black" points="1206,-140 1206,-159 1298,-159 1298,-140 1206,-140"/>
<text text-anchor="middle" x="1252" y="-147" font-family="Helvetica,sans-Serif" font-size="10.00">inc/menu_put.h</text>
</a>
</g>
</g>
<!-- Node1&#45;&gt;Node2 -->
<g id="edge1" class="edge">
<title>Node1&#45;&gt;Node2</title>
<path fill="none" stroke="midnightblue" d="M2498.12,-207.06C2268.19,-196.62 1495.38,-161.55 1298.14,-152.59"/>
<polygon fill="midnightblue" stroke="midnightblue" points="2498.19,-210.56 2508.34,-207.52 2498.51,-203.57 2498.19,-210.56"/>
</g>
<!-- Node20 -->
<g id="node20" class="node">
<title>Node20</title>
<g id="a_node20"><a xlink:href="mini_r_t_8h.html" target="_top" xlink:title=" ">
<polygon fill="none" stroke="black" points="1788,-140 1788,-159 1864,-159 1864,-140 1788,-140"/>
<text text-anchor="middle" x="1826" y="-147" font-family="Helvetica,sans-Serif" font-size="10.00">inc/miniRT.h</text>
</a>
</g>
</g>
<!-- Node1&#45;&gt;Node20 -->
<g id="edge19" class="edge">
<title>Node1&#45;&gt;Node20</title>
<path fill="none" stroke="midnightblue" d="M2498.09,-210.66C2375.22,-210.84 2100.64,-206.08 1874,-165 1866.29,-163.6 1858.07,-161.4 1850.65,-159.12"/>
<polygon fill="midnightblue" stroke="midnightblue" points="2498.45,-214.16 2508.45,-210.64 2498.44,-207.16 2498.45,-214.16"/>
</g>
<!-- Node22 -->
<g id="node22" class="node">
<title>Node22</title>
<g id="a_node22"><a xlink:href="render__cleanup__bonus_8c.html" target="_top" xlink:title=" ">
<polygon fill="none" stroke="black" points="1882.5,-134.5 1882.5,-164.5 1991.5,-164.5 1991.5,-134.5 1882.5,-134.5"/>
<text text-anchor="start" x="1890.5" y="-152.5" font-family="Helvetica,sans-Serif" font-size="10.00">src/render_cleanup</text>
<text text-anchor="middle" x="1937" y="-141.5" font-family="Helvetica,sans-Serif" font-size="10.00">_bonus.c</text>
</a>
</g>
</g>
<!-- Node1&#45;&gt;Node22 -->
<g id="edge21" class="edge">
<title>Node1&#45;&gt;Node22</title>
<path fill="none" stroke="midnightblue" d="M2498.34,-207.83C2393.43,-203.63 2179.86,-192.28 2001,-165 1997.96,-164.54 1994.85,-164.01 1991.71,-163.44"/>
<polygon fill="midnightblue" stroke="midnightblue" points="2498.32,-211.33 2508.45,-208.22 2498.59,-204.33 2498.32,-211.33"/>
</g>
<!-- Node23 -->
<g id="node23" class="node">
<title>Node23</title>
<g id="a_node23"><a xlink:href="render__draw__bonus_8c.html" target="_top" xlink:title=" ">
<polygon fill="none" stroke="black" points="2009.5,-140 2009.5,-159 2146.5,-159 2146.5,-140 2009.5,-140"/>
<text text-anchor="middle" x="2078" y="-147" font-family="Helvetica,sans-Serif" font-size="10.00">src/render_draw_bonus.c</text>
</a>
</g>
</g>
<!-- Node1&#45;&gt;Node23 -->
<g id="edge22" class="edge">
<title>Node1&#45;&gt;Node23</title>
<path fill="none" stroke="midnightblue" d="M2498.21,-204.32C2417.75,-196.93 2276.38,-182.82 2156,-165 2144.55,-163.31 2132.22,-161.16 2120.82,-159.05"/>
<polygon fill="midnightblue" stroke="midnightblue" points="2497.92,-207.81 2508.2,-205.23 2498.56,-200.84 2497.92,-207.81"/>
</g>
<!-- Node24 -->
<g id="node24" class="node">
<title>Node24</title>
<g id="a_node24"><a xlink:href="render__init__bonus_8c.html" target="_top" xlink:title=" ">
<polygon fill="none" stroke="black" points="2164.5,-140 2164.5,-159 2293.5,-159 2293.5,-140 2164.5,-140"/>
<text text-anchor="middle" x="2229" y="-147" font-family="Helvetica,sans-Serif" font-size="10.00">src/render_init_bonus.c</text>
</a>
</g>
</g>
<!-- Node1&#45;&gt;Node24 -->
<g id="edge23" class="edge">
<title>Node1&#45;&gt;Node24</title>
<path fill="none" stroke="midnightblue" d="M2501.76,-199.79C2449.03,-190.91 2370.93,-177.53 2303,-165 2292.83,-163.12 2281.89,-161.02 2271.62,-159.02"/>
<polygon fill="midnightblue" stroke="midnightblue" points="2501.19,-203.25 2511.63,-201.45 2502.35,-196.34 2501.19,-203.25"/>
</g>
<!-- Node25 -->
<g id="node25" class="node">
<title>Node25</title>
<g id="a_node25"><a xlink:href="render__keyhook__camera__bonus_8c.html" target="_top" xlink:title=" ">
<polygon fill="none" stroke="black" points="2312,-134.5 2312,-164.5 2424,-164.5 2424,-134.5 2312,-134.5"/>
<text text-anchor="start" x="2320" y="-152.5" font-family="Helvetica,sans-Serif" font-size="10.00">src/render_keyhook</text>
<text text-anchor="middle" x="2368" y="-141.5" font-family="Helvetica,sans-Serif" font-size="10.00">_camera_bonus.c</text>
</a>
</g>
</g>
<!-- Node1&#45;&gt;Node25 -->
<g id="edge24" class="edge">
<title>Node1&#45;&gt;Node25</title>
<path fill="none" stroke="midnightblue" d="M2525.26,-198.48C2493.46,-188.78 2447.87,-174.87 2413.96,-164.52"/>
<polygon fill="midnightblue" stroke="midnightblue" points="2524.48,-201.9 2535.06,-201.48 2526.52,-195.21 2524.48,-201.9"/>
</g>
<!-- Node26 -->
<g id="node26" class="node">
<title>Node26</title>
<g id="a_node26"><a xlink:href="render__keyhook__options__bonus_8c.html" target="_top" xlink:title=" ">
<polygon fill="none" stroke="black" points="2442,-134.5 2442,-164.5 2554,-164.5 2554,-134.5 2442,-134.5"/>
<text text-anchor="start" x="2450" y="-152.5" font-family="Helvetica,sans-Serif" font-size="10.00">src/render_keyhook</text>
<text text-anchor="middle" x="2498" y="-141.5" font-family="Helvetica,sans-Serif" font-size="10.00">_options_bonus.c</text>
</a>
</g>
</g>
<!-- Node1&#45;&gt;Node26 -->
<g id="edge25" class="edge">
<title>Node1&#45;&gt;Node26</title>
<path fill="none" stroke="midnightblue" d="M2546.23,-194.65C2536.07,-185.35 2523.2,-173.57 2513.32,-164.52"/>
<polygon fill="midnightblue" stroke="midnightblue" points="2543.95,-197.3 2553.69,-201.48 2548.67,-192.14 2543.95,-197.3"/>
</g>
<!-- Node27 -->
<g id="node27" class="node">
<title>Node27</title>
<g id="a_node27"><a xlink:href="render__keyhook__press__bonus_8c.html" target="_top" xlink:title=" ">
<polygon fill="none" stroke="black" points="2572,-134.5 2572,-164.5 2684,-164.5 2684,-134.5 2572,-134.5"/>
<text text-anchor="start" x="2580" y="-152.5" font-family="Helvetica,sans-Serif" font-size="10.00">src/render_keyhook</text>
<text text-anchor="middle" x="2628" y="-141.5" font-family="Helvetica,sans-Serif" font-size="10.00">_press_bonus.c</text>
</a>
</g>
</g>
<!-- Node1&#45;&gt;Node27 -->
<g id="edge26" class="edge">
<title>Node1&#45;&gt;Node27</title>
<path fill="none" stroke="midnightblue" d="M2579.77,-194.65C2589.93,-185.35 2602.8,-173.57 2612.68,-164.52"/>
<polygon fill="midnightblue" stroke="midnightblue" points="2577.33,-192.14 2572.31,-201.48 2582.05,-197.3 2577.33,-192.14"/>
</g>
<!-- Node28 -->
<g id="node28" class="node">
<title>Node28</title>
<g id="a_node28"><a xlink:href="render__loop__mlx__bonus_8c.html" target="_top" xlink:title=" ">
<polygon fill="none" stroke="black" points="2702,-134.5 2702,-164.5 2818,-164.5 2818,-134.5 2702,-134.5"/>
<text text-anchor="start" x="2710" y="-152.5" font-family="Helvetica,sans-Serif" font-size="10.00">src/render_loop_mlx</text>
<text text-anchor="middle" x="2760" y="-141.5" font-family="Helvetica,sans-Serif" font-size="10.00">_bonus.c</text>
</a>
</g>
</g>
<!-- Node1&#45;&gt;Node28 -->
<g id="edge27" class="edge">
<title>Node1&#45;&gt;Node28</title>
<path fill="none" stroke="midnightblue" d="M2601.13,-198.48C2633.25,-188.78 2679.31,-174.87 2713.57,-164.52"/>
<polygon fill="midnightblue" stroke="midnightblue" points="2599.79,-195.23 2591.23,-201.48 2601.81,-201.93 2599.79,-195.23"/>
</g>
<!-- Node29 -->
<g id="node29" class="node">
<title>Node29</title>
<g id="a_node29"><a xlink:href="render__mouse__bonus_8c.html" target="_top" xlink:title=" ">
<polygon fill="none" stroke="black" points="2836,-140 2836,-159 2982,-159 2982,-140 2836,-140"/>
<text text-anchor="middle" x="2909" y="-147" font-family="Helvetica,sans-Serif" font-size="10.00">src/render_mouse_bonus.c</text>
</a>
</g>
</g>
<!-- Node1&#45;&gt;Node29 -->
<g id="edge28" class="edge">
<title>Node1&#45;&gt;Node29</title>
<path fill="none" stroke="midnightblue" d="M2623.63,-199.77C2677.15,-190.72 2757.28,-177.11 2827,-165 2837.97,-163.1 2849.76,-161.02 2860.88,-159.06"/>
<polygon fill="midnightblue" stroke="midnightblue" points="2622.9,-196.35 2613.63,-201.47 2624.07,-203.25 2622.9,-196.35"/>
</g>
<!-- Node30 -->
<g id="node30" class="node">
<title>Node30</title>
<g id="a_node30"><a xlink:href="render__output__ppm__bonus_8c.html" target="_top" xlink:title=" ">
<polygon fill="none" stroke="black" points="3000.5,-134.5 3000.5,-164.5 3129.5,-164.5 3129.5,-134.5 3000.5,-134.5"/>
<text text-anchor="start" x="3008.5" y="-152.5" font-family="Helvetica,sans-Serif" font-size="10.00">src/render_output_ppm</text>
<text text-anchor="middle" x="3065" y="-141.5" font-family="Helvetica,sans-Serif" font-size="10.00">_bonus.c</text>
</a>
</g>
</g>
<!-- Node1&#45;&gt;Node30 -->
<g id="edge29" class="edge">
<title>Node1&#45;&gt;Node30</title>
<path fill="none" stroke="midnightblue" d="M2627.74,-204.99C2711.76,-198.09 2862.8,-184.26 2991,-165 2994.11,-164.53 2997.28,-164.03 3000.48,-163.49"/>
<polygon fill="midnightblue" stroke="midnightblue" points="2627.27,-201.52 2617.58,-205.82 2627.84,-208.5 2627.27,-201.52"/>
</g>
<!-- Node31 -->
<g id="node31" class="node">
<title>Node31</title>
<g id="a_node31"><a xlink:href="render__output__threaded__bonus_8c.html" target="_top" xlink:title=" ">
<polygon fill="none" stroke="black" points="3147.5,-134.5 3147.5,-164.5 3298.5,-164.5 3298.5,-134.5 3147.5,-134.5"/>
<text text-anchor="start" x="3155.5" y="-152.5" font-family="Helvetica,sans-Serif" font-size="10.00">src/render_output_threaded</text>
<text text-anchor="middle" x="3223" y="-141.5" font-family="Helvetica,sans-Serif" font-size="10.00">_bonus.c</text>
</a>
</g>
</g>
<!-- Node1&#45;&gt;Node31 -->
<g id="edge30" class="edge">
<title>Node1&#45;&gt;Node31</title>
<path fill="none" stroke="midnightblue" d="M2627.86,-206.9C2734.71,-201.36 2954.3,-188.1 3139,-165 3141.79,-164.65 3144.63,-164.27 3147.49,-163.87"/>
<polygon fill="midnightblue" stroke="midnightblue" points="2627.38,-203.42 2617.57,-207.43 2627.74,-210.41 2627.38,-203.42"/>
</g>
<!-- Node32 -->
<g id="node32" class="node">
<title>Node32</title>
<g id="a_node32"><a xlink:href="render__sample__bonus_8c.html" target="_top" xlink:title=" ">
<polygon fill="none" stroke="black" points="3316.5,-140 3316.5,-159 3465.5,-159 3465.5,-140 3316.5,-140"/>
<text text-anchor="middle" x="3391" y="-147" font-family="Helvetica,sans-Serif" font-size="10.00">src/render_sample_bonus.c</text>
</a>
</g>
</g>
<!-- Node1&#45;&gt;Node32 -->
<g id="edge31" class="edge">
<title>Node1&#45;&gt;Node32</title>
<path fill="none" stroke="midnightblue" d="M2628.02,-208.53C2757.74,-205.07 3057.71,-194.33 3308,-165 3320.93,-163.48 3334.9,-161.27 3347.63,-159.03"/>
<polygon fill="midnightblue" stroke="midnightblue" points="2627.77,-205.04 2617.87,-208.8 2627.95,-212.04 2627.77,-205.04"/>
</g>
<!-- Node33 -->
<g id="node33" class="node">
<title>Node33</title>
<g id="a_node33"><a xlink:href="render__threaded__fts__bonus_8c.html" target="_top" xlink:title=" ">
<polygon fill="none" stroke="black" points="3484,-134.5 3484,-164.5 3598,-164.5 3598,-134.5 3484,-134.5"/>
<text text-anchor="start" x="3492" y="-152.5" font-family="Helvetica,sans-Serif" font-size="10.00">src/render_threaded</text>
<text text-anchor="middle" x="3541" y="-141.5" font-family="Helvetica,sans-Serif" font-size="10.00">_fts_bonus.c</text>
</a>
</g>
</g>
<!-- Node1&#45;&gt;Node33 -->
<g id="edge32" class="edge">
<title>Node1&#45;&gt;Node33</title>
<path fill="none" stroke="midnightblue" d="M2627.9,-210.5C2777.81,-210.86 3159.47,-207.14 3475,-165 3477.91,-164.61 3480.88,-164.16 3483.87,-163.66"/>
<polygon fill="midnightblue" stroke="midnightblue" points="2627.52,-207 2617.51,-210.47 2627.5,-214 2627.52,-207"/>
</g>
<!-- Node3 -->
<g id="node3" class="node">
<title>Node3</title>
<g id="a_node3"><a xlink:href="menu__put__bonus_8h.html" target="_top" xlink:title=" ">
<polygon fill="none" stroke="black" points="76,-73 76,-92 202,-92 202,-73 76,-73"/>
<text text-anchor="middle" x="139" y="-80" font-family="Helvetica,sans-Serif" font-size="10.00">inc/menu_put_bonus.h</text>
</a>
</g>
</g>
<!-- Node2&#45;&gt;Node3 -->
<g id="edge2" class="edge">
<title>Node2&#45;&gt;Node3</title>
<path fill="none" stroke="midnightblue" d="M1195.53,-148.73C1038.69,-148.74 584.66,-144.42 211,-98 199.49,-96.57 187.06,-94.32 175.82,-92.02"/>
<polygon fill="midnightblue" stroke="midnightblue" points="1195.87,-152.23 1205.87,-148.73 1195.87,-145.23 1195.87,-152.23"/>
</g>
<!-- Node6 -->
<g id="node6" class="node">
<title>Node6</title>
<g id="a_node6"><a xlink:href="menu__put__cam__light_8c.html" target="_top" xlink:title=" ">
<polygon fill="none" stroke="black" points="220,-73 220,-92 364,-92 364,-73 220,-73"/>
<text text-anchor="middle" x="292" y="-80" font-family="Helvetica,sans-Serif" font-size="10.00">src/menu_put_cam_light.c</text>
</a>
</g>
</g>
<!-- Node2&#45;&gt;Node6 -->
<g id="edge5" class="edge">
<title>Node2&#45;&gt;Node6</title>
<path fill="none" stroke="midnightblue" d="M1195.55,-147.6C1055.71,-144.85 682.16,-134.42 373,-98 360.37,-96.51 346.74,-94.31 334.32,-92.06"/>
<polygon fill="midnightblue" stroke="midnightblue" points="1195.54,-151.1 1205.61,-147.79 1195.68,-144.1 1195.54,-151.1"/>
</g>
<!-- Node7 -->
<g id="node7" class="node">
<title>Node7</title>
<g id="a_node7"><a xlink:href="menu__put__cam__light__ctrl_8c.html" target="_top" xlink:title=" ">
<polygon fill="none" stroke="black" points="382,-67.5 382,-97.5 518,-97.5 518,-67.5 382,-67.5"/>
<text text-anchor="start" x="390" y="-85.5" font-family="Helvetica,sans-Serif" font-size="10.00">src/menu_put_cam_light</text>
<text text-anchor="middle" x="450" y="-74.5" font-family="Helvetica,sans-Serif" font-size="10.00">_ctrl.c</text>
</a>
</g>
</g>
<!-- Node2&#45;&gt;Node7 -->
<g id="edge6" class="edge">
<title>Node2&#45;&gt;Node7</title>
<path fill="none" stroke="midnightblue" d="M1195.34,-146.8C1072.92,-142.64 774.76,-129.85 527,-98 524.17,-97.64 521.28,-97.23 518.37,-96.8"/>
<polygon fill="midnightblue" stroke="midnightblue" points="1195.48,-150.31 1205.59,-147.14 1195.71,-143.31 1195.48,-150.31"/>
</g>
<!-- Node8 -->
<g id="node8" class="node">
<title>Node8</title>
<g id="a_node8"><a xlink:href="menu__put__general__info_8c.html" target="_top" xlink:title=" ">
<polygon fill="none" stroke="black" points="536.5,-67.5 536.5,-97.5 661.5,-97.5 661.5,-67.5 536.5,-67.5"/>
<text text-anchor="start" x="544.5" y="-85.5" font-family="Helvetica,sans-Serif" font-size="10.00">src/menu_put_general</text>
<text text-anchor="middle" x="599" y="-74.5" font-family="Helvetica,sans-Serif" font-size="10.00">_info.c</text>
</a>
</g>
</g>
<!-- Node2&#45;&gt;Node8 -->
<g id="edge7" class="edge">
<title>Node2&#45;&gt;Node8</title>
<path fill="none" stroke="midnightblue" d="M1195.47,-145.76C1091.19,-140.22 861.65,-125.79 670,-98 667.26,-97.6 664.47,-97.17 661.65,-96.7"/>
<polygon fill="midnightblue" stroke="midnightblue" points="1195.6,-149.27 1205.77,-146.3 1195.97,-142.28 1195.6,-149.27"/>
</g>
<!-- Node9 -->
<g id="node9" class="node">
<title>Node9</title>
<g id="a_node9"><a xlink:href="menu__put__general__info__bonus_8c.html" target="_top" xlink:title=" ">
<polygon fill="none" stroke="black" points="679.5,-67.5 679.5,-97.5 804.5,-97.5 804.5,-67.5 679.5,-67.5"/>
<text text-anchor="start" x="687.5" y="-85.5" font-family="Helvetica,sans-Serif" font-size="10.00">src/menu_put_general</text>
<text text-anchor="middle" x="742" y="-74.5" font-family="Helvetica,sans-Serif" font-size="10.00">_info_bonus.c</text>
</a>
</g>
</g>
<!-- Node2&#45;&gt;Node9 -->
<g id="edge8" class="edge">
<title>Node2&#45;&gt;Node9</title>
<path fill="none" stroke="midnightblue" d="M1195.75,-143.54C1112.19,-135.82 950.45,-119.57 814,-98 810.98,-97.52 807.89,-97.01 804.77,-96.46"/>
<polygon fill="midnightblue" stroke="midnightblue" points="1195.52,-147.03 1205.79,-144.46 1196.15,-140.06 1195.52,-147.03"/>
</g>
<!-- Node10 -->
<g id="node10" class="node">
<title>Node10</title>
<g id="a_node10"><a xlink:href="menu__put__hittable_8c.html" target="_top" xlink:title=" ">
<polygon fill="none" stroke="black" points="823,-73 823,-92 957,-92 957,-73 823,-73"/>
<text text-anchor="middle" x="890" y="-80" font-family="Helvetica,sans-Serif" font-size="10.00">src/menu_put_hittable.c</text>
</a>
</g>
</g>
<!-- Node2&#45;&gt;Node10 -->
<g id="edge9" class="edge">
<title>Node2&#45;&gt;Node10</title>
<path fill="none" stroke="midnightblue" d="M1195.89,-138.83C1138.2,-128.83 1045.76,-112.65 966,-98 955.7,-96.11 944.61,-94.02 934.19,-92.04"/>
<polygon fill="midnightblue" stroke="midnightblue" points="1195.45,-142.3 1205.9,-140.56 1196.64,-135.41 1195.45,-142.3"/>
</g>
<!-- Node11 -->
<g id="node11" class="node">
<title>Node11</title>
<g id="a_node11"><a xlink:href="menu__put__hittable__bonus_8c.html" target="_top" xlink:title=" ">
<polygon fill="none" stroke="black" points="975.5,-67.5 975.5,-97.5 1100.5,-97.5 1100.5,-67.5 975.5,-67.5"/>
<text text-anchor="start" x="983.5" y="-85.5" font-family="Helvetica,sans-Serif" font-size="10.00">src/menu_put_hittable</text>
<text text-anchor="middle" x="1038" y="-74.5" font-family="Helvetica,sans-Serif" font-size="10.00">_bonus.c</text>
</a>
</g>
</g>
<!-- Node2&#45;&gt;Node11 -->
<g id="edge10" class="edge">
<title>Node2&#45;&gt;Node11</title>
<path fill="none" stroke="midnightblue" d="M1213.86,-136.92C1177.58,-125.9 1122.92,-109.29 1084.18,-97.53"/>
<polygon fill="midnightblue" stroke="midnightblue" points="1213,-140.31 1223.58,-139.87 1215.03,-133.61 1213,-140.31"/>
</g>
<!-- Node12 -->
<g id="node12" class="node">
<title>Node12</title>
<g id="a_node12"><a xlink:href="menu__put__hittable__ctrl_8c.html" target="_top" xlink:title=" ">
<polygon fill="none" stroke="black" points="1118.5,-67.5 1118.5,-97.5 1243.5,-97.5 1243.5,-67.5 1118.5,-67.5"/>
<text text-anchor="start" x="1126.5" y="-85.5" font-family="Helvetica,sans-Serif" font-size="10.00">src/menu_put_hittable</text>
<text text-anchor="middle" x="1181" y="-74.5" font-family="Helvetica,sans-Serif" font-size="10.00">_ctrl.c</text>
</a>
</g>
</g>
<!-- Node2&#45;&gt;Node12 -->
<g id="edge11" class="edge">
<title>Node2&#45;&gt;Node12</title>
<path fill="none" stroke="midnightblue" d="M1234.99,-132.93C1223.25,-122.18 1207.76,-108 1196.39,-97.59"/>
<polygon fill="midnightblue" stroke="midnightblue" points="1232.69,-135.56 1242.42,-139.73 1237.41,-130.4 1232.69,-135.56"/>
</g>
<!-- Node13 -->
<g id="node13" class="node">
<title>Node13</title>
<g id="a_node13"><a xlink:href="menu__put__hittable__ctrl__bonus_8c.html" target="_top" xlink:title=" ">
<polygon fill="none" stroke="black" points="1261.5,-67.5 1261.5,-97.5 1386.5,-97.5 1386.5,-67.5 1261.5,-67.5"/>
<text text-anchor="start" x="1269.5" y="-85.5" font-family="Helvetica,sans-Serif" font-size="10.00">src/menu_put_hittable</text>
<text text-anchor="middle" x="1324" y="-74.5" font-family="Helvetica,sans-Serif" font-size="10.00">_ctrl_bonus.c</text>
</a>
</g>
</g>
<!-- Node2&#45;&gt;Node13 -->
<g id="edge12" class="edge">
<title>Node2&#45;&gt;Node13</title>
<path fill="none" stroke="midnightblue" d="M1269.25,-132.93C1281.16,-122.18 1296.86,-108 1308.39,-97.59"/>
<polygon fill="midnightblue" stroke="midnightblue" points="1266.79,-130.43 1261.71,-139.73 1271.48,-135.63 1266.79,-130.43"/>
</g>
<!-- Node14 -->
<g id="node14" class="node">
<title>Node14</title>
<g id="a_node14"><a xlink:href="menu__put__page_8c.html" target="_top" xlink:title=" ">
<polygon fill="none" stroke="black" points="1405,-73 1405,-92 1525,-92 1525,-73 1405,-73"/>
<text text-anchor="middle" x="1465" y="-80" font-family="Helvetica,sans-Serif" font-size="10.00">src/menu_put_page.c</text>
</a>
</g>
</g>
<!-- Node2&#45;&gt;Node14 -->
<g id="edge13" class="edge">
<title>Node2&#45;&gt;Node14</title>
<path fill="none" stroke="midnightblue" d="M1289.92,-136.93C1332.09,-124.06 1399.23,-103.57 1436.94,-92.06"/>
<polygon fill="midnightblue" stroke="midnightblue" points="1288.83,-133.6 1280.28,-139.87 1290.87,-140.3 1288.83,-133.6"/>
</g>
<!-- Node15 -->
<g id="node15" class="node">
<title>Node15</title>
<g id="a_node15"><a xlink:href="menu__put__str__num_8c.html" target="_top" xlink:title=" ">
<polygon fill="none" stroke="black" points="1543,-73 1543,-92 1679,-92 1679,-73 1543,-73"/>
<text text-anchor="middle" x="1611" y="-80" font-family="Helvetica,sans-Serif" font-size="10.00">src/menu_put_str_num.c</text>
</a>
</g>
</g>
<!-- Node2&#45;&gt;Node15 -->
<g id="edge14" class="edge">
<title>Node2&#45;&gt;Node15</title>
<path fill="none" stroke="midnightblue" d="M1308.31,-138.57C1365.26,-128.49 1455.78,-112.37 1534,-98 1544.44,-96.08 1555.66,-93.99 1566.22,-92"/>
<polygon fill="midnightblue" stroke="midnightblue" points="1307.67,-135.13 1298.43,-140.32 1308.89,-142.02 1307.67,-135.13"/>
</g>
<!-- Node16 -->
<g id="node16" class="node">
<title>Node16</title>
<g id="a_node16"><a xlink:href="menu__put__text_8c.html" target="_top" xlink:title=" ">
<polygon fill="none" stroke="black" points="1697,-73 1697,-92 1813,-92 1813,-73 1697,-73"/>
<text text-anchor="middle" x="1755" y="-80" font-family="Helvetica,sans-Serif" font-size="10.00">src/menu_put_text.c</text>
</a>
</g>
</g>
<!-- Node2&#45;&gt;Node16 -->
<g id="edge15" class="edge">
<title>Node2&#45;&gt;Node16</title>
<path fill="none" stroke="midnightblue" d="M1308.03,-143.78C1391.26,-136.36 1552.33,-120.48 1688,-98 1697.98,-96.35 1708.72,-94.19 1718.61,-92.05"/>
<polygon fill="midnightblue" stroke="midnightblue" points="1307.68,-140.29 1298.03,-144.66 1308.3,-147.27 1307.68,-140.29"/>
</g>
<!-- Node17 -->
<g id="node17" class="node">
<title>Node17</title>
<g id="a_node17"><a xlink:href="menu__put__time__bonus_8c.html" target="_top" xlink:title=" ">
<polygon fill="none" stroke="black" points="1831.5,-73 1831.5,-92 1984.5,-92 1984.5,-73 1831.5,-73"/>
<text text-anchor="middle" x="1908" y="-80" font-family="Helvetica,sans-Serif" font-size="10.00">src/menu_put_time_bonus.c</text>
</a>
</g>
</g>
<!-- Node2&#45;&gt;Node17 -->
<g id="edge16" class="edge">
<title>Node2&#45;&gt;Node17</title>
<path fill="none" stroke="midnightblue" d="M1308.44,-144.98C1410.97,-138.25 1634.57,-122.07 1822,-98 1834.77,-96.36 1848.53,-94.21 1861.23,-92.07"/>
<polygon fill="midnightblue" stroke="midnightblue" points="1308.06,-141.49 1298.31,-145.64 1308.52,-148.48 1308.06,-141.49"/>
</g>
<!-- Node18 -->
<g id="node18" class="node">
<title>Node18</title>
<g id="a_node18"><a xlink:href="menu__put__utils_8c.html" target="_top" xlink:title=" ">
<polygon fill="none" stroke="black" points="2002.5,-73 2002.5,-92 2119.5,-92 2119.5,-73 2002.5,-73"/>
<text text-anchor="middle" x="2061" y="-80" font-family="Helvetica,sans-Serif" font-size="10.00">src/menu_put_utils.c</text>
</a>
</g>
</g>
<!-- Node2&#45;&gt;Node18 -->
<g id="edge17" class="edge">
<title>Node2&#45;&gt;Node18</title>
<path fill="none" stroke="midnightblue" d="M1308.31,-147.45C1432.63,-144.53 1739.71,-133.98 1994,-98 2004.49,-96.52 2015.78,-94.31 2026.05,-92.07"/>
<polygon fill="midnightblue" stroke="midnightblue" points="1308.18,-143.96 1298.26,-147.68 1308.34,-150.95 1308.18,-143.96"/>
</g>
<!-- Node19 -->
<g id="node19" class="node">
<title>Node19</title>
<g id="a_node19"><a xlink:href="menu__put__utils__ctrl_8c.html" target="_top" xlink:title=" ">
<polygon fill="none" stroke="black" points="2137.5,-67.5 2137.5,-97.5 2246.5,-97.5 2246.5,-67.5 2137.5,-67.5"/>
<text text-anchor="start" x="2145.5" y="-85.5" font-family="Helvetica,sans-Serif" font-size="10.00">src/menu_put_utils</text>
<text text-anchor="middle" x="2192" y="-74.5" font-family="Helvetica,sans-Serif" font-size="10.00">_ctrl.c</text>
</a>
</g>
</g>
<!-- Node2&#45;&gt;Node19 -->
<g id="edge18" class="edge">
<title>Node2&#45;&gt;Node19</title>
<path fill="none" stroke="midnightblue" d="M1308.44,-148.54C1448.24,-147.92 1821.53,-141.92 2129,-98 2131.78,-97.6 2134.61,-97.15 2137.47,-96.64"/>
<polygon fill="midnightblue" stroke="midnightblue" points="1308.38,-145.04 1298.39,-148.57 1308.4,-152.04 1308.38,-145.04"/>
</g>
<!-- Node4 -->
<g id="node4" class="node">
<title>Node4</title>
<g id="a_node4"><a xlink:href="menu__put__options__bonus_8c.html" target="_top" xlink:title=" ">
<polygon fill="none" stroke="black" points="0,-0.5 0,-30.5 124,-30.5 124,-0.5 0,-0.5"/>
<text text-anchor="start" x="8" y="-18.5" font-family="Helvetica,sans-Serif" font-size="10.00">src/menu_put_options</text>
<text text-anchor="middle" x="62" y="-7.5" font-family="Helvetica,sans-Serif" font-size="10.00">_bonus.c</text>
</a>
</g>
</g>
<!-- Node3&#45;&gt;Node4 -->
<g id="edge3" class="edge">
<title>Node3&#45;&gt;Node4</title>
<path fill="none" stroke="midnightblue" d="M120.92,-66.24C108.14,-55.45 91.14,-41.1 78.69,-30.59"/>
<polygon fill="midnightblue" stroke="midnightblue" points="118.72,-68.96 128.62,-72.73 123.23,-63.61 118.72,-68.96"/>
</g>
<!-- Node5 -->
<g id="node5" class="node">
<title>Node5</title>
<g id="a_node5"><a xlink:href="menu__put__text__bonus_8c.html" target="_top" xlink:title=" ">
<polygon fill="none" stroke="black" points="142,-6 142,-25 292,-25 292,-6 142,-6"/>
<text text-anchor="middle" x="217" y="-13" font-family="Helvetica,sans-Serif" font-size="10.00">src/menu_put_text_bonus.c</text>
</a>
</g>
</g>
<!-- Node3&#45;&gt;Node5 -->
<g id="edge4" class="edge">
<title>Node3&#45;&gt;Node5</title>
<path fill="none" stroke="midnightblue" d="M157.34,-66.21C172.71,-53.41 194.09,-35.59 206.65,-25.13"/>
<polygon fill="midnightblue" stroke="midnightblue" points="154.96,-63.64 149.52,-72.73 159.44,-69.02 154.96,-63.64"/>
</g>
<!-- Node21 -->
<g id="node21" class="node">
<title>Node21</title>
<g id="a_node21"><a xlink:href="main_8c.html" target="_top" xlink:title=" ">
<polygon fill="none" stroke="black" points="2264.5,-73 2264.5,-92 2331.5,-92 2331.5,-73 2264.5,-73"/>
<text text-anchor="middle" x="2298" y="-80" font-family="Helvetica,sans-Serif" font-size="10.00">src/main.c</text>
</a>
</g>
</g>
<!-- Node20&#45;&gt;Node21 -->
<g id="edge20" class="edge">
<title>Node20&#45;&gt;Node21</title>
<path fill="none" stroke="midnightblue" d="M1861.06,-137.04C1865.38,-135.88 1869.77,-134.83 1874,-134 2041.34,-101.18 2089.33,-134.08 2256,-98 2262.79,-96.53 2269.99,-94.3 2276.48,-92.03"/>
<polygon fill="midnightblue" stroke="midnightblue" points="1859.82,-133.75 1851.17,-139.87 1861.75,-140.48 1859.82,-133.75"/>
</g>
</g>
</svg>
