<?xml version="1.0" encoding="UTF-8" standalone="no"?>
<!DOCTYPE svg PUBLIC "-//W3C//DTD SVG 1.1//EN"
 "http://www.w3.org/Graphics/SVG/1.1/DTD/svg11.dtd">
<!-- Generated by graphviz version 2.43.0 (0)
 -->
<!-- Title: ft_mouse_hook_rot_cam Pages: 1 -->
<svg width="618pt" height="294pt"
 viewBox="0.00 0.00 618.00 294.00" xmlns="http://www.w3.org/2000/svg" xmlns:xlink="http://www.w3.org/1999/xlink">
<g id="graph0" class="graph" transform="scale(1 1) rotate(0) translate(4 290)">
<title>ft_mouse_hook_rot_cam</title>
<!-- Node1 -->
<g id="node1" class="node">
<title>Node1</title>
<g id="a_node1"><a xlink:title="Rotates the camera with the mouse.">
<polygon fill="#bfbfbf" stroke="black" points="0,-95.5 0,-114.5 136,-114.5 136,-95.5 0,-95.5"/>
<text text-anchor="middle" x="68" y="-102.5" font-family="Helvetica,sans-Serif" font-size="10.00">ft_mouse_hook_rot_cam</text>
</a>
</g>
</g>
<!-- Node2 -->
<g id="node2" class="node">
<title>Node2</title>
<g id="a_node2"><a xlink:href="camera_8h.html#a02ed3f7206927a02c44eab5f5aba26e1" target="_top" xlink:title="Calculates basis vectors u, v, w.">
<polygon fill="none" stroke="black" points="172,-228.5 172,-247.5 316,-247.5 316,-228.5 172,-228.5"/>
<text text-anchor="middle" x="244" y="-235.5" font-family="Helvetica,sans-Serif" font-size="10.00">ft_cam_calc_base_vectors</text>
</a>
</g>
</g>
<!-- Node1&#45;&gt;Node2 -->
<g id="edge1" class="edge">
<title>Node1&#45;&gt;Node2</title>
<path fill="none" stroke="midnightblue" d="M81.51,-114.57C111.09,-137.17 185.57,-194.1 222.11,-222.04"/>
<polygon fill="midnightblue" stroke="midnightblue" points="220.06,-224.87 230.13,-228.16 224.31,-219.31 220.06,-224.87"/>
</g>
<!-- Node5 -->
<g id="node5" class="node">
<title>Node5</title>
<g id="a_node5"><a xlink:href="camera_8h.html#a525b3073d8f263afa7d81f70fa4b491d" target="_top" xlink:title="Calculates all pixel positions in pixel grid.">
<polygon fill="none" stroke="black" points="185.5,-152.5 185.5,-171.5 302.5,-171.5 302.5,-152.5 185.5,-152.5"/>
<text text-anchor="middle" x="244" y="-159.5" font-family="Helvetica,sans-Serif" font-size="10.00">ft_cam_calc_pix_pos</text>
</a>
</g>
</g>
<!-- Node1&#45;&gt;Node5 -->
<g id="edge4" class="edge">
<title>Node1&#45;&gt;Node5</title>
<path fill="none" stroke="midnightblue" d="M92.92,-114.54C113.66,-122.63 144.57,-134.29 172,-143 179.44,-145.36 187.38,-147.68 195.15,-149.84"/>
<polygon fill="midnightblue" stroke="midnightblue" points="194.29,-153.23 204.86,-152.48 196.13,-146.48 194.29,-153.23"/>
</g>
<!-- Node7 -->
<g id="node7" class="node">
<title>Node7</title>
<g id="a_node7"><a xlink:href="camera_8h.html#a96132dcb4eac578fbee24bbf591fe090" target="_top" xlink:title="Calculates the pixel grid parameters of the viewport.">
<polygon fill="none" stroke="black" points="180.5,-114.5 180.5,-133.5 307.5,-133.5 307.5,-114.5 180.5,-114.5"/>
<text text-anchor="middle" x="244" y="-121.5" font-family="Helvetica,sans-Serif" font-size="10.00">ft_cam_calc_pixel_grid</text>
</a>
</g>
</g>
<!-- Node1&#45;&gt;Node7 -->
<g id="edge7" class="edge">
<title>Node1&#45;&gt;Node7</title>
<path fill="none" stroke="midnightblue" d="M136.27,-112.35C147.4,-113.56 158.99,-114.83 170.24,-116.06"/>
<polygon fill="midnightblue" stroke="midnightblue" points="170.15,-119.57 180.47,-117.17 170.91,-112.61 170.15,-119.57"/>
</g>
<!-- Node9 -->
<g id="node9" class="node">
<title>Node9</title>
<g id="a_node9"><a xlink:href="render__bit__field_8h.html#ab984d9cbc7c648ef4481b9158b27da30" target="_top" xlink:title="Sets bit in bit field.">
<polygon fill="none" stroke="black" points="204,-0.5 204,-19.5 284,-19.5 284,-0.5 204,-0.5"/>
<text text-anchor="middle" x="244" y="-7.5" font-family="Helvetica,sans-Serif" font-size="10.00">ft_option_set</text>
</a>
</g>
</g>
<!-- Node1&#45;&gt;Node9 -->
<g id="edge11" class="edge">
<title>Node1&#45;&gt;Node9</title>
<path fill="none" stroke="midnightblue" d="M79.25,-95.34C96.86,-79.27 134.55,-47.02 172,-29 178.88,-25.69 186.41,-22.89 193.93,-20.54"/>
<polygon fill="midnightblue" stroke="midnightblue" points="195.1,-23.85 203.74,-17.71 193.16,-17.12 195.1,-23.85"/>
</g>
<!-- Node10 -->
<g id="node10" class="node">
<title>Node10</title>
<g id="a_node10"><a xlink:href="utils_8h.html#a211f9d6535bb54bea2299ee5ea8a54a0" target="_top" xlink:title="Rotates a 3D vector around the x&#45;axis.">
<polygon fill="none" stroke="black" points="195,-76.5 195,-95.5 293,-95.5 293,-76.5 195,-76.5"/>
<text text-anchor="middle" x="244" y="-83.5" font-family="Helvetica,sans-Serif" font-size="10.00">ft_vec3_rotate_x</text>
</a>
</g>
</g>
<!-- Node1&#45;&gt;Node10 -->
<g id="edge12" class="edge">
<title>Node1&#45;&gt;Node10</title>
<path fill="none" stroke="midnightblue" d="M136.27,-97.65C152.28,-95.91 169.22,-94.06 184.78,-92.36"/>
<polygon fill="midnightblue" stroke="midnightblue" points="185.22,-95.83 194.78,-91.27 184.46,-88.87 185.22,-95.83"/>
</g>
<!-- Node14 -->
<g id="node14" class="node">
<title>Node14</title>
<g id="a_node14"><a xlink:href="utils_8h.html#ac8a4ca6fb927e3746e7129f8eb04aa46" target="_top" xlink:title="Rotates a 3D vector around the y&#45;axis.">
<polygon fill="none" stroke="black" points="195,-38.5 195,-57.5 293,-57.5 293,-38.5 195,-38.5"/>
<text text-anchor="middle" x="244" y="-45.5" font-family="Helvetica,sans-Serif" font-size="10.00">ft_vec3_rotate_y</text>
</a>
</g>
</g>
<!-- Node1&#45;&gt;Node14 -->
<g id="edge17" class="edge">
<title>Node1&#45;&gt;Node14</title>
<path fill="none" stroke="midnightblue" d="M92.92,-95.46C113.66,-87.37 144.57,-75.71 172,-67 179.44,-64.64 187.38,-62.32 195.15,-60.16"/>
<polygon fill="midnightblue" stroke="midnightblue" points="196.13,-63.52 204.86,-57.52 194.29,-56.77 196.13,-63.52"/>
</g>
<!-- Node3 -->
<g id="node3" class="node">
<title>Node3</title>
<g id="a_node3"><a xlink:href="vec3_8h.html#a19bc1d17592698776e89a5093110320c" target="_top" xlink:title="Calculate the cross product of two vectors.">
<polygon fill="none" stroke="black" points="367,-266.5 367,-285.5 450,-285.5 450,-266.5 367,-266.5"/>
<text text-anchor="middle" x="408.5" y="-273.5" font-family="Helvetica,sans-Serif" font-size="10.00">ft_vec3_cross</text>
</a>
</g>
</g>
<!-- Node2&#45;&gt;Node3 -->
<g id="edge2" class="edge">
<title>Node2&#45;&gt;Node3</title>
<path fill="none" stroke="midnightblue" d="M286.01,-247.59C307.55,-252.63 334.13,-258.84 356.94,-264.18"/>
<polygon fill="midnightblue" stroke="midnightblue" points="356.25,-267.61 366.79,-266.48 357.85,-260.79 356.25,-267.61"/>
</g>
<!-- Node4 -->
<g id="node4" class="node">
<title>Node4</title>
<g id="a_node4"><a xlink:href="vec3_8h.html#ac80a1c20941c96a8fafad255dac59092" target="_top" xlink:title="Scale a vector.">
<polygon fill="none" stroke="black" points="514,-152.5 514,-171.5 597,-171.5 597,-152.5 514,-152.5"/>
<text text-anchor="middle" x="555.5" y="-159.5" font-family="Helvetica,sans-Serif" font-size="10.00">ft_vec3_scale</text>
</a>
</g>
</g>
<!-- Node2&#45;&gt;Node4 -->
<g id="edge3" class="edge">
<title>Node2&#45;&gt;Node4</title>
<path fill="none" stroke="midnightblue" d="M311.16,-228.46C355.21,-221.36 414.12,-210.4 465,-196 484.65,-190.44 506.06,-182.38 523.01,-175.51"/>
<polygon fill="midnightblue" stroke="midnightblue" points="524.52,-178.67 532.43,-171.62 521.85,-172.2 524.52,-178.67"/>
</g>
<!-- Node5&#45;&gt;Node4 -->
<g id="edge6" class="edge">
<title>Node5&#45;&gt;Node4</title>
<path fill="none" stroke="midnightblue" d="M288.5,-171.51C307.84,-175.28 330.95,-179.15 352,-181 402.03,-185.41 415.05,-186.24 465,-181 479.24,-179.51 494.54,-176.71 508.4,-173.71"/>
<polygon fill="midnightblue" stroke="midnightblue" points="509.21,-177.12 518.2,-171.51 507.67,-170.29 509.21,-177.12"/>
</g>
<!-- Node6 -->
<g id="node6" class="node">
<title>Node6</title>
<g id="a_node6"><a xlink:href="vec3_8h.html#a73e2caf4c2a51ed954b7349c6be2b3c3" target="_top" xlink:title="Add two vectors.">
<polygon fill="none" stroke="black" points="371,-152.5 371,-171.5 446,-171.5 446,-152.5 371,-152.5"/>
<text text-anchor="middle" x="408.5" y="-159.5" font-family="Helvetica,sans-Serif" font-size="10.00">ft_vec3_add</text>
</a>
</g>
</g>
<!-- Node5&#45;&gt;Node6 -->
<g id="edge5" class="edge">
<title>Node5&#45;&gt;Node6</title>
<path fill="none" stroke="midnightblue" d="M302.75,-162C321.75,-162 342.63,-162 360.71,-162"/>
<polygon fill="midnightblue" stroke="midnightblue" points="360.72,-165.5 370.72,-162 360.72,-158.5 360.72,-165.5"/>
</g>
<!-- Node7&#45;&gt;Node4 -->
<g id="edge9" class="edge">
<title>Node7&#45;&gt;Node4</title>
<path fill="none" stroke="midnightblue" d="M307.83,-127.37C351.96,-130.23 412.29,-135.16 465,-143 477.89,-144.92 491.72,-147.56 504.55,-150.26"/>
<polygon fill="midnightblue" stroke="midnightblue" points="504.08,-153.74 514.59,-152.43 505.56,-146.9 504.08,-153.74"/>
</g>
<!-- Node7&#45;&gt;Node6 -->
<g id="edge8" class="edge">
<title>Node7&#45;&gt;Node6</title>
<path fill="none" stroke="midnightblue" d="M286.01,-133.59C308.88,-138.94 337.44,-145.62 361.12,-151.15"/>
<polygon fill="midnightblue" stroke="midnightblue" points="360.41,-154.58 370.94,-153.45 362,-147.77 360.41,-154.58"/>
</g>
<!-- Node8 -->
<g id="node8" class="node">
<title>Node8</title>
<g id="a_node8"><a xlink:href="vec3_8h.html#a54e984820b74bd803de43ce36c8cb292" target="_top" xlink:title="Subtract two vectors.">
<polygon fill="none" stroke="black" points="371.5,-76.5 371.5,-95.5 445.5,-95.5 445.5,-76.5 371.5,-76.5"/>
<text text-anchor="middle" x="408.5" y="-83.5" font-family="Helvetica,sans-Serif" font-size="10.00">ft_vec3_sub</text>
</a>
</g>
</g>
<!-- Node7&#45;&gt;Node8 -->
<g id="edge10" class="edge">
<title>Node7&#45;&gt;Node8</title>
<path fill="none" stroke="midnightblue" d="M286.01,-114.41C309.04,-109.02 337.85,-102.29 361.63,-96.73"/>
<polygon fill="midnightblue" stroke="midnightblue" points="362.55,-100.11 371.49,-94.42 360.95,-93.29 362.55,-100.11"/>
</g>
<!-- Node11 -->
<g id="node11" class="node">
<title>Node11</title>
<g id="a_node11"><a xlink:href="utils_8h.html#a7d1328722f9dc6edd652f7c732856ae9" target="_top" xlink:title="Transforms degrees into radian.">
<polygon fill="none" stroke="black" points="352,-0.5 352,-19.5 465,-19.5 465,-0.5 352,-0.5"/>
<text text-anchor="middle" x="408.5" y="-7.5" font-family="Helvetica,sans-Serif" font-size="10.00">ft_degree_to_radian</text>
</a>
</g>
</g>
<!-- Node10&#45;&gt;Node11 -->
<g id="edge13" class="edge">
<title>Node10&#45;&gt;Node11</title>
<path fill="none" stroke="midnightblue" d="M293.06,-77.02C301.04,-74.45 308.98,-71.18 316,-67 335.99,-55.1 332.43,-41.58 352,-29 355.14,-26.98 358.52,-25.15 362,-23.5"/>
<polygon fill="midnightblue" stroke="midnightblue" points="363.54,-26.65 371.39,-19.52 360.81,-20.2 363.54,-26.65"/>
</g>
<!-- Node12 -->
<g id="node12" class="node">
<title>Node12</title>
<g id="a_node12"><a xlink:href="utils__quaternion_8c.html#a4b67c731c02a7ba35f27473295bfb753" target="_top" xlink:title="Performs a rotation of a given vector around an axis by a given angle.">
<polygon fill="none" stroke="black" points="358.5,-38.5 358.5,-57.5 458.5,-57.5 458.5,-38.5 358.5,-38.5"/>
<text text-anchor="middle" x="408.5" y="-45.5" font-family="Helvetica,sans-Serif" font-size="10.00">ft_quaternion_rot</text>
</a>
</g>
</g>
<!-- Node10&#45;&gt;Node12 -->
<g id="edge14" class="edge">
<title>Node10&#45;&gt;Node12</title>
<path fill="none" stroke="midnightblue" d="M286.01,-76.41C307.55,-71.37 334.13,-65.16 356.94,-59.82"/>
<polygon fill="midnightblue" stroke="midnightblue" points="357.85,-63.21 366.79,-57.52 356.25,-56.39 357.85,-63.21"/>
</g>
<!-- Node12&#45;&gt;Node4 -->
<g id="edge16" class="edge">
<title>Node12&#45;&gt;Node4</title>
<path fill="none" stroke="midnightblue" d="M445.62,-57.51C452.34,-60.06 459.09,-63.19 465,-67 497.5,-87.95 526.43,-123.17 542.12,-144.34"/>
<polygon fill="midnightblue" stroke="midnightblue" points="539.3,-146.42 548,-152.47 544.97,-142.31 539.3,-146.42"/>
</g>
<!-- Node13 -->
<g id="node13" class="node">
<title>Node13</title>
<g id="a_node13"><a xlink:href="utils__quaternion_8c.html#a15b6fa9c749e827cd1d52bf1c8e0a8f3" target="_top" xlink:title="Performs quaternion multiplication.">
<polygon fill="none" stroke="black" points="501,-38.5 501,-57.5 610,-57.5 610,-38.5 501,-38.5"/>
<text text-anchor="middle" x="555.5" y="-45.5" font-family="Helvetica,sans-Serif" font-size="10.00">ft_quaternion_mult</text>
</a>
</g>
</g>
<!-- Node12&#45;&gt;Node13 -->
<g id="edge15" class="edge">
<title>Node12&#45;&gt;Node13</title>
<path fill="none" stroke="midnightblue" d="M458.59,-48C468.93,-48 479.97,-48 490.76,-48"/>
<polygon fill="midnightblue" stroke="midnightblue" points="490.98,-51.5 500.98,-48 490.98,-44.5 490.98,-51.5"/>
</g>
<!-- Node14&#45;&gt;Node11 -->
<g id="edge18" class="edge">
<title>Node14&#45;&gt;Node11</title>
<path fill="none" stroke="midnightblue" d="M286.01,-38.41C307.55,-33.37 334.13,-27.16 356.94,-21.82"/>
<polygon fill="midnightblue" stroke="midnightblue" points="357.85,-25.21 366.79,-19.52 356.25,-18.39 357.85,-25.21"/>
</g>
<!-- Node14&#45;&gt;Node12 -->
<g id="edge19" class="edge">
<title>Node14&#45;&gt;Node12</title>
<path fill="none" stroke="midnightblue" d="M293.32,-48C310.52,-48 330.1,-48 348.13,-48"/>
<polygon fill="midnightblue" stroke="midnightblue" points="348.25,-51.5 358.25,-48 348.25,-44.5 348.25,-51.5"/>
</g>
</g>
</svg>
