<?xml version="1.0" encoding="UTF-8" standalone="no"?>
<!DOCTYPE svg PUBLIC "-//W3C//DTD SVG 1.1//EN"
 "http://www.w3.org/Graphics/SVG/1.1/DTD/svg11.dtd">
<!-- Generated by graphviz version 2.43.0 (0)
 -->
<!-- Title: ft_keyhook_inc_dec Pages: 1 -->
<svg width="400pt" height="180pt"
 viewBox="0.00 0.00 400.00 180.00" xmlns="http://www.w3.org/2000/svg" xmlns:xlink="http://www.w3.org/1999/xlink">
<g id="graph0" class="graph" transform="scale(1 1) rotate(0) translate(4 176)">
<title>ft_keyhook_inc_dec</title>
<!-- Node1 -->
<g id="node1" class="node">
<title>Node1</title>
<g id="a_node1"><a xlink:title="Increases or decreases a value with a keypress.">
<polygon fill="#bfbfbf" stroke="black" points="280,-76.5 280,-95.5 392,-95.5 392,-76.5 280,-76.5"/>
<text text-anchor="middle" x="336" y="-83.5" font-family="Helvetica,sans-Serif" font-size="10.00">ft_keyhook_inc_dec</text>
</a>
</g>
</g>
<!-- Node2 -->
<g id="node2" class="node">
<title>Node2</title>
<g id="a_node2"><a xlink:href="render_8h.html#a597d35b7bd3aa66272e3c2ff3a1e8f78" target="_top" xlink:title="Manipulates the ambient light.">
<polygon fill="none" stroke="black" points="138.5,-152.5 138.5,-171.5 243.5,-171.5 243.5,-152.5 138.5,-152.5"/>
<text text-anchor="middle" x="191" y="-159.5" font-family="Helvetica,sans-Serif" font-size="10.00">ft_manip_ambient</text>
</a>
</g>
</g>
<!-- Node1&#45;&gt;Node2 -->
<g id="edge1" class="edge">
<title>Node1&#45;&gt;Node2</title>
<path fill="none" stroke="midnightblue" d="M313.06,-101.57C295.08,-113.88 268.67,-130.93 244,-143 236.83,-146.51 228.85,-149.74 221.33,-152.5"/>
<polygon fill="midnightblue" stroke="midnightblue" points="315.42,-104.2 321.64,-95.62 311.43,-98.44 315.42,-104.2"/>
</g>
<!-- Node3 -->
<g id="node3" class="node">
<title>Node3</title>
<g id="a_node3"><a xlink:href="render__bonus_8h.html#a81fa5494e17be06ab12b226ff9dd7c2a" target="_top" xlink:title="Manipulates the active cone.">
<polygon fill="none" stroke="black" points="147,-114.5 147,-133.5 235,-133.5 235,-114.5 147,-114.5"/>
<text text-anchor="middle" x="191" y="-121.5" font-family="Helvetica,sans-Serif" font-size="10.00">ft_manip_cone</text>
</a>
</g>
</g>
<!-- Node1&#45;&gt;Node3 -->
<g id="edge2" class="edge">
<title>Node1&#45;&gt;Node3</title>
<path fill="none" stroke="midnightblue" d="M289.19,-98.17C269.41,-103.43 246.62,-109.49 228.07,-114.41"/>
<polygon fill="midnightblue" stroke="midnightblue" points="290.15,-101.54 298.92,-95.59 288.35,-94.77 290.15,-101.54"/>
</g>
<!-- Node5 -->
<g id="node5" class="node">
<title>Node5</title>
<g id="a_node5"><a xlink:href="render_8h.html#a2737927d8cc8ff5dc3bd94b3e11fc1a9" target="_top" xlink:title="Manipulates the active cylinder.">
<polygon fill="none" stroke="black" points="139,-76.5 139,-95.5 243,-95.5 243,-76.5 139,-76.5"/>
<text text-anchor="middle" x="191" y="-83.5" font-family="Helvetica,sans-Serif" font-size="10.00">ft_manip_cylinder</text>
</a>
</g>
</g>
<!-- Node1&#45;&gt;Node5 -->
<g id="edge4" class="edge">
<title>Node1&#45;&gt;Node5</title>
<path fill="none" stroke="midnightblue" d="M269.51,-86C260.75,-86 251.87,-86 243.39,-86"/>
<polygon fill="midnightblue" stroke="midnightblue" points="269.71,-89.5 279.71,-86 269.71,-82.5 269.71,-89.5"/>
</g>
<!-- Node6 -->
<g id="node6" class="node">
<title>Node6</title>
<g id="a_node6"><a xlink:href="render_8h.html#a16d57d13773703e93274caef6b5ccde1" target="_top" xlink:title="Manipulates a light source.">
<polygon fill="none" stroke="black" points="138,-38.5 138,-57.5 244,-57.5 244,-38.5 138,-38.5"/>
<text text-anchor="middle" x="191" y="-45.5" font-family="Helvetica,sans-Serif" font-size="10.00">ft_manip_light_src</text>
</a>
</g>
</g>
<!-- Node1&#45;&gt;Node6 -->
<g id="edge6" class="edge">
<title>Node1&#45;&gt;Node6</title>
<path fill="none" stroke="midnightblue" d="M289.19,-73.83C269.41,-68.57 246.62,-62.51 228.07,-57.59"/>
<polygon fill="midnightblue" stroke="midnightblue" points="288.35,-77.23 298.92,-76.41 290.15,-70.46 288.35,-77.23"/>
</g>
<!-- Node7 -->
<g id="node7" class="node">
<title>Node7</title>
<g id="a_node7"><a xlink:href="render_8h.html#a3af9cb325ad292f339446b63917a9ea2" target="_top" xlink:title="Manipulates the active sphere.">
<polygon fill="none" stroke="black" points="142,-0.5 142,-19.5 240,-19.5 240,-0.5 142,-0.5"/>
<text text-anchor="middle" x="191" y="-7.5" font-family="Helvetica,sans-Serif" font-size="10.00">ft_manip_sphere</text>
</a>
</g>
</g>
<!-- Node1&#45;&gt;Node7 -->
<g id="edge7" class="edge">
<title>Node1&#45;&gt;Node7</title>
<path fill="none" stroke="midnightblue" d="M313.06,-70.43C295.08,-58.12 268.67,-41.07 244,-29 236.83,-25.49 228.85,-22.26 221.33,-19.5"/>
<polygon fill="midnightblue" stroke="midnightblue" points="311.43,-73.56 321.64,-76.38 315.42,-67.8 311.43,-73.56"/>
</g>
<!-- Node4 -->
<g id="node4" class="node">
<title>Node4</title>
<g id="a_node4"><a xlink:href="render_8h.html#a58cfb6d04ac9120cc228cbc5411b2005" target="_top" xlink:title="Manipulates the active hittable.">
<polygon fill="none" stroke="black" points="0,-76.5 0,-95.5 102,-95.5 102,-76.5 0,-76.5"/>
<text text-anchor="middle" x="51" y="-83.5" font-family="Helvetica,sans-Serif" font-size="10.00">ft_manip_hittable</text>
</a>
</g>
</g>
<!-- Node3&#45;&gt;Node4 -->
<g id="edge3" class="edge">
<title>Node3&#45;&gt;Node4</title>
<path fill="none" stroke="midnightblue" d="M145.53,-111.75C126.51,-106.52 104.62,-100.49 86.81,-95.59"/>
<polygon fill="midnightblue" stroke="midnightblue" points="144.61,-115.13 155.18,-114.41 146.46,-108.38 144.61,-115.13"/>
</g>
<!-- Node5&#45;&gt;Node4 -->
<g id="edge5" class="edge">
<title>Node5&#45;&gt;Node4</title>
<path fill="none" stroke="midnightblue" d="M128.38,-86C119.57,-86 110.6,-86 102.05,-86"/>
<polygon fill="midnightblue" stroke="midnightblue" points="128.61,-89.5 138.61,-86 128.61,-82.5 128.61,-89.5"/>
</g>
<!-- Node7&#45;&gt;Node4 -->
<g id="edge8" class="edge">
<title>Node7&#45;&gt;Node4</title>
<path fill="none" stroke="midnightblue" d="M150.63,-23.26C146.3,-25.05 142.02,-26.97 138,-29 110.34,-42.97 80.79,-64.09 64.54,-76.32"/>
<polygon fill="midnightblue" stroke="midnightblue" points="152.02,-26.47 160.06,-19.58 149.48,-19.95 152.02,-26.47"/>
</g>
</g>
</svg>
