<?xml version="1.0" encoding="UTF-8" standalone="no"?>
<!DOCTYPE svg PUBLIC "-//W3C//DTD SVG 1.1//EN"
 "http://www.w3.org/Graphics/SVG/1.1/DTD/svg11.dtd">
<!-- Generated by graphviz version 2.43.0 (0)
 -->
<!-- Title: ft_manip_cylinder Pages: 1 -->
<!--zoomable 218 -->
<svg id="main" version="1.1" xmlns="http://www.w3.org/2000/svg" xmlns:xlink="http://www.w3.org/1999/xlink" xml:space="preserve" onload="init(evt)">
<style type="text/css"><![CDATA[
.edge:hover path { stroke: red; }
.edge:hover polygon { stroke: red; fill: red; }
]]></style>
<script type="text/javascript"><![CDATA[
var edges = document.getElementsByTagName('g');
if (edges && edges.length) {
  for (var i=0;i<edges.length;i++) {
    if (edges[i].id.substr(0,4)=='edge') {
      edges[i].setAttribute('class','edge');
    }
  }
}
]]></script>
        <defs>
                <circle id="rim" cx="0" cy="0" r="7"/>
                <circle id="rim2" cx="0" cy="0" r="3.5"/>
                <g id="zoomPlus">
                        <use xlink:href="#rim" fill="#404040">
                                <set attributeName="fill" to="#808080" begin="zoomplus.mouseover" end="zoomplus.mouseout"/>
                        </use>
                        <path d="M-4,0h8M0,-4v8" fill="none" stroke="white" stroke-width="1.5" pointer-events="none"/>
                </g>
                <g id="zoomMin">
                        <use xlink:href="#rim" fill="#404040">
                                <set attributeName="fill" to="#808080" begin="zoomminus.mouseover" end="zoomminus.mouseout"/>
                        </use>
                        <path d="M-4,0h8" fill="none" stroke="white" stroke-width="1.5" pointer-events="none"/>
                </g>
                <g id="dirArrow">
                        <path fill="none" stroke="white" stroke-width="1.5" d="M0,-3.0v7 M-2.5,-0.5L0,-3.0L2.5,-0.5"/>
                </g>
               <g id="resetDef">
                       <use xlink:href="#rim2" fill="#404040">
                               <set attributeName="fill" to="#808080" begin="reset.mouseover" end="reset.mouseout"/>
                       </use>
               </g>
        </defs>

<script type="text/javascript">
var viewWidth = 726;
var viewHeight = 218;
var sectionId = 'dynsection-30';
</script>
<script xlink:href="svgpan.js"/>
<svg id="graph" class="graph">
<g id="viewport">
<title>ft_manip_cylinder</title>
<!-- Node1 -->
<g id="node1" class="node">
<title>Node1</title>
<g id="a_node1"><a xlink:title="Manipulates the active cylinder.">
<polygon fill="#bfbfbf" stroke="black" points="0,-95.5 0,-114.5 104,-114.5 104,-95.5 0,-95.5"/>
<text text-anchor="middle" x="52" y="-102.5" font-family="Helvetica,sans-Serif" font-size="10.00">ft_manip_cylinder</text>
</a>
</g>
</g>
<!-- Node2 -->
<g id="node2" class="node">
<title>Node2</title>
<g id="a_node2"><a xlink:href="render_8h.html#a7f7526c1b74ae22e7d9f477e20a9890f" target="_top" xlink:title="Changes the colour with a keypress.">
<polygon fill="none" stroke="black" points="140,-190.5 140,-209.5 270,-209.5 270,-190.5 140,-190.5"/>
<text text-anchor="middle" x="205" y="-197.5" font-family="Helvetica,sans-Serif" font-size="10.00">ft_keyhook_change_col</text>
</a>
</g>
</g>
<!-- Node1&#45;&gt;Node2 -->
<g id="edge1" class="edge">
<title>Node1&#45;&gt;Node2</title>
<path fill="none" stroke="midnightblue" d="M61.39,-114.64C75.87,-130.7 107.15,-162.91 140,-181 143.99,-183.2 148.27,-185.17 152.64,-186.93"/>
<polygon fill="midnightblue" stroke="midnightblue" points="151.72,-190.32 162.32,-190.46 154.12,-183.74 151.72,-190.32"/>
</g>
<!-- Node6 -->
<g id="node6" class="node">
<title>Node6</title>
<g id="a_node6"><a xlink:href="render_8h.html#a7b262237fcbe352cb4ef79235666956b" target="_top" xlink:title="Increases or decreases a value with a keypress.">
<polygon fill="none" stroke="black" points="149,-152.5 149,-171.5 261,-171.5 261,-152.5 149,-152.5"/>
<text text-anchor="middle" x="205" y="-159.5" font-family="Helvetica,sans-Serif" font-size="10.00">ft_keyhook_inc_dec</text>
</a>
</g>
</g>
<!-- Node1&#45;&gt;Node6 -->
<g id="edge6" class="edge">
<title>Node1&#45;&gt;Node6</title>
<path fill="none" stroke="midnightblue" d="M73.1,-114.62C90.55,-122.77 116.62,-134.46 140,-143 146.07,-145.22 152.54,-147.37 158.94,-149.38"/>
<polygon fill="midnightblue" stroke="midnightblue" points="158.28,-152.84 168.87,-152.42 160.33,-146.15 158.28,-152.84"/>
</g>
<!-- Node7 -->
<g id="node7" class="node">
<title>Node7</title>
<g id="a_node7"><a xlink:href="render_8h.html#aa620096ce57b0280c8e9162eff12a938" target="_top" xlink:title="Moves a 3D point with a keypress.">
<polygon fill="none" stroke="black" points="144.5,-114.5 144.5,-133.5 265.5,-133.5 265.5,-114.5 144.5,-114.5"/>
<text text-anchor="middle" x="205" y="-121.5" font-family="Helvetica,sans-Serif" font-size="10.00">ft_keyhook_mv_point</text>
</a>
</g>
</g>
<!-- Node1&#45;&gt;Node7 -->
<g id="edge7" class="edge">
<title>Node1&#45;&gt;Node7</title>
<path fill="none" stroke="midnightblue" d="M104.12,-111.43C113.81,-112.65 124.1,-113.95 134.25,-115.22"/>
<polygon fill="midnightblue" stroke="midnightblue" points="133.97,-118.72 144.33,-116.49 134.84,-111.77 133.97,-118.72"/>
</g>
<!-- Node8 -->
<g id="node8" class="node">
<title>Node8</title>
<g id="a_node8"><a xlink:href="render_8h.html#a19285d1e97e1ac6d6d0708ecceb354ed" target="_top" xlink:title="Rotates a 3D vector with a keypress.">
<polygon fill="none" stroke="black" points="149.5,-76.5 149.5,-95.5 260.5,-95.5 260.5,-76.5 149.5,-76.5"/>
<text text-anchor="middle" x="205" y="-83.5" font-family="Helvetica,sans-Serif" font-size="10.00">ft_keyhook_rot_vec</text>
</a>
</g>
</g>
<!-- Node1&#45;&gt;Node8 -->
<g id="edge8" class="edge">
<title>Node1&#45;&gt;Node8</title>
<path fill="none" stroke="midnightblue" d="M104.12,-98.57C115.37,-97.15 127.43,-95.63 139.14,-94.16"/>
<polygon fill="midnightblue" stroke="midnightblue" points="139.83,-97.6 149.31,-92.88 138.95,-90.66 139.83,-97.6"/>
</g>
<!-- Node13 -->
<g id="node13" class="node">
<title>Node13</title>
<g id="a_node13"><a xlink:href="vec3_8h.html#ac80a1c20941c96a8fafad255dac59092" target="_top" xlink:title="Scale a vector.">
<polygon fill="none" stroke="black" points="622,-57.5 622,-76.5 705,-76.5 705,-57.5 622,-57.5"/>
<text text-anchor="middle" x="663.5" y="-64.5" font-family="Helvetica,sans-Serif" font-size="10.00">ft_vec3_scale</text>
</a>
</g>
</g>
<!-- Node1&#45;&gt;Node13 -->
<g id="edge18" class="edge">
<title>Node1&#45;&gt;Node13</title>
<path fill="none" stroke="midnightblue" d="M69.32,-95.43C86.31,-86.06 114.02,-72.43 140,-67 309.89,-31.52 517.69,-49.07 611.84,-60.21"/>
<polygon fill="midnightblue" stroke="midnightblue" points="611.59,-63.7 621.94,-61.43 612.43,-56.75 611.59,-63.7"/>
</g>
<!-- Node15 -->
<g id="node15" class="node">
<title>Node15</title>
<g id="a_node15"><a xlink:href="vec3_8h.html#a73e2caf4c2a51ed954b7349c6be2b3c3" target="_top" xlink:title="Add two vectors.">
<polygon fill="none" stroke="black" points="167.5,-0.5 167.5,-19.5 242.5,-19.5 242.5,-0.5 167.5,-0.5"/>
<text text-anchor="middle" x="205" y="-7.5" font-family="Helvetica,sans-Serif" font-size="10.00">ft_vec3_add</text>
</a>
</g>
</g>
<!-- Node1&#45;&gt;Node15 -->
<g id="edge17" class="edge">
<title>Node1&#45;&gt;Node15</title>
<path fill="none" stroke="midnightblue" d="M62.64,-95.31C77.9,-80.42 109.07,-51.78 140,-34 147.17,-29.88 155.18,-26.23 163.03,-23.09"/>
<polygon fill="midnightblue" stroke="midnightblue" points="164.36,-26.33 172.48,-19.52 161.89,-19.78 164.36,-26.33"/>
</g>
<!-- Node3 -->
<g id="node3" class="node">
<title>Node3</title>
<g id="a_node3"><a xlink:href="render__keyhook__colour_8c.html#a5d187c5314483276ba15560dcf620e39" target="_top" xlink:title="Returns a colour based on the given colour name.">
<polygon fill="none" stroke="black" points="623.5,-171.5 623.5,-190.5 703.5,-190.5 703.5,-171.5 623.5,-171.5"/>
<text text-anchor="middle" x="663.5" y="-178.5" font-family="Helvetica,sans-Serif" font-size="10.00">ft_get_colour</text>
</a>
</g>
</g>
<!-- Node2&#45;&gt;Node3 -->
<g id="edge2" class="edge">
<title>Node2&#45;&gt;Node3</title>
<path fill="none" stroke="midnightblue" d="M270.04,-199.67C343.33,-198.96 466.93,-196.77 573,-190 586.04,-189.17 600.11,-187.92 613.15,-186.61"/>
<polygon fill="midnightblue" stroke="midnightblue" points="613.75,-190.07 623.34,-185.56 613.04,-183.11 613.75,-190.07"/>
</g>
<!-- Node4 -->
<g id="node4" class="node">
<title>Node4</title>
<g id="a_node4"><a xlink:href="render__keyhook__colour_8c.html#a02dd1323bf99ad166e22cf0dcbef39f2" target="_top" xlink:title="Interpolates between two colours while keeping track of progress.">
<polygon fill="none" stroke="black" points="306,-161.5 306,-180.5 420,-180.5 420,-161.5 306,-161.5"/>
<text text-anchor="middle" x="363" y="-168.5" font-family="Helvetica,sans-Serif" font-size="10.00">ft_static_interpolate</text>
</a>
</g>
</g>
<!-- Node2&#45;&gt;Node4 -->
<g id="edge3" class="edge">
<title>Node2&#45;&gt;Node4</title>
<path fill="none" stroke="midnightblue" d="M257.51,-190.42C271.3,-187.86 286.33,-185.07 300.59,-182.42"/>
<polygon fill="midnightblue" stroke="midnightblue" points="301.62,-185.79 310.81,-180.52 300.34,-178.9 301.62,-185.79"/>
</g>
<!-- Node5 -->
<g id="node5" class="node">
<title>Node5</title>
<g id="a_node5"><a xlink:href="render__keyhook__colour_8c.html#a41e18bc0bce27f7169b29f79e5de0423" target="_top" xlink:title="Interpolates between two colours.">
<polygon fill="none" stroke="black" points="456,-161.5 456,-180.5 573,-180.5 573,-161.5 456,-161.5"/>
<text text-anchor="middle" x="514.5" y="-168.5" font-family="Helvetica,sans-Serif" font-size="10.00">ft_interpolate_colour</text>
</a>
</g>
</g>
<!-- Node4&#45;&gt;Node5 -->
<g id="edge4" class="edge">
<title>Node4&#45;&gt;Node5</title>
<path fill="none" stroke="midnightblue" d="M420.09,-171C428.34,-171 436.91,-171 445.37,-171"/>
<polygon fill="midnightblue" stroke="midnightblue" points="445.6,-174.5 455.6,-171 445.6,-167.5 445.6,-174.5"/>
</g>
<!-- Node5&#45;&gt;Node3 -->
<g id="edge5" class="edge">
<title>Node5&#45;&gt;Node3</title>
<path fill="none" stroke="midnightblue" d="M573.18,-174.92C586.38,-175.82 600.29,-176.77 613.11,-177.64"/>
<polygon fill="midnightblue" stroke="midnightblue" points="612.9,-181.13 623.12,-178.32 613.38,-174.15 612.9,-181.13"/>
</g>
<!-- Node9 -->
<g id="node9" class="node">
<title>Node9</title>
<g id="a_node9"><a xlink:href="utils_8h.html#a211f9d6535bb54bea2299ee5ea8a54a0" target="_top" xlink:title="Rotates a 3D vector around the x&#45;axis.">
<polygon fill="none" stroke="black" points="314,-114.5 314,-133.5 412,-133.5 412,-114.5 314,-114.5"/>
<text text-anchor="middle" x="363" y="-121.5" font-family="Helvetica,sans-Serif" font-size="10.00">ft_vec3_rotate_x</text>
</a>
</g>
</g>
<!-- Node8&#45;&gt;Node9 -->
<g id="edge9" class="edge">
<title>Node8&#45;&gt;Node9</title>
<path fill="none" stroke="midnightblue" d="M245.37,-95.59C265.95,-100.6 291.34,-106.79 313.17,-112.11"/>
<polygon fill="midnightblue" stroke="midnightblue" points="312.37,-115.51 322.92,-114.48 314.03,-108.71 312.37,-115.51"/>
</g>
<!-- Node14 -->
<g id="node14" class="node">
<title>Node14</title>
<g id="a_node14"><a xlink:href="utils_8h.html#ac8a4ca6fb927e3746e7129f8eb04aa46" target="_top" xlink:title="Rotates a 3D vector around the y&#45;axis.">
<polygon fill="none" stroke="black" points="314,-76.5 314,-95.5 412,-95.5 412,-76.5 314,-76.5"/>
<text text-anchor="middle" x="363" y="-83.5" font-family="Helvetica,sans-Serif" font-size="10.00">ft_vec3_rotate_y</text>
</a>
</g>
</g>
<!-- Node8&#45;&gt;Node14 -->
<g id="edge14" class="edge">
<title>Node8&#45;&gt;Node14</title>
<path fill="none" stroke="midnightblue" d="M260.56,-86C274.56,-86 289.67,-86 303.84,-86"/>
<polygon fill="midnightblue" stroke="midnightblue" points="303.97,-89.5 313.97,-86 303.97,-82.5 303.97,-89.5"/>
</g>
<!-- Node10 -->
<g id="node10" class="node">
<title>Node10</title>
<g id="a_node10"><a xlink:href="utils_8h.html#a7d1328722f9dc6edd652f7c732856ae9" target="_top" xlink:title="Transforms degrees into radian.">
<polygon fill="none" stroke="black" points="458,-76.5 458,-95.5 571,-95.5 571,-76.5 458,-76.5"/>
<text text-anchor="middle" x="514.5" y="-83.5" font-family="Helvetica,sans-Serif" font-size="10.00">ft_degree_to_radian</text>
</a>
</g>
</g>
<!-- Node9&#45;&gt;Node10 -->
<g id="edge10" class="edge">
<title>Node9&#45;&gt;Node10</title>
<path fill="none" stroke="midnightblue" d="M401.73,-114.41C421.28,-109.44 445.35,-103.32 466.14,-98.04"/>
<polygon fill="midnightblue" stroke="midnightblue" points="467.22,-101.38 476.05,-95.52 465.49,-94.59 467.22,-101.38"/>
</g>
<!-- Node11 -->
<g id="node11" class="node">
<title>Node11</title>
<g id="a_node11"><a xlink:href="utils__quaternion_8c.html#a4b67c731c02a7ba35f27473295bfb753" target="_top" xlink:title="Performs a rotation of a given vector around an axis by a given angle.">
<polygon fill="none" stroke="black" points="464.5,-114.5 464.5,-133.5 564.5,-133.5 564.5,-114.5 464.5,-114.5"/>
<text text-anchor="middle" x="514.5" y="-121.5" font-family="Helvetica,sans-Serif" font-size="10.00">ft_quaternion_rot</text>
</a>
</g>
</g>
<!-- Node9&#45;&gt;Node11 -->
<g id="edge11" class="edge">
<title>Node9&#45;&gt;Node11</title>
<path fill="none" stroke="midnightblue" d="M412.13,-124C425.59,-124 440.38,-124 454.4,-124"/>
<polygon fill="midnightblue" stroke="midnightblue" points="454.44,-127.5 464.44,-124 454.44,-120.5 454.44,-127.5"/>
</g>
<!-- Node12 -->
<g id="node12" class="node">
<title>Node12</title>
<g id="a_node12"><a xlink:href="utils__quaternion_8c.html#a15b6fa9c749e827cd1d52bf1c8e0a8f3" target="_top" xlink:title="Performs quaternion multiplication.">
<polygon fill="none" stroke="black" points="609,-114.5 609,-133.5 718,-133.5 718,-114.5 609,-114.5"/>
<text text-anchor="middle" x="663.5" y="-121.5" font-family="Helvetica,sans-Serif" font-size="10.00">ft_quaternion_mult</text>
</a>
</g>
</g>
<!-- Node11&#45;&gt;Node12 -->
<g id="edge12" class="edge">
<title>Node11&#45;&gt;Node12</title>
<path fill="none" stroke="midnightblue" d="M564.86,-124C575.71,-124 587.36,-124 598.69,-124"/>
<polygon fill="midnightblue" stroke="midnightblue" points="598.98,-127.5 608.98,-124 598.98,-120.5 598.98,-127.5"/>
</g>
<!-- Node11&#45;&gt;Node13 -->
<g id="edge13" class="edge">
<title>Node11&#45;&gt;Node13</title>
<path fill="none" stroke="midnightblue" d="M546.1,-114.41C554.84,-111.53 564.34,-108.26 573,-105 592.81,-97.54 614.68,-88.27 631.85,-80.75"/>
<polygon fill="midnightblue" stroke="midnightblue" points="633.62,-83.8 641.36,-76.56 630.8,-77.39 633.62,-83.8"/>
</g>
<!-- Node14&#45;&gt;Node10 -->
<g id="edge15" class="edge">
<title>Node14&#45;&gt;Node10</title>
<path fill="none" stroke="midnightblue" d="M412.13,-86C423.53,-86 435.88,-86 447.92,-86"/>
<polygon fill="midnightblue" stroke="midnightblue" points="447.92,-89.5 457.92,-86 447.92,-82.5 447.92,-89.5"/>
</g>
<!-- Node14&#45;&gt;Node11 -->
<g id="edge16" class="edge">
<title>Node14&#45;&gt;Node11</title>
<path fill="none" stroke="midnightblue" d="M401.73,-95.59C421.28,-100.56 445.35,-106.68 466.14,-111.96"/>
<polygon fill="midnightblue" stroke="midnightblue" points="465.49,-115.41 476.05,-114.48 467.22,-108.62 465.49,-115.41"/>
</g>
</g>
</svg>
        <g id="navigator" transform="translate(0 0)" fill="#404254">
                <rect fill="#f2f5e9" fill-opacity="0.5" stroke="#606060" stroke-width=".5" x="0" y="0" width="60" height="60"/>
                <use id="zoomplus" xlink:href="#zoomPlus" x="17" y="9" onmousedown="handleZoom(evt,'in')"/>
                <use id="zoomminus" xlink:href="#zoomMin" x="42" y="9" onmousedown="handleZoom(evt,'out')"/>
                <use id="reset" xlink:href="#resetDef" x="30" y="36" onmousedown="handleReset()"/>
                <g id="arrowUp" xlink:href="#dirArrow" transform="translate(30 24)" onmousedown="handlePan(0,-1)">
                  <use xlink:href="#rim" fill="#404040">
                        <set attributeName="fill" to="#808080" begin="arrowUp.mouseover" end="arrowUp.mouseout"/>
                  </use>
                  <path fill="none" stroke="white" stroke-width="1.5" d="M0,-3.0v7 M-2.5,-0.5L0,-3.0L2.5,-0.5"/>
                </g>
                <g id="arrowRight" xlink:href="#dirArrow" transform="rotate(90) translate(36 -43)" onmousedown="handlePan(1,0)">
                  <use xlink:href="#rim" fill="#404040">
                        <set attributeName="fill" to="#808080" begin="arrowRight.mouseover" end="arrowRight.mouseout"/>
                  </use>
                  <path fill="none" stroke="white" stroke-width="1.5" d="M0,-3.0v7 M-2.5,-0.5L0,-3.0L2.5,-0.5"/>
                </g>
                <g id="arrowDown" xlink:href="#dirArrow" transform="rotate(180) translate(-30 -48)" onmousedown="handlePan(0,1)">
                  <use xlink:href="#rim" fill="#404040">
                        <set attributeName="fill" to="#808080" begin="arrowDown.mouseover" end="arrowDown.mouseout"/>
                  </use>
                  <path fill="none" stroke="white" stroke-width="1.5" d="M0,-3.0v7 M-2.5,-0.5L0,-3.0L2.5,-0.5"/>
                </g>
                <g id="arrowLeft" xlink:href="#dirArrow" transform="rotate(270) translate(-36 17)" onmousedown="handlePan(-1,0)">
                  <use xlink:href="#rim" fill="#404040">
                        <set attributeName="fill" to="#808080" begin="arrowLeft.mouseover" end="arrowLeft.mouseout"/>
                  </use>
                  <path fill="none" stroke="white" stroke-width="1.5" d="M0,-3.0v7 M-2.5,-0.5L0,-3.0L2.5,-0.5"/>
                </g>
        </g>
        <svg viewBox="0 0 15 15" width="100%" height="30px" preserveAspectRatio="xMaxYMin meet">
         <g id="arrow_out" transform="scale(0.3 0.3)">
          <a xlink:href="render_8h_a2737927d8cc8ff5dc3bd94b3e11fc1a9_cgraph_org.svg" target="_base">
           <rect id="button" ry="5" rx="5" y="6" x="6" height="38" width="38"
                fill="#f2f5e9" fill-opacity="0.5" stroke="#606060" stroke-width="1.0"/>
           <path id="arrow"
             d="M 11.500037,31.436501 C 11.940474,20.09759 22.043105,11.32322 32.158766,21.979434 L 37.068811,17.246167 C 37.068811,17.246167 37.088388,32 37.088388,32 L 22.160133,31.978069 C 22.160133,31.978069 26.997745,27.140456 26.997745,27.140456 C 18.528582,18.264221 13.291696,25.230495 11.500037,31.436501 z"
             style="fill:#404040;"/>
          </a>
         </g>
        </svg>
</svg>
