<?xml version="1.0" encoding="UTF-8" standalone="no"?>
<!DOCTYPE svg PUBLIC "-//W3C//DTD SVG 1.1//EN"
 "http://www.w3.org/Graphics/SVG/1.1/DTD/svg11.dtd">
<!-- Generated by graphviz version 2.43.0 (0)
 -->
<!-- Title: inc/render.h Pages: 1 -->
<svg width="1995pt" height="95pt"
 viewBox="0.00 0.00 1995.00 95.00" xmlns="http://www.w3.org/2000/svg" xmlns:xlink="http://www.w3.org/1999/xlink">
<g id="graph0" class="graph" transform="scale(1 1) rotate(0) translate(4 91)">
<title>inc/render.h</title>
<!-- Node1 -->
<g id="node1" class="node">
<title>Node1</title>
<g id="a_node1"><a xlink:title=" ">
<polygon fill="#bfbfbf" stroke="black" points="972,-67.5 972,-86.5 1046,-86.5 1046,-67.5 972,-67.5"/>
<text text-anchor="middle" x="1009" y="-74.5" font-family="Helvetica,sans-Serif" font-size="10.00">inc/render.h</text>
</a>
</g>
</g>
<!-- Node2 -->
<g id="node2" class="node">
<title>Node2</title>
<g id="a_node2"><a xlink:href="render__blend__background_8c.html" target="_top" xlink:title=" ">
<polygon fill="none" stroke="black" points="0,-6 0,-25 168,-25 168,-6 0,-6"/>
<text text-anchor="middle" x="84" y="-13" font-family="Helvetica,sans-Serif" font-size="10.00">src/render_blend_background.c</text>
</a>
</g>
</g>
<!-- Node1&#45;&gt;Node2 -->
<g id="edge1" class="edge">
<title>Node1&#45;&gt;Node2</title>
<path fill="none" stroke="midnightblue" d="M961.83,-75.11C834.75,-72.36 474.71,-62.18 177,-31 162.54,-29.49 146.89,-27.27 132.63,-25.03"/>
<polygon fill="midnightblue" stroke="midnightblue" points="961.92,-78.61 971.99,-75.33 962.07,-71.61 961.92,-78.61"/>
</g>
<!-- Node3 -->
<g id="node3" class="node">
<title>Node3</title>
<g id="a_node3"><a xlink:href="render__cleanup_8c.html" target="_top" xlink:title=" ">
<polygon fill="none" stroke="black" points="186.5,-6 186.5,-25 303.5,-25 303.5,-6 186.5,-6"/>
<text text-anchor="middle" x="245" y="-13" font-family="Helvetica,sans-Serif" font-size="10.00">src/render_cleanup.c</text>
</a>
</g>
</g>
<!-- Node1&#45;&gt;Node3 -->
<g id="edge2" class="edge">
<title>Node1&#45;&gt;Node3</title>
<path fill="none" stroke="midnightblue" d="M961.82,-75.31C849.11,-73.16 555.52,-64.51 313,-31 302.24,-29.51 290.64,-27.28 280.12,-25.01"/>
<polygon fill="midnightblue" stroke="midnightblue" points="961.77,-78.81 971.84,-75.5 961.9,-71.81 961.77,-78.81"/>
</g>
<!-- Node4 -->
<g id="node4" class="node">
<title>Node4</title>
<g id="a_node4"><a xlink:href="render__draw_8c.html" target="_top" xlink:title=" ">
<polygon fill="none" stroke="black" points="322,-6 322,-25 424,-25 424,-6 322,-6"/>
<text text-anchor="middle" x="373" y="-13" font-family="Helvetica,sans-Serif" font-size="10.00">src/render_draw.c</text>
</a>
</g>
</g>
<!-- Node1&#45;&gt;Node4 -->
<g id="edge3" class="edge">
<title>Node1&#45;&gt;Node4</title>
<path fill="none" stroke="midnightblue" d="M961.43,-74.84C862.48,-71.87 627.5,-61.9 433,-31 423.58,-29.5 413.46,-27.3 404.26,-25.05"/>
<polygon fill="midnightblue" stroke="midnightblue" points="961.6,-78.35 971.7,-75.14 961.8,-71.35 961.6,-78.35"/>
</g>
<!-- Node5 -->
<g id="node5" class="node">
<title>Node5</title>
<g id="a_node5"><a xlink:href="render__init_8c.html" target="_top" xlink:title=" ">
<polygon fill="none" stroke="black" points="442.5,-6 442.5,-25 537.5,-25 537.5,-6 442.5,-6"/>
<text text-anchor="middle" x="490" y="-13" font-family="Helvetica,sans-Serif" font-size="10.00">src/render_init.c</text>
</a>
</g>
</g>
<!-- Node1&#45;&gt;Node5 -->
<g id="edge4" class="edge">
<title>Node1&#45;&gt;Node5</title>
<path fill="none" stroke="midnightblue" d="M961.81,-73.86C877.71,-69.49 696.58,-57.64 546,-31 537.3,-29.46 527.96,-27.27 519.45,-25.05"/>
<polygon fill="midnightblue" stroke="midnightblue" points="961.66,-77.35 971.82,-74.36 962.01,-70.36 961.66,-77.35"/>
</g>
<!-- Node6 -->
<g id="node6" class="node">
<title>Node6</title>
<g id="a_node6"><a xlink:href="render__init__mlx_8c.html" target="_top" xlink:title=" ">
<polygon fill="none" stroke="black" points="555.5,-6 555.5,-25 674.5,-25 674.5,-6 555.5,-6"/>
<text text-anchor="middle" x="615" y="-13" font-family="Helvetica,sans-Serif" font-size="10.00">src/render_init_mlx.c</text>
</a>
</g>
</g>
<!-- Node1&#45;&gt;Node6 -->
<g id="edge5" class="edge">
<title>Node1&#45;&gt;Node6</title>
<path fill="none" stroke="midnightblue" d="M961.74,-70.5C898.34,-62.89 782.34,-48.12 684,-31 673.99,-29.26 663.22,-27.12 653.23,-25.03"/>
<polygon fill="midnightblue" stroke="midnightblue" points="961.48,-74 971.83,-71.71 962.31,-67.05 961.48,-74"/>
</g>
<!-- Node7 -->
<g id="node7" class="node">
<title>Node7</title>
<g id="a_node7"><a xlink:href="render__keyhook__camera_8c.html" target="_top" xlink:title=" ">
<polygon fill="none" stroke="black" points="693,-0.5 693,-30.5 805,-30.5 805,-0.5 693,-0.5"/>
<text text-anchor="start" x="701" y="-18.5" font-family="Helvetica,sans-Serif" font-size="10.00">src/render_keyhook</text>
<text text-anchor="middle" x="749" y="-7.5" font-family="Helvetica,sans-Serif" font-size="10.00">_camera.c</text>
</a>
</g>
</g>
<!-- Node1&#45;&gt;Node7 -->
<g id="edge6" class="edge">
<title>Node1&#45;&gt;Node7</title>
<path fill="none" stroke="midnightblue" d="M961.88,-65.22C917.86,-55.14 852.1,-40.09 805.33,-29.39"/>
<polygon fill="midnightblue" stroke="midnightblue" points="961.22,-68.66 971.75,-67.48 962.78,-61.83 961.22,-68.66"/>
</g>
<!-- Node8 -->
<g id="node8" class="node">
<title>Node8</title>
<g id="a_node8"><a xlink:href="render__keyhook__colour_8c.html" target="_top" xlink:title=" ">
<polygon fill="none" stroke="black" points="823,-0.5 823,-30.5 935,-30.5 935,-0.5 823,-0.5"/>
<text text-anchor="start" x="831" y="-18.5" font-family="Helvetica,sans-Serif" font-size="10.00">src/render_keyhook</text>
<text text-anchor="middle" x="879" y="-7.5" font-family="Helvetica,sans-Serif" font-size="10.00">_colour.c</text>
</a>
</g>
</g>
<!-- Node1&#45;&gt;Node8 -->
<g id="edge7" class="edge">
<title>Node1&#45;&gt;Node8</title>
<path fill="none" stroke="midnightblue" d="M981.03,-63.2C960.03,-53.58 931.27,-40.42 909.64,-30.52"/>
<polygon fill="midnightblue" stroke="midnightblue" points="979.82,-66.5 990.37,-67.48 982.74,-60.13 979.82,-66.5"/>
</g>
<!-- Node9 -->
<g id="node9" class="node">
<title>Node9</title>
<g id="a_node9"><a xlink:href="render__keyhook__hittable_8c.html" target="_top" xlink:title=" ">
<polygon fill="none" stroke="black" points="953,-0.5 953,-30.5 1065,-30.5 1065,-0.5 953,-0.5"/>
<text text-anchor="start" x="961" y="-18.5" font-family="Helvetica,sans-Serif" font-size="10.00">src/render_keyhook</text>
<text text-anchor="middle" x="1009" y="-7.5" font-family="Helvetica,sans-Serif" font-size="10.00">_hittable.c</text>
</a>
</g>
</g>
<!-- Node1&#45;&gt;Node9 -->
<g id="edge8" class="edge">
<title>Node1&#45;&gt;Node9</title>
<path fill="none" stroke="midnightblue" d="M1009,-57.23C1009,-48.59 1009,-38.5 1009,-30.52"/>
<polygon fill="midnightblue" stroke="midnightblue" points="1005.5,-57.48 1009,-67.48 1012.5,-57.48 1005.5,-57.48"/>
</g>
<!-- Node10 -->
<g id="node10" class="node">
<title>Node10</title>
<g id="a_node10"><a xlink:href="render__keyhook__light_8c.html" target="_top" xlink:title=" ">
<polygon fill="none" stroke="black" points="1083,-0.5 1083,-30.5 1195,-30.5 1195,-0.5 1083,-0.5"/>
<text text-anchor="start" x="1091" y="-18.5" font-family="Helvetica,sans-Serif" font-size="10.00">src/render_keyhook</text>
<text text-anchor="middle" x="1139" y="-7.5" font-family="Helvetica,sans-Serif" font-size="10.00">_light.c</text>
</a>
</g>
</g>
<!-- Node1&#45;&gt;Node10 -->
<g id="edge9" class="edge">
<title>Node1&#45;&gt;Node10</title>
<path fill="none" stroke="midnightblue" d="M1036.97,-63.2C1057.97,-53.58 1086.73,-40.42 1108.36,-30.52"/>
<polygon fill="midnightblue" stroke="midnightblue" points="1035.26,-60.13 1027.63,-67.48 1038.18,-66.5 1035.26,-60.13"/>
</g>
<!-- Node11 -->
<g id="node11" class="node">
<title>Node11</title>
<g id="a_node11"><a xlink:href="render__keyhook__options_8c.html" target="_top" xlink:title=" ">
<polygon fill="none" stroke="black" points="1213,-0.5 1213,-30.5 1325,-30.5 1325,-0.5 1213,-0.5"/>
<text text-anchor="start" x="1221" y="-18.5" font-family="Helvetica,sans-Serif" font-size="10.00">src/render_keyhook</text>
<text text-anchor="middle" x="1269" y="-7.5" font-family="Helvetica,sans-Serif" font-size="10.00">_options.c</text>
</a>
</g>
</g>
<!-- Node1&#45;&gt;Node11 -->
<g id="edge10" class="edge">
<title>Node1&#45;&gt;Node11</title>
<path fill="none" stroke="midnightblue" d="M1056.12,-65.22C1100.14,-55.14 1165.9,-40.09 1212.67,-29.39"/>
<polygon fill="midnightblue" stroke="midnightblue" points="1055.22,-61.83 1046.25,-67.48 1056.78,-68.66 1055.22,-61.83"/>
</g>
<!-- Node12 -->
<g id="node12" class="node">
<title>Node12</title>
<g id="a_node12"><a xlink:href="render__keyhook__press_8c.html" target="_top" xlink:title=" ">
<polygon fill="none" stroke="black" points="1343,-0.5 1343,-30.5 1455,-30.5 1455,-0.5 1343,-0.5"/>
<text text-anchor="start" x="1351" y="-18.5" font-family="Helvetica,sans-Serif" font-size="10.00">src/render_keyhook</text>
<text text-anchor="middle" x="1399" y="-7.5" font-family="Helvetica,sans-Serif" font-size="10.00">_press.c</text>
</a>
</g>
</g>
<!-- Node1&#45;&gt;Node12 -->
<g id="edge11" class="edge">
<title>Node1&#45;&gt;Node12</title>
<path fill="none" stroke="midnightblue" d="M1056.29,-70.68C1119.73,-63.27 1235.76,-48.73 1334,-31 1336.84,-30.49 1339.75,-29.94 1342.69,-29.36"/>
<polygon fill="midnightblue" stroke="midnightblue" points="1055.73,-67.23 1046.2,-71.85 1056.54,-74.18 1055.73,-67.23"/>
</g>
<!-- Node13 -->
<g id="node13" class="node">
<title>Node13</title>
<g id="a_node13"><a xlink:href="render__keyhook__scene_8c.html" target="_top" xlink:title=" ">
<polygon fill="none" stroke="black" points="1473,-0.5 1473,-30.5 1585,-30.5 1585,-0.5 1473,-0.5"/>
<text text-anchor="start" x="1481" y="-18.5" font-family="Helvetica,sans-Serif" font-size="10.00">src/render_keyhook</text>
<text text-anchor="middle" x="1529" y="-7.5" font-family="Helvetica,sans-Serif" font-size="10.00">_scene.c</text>
</a>
</g>
</g>
<!-- Node1&#45;&gt;Node13 -->
<g id="edge12" class="edge">
<title>Node1&#45;&gt;Node13</title>
<path fill="none" stroke="midnightblue" d="M1056.17,-73.22C1139.06,-67.92 1316.12,-54.72 1464,-31 1466.85,-30.54 1469.77,-30.04 1472.71,-29.49"/>
<polygon fill="midnightblue" stroke="midnightblue" points="1055.82,-69.74 1046.06,-73.86 1056.26,-76.72 1055.82,-69.74"/>
</g>
<!-- Node14 -->
<g id="node14" class="node">
<title>Node14</title>
<g id="a_node14"><a xlink:href="render__keyhook__utils_8c.html" target="_top" xlink:title=" ">
<polygon fill="none" stroke="black" points="1603,-0.5 1603,-30.5 1715,-30.5 1715,-0.5 1603,-0.5"/>
<text text-anchor="start" x="1611" y="-18.5" font-family="Helvetica,sans-Serif" font-size="10.00">src/render_keyhook</text>
<text text-anchor="middle" x="1659" y="-7.5" font-family="Helvetica,sans-Serif" font-size="10.00">_utils.c</text>
</a>
</g>
</g>
<!-- Node1&#45;&gt;Node14 -->
<g id="edge13" class="edge">
<title>Node1&#45;&gt;Node14</title>
<path fill="none" stroke="midnightblue" d="M1056.23,-74.65C1156.03,-71.3 1395.5,-60.62 1594,-31 1596.86,-30.57 1599.78,-30.09 1602.72,-29.57"/>
<polygon fill="midnightblue" stroke="midnightblue" points="1056.05,-71.16 1046.17,-74.98 1056.27,-78.15 1056.05,-71.16"/>
</g>
<!-- Node15 -->
<g id="node15" class="node">
<title>Node15</title>
<g id="a_node15"><a xlink:href="render__loop__mlx_8c.html" target="_top" xlink:title=" ">
<polygon fill="none" stroke="black" points="1733,-6 1733,-25 1857,-25 1857,-6 1733,-6"/>
<text text-anchor="middle" x="1795" y="-13" font-family="Helvetica,sans-Serif" font-size="10.00">src/render_loop_mlx.c</text>
</a>
</g>
</g>
<!-- Node1&#45;&gt;Node15 -->
<g id="edge14" class="edge">
<title>Node1&#45;&gt;Node15</title>
<path fill="none" stroke="midnightblue" d="M1056.21,-75.29C1171.03,-73.06 1473.82,-64.26 1724,-31 1735.22,-29.51 1747.33,-27.27 1758.31,-25"/>
<polygon fill="midnightblue" stroke="midnightblue" points="1055.95,-71.79 1046.01,-75.48 1056.08,-78.79 1055.95,-71.79"/>
</g>
<!-- Node16 -->
<g id="node16" class="node">
<title>Node16</title>
<g id="a_node16"><a xlink:href="render__mouse_8c.html" target="_top" xlink:title=" ">
<polygon fill="none" stroke="black" points="1875,-6 1875,-25 1987,-25 1987,-6 1875,-6"/>
<text text-anchor="middle" x="1931" y="-13" font-family="Helvetica,sans-Serif" font-size="10.00">src/render_mouse.c</text>
</a>
</g>
</g>
<!-- Node1&#45;&gt;Node16 -->
<g id="edge15" class="edge">
<title>Node1&#45;&gt;Node16</title>
<path fill="none" stroke="midnightblue" d="M1056.4,-76.28C1186.45,-76.45 1559.51,-72.93 1866,-31 1876.42,-29.57 1887.65,-27.33 1897.79,-25.03"/>
<polygon fill="midnightblue" stroke="midnightblue" points="1056.39,-72.78 1046.38,-76.26 1056.37,-79.78 1056.39,-72.78"/>
</g>
</g>
</svg>
