<?xml version="1.0" encoding="UTF-8" standalone="no"?>
<!DOCTYPE svg PUBLIC "-//W3C//DTD SVG 1.1//EN"
 "http://www.w3.org/Graphics/SVG/1.1/DTD/svg11.dtd">
<!-- Generated by graphviz version 2.43.0 (0)
 -->
<!-- Title: ft_manip_cam Pages: 1 -->
<svg width="764pt" height="408pt"
 viewBox="0.00 0.00 764.00 408.00" xmlns="http://www.w3.org/2000/svg" xmlns:xlink="http://www.w3.org/1999/xlink">
<g id="graph0" class="graph" transform="scale(1 1) rotate(0) translate(4 404)">
<title>ft_manip_cam</title>
<!-- Node1 -->
<g id="node1" class="node">
<title>Node1</title>
<g id="a_node1"><a xlink:title="Manipulates the camera with a keypress.">
<polygon fill="#bfbfbf" stroke="black" points="0,-190.5 0,-209.5 86,-209.5 86,-190.5 0,-190.5"/>
<text text-anchor="middle" x="43" y="-197.5" font-family="Helvetica,sans-Serif" font-size="10.00">ft_manip_cam</text>
</a>
</g>
</g>
<!-- Node2 -->
<g id="node2" class="node">
<title>Node2</title>
<g id="a_node2"><a xlink:href="camera_8h.html#a02ed3f7206927a02c44eab5f5aba26e1" target="_top" xlink:title="Calculates basis vectors u, v, w.">
<polygon fill="none" stroke="black" points="122,-228.5 122,-247.5 266,-247.5 266,-228.5 122,-228.5"/>
<text text-anchor="middle" x="194" y="-235.5" font-family="Helvetica,sans-Serif" font-size="10.00">ft_cam_calc_base_vectors</text>
</a>
</g>
</g>
<!-- Node1&#45;&gt;Node2 -->
<g id="edge1" class="edge">
<title>Node1&#45;&gt;Node2</title>
<path fill="none" stroke="midnightblue" d="M81.6,-209.59C101.08,-214.56 125.07,-220.68 145.8,-225.96"/>
<polygon fill="midnightblue" stroke="midnightblue" points="145.12,-229.4 155.67,-228.48 146.85,-222.62 145.12,-229.4"/>
</g>
<!-- Node5 -->
<g id="node5" class="node">
<title>Node5</title>
<g id="a_node5"><a xlink:href="camera_8h.html#a96132dcb4eac578fbee24bbf591fe090" target="_top" xlink:title="Calculates the pixel grid parameters of the viewport.">
<polygon fill="none" stroke="black" points="471.5,-380.5 471.5,-399.5 598.5,-399.5 598.5,-380.5 471.5,-380.5"/>
<text text-anchor="middle" x="535" y="-387.5" font-family="Helvetica,sans-Serif" font-size="10.00">ft_cam_calc_pixel_grid</text>
</a>
</g>
</g>
<!-- Node1&#45;&gt;Node5 -->
<g id="edge4" class="edge">
<title>Node1&#45;&gt;Node5</title>
<path fill="none" stroke="midnightblue" d="M49.25,-209.54C60.16,-228.44 87.2,-270.64 122,-292 228.38,-357.3 374.87,-379.09 461.48,-386.36"/>
<polygon fill="midnightblue" stroke="midnightblue" points="461.23,-389.85 471.48,-387.16 461.79,-382.87 461.23,-389.85"/>
</g>
<!-- Node8 -->
<g id="node8" class="node">
<title>Node8</title>
<g id="a_node8"><a xlink:href="camera_8h.html#acf892f39174bd3b89ad83a6e901a7b4f" target="_top" xlink:title="Calculates viewport dimensions.">
<polygon fill="none" stroke="black" points="133,-27 133,-57 255,-57 255,-27 133,-27"/>
<text text-anchor="start" x="141" y="-45" font-family="Helvetica,sans-Serif" font-size="10.00">ft_cam_calc_viewport</text>
<text text-anchor="middle" x="194" y="-34" font-family="Helvetica,sans-Serif" font-size="10.00">_dimensions</text>
</a>
</g>
</g>
<!-- Node1&#45;&gt;Node8 -->
<g id="edge8" class="edge">
<title>Node1&#45;&gt;Node8</title>
<path fill="none" stroke="midnightblue" d="M47.01,-190.42C55.11,-166.19 79.66,-101.91 122,-67 124.03,-65.33 126.18,-63.76 128.42,-62.3"/>
<polygon fill="midnightblue" stroke="midnightblue" points="130.48,-65.15 137.42,-57.15 127,-59.08 130.48,-65.15"/>
</g>
<!-- Node9 -->
<g id="node9" class="node">
<title>Node9</title>
<g id="a_node9"><a xlink:href="render__keyhook__camera_8c.html#aafd27cf2b06772ec739aa2e97164d8b6" target="_top" xlink:title="Changes the camera FOV with a keypress.">
<polygon fill="none" stroke="black" points="135.5,-76.5 135.5,-95.5 252.5,-95.5 252.5,-76.5 135.5,-76.5"/>
<text text-anchor="middle" x="194" y="-83.5" font-family="Helvetica,sans-Serif" font-size="10.00">ft_keyhook_fov_cam</text>
</a>
</g>
</g>
<!-- Node1&#45;&gt;Node9 -->
<g id="edge9" class="edge">
<title>Node1&#45;&gt;Node9</title>
<path fill="none" stroke="midnightblue" d="M56.45,-190.48C82.02,-170.91 140.71,-126.01 172.17,-101.94"/>
<polygon fill="midnightblue" stroke="midnightblue" points="174.46,-104.59 180.27,-95.74 170.2,-99.03 174.46,-104.59"/>
</g>
<!-- Node12 -->
<g id="node12" class="node">
<title>Node12</title>
<g id="a_node12"><a xlink:href="render__keyhook__camera_8c.html#ab974018238f1a6e6a86b44e139f5d672" target="_top" xlink:title="Moves the camera with a keypress.">
<polygon fill="none" stroke="black" points="302,-304.5 302,-323.5 431,-323.5 431,-304.5 302,-304.5"/>
<text text-anchor="middle" x="366.5" y="-311.5" font-family="Helvetica,sans-Serif" font-size="10.00">ft_keyhook_move_cam</text>
</a>
</g>
</g>
<!-- Node1&#45;&gt;Node12 -->
<g id="edge12" class="edge">
<title>Node1&#45;&gt;Node12</title>
<path fill="none" stroke="midnightblue" d="M54.23,-209.61C68.37,-222.36 95.17,-244.68 122,-257 176.17,-281.88 242.27,-296.46 291.93,-304.64"/>
<polygon fill="midnightblue" stroke="midnightblue" points="291.52,-308.12 301.95,-306.25 292.62,-301.21 291.52,-308.12"/>
</g>
<!-- Node16 -->
<g id="node16" class="node">
<title>Node16</title>
<g id="a_node16"><a xlink:href="render__keyhook__camera_8c.html#a492035e87e08c0c7a9e93a3fe4605cc2" target="_top" xlink:title="Rotates the camera with a keypress.">
<polygon fill="none" stroke="black" points="136.5,-152.5 136.5,-171.5 251.5,-171.5 251.5,-152.5 136.5,-152.5"/>
<text text-anchor="middle" x="194" y="-159.5" font-family="Helvetica,sans-Serif" font-size="10.00">ft_keyhook_rot_cam</text>
</a>
</g>
</g>
<!-- Node1&#45;&gt;Node16 -->
<g id="edge22" class="edge">
<title>Node1&#45;&gt;Node16</title>
<path fill="none" stroke="midnightblue" d="M81.6,-190.41C101.08,-185.44 125.07,-179.32 145.8,-174.04"/>
<polygon fill="midnightblue" stroke="midnightblue" points="146.85,-177.38 155.67,-171.52 145.12,-170.6 146.85,-177.38"/>
</g>
<!-- Node3 -->
<g id="node3" class="node">
<title>Node3</title>
<g id="a_node3"><a xlink:href="vec3_8h.html#a19bc1d17592698776e89a5093110320c" target="_top" xlink:title="Calculate the cross product of two vectors.">
<polygon fill="none" stroke="black" points="325,-266.5 325,-285.5 408,-285.5 408,-266.5 325,-266.5"/>
<text text-anchor="middle" x="366.5" y="-273.5" font-family="Helvetica,sans-Serif" font-size="10.00">ft_vec3_cross</text>
</a>
</g>
</g>
<!-- Node2&#45;&gt;Node3 -->
<g id="edge2" class="edge">
<title>Node2&#45;&gt;Node3</title>
<path fill="none" stroke="midnightblue" d="M238.02,-247.59C261.43,-252.81 290.53,-259.29 315.01,-264.75"/>
<polygon fill="midnightblue" stroke="midnightblue" points="314.32,-268.18 324.84,-266.94 315.84,-261.35 314.32,-268.18"/>
</g>
<!-- Node4 -->
<g id="node4" class="node">
<title>Node4</title>
<g id="a_node4"><a xlink:href="vec3_8h.html#ac80a1c20941c96a8fafad255dac59092" target="_top" xlink:title="Scale a vector.">
<polygon fill="none" stroke="black" points="656,-275.5 656,-294.5 739,-294.5 739,-275.5 656,-275.5"/>
<text text-anchor="middle" x="697.5" y="-282.5" font-family="Helvetica,sans-Serif" font-size="10.00">ft_vec3_scale</text>
</a>
</g>
</g>
<!-- Node2&#45;&gt;Node4 -->
<g id="edge3" class="edge">
<title>Node2&#45;&gt;Node4</title>
<path fill="none" stroke="midnightblue" d="M266.32,-236.08C348.21,-235.09 486.26,-237.11 603,-257 622.55,-260.33 643.76,-266.47 661.04,-272.15"/>
<polygon fill="midnightblue" stroke="midnightblue" points="660.12,-275.53 670.71,-275.42 662.36,-268.9 660.12,-275.53"/>
</g>
<!-- Node5&#45;&gt;Node4 -->
<g id="edge6" class="edge">
<title>Node5&#45;&gt;Node4</title>
<path fill="none" stroke="midnightblue" d="M585.55,-380.48C591.77,-378.01 597.77,-374.91 603,-371 627,-353.06 616.82,-334.14 639,-314 645.48,-308.11 653.38,-303.11 661.23,-299.01"/>
<polygon fill="midnightblue" stroke="midnightblue" points="662.85,-302.11 670.32,-294.6 659.79,-295.81 662.85,-302.11"/>
</g>
<!-- Node6 -->
<g id="node6" class="node">
<title>Node6</title>
<g id="a_node6"><a xlink:href="vec3_8h.html#a73e2caf4c2a51ed954b7349c6be2b3c3" target="_top" xlink:title="Add two vectors.">
<polygon fill="none" stroke="black" points="660,-323.5 660,-342.5 735,-342.5 735,-323.5 660,-323.5"/>
<text text-anchor="middle" x="697.5" y="-330.5" font-family="Helvetica,sans-Serif" font-size="10.00">ft_vec3_add</text>
</a>
</g>
</g>
<!-- Node5&#45;&gt;Node6 -->
<g id="edge5" class="edge">
<title>Node5&#45;&gt;Node6</title>
<path fill="none" stroke="midnightblue" d="M572.39,-380.46C582.38,-377.63 593.17,-374.38 603,-371 624.11,-363.74 647.37,-354.3 665.41,-346.64"/>
<polygon fill="midnightblue" stroke="midnightblue" points="667.03,-349.75 674.84,-342.59 664.27,-343.32 667.03,-349.75"/>
</g>
<!-- Node7 -->
<g id="node7" class="node">
<title>Node7</title>
<g id="a_node7"><a xlink:href="vec3_8h.html#a54e984820b74bd803de43ce36c8cb292" target="_top" xlink:title="Subtract two vectors.">
<polygon fill="none" stroke="black" points="660.5,-380.5 660.5,-399.5 734.5,-399.5 734.5,-380.5 660.5,-380.5"/>
<text text-anchor="middle" x="697.5" y="-387.5" font-family="Helvetica,sans-Serif" font-size="10.00">ft_vec3_sub</text>
</a>
</g>
</g>
<!-- Node5&#45;&gt;Node7 -->
<g id="edge7" class="edge">
<title>Node5&#45;&gt;Node7</title>
<path fill="none" stroke="midnightblue" d="M598.51,-390C615.7,-390 634.02,-390 650.12,-390"/>
<polygon fill="midnightblue" stroke="midnightblue" points="650.35,-393.5 660.35,-390 650.35,-386.5 650.35,-393.5"/>
</g>
<!-- Node10 -->
<g id="node10" class="node">
<title>Node10</title>
<g id="a_node10"><a xlink:href="utils_8h.html#a7d1328722f9dc6edd652f7c732856ae9" target="_top" xlink:title="Transforms degrees into radian.">
<polygon fill="none" stroke="black" points="641,-76.5 641,-95.5 754,-95.5 754,-76.5 641,-76.5"/>
<text text-anchor="middle" x="697.5" y="-83.5" font-family="Helvetica,sans-Serif" font-size="10.00">ft_degree_to_radian</text>
</a>
</g>
</g>
<!-- Node9&#45;&gt;Node10 -->
<g id="edge10" class="edge">
<title>Node9&#45;&gt;Node10</title>
<path fill="none" stroke="midnightblue" d="M252.58,-78.02C331.72,-68.25 478.47,-54.48 603,-67 618,-68.51 634.15,-71.35 648.74,-74.38"/>
<polygon fill="midnightblue" stroke="midnightblue" points="648.04,-77.81 658.55,-76.49 649.51,-70.96 648.04,-77.81"/>
</g>
<!-- Node11 -->
<g id="node11" class="node">
<title>Node11</title>
<g id="a_node11"><a xlink:href="utils_8h.html#a49f519544f51627ced8238dfd72ce20a" target="_top" xlink:title="Transforms radians into degrees.">
<polygon fill="none" stroke="black" points="310,-0.5 310,-19.5 423,-19.5 423,-0.5 310,-0.5"/>
<text text-anchor="middle" x="366.5" y="-7.5" font-family="Helvetica,sans-Serif" font-size="10.00">ft_radian_to_degree</text>
</a>
</g>
</g>
<!-- Node9&#45;&gt;Node11 -->
<g id="edge11" class="edge">
<title>Node9&#45;&gt;Node11</title>
<path fill="none" stroke="midnightblue" d="M240.52,-76.48C249.26,-73.75 258.14,-70.3 266,-66 284.78,-55.73 283.68,-45.08 302,-34 308.81,-29.88 316.44,-26.27 323.99,-23.18"/>
<polygon fill="midnightblue" stroke="midnightblue" points="325.36,-26.4 333.44,-19.54 322.85,-19.87 325.36,-26.4"/>
</g>
<!-- Node13 -->
<g id="node13" class="node">
<title>Node13</title>
<g id="a_node13"><a xlink:href="camera_8h.html#a86320a08df936f0fb2174d3fb4dbd0d4" target="_top" xlink:title="Moves the camera along its direction vector.">
<polygon fill="none" stroke="black" points="472.5,-342.5 472.5,-361.5 597.5,-361.5 597.5,-342.5 472.5,-342.5"/>
<text text-anchor="middle" x="535" y="-349.5" font-family="Helvetica,sans-Serif" font-size="10.00">ft_cam_move_forward</text>
</a>
</g>
</g>
<!-- Node12&#45;&gt;Node13 -->
<g id="edge13" class="edge">
<title>Node12&#45;&gt;Node13</title>
<path fill="none" stroke="midnightblue" d="M409.51,-323.59C431.68,-328.65 459.07,-334.9 482.51,-340.25"/>
<polygon fill="midnightblue" stroke="midnightblue" points="481.76,-343.67 492.29,-342.48 483.32,-336.84 481.76,-343.67"/>
</g>
<!-- Node14 -->
<g id="node14" class="node">
<title>Node14</title>
<g id="a_node14"><a xlink:href="camera_8h.html#a06b571f6e8edf474da02fa605c074c12" target="_top" xlink:title="Moves the camera along its right vector.">
<polygon fill="none" stroke="black" points="480,-304.5 480,-323.5 590,-323.5 590,-304.5 480,-304.5"/>
<text text-anchor="middle" x="535" y="-311.5" font-family="Helvetica,sans-Serif" font-size="10.00">ft_cam_move_right</text>
</a>
</g>
</g>
<!-- Node12&#45;&gt;Node14 -->
<g id="edge16" class="edge">
<title>Node12&#45;&gt;Node14</title>
<path fill="none" stroke="midnightblue" d="M431.4,-314C443.86,-314 456.94,-314 469.43,-314"/>
<polygon fill="midnightblue" stroke="midnightblue" points="469.76,-317.5 479.76,-314 469.76,-310.5 469.76,-317.5"/>
</g>
<!-- Node15 -->
<g id="node15" class="node">
<title>Node15</title>
<g id="a_node15"><a xlink:href="camera_8h.html#a9cfc7dcbb8ce4312ff22dcc43f3c4019" target="_top" xlink:title="Moves the camera along the world up vector.">
<polygon fill="none" stroke="black" points="485,-266.5 485,-285.5 585,-285.5 585,-266.5 485,-266.5"/>
<text text-anchor="middle" x="535" y="-273.5" font-family="Helvetica,sans-Serif" font-size="10.00">ft_cam_move_up</text>
</a>
</g>
</g>
<!-- Node12&#45;&gt;Node15 -->
<g id="edge19" class="edge">
<title>Node12&#45;&gt;Node15</title>
<path fill="none" stroke="midnightblue" d="M409.51,-304.41C431.68,-299.35 459.07,-293.1 482.51,-287.75"/>
<polygon fill="midnightblue" stroke="midnightblue" points="483.32,-291.16 492.29,-285.52 481.76,-284.33 483.32,-291.16"/>
</g>
<!-- Node13&#45;&gt;Node4 -->
<g id="edge15" class="edge">
<title>Node13&#45;&gt;Node4</title>
<path fill="none" stroke="midnightblue" d="M575.08,-342.4C584.36,-339.72 594.13,-336.55 603,-333 619.79,-326.27 622.92,-322.3 639,-314 648.44,-309.13 658.79,-303.88 668.08,-299.2"/>
<polygon fill="midnightblue" stroke="midnightblue" points="669.92,-302.19 677.29,-294.58 666.78,-295.94 669.92,-302.19"/>
</g>
<!-- Node13&#45;&gt;Node6 -->
<g id="edge14" class="edge">
<title>Node13&#45;&gt;Node6</title>
<path fill="none" stroke="midnightblue" d="M597.59,-344.71C614.85,-342.67 633.33,-340.48 649.59,-338.55"/>
<polygon fill="midnightblue" stroke="midnightblue" points="650.4,-341.98 659.92,-337.33 649.57,-335.03 650.4,-341.98"/>
</g>
<!-- Node14&#45;&gt;Node4 -->
<g id="edge18" class="edge">
<title>Node14&#45;&gt;Node4</title>
<path fill="none" stroke="midnightblue" d="M589,-304.42C607.25,-301.13 627.63,-297.44 645.71,-294.18"/>
<polygon fill="midnightblue" stroke="midnightblue" points="646.54,-297.58 655.76,-292.36 645.3,-290.69 646.54,-297.58"/>
</g>
<!-- Node14&#45;&gt;Node6 -->
<g id="edge17" class="edge">
<title>Node14&#45;&gt;Node6</title>
<path fill="none" stroke="midnightblue" d="M590.34,-320.43C609.67,-322.72 631.26,-325.28 649.89,-327.48"/>
<polygon fill="midnightblue" stroke="midnightblue" points="649.56,-330.97 659.9,-328.67 650.39,-324.02 649.56,-330.97"/>
</g>
<!-- Node15&#45;&gt;Node4 -->
<g id="edge21" class="edge">
<title>Node15&#45;&gt;Node4</title>
<path fill="none" stroke="midnightblue" d="M585.03,-278.75C604.25,-279.83 626.31,-281.06 645.7,-282.15"/>
<polygon fill="midnightblue" stroke="midnightblue" points="645.68,-285.66 655.86,-282.72 646.07,-278.67 645.68,-285.66"/>
</g>
<!-- Node15&#45;&gt;Node6 -->
<g id="edge20" class="edge">
<title>Node15&#45;&gt;Node6</title>
<path fill="none" stroke="midnightblue" d="M572.39,-285.54C582.38,-288.37 593.17,-291.62 603,-295 624.11,-302.26 647.37,-311.7 665.41,-319.36"/>
<polygon fill="midnightblue" stroke="midnightblue" points="664.27,-322.68 674.84,-323.41 667.03,-316.25 664.27,-322.68"/>
</g>
<!-- Node17 -->
<g id="node17" class="node">
<title>Node17</title>
<g id="a_node17"><a xlink:href="mat4__vec3_8h.html#a211f9d6535bb54bea2299ee5ea8a54a0" target="_top" xlink:title="Rotates a 3D vector around the x&#45;axis.">
<polygon fill="none" stroke="black" points="317.5,-152.5 317.5,-171.5 415.5,-171.5 415.5,-152.5 317.5,-152.5"/>
<text text-anchor="middle" x="366.5" y="-159.5" font-family="Helvetica,sans-Serif" font-size="10.00">ft_vec3_rotate_x</text>
</a>
</g>
</g>
<!-- Node16&#45;&gt;Node17 -->
<g id="edge23" class="edge">
<title>Node16&#45;&gt;Node17</title>
<path fill="none" stroke="midnightblue" d="M251.77,-162C269.59,-162 289.28,-162 307.2,-162"/>
<polygon fill="midnightblue" stroke="midnightblue" points="307.24,-165.5 317.24,-162 307.24,-158.5 307.24,-165.5"/>
</g>
<!-- Node23 -->
<g id="node23" class="node">
<title>Node23</title>
<g id="a_node23"><a xlink:href="mat4__vec3_8h.html#ac8a4ca6fb927e3746e7129f8eb04aa46" target="_top" xlink:title="Rotates a 3D vector around the y&#45;axis.">
<polygon fill="none" stroke="black" points="317.5,-114.5 317.5,-133.5 415.5,-133.5 415.5,-114.5 317.5,-114.5"/>
<text text-anchor="middle" x="366.5" y="-121.5" font-family="Helvetica,sans-Serif" font-size="10.00">ft_vec3_rotate_y</text>
</a>
</g>
</g>
<!-- Node16&#45;&gt;Node23 -->
<g id="edge31" class="edge">
<title>Node16&#45;&gt;Node23</title>
<path fill="none" stroke="midnightblue" d="M238.02,-152.41C260.73,-147.35 288.77,-141.1 312.77,-135.75"/>
<polygon fill="midnightblue" stroke="midnightblue" points="313.79,-139.11 322.79,-133.52 312.26,-132.28 313.79,-139.11"/>
</g>
<!-- Node18 -->
<g id="node18" class="node">
<title>Node18</title>
<g id="a_node18"><a xlink:href="mat4_8h.html#a96153e828811e816c64e7d0e19fcf654" target="_top" xlink:title="Creates a 4x4 transformation matrix for x&#45;axis rotation.">
<polygon fill="none" stroke="black" points="467,-152.5 467,-171.5 603,-171.5 603,-152.5 467,-152.5"/>
<text text-anchor="middle" x="535" y="-159.5" font-family="Helvetica,sans-Serif" font-size="10.00">ft_mat4_create_rotate_x</text>
</a>
</g>
</g>
<!-- Node17&#45;&gt;Node18 -->
<g id="edge24" class="edge">
<title>Node17&#45;&gt;Node18</title>
<path fill="none" stroke="midnightblue" d="M415.66,-162C428.49,-162 442.68,-162 456.65,-162"/>
<polygon fill="midnightblue" stroke="midnightblue" points="456.75,-165.5 466.75,-162 456.75,-158.5 456.75,-165.5"/>
</g>
<!-- Node20 -->
<g id="node20" class="node">
<title>Node20</title>
<g id="a_node20"><a xlink:href="mat4__vec3__rotate_8c.html#a53ea797ed37dea591e9e86121a849aca" target="_top" xlink:title="Multiplies a 4x4 matrix with a 3D vector.">
<polygon fill="none" stroke="black" points="480,-114.5 480,-133.5 590,-133.5 590,-114.5 480,-114.5"/>
<text text-anchor="middle" x="535" y="-121.5" font-family="Helvetica,sans-Serif" font-size="10.00">ft_vec3_mult_mat4</text>
</a>
</g>
</g>
<!-- Node17&#45;&gt;Node20 -->
<g id="edge27" class="edge">
<title>Node17&#45;&gt;Node20</title>
<path fill="none" stroke="midnightblue" d="M409.51,-152.41C431.68,-147.35 459.07,-141.1 482.51,-135.75"/>
<polygon fill="midnightblue" stroke="midnightblue" points="483.32,-139.16 492.29,-133.52 481.76,-132.33 483.32,-139.16"/>
</g>
<!-- Node21 -->
<g id="node21" class="node">
<title>Node21</title>
<g id="a_node21"><a xlink:href="vec3_8h.html#a38fe500bd27847b866b9630146e43250" target="_top" xlink:title="Normalise a vector.">
<polygon fill="none" stroke="black" points="493.5,-190.5 493.5,-209.5 576.5,-209.5 576.5,-190.5 493.5,-190.5"/>
<text text-anchor="middle" x="535" y="-197.5" font-family="Helvetica,sans-Serif" font-size="10.00">ft_vec3_norm</text>
</a>
</g>
</g>
<!-- Node17&#45;&gt;Node21 -->
<g id="edge28" class="edge">
<title>Node17&#45;&gt;Node21</title>
<path fill="none" stroke="midnightblue" d="M409.51,-171.59C432.02,-176.73 459.91,-183.09 483.58,-188.49"/>
<polygon fill="midnightblue" stroke="midnightblue" points="482.91,-191.93 493.44,-190.74 484.47,-185.1 482.91,-191.93"/>
</g>
<!-- Node18&#45;&gt;Node10 -->
<g id="edge25" class="edge">
<title>Node18&#45;&gt;Node10</title>
<path fill="none" stroke="midnightblue" d="M576.3,-152.49C585.25,-149.85 594.58,-146.68 603,-143 617.07,-136.85 650.62,-115.76 673.46,-101.04"/>
<polygon fill="midnightblue" stroke="midnightblue" points="675.42,-103.94 681.92,-95.56 671.62,-98.06 675.42,-103.94"/>
</g>
<!-- Node19 -->
<g id="node19" class="node">
<title>Node19</title>
<g id="a_node19"><a xlink:href="mat4_8h.html#ad20d2d0fd3d7862225345a79b062f03a" target="_top" xlink:title="Returns a 4x4 identity matrix.">
<polygon fill="none" stroke="black" points="639,-133.5 639,-152.5 756,-152.5 756,-133.5 639,-133.5"/>
<text text-anchor="middle" x="697.5" y="-140.5" font-family="Helvetica,sans-Serif" font-size="10.00">ft_mat4_set_identity</text>
</a>
</g>
</g>
<!-- Node18&#45;&gt;Node19 -->
<g id="edge26" class="edge">
<title>Node18&#45;&gt;Node19</title>
<path fill="none" stroke="midnightblue" d="M603.14,-154.05C611.56,-153.05 620.19,-152.03 628.63,-151.03"/>
<polygon fill="midnightblue" stroke="midnightblue" points="629.28,-154.48 638.8,-149.83 628.46,-147.53 629.28,-154.48"/>
</g>
<!-- Node21&#45;&gt;Node4 -->
<g id="edge30" class="edge">
<title>Node21&#45;&gt;Node4</title>
<path fill="none" stroke="midnightblue" d="M567.31,-209.52C578.78,-213.44 591.71,-218.39 603,-224 629.25,-237.04 657.12,-255.97 675.53,-269.27"/>
<polygon fill="midnightblue" stroke="midnightblue" points="673.63,-272.21 683.76,-275.3 677.77,-266.56 673.63,-272.21"/>
</g>
<!-- Node22 -->
<g id="node22" class="node">
<title>Node22</title>
<g id="a_node22"><a xlink:href="vec3__linalgebra_8c.html#aa84621bd979d3b12b97908f653faf88e" target="_top" xlink:title="Calculate the absolute value of a vector.">
<polygon fill="none" stroke="black" points="660.5,-190.5 660.5,-209.5 734.5,-209.5 734.5,-190.5 660.5,-190.5"/>
<text text-anchor="middle" x="697.5" y="-197.5" font-family="Helvetica,sans-Serif" font-size="10.00">ft_vec3_abs</text>
</a>
</g>
</g>
<!-- Node21&#45;&gt;Node22 -->
<g id="edge29" class="edge">
<title>Node21&#45;&gt;Node22</title>
<path fill="none" stroke="midnightblue" d="M576.5,-200C598.99,-200 627.05,-200 650.38,-200"/>
<polygon fill="midnightblue" stroke="midnightblue" points="650.39,-203.5 660.39,-200 650.39,-196.5 650.39,-203.5"/>
</g>
<!-- Node23&#45;&gt;Node20 -->
<g id="edge35" class="edge">
<title>Node23&#45;&gt;Node20</title>
<path fill="none" stroke="midnightblue" d="M415.66,-124C432.52,-124 451.72,-124 469.69,-124"/>
<polygon fill="midnightblue" stroke="midnightblue" points="469.81,-127.5 479.81,-124 469.81,-120.5 469.81,-127.5"/>
</g>
<!-- Node23&#45;&gt;Node21 -->
<g id="edge36" class="edge">
<title>Node23&#45;&gt;Node21</title>
<path fill="none" stroke="midnightblue" d="M410.49,-133.52C417.62,-136.02 424.73,-139.14 431,-143 450.81,-155.19 447.1,-168.95 467,-181 472.1,-184.09 477.73,-186.69 483.48,-188.88"/>
<polygon fill="midnightblue" stroke="midnightblue" points="482.62,-192.29 493.22,-192.19 484.88,-185.66 482.62,-192.29"/>
</g>
<!-- Node24 -->
<g id="node24" class="node">
<title>Node24</title>
<g id="a_node24"><a xlink:href="mat4_8h.html#a3f33a47cb6e2a560791c9be852f27b35" target="_top" xlink:title="Creates a 4x4 transformation matrix for y&#45;axis rotation.">
<polygon fill="none" stroke="black" points="467,-76.5 467,-95.5 603,-95.5 603,-76.5 467,-76.5"/>
<text text-anchor="middle" x="535" y="-83.5" font-family="Helvetica,sans-Serif" font-size="10.00">ft_mat4_create_rotate_y</text>
</a>
</g>
</g>
<!-- Node23&#45;&gt;Node24 -->
<g id="edge32" class="edge">
<title>Node23&#45;&gt;Node24</title>
<path fill="none" stroke="midnightblue" d="M409.51,-114.41C431.68,-109.35 459.07,-103.1 482.51,-97.75"/>
<polygon fill="midnightblue" stroke="midnightblue" points="483.32,-101.16 492.29,-95.52 481.76,-94.33 483.32,-101.16"/>
</g>
<!-- Node24&#45;&gt;Node10 -->
<g id="edge33" class="edge">
<title>Node24&#45;&gt;Node10</title>
<path fill="none" stroke="midnightblue" d="M603.14,-86C612.25,-86 621.59,-86 630.68,-86"/>
<polygon fill="midnightblue" stroke="midnightblue" points="630.81,-89.5 640.81,-86 630.81,-82.5 630.81,-89.5"/>
</g>
<!-- Node24&#45;&gt;Node19 -->
<g id="edge34" class="edge">
<title>Node24&#45;&gt;Node19</title>
<path fill="none" stroke="midnightblue" d="M572.39,-95.54C582.38,-98.37 593.17,-101.62 603,-105 624.11,-112.26 647.37,-121.7 665.41,-129.36"/>
<polygon fill="midnightblue" stroke="midnightblue" points="664.27,-132.68 674.84,-133.41 667.03,-126.25 664.27,-132.68"/>
</g>
</g>
</svg>
