<?xml version="1.0" encoding="UTF-8" standalone="no"?>
<!DOCTYPE svg PUBLIC "-//W3C//DTD SVG 1.1//EN"
 "http://www.w3.org/Graphics/SVG/1.1/DTD/svg11.dtd">
<!-- Generated by graphviz version 2.43.0 (0)
 -->
<!-- Title: ft_keyhook_mv_point Pages: 1 -->
<svg width="393pt" height="142pt"
 viewBox="0.00 0.00 393.00 142.00" xmlns="http://www.w3.org/2000/svg" xmlns:xlink="http://www.w3.org/1999/xlink">
<g id="graph0" class="graph" transform="scale(1 1) rotate(0) translate(4 138)">
<title>ft_keyhook_mv_point</title>
<!-- Node1 -->
<g id="node1" class="node">
<title>Node1</title>
<g id="a_node1"><a xlink:title="Moves a 3D point with a keypress.">
<polygon fill="#bfbfbf" stroke="black" points="264,-57.5 264,-76.5 385,-76.5 385,-57.5 264,-57.5"/>
<text text-anchor="middle" x="324.5" y="-64.5" font-family="Helvetica,sans-Serif" font-size="10.00">ft_keyhook_mv_point</text>
</a>
</g>
</g>
<!-- Node2 -->
<g id="node2" class="node">
<title>Node2</title>
<g id="a_node2"><a xlink:href="render_8h.html#a2737927d8cc8ff5dc3bd94b3e11fc1a9" target="_top" xlink:title="Manipulates the active cylinder.">
<polygon fill="none" stroke="black" points="123,-114.5 123,-133.5 227,-133.5 227,-114.5 123,-114.5"/>
<text text-anchor="middle" x="175" y="-121.5" font-family="Helvetica,sans-Serif" font-size="10.00">ft_manip_cylinder</text>
</a>
</g>
</g>
<!-- Node1&#45;&gt;Node2 -->
<g id="edge1" class="edge">
<title>Node1&#45;&gt;Node2</title>
<path fill="none" stroke="midnightblue" d="M290.64,-80.34C272.27,-87.74 248.92,-97.02 228,-105 219.74,-108.15 210.7,-111.49 202.51,-114.48"/>
<polygon fill="midnightblue" stroke="midnightblue" points="292.06,-83.54 300.02,-76.56 289.44,-77.05 292.06,-83.54"/>
</g>
<!-- Node3 -->
<g id="node3" class="node">
<title>Node3</title>
<g id="a_node3"><a xlink:href="render__keyhook__light_8c.html#a16d57d13773703e93274caef6b5ccde1" target="_top" xlink:title=" ">
<polygon fill="none" stroke="black" points="122,-76.5 122,-95.5 228,-95.5 228,-76.5 122,-76.5"/>
<text text-anchor="middle" x="175" y="-83.5" font-family="Helvetica,sans-Serif" font-size="10.00">ft_manip_light_src</text>
</a>
</g>
</g>
<!-- Node1&#45;&gt;Node3 -->
<g id="edge2" class="edge">
<title>Node1&#45;&gt;Node3</title>
<path fill="none" stroke="midnightblue" d="M253.86,-75.97C245.22,-77.08 236.51,-78.21 228.19,-79.28"/>
<polygon fill="midnightblue" stroke="midnightblue" points="254.46,-79.42 263.93,-74.67 253.57,-72.48 254.46,-79.42"/>
</g>
<!-- Node5 -->
<g id="node5" class="node">
<title>Node5</title>
<g id="a_node5"><a xlink:href="render_8h.html#a2b397fc2e0dd418d497c05b3dff894f1" target="_top" xlink:title="Manipulates the active plane.">
<polygon fill="none" stroke="black" points="129,-38.5 129,-57.5 221,-57.5 221,-38.5 129,-38.5"/>
<text text-anchor="middle" x="175" y="-45.5" font-family="Helvetica,sans-Serif" font-size="10.00">ft_manip_plane</text>
</a>
</g>
</g>
<!-- Node1&#45;&gt;Node5 -->
<g id="edge4" class="edge">
<title>Node1&#45;&gt;Node5</title>
<path fill="none" stroke="midnightblue" d="M253.83,-58.03C242.77,-56.6 231.58,-55.16 221.27,-53.83"/>
<polygon fill="midnightblue" stroke="midnightblue" points="253.57,-61.52 263.93,-59.33 254.46,-54.58 253.57,-61.52"/>
</g>
<!-- Node6 -->
<g id="node6" class="node">
<title>Node6</title>
<g id="a_node6"><a xlink:href="render_8h.html#a3af9cb325ad292f339446b63917a9ea2" target="_top" xlink:title="Manipulates the active sphere.">
<polygon fill="none" stroke="black" points="126,-0.5 126,-19.5 224,-19.5 224,-0.5 126,-0.5"/>
<text text-anchor="middle" x="175" y="-7.5" font-family="Helvetica,sans-Serif" font-size="10.00">ft_manip_sphere</text>
</a>
</g>
</g>
<!-- Node1&#45;&gt;Node6 -->
<g id="edge5" class="edge">
<title>Node1&#45;&gt;Node6</title>
<path fill="none" stroke="midnightblue" d="M290.64,-53.66C272.27,-46.26 248.92,-36.98 228,-29 219.74,-25.85 210.7,-22.51 202.51,-19.52"/>
<polygon fill="midnightblue" stroke="midnightblue" points="289.44,-56.95 300.02,-57.44 292.06,-50.46 289.44,-56.95"/>
</g>
<!-- Node4 -->
<g id="node4" class="node">
<title>Node4</title>
<g id="a_node4"><a xlink:href="render_8h.html#acff7acf5eb6145177496e67b32a74fba" target="_top" xlink:title="Manipulates the active light.">
<polygon fill="none" stroke="black" points="0,-76.5 0,-95.5 86,-95.5 86,-76.5 0,-76.5"/>
<text text-anchor="middle" x="43" y="-83.5" font-family="Helvetica,sans-Serif" font-size="10.00">ft_manip_light</text>
</a>
</g>
</g>
<!-- Node3&#45;&gt;Node4 -->
<g id="edge3" class="edge">
<title>Node3&#45;&gt;Node4</title>
<path fill="none" stroke="midnightblue" d="M111.76,-86C103.08,-86 94.34,-86 86.15,-86"/>
<polygon fill="midnightblue" stroke="midnightblue" points="111.87,-89.5 121.87,-86 111.87,-82.5 111.87,-89.5"/>
</g>
</g>
</svg>
