<?xml version="1.0" encoding="UTF-8" standalone="no"?>
<!DOCTYPE svg PUBLIC "-//W3C//DTD SVG 1.1//EN"
 "http://www.w3.org/Graphics/SVG/1.1/DTD/svg11.dtd">
<!-- Generated by graphviz version 2.43.0 (0)
 -->
<!-- Title: inc/render_bonus.h Pages: 1 -->
<svg width="1177pt" height="420pt"
 viewBox="0.00 0.00 1176.80 420.00" xmlns="http://www.w3.org/2000/svg" xmlns:xlink="http://www.w3.org/1999/xlink">
<g id="graph0" class="graph" transform="scale(1 1) rotate(0) translate(4 416)">
<title>inc/render_bonus.h</title>
<!-- Node1 -->
<g id="node1" class="node">
<title>Node1</title>
<g id="a_node1"><a xlink:title=" ">
<polygon fill="#bfbfbf" stroke="black" points="599.3,-392.5 599.3,-411.5 708.3,-411.5 708.3,-392.5 599.3,-392.5"/>
<text text-anchor="middle" x="653.8" y="-399.5" font-family="Helvetica,sans-Serif" font-size="10.00">inc/render_bonus.h</text>
</a>
</g>
</g>
<!-- Node2 -->
<g id="node2" class="node">
<title>Node2</title>
<g id="a_node2"><a xlink:title=" ">
<polygon fill="none" stroke="#bfbfbf" points="74.8,-280.5 74.8,-299.5 118.8,-299.5 118.8,-280.5 74.8,-280.5"/>
<text text-anchor="middle" x="96.8" y="-287.5" font-family="Helvetica,sans-Serif" font-size="10.00">mlx.h</text>
</a>
</g>
</g>
<!-- Node1&#45;&gt;Node2 -->
<g id="edge1" class="edge">
<title>Node1&#45;&gt;Node2</title>
<path fill="none" stroke="midnightblue" d="M599.13,-401.71C516.05,-401.37 353.82,-395.12 222.8,-356 183.66,-344.31 142.31,-320.46 118.07,-305.13"/>
<polygon fill="midnightblue" stroke="midnightblue" points="119.67,-301.99 109.36,-299.52 115.88,-307.88 119.67,-301.99"/>
</g>
<!-- Node3 -->
<g id="node3" class="node">
<title>Node3</title>
<g id="a_node3"><a xlink:title=" ">
<polygon fill="none" stroke="#bfbfbf" points="864.8,-336.5 864.8,-355.5 930.8,-355.5 930.8,-336.5 864.8,-336.5"/>
<text text-anchor="middle" x="897.8" y="-343.5" font-family="Helvetica,sans-Serif" font-size="10.00">X11/Xlib.h</text>
</a>
</g>
</g>
<!-- Node1&#45;&gt;Node3 -->
<g id="edge2" class="edge">
<title>Node1&#45;&gt;Node3</title>
<path fill="none" stroke="midnightblue" d="M692.47,-392.44C736.69,-382.66 808.9,-366.67 854.85,-356.51"/>
<polygon fill="midnightblue" stroke="midnightblue" points="855.79,-359.88 864.8,-354.3 854.28,-353.05 855.79,-359.88"/>
</g>
<!-- Node4 -->
<g id="node4" class="node">
<title>Node4</title>
<g id="a_node4"><a xlink:title=" ">
<polygon fill="none" stroke="#bfbfbf" points="948.8,-336.5 948.8,-355.5 1002.8,-355.5 1002.8,-336.5 948.8,-336.5"/>
<text text-anchor="middle" x="975.8" y="-343.5" font-family="Helvetica,sans-Serif" font-size="10.00">X11/X.h</text>
</a>
</g>
</g>
<!-- Node1&#45;&gt;Node4 -->
<g id="edge3" class="edge">
<title>Node1&#45;&gt;Node4</title>
<path fill="none" stroke="midnightblue" d="M708.36,-393.89C763.95,-386.31 852.86,-373.28 938.81,-356.05"/>
<polygon fill="midnightblue" stroke="midnightblue" points="939.63,-359.46 948.73,-354.04 938.24,-352.6 939.63,-359.46"/>
</g>
<!-- Node5 -->
<g id="node5" class="node">
<title>Node5</title>
<g id="a_node5"><a xlink:title=" ">
<polygon fill="none" stroke="#bfbfbf" points="1020.8,-336.5 1020.8,-355.5 1106.8,-355.5 1106.8,-336.5 1020.8,-336.5"/>
<text text-anchor="middle" x="1063.8" y="-343.5" font-family="Helvetica,sans-Serif" font-size="10.00">X11/keysym.h</text>
</a>
</g>
</g>
<!-- Node1&#45;&gt;Node5 -->
<g id="edge4" class="edge">
<title>Node1&#45;&gt;Node5</title>
<path fill="none" stroke="midnightblue" d="M708.5,-394.92C776.75,-387.16 897.3,-372.87 1010.47,-356.14"/>
<polygon fill="midnightblue" stroke="midnightblue" points="1011.32,-359.55 1020.7,-354.62 1010.29,-352.63 1011.32,-359.55"/>
</g>
<!-- Node6 -->
<g id="node6" class="node">
<title>Node6</title>
<g id="a_node6"><a xlink:title=" ">
<polygon fill="none" stroke="#bfbfbf" points="1124.8,-336.5 1124.8,-355.5 1168.8,-355.5 1168.8,-336.5 1124.8,-336.5"/>
<text text-anchor="middle" x="1146.8" y="-343.5" font-family="Helvetica,sans-Serif" font-size="10.00">libft.h</text>
</a>
</g>
</g>
<!-- Node1&#45;&gt;Node6 -->
<g id="edge5" class="edge">
<title>Node1&#45;&gt;Node6</title>
<path fill="none" stroke="midnightblue" d="M708.33,-398.96C793.36,-395.07 962.71,-384.45 1114.59,-355.9"/>
<polygon fill="midnightblue" stroke="midnightblue" points="1115.41,-359.3 1124.57,-353.99 1114.09,-352.43 1115.41,-359.3"/>
</g>
<!-- Node7 -->
<g id="node7" class="node">
<title>Node7</title>
<g id="a_node7"><a xlink:href="error__mlx_8h.html" target="_top" xlink:title=" ">
<polygon fill="none" stroke="black" points="232.3,-336.5 232.3,-355.5 305.3,-355.5 305.3,-336.5 232.3,-336.5"/>
<text text-anchor="middle" x="268.8" y="-343.5" font-family="Helvetica,sans-Serif" font-size="10.00">error_mlx.h</text>
</a>
</g>
</g>
<!-- Node1&#45;&gt;Node7 -->
<g id="edge6" class="edge">
<title>Node1&#45;&gt;Node7</title>
<path fill="none" stroke="midnightblue" d="M599.05,-393.32C523.07,-382.66 386.96,-363.57 315.51,-353.55"/>
<polygon fill="midnightblue" stroke="midnightblue" points="315.85,-350.06 305.46,-352.14 314.87,-357 315.85,-350.06"/>
</g>
<!-- Node13 -->
<g id="node13" class="node">
<title>Node13</title>
<g id="a_node13"><a xlink:href="entities__bonus_8h.html" target="_top" xlink:title=" ">
<polygon fill="none" stroke="black" points="262.3,-224.5 262.3,-243.5 359.3,-243.5 359.3,-224.5 262.3,-224.5"/>
<text text-anchor="middle" x="310.8" y="-231.5" font-family="Helvetica,sans-Serif" font-size="10.00">entities_bonus.h</text>
</a>
</g>
</g>
<!-- Node1&#45;&gt;Node13 -->
<g id="edge61" class="edge">
<title>Node1&#45;&gt;Node13</title>
<path fill="none" stroke="midnightblue" d="M621.7,-392.42C592.58,-384.26 548.68,-371.03 511.8,-356 460.63,-335.14 448.01,-328.71 400.8,-300 375.28,-284.48 347.67,-263.93 329.86,-250.13"/>
<polygon fill="midnightblue" stroke="midnightblue" points="331.54,-246.99 321.5,-243.58 327.22,-252.5 331.54,-246.99"/>
</g>
<!-- Node22 -->
<g id="node22" class="node">
<title>Node22</title>
<g id="a_node22"><a xlink:href="vec2_8h.html" target="_top" xlink:title=" ">
<polygon fill="none" stroke="black" points="195.3,-168.5 195.3,-187.5 244.3,-187.5 244.3,-168.5 195.3,-168.5"/>
<text text-anchor="middle" x="219.8" y="-175.5" font-family="Helvetica,sans-Serif" font-size="10.00">vec2.h</text>
</a>
</g>
</g>
<!-- Node1&#45;&gt;Node22 -->
<g id="edge49" class="edge">
<title>Node1&#45;&gt;Node22</title>
<path fill="none" stroke="midnightblue" d="M599.27,-401.17C454.44,-401.06 68.55,-396.9 29.8,-356 -10.55,-313.4 -8.65,-269.98 27.8,-224 47.06,-199.7 135.17,-187.26 185.07,-182.06"/>
<polygon fill="midnightblue" stroke="midnightblue" points="185.5,-185.54 195.1,-181.06 184.8,-178.57 185.5,-185.54"/>
</g>
<!-- Node23 -->
<g id="node23" class="node">
<title>Node23</title>
<g id="a_node23"><a xlink:href="camera_8h.html" target="_top" xlink:title=" ">
<polygon fill="none" stroke="black" points="524.8,-224.5 524.8,-243.5 586.8,-243.5 586.8,-224.5 524.8,-224.5"/>
<text text-anchor="middle" x="555.8" y="-231.5" font-family="Helvetica,sans-Serif" font-size="10.00">camera.h</text>
</a>
</g>
</g>
<!-- Node1&#45;&gt;Node23 -->
<g id="edge29" class="edge">
<title>Node1&#45;&gt;Node23</title>
<path fill="none" stroke="midnightblue" d="M648.53,-392.08C632.91,-365.61 586.62,-287.21 565.96,-252.21"/>
<polygon fill="midnightblue" stroke="midnightblue" points="568.96,-250.4 560.86,-243.57 562.93,-253.96 568.96,-250.4"/>
</g>
<!-- Node24 -->
<g id="node24" class="node">
<title>Node24</title>
<g id="a_node24"><a xlink:href="mini_r_t__config__bonus_8h.html" target="_top" xlink:title=" ">
<polygon fill="none" stroke="black" points="832.8,-168.5 832.8,-187.5 960.8,-187.5 960.8,-168.5 832.8,-168.5"/>
<text text-anchor="middle" x="896.8" y="-175.5" font-family="Helvetica,sans-Serif" font-size="10.00">miniRT_config_bonus.h</text>
</a>
</g>
</g>
<!-- Node1&#45;&gt;Node24 -->
<g id="edge57" class="edge">
<title>Node1&#45;&gt;Node24</title>
<path fill="none" stroke="midnightblue" d="M662.68,-392.47C671.55,-383.72 685.34,-369.52 695.8,-356 738.37,-301.02 725.98,-268.03 779.8,-224 799.25,-208.1 824.94,-197.39 847.3,-190.42"/>
<polygon fill="midnightblue" stroke="midnightblue" points="848.37,-193.75 856.97,-187.57 846.39,-187.04 848.37,-193.75"/>
</g>
<!-- Node25 -->
<g id="node25" class="node">
<title>Node25</title>
<g id="a_node25"><a xlink:href="cleanup_8h.html" target="_top" xlink:title=" ">
<polygon fill="none" stroke="black" points="38.8,-336.5 38.8,-355.5 102.8,-355.5 102.8,-336.5 38.8,-336.5"/>
<text text-anchor="middle" x="70.8" y="-343.5" font-family="Helvetica,sans-Serif" font-size="10.00">cleanup.h</text>
</a>
</g>
</g>
<!-- Node1&#45;&gt;Node25 -->
<g id="edge34" class="edge">
<title>Node1&#45;&gt;Node25</title>
<path fill="none" stroke="midnightblue" d="M599.18,-396.89C505.49,-389.69 308.16,-373.85 141.8,-356 132.46,-355 122.44,-353.8 112.95,-352.61"/>
<polygon fill="midnightblue" stroke="midnightblue" points="113.3,-349.13 102.94,-351.34 112.41,-356.07 113.3,-349.13"/>
</g>
<!-- Node26 -->
<g id="node26" class="node">
<title>Node26</title>
<g id="a_node26"><a xlink:href="mat4__vec3_8h.html" target="_top" xlink:title=" ">
<polygon fill="none" stroke="black" points="613.8,-280.5 613.8,-299.5 693.8,-299.5 693.8,-280.5 613.8,-280.5"/>
<text text-anchor="middle" x="653.8" y="-287.5" font-family="Helvetica,sans-Serif" font-size="10.00">mat4_vec3.h</text>
</a>
</g>
</g>
<!-- Node1&#45;&gt;Node26 -->
<g id="edge38" class="edge">
<title>Node1&#45;&gt;Node26</title>
<path fill="none" stroke="midnightblue" d="M653.8,-392.37C653.8,-374.62 653.8,-333.67 653.8,-309.6"/>
<polygon fill="midnightblue" stroke="midnightblue" points="657.3,-309.59 653.8,-299.59 650.3,-309.59 657.3,-309.59"/>
</g>
<!-- Node28 -->
<g id="node28" class="node">
<title>Node28</title>
<g id="a_node28"><a xlink:href="print_8h.html" target="_top" xlink:title=" ">
<polygon fill="none" stroke="black" points="503.8,-280.5 503.8,-299.5 551.8,-299.5 551.8,-280.5 503.8,-280.5"/>
<text text-anchor="middle" x="527.8" y="-287.5" font-family="Helvetica,sans-Serif" font-size="10.00">print.h</text>
</a>
</g>
</g>
<!-- Node1&#45;&gt;Node28 -->
<g id="edge42" class="edge">
<title>Node1&#45;&gt;Node28</title>
<path fill="none" stroke="midnightblue" d="M630.81,-392.44C612.73,-384.87 587.69,-372.48 569.8,-356 555.17,-342.52 543.42,-322.89 536.1,-308.73"/>
<polygon fill="midnightblue" stroke="midnightblue" points="539.14,-306.98 531.59,-299.56 532.86,-310.08 539.14,-306.98"/>
</g>
<!-- Node29 -->
<g id="node29" class="node">
<title>Node29</title>
<g id="a_node29"><a xlink:href="render__menu_8h.html" target="_top" xlink:title=" ">
<polygon fill="none" stroke="black" points="788.8,-224.5 788.8,-243.5 878.8,-243.5 878.8,-224.5 788.8,-224.5"/>
<text text-anchor="middle" x="833.8" y="-231.5" font-family="Helvetica,sans-Serif" font-size="10.00">render_menu.h</text>
</a>
</g>
</g>
<!-- Node1&#45;&gt;Node29 -->
<g id="edge50" class="edge">
<title>Node1&#45;&gt;Node29</title>
<path fill="none" stroke="midnightblue" d="M700.13,-392.49C724.71,-385.99 754.05,-374.82 774.8,-356 805.86,-327.84 822.36,-279.74 829.46,-253.46"/>
<polygon fill="midnightblue" stroke="midnightblue" points="832.88,-254.21 831.94,-243.66 826.09,-252.5 832.88,-254.21"/>
</g>
<!-- Node30 -->
<g id="node30" class="node">
<title>Node30</title>
<g id="a_node30"><a xlink:href="render__bit__field_8h.html" target="_top" xlink:title=" ">
<polygon fill="none" stroke="black" points="713.3,-168.5 713.3,-187.5 814.3,-187.5 814.3,-168.5 713.3,-168.5"/>
<text text-anchor="middle" x="763.8" y="-175.5" font-family="Helvetica,sans-Serif" font-size="10.00">render_bit_field.h</text>
</a>
</g>
</g>
<!-- Node1&#45;&gt;Node30 -->
<g id="edge53" class="edge">
<title>Node1&#45;&gt;Node30</title>
<path fill="none" stroke="midnightblue" d="M658.11,-392.3C674.4,-359.42 732.39,-242.39 754.84,-197.09"/>
<polygon fill="midnightblue" stroke="midnightblue" points="758.1,-198.4 759.4,-187.88 751.82,-195.29 758.1,-198.4"/>
</g>
<!-- Node32 -->
<g id="node32" class="node">
<title>Node32</title>
<g id="a_node32"><a xlink:href="ray__bonus_8h.html" target="_top" xlink:title=" ">
<polygon fill="none" stroke="black" points="409.8,-280.5 409.8,-299.5 485.8,-299.5 485.8,-280.5 409.8,-280.5"/>
<text text-anchor="middle" x="447.8" y="-287.5" font-family="Helvetica,sans-Serif" font-size="10.00">ray_bonus.h</text>
</a>
</g>
</g>
<!-- Node1&#45;&gt;Node32 -->
<g id="edge58" class="edge">
<title>Node1&#45;&gt;Node32</title>
<path fill="none" stroke="midnightblue" d="M631,-392.35C609.6,-383.95 576.91,-370.39 549.8,-356 520.53,-340.47 488.58,-319.38 468.38,-305.49"/>
<polygon fill="midnightblue" stroke="midnightblue" points="470.19,-302.49 459.98,-299.66 466.2,-308.24 470.19,-302.49"/>
</g>
<!-- Node33 -->
<g id="node33" class="node">
<title>Node33</title>
<g id="a_node33"><a xlink:href="time__bonus_8h.html" target="_top" xlink:title=" ">
<polygon fill="none" stroke="black" points="1017.3,-168.5 1017.3,-187.5 1100.3,-187.5 1100.3,-168.5 1017.3,-168.5"/>
<text text-anchor="middle" x="1058.8" y="-175.5" font-family="Helvetica,sans-Serif" font-size="10.00">time_bonus.h</text>
</a>
</g>
</g>
<!-- Node1&#45;&gt;Node33 -->
<g id="edge62" class="edge">
<title>Node1&#45;&gt;Node33</title>
<path fill="none" stroke="midnightblue" d="M691.33,-392.49C721.08,-385 763.24,-372.67 797.8,-356 896.33,-308.48 1000.03,-227.33 1040.83,-193.98"/>
<polygon fill="midnightblue" stroke="midnightblue" points="1043.06,-196.68 1048.55,-187.62 1038.61,-191.27 1043.06,-196.68"/>
</g>
<!-- Node7&#45;&gt;Node2 -->
<g id="edge7" class="edge">
<title>Node7&#45;&gt;Node2</title>
<path fill="none" stroke="midnightblue" d="M241.55,-336.44C210.95,-326.84 161.34,-311.26 128.89,-301.07"/>
<polygon fill="midnightblue" stroke="midnightblue" points="129.6,-297.63 119.01,-297.97 127.5,-304.31 129.6,-297.63"/>
</g>
<!-- Node8 -->
<g id="node8" class="node">
<title>Node8</title>
<g id="a_node8"><a xlink:href="error__type_8h.html" target="_top" xlink:title=" ">
<polygon fill="none" stroke="black" points="136.8,-280.5 136.8,-299.5 212.8,-299.5 212.8,-280.5 136.8,-280.5"/>
<text text-anchor="middle" x="174.8" y="-287.5" font-family="Helvetica,sans-Serif" font-size="10.00">error_type.h</text>
</a>
</g>
</g>
<!-- Node7&#45;&gt;Node8 -->
<g id="edge8" class="edge">
<title>Node7&#45;&gt;Node8</title>
<path fill="none" stroke="midnightblue" d="M253.7,-336.32C238.9,-327.82 216.11,-314.73 198.82,-304.8"/>
<polygon fill="midnightblue" stroke="midnightblue" points="200.28,-301.6 189.87,-299.65 196.8,-307.67 200.28,-301.6"/>
</g>
<!-- Node9 -->
<g id="node9" class="node">
<title>Node9</title>
<g id="a_node9"><a xlink:href="error__msg_8h.html" target="_top" xlink:title=" ">
<polygon fill="none" stroke="black" points="231.3,-280.5 231.3,-299.5 306.3,-299.5 306.3,-280.5 231.3,-280.5"/>
<text text-anchor="middle" x="268.8" y="-287.5" font-family="Helvetica,sans-Serif" font-size="10.00">error_msg.h</text>
</a>
</g>
</g>
<!-- Node7&#45;&gt;Node9 -->
<g id="edge9" class="edge">
<title>Node7&#45;&gt;Node9</title>
<path fill="none" stroke="midnightblue" d="M268.8,-336.08C268.8,-329.01 268.8,-318.86 268.8,-309.99"/>
<polygon fill="midnightblue" stroke="midnightblue" points="272.3,-309.75 268.8,-299.75 265.3,-309.75 272.3,-309.75"/>
</g>
<!-- Node7&#45;&gt;Node22 -->
<g id="edge28" class="edge">
<title>Node7&#45;&gt;Node22</title>
<path fill="none" stroke="midnightblue" d="M282.73,-336.31C300.35,-324.16 327.01,-301.21 314.8,-280 298.9,-252.39 274.69,-267.16 252.8,-244 240.06,-230.51 231.08,-211.15 225.75,-197.07"/>
<polygon fill="midnightblue" stroke="midnightblue" points="229,-195.78 222.37,-187.52 222.4,-198.11 229,-195.78"/>
</g>
<!-- Node10 -->
<g id="node10" class="node">
<title>Node10</title>
<g id="a_node10"><a xlink:title=" ">
<polygon fill="none" stroke="#bfbfbf" points="414.8,-112.5 414.8,-131.5 464.8,-131.5 464.8,-112.5 414.8,-112.5"/>
<text text-anchor="middle" x="439.8" y="-119.5" font-family="Helvetica,sans-Serif" font-size="10.00">stdio.h</text>
</a>
</g>
</g>
<!-- Node9&#45;&gt;Node10 -->
<g id="edge10" class="edge">
<title>Node9&#45;&gt;Node10</title>
<path fill="none" stroke="midnightblue" d="M254.87,-280.38C223.53,-259.97 152.74,-207.43 185.8,-168 213.27,-135.23 341.08,-126.31 404.26,-123.89"/>
<polygon fill="midnightblue" stroke="midnightblue" points="404.67,-127.38 414.54,-123.54 404.43,-120.39 404.67,-127.38"/>
</g>
<!-- Node11 -->
<g id="node11" class="node">
<title>Node11</title>
<g id="a_node11"><a xlink:title=" ">
<polygon fill="none" stroke="#bfbfbf" points="102.3,-224.5 102.3,-243.5 153.3,-243.5 153.3,-224.5 102.3,-224.5"/>
<text text-anchor="middle" x="127.8" y="-231.5" font-family="Helvetica,sans-Serif" font-size="10.00">errno.h</text>
</a>
</g>
</g>
<!-- Node9&#45;&gt;Node11 -->
<g id="edge11" class="edge">
<title>Node9&#45;&gt;Node11</title>
<path fill="none" stroke="midnightblue" d="M246.46,-280.44C223.05,-271.48 186.07,-257.31 159.61,-247.18"/>
<polygon fill="midnightblue" stroke="midnightblue" points="160.63,-243.82 150.04,-243.52 158.13,-250.36 160.63,-243.82"/>
</g>
<!-- Node12 -->
<g id="node12" class="node">
<title>Node12</title>
<g id="a_node12"><a xlink:title=" ">
<polygon fill="none" stroke="#bfbfbf" points="37.3,-224.5 37.3,-243.5 84.3,-243.5 84.3,-224.5 37.3,-224.5"/>
<text text-anchor="middle" x="60.8" y="-231.5" font-family="Helvetica,sans-Serif" font-size="10.00">ft_fd.h</text>
</a>
</g>
</g>
<!-- Node9&#45;&gt;Node12 -->
<g id="edge12" class="edge">
<title>Node9&#45;&gt;Node12</title>
<path fill="none" stroke="midnightblue" d="M234.34,-280.45C200.82,-272.07 148.23,-258.78 94.28,-244.36"/>
<polygon fill="midnightblue" stroke="midnightblue" points="95.12,-240.96 84.55,-241.75 93.3,-247.72 95.12,-240.96"/>
</g>
<!-- Node9&#45;&gt;Node13 -->
<g id="edge13" class="edge">
<title>Node9&#45;&gt;Node13</title>
<path fill="none" stroke="midnightblue" d="M275.74,-280.08C281.73,-272.38 290.55,-261.03 297.85,-251.65"/>
<polygon fill="midnightblue" stroke="midnightblue" points="300.62,-253.79 304,-243.75 295.09,-249.5 300.62,-253.79"/>
</g>
<!-- Node14 -->
<g id="node14" class="node">
<title>Node14</title>
<g id="a_node14"><a xlink:title=" ">
<polygon fill="none" stroke="#bfbfbf" points="583.8,-0.5 583.8,-19.5 645.8,-19.5 645.8,-0.5 583.8,-0.5"/>
<text text-anchor="middle" x="614.8" y="-7.5" font-family="Helvetica,sans-Serif" font-size="10.00">stdbool.h</text>
</a>
</g>
</g>
<!-- Node13&#45;&gt;Node14 -->
<g id="edge14" class="edge">
<title>Node13&#45;&gt;Node14</title>
<path fill="none" stroke="midnightblue" d="M311.26,-224.22C312.92,-202.02 320.39,-143.19 353.8,-112 386.93,-81.08 510.34,-41.6 574.88,-22.45"/>
<polygon fill="midnightblue" stroke="midnightblue" points="576.11,-25.73 584.71,-19.55 574.13,-19.02 576.11,-25.73"/>
</g>
<!-- Node15 -->
<g id="node15" class="node">
<title>Node15</title>
<g id="a_node15"><a xlink:title=" ">
<polygon fill="none" stroke="#bfbfbf" points="229.3,-56.5 229.3,-75.5 282.3,-75.5 282.3,-56.5 229.3,-56.5"/>
<text text-anchor="middle" x="255.8" y="-63.5" font-family="Helvetica,sans-Serif" font-size="10.00">stdlib.h</text>
</a>
</g>
</g>
<!-- Node13&#45;&gt;Node15 -->
<g id="edge15" class="edge">
<title>Node13&#45;&gt;Node15</title>
<path fill="none" stroke="midnightblue" d="M307.85,-224.08C299.15,-197.83 273.54,-120.55 261.81,-85.12"/>
<polygon fill="midnightblue" stroke="midnightblue" points="265.11,-83.96 258.64,-75.57 258.46,-86.16 265.11,-83.96"/>
</g>
<!-- Node16 -->
<g id="node16" class="node">
<title>Node16</title>
<g id="a_node16"><a xlink:href="vec3_8h.html" target="_top" xlink:title=" ">
<polygon fill="none" stroke="black" points="503.3,-56.5 503.3,-75.5 552.3,-75.5 552.3,-56.5 503.3,-56.5"/>
<text text-anchor="middle" x="527.8" y="-63.5" font-family="Helvetica,sans-Serif" font-size="10.00">vec3.h</text>
</a>
</g>
</g>
<!-- Node13&#45;&gt;Node16 -->
<g id="edge16" class="edge">
<title>Node13&#45;&gt;Node16</title>
<path fill="none" stroke="midnightblue" d="M314.24,-224.21C324.21,-199.09 353.69,-127.77 372.8,-112 407.37,-83.47 459.25,-73.03 493.32,-69.2"/>
<polygon fill="midnightblue" stroke="midnightblue" points="493.67,-72.69 503.28,-68.22 492.98,-65.72 493.67,-72.69"/>
</g>
<!-- Node18 -->
<g id="node18" class="node">
<title>Node18</title>
<g id="a_node18"><a xlink:href="colour__bonus_8h.html" target="_top" xlink:title=" ">
<polygon fill="none" stroke="black" points="452.8,-168.5 452.8,-187.5 542.8,-187.5 542.8,-168.5 452.8,-168.5"/>
<text text-anchor="middle" x="497.8" y="-175.5" font-family="Helvetica,sans-Serif" font-size="10.00">colour_bonus.h</text>
</a>
</g>
</g>
<!-- Node13&#45;&gt;Node18 -->
<g id="edge19" class="edge">
<title>Node13&#45;&gt;Node18</title>
<path fill="none" stroke="midnightblue" d="M340.43,-224.44C372.3,-215.24 423.14,-200.56 458.37,-190.39"/>
<polygon fill="midnightblue" stroke="midnightblue" points="459.67,-193.65 468.31,-187.52 457.73,-186.93 459.67,-193.65"/>
</g>
<!-- Node16&#45;&gt;Node14 -->
<g id="edge18" class="edge">
<title>Node16&#45;&gt;Node14</title>
<path fill="none" stroke="midnightblue" d="M541.78,-56.32C555.35,-47.9 576.18,-34.97 592.13,-25.07"/>
<polygon fill="midnightblue" stroke="midnightblue" points="594.21,-27.9 600.86,-19.65 590.52,-21.95 594.21,-27.9"/>
</g>
<!-- Node17 -->
<g id="node17" class="node">
<title>Node17</title>
<g id="a_node17"><a xlink:title=" ">
<polygon fill="none" stroke="#bfbfbf" points="510.3,-0.5 510.3,-19.5 561.3,-19.5 561.3,-0.5 510.3,-0.5"/>
<text text-anchor="middle" x="535.8" y="-7.5" font-family="Helvetica,sans-Serif" font-size="10.00">math.h</text>
</a>
</g>
</g>
<!-- Node16&#45;&gt;Node17 -->
<g id="edge17" class="edge">
<title>Node16&#45;&gt;Node17</title>
<path fill="none" stroke="midnightblue" d="M529.12,-56.08C530.18,-48.93 531.71,-38.64 533.03,-29.69"/>
<polygon fill="midnightblue" stroke="midnightblue" points="536.5,-30.16 534.51,-19.75 529.58,-29.13 536.5,-30.16"/>
</g>
<!-- Node18&#45;&gt;Node10 -->
<g id="edge20" class="edge">
<title>Node18&#45;&gt;Node10</title>
<path fill="none" stroke="midnightblue" d="M488.48,-168.32C479.91,-160.34 466.99,-148.31 456.62,-138.65"/>
<polygon fill="midnightblue" stroke="midnightblue" points="458.99,-136.09 449.29,-131.83 454.22,-141.21 458.99,-136.09"/>
</g>
<!-- Node19 -->
<g id="node19" class="node">
<title>Node19</title>
<g id="a_node19"><a xlink:title=" ">
<polygon fill="none" stroke="#bfbfbf" points="903.3,-112.5 903.3,-131.5 956.3,-131.5 956.3,-112.5 903.3,-112.5"/>
<text text-anchor="middle" x="929.8" y="-119.5" font-family="Helvetica,sans-Serif" font-size="10.00">stdint.h</text>
</a>
</g>
</g>
<!-- Node18&#45;&gt;Node19 -->
<g id="edge21" class="edge">
<title>Node18&#45;&gt;Node19</title>
<path fill="none" stroke="midnightblue" d="M543.09,-173.7C616.79,-167.9 767.09,-154.36 892.8,-132 892.91,-131.98 893.01,-131.96 893.12,-131.94"/>
<polygon fill="midnightblue" stroke="midnightblue" points="894.11,-135.31 903.21,-129.89 892.71,-128.45 894.11,-135.31"/>
</g>
<!-- Node20 -->
<g id="node20" class="node">
<title>Node20</title>
<g id="a_node20"><a xlink:href="utils__bonus_8h.html" target="_top" xlink:title=" ">
<polygon fill="none" stroke="black" points="575.3,-112.5 575.3,-131.5 656.3,-131.5 656.3,-112.5 575.3,-112.5"/>
<text text-anchor="middle" x="615.8" y="-119.5" font-family="Helvetica,sans-Serif" font-size="10.00">utils_bonus.h</text>
</a>
</g>
</g>
<!-- Node18&#45;&gt;Node20 -->
<g id="edge22" class="edge">
<title>Node18&#45;&gt;Node20</title>
<path fill="none" stroke="midnightblue" d="M516.5,-168.44C535.75,-159.64 565.96,-145.81 588,-135.72"/>
<polygon fill="midnightblue" stroke="midnightblue" points="589.56,-138.86 597.19,-131.52 586.64,-132.5 589.56,-138.86"/>
</g>
<!-- Node20&#45;&gt;Node14 -->
<g id="edge24" class="edge">
<title>Node20&#45;&gt;Node14</title>
<path fill="none" stroke="midnightblue" d="M615.72,-112.37C615.56,-94.62 615.19,-53.67 614.97,-29.6"/>
<polygon fill="midnightblue" stroke="midnightblue" points="618.47,-29.56 614.88,-19.59 611.47,-29.62 618.47,-29.56"/>
</g>
<!-- Node20&#45;&gt;Node15 -->
<g id="edge25" class="edge">
<title>Node20&#45;&gt;Node15</title>
<path fill="none" stroke="midnightblue" d="M575.21,-114.91C504.69,-104.33 360.62,-82.72 292.74,-72.54"/>
<polygon fill="midnightblue" stroke="midnightblue" points="292.93,-69.03 282.53,-71.01 291.9,-75.95 292.93,-69.03"/>
</g>
<!-- Node20&#45;&gt;Node16 -->
<g id="edge27" class="edge">
<title>Node20&#45;&gt;Node16</title>
<path fill="none" stroke="midnightblue" d="M601.66,-112.32C587.94,-103.9 566.87,-90.97 550.74,-81.07"/>
<polygon fill="midnightblue" stroke="midnightblue" points="552.26,-77.9 541.91,-75.65 548.6,-83.87 552.26,-77.9"/>
</g>
<!-- Node20&#45;&gt;Node17 -->
<g id="edge23" class="edge">
<title>Node20&#45;&gt;Node17</title>
<path fill="none" stroke="midnightblue" d="M609.53,-112.37C596.32,-94.22 565.48,-51.8 548.16,-27.99"/>
<polygon fill="midnightblue" stroke="midnightblue" points="550.76,-25.62 542.05,-19.59 545.1,-29.74 550.76,-25.62"/>
</g>
<!-- Node21 -->
<g id="node21" class="node">
<title>Node21</title>
<g id="a_node21"><a xlink:title=" ">
<polygon fill="none" stroke="#bfbfbf" points="646.8,-56.5 646.8,-75.5 694.8,-75.5 694.8,-56.5 646.8,-56.5"/>
<text text-anchor="middle" x="670.8" y="-63.5" font-family="Helvetica,sans-Serif" font-size="10.00">time.h</text>
</a>
</g>
</g>
<!-- Node20&#45;&gt;Node21 -->
<g id="edge26" class="edge">
<title>Node20&#45;&gt;Node21</title>
<path fill="none" stroke="midnightblue" d="M624.88,-112.08C632.97,-104.14 645,-92.34 654.71,-82.8"/>
<polygon fill="midnightblue" stroke="midnightblue" points="657.21,-85.25 661.89,-75.75 652.3,-80.26 657.21,-85.25"/>
</g>
<!-- Node23&#45;&gt;Node16 -->
<g id="edge31" class="edge">
<title>Node23&#45;&gt;Node16</title>
<path fill="none" stroke="midnightblue" d="M555.74,-224.12C555.54,-211.56 554.76,-187.91 551.8,-168 547.45,-138.67 538.78,-105.32 533.14,-85.23"/>
<polygon fill="midnightblue" stroke="midnightblue" points="536.48,-84.2 530.36,-75.55 529.75,-86.13 536.48,-84.2"/>
</g>
<!-- Node23&#45;&gt;Node20 -->
<g id="edge32" class="edge">
<title>Node23&#45;&gt;Node20</title>
<path fill="none" stroke="midnightblue" d="M561.92,-224.24C568.04,-215.32 577.56,-200.99 584.8,-188 593.45,-172.49 602.05,-154.18 607.98,-140.96"/>
<polygon fill="midnightblue" stroke="midnightblue" points="611.28,-142.15 612.13,-131.59 604.88,-139.32 611.28,-142.15"/>
</g>
<!-- Node23&#45;&gt;Node22 -->
<g id="edge30" class="edge">
<title>Node23&#45;&gt;Node22</title>
<path fill="none" stroke="midnightblue" d="M524.79,-228.02C462.03,-217.93 320.34,-195.16 254.56,-184.59"/>
<polygon fill="midnightblue" stroke="midnightblue" points="255.11,-181.13 244.68,-183 254,-188.04 255.11,-181.13"/>
</g>
<!-- Node23&#45;&gt;Node24 -->
<g id="edge33" class="edge">
<title>Node23&#45;&gt;Node24</title>
<path fill="none" stroke="midnightblue" d="M587.2,-225.71C590.1,-225.1 593,-224.52 595.8,-224 672.8,-209.6 761.56,-196.79 822.64,-188.55"/>
<polygon fill="midnightblue" stroke="midnightblue" points="823.13,-192.02 832.57,-187.22 822.2,-185.08 823.13,-192.02"/>
</g>
<!-- Node25&#45;&gt;Node2 -->
<g id="edge36" class="edge">
<title>Node25&#45;&gt;Node2</title>
<path fill="none" stroke="midnightblue" d="M75.1,-336.08C78.65,-328.69 83.83,-317.95 88.23,-308.81"/>
<polygon fill="midnightblue" stroke="midnightblue" points="91.4,-310.28 92.59,-299.75 85.1,-307.24 91.4,-310.28"/>
</g>
<!-- Node25&#45;&gt;Node13 -->
<g id="edge37" class="edge">
<title>Node25&#45;&gt;Node13</title>
<path fill="none" stroke="midnightblue" d="M66.68,-336.26C60.89,-322.58 52.47,-296 65.8,-280 89.06,-252.09 187.31,-241.43 252.11,-237.4"/>
<polygon fill="midnightblue" stroke="midnightblue" points="252.43,-240.89 262.21,-236.81 252.02,-233.9 252.43,-240.89"/>
</g>
<!-- Node25&#45;&gt;Node15 -->
<g id="edge35" class="edge">
<title>Node25&#45;&gt;Node15</title>
<path fill="none" stroke="midnightblue" d="M61.65,-336.25C44.41,-318.77 8.8,-277.53 8.8,-235 8.8,-235 8.8,-235 8.8,-177 8.8,-86.14 150.01,-69.79 218.89,-67.22"/>
<polygon fill="midnightblue" stroke="midnightblue" points="219.01,-70.72 228.9,-66.93 218.8,-63.72 219.01,-70.72"/>
</g>
<!-- Node26&#45;&gt;Node16 -->
<g id="edge39" class="edge">
<title>Node26&#45;&gt;Node16</title>
<path fill="none" stroke="midnightblue" d="M657.88,-280.19C670.11,-252.38 703.26,-165.12 664.8,-112 641.72,-80.12 595.31,-70.42 562.94,-67.69"/>
<polygon fill="midnightblue" stroke="midnightblue" points="562.76,-64.17 552.55,-67.01 562.3,-71.16 562.76,-64.17"/>
</g>
<!-- Node27 -->
<g id="node27" class="node">
<title>Node27</title>
<g id="a_node27"><a xlink:href="mat4_8h.html" target="_top" xlink:title=" ">
<polygon fill="none" stroke="black" points="605.3,-224.5 605.3,-243.5 656.3,-243.5 656.3,-224.5 605.3,-224.5"/>
<text text-anchor="middle" x="630.8" y="-231.5" font-family="Helvetica,sans-Serif" font-size="10.00">mat4.h</text>
</a>
</g>
</g>
<!-- Node26&#45;&gt;Node27 -->
<g id="edge40" class="edge">
<title>Node26&#45;&gt;Node27</title>
<path fill="none" stroke="midnightblue" d="M650,-280.08C646.89,-272.77 642.38,-262.18 638.51,-253.1"/>
<polygon fill="midnightblue" stroke="midnightblue" points="641.67,-251.58 634.53,-243.75 635.23,-254.32 641.67,-251.58"/>
</g>
<!-- Node27&#45;&gt;Node20 -->
<g id="edge41" class="edge">
<title>Node27&#45;&gt;Node20</title>
<path fill="none" stroke="midnightblue" d="M629.8,-224.16C628.37,-211.64 625.59,-188.04 622.8,-168 621.59,-159.28 620.11,-149.63 618.82,-141.51"/>
<polygon fill="midnightblue" stroke="midnightblue" points="622.27,-140.93 617.23,-131.61 615.36,-142.04 622.27,-140.93"/>
</g>
<!-- Node28&#45;&gt;Node10 -->
<g id="edge43" class="edge">
<title>Node28&#45;&gt;Node10</title>
<path fill="none" stroke="midnightblue" d="M517.12,-280.35C498.31,-264.4 459.78,-228.28 443.8,-188 438,-173.37 437.32,-155.43 437.92,-142.1"/>
<polygon fill="midnightblue" stroke="midnightblue" points="441.43,-142.01 438.67,-131.78 434.45,-141.5 441.43,-142.01"/>
</g>
<!-- Node28&#45;&gt;Node13 -->
<g id="edge48" class="edge">
<title>Node28&#45;&gt;Node13</title>
<path fill="none" stroke="midnightblue" d="M503.67,-282.34C500.69,-281.54 497.68,-280.74 494.8,-280 447.95,-267.88 394.16,-254.83 356.89,-245.91"/>
<polygon fill="midnightblue" stroke="midnightblue" points="357.37,-242.43 346.84,-243.52 355.75,-249.24 357.37,-242.43"/>
</g>
<!-- Node28&#45;&gt;Node16 -->
<g id="edge44" class="edge">
<title>Node28&#45;&gt;Node16</title>
<path fill="none" stroke="midnightblue" d="M510.55,-280.46C496.07,-272.59 475.58,-259.77 461.8,-244 419.88,-196.01 369.36,-164.28 405.8,-112 425.35,-83.96 464.45,-73.35 493.14,-69.35"/>
<polygon fill="midnightblue" stroke="midnightblue" points="493.66,-72.82 503.18,-68.16 492.84,-65.87 493.66,-72.82"/>
</g>
<!-- Node28&#45;&gt;Node18 -->
<g id="edge47" class="edge">
<title>Node28&#45;&gt;Node18</title>
<path fill="none" stroke="midnightblue" d="M525.45,-280.37C520.59,-262.54 509.34,-221.3 502.79,-197.27"/>
<polygon fill="midnightblue" stroke="midnightblue" points="506.15,-196.32 500.15,-187.59 499.4,-198.16 506.15,-196.32"/>
</g>
<!-- Node28&#45;&gt;Node23 -->
<g id="edge46" class="edge">
<title>Node28&#45;&gt;Node23</title>
<path fill="none" stroke="midnightblue" d="M532.43,-280.08C536.26,-272.69 541.83,-261.95 546.57,-252.81"/>
<polygon fill="midnightblue" stroke="midnightblue" points="549.77,-254.24 551.27,-243.75 543.55,-251.02 549.77,-254.24"/>
</g>
<!-- Node28&#45;&gt;Node27 -->
<g id="edge45" class="edge">
<title>Node28&#45;&gt;Node27</title>
<path fill="none" stroke="midnightblue" d="M544.35,-280.32C560.79,-271.7 586.24,-258.36 605.27,-248.39"/>
<polygon fill="midnightblue" stroke="midnightblue" points="607.06,-251.4 614.3,-243.65 603.81,-245.2 607.06,-251.4"/>
</g>
<!-- Node29&#45;&gt;Node19 -->
<g id="edge51" class="edge">
<title>Node29&#45;&gt;Node19</title>
<path fill="none" stroke="midnightblue" d="M876.72,-224.5C912.26,-216.48 958.66,-203.42 969.8,-188 981.7,-171.54 965.01,-151.49 949.7,-138.04"/>
<polygon fill="midnightblue" stroke="midnightblue" points="951.92,-135.34 941.98,-131.67 947.46,-140.74 951.92,-135.34"/>
</g>
<!-- Node29&#45;&gt;Node24 -->
<g id="edge52" class="edge">
<title>Node29&#45;&gt;Node24</title>
<path fill="none" stroke="midnightblue" d="M843.92,-224.32C853.33,-216.26 867.55,-204.08 878.87,-194.37"/>
<polygon fill="midnightblue" stroke="midnightblue" points="881.18,-197 886.5,-187.83 876.63,-191.68 881.18,-197"/>
</g>
<!-- Node30&#45;&gt;Node14 -->
<g id="edge55" class="edge">
<title>Node30&#45;&gt;Node14</title>
<path fill="none" stroke="midnightblue" d="M759.58,-168.39C746.09,-140.92 704.91,-57.11 703.8,-56 689.29,-41.38 669.05,-30.63 651.53,-23.31"/>
<polygon fill="midnightblue" stroke="midnightblue" points="652.72,-20.02 642.14,-19.59 650.15,-26.53 652.72,-20.02"/>
</g>
<!-- Node30&#45;&gt;Node19 -->
<g id="edge54" class="edge">
<title>Node30&#45;&gt;Node19</title>
<path fill="none" stroke="midnightblue" d="M790.11,-168.44C818.15,-159.32 862.75,-144.81 893.99,-134.65"/>
<polygon fill="midnightblue" stroke="midnightblue" points="895.2,-137.94 903.62,-131.52 893.03,-131.28 895.2,-137.94"/>
</g>
<!-- Node31 -->
<g id="node31" class="node">
<title>Node31</title>
<g id="a_node31"><a xlink:href="render__options__bonus_8h.html" target="_top" xlink:title=" ">
<polygon fill="none" stroke="black" points="751.3,-112.5 751.3,-131.5 884.3,-131.5 884.3,-112.5 751.3,-112.5"/>
<text text-anchor="middle" x="817.8" y="-119.5" font-family="Helvetica,sans-Serif" font-size="10.00">render_options_bonus.h</text>
</a>
</g>
</g>
<!-- Node30&#45;&gt;Node31 -->
<g id="edge56" class="edge">
<title>Node30&#45;&gt;Node31</title>
<path fill="none" stroke="midnightblue" d="M772.72,-168.08C780.58,-160.22 792.23,-148.57 801.72,-139.08"/>
<polygon fill="midnightblue" stroke="midnightblue" points="804.46,-141.3 809.05,-131.75 799.51,-136.35 804.46,-141.3"/>
</g>
<!-- Node32&#45;&gt;Node13 -->
<g id="edge59" class="edge">
<title>Node32&#45;&gt;Node13</title>
<path fill="none" stroke="midnightblue" d="M426.09,-280.44C403.45,-271.52 367.73,-257.44 342.05,-247.32"/>
<polygon fill="midnightblue" stroke="midnightblue" points="343,-243.93 332.41,-243.52 340.43,-250.44 343,-243.93"/>
</g>
<!-- Node32&#45;&gt;Node23 -->
<g id="edge60" class="edge">
<title>Node32&#45;&gt;Node23</title>
<path fill="none" stroke="midnightblue" d="M465.15,-280.32C482.47,-271.66 509.32,-258.24 529.3,-248.25"/>
<polygon fill="midnightblue" stroke="midnightblue" points="531.11,-251.26 538.49,-243.65 527.98,-245 531.11,-251.26"/>
</g>
<!-- Node33&#45;&gt;Node19 -->
<g id="edge63" class="edge">
<title>Node33&#45;&gt;Node19</title>
<path fill="none" stroke="midnightblue" d="M1038.36,-168.44C1017.13,-159.56 983.7,-145.56 959.55,-135.45"/>
<polygon fill="midnightblue" stroke="midnightblue" points="960.72,-132.15 950.15,-131.52 958.02,-138.61 960.72,-132.15"/>
</g>
<!-- Node33&#45;&gt;Node21 -->
<g id="edge65" class="edge">
<title>Node33&#45;&gt;Node21</title>
<path fill="none" stroke="midnightblue" d="M1059.06,-168.25C1058.95,-154.05 1056.47,-126.15 1039.8,-112 989.83,-69.58 786.84,-66.15 705.12,-66.54"/>
<polygon fill="midnightblue" stroke="midnightblue" points="704.85,-63.04 694.88,-66.61 704.9,-70.04 704.85,-63.04"/>
</g>
<!-- Node34 -->
<g id="node34" class="node">
<title>Node34</title>
<g id="a_node34"><a xlink:title=" ">
<polygon fill="none" stroke="#bfbfbf" points="974.8,-112.5 974.8,-131.5 1030.8,-131.5 1030.8,-112.5 974.8,-112.5"/>
<text text-anchor="middle" x="1002.8" y="-119.5" font-family="Helvetica,sans-Serif" font-size="10.00">unistd.h</text>
</a>
</g>
</g>
<!-- Node33&#45;&gt;Node34 -->
<g id="edge64" class="edge">
<title>Node33&#45;&gt;Node34</title>
<path fill="none" stroke="midnightblue" d="M1049.81,-168.32C1041.61,-160.42 1029.3,-148.55 1019.33,-138.94"/>
<polygon fill="midnightblue" stroke="midnightblue" points="1021.59,-136.26 1011.96,-131.83 1016.73,-141.29 1021.59,-136.26"/>
</g>
</g>
</svg>
