<?xml version="1.0" encoding="UTF-8" standalone="no"?>
<!DOCTYPE svg PUBLIC "-//W3C//DTD SVG 1.1//EN"
 "http://www.w3.org/Graphics/SVG/1.1/DTD/svg11.dtd">
<!-- Generated by graphviz version 2.43.0 (0)
 -->
<!-- Title: ft_manip_scene Pages: 1 -->
<!--zoomable 218 -->
<svg id="main" version="1.1" xmlns="http://www.w3.org/2000/svg" xmlns:xlink="http://www.w3.org/1999/xlink" xml:space="preserve" onload="init(evt)">
<style type="text/css"><![CDATA[
.edge:hover path { stroke: red; }
.edge:hover polygon { stroke: red; fill: red; }
]]></style>
<script type="text/javascript"><![CDATA[
var edges = document.getElementsByTagName('g');
if (edges && edges.length) {
  for (var i=0;i<edges.length;i++) {
    if (edges[i].id.substr(0,4)=='edge') {
      edges[i].setAttribute('class','edge');
    }
  }
}
]]></script>
        <defs>
                <circle id="rim" cx="0" cy="0" r="7"/>
                <circle id="rim2" cx="0" cy="0" r="3.5"/>
                <g id="zoomPlus">
                        <use xlink:href="#rim" fill="#404040">
                                <set attributeName="fill" to="#808080" begin="zoomplus.mouseover" end="zoomplus.mouseout"/>
                        </use>
                        <path d="M-4,0h8M0,-4v8" fill="none" stroke="white" stroke-width="1.5" pointer-events="none"/>
                </g>
                <g id="zoomMin">
                        <use xlink:href="#rim" fill="#404040">
                                <set attributeName="fill" to="#808080" begin="zoomminus.mouseover" end="zoomminus.mouseout"/>
                        </use>
                        <path d="M-4,0h8" fill="none" stroke="white" stroke-width="1.5" pointer-events="none"/>
                </g>
                <g id="dirArrow">
                        <path fill="none" stroke="white" stroke-width="1.5" d="M0,-3.0v7 M-2.5,-0.5L0,-3.0L2.5,-0.5"/>
                </g>
               <g id="resetDef">
                       <use xlink:href="#rim2" fill="#404040">
                               <set attributeName="fill" to="#808080" begin="reset.mouseover" end="reset.mouseout"/>
                       </use>
               </g>
        </defs>

<script type="text/javascript">
var viewWidth = 1044;
var viewHeight = 218;
var sectionId = 'dynsection-23';
</script>
<script xlink:href="svgpan.js"/>
<svg id="graph" class="graph">
<g id="viewport">
<title>ft_manip_scene</title>
<!-- Node1 -->
<g id="node1" class="node">
<title>Node1</title>
<g id="a_node1"><a xlink:title="Manipulates the active hittable.">
<polygon fill="#bfbfbf" stroke="black" points="0,-95.5 0,-114.5 93,-114.5 93,-95.5 0,-95.5"/>
<text text-anchor="middle" x="46.5" y="-102.5" font-family="Helvetica,sans-Serif" font-size="10.00">ft_manip_scene</text>
</a>
</g>
</g>
<!-- Node2 -->
<g id="node2" class="node">
<title>Node2</title>
<g id="a_node2"><a xlink:href="render__keyhook__scene_8c.html#ab531dc49f0a5aa08f0e342d3c4ea2fe8" target="_top" xlink:title="Changes the active hittable.">
<polygon fill="none" stroke="black" points="129,-114.5 129,-133.5 271,-133.5 271,-114.5 129,-114.5"/>
<text text-anchor="middle" x="200" y="-121.5" font-family="Helvetica,sans-Serif" font-size="10.00">ft_change_active_hittable</text>
</a>
</g>
</g>
<!-- Node1&#45;&gt;Node2 -->
<g id="edge1" class="edge">
<title>Node1&#45;&gt;Node2</title>
<path fill="none" stroke="midnightblue" d="M93.37,-110.75C101.53,-111.78 110.24,-112.87 119.03,-113.97"/>
<polygon fill="midnightblue" stroke="midnightblue" points="118.61,-117.44 128.96,-115.22 119.48,-110.5 118.61,-117.44"/>
</g>
<!-- Node3 -->
<g id="node3" class="node">
<title>Node3</title>
<g id="a_node3"><a xlink:href="render_8h.html#aadc3a7a6894a18793745d24caf2ef281" target="_top" xlink:title="Manipulates the active hittable.">
<polygon fill="none" stroke="black" points="149,-76.5 149,-95.5 251,-95.5 251,-76.5 149,-76.5"/>
<text text-anchor="middle" x="200" y="-83.5" font-family="Helvetica,sans-Serif" font-size="10.00">ft_manip_hittable</text>
</a>
</g>
</g>
<!-- Node1&#45;&gt;Node3 -->
<g id="edge2" class="edge">
<title>Node1&#45;&gt;Node3</title>
<path fill="none" stroke="midnightblue" d="M93.37,-99.25C107.59,-97.46 123.49,-95.47 138.54,-93.58"/>
<polygon fill="midnightblue" stroke="midnightblue" points="139.31,-97.01 148.8,-92.3 138.44,-90.07 139.31,-97.01"/>
</g>
<!-- Node4 -->
<g id="node4" class="node">
<title>Node4</title>
<g id="a_node4"><a xlink:href="render__keyhook__hittable_8c.html#af500a65a1e441d08240efa30fa8c1e27" target="_top" xlink:title="Manipulates the active cylinder.">
<polygon fill="none" stroke="black" points="307,-76.5 307,-95.5 411,-95.5 411,-76.5 307,-76.5"/>
<text text-anchor="middle" x="359" y="-83.5" font-family="Helvetica,sans-Serif" font-size="10.00">ft_manip_cylinder</text>
</a>
</g>
</g>
<!-- Node3&#45;&gt;Node4 -->
<g id="edge3" class="edge">
<title>Node3&#45;&gt;Node4</title>
<path fill="none" stroke="midnightblue" d="M251.11,-86C265.54,-86 281.46,-86 296.5,-86"/>
<polygon fill="midnightblue" stroke="midnightblue" points="296.75,-89.5 306.75,-86 296.75,-82.5 296.75,-89.5"/>
</g>
<!-- Node22 -->
<g id="node22" class="node">
<title>Node22</title>
<g id="a_node22"><a xlink:href="render__keyhook__hittable_8c.html#a5fcb632e750265c23a4a6cd3fe090d35" target="_top" xlink:title="Manipulates the active plane.">
<polygon fill="none" stroke="black" points="313,-114.5 313,-133.5 405,-133.5 405,-114.5 313,-114.5"/>
<text text-anchor="middle" x="359" y="-121.5" font-family="Helvetica,sans-Serif" font-size="10.00">ft_manip_plane</text>
</a>
</g>
</g>
<!-- Node3&#45;&gt;Node22 -->
<g id="edge26" class="edge">
<title>Node3&#45;&gt;Node22</title>
<path fill="none" stroke="midnightblue" d="M240.62,-95.59C261.34,-100.6 286.89,-106.79 308.86,-112.11"/>
<polygon fill="midnightblue" stroke="midnightblue" points="308.12,-115.53 318.67,-114.48 309.77,-108.73 308.12,-115.53"/>
</g>
<!-- Node23 -->
<g id="node23" class="node">
<title>Node23</title>
<g id="a_node23"><a xlink:href="render__keyhook__hittable_8c.html#ad16e4429a179a680b2bbf187f659f269" target="_top" xlink:title="Manipulates the active sphere.">
<polygon fill="none" stroke="black" points="310,-38.5 310,-57.5 408,-57.5 408,-38.5 310,-38.5"/>
<text text-anchor="middle" x="359" y="-45.5" font-family="Helvetica,sans-Serif" font-size="10.00">ft_manip_sphere</text>
</a>
</g>
</g>
<!-- Node3&#45;&gt;Node23 -->
<g id="edge30" class="edge">
<title>Node3&#45;&gt;Node23</title>
<path fill="none" stroke="midnightblue" d="M240.62,-76.41C261.34,-71.4 286.89,-65.21 308.86,-59.89"/>
<polygon fill="midnightblue" stroke="midnightblue" points="309.77,-63.27 318.67,-57.52 308.12,-56.47 309.77,-63.27"/>
</g>
<!-- Node5 -->
<g id="node5" class="node">
<title>Node5</title>
<g id="a_node5"><a xlink:href="entities_8h.html#a04247c619f2a14a5a1fdb06004b8cb03" target="_top" xlink:title="Calculates the planes of the caps of a cylinder.">
<polygon fill="none" stroke="black" points="466,-38.5 466,-57.5 558,-57.5 558,-38.5 466,-38.5"/>
<text text-anchor="middle" x="512" y="-45.5" font-family="Helvetica,sans-Serif" font-size="10.00">ft_cy_calc_caps</text>
</a>
</g>
</g>
<!-- Node4&#45;&gt;Node5 -->
<g id="edge4" class="edge">
<title>Node4&#45;&gt;Node5</title>
<path fill="none" stroke="midnightblue" d="M398.1,-76.41C417.94,-71.42 442.38,-65.27 463.45,-59.97"/>
<polygon fill="midnightblue" stroke="midnightblue" points="464.33,-63.35 473.17,-57.52 462.62,-56.57 464.33,-63.35"/>
</g>
<!-- Node8 -->
<g id="node8" class="node">
<title>Node8</title>
<g id="a_node8"><a xlink:href="render_8h.html#ae38e8dc9d9b53b672eab499e211c6d9a" target="_top" xlink:title="Changes the colour with a keypress.">
<polygon fill="none" stroke="black" points="447,-76.5 447,-95.5 577,-95.5 577,-76.5 447,-76.5"/>
<text text-anchor="middle" x="512" y="-83.5" font-family="Helvetica,sans-Serif" font-size="10.00">ft_keyhook_change_col</text>
</a>
</g>
</g>
<!-- Node4&#45;&gt;Node8 -->
<g id="edge7" class="edge">
<title>Node4&#45;&gt;Node8</title>
<path fill="none" stroke="midnightblue" d="M411.12,-86C419.36,-86 428.04,-86 436.69,-86"/>
<polygon fill="midnightblue" stroke="midnightblue" points="436.81,-89.5 446.81,-86 436.81,-82.5 436.81,-89.5"/>
</g>
<!-- Node10 -->
<g id="node10" class="node">
<title>Node10</title>
<g id="a_node10"><a xlink:href="render_8h.html#a4887ea4bfcf40faaa9be3002ec25d5ee" target="_top" xlink:title="Increases or decreases a value with a keypress.">
<polygon fill="none" stroke="black" points="456,-0.5 456,-19.5 568,-19.5 568,-0.5 456,-0.5"/>
<text text-anchor="middle" x="512" y="-7.5" font-family="Helvetica,sans-Serif" font-size="10.00">ft_keyhook_inc_dec</text>
</a>
</g>
</g>
<!-- Node4&#45;&gt;Node10 -->
<g id="edge9" class="edge">
<title>Node4&#45;&gt;Node10</title>
<path fill="none" stroke="midnightblue" d="M392.37,-76.48C398.81,-73.9 405.33,-70.75 411,-67 430.4,-54.16 427.17,-41.17 447,-29 450.4,-26.91 454.05,-25.04 457.81,-23.37"/>
<polygon fill="midnightblue" stroke="midnightblue" points="459.32,-26.53 467.33,-19.6 456.75,-20.02 459.32,-26.53"/>
</g>
<!-- Node11 -->
<g id="node11" class="node">
<title>Node11</title>
<g id="a_node11"><a xlink:href="render_8h.html#a7b4f1510b7e7eecfb0520b0765d5c9de" target="_top" xlink:title="Moves a 3D point with a keypress.">
<polygon fill="none" stroke="black" points="451.5,-114.5 451.5,-133.5 572.5,-133.5 572.5,-114.5 451.5,-114.5"/>
<text text-anchor="middle" x="512" y="-121.5" font-family="Helvetica,sans-Serif" font-size="10.00">ft_keyhook_mv_point</text>
</a>
</g>
</g>
<!-- Node4&#45;&gt;Node11 -->
<g id="edge10" class="edge">
<title>Node4&#45;&gt;Node11</title>
<path fill="none" stroke="midnightblue" d="M398.1,-95.59C417.94,-100.58 442.38,-106.73 463.45,-112.03"/>
<polygon fill="midnightblue" stroke="midnightblue" points="462.62,-115.43 473.17,-114.48 464.33,-108.65 462.62,-115.43"/>
</g>
<!-- Node12 -->
<g id="node12" class="node">
<title>Node12</title>
<g id="a_node12"><a xlink:href="render_8h.html#adf1bfe4072ecc554c2084447411db434" target="_top" xlink:title="Rotates a 3D vector with a keypress.">
<polygon fill="none" stroke="black" points="456.5,-152.5 456.5,-171.5 567.5,-171.5 567.5,-152.5 456.5,-152.5"/>
<text text-anchor="middle" x="512" y="-159.5" font-family="Helvetica,sans-Serif" font-size="10.00">ft_keyhook_rot_vec</text>
</a>
</g>
</g>
<!-- Node4&#45;&gt;Node12 -->
<g id="edge11" class="edge">
<title>Node4&#45;&gt;Node12</title>
<path fill="none" stroke="midnightblue" d="M392.37,-95.52C398.81,-98.1 405.33,-101.25 411,-105 430.4,-117.84 427.17,-130.83 447,-143 450.4,-145.09 454.05,-146.96 457.81,-148.63"/>
<polygon fill="midnightblue" stroke="midnightblue" points="456.75,-151.98 467.33,-152.4 459.32,-145.47 456.75,-151.98"/>
</g>
<!-- Node6 -->
<g id="node6" class="node">
<title>Node6</title>
<g id="a_node6"><a xlink:href="vec3_8h.html#a73e2caf4c2a51ed954b7349c6be2b3c3" target="_top" xlink:title="Add two vectors.">
<polygon fill="none" stroke="black" points="624.5,-38.5 624.5,-57.5 699.5,-57.5 699.5,-38.5 624.5,-38.5"/>
<text text-anchor="middle" x="662" y="-45.5" font-family="Helvetica,sans-Serif" font-size="10.00">ft_vec3_add</text>
</a>
</g>
</g>
<!-- Node5&#45;&gt;Node6 -->
<g id="edge5" class="edge">
<title>Node5&#45;&gt;Node6</title>
<path fill="none" stroke="midnightblue" d="M558.21,-48C575.97,-48 596.36,-48 614.27,-48"/>
<polygon fill="midnightblue" stroke="midnightblue" points="614.49,-51.5 624.49,-48 614.49,-44.5 614.49,-51.5"/>
</g>
<!-- Node7 -->
<g id="node7" class="node">
<title>Node7</title>
<g id="a_node7"><a xlink:href="vec3_8h.html#ac80a1c20941c96a8fafad255dac59092" target="_top" xlink:title="Scale a vector.">
<polygon fill="none" stroke="black" points="936,-19.5 936,-38.5 1019,-38.5 1019,-19.5 936,-19.5"/>
<text text-anchor="middle" x="977.5" y="-26.5" font-family="Helvetica,sans-Serif" font-size="10.00">ft_vec3_scale</text>
</a>
</g>
</g>
<!-- Node5&#45;&gt;Node7 -->
<g id="edge6" class="edge">
<title>Node5&#45;&gt;Node7</title>
<path fill="none" stroke="midnightblue" d="M553.62,-38.49C571.69,-34.72 593.29,-30.86 613,-29 724.01,-18.55 854.93,-22.52 925.41,-25.99"/>
<polygon fill="midnightblue" stroke="midnightblue" points="925.6,-29.5 935.77,-26.52 925.96,-22.51 925.6,-29.5"/>
</g>
<!-- Node9 -->
<g id="node9" class="node">
<title>Node9</title>
<g id="a_node9"><a xlink:href="colour_8h.html#a5d187c5314483276ba15560dcf620e39" target="_top" xlink:title="Returns a colour based on the given colour name.">
<polygon fill="none" stroke="black" points="622,-76.5 622,-95.5 702,-95.5 702,-76.5 622,-76.5"/>
<text text-anchor="middle" x="662" y="-83.5" font-family="Helvetica,sans-Serif" font-size="10.00">ft_get_colour</text>
</a>
</g>
</g>
<!-- Node8&#45;&gt;Node9 -->
<g id="edge8" class="edge">
<title>Node8&#45;&gt;Node9</title>
<path fill="none" stroke="midnightblue" d="M577.05,-86C588.54,-86 600.35,-86 611.35,-86"/>
<polygon fill="midnightblue" stroke="midnightblue" points="611.62,-89.5 621.62,-86 611.62,-82.5 611.62,-89.5"/>
</g>
<!-- Node13 -->
<g id="node13" class="node">
<title>Node13</title>
<g id="a_node13"><a xlink:href="mat4__vec3_8h.html#a211f9d6535bb54bea2299ee5ea8a54a0" target="_top" xlink:title="Rotates a 3D vector around the x&#45;axis.">
<polygon fill="none" stroke="black" points="613,-152.5 613,-171.5 711,-171.5 711,-152.5 613,-152.5"/>
<text text-anchor="middle" x="662" y="-159.5" font-family="Helvetica,sans-Serif" font-size="10.00">ft_vec3_rotate_x</text>
</a>
</g>
</g>
<!-- Node12&#45;&gt;Node13 -->
<g id="edge12" class="edge">
<title>Node12&#45;&gt;Node13</title>
<path fill="none" stroke="midnightblue" d="M567.69,-162C579.15,-162 591.28,-162 602.87,-162"/>
<polygon fill="midnightblue" stroke="midnightblue" points="602.88,-165.5 612.88,-162 602.88,-158.5 602.88,-165.5"/>
</g>
<!-- Node20 -->
<g id="node20" class="node">
<title>Node20</title>
<g id="a_node20"><a xlink:href="mat4__vec3_8h.html#ac8a4ca6fb927e3746e7129f8eb04aa46" target="_top" xlink:title="Rotates a 3D vector around the y&#45;axis.">
<polygon fill="none" stroke="black" points="613,-114.5 613,-133.5 711,-133.5 711,-114.5 613,-114.5"/>
<text text-anchor="middle" x="662" y="-121.5" font-family="Helvetica,sans-Serif" font-size="10.00">ft_vec3_rotate_y</text>
</a>
</g>
</g>
<!-- Node12&#45;&gt;Node20 -->
<g id="edge20" class="edge">
<title>Node12&#45;&gt;Node20</title>
<path fill="none" stroke="midnightblue" d="M550.35,-152.41C569.7,-147.44 593.53,-141.32 614.11,-136.04"/>
<polygon fill="midnightblue" stroke="midnightblue" points="615.11,-139.4 623.92,-133.52 613.37,-132.62 615.11,-139.4"/>
</g>
<!-- Node14 -->
<g id="node14" class="node">
<title>Node14</title>
<g id="a_node14"><a xlink:href="mat4_8h.html#a96153e828811e816c64e7d0e19fcf654" target="_top" xlink:title="Creates a 4x4 transformation matrix for x&#45;axis rotation.">
<polygon fill="none" stroke="black" points="747,-190.5 747,-209.5 883,-209.5 883,-190.5 747,-190.5"/>
<text text-anchor="middle" x="815" y="-197.5" font-family="Helvetica,sans-Serif" font-size="10.00">ft_mat4_create_rotate_x</text>
</a>
</g>
</g>
<!-- Node13&#45;&gt;Node14 -->
<g id="edge13" class="edge">
<title>Node13&#45;&gt;Node14</title>
<path fill="none" stroke="midnightblue" d="M701.1,-171.59C720.94,-176.58 745.38,-182.73 766.45,-188.03"/>
<polygon fill="midnightblue" stroke="midnightblue" points="765.62,-191.43 776.17,-190.48 767.33,-184.65 765.62,-191.43"/>
</g>
<!-- Node17 -->
<g id="node17" class="node">
<title>Node17</title>
<g id="a_node17"><a xlink:href="mat4__vec3__rotate_8c.html#a53ea797ed37dea591e9e86121a849aca" target="_top" xlink:title="Multiplies a 4x4 matrix with a 3D vector.">
<polygon fill="none" stroke="black" points="760,-152.5 760,-171.5 870,-171.5 870,-152.5 760,-152.5"/>
<text text-anchor="middle" x="815" y="-159.5" font-family="Helvetica,sans-Serif" font-size="10.00">ft_vec3_mult_mat4</text>
</a>
</g>
</g>
<!-- Node13&#45;&gt;Node17 -->
<g id="edge16" class="edge">
<title>Node13&#45;&gt;Node17</title>
<path fill="none" stroke="midnightblue" d="M711.19,-162C723.45,-162 736.82,-162 749.74,-162"/>
<polygon fill="midnightblue" stroke="midnightblue" points="749.98,-165.5 759.98,-162 749.98,-158.5 749.98,-165.5"/>
</g>
<!-- Node18 -->
<g id="node18" class="node">
<title>Node18</title>
<g id="a_node18"><a xlink:href="vec3_8h.html#a38fe500bd27847b866b9630146e43250" target="_top" xlink:title="Normalise a vector.">
<polygon fill="none" stroke="black" points="773.5,-76.5 773.5,-95.5 856.5,-95.5 856.5,-76.5 773.5,-76.5"/>
<text text-anchor="middle" x="815" y="-83.5" font-family="Helvetica,sans-Serif" font-size="10.00">ft_vec3_norm</text>
</a>
</g>
</g>
<!-- Node13&#45;&gt;Node18 -->
<g id="edge17" class="edge">
<title>Node13&#45;&gt;Node18</title>
<path fill="none" stroke="midnightblue" d="M692.96,-152.48C699.18,-149.87 705.51,-146.72 711,-143 730.27,-129.97 727.1,-117.05 747,-105 752.1,-101.91 757.73,-99.31 763.48,-97.12"/>
<polygon fill="midnightblue" stroke="midnightblue" points="764.88,-100.34 773.22,-93.81 762.62,-93.71 764.88,-100.34"/>
</g>
<!-- Node15 -->
<g id="node15" class="node">
<title>Node15</title>
<g id="a_node15"><a xlink:href="utils_8h.html#a7d1328722f9dc6edd652f7c732856ae9" target="_top" xlink:title="Transforms degrees into radian.">
<polygon fill="none" stroke="black" points="921,-133.5 921,-152.5 1034,-152.5 1034,-133.5 921,-133.5"/>
<text text-anchor="middle" x="977.5" y="-140.5" font-family="Helvetica,sans-Serif" font-size="10.00">ft_degree_to_radian</text>
</a>
</g>
</g>
<!-- Node14&#45;&gt;Node15 -->
<g id="edge14" class="edge">
<title>Node14&#45;&gt;Node15</title>
<path fill="none" stroke="midnightblue" d="M852.39,-190.46C862.38,-187.63 873.17,-184.38 883,-181 904.11,-173.74 927.37,-164.3 945.41,-156.64"/>
<polygon fill="midnightblue" stroke="midnightblue" points="947.03,-159.75 954.84,-152.59 944.27,-153.32 947.03,-159.75"/>
</g>
<!-- Node16 -->
<g id="node16" class="node">
<title>Node16</title>
<g id="a_node16"><a xlink:href="mat4_8h.html#ad20d2d0fd3d7862225345a79b062f03a" target="_top" xlink:title="Returns a 4x4 identity matrix.">
<polygon fill="none" stroke="black" points="919,-180.5 919,-199.5 1036,-199.5 1036,-180.5 919,-180.5"/>
<text text-anchor="middle" x="977.5" y="-187.5" font-family="Helvetica,sans-Serif" font-size="10.00">ft_mat4_set_identity</text>
</a>
</g>
</g>
<!-- Node14&#45;&gt;Node16 -->
<g id="edge15" class="edge">
<title>Node14&#45;&gt;Node16</title>
<path fill="none" stroke="midnightblue" d="M883.14,-195.82C891.56,-195.29 900.19,-194.75 908.63,-194.23"/>
<polygon fill="midnightblue" stroke="midnightblue" points="909.04,-197.71 918.8,-193.59 908.61,-190.72 909.04,-197.71"/>
</g>
<!-- Node18&#45;&gt;Node7 -->
<g id="edge19" class="edge">
<title>Node18&#45;&gt;Node7</title>
<path fill="none" stroke="midnightblue" d="M842.86,-76.46C869.48,-67.01 910.44,-52.46 940,-41.96"/>
<polygon fill="midnightblue" stroke="midnightblue" points="941.3,-45.22 949.55,-38.57 938.95,-38.62 941.3,-45.22"/>
</g>
<!-- Node19 -->
<g id="node19" class="node">
<title>Node19</title>
<g id="a_node19"><a xlink:href="vec3__linalgebra_8c.html#aa84621bd979d3b12b97908f653faf88e" target="_top" xlink:title="Calculate the absolute value of a vector.">
<polygon fill="none" stroke="black" points="940.5,-76.5 940.5,-95.5 1014.5,-95.5 1014.5,-76.5 940.5,-76.5"/>
<text text-anchor="middle" x="977.5" y="-83.5" font-family="Helvetica,sans-Serif" font-size="10.00">ft_vec3_abs</text>
</a>
</g>
</g>
<!-- Node18&#45;&gt;Node19 -->
<g id="edge18" class="edge">
<title>Node18&#45;&gt;Node19</title>
<path fill="none" stroke="midnightblue" d="M856.5,-86C878.99,-86 907.05,-86 930.38,-86"/>
<polygon fill="midnightblue" stroke="midnightblue" points="930.39,-89.5 940.39,-86 930.39,-82.5 930.39,-89.5"/>
</g>
<!-- Node20&#45;&gt;Node17 -->
<g id="edge24" class="edge">
<title>Node20&#45;&gt;Node17</title>
<path fill="none" stroke="midnightblue" d="M701.1,-133.59C720.94,-138.58 745.38,-144.73 766.45,-150.03"/>
<polygon fill="midnightblue" stroke="midnightblue" points="765.62,-153.43 776.17,-152.48 767.33,-146.65 765.62,-153.43"/>
</g>
<!-- Node20&#45;&gt;Node18 -->
<g id="edge25" class="edge">
<title>Node20&#45;&gt;Node18</title>
<path fill="none" stroke="midnightblue" d="M701.1,-114.41C720.94,-109.42 745.38,-103.27 766.45,-97.97"/>
<polygon fill="midnightblue" stroke="midnightblue" points="767.33,-101.35 776.17,-95.52 765.62,-94.57 767.33,-101.35"/>
</g>
<!-- Node21 -->
<g id="node21" class="node">
<title>Node21</title>
<g id="a_node21"><a xlink:href="mat4_8h.html#a3f33a47cb6e2a560791c9be852f27b35" target="_top" xlink:title="Creates a 4x4 transformation matrix for y&#45;axis rotation.">
<polygon fill="none" stroke="black" points="747,-114.5 747,-133.5 883,-133.5 883,-114.5 747,-114.5"/>
<text text-anchor="middle" x="815" y="-121.5" font-family="Helvetica,sans-Serif" font-size="10.00">ft_mat4_create_rotate_y</text>
</a>
</g>
</g>
<!-- Node20&#45;&gt;Node21 -->
<g id="edge21" class="edge">
<title>Node20&#45;&gt;Node21</title>
<path fill="none" stroke="midnightblue" d="M711.19,-124C719.38,-124 728.07,-124 736.78,-124"/>
<polygon fill="midnightblue" stroke="midnightblue" points="737,-127.5 747,-124 737,-120.5 737,-127.5"/>
</g>
<!-- Node21&#45;&gt;Node15 -->
<g id="edge22" class="edge">
<title>Node21&#45;&gt;Node15</title>
<path fill="none" stroke="midnightblue" d="M883.14,-131.95C892.25,-133.03 901.59,-134.13 910.68,-135.21"/>
<polygon fill="midnightblue" stroke="midnightblue" points="910.47,-138.71 920.81,-136.41 911.29,-131.76 910.47,-138.71"/>
</g>
<!-- Node21&#45;&gt;Node16 -->
<g id="edge23" class="edge">
<title>Node21&#45;&gt;Node16</title>
<path fill="none" stroke="midnightblue" d="M855.08,-133.6C864.36,-136.28 874.13,-139.45 883,-143 899.79,-149.73 902.87,-153.82 919,-162 928.19,-166.66 938.27,-171.62 947.39,-176.05"/>
<polygon fill="midnightblue" stroke="midnightblue" points="945.94,-179.24 956.46,-180.44 948.98,-172.93 945.94,-179.24"/>
</g>
<!-- Node22&#45;&gt;Node8 -->
<g id="edge27" class="edge">
<title>Node22&#45;&gt;Node8</title>
<path fill="none" stroke="midnightblue" d="M398.1,-114.41C417.94,-109.42 442.38,-103.27 463.45,-97.97"/>
<polygon fill="midnightblue" stroke="midnightblue" points="464.33,-101.35 473.17,-95.52 462.62,-94.57 464.33,-101.35"/>
</g>
<!-- Node22&#45;&gt;Node11 -->
<g id="edge28" class="edge">
<title>Node22&#45;&gt;Node11</title>
<path fill="none" stroke="midnightblue" d="M405.3,-124C416.64,-124 429.06,-124 441.28,-124"/>
<polygon fill="midnightblue" stroke="midnightblue" points="441.46,-127.5 451.46,-124 441.46,-120.5 441.46,-127.5"/>
</g>
<!-- Node22&#45;&gt;Node12 -->
<g id="edge29" class="edge">
<title>Node22&#45;&gt;Node12</title>
<path fill="none" stroke="midnightblue" d="M398.1,-133.59C417.94,-138.58 442.38,-144.73 463.45,-150.03"/>
<polygon fill="midnightblue" stroke="midnightblue" points="462.62,-153.43 473.17,-152.48 464.33,-146.65 462.62,-153.43"/>
</g>
<!-- Node23&#45;&gt;Node8 -->
<g id="edge31" class="edge">
<title>Node23&#45;&gt;Node8</title>
<path fill="none" stroke="midnightblue" d="M398.1,-57.59C417.94,-62.58 442.38,-68.73 463.45,-74.03"/>
<polygon fill="midnightblue" stroke="midnightblue" points="462.62,-77.43 473.17,-76.48 464.33,-70.65 462.62,-77.43"/>
</g>
<!-- Node23&#45;&gt;Node10 -->
<g id="edge32" class="edge">
<title>Node23&#45;&gt;Node10</title>
<path fill="none" stroke="midnightblue" d="M398.1,-38.41C417.94,-33.42 442.38,-27.27 463.45,-21.97"/>
<polygon fill="midnightblue" stroke="midnightblue" points="464.33,-25.35 473.17,-19.52 462.62,-18.57 464.33,-25.35"/>
</g>
<!-- Node23&#45;&gt;Node11 -->
<g id="edge33" class="edge">
<title>Node23&#45;&gt;Node11</title>
<path fill="none" stroke="midnightblue" d="M392.37,-57.52C398.81,-60.1 405.33,-63.25 411,-67 430.4,-79.84 427.17,-92.83 447,-105 450.4,-107.09 454.05,-108.96 457.81,-110.63"/>
<polygon fill="midnightblue" stroke="midnightblue" points="456.75,-113.98 467.33,-114.4 459.32,-107.47 456.75,-113.98"/>
</g>
</g>
</svg>
        <g id="navigator" transform="translate(0 0)" fill="#404254">
                <rect fill="#f2f5e9" fill-opacity="0.5" stroke="#606060" stroke-width=".5" x="0" y="0" width="60" height="60"/>
                <use id="zoomplus" xlink:href="#zoomPlus" x="17" y="9" onmousedown="handleZoom(evt,'in')"/>
                <use id="zoomminus" xlink:href="#zoomMin" x="42" y="9" onmousedown="handleZoom(evt,'out')"/>
                <use id="reset" xlink:href="#resetDef" x="30" y="36" onmousedown="handleReset()"/>
                <g id="arrowUp" xlink:href="#dirArrow" transform="translate(30 24)" onmousedown="handlePan(0,-1)">
                  <use xlink:href="#rim" fill="#404040">
                        <set attributeName="fill" to="#808080" begin="arrowUp.mouseover" end="arrowUp.mouseout"/>
                  </use>
                  <path fill="none" stroke="white" stroke-width="1.5" d="M0,-3.0v7 M-2.5,-0.5L0,-3.0L2.5,-0.5"/>
                </g>
                <g id="arrowRight" xlink:href="#dirArrow" transform="rotate(90) translate(36 -43)" onmousedown="handlePan(1,0)">
                  <use xlink:href="#rim" fill="#404040">
                        <set attributeName="fill" to="#808080" begin="arrowRight.mouseover" end="arrowRight.mouseout"/>
                  </use>
                  <path fill="none" stroke="white" stroke-width="1.5" d="M0,-3.0v7 M-2.5,-0.5L0,-3.0L2.5,-0.5"/>
                </g>
                <g id="arrowDown" xlink:href="#dirArrow" transform="rotate(180) translate(-30 -48)" onmousedown="handlePan(0,1)">
                  <use xlink:href="#rim" fill="#404040">
                        <set attributeName="fill" to="#808080" begin="arrowDown.mouseover" end="arrowDown.mouseout"/>
                  </use>
                  <path fill="none" stroke="white" stroke-width="1.5" d="M0,-3.0v7 M-2.5,-0.5L0,-3.0L2.5,-0.5"/>
                </g>
                <g id="arrowLeft" xlink:href="#dirArrow" transform="rotate(270) translate(-36 17)" onmousedown="handlePan(-1,0)">
                  <use xlink:href="#rim" fill="#404040">
                        <set attributeName="fill" to="#808080" begin="arrowLeft.mouseover" end="arrowLeft.mouseout"/>
                  </use>
                  <path fill="none" stroke="white" stroke-width="1.5" d="M0,-3.0v7 M-2.5,-0.5L0,-3.0L2.5,-0.5"/>
                </g>
        </g>
        <svg viewBox="0 0 15 15" width="100%" height="30px" preserveAspectRatio="xMaxYMin meet">
         <g id="arrow_out" transform="scale(0.3 0.3)">
          <a xlink:href="render_8h_a2f40affff5a9aa82b3441bebf0bb1836_cgraph_org.svg" target="_base">
           <rect id="button" ry="5" rx="5" y="6" x="6" height="38" width="38"
                fill="#f2f5e9" fill-opacity="0.5" stroke="#606060" stroke-width="1.0"/>
           <path id="arrow"
             d="M 11.500037,31.436501 C 11.940474,20.09759 22.043105,11.32322 32.158766,21.979434 L 37.068811,17.246167 C 37.068811,17.246167 37.088388,32 37.088388,32 L 22.160133,31.978069 C 22.160133,31.978069 26.997745,27.140456 26.997745,27.140456 C 18.528582,18.264221 13.291696,25.230495 11.500037,31.436501 z"
             style="fill:#404040;"/>
          </a>
         </g>
        </svg>
</svg>
