<?xml version="1.0" encoding="UTF-8" standalone="no"?>
<!DOCTYPE svg PUBLIC "-//W3C//DTD SVG 1.1//EN"
 "http://www.w3.org/Graphics/SVG/1.1/DTD/svg11.dtd">
<!-- Generated by graphviz version 2.43.0 (0)
 -->
<!-- Title: src/render_draw_bonus.c Pages: 1 -->
<svg width="1192pt" height="420pt"
 viewBox="0.00 0.00 1191.51 420.00" xmlns="http://www.w3.org/2000/svg" xmlns:xlink="http://www.w3.org/1999/xlink">
<g id="graph0" class="graph" transform="scale(1 1) rotate(0) translate(4 416)">
<title>src/render_draw_bonus.c</title>
<!-- Node1 -->
<g id="node1" class="node">
<title>Node1</title>
<g id="a_node1"><a xlink:title=" ">
<polygon fill="#bfbfbf" stroke="black" points="482.12,-392.5 482.12,-411.5 619.12,-411.5 619.12,-392.5 482.12,-392.5"/>
<text text-anchor="middle" x="550.62" y="-399.5" font-family="Helvetica,sans-Serif" font-size="10.00">src/render_draw_bonus.c</text>
</a>
</g>
</g>
<!-- Node2 -->
<g id="node2" class="node">
<title>Node2</title>
<g id="a_node2"><a xlink:href="render__bonus_8h.html" target="_top" xlink:title=" ">
<polygon fill="none" stroke="black" points="504.62,-336.5 504.62,-355.5 596.62,-355.5 596.62,-336.5 504.62,-336.5"/>
<text text-anchor="middle" x="550.62" y="-343.5" font-family="Helvetica,sans-Serif" font-size="10.00">render_bonus.h</text>
</a>
</g>
</g>
<!-- Node1&#45;&gt;Node2 -->
<g id="edge1" class="edge">
<title>Node1&#45;&gt;Node2</title>
<path fill="none" stroke="midnightblue" d="M550.62,-392.08C550.62,-385.01 550.62,-374.86 550.62,-365.99"/>
<polygon fill="midnightblue" stroke="midnightblue" points="554.12,-365.75 550.62,-355.75 547.12,-365.75 554.12,-365.75"/>
</g>
<!-- Node3 -->
<g id="node3" class="node">
<title>Node3</title>
<g id="a_node3"><a xlink:title=" ">
<polygon fill="none" stroke="#bfbfbf" points="343.62,-224.5 343.62,-243.5 387.62,-243.5 387.62,-224.5 343.62,-224.5"/>
<text text-anchor="middle" x="365.62" y="-231.5" font-family="Helvetica,sans-Serif" font-size="10.00">mlx.h</text>
</a>
</g>
</g>
<!-- Node2&#45;&gt;Node3 -->
<g id="edge2" class="edge">
<title>Node2&#45;&gt;Node3</title>
<path fill="none" stroke="midnightblue" d="M515.89,-336.47C490.64,-329.25 456.33,-317.3 429.62,-300 409.36,-286.88 390.54,-266.35 378.63,-251.88"/>
<polygon fill="midnightblue" stroke="midnightblue" points="381.13,-249.4 372.15,-243.77 375.66,-253.77 381.13,-249.4"/>
</g>
<!-- Node4 -->
<g id="node4" class="node">
<title>Node4</title>
<g id="a_node4"><a xlink:title=" ">
<polygon fill="none" stroke="#bfbfbf" points="48.62,-280.5 48.62,-299.5 114.62,-299.5 114.62,-280.5 48.62,-280.5"/>
<text text-anchor="middle" x="81.62" y="-287.5" font-family="Helvetica,sans-Serif" font-size="10.00">X11/Xlib.h</text>
</a>
</g>
</g>
<!-- Node2&#45;&gt;Node4 -->
<g id="edge3" class="edge">
<title>Node2&#45;&gt;Node4</title>
<path fill="none" stroke="midnightblue" d="M504.59,-341.76C427.86,-336.01 268.81,-322.59 124.92,-300.06"/>
<polygon fill="midnightblue" stroke="midnightblue" points="125.45,-296.6 115.03,-298.49 124.35,-303.52 125.45,-296.6"/>
</g>
<!-- Node5 -->
<g id="node5" class="node">
<title>Node5</title>
<g id="a_node5"><a xlink:title=" ">
<polygon fill="none" stroke="#bfbfbf" points="132.62,-280.5 132.62,-299.5 186.62,-299.5 186.62,-280.5 132.62,-280.5"/>
<text text-anchor="middle" x="159.62" y="-287.5" font-family="Helvetica,sans-Serif" font-size="10.00">X11/X.h</text>
</a>
</g>
</g>
<!-- Node2&#45;&gt;Node5 -->
<g id="edge4" class="edge">
<title>Node2&#45;&gt;Node5</title>
<path fill="none" stroke="midnightblue" d="M504.39,-340.91C438.3,-334.68 312.88,-321.41 196.79,-300.02"/>
<polygon fill="midnightblue" stroke="midnightblue" points="197.14,-296.52 186.67,-298.13 195.85,-303.41 197.14,-296.52"/>
</g>
<!-- Node6 -->
<g id="node6" class="node">
<title>Node6</title>
<g id="a_node6"><a xlink:title=" ">
<polygon fill="none" stroke="#bfbfbf" points="204.62,-280.5 204.62,-299.5 290.62,-299.5 290.62,-280.5 204.62,-280.5"/>
<text text-anchor="middle" x="247.62" y="-287.5" font-family="Helvetica,sans-Serif" font-size="10.00">X11/keysym.h</text>
</a>
</g>
</g>
<!-- Node2&#45;&gt;Node6 -->
<g id="edge5" class="edge">
<title>Node2&#45;&gt;Node6</title>
<path fill="none" stroke="midnightblue" d="M504.6,-336.8C449.78,-327.03 358.38,-310.74 300.65,-300.45"/>
<polygon fill="midnightblue" stroke="midnightblue" points="301.09,-296.97 290.63,-298.67 299.86,-303.87 301.09,-296.97"/>
</g>
<!-- Node7 -->
<g id="node7" class="node">
<title>Node7</title>
<g id="a_node7"><a xlink:href="error__mlx_8h.html" target="_top" xlink:title=" ">
<polygon fill="none" stroke="black" points="309.12,-280.5 309.12,-299.5 382.12,-299.5 382.12,-280.5 309.12,-280.5"/>
<text text-anchor="middle" x="345.62" y="-287.5" font-family="Helvetica,sans-Serif" font-size="10.00">error_mlx.h</text>
</a>
</g>
</g>
<!-- Node2&#45;&gt;Node7 -->
<g id="edge6" class="edge">
<title>Node2&#45;&gt;Node7</title>
<path fill="none" stroke="midnightblue" d="M518.13,-336.44C482.9,-327.16 426.51,-312.31 387.86,-302.13"/>
<polygon fill="midnightblue" stroke="midnightblue" points="388.51,-298.68 377.95,-299.52 386.72,-305.45 388.51,-298.68"/>
</g>
<!-- Node21 -->
<g id="node21" class="node">
<title>Node21</title>
<g id="a_node21"><a xlink:href="vec2_8h.html" target="_top" xlink:title=" ">
<polygon fill="none" stroke="black" points="262.12,-112.5 262.12,-131.5 311.12,-131.5 311.12,-112.5 262.12,-112.5"/>
<text text-anchor="middle" x="286.62" y="-119.5" font-family="Helvetica,sans-Serif" font-size="10.00">vec2.h</text>
</a>
</g>
</g>
<!-- Node2&#45;&gt;Node21 -->
<g id="edge47" class="edge">
<title>Node2&#45;&gt;Node21</title>
<path fill="none" stroke="midnightblue" d="M504.61,-344.41C384.87,-342.41 70.7,-333.95 39.62,-300 6.26,-263.57 -48.13,-280.99 87.62,-168 112.27,-147.48 201.65,-133.47 251.82,-127.03"/>
<polygon fill="midnightblue" stroke="midnightblue" points="252.41,-130.49 261.9,-125.77 251.54,-123.54 252.41,-130.49"/>
</g>
<!-- Node22 -->
<g id="node22" class="node">
<title>Node22</title>
<g id="a_node22"><a xlink:href="camera_8h.html" target="_top" xlink:title=" ">
<polygon fill="none" stroke="black" points="731.62,-168.5 731.62,-187.5 793.62,-187.5 793.62,-168.5 731.62,-168.5"/>
<text text-anchor="middle" x="762.62" y="-175.5" font-family="Helvetica,sans-Serif" font-size="10.00">camera.h</text>
</a>
</g>
</g>
<!-- Node2&#45;&gt;Node22 -->
<g id="edge26" class="edge">
<title>Node2&#45;&gt;Node22</title>
<path fill="none" stroke="midnightblue" d="M596.97,-344.4C635.02,-341.46 687.94,-331.41 721.62,-300 750.58,-272.98 759.08,-224.78 761.58,-198.1"/>
<polygon fill="midnightblue" stroke="midnightblue" points="765.09,-198.03 762.34,-187.8 758.11,-197.52 765.09,-198.03"/>
</g>
<!-- Node24 -->
<g id="node24" class="node">
<title>Node24</title>
<g id="a_node24"><a xlink:title=" ">
<polygon fill="none" stroke="#bfbfbf" points="520.62,-280.5 520.62,-299.5 580.62,-299.5 580.62,-280.5 520.62,-280.5"/>
<text text-anchor="middle" x="550.62" y="-287.5" font-family="Helvetica,sans-Serif" font-size="10.00">ft_print.h</text>
</a>
</g>
</g>
<!-- Node2&#45;&gt;Node24 -->
<g id="edge31" class="edge">
<title>Node2&#45;&gt;Node24</title>
<path fill="none" stroke="midnightblue" d="M550.62,-336.08C550.62,-329.01 550.62,-318.86 550.62,-309.99"/>
<polygon fill="midnightblue" stroke="midnightblue" points="554.12,-309.75 550.62,-299.75 547.12,-309.75 554.12,-309.75"/>
</g>
<!-- Node25 -->
<g id="node25" class="node">
<title>Node25</title>
<g id="a_node25"><a xlink:href="cleanup_8h.html" target="_top" xlink:title=" ">
<polygon fill="none" stroke="black" points="438.62,-280.5 438.62,-299.5 502.62,-299.5 502.62,-280.5 438.62,-280.5"/>
<text text-anchor="middle" x="470.62" y="-287.5" font-family="Helvetica,sans-Serif" font-size="10.00">cleanup.h</text>
</a>
</g>
</g>
<!-- Node2&#45;&gt;Node25 -->
<g id="edge32" class="edge">
<title>Node2&#45;&gt;Node25</title>
<path fill="none" stroke="midnightblue" d="M537.76,-336.32C525.4,-327.98 506.48,-315.21 491.88,-305.35"/>
<polygon fill="midnightblue" stroke="midnightblue" points="493.68,-302.35 483.44,-299.65 489.77,-308.15 493.68,-302.35"/>
</g>
<!-- Node26 -->
<g id="node26" class="node">
<title>Node26</title>
<g id="a_node26"><a xlink:href="mat4__vec3_8h.html" target="_top" xlink:title=" ">
<polygon fill="none" stroke="black" points="895.62,-224.5 895.62,-243.5 975.62,-243.5 975.62,-224.5 895.62,-224.5"/>
<text text-anchor="middle" x="935.62" y="-231.5" font-family="Helvetica,sans-Serif" font-size="10.00">mat4_vec3.h</text>
</a>
</g>
</g>
<!-- Node2&#45;&gt;Node26 -->
<g id="edge36" class="edge">
<title>Node2&#45;&gt;Node26</title>
<path fill="none" stroke="midnightblue" d="M596.65,-338.99C643.97,-332.13 719.44,-319.31 782.62,-300 807,-292.55 870.62,-264.41 907.69,-247.7"/>
<polygon fill="midnightblue" stroke="midnightblue" points="909.28,-250.82 916.95,-243.51 906.39,-244.45 909.28,-250.82"/>
</g>
<!-- Node28 -->
<g id="node28" class="node">
<title>Node28</title>
<g id="a_node28"><a xlink:href="print_8h.html" target="_top" xlink:title=" ">
<polygon fill="none" stroke="black" points="797.62,-224.5 797.62,-243.5 845.62,-243.5 845.62,-224.5 797.62,-224.5"/>
<text text-anchor="middle" x="821.62" y="-231.5" font-family="Helvetica,sans-Serif" font-size="10.00">print.h</text>
</a>
</g>
</g>
<!-- Node2&#45;&gt;Node28 -->
<g id="edge40" class="edge">
<title>Node2&#45;&gt;Node28</title>
<path fill="none" stroke="midnightblue" d="M596.87,-342.04C639.94,-337.66 704.79,-326.81 754.62,-300 776.8,-288.06 796.76,-266.65 809,-251.67"/>
<polygon fill="midnightblue" stroke="midnightblue" points="811.83,-253.74 815.28,-243.72 806.34,-249.4 811.83,-253.74"/>
</g>
<!-- Node29 -->
<g id="node29" class="node">
<title>Node29</title>
<g id="a_node29"><a xlink:href="render__menu_8h.html" target="_top" xlink:title=" ">
<polygon fill="none" stroke="black" points="1075.62,-168.5 1075.62,-187.5 1165.62,-187.5 1165.62,-168.5 1075.62,-168.5"/>
<text text-anchor="middle" x="1120.62" y="-175.5" font-family="Helvetica,sans-Serif" font-size="10.00">render_menu.h</text>
</a>
</g>
</g>
<!-- Node2&#45;&gt;Node29 -->
<g id="edge48" class="edge">
<title>Node2&#45;&gt;Node29</title>
<path fill="none" stroke="midnightblue" d="M596.81,-343.68C693.39,-340.35 913.4,-329.66 981.62,-300 1036.42,-276.17 1085.25,-222.7 1107.65,-195.53"/>
<polygon fill="midnightblue" stroke="midnightblue" points="1110.41,-197.68 1113.96,-187.7 1104.96,-193.28 1110.41,-197.68"/>
</g>
<!-- Node30 -->
<g id="node30" class="node">
<title>Node30</title>
<g id="a_node30"><a xlink:href="entities__bonus_8h.html" target="_top" xlink:title=" ">
<polygon fill="none" stroke="black" points="554.12,-224.5 554.12,-243.5 651.12,-243.5 651.12,-224.5 554.12,-224.5"/>
<text text-anchor="middle" x="602.62" y="-231.5" font-family="Helvetica,sans-Serif" font-size="10.00">entities_bonus.h</text>
</a>
</g>
</g>
<!-- Node2&#45;&gt;Node30 -->
<g id="edge51" class="edge">
<title>Node2&#45;&gt;Node30</title>
<path fill="none" stroke="midnightblue" d="M560.57,-336.39C569.59,-328.02 582.52,-314.48 589.62,-300 596.74,-285.47 599.96,-267.29 601.41,-253.85"/>
<polygon fill="midnightblue" stroke="midnightblue" points="604.9,-254.13 602.27,-243.87 597.93,-253.53 604.9,-254.13"/>
</g>
<!-- Node34 -->
<g id="node34" class="node">
<title>Node34</title>
<g id="a_node34"><a xlink:href="mini_r_t__config__bonus_8h.html" target="_top" xlink:title=" ">
<polygon fill="none" stroke="black" points="844.62,-280.5 844.62,-299.5 972.62,-299.5 972.62,-280.5 844.62,-280.5"/>
<text text-anchor="middle" x="908.62" y="-287.5" font-family="Helvetica,sans-Serif" font-size="10.00">miniRT_config_bonus.h</text>
</a>
</g>
</g>
<!-- Node2&#45;&gt;Node34 -->
<g id="edge64" class="edge">
<title>Node2&#45;&gt;Node34</title>
<path fill="none" stroke="midnightblue" d="M596.68,-338.05C658.96,-328.66 770.42,-311.84 841.87,-301.07"/>
<polygon fill="midnightblue" stroke="midnightblue" points="842.75,-304.47 852.11,-299.52 841.7,-297.55 842.75,-304.47"/>
</g>
<!-- Node35 -->
<g id="node35" class="node">
<title>Node35</title>
<g id="a_node35"><a xlink:href="ray__bonus_8h.html" target="_top" xlink:title=" ">
<polygon fill="none" stroke="black" points="636.62,-280.5 636.62,-299.5 712.62,-299.5 712.62,-280.5 636.62,-280.5"/>
<text text-anchor="middle" x="674.62" y="-287.5" font-family="Helvetica,sans-Serif" font-size="10.00">ray_bonus.h</text>
</a>
</g>
</g>
<!-- Node2&#45;&gt;Node35 -->
<g id="edge65" class="edge">
<title>Node2&#45;&gt;Node35</title>
<path fill="none" stroke="midnightblue" d="M570.26,-336.44C590.58,-327.6 622.52,-313.69 645.71,-303.59"/>
<polygon fill="midnightblue" stroke="midnightblue" points="647.29,-306.72 655.06,-299.52 644.49,-300.3 647.29,-306.72"/>
</g>
<!-- Node7&#45;&gt;Node3 -->
<g id="edge7" class="edge">
<title>Node7&#45;&gt;Node3</title>
<path fill="none" stroke="midnightblue" d="M348.92,-280.08C351.6,-272.85 355.46,-262.41 358.8,-253.4"/>
<polygon fill="midnightblue" stroke="midnightblue" points="362.18,-254.34 362.37,-243.75 355.62,-251.91 362.18,-254.34"/>
</g>
<!-- Node8 -->
<g id="node8" class="node">
<title>Node8</title>
<g id="a_node8"><a xlink:href="error__type_8h.html" target="_top" xlink:title=" ">
<polygon fill="none" stroke="black" points="211.62,-224.5 211.62,-243.5 287.62,-243.5 287.62,-224.5 211.62,-224.5"/>
<text text-anchor="middle" x="249.62" y="-231.5" font-family="Helvetica,sans-Serif" font-size="10.00">error_type.h</text>
</a>
</g>
</g>
<!-- Node7&#45;&gt;Node8 -->
<g id="edge8" class="edge">
<title>Node7&#45;&gt;Node8</title>
<path fill="none" stroke="midnightblue" d="M330.19,-280.32C315.08,-271.82 291.8,-258.73 274.14,-248.8"/>
<polygon fill="midnightblue" stroke="midnightblue" points="275.43,-245.51 265,-243.65 272,-251.61 275.43,-245.51"/>
</g>
<!-- Node9 -->
<g id="node9" class="node">
<title>Node9</title>
<g id="a_node9"><a xlink:href="error__msg_8h.html" target="_top" xlink:title=" ">
<polygon fill="none" stroke="black" points="118.12,-224.5 118.12,-243.5 193.12,-243.5 193.12,-224.5 118.12,-224.5"/>
<text text-anchor="middle" x="155.62" y="-231.5" font-family="Helvetica,sans-Serif" font-size="10.00">error_msg.h</text>
</a>
</g>
</g>
<!-- Node7&#45;&gt;Node9 -->
<g id="edge9" class="edge">
<title>Node7&#45;&gt;Node9</title>
<path fill="none" stroke="midnightblue" d="M315.51,-280.44C282.99,-271.2 231.04,-256.44 195.22,-246.26"/>
<polygon fill="midnightblue" stroke="midnightblue" points="196.16,-242.88 185.58,-243.52 194.24,-249.62 196.16,-242.88"/>
</g>
<!-- Node7&#45;&gt;Node21 -->
<g id="edge25" class="edge">
<title>Node7&#45;&gt;Node21</title>
<path fill="none" stroke="midnightblue" d="M342.44,-280.08C333.12,-253.83 305.65,-176.55 293.05,-141.12"/>
<polygon fill="midnightblue" stroke="midnightblue" points="296.31,-139.82 289.66,-131.57 289.71,-142.16 296.31,-139.82"/>
</g>
<!-- Node10 -->
<g id="node10" class="node">
<title>Node10</title>
<g id="a_node10"><a xlink:title=" ">
<polygon fill="none" stroke="#bfbfbf" points="800.62,-56.5 800.62,-75.5 850.62,-75.5 850.62,-56.5 800.62,-56.5"/>
<text text-anchor="middle" x="825.62" y="-63.5" font-family="Helvetica,sans-Serif" font-size="10.00">stdio.h</text>
</a>
</g>
</g>
<!-- Node9&#45;&gt;Node10 -->
<g id="edge10" class="edge">
<title>Node9&#45;&gt;Node10</title>
<path fill="none" stroke="midnightblue" d="M190.78,-224.5C243.62,-211.79 346.68,-187.28 434.62,-168 512.18,-150.99 532.63,-151.46 609.62,-132 674.29,-115.65 748.53,-92.28 790.97,-78.47"/>
<polygon fill="midnightblue" stroke="midnightblue" points="792.13,-81.78 800.55,-75.34 789.95,-75.12 792.13,-81.78"/>
</g>
<!-- Node11 -->
<g id="node11" class="node">
<title>Node11</title>
<g id="a_node11"><a xlink:title=" ">
<polygon fill="none" stroke="#bfbfbf" points="97.12,-168.5 97.12,-187.5 148.12,-187.5 148.12,-168.5 97.12,-168.5"/>
<text text-anchor="middle" x="122.62" y="-175.5" font-family="Helvetica,sans-Serif" font-size="10.00">errno.h</text>
</a>
</g>
</g>
<!-- Node9&#45;&gt;Node11 -->
<g id="edge11" class="edge">
<title>Node9&#45;&gt;Node11</title>
<path fill="none" stroke="midnightblue" d="M150.17,-224.08C145.6,-216.61 138.95,-205.72 133.32,-196.52"/>
<polygon fill="midnightblue" stroke="midnightblue" points="136.16,-194.46 127.96,-187.75 130.19,-198.11 136.16,-194.46"/>
</g>
<!-- Node12 -->
<g id="node12" class="node">
<title>Node12</title>
<g id="a_node12"><a xlink:title=" ">
<polygon fill="none" stroke="#bfbfbf" points="166.12,-168.5 166.12,-187.5 213.12,-187.5 213.12,-168.5 166.12,-168.5"/>
<text text-anchor="middle" x="189.62" y="-175.5" font-family="Helvetica,sans-Serif" font-size="10.00">ft_fd.h</text>
</a>
</g>
</g>
<!-- Node9&#45;&gt;Node12 -->
<g id="edge12" class="edge">
<title>Node9&#45;&gt;Node12</title>
<path fill="none" stroke="midnightblue" d="M161.23,-224.08C165.98,-216.53 172.93,-205.49 178.77,-196.23"/>
<polygon fill="midnightblue" stroke="midnightblue" points="181.74,-198.08 184.11,-187.75 175.82,-194.35 181.74,-198.08"/>
</g>
<!-- Node13 -->
<g id="node13" class="node">
<title>Node13</title>
<g id="a_node13"><a xlink:href="entities_8h.html" target="_top" xlink:title=" ">
<polygon fill="none" stroke="black" points="443.62,-168.5 443.62,-187.5 505.62,-187.5 505.62,-168.5 443.62,-168.5"/>
<text text-anchor="middle" x="474.62" y="-175.5" font-family="Helvetica,sans-Serif" font-size="10.00">entities.h</text>
</a>
</g>
</g>
<!-- Node9&#45;&gt;Node13 -->
<g id="edge13" class="edge">
<title>Node9&#45;&gt;Node13</title>
<path fill="none" stroke="midnightblue" d="M193.31,-225.7C196.46,-225.11 199.59,-224.54 202.62,-224 284.34,-209.42 380.17,-193.94 433.49,-185.47"/>
<polygon fill="midnightblue" stroke="midnightblue" points="434.24,-188.9 443.57,-183.87 433.14,-181.98 434.24,-188.9"/>
</g>
<!-- Node14 -->
<g id="node14" class="node">
<title>Node14</title>
<g id="a_node14"><a xlink:title=" ">
<polygon fill="none" stroke="#bfbfbf" points="478.62,-0.5 478.62,-19.5 540.62,-19.5 540.62,-0.5 478.62,-0.5"/>
<text text-anchor="middle" x="509.62" y="-7.5" font-family="Helvetica,sans-Serif" font-size="10.00">stdbool.h</text>
</a>
</g>
</g>
<!-- Node13&#45;&gt;Node14 -->
<g id="edge14" class="edge">
<title>Node13&#45;&gt;Node14</title>
<path fill="none" stroke="midnightblue" d="M464.76,-168.43C442.63,-148.12 392.78,-95.79 417.62,-56 428.84,-38.02 449.56,-27.02 468.5,-20.41"/>
<polygon fill="midnightblue" stroke="midnightblue" points="469.71,-23.7 478.18,-17.34 467.59,-17.03 469.71,-23.7"/>
</g>
<!-- Node15 -->
<g id="node15" class="node">
<title>Node15</title>
<g id="a_node15"><a xlink:title=" ">
<polygon fill="none" stroke="#bfbfbf" points="427.12,-56.5 427.12,-75.5 480.12,-75.5 480.12,-56.5 427.12,-56.5"/>
<text text-anchor="middle" x="453.62" y="-63.5" font-family="Helvetica,sans-Serif" font-size="10.00">stdlib.h</text>
</a>
</g>
</g>
<!-- Node13&#45;&gt;Node15 -->
<g id="edge15" class="edge">
<title>Node13&#45;&gt;Node15</title>
<path fill="none" stroke="midnightblue" d="M472.97,-168.37C469.58,-150.62 461.76,-109.67 457.17,-85.6"/>
<polygon fill="midnightblue" stroke="midnightblue" points="460.57,-84.76 455.26,-75.59 453.69,-86.07 460.57,-84.76"/>
</g>
<!-- Node16 -->
<g id="node16" class="node">
<title>Node16</title>
<g id="a_node16"><a xlink:href="vec3_8h.html" target="_top" xlink:title=" ">
<polygon fill="none" stroke="black" points="643.12,-56.5 643.12,-75.5 692.12,-75.5 692.12,-56.5 643.12,-56.5"/>
<text text-anchor="middle" x="667.62" y="-63.5" font-family="Helvetica,sans-Serif" font-size="10.00">vec3.h</text>
</a>
</g>
</g>
<!-- Node13&#45;&gt;Node16 -->
<g id="edge16" class="edge">
<title>Node13&#45;&gt;Node16</title>
<path fill="none" stroke="midnightblue" d="M505.86,-171.4C534.61,-165.18 577.52,-153.12 609.62,-132 628.68,-119.45 645.43,-99.1 655.96,-84.52"/>
<polygon fill="midnightblue" stroke="midnightblue" points="659.12,-86.11 661.95,-75.9 653.37,-82.12 659.12,-86.11"/>
</g>
<!-- Node18 -->
<g id="node18" class="node">
<title>Node18</title>
<g id="a_node18"><a xlink:href="colour_8h.html" target="_top" xlink:title=" ">
<polygon fill="none" stroke="black" points="924.12,-112.5 924.12,-131.5 979.12,-131.5 979.12,-112.5 924.12,-112.5"/>
<text text-anchor="middle" x="951.62" y="-119.5" font-family="Helvetica,sans-Serif" font-size="10.00">colour.h</text>
</a>
</g>
</g>
<!-- Node13&#45;&gt;Node18 -->
<g id="edge19" class="edge">
<title>Node13&#45;&gt;Node18</title>
<path fill="none" stroke="midnightblue" d="M505.91,-173.46C590.25,-163.91 822.03,-137.67 913.64,-127.3"/>
<polygon fill="midnightblue" stroke="midnightblue" points="914.3,-130.75 923.84,-126.14 913.51,-123.79 914.3,-130.75"/>
</g>
<!-- Node16&#45;&gt;Node14 -->
<g id="edge18" class="edge">
<title>Node16&#45;&gt;Node14</title>
<path fill="none" stroke="midnightblue" d="M642.93,-56.56C616.42,-47.5 574.09,-33.03 544.25,-22.84"/>
<polygon fill="midnightblue" stroke="midnightblue" points="545.25,-19.48 534.65,-19.56 542.98,-26.1 545.25,-19.48"/>
</g>
<!-- Node17 -->
<g id="node17" class="node">
<title>Node17</title>
<g id="a_node17"><a xlink:title=" ">
<polygon fill="none" stroke="#bfbfbf" points="642.12,-0.5 642.12,-19.5 693.12,-19.5 693.12,-0.5 642.12,-0.5"/>
<text text-anchor="middle" x="667.62" y="-7.5" font-family="Helvetica,sans-Serif" font-size="10.00">math.h</text>
</a>
</g>
</g>
<!-- Node16&#45;&gt;Node17 -->
<g id="edge17" class="edge">
<title>Node16&#45;&gt;Node17</title>
<path fill="none" stroke="midnightblue" d="M667.62,-56.08C667.62,-49.01 667.62,-38.86 667.62,-29.99"/>
<polygon fill="midnightblue" stroke="midnightblue" points="671.12,-29.75 667.62,-19.75 664.12,-29.75 671.12,-29.75"/>
</g>
<!-- Node18&#45;&gt;Node10 -->
<g id="edge20" class="edge">
<title>Node18&#45;&gt;Node10</title>
<path fill="none" stroke="midnightblue" d="M931.65,-112.44C911.01,-103.6 878.55,-89.69 854.98,-79.59"/>
<polygon fill="midnightblue" stroke="midnightblue" points="856.06,-76.24 845.49,-75.52 853.3,-82.67 856.06,-76.24"/>
</g>
<!-- Node19 -->
<g id="node19" class="node">
<title>Node19</title>
<g id="a_node19"><a xlink:title=" ">
<polygon fill="none" stroke="#bfbfbf" points="938.12,-56.5 938.12,-75.5 991.12,-75.5 991.12,-56.5 938.12,-56.5"/>
<text text-anchor="middle" x="964.62" y="-63.5" font-family="Helvetica,sans-Serif" font-size="10.00">stdint.h</text>
</a>
</g>
</g>
<!-- Node18&#45;&gt;Node19 -->
<g id="edge21" class="edge">
<title>Node18&#45;&gt;Node19</title>
<path fill="none" stroke="midnightblue" d="M953.76,-112.08C955.48,-104.93 957.96,-94.64 960.12,-85.69"/>
<polygon fill="midnightblue" stroke="midnightblue" points="963.57,-86.29 962.51,-75.75 956.76,-84.65 963.57,-86.29"/>
</g>
<!-- Node20 -->
<g id="node20" class="node">
<title>Node20</title>
<g id="a_node20"><a xlink:href="utils_8h.html" target="_top" xlink:title=" ">
<polygon fill="none" stroke="black" points="1009.12,-56.5 1009.12,-75.5 1056.12,-75.5 1056.12,-56.5 1009.12,-56.5"/>
<text text-anchor="middle" x="1032.62" y="-63.5" font-family="Helvetica,sans-Serif" font-size="10.00">utils.h</text>
</a>
</g>
</g>
<!-- Node18&#45;&gt;Node20 -->
<g id="edge22" class="edge">
<title>Node18&#45;&gt;Node20</title>
<path fill="none" stroke="midnightblue" d="M964.63,-112.32C977.15,-103.98 996.3,-91.21 1011.09,-81.35"/>
<polygon fill="midnightblue" stroke="midnightblue" points="1013.25,-84.11 1019.63,-75.65 1009.37,-78.29 1013.25,-84.11"/>
</g>
<!-- Node20&#45;&gt;Node14 -->
<g id="edge24" class="edge">
<title>Node20&#45;&gt;Node14</title>
<path fill="none" stroke="midnightblue" d="M1008.94,-58.01C1005.82,-57.25 1002.65,-56.55 999.62,-56 956,-48.11 661.01,-23.43 550.93,-14.38"/>
<polygon fill="midnightblue" stroke="midnightblue" points="551.12,-10.88 540.87,-13.55 550.55,-17.86 551.12,-10.88"/>
</g>
<!-- Node20&#45;&gt;Node17 -->
<g id="edge23" class="edge">
<title>Node20&#45;&gt;Node17</title>
<path fill="none" stroke="midnightblue" d="M1008.91,-58.13C1005.8,-57.35 1002.64,-56.61 999.62,-56 892.88,-34.31 764.65,-20.27 703.49,-14.3"/>
<polygon fill="midnightblue" stroke="midnightblue" points="703.5,-10.79 693.21,-13.31 702.83,-17.75 703.5,-10.79"/>
</g>
<!-- Node22&#45;&gt;Node16 -->
<g id="edge28" class="edge">
<title>Node22&#45;&gt;Node16</title>
<path fill="none" stroke="midnightblue" d="M755.16,-168.37C739.34,-150.05 702.2,-107.05 681.75,-83.36"/>
<polygon fill="midnightblue" stroke="midnightblue" points="684.22,-80.87 675.03,-75.59 678.92,-85.45 684.22,-80.87"/>
</g>
<!-- Node22&#45;&gt;Node20 -->
<g id="edge29" class="edge">
<title>Node22&#45;&gt;Node20</title>
<path fill="none" stroke="midnightblue" d="M793.9,-175.95C855.69,-173.19 990.14,-163.61 1021.62,-132 1033.47,-120.1 1035.34,-100.48 1034.79,-85.9"/>
<polygon fill="midnightblue" stroke="midnightblue" points="1038.25,-85.23 1033.97,-75.54 1031.27,-85.78 1038.25,-85.23"/>
</g>
<!-- Node22&#45;&gt;Node21 -->
<g id="edge27" class="edge">
<title>Node22&#45;&gt;Node21</title>
<path fill="none" stroke="midnightblue" d="M731.24,-169.57C728.33,-169 725.42,-168.46 722.62,-168 574.45,-143.77 395.69,-130.16 321.51,-125.19"/>
<polygon fill="midnightblue" stroke="midnightblue" points="321.54,-121.69 311.33,-124.52 321.08,-128.67 321.54,-121.69"/>
</g>
<!-- Node23 -->
<g id="node23" class="node">
<title>Node23</title>
<g id="a_node23"><a xlink:href="mini_r_t__config_8h.html" target="_top" xlink:title=" ">
<polygon fill="none" stroke="black" points="1073.62,-112.5 1073.62,-131.5 1167.62,-131.5 1167.62,-112.5 1073.62,-112.5"/>
<text text-anchor="middle" x="1120.62" y="-119.5" font-family="Helvetica,sans-Serif" font-size="10.00">miniRT_config.h</text>
</a>
</g>
</g>
<!-- Node22&#45;&gt;Node23 -->
<g id="edge30" class="edge">
<title>Node22&#45;&gt;Node23</title>
<path fill="none" stroke="midnightblue" d="M793.76,-172.3C853.92,-163.23 986.89,-143.17 1063.41,-131.63"/>
<polygon fill="midnightblue" stroke="midnightblue" points="1063.99,-135.08 1073.36,-130.13 1062.95,-128.16 1063.99,-135.08"/>
</g>
<!-- Node25&#45;&gt;Node3 -->
<g id="edge34" class="edge">
<title>Node25&#45;&gt;Node3</title>
<path fill="none" stroke="midnightblue" d="M453.74,-280.32C436.91,-271.66 410.81,-258.24 391.38,-248.25"/>
<polygon fill="midnightblue" stroke="midnightblue" points="392.94,-245.12 382.44,-243.65 389.74,-251.34 392.94,-245.12"/>
</g>
<!-- Node25&#45;&gt;Node13 -->
<g id="edge35" class="edge">
<title>Node25&#45;&gt;Node13</title>
<path fill="none" stroke="midnightblue" d="M470.93,-280.37C471.57,-262.62 473.06,-221.67 473.94,-197.6"/>
<polygon fill="midnightblue" stroke="midnightblue" points="477.44,-197.71 474.3,-187.59 470.44,-197.46 477.44,-197.71"/>
</g>
<!-- Node25&#45;&gt;Node15 -->
<g id="edge33" class="edge">
<title>Node25&#45;&gt;Node15</title>
<path fill="none" stroke="midnightblue" d="M466.39,-280.36C458.27,-263.24 440.77,-223.59 434.62,-188 428.33,-151.64 439.29,-108.98 447.01,-85.27"/>
<polygon fill="midnightblue" stroke="midnightblue" points="450.42,-86.12 450.35,-75.52 443.8,-83.85 450.42,-86.12"/>
</g>
<!-- Node26&#45;&gt;Node16 -->
<g id="edge37" class="edge">
<title>Node26&#45;&gt;Node16</title>
<path fill="none" stroke="midnightblue" d="M925.89,-224.49C901.44,-203.39 834.95,-147.83 772.62,-112 749.9,-98.94 722.68,-87.38 701.64,-79.25"/>
<polygon fill="midnightblue" stroke="midnightblue" points="702.75,-75.92 692.15,-75.65 700.26,-82.47 702.75,-75.92"/>
</g>
<!-- Node27 -->
<g id="node27" class="node">
<title>Node27</title>
<g id="a_node27"><a xlink:href="mat4_8h.html" target="_top" xlink:title=" ">
<polygon fill="none" stroke="black" points="964.12,-168.5 964.12,-187.5 1015.12,-187.5 1015.12,-168.5 964.12,-168.5"/>
<text text-anchor="middle" x="989.62" y="-175.5" font-family="Helvetica,sans-Serif" font-size="10.00">mat4.h</text>
</a>
</g>
</g>
<!-- Node26&#45;&gt;Node27 -->
<g id="edge38" class="edge">
<title>Node26&#45;&gt;Node27</title>
<path fill="none" stroke="midnightblue" d="M944.53,-224.08C952.4,-216.22 964.05,-204.57 973.53,-195.08"/>
<polygon fill="midnightblue" stroke="midnightblue" points="976.27,-197.3 980.86,-187.75 971.32,-192.35 976.27,-197.3"/>
</g>
<!-- Node27&#45;&gt;Node20 -->
<g id="edge39" class="edge">
<title>Node27&#45;&gt;Node20</title>
<path fill="none" stroke="midnightblue" d="M1015.44,-172.6C1064.37,-164 1166.59,-144.72 1176.62,-132 1208.14,-91.99 1118.15,-75.82 1066.35,-69.96"/>
<polygon fill="midnightblue" stroke="midnightblue" points="1066.56,-66.46 1056.25,-68.89 1065.82,-73.42 1066.56,-66.46"/>
</g>
<!-- Node28&#45;&gt;Node10 -->
<g id="edge41" class="edge">
<title>Node28&#45;&gt;Node10</title>
<path fill="none" stroke="midnightblue" d="M825.21,-224.22C828.67,-215.28 833.65,-200.94 835.62,-188 841.09,-152 834.62,-109.49 829.84,-85.65"/>
<polygon fill="midnightblue" stroke="midnightblue" points="833.19,-84.6 827.68,-75.56 826.35,-86.07 833.19,-84.6"/>
</g>
<!-- Node28&#45;&gt;Node13 -->
<g id="edge46" class="edge">
<title>Node28&#45;&gt;Node13</title>
<path fill="none" stroke="midnightblue" d="M797.49,-229.25C738.97,-220.14 588.91,-196.79 515.84,-185.42"/>
<polygon fill="midnightblue" stroke="midnightblue" points="516.06,-181.91 505.64,-183.83 514.98,-188.82 516.06,-181.91"/>
</g>
<!-- Node28&#45;&gt;Node16 -->
<g id="edge42" class="edge">
<title>Node28&#45;&gt;Node16</title>
<path fill="none" stroke="midnightblue" d="M820.8,-224.27C819.21,-211.06 814.7,-185.66 802.62,-168 774.89,-127.51 725.58,-96.73 694.84,-80.32"/>
<polygon fill="midnightblue" stroke="midnightblue" points="696.43,-77.2 685.95,-75.69 693.2,-83.41 696.43,-77.2"/>
</g>
<!-- Node28&#45;&gt;Node18 -->
<g id="edge45" class="edge">
<title>Node28&#45;&gt;Node18</title>
<path fill="none" stroke="midnightblue" d="M831.82,-224.37C853.84,-205.73 906.08,-161.53 933.73,-138.13"/>
<polygon fill="midnightblue" stroke="midnightblue" points="936.09,-140.72 941.46,-131.59 931.57,-135.38 936.09,-140.72"/>
</g>
<!-- Node28&#45;&gt;Node22 -->
<g id="edge44" class="edge">
<title>Node28&#45;&gt;Node22</title>
<path fill="none" stroke="midnightblue" d="M812.14,-224.32C803.41,-216.34 790.27,-204.31 779.72,-194.65"/>
<polygon fill="midnightblue" stroke="midnightblue" points="782.01,-192 772.27,-187.83 777.28,-197.17 782.01,-192"/>
</g>
<!-- Node28&#45;&gt;Node27 -->
<g id="edge43" class="edge">
<title>Node28&#45;&gt;Node27</title>
<path fill="none" stroke="midnightblue" d="M845.69,-225.26C874.13,-216.12 921.72,-200.82 954.33,-190.34"/>
<polygon fill="midnightblue" stroke="midnightblue" points="955.49,-193.65 963.94,-187.25 953.35,-186.98 955.49,-193.65"/>
</g>
<!-- Node29&#45;&gt;Node19 -->
<g id="edge49" class="edge">
<title>Node29&#45;&gt;Node19</title>
<path fill="none" stroke="midnightblue" d="M1137.34,-168.5C1159.38,-156.2 1193.49,-132.65 1176.62,-112 1127.81,-52.26 1081.6,-90.71 1001.3,-76.08"/>
<polygon fill="midnightblue" stroke="midnightblue" points="1001.83,-72.62 991.33,-74.02 1000.42,-79.47 1001.83,-72.62"/>
</g>
<!-- Node29&#45;&gt;Node23 -->
<g id="edge50" class="edge">
<title>Node29&#45;&gt;Node23</title>
<path fill="none" stroke="midnightblue" d="M1120.62,-168.08C1120.62,-161.01 1120.62,-150.86 1120.62,-141.99"/>
<polygon fill="midnightblue" stroke="midnightblue" points="1124.12,-141.75 1120.62,-131.75 1117.12,-141.75 1124.12,-141.75"/>
</g>
<!-- Node30&#45;&gt;Node14 -->
<g id="edge52" class="edge">
<title>Node30&#45;&gt;Node14</title>
<path fill="none" stroke="midnightblue" d="M553.9,-232.05C516.7,-228.76 466.55,-218.39 434.62,-188 391.24,-146.71 374.92,-106.17 407.62,-56 421.09,-35.33 446.44,-24.09 468.49,-18.01"/>
<polygon fill="midnightblue" stroke="midnightblue" points="469.47,-21.37 478.34,-15.56 467.79,-14.58 469.47,-21.37"/>
</g>
<!-- Node30&#45;&gt;Node15 -->
<g id="edge53" class="edge">
<title>Node30&#45;&gt;Node15</title>
<path fill="none" stroke="midnightblue" d="M594.68,-224.4C578.68,-207.04 541.44,-166.49 510.62,-132 496.01,-115.66 479.52,-96.81 468.05,-83.64"/>
<polygon fill="midnightblue" stroke="midnightblue" points="470.51,-81.13 461.31,-75.88 465.23,-85.72 470.51,-81.13"/>
</g>
<!-- Node30&#45;&gt;Node16 -->
<g id="edge54" class="edge">
<title>Node30&#45;&gt;Node16</title>
<path fill="none" stroke="midnightblue" d="M603.26,-224.34C604.42,-211.63 607.43,-187.37 614.62,-168 621.06,-150.63 626.85,-148.32 635.62,-132 644.07,-116.26 652.99,-97.98 659.26,-84.82"/>
<polygon fill="midnightblue" stroke="midnightblue" points="662.55,-86.05 663.66,-75.51 656.22,-83.06 662.55,-86.05"/>
</g>
<!-- Node31 -->
<g id="node31" class="node">
<title>Node31</title>
<g id="a_node31"><a xlink:href="colour__bonus_8h.html" target="_top" xlink:title=" ">
<polygon fill="none" stroke="black" points="623.62,-168.5 623.62,-187.5 713.62,-187.5 713.62,-168.5 623.62,-168.5"/>
<text text-anchor="middle" x="668.62" y="-175.5" font-family="Helvetica,sans-Serif" font-size="10.00">colour_bonus.h</text>
</a>
</g>
</g>
<!-- Node30&#45;&gt;Node31 -->
<g id="edge55" class="edge">
<title>Node30&#45;&gt;Node31</title>
<path fill="none" stroke="midnightblue" d="M613.22,-224.32C623.07,-216.26 637.97,-204.08 649.83,-194.37"/>
<polygon fill="midnightblue" stroke="midnightblue" points="652.29,-196.88 657.82,-187.83 647.86,-191.46 652.29,-196.88"/>
</g>
<!-- Node31&#45;&gt;Node10 -->
<g id="edge56" class="edge">
<title>Node31&#45;&gt;Node10</title>
<path fill="none" stroke="midnightblue" d="M680.93,-168.37C707.76,-149.57 771.71,-104.77 804.87,-81.53"/>
<polygon fill="midnightblue" stroke="midnightblue" points="807.17,-84.2 813.35,-75.59 803.15,-78.46 807.17,-84.2"/>
</g>
<!-- Node31&#45;&gt;Node19 -->
<g id="edge57" class="edge">
<title>Node31&#45;&gt;Node19</title>
<path fill="none" stroke="midnightblue" d="M713.68,-169.38C716.7,-168.91 719.7,-168.44 722.62,-168 781.38,-159.11 948.52,-176.76 987.62,-132 999.61,-118.26 989.18,-97.85 978.77,-83.58"/>
<polygon fill="midnightblue" stroke="midnightblue" points="981.42,-81.29 972.49,-75.6 975.92,-85.62 981.42,-81.29"/>
</g>
<!-- Node32 -->
<g id="node32" class="node">
<title>Node32</title>
<g id="a_node32"><a xlink:href="utils__bonus_8h.html" target="_top" xlink:title=" ">
<polygon fill="none" stroke="black" points="520.12,-112.5 520.12,-131.5 601.12,-131.5 601.12,-112.5 520.12,-112.5"/>
<text text-anchor="middle" x="560.62" y="-119.5" font-family="Helvetica,sans-Serif" font-size="10.00">utils_bonus.h</text>
</a>
</g>
</g>
<!-- Node31&#45;&gt;Node32 -->
<g id="edge58" class="edge">
<title>Node31&#45;&gt;Node32</title>
<path fill="none" stroke="midnightblue" d="M651.26,-168.32C633.94,-159.66 607.1,-146.24 587.11,-136.25"/>
<polygon fill="midnightblue" stroke="midnightblue" points="588.43,-133 577.92,-131.65 585.3,-139.26 588.43,-133"/>
</g>
<!-- Node32&#45;&gt;Node14 -->
<g id="edge60" class="edge">
<title>Node32&#45;&gt;Node14</title>
<path fill="none" stroke="midnightblue" d="M553.04,-112.26C545.86,-103.58 535.22,-89.63 528.62,-76 521.4,-61.12 516.38,-42.98 513.32,-29.64"/>
<polygon fill="midnightblue" stroke="midnightblue" points="516.72,-28.8 511.2,-19.75 509.87,-30.26 516.72,-28.8"/>
</g>
<!-- Node32&#45;&gt;Node15 -->
<g id="edge61" class="edge">
<title>Node32&#45;&gt;Node15</title>
<path fill="none" stroke="midnightblue" d="M543.42,-112.32C526.26,-103.66 499.67,-90.24 479.87,-80.25"/>
<polygon fill="midnightblue" stroke="midnightblue" points="481.27,-77.04 470.76,-75.65 478.11,-83.28 481.27,-77.04"/>
</g>
<!-- Node32&#45;&gt;Node16 -->
<g id="edge63" class="edge">
<title>Node32&#45;&gt;Node16</title>
<path fill="none" stroke="midnightblue" d="M577.81,-112.32C594.97,-103.66 621.56,-90.24 641.36,-80.25"/>
<polygon fill="midnightblue" stroke="midnightblue" points="643.12,-83.28 650.47,-75.65 639.96,-77.04 643.12,-83.28"/>
</g>
<!-- Node32&#45;&gt;Node17 -->
<g id="edge59" class="edge">
<title>Node32&#45;&gt;Node17</title>
<path fill="none" stroke="midnightblue" d="M569.01,-112.37C586.9,-93.97 629.03,-50.67 652,-27.05"/>
<polygon fill="midnightblue" stroke="midnightblue" points="654.79,-29.2 659.26,-19.59 649.78,-24.32 654.79,-29.2"/>
</g>
<!-- Node33 -->
<g id="node33" class="node">
<title>Node33</title>
<g id="a_node33"><a xlink:title=" ">
<polygon fill="none" stroke="#bfbfbf" points="537.62,-56.5 537.62,-75.5 585.62,-75.5 585.62,-56.5 537.62,-56.5"/>
<text text-anchor="middle" x="561.62" y="-63.5" font-family="Helvetica,sans-Serif" font-size="10.00">time.h</text>
</a>
</g>
</g>
<!-- Node32&#45;&gt;Node33 -->
<g id="edge62" class="edge">
<title>Node32&#45;&gt;Node33</title>
<path fill="none" stroke="midnightblue" d="M560.78,-112.08C560.91,-105.01 561.1,-94.86 561.26,-85.99"/>
<polygon fill="midnightblue" stroke="midnightblue" points="564.77,-85.81 561.45,-75.75 557.77,-85.68 564.77,-85.81"/>
</g>
<!-- Node35&#45;&gt;Node22 -->
<g id="edge67" class="edge">
<title>Node35&#45;&gt;Node22</title>
<path fill="none" stroke="midnightblue" d="M681.52,-280.37C696.11,-262.14 730.27,-219.43 749.27,-195.68"/>
<polygon fill="midnightblue" stroke="midnightblue" points="752.23,-197.59 755.74,-187.59 746.76,-193.21 752.23,-197.59"/>
</g>
<!-- Node35&#45;&gt;Node30 -->
<g id="edge66" class="edge">
<title>Node35&#45;&gt;Node30</title>
<path fill="none" stroke="midnightblue" d="M663.05,-280.32C652.19,-272.18 635.73,-259.84 622.73,-250.09"/>
<polygon fill="midnightblue" stroke="midnightblue" points="624.49,-247.03 614.39,-243.83 620.29,-252.63 624.49,-247.03"/>
</g>
</g>
</svg>
