<?xml version="1.0" encoding="UTF-8" standalone="no"?>
<!DOCTYPE svg PUBLIC "-//W3C//DTD SVG 1.1//EN"
 "http://www.w3.org/Graphics/SVG/1.1/DTD/svg11.dtd">
<!-- Generated by graphviz version 2.43.0 (0)
 -->
<!-- Title: ft_draw_scene Pages: 1 -->
<svg width="1381pt" height="864pt"
 viewBox="0.00 0.00 1381.00 864.00" xmlns="http://www.w3.org/2000/svg" xmlns:xlink="http://www.w3.org/1999/xlink">
<g id="graph0" class="graph" transform="scale(1 1) rotate(0) translate(4 860)">
<title>ft_draw_scene</title>
<!-- Node1 -->
<g id="node1" class="node">
<title>Node1</title>
<g id="a_node1"><a xlink:title=" ">
<polygon fill="#bfbfbf" stroke="black" points="0,-722.5 0,-741.5 86,-741.5 86,-722.5 0,-722.5"/>
<text text-anchor="middle" x="43" y="-729.5" font-family="Helvetica,sans-Serif" font-size="10.00">ft_draw_scene</text>
</a>
</g>
</g>
<!-- Node2 -->
<g id="node2" class="node">
<title>Node2</title>
<g id="a_node2"><a xlink:href="render_8h.html#aef5f4f911a32ea5cc0ee9666358c049d" target="_top" xlink:title="Aplha blends current image with menu color to create overlay.">
<polygon fill="none" stroke="black" points="122,-836.5 122,-855.5 240,-855.5 240,-836.5 122,-836.5"/>
<text text-anchor="middle" x="181" y="-843.5" font-family="Helvetica,sans-Serif" font-size="10.00">ft_blend_background</text>
</a>
</g>
</g>
<!-- Node1&#45;&gt;Node2 -->
<g id="edge1" class="edge">
<title>Node1&#45;&gt;Node2</title>
<path fill="none" stroke="midnightblue" d="M49.33,-741.61C60.38,-760.68 87.65,-803.5 122,-827 124.89,-828.97 127.99,-830.76 131.21,-832.36"/>
<polygon fill="midnightblue" stroke="midnightblue" points="129.94,-835.63 140.51,-836.43 132.75,-829.21 129.94,-835.63"/>
</g>
<!-- Node3 -->
<g id="node3" class="node">
<title>Node3</title>
<g id="a_node3"><a xlink:href="time__bonus_8h.html#a0eb1b604aaecb5a41555b8f1e231f0a1" target="_top" xlink:title="Returns the current time in milliseconds.">
<polygon fill="none" stroke="black" points="135,-798.5 135,-817.5 227,-817.5 227,-798.5 135,-798.5"/>
<text text-anchor="middle" x="181" y="-805.5" font-family="Helvetica,sans-Serif" font-size="10.00">ft_get_time_ms</text>
</a>
</g>
</g>
<!-- Node1&#45;&gt;Node3 -->
<g id="edge2" class="edge">
<title>Node1&#45;&gt;Node3</title>
<path fill="none" stroke="midnightblue" d="M56.76,-741.65C71.82,-752.76 97.88,-771.13 122,-784 129.1,-787.79 136.93,-791.39 144.47,-794.59"/>
<polygon fill="midnightblue" stroke="midnightblue" points="143.22,-797.86 153.8,-798.42 145.88,-791.39 143.22,-797.86"/>
</g>
<!-- Node4 -->
<g id="node4" class="node">
<title>Node4</title>
<g id="a_node4"><a xlink:href="render_8h.html#a735dfeb13434c88e3b4a76990386763b" target="_top" xlink:title="Puts the current menu page on the screen.">
<polygon fill="none" stroke="black" points="130,-722.5 130,-741.5 232,-741.5 232,-722.5 130,-722.5"/>
<text text-anchor="middle" x="181" y="-729.5" font-family="Helvetica,sans-Serif" font-size="10.00">ft_menu_put_text</text>
</a>
</g>
</g>
<!-- Node1&#45;&gt;Node4 -->
<g id="edge3" class="edge">
<title>Node1&#45;&gt;Node4</title>
<path fill="none" stroke="midnightblue" d="M86.29,-732C96.79,-732 108.26,-732 119.46,-732"/>
<polygon fill="midnightblue" stroke="midnightblue" points="119.62,-735.5 129.62,-732 119.62,-728.5 119.62,-735.5"/>
</g>
<!-- Node5 -->
<g id="node5" class="node">
<title>Node5</title>
<g id="a_node5"><a xlink:href="render__bit__field_8h.html#aea0daf263880cbf1cf1a0dd050320e7a" target="_top" xlink:title="Checks if bit is set in the bit field.">
<polygon fill="none" stroke="black" points="291.5,-760.5 291.5,-779.5 379.5,-779.5 379.5,-760.5 291.5,-760.5"/>
<text text-anchor="middle" x="335.5" y="-767.5" font-family="Helvetica,sans-Serif" font-size="10.00">ft_option_isset</text>
</a>
</g>
</g>
<!-- Node1&#45;&gt;Node5 -->
<g id="edge7" class="edge">
<title>Node1&#45;&gt;Node5</title>
<path fill="none" stroke="midnightblue" d="M78.33,-741.54C91.85,-744.98 107.56,-748.61 122,-751 175.79,-759.9 237.98,-764.85 281.12,-767.45"/>
<polygon fill="midnightblue" stroke="midnightblue" points="280.93,-770.94 291.12,-768.03 281.34,-763.95 280.93,-770.94"/>
</g>
<!-- Node7 -->
<g id="node7" class="node">
<title>Node7</title>
<g id="a_node7"><a xlink:href="render__bit__field_8h.html#a0e353bbefbfd549ad2ebb5b821fc7900" target="_top" xlink:title="Clears bit in bit field.">
<polygon fill="none" stroke="black" points="136.5,-684.5 136.5,-703.5 225.5,-703.5 225.5,-684.5 136.5,-684.5"/>
<text text-anchor="middle" x="181" y="-691.5" font-family="Helvetica,sans-Serif" font-size="10.00">ft_option_clear</text>
</a>
</g>
</g>
<!-- Node1&#45;&gt;Node7 -->
<g id="edge6" class="edge">
<title>Node1&#45;&gt;Node7</title>
<path fill="none" stroke="midnightblue" d="M78.32,-722.41C95.79,-717.53 117.24,-711.54 135.93,-706.32"/>
<polygon fill="midnightblue" stroke="midnightblue" points="137,-709.65 145.69,-703.59 135.12,-702.91 137,-709.65"/>
</g>
<!-- Node8 -->
<g id="node8" class="node">
<title>Node8</title>
<g id="a_node8"><a xlink:href="render_8h.html#ac6bbab3b2e39615661f011a484a5251e" target="_top" xlink:title="Outputs the current mlx img as a ppm file.">
<polygon fill="none" stroke="black" points="129,-646.5 129,-665.5 233,-665.5 233,-646.5 129,-646.5"/>
<text text-anchor="middle" x="181" y="-653.5" font-family="Helvetica,sans-Serif" font-size="10.00">ft_output_as_ppm</text>
</a>
</g>
</g>
<!-- Node1&#45;&gt;Node8 -->
<g id="edge8" class="edge">
<title>Node1&#45;&gt;Node8</title>
<path fill="none" stroke="midnightblue" d="M54.89,-722.3C69.33,-709.86 96.03,-688.32 122,-675 126.25,-672.82 130.81,-670.82 135.43,-669"/>
<polygon fill="midnightblue" stroke="midnightblue" points="136.74,-672.24 144.93,-665.52 134.33,-665.67 136.74,-672.24"/>
</g>
<!-- Node9 -->
<g id="node9" class="node">
<title>Node9</title>
<g id="a_node9"><a xlink:href="render_8h.html#a4f238596a8fca72f9af80be57cf06d34" target="_top" xlink:title="Renders the scene to the mlx img.">
<polygon fill="none" stroke="black" points="133,-589.5 133,-608.5 229,-608.5 229,-589.5 133,-589.5"/>
<text text-anchor="middle" x="181" y="-596.5" font-family="Helvetica,sans-Serif" font-size="10.00">ft_render_image</text>
</a>
</g>
</g>
<!-- Node1&#45;&gt;Node9 -->
<g id="edge9" class="edge">
<title>Node1&#45;&gt;Node9</title>
<path fill="none" stroke="midnightblue" d="M50.47,-722.29C62.88,-704.12 91.51,-664.37 122,-637 131.63,-628.35 143.4,-620.27 153.82,-613.8"/>
<polygon fill="midnightblue" stroke="midnightblue" points="155.77,-616.71 162.53,-608.55 152.16,-610.71 155.77,-616.71"/>
</g>
<!-- Node4&#45;&gt;Node5 -->
<g id="edge4" class="edge">
<title>Node4&#45;&gt;Node5</title>
<path fill="none" stroke="midnightblue" d="M220.48,-741.59C240.52,-746.58 265.2,-752.73 286.48,-758.03"/>
<polygon fill="midnightblue" stroke="midnightblue" points="285.74,-761.46 296.29,-760.48 287.44,-754.67 285.74,-761.46"/>
</g>
<!-- Node6 -->
<g id="node6" class="node">
<title>Node6</title>
<g id="a_node6"><a xlink:href="menu__put_8h.html#a1a2da0ddd033aa4e2ad293ef4b8db2af" target="_top" xlink:title="Wrapper for mlx_string_put().">
<polygon fill="none" stroke="black" points="304.5,-722.5 304.5,-741.5 366.5,-741.5 366.5,-722.5 304.5,-722.5"/>
<text text-anchor="middle" x="335.5" y="-729.5" font-family="Helvetica,sans-Serif" font-size="10.00">ft_put_str</text>
</a>
</g>
</g>
<!-- Node4&#45;&gt;Node6 -->
<g id="edge5" class="edge">
<title>Node4&#45;&gt;Node6</title>
<path fill="none" stroke="midnightblue" d="M232.36,-732C252.41,-732 275.18,-732 294.13,-732"/>
<polygon fill="midnightblue" stroke="midnightblue" points="294.22,-735.5 304.22,-732 294.22,-728.5 294.22,-735.5"/>
</g>
<!-- Node10 -->
<g id="node10" class="node">
<title>Node10</title>
<g id="a_node10"><a xlink:href="colour_8h.html#a884b9301b7c2999806766ea5e00b76ba" target="_top" xlink:title="Converts a t_colour struct to an int32_t.">
<polygon fill="none" stroke="black" points="276,-266.5 276,-285.5 395,-285.5 395,-266.5 276,-266.5"/>
<text text-anchor="middle" x="335.5" y="-273.5" font-family="Helvetica,sans-Serif" font-size="10.00">ft_convert_colour2int</text>
</a>
</g>
</g>
<!-- Node9&#45;&gt;Node10 -->
<g id="edge10" class="edge">
<title>Node9&#45;&gt;Node10</title>
<path fill="none" stroke="midnightblue" d="M181.97,-589.24C182.41,-547.55 189.7,-382.53 276,-295 277.43,-293.55 278.98,-292.2 280.61,-290.96"/>
<polygon fill="midnightblue" stroke="midnightblue" points="282.7,-293.79 289.4,-285.58 279.04,-287.82 282.7,-293.79"/>
</g>
<!-- Node11 -->
<g id="node11" class="node">
<title>Node11</title>
<g id="a_node11"><a xlink:href="render__draw_8c.html#ad11267674572960fef12f2c501dd7373" target="_top" xlink:title="Draws a single pixel to the mlx img.">
<polygon fill="none" stroke="black" points="277.5,-684.5 277.5,-703.5 393.5,-703.5 393.5,-684.5 277.5,-684.5"/>
<text text-anchor="middle" x="335.5" y="-691.5" font-family="Helvetica,sans-Serif" font-size="10.00">ft_put_pix_to_image</text>
</a>
</g>
</g>
<!-- Node9&#45;&gt;Node11 -->
<g id="edge11" class="edge">
<title>Node9&#45;&gt;Node11</title>
<path fill="none" stroke="midnightblue" d="M198.23,-608.65C210.14,-615.96 226.51,-626.51 240,-637 257.13,-650.32 257.68,-658.37 276,-670 282.24,-673.96 289.25,-677.5 296.19,-680.57"/>
<polygon fill="midnightblue" stroke="midnightblue" points="294.96,-683.84 305.53,-684.45 297.64,-677.38 294.96,-683.84"/>
</g>
<!-- Node12 -->
<g id="node12" class="node">
<title>Node12</title>
<g id="a_node12"><a xlink:href="ray_8h.html#a2cffd188fb76990901db47a2c3ac638f" target="_top" xlink:title="Returns the colour of a ray.">
<polygon fill="none" stroke="black" points="295.5,-304.5 295.5,-323.5 375.5,-323.5 375.5,-304.5 295.5,-304.5"/>
<text text-anchor="middle" x="335.5" y="-311.5" font-family="Helvetica,sans-Serif" font-size="10.00">ft_ray_colour</text>
</a>
</g>
</g>
<!-- Node9&#45;&gt;Node12 -->
<g id="edge12" class="edge">
<title>Node9&#45;&gt;Node12</title>
<path fill="none" stroke="midnightblue" d="M182.73,-589.25C186.05,-551.66 202.9,-414.36 276,-338 279.65,-334.18 284,-330.95 288.66,-328.22"/>
<polygon fill="midnightblue" stroke="midnightblue" points="290.52,-331.2 297.88,-323.57 287.37,-324.95 290.52,-331.2"/>
</g>
<!-- Node32 -->
<g id="node32" class="node">
<title>Node32</title>
<g id="a_node32"><a xlink:href="vec3_8h.html#a73e2caf4c2a51ed954b7349c6be2b3c3" target="_top" xlink:title="Add two vectors.">
<polygon fill="none" stroke="black" points="1294,-589.5 1294,-608.5 1369,-608.5 1369,-589.5 1294,-589.5"/>
<text text-anchor="middle" x="1331.5" y="-596.5" font-family="Helvetica,sans-Serif" font-size="10.00">ft_vec3_add</text>
</a>
</g>
</g>
<!-- Node9&#45;&gt;Node32 -->
<g id="edge55" class="edge">
<title>Node9&#45;&gt;Node32</title>
<path fill="none" stroke="midnightblue" d="M212.74,-608.54C267.84,-624.77 387.29,-656 490.5,-656 490.5,-656 490.5,-656 1067,-656 1149.98,-656 1244.4,-628.66 1294.62,-611.85"/>
<polygon fill="midnightblue" stroke="midnightblue" points="1296.01,-615.08 1304.35,-608.54 1293.76,-608.45 1296.01,-615.08"/>
</g>
<!-- Node33 -->
<g id="node33" class="node">
<title>Node33</title>
<g id="a_node33"><a xlink:href="vec3_8h.html#ac80a1c20941c96a8fafad255dac59092" target="_top" xlink:title="Scale a vector.">
<polygon fill="none" stroke="black" points="1290,-418.5 1290,-437.5 1373,-437.5 1373,-418.5 1290,-418.5"/>
<text text-anchor="middle" x="1331.5" y="-425.5" font-family="Helvetica,sans-Serif" font-size="10.00">ft_vec3_scale</text>
</a>
</g>
</g>
<!-- Node9&#45;&gt;Node33 -->
<g id="edge57" class="edge">
<title>Node9&#45;&gt;Node33</title>
<path fill="none" stroke="midnightblue" d="M229.25,-594.28C289.73,-588.65 397.8,-580 490.5,-580 490.5,-580 490.5,-580 1067,-580 1153.89,-580 1182.01,-571.65 1254,-523 1269.63,-512.43 1300.58,-470.53 1317.94,-446.05"/>
<polygon fill="midnightblue" stroke="midnightblue" points="1320.98,-447.81 1323.87,-437.62 1315.25,-443.79 1320.98,-447.81"/>
</g>
<!-- Node36 -->
<g id="node36" class="node">
<title>Node36</title>
<g id="a_node36"><a xlink:href="vec3_8h.html#a54e984820b74bd803de43ce36c8cb292" target="_top" xlink:title="Subtract two vectors.">
<polygon fill="none" stroke="black" points="1162.5,-456.5 1162.5,-475.5 1236.5,-475.5 1236.5,-456.5 1162.5,-456.5"/>
<text text-anchor="middle" x="1199.5" y="-463.5" font-family="Helvetica,sans-Serif" font-size="10.00">ft_vec3_sub</text>
</a>
</g>
</g>
<!-- Node9&#45;&gt;Node36 -->
<g id="edge58" class="edge">
<title>Node9&#45;&gt;Node36</title>
<path fill="none" stroke="midnightblue" d="M187.51,-589.32C214.26,-543.65 335.78,-352 490.5,-352 490.5,-352 490.5,-352 946,-352 970.03,-352 1110.37,-421.45 1170.82,-451.93"/>
<polygon fill="midnightblue" stroke="midnightblue" points="1169.3,-455.09 1179.81,-456.48 1172.46,-448.84 1169.3,-455.09"/>
</g>
<!-- Node38 -->
<g id="node38" class="node">
<title>Node38</title>
<g id="a_node38"><a xlink:href="vec3_8h.html#a38fe500bd27847b866b9630146e43250" target="_top" xlink:title="Normalise a vector.">
<polygon fill="none" stroke="black" points="1158,-494.5 1158,-513.5 1241,-513.5 1241,-494.5 1158,-494.5"/>
<text text-anchor="middle" x="1199.5" y="-501.5" font-family="Helvetica,sans-Serif" font-size="10.00">ft_vec3_norm</text>
</a>
</g>
</g>
<!-- Node9&#45;&gt;Node38 -->
<g id="edge56" class="edge">
<title>Node9&#45;&gt;Node38</title>
<path fill="none" stroke="midnightblue" d="M229.25,-603.72C289.73,-609.35 397.8,-618 490.5,-618 490.5,-618 490.5,-618 645.5,-618 844.19,-618 1074.91,-546.54 1162.39,-516.77"/>
<polygon fill="midnightblue" stroke="midnightblue" points="1163.54,-520.08 1171.86,-513.52 1161.26,-513.46 1163.54,-520.08"/>
</g>
<!-- Node13 -->
<g id="node13" class="node">
<title>Node13</title>
<g id="a_node13"><a xlink:href="ray_8c.html#a165a4eb7af65fda20a69dfd50b9ed119" target="_top" xlink:title="Returns the background colour.">
<polygon fill="none" stroke="black" points="431,-304.5 431,-323.5 552,-323.5 552,-304.5 431,-304.5"/>
<text text-anchor="middle" x="491.5" y="-311.5" font-family="Helvetica,sans-Serif" font-size="10.00">ft_background_colour</text>
</a>
</g>
</g>
<!-- Node12&#45;&gt;Node13 -->
<g id="edge13" class="edge">
<title>Node12&#45;&gt;Node13</title>
<path fill="none" stroke="midnightblue" d="M375.76,-314C389.5,-314 405.38,-314 420.85,-314"/>
<polygon fill="midnightblue" stroke="midnightblue" points="420.94,-317.5 430.94,-314 420.94,-310.5 420.94,-317.5"/>
</g>
<!-- Node14 -->
<g id="node14" class="node">
<title>Node14</title>
<g id="a_node14"><a xlink:href="lighting_8h.html#a3d54436a3f695a60b1c2d9e504a61de8" target="_top" xlink:title="Calculate the effect of different lighting on perception.">
<polygon fill="none" stroke="black" points="454.5,-437.5 454.5,-456.5 528.5,-456.5 528.5,-437.5 454.5,-437.5"/>
<text text-anchor="middle" x="491.5" y="-444.5" font-family="Helvetica,sans-Serif" font-size="10.00">ft_enlighten</text>
</a>
</g>
</g>
<!-- Node12&#45;&gt;Node14 -->
<g id="edge14" class="edge">
<title>Node12&#45;&gt;Node14</title>
<path fill="none" stroke="midnightblue" d="M347.58,-323.57C373.53,-345.98 438.56,-402.14 471.19,-430.32"/>
<polygon fill="midnightblue" stroke="midnightblue" points="469.25,-433.28 479.11,-437.16 473.83,-427.98 469.25,-433.28"/>
</g>
<!-- Node22 -->
<g id="node22" class="node">
<title>Node22</title>
<g id="a_node22"><a xlink:href="hit__manager_8h.html#a9d5972226064b0a4d0e1359d9230abec" target="_top" xlink:title="Investigate a hittable and returns whether a hit occured or not.">
<polygon fill="none" stroke="black" points="903,-266.5 903,-285.5 987,-285.5 987,-266.5 903,-266.5"/>
<text text-anchor="middle" x="945" y="-273.5" font-family="Helvetica,sans-Serif" font-size="10.00">ft_hit_hittable</text>
</a>
</g>
</g>
<!-- Node12&#45;&gt;Node22 -->
<g id="edge53" class="edge">
<title>Node12&#45;&gt;Node22</title>
<path fill="none" stroke="midnightblue" d="M375.81,-304.62C392.7,-300.97 412.72,-297.16 431,-295 599.1,-275.12 800.14,-274.28 892.72,-275.17"/>
<polygon fill="midnightblue" stroke="midnightblue" points="892.89,-278.67 902.93,-275.28 892.97,-271.67 892.89,-278.67"/>
</g>
<!-- Node29 -->
<g id="node29" class="node">
<title>Node29</title>
<g id="a_node29"><a xlink:href="hit__manager_8h.html#aa5acefb1538a700dc595870ad630f83d" target="_top" xlink:title="Initiates hitrecord struct.">
<polygon fill="none" stroke="black" points="1153,-152.5 1153,-171.5 1246,-171.5 1246,-152.5 1153,-152.5"/>
<text text-anchor="middle" x="1199.5" y="-159.5" font-family="Helvetica,sans-Serif" font-size="10.00">ft_init_hitrecord</text>
</a>
</g>
</g>
<!-- Node12&#45;&gt;Node29 -->
<g id="edge54" class="edge">
<title>Node12&#45;&gt;Node29</title>
<path fill="none" stroke="midnightblue" d="M368.68,-304.48C377.32,-301.67 386.59,-298.42 395,-295 509.13,-248.51 520.27,-172 643.5,-172 643.5,-172 643.5,-172 946,-172 1013.72,-172 1091.58,-168.36 1142.73,-165.48"/>
<polygon fill="midnightblue" stroke="midnightblue" points="1143.12,-168.96 1152.91,-164.89 1142.72,-161.97 1143.12,-168.96"/>
</g>
<!-- Node15 -->
<g id="node15" class="node">
<title>Node15</title>
<g id="a_node15"><a xlink:href="colour_8h.html#ae5c090d9193f6bcf449f12c299f186b7" target="_top" xlink:title="Add two colours.">
<polygon fill="none" stroke="black" points="603.5,-456.5 603.5,-475.5 685.5,-475.5 685.5,-456.5 603.5,-456.5"/>
<text text-anchor="middle" x="644.5" y="-463.5" font-family="Helvetica,sans-Serif" font-size="10.00">ft_add_colour</text>
</a>
</g>
</g>
<!-- Node14&#45;&gt;Node15 -->
<g id="edge15" class="edge">
<title>Node14&#45;&gt;Node15</title>
<path fill="none" stroke="midnightblue" d="M528.67,-451.55C548.01,-453.99 572.14,-457.02 593.27,-459.68"/>
<polygon fill="midnightblue" stroke="midnightblue" points="593.02,-463.18 603.38,-460.95 593.89,-456.23 593.02,-463.18"/>
</g>
<!-- Node16 -->
<g id="node16" class="node">
<title>Node16</title>
<g id="a_node16"><a xlink:href="scene__light_8c.html#a691cc177466ad1a6b1ababe4272dca1b" target="_top" xlink:title="Create ambient lighting.">
<polygon fill="none" stroke="black" points="596.5,-418.5 596.5,-437.5 692.5,-437.5 692.5,-418.5 596.5,-418.5"/>
<text text-anchor="middle" x="644.5" y="-425.5" font-family="Helvetica,sans-Serif" font-size="10.00">ft_ambient_light</text>
</a>
</g>
</g>
<!-- Node14&#45;&gt;Node16 -->
<g id="edge16" class="edge">
<title>Node14&#45;&gt;Node16</title>
<path fill="none" stroke="midnightblue" d="M528.67,-442.45C545.98,-440.27 567.12,-437.61 586.52,-435.17"/>
<polygon fill="midnightblue" stroke="midnightblue" points="586.99,-438.64 596.48,-433.92 586.12,-431.69 586.99,-438.64"/>
</g>
<!-- Node17 -->
<g id="node17" class="node">
<title>Node17</title>
<g id="a_node17"><a xlink:href="scene__light_8c.html#ae50a6e06925c764b3caad3f805bc4c8a" target="_top" xlink:title="Create diffuse lighting.">
<polygon fill="none" stroke="black" points="600,-494.5 600,-513.5 689,-513.5 689,-494.5 600,-494.5"/>
<text text-anchor="middle" x="644.5" y="-501.5" font-family="Helvetica,sans-Serif" font-size="10.00">ft_diffuse_light</text>
</a>
</g>
</g>
<!-- Node14&#45;&gt;Node17 -->
<g id="edge17" class="edge">
<title>Node14&#45;&gt;Node17</title>
<path fill="none" stroke="midnightblue" d="M515.54,-456.53C534.8,-464.42 563.06,-475.78 588,-485 593.51,-487.04 599.35,-489.12 605.1,-491.13"/>
<polygon fill="midnightblue" stroke="midnightblue" points="604,-494.45 614.6,-494.4 606.29,-487.83 604,-494.45"/>
</g>
<!-- Node18 -->
<g id="node18" class="node">
<title>Node18</title>
<g id="a_node18"><a xlink:href="colour_8h.html#a9e6968b360ba0fa607a8571c262995ea" target="_top" xlink:title="Calculates the Hadamard product of two colours.">
<polygon fill="none" stroke="black" points="588,-532.5 588,-551.5 701,-551.5 701,-532.5 588,-532.5"/>
<text text-anchor="middle" x="644.5" y="-539.5" font-family="Helvetica,sans-Serif" font-size="10.00">ft_hadamard_colour</text>
</a>
</g>
</g>
<!-- Node14&#45;&gt;Node18 -->
<g id="edge18" class="edge">
<title>Node14&#45;&gt;Node18</title>
<path fill="none" stroke="midnightblue" d="M502.26,-456.69C518.68,-472.53 553.43,-504.07 588,-523 591.77,-525.06 595.8,-526.96 599.91,-528.7"/>
<polygon fill="midnightblue" stroke="midnightblue" points="598.96,-532.08 609.55,-532.44 601.49,-525.56 598.96,-532.08"/>
</g>
<!-- Node20 -->
<g id="node20" class="node">
<title>Node20</title>
<g id="a_node20"><a xlink:href="lighting_8h.html#a382179d88a3a971b5853322389bacf04" target="_top" xlink:title="Determines whether the point of intersection lies in a shadow regarding the current light source.">
<polygon fill="none" stroke="black" points="604.5,-380.5 604.5,-399.5 684.5,-399.5 684.5,-380.5 604.5,-380.5"/>
<text text-anchor="middle" x="644.5" y="-387.5" font-family="Helvetica,sans-Serif" font-size="10.00">ft_in_shadow</text>
</a>
</g>
</g>
<!-- Node14&#45;&gt;Node20 -->
<g id="edge20" class="edge">
<title>Node14&#45;&gt;Node20</title>
<path fill="none" stroke="midnightblue" d="M515.54,-437.47C534.8,-429.58 563.06,-418.22 588,-409 593.51,-406.96 599.35,-404.88 605.1,-402.87"/>
<polygon fill="midnightblue" stroke="midnightblue" points="606.29,-406.17 614.6,-399.6 604,-399.55 606.29,-406.17"/>
</g>
<!-- Node19 -->
<g id="node19" class="node">
<title>Node19</title>
<g id="a_node19"><a xlink:href="utils_8h.html#a241b2b1d75c68c1eefd36b569901c9f9" target="_top" xlink:title="Ensure that the returned float lies within the interval.">
<polygon fill="none" stroke="black" points="772.5,-532.5 772.5,-551.5 831.5,-551.5 831.5,-532.5 772.5,-532.5"/>
<text text-anchor="middle" x="802" y="-539.5" font-family="Helvetica,sans-Serif" font-size="10.00">ft_clamp</text>
</a>
</g>
</g>
<!-- Node18&#45;&gt;Node19 -->
<g id="edge19" class="edge">
<title>Node18&#45;&gt;Node19</title>
<path fill="none" stroke="midnightblue" d="M701.2,-542C721.4,-542 743.77,-542 762.19,-542"/>
<polygon fill="midnightblue" stroke="midnightblue" points="762.27,-545.5 772.27,-542 762.27,-538.5 762.27,-545.5"/>
</g>
<!-- Node21 -->
<g id="node21" class="node">
<title>Node21</title>
<g id="a_node21"><a xlink:href="scene__shadow_8c.html#a931177e8edb2dd5393cef7a468389a4d" target="_top" xlink:title="Determines whether the shadow ray emitted from the point of intersection is blocked on its way to the...">
<polygon fill="none" stroke="black" points="737,-228.5 737,-247.5 867,-247.5 867,-228.5 737,-228.5"/>
<text text-anchor="middle" x="802" y="-235.5" font-family="Helvetica,sans-Serif" font-size="10.00">ft_shadow_ray_blocked</text>
</a>
</g>
</g>
<!-- Node20&#45;&gt;Node21 -->
<g id="edge21" class="edge">
<title>Node20&#45;&gt;Node21</title>
<path fill="none" stroke="midnightblue" d="M655.23,-380.49C680.97,-355.33 751.14,-286.74 783.83,-254.79"/>
<polygon fill="midnightblue" stroke="midnightblue" points="786.57,-257 791.28,-247.5 781.68,-251.99 786.57,-257"/>
</g>
<!-- Node20&#45;&gt;Node36 -->
<g id="edge52" class="edge">
<title>Node20&#45;&gt;Node36</title>
<path fill="none" stroke="midnightblue" d="M684.55,-398.84C700.73,-402.31 719.71,-406.14 737,-409 888.24,-434 1069.01,-453.27 1152.31,-461.56"/>
<polygon fill="midnightblue" stroke="midnightblue" points="1152.16,-465.06 1162.45,-462.56 1152.85,-458.1 1152.16,-465.06"/>
</g>
<!-- Node20&#45;&gt;Node38 -->
<g id="edge51" class="edge">
<title>Node20&#45;&gt;Node38</title>
<path fill="none" stroke="midnightblue" d="M677.72,-399.58C685.49,-402.28 693.66,-405.46 701,-409 718.1,-417.24 719.24,-425.28 737,-432 879.3,-485.83 1060.91,-499.43 1147.77,-502.86"/>
<polygon fill="midnightblue" stroke="midnightblue" points="1147.77,-506.36 1157.89,-503.22 1148.02,-499.36 1147.77,-506.36"/>
</g>
<!-- Node40 -->
<g id="node40" class="node">
<title>Node40</title>
<g id="a_node40"><a xlink:href="vec3_8h.html#aa84621bd979d3b12b97908f653faf88e" target="_top" xlink:title="Calculate the absolute value of a vector.">
<polygon fill="none" stroke="black" points="765,-380.5 765,-399.5 839,-399.5 839,-380.5 765,-380.5"/>
<text text-anchor="middle" x="802" y="-387.5" font-family="Helvetica,sans-Serif" font-size="10.00">ft_vec3_abs</text>
</a>
</g>
</g>
<!-- Node20&#45;&gt;Node40 -->
<g id="edge50" class="edge">
<title>Node20&#45;&gt;Node40</title>
<path fill="none" stroke="midnightblue" d="M684.74,-390C706.02,-390 732.45,-390 754.73,-390"/>
<polygon fill="midnightblue" stroke="midnightblue" points="754.97,-393.5 764.97,-390 754.97,-386.5 754.97,-393.5"/>
</g>
<!-- Node21&#45;&gt;Node22 -->
<g id="edge22" class="edge">
<title>Node21&#45;&gt;Node22</title>
<path fill="none" stroke="midnightblue" d="M838.58,-247.59C856.78,-252.49 879.14,-258.52 898.57,-263.76"/>
<polygon fill="midnightblue" stroke="midnightblue" points="897.86,-267.19 908.43,-266.41 899.69,-260.43 897.86,-267.19"/>
</g>
<!-- Node21&#45;&gt;Node29 -->
<g id="edge49" class="edge">
<title>Node21&#45;&gt;Node29</title>
<path fill="none" stroke="midnightblue" d="M867.22,-228.88C929.37,-219.63 1026.09,-204.12 1109,-186 1124.45,-182.62 1141.23,-178.3 1156.05,-174.26"/>
<polygon fill="midnightblue" stroke="midnightblue" points="1157.24,-177.56 1165.95,-171.52 1155.38,-170.81 1157.24,-177.56"/>
</g>
<!-- Node23 -->
<g id="node23" class="node">
<title>Node23</title>
<g id="a_node23"><a xlink:href="hit__manager_8h.html#ad1c0dcb3141fe78ed26368ca7bb8d2b8" target="_top" xlink:title="Calculates if a cylinder was hit by a ray.">
<polygon fill="none" stroke="black" points="1023,-95.5 1023,-114.5 1109,-114.5 1109,-95.5 1023,-95.5"/>
<text text-anchor="middle" x="1066" y="-102.5" font-family="Helvetica,sans-Serif" font-size="10.00">ft_hit_cylinder</text>
</a>
</g>
</g>
<!-- Node22&#45;&gt;Node23 -->
<g id="edge23" class="edge">
<title>Node22&#45;&gt;Node23</title>
<path fill="none" stroke="midnightblue" d="M952.74,-266.32C971.97,-238.69 1027.31,-159.16 1052.39,-123.13"/>
<polygon fill="midnightblue" stroke="midnightblue" points="1055.5,-124.78 1058.33,-114.58 1049.75,-120.79 1055.5,-124.78"/>
</g>
<!-- Node30 -->
<g id="node30" class="node">
<title>Node30</title>
<g id="a_node30"><a xlink:href="hit__manager_8h.html#a04f04eb6383f01a28b0c7201ab52782e" target="_top" xlink:title="Calculates if a plane was hit by a ray.">
<polygon fill="none" stroke="black" points="1029,-266.5 1029,-285.5 1103,-285.5 1103,-266.5 1029,-266.5"/>
<text text-anchor="middle" x="1066" y="-273.5" font-family="Helvetica,sans-Serif" font-size="10.00">ft_hit_plane</text>
</a>
</g>
</g>
<!-- Node22&#45;&gt;Node30 -->
<g id="edge30" class="edge">
<title>Node22&#45;&gt;Node30</title>
<path fill="none" stroke="midnightblue" d="M987.29,-276C997.46,-276 1008.41,-276 1018.8,-276"/>
<polygon fill="midnightblue" stroke="midnightblue" points="1018.94,-279.5 1028.94,-276 1018.94,-272.5 1018.94,-279.5"/>
</g>
<!-- Node37 -->
<g id="node37" class="node">
<title>Node37</title>
<g id="a_node37"><a xlink:href="hit__manager_8h.html#aee999b32d6cebbb7bcd64995f8e88b6e" target="_top" xlink:title="Calculates if a sphere was hit by a ray.">
<polygon fill="none" stroke="black" points="1026,-304.5 1026,-323.5 1106,-323.5 1106,-304.5 1026,-304.5"/>
<text text-anchor="middle" x="1066" y="-311.5" font-family="Helvetica,sans-Serif" font-size="10.00">ft_hit_sphere</text>
</a>
</g>
</g>
<!-- Node22&#45;&gt;Node37 -->
<g id="edge39" class="edge">
<title>Node22&#45;&gt;Node37</title>
<path fill="none" stroke="midnightblue" d="M976.03,-285.59C990.97,-290.36 1009.22,-296.19 1025.3,-301.32"/>
<polygon fill="midnightblue" stroke="midnightblue" points="1024.39,-304.71 1034.98,-304.41 1026.52,-298.04 1024.39,-304.71"/>
</g>
<!-- Node24 -->
<g id="node24" class="node">
<title>Node24</title>
<g id="a_node24"><a xlink:href="hit__cylinder_8c.html#afb7b50ad2f9161c61fc1065975ec7cbf" target="_top" xlink:title="Calculates all four potential hits of a cylinder.">
<polygon fill="none" stroke="black" points="1145,-76.5 1145,-95.5 1254,-95.5 1254,-76.5 1145,-76.5"/>
<text text-anchor="middle" x="1199.5" y="-83.5" font-family="Helvetica,sans-Serif" font-size="10.00">ft_cy_calc_pot_hits</text>
</a>
</g>
</g>
<!-- Node23&#45;&gt;Node24 -->
<g id="edge24" class="edge">
<title>Node23&#45;&gt;Node24</title>
<path fill="none" stroke="midnightblue" d="M1109.33,-98.88C1117.43,-97.71 1126.07,-96.47 1134.66,-95.22"/>
<polygon fill="midnightblue" stroke="midnightblue" points="1135.3,-98.67 1144.7,-93.77 1134.3,-91.74 1135.3,-98.67"/>
</g>
<!-- Node25 -->
<g id="node25" class="node">
<title>Node25</title>
<g id="a_node25"><a xlink:href="hit__cylinder_8c.html#a40c47553b6ecb8ff1834e44c4c308e9b" target="_top" xlink:title="Determines if the potential hits are accurate.">
<polygon fill="none" stroke="black" points="1147,-0.5 1147,-19.5 1252,-19.5 1252,-0.5 1147,-0.5"/>
<text text-anchor="middle" x="1199.5" y="-7.5" font-family="Helvetica,sans-Serif" font-size="10.00">ft_cy_identify_hits</text>
</a>
</g>
</g>
<!-- Node23&#45;&gt;Node25 -->
<g id="edge25" class="edge">
<title>Node23&#45;&gt;Node25</title>
<path fill="none" stroke="midnightblue" d="M1074.4,-95.49C1087.2,-79.63 1114.99,-47.69 1145,-29 1148.2,-27.01 1151.64,-25.19 1155.17,-23.53"/>
<polygon fill="midnightblue" stroke="midnightblue" points="1156.8,-26.64 1164.65,-19.52 1154.08,-20.19 1156.8,-26.64"/>
</g>
<!-- Node26 -->
<g id="node26" class="node">
<title>Node26</title>
<g id="a_node26"><a xlink:href="hit__cylinder_8c.html#a72c52cc4f5c57fc6171137d9eb6c3500" target="_top" xlink:title="Overwrites the hit record &quot;rec&quot; with the new hit data found in the &quot;tmp&quot; hit record.">
<polygon fill="none" stroke="black" points="1145,-38.5 1145,-57.5 1254,-57.5 1254,-38.5 1145,-38.5"/>
<text text-anchor="middle" x="1199.5" y="-45.5" font-family="Helvetica,sans-Serif" font-size="10.00">ft_cy_set_hitrecord</text>
</a>
</g>
</g>
<!-- Node23&#45;&gt;Node26 -->
<g id="edge26" class="edge">
<title>Node23&#45;&gt;Node26</title>
<path fill="none" stroke="midnightblue" d="M1085.33,-95.35C1100.97,-87.29 1124.17,-75.74 1145,-67 1149.82,-64.98 1154.94,-62.98 1160.02,-61.08"/>
<polygon fill="midnightblue" stroke="midnightblue" points="1161.47,-64.28 1169.68,-57.57 1159.08,-57.7 1161.47,-64.28"/>
</g>
<!-- Node27 -->
<g id="node27" class="node">
<title>Node27</title>
<g id="a_node27"><a xlink:href="hit__manager_8h.html#a55af5b9bdf1ed07d3128dd3e15dd3e6b" target="_top" xlink:title="Checks if cylinder is not blocked by another object.">
<polygon fill="none" stroke="black" points="1161,-114.5 1161,-133.5 1238,-133.5 1238,-114.5 1161,-114.5"/>
<text text-anchor="middle" x="1199.5" y="-121.5" font-family="Helvetica,sans-Serif" font-size="10.00">ft_cy_visible</text>
</a>
</g>
</g>
<!-- Node23&#45;&gt;Node27 -->
<g id="edge27" class="edge">
<title>Node23&#45;&gt;Node27</title>
<path fill="none" stroke="midnightblue" d="M1109.33,-111.12C1122.49,-113.02 1137.1,-115.13 1150.61,-117.08"/>
<polygon fill="midnightblue" stroke="midnightblue" points="1150.29,-120.57 1160.69,-118.54 1151.29,-113.64 1150.29,-120.57"/>
</g>
<!-- Node23&#45;&gt;Node29 -->
<g id="edge29" class="edge">
<title>Node23&#45;&gt;Node29</title>
<path fill="none" stroke="midnightblue" d="M1085.33,-114.65C1100.97,-122.71 1124.17,-134.26 1145,-143 1149.82,-145.02 1154.94,-147.02 1160.02,-148.92"/>
<polygon fill="midnightblue" stroke="midnightblue" points="1159.08,-152.3 1169.68,-152.43 1161.47,-145.72 1159.08,-152.3"/>
</g>
<!-- Node28 -->
<g id="node28" class="node">
<title>Node28</title>
<g id="a_node28"><a xlink:href="utils_8h.html#add4de5ba94d3f8475d0a1c4ce8abd3aa" target="_top" xlink:title="Determines if value is surrounded by the interval.">
<polygon fill="none" stroke="black" points="1293,-190.5 1293,-209.5 1370,-209.5 1370,-190.5 1293,-190.5"/>
<text text-anchor="middle" x="1331.5" y="-197.5" font-family="Helvetica,sans-Serif" font-size="10.00">ft_surrounds</text>
</a>
</g>
</g>
<!-- Node27&#45;&gt;Node28 -->
<g id="edge28" class="edge">
<title>Node27&#45;&gt;Node28</title>
<path fill="none" stroke="midnightblue" d="M1232.29,-133.53C1239.6,-136.2 1247.22,-139.38 1254,-143 1275.25,-154.35 1297.05,-171.21 1311.91,-183.64"/>
<polygon fill="midnightblue" stroke="midnightblue" points="1309.93,-186.55 1319.8,-190.38 1314.47,-181.23 1309.93,-186.55"/>
</g>
<!-- Node30&#45;&gt;Node28 -->
<g id="edge35" class="edge">
<title>Node30&#45;&gt;Node28</title>
<path fill="none" stroke="midnightblue" d="M1079.91,-266.33C1098.29,-252.76 1131.28,-229.14 1145,-224 1189.61,-207.29 1244.02,-201.85 1282.33,-200.25"/>
<polygon fill="midnightblue" stroke="midnightblue" points="1282.82,-203.74 1292.69,-199.9 1282.58,-196.74 1282.82,-203.74"/>
</g>
<!-- Node31 -->
<g id="node31" class="node">
<title>Node31</title>
<g id="a_node31"><a xlink:href="ray_8h.html#ac56e9ac7acfb4658469e190c022b0d63" target="_top" xlink:title="Represents a ray.">
<polygon fill="none" stroke="black" points="1162,-380.5 1162,-399.5 1237,-399.5 1237,-380.5 1162,-380.5"/>
<text text-anchor="middle" x="1199.5" y="-387.5" font-family="Helvetica,sans-Serif" font-size="10.00">ft_scale_ray</text>
</a>
</g>
</g>
<!-- Node30&#45;&gt;Node31 -->
<g id="edge31" class="edge">
<title>Node30&#45;&gt;Node31</title>
<path fill="none" stroke="midnightblue" d="M1092.31,-285.52C1098.04,-288.19 1103.92,-291.37 1109,-295 1110.07,-295.76 1156.72,-345.45 1182.23,-372.65"/>
<polygon fill="midnightblue" stroke="midnightblue" points="1180.01,-375.39 1189.4,-380.29 1185.11,-370.6 1180.01,-375.39"/>
</g>
<!-- Node30&#45;&gt;Node33 -->
<g id="edge37" class="edge">
<title>Node30&#45;&gt;Node33</title>
<path fill="none" stroke="midnightblue" d="M1086.93,-266.39C1123.35,-250.36 1201.7,-223.1 1254,-257 1306.68,-291.15 1323.41,-371.02 1328.45,-408.25"/>
<polygon fill="midnightblue" stroke="midnightblue" points="1325,-408.83 1329.67,-418.34 1331.95,-407.99 1325,-408.83"/>
</g>
<!-- Node34 -->
<g id="node34" class="node">
<title>Node34</title>
<g id="a_node34"><a xlink:href="utils_8h.html#ae65513c75ce8a8538c22393e0af3ab1f" target="_top" xlink:title="Solves the given equation.">
<polygon fill="none" stroke="black" points="1172,-266.5 1172,-285.5 1227,-285.5 1227,-266.5 1172,-266.5"/>
<text text-anchor="middle" x="1199.5" y="-273.5" font-family="Helvetica,sans-Serif" font-size="10.00">ft_solve</text>
</a>
</g>
</g>
<!-- Node30&#45;&gt;Node34 -->
<g id="edge34" class="edge">
<title>Node30&#45;&gt;Node34</title>
<path fill="none" stroke="midnightblue" d="M1103.28,-276C1121.54,-276 1143.62,-276 1161.93,-276"/>
<polygon fill="midnightblue" stroke="midnightblue" points="1161.93,-279.5 1171.93,-276 1161.93,-272.5 1161.93,-279.5"/>
</g>
<!-- Node35 -->
<g id="node35" class="node">
<title>Node35</title>
<g id="a_node35"><a xlink:href="vec3_8h.html#a89fd02ae4b8b3602bc001664eb5e8f91" target="_top" xlink:title="Calculate the scalar product of two vectors.">
<polygon fill="none" stroke="black" points="1163,-304.5 1163,-323.5 1236,-323.5 1236,-304.5 1163,-304.5"/>
<text text-anchor="middle" x="1199.5" y="-311.5" font-family="Helvetica,sans-Serif" font-size="10.00">ft_vec3_dot</text>
</a>
</g>
</g>
<!-- Node30&#45;&gt;Node35 -->
<g id="edge36" class="edge">
<title>Node30&#45;&gt;Node35</title>
<path fill="none" stroke="midnightblue" d="M1100.18,-285.59C1117,-290.45 1137.63,-296.41 1155.63,-301.61"/>
<polygon fill="midnightblue" stroke="midnightblue" points="1154.75,-305 1165.33,-304.41 1156.69,-298.28 1154.75,-305"/>
</g>
<!-- Node30&#45;&gt;Node36 -->
<g id="edge38" class="edge">
<title>Node30&#45;&gt;Node36</title>
<path fill="none" stroke="midnightblue" d="M1096.7,-285.57C1101.27,-288.07 1105.6,-291.17 1109,-295 1144.27,-334.74 1118.15,-363.15 1145,-409 1153.94,-424.27 1167.65,-438.77 1178.95,-449.32"/>
<polygon fill="midnightblue" stroke="midnightblue" points="1176.88,-452.17 1186.65,-456.26 1181.57,-446.97 1176.88,-452.17"/>
</g>
<!-- Node31&#45;&gt;Node32 -->
<g id="edge32" class="edge">
<title>Node31&#45;&gt;Node32</title>
<path fill="none" stroke="midnightblue" d="M1211.41,-399.67C1223.04,-410.39 1241.47,-428.61 1254,-447 1275.04,-477.89 1273.21,-489.61 1290,-523 1299.92,-542.72 1311.87,-564.98 1320.21,-580.28"/>
<polygon fill="midnightblue" stroke="midnightblue" points="1317.24,-582.15 1325.11,-589.24 1323.38,-578.79 1317.24,-582.15"/>
</g>
<!-- Node31&#45;&gt;Node33 -->
<g id="edge33" class="edge">
<title>Node31&#45;&gt;Node33</title>
<path fill="none" stroke="midnightblue" d="M1233.3,-399.59C1249.78,-404.4 1269.94,-410.3 1287.63,-415.47"/>
<polygon fill="midnightblue" stroke="midnightblue" points="1287.13,-418.97 1297.71,-418.41 1289.09,-412.25 1287.13,-418.97"/>
</g>
<!-- Node37&#45;&gt;Node28 -->
<g id="edge42" class="edge">
<title>Node37&#45;&gt;Node28</title>
<path fill="none" stroke="midnightblue" d="M1087.75,-323.57C1124.13,-338.81 1200.61,-363.88 1254,-333 1296.51,-308.41 1317.47,-250.26 1325.87,-219.64"/>
<polygon fill="midnightblue" stroke="midnightblue" points="1329.32,-220.27 1328.41,-209.72 1322.54,-218.54 1329.32,-220.27"/>
</g>
<!-- Node37&#45;&gt;Node31 -->
<g id="edge40" class="edge">
<title>Node37&#45;&gt;Node31</title>
<path fill="none" stroke="midnightblue" d="M1085.33,-323.73C1092.81,-327.89 1101.46,-332.95 1109,-338 1125.84,-349.28 1127.63,-355.55 1145,-366 1151.1,-369.67 1157.85,-373.12 1164.45,-376.2"/>
<polygon fill="midnightblue" stroke="midnightblue" points="1163.35,-379.54 1173.91,-380.43 1166.21,-373.16 1163.35,-379.54"/>
</g>
<!-- Node37&#45;&gt;Node33 -->
<g id="edge47" class="edge">
<title>Node37&#45;&gt;Node33</title>
<path fill="none" stroke="midnightblue" d="M1089.2,-323.56C1096.15,-327.32 1103.44,-332.16 1109,-338 1133.39,-363.63 1115.84,-388.97 1145,-409 1184.28,-435.98 1239.71,-438.21 1279.74,-435.24"/>
<polygon fill="midnightblue" stroke="midnightblue" points="1280.16,-438.72 1289.82,-434.36 1279.55,-431.74 1280.16,-438.72"/>
</g>
<!-- Node37&#45;&gt;Node34 -->
<g id="edge41" class="edge">
<title>Node37&#45;&gt;Node34</title>
<path fill="none" stroke="midnightblue" d="M1100.18,-304.41C1119.1,-298.94 1142.83,-292.09 1162.24,-286.48"/>
<polygon fill="midnightblue" stroke="midnightblue" points="1163.31,-289.81 1171.95,-283.67 1161.37,-283.09 1163.31,-289.81"/>
</g>
<!-- Node37&#45;&gt;Node35 -->
<g id="edge43" class="edge">
<title>Node37&#45;&gt;Node35</title>
<path fill="none" stroke="midnightblue" d="M1106.1,-314C1120.74,-314 1137.5,-314 1152.69,-314"/>
<polygon fill="midnightblue" stroke="midnightblue" points="1152.92,-317.5 1162.92,-314 1152.92,-310.5 1152.92,-317.5"/>
</g>
<!-- Node37&#45;&gt;Node36 -->
<g id="edge48" class="edge">
<title>Node37&#45;&gt;Node36</title>
<path fill="none" stroke="midnightblue" d="M1090.55,-323.61C1097.26,-327.28 1104.07,-332.05 1109,-338 1140.23,-375.65 1111.98,-405.92 1145,-442 1148.48,-445.8 1152.67,-449.03 1157.15,-451.78"/>
<polygon fill="midnightblue" stroke="midnightblue" points="1155.56,-454.89 1166.04,-456.47 1158.83,-448.71 1155.56,-454.89"/>
</g>
<!-- Node37&#45;&gt;Node38 -->
<g id="edge44" class="edge">
<title>Node37&#45;&gt;Node38</title>
<path fill="none" stroke="midnightblue" d="M1068.68,-323.68C1074.17,-352.48 1094.25,-438.47 1145,-485 1146.71,-486.57 1148.56,-488.01 1150.51,-489.33"/>
<polygon fill="midnightblue" stroke="midnightblue" points="1149.12,-492.57 1159.56,-494.42 1152.55,-486.47 1149.12,-492.57"/>
</g>
<!-- Node38&#45;&gt;Node33 -->
<g id="edge46" class="edge">
<title>Node38&#45;&gt;Node33</title>
<path fill="none" stroke="midnightblue" d="M1232.29,-494.47C1239.6,-491.8 1247.22,-488.62 1254,-485 1275.25,-473.65 1297.05,-456.79 1311.91,-444.36"/>
<polygon fill="midnightblue" stroke="midnightblue" points="1314.47,-446.77 1319.8,-437.62 1309.93,-441.45 1314.47,-446.77"/>
</g>
<!-- Node39 -->
<g id="node39" class="node">
<title>Node39</title>
<g id="a_node39"><a xlink:href="vec3__linalgebra_8c.html#aa84621bd979d3b12b97908f653faf88e" target="_top" xlink:title="Calculate the absolute value of a vector.">
<polygon fill="none" stroke="black" points="1294.5,-494.5 1294.5,-513.5 1368.5,-513.5 1368.5,-494.5 1294.5,-494.5"/>
<text text-anchor="middle" x="1331.5" y="-501.5" font-family="Helvetica,sans-Serif" font-size="10.00">ft_vec3_abs</text>
</a>
</g>
</g>
<!-- Node38&#45;&gt;Node39 -->
<g id="edge45" class="edge">
<title>Node38&#45;&gt;Node39</title>
<path fill="none" stroke="midnightblue" d="M1241.28,-504C1254.81,-504 1269.97,-504 1283.9,-504"/>
<polygon fill="midnightblue" stroke="midnightblue" points="1284.27,-507.5 1294.27,-504 1284.27,-500.5 1284.27,-507.5"/>
</g>
</g>
</svg>
