<?xml version="1.0" encoding="UTF-8" standalone="no"?>
<!DOCTYPE svg PUBLIC "-//W3C//DTD SVG 1.1//EN"
 "http://www.w3.org/Graphics/SVG/1.1/DTD/svg11.dtd">
<!-- Generated by graphviz version 2.43.0 (0)
 -->
<!-- Title: inc/render_struct.h Pages: 1 -->
<svg width="3421pt" height="509pt"
 viewBox="0.00 0.00 3421.00 509.00" xmlns="http://www.w3.org/2000/svg" xmlns:xlink="http://www.w3.org/1999/xlink">
<g id="graph0" class="graph" transform="scale(1 1) rotate(0) translate(4 505)">
<title>inc/render_struct.h</title>
<!-- Node1 -->
<g id="node1" class="node">
<title>Node1</title>
<g id="a_node1"><a xlink:title=" ">
<polygon fill="#bfbfbf" stroke="black" points="2329,-481.5 2329,-500.5 2436,-500.5 2436,-481.5 2329,-481.5"/>
<text text-anchor="middle" x="2382.5" y="-488.5" font-family="Helvetica,sans-Serif" font-size="10.00">inc/render_struct.h</text>
</a>
</g>
</g>
<!-- Node2 -->
<g id="node2" class="node">
<title>Node2</title>
<g id="a_node2"><a xlink:href="render_8h.html" target="_top" xlink:title=" ">
<polygon fill="none" stroke="black" points="2441.5,-257.5 2441.5,-276.5 2515.5,-276.5 2515.5,-257.5 2441.5,-257.5"/>
<text text-anchor="middle" x="2478.5" y="-264.5" font-family="Helvetica,sans-Serif" font-size="10.00">inc/render.h</text>
</a>
</g>
</g>
<!-- Node1&#45;&gt;Node2 -->
<g id="edge1" class="edge">
<title>Node1&#45;&gt;Node2</title>
<path fill="none" stroke="midnightblue" d="M2397.15,-473.67C2420.18,-446.72 2463.72,-390.22 2478.5,-333 2483.58,-313.33 2481.52,-289.19 2479.84,-276.58"/>
<polygon fill="midnightblue" stroke="midnightblue" points="2394.4,-471.5 2390.46,-481.34 2399.67,-476.1 2394.4,-471.5"/>
</g>
<!-- Node47 -->
<g id="node46" class="node">
<title>Node47</title>
<g id="a_node46"><a xlink:href="render__struct__bonus_8h.html" target="_top" xlink:title=" ">
<polygon fill="none" stroke="black" points="2241.5,-425.5 2241.5,-444.5 2383.5,-444.5 2383.5,-425.5 2241.5,-425.5"/>
<text text-anchor="middle" x="2312.5" y="-432.5" font-family="Helvetica,sans-Serif" font-size="10.00">inc/render_struct_bonus.h</text>
</a>
</g>
</g>
<!-- Node1&#45;&gt;Node47 -->
<g id="edge46" class="edge">
<title>Node1&#45;&gt;Node47</title>
<path fill="none" stroke="midnightblue" d="M2363.19,-475.1C2350.59,-465.38 2334.57,-453.03 2323.95,-444.83"/>
<polygon fill="midnightblue" stroke="midnightblue" points="2361.2,-477.99 2371.25,-481.32 2365.47,-472.44 2361.2,-477.99"/>
</g>
<!-- Node3 -->
<g id="node3" class="node">
<title>Node3</title>
<g id="a_node3"><a xlink:href="render__bonus_8h.html" target="_top" xlink:title=" ">
<polygon fill="none" stroke="black" points="1847,-201.5 1847,-220.5 1956,-220.5 1956,-201.5 1847,-201.5"/>
<text text-anchor="middle" x="1901.5" y="-208.5" font-family="Helvetica,sans-Serif" font-size="10.00">inc/render_bonus.h</text>
</a>
</g>
</g>
<!-- Node2&#45;&gt;Node3 -->
<g id="edge2" class="edge">
<title>Node2&#45;&gt;Node3</title>
<path fill="none" stroke="midnightblue" d="M2431.11,-262.72C2340.38,-256.25 2135.91,-240.73 1964.5,-221 1961.76,-220.68 1958.95,-220.34 1956.11,-219.99"/>
<polygon fill="midnightblue" stroke="midnightblue" points="2431.12,-266.23 2441.34,-263.45 2431.61,-259.25 2431.12,-266.23"/>
</g>
<!-- Node36 -->
<g id="node35" class="node">
<title>Node36</title>
<g id="a_node35"><a xlink:href="manip__camera_8c.html" target="_top" xlink:title=" ">
<polygon fill="none" stroke="black" points="1974,-201.5 1974,-220.5 2089,-220.5 2089,-201.5 1974,-201.5"/>
<text text-anchor="middle" x="2031.5" y="-208.5" font-family="Helvetica,sans-Serif" font-size="10.00">src/manip_camera.c</text>
</a>
</g>
</g>
<!-- Node2&#45;&gt;Node36 -->
<g id="edge35" class="edge">
<title>Node2&#45;&gt;Node36</title>
<path fill="none" stroke="midnightblue" d="M2431.32,-260.7C2359.29,-252.56 2217.63,-236.28 2097.5,-221 2094.75,-220.65 2091.93,-220.29 2089.08,-219.91"/>
<polygon fill="midnightblue" stroke="midnightblue" points="2431.1,-264.2 2441.43,-261.85 2431.88,-257.24 2431.1,-264.2"/>
</g>
<!-- Node37 -->
<g id="node36" class="node">
<title>Node37</title>
<g id="a_node36"><a xlink:href="manip__colour_8c.html" target="_top" xlink:title=" ">
<polygon fill="none" stroke="black" points="2107,-201.5 2107,-220.5 2214,-220.5 2214,-201.5 2107,-201.5"/>
<text text-anchor="middle" x="2160.5" y="-208.5" font-family="Helvetica,sans-Serif" font-size="10.00">src/manip_colour.c</text>
</a>
</g>
</g>
<!-- Node2&#45;&gt;Node37 -->
<g id="edge36" class="edge">
<title>Node2&#45;&gt;Node37</title>
<path fill="none" stroke="midnightblue" d="M2431.21,-257.97C2372.04,-247.92 2271.16,-230.79 2210.67,-220.52"/>
<polygon fill="midnightblue" stroke="midnightblue" points="2430.95,-261.48 2441.4,-259.7 2432.13,-254.57 2430.95,-261.48"/>
</g>
<!-- Node38 -->
<g id="node37" class="node">
<title>Node38</title>
<g id="a_node37"><a xlink:href="manip__hittable_8c.html" target="_top" xlink:title=" ">
<polygon fill="none" stroke="black" points="2232.5,-201.5 2232.5,-220.5 2348.5,-220.5 2348.5,-201.5 2232.5,-201.5"/>
<text text-anchor="middle" x="2290.5" y="-208.5" font-family="Helvetica,sans-Serif" font-size="10.00">src/manip_hittable.c</text>
</a>
</g>
</g>
<!-- Node2&#45;&gt;Node38 -->
<g id="edge37" class="edge">
<title>Node2&#45;&gt;Node38</title>
<path fill="none" stroke="midnightblue" d="M2438.7,-254.57C2403.23,-244.38 2352.13,-229.7 2320.15,-220.52"/>
<polygon fill="midnightblue" stroke="midnightblue" points="2438.13,-258.05 2448.71,-257.44 2440.07,-251.32 2438.13,-258.05"/>
</g>
<!-- Node39 -->
<g id="node38" class="node">
<title>Node39</title>
<g id="a_node38"><a xlink:href="manip__light_8c.html" target="_top" xlink:title=" ">
<polygon fill="none" stroke="black" points="2366.5,-201.5 2366.5,-220.5 2466.5,-220.5 2466.5,-201.5 2366.5,-201.5"/>
<text text-anchor="middle" x="2416.5" y="-208.5" font-family="Helvetica,sans-Serif" font-size="10.00">src/manip_light.c</text>
</a>
</g>
</g>
<!-- Node2&#45;&gt;Node39 -->
<g id="edge38" class="edge">
<title>Node2&#45;&gt;Node39</title>
<path fill="none" stroke="midnightblue" d="M2460.75,-250.54C2449.69,-240.91 2435.87,-228.87 2426.64,-220.83"/>
<polygon fill="midnightblue" stroke="midnightblue" points="2458.7,-253.4 2468.54,-257.32 2463.3,-248.12 2458.7,-253.4"/>
</g>
<!-- Node40 -->
<g id="node39" class="node">
<title>Node40</title>
<g id="a_node39"><a xlink:href="manip__options_8c.html" target="_top" xlink:title=" ">
<polygon fill="none" stroke="black" points="2484.5,-201.5 2484.5,-220.5 2598.5,-220.5 2598.5,-201.5 2484.5,-201.5"/>
<text text-anchor="middle" x="2541.5" y="-208.5" font-family="Helvetica,sans-Serif" font-size="10.00">src/manip_options.c</text>
</a>
</g>
</g>
<!-- Node2&#45;&gt;Node40 -->
<g id="edge39" class="edge">
<title>Node2&#45;&gt;Node40</title>
<path fill="none" stroke="midnightblue" d="M2496.54,-250.54C2507.77,-240.91 2521.82,-228.87 2531.19,-220.83"/>
<polygon fill="midnightblue" stroke="midnightblue" points="2493.94,-248.16 2488.62,-257.32 2498.49,-253.47 2493.94,-248.16"/>
</g>
<!-- Node41 -->
<g id="node40" class="node">
<title>Node41</title>
<g id="a_node40"><a xlink:href="manip__scene_8c.html" target="_top" xlink:title=" ">
<polygon fill="none" stroke="black" points="2617,-201.5 2617,-220.5 2724,-220.5 2724,-201.5 2617,-201.5"/>
<text text-anchor="middle" x="2670.5" y="-208.5" font-family="Helvetica,sans-Serif" font-size="10.00">src/manip_scene.c</text>
</a>
</g>
</g>
<!-- Node2&#45;&gt;Node41 -->
<g id="edge40" class="edge">
<title>Node2&#45;&gt;Node41</title>
<path fill="none" stroke="midnightblue" d="M2518.68,-254.7C2554.92,-244.51 2607.41,-229.74 2640.22,-220.52"/>
<polygon fill="midnightblue" stroke="midnightblue" points="2517.6,-251.37 2508.92,-257.44 2519.5,-258.11 2517.6,-251.37"/>
</g>
<!-- Node42 -->
<g id="node41" class="node">
<title>Node42</title>
<g id="a_node41"><a xlink:href="manip__utils_8c.html" target="_top" xlink:title=" ">
<polygon fill="none" stroke="black" points="2742,-201.5 2742,-220.5 2841,-220.5 2841,-201.5 2742,-201.5"/>
<text text-anchor="middle" x="2791.5" y="-208.5" font-family="Helvetica,sans-Serif" font-size="10.00">src/manip_utils.c</text>
</a>
</g>
</g>
<!-- Node2&#45;&gt;Node42 -->
<g id="edge41" class="edge">
<title>Node2&#45;&gt;Node42</title>
<path fill="none" stroke="midnightblue" d="M2525.68,-257.86C2583.99,-247.8 2682.74,-230.76 2742.07,-220.53"/>
<polygon fill="midnightblue" stroke="midnightblue" points="2524.89,-254.44 2515.63,-259.59 2526.08,-261.34 2524.89,-254.44"/>
</g>
<!-- Node43 -->
<g id="node42" class="node">
<title>Node43</title>
<g id="a_node42"><a xlink:href="render__blend__background_8c.html" target="_top" xlink:title=" ">
<polygon fill="none" stroke="black" points="2859.5,-201.5 2859.5,-220.5 3027.5,-220.5 3027.5,-201.5 2859.5,-201.5"/>
<text text-anchor="middle" x="2943.5" y="-208.5" font-family="Helvetica,sans-Serif" font-size="10.00">src/render_blend_background.c</text>
</a>
</g>
</g>
<!-- Node2&#45;&gt;Node43 -->
<g id="edge42" class="edge">
<title>Node2&#45;&gt;Node43</title>
<path fill="none" stroke="midnightblue" d="M2525.7,-260.52C2606.87,-251.09 2773.44,-231.75 2869.94,-220.54"/>
<polygon fill="midnightblue" stroke="midnightblue" points="2525.3,-257.04 2515.77,-261.67 2526.1,-264 2525.3,-257.04"/>
</g>
<!-- Node44 -->
<g id="node43" class="node">
<title>Node44</title>
<g id="a_node43"><a xlink:href="render__cleanup_8c.html" target="_top" xlink:title=" ">
<polygon fill="none" stroke="black" points="3046,-201.5 3046,-220.5 3163,-220.5 3163,-201.5 3046,-201.5"/>
<text text-anchor="middle" x="3104.5" y="-208.5" font-family="Helvetica,sans-Serif" font-size="10.00">src/render_cleanup.c</text>
</a>
</g>
</g>
<!-- Node2&#45;&gt;Node44 -->
<g id="edge43" class="edge">
<title>Node2&#45;&gt;Node44</title>
<path fill="none" stroke="midnightblue" d="M2525.78,-263.01C2622.05,-256.73 2847.68,-241.1 3036.5,-221 3039.58,-220.67 3042.73,-220.32 3045.92,-219.95"/>
<polygon fill="midnightblue" stroke="midnightblue" points="2525.54,-259.51 2515.78,-263.65 2525.99,-266.5 2525.54,-259.51"/>
</g>
<!-- Node45 -->
<g id="node44" class="node">
<title>Node45</title>
<g id="a_node44"><a xlink:href="render__init_8c.html" target="_top" xlink:title=" ">
<polygon fill="none" stroke="black" points="3181,-201.5 3181,-220.5 3276,-220.5 3276,-201.5 3181,-201.5"/>
<text text-anchor="middle" x="3228.5" y="-208.5" font-family="Helvetica,sans-Serif" font-size="10.00">src/render_init.c</text>
</a>
</g>
</g>
<!-- Node2&#45;&gt;Node45 -->
<g id="edge44" class="edge">
<title>Node2&#45;&gt;Node45</title>
<path fill="none" stroke="midnightblue" d="M2525.85,-264.48C2638.31,-260.52 2930.2,-248.26 3172.5,-221 3175.24,-220.69 3178.05,-220.34 3180.88,-219.97"/>
<polygon fill="midnightblue" stroke="midnightblue" points="2525.72,-260.98 2515.85,-264.82 2525.96,-267.97 2525.72,-260.98"/>
</g>
<!-- Node46 -->
<g id="node45" class="node">
<title>Node46</title>
<g id="a_node45"><a xlink:href="render__init__mlx_8c.html" target="_top" xlink:title=" ">
<polygon fill="none" stroke="black" points="3294,-201.5 3294,-220.5 3413,-220.5 3413,-201.5 3294,-201.5"/>
<text text-anchor="middle" x="3353.5" y="-208.5" font-family="Helvetica,sans-Serif" font-size="10.00">src/render_init_mlx.c</text>
</a>
</g>
</g>
<!-- Node2&#45;&gt;Node46 -->
<g id="edge45" class="edge">
<title>Node2&#45;&gt;Node46</title>
<path fill="none" stroke="midnightblue" d="M2525.9,-264.61C2650.54,-260.7 2997.71,-248.03 3285.5,-221 3288.23,-220.74 3291.01,-220.46 3293.82,-220.16"/>
<polygon fill="midnightblue" stroke="midnightblue" points="2525.46,-261.13 2515.58,-264.93 2525.68,-268.12 2525.46,-261.13"/>
</g>
<!-- Node4 -->
<g id="node4" class="node">
<title>Node4</title>
<g id="a_node4"><a xlink:href="menu__put_8h.html" target="_top" xlink:title=" ">
<polygon fill="none" stroke="black" points="967.5,-140 967.5,-159 1059.5,-159 1059.5,-140 967.5,-140"/>
<text text-anchor="middle" x="1013.5" y="-147" font-family="Helvetica,sans-Serif" font-size="10.00">inc/menu_put.h</text>
</a>
</g>
</g>
<!-- Node3&#45;&gt;Node4 -->
<g id="edge3" class="edge">
<title>Node3&#45;&gt;Node4</title>
<path fill="none" stroke="midnightblue" d="M1836.76,-208.21C1667.77,-203.26 1216.25,-188.22 1068.5,-165 1059.62,-163.6 1050.11,-161.37 1041.53,-159.07"/>
<polygon fill="midnightblue" stroke="midnightblue" points="1836.66,-211.71 1846.75,-208.5 1836.86,-204.71 1836.66,-211.71"/>
</g>
<!-- Node5 -->
<g id="node5" class="node">
<title>Node5</title>
<g id="a_node5"><a xlink:href="menu__put__bonus_8h.html" target="_top" xlink:title=" ">
<polygon fill="none" stroke="black" points="142.5,-73 142.5,-92 268.5,-92 268.5,-73 142.5,-73"/>
<text text-anchor="middle" x="205.5" y="-80" font-family="Helvetica,sans-Serif" font-size="10.00">inc/menu_put_bonus.h</text>
</a>
</g>
</g>
<!-- Node3&#45;&gt;Node5 -->
<g id="edge20" class="edge">
<title>Node3&#45;&gt;Node5</title>
<path fill="none" stroke="midnightblue" d="M1836.76,-209.22C1616.89,-205.81 879.03,-187.93 277.5,-98 266.65,-96.38 254.97,-94.21 244.24,-92.05"/>
<polygon fill="midnightblue" stroke="midnightblue" points="1836.78,-212.73 1846.84,-209.38 1836.89,-205.73 1836.78,-212.73"/>
</g>
<!-- Node21 -->
<g id="node21" class="node">
<title>Node21</title>
<g id="a_node21"><a xlink:href="mini_r_t_8h.html" target="_top" xlink:title=" ">
<polygon fill="none" stroke="red" points="1077.5,-140 1077.5,-159 1153.5,-159 1153.5,-140 1077.5,-140"/>
<text text-anchor="middle" x="1115.5" y="-147" font-family="Helvetica,sans-Serif" font-size="10.00">inc/miniRT.h</text>
</a>
</g>
</g>
<!-- Node3&#45;&gt;Node21 -->
<g id="edge21" class="edge">
<title>Node3&#45;&gt;Node21</title>
<path fill="none" stroke="midnightblue" d="M1836.57,-208.03C1681.12,-203 1290.99,-188.38 1162.5,-165 1154.94,-163.62 1146.89,-161.42 1139.62,-159.15"/>
<polygon fill="midnightblue" stroke="midnightblue" points="1836.8,-211.54 1846.91,-208.36 1837.02,-204.54 1836.8,-211.54"/>
</g>
<!-- Node23 -->
<g id="node22" class="node">
<title>Node23</title>
<g id="a_node22"><a xlink:href="manip__camera__bonus_8c.html" target="_top" xlink:title=" ">
<polygon fill="none" stroke="black" points="1172,-140 1172,-159 1321,-159 1321,-140 1172,-140"/>
<text text-anchor="middle" x="1246.5" y="-147" font-family="Helvetica,sans-Serif" font-size="10.00">src/manip_camera_bonus.c</text>
</a>
</g>
</g>
<!-- Node3&#45;&gt;Node23 -->
<g id="edge22" class="edge">
<title>Node3&#45;&gt;Node23</title>
<path fill="none" stroke="midnightblue" d="M1836.67,-206.9C1730.4,-201.37 1512.65,-188.15 1329.5,-165 1316.87,-163.4 1303.24,-161.22 1290.75,-159.03"/>
<polygon fill="midnightblue" stroke="midnightblue" points="1836.74,-210.41 1846.91,-207.43 1837.1,-203.42 1836.74,-210.41"/>
</g>
<!-- Node24 -->
<g id="node23" class="node">
<title>Node24</title>
<g id="a_node23"><a xlink:href="manip__hittable__bonus_8c.html" target="_top" xlink:title=" ">
<polygon fill="none" stroke="black" points="1339,-134.5 1339,-164.5 1446,-164.5 1446,-134.5 1339,-134.5"/>
<text text-anchor="start" x="1347" y="-152.5" font-family="Helvetica,sans-Serif" font-size="10.00">src/manip_hittable</text>
<text text-anchor="middle" x="1392.5" y="-141.5" font-family="Helvetica,sans-Serif" font-size="10.00">_bonus.c</text>
</a>
</g>
</g>
<!-- Node3&#45;&gt;Node24 -->
<g id="edge23" class="edge">
<title>Node3&#45;&gt;Node24</title>
<path fill="none" stroke="midnightblue" d="M1836.83,-206.13C1749.59,-200.3 1589.56,-187.49 1454.5,-165 1451.77,-164.55 1448.99,-164.04 1446.18,-163.5"/>
<polygon fill="midnightblue" stroke="midnightblue" points="1836.63,-209.62 1846.84,-206.78 1837.09,-202.64 1836.63,-209.62"/>
</g>
<!-- Node25 -->
<g id="node24" class="node">
<title>Node25</title>
<g id="a_node24"><a xlink:href="manip__options__bonus_8c.html" target="_top" xlink:title=" ">
<polygon fill="none" stroke="black" points="1464,-140 1464,-159 1613,-159 1613,-140 1464,-140"/>
<text text-anchor="middle" x="1538.5" y="-147" font-family="Helvetica,sans-Serif" font-size="10.00">src/manip_options_bonus.c</text>
</a>
</g>
</g>
<!-- Node3&#45;&gt;Node25 -->
<g id="edge24" class="edge">
<title>Node3&#45;&gt;Node25</title>
<path fill="none" stroke="midnightblue" d="M1837.09,-199.9C1780.31,-190.94 1695.36,-177.39 1621.5,-165 1610.25,-163.11 1598.15,-161.03 1586.76,-159.05"/>
<polygon fill="midnightblue" stroke="midnightblue" points="1836.58,-203.37 1847,-201.47 1837.67,-196.45 1836.58,-203.37"/>
</g>
<!-- Node26 -->
<g id="node25" class="node">
<title>Node26</title>
<g id="a_node25"><a xlink:href="render__cleanup__bonus_8c.html" target="_top" xlink:title=" ">
<polygon fill="none" stroke="black" points="1631,-134.5 1631,-164.5 1740,-164.5 1740,-134.5 1631,-134.5"/>
<text text-anchor="start" x="1639" y="-152.5" font-family="Helvetica,sans-Serif" font-size="10.00">src/render_cleanup</text>
<text text-anchor="middle" x="1685.5" y="-141.5" font-family="Helvetica,sans-Serif" font-size="10.00">_bonus.c</text>
</a>
</g>
</g>
<!-- Node3&#45;&gt;Node26 -->
<g id="edge25" class="edge">
<title>Node3&#45;&gt;Node26</title>
<path fill="none" stroke="midnightblue" d="M1860.6,-198.73C1825.35,-189.02 1774.3,-174.96 1736.41,-164.52"/>
<polygon fill="midnightblue" stroke="midnightblue" points="1859.98,-202.19 1870.55,-201.48 1861.84,-195.44 1859.98,-202.19"/>
</g>
<!-- Node27 -->
<g id="node26" class="node">
<title>Node27</title>
<g id="a_node26"><a xlink:href="render__draw__bonus_8c.html" target="_top" xlink:title=" ">
<polygon fill="none" stroke="black" points="1758,-140 1758,-159 1895,-159 1895,-140 1758,-140"/>
<text text-anchor="middle" x="1826.5" y="-147" font-family="Helvetica,sans-Serif" font-size="10.00">src/render_draw_bonus.c</text>
</a>
</g>
</g>
<!-- Node3&#45;&gt;Node27 -->
<g id="edge26" class="edge">
<title>Node3&#45;&gt;Node27</title>
<path fill="none" stroke="midnightblue" d="M1882.56,-194.97C1868.21,-183.59 1849.02,-168.37 1837.23,-159.01"/>
<polygon fill="midnightblue" stroke="midnightblue" points="1880.74,-198 1890.75,-201.48 1885.1,-192.52 1880.74,-198"/>
</g>
<!-- Node28 -->
<g id="node27" class="node">
<title>Node28</title>
<g id="a_node27"><a xlink:href="render__init__bonus_8c.html" target="_top" xlink:title=" ">
<polygon fill="none" stroke="black" points="1913,-140 1913,-159 2042,-159 2042,-140 1913,-140"/>
<text text-anchor="middle" x="1977.5" y="-147" font-family="Helvetica,sans-Serif" font-size="10.00">src/render_init_bonus.c</text>
</a>
</g>
</g>
<!-- Node3&#45;&gt;Node28 -->
<g id="edge27" class="edge">
<title>Node3&#45;&gt;Node28</title>
<path fill="none" stroke="midnightblue" d="M1920.28,-195.29C1934.86,-183.88 1954.56,-168.46 1966.63,-159.01"/>
<polygon fill="midnightblue" stroke="midnightblue" points="1918.11,-192.55 1912.39,-201.48 1922.42,-198.07 1918.11,-192.55"/>
</g>
<!-- Node29 -->
<g id="node28" class="node">
<title>Node29</title>
<g id="a_node28"><a xlink:href="render__keyhook__press__bonus_8c.html" target="_top" xlink:title=" ">
<polygon fill="none" stroke="black" points="2060.5,-134.5 2060.5,-164.5 2172.5,-164.5 2172.5,-134.5 2060.5,-134.5"/>
<text text-anchor="start" x="2068.5" y="-152.5" font-family="Helvetica,sans-Serif" font-size="10.00">src/render_keyhook</text>
<text text-anchor="middle" x="2116.5" y="-141.5" font-family="Helvetica,sans-Serif" font-size="10.00">_press_bonus.c</text>
</a>
</g>
</g>
<!-- Node3&#45;&gt;Node29 -->
<g id="edge28" class="edge">
<title>Node3&#45;&gt;Node29</title>
<path fill="none" stroke="midnightblue" d="M1942.21,-198.73C1977.3,-189.02 2028.11,-174.96 2065.83,-164.52"/>
<polygon fill="midnightblue" stroke="midnightblue" points="1941.01,-195.43 1932.3,-201.48 1942.88,-202.18 1941.01,-195.43"/>
</g>
<!-- Node30 -->
<g id="node29" class="node">
<title>Node30</title>
<g id="a_node29"><a xlink:href="render__loop__mlx__bonus_8c.html" target="_top" xlink:title=" ">
<polygon fill="none" stroke="black" points="2190.5,-134.5 2190.5,-164.5 2306.5,-164.5 2306.5,-134.5 2190.5,-134.5"/>
<text text-anchor="start" x="2198.5" y="-152.5" font-family="Helvetica,sans-Serif" font-size="10.00">src/render_loop_mlx</text>
<text text-anchor="middle" x="2248.5" y="-141.5" font-family="Helvetica,sans-Serif" font-size="10.00">_bonus.c</text>
</a>
</g>
</g>
<!-- Node3&#45;&gt;Node30 -->
<g id="edge29" class="edge">
<title>Node3&#45;&gt;Node30</title>
<path fill="none" stroke="midnightblue" d="M1966.04,-200.63C2022.91,-192.14 2107.9,-178.87 2181.5,-165 2184.42,-164.45 2187.42,-163.87 2190.43,-163.27"/>
<polygon fill="midnightblue" stroke="midnightblue" points="1965.49,-197.18 1956.11,-202.11 1966.52,-204.1 1965.49,-197.18"/>
</g>
<!-- Node31 -->
<g id="node30" class="node">
<title>Node31</title>
<g id="a_node30"><a xlink:href="render__mouse__bonus_8c.html" target="_top" xlink:title=" ">
<polygon fill="none" stroke="black" points="2324.5,-140 2324.5,-159 2470.5,-159 2470.5,-140 2324.5,-140"/>
<text text-anchor="middle" x="2397.5" y="-147" font-family="Helvetica,sans-Serif" font-size="10.00">src/render_mouse_bonus.c</text>
</a>
</g>
</g>
<!-- Node3&#45;&gt;Node31 -->
<g id="edge30" class="edge">
<title>Node3&#45;&gt;Node31</title>
<path fill="none" stroke="midnightblue" d="M1966.06,-200.85C2121.84,-182.09 2163.37,-186.22 2315.5,-165 2327.53,-163.32 2340.49,-161.18 2352.48,-159.07"/>
<polygon fill="midnightblue" stroke="midnightblue" points="1965.62,-197.38 1956.12,-202.06 1966.47,-204.33 1965.62,-197.38"/>
</g>
<!-- Node32 -->
<g id="node31" class="node">
<title>Node32</title>
<g id="a_node31"><a xlink:href="render__output__ppm__bonus_8c.html" target="_top" xlink:title=" ">
<polygon fill="none" stroke="black" points="2489,-134.5 2489,-164.5 2618,-164.5 2618,-134.5 2489,-134.5"/>
<text text-anchor="start" x="2497" y="-152.5" font-family="Helvetica,sans-Serif" font-size="10.00">src/render_output_ppm</text>
<text text-anchor="middle" x="2553.5" y="-141.5" font-family="Helvetica,sans-Serif" font-size="10.00">_bonus.c</text>
</a>
</g>
</g>
<!-- Node3&#45;&gt;Node32 -->
<g id="edge31" class="edge">
<title>Node3&#45;&gt;Node32</title>
<path fill="none" stroke="midnightblue" d="M1966.39,-200.87C2194.44,-177.29 2255.37,-194.68 2479.5,-165 2482.49,-164.6 2485.53,-164.16 2488.6,-163.69"/>
<polygon fill="midnightblue" stroke="midnightblue" points="1965.69,-197.43 1956.11,-201.95 1966.42,-204.39 1965.69,-197.43"/>
</g>
<!-- Node33 -->
<g id="node32" class="node">
<title>Node33</title>
<g id="a_node32"><a xlink:href="render__output__threaded__bonus_8c.html" target="_top" xlink:title=" ">
<polygon fill="none" stroke="black" points="2636,-134.5 2636,-164.5 2787,-164.5 2787,-134.5 2636,-134.5"/>
<text text-anchor="start" x="2644" y="-152.5" font-family="Helvetica,sans-Serif" font-size="10.00">src/render_output_threaded</text>
<text text-anchor="middle" x="2711.5" y="-141.5" font-family="Helvetica,sans-Serif" font-size="10.00">_bonus.c</text>
</a>
</g>
</g>
<!-- Node3&#45;&gt;Node33 -->
<g id="edge32" class="edge">
<title>Node3&#45;&gt;Node33</title>
<path fill="none" stroke="midnightblue" d="M1966.19,-200.92C2259.92,-172.68 2337.56,-197.78 2627.5,-165 2630.15,-164.7 2632.84,-164.37 2635.55,-164.02"/>
<polygon fill="midnightblue" stroke="midnightblue" points="1965.71,-197.45 1956.1,-201.9 1966.39,-204.42 1965.71,-197.45"/>
</g>
<!-- Node34 -->
<g id="node33" class="node">
<title>Node34</title>
<g id="a_node33"><a xlink:href="render__sample__bonus_8c.html" target="_top" xlink:title=" ">
<polygon fill="none" stroke="black" points="2805,-140 2805,-159 2954,-159 2954,-140 2805,-140"/>
<text text-anchor="middle" x="2879.5" y="-147" font-family="Helvetica,sans-Serif" font-size="10.00">src/render_sample_bonus.c</text>
</a>
</g>
</g>
<!-- Node3&#45;&gt;Node34 -->
<g id="edge33" class="edge">
<title>Node3&#45;&gt;Node34</title>
<path fill="none" stroke="midnightblue" d="M1966.24,-200.93C2334.79,-167.47 2431.86,-204.57 2796.5,-165 2809.73,-163.56 2824.05,-161.32 2837,-159.02"/>
<polygon fill="midnightblue" stroke="midnightblue" points="1965.73,-197.46 1956.1,-201.86 1966.38,-204.43 1965.73,-197.46"/>
</g>
<!-- Node35 -->
<g id="node34" class="node">
<title>Node35</title>
<g id="a_node34"><a xlink:href="render__threaded__fts__bonus_8c.html" target="_top" xlink:title=" ">
<polygon fill="none" stroke="black" points="2972.5,-134.5 2972.5,-164.5 3086.5,-164.5 3086.5,-134.5 2972.5,-134.5"/>
<text text-anchor="start" x="2980.5" y="-152.5" font-family="Helvetica,sans-Serif" font-size="10.00">src/render_threaded</text>
<text text-anchor="middle" x="3029.5" y="-141.5" font-family="Helvetica,sans-Serif" font-size="10.00">_fts_bonus.c</text>
</a>
</g>
</g>
<!-- Node3&#45;&gt;Node35 -->
<g id="edge34" class="edge">
<title>Node3&#45;&gt;Node35</title>
<path fill="none" stroke="midnightblue" d="M1966.28,-200.94C2408.8,-162.42 2526.08,-220.47 2963.5,-165 2966.41,-164.63 2969.38,-164.2 2972.37,-163.71"/>
<polygon fill="midnightblue" stroke="midnightblue" points="1965.75,-197.47 1956.09,-201.84 1966.36,-204.45 1965.75,-197.47"/>
</g>
<!-- Node4&#45;&gt;Node5 -->
<g id="edge4" class="edge">
<title>Node4&#45;&gt;Node5</title>
<path fill="none" stroke="midnightblue" d="M956.86,-147.13C833.09,-143.57 529.43,-131.86 277.5,-98 266.25,-96.49 254.12,-94.27 243.09,-92.03"/>
<polygon fill="midnightblue" stroke="midnightblue" points="957.12,-150.63 967.22,-147.42 957.32,-143.64 957.12,-150.63"/>
</g>
<!-- Node9 -->
<g id="node9" class="node">
<title>Node9</title>
<g id="a_node9"><a xlink:href="menu__put__cam__light_8c.html" target="_top" xlink:title=" ">
<polygon fill="none" stroke="black" points="1892.5,-73 1892.5,-92 2036.5,-92 2036.5,-73 1892.5,-73"/>
<text text-anchor="middle" x="1964.5" y="-80" font-family="Helvetica,sans-Serif" font-size="10.00">src/menu_put_cam_light.c</text>
</a>
</g>
</g>
<!-- Node4&#45;&gt;Node9 -->
<g id="edge8" class="edge">
<title>Node4&#45;&gt;Node9</title>
<path fill="none" stroke="midnightblue" d="M1051.3,-137.41C1057.02,-136.06 1062.89,-134.85 1068.5,-134 1426.51,-79.53 1522.54,-137.61 1882.5,-98 1895.58,-96.56 1909.72,-94.31 1922.52,-92.01"/>
<polygon fill="midnightblue" stroke="midnightblue" points="1050.07,-134.11 1041.24,-139.95 1051.79,-140.89 1050.07,-134.11"/>
</g>
<!-- Node10 -->
<g id="node10" class="node">
<title>Node10</title>
<g id="a_node10"><a xlink:href="menu__put__cam__light__ctrl_8c.html" target="_top" xlink:title=" ">
<polygon fill="none" stroke="black" points="286.5,-67.5 286.5,-97.5 422.5,-97.5 422.5,-67.5 286.5,-67.5"/>
<text text-anchor="start" x="294.5" y="-85.5" font-family="Helvetica,sans-Serif" font-size="10.00">src/menu_put_cam_light</text>
<text text-anchor="middle" x="354.5" y="-74.5" font-family="Helvetica,sans-Serif" font-size="10.00">_ctrl.c</text>
</a>
</g>
</g>
<!-- Node4&#45;&gt;Node10 -->
<g id="edge9" class="edge">
<title>Node4&#45;&gt;Node10</title>
<path fill="none" stroke="midnightblue" d="M957.02,-145.47C852.79,-139.47 623.36,-124.32 431.5,-98 428.67,-97.61 425.79,-97.19 422.88,-96.74"/>
<polygon fill="midnightblue" stroke="midnightblue" points="957.12,-148.98 967.3,-146.06 957.52,-142 957.12,-148.98"/>
</g>
<!-- Node11 -->
<g id="node11" class="node">
<title>Node11</title>
<g id="a_node11"><a xlink:href="menu__put__general__info_8c.html" target="_top" xlink:title=" ">
<polygon fill="none" stroke="black" points="441,-67.5 441,-97.5 566,-97.5 566,-67.5 441,-67.5"/>
<text text-anchor="start" x="449" y="-85.5" font-family="Helvetica,sans-Serif" font-size="10.00">src/menu_put_general</text>
<text text-anchor="middle" x="503.5" y="-74.5" font-family="Helvetica,sans-Serif" font-size="10.00">_info.c</text>
</a>
</g>
</g>
<!-- Node4&#45;&gt;Node11 -->
<g id="edge10" class="edge">
<title>Node4&#45;&gt;Node11</title>
<path fill="none" stroke="midnightblue" d="M957.12,-143.6C873.35,-135.95 711.23,-119.78 574.5,-98 571.77,-97.56 568.98,-97.1 566.17,-96.61"/>
<polygon fill="midnightblue" stroke="midnightblue" points="956.91,-147.09 967.18,-144.51 957.54,-140.12 956.91,-147.09"/>
</g>
<!-- Node12 -->
<g id="node12" class="node">
<title>Node12</title>
<g id="a_node12"><a xlink:href="menu__put__general__info__bonus_8c.html" target="_top" xlink:title=" ">
<polygon fill="none" stroke="black" points="584,-67.5 584,-97.5 709,-97.5 709,-67.5 584,-67.5"/>
<text text-anchor="start" x="592" y="-85.5" font-family="Helvetica,sans-Serif" font-size="10.00">src/menu_put_general</text>
<text text-anchor="middle" x="646.5" y="-74.5" font-family="Helvetica,sans-Serif" font-size="10.00">_info_bonus.c</text>
</a>
</g>
</g>
<!-- Node4&#45;&gt;Node12 -->
<g id="edge11" class="edge">
<title>Node4&#45;&gt;Node12</title>
<path fill="none" stroke="midnightblue" d="M957.51,-139.42C898.11,-129.66 801.56,-113.47 718.5,-98 715.49,-97.44 712.41,-96.86 709.31,-96.26"/>
<polygon fill="midnightblue" stroke="midnightblue" points="957,-142.88 967.44,-141.04 958.14,-135.97 957,-142.88"/>
</g>
<!-- Node13 -->
<g id="node13" class="node">
<title>Node13</title>
<g id="a_node13"><a xlink:href="menu__put__hittable_8c.html" target="_top" xlink:title=" ">
<polygon fill="none" stroke="black" points="727.5,-73 727.5,-92 861.5,-92 861.5,-73 727.5,-73"/>
<text text-anchor="middle" x="794.5" y="-80" font-family="Helvetica,sans-Serif" font-size="10.00">src/menu_put_hittable.c</text>
</a>
</g>
</g>
<!-- Node4&#45;&gt;Node13 -->
<g id="edge12" class="edge">
<title>Node4&#45;&gt;Node13</title>
<path fill="none" stroke="midnightblue" d="M974.79,-137.01C931.44,-124.15 862.2,-103.59 823.35,-92.06"/>
<polygon fill="midnightblue" stroke="midnightblue" points="973.84,-140.38 984.42,-139.87 975.83,-133.67 973.84,-140.38"/>
</g>
<!-- Node14 -->
<g id="node14" class="node">
<title>Node14</title>
<g id="a_node14"><a xlink:href="menu__put__hittable__ctrl_8c.html" target="_top" xlink:title=" ">
<polygon fill="none" stroke="black" points="880,-67.5 880,-97.5 1005,-97.5 1005,-67.5 880,-67.5"/>
<text text-anchor="start" x="888" y="-85.5" font-family="Helvetica,sans-Serif" font-size="10.00">src/menu_put_hittable</text>
<text text-anchor="middle" x="942.5" y="-74.5" font-family="Helvetica,sans-Serif" font-size="10.00">_ctrl.c</text>
</a>
</g>
</g>
<!-- Node4&#45;&gt;Node14 -->
<g id="edge13" class="edge">
<title>Node4&#45;&gt;Node14</title>
<path fill="none" stroke="midnightblue" d="M996.49,-132.93C984.75,-122.18 969.26,-108 957.89,-97.59"/>
<polygon fill="midnightblue" stroke="midnightblue" points="994.19,-135.56 1003.92,-139.73 998.91,-130.4 994.19,-135.56"/>
</g>
<!-- Node15 -->
<g id="node15" class="node">
<title>Node15</title>
<g id="a_node15"><a xlink:href="menu__put__hittable__ctrl__bonus_8c.html" target="_top" xlink:title=" ">
<polygon fill="none" stroke="black" points="1023,-67.5 1023,-97.5 1148,-97.5 1148,-67.5 1023,-67.5"/>
<text text-anchor="start" x="1031" y="-85.5" font-family="Helvetica,sans-Serif" font-size="10.00">src/menu_put_hittable</text>
<text text-anchor="middle" x="1085.5" y="-74.5" font-family="Helvetica,sans-Serif" font-size="10.00">_ctrl_bonus.c</text>
</a>
</g>
</g>
<!-- Node4&#45;&gt;Node15 -->
<g id="edge14" class="edge">
<title>Node4&#45;&gt;Node15</title>
<path fill="none" stroke="midnightblue" d="M1030.75,-132.93C1042.66,-122.18 1058.36,-108 1069.89,-97.59"/>
<polygon fill="midnightblue" stroke="midnightblue" points="1028.29,-130.43 1023.21,-139.73 1032.98,-135.63 1028.29,-130.43"/>
</g>
<!-- Node16 -->
<g id="node16" class="node">
<title>Node16</title>
<g id="a_node16"><a xlink:href="menu__put__page_8c.html" target="_top" xlink:title=" ">
<polygon fill="none" stroke="black" points="1166.5,-73 1166.5,-92 1286.5,-92 1286.5,-73 1166.5,-73"/>
<text text-anchor="middle" x="1226.5" y="-80" font-family="Helvetica,sans-Serif" font-size="10.00">src/menu_put_page.c</text>
</a>
</g>
</g>
<!-- Node4&#45;&gt;Node16 -->
<g id="edge15" class="edge">
<title>Node4&#45;&gt;Node16</title>
<path fill="none" stroke="midnightblue" d="M1051.42,-136.93C1093.59,-124.06 1160.73,-103.57 1198.44,-92.06"/>
<polygon fill="midnightblue" stroke="midnightblue" points="1050.33,-133.6 1041.78,-139.87 1052.37,-140.3 1050.33,-133.6"/>
</g>
<!-- Node17 -->
<g id="node17" class="node">
<title>Node17</title>
<g id="a_node17"><a xlink:href="menu__put__str__num_8c.html" target="_top" xlink:title=" ">
<polygon fill="none" stroke="black" points="1304.5,-73 1304.5,-92 1440.5,-92 1440.5,-73 1304.5,-73"/>
<text text-anchor="middle" x="1372.5" y="-80" font-family="Helvetica,sans-Serif" font-size="10.00">src/menu_put_str_num.c</text>
</a>
</g>
</g>
<!-- Node4&#45;&gt;Node17 -->
<g id="edge16" class="edge">
<title>Node4&#45;&gt;Node17</title>
<path fill="none" stroke="midnightblue" d="M1053.68,-137.41C1058.65,-136.18 1063.68,-135.01 1068.5,-134 1168.46,-112.95 1194.85,-115.45 1295.5,-98 1306.22,-96.14 1317.76,-94.03 1328.56,-92"/>
<polygon fill="midnightblue" stroke="midnightblue" points="1052.45,-134.11 1043.63,-139.97 1054.18,-140.89 1052.45,-134.11"/>
</g>
<!-- Node18 -->
<g id="node18" class="node">
<title>Node18</title>
<g id="a_node18"><a xlink:href="menu__put__time__bonus_8c.html" target="_top" xlink:title=" ">
<polygon fill="none" stroke="black" points="1459,-73 1459,-92 1612,-92 1612,-73 1459,-73"/>
<text text-anchor="middle" x="1535.5" y="-80" font-family="Helvetica,sans-Serif" font-size="10.00">src/menu_put_time_bonus.c</text>
</a>
</g>
</g>
<!-- Node4&#45;&gt;Node18 -->
<g id="edge17" class="edge">
<title>Node4&#45;&gt;Node18</title>
<path fill="none" stroke="midnightblue" d="M1052.5,-137.38C1057.84,-136.1 1063.29,-134.93 1068.5,-134 1235.96,-104.22 1280.86,-120.15 1449.5,-98 1462.26,-96.32 1476.03,-94.16 1488.73,-92.02"/>
<polygon fill="midnightblue" stroke="midnightblue" points="1051.25,-134.08 1042.42,-139.93 1052.97,-140.87 1051.25,-134.08"/>
</g>
<!-- Node19 -->
<g id="node19" class="node">
<title>Node19</title>
<g id="a_node19"><a xlink:href="menu__put__utils_8c.html" target="_top" xlink:title=" ">
<polygon fill="none" stroke="black" points="1630,-73 1630,-92 1747,-92 1747,-73 1630,-73"/>
<text text-anchor="middle" x="1688.5" y="-80" font-family="Helvetica,sans-Serif" font-size="10.00">src/menu_put_utils.c</text>
</a>
</g>
</g>
<!-- Node4&#45;&gt;Node19 -->
<g id="edge18" class="edge">
<title>Node4&#45;&gt;Node19</title>
<path fill="none" stroke="midnightblue" d="M1051.5,-137.47C1057.16,-136.12 1062.96,-134.9 1068.5,-134 1311.16,-94.48 1376.97,-131.72 1620.5,-98 1631.26,-96.51 1642.86,-94.28 1653.38,-92"/>
<polygon fill="midnightblue" stroke="midnightblue" points="1050.37,-134.14 1041.54,-139.99 1052.09,-140.93 1050.37,-134.14"/>
</g>
<!-- Node20 -->
<g id="node20" class="node">
<title>Node20</title>
<g id="a_node20"><a xlink:href="menu__put__utils__ctrl_8c.html" target="_top" xlink:title=" ">
<polygon fill="none" stroke="black" points="1765,-67.5 1765,-97.5 1874,-97.5 1874,-67.5 1765,-67.5"/>
<text text-anchor="start" x="1773" y="-85.5" font-family="Helvetica,sans-Serif" font-size="10.00">src/menu_put_utils</text>
<text text-anchor="middle" x="1819.5" y="-74.5" font-family="Helvetica,sans-Serif" font-size="10.00">_ctrl.c</text>
</a>
</g>
</g>
<!-- Node4&#45;&gt;Node20 -->
<g id="edge19" class="edge">
<title>Node4&#45;&gt;Node20</title>
<path fill="none" stroke="midnightblue" d="M1051.3,-137.45C1057.03,-136.09 1062.89,-134.88 1068.5,-134 1370.58,-86.78 1452.64,-139.93 1755.5,-98 1758.55,-97.58 1761.66,-97.08 1764.8,-96.54"/>
<polygon fill="midnightblue" stroke="midnightblue" points="1050.08,-134.15 1041.24,-140 1051.8,-140.93 1050.08,-134.15"/>
</g>
<!-- Node6 -->
<g id="node6" class="node">
<title>Node6</title>
<g id="a_node6"><a xlink:href="menu__put__hittable__bonus_8c.html" target="_top" xlink:title=" ">
<polygon fill="none" stroke="black" points="0,-0.5 0,-30.5 125,-30.5 125,-0.5 0,-0.5"/>
<text text-anchor="start" x="8" y="-18.5" font-family="Helvetica,sans-Serif" font-size="10.00">src/menu_put_hittable</text>
<text text-anchor="middle" x="62.5" y="-7.5" font-family="Helvetica,sans-Serif" font-size="10.00">_bonus.c</text>
</a>
</g>
</g>
<!-- Node5&#45;&gt;Node6 -->
<g id="edge5" class="edge">
<title>Node5&#45;&gt;Node6</title>
<path fill="none" stroke="midnightblue" d="M177.17,-68.62C152.98,-57.63 118.25,-41.84 93.36,-30.53"/>
<polygon fill="midnightblue" stroke="midnightblue" points="175.96,-71.92 186.51,-72.87 178.86,-65.54 175.96,-71.92"/>
</g>
<!-- Node7 -->
<g id="node7" class="node">
<title>Node7</title>
<g id="a_node7"><a xlink:href="menu__put__options__bonus_8c.html" target="_top" xlink:title=" ">
<polygon fill="none" stroke="black" points="143.5,-0.5 143.5,-30.5 267.5,-30.5 267.5,-0.5 143.5,-0.5"/>
<text text-anchor="start" x="151.5" y="-18.5" font-family="Helvetica,sans-Serif" font-size="10.00">src/menu_put_options</text>
<text text-anchor="middle" x="205.5" y="-7.5" font-family="Helvetica,sans-Serif" font-size="10.00">_bonus.c</text>
</a>
</g>
</g>
<!-- Node5&#45;&gt;Node7 -->
<g id="edge6" class="edge">
<title>Node5&#45;&gt;Node7</title>
<path fill="none" stroke="midnightblue" d="M205.5,-62.41C205.5,-52.22 205.5,-39.9 205.5,-30.59"/>
<polygon fill="midnightblue" stroke="midnightblue" points="202,-62.73 205.5,-72.73 209,-62.73 202,-62.73"/>
</g>
<!-- Node8 -->
<g id="node8" class="node">
<title>Node8</title>
<g id="a_node8"><a xlink:href="menu__put__text__bonus_8c.html" target="_top" xlink:title=" ">
<polygon fill="none" stroke="black" points="285.5,-6 285.5,-25 435.5,-25 435.5,-6 285.5,-6"/>
<text text-anchor="middle" x="360.5" y="-13" font-family="Helvetica,sans-Serif" font-size="10.00">src/menu_put_text_bonus.c</text>
</a>
</g>
</g>
<!-- Node5&#45;&gt;Node8 -->
<g id="edge7" class="edge">
<title>Node5&#45;&gt;Node8</title>
<path fill="none" stroke="midnightblue" d="M235.43,-68.95C266.12,-56.08 313.04,-36.4 339.83,-25.17"/>
<polygon fill="midnightblue" stroke="midnightblue" points="233.95,-65.77 226.08,-72.87 236.66,-72.23 233.95,-65.77"/>
</g>
<!-- Node47&#45;&gt;Node2 -->
<g id="edge52" class="edge">
<title>Node47&#45;&gt;Node2</title>
<path fill="none" stroke="midnightblue" d="M2363.75,-422.48C2384.67,-415.64 2407.82,-405.06 2424.5,-389 2458.47,-356.29 2472.66,-298.38 2476.97,-276.6"/>
<polygon fill="midnightblue" stroke="midnightblue" points="2362.55,-419.19 2354.01,-425.45 2364.6,-425.88 2362.55,-419.19"/>
</g>
<!-- Node47&#45;&gt;Node3 -->
<g id="edge56" class="edge">
<title>Node47&#45;&gt;Node3</title>
<path fill="none" stroke="midnightblue" d="M2259.64,-423.13C2228.93,-415.73 2190.01,-404.46 2157.5,-389 2053.07,-339.36 1944.34,-249.02 1911.48,-220.72"/>
<polygon fill="midnightblue" stroke="midnightblue" points="2259.18,-426.62 2269.71,-425.49 2260.78,-419.8 2259.18,-426.62"/>
</g>
<!-- Node48 -->
<g id="node47" class="node">
<title>Node48</title>
<g id="a_node47"><a xlink:href="manip_8h.html" target="_top" xlink:title=" ">
<polygon fill="none" stroke="black" points="2166.5,-369.5 2166.5,-388.5 2240.5,-388.5 2240.5,-369.5 2166.5,-369.5"/>
<text text-anchor="middle" x="2203.5" y="-376.5" font-family="Helvetica,sans-Serif" font-size="10.00">inc/manip.h</text>
</a>
</g>
</g>
<!-- Node47&#45;&gt;Node48 -->
<g id="edge47" class="edge">
<title>Node47&#45;&gt;Node48</title>
<path fill="none" stroke="midnightblue" d="M2285.98,-420.86C2265.77,-410.85 2238.51,-397.35 2220.97,-388.65"/>
<polygon fill="midnightblue" stroke="midnightblue" points="2284.47,-424.02 2294.99,-425.32 2287.58,-417.75 2284.47,-424.02"/>
</g>
<!-- Node49 -->
<g id="node48" class="node">
<title>Node49</title>
<g id="a_node48"><a xlink:href="manip__bonus_8h.html" target="_top" xlink:title=" ">
<polygon fill="none" stroke="black" points="2149.5,-313.5 2149.5,-332.5 2257.5,-332.5 2257.5,-313.5 2149.5,-313.5"/>
<text text-anchor="middle" x="2203.5" y="-320.5" font-family="Helvetica,sans-Serif" font-size="10.00">inc/manip_bonus.h</text>
</a>
</g>
</g>
<!-- Node47&#45;&gt;Node49 -->
<g id="edge51" class="edge">
<title>Node47&#45;&gt;Node49</title>
<path fill="none" stroke="midnightblue" d="M2296.93,-417.7C2284.25,-404.48 2265.84,-385.42 2249.5,-369 2236.73,-356.17 2221.7,-341.56 2212.39,-332.56"/>
<polygon fill="midnightblue" stroke="midnightblue" points="2294.57,-420.29 2304.01,-425.1 2299.63,-415.45 2294.57,-420.29"/>
</g>
<!-- Node50 -->
<g id="node49" class="node">
<title>Node50</title>
<g id="a_node49"><a xlink:href="render__bit__field_8h.html" target="_top" xlink:title=" ">
<polygon fill="none" stroke="black" points="2297,-369.5 2297,-388.5 2416,-388.5 2416,-369.5 2297,-369.5"/>
<text text-anchor="middle" x="2356.5" y="-376.5" font-family="Helvetica,sans-Serif" font-size="10.00">inc/render_bit_field.h</text>
</a>
</g>
</g>
<!-- Node47&#45;&gt;Node50 -->
<g id="edge53" class="edge">
<title>Node47&#45;&gt;Node50</title>
<path fill="none" stroke="midnightblue" d="M2326.23,-417.14C2333.9,-407.74 2343.13,-396.4 2349.37,-388.75"/>
<polygon fill="midnightblue" stroke="midnightblue" points="2323.37,-415.12 2319.77,-425.08 2328.8,-419.54 2323.37,-415.12"/>
</g>
<!-- Node48&#45;&gt;Node49 -->
<g id="edge48" class="edge">
<title>Node48&#45;&gt;Node49</title>
<path fill="none" stroke="midnightblue" d="M2203.5,-358.8C2203.5,-349.91 2203.5,-339.78 2203.5,-332.75"/>
<polygon fill="midnightblue" stroke="midnightblue" points="2200,-359.08 2203.5,-369.08 2207,-359.08 2200,-359.08"/>
</g>
<!-- Node49&#45;&gt;Node2 -->
<g id="edge49" class="edge">
<title>Node49&#45;&gt;Node2</title>
<path fill="none" stroke="midnightblue" d="M2257.2,-311.46C2311.45,-300.8 2393.85,-284.62 2441.3,-275.3"/>
<polygon fill="midnightblue" stroke="midnightblue" points="2256.21,-308.08 2247.07,-313.44 2257.56,-314.95 2256.21,-308.08"/>
</g>
<!-- Node49&#45;&gt;Node3 -->
<g id="edge50" class="edge">
<title>Node49&#45;&gt;Node3</title>
<path fill="none" stroke="midnightblue" d="M2175.2,-309.24C2144.19,-295.49 2092.81,-273.38 2047.5,-257 2008.21,-242.8 1962,-229.04 1932.26,-220.55"/>
<polygon fill="midnightblue" stroke="midnightblue" points="2173.96,-312.52 2184.52,-313.4 2176.81,-306.13 2173.96,-312.52"/>
</g>
<!-- Node50&#45;&gt;Node2 -->
<g id="edge54" class="edge">
<title>Node50&#45;&gt;Node2</title>
<path fill="none" stroke="midnightblue" d="M2373.68,-362.51C2399.75,-339.01 2448.43,-295.11 2468.97,-276.59"/>
<polygon fill="midnightblue" stroke="midnightblue" points="2371.16,-360.07 2366.07,-369.37 2375.84,-365.27 2371.16,-360.07"/>
</g>
<!-- Node51 -->
<g id="node50" class="node">
<title>Node51</title>
<g id="a_node50"><a xlink:href="render__bit__field_8c.html" target="_top" xlink:title=" ">
<polygon fill="none" stroke="black" points="2275.5,-313.5 2275.5,-332.5 2393.5,-332.5 2393.5,-313.5 2275.5,-313.5"/>
<text text-anchor="middle" x="2334.5" y="-320.5" font-family="Helvetica,sans-Serif" font-size="10.00">src/render_bit_field.c</text>
</a>
</g>
</g>
<!-- Node50&#45;&gt;Node51 -->
<g id="edge55" class="edge">
<title>Node50&#45;&gt;Node51</title>
<path fill="none" stroke="midnightblue" d="M2349.04,-359.69C2345.33,-350.59 2341.02,-340.01 2338.07,-332.75"/>
<polygon fill="midnightblue" stroke="midnightblue" points="2345.85,-361.14 2352.87,-369.08 2352.34,-358.5 2345.85,-361.14"/>
</g>
</g>
</svg>
