<?xml version="1.0" encoding="UTF-8" standalone="no"?>
<!DOCTYPE svg PUBLIC "-//W3C//DTD SVG 1.1//EN"
 "http://www.w3.org/Graphics/SVG/1.1/DTD/svg11.dtd">
<!-- Generated by graphviz version 2.43.0 (0)
 -->
<!-- Title: ft_option_clear Pages: 1 -->
<svg width="798pt" height="180pt"
 viewBox="0.00 0.00 798.00 180.00" xmlns="http://www.w3.org/2000/svg" xmlns:xlink="http://www.w3.org/1999/xlink">
<g id="graph0" class="graph" transform="scale(1 1) rotate(0) translate(4 176)">
<title>ft_option_clear</title>
<!-- Node1 -->
<g id="node1" class="node">
<title>Node1</title>
<g id="a_node1"><a xlink:title="Clears bit in bit field.">
<polygon fill="#bfbfbf" stroke="black" points="701,-76.5 701,-95.5 790,-95.5 790,-76.5 701,-76.5"/>
<text text-anchor="middle" x="745.5" y="-83.5" font-family="Helvetica,sans-Serif" font-size="10.00">ft_option_clear</text>
</a>
</g>
</g>
<!-- Node2 -->
<g id="node2" class="node">
<title>Node2</title>
<g id="a_node2"><a xlink:href="render__bonus_8h.html#a46e5a7c75a4d9fb06252d28cf8d18821" target="_top" xlink:title="Raytraces a sample of the scene and adds it to the sample buffer.">
<polygon fill="none" stroke="black" points="538.5,-152.5 538.5,-171.5 655.5,-171.5 655.5,-152.5 538.5,-152.5"/>
<text text-anchor="middle" x="597" y="-159.5" font-family="Helvetica,sans-Serif" font-size="10.00">ft_anti_alias_sample</text>
</a>
</g>
</g>
<!-- Node1&#45;&gt;Node2 -->
<g id="edge1" class="edge">
<title>Node1&#45;&gt;Node2</title>
<path fill="none" stroke="midnightblue" d="M725.97,-102.14C710.57,-114.82 687.59,-132.11 665,-143 657.27,-146.73 648.67,-149.85 640.28,-152.41"/>
<polygon fill="midnightblue" stroke="midnightblue" points="728.3,-104.75 733.7,-95.63 723.8,-99.39 728.3,-104.75"/>
</g>
<!-- Node3 -->
<g id="node3" class="node">
<title>Node3</title>
<g id="a_node3"><a xlink:href="render_8h.html#a0225ca8a98c8d5cfe2e9d259b5788e33" target="_top" xlink:title="Manipulates the camera with a keypress.">
<polygon fill="none" stroke="black" points="554,-114.5 554,-133.5 640,-133.5 640,-114.5 554,-114.5"/>
<text text-anchor="middle" x="597" y="-121.5" font-family="Helvetica,sans-Serif" font-size="10.00">ft_manip_cam</text>
</a>
</g>
</g>
<!-- Node1&#45;&gt;Node3 -->
<g id="edge2" class="edge">
<title>Node1&#45;&gt;Node3</title>
<path fill="none" stroke="midnightblue" d="M697.8,-98.11C677.4,-103.4 653.82,-109.52 634.7,-114.48"/>
<polygon fill="midnightblue" stroke="midnightblue" points="698.73,-101.49 707.53,-95.59 696.97,-94.71 698.73,-101.49"/>
</g>
<!-- Node4 -->
<g id="node4" class="node">
<title>Node4</title>
<g id="a_node4"><a xlink:href="render__mouse__bonus_8c.html#a8b0cab63a8053d366bbefead351d039a" target="_top" xlink:title="Rotates the camera with the mouse.">
<polygon fill="none" stroke="black" points="529,-76.5 529,-95.5 665,-95.5 665,-76.5 529,-76.5"/>
<text text-anchor="middle" x="597" y="-83.5" font-family="Helvetica,sans-Serif" font-size="10.00">ft_mouse_hook_rot_cam</text>
</a>
</g>
</g>
<!-- Node1&#45;&gt;Node4 -->
<g id="edge3" class="edge">
<title>Node1&#45;&gt;Node4</title>
<path fill="none" stroke="midnightblue" d="M690.69,-86C682.42,-86 673.79,-86 665.27,-86"/>
<polygon fill="midnightblue" stroke="midnightblue" points="690.94,-89.5 700.94,-86 690.94,-82.5 690.94,-89.5"/>
</g>
<!-- Node8 -->
<g id="node8" class="node">
<title>Node8</title>
<g id="a_node8"><a xlink:href="render_8h.html#a012503b6ad6ee8198a601dad994c09b7" target="_top" xlink:title="Main loop of the program.">
<polygon fill="none" stroke="black" points="544,-38.5 544,-57.5 650,-57.5 650,-38.5 544,-38.5"/>
<text text-anchor="middle" x="597" y="-45.5" font-family="Helvetica,sans-Serif" font-size="10.00">ft_programm_loop</text>
</a>
</g>
</g>
<!-- Node1&#45;&gt;Node8 -->
<g id="edge7" class="edge">
<title>Node1&#45;&gt;Node8</title>
<path fill="none" stroke="midnightblue" d="M697.8,-73.89C677.4,-68.6 653.82,-62.48 634.7,-57.52"/>
<polygon fill="midnightblue" stroke="midnightblue" points="696.97,-77.29 707.53,-76.41 698.73,-70.51 696.97,-77.29"/>
</g>
<!-- Node9 -->
<g id="node9" class="node">
<title>Node9</title>
<g id="a_node9"><a xlink:href="render__bonus_8h.html#a0ab696b1752ed3551f1cf8d8c2e7c5d8" target="_top" xlink:title="Raytraces a single sample of the scene to the sample buffer.">
<polygon fill="none" stroke="black" points="547.5,-0.5 547.5,-19.5 646.5,-19.5 646.5,-0.5 547.5,-0.5"/>
<text text-anchor="middle" x="597" y="-7.5" font-family="Helvetica,sans-Serif" font-size="10.00">ft_single_sample</text>
</a>
</g>
</g>
<!-- Node1&#45;&gt;Node9 -->
<g id="edge8" class="edge">
<title>Node1&#45;&gt;Node9</title>
<path fill="none" stroke="midnightblue" d="M725.97,-69.86C710.57,-57.18 687.59,-39.89 665,-29 657.27,-25.27 648.67,-22.15 640.28,-19.59"/>
<polygon fill="midnightblue" stroke="midnightblue" points="723.8,-72.61 733.7,-76.37 728.3,-67.25 723.8,-72.61"/>
</g>
<!-- Node5 -->
<g id="node5" class="node">
<title>Node5</title>
<g id="a_node5"><a xlink:href="render__mouse__bonus_8c.html#a789550edaaab12e30e0d8c779abdc1b8" target="_top" xlink:title="Handles mouse movement.">
<polygon fill="none" stroke="black" points="369,-75.5 369,-94.5 493,-94.5 493,-75.5 369,-75.5"/>
<text text-anchor="middle" x="431" y="-82.5" font-family="Helvetica,sans-Serif" font-size="10.00">ft_mouse_hook_move</text>
</a>
</g>
</g>
<!-- Node4&#45;&gt;Node5 -->
<g id="edge4" class="edge">
<title>Node4&#45;&gt;Node5</title>
<path fill="none" stroke="midnightblue" d="M518.74,-85.53C510.11,-85.48 501.4,-85.42 493.01,-85.37"/>
<polygon fill="midnightblue" stroke="midnightblue" points="518.8,-89.03 528.82,-85.59 518.84,-82.03 518.8,-89.03"/>
</g>
<!-- Node6 -->
<g id="node6" class="node">
<title>Node6</title>
<g id="a_node6"><a xlink:href="render_8h.html#ab7a01aa5d27d2fad2942a43a31ae0d52" target="_top" xlink:title="Starts the mlx loop.">
<polygon fill="none" stroke="black" points="77,-73.5 77,-92.5 191,-92.5 191,-73.5 77,-73.5"/>
<text text-anchor="middle" x="134" y="-80.5" font-family="Helvetica,sans-Serif" font-size="10.00">ft_render_start_loop</text>
</a>
</g>
</g>
<!-- Node5&#45;&gt;Node6 -->
<g id="edge5" class="edge">
<title>Node5&#45;&gt;Node6</title>
<path fill="none" stroke="midnightblue" d="M358.82,-84.52C307.31,-84.17 238.68,-83.7 191.06,-83.38"/>
<polygon fill="midnightblue" stroke="midnightblue" points="358.85,-88.02 368.88,-84.59 358.9,-81.02 358.85,-88.02"/>
</g>
<!-- Node7 -->
<g id="node7" class="node">
<title>Node7</title>
<g id="a_node7"><a xlink:href="main_8c.html#a3c04138a5bfe5d72780bb7e82a18e627" target="_top" xlink:title=" ">
<polygon fill="none" stroke="black" points="0,-52.5 0,-71.5 41,-71.5 41,-52.5 0,-52.5"/>
<text text-anchor="middle" x="20.5" y="-59.5" font-family="Helvetica,sans-Serif" font-size="10.00">main</text>
</a>
</g>
</g>
<!-- Node6&#45;&gt;Node7 -->
<g id="edge6" class="edge">
<title>Node6&#45;&gt;Node7</title>
<path fill="none" stroke="midnightblue" d="M72.5,-71.6C61.17,-69.47 50.1,-67.39 41.19,-65.71"/>
<polygon fill="midnightblue" stroke="midnightblue" points="71.99,-75.07 82.47,-73.48 73.29,-68.19 71.99,-75.07"/>
</g>
<!-- Node10 -->
<g id="node10" class="node">
<title>Node10</title>
<g id="a_node10"><a xlink:href="render__bonus_8h.html#a9c57490cfa20448a418091aa47a49245" target="_top" xlink:title="Raytraces a sample of the scene to the sample buffer.">
<polygon fill="none" stroke="black" points="380.5,-19.5 380.5,-38.5 481.5,-38.5 481.5,-19.5 380.5,-19.5"/>
<text text-anchor="middle" x="431" y="-26.5" font-family="Helvetica,sans-Serif" font-size="10.00">ft_render_sample</text>
</a>
</g>
</g>
<!-- Node9&#45;&gt;Node10 -->
<g id="edge9" class="edge">
<title>Node9&#45;&gt;Node10</title>
<path fill="none" stroke="midnightblue" d="M537.07,-16.83C518.93,-18.93 499.16,-21.22 481.71,-23.24"/>
<polygon fill="midnightblue" stroke="midnightblue" points="537.71,-20.28 547.24,-15.65 536.9,-13.32 537.71,-20.28"/>
</g>
<!-- Node11 -->
<g id="node11" class="node">
<title>Node11</title>
<g id="a_node11"><a xlink:href="render__loop__mlx__bonus_8c.html#a012503b6ad6ee8198a601dad994c09b7" target="_top" xlink:title="Main loop of the program.">
<polygon fill="none" stroke="black" points="227,-28.5 227,-47.5 333,-47.5 333,-28.5 227,-28.5"/>
<text text-anchor="middle" x="280" y="-35.5" font-family="Helvetica,sans-Serif" font-size="10.00">ft_programm_loop</text>
</a>
</g>
</g>
<!-- Node10&#45;&gt;Node11 -->
<g id="edge10" class="edge">
<title>Node10&#45;&gt;Node11</title>
<path fill="none" stroke="midnightblue" d="M370.25,-32.61C357.99,-33.35 345.17,-34.12 333.21,-34.85"/>
<polygon fill="midnightblue" stroke="midnightblue" points="370.61,-36.09 380.39,-32 370.19,-29.11 370.61,-36.09"/>
</g>
<!-- Node12 -->
<g id="node12" class="node">
<title>Node12</title>
<g id="a_node12"><a xlink:href="render__loop__mlx__bonus_8c.html#ab7a01aa5d27d2fad2942a43a31ae0d52" target="_top" xlink:title="Starts the mlx loop.">
<polygon fill="none" stroke="black" points="77,-33.5 77,-52.5 191,-52.5 191,-33.5 77,-33.5"/>
<text text-anchor="middle" x="134" y="-40.5" font-family="Helvetica,sans-Serif" font-size="10.00">ft_render_start_loop</text>
</a>
</g>
</g>
<!-- Node11&#45;&gt;Node12 -->
<g id="edge11" class="edge">
<title>Node11&#45;&gt;Node12</title>
<path fill="none" stroke="midnightblue" d="M216.56,-40.17C208.22,-40.46 199.71,-40.75 191.48,-41.04"/>
<polygon fill="midnightblue" stroke="midnightblue" points="216.73,-43.66 226.61,-39.82 216.49,-36.67 216.73,-43.66"/>
</g>
<!-- Node12&#45;&gt;Node7 -->
<g id="edge12" class="edge">
<title>Node12&#45;&gt;Node7</title>
<path fill="none" stroke="midnightblue" d="M66.99,-54.25C57.56,-55.86 48.53,-57.39 41.04,-58.67"/>
<polygon fill="midnightblue" stroke="midnightblue" points="67.65,-57.69 76.92,-52.56 66.48,-50.79 67.65,-57.69"/>
</g>
</g>
</svg>
