<?xml version="1.0" encoding="UTF-8" standalone="no"?>
<!DOCTYPE svg PUBLIC "-//W3C//DTD SVG 1.1//EN"
 "http://www.w3.org/Graphics/SVG/1.1/DTD/svg11.dtd">
<!-- Generated by graphviz version 2.43.0 (0)
 -->
<!-- Title: ft_static_interpolate Pages: 1 -->
<!--zoomable 218 -->
<svg id="main" version="1.1" xmlns="http://www.w3.org/2000/svg" xmlns:xlink="http://www.w3.org/1999/xlink" xml:space="preserve" onload="init(evt)">
<style type="text/css"><![CDATA[
.edge:hover path { stroke: red; }
.edge:hover polygon { stroke: red; fill: red; }
]]></style>
<script type="text/javascript"><![CDATA[
var edges = document.getElementsByTagName('g');
if (edges && edges.length) {
  for (var i=0;i<edges.length;i++) {
    if (edges[i].id.substr(0,4)=='edge') {
      edges[i].setAttribute('class','edge');
    }
  }
}
]]></script>
        <defs>
                <circle id="rim" cx="0" cy="0" r="7"/>
                <circle id="rim2" cx="0" cy="0" r="3.5"/>
                <g id="zoomPlus">
                        <use xlink:href="#rim" fill="#404040">
                                <set attributeName="fill" to="#808080" begin="zoomplus.mouseover" end="zoomplus.mouseout"/>
                        </use>
                        <path d="M-4,0h8M0,-4v8" fill="none" stroke="white" stroke-width="1.5" pointer-events="none"/>
                </g>
                <g id="zoomMin">
                        <use xlink:href="#rim" fill="#404040">
                                <set attributeName="fill" to="#808080" begin="zoomminus.mouseover" end="zoomminus.mouseout"/>
                        </use>
                        <path d="M-4,0h8" fill="none" stroke="white" stroke-width="1.5" pointer-events="none"/>
                </g>
                <g id="dirArrow">
                        <path fill="none" stroke="white" stroke-width="1.5" d="M0,-3.0v7 M-2.5,-0.5L0,-3.0L2.5,-0.5"/>
                </g>
               <g id="resetDef">
                       <use xlink:href="#rim2" fill="#404040">
                               <set attributeName="fill" to="#808080" begin="reset.mouseover" end="reset.mouseout"/>
                       </use>
               </g>
        </defs>

<script type="text/javascript">
var viewWidth = 697;
var viewHeight = 218;
var sectionId = 'dynsection-49';
</script>
<script xlink:href="svgpan.js"/>
<svg id="graph" class="graph">
<g id="viewport">
<title>ft_static_interpolate</title>
<!-- Node1 -->
<g id="node1" class="node">
<title>Node1</title>
<g id="a_node1"><a xlink:title="Interpolates between two colours while keeping track of progress.">
<polygon fill="#bfbfbf" stroke="black" points="575,-95.5 575,-114.5 689,-114.5 689,-95.5 575,-95.5"/>
<text text-anchor="middle" x="632" y="-102.5" font-family="Helvetica,sans-Serif" font-size="10.00">ft_static_interpolate</text>
</a>
</g>
</g>
<!-- Node2 -->
<g id="node2" class="node">
<title>Node2</title>
<g id="a_node2"><a xlink:href="render_8h.html#a7f7526c1b74ae22e7d9f477e20a9890f" target="_top" xlink:title="Changes the colour with a keypress.">
<polygon fill="none" stroke="black" points="409,-95.5 409,-114.5 539,-114.5 539,-95.5 409,-95.5"/>
<text text-anchor="middle" x="474" y="-102.5" font-family="Helvetica,sans-Serif" font-size="10.00">ft_keyhook_change_col</text>
</a>
</g>
</g>
<!-- Node1&#45;&gt;Node2 -->
<g id="edge1" class="edge">
<title>Node1&#45;&gt;Node2</title>
<path fill="none" stroke="midnightblue" d="M564.55,-105C556.14,-105 547.55,-105 539.18,-105"/>
<polygon fill="midnightblue" stroke="midnightblue" points="564.68,-108.5 574.68,-105 564.68,-101.5 564.68,-108.5"/>
</g>
<!-- Node3 -->
<g id="node3" class="node">
<title>Node3</title>
<g id="a_node3"><a xlink:href="render_8h.html#a597d35b7bd3aa66272e3c2ff3a1e8f78" target="_top" xlink:title="Manipulates the ambient light.">
<polygon fill="none" stroke="black" points="267.5,-190.5 267.5,-209.5 372.5,-209.5 372.5,-190.5 267.5,-190.5"/>
<text text-anchor="middle" x="320" y="-197.5" font-family="Helvetica,sans-Serif" font-size="10.00">ft_manip_ambient</text>
</a>
</g>
</g>
<!-- Node2&#45;&gt;Node3 -->
<g id="edge2" class="edge">
<title>Node2&#45;&gt;Node3</title>
<path fill="none" stroke="midnightblue" d="M455,-121.36C435.82,-138.12 404,-164.06 373,-181 366.42,-184.59 359.02,-187.76 351.92,-190.43"/>
<polygon fill="midnightblue" stroke="midnightblue" points="457.48,-123.83 462.64,-114.58 452.84,-118.6 457.48,-123.83"/>
</g>
<!-- Node4 -->
<g id="node4" class="node">
<title>Node4</title>
<g id="a_node4"><a xlink:href="render__bonus_8h.html#a81fa5494e17be06ab12b226ff9dd7c2a" target="_top" xlink:title="Manipulates the active cone.">
<polygon fill="none" stroke="black" points="276,-152.5 276,-171.5 364,-171.5 364,-152.5 276,-152.5"/>
<text text-anchor="middle" x="320" y="-159.5" font-family="Helvetica,sans-Serif" font-size="10.00">ft_manip_cone</text>
</a>
</g>
</g>
<!-- Node2&#45;&gt;Node4 -->
<g id="edge3" class="edge">
<title>Node2&#45;&gt;Node4</title>
<path fill="none" stroke="midnightblue" d="M438.41,-118.27C419.18,-125.62 394.79,-134.88 373,-143 364.62,-146.12 355.47,-149.48 347.21,-152.5"/>
<polygon fill="midnightblue" stroke="midnightblue" points="439.87,-121.46 447.96,-114.62 437.37,-114.92 439.87,-121.46"/>
</g>
<!-- Node7 -->
<g id="node7" class="node">
<title>Node7</title>
<g id="a_node7"><a xlink:href="render_8h.html#a2737927d8cc8ff5dc3bd94b3e11fc1a9" target="_top" xlink:title="Manipulates the active cylinder.">
<polygon fill="none" stroke="black" points="268,-114.5 268,-133.5 372,-133.5 372,-114.5 268,-114.5"/>
<text text-anchor="middle" x="320" y="-121.5" font-family="Helvetica,sans-Serif" font-size="10.00">ft_manip_cylinder</text>
</a>
</g>
</g>
<!-- Node2&#45;&gt;Node7 -->
<g id="edge6" class="edge">
<title>Node2&#45;&gt;Node7</title>
<path fill="none" stroke="midnightblue" d="M398.79,-114.28C389.73,-115.41 380.64,-116.54 372.03,-117.62"/>
<polygon fill="midnightblue" stroke="midnightblue" points="399.49,-117.72 408.98,-113 398.62,-110.77 399.49,-117.72"/>
</g>
<!-- Node8 -->
<g id="node8" class="node">
<title>Node8</title>
<g id="a_node8"><a xlink:href="render_8h.html#a16d57d13773703e93274caef6b5ccde1" target="_top" xlink:title="Manipulates a light source.">
<polygon fill="none" stroke="black" points="267,-76.5 267,-95.5 373,-95.5 373,-76.5 267,-76.5"/>
<text text-anchor="middle" x="320" y="-83.5" font-family="Helvetica,sans-Serif" font-size="10.00">ft_manip_light_src</text>
</a>
</g>
</g>
<!-- Node2&#45;&gt;Node8 -->
<g id="edge8" class="edge">
<title>Node2&#45;&gt;Node8</title>
<path fill="none" stroke="midnightblue" d="M398.92,-95.74C390.31,-94.66 381.67,-93.58 373.44,-92.55"/>
<polygon fill="midnightblue" stroke="midnightblue" points="398.62,-99.23 408.98,-97 399.49,-92.28 398.62,-99.23"/>
</g>
<!-- Node9 -->
<g id="node9" class="node">
<title>Node9</title>
<g id="a_node9"><a xlink:href="render_8h.html#a2b397fc2e0dd418d497c05b3dff894f1" target="_top" xlink:title="Manipulates the active plane.">
<polygon fill="none" stroke="black" points="274,-38.5 274,-57.5 366,-57.5 366,-38.5 274,-38.5"/>
<text text-anchor="middle" x="320" y="-45.5" font-family="Helvetica,sans-Serif" font-size="10.00">ft_manip_plane</text>
</a>
</g>
</g>
<!-- Node2&#45;&gt;Node9 -->
<g id="edge9" class="edge">
<title>Node2&#45;&gt;Node9</title>
<path fill="none" stroke="midnightblue" d="M438.41,-91.73C419.18,-84.38 394.79,-75.12 373,-67 364.62,-63.88 355.47,-60.52 347.21,-57.5"/>
<polygon fill="midnightblue" stroke="midnightblue" points="437.37,-95.08 447.96,-95.38 439.87,-88.54 437.37,-95.08"/>
</g>
<!-- Node10 -->
<g id="node10" class="node">
<title>Node10</title>
<g id="a_node10"><a xlink:href="render_8h.html#a3af9cb325ad292f339446b63917a9ea2" target="_top" xlink:title="Manipulates the active sphere.">
<polygon fill="none" stroke="black" points="271,-0.5 271,-19.5 369,-19.5 369,-0.5 271,-0.5"/>
<text text-anchor="middle" x="320" y="-7.5" font-family="Helvetica,sans-Serif" font-size="10.00">ft_manip_sphere</text>
</a>
</g>
</g>
<!-- Node2&#45;&gt;Node10 -->
<g id="edge11" class="edge">
<title>Node2&#45;&gt;Node10</title>
<path fill="none" stroke="midnightblue" d="M455,-88.64C435.82,-71.88 404,-45.94 373,-29 366.42,-25.41 359.02,-22.24 351.92,-19.57"/>
<polygon fill="midnightblue" stroke="midnightblue" points="452.84,-91.4 462.64,-95.42 457.48,-86.17 452.84,-91.4"/>
</g>
<!-- Node5 -->
<g id="node5" class="node">
<title>Node5</title>
<g id="a_node5"><a xlink:href="render_8h.html#a58cfb6d04ac9120cc228cbc5411b2005" target="_top" xlink:title="Manipulates the active hittable.">
<polygon fill="none" stroke="black" points="129,-76.5 129,-95.5 231,-95.5 231,-76.5 129,-76.5"/>
<text text-anchor="middle" x="180" y="-83.5" font-family="Helvetica,sans-Serif" font-size="10.00">ft_manip_hittable</text>
</a>
</g>
</g>
<!-- Node4&#45;&gt;Node5 -->
<g id="edge4" class="edge">
<title>Node4&#45;&gt;Node5</title>
<path fill="none" stroke="midnightblue" d="M279.63,-148.74C275.3,-146.95 271.02,-145.03 267,-143 239.34,-129.03 209.79,-107.91 193.54,-95.68"/>
<polygon fill="midnightblue" stroke="midnightblue" points="278.48,-152.05 289.06,-152.42 281.02,-145.53 278.48,-152.05"/>
</g>
<!-- Node6 -->
<g id="node6" class="node">
<title>Node6</title>
<g id="a_node6"><a xlink:href="render_8h.html#ad4c2931e2e9392390f987c8ca3c99a5d" target="_top" xlink:title="Branches to the corresponding manipulation function.">
<polygon fill="none" stroke="black" points="0,-76.5 0,-95.5 93,-95.5 93,-76.5 0,-76.5"/>
<text text-anchor="middle" x="46.5" y="-83.5" font-family="Helvetica,sans-Serif" font-size="10.00">ft_manip_scene</text>
</a>
</g>
</g>
<!-- Node5&#45;&gt;Node6 -->
<g id="edge5" class="edge">
<title>Node5&#45;&gt;Node6</title>
<path fill="none" stroke="midnightblue" d="M118.86,-86C110.21,-86 101.44,-86 93.13,-86"/>
<polygon fill="midnightblue" stroke="midnightblue" points="118.91,-89.5 128.91,-86 118.91,-82.5 118.91,-89.5"/>
</g>
<!-- Node7&#45;&gt;Node5 -->
<g id="edge7" class="edge">
<title>Node7&#45;&gt;Node5</title>
<path fill="none" stroke="midnightblue" d="M274.53,-111.75C255.51,-106.52 233.62,-100.49 215.81,-95.59"/>
<polygon fill="midnightblue" stroke="midnightblue" points="273.61,-115.13 284.18,-114.41 275.46,-108.38 273.61,-115.13"/>
</g>
<!-- Node9&#45;&gt;Node5 -->
<g id="edge10" class="edge">
<title>Node9&#45;&gt;Node5</title>
<path fill="none" stroke="midnightblue" d="M274.53,-60.25C255.51,-65.48 233.62,-71.51 215.81,-76.41"/>
<polygon fill="midnightblue" stroke="midnightblue" points="275.46,-63.62 284.18,-57.59 273.61,-56.87 275.46,-63.62"/>
</g>
<!-- Node10&#45;&gt;Node5 -->
<g id="edge12" class="edge">
<title>Node10&#45;&gt;Node5</title>
<path fill="none" stroke="midnightblue" d="M279.63,-23.26C275.3,-25.05 271.02,-26.97 267,-29 239.34,-42.97 209.79,-64.09 193.54,-76.32"/>
<polygon fill="midnightblue" stroke="midnightblue" points="281.02,-26.47 289.06,-19.58 278.48,-19.95 281.02,-26.47"/>
</g>
</g>
</svg>
        <g id="navigator" transform="translate(0 0)" fill="#404254">
                <rect fill="#f2f5e9" fill-opacity="0.5" stroke="#606060" stroke-width=".5" x="0" y="0" width="60" height="60"/>
                <use id="zoomplus" xlink:href="#zoomPlus" x="17" y="9" onmousedown="handleZoom(evt,'in')"/>
                <use id="zoomminus" xlink:href="#zoomMin" x="42" y="9" onmousedown="handleZoom(evt,'out')"/>
                <use id="reset" xlink:href="#resetDef" x="30" y="36" onmousedown="handleReset()"/>
                <g id="arrowUp" xlink:href="#dirArrow" transform="translate(30 24)" onmousedown="handlePan(0,-1)">
                  <use xlink:href="#rim" fill="#404040">
                        <set attributeName="fill" to="#808080" begin="arrowUp.mouseover" end="arrowUp.mouseout"/>
                  </use>
                  <path fill="none" stroke="white" stroke-width="1.5" d="M0,-3.0v7 M-2.5,-0.5L0,-3.0L2.5,-0.5"/>
                </g>
                <g id="arrowRight" xlink:href="#dirArrow" transform="rotate(90) translate(36 -43)" onmousedown="handlePan(1,0)">
                  <use xlink:href="#rim" fill="#404040">
                        <set attributeName="fill" to="#808080" begin="arrowRight.mouseover" end="arrowRight.mouseout"/>
                  </use>
                  <path fill="none" stroke="white" stroke-width="1.5" d="M0,-3.0v7 M-2.5,-0.5L0,-3.0L2.5,-0.5"/>
                </g>
                <g id="arrowDown" xlink:href="#dirArrow" transform="rotate(180) translate(-30 -48)" onmousedown="handlePan(0,1)">
                  <use xlink:href="#rim" fill="#404040">
                        <set attributeName="fill" to="#808080" begin="arrowDown.mouseover" end="arrowDown.mouseout"/>
                  </use>
                  <path fill="none" stroke="white" stroke-width="1.5" d="M0,-3.0v7 M-2.5,-0.5L0,-3.0L2.5,-0.5"/>
                </g>
                <g id="arrowLeft" xlink:href="#dirArrow" transform="rotate(270) translate(-36 17)" onmousedown="handlePan(-1,0)">
                  <use xlink:href="#rim" fill="#404040">
                        <set attributeName="fill" to="#808080" begin="arrowLeft.mouseover" end="arrowLeft.mouseout"/>
                  </use>
                  <path fill="none" stroke="white" stroke-width="1.5" d="M0,-3.0v7 M-2.5,-0.5L0,-3.0L2.5,-0.5"/>
                </g>
        </g>
        <svg viewBox="0 0 15 15" width="100%" height="30px" preserveAspectRatio="xMaxYMin meet">
         <g id="arrow_out" transform="scale(0.3 0.3)">
          <a xlink:href="render__bonus_8h_a02dd1323bf99ad166e22cf0dcbef39f2_icgraph_org.svg" target="_base">
           <rect id="button" ry="5" rx="5" y="6" x="6" height="38" width="38"
                fill="#f2f5e9" fill-opacity="0.5" stroke="#606060" stroke-width="1.0"/>
           <path id="arrow"
             d="M 11.500037,31.436501 C 11.940474,20.09759 22.043105,11.32322 32.158766,21.979434 L 37.068811,17.246167 C 37.068811,17.246167 37.088388,32 37.088388,32 L 22.160133,31.978069 C 22.160133,31.978069 26.997745,27.140456 26.997745,27.140456 C 18.528582,18.264221 13.291696,25.230495 11.500037,31.436501 z"
             style="fill:#404040;"/>
          </a>
         </g>
        </svg>
</svg>
