<?xml version="1.0" encoding="UTF-8" standalone="no"?>
<!DOCTYPE svg PUBLIC "-//W3C//DTD SVG 1.1//EN"
 "http://www.w3.org/Graphics/SVG/1.1/DTD/svg11.dtd">
<!-- Generated by graphviz version 2.43.0 (0)
 -->
<!-- Title: ft_shoot_ray Pages: 1 -->
<!--zoomable 550 -->
<svg id="main" version="1.1" xmlns="http://www.w3.org/2000/svg" xmlns:xlink="http://www.w3.org/1999/xlink" xml:space="preserve" onload="init(evt)">
<style type="text/css"><![CDATA[
.edge:hover path { stroke: red; }
.edge:hover polygon { stroke: red; fill: red; }
]]></style>
<script type="text/javascript"><![CDATA[
var edges = document.getElementsByTagName('g');
if (edges && edges.length) {
  for (var i=0;i<edges.length;i++) {
    if (edges[i].id.substr(0,4)=='edge') {
      edges[i].setAttribute('class','edge');
    }
  }
}
]]></script>
        <defs>
                <circle id="rim" cx="0" cy="0" r="7"/>
                <circle id="rim2" cx="0" cy="0" r="3.5"/>
                <g id="zoomPlus">
                        <use xlink:href="#rim" fill="#404040">
                                <set attributeName="fill" to="#808080" begin="zoomplus.mouseover" end="zoomplus.mouseout"/>
                        </use>
                        <path d="M-4,0h8M0,-4v8" fill="none" stroke="white" stroke-width="1.5" pointer-events="none"/>
                </g>
                <g id="zoomMin">
                        <use xlink:href="#rim" fill="#404040">
                                <set attributeName="fill" to="#808080" begin="zoomminus.mouseover" end="zoomminus.mouseout"/>
                        </use>
                        <path d="M-4,0h8" fill="none" stroke="white" stroke-width="1.5" pointer-events="none"/>
                </g>
                <g id="dirArrow">
                        <path fill="none" stroke="white" stroke-width="1.5" d="M0,-3.0v7 M-2.5,-0.5L0,-3.0L2.5,-0.5"/>
                </g>
               <g id="resetDef">
                       <use xlink:href="#rim2" fill="#404040">
                               <set attributeName="fill" to="#808080" begin="reset.mouseover" end="reset.mouseout"/>
                       </use>
               </g>
        </defs>

<script type="text/javascript">
var viewWidth = 1179;
var viewHeight = 550;
var sectionId = 'dynsection-54';
</script>
<script xlink:href="svgpan.js"/>
<svg id="graph" class="graph">
<g id="viewport">
<title>ft_shoot_ray</title>
<!-- Node1 -->
<g id="node1" class="node">
<title>Node1</title>
<g id="a_node1"><a xlink:title="Constructs a ray and shoots it through the pixel.">
<polygon fill="#bfbfbf" stroke="black" points="0,-28.5 0,-47.5 77,-47.5 77,-28.5 0,-28.5"/>
<text text-anchor="middle" x="38.5" y="-35.5" font-family="Helvetica,sans-Serif" font-size="10.00">ft_shoot_ray</text>
</a>
</g>
</g>
<!-- Node2 -->
<g id="node2" class="node">
<title>Node2</title>
<g id="a_node2"><a xlink:href="ray_8h.html#a2cffd188fb76990901db47a2c3ac638f" target="_top" xlink:title="Returns the colour of a ray.">
<polygon fill="none" stroke="black" points="113,-237.5 113,-256.5 193,-256.5 193,-237.5 113,-237.5"/>
<text text-anchor="middle" x="153" y="-244.5" font-family="Helvetica,sans-Serif" font-size="10.00">ft_ray_colour</text>
</a>
</g>
</g>
<!-- Node1&#45;&gt;Node2 -->
<g id="edge1" class="edge">
<title>Node1&#45;&gt;Node2</title>
<path fill="none" stroke="midnightblue" d="M44.63,-47.52C62.01,-79.82 118.94,-185.59 142.09,-228.58"/>
<polygon fill="midnightblue" stroke="midnightblue" points="139.02,-230.27 146.84,-237.42 145.19,-226.96 139.02,-230.27"/>
</g>
<!-- Node26 -->
<g id="node26" class="node">
<title>Node26</title>
<g id="a_node26"><a xlink:href="vec3_8h.html#a54e984820b74bd803de43ce36c8cb292" target="_top" xlink:title="Subtract two vectors.">
<polygon fill="none" stroke="black" points="960.5,-66.5 960.5,-85.5 1034.5,-85.5 1034.5,-66.5 960.5,-66.5"/>
<text text-anchor="middle" x="997.5" y="-73.5" font-family="Helvetica,sans-Serif" font-size="10.00">ft_vec3_sub</text>
</a>
</g>
</g>
<!-- Node1&#45;&gt;Node26 -->
<g id="edge45" class="edge">
<title>Node1&#45;&gt;Node26</title>
<path fill="none" stroke="midnightblue" d="M77.04,-38C125.79,-38 213.5,-38 288.5,-38 288.5,-38 288.5,-38 443.5,-38 631.8,-38 855.31,-60.2 950.2,-70.66"/>
<polygon fill="midnightblue" stroke="midnightblue" points="950,-74.16 960.33,-71.79 950.77,-67.2 950,-74.16"/>
</g>
<!-- Node28 -->
<g id="node28" class="node">
<title>Node28</title>
<g id="a_node28"><a xlink:href="vec3_8h.html#a38fe500bd27847b866b9630146e43250" target="_top" xlink:title="Normalise a vector.">
<polygon fill="none" stroke="black" points="956,-28.5 956,-47.5 1039,-47.5 1039,-28.5 956,-28.5"/>
<text text-anchor="middle" x="997.5" y="-35.5" font-family="Helvetica,sans-Serif" font-size="10.00">ft_vec3_norm</text>
</a>
</g>
</g>
<!-- Node1&#45;&gt;Node28 -->
<g id="edge44" class="edge">
<title>Node1&#45;&gt;Node28</title>
<path fill="none" stroke="midnightblue" d="M77.19,-28.61C125.73,-17.35 212.85,0 288.5,0 288.5,0 288.5,0 744,0 815.33,0 896.75,-15.01 947.4,-26.17"/>
<polygon fill="midnightblue" stroke="midnightblue" points="946.89,-29.64 957.41,-28.41 948.42,-22.81 946.89,-29.64"/>
</g>
<!-- Node3 -->
<g id="node3" class="node">
<title>Node3</title>
<g id="a_node3"><a xlink:href="ray_8c.html#a165a4eb7af65fda20a69dfd50b9ed119" target="_top" xlink:title="Returns the background colour.">
<polygon fill="none" stroke="black" points="229,-522.5 229,-541.5 350,-541.5 350,-522.5 229,-522.5"/>
<text text-anchor="middle" x="289.5" y="-529.5" font-family="Helvetica,sans-Serif" font-size="10.00">ft_background_colour</text>
</a>
</g>
</g>
<!-- Node2&#45;&gt;Node3 -->
<g id="edge2" class="edge">
<title>Node2&#45;&gt;Node3</title>
<path fill="none" stroke="midnightblue" d="M153.91,-256.72C154.1,-294.2 159.71,-431.13 229,-508 232.45,-511.83 236.61,-515.06 241.09,-517.78"/>
<polygon fill="midnightblue" stroke="midnightblue" points="239.54,-520.92 250.02,-522.42 242.76,-514.71 239.54,-520.92"/>
</g>
<!-- Node4 -->
<g id="node4" class="node">
<title>Node4</title>
<g id="a_node4"><a xlink:href="lighting_8h.html#a3d54436a3f695a60b1c2d9e504a61de8" target="_top" xlink:title="Calculate the effect of different lighting on perception.">
<polygon fill="none" stroke="black" points="252.5,-237.5 252.5,-256.5 326.5,-256.5 326.5,-237.5 252.5,-237.5"/>
<text text-anchor="middle" x="289.5" y="-244.5" font-family="Helvetica,sans-Serif" font-size="10.00">ft_enlighten</text>
</a>
</g>
</g>
<!-- Node2&#45;&gt;Node4 -->
<g id="edge3" class="edge">
<title>Node2&#45;&gt;Node4</title>
<path fill="none" stroke="midnightblue" d="M193.26,-247C208.53,-247 226.14,-247 242.03,-247"/>
<polygon fill="midnightblue" stroke="midnightblue" points="242.18,-250.5 252.18,-247 242.18,-243.5 242.18,-250.5"/>
</g>
<!-- Node12 -->
<g id="node12" class="node">
<title>Node12</title>
<g id="a_node12"><a xlink:href="hit__manager_8h.html#a9d5972226064b0a4d0e1359d9230abec" target="_top" xlink:title="Investigate a hittable and returns whether a hit occured or not.">
<polygon fill="none" stroke="black" points="701,-218.5 701,-237.5 785,-237.5 785,-218.5 701,-218.5"/>
<text text-anchor="middle" x="743" y="-225.5" font-family="Helvetica,sans-Serif" font-size="10.00">ft_hit_hittable</text>
</a>
</g>
</g>
<!-- Node2&#45;&gt;Node12 -->
<g id="edge42" class="edge">
<title>Node2&#45;&gt;Node12</title>
<path fill="none" stroke="midnightblue" d="M170.74,-237.46C207.97,-216.85 301.02,-168.73 386,-152 507.95,-128 549.38,-125.41 665,-171 688.02,-180.08 710.3,-197.86 724.91,-211.16"/>
<polygon fill="midnightblue" stroke="midnightblue" points="722.9,-214.07 732.58,-218.37 727.7,-208.97 722.9,-214.07"/>
</g>
<!-- Node19 -->
<g id="node19" class="node">
<title>Node19</title>
<g id="a_node19"><a xlink:href="hit__manager_8h.html#aa5acefb1538a700dc595870ad630f83d" target="_top" xlink:title="Initiates hitrecord struct.">
<polygon fill="none" stroke="black" points="951,-522.5 951,-541.5 1044,-541.5 1044,-522.5 951,-522.5"/>
<text text-anchor="middle" x="997.5" y="-529.5" font-family="Helvetica,sans-Serif" font-size="10.00">ft_init_hitrecord</text>
</a>
</g>
</g>
<!-- Node2&#45;&gt;Node19 -->
<g id="edge43" class="edge">
<title>Node2&#45;&gt;Node19</title>
<path fill="none" stroke="midnightblue" d="M158.95,-256.68C183.07,-302.35 293.11,-494 441.5,-494 441.5,-494 441.5,-494 744,-494 815.33,-494 896.75,-509.01 947.4,-520.17"/>
<polygon fill="midnightblue" stroke="midnightblue" points="946.89,-523.64 957.41,-522.41 948.42,-516.81 946.89,-523.64"/>
</g>
<!-- Node5 -->
<g id="node5" class="node">
<title>Node5</title>
<g id="a_node5"><a xlink:href="colour_8h.html#ae5c090d9193f6bcf449f12c299f186b7" target="_top" xlink:title="Add two colours.">
<polygon fill="none" stroke="black" points="401.5,-199.5 401.5,-218.5 483.5,-218.5 483.5,-199.5 401.5,-199.5"/>
<text text-anchor="middle" x="442.5" y="-206.5" font-family="Helvetica,sans-Serif" font-size="10.00">ft_add_colour</text>
</a>
</g>
</g>
<!-- Node4&#45;&gt;Node5 -->
<g id="edge4" class="edge">
<title>Node4&#45;&gt;Node5</title>
<path fill="none" stroke="midnightblue" d="M326.67,-237.9C346.79,-232.83 372.09,-226.47 393.82,-221"/>
<polygon fill="midnightblue" stroke="midnightblue" points="394.68,-224.39 403.52,-218.56 392.97,-217.6 394.68,-224.39"/>
</g>
<!-- Node6 -->
<g id="node6" class="node">
<title>Node6</title>
<g id="a_node6"><a xlink:href="scene__light_8c.html#a691cc177466ad1a6b1ababe4272dca1b" target="_top" xlink:title="Create ambient lighting.">
<polygon fill="none" stroke="black" points="394.5,-275.5 394.5,-294.5 490.5,-294.5 490.5,-275.5 394.5,-275.5"/>
<text text-anchor="middle" x="442.5" y="-282.5" font-family="Helvetica,sans-Serif" font-size="10.00">ft_ambient_light</text>
</a>
</g>
</g>
<!-- Node4&#45;&gt;Node6 -->
<g id="edge5" class="edge">
<title>Node4&#45;&gt;Node6</title>
<path fill="none" stroke="midnightblue" d="M326.67,-256.1C346.79,-261.17 372.09,-267.53 393.82,-273"/>
<polygon fill="midnightblue" stroke="midnightblue" points="392.97,-276.4 403.52,-275.44 394.68,-269.61 392.97,-276.4"/>
</g>
<!-- Node7 -->
<g id="node7" class="node">
<title>Node7</title>
<g id="a_node7"><a xlink:href="scene__light_8c.html#ae50a6e06925c764b3caad3f805bc4c8a" target="_top" xlink:title="Create diffuse lighting.">
<polygon fill="none" stroke="black" points="398,-237.5 398,-256.5 487,-256.5 487,-237.5 398,-237.5"/>
<text text-anchor="middle" x="442.5" y="-244.5" font-family="Helvetica,sans-Serif" font-size="10.00">ft_diffuse_light</text>
</a>
</g>
</g>
<!-- Node4&#45;&gt;Node7 -->
<g id="edge6" class="edge">
<title>Node4&#45;&gt;Node7</title>
<path fill="none" stroke="midnightblue" d="M326.67,-247C344.95,-247 367.51,-247 387.78,-247"/>
<polygon fill="midnightblue" stroke="midnightblue" points="387.83,-250.5 397.83,-247 387.83,-243.5 387.83,-250.5"/>
</g>
<!-- Node8 -->
<g id="node8" class="node">
<title>Node8</title>
<g id="a_node8"><a xlink:href="colour_8h.html#a9e6968b360ba0fa607a8571c262995ea" target="_top" xlink:title="Calculates the Hadamard product of two colours.">
<polygon fill="none" stroke="black" points="386,-313.5 386,-332.5 499,-332.5 499,-313.5 386,-313.5"/>
<text text-anchor="middle" x="442.5" y="-320.5" font-family="Helvetica,sans-Serif" font-size="10.00">ft_hadamard_colour</text>
</a>
</g>
</g>
<!-- Node4&#45;&gt;Node8 -->
<g id="edge7" class="edge">
<title>Node4&#45;&gt;Node8</title>
<path fill="none" stroke="midnightblue" d="M304.55,-256.66C322.73,-268.86 355.69,-289.95 386,-304 390.62,-306.14 395.55,-308.17 400.49,-310.05"/>
<polygon fill="midnightblue" stroke="midnightblue" points="399.34,-313.35 409.94,-313.47 401.72,-306.77 399.34,-313.35"/>
</g>
<!-- Node10 -->
<g id="node10" class="node">
<title>Node10</title>
<g id="a_node10"><a xlink:href="lighting_8h.html#a382179d88a3a971b5853322389bacf04" target="_top" xlink:title="Determines whether the point of intersection lies in a shadow regarding the current light source.">
<polygon fill="none" stroke="black" points="402.5,-161.5 402.5,-180.5 482.5,-180.5 482.5,-161.5 402.5,-161.5"/>
<text text-anchor="middle" x="442.5" y="-168.5" font-family="Helvetica,sans-Serif" font-size="10.00">ft_in_shadow</text>
</a>
</g>
</g>
<!-- Node4&#45;&gt;Node10 -->
<g id="edge9" class="edge">
<title>Node4&#45;&gt;Node10</title>
<path fill="none" stroke="midnightblue" d="M304.55,-237.34C322.73,-225.14 355.69,-204.05 386,-190 390.62,-187.86 395.55,-185.83 400.49,-183.95"/>
<polygon fill="midnightblue" stroke="midnightblue" points="401.72,-187.23 409.94,-180.53 399.34,-180.65 401.72,-187.23"/>
</g>
<!-- Node9 -->
<g id="node9" class="node">
<title>Node9</title>
<g id="a_node9"><a xlink:href="utils_8h.html#a241b2b1d75c68c1eefd36b569901c9f9" target="_top" xlink:title="Ensure that the returned float lies within the interval.">
<polygon fill="none" stroke="black" points="570.5,-313.5 570.5,-332.5 629.5,-332.5 629.5,-313.5 570.5,-313.5"/>
<text text-anchor="middle" x="600" y="-320.5" font-family="Helvetica,sans-Serif" font-size="10.00">ft_clamp</text>
</a>
</g>
</g>
<!-- Node8&#45;&gt;Node9 -->
<g id="edge8" class="edge">
<title>Node8&#45;&gt;Node9</title>
<path fill="none" stroke="midnightblue" d="M499.2,-323C519.4,-323 541.77,-323 560.19,-323"/>
<polygon fill="midnightblue" stroke="midnightblue" points="560.27,-326.5 570.27,-323 560.27,-319.5 560.27,-326.5"/>
</g>
<!-- Node11 -->
<g id="node11" class="node">
<title>Node11</title>
<g id="a_node11"><a xlink:href="scene__shadow_8c.html#a931177e8edb2dd5393cef7a468389a4d" target="_top" xlink:title="Determines whether the shadow ray emitted from the point of intersection is blocked on its way to the...">
<polygon fill="none" stroke="black" points="535,-218.5 535,-237.5 665,-237.5 665,-218.5 535,-218.5"/>
<text text-anchor="middle" x="600" y="-225.5" font-family="Helvetica,sans-Serif" font-size="10.00">ft_shadow_ray_blocked</text>
</a>
</g>
</g>
<!-- Node10&#45;&gt;Node11 -->
<g id="edge10" class="edge">
<title>Node10&#45;&gt;Node11</title>
<path fill="none" stroke="midnightblue" d="M474.07,-180.51C482.26,-183.32 491.05,-186.57 499,-190 515.61,-197.17 518.25,-202.17 535,-209 540.57,-211.27 546.51,-213.4 552.44,-215.36"/>
<polygon fill="midnightblue" stroke="midnightblue" points="551.77,-218.81 562.35,-218.47 553.86,-212.13 551.77,-218.81"/>
</g>
<!-- Node10&#45;&gt;Node26 -->
<g id="edge41" class="edge">
<title>Node10&#45;&gt;Node26</title>
<path fill="none" stroke="midnightblue" d="M482.83,-164.24C582.29,-147.16 843.51,-102.28 950.15,-83.96"/>
<polygon fill="midnightblue" stroke="midnightblue" points="951.02,-87.36 960.28,-82.22 949.83,-80.47 951.02,-87.36"/>
</g>
<!-- Node10&#45;&gt;Node28 -->
<g id="edge40" class="edge">
<title>Node10&#45;&gt;Node28</title>
<path fill="none" stroke="midnightblue" d="M461.6,-161.43C479.72,-152.19 508.63,-138.42 535,-130 680.65,-83.5 859.98,-55.82 945.91,-44.3"/>
<polygon fill="midnightblue" stroke="midnightblue" points="946.46,-47.75 955.92,-42.97 945.54,-40.81 946.46,-47.75"/>
</g>
<!-- Node30 -->
<g id="node30" class="node">
<title>Node30</title>
<g id="a_node30"><a xlink:href="vec3_8h.html#aa84621bd979d3b12b97908f653faf88e" target="_top" xlink:title="Calculate the absolute value of a vector.">
<polygon fill="none" stroke="black" points="563,-180.5 563,-199.5 637,-199.5 637,-180.5 563,-180.5"/>
<text text-anchor="middle" x="600" y="-187.5" font-family="Helvetica,sans-Serif" font-size="10.00">ft_vec3_abs</text>
</a>
</g>
</g>
<!-- Node10&#45;&gt;Node30 -->
<g id="edge39" class="edge">
<title>Node10&#45;&gt;Node30</title>
<path fill="none" stroke="midnightblue" d="M482.74,-175.79C504.12,-178.41 530.69,-181.65 553.04,-184.38"/>
<polygon fill="midnightblue" stroke="midnightblue" points="552.62,-187.86 562.97,-185.6 553.47,-180.91 552.62,-187.86"/>
</g>
<!-- Node11&#45;&gt;Node12 -->
<g id="edge11" class="edge">
<title>Node11&#45;&gt;Node12</title>
<path fill="none" stroke="midnightblue" d="M665.31,-228C673.79,-228 682.39,-228 690.61,-228"/>
<polygon fill="midnightblue" stroke="midnightblue" points="690.79,-231.5 700.79,-228 690.79,-224.5 690.79,-231.5"/>
</g>
<!-- Node11&#45;&gt;Node19 -->
<g id="edge38" class="edge">
<title>Node11&#45;&gt;Node19</title>
<path fill="none" stroke="midnightblue" d="M609.37,-237.8C636.98,-269.71 728.7,-372.26 821,-437 855.98,-461.54 871.8,-455.77 907,-480 924.88,-492.31 924.4,-501.81 943,-513 946.37,-515.03 949.99,-516.89 953.7,-518.58"/>
<polygon fill="midnightblue" stroke="midnightblue" points="952.44,-521.84 963.02,-522.44 955.12,-515.38 952.44,-521.84"/>
</g>
<!-- Node13 -->
<g id="node13" class="node">
<title>Node13</title>
<g id="a_node13"><a xlink:href="hit__manager_8h.html#ad1c0dcb3141fe78ed26368ca7bb8d2b8" target="_top" xlink:title="Calculates if a cylinder was hit by a ray.">
<polygon fill="none" stroke="black" points="821,-408.5 821,-427.5 907,-427.5 907,-408.5 821,-408.5"/>
<text text-anchor="middle" x="864" y="-415.5" font-family="Helvetica,sans-Serif" font-size="10.00">ft_hit_cylinder</text>
</a>
</g>
</g>
<!-- Node12&#45;&gt;Node13 -->
<g id="edge12" class="edge">
<title>Node12&#45;&gt;Node13</title>
<path fill="none" stroke="midnightblue" d="M750.06,-237.68C768.84,-267.66 826.24,-359.31 851.2,-399.16"/>
<polygon fill="midnightblue" stroke="midnightblue" points="848.53,-401.49 856.8,-408.11 854.46,-397.78 848.53,-401.49"/>
</g>
<!-- Node20 -->
<g id="node20" class="node">
<title>Node20</title>
<g id="a_node20"><a xlink:href="hit__manager_8h.html#a04f04eb6383f01a28b0c7201ab52782e" target="_top" xlink:title="Calculates if a plane was hit by a ray.">
<polygon fill="none" stroke="black" points="827,-218.5 827,-237.5 901,-237.5 901,-218.5 827,-218.5"/>
<text text-anchor="middle" x="864" y="-225.5" font-family="Helvetica,sans-Serif" font-size="10.00">ft_hit_plane</text>
</a>
</g>
</g>
<!-- Node12&#45;&gt;Node20 -->
<g id="edge19" class="edge">
<title>Node12&#45;&gt;Node20</title>
<path fill="none" stroke="midnightblue" d="M785.29,-228C795.46,-228 806.41,-228 816.8,-228"/>
<polygon fill="midnightblue" stroke="midnightblue" points="816.94,-231.5 826.94,-228 816.94,-224.5 816.94,-231.5"/>
</g>
<!-- Node27 -->
<g id="node27" class="node">
<title>Node27</title>
<g id="a_node27"><a xlink:href="hit__manager_8h.html#aee999b32d6cebbb7bcd64995f8e88b6e" target="_top" xlink:title="Calculates if a sphere was hit by a ray.">
<polygon fill="none" stroke="black" points="824,-180.5 824,-199.5 904,-199.5 904,-180.5 824,-180.5"/>
<text text-anchor="middle" x="864" y="-187.5" font-family="Helvetica,sans-Serif" font-size="10.00">ft_hit_sphere</text>
</a>
</g>
</g>
<!-- Node12&#45;&gt;Node27 -->
<g id="edge28" class="edge">
<title>Node12&#45;&gt;Node27</title>
<path fill="none" stroke="midnightblue" d="M774.03,-218.41C788.97,-213.64 807.22,-207.81 823.3,-202.68"/>
<polygon fill="midnightblue" stroke="midnightblue" points="824.52,-205.96 832.98,-199.59 822.39,-199.29 824.52,-205.96"/>
</g>
<!-- Node14 -->
<g id="node14" class="node">
<title>Node14</title>
<g id="a_node14"><a xlink:href="hit__cylinder_8c.html#afb7b50ad2f9161c61fc1065975ec7cbf" target="_top" xlink:title="Calculates all four potential hits of a cylinder.">
<polygon fill="none" stroke="black" points="943,-446.5 943,-465.5 1052,-465.5 1052,-446.5 943,-446.5"/>
<text text-anchor="middle" x="997.5" y="-453.5" font-family="Helvetica,sans-Serif" font-size="10.00">ft_cy_calc_pot_hits</text>
</a>
</g>
</g>
<!-- Node13&#45;&gt;Node14 -->
<g id="edge13" class="edge">
<title>Node13&#45;&gt;Node14</title>
<path fill="none" stroke="midnightblue" d="M898.18,-427.59C915,-432.45 935.63,-438.41 953.63,-443.61"/>
<polygon fill="midnightblue" stroke="midnightblue" points="952.75,-447 963.33,-446.41 954.69,-440.28 952.75,-447"/>
</g>
<!-- Node15 -->
<g id="node15" class="node">
<title>Node15</title>
<g id="a_node15"><a xlink:href="hit__cylinder_8c.html#a40c47553b6ecb8ff1834e44c4c308e9b" target="_top" xlink:title="Determines if the potential hits are accurate.">
<polygon fill="none" stroke="black" points="945,-408.5 945,-427.5 1050,-427.5 1050,-408.5 945,-408.5"/>
<text text-anchor="middle" x="997.5" y="-415.5" font-family="Helvetica,sans-Serif" font-size="10.00">ft_cy_identify_hits</text>
</a>
</g>
</g>
<!-- Node13&#45;&gt;Node15 -->
<g id="edge14" class="edge">
<title>Node13&#45;&gt;Node15</title>
<path fill="none" stroke="midnightblue" d="M907.33,-418C915.95,-418 925.19,-418 934.33,-418"/>
<polygon fill="midnightblue" stroke="midnightblue" points="934.58,-421.5 944.58,-418 934.58,-414.5 934.58,-421.5"/>
</g>
<!-- Node16 -->
<g id="node16" class="node">
<title>Node16</title>
<g id="a_node16"><a xlink:href="hit__cylinder_8c.html#a72c52cc4f5c57fc6171137d9eb6c3500" target="_top" xlink:title="Overwrites the hit record &quot;rec&quot; with the new hit data found in the &quot;tmp&quot; hit record.">
<polygon fill="none" stroke="black" points="943,-484.5 943,-503.5 1052,-503.5 1052,-484.5 943,-484.5"/>
<text text-anchor="middle" x="997.5" y="-491.5" font-family="Helvetica,sans-Serif" font-size="10.00">ft_cy_set_hitrecord</text>
</a>
</g>
</g>
<!-- Node13&#45;&gt;Node16 -->
<g id="edge15" class="edge">
<title>Node13&#45;&gt;Node16</title>
<path fill="none" stroke="midnightblue" d="M883.96,-427.66C891.37,-431.73 899.81,-436.75 907,-442 924.53,-454.8 924.4,-463.81 943,-475 946.37,-477.03 949.99,-478.89 953.7,-480.58"/>
<polygon fill="midnightblue" stroke="midnightblue" points="952.44,-483.84 963.02,-484.44 955.12,-477.38 952.44,-483.84"/>
</g>
<!-- Node17 -->
<g id="node17" class="node">
<title>Node17</title>
<g id="a_node17"><a xlink:href="hit__manager_8h.html#a55af5b9bdf1ed07d3128dd3e15dd3e6b" target="_top" xlink:title="Checks if cylinder is not blocked by another object.">
<polygon fill="none" stroke="black" points="959,-370.5 959,-389.5 1036,-389.5 1036,-370.5 959,-370.5"/>
<text text-anchor="middle" x="997.5" y="-377.5" font-family="Helvetica,sans-Serif" font-size="10.00">ft_cy_visible</text>
</a>
</g>
</g>
<!-- Node13&#45;&gt;Node17 -->
<g id="edge16" class="edge">
<title>Node13&#45;&gt;Node17</title>
<path fill="none" stroke="midnightblue" d="M898.18,-408.41C915,-403.55 935.63,-397.59 953.63,-392.39"/>
<polygon fill="midnightblue" stroke="midnightblue" points="954.69,-395.72 963.33,-389.59 952.75,-389 954.69,-395.72"/>
</g>
<!-- Node13&#45;&gt;Node19 -->
<g id="edge18" class="edge">
<title>Node13&#45;&gt;Node19</title>
<path fill="none" stroke="midnightblue" d="M887.2,-427.56C894.15,-431.32 901.44,-436.16 907,-442 931.39,-467.63 916.43,-489.63 943,-513 944.91,-514.68 946.98,-516.21 949.16,-517.62"/>
<polygon fill="midnightblue" stroke="midnightblue" points="947.51,-520.71 957.97,-522.39 950.84,-514.55 947.51,-520.71"/>
</g>
<!-- Node18 -->
<g id="node18" class="node">
<title>Node18</title>
<g id="a_node18"><a xlink:href="utils_8h.html#add4de5ba94d3f8475d0a1c4ce8abd3aa" target="_top" xlink:title="Determines if value is surrounded by the interval.">
<polygon fill="none" stroke="black" points="1091,-332.5 1091,-351.5 1168,-351.5 1168,-332.5 1091,-332.5"/>
<text text-anchor="middle" x="1129.5" y="-339.5" font-family="Helvetica,sans-Serif" font-size="10.00">ft_surrounds</text>
</a>
</g>
</g>
<!-- Node17&#45;&gt;Node18 -->
<g id="edge17" class="edge">
<title>Node17&#45;&gt;Node18</title>
<path fill="none" stroke="midnightblue" d="M1031.3,-370.41C1047.78,-365.6 1067.94,-359.7 1085.63,-354.53"/>
<polygon fill="midnightblue" stroke="midnightblue" points="1087.09,-357.75 1095.71,-351.59 1085.13,-351.03 1087.09,-357.75"/>
</g>
<!-- Node20&#45;&gt;Node18 -->
<g id="edge24" class="edge">
<title>Node20&#45;&gt;Node18</title>
<path fill="none" stroke="midnightblue" d="M870.12,-237.65C880.81,-256.69 907.48,-298.93 943,-318 985.68,-340.91 1041.6,-345.27 1080.85,-344.92"/>
<polygon fill="midnightblue" stroke="midnightblue" points="1081.02,-348.42 1090.95,-344.72 1080.88,-341.42 1081.02,-348.42"/>
</g>
<!-- Node21 -->
<g id="node21" class="node">
<title>Node21</title>
<g id="a_node21"><a xlink:href="ray_8h.html#ac56e9ac7acfb4658469e190c022b0d63" target="_top" xlink:title="Represents a ray.">
<polygon fill="none" stroke="black" points="960,-142.5 960,-161.5 1035,-161.5 1035,-142.5 960,-142.5"/>
<text text-anchor="middle" x="997.5" y="-149.5" font-family="Helvetica,sans-Serif" font-size="10.00">ft_scale_ray</text>
</a>
</g>
</g>
<!-- Node20&#45;&gt;Node21 -->
<g id="edge20" class="edge">
<title>Node20&#45;&gt;Node21</title>
<path fill="none" stroke="midnightblue" d="M887.96,-218.33C894.22,-215.49 900.95,-212.28 907,-209 930.73,-196.16 956.6,-179.35 974.4,-167.32"/>
<polygon fill="midnightblue" stroke="midnightblue" points="976.63,-170.04 982.92,-161.51 972.68,-164.26 976.63,-170.04"/>
</g>
<!-- Node23 -->
<g id="node23" class="node">
<title>Node23</title>
<g id="a_node23"><a xlink:href="vec3_8h.html#ac80a1c20941c96a8fafad255dac59092" target="_top" xlink:title="Scale a vector.">
<polygon fill="none" stroke="black" points="1088,-104.5 1088,-123.5 1171,-123.5 1171,-104.5 1088,-104.5"/>
<text text-anchor="middle" x="1129.5" y="-111.5" font-family="Helvetica,sans-Serif" font-size="10.00">ft_vec3_scale</text>
</a>
</g>
</g>
<!-- Node20&#45;&gt;Node23 -->
<g id="edge26" class="edge">
<title>Node20&#45;&gt;Node23</title>
<path fill="none" stroke="midnightblue" d="M873.95,-237.61C887.4,-251.26 914.3,-275.63 943,-285 989.05,-300.03 1014,-315.05 1052,-285 1106.45,-241.94 1044.22,-186.88 1088,-133 1088.98,-131.79 1090.05,-130.66 1091.2,-129.6"/>
<polygon fill="midnightblue" stroke="midnightblue" points="1093.56,-132.21 1099.62,-123.52 1089.46,-126.54 1093.56,-132.21"/>
</g>
<!-- Node24 -->
<g id="node24" class="node">
<title>Node24</title>
<g id="a_node24"><a xlink:href="utils_8h.html#ae65513c75ce8a8538c22393e0af3ab1f" target="_top" xlink:title="Solves the given equation.">
<polygon fill="none" stroke="black" points="970,-256.5 970,-275.5 1025,-275.5 1025,-256.5 970,-256.5"/>
<text text-anchor="middle" x="997.5" y="-263.5" font-family="Helvetica,sans-Serif" font-size="10.00">ft_solve</text>
</a>
</g>
</g>
<!-- Node20&#45;&gt;Node24 -->
<g id="edge23" class="edge">
<title>Node20&#45;&gt;Node24</title>
<path fill="none" stroke="midnightblue" d="M898.18,-237.59C917.1,-243.06 940.83,-249.91 960.24,-255.52"/>
<polygon fill="midnightblue" stroke="midnightblue" points="959.37,-258.91 969.95,-258.33 961.31,-252.19 959.37,-258.91"/>
</g>
<!-- Node25 -->
<g id="node25" class="node">
<title>Node25</title>
<g id="a_node25"><a xlink:href="vec3_8h.html#a89fd02ae4b8b3602bc001664eb5e8f91" target="_top" xlink:title="Calculate the scalar product of two vectors.">
<polygon fill="none" stroke="black" points="961,-218.5 961,-237.5 1034,-237.5 1034,-218.5 961,-218.5"/>
<text text-anchor="middle" x="997.5" y="-225.5" font-family="Helvetica,sans-Serif" font-size="10.00">ft_vec3_dot</text>
</a>
</g>
</g>
<!-- Node20&#45;&gt;Node25 -->
<g id="edge25" class="edge">
<title>Node20&#45;&gt;Node25</title>
<path fill="none" stroke="midnightblue" d="M901.28,-228C916.5,-228 934.37,-228 950.49,-228"/>
<polygon fill="midnightblue" stroke="midnightblue" points="950.79,-231.5 960.79,-228 950.79,-224.5 950.79,-231.5"/>
</g>
<!-- Node20&#45;&gt;Node26 -->
<g id="edge27" class="edge">
<title>Node20&#45;&gt;Node26</title>
<path fill="none" stroke="midnightblue" d="M893.4,-218.48C898.34,-215.94 903.12,-212.81 907,-209 933.66,-182.8 921.96,-163.89 943,-133 953.08,-118.2 966.99,-103.51 978.1,-92.75"/>
<polygon fill="midnightblue" stroke="midnightblue" points="980.73,-95.08 985.59,-85.67 975.92,-89.99 980.73,-95.08"/>
</g>
<!-- Node22 -->
<g id="node22" class="node">
<title>Node22</title>
<g id="a_node22"><a xlink:href="vec3_8h.html#a73e2caf4c2a51ed954b7349c6be2b3c3" target="_top" xlink:title="Add two vectors.">
<polygon fill="none" stroke="black" points="1092,-142.5 1092,-161.5 1167,-161.5 1167,-142.5 1092,-142.5"/>
<text text-anchor="middle" x="1129.5" y="-149.5" font-family="Helvetica,sans-Serif" font-size="10.00">ft_vec3_add</text>
</a>
</g>
</g>
<!-- Node21&#45;&gt;Node22 -->
<g id="edge21" class="edge">
<title>Node21&#45;&gt;Node22</title>
<path fill="none" stroke="midnightblue" d="M1035.06,-152C1049.46,-152 1066.18,-152 1081.46,-152"/>
<polygon fill="midnightblue" stroke="midnightblue" points="1081.77,-155.5 1091.77,-152 1081.77,-148.5 1081.77,-155.5"/>
</g>
<!-- Node21&#45;&gt;Node23 -->
<g id="edge22" class="edge">
<title>Node21&#45;&gt;Node23</title>
<path fill="none" stroke="midnightblue" d="M1031.3,-142.41C1047.78,-137.6 1067.94,-131.7 1085.63,-126.53"/>
<polygon fill="midnightblue" stroke="midnightblue" points="1087.09,-129.75 1095.71,-123.59 1085.13,-123.03 1087.09,-129.75"/>
</g>
<!-- Node27&#45;&gt;Node18 -->
<g id="edge31" class="edge">
<title>Node27&#45;&gt;Node18</title>
<path fill="none" stroke="midnightblue" d="M904.18,-184.17C944.54,-180.28 1007.64,-180.25 1052,-209 1093.01,-235.58 1114.53,-292.37 1123.43,-322.42"/>
<polygon fill="midnightblue" stroke="midnightblue" points="1120.1,-323.48 1126.15,-332.18 1126.84,-321.6 1120.1,-323.48"/>
</g>
<!-- Node27&#45;&gt;Node21 -->
<g id="edge29" class="edge">
<title>Node27&#45;&gt;Node21</title>
<path fill="none" stroke="midnightblue" d="M898.18,-180.41C915,-175.55 935.63,-169.59 953.63,-164.39"/>
<polygon fill="midnightblue" stroke="midnightblue" points="954.69,-167.72 963.33,-161.59 952.75,-161 954.69,-167.72"/>
</g>
<!-- Node27&#45;&gt;Node23 -->
<g id="edge36" class="edge">
<title>Node27&#45;&gt;Node23</title>
<path fill="none" stroke="midnightblue" d="M883.96,-180.34C891.37,-176.27 899.81,-171.25 907,-166 924.53,-153.2 923.2,-141.89 943,-133 985.52,-113.91 1038.88,-110.28 1077.44,-110.76"/>
<polygon fill="midnightblue" stroke="midnightblue" points="1077.83,-114.27 1087.91,-111 1077.99,-107.27 1077.83,-114.27"/>
</g>
<!-- Node27&#45;&gt;Node24 -->
<g id="edge30" class="edge">
<title>Node27&#45;&gt;Node24</title>
<path fill="none" stroke="midnightblue" d="M890.3,-199.53C896.03,-202.2 901.91,-205.38 907,-209 925.95,-222.49 923.5,-234.31 943,-247 948.31,-250.46 954.33,-253.38 960.37,-255.81"/>
<polygon fill="midnightblue" stroke="midnightblue" points="959.18,-259.1 969.77,-259.24 961.58,-252.52 959.18,-259.1"/>
</g>
<!-- Node27&#45;&gt;Node25 -->
<g id="edge32" class="edge">
<title>Node27&#45;&gt;Node25</title>
<path fill="none" stroke="midnightblue" d="M898.18,-199.59C915,-204.45 935.63,-210.41 953.63,-215.61"/>
<polygon fill="midnightblue" stroke="midnightblue" points="952.75,-219 963.33,-218.41 954.69,-212.28 952.75,-219"/>
</g>
<!-- Node27&#45;&gt;Node26 -->
<g id="edge37" class="edge">
<title>Node27&#45;&gt;Node26</title>
<path fill="none" stroke="midnightblue" d="M887.1,-180.34C894.04,-176.57 901.36,-171.76 907,-166 930.39,-142.14 918.47,-122.69 943,-100 947.11,-96.2 951.92,-92.92 956.95,-90.12"/>
<polygon fill="midnightblue" stroke="midnightblue" points="958.71,-93.16 966.11,-85.58 955.6,-86.88 958.71,-93.16"/>
</g>
<!-- Node27&#45;&gt;Node28 -->
<g id="edge33" class="edge">
<title>Node27&#45;&gt;Node28</title>
<path fill="none" stroke="midnightblue" d="M868.02,-180.43C876.13,-156.22 900.71,-91.96 943,-57 945.03,-55.32 947.21,-53.79 949.5,-52.39"/>
<polygon fill="midnightblue" stroke="midnightblue" points="951.46,-55.32 958.73,-47.61 948.24,-49.1 951.46,-55.32"/>
</g>
<!-- Node28&#45;&gt;Node23 -->
<g id="edge35" class="edge">
<title>Node28&#45;&gt;Node23</title>
<path fill="none" stroke="midnightblue" d="M1030.29,-47.53C1037.6,-50.2 1045.22,-53.38 1052,-57 1073.25,-68.35 1095.05,-85.21 1109.91,-97.64"/>
<polygon fill="midnightblue" stroke="midnightblue" points="1107.93,-100.55 1117.8,-104.38 1112.47,-95.23 1107.93,-100.55"/>
</g>
<!-- Node29 -->
<g id="node29" class="node">
<title>Node29</title>
<g id="a_node29"><a xlink:href="vec3__linalgebra_8c.html#aa84621bd979d3b12b97908f653faf88e" target="_top" xlink:title="Calculate the absolute value of a vector.">
<polygon fill="none" stroke="black" points="1092.5,-28.5 1092.5,-47.5 1166.5,-47.5 1166.5,-28.5 1092.5,-28.5"/>
<text text-anchor="middle" x="1129.5" y="-35.5" font-family="Helvetica,sans-Serif" font-size="10.00">ft_vec3_abs</text>
</a>
</g>
</g>
<!-- Node28&#45;&gt;Node29 -->
<g id="edge34" class="edge">
<title>Node28&#45;&gt;Node29</title>
<path fill="none" stroke="midnightblue" d="M1039.28,-38C1052.81,-38 1067.97,-38 1081.9,-38"/>
<polygon fill="midnightblue" stroke="midnightblue" points="1082.27,-41.5 1092.27,-38 1082.27,-34.5 1082.27,-41.5"/>
</g>
</g>
</svg>
        <g id="navigator" transform="translate(0 0)" fill="#404254">
                <rect fill="#f2f5e9" fill-opacity="0.5" stroke="#606060" stroke-width=".5" x="0" y="0" width="60" height="60"/>
                <use id="zoomplus" xlink:href="#zoomPlus" x="17" y="9" onmousedown="handleZoom(evt,'in')"/>
                <use id="zoomminus" xlink:href="#zoomMin" x="42" y="9" onmousedown="handleZoom(evt,'out')"/>
                <use id="reset" xlink:href="#resetDef" x="30" y="36" onmousedown="handleReset()"/>
                <g id="arrowUp" xlink:href="#dirArrow" transform="translate(30 24)" onmousedown="handlePan(0,-1)">
                  <use xlink:href="#rim" fill="#404040">
                        <set attributeName="fill" to="#808080" begin="arrowUp.mouseover" end="arrowUp.mouseout"/>
                  </use>
                  <path fill="none" stroke="white" stroke-width="1.5" d="M0,-3.0v7 M-2.5,-0.5L0,-3.0L2.5,-0.5"/>
                </g>
                <g id="arrowRight" xlink:href="#dirArrow" transform="rotate(90) translate(36 -43)" onmousedown="handlePan(1,0)">
                  <use xlink:href="#rim" fill="#404040">
                        <set attributeName="fill" to="#808080" begin="arrowRight.mouseover" end="arrowRight.mouseout"/>
                  </use>
                  <path fill="none" stroke="white" stroke-width="1.5" d="M0,-3.0v7 M-2.5,-0.5L0,-3.0L2.5,-0.5"/>
                </g>
                <g id="arrowDown" xlink:href="#dirArrow" transform="rotate(180) translate(-30 -48)" onmousedown="handlePan(0,1)">
                  <use xlink:href="#rim" fill="#404040">
                        <set attributeName="fill" to="#808080" begin="arrowDown.mouseover" end="arrowDown.mouseout"/>
                  </use>
                  <path fill="none" stroke="white" stroke-width="1.5" d="M0,-3.0v7 M-2.5,-0.5L0,-3.0L2.5,-0.5"/>
                </g>
                <g id="arrowLeft" xlink:href="#dirArrow" transform="rotate(270) translate(-36 17)" onmousedown="handlePan(-1,0)">
                  <use xlink:href="#rim" fill="#404040">
                        <set attributeName="fill" to="#808080" begin="arrowLeft.mouseover" end="arrowLeft.mouseout"/>
                  </use>
                  <path fill="none" stroke="white" stroke-width="1.5" d="M0,-3.0v7 M-2.5,-0.5L0,-3.0L2.5,-0.5"/>
                </g>
        </g>
        <svg viewBox="0 0 15 15" width="100%" height="30px" preserveAspectRatio="xMaxYMin meet">
         <g id="arrow_out" transform="scale(0.3 0.3)">
          <a xlink:href="render__bonus_8h_a8d0bd9d9ea57df013aa96dee7558d4b3_cgraph_org.svg" target="_base">
           <rect id="button" ry="5" rx="5" y="6" x="6" height="38" width="38"
                fill="#f2f5e9" fill-opacity="0.5" stroke="#606060" stroke-width="1.0"/>
           <path id="arrow"
             d="M 11.500037,31.436501 C 11.940474,20.09759 22.043105,11.32322 32.158766,21.979434 L 37.068811,17.246167 C 37.068811,17.246167 37.088388,32 37.088388,32 L 22.160133,31.978069 C 22.160133,31.978069 26.997745,27.140456 26.997745,27.140456 C 18.528582,18.264221 13.291696,25.230495 11.500037,31.436501 z"
             style="fill:#404040;"/>
          </a>
         </g>
        </svg>
</svg>
