<?xml version="1.0" encoding="UTF-8" standalone="no"?>
<!DOCTYPE svg PUBLIC "-//W3C//DTD SVG 1.1//EN"
 "http://www.w3.org/Graphics/SVG/1.1/DTD/svg11.dtd">
<!-- Generated by graphviz version 2.43.0 (0)
 -->
<!-- Title: ft_keyhook_rot_vec Pages: 1 -->
<svg width="397pt" height="104pt"
 viewBox="0.00 0.00 397.00 104.00" xmlns="http://www.w3.org/2000/svg" xmlns:xlink="http://www.w3.org/1999/xlink">
<g id="graph0" class="graph" transform="scale(1 1) rotate(0) translate(4 100)">
<title>ft_keyhook_rot_vec</title>
<!-- Node1 -->
<g id="node1" class="node">
<title>Node1</title>
<g id="a_node1"><a xlink:title="Rotates a 3D vector with a keypress.">
<polygon fill="#bfbfbf" stroke="black" points="278,-38.5 278,-57.5 389,-57.5 389,-38.5 278,-38.5"/>
<text text-anchor="middle" x="333.5" y="-45.5" font-family="Helvetica,sans-Serif" font-size="10.00">ft_keyhook_rot_vec</text>
</a>
</g>
</g>
<!-- Node2 -->
<g id="node2" class="node">
<title>Node2</title>
<g id="a_node2"><a xlink:href="render__bonus_8h.html#a81fa5494e17be06ab12b226ff9dd7c2a" target="_top" xlink:title="Manipulates the active cone.">
<polygon fill="none" stroke="black" points="146,-76.5 146,-95.5 234,-95.5 234,-76.5 146,-76.5"/>
<text text-anchor="middle" x="190" y="-83.5" font-family="Helvetica,sans-Serif" font-size="10.00">ft_manip_cone</text>
</a>
</g>
</g>
<!-- Node1&#45;&gt;Node2 -->
<g id="edge1" class="edge">
<title>Node1&#45;&gt;Node2</title>
<path fill="none" stroke="midnightblue" d="M286.9,-60.25C267.39,-65.48 244.96,-71.51 226.7,-76.41"/>
<polygon fill="midnightblue" stroke="midnightblue" points="288.04,-63.56 296.79,-57.59 286.23,-56.8 288.04,-63.56"/>
</g>
<!-- Node4 -->
<g id="node4" class="node">
<title>Node4</title>
<g id="a_node4"><a xlink:href="render_8h.html#a2737927d8cc8ff5dc3bd94b3e11fc1a9" target="_top" xlink:title="Manipulates the active cylinder.">
<polygon fill="none" stroke="black" points="138,-38.5 138,-57.5 242,-57.5 242,-38.5 138,-38.5"/>
<text text-anchor="middle" x="190" y="-45.5" font-family="Helvetica,sans-Serif" font-size="10.00">ft_manip_cylinder</text>
</a>
</g>
</g>
<!-- Node1&#45;&gt;Node4 -->
<g id="edge3" class="edge">
<title>Node1&#45;&gt;Node4</title>
<path fill="none" stroke="midnightblue" d="M267.56,-48C259.09,-48 250.51,-48 242.31,-48"/>
<polygon fill="midnightblue" stroke="midnightblue" points="267.79,-51.5 277.79,-48 267.79,-44.5 267.79,-51.5"/>
</g>
<!-- Node5 -->
<g id="node5" class="node">
<title>Node5</title>
<g id="a_node5"><a xlink:href="render_8h.html#a2b397fc2e0dd418d497c05b3dff894f1" target="_top" xlink:title="Manipulates the active plane.">
<polygon fill="none" stroke="black" points="144,-0.5 144,-19.5 236,-19.5 236,-0.5 144,-0.5"/>
<text text-anchor="middle" x="190" y="-7.5" font-family="Helvetica,sans-Serif" font-size="10.00">ft_manip_plane</text>
</a>
</g>
</g>
<!-- Node1&#45;&gt;Node5 -->
<g id="edge5" class="edge">
<title>Node1&#45;&gt;Node5</title>
<path fill="none" stroke="midnightblue" d="M286.9,-35.75C267.39,-30.52 244.96,-24.49 226.7,-19.59"/>
<polygon fill="midnightblue" stroke="midnightblue" points="286.23,-39.2 296.79,-38.41 288.04,-32.44 286.23,-39.2"/>
</g>
<!-- Node3 -->
<g id="node3" class="node">
<title>Node3</title>
<g id="a_node3"><a xlink:href="render_8h.html#a58cfb6d04ac9120cc228cbc5411b2005" target="_top" xlink:title="Manipulates the active hittable.">
<polygon fill="none" stroke="black" points="0,-38.5 0,-57.5 102,-57.5 102,-38.5 0,-38.5"/>
<text text-anchor="middle" x="51" y="-45.5" font-family="Helvetica,sans-Serif" font-size="10.00">ft_manip_hittable</text>
</a>
</g>
</g>
<!-- Node2&#45;&gt;Node3 -->
<g id="edge2" class="edge">
<title>Node2&#45;&gt;Node3</title>
<path fill="none" stroke="midnightblue" d="M144.59,-73.68C125.77,-68.46 104.16,-62.47 86.56,-57.59"/>
<polygon fill="midnightblue" stroke="midnightblue" points="143.86,-77.11 154.43,-76.41 145.73,-70.37 143.86,-77.11"/>
</g>
<!-- Node4&#45;&gt;Node3 -->
<g id="edge4" class="edge">
<title>Node4&#45;&gt;Node3</title>
<path fill="none" stroke="midnightblue" d="M127.96,-48C119.33,-48 110.54,-48 102.14,-48"/>
<polygon fill="midnightblue" stroke="midnightblue" points="127.99,-51.5 137.99,-48 127.99,-44.5 127.99,-51.5"/>
</g>
<!-- Node5&#45;&gt;Node3 -->
<g id="edge6" class="edge">
<title>Node5&#45;&gt;Node3</title>
<path fill="none" stroke="midnightblue" d="M144.59,-22.32C125.77,-27.54 104.16,-33.53 86.56,-38.41"/>
<polygon fill="midnightblue" stroke="midnightblue" points="145.73,-25.63 154.43,-19.59 143.86,-18.89 145.73,-25.63"/>
</g>
</g>
</svg>
