<?xml version="1.0" encoding="UTF-8" standalone="no"?>
<!DOCTYPE svg PUBLIC "-//W3C//DTD SVG 1.1//EN"
 "http://www.w3.org/Graphics/SVG/1.1/DTD/svg11.dtd">
<!-- Generated by graphviz version 2.43.0 (0)
 -->
<!-- Title: ft_mouse_hook_rot_cam Pages: 1 -->
<svg width="649pt" height="370pt"
 viewBox="0.00 0.00 649.00 370.00" xmlns="http://www.w3.org/2000/svg" xmlns:xlink="http://www.w3.org/1999/xlink">
<g id="graph0" class="graph" transform="scale(1 1) rotate(0) translate(4 366)">
<title>ft_mouse_hook_rot_cam</title>
<!-- Node1 -->
<g id="node1" class="node">
<title>Node1</title>
<g id="a_node1"><a xlink:title="Rotates the camera with the mouse.">
<polygon fill="#bfbfbf" stroke="black" points="0,-133.5 0,-152.5 136,-152.5 136,-133.5 0,-133.5"/>
<text text-anchor="middle" x="68" y="-140.5" font-family="Helvetica,sans-Serif" font-size="10.00">ft_mouse_hook_rot_cam</text>
</a>
</g>
</g>
<!-- Node2 -->
<g id="node2" class="node">
<title>Node2</title>
<g id="a_node2"><a xlink:href="camera_8h.html#a02ed3f7206927a02c44eab5f5aba26e1" target="_top" xlink:title="Calculates basis vectors u, v, w.">
<polygon fill="none" stroke="black" points="172,-304.5 172,-323.5 316,-323.5 316,-304.5 172,-304.5"/>
<text text-anchor="middle" x="244" y="-311.5" font-family="Helvetica,sans-Serif" font-size="10.00">ft_cam_calc_base_vectors</text>
</a>
</g>
</g>
<!-- Node1&#45;&gt;Node2 -->
<g id="edge1" class="edge">
<title>Node1&#45;&gt;Node2</title>
<path fill="none" stroke="midnightblue" d="M78.85,-152.68C107.33,-180.67 189.97,-261.88 225.94,-297.23"/>
<polygon fill="midnightblue" stroke="midnightblue" points="223.67,-299.91 233.25,-304.42 228.58,-294.92 223.67,-299.91"/>
</g>
<!-- Node5 -->
<g id="node5" class="node">
<title>Node5</title>
<g id="a_node5"><a xlink:href="camera_8h.html#a525b3073d8f263afa7d81f70fa4b491d" target="_top" xlink:title="Calculates all pixel positions in pixel grid.">
<polygon fill="none" stroke="black" points="185.5,-152.5 185.5,-171.5 302.5,-171.5 302.5,-152.5 185.5,-152.5"/>
<text text-anchor="middle" x="244" y="-159.5" font-family="Helvetica,sans-Serif" font-size="10.00">ft_cam_calc_pix_pos</text>
</a>
</g>
</g>
<!-- Node1&#45;&gt;Node5 -->
<g id="edge4" class="edge">
<title>Node1&#45;&gt;Node5</title>
<path fill="none" stroke="midnightblue" d="M136.27,-150.35C149.03,-151.74 162.38,-153.2 175.15,-154.59"/>
<polygon fill="midnightblue" stroke="midnightblue" points="174.92,-158.09 185.24,-155.69 175.68,-151.13 174.92,-158.09"/>
</g>
<!-- Node7 -->
<g id="node7" class="node">
<title>Node7</title>
<g id="a_node7"><a xlink:href="camera_8h.html#a96132dcb4eac578fbee24bbf591fe090" target="_top" xlink:title="Calculates the pixel grid parameters of the viewport.">
<polygon fill="none" stroke="black" points="180.5,-209.5 180.5,-228.5 307.5,-228.5 307.5,-209.5 180.5,-209.5"/>
<text text-anchor="middle" x="244" y="-216.5" font-family="Helvetica,sans-Serif" font-size="10.00">ft_cam_calc_pixel_grid</text>
</a>
</g>
</g>
<!-- Node1&#45;&gt;Node7 -->
<g id="edge7" class="edge">
<title>Node1&#45;&gt;Node7</title>
<path fill="none" stroke="midnightblue" d="M91.04,-152.63C121.63,-165.99 177.12,-190.23 211.92,-205.42"/>
<polygon fill="midnightblue" stroke="midnightblue" points="210.58,-208.66 221.14,-209.45 213.38,-202.24 210.58,-208.66"/>
</g>
<!-- Node9 -->
<g id="node9" class="node">
<title>Node9</title>
<g id="a_node9"><a xlink:href="render__bit__field_8h.html#ab984d9cbc7c648ef4481b9158b27da30" target="_top" xlink:title="Sets bit in bit field.">
<polygon fill="none" stroke="black" points="204,-38.5 204,-57.5 284,-57.5 284,-38.5 204,-38.5"/>
<text text-anchor="middle" x="244" y="-45.5" font-family="Helvetica,sans-Serif" font-size="10.00">ft_option_set</text>
</a>
</g>
</g>
<!-- Node1&#45;&gt;Node9 -->
<g id="edge11" class="edge">
<title>Node1&#45;&gt;Node9</title>
<path fill="none" stroke="midnightblue" d="M79.25,-133.34C96.86,-117.27 134.55,-85.02 172,-67 178.88,-63.69 186.41,-60.89 193.93,-58.54"/>
<polygon fill="midnightblue" stroke="midnightblue" points="195.1,-61.85 203.74,-55.71 193.16,-55.12 195.1,-61.85"/>
</g>
<!-- Node10 -->
<g id="node10" class="node">
<title>Node10</title>
<g id="a_node10"><a xlink:href="mat4__vec3_8h.html#a211f9d6535bb54bea2299ee5ea8a54a0" target="_top" xlink:title="Rotates a 3D vector around the x&#45;axis.">
<polygon fill="none" stroke="black" points="195,-76.5 195,-95.5 293,-95.5 293,-76.5 195,-76.5"/>
<text text-anchor="middle" x="244" y="-83.5" font-family="Helvetica,sans-Serif" font-size="10.00">ft_vec3_rotate_x</text>
</a>
</g>
</g>
<!-- Node1&#45;&gt;Node10 -->
<g id="edge12" class="edge">
<title>Node1&#45;&gt;Node10</title>
<path fill="none" stroke="midnightblue" d="M92.92,-133.46C113.66,-125.37 144.57,-113.71 172,-105 179.44,-102.64 187.38,-100.32 195.15,-98.16"/>
<polygon fill="midnightblue" stroke="midnightblue" points="196.13,-101.52 204.86,-95.52 194.29,-94.77 196.13,-101.52"/>
</g>
<!-- Node17 -->
<g id="node17" class="node">
<title>Node17</title>
<g id="a_node17"><a xlink:href="mat4__vec3_8h.html#ac8a4ca6fb927e3746e7129f8eb04aa46" target="_top" xlink:title="Rotates a 3D vector around the y&#45;axis.">
<polygon fill="none" stroke="black" points="195,-114.5 195,-133.5 293,-133.5 293,-114.5 195,-114.5"/>
<text text-anchor="middle" x="244" y="-121.5" font-family="Helvetica,sans-Serif" font-size="10.00">ft_vec3_rotate_y</text>
</a>
</g>
</g>
<!-- Node1&#45;&gt;Node17 -->
<g id="edge20" class="edge">
<title>Node1&#45;&gt;Node17</title>
<path fill="none" stroke="midnightblue" d="M136.27,-135.65C152.28,-133.91 169.22,-132.06 184.78,-130.36"/>
<polygon fill="midnightblue" stroke="midnightblue" points="185.22,-133.83 194.78,-129.27 184.46,-126.87 185.22,-133.83"/>
</g>
<!-- Node3 -->
<g id="node3" class="node">
<title>Node3</title>
<g id="a_node3"><a xlink:href="vec3_8h.html#a19bc1d17592698776e89a5093110320c" target="_top" xlink:title="Calculate the cross product of two vectors.">
<polygon fill="none" stroke="black" points="378.5,-342.5 378.5,-361.5 461.5,-361.5 461.5,-342.5 378.5,-342.5"/>
<text text-anchor="middle" x="420" y="-349.5" font-family="Helvetica,sans-Serif" font-size="10.00">ft_vec3_cross</text>
</a>
</g>
</g>
<!-- Node2&#45;&gt;Node3 -->
<g id="edge2" class="edge">
<title>Node2&#45;&gt;Node3</title>
<path fill="none" stroke="midnightblue" d="M288.91,-323.59C313.06,-328.86 343.15,-335.44 368.3,-340.93"/>
<polygon fill="midnightblue" stroke="midnightblue" points="367.87,-344.42 378.39,-343.13 369.37,-337.58 367.87,-344.42"/>
</g>
<!-- Node4 -->
<g id="node4" class="node">
<title>Node4</title>
<g id="a_node4"><a xlink:href="vec3_8h.html#ac80a1c20941c96a8fafad255dac59092" target="_top" xlink:title="Scale a vector.">
<polygon fill="none" stroke="black" points="541,-209.5 541,-228.5 624,-228.5 624,-209.5 541,-209.5"/>
<text text-anchor="middle" x="582.5" y="-216.5" font-family="Helvetica,sans-Serif" font-size="10.00">ft_vec3_scale</text>
</a>
</g>
</g>
<!-- Node2&#45;&gt;Node4 -->
<g id="edge3" class="edge">
<title>Node2&#45;&gt;Node4</title>
<path fill="none" stroke="midnightblue" d="M316.18,-309.72C365.59,-305.05 432.3,-295.29 488,-275 514.89,-265.2 542.64,-247.43 560.85,-234.53"/>
<polygon fill="midnightblue" stroke="midnightblue" points="562.93,-237.35 568.98,-228.65 558.83,-231.68 562.93,-237.35"/>
</g>
<!-- Node5&#45;&gt;Node4 -->
<g id="edge6" class="edge">
<title>Node5&#45;&gt;Node4</title>
<path fill="none" stroke="midnightblue" d="M302.72,-161.55C352.45,-162.34 425.81,-166.31 488,-181 510.84,-186.4 535.37,-196.55 553.57,-205"/>
<polygon fill="midnightblue" stroke="midnightblue" points="552.2,-208.22 562.73,-209.36 555.2,-201.9 552.2,-208.22"/>
</g>
<!-- Node6 -->
<g id="node6" class="node">
<title>Node6</title>
<g id="a_node6"><a xlink:href="vec3_8h.html#a73e2caf4c2a51ed954b7349c6be2b3c3" target="_top" xlink:title="Add two vectors.">
<polygon fill="none" stroke="black" points="382.5,-190.5 382.5,-209.5 457.5,-209.5 457.5,-190.5 382.5,-190.5"/>
<text text-anchor="middle" x="420" y="-197.5" font-family="Helvetica,sans-Serif" font-size="10.00">ft_vec3_add</text>
</a>
</g>
</g>
<!-- Node5&#45;&gt;Node6 -->
<g id="edge5" class="edge">
<title>Node5&#45;&gt;Node6</title>
<path fill="none" stroke="midnightblue" d="M288.91,-171.59C314.42,-177.16 346.54,-184.17 372.48,-189.84"/>
<polygon fill="midnightblue" stroke="midnightblue" points="371.93,-193.3 382.45,-192.02 373.43,-186.46 371.93,-193.3"/>
</g>
<!-- Node7&#45;&gt;Node4 -->
<g id="edge9" class="edge">
<title>Node7&#45;&gt;Node4</title>
<path fill="none" stroke="midnightblue" d="M265.35,-228.59C286.47,-237.97 320.72,-251.61 352,-257 411.57,-267.26 428.68,-268.59 488,-257 511.47,-252.41 536.49,-241.92 554.73,-233.12"/>
<polygon fill="midnightblue" stroke="midnightblue" points="556.47,-236.16 563.87,-228.58 553.35,-229.89 556.47,-236.16"/>
</g>
<!-- Node7&#45;&gt;Node6 -->
<g id="edge8" class="edge">
<title>Node7&#45;&gt;Node6</title>
<path fill="none" stroke="midnightblue" d="M307.82,-212.14C329.12,-209.81 352.53,-207.26 372.35,-205.09"/>
<polygon fill="midnightblue" stroke="midnightblue" points="372.79,-208.57 382.35,-204 372.03,-201.61 372.79,-208.57"/>
</g>
<!-- Node8 -->
<g id="node8" class="node">
<title>Node8</title>
<g id="a_node8"><a xlink:href="vec3_8h.html#a54e984820b74bd803de43ce36c8cb292" target="_top" xlink:title="Subtract two vectors.">
<polygon fill="none" stroke="black" points="383,-228.5 383,-247.5 457,-247.5 457,-228.5 383,-228.5"/>
<text text-anchor="middle" x="420" y="-235.5" font-family="Helvetica,sans-Serif" font-size="10.00">ft_vec3_sub</text>
</a>
</g>
</g>
<!-- Node7&#45;&gt;Node8 -->
<g id="edge10" class="edge">
<title>Node7&#45;&gt;Node8</title>
<path fill="none" stroke="midnightblue" d="M307.82,-225.86C329.29,-228.2 352.89,-230.78 372.81,-232.96"/>
<polygon fill="midnightblue" stroke="midnightblue" points="372.53,-236.45 382.85,-234.05 373.29,-229.49 372.53,-236.45"/>
</g>
<!-- Node11 -->
<g id="node11" class="node">
<title>Node11</title>
<g id="a_node11"><a xlink:href="mat4_8h.html#a96153e828811e816c64e7d0e19fcf654" target="_top" xlink:title="Creates a 4x4 transformation matrix for x&#45;axis rotation.">
<polygon fill="none" stroke="black" points="352,-0.5 352,-19.5 488,-19.5 488,-0.5 352,-0.5"/>
<text text-anchor="middle" x="420" y="-7.5" font-family="Helvetica,sans-Serif" font-size="10.00">ft_mat4_create_rotate_x</text>
</a>
</g>
</g>
<!-- Node10&#45;&gt;Node11 -->
<g id="edge13" class="edge">
<title>Node10&#45;&gt;Node11</title>
<path fill="none" stroke="midnightblue" d="M293.06,-77.02C301.04,-74.45 308.98,-71.18 316,-67 335.99,-55.1 332.1,-41.05 352,-29 355.61,-26.82 359.47,-24.87 363.47,-23.15"/>
<polygon fill="midnightblue" stroke="midnightblue" points="364.86,-26.37 372.93,-19.51 362.34,-19.83 364.86,-26.37"/>
</g>
<!-- Node14 -->
<g id="node14" class="node">
<title>Node14</title>
<g id="a_node14"><a xlink:href="mat4__vec3__rotate_8c.html#a53ea797ed37dea591e9e86121a849aca" target="_top" xlink:title="Multiplies a 4x4 matrix with a 3D vector.">
<polygon fill="none" stroke="black" points="365,-38.5 365,-57.5 475,-57.5 475,-38.5 365,-38.5"/>
<text text-anchor="middle" x="420" y="-45.5" font-family="Helvetica,sans-Serif" font-size="10.00">ft_vec3_mult_mat4</text>
</a>
</g>
</g>
<!-- Node10&#45;&gt;Node14 -->
<g id="edge16" class="edge">
<title>Node10&#45;&gt;Node14</title>
<path fill="none" stroke="midnightblue" d="M288.91,-76.41C312.18,-71.33 340.95,-65.04 365.52,-59.68"/>
<polygon fill="midnightblue" stroke="midnightblue" points="366.39,-63.07 375.41,-57.52 364.89,-56.23 366.39,-63.07"/>
</g>
<!-- Node15 -->
<g id="node15" class="node">
<title>Node15</title>
<g id="a_node15"><a xlink:href="vec3_8h.html#a38fe500bd27847b866b9630146e43250" target="_top" xlink:title="Normalise a vector.">
<polygon fill="none" stroke="black" points="378.5,-114.5 378.5,-133.5 461.5,-133.5 461.5,-114.5 378.5,-114.5"/>
<text text-anchor="middle" x="420" y="-121.5" font-family="Helvetica,sans-Serif" font-size="10.00">ft_vec3_norm</text>
</a>
</g>
</g>
<!-- Node10&#45;&gt;Node15 -->
<g id="edge17" class="edge">
<title>Node10&#45;&gt;Node15</title>
<path fill="none" stroke="midnightblue" d="M288.91,-95.59C313.06,-100.86 343.15,-107.44 368.3,-112.93"/>
<polygon fill="midnightblue" stroke="midnightblue" points="367.87,-116.42 378.39,-115.13 369.37,-109.58 367.87,-116.42"/>
</g>
<!-- Node12 -->
<g id="node12" class="node">
<title>Node12</title>
<g id="a_node12"><a xlink:href="utils_8h.html#a7d1328722f9dc6edd652f7c732856ae9" target="_top" xlink:title="Transforms degrees into radian.">
<polygon fill="none" stroke="black" points="526,-10.5 526,-29.5 639,-29.5 639,-10.5 526,-10.5"/>
<text text-anchor="middle" x="582.5" y="-17.5" font-family="Helvetica,sans-Serif" font-size="10.00">ft_degree_to_radian</text>
</a>
</g>
</g>
<!-- Node11&#45;&gt;Node12 -->
<g id="edge14" class="edge">
<title>Node11&#45;&gt;Node12</title>
<path fill="none" stroke="midnightblue" d="M488.14,-14.18C497.25,-14.75 506.59,-15.33 515.68,-15.9"/>
<polygon fill="midnightblue" stroke="midnightblue" points="515.61,-19.4 525.81,-16.53 516.05,-12.41 515.61,-19.4"/>
</g>
<!-- Node13 -->
<g id="node13" class="node">
<title>Node13</title>
<g id="a_node13"><a xlink:href="mat4_8h.html#ad20d2d0fd3d7862225345a79b062f03a" target="_top" xlink:title="Returns a 4x4 identity matrix.">
<polygon fill="none" stroke="black" points="524,-67.5 524,-86.5 641,-86.5 641,-67.5 524,-67.5"/>
<text text-anchor="middle" x="582.5" y="-74.5" font-family="Helvetica,sans-Serif" font-size="10.00">ft_mat4_set_identity</text>
</a>
</g>
</g>
<!-- Node11&#45;&gt;Node13 -->
<g id="edge15" class="edge">
<title>Node11&#45;&gt;Node13</title>
<path fill="none" stroke="midnightblue" d="M459.7,-19.57C469.08,-22.27 479,-25.45 488,-29 512,-38.45 538,-52.1 556.48,-62.43"/>
<polygon fill="midnightblue" stroke="midnightblue" points="554.98,-65.6 565.41,-67.49 558.43,-59.51 554.98,-65.6"/>
</g>
<!-- Node15&#45;&gt;Node4 -->
<g id="edge19" class="edge">
<title>Node15&#45;&gt;Node4</title>
<path fill="none" stroke="midnightblue" d="M453.9,-133.55C465.04,-137.36 477.35,-142.23 488,-148 516.18,-163.28 545.02,-186.58 563.08,-202.28"/>
<polygon fill="midnightblue" stroke="midnightblue" points="561.22,-205.31 571.03,-209.31 565.86,-200.06 561.22,-205.31"/>
</g>
<!-- Node16 -->
<g id="node16" class="node">
<title>Node16</title>
<g id="a_node16"><a xlink:href="vec3__linalgebra_8c.html#aa84621bd979d3b12b97908f653faf88e" target="_top" xlink:title="Calculate the absolute value of a vector.">
<polygon fill="none" stroke="black" points="545.5,-114.5 545.5,-133.5 619.5,-133.5 619.5,-114.5 545.5,-114.5"/>
<text text-anchor="middle" x="582.5" y="-121.5" font-family="Helvetica,sans-Serif" font-size="10.00">ft_vec3_abs</text>
</a>
</g>
</g>
<!-- Node15&#45;&gt;Node16 -->
<g id="edge18" class="edge">
<title>Node15&#45;&gt;Node16</title>
<path fill="none" stroke="midnightblue" d="M461.5,-124C483.99,-124 512.05,-124 535.38,-124"/>
<polygon fill="midnightblue" stroke="midnightblue" points="535.39,-127.5 545.39,-124 535.39,-120.5 535.39,-127.5"/>
</g>
<!-- Node17&#45;&gt;Node14 -->
<g id="edge24" class="edge">
<title>Node17&#45;&gt;Node14</title>
<path fill="none" stroke="midnightblue" d="M293.06,-115.02C301.04,-112.45 308.98,-109.18 316,-105 335.99,-93.1 332.1,-79.05 352,-67 355.61,-64.82 359.47,-62.87 363.47,-61.15"/>
<polygon fill="midnightblue" stroke="midnightblue" points="364.86,-64.37 372.93,-57.51 362.34,-57.83 364.86,-64.37"/>
</g>
<!-- Node17&#45;&gt;Node15 -->
<g id="edge25" class="edge">
<title>Node17&#45;&gt;Node15</title>
<path fill="none" stroke="midnightblue" d="M293.01,-124C316.32,-124 344.33,-124 368.02,-124"/>
<polygon fill="midnightblue" stroke="midnightblue" points="368.22,-127.5 378.22,-124 368.22,-120.5 368.22,-127.5"/>
</g>
<!-- Node18 -->
<g id="node18" class="node">
<title>Node18</title>
<g id="a_node18"><a xlink:href="mat4_8h.html#a3f33a47cb6e2a560791c9be852f27b35" target="_top" xlink:title="Creates a 4x4 transformation matrix for y&#45;axis rotation.">
<polygon fill="none" stroke="black" points="352,-76.5 352,-95.5 488,-95.5 488,-76.5 352,-76.5"/>
<text text-anchor="middle" x="420" y="-83.5" font-family="Helvetica,sans-Serif" font-size="10.00">ft_mat4_create_rotate_y</text>
</a>
</g>
</g>
<!-- Node17&#45;&gt;Node18 -->
<g id="edge21" class="edge">
<title>Node17&#45;&gt;Node18</title>
<path fill="none" stroke="midnightblue" d="M288.91,-114.41C312.18,-109.33 340.95,-103.04 365.52,-97.68"/>
<polygon fill="midnightblue" stroke="midnightblue" points="366.39,-101.07 375.41,-95.52 364.89,-94.23 366.39,-101.07"/>
</g>
<!-- Node18&#45;&gt;Node12 -->
<g id="edge22" class="edge">
<title>Node18&#45;&gt;Node12</title>
<path fill="none" stroke="midnightblue" d="M459.33,-76.48C468.81,-73.76 478.87,-70.55 488,-67 511.65,-57.8 537.32,-44.65 555.77,-34.6"/>
<polygon fill="midnightblue" stroke="midnightblue" points="557.65,-37.56 564.71,-29.66 554.27,-31.43 557.65,-37.56"/>
</g>
<!-- Node18&#45;&gt;Node13 -->
<g id="edge23" class="edge">
<title>Node18&#45;&gt;Node13</title>
<path fill="none" stroke="midnightblue" d="M488.14,-82.24C496.56,-81.76 505.19,-81.28 513.63,-80.81"/>
<polygon fill="midnightblue" stroke="midnightblue" points="514.02,-84.29 523.8,-80.24 513.62,-77.3 514.02,-84.29"/>
</g>
</g>
</svg>
