<?xml version="1.0" encoding="UTF-8" standalone="no"?>
<!DOCTYPE svg PUBLIC "-//W3C//DTD SVG 1.1//EN"
 "http://www.w3.org/Graphics/SVG/1.1/DTD/svg11.dtd">
<!-- Generated by graphviz version 2.43.0 (0)
 -->
<!-- Title: inc/render.h Pages: 1 -->
<svg width="2811pt" height="162pt"
 viewBox="0.00 0.00 2811.00 162.00" xmlns="http://www.w3.org/2000/svg" xmlns:xlink="http://www.w3.org/1999/xlink">
<g id="graph0" class="graph" transform="scale(1 1) rotate(0) translate(4 158)">
<title>inc/render.h</title>
<!-- Node1 -->
<g id="node1" class="node">
<title>Node1</title>
<g id="a_node1"><a xlink:title=" ">
<polygon fill="#bfbfbf" stroke="black" points="1827.5,-134.5 1827.5,-153.5 1901.5,-153.5 1901.5,-134.5 1827.5,-134.5"/>
<text text-anchor="middle" x="1864.5" y="-141.5" font-family="Helvetica,sans-Serif" font-size="10.00">inc/render.h</text>
</a>
</g>
</g>
<!-- Node2 -->
<g id="node2" class="node">
<title>Node2</title>
<g id="a_node2"><a xlink:href="menu__put_8h.html" target="_top" xlink:title=" ">
<polygon fill="none" stroke="black" points="738.5,-73 738.5,-92 830.5,-92 830.5,-73 738.5,-73"/>
<text text-anchor="middle" x="784.5" y="-80" font-family="Helvetica,sans-Serif" font-size="10.00">inc/menu_put.h</text>
</a>
</g>
</g>
<!-- Node1&#45;&gt;Node2 -->
<g id="edge1" class="edge">
<title>Node1&#45;&gt;Node2</title>
<path fill="none" stroke="midnightblue" d="M1817.2,-140.39C1638.68,-130.56 1007.01,-95.76 830.58,-86.04"/>
<polygon fill="midnightblue" stroke="midnightblue" points="1817.15,-143.9 1827.32,-140.95 1817.53,-136.91 1817.15,-143.9"/>
</g>
<!-- Node13 -->
<g id="node13" class="node">
<title>Node13</title>
<g id="a_node13"><a xlink:href="mini_r_t_8h.html" target="_top" xlink:title=" ">
<polygon fill="none" stroke="black" points="1131.5,-73 1131.5,-92 1207.5,-92 1207.5,-73 1131.5,-73"/>
<text text-anchor="middle" x="1169.5" y="-80" font-family="Helvetica,sans-Serif" font-size="10.00">inc/miniRT.h</text>
</a>
</g>
</g>
<!-- Node1&#45;&gt;Node13 -->
<g id="edge12" class="edge">
<title>Node1&#45;&gt;Node13</title>
<path fill="none" stroke="midnightblue" d="M1817.01,-143.42C1709.25,-143.55 1438.32,-139.35 1216.5,-98 1208.94,-96.59 1200.89,-94.38 1193.63,-92.11"/>
<polygon fill="midnightblue" stroke="midnightblue" points="1817.24,-146.91 1827.23,-143.39 1817.22,-139.91 1817.24,-146.91"/>
</g>
<!-- Node15 -->
<g id="node15" class="node">
<title>Node15</title>
<g id="a_node15"><a xlink:href="render__draw_8c.html" target="_top" xlink:title=" ">
<polygon fill="none" stroke="black" points="1225.5,-73 1225.5,-92 1327.5,-92 1327.5,-73 1225.5,-73"/>
<text text-anchor="middle" x="1276.5" y="-80" font-family="Helvetica,sans-Serif" font-size="10.00">src/render_draw.c</text>
</a>
</g>
</g>
<!-- Node1&#45;&gt;Node15 -->
<g id="edge14" class="edge">
<title>Node1&#45;&gt;Node15</title>
<path fill="none" stroke="midnightblue" d="M1817.03,-141.3C1724.34,-137.47 1512.97,-126.19 1337.5,-98 1328.04,-96.48 1317.88,-94.29 1308.61,-92.07"/>
<polygon fill="midnightblue" stroke="midnightblue" points="1817.08,-144.81 1827.21,-141.71 1817.36,-137.82 1817.08,-144.81"/>
</g>
<!-- Node16 -->
<g id="node16" class="node">
<title>Node16</title>
<g id="a_node16"><a xlink:href="render__init__mlx_8c.html" target="_top" xlink:title=" ">
<polygon fill="none" stroke="black" points="1346,-73 1346,-92 1465,-92 1465,-73 1346,-73"/>
<text text-anchor="middle" x="1405.5" y="-80" font-family="Helvetica,sans-Serif" font-size="10.00">src/render_init_mlx.c</text>
</a>
</g>
</g>
<!-- Node1&#45;&gt;Node16 -->
<g id="edge15" class="edge">
<title>Node1&#45;&gt;Node16</title>
<path fill="none" stroke="midnightblue" d="M1816.91,-138.94C1743.24,-132.32 1597.29,-117.94 1474.5,-98 1464.23,-96.33 1453.17,-94.17 1442.98,-92.03"/>
<polygon fill="midnightblue" stroke="midnightblue" points="1816.97,-142.45 1827.24,-139.85 1817.59,-135.48 1816.97,-142.45"/>
</g>
<!-- Node17 -->
<g id="node17" class="node">
<title>Node17</title>
<g id="a_node17"><a xlink:href="render__keyhook__camera_8c.html" target="_top" xlink:title=" ">
<polygon fill="none" stroke="black" points="1483.5,-67.5 1483.5,-97.5 1595.5,-97.5 1595.5,-67.5 1483.5,-67.5"/>
<text text-anchor="start" x="1491.5" y="-85.5" font-family="Helvetica,sans-Serif" font-size="10.00">src/render_keyhook</text>
<text text-anchor="middle" x="1539.5" y="-74.5" font-family="Helvetica,sans-Serif" font-size="10.00">_camera.c</text>
</a>
</g>
</g>
<!-- Node1&#45;&gt;Node17 -->
<g id="edge16" class="edge">
<title>Node1&#45;&gt;Node17</title>
<path fill="none" stroke="midnightblue" d="M1817.4,-135.55C1765.22,-127.13 1678.65,-112.68 1604.5,-98 1601.66,-97.44 1598.76,-96.85 1595.84,-96.24"/>
<polygon fill="midnightblue" stroke="midnightblue" points="1816.94,-139.02 1827.37,-137.15 1818.05,-132.11 1816.94,-139.02"/>
</g>
<!-- Node18 -->
<g id="node18" class="node">
<title>Node18</title>
<g id="a_node18"><a xlink:href="render__keyhook__hittable_8c.html" target="_top" xlink:title=" ">
<polygon fill="none" stroke="black" points="1613.5,-67.5 1613.5,-97.5 1725.5,-97.5 1725.5,-67.5 1613.5,-67.5"/>
<text text-anchor="start" x="1621.5" y="-85.5" font-family="Helvetica,sans-Serif" font-size="10.00">src/render_keyhook</text>
<text text-anchor="middle" x="1669.5" y="-74.5" font-family="Helvetica,sans-Serif" font-size="10.00">_hittable.c</text>
</a>
</g>
</g>
<!-- Node1&#45;&gt;Node18 -->
<g id="edge17" class="edge">
<title>Node1&#45;&gt;Node18</title>
<path fill="none" stroke="midnightblue" d="M1826.76,-131.48C1794.96,-121.78 1749.37,-107.87 1715.46,-97.52"/>
<polygon fill="midnightblue" stroke="midnightblue" points="1825.98,-134.9 1836.56,-134.48 1828.02,-128.21 1825.98,-134.9"/>
</g>
<!-- Node19 -->
<g id="node19" class="node">
<title>Node19</title>
<g id="a_node19"><a xlink:href="render__keyhook__light_8c.html" target="_top" xlink:title=" ">
<polygon fill="none" stroke="black" points="1743.5,-67.5 1743.5,-97.5 1855.5,-97.5 1855.5,-67.5 1743.5,-67.5"/>
<text text-anchor="start" x="1751.5" y="-85.5" font-family="Helvetica,sans-Serif" font-size="10.00">src/render_keyhook</text>
<text text-anchor="middle" x="1799.5" y="-74.5" font-family="Helvetica,sans-Serif" font-size="10.00">_light.c</text>
</a>
</g>
</g>
<!-- Node1&#45;&gt;Node19 -->
<g id="edge18" class="edge">
<title>Node1&#45;&gt;Node19</title>
<path fill="none" stroke="midnightblue" d="M1847.73,-127.65C1837.57,-118.35 1824.7,-106.57 1814.82,-97.52"/>
<polygon fill="midnightblue" stroke="midnightblue" points="1845.45,-130.3 1855.19,-134.48 1850.17,-125.14 1845.45,-130.3"/>
</g>
<!-- Node20 -->
<g id="node20" class="node">
<title>Node20</title>
<g id="a_node20"><a xlink:href="render__keyhook__press_8c.html" target="_top" xlink:title=" ">
<polygon fill="none" stroke="black" points="1873.5,-67.5 1873.5,-97.5 1985.5,-97.5 1985.5,-67.5 1873.5,-67.5"/>
<text text-anchor="start" x="1881.5" y="-85.5" font-family="Helvetica,sans-Serif" font-size="10.00">src/render_keyhook</text>
<text text-anchor="middle" x="1929.5" y="-74.5" font-family="Helvetica,sans-Serif" font-size="10.00">_press.c</text>
</a>
</g>
</g>
<!-- Node1&#45;&gt;Node20 -->
<g id="edge19" class="edge">
<title>Node1&#45;&gt;Node20</title>
<path fill="none" stroke="midnightblue" d="M1881.27,-127.65C1891.43,-118.35 1904.3,-106.57 1914.18,-97.52"/>
<polygon fill="midnightblue" stroke="midnightblue" points="1878.83,-125.14 1873.81,-134.48 1883.55,-130.3 1878.83,-125.14"/>
</g>
<!-- Node21 -->
<g id="node21" class="node">
<title>Node21</title>
<g id="a_node21"><a xlink:href="render__keyhook__release_8c.html" target="_top" xlink:title=" ">
<polygon fill="none" stroke="black" points="2003.5,-67.5 2003.5,-97.5 2115.5,-97.5 2115.5,-67.5 2003.5,-67.5"/>
<text text-anchor="start" x="2011.5" y="-85.5" font-family="Helvetica,sans-Serif" font-size="10.00">src/render_keyhook</text>
<text text-anchor="middle" x="2059.5" y="-74.5" font-family="Helvetica,sans-Serif" font-size="10.00">_release.c</text>
</a>
</g>
</g>
<!-- Node1&#45;&gt;Node21 -->
<g id="edge20" class="edge">
<title>Node1&#45;&gt;Node21</title>
<path fill="none" stroke="midnightblue" d="M1902.24,-131.48C1934.04,-121.78 1979.63,-107.87 2013.54,-97.52"/>
<polygon fill="midnightblue" stroke="midnightblue" points="1900.98,-128.21 1892.44,-134.48 1903.02,-134.9 1900.98,-128.21"/>
</g>
<!-- Node22 -->
<g id="node22" class="node">
<title>Node22</title>
<g id="a_node22"><a xlink:href="render__keyhook__scene_8c.html" target="_top" xlink:title=" ">
<polygon fill="none" stroke="black" points="2133.5,-67.5 2133.5,-97.5 2245.5,-97.5 2245.5,-67.5 2133.5,-67.5"/>
<text text-anchor="start" x="2141.5" y="-85.5" font-family="Helvetica,sans-Serif" font-size="10.00">src/render_keyhook</text>
<text text-anchor="middle" x="2189.5" y="-74.5" font-family="Helvetica,sans-Serif" font-size="10.00">_scene.c</text>
</a>
</g>
</g>
<!-- Node1&#45;&gt;Node22 -->
<g id="edge21" class="edge">
<title>Node1&#45;&gt;Node22</title>
<path fill="none" stroke="midnightblue" d="M1911.6,-135.55C1963.78,-127.13 2050.35,-112.68 2124.5,-98 2127.34,-97.44 2130.24,-96.85 2133.16,-96.24"/>
<polygon fill="midnightblue" stroke="midnightblue" points="1910.95,-132.11 1901.63,-137.15 1912.06,-139.02 1910.95,-132.11"/>
</g>
<!-- Node23 -->
<g id="node23" class="node">
<title>Node23</title>
<g id="a_node23"><a xlink:href="render__keyhook__utils_8c.html" target="_top" xlink:title=" ">
<polygon fill="none" stroke="black" points="2263.5,-67.5 2263.5,-97.5 2375.5,-97.5 2375.5,-67.5 2263.5,-67.5"/>
<text text-anchor="start" x="2271.5" y="-85.5" font-family="Helvetica,sans-Serif" font-size="10.00">src/render_keyhook</text>
<text text-anchor="middle" x="2319.5" y="-74.5" font-family="Helvetica,sans-Serif" font-size="10.00">_utils.c</text>
</a>
</g>
</g>
<!-- Node1&#45;&gt;Node23 -->
<g id="edge22" class="edge">
<title>Node1&#45;&gt;Node23</title>
<path fill="none" stroke="midnightblue" d="M1911.84,-139.15C1985.45,-132.8 2131.67,-118.73 2254.5,-98 2257.35,-97.52 2260.26,-96.99 2263.2,-96.44"/>
<polygon fill="midnightblue" stroke="midnightblue" points="1911.18,-135.69 1901.51,-140.03 1911.78,-142.67 1911.18,-135.69"/>
</g>
<!-- Node24 -->
<g id="node24" class="node">
<title>Node24</title>
<g id="a_node24"><a xlink:href="render__loop__mlx_8c.html" target="_top" xlink:title=" ">
<polygon fill="none" stroke="black" points="2393.5,-73 2393.5,-92 2517.5,-92 2517.5,-73 2393.5,-73"/>
<text text-anchor="middle" x="2455.5" y="-80" font-family="Helvetica,sans-Serif" font-size="10.00">src/render_loop_mlx.c</text>
</a>
</g>
</g>
<!-- Node1&#45;&gt;Node24 -->
<g id="edge23" class="edge">
<title>Node1&#45;&gt;Node24</title>
<path fill="none" stroke="midnightblue" d="M1911.6,-140.74C2003.11,-135.96 2211.15,-123.12 2384.5,-98 2395.33,-96.43 2407,-94.25 2417.69,-92.06"/>
<polygon fill="midnightblue" stroke="midnightblue" points="1911.36,-137.25 1901.55,-141.26 1911.72,-144.24 1911.36,-137.25"/>
</g>
<!-- Node25 -->
<g id="node25" class="node">
<title>Node25</title>
<g id="a_node25"><a xlink:href="render__mouse_8c.html" target="_top" xlink:title=" ">
<polygon fill="none" stroke="black" points="2535.5,-73 2535.5,-92 2647.5,-92 2647.5,-73 2535.5,-73"/>
<text text-anchor="middle" x="2591.5" y="-80" font-family="Helvetica,sans-Serif" font-size="10.00">src/render_mouse.c</text>
</a>
</g>
</g>
<!-- Node1&#45;&gt;Node25 -->
<g id="edge24" class="edge">
<title>Node1&#45;&gt;Node25</title>
<path fill="none" stroke="midnightblue" d="M1911.68,-142.24C2020.56,-139.97 2297.6,-131.12 2526.5,-98 2536.8,-96.51 2547.89,-94.28 2557.94,-92"/>
<polygon fill="midnightblue" stroke="midnightblue" points="1911.6,-138.75 1901.67,-142.44 1911.74,-145.74 1911.6,-138.75"/>
</g>
<!-- Node26 -->
<g id="node26" class="node">
<title>Node26</title>
<g id="a_node26"><a xlink:href="render__output__ppm_8c.html" target="_top" xlink:title=" ">
<polygon fill="none" stroke="black" points="2666,-73 2666,-92 2803,-92 2803,-73 2666,-73"/>
<text text-anchor="middle" x="2734.5" y="-80" font-family="Helvetica,sans-Serif" font-size="10.00">src/render_output_ppm.c</text>
</a>
</g>
</g>
<!-- Node1&#45;&gt;Node26 -->
<g id="edge25" class="edge">
<title>Node1&#45;&gt;Node26</title>
<path fill="none" stroke="midnightblue" d="M1911.98,-142.4C2035.26,-140.4 2375.51,-131.96 2656.5,-98 2668.81,-96.51 2682.1,-94.28 2694.17,-92.01"/>
<polygon fill="midnightblue" stroke="midnightblue" points="1911.7,-138.91 1901.76,-142.56 1911.81,-145.91 1911.7,-138.91"/>
</g>
<!-- Node3 -->
<g id="node3" class="node">
<title>Node3</title>
<g id="a_node3"><a xlink:href="menu__put_8c.html" target="_top" xlink:title=" ">
<polygon fill="none" stroke="black" points="0,-6 0,-25 91,-25 91,-6 0,-6"/>
<text text-anchor="middle" x="45.5" y="-13" font-family="Helvetica,sans-Serif" font-size="10.00">src/menu_put.c</text>
</a>
</g>
</g>
<!-- Node2&#45;&gt;Node3 -->
<g id="edge2" class="edge">
<title>Node2&#45;&gt;Node3</title>
<path fill="none" stroke="midnightblue" d="M727.91,-80.83C610.27,-78.68 331.07,-69.57 100.5,-31 91.73,-29.53 82.33,-27.31 73.83,-25.03"/>
<polygon fill="midnightblue" stroke="midnightblue" points="728.06,-84.34 738.12,-81.01 728.18,-77.34 728.06,-84.34"/>
</g>
<!-- Node4 -->
<g id="node4" class="node">
<title>Node4</title>
<g id="a_node4"><a xlink:href="menu__put__cam__light_8c.html" target="_top" xlink:title=" ">
<polygon fill="none" stroke="black" points="109.5,-6 109.5,-25 253.5,-25 253.5,-6 109.5,-6"/>
<text text-anchor="middle" x="181.5" y="-13" font-family="Helvetica,sans-Serif" font-size="10.00">src/menu_put_cam_light.c</text>
</a>
</g>
</g>
<!-- Node2&#45;&gt;Node4 -->
<g id="edge3" class="edge">
<title>Node2&#45;&gt;Node4</title>
<path fill="none" stroke="midnightblue" d="M728.21,-77.55C632.34,-70.49 431.33,-54.24 262.5,-31 250.47,-29.34 237.5,-27.19 225.54,-25.05"/>
<polygon fill="midnightblue" stroke="midnightblue" points="728.04,-81.05 738.27,-78.29 728.55,-74.07 728.04,-81.05"/>
</g>
<!-- Node5 -->
<g id="node5" class="node">
<title>Node5</title>
<g id="a_node5"><a xlink:href="menu__put__cam__light__ctrl_8c.html" target="_top" xlink:title=" ">
<polygon fill="none" stroke="black" points="271.5,-0.5 271.5,-30.5 407.5,-30.5 407.5,-0.5 271.5,-0.5"/>
<text text-anchor="start" x="279.5" y="-18.5" font-family="Helvetica,sans-Serif" font-size="10.00">src/menu_put_cam_light</text>
<text text-anchor="middle" x="339.5" y="-7.5" font-family="Helvetica,sans-Serif" font-size="10.00">_ctrl.c</text>
</a>
</g>
</g>
<!-- Node2&#45;&gt;Node5 -->
<g id="edge4" class="edge">
<title>Node2&#45;&gt;Node5</title>
<path fill="none" stroke="midnightblue" d="M728.25,-74.66C655.95,-65.68 526.61,-48.91 416.5,-31 413.68,-30.54 410.81,-30.06 407.9,-29.56"/>
<polygon fill="midnightblue" stroke="midnightblue" points="728.14,-78.18 738.49,-75.93 729,-71.23 728.14,-78.18"/>
</g>
<!-- Node6 -->
<g id="node6" class="node">
<title>Node6</title>
<g id="a_node6"><a xlink:href="menu__put__general__info_8c.html" target="_top" xlink:title=" ">
<polygon fill="none" stroke="black" points="426,-0.5 426,-30.5 551,-30.5 551,-0.5 426,-0.5"/>
<text text-anchor="start" x="434" y="-18.5" font-family="Helvetica,sans-Serif" font-size="10.00">src/menu_put_general</text>
<text text-anchor="middle" x="488.5" y="-7.5" font-family="Helvetica,sans-Serif" font-size="10.00">_info.c</text>
</a>
</g>
</g>
<!-- Node2&#45;&gt;Node6 -->
<g id="edge5" class="edge">
<title>Node2&#45;&gt;Node6</title>
<path fill="none" stroke="midnightblue" d="M735.48,-70.74C684.99,-59.65 606.11,-42.33 551.12,-30.25"/>
<polygon fill="midnightblue" stroke="midnightblue" points="734.98,-74.21 745.5,-72.94 736.48,-67.37 734.98,-74.21"/>
</g>
<!-- Node7 -->
<g id="node7" class="node">
<title>Node7</title>
<g id="a_node7"><a xlink:href="menu__put__hittable_8c.html" target="_top" xlink:title=" ">
<polygon fill="none" stroke="black" points="569.5,-6 569.5,-25 703.5,-25 703.5,-6 569.5,-6"/>
<text text-anchor="middle" x="636.5" y="-13" font-family="Helvetica,sans-Serif" font-size="10.00">src/menu_put_hittable.c</text>
</a>
</g>
</g>
<!-- Node2&#45;&gt;Node7 -->
<g id="edge6" class="edge">
<title>Node2&#45;&gt;Node7</title>
<path fill="none" stroke="midnightblue" d="M755.54,-68.78C726.23,-55.91 681.71,-36.35 656.23,-25.17"/>
<polygon fill="midnightblue" stroke="midnightblue" points="754.28,-72.05 764.85,-72.87 757.1,-65.64 754.28,-72.05"/>
</g>
<!-- Node8 -->
<g id="node8" class="node">
<title>Node8</title>
<g id="a_node8"><a xlink:href="menu__put__hittable__ctrl_8c.html" target="_top" xlink:title=" ">
<polygon fill="none" stroke="black" points="722,-0.5 722,-30.5 847,-30.5 847,-0.5 722,-0.5"/>
<text text-anchor="start" x="730" y="-18.5" font-family="Helvetica,sans-Serif" font-size="10.00">src/menu_put_hittable</text>
<text text-anchor="middle" x="784.5" y="-7.5" font-family="Helvetica,sans-Serif" font-size="10.00">_ctrl.c</text>
</a>
</g>
</g>
<!-- Node2&#45;&gt;Node8 -->
<g id="edge7" class="edge">
<title>Node2&#45;&gt;Node8</title>
<path fill="none" stroke="midnightblue" d="M784.5,-62.41C784.5,-52.22 784.5,-39.9 784.5,-30.59"/>
<polygon fill="midnightblue" stroke="midnightblue" points="781,-62.73 784.5,-72.73 788,-62.73 781,-62.73"/>
</g>
<!-- Node9 -->
<g id="node9" class="node">
<title>Node9</title>
<g id="a_node9"><a xlink:href="menu__put__page_8c.html" target="_top" xlink:title=" ">
<polygon fill="none" stroke="black" points="865.5,-6 865.5,-25 985.5,-25 985.5,-6 865.5,-6"/>
<text text-anchor="middle" x="925.5" y="-13" font-family="Helvetica,sans-Serif" font-size="10.00">src/menu_put_page.c</text>
</a>
</g>
</g>
<!-- Node2&#45;&gt;Node9 -->
<g id="edge8" class="edge">
<title>Node2&#45;&gt;Node9</title>
<path fill="none" stroke="midnightblue" d="M812.46,-68.61C840.38,-55.74 882.54,-36.31 906.7,-25.17"/>
<polygon fill="midnightblue" stroke="midnightblue" points="810.84,-65.5 803.22,-72.87 813.77,-71.86 810.84,-65.5"/>
</g>
<!-- Node10 -->
<g id="node10" class="node">
<title>Node10</title>
<g id="a_node10"><a xlink:href="menu__put__str__num_8c.html" target="_top" xlink:title=" ">
<polygon fill="none" stroke="black" points="1003.5,-6 1003.5,-25 1139.5,-25 1139.5,-6 1003.5,-6"/>
<text text-anchor="middle" x="1071.5" y="-13" font-family="Helvetica,sans-Serif" font-size="10.00">src/menu_put_str_num.c</text>
</a>
</g>
</g>
<!-- Node2&#45;&gt;Node10 -->
<g id="edge9" class="edge">
<title>Node2&#45;&gt;Node10</title>
<path fill="none" stroke="midnightblue" d="M832.08,-70.72C888.6,-57.92 981.72,-36.83 1033.6,-25.08"/>
<polygon fill="midnightblue" stroke="midnightblue" points="831.3,-67.31 822.32,-72.94 832.84,-74.14 831.3,-67.31"/>
</g>
<!-- Node11 -->
<g id="node11" class="node">
<title>Node11</title>
<g id="a_node11"><a xlink:href="menu__put__utils_8c.html" target="_top" xlink:title=" ">
<polygon fill="none" stroke="black" points="1158,-6 1158,-25 1275,-25 1275,-6 1158,-6"/>
<text text-anchor="middle" x="1216.5" y="-13" font-family="Helvetica,sans-Serif" font-size="10.00">src/menu_put_utils.c</text>
</a>
</g>
</g>
<!-- Node2&#45;&gt;Node11 -->
<g id="edge10" class="edge">
<title>Node2&#45;&gt;Node11</title>
<path fill="none" stroke="midnightblue" d="M840.8,-74.97C912.5,-66.36 1040.1,-50.05 1148.5,-31 1158.37,-29.27 1168.98,-27.13 1178.83,-25.04"/>
<polygon fill="midnightblue" stroke="midnightblue" points="840.15,-71.52 830.64,-76.18 840.98,-78.47 840.15,-71.52"/>
</g>
<!-- Node12 -->
<g id="node12" class="node">
<title>Node12</title>
<g id="a_node12"><a xlink:href="menu__put__utils__ctrl_8c.html" target="_top" xlink:title=" ">
<polygon fill="none" stroke="black" points="1293,-0.5 1293,-30.5 1402,-30.5 1402,-0.5 1293,-0.5"/>
<text text-anchor="start" x="1301" y="-18.5" font-family="Helvetica,sans-Serif" font-size="10.00">src/menu_put_utils</text>
<text text-anchor="middle" x="1347.5" y="-7.5" font-family="Helvetica,sans-Serif" font-size="10.00">_ctrl.c</text>
</a>
</g>
</g>
<!-- Node2&#45;&gt;Node12 -->
<g id="edge11" class="edge">
<title>Node2&#45;&gt;Node12</title>
<path fill="none" stroke="midnightblue" d="M840.61,-78.14C933.43,-72.06 1124.57,-57.37 1284.5,-31 1287.27,-30.54 1290.1,-30.04 1292.95,-29.5"/>
<polygon fill="midnightblue" stroke="midnightblue" points="840.35,-74.65 830.6,-78.79 840.8,-81.63 840.35,-74.65"/>
</g>
<!-- Node14 -->
<g id="node14" class="node">
<title>Node14</title>
<g id="a_node14"><a xlink:href="main_8c.html" target="_top" xlink:title=" ">
<polygon fill="none" stroke="black" points="1420,-6 1420,-25 1487,-25 1487,-6 1420,-6"/>
<text text-anchor="middle" x="1453.5" y="-13" font-family="Helvetica,sans-Serif" font-size="10.00">src/main.c</text>
</a>
</g>
</g>
<!-- Node13&#45;&gt;Node14 -->
<g id="edge13" class="edge">
<title>Node13&#45;&gt;Node14</title>
<path fill="none" stroke="midnightblue" d="M1204.81,-70.12C1208.73,-69 1212.69,-67.94 1216.5,-67 1302.09,-45.97 1326.27,-53.44 1411.5,-31 1417.77,-29.35 1424.44,-27.22 1430.58,-25.11"/>
<polygon fill="midnightblue" stroke="midnightblue" points="1203.8,-66.77 1195.21,-72.98 1205.79,-73.48 1203.8,-66.77"/>
</g>
</g>
</svg>
