<?xml version="1.0" encoding="UTF-8" standalone="no"?>
<!DOCTYPE svg PUBLIC "-//W3C//DTD SVG 1.1//EN"
 "http://www.w3.org/Graphics/SVG/1.1/DTD/svg11.dtd">
<!-- Generated by graphviz version 2.43.0 (0)
 -->
<!-- Title: ft_shadow_ray_blocked Pages: 1 -->
<!--zoomable 522 -->
<svg id="main" version="1.1" xmlns="http://www.w3.org/2000/svg" xmlns:xlink="http://www.w3.org/1999/xlink" xml:space="preserve" onload="init(evt)">
<style type="text/css"><![CDATA[
.edge:hover path { stroke: red; }
.edge:hover polygon { stroke: red; fill: red; }
]]></style>
<script type="text/javascript"><![CDATA[
var edges = document.getElementsByTagName('g');
if (edges && edges.length) {
  for (var i=0;i<edges.length;i++) {
    if (edges[i].id.substr(0,4)=='edge') {
      edges[i].setAttribute('class','edge');
    }
  }
}
]]></script>
        <defs>
                <circle id="rim" cx="0" cy="0" r="7"/>
                <circle id="rim2" cx="0" cy="0" r="3.5"/>
                <g id="zoomPlus">
                        <use xlink:href="#rim" fill="#404040">
                                <set attributeName="fill" to="#808080" begin="zoomplus.mouseover" end="zoomplus.mouseout"/>
                        </use>
                        <path d="M-4,0h8M0,-4v8" fill="none" stroke="white" stroke-width="1.5" pointer-events="none"/>
                </g>
                <g id="zoomMin">
                        <use xlink:href="#rim" fill="#404040">
                                <set attributeName="fill" to="#808080" begin="zoomminus.mouseover" end="zoomminus.mouseout"/>
                        </use>
                        <path d="M-4,0h8" fill="none" stroke="white" stroke-width="1.5" pointer-events="none"/>
                </g>
                <g id="dirArrow">
                        <path fill="none" stroke="white" stroke-width="1.5" d="M0,-3.0v7 M-2.5,-0.5L0,-3.0L2.5,-0.5"/>
                </g>
               <g id="resetDef">
                       <use xlink:href="#rim2" fill="#404040">
                               <set attributeName="fill" to="#808080" begin="reset.mouseover" end="reset.mouseout"/>
                       </use>
               </g>
        </defs>

<script type="text/javascript">
var viewWidth = 644;
var viewHeight = 522;
var sectionId = 'dynsection-3';
</script>
<script xlink:href="svgpan.js"/>
<svg id="graph" class="graph">
<g id="viewport">
<title>ft_shadow_ray_blocked</title>
<!-- Node1 -->
<g id="node1" class="node">
<title>Node1</title>
<g id="a_node1"><a xlink:title="Determines whether the shadow ray emitted from the point of intersection is blocked on its way to the...">
<polygon fill="#bfbfbf" stroke="black" points="0,-95.5 0,-114.5 130,-114.5 130,-95.5 0,-95.5"/>
<text text-anchor="middle" x="65" y="-102.5" font-family="Helvetica,sans-Serif" font-size="10.00">ft_shadow_ray_blocked</text>
</a>
</g>
</g>
<!-- Node2 -->
<g id="node2" class="node">
<title>Node2</title>
<g id="a_node2"><a xlink:href="hit__manager_8h.html#a9d5972226064b0a4d0e1359d9230abec" target="_top" xlink:title="Investigate a hittable and returns whether a hit occured or not.">
<polygon fill="none" stroke="black" points="166,-171.5 166,-190.5 250,-190.5 250,-171.5 166,-171.5"/>
<text text-anchor="middle" x="208" y="-178.5" font-family="Helvetica,sans-Serif" font-size="10.00">ft_hit_hittable</text>
</a>
</g>
</g>
<!-- Node1&#45;&gt;Node2 -->
<g id="edge1" class="edge">
<title>Node1&#45;&gt;Node2</title>
<path fill="none" stroke="midnightblue" d="M83.86,-114.63C108.23,-127.76 152.09,-151.4 180.35,-166.64"/>
<polygon fill="midnightblue" stroke="midnightblue" points="178.82,-169.79 189.29,-171.45 182.15,-163.63 178.82,-169.79"/>
</g>
<!-- Node9 -->
<g id="node9" class="node">
<title>Node9</title>
<g id="a_node9"><a xlink:href="hit__manager_8h.html#aa5acefb1538a700dc595870ad630f83d" target="_top" xlink:title="Initiates hitrecord struct.">
<polygon fill="none" stroke="black" points="416,-0.5 416,-19.5 509,-19.5 509,-0.5 416,-0.5"/>
<text text-anchor="middle" x="462.5" y="-7.5" font-family="Helvetica,sans-Serif" font-size="10.00">ft_init_hitrecord</text>
</a>
</g>
</g>
<!-- Node1&#45;&gt;Node9 -->
<g id="edge28" class="edge">
<title>Node1&#45;&gt;Node9</title>
<path fill="none" stroke="midnightblue" d="M105.73,-95.46C178.43,-77.99 332.66,-40.95 412.03,-21.88"/>
<polygon fill="midnightblue" stroke="midnightblue" points="412.89,-25.28 421.79,-19.54 411.25,-18.47 412.89,-25.28"/>
</g>
<!-- Node3 -->
<g id="node3" class="node">
<title>Node3</title>
<g id="a_node3"><a xlink:href="hit__manager_8h.html#ad1c0dcb3141fe78ed26368ca7bb8d2b8" target="_top" xlink:title="Calculates if a cylinder was hit by a ray.">
<polygon fill="none" stroke="black" points="286,-95.5 286,-114.5 372,-114.5 372,-95.5 286,-95.5"/>
<text text-anchor="middle" x="329" y="-102.5" font-family="Helvetica,sans-Serif" font-size="10.00">ft_hit_cylinder</text>
</a>
</g>
</g>
<!-- Node2&#45;&gt;Node3 -->
<g id="edge2" class="edge">
<title>Node2&#45;&gt;Node3</title>
<path fill="none" stroke="midnightblue" d="M224.07,-171.37C244.37,-158.41 280.69,-135.21 304.57,-119.96"/>
<polygon fill="midnightblue" stroke="midnightblue" points="306.51,-122.88 313.05,-114.55 302.74,-116.98 306.51,-122.88"/>
</g>
<!-- Node10 -->
<g id="node10" class="node">
<title>Node10</title>
<g id="a_node10"><a xlink:href="hit__manager_8h.html#a04f04eb6383f01a28b0c7201ab52782e" target="_top" xlink:title="Calculates if a plane was hit by a ray.">
<polygon fill="none" stroke="black" points="292,-266.5 292,-285.5 366,-285.5 366,-266.5 292,-266.5"/>
<text text-anchor="middle" x="329" y="-273.5" font-family="Helvetica,sans-Serif" font-size="10.00">ft_hit_plane</text>
</a>
</g>
</g>
<!-- Node2&#45;&gt;Node10 -->
<g id="edge9" class="edge">
<title>Node2&#45;&gt;Node10</title>
<path fill="none" stroke="midnightblue" d="M221.29,-190.81C241.79,-207.18 283.17,-240.21 307.95,-259.99"/>
<polygon fill="midnightblue" stroke="midnightblue" points="305.96,-262.88 315.96,-266.39 310.33,-257.41 305.96,-262.88"/>
</g>
<!-- Node17 -->
<g id="node17" class="node">
<title>Node17</title>
<g id="a_node17"><a xlink:href="hit__manager_8h.html#aee999b32d6cebbb7bcd64995f8e88b6e" target="_top" xlink:title="Calculates if a sphere was hit by a ray.">
<polygon fill="none" stroke="black" points="289,-361.5 289,-380.5 369,-380.5 369,-361.5 289,-361.5"/>
<text text-anchor="middle" x="329" y="-368.5" font-family="Helvetica,sans-Serif" font-size="10.00">ft_hit_sphere</text>
</a>
</g>
</g>
<!-- Node2&#45;&gt;Node17 -->
<g id="edge18" class="edge">
<title>Node2&#45;&gt;Node17</title>
<path fill="none" stroke="midnightblue" d="M215.06,-190.68C233.84,-220.66 291.24,-312.31 316.2,-352.16"/>
<polygon fill="midnightblue" stroke="midnightblue" points="313.53,-354.49 321.8,-361.11 319.46,-350.78 313.53,-354.49"/>
</g>
<!-- Node4 -->
<g id="node4" class="node">
<title>Node4</title>
<g id="a_node4"><a xlink:href="hit__cylinder_8c.html#afb7b50ad2f9161c61fc1065975ec7cbf" target="_top" xlink:title="Calculates all four potential hits of a cylinder.">
<polygon fill="none" stroke="black" points="408,-152.5 408,-171.5 517,-171.5 517,-152.5 408,-152.5"/>
<text text-anchor="middle" x="462.5" y="-159.5" font-family="Helvetica,sans-Serif" font-size="10.00">ft_cy_calc_pot_hits</text>
</a>
</g>
</g>
<!-- Node3&#45;&gt;Node4 -->
<g id="edge3" class="edge">
<title>Node3&#45;&gt;Node4</title>
<path fill="none" stroke="midnightblue" d="M348.33,-114.65C363.97,-122.71 387.17,-134.26 408,-143 412.82,-145.02 417.94,-147.02 423.02,-148.92"/>
<polygon fill="midnightblue" stroke="midnightblue" points="422.08,-152.3 432.68,-152.43 424.47,-145.72 422.08,-152.3"/>
</g>
<!-- Node5 -->
<g id="node5" class="node">
<title>Node5</title>
<g id="a_node5"><a xlink:href="hit__cylinder_8c.html#a40c47553b6ecb8ff1834e44c4c308e9b" target="_top" xlink:title="Determines if the potential hits are accurate.">
<polygon fill="none" stroke="black" points="410,-114.5 410,-133.5 515,-133.5 515,-114.5 410,-114.5"/>
<text text-anchor="middle" x="462.5" y="-121.5" font-family="Helvetica,sans-Serif" font-size="10.00">ft_cy_identify_hits</text>
</a>
</g>
</g>
<!-- Node3&#45;&gt;Node5 -->
<g id="edge4" class="edge">
<title>Node3&#45;&gt;Node5</title>
<path fill="none" stroke="midnightblue" d="M372.33,-111.12C381.04,-112.38 390.39,-113.72 399.63,-115.06"/>
<polygon fill="midnightblue" stroke="midnightblue" points="399.18,-118.53 409.58,-116.5 400.18,-111.6 399.18,-118.53"/>
</g>
<!-- Node6 -->
<g id="node6" class="node">
<title>Node6</title>
<g id="a_node6"><a xlink:href="hit__cylinder_8c.html#a72c52cc4f5c57fc6171137d9eb6c3500" target="_top" xlink:title="Overwrites the hit record &quot;rec&quot; with the new hit data found in the &quot;tmp&quot; hit record.">
<polygon fill="none" stroke="black" points="408,-76.5 408,-95.5 517,-95.5 517,-76.5 408,-76.5"/>
<text text-anchor="middle" x="462.5" y="-83.5" font-family="Helvetica,sans-Serif" font-size="10.00">ft_cy_set_hitrecord</text>
</a>
</g>
</g>
<!-- Node3&#45;&gt;Node6 -->
<g id="edge5" class="edge">
<title>Node3&#45;&gt;Node6</title>
<path fill="none" stroke="midnightblue" d="M372.33,-98.88C380.43,-97.71 389.07,-96.47 397.66,-95.22"/>
<polygon fill="midnightblue" stroke="midnightblue" points="398.3,-98.67 407.7,-93.77 397.3,-91.74 398.3,-98.67"/>
</g>
<!-- Node7 -->
<g id="node7" class="node">
<title>Node7</title>
<g id="a_node7"><a xlink:href="hit__manager_8h.html#a55af5b9bdf1ed07d3128dd3e15dd3e6b" target="_top" xlink:title="Checks if cylinder is not blocked by another object.">
<polygon fill="none" stroke="black" points="424,-38.5 424,-57.5 501,-57.5 501,-38.5 424,-38.5"/>
<text text-anchor="middle" x="462.5" y="-45.5" font-family="Helvetica,sans-Serif" font-size="10.00">ft_cy_visible</text>
</a>
</g>
</g>
<!-- Node3&#45;&gt;Node7 -->
<g id="edge6" class="edge">
<title>Node3&#45;&gt;Node7</title>
<path fill="none" stroke="midnightblue" d="M348.33,-95.35C363.97,-87.29 387.17,-75.74 408,-67 412.82,-64.98 417.94,-62.98 423.02,-61.08"/>
<polygon fill="midnightblue" stroke="midnightblue" points="424.47,-64.28 432.68,-57.57 422.08,-57.7 424.47,-64.28"/>
</g>
<!-- Node3&#45;&gt;Node9 -->
<g id="edge8" class="edge">
<title>Node3&#45;&gt;Node9</title>
<path fill="none" stroke="midnightblue" d="M339.55,-95.24C358.59,-75.84 400.14,-33.9 408,-29 411.2,-27.01 414.64,-25.19 418.17,-23.53"/>
<polygon fill="midnightblue" stroke="midnightblue" points="419.8,-26.64 427.65,-19.52 417.08,-20.19 419.8,-26.64"/>
</g>
<!-- Node8 -->
<g id="node8" class="node">
<title>Node8</title>
<g id="a_node8"><a xlink:href="utils_8h.html#add4de5ba94d3f8475d0a1c4ce8abd3aa" target="_top" xlink:title="Determines if value is surrounded by the interval.">
<polygon fill="none" stroke="black" points="556,-190.5 556,-209.5 633,-209.5 633,-190.5 556,-190.5"/>
<text text-anchor="middle" x="594.5" y="-197.5" font-family="Helvetica,sans-Serif" font-size="10.00">ft_surrounds</text>
</a>
</g>
</g>
<!-- Node7&#45;&gt;Node8 -->
<g id="edge7" class="edge">
<title>Node7&#45;&gt;Node8</title>
<path fill="none" stroke="midnightblue" d="M501.02,-57.45C506.75,-59.95 512.31,-63.09 517,-67 554.19,-98.01 577.14,-152.04 587.32,-180.76"/>
<polygon fill="midnightblue" stroke="midnightblue" points="584.07,-182.09 590.59,-190.43 590.7,-179.84 584.07,-182.09"/>
</g>
<!-- Node10&#45;&gt;Node8 -->
<g id="edge14" class="edge">
<title>Node10&#45;&gt;Node8</title>
<path fill="none" stroke="midnightblue" d="M340.72,-266.47C354.98,-254.39 381.48,-233.93 408,-224 452.61,-207.29 507.02,-201.85 545.33,-200.25"/>
<polygon fill="midnightblue" stroke="midnightblue" points="545.82,-203.74 555.69,-199.9 545.58,-196.74 545.82,-203.74"/>
</g>
<!-- Node11 -->
<g id="node11" class="node">
<title>Node11</title>
<g id="a_node11"><a xlink:href="ray_8h.html#ac56e9ac7acfb4658469e190c022b0d63" target="_top" xlink:title="Represents a ray.">
<polygon fill="none" stroke="black" points="425,-418.5 425,-437.5 500,-437.5 500,-418.5 425,-418.5"/>
<text text-anchor="middle" x="462.5" y="-425.5" font-family="Helvetica,sans-Serif" font-size="10.00">ft_scale_ray</text>
</a>
</g>
</g>
<!-- Node10&#45;&gt;Node11 -->
<g id="edge10" class="edge">
<title>Node10&#45;&gt;Node11</title>
<path fill="none" stroke="midnightblue" d="M337.55,-285.61C351.24,-302.96 381.25,-340.53 408,-371 420.11,-384.79 434.35,-399.91 445.09,-411.11"/>
<polygon fill="midnightblue" stroke="midnightblue" points="442.75,-413.73 452.21,-418.5 447.79,-408.87 442.75,-413.73"/>
</g>
<!-- Node13 -->
<g id="node13" class="node">
<title>Node13</title>
<g id="a_node13"><a xlink:href="vec3_8h.html#ac80a1c20941c96a8fafad255dac59092" target="_top" xlink:title="Scale a vector.">
<polygon fill="none" stroke="black" points="553,-456.5 553,-475.5 636,-475.5 636,-456.5 553,-456.5"/>
<text text-anchor="middle" x="594.5" y="-463.5" font-family="Helvetica,sans-Serif" font-size="10.00">ft_vec3_scale</text>
</a>
</g>
</g>
<!-- Node10&#45;&gt;Node13 -->
<g id="edge16" class="edge">
<title>Node10&#45;&gt;Node13</title>
<path fill="none" stroke="midnightblue" d="M348.16,-266.5C384.72,-248.85 467.87,-216.3 517,-257 583.19,-311.83 500.32,-379.09 553,-447 553.92,-448.19 554.94,-449.31 556.02,-450.36"/>
<polygon fill="midnightblue" stroke="midnightblue" points="553.95,-453.18 564.06,-456.36 558.14,-447.57 553.95,-453.18"/>
</g>
<!-- Node14 -->
<g id="node14" class="node">
<title>Node14</title>
<g id="a_node14"><a xlink:href="utils_8h.html#ae65513c75ce8a8538c22393e0af3ab1f" target="_top" xlink:title="Solves the given equation.">
<polygon fill="none" stroke="black" points="435,-342.5 435,-361.5 490,-361.5 490,-342.5 435,-342.5"/>
<text text-anchor="middle" x="462.5" y="-349.5" font-family="Helvetica,sans-Serif" font-size="10.00">ft_solve</text>
</a>
</g>
</g>
<!-- Node10&#45;&gt;Node14 -->
<g id="edge13" class="edge">
<title>Node10&#45;&gt;Node14</title>
<path fill="none" stroke="midnightblue" d="M340.94,-285.6C355.44,-297.93 382.2,-319.36 408,-333 413.36,-335.83 419.23,-338.4 425.06,-340.67"/>
<polygon fill="midnightblue" stroke="midnightblue" points="424.14,-344.06 434.73,-344.19 426.53,-337.48 424.14,-344.06"/>
</g>
<!-- Node15 -->
<g id="node15" class="node">
<title>Node15</title>
<g id="a_node15"><a xlink:href="vec3_8h.html#a89fd02ae4b8b3602bc001664eb5e8f91" target="_top" xlink:title="Calculate the scalar product of two vectors.">
<polygon fill="none" stroke="black" points="426,-266.5 426,-285.5 499,-285.5 499,-266.5 426,-266.5"/>
<text text-anchor="middle" x="462.5" y="-273.5" font-family="Helvetica,sans-Serif" font-size="10.00">ft_vec3_dot</text>
</a>
</g>
</g>
<!-- Node10&#45;&gt;Node15 -->
<g id="edge15" class="edge">
<title>Node10&#45;&gt;Node15</title>
<path fill="none" stroke="midnightblue" d="M366.28,-276C381.5,-276 399.37,-276 415.49,-276"/>
<polygon fill="midnightblue" stroke="midnightblue" points="415.79,-279.5 425.79,-276 415.79,-272.5 415.79,-279.5"/>
</g>
<!-- Node16 -->
<g id="node16" class="node">
<title>Node16</title>
<g id="a_node16"><a xlink:href="vec3_8h.html#a54e984820b74bd803de43ce36c8cb292" target="_top" xlink:title="Subtract two vectors.">
<polygon fill="none" stroke="black" points="425.5,-304.5 425.5,-323.5 499.5,-323.5 499.5,-304.5 425.5,-304.5"/>
<text text-anchor="middle" x="462.5" y="-311.5" font-family="Helvetica,sans-Serif" font-size="10.00">ft_vec3_sub</text>
</a>
</g>
</g>
<!-- Node10&#45;&gt;Node16 -->
<g id="edge17" class="edge">
<title>Node10&#45;&gt;Node16</title>
<path fill="none" stroke="midnightblue" d="M363.18,-285.59C380,-290.45 400.63,-296.41 418.63,-301.61"/>
<polygon fill="midnightblue" stroke="midnightblue" points="417.75,-305 428.33,-304.41 419.69,-298.28 417.75,-305"/>
</g>
<!-- Node12 -->
<g id="node12" class="node">
<title>Node12</title>
<g id="a_node12"><a xlink:href="vec3_8h.html#a73e2caf4c2a51ed954b7349c6be2b3c3" target="_top" xlink:title="Add two vectors.">
<polygon fill="none" stroke="black" points="557,-418.5 557,-437.5 632,-437.5 632,-418.5 557,-418.5"/>
<text text-anchor="middle" x="594.5" y="-425.5" font-family="Helvetica,sans-Serif" font-size="10.00">ft_vec3_add</text>
</a>
</g>
</g>
<!-- Node11&#45;&gt;Node12 -->
<g id="edge11" class="edge">
<title>Node11&#45;&gt;Node12</title>
<path fill="none" stroke="midnightblue" d="M500.06,-428C514.46,-428 531.18,-428 546.46,-428"/>
<polygon fill="midnightblue" stroke="midnightblue" points="546.77,-431.5 556.77,-428 546.77,-424.5 546.77,-431.5"/>
</g>
<!-- Node11&#45;&gt;Node13 -->
<g id="edge12" class="edge">
<title>Node11&#45;&gt;Node13</title>
<path fill="none" stroke="midnightblue" d="M496.3,-437.59C512.78,-442.4 532.94,-448.3 550.63,-453.47"/>
<polygon fill="midnightblue" stroke="midnightblue" points="550.13,-456.97 560.71,-456.41 552.09,-450.25 550.13,-456.97"/>
</g>
<!-- Node17&#45;&gt;Node8 -->
<g id="edge21" class="edge">
<title>Node17&#45;&gt;Node8</title>
<path fill="none" stroke="midnightblue" d="M361.02,-380.55C400.64,-390.75 469.73,-401.64 517,-371 569.68,-336.85 586.41,-256.98 591.45,-219.75"/>
<polygon fill="midnightblue" stroke="midnightblue" points="594.95,-220.01 592.67,-209.66 588,-219.17 594.95,-220.01"/>
</g>
<!-- Node17&#45;&gt;Node11 -->
<g id="edge19" class="edge">
<title>Node17&#45;&gt;Node11</title>
<path fill="none" stroke="midnightblue" d="M352.01,-380.54C373.34,-389.79 405.92,-403.91 430,-414.35"/>
<polygon fill="midnightblue" stroke="midnightblue" points="428.85,-417.66 439.42,-418.43 431.63,-411.24 428.85,-417.66"/>
</g>
<!-- Node17&#45;&gt;Node13 -->
<g id="edge26" class="edge">
<title>Node17&#45;&gt;Node13</title>
<path fill="none" stroke="midnightblue" d="M336.39,-380.52C348.25,-397.29 375.46,-431.79 408,-447 450.22,-466.74 503.62,-470.28 542.27,-469.61"/>
<polygon fill="midnightblue" stroke="midnightblue" points="542.86,-473.09 552.76,-469.32 542.67,-466.1 542.86,-473.09"/>
</g>
<!-- Node17&#45;&gt;Node14 -->
<g id="edge20" class="edge">
<title>Node17&#45;&gt;Node14</title>
<path fill="none" stroke="midnightblue" d="M369.1,-365.35C386.65,-362.81 407.26,-359.84 424.55,-357.34"/>
<polygon fill="midnightblue" stroke="midnightblue" points="425.44,-360.75 434.83,-355.85 424.44,-353.82 425.44,-360.75"/>
</g>
<!-- Node17&#45;&gt;Node15 -->
<g id="edge22" class="edge">
<title>Node17&#45;&gt;Node15</title>
<path fill="none" stroke="midnightblue" d="M337.4,-361.49C350.2,-345.63 377.99,-313.69 408,-295 411.2,-293.01 414.64,-291.19 418.17,-289.53"/>
<polygon fill="midnightblue" stroke="midnightblue" points="419.8,-292.64 427.65,-285.52 417.08,-286.19 419.8,-292.64"/>
</g>
<!-- Node17&#45;&gt;Node16 -->
<g id="edge27" class="edge">
<title>Node17&#45;&gt;Node16</title>
<path fill="none" stroke="midnightblue" d="M348.33,-361.35C363.97,-353.29 387.17,-341.74 408,-333 412.82,-330.98 417.94,-328.98 423.02,-327.08"/>
<polygon fill="midnightblue" stroke="midnightblue" points="424.47,-330.28 432.68,-323.57 422.08,-323.7 424.47,-330.28"/>
</g>
<!-- Node18 -->
<g id="node18" class="node">
<title>Node18</title>
<g id="a_node18"><a xlink:href="vec3_8h.html#a38fe500bd27847b866b9630146e43250" target="_top" xlink:title="Normalise a vector.">
<polygon fill="none" stroke="black" points="421,-494.5 421,-513.5 504,-513.5 504,-494.5 421,-494.5"/>
<text text-anchor="middle" x="462.5" y="-501.5" font-family="Helvetica,sans-Serif" font-size="10.00">ft_vec3_norm</text>
</a>
</g>
</g>
<!-- Node17&#45;&gt;Node18 -->
<g id="edge23" class="edge">
<title>Node17&#45;&gt;Node18</title>
<path fill="none" stroke="midnightblue" d="M334.71,-380.76C345.18,-401.58 372.34,-450.83 408,-480 412.69,-483.84 418.1,-487.19 423.63,-490.08"/>
<polygon fill="midnightblue" stroke="midnightblue" points="422.43,-493.38 432.96,-494.49 425.42,-487.05 422.43,-493.38"/>
</g>
<!-- Node18&#45;&gt;Node13 -->
<g id="edge25" class="edge">
<title>Node18&#45;&gt;Node13</title>
<path fill="none" stroke="midnightblue" d="M496.3,-494.41C512.78,-489.6 532.94,-483.7 550.63,-478.53"/>
<polygon fill="midnightblue" stroke="midnightblue" points="552.09,-481.75 560.71,-475.59 550.13,-475.03 552.09,-481.75"/>
</g>
<!-- Node19 -->
<g id="node19" class="node">
<title>Node19</title>
<g id="a_node19"><a xlink:href="vec3__linalgebra_8c.html#aa84621bd979d3b12b97908f653faf88e" target="_top" xlink:title="Calculate the absolute value of a vector.">
<polygon fill="none" stroke="black" points="557.5,-494.5 557.5,-513.5 631.5,-513.5 631.5,-494.5 557.5,-494.5"/>
<text text-anchor="middle" x="594.5" y="-501.5" font-family="Helvetica,sans-Serif" font-size="10.00">ft_vec3_abs</text>
</a>
</g>
</g>
<!-- Node18&#45;&gt;Node19 -->
<g id="edge24" class="edge">
<title>Node18&#45;&gt;Node19</title>
<path fill="none" stroke="midnightblue" d="M504.28,-504C517.81,-504 532.97,-504 546.9,-504"/>
<polygon fill="midnightblue" stroke="midnightblue" points="547.27,-507.5 557.27,-504 547.27,-500.5 547.27,-507.5"/>
</g>
</g>
</svg>
        <g id="navigator" transform="translate(0 0)" fill="#404254">
                <rect fill="#f2f5e9" fill-opacity="0.5" stroke="#606060" stroke-width=".5" x="0" y="0" width="60" height="60"/>
                <use id="zoomplus" xlink:href="#zoomPlus" x="17" y="9" onmousedown="handleZoom(evt,'in')"/>
                <use id="zoomminus" xlink:href="#zoomMin" x="42" y="9" onmousedown="handleZoom(evt,'out')"/>
                <use id="reset" xlink:href="#resetDef" x="30" y="36" onmousedown="handleReset()"/>
                <g id="arrowUp" xlink:href="#dirArrow" transform="translate(30 24)" onmousedown="handlePan(0,-1)">
                  <use xlink:href="#rim" fill="#404040">
                        <set attributeName="fill" to="#808080" begin="arrowUp.mouseover" end="arrowUp.mouseout"/>
                  </use>
                  <path fill="none" stroke="white" stroke-width="1.5" d="M0,-3.0v7 M-2.5,-0.5L0,-3.0L2.5,-0.5"/>
                </g>
                <g id="arrowRight" xlink:href="#dirArrow" transform="rotate(90) translate(36 -43)" onmousedown="handlePan(1,0)">
                  <use xlink:href="#rim" fill="#404040">
                        <set attributeName="fill" to="#808080" begin="arrowRight.mouseover" end="arrowRight.mouseout"/>
                  </use>
                  <path fill="none" stroke="white" stroke-width="1.5" d="M0,-3.0v7 M-2.5,-0.5L0,-3.0L2.5,-0.5"/>
                </g>
                <g id="arrowDown" xlink:href="#dirArrow" transform="rotate(180) translate(-30 -48)" onmousedown="handlePan(0,1)">
                  <use xlink:href="#rim" fill="#404040">
                        <set attributeName="fill" to="#808080" begin="arrowDown.mouseover" end="arrowDown.mouseout"/>
                  </use>
                  <path fill="none" stroke="white" stroke-width="1.5" d="M0,-3.0v7 M-2.5,-0.5L0,-3.0L2.5,-0.5"/>
                </g>
                <g id="arrowLeft" xlink:href="#dirArrow" transform="rotate(270) translate(-36 17)" onmousedown="handlePan(-1,0)">
                  <use xlink:href="#rim" fill="#404040">
                        <set attributeName="fill" to="#808080" begin="arrowLeft.mouseover" end="arrowLeft.mouseout"/>
                  </use>
                  <path fill="none" stroke="white" stroke-width="1.5" d="M0,-3.0v7 M-2.5,-0.5L0,-3.0L2.5,-0.5"/>
                </g>
        </g>
        <svg viewBox="0 0 15 15" width="100%" height="30px" preserveAspectRatio="xMaxYMin meet">
         <g id="arrow_out" transform="scale(0.3 0.3)">
          <a xlink:href="scene__shadow_8c_a931177e8edb2dd5393cef7a468389a4d_cgraph_org.svg" target="_base">
           <rect id="button" ry="5" rx="5" y="6" x="6" height="38" width="38"
                fill="#f2f5e9" fill-opacity="0.5" stroke="#606060" stroke-width="1.0"/>
           <path id="arrow"
             d="M 11.500037,31.436501 C 11.940474,20.09759 22.043105,11.32322 32.158766,21.979434 L 37.068811,17.246167 C 37.068811,17.246167 37.088388,32 37.088388,32 L 22.160133,31.978069 C 22.160133,31.978069 26.997745,27.140456 26.997745,27.140456 C 18.528582,18.264221 13.291696,25.230495 11.500037,31.436501 z"
             style="fill:#404040;"/>
          </a>
         </g>
        </svg>
</svg>
