<?xml version="1.0" encoding="UTF-8" standalone="no"?>
<!DOCTYPE svg PUBLIC "-//W3C//DTD SVG 1.1//EN"
 "http://www.w3.org/Graphics/SVG/1.1/DTD/svg11.dtd">
<!-- Generated by graphviz version 2.43.0 (0)
 -->
<!-- Title: ft_shadow_ray_blocked Pages: 1 -->
<!--zoomable 127 -->
<svg id="main" version="1.1" xmlns="http://www.w3.org/2000/svg" xmlns:xlink="http://www.w3.org/1999/xlink" xml:space="preserve" onload="init(evt)">
<style type="text/css"><![CDATA[
.edge:hover path { stroke: red; }
.edge:hover polygon { stroke: red; fill: red; }
]]></style>
<script type="text/javascript"><![CDATA[
var edges = document.getElementsByTagName('g');
if (edges && edges.length) {
  for (var i=0;i<edges.length;i++) {
    if (edges[i].id.substr(0,4)=='edge') {
      edges[i].setAttribute('class','edge');
    }
  }
}
]]></script>
        <defs>
                <circle id="rim" cx="0" cy="0" r="7"/>
                <circle id="rim2" cx="0" cy="0" r="3.5"/>
                <g id="zoomPlus">
                        <use xlink:href="#rim" fill="#404040">
                                <set attributeName="fill" to="#808080" begin="zoomplus.mouseover" end="zoomplus.mouseout"/>
                        </use>
                        <path d="M-4,0h8M0,-4v8" fill="none" stroke="white" stroke-width="1.5" pointer-events="none"/>
                </g>
                <g id="zoomMin">
                        <use xlink:href="#rim" fill="#404040">
                                <set attributeName="fill" to="#808080" begin="zoomminus.mouseover" end="zoomminus.mouseout"/>
                        </use>
                        <path d="M-4,0h8" fill="none" stroke="white" stroke-width="1.5" pointer-events="none"/>
                </g>
                <g id="dirArrow">
                        <path fill="none" stroke="white" stroke-width="1.5" d="M0,-3.0v7 M-2.5,-0.5L0,-3.0L2.5,-0.5"/>
                </g>
               <g id="resetDef">
                       <use xlink:href="#rim2" fill="#404040">
                               <set attributeName="fill" to="#808080" begin="reset.mouseover" end="reset.mouseout"/>
                       </use>
               </g>
        </defs>

<script type="text/javascript">
var viewWidth = 1439;
var viewHeight = 127;
var sectionId = 'dynsection-4';
</script>
<script xlink:href="svgpan.js"/>
<svg id="graph" class="graph">
<g id="viewport">
<title>ft_shadow_ray_blocked</title>
<!-- Node1 -->
<g id="node1" class="node">
<title>Node1</title>
<g id="a_node1"><a xlink:title="Determines whether the shadow ray emitted from the point of intersection is blocked on its way to the...">
<polygon fill="#bfbfbf" stroke="black" points="1301,-31 1301,-50 1431,-50 1431,-31 1301,-31"/>
<text text-anchor="middle" x="1366" y="-38" font-family="Helvetica,sans-Serif" font-size="10.00">ft_shadow_ray_blocked</text>
</a>
</g>
</g>
<!-- Node2 -->
<g id="node2" class="node">
<title>Node2</title>
<g id="a_node2"><a xlink:href="lighting_8h.html#a382179d88a3a971b5853322389bacf04" target="_top" xlink:title="Determines whether the point of intersection lies in a shadow regarding the current light source.">
<polygon fill="none" stroke="black" points="1185,-31 1185,-50 1265,-50 1265,-31 1185,-31"/>
<text text-anchor="middle" x="1225" y="-38" font-family="Helvetica,sans-Serif" font-size="10.00">ft_in_shadow</text>
</a>
</g>
</g>
<!-- Node1&#45;&gt;Node2 -->
<g id="edge1" class="edge">
<title>Node1&#45;&gt;Node2</title>
<path fill="none" stroke="midnightblue" d="M1290.57,-40.5C1281.87,-40.5 1273.28,-40.5 1265.34,-40.5"/>
<polygon fill="midnightblue" stroke="midnightblue" points="1290.79,-44 1300.79,-40.5 1290.79,-37 1290.79,-44"/>
</g>
<!-- Node3 -->
<g id="node3" class="node">
<title>Node3</title>
<g id="a_node3"><a xlink:href="lighting_8h.html#a3d54436a3f695a60b1c2d9e504a61de8" target="_top" xlink:title="Calculate the effect of different lighting on perception.">
<polygon fill="none" stroke="black" points="1075,-31 1075,-50 1149,-50 1149,-31 1075,-31"/>
<text text-anchor="middle" x="1112" y="-38" font-family="Helvetica,sans-Serif" font-size="10.00">ft_enlighten</text>
</a>
</g>
</g>
<!-- Node2&#45;&gt;Node3 -->
<g id="edge2" class="edge">
<title>Node2&#45;&gt;Node3</title>
<path fill="none" stroke="midnightblue" d="M1174.59,-40.5C1166.04,-40.5 1157.3,-40.5 1149.18,-40.5"/>
<polygon fill="midnightblue" stroke="midnightblue" points="1174.87,-44 1184.87,-40.5 1174.87,-37 1174.87,-44"/>
</g>
<!-- Node4 -->
<g id="node4" class="node">
<title>Node4</title>
<g id="a_node4"><a xlink:href="ray_8h.html#a2cffd188fb76990901db47a2c3ac638f" target="_top" xlink:title="Returns the colour of a ray.">
<polygon fill="none" stroke="black" points="959,-31 959,-50 1039,-50 1039,-31 959,-31"/>
<text text-anchor="middle" x="999" y="-38" font-family="Helvetica,sans-Serif" font-size="10.00">ft_ray_colour</text>
</a>
</g>
</g>
<!-- Node3&#45;&gt;Node4 -->
<g id="edge3" class="edge">
<title>Node3&#45;&gt;Node4</title>
<path fill="none" stroke="midnightblue" d="M1064.82,-40.5C1056.34,-40.5 1047.56,-40.5 1039.31,-40.5"/>
<polygon fill="midnightblue" stroke="midnightblue" points="1064.96,-44 1074.96,-40.5 1064.96,-37 1064.96,-44"/>
</g>
<!-- Node5 -->
<g id="node5" class="node">
<title>Node5</title>
<g id="a_node5"><a xlink:href="render__bonus_8h.html#af5fa16c9ea3d6e6884604009e31c83de" target="_top" xlink:title="Constructs a random sample ray for anti&#45;aliasing.">
<polygon fill="none" stroke="black" points="829,-55 829,-74 923,-74 923,-55 829,-55"/>
<text text-anchor="middle" x="876" y="-62" font-family="Helvetica,sans-Serif" font-size="10.00">ft_shoot_aa_ray</text>
</a>
</g>
</g>
<!-- Node4&#45;&gt;Node5 -->
<g id="edge4" class="edge">
<title>Node4&#45;&gt;Node5</title>
<path fill="none" stroke="midnightblue" d="M948.66,-50.29C940.26,-51.95 931.57,-53.68 923.25,-55.33"/>
<polygon fill="midnightblue" stroke="midnightblue" points="949.59,-53.67 958.71,-48.29 948.22,-46.8 949.59,-53.67"/>
</g>
<!-- Node9 -->
<g id="node9" class="node">
<title>Node9</title>
<g id="a_node9"><a xlink:href="render_8h.html#a2c9085ad1ae8adcd3201a501a9a4dcde" target="_top" xlink:title="Constructs a ray and shoots it through the pixel.">
<polygon fill="none" stroke="black" points="837.5,-12 837.5,-31 914.5,-31 914.5,-12 837.5,-12"/>
<text text-anchor="middle" x="876" y="-19" font-family="Helvetica,sans-Serif" font-size="10.00">ft_shoot_ray</text>
</a>
</g>
</g>
<!-- Node4&#45;&gt;Node9 -->
<g id="edge9" class="edge">
<title>Node4&#45;&gt;Node9</title>
<path fill="none" stroke="midnightblue" d="M948.57,-32.74C937.32,-30.97 925.54,-29.12 914.85,-27.44"/>
<polygon fill="midnightblue" stroke="midnightblue" points="948.29,-36.24 958.71,-34.33 949.38,-29.32 948.29,-36.24"/>
</g>
<!-- Node6 -->
<g id="node6" class="node">
<title>Node6</title>
<g id="a_node6"><a xlink:href="render__bonus_8h.html#afef92ac33f530ff1e1ca1049ffa14d23" target="_top" xlink:title="Raytraces the scene and adds it to the sample buffer.">
<polygon fill="none" stroke="black" points="659,-99 659,-118 793,-118 793,-99 659,-99"/>
<text text-anchor="middle" x="726" y="-106" font-family="Helvetica,sans-Serif" font-size="10.00">ft_add_raytrace_sample</text>
</a>
</g>
</g>
<!-- Node5&#45;&gt;Node6 -->
<g id="edge5" class="edge">
<title>Node5&#45;&gt;Node6</title>
<path fill="none" stroke="midnightblue" d="M834.18,-77.08C821.04,-81.1 806.42,-85.52 793,-89.5 782.48,-92.62 771,-95.95 760.61,-98.94"/>
<polygon fill="midnightblue" stroke="midnightblue" points="835.35,-80.39 843.88,-74.11 833.3,-73.69 835.35,-80.39"/>
</g>
<!-- Node8 -->
<g id="node8" class="node">
<title>Node8</title>
<g id="a_node8"><a xlink:href="render__bonus_8h.html#a6f833a234cbdbc69ce5458c79d1242a1" target="_top" xlink:title="Like ft_add_raytrace_sample(), but threaded.">
<polygon fill="none" stroke="black" points="659,-49.5 659,-79.5 793,-79.5 793,-49.5 659,-49.5"/>
<text text-anchor="start" x="667" y="-67.5" font-family="Helvetica,sans-Serif" font-size="10.00">ft_add_raytrace_sample</text>
<text text-anchor="middle" x="726" y="-56.5" font-family="Helvetica,sans-Serif" font-size="10.00">_threaded</text>
</a>
</g>
</g>
<!-- Node5&#45;&gt;Node8 -->
<g id="edge7" class="edge">
<title>Node5&#45;&gt;Node8</title>
<path fill="none" stroke="midnightblue" d="M818.9,-64.5C810.47,-64.5 801.71,-64.5 793.09,-64.5"/>
<polygon fill="midnightblue" stroke="midnightblue" points="818.98,-68 828.98,-64.5 818.98,-61 818.98,-68"/>
</g>
<!-- Node7 -->
<g id="node7" class="node">
<title>Node7</title>
<g id="a_node7"><a xlink:href="render__bonus_8h.html#a46e5a7c75a4d9fb06252d28cf8d18821" target="_top" xlink:title="Raytraces a sample of the scene and adds it to the sample buffer.">
<polygon fill="none" stroke="black" points="506,-77 506,-96 623,-96 623,-77 506,-77"/>
<text text-anchor="middle" x="564.5" y="-84" font-family="Helvetica,sans-Serif" font-size="10.00">ft_anti_alias_sample</text>
</a>
</g>
</g>
<!-- Node6&#45;&gt;Node7 -->
<g id="edge6" class="edge">
<title>Node6&#45;&gt;Node7</title>
<path fill="none" stroke="midnightblue" d="M648.7,-97.98C640.11,-96.79 631.47,-95.6 623.17,-94.45"/>
<polygon fill="midnightblue" stroke="midnightblue" points="648.36,-101.46 658.74,-99.36 649.32,-94.53 648.36,-101.46"/>
</g>
<!-- Node8&#45;&gt;Node7 -->
<g id="edge8" class="edge">
<title>Node8&#45;&gt;Node7</title>
<path fill="none" stroke="midnightblue" d="M648.7,-75.02C640.11,-76.21 631.47,-77.4 623.17,-78.55"/>
<polygon fill="midnightblue" stroke="midnightblue" points="649.32,-78.47 658.74,-73.64 648.36,-71.54 649.32,-78.47"/>
</g>
<!-- Node10 -->
<g id="node10" class="node">
<title>Node10</title>
<g id="a_node10"><a xlink:href="render__bonus_8h.html#a5d5ed6b28be3a532b4e17bd4a05df4d3" target="_top" xlink:title="Like ft_raytrace_sample(), but threaded.">
<polygon fill="none" stroke="black" points="671,-0.5 671,-30.5 781,-30.5 781,-0.5 671,-0.5"/>
<text text-anchor="start" x="679" y="-18.5" font-family="Helvetica,sans-Serif" font-size="10.00">ft_raytrace_sample</text>
<text text-anchor="middle" x="726" y="-7.5" font-family="Helvetica,sans-Serif" font-size="10.00">_threaded</text>
</a>
</g>
</g>
<!-- Node9&#45;&gt;Node10 -->
<g id="edge10" class="edge">
<title>Node9&#45;&gt;Node10</title>
<path fill="none" stroke="midnightblue" d="M826.93,-19.55C812.31,-18.96 796.13,-18.3 781.14,-17.69"/>
<polygon fill="midnightblue" stroke="midnightblue" points="827.14,-23.06 837.27,-19.97 827.42,-16.07 827.14,-23.06"/>
</g>
<!-- Node11 -->
<g id="node11" class="node">
<title>Node11</title>
<g id="a_node11"><a xlink:href="render__bonus_8h.html#a0ab696b1752ed3551f1cf8d8c2e7c5d8" target="_top" xlink:title="Raytraces a single sample of the scene to the sample buffer.">
<polygon fill="none" stroke="black" points="515,-6 515,-25 614,-25 614,-6 515,-6"/>
<text text-anchor="middle" x="564.5" y="-13" font-family="Helvetica,sans-Serif" font-size="10.00">ft_single_sample</text>
</a>
</g>
</g>
<!-- Node10&#45;&gt;Node11 -->
<g id="edge11" class="edge">
<title>Node10&#45;&gt;Node11</title>
<path fill="none" stroke="midnightblue" d="M660.51,-15.5C645.02,-15.5 628.72,-15.5 614.09,-15.5"/>
<polygon fill="midnightblue" stroke="midnightblue" points="660.56,-19 670.56,-15.5 660.56,-12 660.56,-19"/>
</g>
<!-- Node12 -->
<g id="node12" class="node">
<title>Node12</title>
<g id="a_node12"><a xlink:href="render__bonus_8h.html#a9c57490cfa20448a418091aa47a49245" target="_top" xlink:title="Raytraces a sample of the scene to the sample buffer.">
<polygon fill="none" stroke="black" points="369,-6 369,-25 470,-25 470,-6 369,-6"/>
<text text-anchor="middle" x="419.5" y="-13" font-family="Helvetica,sans-Serif" font-size="10.00">ft_render_sample</text>
</a>
</g>
</g>
<!-- Node11&#45;&gt;Node12 -->
<g id="edge12" class="edge">
<title>Node11&#45;&gt;Node12</title>
<path fill="none" stroke="midnightblue" d="M504.37,-15.5C492.96,-15.5 481.13,-15.5 470.06,-15.5"/>
<polygon fill="midnightblue" stroke="midnightblue" points="504.69,-19 514.69,-15.5 504.69,-12 504.69,-19"/>
</g>
<!-- Node13 -->
<g id="node13" class="node">
<title>Node13</title>
<g id="a_node13"><a xlink:href="render__loop__mlx__bonus_8c.html#a012503b6ad6ee8198a601dad994c09b7" target="_top" xlink:title="Main loop of the program.">
<polygon fill="none" stroke="black" points="227,-6 227,-25 333,-25 333,-6 227,-6"/>
<text text-anchor="middle" x="280" y="-13" font-family="Helvetica,sans-Serif" font-size="10.00">ft_programm_loop</text>
</a>
</g>
</g>
<!-- Node12&#45;&gt;Node13 -->
<g id="edge13" class="edge">
<title>Node12&#45;&gt;Node13</title>
<path fill="none" stroke="midnightblue" d="M358.69,-15.5C350.25,-15.5 341.63,-15.5 333.35,-15.5"/>
<polygon fill="midnightblue" stroke="midnightblue" points="358.86,-19 368.86,-15.5 358.86,-12 358.86,-19"/>
</g>
<!-- Node14 -->
<g id="node14" class="node">
<title>Node14</title>
<g id="a_node14"><a xlink:href="render__loop__mlx__bonus_8c.html#ab7a01aa5d27d2fad2942a43a31ae0d52" target="_top" xlink:title="Starts the mlx loop.">
<polygon fill="none" stroke="black" points="77,-6 77,-25 191,-25 191,-6 77,-6"/>
<text text-anchor="middle" x="134" y="-13" font-family="Helvetica,sans-Serif" font-size="10.00">ft_render_start_loop</text>
</a>
</g>
</g>
<!-- Node13&#45;&gt;Node14 -->
<g id="edge14" class="edge">
<title>Node13&#45;&gt;Node14</title>
<path fill="none" stroke="midnightblue" d="M216.56,-15.5C208.22,-15.5 199.71,-15.5 191.48,-15.5"/>
<polygon fill="midnightblue" stroke="midnightblue" points="216.61,-19 226.61,-15.5 216.61,-12 216.61,-19"/>
</g>
<!-- Node15 -->
<g id="node15" class="node">
<title>Node15</title>
<g id="a_node15"><a xlink:href="main_8c.html#a3c04138a5bfe5d72780bb7e82a18e627" target="_top" xlink:title=" ">
<polygon fill="none" stroke="black" points="0,-6 0,-25 41,-25 41,-6 0,-6"/>
<text text-anchor="middle" x="20.5" y="-13" font-family="Helvetica,sans-Serif" font-size="10.00">main</text>
</a>
</g>
</g>
<!-- Node14&#45;&gt;Node15 -->
<g id="edge15" class="edge">
<title>Node14&#45;&gt;Node15</title>
<path fill="none" stroke="midnightblue" d="M66.7,-15.5C57.37,-15.5 48.45,-15.5 41.04,-15.5"/>
<polygon fill="midnightblue" stroke="midnightblue" points="66.92,-19 76.92,-15.5 66.92,-12 66.92,-19"/>
</g>
</g>
</svg>
        <g id="navigator" transform="translate(0 0)" fill="#404254">
                <rect fill="#f2f5e9" fill-opacity="0.5" stroke="#606060" stroke-width=".5" x="0" y="0" width="60" height="60"/>
                <use id="zoomplus" xlink:href="#zoomPlus" x="17" y="9" onmousedown="handleZoom(evt,'in')"/>
                <use id="zoomminus" xlink:href="#zoomMin" x="42" y="9" onmousedown="handleZoom(evt,'out')"/>
                <use id="reset" xlink:href="#resetDef" x="30" y="36" onmousedown="handleReset()"/>
                <g id="arrowUp" xlink:href="#dirArrow" transform="translate(30 24)" onmousedown="handlePan(0,-1)">
                  <use xlink:href="#rim" fill="#404040">
                        <set attributeName="fill" to="#808080" begin="arrowUp.mouseover" end="arrowUp.mouseout"/>
                  </use>
                  <path fill="none" stroke="white" stroke-width="1.5" d="M0,-3.0v7 M-2.5,-0.5L0,-3.0L2.5,-0.5"/>
                </g>
                <g id="arrowRight" xlink:href="#dirArrow" transform="rotate(90) translate(36 -43)" onmousedown="handlePan(1,0)">
                  <use xlink:href="#rim" fill="#404040">
                        <set attributeName="fill" to="#808080" begin="arrowRight.mouseover" end="arrowRight.mouseout"/>
                  </use>
                  <path fill="none" stroke="white" stroke-width="1.5" d="M0,-3.0v7 M-2.5,-0.5L0,-3.0L2.5,-0.5"/>
                </g>
                <g id="arrowDown" xlink:href="#dirArrow" transform="rotate(180) translate(-30 -48)" onmousedown="handlePan(0,1)">
                  <use xlink:href="#rim" fill="#404040">
                        <set attributeName="fill" to="#808080" begin="arrowDown.mouseover" end="arrowDown.mouseout"/>
                  </use>
                  <path fill="none" stroke="white" stroke-width="1.5" d="M0,-3.0v7 M-2.5,-0.5L0,-3.0L2.5,-0.5"/>
                </g>
                <g id="arrowLeft" xlink:href="#dirArrow" transform="rotate(270) translate(-36 17)" onmousedown="handlePan(-1,0)">
                  <use xlink:href="#rim" fill="#404040">
                        <set attributeName="fill" to="#808080" begin="arrowLeft.mouseover" end="arrowLeft.mouseout"/>
                  </use>
                  <path fill="none" stroke="white" stroke-width="1.5" d="M0,-3.0v7 M-2.5,-0.5L0,-3.0L2.5,-0.5"/>
                </g>
        </g>
        <svg viewBox="0 0 15 15" width="100%" height="30px" preserveAspectRatio="xMaxYMin meet">
         <g id="arrow_out" transform="scale(0.3 0.3)">
          <a xlink:href="scene__shadow_8c_a931177e8edb2dd5393cef7a468389a4d_icgraph_org.svg" target="_base">
           <rect id="button" ry="5" rx="5" y="6" x="6" height="38" width="38"
                fill="#f2f5e9" fill-opacity="0.5" stroke="#606060" stroke-width="1.0"/>
           <path id="arrow"
             d="M 11.500037,31.436501 C 11.940474,20.09759 22.043105,11.32322 32.158766,21.979434 L 37.068811,17.246167 C 37.068811,17.246167 37.088388,32 37.088388,32 L 22.160133,31.978069 C 22.160133,31.978069 26.997745,27.140456 26.997745,27.140456 C 18.528582,18.264221 13.291696,25.230495 11.500037,31.436501 z"
             style="fill:#404040;"/>
          </a>
         </g>
        </svg>
</svg>
