<?xml version="1.0" encoding="UTF-8" standalone="no"?>
<!DOCTYPE svg PUBLIC "-//W3C//DTD SVG 1.1//EN"
 "http://www.w3.org/Graphics/SVG/1.1/DTD/svg11.dtd">
<!-- Generated by graphviz version 2.43.0 (0)
 -->
<!-- Title: ft_diffuse_light Pages: 1 -->
<svg width="377pt" height="66pt"
 viewBox="0.00 0.00 377.00 66.00" xmlns="http://www.w3.org/2000/svg" xmlns:xlink="http://www.w3.org/1999/xlink">
<g id="graph0" class="graph" transform="scale(1 1) rotate(0) translate(4 62)">
<title>ft_diffuse_light</title>
<!-- Node1 -->
<g id="node1" class="node">
<title>Node1</title>
<g id="a_node1"><a xlink:title="Create diffuse lighting.">
<polygon fill="#bfbfbf" stroke="black" points="280,-0.5 280,-19.5 369,-19.5 369,-0.5 280,-0.5"/>
<text text-anchor="middle" x="324.5" y="-7.5" font-family="Helvetica,sans-Serif" font-size="10.00">ft_diffuse_light</text>
</a>
</g>
</g>
<!-- Node2 -->
<g id="node2" class="node">
<title>Node2</title>
<g id="a_node2"><a xlink:href="lighting__bonus_8h.html#ac85883d276b27394b86511c7eaa4d4ae" target="_top" xlink:title="Computes the colour of light interacting with different material properties.">
<polygon fill="none" stroke="black" points="137,-19.5 137,-38.5 244,-38.5 244,-19.5 137,-19.5"/>
<text text-anchor="middle" x="190.5" y="-26.5" font-family="Helvetica,sans-Serif" font-size="10.00">ft_compute_colour</text>
</a>
</g>
</g>
<!-- Node1&#45;&gt;Node2 -->
<g id="edge1" class="edge">
<title>Node1&#45;&gt;Node2</title>
<path fill="none" stroke="midnightblue" d="M269.8,-17.73C261.36,-18.94 252.65,-20.2 244.23,-21.41"/>
<polygon fill="midnightblue" stroke="midnightblue" points="270.51,-21.16 279.91,-16.27 269.52,-14.23 270.51,-21.16"/>
</g>
<!-- Node4 -->
<g id="node4" class="node">
<title>Node4</title>
<g id="a_node4"><a xlink:href="lighting__bonus_8h.html#a72c122146878dc126a6472d159526c14" target="_top" xlink:title="Create reflective lighting by recursion.">
<polygon fill="none" stroke="black" points="0,-0.5 0,-19.5 101,-19.5 101,-0.5 0,-0.5"/>
<text text-anchor="middle" x="50.5" y="-7.5" font-family="Helvetica,sans-Serif" font-size="10.00">ft_reflective_light</text>
</a>
</g>
</g>
<!-- Node1&#45;&gt;Node4 -->
<g id="edge5" class="edge">
<title>Node1&#45;&gt;Node4</title>
<path fill="none" stroke="midnightblue" d="M269.7,-10C220.64,-10 148.77,-10 101.09,-10"/>
<polygon fill="midnightblue" stroke="midnightblue" points="269.8,-13.5 279.8,-10 269.8,-6.5 269.8,-13.5"/>
</g>
<!-- Node3 -->
<g id="node3" class="node">
<title>Node3</title>
<g id="a_node3"><a xlink:href="lighting__bonus_8h.html#a7a7ed2ff6f725c296f088c0f2f0d0843" target="_top" xlink:title="Calculate the effect of different lighting on perception.">
<polygon fill="none" stroke="black" points="13.5,-38.5 13.5,-57.5 87.5,-57.5 87.5,-38.5 13.5,-38.5"/>
<text text-anchor="middle" x="50.5" y="-45.5" font-family="Helvetica,sans-Serif" font-size="10.00">ft_enlighten</text>
</a>
</g>
</g>
<!-- Node2&#45;&gt;Node3 -->
<g id="edge2" class="edge">
<title>Node2&#45;&gt;Node3</title>
<path fill="none" stroke="midnightblue" d="M126.78,-37.64C113.37,-39.48 99.65,-41.37 87.65,-43.02"/>
<polygon fill="midnightblue" stroke="midnightblue" points="127.51,-41.07 136.93,-36.24 126.55,-34.13 127.51,-41.07"/>
</g>
<!-- Node2&#45;&gt;Node4 -->
<g id="edge3" class="edge">
<title>Node2&#45;&gt;Node4</title>
<path fill="none" stroke="midnightblue" d="M150.73,-17.52C135.38,-14.75 117.55,-12.17 101.27,-10.34"/>
<polygon fill="midnightblue" stroke="midnightblue" points="150.43,-21.03 160.91,-19.47 151.74,-14.15 150.43,-21.03"/>
</g>
<!-- Node4&#45;&gt;Node2 -->
<g id="edge4" class="edge">
<title>Node4&#45;&gt;Node2</title>
<path fill="none" stroke="midnightblue" d="M90.1,-21.45C104.61,-24.07 121.37,-26.53 136.93,-28.34"/>
<polygon fill="midnightblue" stroke="midnightblue" points="90.46,-17.95 79.98,-19.51 89.14,-24.83 90.46,-17.95"/>
</g>
</g>
</svg>
