<?xml version="1.0" encoding="UTF-8" standalone="no"?>
<!DOCTYPE svg PUBLIC "-//W3C//DTD SVG 1.1//EN"
 "http://www.w3.org/Graphics/SVG/1.1/DTD/svg11.dtd">
<!-- Generated by graphviz version 2.43.0 (0)
 -->
<!-- Title: t_hittable Pages: 1 -->
<svg width="408pt" height="262pt"
 viewBox="0.00 0.00 407.88 262.00" xmlns="http://www.w3.org/2000/svg" xmlns:xlink="http://www.w3.org/1999/xlink">
<g id="graph0" class="graph" transform="scale(1 1) rotate(0) translate(4 258)">
<title>t_hittable</title>
<!-- Node1 -->
<g id="node1" class="node">
<title>Node1</title>
<g id="a_node1"><a xlink:title="Represents a hittable.">
<polygon fill="#bfbfbf" stroke="black" points="159.38,-0.5 159.38,-19.5 222.38,-19.5 222.38,-0.5 159.38,-0.5"/>
<text text-anchor="middle" x="190.88" y="-7.5" font-family="Helvetica,sans-Serif" font-size="10.00">t_hittable</text>
</a>
</g>
</g>
<!-- Node2 -->
<g id="node2" class="node">
<title>Node2</title>
<g id="a_node2"><a xlink:href="uniont__shape.html" target="_top" xlink:title="Contains information of the different shapes.">
<polygon fill="none" stroke="black" points="163.38,-67.5 163.38,-86.5 218.38,-86.5 218.38,-67.5 163.38,-67.5"/>
<text text-anchor="middle" x="190.88" y="-74.5" font-family="Helvetica,sans-Serif" font-size="10.00">t_shape</text>
</a>
</g>
</g>
<!-- Node2&#45;&gt;Node1 -->
<g id="edge1" class="edge">
<title>Node2&#45;&gt;Node1</title>
<path fill="none" stroke="#9a32cd" stroke-dasharray="5,2" d="M190.88,-57.04C190.88,-44.67 190.88,-29.12 190.88,-19.63"/>
<polygon fill="#9a32cd" stroke="#9a32cd" points="187.38,-57.23 190.88,-67.23 194.38,-57.23 187.38,-57.23"/>
<text text-anchor="middle" x="210.88" y="-41" font-family="Helvetica,sans-Serif" font-size="10.00"> params</text>
</g>
<!-- Node3 -->
<g id="node3" class="node">
<title>Node3</title>
<g id="a_node3"><a xlink:href="structt__plane.html" target="_top" xlink:title="Represents a plane.">
<polygon fill="none" stroke="black" points="210.38,-134.5 210.38,-153.5 263.38,-153.5 263.38,-134.5 210.38,-134.5"/>
<text text-anchor="middle" x="236.88" y="-141.5" font-family="Helvetica,sans-Serif" font-size="10.00">t_plane</text>
</a>
</g>
</g>
<!-- Node3&#45;&gt;Node2 -->
<g id="edge2" class="edge">
<title>Node3&#45;&gt;Node2</title>
<path fill="none" stroke="#9a32cd" stroke-dasharray="5,2" d="M224.78,-125.9C215.84,-113.27 204.04,-96.6 196.98,-86.63"/>
<polygon fill="#9a32cd" stroke="#9a32cd" points="222.04,-128.09 230.67,-134.23 227.75,-124.05 222.04,-128.09"/>
<text text-anchor="middle" x="222.38" y="-108" font-family="Helvetica,sans-Serif" font-size="10.00"> pl</text>
</g>
<!-- Node4 -->
<g id="node4" class="node">
<title>Node4</title>
<g id="a_node4"><a xlink:href="structt__colour.html" target="_top" xlink:title="Represents an RGB colour with float values from 0.0 &#45; 1.0.">
<polygon fill="none" stroke="black" points="105.88,-234.5 105.88,-253.5 161.88,-253.5 161.88,-234.5 105.88,-234.5"/>
<text text-anchor="middle" x="133.88" y="-241.5" font-family="Helvetica,sans-Serif" font-size="10.00">t_colour</text>
</a>
</g>
</g>
<!-- Node4&#45;&gt;Node3 -->
<g id="edge3" class="edge">
<title>Node4&#45;&gt;Node3</title>
<path fill="none" stroke="#9a32cd" stroke-dasharray="5,2" d="M140.13,-224.91C147.09,-205.18 157.89,-175.87 161.88,-172 168.98,-165.11 191.55,-157.49 210.09,-152.11"/>
<polygon fill="#9a32cd" stroke="#9a32cd" points="136.81,-223.83 136.81,-234.42 143.41,-226.13 136.81,-223.83"/>
<text text-anchor="middle" x="178.88" y="-191.5" font-family="Helvetica,sans-Serif" font-size="10.00"> colour</text>
</g>
<!-- Node6 -->
<g id="node6" class="node">
<title>Node6</title>
<g id="a_node6"><a xlink:href="structt__sphere.html" target="_top" xlink:title="Represents a sphere.">
<polygon fill="none" stroke="black" points="133.38,-134.5 133.38,-153.5 192.38,-153.5 192.38,-134.5 133.38,-134.5"/>
<text text-anchor="middle" x="162.88" y="-141.5" font-family="Helvetica,sans-Serif" font-size="10.00">t_sphere</text>
</a>
</g>
</g>
<!-- Node4&#45;&gt;Node6 -->
<g id="edge6" class="edge">
<title>Node4&#45;&gt;Node6</title>
<path fill="none" stroke="#9a32cd" stroke-dasharray="5,2" d="M95.79,-239.48C80.49,-235.97 64.28,-229.15 54.88,-216 43.5,-200.09 42.84,-187.41 54.88,-172 55.5,-171.2 101.54,-159.89 133.3,-152.16"/>
<polygon fill="#9a32cd" stroke="#9a32cd" points="95.16,-242.92 105.63,-241.33 96.46,-236.04 95.16,-242.92"/>
<text text-anchor="middle" x="71.88" y="-191.5" font-family="Helvetica,sans-Serif" font-size="10.00"> colour</text>
</g>
<!-- Node7 -->
<g id="node7" class="node">
<title>Node7</title>
<g id="a_node7"><a xlink:href="structt__cylinder.html" target="_top" xlink:title="Represents a cylinder.">
<polygon fill="none" stroke="black" points="50.38,-134.5 50.38,-153.5 115.38,-153.5 115.38,-134.5 50.38,-134.5"/>
<text text-anchor="middle" x="82.88" y="-141.5" font-family="Helvetica,sans-Serif" font-size="10.00">t_cylinder</text>
</a>
</g>
</g>
<!-- Node4&#45;&gt;Node7 -->
<g id="edge9" class="edge">
<title>Node4&#45;&gt;Node7</title>
<path fill="none" stroke="#9a32cd" stroke-dasharray="5,2" d="M95.46,-239.91C62.84,-236.4 19.63,-229.33 8.88,-216 -3.41,-200.78 -2.33,-188.02 8.88,-172 18.21,-158.67 34.85,-151.89 50,-148.46"/>
<polygon fill="#9a32cd" stroke="#9a32cd" points="95.33,-243.42 105.63,-240.93 96.03,-236.45 95.33,-243.42"/>
<text text-anchor="middle" x="25.88" y="-191.5" font-family="Helvetica,sans-Serif" font-size="10.00"> colour</text>
</g>
<!-- Node8 -->
<g id="node8" class="node">
<title>Node8</title>
<g id="a_node8"><a xlink:href="structt__cone.html" target="_top" xlink:title="Represents a cone.">
<polygon fill="none" stroke="black" points="281.38,-134.5 281.38,-153.5 330.38,-153.5 330.38,-134.5 281.38,-134.5"/>
<text text-anchor="middle" x="305.88" y="-141.5" font-family="Helvetica,sans-Serif" font-size="10.00">t_cone</text>
</a>
</g>
</g>
<!-- Node4&#45;&gt;Node8 -->
<g id="edge12" class="edge">
<title>Node4&#45;&gt;Node8</title>
<path fill="none" stroke="#9a32cd" stroke-dasharray="5,2" d="M172.04,-238.47C203.19,-234.09 244.07,-226.56 256.88,-216 273.31,-202.45 263.45,-189.3 275.88,-172 280.94,-164.94 288.14,-158.39 294.22,-153.5"/>
<polygon fill="#9a32cd" stroke="#9a32cd" points="171.34,-235.03 161.9,-239.84 172.28,-241.97 171.34,-235.03"/>
<text text-anchor="middle" x="292.88" y="-191.5" font-family="Helvetica,sans-Serif" font-size="10.00"> colour</text>
</g>
<!-- Node5 -->
<g id="node5" class="node">
<title>Node5</title>
<g id="a_node5"><a xlink:href="structt__vec3.html" target="_top" xlink:title="Represents a tridimensional vector.">
<polygon fill="none" stroke="black" points="228.38,-234.5 228.38,-253.5 277.38,-253.5 277.38,-234.5 228.38,-234.5"/>
<text text-anchor="middle" x="252.88" y="-241.5" font-family="Helvetica,sans-Serif" font-size="10.00">t_vec3</text>
</a>
</g>
</g>
<!-- Node5&#45;&gt;Node3 -->
<g id="edge4" class="edge">
<title>Node5&#45;&gt;Node3</title>
<path fill="none" stroke="#9a32cd" stroke-dasharray="5,2" d="M287.39,-235.49C297.67,-231.48 307.8,-225.34 313.88,-216 324.55,-199.61 325.19,-187.95 313.88,-172 310.78,-167.64 284.55,-159.03 263.55,-152.7"/>
<polygon fill="#9a32cd" stroke="#9a32cd" points="286.01,-232.26 277.62,-238.73 288.21,-238.91 286.01,-232.26"/>
<text text-anchor="middle" x="340.88" y="-197" font-family="Helvetica,sans-Serif" font-size="10.00"> normal</text>
<text text-anchor="middle" x="340.88" y="-186" font-family="Helvetica,sans-Serif" font-size="10.00">point</text>
</g>
<!-- Node5&#45;&gt;Node6 -->
<g id="edge7" class="edge">
<title>Node5&#45;&gt;Node6</title>
<path fill="none" stroke="#9a32cd" stroke-dasharray="5,2" d="M233.71,-227.62C229.86,-224.04 226.04,-220.08 222.88,-216 209.35,-198.57 214.28,-188.72 199.88,-172 193.65,-164.77 185.13,-158.39 177.84,-153.64"/>
<polygon fill="#9a32cd" stroke="#9a32cd" points="231.58,-230.41 241.42,-234.34 236.18,-225.13 231.58,-230.41"/>
<text text-anchor="middle" x="239.88" y="-191.5" font-family="Helvetica,sans-Serif" font-size="10.00"> centre</text>
</g>
<!-- Node5&#45;&gt;Node7 -->
<g id="edge10" class="edge">
<title>Node5&#45;&gt;Node7</title>
<path fill="none" stroke="#9a32cd" stroke-dasharray="5,2" d="M218.36,-238.41C178.17,-232.79 116.2,-223.12 107.88,-216 98.2,-207.71 88.76,-170.86 84.81,-153.76"/>
<polygon fill="#9a32cd" stroke="#9a32cd" points="217.93,-241.89 228.31,-239.78 218.88,-234.95 217.93,-241.89"/>
<text text-anchor="middle" x="123.38" y="-208" font-family="Helvetica,sans-Serif" font-size="10.00"> axis</text>
<text text-anchor="middle" x="123.38" y="-197" font-family="Helvetica,sans-Serif" font-size="10.00">cap1</text>
<text text-anchor="middle" x="123.38" y="-186" font-family="Helvetica,sans-Serif" font-size="10.00">cap2</text>
<text text-anchor="middle" x="123.38" y="-175" font-family="Helvetica,sans-Serif" font-size="10.00">centre</text>
</g>
<!-- Node5&#45;&gt;Node8 -->
<g id="edge13" class="edge">
<title>Node5&#45;&gt;Node8</title>
<path fill="none" stroke="#9a32cd" stroke-dasharray="5,2" d="M287.66,-239.21C316.59,-235.26 354.49,-227.94 363.88,-216 375.96,-200.62 374.39,-188.49 363.88,-172 356.53,-160.48 342.86,-153.8 330.63,-149.96"/>
<polygon fill="#9a32cd" stroke="#9a32cd" points="286.96,-235.77 277.48,-240.52 287.85,-242.72 286.96,-235.77"/>
<text text-anchor="middle" x="385.88" y="-202.5" font-family="Helvetica,sans-Serif" font-size="10.00"> apex</text>
<text text-anchor="middle" x="385.88" y="-191.5" font-family="Helvetica,sans-Serif" font-size="10.00">axis</text>
<text text-anchor="middle" x="385.88" y="-180.5" font-family="Helvetica,sans-Serif" font-size="10.00">base</text>
</g>
<!-- Node6&#45;&gt;Node2 -->
<g id="edge5" class="edge">
<title>Node6&#45;&gt;Node2</title>
<path fill="none" stroke="#9a32cd" stroke-dasharray="5,2" d="M170.72,-124.79C176.1,-112.31 182.99,-96.31 187.16,-86.63"/>
<polygon fill="#9a32cd" stroke="#9a32cd" points="167.39,-123.66 166.65,-134.23 173.82,-126.43 167.39,-123.66"/>
<text text-anchor="middle" x="185.38" y="-108" font-family="Helvetica,sans-Serif" font-size="10.00"> sp</text>
</g>
<!-- Node7&#45;&gt;Node2 -->
<g id="edge8" class="edge">
<title>Node7&#45;&gt;Node2</title>
<path fill="none" stroke="#9a32cd" stroke-dasharray="5,2" d="M106.23,-128.94C127.62,-116.07 158.6,-97.43 176.54,-86.63"/>
<polygon fill="#9a32cd" stroke="#9a32cd" points="104.2,-126.08 97.44,-134.23 107.81,-132.08 104.2,-126.08"/>
<text text-anchor="middle" x="150.38" y="-108" font-family="Helvetica,sans-Serif" font-size="10.00"> cy</text>
</g>
<!-- Node8&#45;&gt;Node2 -->
<g id="edge11" class="edge">
<title>Node8&#45;&gt;Node2</title>
<path fill="none" stroke="#9a32cd" stroke-dasharray="5,2" d="M281.62,-129.29C258.82,-116.4 225.42,-97.52 206.14,-86.63"/>
<polygon fill="#9a32cd" stroke="#9a32cd" points="279.94,-132.36 290.37,-134.23 283.38,-126.27 279.94,-132.36"/>
<text text-anchor="middle" x="262.38" y="-108" font-family="Helvetica,sans-Serif" font-size="10.00"> co</text>
</g>
</g>
</svg>
