<?xml version="1.0" encoding="UTF-8" standalone="no"?>
<!DOCTYPE svg PUBLIC "-//W3C//DTD SVG 1.1//EN"
 "http://www.w3.org/Graphics/SVG/1.1/DTD/svg11.dtd">
<!-- Generated by graphviz version 2.43.0 (0)
 -->
<!-- Title: t_cam Pages: 1 -->
<svg width="302pt" height="219pt"
 viewBox="0.00 0.00 302.00 219.00" xmlns="http://www.w3.org/2000/svg" xmlns:xlink="http://www.w3.org/1999/xlink">
<g id="graph0" class="graph" transform="scale(1 1) rotate(0) translate(4 215)">
<title>t_cam</title>
<!-- Node1 -->
<g id="node1" class="node">
<title>Node1</title>
<g id="a_node1"><a xlink:title="Contains camera parameters.">
<polygon fill="#bfbfbf" stroke="black" points="105,-0.5 105,-19.5 152,-19.5 152,-0.5 105,-0.5"/>
<text text-anchor="middle" x="128.5" y="-7.5" font-family="Helvetica,sans-Serif" font-size="10.00">t_cam</text>
</a>
</g>
</g>
<!-- Node2 -->
<g id="node2" class="node">
<title>Node2</title>
<g id="a_node2"><a xlink:href="structt__vec2f.html" target="_top" xlink:title="2D vector with float.">
<polygon fill="none" stroke="black" points="0,-85 0,-104 53,-104 53,-85 0,-85"/>
<text text-anchor="middle" x="26.5" y="-92" font-family="Helvetica,sans-Serif" font-size="10.00">t_vec2f</text>
</a>
</g>
</g>
<!-- Node2&#45;&gt;Node1 -->
<g id="edge1" class="edge">
<title>Node2&#45;&gt;Node1</title>
<path fill="none" stroke="#9a32cd" stroke-dasharray="5,2" d="M33.23,-75.27C38.49,-63.26 46.87,-47.96 58.5,-38 71.76,-26.65 90.32,-19.78 104.99,-15.82"/>
<polygon fill="#9a32cd" stroke="#9a32cd" points="29.9,-74.18 29.41,-84.77 36.39,-76.8 29.9,-74.18"/>
<text text-anchor="middle" x="81.5" y="-41" font-family="Helvetica,sans-Serif" font-size="10.00"> viewport</text>
</g>
<!-- Node3 -->
<g id="node3" class="node">
<title>Node3</title>
<g id="a_node3"><a xlink:href="structt__vec2i.html" target="_top" xlink:title="2D vector with int.">
<polygon fill="none" stroke="black" points="71.5,-85 71.5,-104 123.5,-104 123.5,-85 71.5,-85"/>
<text text-anchor="middle" x="97.5" y="-92" font-family="Helvetica,sans-Serif" font-size="10.00">t_vec2i</text>
</a>
</g>
</g>
<!-- Node3&#45;&gt;Node1 -->
<g id="edge2" class="edge">
<title>Node3&#45;&gt;Node1</title>
<path fill="none" stroke="#9a32cd" stroke-dasharray="5,2" d="M100.69,-74.81C102.93,-63.82 106.45,-49.8 111.5,-38 114.29,-31.48 118.54,-24.73 122.09,-19.61"/>
<polygon fill="#9a32cd" stroke="#9a32cd" points="97.19,-74.49 98.79,-84.96 104.07,-75.77 97.19,-74.49"/>
<text text-anchor="middle" x="128.5" y="-41" font-family="Helvetica,sans-Serif" font-size="10.00"> image</text>
</g>
<!-- Node4 -->
<g id="node4" class="node">
<title>Node4</title>
<g id="a_node4"><a xlink:href="structt__pixel__grid.html" target="_top" xlink:title="Pixel grid is a virtual grid of equispaced pixels in the viewport.">
<polygon fill="none" stroke="black" points="221,-85 221,-104 294,-104 294,-85 221,-85"/>
<text text-anchor="middle" x="257.5" y="-92" font-family="Helvetica,sans-Serif" font-size="10.00">t_pixel_grid</text>
</a>
</g>
</g>
<!-- Node4&#45;&gt;Node1 -->
<g id="edge3" class="edge">
<title>Node4&#45;&gt;Node1</title>
<path fill="none" stroke="#9a32cd" stroke-dasharray="5,2" d="M236.25,-79.09C219.37,-67.73 195.09,-51.6 173.5,-38 163.48,-31.69 152.03,-24.82 143.19,-19.6"/>
<polygon fill="#9a32cd" stroke="#9a32cd" points="234.56,-82.17 244.8,-84.86 238.47,-76.37 234.56,-82.17"/>
<text text-anchor="middle" x="206.5" y="-41" font-family="Helvetica,sans-Serif" font-size="10.00"> pixels</text>
</g>
<!-- Node5 -->
<g id="node5" class="node">
<title>Node5</title>
<g id="a_node5"><a xlink:href="structt__vec3.html" target="_top" xlink:title="Represents a tridimensional vector.">
<polygon fill="none" stroke="black" points="151,-191.5 151,-210.5 200,-210.5 200,-191.5 151,-191.5"/>
<text text-anchor="middle" x="175.5" y="-198.5" font-family="Helvetica,sans-Serif" font-size="10.00">t_vec3</text>
</a>
</g>
</g>
<!-- Node5&#45;&gt;Node1 -->
<g id="edge5" class="edge">
<title>Node5&#45;&gt;Node1</title>
<path fill="none" stroke="#9a32cd" stroke-dasharray="5,2" d="M174.31,-181.06C171.87,-150.16 164.79,-87.37 145.5,-38 142.92,-31.4 138.67,-24.65 135.06,-19.55"/>
<polygon fill="#9a32cd" stroke="#9a32cd" points="170.84,-181.53 175.04,-191.25 177.82,-181.03 170.84,-181.53"/>
<text text-anchor="middle" x="189" y="-114" font-family="Helvetica,sans-Serif" font-size="10.00"> centre</text>
<text text-anchor="middle" x="189" y="-103" font-family="Helvetica,sans-Serif" font-size="10.00">direction</text>
<text text-anchor="middle" x="189" y="-92" font-family="Helvetica,sans-Serif" font-size="10.00">u</text>
<text text-anchor="middle" x="189" y="-81" font-family="Helvetica,sans-Serif" font-size="10.00">v</text>
<text text-anchor="middle" x="189" y="-70" font-family="Helvetica,sans-Serif" font-size="10.00">w</text>
</g>
<!-- Node5&#45;&gt;Node4 -->
<g id="edge4" class="edge">
<title>Node5&#45;&gt;Node4</title>
<path fill="none" stroke="#9a32cd" stroke-dasharray="5,2" d="M188.46,-183.48C206.11,-161 237.04,-121.57 250.7,-104.17"/>
<polygon fill="#9a32cd" stroke="#9a32cd" points="185.63,-181.42 182.21,-191.45 191.14,-185.74 185.63,-181.42"/>
<text text-anchor="middle" x="241.5" y="-165" font-family="Helvetica,sans-Serif" font-size="10.00"> delta_u</text>
<text text-anchor="middle" x="241.5" y="-154" font-family="Helvetica,sans-Serif" font-size="10.00">delta_v</text>
<text text-anchor="middle" x="241.5" y="-143" font-family="Helvetica,sans-Serif" font-size="10.00">pos00</text>
</g>
</g>
</svg>
