<?xml version="1.0" encoding="UTF-8" standalone="no"?>
<!DOCTYPE svg PUBLIC "-//W3C//DTD SVG 1.1//EN"
 "http://www.w3.org/Graphics/SVG/1.1/DTD/svg11.dtd">
<!-- Generated by graphviz version 2.43.0 (0)
 -->
<!-- Title: t_sphere Pages: 1 -->
<svg width="132pt" height="95pt"
 viewBox="0.00 0.00 131.50 95.00" xmlns="http://www.w3.org/2000/svg" xmlns:xlink="http://www.w3.org/1999/xlink">
<g id="graph0" class="graph" transform="scale(1 1) rotate(0) translate(4 91)">
<title>t_sphere</title>
<!-- Node1 -->
<g id="node1" class="node">
<title>Node1</title>
<g id="a_node1"><a xlink:title="Represents a sphere.">
<polygon fill="#bfbfbf" stroke="black" points="33.5,-0.5 33.5,-19.5 92.5,-19.5 92.5,-0.5 33.5,-0.5"/>
<text text-anchor="middle" x="63" y="-7.5" font-family="Helvetica,sans-Serif" font-size="10.00">t_sphere</text>
</a>
</g>
</g>
<!-- Node2 -->
<g id="node2" class="node">
<title>Node2</title>
<g id="a_node2"><a xlink:href="structt__colour.html" target="_top" xlink:title="Represents an RGB colour with float values from 0.0 &#45; 1.0.">
<polygon fill="none" stroke="black" points="0,-67.5 0,-86.5 56,-86.5 56,-67.5 0,-67.5"/>
<text text-anchor="middle" x="28" y="-74.5" font-family="Helvetica,sans-Serif" font-size="10.00">t_colour</text>
</a>
</g>
</g>
<!-- Node2&#45;&gt;Node1 -->
<g id="edge1" class="edge">
<title>Node2&#45;&gt;Node1</title>
<path fill="none" stroke="#9a32cd" stroke-dasharray="5,2" d="M34.19,-57.51C36.6,-51.16 39.6,-44.12 43,-38 46.62,-31.47 51.62,-24.72 55.72,-19.6"/>
<polygon fill="#9a32cd" stroke="#9a32cd" points="30.77,-56.66 30.72,-67.26 37.37,-59.01 30.77,-56.66"/>
<text text-anchor="middle" x="60" y="-41" font-family="Helvetica,sans-Serif" font-size="10.00"> colour</text>
</g>
<!-- Node3 -->
<g id="node3" class="node">
<title>Node3</title>
<g id="a_node3"><a xlink:href="structt__vec3.html" target="_top" xlink:title="Represents a tridimensional vector.">
<polygon fill="none" stroke="black" points="74.5,-67.5 74.5,-86.5 123.5,-86.5 123.5,-67.5 74.5,-67.5"/>
<text text-anchor="middle" x="99" y="-74.5" font-family="Helvetica,sans-Serif" font-size="10.00">t_vec3</text>
</a>
</g>
</g>
<!-- Node3&#45;&gt;Node1 -->
<g id="edge2" class="edge">
<title>Node3&#45;&gt;Node1</title>
<path fill="none" stroke="#9a32cd" stroke-dasharray="5,2" d="M89.12,-58.16C82.18,-45.63 73.2,-29.41 67.78,-19.63"/>
<polygon fill="#9a32cd" stroke="#9a32cd" points="86.24,-60.18 94.14,-67.23 92.36,-56.79 86.24,-60.18"/>
<text text-anchor="middle" x="100" y="-41" font-family="Helvetica,sans-Serif" font-size="10.00"> centre</text>
</g>
</g>
</svg>
