<?xml version="1.0" encoding="UTF-8" standalone="no"?>
<!DOCTYPE svg PUBLIC "-//W3C//DTD SVG 1.1//EN"
 "http://www.w3.org/Graphics/SVG/1.1/DTD/svg11.dtd">
<!-- Generated by graphviz version 2.43.0 (0)
 -->
<!-- Title: inc/texture_bonus.h Pages: 1 -->
<svg width="593pt" height="420pt"
 viewBox="0.00 0.00 592.84 420.00" xmlns="http://www.w3.org/2000/svg" xmlns:xlink="http://www.w3.org/1999/xlink">
<g id="graph0" class="graph" transform="scale(1 1) rotate(0) translate(4 416)">
<title>inc/texture_bonus.h</title>
<!-- Node1 -->
<g id="node1" class="node">
<title>Node1</title>
<g id="a_node1"><a xlink:title=" ">
<polygon fill="#bfbfbf" stroke="black" points="103.34,-392.5 103.34,-411.5 216.34,-411.5 216.34,-392.5 103.34,-392.5"/>
<text text-anchor="middle" x="159.84" y="-399.5" font-family="Helvetica,sans-Serif" font-size="10.00">inc/texture_bonus.h</text>
</a>
</g>
</g>
<!-- Node2 -->
<g id="node2" class="node">
<title>Node2</title>
<g id="a_node2"><a xlink:title=" ">
<polygon fill="none" stroke="#bfbfbf" points="239.34,-0.5 239.34,-19.5 290.34,-19.5 290.34,-0.5 239.34,-0.5"/>
<text text-anchor="middle" x="264.84" y="-7.5" font-family="Helvetica,sans-Serif" font-size="10.00">math.h</text>
</a>
</g>
</g>
<!-- Node1&#45;&gt;Node2 -->
<g id="edge1" class="edge">
<title>Node1&#45;&gt;Node2</title>
<path fill="none" stroke="midnightblue" d="M121.75,-392.46C74.71,-379.4 0.84,-349.57 0.84,-291 0.84,-291 0.84,-291 0.84,-121 0.84,-90.9 -2.51,-76.16 19.84,-56 50.05,-28.74 168.25,-17.24 228.74,-13.06"/>
<polygon fill="midnightblue" stroke="midnightblue" points="229.24,-16.54 238.98,-12.39 228.77,-9.55 229.24,-16.54"/>
</g>
<!-- Node3 -->
<g id="node3" class="node">
<title>Node3</title>
<g id="a_node3"><a xlink:href="hit__manager__bonus_8h.html" target="_top" xlink:title=" ">
<polygon fill="none" stroke="black" points="306.84,-336.5 306.84,-355.5 428.84,-355.5 428.84,-336.5 306.84,-336.5"/>
<text text-anchor="middle" x="367.84" y="-343.5" font-family="Helvetica,sans-Serif" font-size="10.00">hit_manager_bonus.h</text>
</a>
</g>
</g>
<!-- Node1&#45;&gt;Node3 -->
<g id="edge2" class="edge">
<title>Node1&#45;&gt;Node3</title>
<path fill="none" stroke="midnightblue" d="M192.79,-392.44C228.62,-383.14 286,-368.25 325.23,-358.06"/>
<polygon fill="midnightblue" stroke="midnightblue" points="326.23,-361.42 335.03,-355.52 324.47,-354.64 326.23,-361.42"/>
</g>
<!-- Node4 -->
<g id="node4" class="node">
<title>Node4</title>
<g id="a_node4"><a xlink:href="ray__bonus_8h.html" target="_top" xlink:title=" ">
<polygon fill="none" stroke="black" points="362.84,-280.5 362.84,-299.5 438.84,-299.5 438.84,-280.5 362.84,-280.5"/>
<text text-anchor="middle" x="400.84" y="-287.5" font-family="Helvetica,sans-Serif" font-size="10.00">ray_bonus.h</text>
</a>
</g>
</g>
<!-- Node3&#45;&gt;Node4 -->
<g id="edge3" class="edge">
<title>Node3&#45;&gt;Node4</title>
<path fill="none" stroke="midnightblue" d="M373.29,-336.08C377.85,-328.61 384.51,-317.72 390.13,-308.52"/>
<polygon fill="midnightblue" stroke="midnightblue" points="393.26,-310.11 395.49,-299.75 387.29,-306.46 393.26,-310.11"/>
</g>
<!-- Node12 -->
<g id="node12" class="node">
<title>Node12</title>
<g id="a_node12"><a xlink:href="utils__bonus_8h.html" target="_top" xlink:title=" ">
<polygon fill="none" stroke="black" points="310.34,-112.5 310.34,-131.5 391.34,-131.5 391.34,-112.5 310.34,-112.5"/>
<text text-anchor="middle" x="350.84" y="-119.5" font-family="Helvetica,sans-Serif" font-size="10.00">utils_bonus.h</text>
</a>
</g>
</g>
<!-- Node3&#45;&gt;Node12 -->
<g id="edge26" class="edge">
<title>Node3&#45;&gt;Node12</title>
<path fill="none" stroke="midnightblue" d="M364.28,-336.21C360.86,-327.27 355.91,-312.93 353.84,-300 344.68,-242.98 347.35,-174.29 349.42,-141.8"/>
<polygon fill="midnightblue" stroke="midnightblue" points="352.93,-141.77 350.13,-131.55 345.94,-141.28 352.93,-141.77"/>
</g>
<!-- Node18 -->
<g id="node18" class="node">
<title>Node18</title>
<g id="a_node18"><a xlink:href="mini_r_t__config__bonus_8h.html" target="_top" xlink:title=" ">
<polygon fill="none" stroke="black" points="456.84,-280.5 456.84,-299.5 584.84,-299.5 584.84,-280.5 456.84,-280.5"/>
<text text-anchor="middle" x="520.84" y="-287.5" font-family="Helvetica,sans-Serif" font-size="10.00">miniRT_config_bonus.h</text>
</a>
</g>
</g>
<!-- Node3&#45;&gt;Node18 -->
<g id="edge27" class="edge">
<title>Node3&#45;&gt;Node18</title>
<path fill="none" stroke="midnightblue" d="M392.08,-336.44C417.71,-327.4 458.32,-313.06 487.08,-302.92"/>
<polygon fill="midnightblue" stroke="midnightblue" points="488.44,-306.15 496.71,-299.52 486.11,-299.54 488.44,-306.15"/>
</g>
<!-- Node5 -->
<g id="node5" class="node">
<title>Node5</title>
<g id="a_node5"><a xlink:href="entities__bonus_8h.html" target="_top" xlink:title=" ">
<polygon fill="none" stroke="black" points="386.34,-224.5 386.34,-243.5 483.34,-243.5 483.34,-224.5 386.34,-224.5"/>
<text text-anchor="middle" x="434.84" y="-231.5" font-family="Helvetica,sans-Serif" font-size="10.00">entities_bonus.h</text>
</a>
</g>
</g>
<!-- Node4&#45;&gt;Node5 -->
<g id="edge4" class="edge">
<title>Node4&#45;&gt;Node5</title>
<path fill="none" stroke="midnightblue" d="M406.45,-280.08C411.2,-272.53 418.15,-261.49 423.99,-252.23"/>
<polygon fill="midnightblue" stroke="midnightblue" points="426.96,-254.08 429.33,-243.75 421.04,-250.35 426.96,-254.08"/>
</g>
<!-- Node14 -->
<g id="node14" class="node">
<title>Node14</title>
<g id="a_node14"><a xlink:href="camera_8h.html" target="_top" xlink:title=" ">
<polygon fill="none" stroke="black" points="191.84,-112.5 191.84,-131.5 253.84,-131.5 253.84,-112.5 191.84,-112.5"/>
<text text-anchor="middle" x="222.84" y="-119.5" font-family="Helvetica,sans-Serif" font-size="10.00">camera.h</text>
</a>
</g>
</g>
<!-- Node4&#45;&gt;Node14 -->
<g id="edge19" class="edge">
<title>Node4&#45;&gt;Node14</title>
<path fill="none" stroke="midnightblue" d="M391.27,-280.08C362.4,-253.15 275.93,-172.51 239.41,-138.45"/>
<polygon fill="midnightblue" stroke="midnightblue" points="241.72,-135.83 232.02,-131.57 236.95,-140.95 241.72,-135.83"/>
</g>
<!-- Node6 -->
<g id="node6" class="node">
<title>Node6</title>
<g id="a_node6"><a xlink:title=" ">
<polygon fill="none" stroke="#bfbfbf" points="365.84,-0.5 365.84,-19.5 427.84,-19.5 427.84,-0.5 365.84,-0.5"/>
<text text-anchor="middle" x="396.84" y="-7.5" font-family="Helvetica,sans-Serif" font-size="10.00">stdbool.h</text>
</a>
</g>
</g>
<!-- Node5&#45;&gt;Node6 -->
<g id="edge5" class="edge">
<title>Node5&#45;&gt;Node6</title>
<path fill="none" stroke="midnightblue" d="M460.3,-224.43C479.25,-217.06 504.85,-204.94 522.84,-188 567.46,-145.97 600.08,-104.69 562.84,-56 547.76,-36.29 482.31,-23.21 438.24,-16.45"/>
<polygon fill="midnightblue" stroke="midnightblue" points="438.49,-12.95 428.09,-14.95 437.47,-19.88 438.49,-12.95"/>
</g>
<!-- Node7 -->
<g id="node7" class="node">
<title>Node7</title>
<g id="a_node7"><a xlink:title=" ">
<polygon fill="none" stroke="#bfbfbf" points="500.34,-56.5 500.34,-75.5 553.34,-75.5 553.34,-56.5 500.34,-56.5"/>
<text text-anchor="middle" x="526.84" y="-63.5" font-family="Helvetica,sans-Serif" font-size="10.00">stdlib.h</text>
</a>
</g>
</g>
<!-- Node5&#45;&gt;Node7 -->
<g id="edge6" class="edge">
<title>Node5&#45;&gt;Node7</title>
<path fill="none" stroke="midnightblue" d="M450.4,-224.35C475.43,-209.38 523.56,-176.01 540.84,-132 546.83,-116.74 541.86,-98.4 536.25,-85.1"/>
<polygon fill="midnightblue" stroke="midnightblue" points="539.24,-83.23 531.81,-75.67 532.91,-86.21 539.24,-83.23"/>
</g>
<!-- Node8 -->
<g id="node8" class="node">
<title>Node8</title>
<g id="a_node8"><a xlink:href="vec3_8h.html" target="_top" xlink:title=" ">
<polygon fill="none" stroke="black" points="273.34,-56.5 273.34,-75.5 322.34,-75.5 322.34,-56.5 273.34,-56.5"/>
<text text-anchor="middle" x="297.84" y="-63.5" font-family="Helvetica,sans-Serif" font-size="10.00">vec3.h</text>
</a>
</g>
</g>
<!-- Node5&#45;&gt;Node8 -->
<g id="edge7" class="edge">
<title>Node5&#45;&gt;Node8</title>
<path fill="none" stroke="midnightblue" d="M414.67,-224.46C384.08,-210.29 326.87,-178.78 301.84,-132 294.25,-117.83 293.86,-99.35 295.01,-85.71"/>
<polygon fill="midnightblue" stroke="midnightblue" points="298.5,-85.95 296.21,-75.61 291.55,-85.12 298.5,-85.95"/>
</g>
<!-- Node9 -->
<g id="node9" class="node">
<title>Node9</title>
<g id="a_node9"><a xlink:href="colour__bonus_8h.html" target="_top" xlink:title=" ">
<polygon fill="none" stroke="black" points="389.84,-168.5 389.84,-187.5 479.84,-187.5 479.84,-168.5 389.84,-168.5"/>
<text text-anchor="middle" x="434.84" y="-175.5" font-family="Helvetica,sans-Serif" font-size="10.00">colour_bonus.h</text>
</a>
</g>
</g>
<!-- Node5&#45;&gt;Node9 -->
<g id="edge10" class="edge">
<title>Node5&#45;&gt;Node9</title>
<path fill="none" stroke="midnightblue" d="M434.84,-224.08C434.84,-217.01 434.84,-206.86 434.84,-197.99"/>
<polygon fill="midnightblue" stroke="midnightblue" points="438.34,-197.75 434.84,-187.75 431.34,-197.75 438.34,-197.75"/>
</g>
<!-- Node8&#45;&gt;Node2 -->
<g id="edge8" class="edge">
<title>Node8&#45;&gt;Node2</title>
<path fill="none" stroke="midnightblue" d="M292.39,-56.08C287.82,-48.61 281.17,-37.72 275.54,-28.52"/>
<polygon fill="midnightblue" stroke="midnightblue" points="278.39,-26.46 270.18,-19.75 272.41,-30.11 278.39,-26.46"/>
</g>
<!-- Node8&#45;&gt;Node6 -->
<g id="edge9" class="edge">
<title>Node8&#45;&gt;Node6</title>
<path fill="none" stroke="midnightblue" d="M313.74,-56.32C329.47,-47.74 353.78,-34.49 372.05,-24.52"/>
<polygon fill="midnightblue" stroke="midnightblue" points="373.87,-27.52 380.97,-19.65 370.52,-21.37 373.87,-27.52"/>
</g>
<!-- Node10 -->
<g id="node10" class="node">
<title>Node10</title>
<g id="a_node10"><a xlink:title=" ">
<polygon fill="none" stroke="#bfbfbf" points="409.84,-112.5 409.84,-131.5 459.84,-131.5 459.84,-112.5 409.84,-112.5"/>
<text text-anchor="middle" x="434.84" y="-119.5" font-family="Helvetica,sans-Serif" font-size="10.00">stdio.h</text>
</a>
</g>
</g>
<!-- Node9&#45;&gt;Node10 -->
<g id="edge11" class="edge">
<title>Node9&#45;&gt;Node10</title>
<path fill="none" stroke="midnightblue" d="M434.84,-168.08C434.84,-161.01 434.84,-150.86 434.84,-141.99"/>
<polygon fill="midnightblue" stroke="midnightblue" points="438.34,-141.75 434.84,-131.75 431.34,-141.75 438.34,-141.75"/>
</g>
<!-- Node11 -->
<g id="node11" class="node">
<title>Node11</title>
<g id="a_node11"><a xlink:title=" ">
<polygon fill="none" stroke="#bfbfbf" points="478.34,-112.5 478.34,-131.5 531.34,-131.5 531.34,-112.5 478.34,-112.5"/>
<text text-anchor="middle" x="504.84" y="-119.5" font-family="Helvetica,sans-Serif" font-size="10.00">stdint.h</text>
</a>
</g>
</g>
<!-- Node9&#45;&gt;Node11 -->
<g id="edge12" class="edge">
<title>Node9&#45;&gt;Node11</title>
<path fill="none" stroke="midnightblue" d="M446.08,-168.32C456.63,-160.18 472.64,-147.84 485.28,-138.09"/>
<polygon fill="midnightblue" stroke="midnightblue" points="487.61,-140.71 493.39,-131.83 483.33,-135.17 487.61,-140.71"/>
</g>
<!-- Node9&#45;&gt;Node12 -->
<g id="edge13" class="edge">
<title>Node9&#45;&gt;Node12</title>
<path fill="none" stroke="midnightblue" d="M421.34,-168.32C408.24,-159.9 388.12,-146.97 372.73,-137.07"/>
<polygon fill="midnightblue" stroke="midnightblue" points="374.6,-134.12 364.3,-131.65 370.82,-140.01 374.6,-134.12"/>
</g>
<!-- Node12&#45;&gt;Node2 -->
<g id="edge14" class="edge">
<title>Node12&#45;&gt;Node2</title>
<path fill="none" stroke="midnightblue" d="M350.16,-112.17C348.75,-98.84 344.48,-73.27 331.84,-56 322.02,-42.59 306.91,-31.94 293.53,-24.38"/>
<polygon fill="midnightblue" stroke="midnightblue" points="295.1,-21.25 284.62,-19.64 291.81,-27.43 295.1,-21.25"/>
</g>
<!-- Node12&#45;&gt;Node6 -->
<g id="edge15" class="edge">
<title>Node12&#45;&gt;Node6</title>
<path fill="none" stroke="midnightblue" d="M384.64,-112.39C403.23,-105.74 424.73,-94.45 435.84,-76 446.09,-58.97 430.67,-39.41 416.3,-26.23"/>
<polygon fill="midnightblue" stroke="midnightblue" points="418.47,-23.48 408.6,-19.63 413.91,-28.79 418.47,-23.48"/>
</g>
<!-- Node12&#45;&gt;Node7 -->
<g id="edge16" class="edge">
<title>Node12&#45;&gt;Node7</title>
<path fill="none" stroke="midnightblue" d="M378.72,-112.44C408.94,-103.17 457.27,-88.34 490.46,-78.16"/>
<polygon fill="midnightblue" stroke="midnightblue" points="491.7,-81.44 500.23,-75.16 489.64,-74.75 491.7,-81.44"/>
</g>
<!-- Node12&#45;&gt;Node8 -->
<g id="edge18" class="edge">
<title>Node12&#45;&gt;Node8</title>
<path fill="none" stroke="midnightblue" d="M342.08,-112.08C334.37,-104.22 322.93,-92.57 313.62,-83.08"/>
<polygon fill="midnightblue" stroke="midnightblue" points="315.93,-80.44 306.43,-75.75 310.93,-85.34 315.93,-80.44"/>
</g>
<!-- Node13 -->
<g id="node13" class="node">
<title>Node13</title>
<g id="a_node13"><a xlink:title=" ">
<polygon fill="none" stroke="#bfbfbf" points="378.84,-56.5 378.84,-75.5 426.84,-75.5 426.84,-56.5 378.84,-56.5"/>
<text text-anchor="middle" x="402.84" y="-63.5" font-family="Helvetica,sans-Serif" font-size="10.00">time.h</text>
</a>
</g>
</g>
<!-- Node12&#45;&gt;Node13 -->
<g id="edge17" class="edge">
<title>Node12&#45;&gt;Node13</title>
<path fill="none" stroke="midnightblue" d="M359.42,-112.08C367,-104.22 378.21,-92.57 387.35,-83.08"/>
<polygon fill="midnightblue" stroke="midnightblue" points="389.99,-85.38 394.41,-75.75 384.95,-80.53 389.99,-85.38"/>
</g>
<!-- Node14&#45;&gt;Node8 -->
<g id="edge21" class="edge">
<title>Node14&#45;&gt;Node8</title>
<path fill="none" stroke="midnightblue" d="M234.89,-112.32C246.3,-104.11 263.67,-91.6 277.27,-81.81"/>
<polygon fill="midnightblue" stroke="midnightblue" points="279.5,-84.52 285.57,-75.83 275.41,-78.84 279.5,-84.52"/>
</g>
<!-- Node15 -->
<g id="node15" class="node">
<title>Node15</title>
<g id="a_node15"><a xlink:href="vec2_8h.html" target="_top" xlink:title=" ">
<polygon fill="none" stroke="black" points="141.34,-56.5 141.34,-75.5 190.34,-75.5 190.34,-56.5 141.34,-56.5"/>
<text text-anchor="middle" x="165.84" y="-63.5" font-family="Helvetica,sans-Serif" font-size="10.00">vec2.h</text>
</a>
</g>
</g>
<!-- Node14&#45;&gt;Node15 -->
<g id="edge20" class="edge">
<title>Node14&#45;&gt;Node15</title>
<path fill="none" stroke="midnightblue" d="M213.68,-112.32C205.34,-104.42 192.8,-92.55 182.66,-82.94"/>
<polygon fill="midnightblue" stroke="midnightblue" points="184.83,-80.17 175.16,-75.83 180.01,-85.25 184.83,-80.17"/>
</g>
<!-- Node16 -->
<g id="node16" class="node">
<title>Node16</title>
<g id="a_node16"><a xlink:href="utils_8h.html" target="_top" xlink:title=" ">
<polygon fill="none" stroke="black" points="208.34,-56.5 208.34,-75.5 255.34,-75.5 255.34,-56.5 208.34,-56.5"/>
<text text-anchor="middle" x="231.84" y="-63.5" font-family="Helvetica,sans-Serif" font-size="10.00">utils.h</text>
</a>
</g>
</g>
<!-- Node14&#45;&gt;Node16 -->
<g id="edge22" class="edge">
<title>Node14&#45;&gt;Node16</title>
<path fill="none" stroke="midnightblue" d="M224.32,-112.08C225.52,-104.93 227.23,-94.64 228.72,-85.69"/>
<polygon fill="midnightblue" stroke="midnightblue" points="232.19,-86.19 230.38,-75.75 225.28,-85.04 232.19,-86.19"/>
</g>
<!-- Node17 -->
<g id="node17" class="node">
<title>Node17</title>
<g id="a_node17"><a xlink:href="mini_r_t__config_8h.html" target="_top" xlink:title=" ">
<polygon fill="none" stroke="black" points="28.84,-56.5 28.84,-75.5 122.84,-75.5 122.84,-56.5 28.84,-56.5"/>
<text text-anchor="middle" x="75.84" y="-63.5" font-family="Helvetica,sans-Serif" font-size="10.00">miniRT_config.h</text>
</a>
</g>
</g>
<!-- Node14&#45;&gt;Node17 -->
<g id="edge25" class="edge">
<title>Node14&#45;&gt;Node17</title>
<path fill="none" stroke="midnightblue" d="M199.54,-112.44C175.03,-103.44 136.24,-89.19 108.64,-79.05"/>
<polygon fill="midnightblue" stroke="midnightblue" points="109.61,-75.68 99.02,-75.52 107.2,-82.25 109.61,-75.68"/>
</g>
<!-- Node16&#45;&gt;Node2 -->
<g id="edge23" class="edge">
<title>Node16&#45;&gt;Node2</title>
<path fill="none" stroke="midnightblue" d="M237.29,-56.08C241.85,-48.61 248.51,-37.72 254.13,-28.52"/>
<polygon fill="midnightblue" stroke="midnightblue" points="257.26,-30.11 259.49,-19.75 251.29,-26.46 257.26,-30.11"/>
</g>
<!-- Node16&#45;&gt;Node6 -->
<g id="edge24" class="edge">
<title>Node16&#45;&gt;Node6</title>
<path fill="none" stroke="midnightblue" d="M255.48,-57.26C283.06,-48.24 328.95,-33.22 360.93,-22.75"/>
<polygon fill="midnightblue" stroke="midnightblue" points="362.37,-25.96 370.79,-19.52 360.2,-19.31 362.37,-25.96"/>
</g>
</g>
</svg>
