<?xml version="1.0" encoding="UTF-8" standalone="no"?>
<!DOCTYPE svg PUBLIC "-//W3C//DTD SVG 1.1//EN"
 "http://www.w3.org/Graphics/SVG/1.1/DTD/svg11.dtd">
<!-- Generated by graphviz version 2.43.0 (0)
 -->
<!-- Title: src/texture_bonus.c Pages: 1 -->
<!--zoomable 476 -->
<svg id="main" version="1.1" xmlns="http://www.w3.org/2000/svg" xmlns:xlink="http://www.w3.org/1999/xlink" xml:space="preserve" onload="init(evt)">
<style type="text/css"><![CDATA[
.edge:hover path { stroke: red; }
.edge:hover polygon { stroke: red; fill: red; }
]]></style>
<script type="text/javascript"><![CDATA[
var edges = document.getElementsByTagName('g');
if (edges && edges.length) {
  for (var i=0;i<edges.length;i++) {
    if (edges[i].id.substr(0,4)=='edge') {
      edges[i].setAttribute('class','edge');
    }
  }
}
]]></script>
        <defs>
                <circle id="rim" cx="0" cy="0" r="7"/>
                <circle id="rim2" cx="0" cy="0" r="3.5"/>
                <g id="zoomPlus">
                        <use xlink:href="#rim" fill="#404040">
                                <set attributeName="fill" to="#808080" begin="zoomplus.mouseover" end="zoomplus.mouseout"/>
                        </use>
                        <path d="M-4,0h8M0,-4v8" fill="none" stroke="white" stroke-width="1.5" pointer-events="none"/>
                </g>
                <g id="zoomMin">
                        <use xlink:href="#rim" fill="#404040">
                                <set attributeName="fill" to="#808080" begin="zoomminus.mouseover" end="zoomminus.mouseout"/>
                        </use>
                        <path d="M-4,0h8" fill="none" stroke="white" stroke-width="1.5" pointer-events="none"/>
                </g>
                <g id="dirArrow">
                        <path fill="none" stroke="white" stroke-width="1.5" d="M0,-3.0v7 M-2.5,-0.5L0,-3.0L2.5,-0.5"/>
                </g>
               <g id="resetDef">
                       <use xlink:href="#rim2" fill="#404040">
                               <set attributeName="fill" to="#808080" begin="reset.mouseover" end="reset.mouseout"/>
                       </use>
               </g>
        </defs>

<script type="text/javascript">
var viewWidth = 583;
var viewHeight = 476;
var sectionId = 'dynsection-0';
</script>
<script xlink:href="svgpan.js"/>
<svg id="graph" class="graph">
<g id="viewport">
<title>src/texture_bonus.c</title>
<!-- Node1 -->
<g id="node1" class="node">
<title>Node1</title>
<g id="a_node1"><a xlink:title=" ">
<polygon fill="#bfbfbf" stroke="black" points="0,-448.5 0,-467.5 112,-467.5 112,-448.5 0,-448.5"/>
<text text-anchor="middle" x="56" y="-455.5" font-family="Helvetica,sans-Serif" font-size="10.00">src/texture_bonus.c</text>
</a>
</g>
</g>
<!-- Node2 -->
<g id="node2" class="node">
<title>Node2</title>
<g id="a_node2"><a xlink:href="texture__bonus_8h.html" target="_top" xlink:title=" ">
<polygon fill="none" stroke="black" points="8.5,-392.5 8.5,-411.5 103.5,-411.5 103.5,-392.5 8.5,-392.5"/>
<text text-anchor="middle" x="56" y="-399.5" font-family="Helvetica,sans-Serif" font-size="10.00">texture_bonus.h</text>
</a>
</g>
</g>
<!-- Node1&#45;&gt;Node2 -->
<g id="edge1" class="edge">
<title>Node1&#45;&gt;Node2</title>
<path fill="none" stroke="midnightblue" d="M56,-448.08C56,-441.01 56,-430.86 56,-421.99"/>
<polygon fill="midnightblue" stroke="midnightblue" points="59.5,-421.75 56,-411.75 52.5,-421.75 59.5,-421.75"/>
</g>
<!-- Node3 -->
<g id="node3" class="node">
<title>Node3</title>
<g id="a_node3"><a xlink:title=" ">
<polygon fill="none" stroke="#bfbfbf" points="256.5,-0.5 256.5,-19.5 307.5,-19.5 307.5,-0.5 256.5,-0.5"/>
<text text-anchor="middle" x="282" y="-7.5" font-family="Helvetica,sans-Serif" font-size="10.00">math.h</text>
</a>
</g>
</g>
<!-- Node2&#45;&gt;Node3 -->
<g id="edge2" class="edge">
<title>Node2&#45;&gt;Node3</title>
<path fill="none" stroke="midnightblue" d="M49.6,-392.39C36.96,-374.5 10,-331.57 10,-291 10,-291 10,-291 10,-121 10,-70.63 172.34,-32.43 246.19,-17.67"/>
<polygon fill="midnightblue" stroke="midnightblue" points="247.27,-21.02 256.41,-15.66 245.92,-14.15 247.27,-21.02"/>
</g>
<!-- Node4 -->
<g id="node4" class="node">
<title>Node4</title>
<g id="a_node4"><a xlink:href="hit__manager__bonus_8h.html" target="_top" xlink:title=" ">
<polygon fill="none" stroke="black" points="113,-336.5 113,-355.5 235,-355.5 235,-336.5 113,-336.5"/>
<text text-anchor="middle" x="174" y="-343.5" font-family="Helvetica,sans-Serif" font-size="10.00">hit_manager_bonus.h</text>
</a>
</g>
</g>
<!-- Node2&#45;&gt;Node4 -->
<g id="edge3" class="edge">
<title>Node2&#45;&gt;Node4</title>
<path fill="none" stroke="midnightblue" d="M74.7,-392.44C93.94,-383.64 124.15,-369.81 146.2,-359.72"/>
<polygon fill="midnightblue" stroke="midnightblue" points="147.75,-362.86 155.39,-355.52 144.84,-356.5 147.75,-362.86"/>
</g>
<!-- Node5 -->
<g id="node5" class="node">
<title>Node5</title>
<g id="a_node5"><a xlink:href="ray__bonus_8h.html" target="_top" xlink:title=" ">
<polygon fill="none" stroke="black" points="182,-280.5 182,-299.5 258,-299.5 258,-280.5 182,-280.5"/>
<text text-anchor="middle" x="220" y="-287.5" font-family="Helvetica,sans-Serif" font-size="10.00">ray_bonus.h</text>
</a>
</g>
</g>
<!-- Node4&#45;&gt;Node5 -->
<g id="edge4" class="edge">
<title>Node4&#45;&gt;Node5</title>
<path fill="none" stroke="midnightblue" d="M181.6,-336.08C188.23,-328.3 198.02,-316.8 206.06,-307.37"/>
<polygon fill="midnightblue" stroke="midnightblue" points="208.73,-309.63 212.55,-299.75 203.4,-305.09 208.73,-309.63"/>
</g>
<!-- Node13 -->
<g id="node13" class="node">
<title>Node13</title>
<g id="a_node13"><a xlink:href="utils__bonus_8h.html" target="_top" xlink:title=" ">
<polygon fill="none" stroke="black" points="328.5,-112.5 328.5,-131.5 409.5,-131.5 409.5,-112.5 328.5,-112.5"/>
<text text-anchor="middle" x="369" y="-119.5" font-family="Helvetica,sans-Serif" font-size="10.00">utils_bonus.h</text>
</a>
</g>
</g>
<!-- Node4&#45;&gt;Node13 -->
<g id="edge25" class="edge">
<title>Node4&#45;&gt;Node13</title>
<path fill="none" stroke="midnightblue" d="M201.81,-336.5C221.78,-329.3 248.35,-317.35 267,-300 317.14,-253.35 349.67,-176.37 362.63,-141.36"/>
<polygon fill="midnightblue" stroke="midnightblue" points="366.07,-142.15 366.15,-131.55 359.48,-139.78 366.07,-142.15"/>
</g>
<!-- Node17 -->
<g id="node17" class="node">
<title>Node17</title>
<g id="a_node17"><a xlink:href="mini_r_t__config__bonus_8h.html" target="_top" xlink:title=" ">
<polygon fill="none" stroke="black" points="38,-168.5 38,-187.5 166,-187.5 166,-168.5 38,-168.5"/>
<text text-anchor="middle" x="102" y="-175.5" font-family="Helvetica,sans-Serif" font-size="10.00">miniRT_config_bonus.h</text>
</a>
</g>
</g>
<!-- Node4&#45;&gt;Node17 -->
<g id="edge26" class="edge">
<title>Node4&#45;&gt;Node17</title>
<path fill="none" stroke="midnightblue" d="M170.13,-336.08C158.75,-309.83 125.22,-232.55 109.86,-197.12"/>
<polygon fill="midnightblue" stroke="midnightblue" points="112.91,-195.35 105.72,-187.57 106.48,-198.14 112.91,-195.35"/>
</g>
<!-- Node6 -->
<g id="node6" class="node">
<title>Node6</title>
<g id="a_node6"><a xlink:href="entities__bonus_8h.html" target="_top" xlink:title=" ">
<polygon fill="none" stroke="black" points="404.5,-224.5 404.5,-243.5 501.5,-243.5 501.5,-224.5 404.5,-224.5"/>
<text text-anchor="middle" x="453" y="-231.5" font-family="Helvetica,sans-Serif" font-size="10.00">entities_bonus.h</text>
</a>
</g>
</g>
<!-- Node5&#45;&gt;Node6 -->
<g id="edge5" class="edge">
<title>Node5&#45;&gt;Node6</title>
<path fill="none" stroke="midnightblue" d="M256.92,-280.44C297.4,-271.06 362.42,-255.99 406.38,-245.8"/>
<polygon fill="midnightblue" stroke="midnightblue" points="407.3,-249.18 416.25,-243.52 405.72,-242.36 407.3,-249.18"/>
</g>
<!-- Node15 -->
<g id="node15" class="node">
<title>Node15</title>
<g id="a_node15"><a xlink:href="camera_8h.html" target="_top" xlink:title=" ">
<polygon fill="none" stroke="black" points="189,-224.5 189,-243.5 251,-243.5 251,-224.5 189,-224.5"/>
<text text-anchor="middle" x="220" y="-231.5" font-family="Helvetica,sans-Serif" font-size="10.00">camera.h</text>
</a>
</g>
</g>
<!-- Node5&#45;&gt;Node15 -->
<g id="edge20" class="edge">
<title>Node5&#45;&gt;Node15</title>
<path fill="none" stroke="midnightblue" d="M220,-280.08C220,-273.01 220,-262.86 220,-253.99"/>
<polygon fill="midnightblue" stroke="midnightblue" points="223.5,-253.75 220,-243.75 216.5,-253.75 223.5,-253.75"/>
</g>
<!-- Node7 -->
<g id="node7" class="node">
<title>Node7</title>
<g id="a_node7"><a xlink:title=" ">
<polygon fill="none" stroke="#bfbfbf" points="408,-0.5 408,-19.5 470,-19.5 470,-0.5 408,-0.5"/>
<text text-anchor="middle" x="439" y="-7.5" font-family="Helvetica,sans-Serif" font-size="10.00">stdbool.h</text>
</a>
</g>
</g>
<!-- Node6&#45;&gt;Node7 -->
<g id="edge6" class="edge">
<title>Node6&#45;&gt;Node7</title>
<path fill="none" stroke="midnightblue" d="M478.46,-224.43C497.42,-217.06 523.01,-204.94 541,-188 567.81,-162.75 577.25,-148.68 574,-112 571.77,-86.82 580.31,-75.32 564,-56 543.29,-31.46 508.14,-20.3 480.38,-15.23"/>
<polygon fill="midnightblue" stroke="midnightblue" points="480.58,-11.72 470.14,-13.57 479.45,-18.63 480.58,-11.72"/>
</g>
<!-- Node8 -->
<g id="node8" class="node">
<title>Node8</title>
<g id="a_node8"><a xlink:title=" ">
<polygon fill="none" stroke="#bfbfbf" points="501.5,-56.5 501.5,-75.5 554.5,-75.5 554.5,-56.5 501.5,-56.5"/>
<text text-anchor="middle" x="528" y="-63.5" font-family="Helvetica,sans-Serif" font-size="10.00">stdlib.h</text>
</a>
</g>
</g>
<!-- Node6&#45;&gt;Node8 -->
<g id="edge7" class="edge">
<title>Node6&#45;&gt;Node8</title>
<path fill="none" stroke="midnightblue" d="M468.57,-224.35C493.59,-209.38 541.72,-176.01 559,-132 565.67,-115.01 554.65,-96.25 543.94,-83.27"/>
<polygon fill="midnightblue" stroke="midnightblue" points="546.42,-80.79 537.15,-75.66 541.19,-85.45 546.42,-80.79"/>
</g>
<!-- Node9 -->
<g id="node9" class="node">
<title>Node9</title>
<g id="a_node9"><a xlink:href="vec3_8h.html" target="_top" xlink:title=" ">
<polygon fill="none" stroke="black" points="257.5,-56.5 257.5,-75.5 306.5,-75.5 306.5,-56.5 257.5,-56.5"/>
<text text-anchor="middle" x="282" y="-63.5" font-family="Helvetica,sans-Serif" font-size="10.00">vec3.h</text>
</a>
</g>
</g>
<!-- Node6&#45;&gt;Node9 -->
<g id="edge8" class="edge">
<title>Node6&#45;&gt;Node9</title>
<path fill="none" stroke="midnightblue" d="M437.91,-224.29C411.52,-208.52 356.35,-173.01 320,-132 307.43,-117.81 296.9,-98.84 290.14,-85.05"/>
<polygon fill="midnightblue" stroke="midnightblue" points="293.16,-83.25 285.73,-75.69 286.83,-86.23 293.16,-83.25"/>
</g>
<!-- Node10 -->
<g id="node10" class="node">
<title>Node10</title>
<g id="a_node10"><a xlink:href="colour__bonus_8h.html" target="_top" xlink:title=" ">
<polygon fill="none" stroke="black" points="408,-168.5 408,-187.5 498,-187.5 498,-168.5 408,-168.5"/>
<text text-anchor="middle" x="453" y="-175.5" font-family="Helvetica,sans-Serif" font-size="10.00">colour_bonus.h</text>
</a>
</g>
</g>
<!-- Node6&#45;&gt;Node10 -->
<g id="edge11" class="edge">
<title>Node6&#45;&gt;Node10</title>
<path fill="none" stroke="midnightblue" d="M453,-224.08C453,-217.01 453,-206.86 453,-197.99"/>
<polygon fill="midnightblue" stroke="midnightblue" points="456.5,-197.75 453,-187.75 449.5,-197.75 456.5,-197.75"/>
</g>
<!-- Node9&#45;&gt;Node3 -->
<g id="edge9" class="edge">
<title>Node9&#45;&gt;Node3</title>
<path fill="none" stroke="midnightblue" d="M282,-56.08C282,-49.01 282,-38.86 282,-29.99"/>
<polygon fill="midnightblue" stroke="midnightblue" points="285.5,-29.75 282,-19.75 278.5,-29.75 285.5,-29.75"/>
</g>
<!-- Node9&#45;&gt;Node7 -->
<g id="edge10" class="edge">
<title>Node9&#45;&gt;Node7</title>
<path fill="none" stroke="midnightblue" d="M306.53,-56.56C332.88,-47.5 374.94,-33.03 404.59,-22.84"/>
<polygon fill="midnightblue" stroke="midnightblue" points="405.8,-26.12 414.12,-19.56 403.53,-19.5 405.8,-26.12"/>
</g>
<!-- Node11 -->
<g id="node11" class="node">
<title>Node11</title>
<g id="a_node11"><a xlink:title=" ">
<polygon fill="none" stroke="#bfbfbf" points="428,-112.5 428,-131.5 478,-131.5 478,-112.5 428,-112.5"/>
<text text-anchor="middle" x="453" y="-119.5" font-family="Helvetica,sans-Serif" font-size="10.00">stdio.h</text>
</a>
</g>
</g>
<!-- Node10&#45;&gt;Node11 -->
<g id="edge12" class="edge">
<title>Node10&#45;&gt;Node11</title>
<path fill="none" stroke="midnightblue" d="M453,-168.08C453,-161.01 453,-150.86 453,-141.99"/>
<polygon fill="midnightblue" stroke="midnightblue" points="456.5,-141.75 453,-131.75 449.5,-141.75 456.5,-141.75"/>
</g>
<!-- Node12 -->
<g id="node12" class="node">
<title>Node12</title>
<g id="a_node12"><a xlink:title=" ">
<polygon fill="none" stroke="#bfbfbf" points="496.5,-112.5 496.5,-131.5 549.5,-131.5 549.5,-112.5 496.5,-112.5"/>
<text text-anchor="middle" x="523" y="-119.5" font-family="Helvetica,sans-Serif" font-size="10.00">stdint.h</text>
</a>
</g>
</g>
<!-- Node10&#45;&gt;Node12 -->
<g id="edge13" class="edge">
<title>Node10&#45;&gt;Node12</title>
<path fill="none" stroke="midnightblue" d="M464.25,-168.32C474.8,-160.18 490.8,-147.84 503.44,-138.09"/>
<polygon fill="midnightblue" stroke="midnightblue" points="505.77,-140.71 511.55,-131.83 501.49,-135.17 505.77,-140.71"/>
</g>
<!-- Node10&#45;&gt;Node13 -->
<g id="edge14" class="edge">
<title>Node10&#45;&gt;Node13</title>
<path fill="none" stroke="midnightblue" d="M439.5,-168.32C426.4,-159.9 406.29,-146.97 390.89,-137.07"/>
<polygon fill="midnightblue" stroke="midnightblue" points="392.77,-134.12 382.46,-131.65 388.98,-140.01 392.77,-134.12"/>
</g>
<!-- Node13&#45;&gt;Node3 -->
<g id="edge15" class="edge">
<title>Node13&#45;&gt;Node3</title>
<path fill="none" stroke="midnightblue" d="M362.17,-112.37C347.75,-94.14 313.97,-51.43 295.19,-27.68"/>
<polygon fill="midnightblue" stroke="midnightblue" points="297.74,-25.26 288.8,-19.59 292.25,-29.61 297.74,-25.26"/>
</g>
<!-- Node13&#45;&gt;Node7 -->
<g id="edge16" class="edge">
<title>Node13&#45;&gt;Node7</title>
<path fill="none" stroke="midnightblue" d="M382.65,-112.25C394.2,-104.17 410.37,-91.15 420,-76 428.97,-61.89 433.83,-43.4 436.39,-29.75"/>
<polygon fill="midnightblue" stroke="midnightblue" points="439.89,-30.06 438.03,-19.63 432.98,-28.94 439.89,-30.06"/>
</g>
<!-- Node13&#45;&gt;Node8 -->
<g id="edge17" class="edge">
<title>Node13&#45;&gt;Node8</title>
<path fill="none" stroke="midnightblue" d="M394.19,-112.44C420.94,-103.36 463.4,-88.94 493.31,-78.78"/>
<polygon fill="midnightblue" stroke="midnightblue" points="494.58,-82.05 502.92,-75.52 492.33,-75.42 494.58,-82.05"/>
</g>
<!-- Node13&#45;&gt;Node9 -->
<g id="edge19" class="edge">
<title>Node13&#45;&gt;Node9</title>
<path fill="none" stroke="midnightblue" d="M355.02,-112.32C341.45,-103.9 320.62,-90.97 304.68,-81.07"/>
<polygon fill="midnightblue" stroke="midnightblue" points="306.29,-77.95 295.94,-75.65 302.59,-83.9 306.29,-77.95"/>
</g>
<!-- Node14 -->
<g id="node14" class="node">
<title>Node14</title>
<g id="a_node14"><a xlink:title=" ">
<polygon fill="none" stroke="#bfbfbf" points="363,-56.5 363,-75.5 411,-75.5 411,-56.5 363,-56.5"/>
<text text-anchor="middle" x="387" y="-63.5" font-family="Helvetica,sans-Serif" font-size="10.00">time.h</text>
</a>
</g>
</g>
<!-- Node13&#45;&gt;Node14 -->
<g id="edge18" class="edge">
<title>Node13&#45;&gt;Node14</title>
<path fill="none" stroke="midnightblue" d="M371.97,-112.08C374.38,-104.85 377.86,-94.41 380.87,-85.4"/>
<polygon fill="midnightblue" stroke="midnightblue" points="384.24,-86.34 384.08,-75.75 377.6,-84.13 384.24,-86.34"/>
</g>
<!-- Node15&#45;&gt;Node9 -->
<g id="edge22" class="edge">
<title>Node15&#45;&gt;Node9</title>
<path fill="none" stroke="midnightblue" d="M216.92,-224.38C212.88,-211.72 206.97,-187.52 213,-168 223.43,-134.24 249.45,-101.7 266.39,-83.06"/>
<polygon fill="midnightblue" stroke="midnightblue" points="268.96,-85.43 273.23,-75.73 263.85,-80.65 268.96,-85.43"/>
</g>
<!-- Node15&#45;&gt;Node13 -->
<g id="edge23" class="edge">
<title>Node15&#45;&gt;Node13</title>
<path fill="none" stroke="midnightblue" d="M231.69,-224.37C257.15,-205.57 317.84,-160.77 349.31,-137.53"/>
<polygon fill="midnightblue" stroke="midnightblue" points="351.4,-140.35 357.36,-131.59 347.24,-134.72 351.4,-140.35"/>
</g>
<!-- Node16 -->
<g id="node16" class="node">
<title>Node16</title>
<g id="a_node16"><a xlink:href="vec2_8h.html" target="_top" xlink:title=" ">
<polygon fill="none" stroke="black" points="222.5,-168.5 222.5,-187.5 271.5,-187.5 271.5,-168.5 222.5,-168.5"/>
<text text-anchor="middle" x="247" y="-175.5" font-family="Helvetica,sans-Serif" font-size="10.00">vec2.h</text>
</a>
</g>
</g>
<!-- Node15&#45;&gt;Node16 -->
<g id="edge21" class="edge">
<title>Node15&#45;&gt;Node16</title>
<path fill="none" stroke="midnightblue" d="M224.46,-224.08C228.15,-216.69 233.52,-205.95 238.09,-196.81"/>
<polygon fill="midnightblue" stroke="midnightblue" points="241.28,-198.26 242.62,-187.75 235.02,-195.13 241.28,-198.26"/>
</g>
<!-- Node15&#45;&gt;Node17 -->
<g id="edge24" class="edge">
<title>Node15&#45;&gt;Node17</title>
<path fill="none" stroke="midnightblue" d="M201.3,-224.44C182.06,-215.64 151.85,-201.81 129.8,-191.72"/>
<polygon fill="midnightblue" stroke="midnightblue" points="131.16,-188.5 120.61,-187.52 128.25,-194.86 131.16,-188.5"/>
</g>
</g>
</svg>
        <g id="navigator" transform="translate(0 0)" fill="#404254">
                <rect fill="#f2f5e9" fill-opacity="0.5" stroke="#606060" stroke-width=".5" x="0" y="0" width="60" height="60"/>
                <use id="zoomplus" xlink:href="#zoomPlus" x="17" y="9" onmousedown="handleZoom(evt,'in')"/>
                <use id="zoomminus" xlink:href="#zoomMin" x="42" y="9" onmousedown="handleZoom(evt,'out')"/>
                <use id="reset" xlink:href="#resetDef" x="30" y="36" onmousedown="handleReset()"/>
                <g id="arrowUp" xlink:href="#dirArrow" transform="translate(30 24)" onmousedown="handlePan(0,-1)">
                  <use xlink:href="#rim" fill="#404040">
                        <set attributeName="fill" to="#808080" begin="arrowUp.mouseover" end="arrowUp.mouseout"/>
                  </use>
                  <path fill="none" stroke="white" stroke-width="1.5" d="M0,-3.0v7 M-2.5,-0.5L0,-3.0L2.5,-0.5"/>
                </g>
                <g id="arrowRight" xlink:href="#dirArrow" transform="rotate(90) translate(36 -43)" onmousedown="handlePan(1,0)">
                  <use xlink:href="#rim" fill="#404040">
                        <set attributeName="fill" to="#808080" begin="arrowRight.mouseover" end="arrowRight.mouseout"/>
                  </use>
                  <path fill="none" stroke="white" stroke-width="1.5" d="M0,-3.0v7 M-2.5,-0.5L0,-3.0L2.5,-0.5"/>
                </g>
                <g id="arrowDown" xlink:href="#dirArrow" transform="rotate(180) translate(-30 -48)" onmousedown="handlePan(0,1)">
                  <use xlink:href="#rim" fill="#404040">
                        <set attributeName="fill" to="#808080" begin="arrowDown.mouseover" end="arrowDown.mouseout"/>
                  </use>
                  <path fill="none" stroke="white" stroke-width="1.5" d="M0,-3.0v7 M-2.5,-0.5L0,-3.0L2.5,-0.5"/>
                </g>
                <g id="arrowLeft" xlink:href="#dirArrow" transform="rotate(270) translate(-36 17)" onmousedown="handlePan(-1,0)">
                  <use xlink:href="#rim" fill="#404040">
                        <set attributeName="fill" to="#808080" begin="arrowLeft.mouseover" end="arrowLeft.mouseout"/>
                  </use>
                  <path fill="none" stroke="white" stroke-width="1.5" d="M0,-3.0v7 M-2.5,-0.5L0,-3.0L2.5,-0.5"/>
                </g>
        </g>
        <svg viewBox="0 0 15 15" width="100%" height="30px" preserveAspectRatio="xMaxYMin meet">
         <g id="arrow_out" transform="scale(0.3 0.3)">
          <a xlink:href="texture__bonus_8c__incl_org.svg" target="_base">
           <rect id="button" ry="5" rx="5" y="6" x="6" height="38" width="38"
                fill="#f2f5e9" fill-opacity="0.5" stroke="#606060" stroke-width="1.0"/>
           <path id="arrow"
             d="M 11.500037,31.436501 C 11.940474,20.09759 22.043105,11.32322 32.158766,21.979434 L 37.068811,17.246167 C 37.068811,17.246167 37.088388,32 37.088388,32 L 22.160133,31.978069 C 22.160133,31.978069 26.997745,27.140456 26.997745,27.140456 C 18.528582,18.264221 13.291696,25.230495 11.500037,31.436501 z"
             style="fill:#404040;"/>
          </a>
         </g>
        </svg>
</svg>
