<?xml version="1.0" encoding="UTF-8" standalone="no"?>
<!DOCTYPE svg PUBLIC "-//W3C//DTD SVG 1.1//EN"
 "http://www.w3.org/Graphics/SVG/1.1/DTD/svg11.dtd">
<!-- Generated by graphviz version 2.43.0 (0)
 -->
<!-- Title: src/texture_bonus.c Pages: 1 -->
<svg width="621pt" height="644pt"
 viewBox="0.00 0.00 620.50 644.00" xmlns="http://www.w3.org/2000/svg" xmlns:xlink="http://www.w3.org/1999/xlink">
<g id="graph0" class="graph" transform="scale(1 1) rotate(0) translate(4 640)">
<title>src/texture_bonus.c</title>
<!-- Node1 -->
<g id="node1" class="node">
<title>Node1</title>
<g id="a_node1"><a xlink:title=" ">
<polygon fill="#bfbfbf" stroke="black" points="0,-616.5 0,-635.5 112,-635.5 112,-616.5 0,-616.5"/>
<text text-anchor="middle" x="56" y="-623.5" font-family="Helvetica,sans-Serif" font-size="10.00">src/texture_bonus.c</text>
</a>
</g>
</g>
<!-- Node2 -->
<g id="node2" class="node">
<title>Node2</title>
<g id="a_node2"><a xlink:href="texture__bonus_8h.html" target="_top" xlink:title=" ">
<polygon fill="none" stroke="black" points="8.5,-560.5 8.5,-579.5 103.5,-579.5 103.5,-560.5 8.5,-560.5"/>
<text text-anchor="middle" x="56" y="-567.5" font-family="Helvetica,sans-Serif" font-size="10.00">texture_bonus.h</text>
</a>
</g>
</g>
<!-- Node1&#45;&gt;Node2 -->
<g id="edge1" class="edge">
<title>Node1&#45;&gt;Node2</title>
<path fill="none" stroke="midnightblue" d="M56,-616.08C56,-609.01 56,-598.86 56,-589.99"/>
<polygon fill="midnightblue" stroke="midnightblue" points="59.5,-589.75 56,-579.75 52.5,-589.75 59.5,-589.75"/>
</g>
<!-- Node3 -->
<g id="node3" class="node">
<title>Node3</title>
<g id="a_node3"><a xlink:title=" ">
<polygon fill="none" stroke="#bfbfbf" points="224.5,-0.5 224.5,-19.5 275.5,-19.5 275.5,-0.5 224.5,-0.5"/>
<text text-anchor="middle" x="250" y="-7.5" font-family="Helvetica,sans-Serif" font-size="10.00">math.h</text>
</a>
</g>
</g>
<!-- Node2&#45;&gt;Node3 -->
<g id="edge2" class="edge">
<title>Node2&#45;&gt;Node3</title>
<path fill="none" stroke="midnightblue" d="M49.88,-560.35C37.79,-542.38 12,-499.31 12,-459 12,-459 12,-459 12,-121 12,-33.07 147.51,-15.21 214.02,-11.74"/>
<polygon fill="midnightblue" stroke="midnightblue" points="214.24,-15.23 224.08,-11.29 213.93,-8.24 214.24,-15.23"/>
</g>
<!-- Node4 -->
<g id="node4" class="node">
<title>Node4</title>
<g id="a_node4"><a xlink:href="hit__manager__bonus_8h.html" target="_top" xlink:title=" ">
<polygon fill="none" stroke="black" points="60,-504.5 60,-523.5 182,-523.5 182,-504.5 60,-504.5"/>
<text text-anchor="middle" x="121" y="-511.5" font-family="Helvetica,sans-Serif" font-size="10.00">hit_manager_bonus.h</text>
</a>
</g>
</g>
<!-- Node2&#45;&gt;Node4 -->
<g id="edge3" class="edge">
<title>Node2&#45;&gt;Node4</title>
<path fill="none" stroke="midnightblue" d="M66.44,-560.32C76.15,-552.26 90.82,-540.08 102.5,-530.37"/>
<polygon fill="midnightblue" stroke="midnightblue" points="104.91,-532.92 110.37,-523.83 100.44,-527.53 104.91,-532.92"/>
</g>
<!-- Node5 -->
<g id="node5" class="node">
<title>Node5</title>
<g id="a_node5"><a xlink:href="ray__bonus_8h.html" target="_top" xlink:title=" ">
<polygon fill="none" stroke="black" points="249,-448.5 249,-467.5 325,-467.5 325,-448.5 249,-448.5"/>
<text text-anchor="middle" x="287" y="-455.5" font-family="Helvetica,sans-Serif" font-size="10.00">ray_bonus.h</text>
</a>
</g>
</g>
<!-- Node4&#45;&gt;Node5 -->
<g id="edge4" class="edge">
<title>Node4&#45;&gt;Node5</title>
<path fill="none" stroke="midnightblue" d="M147.3,-504.44C175.35,-495.32 219.94,-480.81 251.18,-470.65"/>
<polygon fill="midnightblue" stroke="midnightblue" points="252.39,-473.94 260.82,-467.52 250.23,-467.28 252.39,-473.94"/>
</g>
<!-- Node13 -->
<g id="node13" class="node">
<title>Node13</title>
<g id="a_node13"><a xlink:href="utils__bonus_8h.html" target="_top" xlink:title=" ">
<polygon fill="none" stroke="black" points="262.5,-112.5 262.5,-131.5 343.5,-131.5 343.5,-112.5 262.5,-112.5"/>
<text text-anchor="middle" x="303" y="-119.5" font-family="Helvetica,sans-Serif" font-size="10.00">utils_bonus.h</text>
</a>
</g>
</g>
<!-- Node4&#45;&gt;Node13 -->
<g id="edge32" class="edge">
<title>Node4&#45;&gt;Node13</title>
<path fill="none" stroke="midnightblue" d="M114.08,-504.18C94.21,-477.74 40.22,-397.14 69,-336 112.96,-242.6 174.59,-260.58 248,-188 263.52,-172.65 279.44,-153.39 290.13,-139.83"/>
<polygon fill="midnightblue" stroke="midnightblue" points="292.96,-141.88 296.34,-131.84 287.44,-137.58 292.96,-141.88"/>
</g>
<!-- Node22 -->
<g id="node22" class="node">
<title>Node22</title>
<g id="a_node22"><a xlink:href="mini_r_t__config__bonus_8h.html" target="_top" xlink:title=" ">
<polygon fill="none" stroke="black" points="78,-336.5 78,-355.5 206,-355.5 206,-336.5 78,-336.5"/>
<text text-anchor="middle" x="142" y="-343.5" font-family="Helvetica,sans-Serif" font-size="10.00">miniRT_config_bonus.h</text>
</a>
</g>
</g>
<!-- Node4&#45;&gt;Node22 -->
<g id="edge33" class="edge">
<title>Node4&#45;&gt;Node22</title>
<path fill="none" stroke="midnightblue" d="M122.13,-504.08C125.43,-477.95 135.14,-401.21 139.65,-365.58"/>
<polygon fill="midnightblue" stroke="midnightblue" points="143.13,-365.93 140.92,-355.57 136.19,-365.05 143.13,-365.93"/>
</g>
<!-- Node6 -->
<g id="node6" class="node">
<title>Node6</title>
<g id="a_node6"><a xlink:href="entities__bonus_8h.html" target="_top" xlink:title=" ">
<polygon fill="none" stroke="black" points="515.5,-224.5 515.5,-243.5 612.5,-243.5 612.5,-224.5 515.5,-224.5"/>
<text text-anchor="middle" x="564" y="-231.5" font-family="Helvetica,sans-Serif" font-size="10.00">entities_bonus.h</text>
</a>
</g>
</g>
<!-- Node5&#45;&gt;Node6 -->
<g id="edge5" class="edge">
<title>Node5&#45;&gt;Node6</title>
<path fill="none" stroke="midnightblue" d="M325.09,-450.6C392.8,-436.89 532.14,-397.62 587,-300 595.58,-284.74 586.85,-265.7 577.79,-252.18"/>
<polygon fill="midnightblue" stroke="midnightblue" points="580.4,-249.82 571.67,-243.82 574.75,-253.96 580.4,-249.82"/>
</g>
<!-- Node14 -->
<g id="node14" class="node">
<title>Node14</title>
<g id="a_node14"><a xlink:href="camera_8h.html" target="_top" xlink:title=" ">
<polygon fill="none" stroke="black" points="256,-392.5 256,-411.5 318,-411.5 318,-392.5 256,-392.5"/>
<text text-anchor="middle" x="287" y="-399.5" font-family="Helvetica,sans-Serif" font-size="10.00">camera.h</text>
</a>
</g>
</g>
<!-- Node5&#45;&gt;Node14 -->
<g id="edge19" class="edge">
<title>Node5&#45;&gt;Node14</title>
<path fill="none" stroke="midnightblue" d="M287,-448.08C287,-441.01 287,-430.86 287,-421.99"/>
<polygon fill="midnightblue" stroke="midnightblue" points="290.5,-421.75 287,-411.75 283.5,-421.75 290.5,-421.75"/>
</g>
<!-- Node7 -->
<g id="node7" class="node">
<title>Node7</title>
<g id="a_node7"><a xlink:title=" ">
<polygon fill="none" stroke="#bfbfbf" points="325,-0.5 325,-19.5 387,-19.5 387,-0.5 325,-0.5"/>
<text text-anchor="middle" x="356" y="-7.5" font-family="Helvetica,sans-Serif" font-size="10.00">stdbool.h</text>
</a>
</g>
</g>
<!-- Node6&#45;&gt;Node7 -->
<g id="edge6" class="edge">
<title>Node6&#45;&gt;Node7</title>
<path fill="none" stroke="midnightblue" d="M565.64,-224.5C567.76,-212 570.78,-187.98 567,-168 556.49,-112.52 552.56,-89.37 507,-56 474.54,-32.23 429.53,-20.92 397.11,-15.6"/>
<polygon fill="midnightblue" stroke="midnightblue" points="397.47,-12.11 387.06,-14.07 396.42,-19.03 397.47,-12.11"/>
</g>
<!-- Node8 -->
<g id="node8" class="node">
<title>Node8</title>
<g id="a_node8"><a xlink:title=" ">
<polygon fill="none" stroke="#bfbfbf" points="445.5,-56.5 445.5,-75.5 498.5,-75.5 498.5,-56.5 445.5,-56.5"/>
<text text-anchor="middle" x="472" y="-63.5" font-family="Helvetica,sans-Serif" font-size="10.00">stdlib.h</text>
</a>
</g>
</g>
<!-- Node6&#45;&gt;Node8 -->
<g id="edge7" class="edge">
<title>Node6&#45;&gt;Node8</title>
<path fill="none" stroke="midnightblue" d="M562.99,-224.36C560.19,-203.46 550.87,-149.14 526,-112 517.85,-99.84 505.49,-89.2 494.64,-81.32"/>
<polygon fill="midnightblue" stroke="midnightblue" points="496.6,-78.42 486.38,-75.62 492.63,-84.18 496.6,-78.42"/>
</g>
<!-- Node9 -->
<g id="node9" class="node">
<title>Node9</title>
<g id="a_node9"><a xlink:href="vec3_8h.html" target="_top" xlink:title=" ">
<polygon fill="none" stroke="black" points="278.5,-56.5 278.5,-75.5 327.5,-75.5 327.5,-56.5 278.5,-56.5"/>
<text text-anchor="middle" x="303" y="-63.5" font-family="Helvetica,sans-Serif" font-size="10.00">vec3.h</text>
</a>
</g>
</g>
<!-- Node6&#45;&gt;Node9 -->
<g id="edge8" class="edge">
<title>Node6&#45;&gt;Node9</title>
<path fill="none" stroke="midnightblue" d="M559.86,-224.16C547.88,-198.89 512.68,-127.2 492,-112 446.1,-78.26 378.49,-69.45 337.8,-67.36"/>
<polygon fill="midnightblue" stroke="midnightblue" points="337.71,-63.86 327.57,-66.95 337.43,-70.85 337.71,-63.86"/>
</g>
<!-- Node10 -->
<g id="node10" class="node">
<title>Node10</title>
<g id="a_node10"><a xlink:href="colour__bonus_8h.html" target="_top" xlink:title=" ">
<polygon fill="none" stroke="black" points="390,-168.5 390,-187.5 480,-187.5 480,-168.5 390,-168.5"/>
<text text-anchor="middle" x="435" y="-175.5" font-family="Helvetica,sans-Serif" font-size="10.00">colour_bonus.h</text>
</a>
</g>
</g>
<!-- Node6&#45;&gt;Node10 -->
<g id="edge11" class="edge">
<title>Node6&#45;&gt;Node10</title>
<path fill="none" stroke="midnightblue" d="M543.56,-224.44C522.33,-215.56 488.9,-201.56 464.75,-191.45"/>
<polygon fill="midnightblue" stroke="midnightblue" points="465.92,-188.15 455.34,-187.52 463.22,-194.61 465.92,-188.15"/>
</g>
<!-- Node9&#45;&gt;Node3 -->
<g id="edge9" class="edge">
<title>Node9&#45;&gt;Node3</title>
<path fill="none" stroke="midnightblue" d="M294.25,-56.08C286.53,-48.22 275.1,-36.57 265.78,-27.08"/>
<polygon fill="midnightblue" stroke="midnightblue" points="268.09,-24.44 258.59,-19.75 263.1,-29.34 268.09,-24.44"/>
</g>
<!-- Node9&#45;&gt;Node7 -->
<g id="edge10" class="edge">
<title>Node9&#45;&gt;Node7</title>
<path fill="none" stroke="midnightblue" d="M311.75,-56.08C319.47,-48.22 330.9,-36.57 340.22,-27.08"/>
<polygon fill="midnightblue" stroke="midnightblue" points="342.9,-29.34 347.41,-19.75 337.91,-24.44 342.9,-29.34"/>
</g>
<!-- Node11 -->
<g id="node11" class="node">
<title>Node11</title>
<g id="a_node11"><a xlink:title=" ">
<polygon fill="none" stroke="#bfbfbf" points="362,-112.5 362,-131.5 412,-131.5 412,-112.5 362,-112.5"/>
<text text-anchor="middle" x="387" y="-119.5" font-family="Helvetica,sans-Serif" font-size="10.00">stdio.h</text>
</a>
</g>
</g>
<!-- Node10&#45;&gt;Node11 -->
<g id="edge12" class="edge">
<title>Node10&#45;&gt;Node11</title>
<path fill="none" stroke="midnightblue" d="M427.07,-168.08C420.15,-160.3 409.93,-148.8 401.55,-139.37"/>
<polygon fill="midnightblue" stroke="midnightblue" points="404.04,-136.9 394.78,-131.75 398.81,-141.55 404.04,-136.9"/>
</g>
<!-- Node12 -->
<g id="node12" class="node">
<title>Node12</title>
<g id="a_node12"><a xlink:title=" ">
<polygon fill="none" stroke="#bfbfbf" points="430.5,-112.5 430.5,-131.5 483.5,-131.5 483.5,-112.5 430.5,-112.5"/>
<text text-anchor="middle" x="457" y="-119.5" font-family="Helvetica,sans-Serif" font-size="10.00">stdint.h</text>
</a>
</g>
</g>
<!-- Node10&#45;&gt;Node12 -->
<g id="edge13" class="edge">
<title>Node10&#45;&gt;Node12</title>
<path fill="none" stroke="midnightblue" d="M438.63,-168.08C441.61,-160.77 445.93,-150.18 449.62,-141.1"/>
<polygon fill="midnightblue" stroke="midnightblue" points="452.9,-142.33 453.43,-131.75 446.42,-139.69 452.9,-142.33"/>
</g>
<!-- Node10&#45;&gt;Node13 -->
<g id="edge14" class="edge">
<title>Node10&#45;&gt;Node13</title>
<path fill="none" stroke="midnightblue" d="M414.08,-168.44C392.26,-159.52 357.85,-145.44 333.11,-135.32"/>
<polygon fill="midnightblue" stroke="midnightblue" points="334.4,-132.06 323.82,-131.52 331.75,-138.54 334.4,-132.06"/>
</g>
<!-- Node13&#45;&gt;Node3 -->
<g id="edge15" class="edge">
<title>Node13&#45;&gt;Node3</title>
<path fill="none" stroke="midnightblue" d="M294.92,-112.34C287.27,-103.72 275.95,-89.82 269,-76 261.58,-61.23 256.57,-43.07 253.57,-29.71"/>
<polygon fill="midnightblue" stroke="midnightblue" points="256.98,-28.87 251.52,-19.79 250.12,-30.29 256.98,-28.87"/>
</g>
<!-- Node13&#45;&gt;Node7 -->
<g id="edge16" class="edge">
<title>Node13&#45;&gt;Node7</title>
<path fill="none" stroke="midnightblue" d="M310.78,-112.28C318.17,-103.61 329.13,-89.68 336,-76 343.45,-61.16 348.75,-43.01 352.02,-29.67"/>
<polygon fill="midnightblue" stroke="midnightblue" points="355.46,-30.29 354.28,-19.76 348.64,-28.73 355.46,-30.29"/>
</g>
<!-- Node13&#45;&gt;Node8 -->
<g id="edge17" class="edge">
<title>Node13&#45;&gt;Node8</title>
<path fill="none" stroke="midnightblue" d="M329.78,-112.44C358.33,-103.32 403.73,-88.81 435.54,-78.65"/>
<polygon fill="midnightblue" stroke="midnightblue" points="436.89,-81.89 445.35,-75.52 434.76,-75.23 436.89,-81.89"/>
</g>
<!-- Node13&#45;&gt;Node9 -->
<g id="edge18" class="edge">
<title>Node13&#45;&gt;Node9</title>
<path fill="none" stroke="midnightblue" d="M303,-112.08C303,-105.01 303,-94.86 303,-85.99"/>
<polygon fill="midnightblue" stroke="midnightblue" points="306.5,-85.75 303,-75.75 299.5,-85.75 306.5,-85.75"/>
</g>
<!-- Node14&#45;&gt;Node9 -->
<g id="edge21" class="edge">
<title>Node14&#45;&gt;Node9</title>
<path fill="none" stroke="midnightblue" d="M278.92,-392.34C271.27,-383.72 259.95,-369.82 253,-356 239.48,-329.11 234,-321.1 234,-291 234,-291 234,-291 234,-177 234,-146.9 236.98,-137.48 253,-112 260.31,-100.38 271.45,-89.94 281.36,-82.05"/>
<polygon fill="midnightblue" stroke="midnightblue" points="283.76,-84.62 289.63,-75.81 279.54,-79.04 283.76,-84.62"/>
</g>
<!-- Node14&#45;&gt;Node13 -->
<g id="edge30" class="edge">
<title>Node14&#45;&gt;Node13</title>
<path fill="none" stroke="midnightblue" d="M296.02,-392.34C304.07,-383.93 315.3,-370.36 320,-356 345.03,-279.54 321.07,-181.69 309.01,-141.49"/>
<polygon fill="midnightblue" stroke="midnightblue" points="312.29,-140.26 305.97,-131.75 305.6,-142.34 312.29,-140.26"/>
</g>
<!-- Node15 -->
<g id="node15" class="node">
<title>Node15</title>
<g id="a_node15"><a xlink:href="vec2_8h.html" target="_top" xlink:title=" ">
<polygon fill="none" stroke="black" points="262.5,-336.5 262.5,-355.5 311.5,-355.5 311.5,-336.5 262.5,-336.5"/>
<text text-anchor="middle" x="287" y="-343.5" font-family="Helvetica,sans-Serif" font-size="10.00">vec2.h</text>
</a>
</g>
</g>
<!-- Node14&#45;&gt;Node15 -->
<g id="edge20" class="edge">
<title>Node14&#45;&gt;Node15</title>
<path fill="none" stroke="midnightblue" d="M287,-392.08C287,-385.01 287,-374.86 287,-365.99"/>
<polygon fill="midnightblue" stroke="midnightblue" points="290.5,-365.75 287,-355.75 283.5,-365.75 290.5,-365.75"/>
</g>
<!-- Node16 -->
<g id="node16" class="node">
<title>Node16</title>
<g id="a_node16"><a xlink:href="error__syscall_8h.html" target="_top" xlink:title=" ">
<polygon fill="none" stroke="black" points="398,-336.5 398,-355.5 486,-355.5 486,-336.5 398,-336.5"/>
<text text-anchor="middle" x="442" y="-343.5" font-family="Helvetica,sans-Serif" font-size="10.00">error_syscall.h</text>
</a>
</g>
</g>
<!-- Node14&#45;&gt;Node16 -->
<g id="edge22" class="edge">
<title>Node14&#45;&gt;Node16</title>
<path fill="none" stroke="midnightblue" d="M311.56,-392.44C337.52,-383.4 378.67,-369.06 407.8,-358.92"/>
<polygon fill="midnightblue" stroke="midnightblue" points="409.26,-362.11 417.55,-355.52 406.96,-355.5 409.26,-362.11"/>
</g>
<!-- Node14&#45;&gt;Node22 -->
<g id="edge31" class="edge">
<title>Node14&#45;&gt;Node22</title>
<path fill="none" stroke="midnightblue" d="M264.02,-392.44C239.84,-383.44 201.58,-369.19 174.35,-359.05"/>
<polygon fill="midnightblue" stroke="midnightblue" points="175.46,-355.73 164.87,-355.52 173.02,-362.29 175.46,-355.73"/>
</g>
<!-- Node17 -->
<g id="node17" class="node">
<title>Node17</title>
<g id="a_node17"><a xlink:title=" ">
<polygon fill="none" stroke="#bfbfbf" points="436.5,-280.5 436.5,-299.5 483.5,-299.5 483.5,-280.5 436.5,-280.5"/>
<text text-anchor="middle" x="460" y="-287.5" font-family="Helvetica,sans-Serif" font-size="10.00">fcntl.h</text>
</a>
</g>
</g>
<!-- Node16&#45;&gt;Node17 -->
<g id="edge23" class="edge">
<title>Node16&#45;&gt;Node17</title>
<path fill="none" stroke="midnightblue" d="M444.97,-336.08C447.38,-328.85 450.86,-318.41 453.87,-309.4"/>
<polygon fill="midnightblue" stroke="midnightblue" points="457.24,-310.34 457.08,-299.75 450.6,-308.13 457.24,-310.34"/>
</g>
<!-- Node18 -->
<g id="node18" class="node">
<title>Node18</title>
<g id="a_node18"><a xlink:href="error__type_8h.html" target="_top" xlink:title=" ">
<polygon fill="none" stroke="black" points="502,-280.5 502,-299.5 578,-299.5 578,-280.5 502,-280.5"/>
<text text-anchor="middle" x="540" y="-287.5" font-family="Helvetica,sans-Serif" font-size="10.00">error_type.h</text>
</a>
</g>
</g>
<!-- Node16&#45;&gt;Node18 -->
<g id="edge24" class="edge">
<title>Node16&#45;&gt;Node18</title>
<path fill="none" stroke="midnightblue" d="M457.75,-336.32C473.32,-327.74 497.38,-314.49 515.46,-304.52"/>
<polygon fill="midnightblue" stroke="midnightblue" points="517.22,-307.55 524.29,-299.65 513.85,-301.42 517.22,-307.55"/>
</g>
<!-- Node19 -->
<g id="node19" class="node">
<title>Node19</title>
<g id="a_node19"><a xlink:href="error__msg_8h.html" target="_top" xlink:title=" ">
<polygon fill="none" stroke="black" points="343.5,-280.5 343.5,-299.5 418.5,-299.5 418.5,-280.5 343.5,-280.5"/>
<text text-anchor="middle" x="381" y="-287.5" font-family="Helvetica,sans-Serif" font-size="10.00">error_msg.h</text>
</a>
</g>
</g>
<!-- Node16&#45;&gt;Node19 -->
<g id="edge25" class="edge">
<title>Node16&#45;&gt;Node19</title>
<path fill="none" stroke="midnightblue" d="M432.2,-336.32C423.18,-328.34 409.59,-316.31 398.68,-306.65"/>
<polygon fill="midnightblue" stroke="midnightblue" points="400.79,-303.84 390.98,-299.83 396.15,-309.08 400.79,-303.84"/>
</g>
<!-- Node19&#45;&gt;Node6 -->
<g id="edge29" class="edge">
<title>Node19&#45;&gt;Node6</title>
<path fill="none" stroke="midnightblue" d="M410,-280.44C441.18,-271.24 490.93,-256.56 525.41,-246.39"/>
<polygon fill="midnightblue" stroke="midnightblue" points="526.54,-249.7 535.14,-243.52 524.56,-242.99 526.54,-249.7"/>
</g>
<!-- Node19&#45;&gt;Node11 -->
<g id="edge26" class="edge">
<title>Node19&#45;&gt;Node11</title>
<path fill="none" stroke="midnightblue" d="M378.77,-280.45C376.54,-271.45 373.27,-256.84 372,-244 368.4,-207.63 376.48,-165.28 382.12,-141.56"/>
<polygon fill="midnightblue" stroke="midnightblue" points="385.53,-142.34 384.56,-131.79 378.74,-140.64 385.53,-142.34"/>
</g>
<!-- Node20 -->
<g id="node20" class="node">
<title>Node20</title>
<g id="a_node20"><a xlink:title=" ">
<polygon fill="none" stroke="#bfbfbf" points="381.5,-224.5 381.5,-243.5 432.5,-243.5 432.5,-224.5 381.5,-224.5"/>
<text text-anchor="middle" x="407" y="-231.5" font-family="Helvetica,sans-Serif" font-size="10.00">errno.h</text>
</a>
</g>
</g>
<!-- Node19&#45;&gt;Node20 -->
<g id="edge27" class="edge">
<title>Node19&#45;&gt;Node20</title>
<path fill="none" stroke="midnightblue" d="M385.29,-280.08C388.85,-272.69 394.02,-261.95 398.42,-252.81"/>
<polygon fill="midnightblue" stroke="midnightblue" points="401.6,-254.28 402.79,-243.75 395.29,-251.24 401.6,-254.28"/>
</g>
<!-- Node21 -->
<g id="node21" class="node">
<title>Node21</title>
<g id="a_node21"><a xlink:title=" ">
<polygon fill="none" stroke="#bfbfbf" points="450.5,-224.5 450.5,-243.5 497.5,-243.5 497.5,-224.5 450.5,-224.5"/>
<text text-anchor="middle" x="474" y="-231.5" font-family="Helvetica,sans-Serif" font-size="10.00">ft_fd.h</text>
</a>
</g>
</g>
<!-- Node19&#45;&gt;Node21 -->
<g id="edge28" class="edge">
<title>Node19&#45;&gt;Node21</title>
<path fill="none" stroke="midnightblue" d="M395.94,-280.32C410.59,-271.82 433.13,-258.73 450.24,-248.8"/>
<polygon fill="midnightblue" stroke="midnightblue" points="452.2,-251.7 459.1,-243.65 448.69,-245.65 452.2,-251.7"/>
</g>
</g>
</svg>
