<?xml version="1.0" encoding="UTF-8" standalone="no"?>
<!DOCTYPE svg PUBLIC "-//W3C//DTD SVG 1.1//EN"
 "http://www.w3.org/Graphics/SVG/1.1/DTD/svg11.dtd">
<!-- Generated by graphviz version 2.43.0 (0)
 -->
<!-- Title: inc/threads_bonus.h Pages: 1 -->
<!--zoomable 285 -->
<svg id="main" version="1.1" xmlns="http://www.w3.org/2000/svg" xmlns:xlink="http://www.w3.org/1999/xlink" xml:space="preserve" onload="init(evt)">
<style type="text/css"><![CDATA[
.edge:hover path { stroke: red; }
.edge:hover polygon { stroke: red; fill: red; }
]]></style>
<script type="text/javascript"><![CDATA[
var edges = document.getElementsByTagName('g');
if (edges && edges.length) {
  for (var i=0;i<edges.length;i++) {
    if (edges[i].id.substr(0,4)=='edge') {
      edges[i].setAttribute('class','edge');
    }
  }
}
]]></script>
        <defs>
                <circle id="rim" cx="0" cy="0" r="7"/>
                <circle id="rim2" cx="0" cy="0" r="3.5"/>
                <g id="zoomPlus">
                        <use xlink:href="#rim" fill="#404040">
                                <set attributeName="fill" to="#808080" begin="zoomplus.mouseover" end="zoomplus.mouseout"/>
                        </use>
                        <path d="M-4,0h8M0,-4v8" fill="none" stroke="white" stroke-width="1.5" pointer-events="none"/>
                </g>
                <g id="zoomMin">
                        <use xlink:href="#rim" fill="#404040">
                                <set attributeName="fill" to="#808080" begin="zoomminus.mouseover" end="zoomminus.mouseout"/>
                        </use>
                        <path d="M-4,0h8" fill="none" stroke="white" stroke-width="1.5" pointer-events="none"/>
                </g>
                <g id="dirArrow">
                        <path fill="none" stroke="white" stroke-width="1.5" d="M0,-3.0v7 M-2.5,-0.5L0,-3.0L2.5,-0.5"/>
                </g>
               <g id="resetDef">
                       <use xlink:href="#rim2" fill="#404040">
                               <set attributeName="fill" to="#808080" begin="reset.mouseover" end="reset.mouseout"/>
                       </use>
               </g>
        </defs>

<script type="text/javascript">
var viewWidth = 3186;
var viewHeight = 285;
var sectionId = 'dynsection-1';
</script>
<script xlink:href="svgpan.js"/>
<svg id="graph" class="graph">
<g id="viewport">
<title>inc/threads_bonus.h</title>
<!-- Node1 -->
<g id="node1" class="node">
<title>Node1</title>
<g id="a_node1"><a xlink:title=" ">
<polygon fill="#bfbfbf" stroke="black" points="1999.5,-257.5 1999.5,-276.5 2113.5,-276.5 2113.5,-257.5 1999.5,-257.5"/>
<text text-anchor="middle" x="2056.5" y="-264.5" font-family="Helvetica,sans-Serif" font-size="10.00">inc/threads_bonus.h</text>
</a>
</g>
</g>
<!-- Node2 -->
<g id="node2" class="node">
<title>Node2</title>
<g id="a_node2"><a xlink:href="render__bonus_8h.html" target="_top" xlink:title=" ">
<polygon fill="none" stroke="black" points="1938,-201.5 1938,-220.5 2047,-220.5 2047,-201.5 1938,-201.5"/>
<text text-anchor="middle" x="1992.5" y="-208.5" font-family="Helvetica,sans-Serif" font-size="10.00">inc/render_bonus.h</text>
</a>
</g>
</g>
<!-- Node1&#45;&gt;Node2 -->
<g id="edge1" class="edge">
<title>Node1&#45;&gt;Node2</title>
<path fill="none" stroke="midnightblue" d="M2038.51,-250.82C2027.04,-241.15 2012.59,-228.95 2002.97,-220.83"/>
<polygon fill="midnightblue" stroke="midnightblue" points="2036.32,-253.55 2046.22,-257.32 2040.83,-248.2 2036.32,-253.55"/>
</g>
<!-- Node35 -->
<g id="node35" class="node">
<title>Node35</title>
<g id="a_node35"><a xlink:href="threads__bonus_8c.html" target="_top" xlink:title=" ">
<polygon fill="none" stroke="black" points="2065,-201.5 2065,-220.5 2178,-220.5 2178,-201.5 2065,-201.5"/>
<text text-anchor="middle" x="2121.5" y="-208.5" font-family="Helvetica,sans-Serif" font-size="10.00">src/threads_bonus.c</text>
</a>
</g>
</g>
<!-- Node1&#45;&gt;Node35 -->
<g id="edge35" class="edge">
<title>Node1&#45;&gt;Node35</title>
<path fill="none" stroke="midnightblue" d="M2074.77,-250.82C2086.42,-241.15 2101.1,-228.95 2110.87,-220.83"/>
<polygon fill="midnightblue" stroke="midnightblue" points="2072.4,-248.24 2066.94,-257.32 2076.87,-253.63 2072.4,-248.24"/>
</g>
<!-- Node3 -->
<g id="node3" class="node">
<title>Node3</title>
<g id="a_node3"><a xlink:href="menu__put_8h.html" target="_top" xlink:title=" ">
<polygon fill="none" stroke="black" points="1058.5,-140 1058.5,-159 1150.5,-159 1150.5,-140 1058.5,-140"/>
<text text-anchor="middle" x="1104.5" y="-147" font-family="Helvetica,sans-Serif" font-size="10.00">inc/menu_put.h</text>
</a>
</g>
</g>
<!-- Node2&#45;&gt;Node3 -->
<g id="edge2" class="edge">
<title>Node2&#45;&gt;Node3</title>
<path fill="none" stroke="midnightblue" d="M1927.76,-208.21C1758.77,-203.26 1307.25,-188.22 1159.5,-165 1150.62,-163.6 1141.11,-161.37 1132.53,-159.07"/>
<polygon fill="midnightblue" stroke="midnightblue" points="1927.66,-211.71 1937.75,-208.5 1927.86,-204.71 1927.66,-211.71"/>
</g>
<!-- Node4 -->
<g id="node4" class="node">
<title>Node4</title>
<g id="a_node4"><a xlink:href="menu__put__bonus_8h.html" target="_top" xlink:title=" ">
<polygon fill="none" stroke="black" points="142.5,-73 142.5,-92 268.5,-92 268.5,-73 142.5,-73"/>
<text text-anchor="middle" x="205.5" y="-80" font-family="Helvetica,sans-Serif" font-size="10.00">inc/menu_put_bonus.h</text>
</a>
</g>
</g>
<!-- Node2&#45;&gt;Node4 -->
<g id="edge19" class="edge">
<title>Node2&#45;&gt;Node4</title>
<path fill="none" stroke="midnightblue" d="M1927.65,-209.37C1699.97,-206.41 916.34,-189.75 277.5,-98 266.52,-96.42 254.69,-94.24 243.85,-92.05"/>
<polygon fill="midnightblue" stroke="midnightblue" points="1927.71,-212.88 1937.75,-209.5 1927.8,-205.88 1927.71,-212.88"/>
</g>
<!-- Node20 -->
<g id="node20" class="node">
<title>Node20</title>
<g id="a_node20"><a xlink:href="mini_r_t_8h.html" target="_top" xlink:title=" ">
<polygon fill="none" stroke="black" points="1168.5,-140 1168.5,-159 1244.5,-159 1244.5,-140 1168.5,-140"/>
<text text-anchor="middle" x="1206.5" y="-147" font-family="Helvetica,sans-Serif" font-size="10.00">inc/miniRT.h</text>
</a>
</g>
</g>
<!-- Node2&#45;&gt;Node20 -->
<g id="edge20" class="edge">
<title>Node2&#45;&gt;Node20</title>
<path fill="none" stroke="midnightblue" d="M1927.67,-207.98C1772.45,-202.83 1382.88,-187.98 1254.5,-165 1246.79,-163.62 1238.57,-161.42 1231.15,-159.14"/>
<polygon fill="midnightblue" stroke="midnightblue" points="1927.88,-211.49 1937.99,-208.32 1928.11,-204.49 1927.88,-211.49"/>
</g>
<!-- Node22 -->
<g id="node22" class="node">
<title>Node22</title>
<g id="a_node22"><a xlink:href="manip__camera__bonus_8c.html" target="_top" xlink:title=" ">
<polygon fill="none" stroke="black" points="1263,-140 1263,-159 1412,-159 1412,-140 1263,-140"/>
<text text-anchor="middle" x="1337.5" y="-147" font-family="Helvetica,sans-Serif" font-size="10.00">src/manip_camera_bonus.c</text>
</a>
</g>
</g>
<!-- Node2&#45;&gt;Node22 -->
<g id="edge22" class="edge">
<title>Node2&#45;&gt;Node22</title>
<path fill="none" stroke="midnightblue" d="M1927.37,-206.83C1821.15,-201.21 1604.12,-187.91 1421.5,-165 1408.72,-163.4 1394.93,-161.21 1382.29,-159.02"/>
<polygon fill="midnightblue" stroke="midnightblue" points="1927.44,-210.34 1937.61,-207.36 1927.8,-203.35 1927.44,-210.34"/>
</g>
<!-- Node23 -->
<g id="node23" class="node">
<title>Node23</title>
<g id="a_node23"><a xlink:href="manip__hittable__bonus_8c.html" target="_top" xlink:title=" ">
<polygon fill="none" stroke="black" points="1430,-134.5 1430,-164.5 1537,-164.5 1537,-134.5 1430,-134.5"/>
<text text-anchor="start" x="1438" y="-152.5" font-family="Helvetica,sans-Serif" font-size="10.00">src/manip_hittable</text>
<text text-anchor="middle" x="1483.5" y="-141.5" font-family="Helvetica,sans-Serif" font-size="10.00">_bonus.c</text>
</a>
</g>
</g>
<!-- Node2&#45;&gt;Node23 -->
<g id="edge23" class="edge">
<title>Node2&#45;&gt;Node23</title>
<path fill="none" stroke="midnightblue" d="M1927.98,-206.04C1840.95,-200.13 1681.3,-187.22 1546.5,-165 1543.4,-164.49 1540.22,-163.92 1537.03,-163.3"/>
<polygon fill="midnightblue" stroke="midnightblue" points="1927.76,-209.54 1937.97,-206.71 1928.23,-202.55 1927.76,-209.54"/>
</g>
<!-- Node24 -->
<g id="node24" class="node">
<title>Node24</title>
<g id="a_node24"><a xlink:href="manip__options__bonus_8c.html" target="_top" xlink:title=" ">
<polygon fill="none" stroke="black" points="1555,-140 1555,-159 1704,-159 1704,-140 1555,-140"/>
<text text-anchor="middle" x="1629.5" y="-147" font-family="Helvetica,sans-Serif" font-size="10.00">src/manip_options_bonus.c</text>
</a>
</g>
</g>
<!-- Node2&#45;&gt;Node24 -->
<g id="edge24" class="edge">
<title>Node2&#45;&gt;Node24</title>
<path fill="none" stroke="midnightblue" d="M1928.24,-199.84C1871.67,-190.85 1787.08,-177.28 1713.5,-165 1702.11,-163.1 1689.87,-161.01 1678.34,-159.03"/>
<polygon fill="midnightblue" stroke="midnightblue" points="1928.04,-203.35 1938.46,-201.47 1929.14,-196.44 1928.04,-203.35"/>
</g>
<!-- Node25 -->
<g id="node25" class="node">
<title>Node25</title>
<g id="a_node25"><a xlink:href="render__cleanup__bonus_8c.html" target="_top" xlink:title=" ">
<polygon fill="none" stroke="black" points="1722,-134.5 1722,-164.5 1831,-164.5 1831,-134.5 1722,-134.5"/>
<text text-anchor="start" x="1730" y="-152.5" font-family="Helvetica,sans-Serif" font-size="10.00">src/render_cleanup</text>
<text text-anchor="middle" x="1776.5" y="-141.5" font-family="Helvetica,sans-Serif" font-size="10.00">_bonus.c</text>
</a>
</g>
</g>
<!-- Node2&#45;&gt;Node25 -->
<g id="edge25" class="edge">
<title>Node2&#45;&gt;Node25</title>
<path fill="none" stroke="midnightblue" d="M1951.6,-198.73C1916.35,-189.02 1865.3,-174.96 1827.41,-164.52"/>
<polygon fill="midnightblue" stroke="midnightblue" points="1950.98,-202.19 1961.55,-201.48 1952.84,-195.44 1950.98,-202.19"/>
</g>
<!-- Node26 -->
<g id="node26" class="node">
<title>Node26</title>
<g id="a_node26"><a xlink:href="render__draw__bonus_8c.html" target="_top" xlink:title=" ">
<polygon fill="none" stroke="black" points="1849,-140 1849,-159 1986,-159 1986,-140 1849,-140"/>
<text text-anchor="middle" x="1917.5" y="-147" font-family="Helvetica,sans-Serif" font-size="10.00">src/render_draw_bonus.c</text>
</a>
</g>
</g>
<!-- Node2&#45;&gt;Node26 -->
<g id="edge26" class="edge">
<title>Node2&#45;&gt;Node26</title>
<path fill="none" stroke="midnightblue" d="M1973.56,-194.97C1959.21,-183.59 1940.02,-168.37 1928.23,-159.01"/>
<polygon fill="midnightblue" stroke="midnightblue" points="1971.74,-198 1981.75,-201.48 1976.1,-192.52 1971.74,-198"/>
</g>
<!-- Node27 -->
<g id="node27" class="node">
<title>Node27</title>
<g id="a_node27"><a xlink:href="render__init__bonus_8c.html" target="_top" xlink:title=" ">
<polygon fill="none" stroke="black" points="2004,-140 2004,-159 2133,-159 2133,-140 2004,-140"/>
<text text-anchor="middle" x="2068.5" y="-147" font-family="Helvetica,sans-Serif" font-size="10.00">src/render_init_bonus.c</text>
</a>
</g>
</g>
<!-- Node2&#45;&gt;Node27 -->
<g id="edge27" class="edge">
<title>Node2&#45;&gt;Node27</title>
<path fill="none" stroke="midnightblue" d="M2011.28,-195.29C2025.86,-183.88 2045.56,-168.46 2057.63,-159.01"/>
<polygon fill="midnightblue" stroke="midnightblue" points="2009.11,-192.55 2003.39,-201.48 2013.42,-198.07 2009.11,-192.55"/>
</g>
<!-- Node28 -->
<g id="node28" class="node">
<title>Node28</title>
<g id="a_node28"><a xlink:href="render__keyhook__press__bonus_8c.html" target="_top" xlink:title=" ">
<polygon fill="none" stroke="black" points="2151.5,-134.5 2151.5,-164.5 2263.5,-164.5 2263.5,-134.5 2151.5,-134.5"/>
<text text-anchor="start" x="2159.5" y="-152.5" font-family="Helvetica,sans-Serif" font-size="10.00">src/render_keyhook</text>
<text text-anchor="middle" x="2207.5" y="-141.5" font-family="Helvetica,sans-Serif" font-size="10.00">_press_bonus.c</text>
</a>
</g>
</g>
<!-- Node2&#45;&gt;Node28 -->
<g id="edge28" class="edge">
<title>Node2&#45;&gt;Node28</title>
<path fill="none" stroke="midnightblue" d="M2033.21,-198.73C2068.3,-189.02 2119.11,-174.96 2156.83,-164.52"/>
<polygon fill="midnightblue" stroke="midnightblue" points="2032.01,-195.43 2023.3,-201.48 2033.88,-202.18 2032.01,-195.43"/>
</g>
<!-- Node29 -->
<g id="node29" class="node">
<title>Node29</title>
<g id="a_node29"><a xlink:href="render__loop__mlx__bonus_8c.html" target="_top" xlink:title=" ">
<polygon fill="none" stroke="black" points="2281.5,-134.5 2281.5,-164.5 2397.5,-164.5 2397.5,-134.5 2281.5,-134.5"/>
<text text-anchor="start" x="2289.5" y="-152.5" font-family="Helvetica,sans-Serif" font-size="10.00">src/render_loop_mlx</text>
<text text-anchor="middle" x="2339.5" y="-141.5" font-family="Helvetica,sans-Serif" font-size="10.00">_bonus.c</text>
</a>
</g>
</g>
<!-- Node2&#45;&gt;Node29 -->
<g id="edge29" class="edge">
<title>Node2&#45;&gt;Node29</title>
<path fill="none" stroke="midnightblue" d="M2057.04,-200.63C2113.91,-192.14 2198.9,-178.87 2272.5,-165 2275.42,-164.45 2278.42,-163.87 2281.43,-163.27"/>
<polygon fill="midnightblue" stroke="midnightblue" points="2056.49,-197.18 2047.11,-202.11 2057.52,-204.1 2056.49,-197.18"/>
</g>
<!-- Node30 -->
<g id="node30" class="node">
<title>Node30</title>
<g id="a_node30"><a xlink:href="render__mouse__bonus_8c.html" target="_top" xlink:title=" ">
<polygon fill="none" stroke="black" points="2415.5,-140 2415.5,-159 2561.5,-159 2561.5,-140 2415.5,-140"/>
<text text-anchor="middle" x="2488.5" y="-147" font-family="Helvetica,sans-Serif" font-size="10.00">src/render_mouse_bonus.c</text>
</a>
</g>
</g>
<!-- Node2&#45;&gt;Node30 -->
<g id="edge30" class="edge">
<title>Node2&#45;&gt;Node30</title>
<path fill="none" stroke="midnightblue" d="M2057.26,-200.95C2213.42,-182.28 2254.8,-186.19 2406.5,-165 2418.53,-163.32 2431.49,-161.18 2443.48,-159.07"/>
<polygon fill="midnightblue" stroke="midnightblue" points="2056.8,-197.48 2047.3,-202.16 2057.64,-204.43 2056.8,-197.48"/>
</g>
<!-- Node31 -->
<g id="node31" class="node">
<title>Node31</title>
<g id="a_node31"><a xlink:href="render__output__ppm__bonus_8c.html" target="_top" xlink:title=" ">
<polygon fill="none" stroke="black" points="2580,-134.5 2580,-164.5 2709,-164.5 2709,-134.5 2580,-134.5"/>
<text text-anchor="start" x="2588" y="-152.5" font-family="Helvetica,sans-Serif" font-size="10.00">src/render_output_ppm</text>
<text text-anchor="middle" x="2644.5" y="-141.5" font-family="Helvetica,sans-Serif" font-size="10.00">_bonus.c</text>
</a>
</g>
</g>
<!-- Node2&#45;&gt;Node31 -->
<g id="edge31" class="edge">
<title>Node2&#45;&gt;Node31</title>
<path fill="none" stroke="midnightblue" d="M2057.24,-201C2285.96,-177.54 2346.69,-194.65 2570.5,-165 2573.48,-164.6 2576.53,-164.16 2579.6,-163.69"/>
<polygon fill="midnightblue" stroke="midnightblue" points="2056.87,-197.52 2047.28,-202.04 2057.59,-204.49 2056.87,-197.52"/>
</g>
<!-- Node32 -->
<g id="node32" class="node">
<title>Node32</title>
<g id="a_node32"><a xlink:href="render__output__threaded__bonus_8c.html" target="_top" xlink:title=" ">
<polygon fill="none" stroke="black" points="2727,-134.5 2727,-164.5 2878,-164.5 2878,-134.5 2727,-134.5"/>
<text text-anchor="start" x="2735" y="-152.5" font-family="Helvetica,sans-Serif" font-size="10.00">src/render_output_threaded</text>
<text text-anchor="middle" x="2802.5" y="-141.5" font-family="Helvetica,sans-Serif" font-size="10.00">_bonus.c</text>
</a>
</g>
</g>
<!-- Node2&#45;&gt;Node32 -->
<g id="edge32" class="edge">
<title>Node2&#45;&gt;Node32</title>
<path fill="none" stroke="midnightblue" d="M2057.38,-201.01C2351.5,-173.03 2429,-197.75 2718.5,-165 2721.15,-164.7 2723.84,-164.37 2726.55,-164.02"/>
<polygon fill="midnightblue" stroke="midnightblue" points="2056.89,-197.54 2047.28,-201.98 2057.57,-204.51 2056.89,-197.54"/>
</g>
<!-- Node33 -->
<g id="node33" class="node">
<title>Node33</title>
<g id="a_node33"><a xlink:href="render__sample__bonus_8c.html" target="_top" xlink:title=" ">
<polygon fill="none" stroke="black" points="2896,-140 2896,-159 3045,-159 3045,-140 2896,-140"/>
<text text-anchor="middle" x="2970.5" y="-147" font-family="Helvetica,sans-Serif" font-size="10.00">src/render_sample_bonus.c</text>
</a>
</g>
</g>
<!-- Node2&#45;&gt;Node33 -->
<g id="edge33" class="edge">
<title>Node2&#45;&gt;Node33</title>
<path fill="none" stroke="midnightblue" d="M2057.43,-201.02C2426.38,-167.9 2523.3,-204.53 2887.5,-165 2900.73,-163.56 2915.05,-161.32 2928,-159.02"/>
<polygon fill="midnightblue" stroke="midnightblue" points="2056.91,-197.55 2047.27,-201.94 2057.55,-204.52 2056.91,-197.55"/>
</g>
<!-- Node34 -->
<g id="node34" class="node">
<title>Node34</title>
<g id="a_node34"><a xlink:href="render__threaded__fts__bonus_8c.html" target="_top" xlink:title=" ">
<polygon fill="none" stroke="black" points="3063.5,-134.5 3063.5,-164.5 3177.5,-164.5 3177.5,-134.5 3063.5,-134.5"/>
<text text-anchor="start" x="3071.5" y="-152.5" font-family="Helvetica,sans-Serif" font-size="10.00">src/render_threaded</text>
<text text-anchor="middle" x="3120.5" y="-141.5" font-family="Helvetica,sans-Serif" font-size="10.00">_fts_bonus.c</text>
</a>
</g>
</g>
<!-- Node2&#45;&gt;Node34 -->
<g id="edge34" class="edge">
<title>Node2&#45;&gt;Node34</title>
<path fill="none" stroke="midnightblue" d="M2057.46,-201.03C2500.4,-162.93 2617.52,-220.42 3054.5,-165 3057.41,-164.63 3060.38,-164.2 3063.37,-163.71"/>
<polygon fill="midnightblue" stroke="midnightblue" points="2056.93,-197.56 2047.27,-201.92 2057.54,-204.54 2056.93,-197.56"/>
</g>
<!-- Node3&#45;&gt;Node4 -->
<g id="edge3" class="edge">
<title>Node3&#45;&gt;Node4</title>
<path fill="none" stroke="midnightblue" d="M1048.07,-147.73C913.91,-145.31 565.6,-135.62 277.5,-98 266.12,-96.51 253.84,-94.28 242.71,-92.01"/>
<polygon fill="midnightblue" stroke="midnightblue" points="1048.05,-151.23 1058.11,-147.9 1048.17,-144.23 1048.05,-151.23"/>
</g>
<!-- Node8 -->
<g id="node8" class="node">
<title>Node8</title>
<g id="a_node8"><a xlink:href="menu__put__cam__light_8c.html" target="_top" xlink:title=" ">
<polygon fill="none" stroke="black" points="286.5,-73 286.5,-92 430.5,-92 430.5,-73 286.5,-73"/>
<text text-anchor="middle" x="358.5" y="-80" font-family="Helvetica,sans-Serif" font-size="10.00">src/menu_put_cam_light.c</text>
</a>
</g>
</g>
<!-- Node3&#45;&gt;Node8 -->
<g id="edge7" class="edge">
<title>Node3&#45;&gt;Node8</title>
<path fill="none" stroke="midnightblue" d="M1048.08,-146.15C933.18,-140.93 663.93,-126.54 439.5,-98 427.17,-96.43 413.87,-94.26 401.67,-92.06"/>
<polygon fill="midnightblue" stroke="midnightblue" points="1048.24,-149.66 1058.38,-146.61 1048.55,-142.66 1048.24,-149.66"/>
</g>
<!-- Node9 -->
<g id="node9" class="node">
<title>Node9</title>
<g id="a_node9"><a xlink:href="menu__put__cam__light__ctrl_8c.html" target="_top" xlink:title=" ">
<polygon fill="none" stroke="black" points="448.5,-67.5 448.5,-97.5 584.5,-97.5 584.5,-67.5 448.5,-67.5"/>
<text text-anchor="start" x="456.5" y="-85.5" font-family="Helvetica,sans-Serif" font-size="10.00">src/menu_put_cam_light</text>
<text text-anchor="middle" x="516.5" y="-74.5" font-family="Helvetica,sans-Serif" font-size="10.00">_ctrl.c</text>
</a>
</g>
</g>
<!-- Node3&#45;&gt;Node9 -->
<g id="edge8" class="edge">
<title>Node3&#45;&gt;Node9</title>
<path fill="none" stroke="midnightblue" d="M1048,-144.54C953.58,-137.57 757.87,-121.55 593.5,-98 590.67,-97.59 587.79,-97.16 584.88,-96.7"/>
<polygon fill="midnightblue" stroke="midnightblue" points="1047.95,-148.05 1058.18,-145.29 1048.47,-141.07 1047.95,-148.05"/>
</g>
<!-- Node10 -->
<g id="node10" class="node">
<title>Node10</title>
<g id="a_node10"><a xlink:href="menu__put__general__info_8c.html" target="_top" xlink:title=" ">
<polygon fill="none" stroke="black" points="603,-67.5 603,-97.5 728,-97.5 728,-67.5 603,-67.5"/>
<text text-anchor="start" x="611" y="-85.5" font-family="Helvetica,sans-Serif" font-size="10.00">src/menu_put_general</text>
<text text-anchor="middle" x="665.5" y="-74.5" font-family="Helvetica,sans-Serif" font-size="10.00">_info.c</text>
</a>
</g>
</g>
<!-- Node3&#45;&gt;Node10 -->
<g id="edge9" class="edge">
<title>Node3&#45;&gt;Node10</title>
<path fill="none" stroke="midnightblue" d="M1048.21,-141.93C975.86,-133.22 846.47,-116.75 736.5,-98 733.77,-97.53 730.99,-97.04 728.18,-96.53"/>
<polygon fill="midnightblue" stroke="midnightblue" points="1048.11,-145.44 1058.46,-143.16 1048.94,-138.49 1048.11,-145.44"/>
</g>
<!-- Node11 -->
<g id="node11" class="node">
<title>Node11</title>
<g id="a_node11"><a xlink:href="menu__put__general__info__bonus_8c.html" target="_top" xlink:title=" ">
<polygon fill="none" stroke="black" points="746,-67.5 746,-97.5 871,-97.5 871,-67.5 746,-67.5"/>
<text text-anchor="start" x="754" y="-85.5" font-family="Helvetica,sans-Serif" font-size="10.00">src/menu_put_general</text>
<text text-anchor="middle" x="808.5" y="-74.5" font-family="Helvetica,sans-Serif" font-size="10.00">_info_bonus.c</text>
</a>
</g>
</g>
<!-- Node3&#45;&gt;Node11 -->
<g id="edge10" class="edge">
<title>Node3&#45;&gt;Node11</title>
<path fill="none" stroke="midnightblue" d="M1055.48,-137.74C1004.99,-126.65 926.11,-109.33 871.12,-97.25"/>
<polygon fill="midnightblue" stroke="midnightblue" points="1054.98,-141.21 1065.5,-139.94 1056.48,-134.37 1054.98,-141.21"/>
</g>
<!-- Node12 -->
<g id="node12" class="node">
<title>Node12</title>
<g id="a_node12"><a xlink:href="menu__put__hittable_8c.html" target="_top" xlink:title=" ">
<polygon fill="none" stroke="black" points="889.5,-73 889.5,-92 1023.5,-92 1023.5,-73 889.5,-73"/>
<text text-anchor="middle" x="956.5" y="-80" font-family="Helvetica,sans-Serif" font-size="10.00">src/menu_put_hittable.c</text>
</a>
</g>
</g>
<!-- Node3&#45;&gt;Node12 -->
<g id="edge11" class="edge">
<title>Node3&#45;&gt;Node12</title>
<path fill="none" stroke="midnightblue" d="M1075.54,-135.78C1046.23,-122.91 1001.71,-103.35 976.23,-92.17"/>
<polygon fill="midnightblue" stroke="midnightblue" points="1074.28,-139.05 1084.85,-139.87 1077.1,-132.64 1074.28,-139.05"/>
</g>
<!-- Node13 -->
<g id="node13" class="node">
<title>Node13</title>
<g id="a_node13"><a xlink:href="menu__put__hittable__ctrl_8c.html" target="_top" xlink:title=" ">
<polygon fill="none" stroke="black" points="1042,-67.5 1042,-97.5 1167,-97.5 1167,-67.5 1042,-67.5"/>
<text text-anchor="start" x="1050" y="-85.5" font-family="Helvetica,sans-Serif" font-size="10.00">src/menu_put_hittable</text>
<text text-anchor="middle" x="1104.5" y="-74.5" font-family="Helvetica,sans-Serif" font-size="10.00">_ctrl.c</text>
</a>
</g>
</g>
<!-- Node3&#45;&gt;Node13 -->
<g id="edge12" class="edge">
<title>Node3&#45;&gt;Node13</title>
<path fill="none" stroke="midnightblue" d="M1104.5,-129.41C1104.5,-119.22 1104.5,-106.9 1104.5,-97.59"/>
<polygon fill="midnightblue" stroke="midnightblue" points="1101,-129.73 1104.5,-139.73 1108,-129.73 1101,-129.73"/>
</g>
<!-- Node14 -->
<g id="node14" class="node">
<title>Node14</title>
<g id="a_node14"><a xlink:href="menu__put__hittable__ctrl__bonus_8c.html" target="_top" xlink:title=" ">
<polygon fill="none" stroke="black" points="1185,-67.5 1185,-97.5 1310,-97.5 1310,-67.5 1185,-67.5"/>
<text text-anchor="start" x="1193" y="-85.5" font-family="Helvetica,sans-Serif" font-size="10.00">src/menu_put_hittable</text>
<text text-anchor="middle" x="1247.5" y="-74.5" font-family="Helvetica,sans-Serif" font-size="10.00">_ctrl_bonus.c</text>
</a>
</g>
</g>
<!-- Node3&#45;&gt;Node14 -->
<g id="edge13" class="edge">
<title>Node3&#45;&gt;Node14</title>
<path fill="none" stroke="midnightblue" d="M1132.83,-135.62C1157.02,-124.63 1191.75,-108.84 1216.64,-97.53"/>
<polygon fill="midnightblue" stroke="midnightblue" points="1131.14,-132.54 1123.49,-139.87 1134.04,-138.92 1131.14,-132.54"/>
</g>
<!-- Node15 -->
<g id="node15" class="node">
<title>Node15</title>
<g id="a_node15"><a xlink:href="menu__put__page_8c.html" target="_top" xlink:title=" ">
<polygon fill="none" stroke="black" points="1328.5,-73 1328.5,-92 1448.5,-92 1448.5,-73 1328.5,-73"/>
<text text-anchor="middle" x="1388.5" y="-80" font-family="Helvetica,sans-Serif" font-size="10.00">src/menu_put_page.c</text>
</a>
</g>
</g>
<!-- Node3&#45;&gt;Node15 -->
<g id="edge14" class="edge">
<title>Node3&#45;&gt;Node15</title>
<path fill="none" stroke="midnightblue" d="M1145.82,-137.41C1150.43,-136.23 1155.06,-135.07 1159.5,-134 1195.01,-125.41 1293.31,-104.04 1348.89,-92.03"/>
<polygon fill="midnightblue" stroke="midnightblue" points="1144.66,-134.1 1135.86,-140 1146.41,-140.87 1144.66,-134.1"/>
</g>
<!-- Node16 -->
<g id="node16" class="node">
<title>Node16</title>
<g id="a_node16"><a xlink:href="menu__put__str__num_8c.html" target="_top" xlink:title=" ">
<polygon fill="none" stroke="black" points="1466.5,-73 1466.5,-92 1602.5,-92 1602.5,-73 1466.5,-73"/>
<text text-anchor="middle" x="1534.5" y="-80" font-family="Helvetica,sans-Serif" font-size="10.00">src/menu_put_str_num.c</text>
</a>
</g>
</g>
<!-- Node3&#45;&gt;Node16 -->
<g id="edge15" class="edge">
<title>Node3&#45;&gt;Node16</title>
<path fill="none" stroke="midnightblue" d="M1143.7,-137.46C1148.99,-136.18 1154.36,-134.98 1159.5,-134 1290.53,-108.94 1325.65,-118.36 1457.5,-98 1468.66,-96.28 1480.68,-94.15 1491.82,-92.06"/>
<polygon fill="midnightblue" stroke="midnightblue" points="1142.56,-134.14 1133.73,-140 1144.28,-140.93 1142.56,-134.14"/>
</g>
<!-- Node17 -->
<g id="node17" class="node">
<title>Node17</title>
<g id="a_node17"><a xlink:href="menu__put__time__bonus_8c.html" target="_top" xlink:title=" ">
<polygon fill="none" stroke="black" points="1621,-73 1621,-92 1774,-92 1774,-73 1621,-73"/>
<text text-anchor="middle" x="1697.5" y="-80" font-family="Helvetica,sans-Serif" font-size="10.00">src/menu_put_time_bonus.c</text>
</a>
</g>
</g>
<!-- Node3&#45;&gt;Node17 -->
<g id="edge16" class="edge">
<title>Node3&#45;&gt;Node17</title>
<path fill="none" stroke="midnightblue" d="M1142.7,-137.5C1148.3,-136.15 1154.02,-134.93 1159.5,-134 1358.17,-100.18 1411.5,-122.78 1611.5,-98 1624.42,-96.4 1638.37,-94.24 1651.19,-92.07"/>
<polygon fill="midnightblue" stroke="midnightblue" points="1141.67,-134.15 1132.83,-140 1143.39,-140.93 1141.67,-134.15"/>
</g>
<!-- Node18 -->
<g id="node18" class="node">
<title>Node18</title>
<g id="a_node18"><a xlink:href="menu__put__utils_8c.html" target="_top" xlink:title=" ">
<polygon fill="none" stroke="black" points="1792,-73 1792,-92 1909,-92 1909,-73 1792,-73"/>
<text text-anchor="middle" x="1850.5" y="-80" font-family="Helvetica,sans-Serif" font-size="10.00">src/menu_put_utils.c</text>
</a>
</g>
</g>
<!-- Node3&#45;&gt;Node18 -->
<g id="edge17" class="edge">
<title>Node3&#45;&gt;Node18</title>
<path fill="none" stroke="midnightblue" d="M1142.49,-137.43C1148.16,-136.09 1153.95,-134.88 1159.5,-134 1433.85,-90.37 1508.25,-135.49 1783.5,-98 1794.11,-96.55 1805.54,-94.33 1815.91,-92.06"/>
<polygon fill="midnightblue" stroke="midnightblue" points="1141.37,-134.11 1132.53,-139.95 1143.08,-140.89 1141.37,-134.11"/>
</g>
<!-- Node19 -->
<g id="node19" class="node">
<title>Node19</title>
<g id="a_node19"><a xlink:href="menu__put__utils__ctrl_8c.html" target="_top" xlink:title=" ">
<polygon fill="none" stroke="black" points="1927,-67.5 1927,-97.5 2036,-97.5 2036,-67.5 1927,-67.5"/>
<text text-anchor="start" x="1935" y="-85.5" font-family="Helvetica,sans-Serif" font-size="10.00">src/menu_put_utils</text>
<text text-anchor="middle" x="1981.5" y="-74.5" font-family="Helvetica,sans-Serif" font-size="10.00">_ctrl.c</text>
</a>
</g>
</g>
<!-- Node3&#45;&gt;Node19 -->
<g id="edge18" class="edge">
<title>Node3&#45;&gt;Node19</title>
<path fill="none" stroke="midnightblue" d="M1142.3,-137.42C1148.02,-136.07 1153.89,-134.86 1159.5,-134 1493.29,-82.67 1583.94,-144.06 1918.5,-98 1921.28,-97.62 1924.12,-97.17 1926.97,-96.68"/>
<polygon fill="midnightblue" stroke="midnightblue" points="1141.07,-134.12 1132.24,-139.97 1142.79,-140.91 1141.07,-134.12"/>
</g>
<!-- Node5 -->
<g id="node5" class="node">
<title>Node5</title>
<g id="a_node5"><a xlink:href="menu__put__hittable__bonus_8c.html" target="_top" xlink:title=" ">
<polygon fill="none" stroke="black" points="0,-0.5 0,-30.5 125,-30.5 125,-0.5 0,-0.5"/>
<text text-anchor="start" x="8" y="-18.5" font-family="Helvetica,sans-Serif" font-size="10.00">src/menu_put_hittable</text>
<text text-anchor="middle" x="62.5" y="-7.5" font-family="Helvetica,sans-Serif" font-size="10.00">_bonus.c</text>
</a>
</g>
</g>
<!-- Node4&#45;&gt;Node5 -->
<g id="edge4" class="edge">
<title>Node4&#45;&gt;Node5</title>
<path fill="none" stroke="midnightblue" d="M177.17,-68.62C152.98,-57.63 118.25,-41.84 93.36,-30.53"/>
<polygon fill="midnightblue" stroke="midnightblue" points="175.96,-71.92 186.51,-72.87 178.86,-65.54 175.96,-71.92"/>
</g>
<!-- Node6 -->
<g id="node6" class="node">
<title>Node6</title>
<g id="a_node6"><a xlink:href="menu__put__options__bonus_8c.html" target="_top" xlink:title=" ">
<polygon fill="none" stroke="black" points="143.5,-0.5 143.5,-30.5 267.5,-30.5 267.5,-0.5 143.5,-0.5"/>
<text text-anchor="start" x="151.5" y="-18.5" font-family="Helvetica,sans-Serif" font-size="10.00">src/menu_put_options</text>
<text text-anchor="middle" x="205.5" y="-7.5" font-family="Helvetica,sans-Serif" font-size="10.00">_bonus.c</text>
</a>
</g>
</g>
<!-- Node4&#45;&gt;Node6 -->
<g id="edge5" class="edge">
<title>Node4&#45;&gt;Node6</title>
<path fill="none" stroke="midnightblue" d="M205.5,-62.41C205.5,-52.22 205.5,-39.9 205.5,-30.59"/>
<polygon fill="midnightblue" stroke="midnightblue" points="202,-62.73 205.5,-72.73 209,-62.73 202,-62.73"/>
</g>
<!-- Node7 -->
<g id="node7" class="node">
<title>Node7</title>
<g id="a_node7"><a xlink:href="menu__put__text__bonus_8c.html" target="_top" xlink:title=" ">
<polygon fill="none" stroke="black" points="285.5,-6 285.5,-25 435.5,-25 435.5,-6 285.5,-6"/>
<text text-anchor="middle" x="360.5" y="-13" font-family="Helvetica,sans-Serif" font-size="10.00">src/menu_put_text_bonus.c</text>
</a>
</g>
</g>
<!-- Node4&#45;&gt;Node7 -->
<g id="edge6" class="edge">
<title>Node4&#45;&gt;Node7</title>
<path fill="none" stroke="midnightblue" d="M235.43,-68.95C266.12,-56.08 313.04,-36.4 339.83,-25.17"/>
<polygon fill="midnightblue" stroke="midnightblue" points="233.95,-65.77 226.08,-72.87 236.66,-72.23 233.95,-65.77"/>
</g>
<!-- Node21 -->
<g id="node21" class="node">
<title>Node21</title>
<g id="a_node21"><a xlink:href="main_8c.html" target="_top" xlink:title=" ">
<polygon fill="none" stroke="black" points="2054,-73 2054,-92 2121,-92 2121,-73 2054,-73"/>
<text text-anchor="middle" x="2087.5" y="-80" font-family="Helvetica,sans-Serif" font-size="10.00">src/main.c</text>
</a>
</g>
</g>
<!-- Node20&#45;&gt;Node21 -->
<g id="edge21" class="edge">
<title>Node20&#45;&gt;Node21</title>
<path fill="none" stroke="midnightblue" d="M1240.55,-137.09C1245.2,-135.86 1249.94,-134.78 1254.5,-134 1601.38,-74.66 1699.84,-164.1 2045.5,-98 2052.47,-96.67 2059.86,-94.42 2066.46,-92.09"/>
<polygon fill="midnightblue" stroke="midnightblue" points="1239.28,-133.81 1230.64,-139.93 1241.22,-140.54 1239.28,-133.81"/>
</g>
</g>
</svg>
        <g id="navigator" transform="translate(0 0)" fill="#404254">
                <rect fill="#f2f5e9" fill-opacity="0.5" stroke="#606060" stroke-width=".5" x="0" y="0" width="60" height="60"/>
                <use id="zoomplus" xlink:href="#zoomPlus" x="17" y="9" onmousedown="handleZoom(evt,'in')"/>
                <use id="zoomminus" xlink:href="#zoomMin" x="42" y="9" onmousedown="handleZoom(evt,'out')"/>
                <use id="reset" xlink:href="#resetDef" x="30" y="36" onmousedown="handleReset()"/>
                <g id="arrowUp" xlink:href="#dirArrow" transform="translate(30 24)" onmousedown="handlePan(0,-1)">
                  <use xlink:href="#rim" fill="#404040">
                        <set attributeName="fill" to="#808080" begin="arrowUp.mouseover" end="arrowUp.mouseout"/>
                  </use>
                  <path fill="none" stroke="white" stroke-width="1.5" d="M0,-3.0v7 M-2.5,-0.5L0,-3.0L2.5,-0.5"/>
                </g>
                <g id="arrowRight" xlink:href="#dirArrow" transform="rotate(90) translate(36 -43)" onmousedown="handlePan(1,0)">
                  <use xlink:href="#rim" fill="#404040">
                        <set attributeName="fill" to="#808080" begin="arrowRight.mouseover" end="arrowRight.mouseout"/>
                  </use>
                  <path fill="none" stroke="white" stroke-width="1.5" d="M0,-3.0v7 M-2.5,-0.5L0,-3.0L2.5,-0.5"/>
                </g>
                <g id="arrowDown" xlink:href="#dirArrow" transform="rotate(180) translate(-30 -48)" onmousedown="handlePan(0,1)">
                  <use xlink:href="#rim" fill="#404040">
                        <set attributeName="fill" to="#808080" begin="arrowDown.mouseover" end="arrowDown.mouseout"/>
                  </use>
                  <path fill="none" stroke="white" stroke-width="1.5" d="M0,-3.0v7 M-2.5,-0.5L0,-3.0L2.5,-0.5"/>
                </g>
                <g id="arrowLeft" xlink:href="#dirArrow" transform="rotate(270) translate(-36 17)" onmousedown="handlePan(-1,0)">
                  <use xlink:href="#rim" fill="#404040">
                        <set attributeName="fill" to="#808080" begin="arrowLeft.mouseover" end="arrowLeft.mouseout"/>
                  </use>
                  <path fill="none" stroke="white" stroke-width="1.5" d="M0,-3.0v7 M-2.5,-0.5L0,-3.0L2.5,-0.5"/>
                </g>
        </g>
        <svg viewBox="0 0 15 15" width="100%" height="30px" preserveAspectRatio="xMaxYMin meet">
         <g id="arrow_out" transform="scale(0.3 0.3)">
          <a xlink:href="threads__bonus_8h__dep__incl_org.svg" target="_base">
           <rect id="button" ry="5" rx="5" y="6" x="6" height="38" width="38"
                fill="#f2f5e9" fill-opacity="0.5" stroke="#606060" stroke-width="1.0"/>
           <path id="arrow"
             d="M 11.500037,31.436501 C 11.940474,20.09759 22.043105,11.32322 32.158766,21.979434 L 37.068811,17.246167 C 37.068811,17.246167 37.088388,32 37.088388,32 L 22.160133,31.978069 C 22.160133,31.978069 26.997745,27.140456 26.997745,27.140456 C 18.528582,18.264221 13.291696,25.230495 11.500037,31.436501 z"
             style="fill:#404040;"/>
          </a>
         </g>
        </svg>
</svg>
