<?xml version="1.0" encoding="UTF-8" standalone="no"?>
<!DOCTYPE svg PUBLIC "-//W3C//DTD SVG 1.1//EN"
 "http://www.w3.org/Graphics/SVG/1.1/DTD/svg11.dtd">
<!-- Generated by graphviz version 2.43.0 (0)
 -->
<!-- Title: ft_join_threads Pages: 1 -->
<svg width="920pt" height="142pt"
 viewBox="0.00 0.00 920.00 142.00" xmlns="http://www.w3.org/2000/svg" xmlns:xlink="http://www.w3.org/1999/xlink">
<g id="graph0" class="graph" transform="scale(1 1) rotate(0) translate(4 138)">
<title>ft_join_threads</title>
<!-- Node1 -->
<g id="node1" class="node">
<title>Node1</title>
<g id="a_node1"><a xlink:title="Joins threads.">
<polygon fill="#bfbfbf" stroke="black" points="823,-57.5 823,-76.5 912,-76.5 912,-57.5 823,-57.5"/>
<text text-anchor="middle" x="867.5" y="-64.5" font-family="Helvetica,sans-Serif" font-size="10.00">ft_join_threads</text>
</a>
</g>
</g>
<!-- Node2 -->
<g id="node2" class="node">
<title>Node2</title>
<g id="a_node2"><a xlink:href="threads__bonus_8h.html#a2ebd69dd0aea05d27136b23dfb779788" target="_top" xlink:title="Creates NUM_THREADS threads and joins them.">
<polygon fill="none" stroke="black" points="696,-57.5 696,-76.5 787,-76.5 787,-57.5 696,-57.5"/>
<text text-anchor="middle" x="741.5" y="-64.5" font-family="Helvetica,sans-Serif" font-size="10.00">ft_spin_threads</text>
</a>
</g>
</g>
<!-- Node1&#45;&gt;Node2 -->
<g id="edge1" class="edge">
<title>Node1&#45;&gt;Node2</title>
<path fill="none" stroke="midnightblue" d="M812.55,-67C804.05,-67 795.34,-67 787.08,-67"/>
<polygon fill="midnightblue" stroke="midnightblue" points="812.78,-70.5 822.78,-67 812.78,-63.5 812.78,-70.5"/>
</g>
<!-- Node3 -->
<g id="node3" class="node">
<title>Node3</title>
<g id="a_node3"><a xlink:href="render__bonus_8h.html#a46e5a7c75a4d9fb06252d28cf8d18821" target="_top" xlink:title="Raytraces a sample of the scene and adds it to the sample buffer.">
<polygon fill="none" stroke="black" points="533.5,-114.5 533.5,-133.5 650.5,-133.5 650.5,-114.5 533.5,-114.5"/>
<text text-anchor="middle" x="592" y="-121.5" font-family="Helvetica,sans-Serif" font-size="10.00">ft_anti_alias_sample</text>
</a>
</g>
</g>
<!-- Node2&#45;&gt;Node3 -->
<g id="edge2" class="edge">
<title>Node2&#45;&gt;Node3</title>
<path fill="none" stroke="midnightblue" d="M713.37,-81.18C697.98,-88.87 678.22,-98.17 660,-105 650.72,-108.48 640.51,-111.68 630.92,-114.42"/>
<polygon fill="midnightblue" stroke="midnightblue" points="714.99,-84.28 722.33,-76.64 711.83,-78.04 714.99,-84.28"/>
</g>
<!-- Node4 -->
<g id="node4" class="node">
<title>Node4</title>
<g id="a_node4"><a xlink:href="manip_8h.html#a0225ca8a98c8d5cfe2e9d259b5788e33" target="_top" xlink:title="Manipulates the camera with a keypress.">
<polygon fill="none" stroke="black" points="549,-76.5 549,-95.5 635,-95.5 635,-76.5 549,-76.5"/>
<text text-anchor="middle" x="592" y="-83.5" font-family="Helvetica,sans-Serif" font-size="10.00">ft_manip_cam</text>
</a>
</g>
</g>
<!-- Node2&#45;&gt;Node4 -->
<g id="edge3" class="edge">
<title>Node2&#45;&gt;Node4</title>
<path fill="none" stroke="midnightblue" d="M685.67,-74.06C669,-76.21 650.94,-78.54 635.23,-80.56"/>
<polygon fill="midnightblue" stroke="midnightblue" points="686.37,-77.5 695.84,-72.75 685.48,-70.56 686.37,-77.5"/>
</g>
<!-- Node6 -->
<g id="node6" class="node">
<title>Node6</title>
<g id="a_node6"><a xlink:href="manip_8h.html#a8b0cab63a8053d366bbefead351d039a" target="_top" xlink:title="Rotates the camera with the mouse.">
<polygon fill="none" stroke="black" points="524,-38.5 524,-57.5 660,-57.5 660,-38.5 524,-38.5"/>
<text text-anchor="middle" x="592" y="-45.5" font-family="Helvetica,sans-Serif" font-size="10.00">ft_mouse_hook_rot_cam</text>
</a>
</g>
</g>
<!-- Node2&#45;&gt;Node6 -->
<g id="edge5" class="edge">
<title>Node2&#45;&gt;Node6</title>
<path fill="none" stroke="midnightblue" d="M685.83,-59.96C677.44,-58.88 668.71,-57.75 660.09,-56.64"/>
<polygon fill="midnightblue" stroke="midnightblue" points="685.48,-63.44 695.84,-61.25 686.37,-56.5 685.48,-63.44"/>
</g>
<!-- Node10 -->
<g id="node10" class="node">
<title>Node10</title>
<g id="a_node10"><a xlink:href="render__bonus_8h.html#a0ab696b1752ed3551f1cf8d8c2e7c5d8" target="_top" xlink:title="Raytraces a single sample of the scene to the sample buffer.">
<polygon fill="none" stroke="black" points="542.5,-0.5 542.5,-19.5 641.5,-19.5 641.5,-0.5 542.5,-0.5"/>
<text text-anchor="middle" x="592" y="-7.5" font-family="Helvetica,sans-Serif" font-size="10.00">ft_single_sample</text>
</a>
</g>
</g>
<!-- Node2&#45;&gt;Node10 -->
<g id="edge9" class="edge">
<title>Node2&#45;&gt;Node10</title>
<path fill="none" stroke="midnightblue" d="M713.37,-52.82C697.98,-45.13 678.22,-35.83 660,-29 650.72,-25.52 640.51,-22.32 630.92,-19.58"/>
<polygon fill="midnightblue" stroke="midnightblue" points="711.83,-55.96 722.33,-57.36 714.99,-49.72 711.83,-55.96"/>
</g>
<!-- Node5 -->
<g id="node5" class="node">
<title>Node5</title>
<g id="a_node5"><a xlink:href="manip_8h.html#ad4c2931e2e9392390f987c8ca3c99a5d" target="_top" xlink:title="Branches to the corresponding manipulation function.">
<polygon fill="none" stroke="black" points="391,-76.5 391,-95.5 484,-95.5 484,-76.5 391,-76.5"/>
<text text-anchor="middle" x="437.5" y="-83.5" font-family="Helvetica,sans-Serif" font-size="10.00">ft_manip_scene</text>
</a>
</g>
</g>
<!-- Node4&#45;&gt;Node5 -->
<g id="edge4" class="edge">
<title>Node4&#45;&gt;Node5</title>
<path fill="none" stroke="midnightblue" d="M538.74,-86C521.01,-86 501.36,-86 484.18,-86"/>
<polygon fill="midnightblue" stroke="midnightblue" points="538.93,-89.5 548.93,-86 538.92,-82.5 538.93,-89.5"/>
</g>
<!-- Node7 -->
<g id="node7" class="node">
<title>Node7</title>
<g id="a_node7"><a xlink:href="manip_8h.html#a789550edaaab12e30e0d8c779abdc1b8" target="_top" xlink:title="Handles mouse movement.">
<polygon fill="none" stroke="black" points="227,-38.5 227,-57.5 351,-57.5 351,-38.5 227,-38.5"/>
<text text-anchor="middle" x="289" y="-45.5" font-family="Helvetica,sans-Serif" font-size="10.00">ft_mouse_hook_move</text>
</a>
</g>
</g>
<!-- Node6&#45;&gt;Node7 -->
<g id="edge6" class="edge">
<title>Node6&#45;&gt;Node7</title>
<path fill="none" stroke="midnightblue" d="M513.6,-48C463.05,-48 397.98,-48 351.09,-48"/>
<polygon fill="midnightblue" stroke="midnightblue" points="513.82,-51.5 523.82,-48 513.82,-44.5 513.82,-51.5"/>
</g>
<!-- Node8 -->
<g id="node8" class="node">
<title>Node8</title>
<g id="a_node8"><a xlink:href="render_8h.html#ab7a01aa5d27d2fad2942a43a31ae0d52" target="_top" xlink:title="Starts the mlx loop.">
<polygon fill="none" stroke="black" points="77,-19.5 77,-38.5 191,-38.5 191,-19.5 77,-19.5"/>
<text text-anchor="middle" x="134" y="-26.5" font-family="Helvetica,sans-Serif" font-size="10.00">ft_render_start_loop</text>
</a>
</g>
</g>
<!-- Node7&#45;&gt;Node8 -->
<g id="edge7" class="edge">
<title>Node7&#45;&gt;Node8</title>
<path fill="none" stroke="midnightblue" d="M216.46,-39.12C208.06,-38.07 199.57,-37.02 191.41,-36"/>
<polygon fill="midnightblue" stroke="midnightblue" points="216.3,-42.62 226.65,-40.38 217.16,-35.68 216.3,-42.62"/>
</g>
<!-- Node9 -->
<g id="node9" class="node">
<title>Node9</title>
<g id="a_node9"><a xlink:href="main_8c.html#a3c04138a5bfe5d72780bb7e82a18e627" target="_top" xlink:title=" ">
<polygon fill="none" stroke="black" points="0,-19.5 0,-38.5 41,-38.5 41,-19.5 0,-19.5"/>
<text text-anchor="middle" x="20.5" y="-26.5" font-family="Helvetica,sans-Serif" font-size="10.00">main</text>
</a>
</g>
</g>
<!-- Node8&#45;&gt;Node9 -->
<g id="edge8" class="edge">
<title>Node8&#45;&gt;Node9</title>
<path fill="none" stroke="midnightblue" d="M66.7,-29C57.37,-29 48.45,-29 41.04,-29"/>
<polygon fill="midnightblue" stroke="midnightblue" points="66.92,-32.5 76.92,-29 66.92,-25.5 66.92,-32.5"/>
</g>
<!-- Node11 -->
<g id="node11" class="node">
<title>Node11</title>
<g id="a_node11"><a xlink:href="render__bonus_8h.html#a9c57490cfa20448a418091aa47a49245" target="_top" xlink:title="Raytraces a sample of the scene to the sample buffer.">
<polygon fill="none" stroke="black" points="387,-0.5 387,-19.5 488,-19.5 488,-0.5 387,-0.5"/>
<text text-anchor="middle" x="437.5" y="-7.5" font-family="Helvetica,sans-Serif" font-size="10.00">ft_render_sample</text>
</a>
</g>
</g>
<!-- Node10&#45;&gt;Node11 -->
<g id="edge10" class="edge">
<title>Node10&#45;&gt;Node11</title>
<path fill="none" stroke="midnightblue" d="M531.95,-10C517.43,-10 502.03,-10 488.02,-10"/>
<polygon fill="midnightblue" stroke="midnightblue" points="532.33,-13.5 542.33,-10 532.33,-6.5 532.33,-13.5"/>
</g>
<!-- Node12 -->
<g id="node12" class="node">
<title>Node12</title>
<g id="a_node12"><a xlink:href="render_8h.html#a012503b6ad6ee8198a601dad994c09b7" target="_top" xlink:title="Main loop of the program.">
<polygon fill="none" stroke="black" points="236,-0.5 236,-19.5 342,-19.5 342,-0.5 236,-0.5"/>
<text text-anchor="middle" x="289" y="-7.5" font-family="Helvetica,sans-Serif" font-size="10.00">ft_programm_loop</text>
</a>
</g>
</g>
<!-- Node11&#45;&gt;Node12 -->
<g id="edge11" class="edge">
<title>Node11&#45;&gt;Node12</title>
<path fill="none" stroke="midnightblue" d="M376.55,-10C365.11,-10 353.22,-10 342.05,-10"/>
<polygon fill="midnightblue" stroke="midnightblue" points="376.9,-13.5 386.9,-10 376.9,-6.5 376.9,-13.5"/>
</g>
<!-- Node12&#45;&gt;Node8 -->
<g id="edge12" class="edge">
<title>Node12&#45;&gt;Node8</title>
<path fill="none" stroke="midnightblue" d="M225.84,-17.72C214.37,-19.14 202.45,-20.62 191.18,-22.02"/>
<polygon fill="midnightblue" stroke="midnightblue" points="226.28,-21.19 235.77,-16.49 225.42,-14.24 226.28,-21.19"/>
</g>
</g>
</svg>
