<?xml version="1.0" encoding="UTF-8" standalone="no"?>
<!DOCTYPE svg PUBLIC "-//W3C//DTD SVG 1.1//EN"
 "http://www.w3.org/Graphics/SVG/1.1/DTD/svg11.dtd">
<!-- Generated by graphviz version 2.43.0 (0)
 -->
<!-- Title: ft_create_threads Pages: 1 -->
<!--zoomable 142 -->
<svg id="main" version="1.1" xmlns="http://www.w3.org/2000/svg" xmlns:xlink="http://www.w3.org/1999/xlink" xml:space="preserve" onload="init(evt)">
<style type="text/css"><![CDATA[
.edge:hover path { stroke: red; }
.edge:hover polygon { stroke: red; fill: red; }
]]></style>
<script type="text/javascript"><![CDATA[
var edges = document.getElementsByTagName('g');
if (edges && edges.length) {
  for (var i=0;i<edges.length;i++) {
    if (edges[i].id.substr(0,4)=='edge') {
      edges[i].setAttribute('class','edge');
    }
  }
}
]]></script>
        <defs>
                <circle id="rim" cx="0" cy="0" r="7"/>
                <circle id="rim2" cx="0" cy="0" r="3.5"/>
                <g id="zoomPlus">
                        <use xlink:href="#rim" fill="#404040">
                                <set attributeName="fill" to="#808080" begin="zoomplus.mouseover" end="zoomplus.mouseout"/>
                        </use>
                        <path d="M-4,0h8M0,-4v8" fill="none" stroke="white" stroke-width="1.5" pointer-events="none"/>
                </g>
                <g id="zoomMin">
                        <use xlink:href="#rim" fill="#404040">
                                <set attributeName="fill" to="#808080" begin="zoomminus.mouseover" end="zoomminus.mouseout"/>
                        </use>
                        <path d="M-4,0h8" fill="none" stroke="white" stroke-width="1.5" pointer-events="none"/>
                </g>
                <g id="dirArrow">
                        <path fill="none" stroke="white" stroke-width="1.5" d="M0,-3.0v7 M-2.5,-0.5L0,-3.0L2.5,-0.5"/>
                </g>
               <g id="resetDef">
                       <use xlink:href="#rim2" fill="#404040">
                               <set attributeName="fill" to="#808080" begin="reset.mouseover" end="reset.mouseout"/>
                       </use>
               </g>
        </defs>

<script type="text/javascript">
var viewWidth = 937;
var viewHeight = 142;
var sectionId = 'dynsection-3';
</script>
<script xlink:href="svgpan.js"/>
<svg id="graph" class="graph">
<g id="viewport">
<title>ft_create_threads</title>
<!-- Node1 -->
<g id="node1" class="node">
<title>Node1</title>
<g id="a_node1"><a xlink:title="Creates NUM_THREADS threads and calls routine with arg.">
<polygon fill="#bfbfbf" stroke="black" points="828,-57.5 828,-76.5 929,-76.5 929,-57.5 828,-57.5"/>
<text text-anchor="middle" x="878.5" y="-64.5" font-family="Helvetica,sans-Serif" font-size="10.00">ft_create_threads</text>
</a>
</g>
</g>
<!-- Node2 -->
<g id="node2" class="node">
<title>Node2</title>
<g id="a_node2"><a xlink:href="threads__bonus_8h.html#a2ebd69dd0aea05d27136b23dfb779788" target="_top" xlink:title="Creates NUM_THREADS threads and joins them.">
<polygon fill="none" stroke="black" points="701,-57.5 701,-76.5 792,-76.5 792,-57.5 701,-57.5"/>
<text text-anchor="middle" x="746.5" y="-64.5" font-family="Helvetica,sans-Serif" font-size="10.00">ft_spin_threads</text>
</a>
</g>
</g>
<!-- Node1&#45;&gt;Node2 -->
<g id="edge1" class="edge">
<title>Node1&#45;&gt;Node2</title>
<path fill="none" stroke="midnightblue" d="M817.92,-67C809.27,-67 800.48,-67 792.19,-67"/>
<polygon fill="midnightblue" stroke="midnightblue" points="817.98,-70.5 827.98,-67 817.98,-63.5 817.98,-70.5"/>
</g>
<!-- Node3 -->
<g id="node3" class="node">
<title>Node3</title>
<g id="a_node3"><a xlink:href="render__bonus_8h.html#a46e5a7c75a4d9fb06252d28cf8d18821" target="_top" xlink:title="Raytraces a sample of the scene and adds it to the sample buffer.">
<polygon fill="none" stroke="black" points="538.5,-114.5 538.5,-133.5 655.5,-133.5 655.5,-114.5 538.5,-114.5"/>
<text text-anchor="middle" x="597" y="-121.5" font-family="Helvetica,sans-Serif" font-size="10.00">ft_anti_alias_sample</text>
</a>
</g>
</g>
<!-- Node2&#45;&gt;Node3 -->
<g id="edge2" class="edge">
<title>Node2&#45;&gt;Node3</title>
<path fill="none" stroke="midnightblue" d="M718.37,-81.18C702.98,-88.87 683.22,-98.17 665,-105 655.72,-108.48 645.51,-111.68 635.92,-114.42"/>
<polygon fill="midnightblue" stroke="midnightblue" points="719.99,-84.28 727.33,-76.64 716.83,-78.04 719.99,-84.28"/>
</g>
<!-- Node4 -->
<g id="node4" class="node">
<title>Node4</title>
<g id="a_node4"><a xlink:href="render__keyhook__camera__bonus_8c.html#a0225ca8a98c8d5cfe2e9d259b5788e33" target="_top" xlink:title="Manipulates the camera with a keypress.">
<polygon fill="none" stroke="black" points="554,-76.5 554,-95.5 640,-95.5 640,-76.5 554,-76.5"/>
<text text-anchor="middle" x="597" y="-83.5" font-family="Helvetica,sans-Serif" font-size="10.00">ft_manip_cam</text>
</a>
</g>
</g>
<!-- Node2&#45;&gt;Node4 -->
<g id="edge3" class="edge">
<title>Node2&#45;&gt;Node4</title>
<path fill="none" stroke="midnightblue" d="M690.67,-74.06C674,-76.21 655.94,-78.54 640.23,-80.56"/>
<polygon fill="midnightblue" stroke="midnightblue" points="691.37,-77.5 700.84,-72.75 690.48,-70.56 691.37,-77.5"/>
</g>
<!-- Node5 -->
<g id="node5" class="node">
<title>Node5</title>
<g id="a_node5"><a xlink:href="render__mouse__bonus_8c.html#a8b0cab63a8053d366bbefead351d039a" target="_top" xlink:title="Rotates the camera with the mouse.">
<polygon fill="none" stroke="black" points="529,-38.5 529,-57.5 665,-57.5 665,-38.5 529,-38.5"/>
<text text-anchor="middle" x="597" y="-45.5" font-family="Helvetica,sans-Serif" font-size="10.00">ft_mouse_hook_rot_cam</text>
</a>
</g>
</g>
<!-- Node2&#45;&gt;Node5 -->
<g id="edge4" class="edge">
<title>Node2&#45;&gt;Node5</title>
<path fill="none" stroke="midnightblue" d="M690.83,-59.96C682.44,-58.88 673.71,-57.75 665.09,-56.64"/>
<polygon fill="midnightblue" stroke="midnightblue" points="690.48,-63.44 700.84,-61.25 691.37,-56.5 690.48,-63.44"/>
</g>
<!-- Node9 -->
<g id="node9" class="node">
<title>Node9</title>
<g id="a_node9"><a xlink:href="render__bonus_8h.html#a0ab696b1752ed3551f1cf8d8c2e7c5d8" target="_top" xlink:title="Raytraces a single sample of the scene to the sample buffer.">
<polygon fill="none" stroke="black" points="547.5,-0.5 547.5,-19.5 646.5,-19.5 646.5,-0.5 547.5,-0.5"/>
<text text-anchor="middle" x="597" y="-7.5" font-family="Helvetica,sans-Serif" font-size="10.00">ft_single_sample</text>
</a>
</g>
</g>
<!-- Node2&#45;&gt;Node9 -->
<g id="edge8" class="edge">
<title>Node2&#45;&gt;Node9</title>
<path fill="none" stroke="midnightblue" d="M718.37,-52.82C702.98,-45.13 683.22,-35.83 665,-29 655.72,-25.52 645.51,-22.32 635.92,-19.58"/>
<polygon fill="midnightblue" stroke="midnightblue" points="716.83,-55.96 727.33,-57.36 719.99,-49.72 716.83,-55.96"/>
</g>
<!-- Node6 -->
<g id="node6" class="node">
<title>Node6</title>
<g id="a_node6"><a xlink:href="render__mouse__bonus_8c.html#a789550edaaab12e30e0d8c779abdc1b8" target="_top" xlink:title="Handles mouse movement.">
<polygon fill="none" stroke="black" points="369,-38.5 369,-57.5 493,-57.5 493,-38.5 369,-38.5"/>
<text text-anchor="middle" x="431" y="-45.5" font-family="Helvetica,sans-Serif" font-size="10.00">ft_mouse_hook_move</text>
</a>
</g>
</g>
<!-- Node5&#45;&gt;Node6 -->
<g id="edge5" class="edge">
<title>Node5&#45;&gt;Node6</title>
<path fill="none" stroke="midnightblue" d="M518.74,-48C510.11,-48 501.4,-48 493.01,-48"/>
<polygon fill="midnightblue" stroke="midnightblue" points="518.82,-51.5 528.82,-48 518.82,-44.5 518.82,-51.5"/>
</g>
<!-- Node7 -->
<g id="node7" class="node">
<title>Node7</title>
<g id="a_node7"><a xlink:href="render_8h.html#ab7a01aa5d27d2fad2942a43a31ae0d52" target="_top" xlink:title="Starts the mlx loop.">
<polygon fill="none" stroke="black" points="77,-38.5 77,-57.5 191,-57.5 191,-38.5 77,-38.5"/>
<text text-anchor="middle" x="134" y="-45.5" font-family="Helvetica,sans-Serif" font-size="10.00">ft_render_start_loop</text>
</a>
</g>
</g>
<!-- Node6&#45;&gt;Node7 -->
<g id="edge6" class="edge">
<title>Node6&#45;&gt;Node7</title>
<path fill="none" stroke="midnightblue" d="M358.82,-48C307.31,-48 238.68,-48 191.06,-48"/>
<polygon fill="midnightblue" stroke="midnightblue" points="358.88,-51.5 368.88,-48 358.88,-44.5 358.88,-51.5"/>
</g>
<!-- Node8 -->
<g id="node8" class="node">
<title>Node8</title>
<g id="a_node8"><a xlink:href="main_8c.html#a3c04138a5bfe5d72780bb7e82a18e627" target="_top" xlink:title=" ">
<polygon fill="none" stroke="black" points="0,-19.5 0,-38.5 41,-38.5 41,-19.5 0,-19.5"/>
<text text-anchor="middle" x="20.5" y="-26.5" font-family="Helvetica,sans-Serif" font-size="10.00">main</text>
</a>
</g>
</g>
<!-- Node7&#45;&gt;Node8 -->
<g id="edge7" class="edge">
<title>Node7&#45;&gt;Node8</title>
<path fill="none" stroke="midnightblue" d="M66.99,-36.75C57.56,-35.14 48.53,-33.61 41.04,-32.33"/>
<polygon fill="midnightblue" stroke="midnightblue" points="66.48,-40.21 76.92,-38.44 67.65,-33.31 66.48,-40.21"/>
</g>
<!-- Node10 -->
<g id="node10" class="node">
<title>Node10</title>
<g id="a_node10"><a xlink:href="render__bonus_8h.html#a9c57490cfa20448a418091aa47a49245" target="_top" xlink:title="Raytraces a sample of the scene to the sample buffer.">
<polygon fill="none" stroke="black" points="380.5,-0.5 380.5,-19.5 481.5,-19.5 481.5,-0.5 380.5,-0.5"/>
<text text-anchor="middle" x="431" y="-7.5" font-family="Helvetica,sans-Serif" font-size="10.00">ft_render_sample</text>
</a>
</g>
</g>
<!-- Node9&#45;&gt;Node10 -->
<g id="edge9" class="edge">
<title>Node9&#45;&gt;Node10</title>
<path fill="none" stroke="midnightblue" d="M537.07,-10C518.93,-10 499.16,-10 481.71,-10"/>
<polygon fill="midnightblue" stroke="midnightblue" points="537.24,-13.5 547.24,-10 537.24,-6.5 537.24,-13.5"/>
</g>
<!-- Node11 -->
<g id="node11" class="node">
<title>Node11</title>
<g id="a_node11"><a xlink:href="render__loop__mlx__bonus_8c.html#a012503b6ad6ee8198a601dad994c09b7" target="_top" xlink:title="Main loop of the program.">
<polygon fill="none" stroke="black" points="227,-0.5 227,-19.5 333,-19.5 333,-0.5 227,-0.5"/>
<text text-anchor="middle" x="280" y="-7.5" font-family="Helvetica,sans-Serif" font-size="10.00">ft_programm_loop</text>
</a>
</g>
</g>
<!-- Node10&#45;&gt;Node11 -->
<g id="edge10" class="edge">
<title>Node10&#45;&gt;Node11</title>
<path fill="none" stroke="midnightblue" d="M370.25,-10C357.99,-10 345.17,-10 333.21,-10"/>
<polygon fill="midnightblue" stroke="midnightblue" points="370.39,-13.5 380.39,-10 370.39,-6.5 370.39,-13.5"/>
</g>
<!-- Node12 -->
<g id="node12" class="node">
<title>Node12</title>
<g id="a_node12"><a xlink:href="render__loop__mlx__bonus_8c.html#ab7a01aa5d27d2fad2942a43a31ae0d52" target="_top" xlink:title="Starts the mlx loop.">
<polygon fill="none" stroke="black" points="77,-0.5 77,-19.5 191,-19.5 191,-0.5 77,-0.5"/>
<text text-anchor="middle" x="134" y="-7.5" font-family="Helvetica,sans-Serif" font-size="10.00">ft_render_start_loop</text>
</a>
</g>
</g>
<!-- Node11&#45;&gt;Node12 -->
<g id="edge11" class="edge">
<title>Node11&#45;&gt;Node12</title>
<path fill="none" stroke="midnightblue" d="M216.56,-10C208.22,-10 199.71,-10 191.48,-10"/>
<polygon fill="midnightblue" stroke="midnightblue" points="216.61,-13.5 226.61,-10 216.61,-6.5 216.61,-13.5"/>
</g>
<!-- Node12&#45;&gt;Node8 -->
<g id="edge12" class="edge">
<title>Node12&#45;&gt;Node8</title>
<path fill="none" stroke="midnightblue" d="M66.99,-21.25C57.56,-22.86 48.53,-24.39 41.04,-25.67"/>
<polygon fill="midnightblue" stroke="midnightblue" points="67.65,-24.69 76.92,-19.56 66.48,-17.79 67.65,-24.69"/>
</g>
</g>
</svg>
        <g id="navigator" transform="translate(0 0)" fill="#404254">
                <rect fill="#f2f5e9" fill-opacity="0.5" stroke="#606060" stroke-width=".5" x="0" y="0" width="60" height="60"/>
                <use id="zoomplus" xlink:href="#zoomPlus" x="17" y="9" onmousedown="handleZoom(evt,'in')"/>
                <use id="zoomminus" xlink:href="#zoomMin" x="42" y="9" onmousedown="handleZoom(evt,'out')"/>
                <use id="reset" xlink:href="#resetDef" x="30" y="36" onmousedown="handleReset()"/>
                <g id="arrowUp" xlink:href="#dirArrow" transform="translate(30 24)" onmousedown="handlePan(0,-1)">
                  <use xlink:href="#rim" fill="#404040">
                        <set attributeName="fill" to="#808080" begin="arrowUp.mouseover" end="arrowUp.mouseout"/>
                  </use>
                  <path fill="none" stroke="white" stroke-width="1.5" d="M0,-3.0v7 M-2.5,-0.5L0,-3.0L2.5,-0.5"/>
                </g>
                <g id="arrowRight" xlink:href="#dirArrow" transform="rotate(90) translate(36 -43)" onmousedown="handlePan(1,0)">
                  <use xlink:href="#rim" fill="#404040">
                        <set attributeName="fill" to="#808080" begin="arrowRight.mouseover" end="arrowRight.mouseout"/>
                  </use>
                  <path fill="none" stroke="white" stroke-width="1.5" d="M0,-3.0v7 M-2.5,-0.5L0,-3.0L2.5,-0.5"/>
                </g>
                <g id="arrowDown" xlink:href="#dirArrow" transform="rotate(180) translate(-30 -48)" onmousedown="handlePan(0,1)">
                  <use xlink:href="#rim" fill="#404040">
                        <set attributeName="fill" to="#808080" begin="arrowDown.mouseover" end="arrowDown.mouseout"/>
                  </use>
                  <path fill="none" stroke="white" stroke-width="1.5" d="M0,-3.0v7 M-2.5,-0.5L0,-3.0L2.5,-0.5"/>
                </g>
                <g id="arrowLeft" xlink:href="#dirArrow" transform="rotate(270) translate(-36 17)" onmousedown="handlePan(-1,0)">
                  <use xlink:href="#rim" fill="#404040">
                        <set attributeName="fill" to="#808080" begin="arrowLeft.mouseover" end="arrowLeft.mouseout"/>
                  </use>
                  <path fill="none" stroke="white" stroke-width="1.5" d="M0,-3.0v7 M-2.5,-0.5L0,-3.0L2.5,-0.5"/>
                </g>
        </g>
        <svg viewBox="0 0 15 15" width="100%" height="30px" preserveAspectRatio="xMaxYMin meet">
         <g id="arrow_out" transform="scale(0.3 0.3)">
          <a xlink:href="threads__bonus_8h_adef619e7d6d95dba7464efd3edac7ca0_icgraph_org.svg" target="_base">
           <rect id="button" ry="5" rx="5" y="6" x="6" height="38" width="38"
                fill="#f2f5e9" fill-opacity="0.5" stroke="#606060" stroke-width="1.0"/>
           <path id="arrow"
             d="M 11.500037,31.436501 C 11.940474,20.09759 22.043105,11.32322 32.158766,21.979434 L 37.068811,17.246167 C 37.068811,17.246167 37.088388,32 37.088388,32 L 22.160133,31.978069 C 22.160133,31.978069 26.997745,27.140456 26.997745,27.140456 C 18.528582,18.264221 13.291696,25.230495 11.500037,31.436501 z"
             style="fill:#404040;"/>
          </a>
         </g>
        </svg>
</svg>
