<?xml version="1.0" encoding="UTF-8" standalone="no"?>
<!DOCTYPE svg PUBLIC "-//W3C//DTD SVG 1.1//EN"
 "http://www.w3.org/Graphics/SVG/1.1/DTD/svg11.dtd">
<!-- Generated by graphviz version 2.43.0 (0)
 -->
<!-- Title: ft_solve Pages: 1 -->
<!--zoomable 195 -->
<svg id="main" version="1.1" xmlns="http://www.w3.org/2000/svg" xmlns:xlink="http://www.w3.org/1999/xlink" xml:space="preserve" onload="init(evt)">
<style type="text/css"><![CDATA[
.edge:hover path { stroke: red; }
.edge:hover polygon { stroke: red; fill: red; }
]]></style>
<script type="text/javascript"><![CDATA[
var edges = document.getElementsByTagName('g');
if (edges && edges.length) {
  for (var i=0;i<edges.length;i++) {
    if (edges[i].id.substr(0,4)=='edge') {
      edges[i].setAttribute('class','edge');
    }
  }
}
]]></script>
        <defs>
                <circle id="rim" cx="0" cy="0" r="7"/>
                <circle id="rim2" cx="0" cy="0" r="3.5"/>
                <g id="zoomPlus">
                        <use xlink:href="#rim" fill="#404040">
                                <set attributeName="fill" to="#808080" begin="zoomplus.mouseover" end="zoomplus.mouseout"/>
                        </use>
                        <path d="M-4,0h8M0,-4v8" fill="none" stroke="white" stroke-width="1.5" pointer-events="none"/>
                </g>
                <g id="zoomMin">
                        <use xlink:href="#rim" fill="#404040">
                                <set attributeName="fill" to="#808080" begin="zoomminus.mouseover" end="zoomminus.mouseout"/>
                        </use>
                        <path d="M-4,0h8" fill="none" stroke="white" stroke-width="1.5" pointer-events="none"/>
                </g>
                <g id="dirArrow">
                        <path fill="none" stroke="white" stroke-width="1.5" d="M0,-3.0v7 M-2.5,-0.5L0,-3.0L2.5,-0.5"/>
                </g>
               <g id="resetDef">
                       <use xlink:href="#rim2" fill="#404040">
                               <set attributeName="fill" to="#808080" begin="reset.mouseover" end="reset.mouseout"/>
                       </use>
               </g>
        </defs>

<script type="text/javascript">
var viewWidth = 1506;
var viewHeight = 195;
var sectionId = 'dynsection-4';
</script>
<script xlink:href="svgpan.js"/>
<svg id="graph" class="graph">
<g id="viewport">
<title>ft_solve</title>
<!-- Node1 -->
<g id="node1" class="node">
<title>Node1</title>
<g id="a_node1"><a xlink:title="Solves the given equation.">
<polygon fill="#bfbfbf" stroke="black" points="1443,-66.5 1443,-85.5 1498,-85.5 1498,-66.5 1443,-66.5"/>
<text text-anchor="middle" x="1470.5" y="-73.5" font-family="Helvetica,sans-Serif" font-size="10.00">ft_solve</text>
</a>
</g>
</g>
<!-- Node2 -->
<g id="node2" class="node">
<title>Node2</title>
<g id="a_node2"><a xlink:href="hit__manager__bonus_8h.html#a9752309af1756a6360c6459ed6747f83" target="_top" xlink:title="Calculates potential hits of a cone.">
<polygon fill="none" stroke="black" points="1037,-114.5 1037,-133.5 1146,-133.5 1146,-114.5 1037,-114.5"/>
<text text-anchor="middle" x="1091.5" y="-121.5" font-family="Helvetica,sans-Serif" font-size="10.00">ft_co_calc_pot_hits</text>
</a>
</g>
</g>
<!-- Node1&#45;&gt;Node2 -->
<g id="edge1" class="edge">
<title>Node1&#45;&gt;Node2</title>
<path fill="none" stroke="midnightblue" d="M1450.77,-92.62C1438.84,-102.63 1422.72,-115.11 1407,-124 1346.73,-158.09 1330.03,-168.11 1262,-181 1227.07,-187.62 1216.14,-190.95 1182,-181 1150.16,-171.72 1118.85,-147.31 1103.06,-133.64"/>
<polygon fill="midnightblue" stroke="midnightblue" points="1453.34,-95.03 1458.65,-85.86 1448.78,-89.72 1453.34,-95.03"/>
</g>
<!-- Node17 -->
<g id="node17" class="node">
<title>Node17</title>
<g id="a_node17"><a xlink:href="hit__manager_8h.html#afb7b50ad2f9161c61fc1065975ec7cbf" target="_top" xlink:title="Calculates all four potential hits of a cylinder.">
<polygon fill="none" stroke="black" points="1298,-0.5 1298,-19.5 1407,-19.5 1407,-0.5 1298,-0.5"/>
<text text-anchor="middle" x="1352.5" y="-7.5" font-family="Helvetica,sans-Serif" font-size="10.00">ft_cy_calc_pot_hits</text>
</a>
</g>
</g>
<!-- Node1&#45;&gt;Node17 -->
<g id="edge18" class="edge">
<title>Node1&#45;&gt;Node17</title>
<path fill="none" stroke="midnightblue" d="M1448.18,-60.35C1436.36,-52.02 1421.21,-41.89 1407,-34 1397.48,-28.71 1386.57,-23.65 1377.09,-19.55"/>
<polygon fill="midnightblue" stroke="midnightblue" points="1446.33,-63.34 1456.5,-66.31 1450.41,-57.64 1446.33,-63.34"/>
</g>
<!-- Node18 -->
<g id="node18" class="node">
<title>Node18</title>
<g id="a_node18"><a xlink:href="hit__manager_8h.html#a04f04eb6383f01a28b0c7201ab52782e" target="_top" xlink:title="Calculates if a plane was hit by a ray.">
<polygon fill="none" stroke="black" points="1315.5,-95.5 1315.5,-114.5 1389.5,-114.5 1389.5,-95.5 1315.5,-95.5"/>
<text text-anchor="middle" x="1352.5" y="-102.5" font-family="Helvetica,sans-Serif" font-size="10.00">ft_hit_plane</text>
</a>
</g>
</g>
<!-- Node1&#45;&gt;Node18 -->
<g id="edge19" class="edge">
<title>Node1&#45;&gt;Node18</title>
<path fill="none" stroke="midnightblue" d="M1433.19,-85.08C1419.32,-88.55 1403.51,-92.5 1389.66,-95.96"/>
<polygon fill="midnightblue" stroke="midnightblue" points="1434.03,-88.47 1442.89,-82.65 1432.34,-81.68 1434.03,-88.47"/>
</g>
<!-- Node22 -->
<g id="node22" class="node">
<title>Node22</title>
<g id="a_node22"><a xlink:href="hit__manager_8h.html#aee999b32d6cebbb7bcd64995f8e88b6e" target="_top" xlink:title="Calculates if a sphere was hit by a ray.">
<polygon fill="none" stroke="black" points="1051.5,-38.5 1051.5,-57.5 1131.5,-57.5 1131.5,-38.5 1051.5,-38.5"/>
<text text-anchor="middle" x="1091.5" y="-45.5" font-family="Helvetica,sans-Serif" font-size="10.00">ft_hit_sphere</text>
</a>
</g>
</g>
<!-- Node1&#45;&gt;Node22 -->
<g id="edge27" class="edge">
<title>Node1&#45;&gt;Node22</title>
<path fill="none" stroke="midnightblue" d="M1432.7,-73.27C1361.33,-67.97 1204.72,-56.34 1131.58,-50.9"/>
<polygon fill="midnightblue" stroke="midnightblue" points="1432.76,-76.78 1442.99,-74.03 1433.28,-69.8 1432.76,-76.78"/>
</g>
<!-- Node3 -->
<g id="node3" class="node">
<title>Node3</title>
<g id="a_node3"><a xlink:href="hit__manager__bonus_8h.html#aebab6e1f11fc5b2e6c420276c9beee96" target="_top" xlink:title="Calculates if a cone was hit by a ray.">
<polygon fill="none" stroke="black" points="931,-114.5 931,-133.5 1001,-133.5 1001,-114.5 931,-114.5"/>
<text text-anchor="middle" x="966" y="-121.5" font-family="Helvetica,sans-Serif" font-size="10.00">ft_hit_cone</text>
</a>
</g>
</g>
<!-- Node2&#45;&gt;Node3 -->
<g id="edge2" class="edge">
<title>Node2&#45;&gt;Node3</title>
<path fill="none" stroke="midnightblue" d="M1026.43,-124C1017.68,-124 1009,-124 1001.08,-124"/>
<polygon fill="midnightblue" stroke="midnightblue" points="1026.69,-127.5 1036.69,-124 1026.69,-120.5 1026.69,-127.5"/>
</g>
<!-- Node4 -->
<g id="node4" class="node">
<title>Node4</title>
<g id="a_node4"><a xlink:href="hit__bonus_8c.html#a9d5972226064b0a4d0e1359d9230abec" target="_top" xlink:title="Investigate a hittable and returns whether a hit occured or not.">
<polygon fill="none" stroke="black" points="811,-114.5 811,-133.5 895,-133.5 895,-114.5 811,-114.5"/>
<text text-anchor="middle" x="853" y="-121.5" font-family="Helvetica,sans-Serif" font-size="10.00">ft_hit_hittable</text>
</a>
</g>
</g>
<!-- Node3&#45;&gt;Node4 -->
<g id="edge3" class="edge">
<title>Node3&#45;&gt;Node4</title>
<path fill="none" stroke="midnightblue" d="M920.78,-124C912.38,-124 903.63,-124 895.32,-124"/>
<polygon fill="midnightblue" stroke="midnightblue" points="920.79,-127.5 930.79,-124 920.79,-120.5 920.79,-127.5"/>
</g>
<!-- Node5 -->
<g id="node5" class="node">
<title>Node5</title>
<g id="a_node5"><a xlink:href="lighting__bonus_8h.html#a7fe107fe556fd497ebfc4c4df70b83da" target="_top" xlink:title="Looks for the closest object hit by a ray.">
<polygon fill="none" stroke="black" points="659,-133.5 659,-152.5 761,-152.5 761,-133.5 659,-133.5"/>
<text text-anchor="middle" x="710" y="-140.5" font-family="Helvetica,sans-Serif" font-size="10.00">ft_get_closest_hit</text>
</a>
</g>
</g>
<!-- Node4&#45;&gt;Node5 -->
<g id="edge4" class="edge">
<title>Node4&#45;&gt;Node5</title>
<path fill="none" stroke="midnightblue" d="M800.74,-130.91C787.86,-132.64 774.05,-134.5 761.21,-136.23"/>
<polygon fill="midnightblue" stroke="midnightblue" points="801.39,-134.35 810.84,-129.55 800.46,-127.41 801.39,-134.35"/>
</g>
<!-- Node9 -->
<g id="node9" class="node">
<title>Node9</title>
<g id="a_node9"><a xlink:href="ray_8h.html#a2cffd188fb76990901db47a2c3ac638f" target="_top" xlink:title="Returns the colour of a ray.">
<polygon fill="none" stroke="black" points="670,-95.5 670,-114.5 750,-114.5 750,-95.5 670,-95.5"/>
<text text-anchor="middle" x="710" y="-102.5" font-family="Helvetica,sans-Serif" font-size="10.00">ft_ray_colour</text>
</a>
</g>
</g>
<!-- Node4&#45;&gt;Node9 -->
<g id="edge9" class="edge">
<title>Node4&#45;&gt;Node9</title>
<path fill="none" stroke="midnightblue" d="M800.67,-117.08C783.96,-114.83 765.69,-112.37 750.03,-110.26"/>
<polygon fill="midnightblue" stroke="midnightblue" points="800.46,-120.59 810.84,-118.45 801.39,-113.65 800.46,-120.59"/>
</g>
<!-- Node16 -->
<g id="node16" class="node">
<title>Node16</title>
<g id="a_node16"><a xlink:href="lighting_8h.html#a931177e8edb2dd5393cef7a468389a4d" target="_top" xlink:title="Determines whether the shadow ray emitted from the point of intersection is blocked on its way to the...">
<polygon fill="none" stroke="black" points="645,-57.5 645,-76.5 775,-76.5 775,-57.5 645,-57.5"/>
<text text-anchor="middle" x="710" y="-64.5" font-family="Helvetica,sans-Serif" font-size="10.00">ft_shadow_ray_blocked</text>
</a>
</g>
</g>
<!-- Node4&#45;&gt;Node16 -->
<g id="edge17" class="edge">
<title>Node4&#45;&gt;Node16</title>
<path fill="none" stroke="midnightblue" d="M821.43,-110.04C817.9,-108.37 814.36,-106.66 811,-105 794.79,-96.97 791.75,-92.83 775,-86 766.31,-82.46 756.71,-79.25 747.65,-76.53"/>
<polygon fill="midnightblue" stroke="midnightblue" points="820.08,-113.28 830.62,-114.35 823.05,-106.94 820.08,-113.28"/>
</g>
<!-- Node6 -->
<g id="node6" class="node">
<title>Node6</title>
<g id="a_node6"><a xlink:href="lighting__bonus_8h.html#a72c122146878dc126a6472d159526c14" target="_top" xlink:title="Create reflective lighting by recursion.">
<polygon fill="none" stroke="black" points="500,-133.5 500,-152.5 601,-152.5 601,-133.5 500,-133.5"/>
<text text-anchor="middle" x="550.5" y="-140.5" font-family="Helvetica,sans-Serif" font-size="10.00">ft_reflective_light</text>
</a>
</g>
</g>
<!-- Node5&#45;&gt;Node6 -->
<g id="edge5" class="edge">
<title>Node5&#45;&gt;Node6</title>
<path fill="none" stroke="midnightblue" d="M648.58,-143C632.86,-143 616.11,-143 601.02,-143"/>
<polygon fill="midnightblue" stroke="midnightblue" points="648.73,-146.5 658.73,-143 648.73,-139.5 648.73,-146.5"/>
</g>
<!-- Node7 -->
<g id="node7" class="node">
<title>Node7</title>
<g id="a_node7"><a xlink:href="lighting__bonus_8h.html#ac85883d276b27394b86511c7eaa4d4ae" target="_top" xlink:title="Computes the colour of light interacting with different material properties.">
<polygon fill="none" stroke="black" points="349,-133.5 349,-152.5 456,-152.5 456,-133.5 349,-133.5"/>
<text text-anchor="middle" x="402.5" y="-140.5" font-family="Helvetica,sans-Serif" font-size="10.00">ft_compute_colour</text>
</a>
</g>
</g>
<!-- Node6&#45;&gt;Node7 -->
<g id="edge6" class="edge">
<title>Node6&#45;&gt;Node7</title>
<path fill="none" stroke="midnightblue" d="M489.61,-136.35C478.5,-136.18 466.97,-136.23 456.1,-136.49"/>
<polygon fill="midnightblue" stroke="midnightblue" points="489.59,-139.85 499.66,-136.56 489.74,-132.85 489.59,-139.85"/>
</g>
<!-- Node7&#45;&gt;Node6 -->
<g id="edge8" class="edge">
<title>Node7&#45;&gt;Node6</title>
<path fill="none" stroke="midnightblue" d="M466.24,-149.69C477.41,-149.82 488.91,-149.74 499.66,-149.44"/>
<polygon fill="midnightblue" stroke="midnightblue" points="466.16,-146.19 456.1,-149.51 466.04,-153.19 466.16,-146.19"/>
</g>
<!-- Node8 -->
<g id="node8" class="node">
<title>Node8</title>
<g id="a_node8"><a xlink:href="lighting__bonus_8h.html#a7a7ed2ff6f725c296f088c0f2f0d0843" target="_top" xlink:title="Calculate the effect of different lighting on perception.">
<polygon fill="none" stroke="black" points="233,-133.5 233,-152.5 307,-152.5 307,-133.5 233,-133.5"/>
<text text-anchor="middle" x="270" y="-140.5" font-family="Helvetica,sans-Serif" font-size="10.00">ft_enlighten</text>
</a>
</g>
</g>
<!-- Node7&#45;&gt;Node8 -->
<g id="edge7" class="edge">
<title>Node7&#45;&gt;Node8</title>
<path fill="none" stroke="midnightblue" d="M338.52,-143C327.73,-143 316.86,-143 307.09,-143"/>
<polygon fill="midnightblue" stroke="midnightblue" points="338.8,-146.5 348.8,-143 338.8,-139.5 338.8,-146.5"/>
</g>
<!-- Node10 -->
<g id="node10" class="node">
<title>Node10</title>
<g id="a_node10"><a xlink:href="ray__bonus_8h.html#af9c073d2966aa21738e1d2083762055f" target="_top" xlink:title="Returns the colour of a pixel by means of anti&#45;aliasing.">
<polygon fill="none" stroke="black" points="492,-95.5 492,-114.5 609,-114.5 609,-95.5 492,-95.5"/>
<text text-anchor="middle" x="550.5" y="-102.5" font-family="Helvetica,sans-Serif" font-size="10.00">ft_anti_aliase_colour</text>
</a>
</g>
</g>
<!-- Node9&#45;&gt;Node10 -->
<g id="edge10" class="edge">
<title>Node9&#45;&gt;Node10</title>
<path fill="none" stroke="midnightblue" d="M659.45,-105C643.45,-105 625.58,-105 609.06,-105"/>
<polygon fill="midnightblue" stroke="midnightblue" points="659.66,-108.5 669.66,-105 659.66,-101.5 659.66,-108.5"/>
</g>
<!-- Node15 -->
<g id="node15" class="node">
<title>Node15</title>
<g id="a_node15"><a xlink:href="render_8h.html#a4f238596a8fca72f9af80be57cf06d34" target="_top" xlink:title="Renders the scene to the mlx img.">
<polygon fill="none" stroke="black" points="354.5,-57.5 354.5,-76.5 450.5,-76.5 450.5,-57.5 354.5,-57.5"/>
<text text-anchor="middle" x="402.5" y="-64.5" font-family="Helvetica,sans-Serif" font-size="10.00">ft_render_image</text>
</a>
</g>
</g>
<!-- Node9&#45;&gt;Node15 -->
<g id="edge15" class="edge">
<title>Node9&#45;&gt;Node15</title>
<path fill="none" stroke="midnightblue" d="M659.48,-94.62C643.43,-91.52 625.51,-88.33 609,-86 554.89,-78.38 492.33,-73.09 450.58,-70.07"/>
<polygon fill="midnightblue" stroke="midnightblue" points="659.24,-98.14 669.72,-96.64 660.59,-91.27 659.24,-98.14"/>
</g>
<!-- Node11 -->
<g id="node11" class="node">
<title>Node11</title>
<g id="a_node11"><a xlink:href="render__draw__bonus_8c.html#a4f238596a8fca72f9af80be57cf06d34" target="_top" xlink:title="Renders the scene to the mlx img.">
<polygon fill="none" stroke="black" points="354.5,-95.5 354.5,-114.5 450.5,-114.5 450.5,-95.5 354.5,-95.5"/>
<text text-anchor="middle" x="402.5" y="-102.5" font-family="Helvetica,sans-Serif" font-size="10.00">ft_render_image</text>
</a>
</g>
</g>
<!-- Node10&#45;&gt;Node11 -->
<g id="edge11" class="edge">
<title>Node10&#45;&gt;Node11</title>
<path fill="none" stroke="midnightblue" d="M481.53,-105C471.18,-105 460.7,-105 450.92,-105"/>
<polygon fill="midnightblue" stroke="midnightblue" points="481.8,-108.5 491.8,-105 481.8,-101.5 481.8,-108.5"/>
</g>
<!-- Node12 -->
<g id="node12" class="node">
<title>Node12</title>
<g id="a_node12"><a xlink:href="render__loop__mlx_8c.html#af908c05cb19e716220bc98fcf9582573" target="_top" xlink:title=" ">
<polygon fill="none" stroke="black" points="227,-76.5 227,-95.5 313,-95.5 313,-76.5 227,-76.5"/>
<text text-anchor="middle" x="270" y="-83.5" font-family="Helvetica,sans-Serif" font-size="10.00">ft_draw_scene</text>
</a>
</g>
</g>
<!-- Node11&#45;&gt;Node12 -->
<g id="edge12" class="edge">
<title>Node11&#45;&gt;Node12</title>
<path fill="none" stroke="midnightblue" d="M344.47,-96.7C333.99,-95.17 323.23,-93.6 313.28,-92.16"/>
<polygon fill="midnightblue" stroke="midnightblue" points="343.99,-100.16 354.39,-98.14 345,-93.24 343.99,-100.16"/>
</g>
<!-- Node13 -->
<g id="node13" class="node">
<title>Node13</title>
<g id="a_node13"><a xlink:href="render_8h.html#ab7a01aa5d27d2fad2942a43a31ae0d52" target="_top" xlink:title="Starts the mlx loop.">
<polygon fill="none" stroke="black" points="77,-76.5 77,-95.5 191,-95.5 191,-76.5 77,-76.5"/>
<text text-anchor="middle" x="134" y="-83.5" font-family="Helvetica,sans-Serif" font-size="10.00">ft_render_start_loop</text>
</a>
</g>
</g>
<!-- Node12&#45;&gt;Node13 -->
<g id="edge13" class="edge">
<title>Node12&#45;&gt;Node13</title>
<path fill="none" stroke="midnightblue" d="M216.88,-86C208.44,-86 199.66,-86 191.13,-86"/>
<polygon fill="midnightblue" stroke="midnightblue" points="216.97,-89.5 226.97,-86 216.97,-82.5 216.97,-89.5"/>
</g>
<!-- Node14 -->
<g id="node14" class="node">
<title>Node14</title>
<g id="a_node14"><a xlink:href="main_8c.html#a3c04138a5bfe5d72780bb7e82a18e627" target="_top" xlink:title=" ">
<polygon fill="none" stroke="black" points="0,-76.5 0,-95.5 41,-95.5 41,-76.5 0,-76.5"/>
<text text-anchor="middle" x="20.5" y="-83.5" font-family="Helvetica,sans-Serif" font-size="10.00">main</text>
</a>
</g>
</g>
<!-- Node13&#45;&gt;Node14 -->
<g id="edge14" class="edge">
<title>Node13&#45;&gt;Node14</title>
<path fill="none" stroke="midnightblue" d="M66.7,-86C57.37,-86 48.45,-86 41.04,-86"/>
<polygon fill="midnightblue" stroke="midnightblue" points="66.92,-89.5 76.92,-86 66.92,-82.5 66.92,-89.5"/>
</g>
<!-- Node15&#45;&gt;Node12 -->
<g id="edge16" class="edge">
<title>Node15&#45;&gt;Node12</title>
<path fill="none" stroke="midnightblue" d="M344.47,-75.3C333.99,-76.83 323.23,-78.4 313.28,-79.84"/>
<polygon fill="midnightblue" stroke="midnightblue" points="345,-78.76 354.39,-73.86 343.99,-71.84 345,-78.76"/>
</g>
<!-- Node19 -->
<g id="node19" class="node">
<title>Node19</title>
<g id="a_node19"><a xlink:href="hit__manager__bonus_8h.html#aee5824df7f0e0c2698306f49f9a1c790" target="_top" xlink:title="Calculates potential hit of cone cap.">
<polygon fill="none" stroke="black" points="1182,-114.5 1182,-133.5 1262,-133.5 1262,-114.5 1182,-114.5"/>
<text text-anchor="middle" x="1222" y="-121.5" font-family="Helvetica,sans-Serif" font-size="10.00">ft_co_cap_hit</text>
</a>
</g>
</g>
<!-- Node18&#45;&gt;Node19 -->
<g id="edge20" class="edge">
<title>Node18&#45;&gt;Node19</title>
<path fill="none" stroke="midnightblue" d="M1305.31,-111.83C1291.12,-113.93 1275.66,-116.21 1262.01,-118.23"/>
<polygon fill="midnightblue" stroke="midnightblue" points="1305.98,-115.27 1315.36,-110.34 1304.96,-108.34 1305.98,-115.27"/>
</g>
<!-- Node20 -->
<g id="node20" class="node">
<title>Node20</title>
<g id="a_node20"><a xlink:href="hit__manager_8h.html#af2540784b9e01fbdfeacb544ea2c169a" target="_top" xlink:title="Calculates the hit point of the ray with the cylinder cap.">
<polygon fill="none" stroke="black" points="1182,-152.5 1182,-171.5 1262,-171.5 1262,-152.5 1182,-152.5"/>
<text text-anchor="middle" x="1222" y="-159.5" font-family="Helvetica,sans-Serif" font-size="10.00">ft_cy_cap_hit</text>
</a>
</g>
</g>
<!-- Node18&#45;&gt;Node20 -->
<g id="edge22" class="edge">
<title>Node18&#45;&gt;Node20</title>
<path fill="none" stroke="midnightblue" d="M1320.8,-118.62C1297.29,-129.05 1265.45,-143.17 1244.58,-152.43"/>
<polygon fill="midnightblue" stroke="midnightblue" points="1322.27,-121.79 1329.99,-114.54 1319.43,-115.4 1322.27,-121.79"/>
</g>
<!-- Node21 -->
<g id="node21" class="node">
<title>Node21</title>
<g id="a_node21"><a xlink:href="hit__manager_8h.html#a9d5972226064b0a4d0e1359d9230abec" target="_top" xlink:title="Investigate a hittable and returns whether a hit occured or not.">
<polygon fill="none" stroke="black" points="811,-76.5 811,-95.5 895,-95.5 895,-76.5 811,-76.5"/>
<text text-anchor="middle" x="853" y="-83.5" font-family="Helvetica,sans-Serif" font-size="10.00">ft_hit_hittable</text>
</a>
</g>
</g>
<!-- Node18&#45;&gt;Node21 -->
<g id="edge23" class="edge">
<title>Node18&#45;&gt;Node21</title>
<path fill="none" stroke="midnightblue" d="M1305.28,-103.23C1208.78,-99.55 987.21,-91.09 895.21,-87.57"/>
<polygon fill="midnightblue" stroke="midnightblue" points="1305.19,-106.73 1315.32,-103.62 1305.46,-99.74 1305.19,-106.73"/>
</g>
<!-- Node19&#45;&gt;Node2 -->
<g id="edge21" class="edge">
<title>Node19&#45;&gt;Node2</title>
<path fill="none" stroke="midnightblue" d="M1171.48,-124C1163.2,-124 1154.57,-124 1146.18,-124"/>
<polygon fill="midnightblue" stroke="midnightblue" points="1171.75,-127.5 1181.75,-124 1171.75,-120.5 1171.75,-127.5"/>
</g>
<!-- Node21&#45;&gt;Node5 -->
<g id="edge24" class="edge">
<title>Node21&#45;&gt;Node5</title>
<path fill="none" stroke="midnightblue" d="M821.43,-99.96C817.9,-101.63 814.36,-103.34 811,-105 794.79,-113.03 791.75,-117.17 775,-124 766.31,-127.54 756.71,-130.75 747.65,-133.47"/>
<polygon fill="midnightblue" stroke="midnightblue" points="823.05,-103.06 830.62,-95.65 820.08,-96.72 823.05,-103.06"/>
</g>
<!-- Node21&#45;&gt;Node9 -->
<g id="edge25" class="edge">
<title>Node21&#45;&gt;Node9</title>
<path fill="none" stroke="midnightblue" d="M800.67,-92.92C783.96,-95.17 765.69,-97.63 750.03,-99.74"/>
<polygon fill="midnightblue" stroke="midnightblue" points="801.39,-96.35 810.84,-91.55 800.46,-89.41 801.39,-96.35"/>
</g>
<!-- Node21&#45;&gt;Node16 -->
<g id="edge26" class="edge">
<title>Node21&#45;&gt;Node16</title>
<path fill="none" stroke="midnightblue" d="M800.84,-79.11C792.46,-77.98 783.68,-76.79 775.03,-75.63"/>
<polygon fill="midnightblue" stroke="midnightblue" points="800.46,-82.59 810.84,-80.45 801.39,-75.65 800.46,-82.59"/>
</g>
<!-- Node22&#45;&gt;Node21 -->
<g id="edge28" class="edge">
<title>Node22&#45;&gt;Node21</title>
<path fill="none" stroke="midnightblue" d="M1041.16,-55.03C1009.62,-59.62 967.86,-65.88 931,-72 919.34,-73.94 906.71,-76.17 895.12,-78.28"/>
<polygon fill="midnightblue" stroke="midnightblue" points="1042.05,-58.44 1051.45,-53.54 1041.05,-51.51 1042.05,-58.44"/>
</g>
</g>
</svg>
        <g id="navigator" transform="translate(0 0)" fill="#404254">
                <rect fill="#f2f5e9" fill-opacity="0.5" stroke="#606060" stroke-width=".5" x="0" y="0" width="60" height="60"/>
                <use id="zoomplus" xlink:href="#zoomPlus" x="17" y="9" onmousedown="handleZoom(evt,'in')"/>
                <use id="zoomminus" xlink:href="#zoomMin" x="42" y="9" onmousedown="handleZoom(evt,'out')"/>
                <use id="reset" xlink:href="#resetDef" x="30" y="36" onmousedown="handleReset()"/>
                <g id="arrowUp" xlink:href="#dirArrow" transform="translate(30 24)" onmousedown="handlePan(0,-1)">
                  <use xlink:href="#rim" fill="#404040">
                        <set attributeName="fill" to="#808080" begin="arrowUp.mouseover" end="arrowUp.mouseout"/>
                  </use>
                  <path fill="none" stroke="white" stroke-width="1.5" d="M0,-3.0v7 M-2.5,-0.5L0,-3.0L2.5,-0.5"/>
                </g>
                <g id="arrowRight" xlink:href="#dirArrow" transform="rotate(90) translate(36 -43)" onmousedown="handlePan(1,0)">
                  <use xlink:href="#rim" fill="#404040">
                        <set attributeName="fill" to="#808080" begin="arrowRight.mouseover" end="arrowRight.mouseout"/>
                  </use>
                  <path fill="none" stroke="white" stroke-width="1.5" d="M0,-3.0v7 M-2.5,-0.5L0,-3.0L2.5,-0.5"/>
                </g>
                <g id="arrowDown" xlink:href="#dirArrow" transform="rotate(180) translate(-30 -48)" onmousedown="handlePan(0,1)">
                  <use xlink:href="#rim" fill="#404040">
                        <set attributeName="fill" to="#808080" begin="arrowDown.mouseover" end="arrowDown.mouseout"/>
                  </use>
                  <path fill="none" stroke="white" stroke-width="1.5" d="M0,-3.0v7 M-2.5,-0.5L0,-3.0L2.5,-0.5"/>
                </g>
                <g id="arrowLeft" xlink:href="#dirArrow" transform="rotate(270) translate(-36 17)" onmousedown="handlePan(-1,0)">
                  <use xlink:href="#rim" fill="#404040">
                        <set attributeName="fill" to="#808080" begin="arrowLeft.mouseover" end="arrowLeft.mouseout"/>
                  </use>
                  <path fill="none" stroke="white" stroke-width="1.5" d="M0,-3.0v7 M-2.5,-0.5L0,-3.0L2.5,-0.5"/>
                </g>
        </g>
        <svg viewBox="0 0 15 15" width="100%" height="30px" preserveAspectRatio="xMaxYMin meet">
         <g id="arrow_out" transform="scale(0.3 0.3)">
          <a xlink:href="utils__math__bonus_8c_ae65513c75ce8a8538c22393e0af3ab1f_icgraph_org.svg" target="_base">
           <rect id="button" ry="5" rx="5" y="6" x="6" height="38" width="38"
                fill="#f2f5e9" fill-opacity="0.5" stroke="#606060" stroke-width="1.0"/>
           <path id="arrow"
             d="M 11.500037,31.436501 C 11.940474,20.09759 22.043105,11.32322 32.158766,21.979434 L 37.068811,17.246167 C 37.068811,17.246167 37.088388,32 37.088388,32 L 22.160133,31.978069 C 22.160133,31.978069 26.997745,27.140456 26.997745,27.140456 C 18.528582,18.264221 13.291696,25.230495 11.500037,31.436501 z"
             style="fill:#404040;"/>
          </a>
         </g>
        </svg>
</svg>
