<?xml version="1.0" encoding="UTF-8" standalone="no"?>
<!DOCTYPE svg PUBLIC "-//W3C//DTD SVG 1.1//EN"
 "http://www.w3.org/Graphics/SVG/1.1/DTD/svg11.dtd">
<!-- Generated by graphviz version 2.43.0 (0)
 -->
<!-- Title: ft_nearly_equal_flt Pages: 1 -->
<!--zoomable 155 -->
<svg id="main" version="1.1" xmlns="http://www.w3.org/2000/svg" xmlns:xlink="http://www.w3.org/1999/xlink" xml:space="preserve" onload="init(evt)">
<style type="text/css"><![CDATA[
.edge:hover path { stroke: red; }
.edge:hover polygon { stroke: red; fill: red; }
]]></style>
<script type="text/javascript"><![CDATA[
var edges = document.getElementsByTagName('g');
if (edges && edges.length) {
  for (var i=0;i<edges.length;i++) {
    if (edges[i].id.substr(0,4)=='edge') {
      edges[i].setAttribute('class','edge');
    }
  }
}
]]></script>
        <defs>
                <circle id="rim" cx="0" cy="0" r="7"/>
                <circle id="rim2" cx="0" cy="0" r="3.5"/>
                <g id="zoomPlus">
                        <use xlink:href="#rim" fill="#404040">
                                <set attributeName="fill" to="#808080" begin="zoomplus.mouseover" end="zoomplus.mouseout"/>
                        </use>
                        <path d="M-4,0h8M0,-4v8" fill="none" stroke="white" stroke-width="1.5" pointer-events="none"/>
                </g>
                <g id="zoomMin">
                        <use xlink:href="#rim" fill="#404040">
                                <set attributeName="fill" to="#808080" begin="zoomminus.mouseover" end="zoomminus.mouseout"/>
                        </use>
                        <path d="M-4,0h8" fill="none" stroke="white" stroke-width="1.5" pointer-events="none"/>
                </g>
                <g id="dirArrow">
                        <path fill="none" stroke="white" stroke-width="1.5" d="M0,-3.0v7 M-2.5,-0.5L0,-3.0L2.5,-0.5"/>
                </g>
               <g id="resetDef">
                       <use xlink:href="#rim2" fill="#404040">
                               <set attributeName="fill" to="#808080" begin="reset.mouseover" end="reset.mouseout"/>
                       </use>
               </g>
        </defs>

<script type="text/javascript">
var viewWidth = 1851;
var viewHeight = 155;
var sectionId = 'dynsection-3';
</script>
<script xlink:href="svgpan.js"/>
<svg id="graph" class="graph">
<g id="viewport">
<title>ft_nearly_equal_flt</title>
<!-- Node1 -->
<g id="node1" class="node">
<title>Node1</title>
<g id="a_node1"><a xlink:title="Checks if two floats are (almost) equal.">
<polygon fill="#bfbfbf" stroke="black" points="1736,-76.5 1736,-95.5 1843,-95.5 1843,-76.5 1736,-76.5"/>
<text text-anchor="middle" x="1789.5" y="-83.5" font-family="Helvetica,sans-Serif" font-size="10.00">ft_nearly_equal_flt</text>
</a>
</g>
</g>
<!-- Node2 -->
<g id="node2" class="node">
<title>Node2</title>
<g id="a_node2"><a xlink:href="vec3_8h.html#add7f4f27ee8cadcbf62ffbfecb98f64f" target="_top" xlink:title="Determines if two vectors are equal.">
<polygon fill="none" stroke="black" points="1616,-76.5 1616,-95.5 1700,-95.5 1700,-76.5 1616,-76.5"/>
<text text-anchor="middle" x="1658" y="-83.5" font-family="Helvetica,sans-Serif" font-size="10.00">ft_vec3_equal</text>
</a>
</g>
</g>
<!-- Node1&#45;&gt;Node2 -->
<g id="edge1" class="edge">
<title>Node1&#45;&gt;Node2</title>
<path fill="none" stroke="midnightblue" d="M1725.69,-86C1717,-86 1708.26,-86 1700.11,-86"/>
<polygon fill="midnightblue" stroke="midnightblue" points="1725.83,-89.5 1735.83,-86 1725.83,-82.5 1725.83,-89.5"/>
</g>
<!-- Node3 -->
<g id="node3" class="node">
<title>Node3</title>
<g id="a_node3"><a xlink:href="hit__manager__bonus_8h.html#a9874994177d1382ce3e76988ca7cee3b" target="_top" xlink:title="Calculates the normal on the point of intersection of the cone.">
<polygon fill="none" stroke="black" points="1486,-114.5 1486,-133.5 1566,-133.5 1566,-114.5 1486,-114.5"/>
<text text-anchor="middle" x="1526" y="-121.5" font-family="Helvetica,sans-Serif" font-size="10.00">ft_co_normal</text>
</a>
</g>
</g>
<!-- Node2&#45;&gt;Node3 -->
<g id="edge2" class="edge">
<title>Node2&#45;&gt;Node3</title>
<path fill="none" stroke="midnightblue" d="M1614.12,-98.54C1596.43,-103.7 1576.27,-109.6 1559.79,-114.41"/>
<polygon fill="midnightblue" stroke="midnightblue" points="1615.58,-101.75 1624.2,-95.59 1613.62,-95.04 1615.58,-101.75"/>
</g>
<!-- Node19 -->
<g id="node19" class="node">
<title>Node19</title>
<g id="a_node19"><a xlink:href="hit__manager_8h.html#a873b926722f5b8fada3f51432dccd4be" target="_top" xlink:title="Calculates the normal on the point of intersection of the cylinder.">
<polygon fill="none" stroke="black" points="1486,-19.5 1486,-38.5 1566,-38.5 1566,-19.5 1486,-19.5"/>
<text text-anchor="middle" x="1526" y="-26.5" font-family="Helvetica,sans-Serif" font-size="10.00">ft_cy_normal</text>
</a>
</g>
</g>
<!-- Node2&#45;&gt;Node19 -->
<g id="edge20" class="edge">
<title>Node2&#45;&gt;Node19</title>
<path fill="none" stroke="midnightblue" d="M1625.94,-72.38C1602.16,-61.95 1569.95,-47.83 1548.83,-38.57"/>
<polygon fill="midnightblue" stroke="midnightblue" points="1624.68,-75.65 1635.24,-76.46 1627.49,-69.24 1624.68,-75.65"/>
</g>
<!-- Node21 -->
<g id="node21" class="node">
<title>Node21</title>
<g id="a_node21"><a xlink:href="hit__manager__bonus_8h.html#a87d41de805dc36f90fb5002fa2d34da0" target="_top" xlink:title="Transforms the Cartesian coordinates of a hit point on a plane into 2D texture UV&#45;coordinates in the ...">
<polygon fill="none" stroke="black" points="1472,-76.5 1472,-95.5 1580,-95.5 1580,-76.5 1472,-76.5"/>
<text text-anchor="middle" x="1526" y="-83.5" font-family="Helvetica,sans-Serif" font-size="10.00">ft_get_pl_uvcoords</text>
</a>
</g>
</g>
<!-- Node2&#45;&gt;Node21 -->
<g id="edge22" class="edge">
<title>Node2&#45;&gt;Node21</title>
<path fill="none" stroke="midnightblue" d="M1605.82,-86C1597.42,-86 1588.7,-86 1580.25,-86"/>
<polygon fill="midnightblue" stroke="midnightblue" points="1605.87,-89.5 1615.87,-86 1605.87,-82.5 1605.87,-89.5"/>
</g>
<!-- Node4 -->
<g id="node4" class="node">
<title>Node4</title>
<g id="a_node4"><a xlink:href="hit__manager__bonus_8h.html#a69c648bba2a12763904900ce56cadb8a" target="_top" xlink:title="Overwrites the hit record &quot;rec&quot; with the new hit data found in the &quot;tmp&quot; hit record.">
<polygon fill="none" stroke="black" points="1327,-114.5 1327,-133.5 1436,-133.5 1436,-114.5 1327,-114.5"/>
<text text-anchor="middle" x="1381.5" y="-121.5" font-family="Helvetica,sans-Serif" font-size="10.00">ft_co_set_hitrecord</text>
</a>
</g>
</g>
<!-- Node3&#45;&gt;Node4 -->
<g id="edge3" class="edge">
<title>Node3&#45;&gt;Node4</title>
<path fill="none" stroke="midnightblue" d="M1475.31,-124C1462.63,-124 1448.95,-124 1436.09,-124"/>
<polygon fill="midnightblue" stroke="midnightblue" points="1475.68,-127.5 1485.68,-124 1475.68,-120.5 1475.68,-127.5"/>
</g>
<!-- Node5 -->
<g id="node5" class="node">
<title>Node5</title>
<g id="a_node5"><a xlink:href="hit__manager__bonus_8h.html#aebab6e1f11fc5b2e6c420276c9beee96" target="_top" xlink:title="Calculates if a cone was hit by a ray.">
<polygon fill="none" stroke="black" points="931,-76.5 931,-95.5 1001,-95.5 1001,-76.5 931,-76.5"/>
<text text-anchor="middle" x="966" y="-83.5" font-family="Helvetica,sans-Serif" font-size="10.00">ft_hit_cone</text>
</a>
</g>
</g>
<!-- Node4&#45;&gt;Node5 -->
<g id="edge4" class="edge">
<title>Node4&#45;&gt;Node5</title>
<path fill="none" stroke="midnightblue" d="M1334.4,-135.71C1320.54,-138.71 1305.24,-141.51 1291,-143 1242.82,-148.06 1230.05,-149.19 1182,-143 1115.93,-134.49 1101.37,-122.17 1037,-105 1025.32,-101.88 1012.56,-98.43 1001.16,-95.34"/>
<polygon fill="midnightblue" stroke="midnightblue" points="1335.21,-139.12 1344.2,-133.51 1333.67,-132.29 1335.21,-139.12"/>
</g>
<!-- Node6 -->
<g id="node6" class="node">
<title>Node6</title>
<g id="a_node6"><a xlink:href="hit__bonus_8c.html#a9d5972226064b0a4d0e1359d9230abec" target="_top" xlink:title="Investigate a hittable and returns whether a hit occured or not.">
<polygon fill="none" stroke="black" points="811,-76.5 811,-95.5 895,-95.5 895,-76.5 811,-76.5"/>
<text text-anchor="middle" x="853" y="-83.5" font-family="Helvetica,sans-Serif" font-size="10.00">ft_hit_hittable</text>
</a>
</g>
</g>
<!-- Node5&#45;&gt;Node6 -->
<g id="edge5" class="edge">
<title>Node5&#45;&gt;Node6</title>
<path fill="none" stroke="midnightblue" d="M920.78,-86C912.38,-86 903.63,-86 895.32,-86"/>
<polygon fill="midnightblue" stroke="midnightblue" points="920.79,-89.5 930.79,-86 920.79,-82.5 920.79,-89.5"/>
</g>
<!-- Node7 -->
<g id="node7" class="node">
<title>Node7</title>
<g id="a_node7"><a xlink:href="lighting__bonus_8h.html#a7fe107fe556fd497ebfc4c4df70b83da" target="_top" xlink:title="Looks for the closest object hit by a ray.">
<polygon fill="none" stroke="black" points="659,-95.5 659,-114.5 761,-114.5 761,-95.5 659,-95.5"/>
<text text-anchor="middle" x="710" y="-102.5" font-family="Helvetica,sans-Serif" font-size="10.00">ft_get_closest_hit</text>
</a>
</g>
</g>
<!-- Node6&#45;&gt;Node7 -->
<g id="edge6" class="edge">
<title>Node6&#45;&gt;Node7</title>
<path fill="none" stroke="midnightblue" d="M800.74,-92.91C787.86,-94.64 774.05,-96.5 761.21,-98.23"/>
<polygon fill="midnightblue" stroke="midnightblue" points="801.39,-96.35 810.84,-91.55 800.46,-89.41 801.39,-96.35"/>
</g>
<!-- Node11 -->
<g id="node11" class="node">
<title>Node11</title>
<g id="a_node11"><a xlink:href="ray_8h.html#a2cffd188fb76990901db47a2c3ac638f" target="_top" xlink:title="Returns the colour of a ray.">
<polygon fill="none" stroke="black" points="670,-57.5 670,-76.5 750,-76.5 750,-57.5 670,-57.5"/>
<text text-anchor="middle" x="710" y="-64.5" font-family="Helvetica,sans-Serif" font-size="10.00">ft_ray_colour</text>
</a>
</g>
</g>
<!-- Node6&#45;&gt;Node11 -->
<g id="edge11" class="edge">
<title>Node6&#45;&gt;Node11</title>
<path fill="none" stroke="midnightblue" d="M800.67,-79.08C783.96,-76.83 765.69,-74.37 750.03,-72.26"/>
<polygon fill="midnightblue" stroke="midnightblue" points="800.46,-82.59 810.84,-80.45 801.39,-75.65 800.46,-82.59"/>
</g>
<!-- Node18 -->
<g id="node18" class="node">
<title>Node18</title>
<g id="a_node18"><a xlink:href="lighting_8h.html#a931177e8edb2dd5393cef7a468389a4d" target="_top" xlink:title="Determines whether the shadow ray emitted from the point of intersection is blocked on its way to the...">
<polygon fill="none" stroke="black" points="645,-19.5 645,-38.5 775,-38.5 775,-19.5 645,-19.5"/>
<text text-anchor="middle" x="710" y="-26.5" font-family="Helvetica,sans-Serif" font-size="10.00">ft_shadow_ray_blocked</text>
</a>
</g>
</g>
<!-- Node6&#45;&gt;Node18 -->
<g id="edge19" class="edge">
<title>Node6&#45;&gt;Node18</title>
<path fill="none" stroke="midnightblue" d="M821.43,-72.04C817.9,-70.37 814.36,-68.66 811,-67 794.79,-58.97 791.75,-54.83 775,-48 766.31,-44.46 756.71,-41.25 747.65,-38.53"/>
<polygon fill="midnightblue" stroke="midnightblue" points="820.08,-75.28 830.62,-76.35 823.05,-68.94 820.08,-75.28"/>
</g>
<!-- Node8 -->
<g id="node8" class="node">
<title>Node8</title>
<g id="a_node8"><a xlink:href="lighting__bonus_8h.html#a72c122146878dc126a6472d159526c14" target="_top" xlink:title="Create reflective lighting by recursion.">
<polygon fill="none" stroke="black" points="500,-95.5 500,-114.5 601,-114.5 601,-95.5 500,-95.5"/>
<text text-anchor="middle" x="550.5" y="-102.5" font-family="Helvetica,sans-Serif" font-size="10.00">ft_reflective_light</text>
</a>
</g>
</g>
<!-- Node7&#45;&gt;Node8 -->
<g id="edge7" class="edge">
<title>Node7&#45;&gt;Node8</title>
<path fill="none" stroke="midnightblue" d="M648.58,-105C632.86,-105 616.11,-105 601.02,-105"/>
<polygon fill="midnightblue" stroke="midnightblue" points="648.73,-108.5 658.73,-105 648.73,-101.5 648.73,-108.5"/>
</g>
<!-- Node9 -->
<g id="node9" class="node">
<title>Node9</title>
<g id="a_node9"><a xlink:href="lighting__bonus_8h.html#ac85883d276b27394b86511c7eaa4d4ae" target="_top" xlink:title="Computes the colour of light interacting with different material properties.">
<polygon fill="none" stroke="black" points="349,-95.5 349,-114.5 456,-114.5 456,-95.5 349,-95.5"/>
<text text-anchor="middle" x="402.5" y="-102.5" font-family="Helvetica,sans-Serif" font-size="10.00">ft_compute_colour</text>
</a>
</g>
</g>
<!-- Node8&#45;&gt;Node9 -->
<g id="edge8" class="edge">
<title>Node8&#45;&gt;Node9</title>
<path fill="none" stroke="midnightblue" d="M489.61,-98.35C478.5,-98.18 466.97,-98.23 456.1,-98.49"/>
<polygon fill="midnightblue" stroke="midnightblue" points="489.59,-101.85 499.66,-98.56 489.74,-94.85 489.59,-101.85"/>
</g>
<!-- Node9&#45;&gt;Node8 -->
<g id="edge10" class="edge">
<title>Node9&#45;&gt;Node8</title>
<path fill="none" stroke="midnightblue" d="M466.24,-111.69C477.41,-111.82 488.91,-111.74 499.66,-111.44"/>
<polygon fill="midnightblue" stroke="midnightblue" points="466.16,-108.19 456.1,-111.51 466.04,-115.19 466.16,-108.19"/>
</g>
<!-- Node10 -->
<g id="node10" class="node">
<title>Node10</title>
<g id="a_node10"><a xlink:href="lighting__bonus_8h.html#a7a7ed2ff6f725c296f088c0f2f0d0843" target="_top" xlink:title="Calculate the effect of different lighting on perception.">
<polygon fill="none" stroke="black" points="233,-95.5 233,-114.5 307,-114.5 307,-95.5 233,-95.5"/>
<text text-anchor="middle" x="270" y="-102.5" font-family="Helvetica,sans-Serif" font-size="10.00">ft_enlighten</text>
</a>
</g>
</g>
<!-- Node9&#45;&gt;Node10 -->
<g id="edge9" class="edge">
<title>Node9&#45;&gt;Node10</title>
<path fill="none" stroke="midnightblue" d="M338.52,-105C327.73,-105 316.86,-105 307.09,-105"/>
<polygon fill="midnightblue" stroke="midnightblue" points="338.8,-108.5 348.8,-105 338.8,-101.5 338.8,-108.5"/>
</g>
<!-- Node12 -->
<g id="node12" class="node">
<title>Node12</title>
<g id="a_node12"><a xlink:href="ray__bonus_8h.html#af9c073d2966aa21738e1d2083762055f" target="_top" xlink:title="Returns the colour of a pixel by means of anti&#45;aliasing.">
<polygon fill="none" stroke="black" points="492,-57.5 492,-76.5 609,-76.5 609,-57.5 492,-57.5"/>
<text text-anchor="middle" x="550.5" y="-64.5" font-family="Helvetica,sans-Serif" font-size="10.00">ft_anti_aliase_colour</text>
</a>
</g>
</g>
<!-- Node11&#45;&gt;Node12 -->
<g id="edge12" class="edge">
<title>Node11&#45;&gt;Node12</title>
<path fill="none" stroke="midnightblue" d="M659.45,-67C643.45,-67 625.58,-67 609.06,-67"/>
<polygon fill="midnightblue" stroke="midnightblue" points="659.66,-70.5 669.66,-67 659.66,-63.5 659.66,-70.5"/>
</g>
<!-- Node17 -->
<g id="node17" class="node">
<title>Node17</title>
<g id="a_node17"><a xlink:href="render_8h.html#a4f238596a8fca72f9af80be57cf06d34" target="_top" xlink:title="Renders the scene to the mlx img.">
<polygon fill="none" stroke="black" points="354.5,-19.5 354.5,-38.5 450.5,-38.5 450.5,-19.5 354.5,-19.5"/>
<text text-anchor="middle" x="402.5" y="-26.5" font-family="Helvetica,sans-Serif" font-size="10.00">ft_render_image</text>
</a>
</g>
</g>
<!-- Node11&#45;&gt;Node17 -->
<g id="edge17" class="edge">
<title>Node11&#45;&gt;Node17</title>
<path fill="none" stroke="midnightblue" d="M659.48,-56.62C643.43,-53.52 625.51,-50.33 609,-48 554.89,-40.38 492.33,-35.09 450.58,-32.07"/>
<polygon fill="midnightblue" stroke="midnightblue" points="659.24,-60.14 669.72,-58.64 660.59,-53.27 659.24,-60.14"/>
</g>
<!-- Node13 -->
<g id="node13" class="node">
<title>Node13</title>
<g id="a_node13"><a xlink:href="render__draw__bonus_8c.html#a4f238596a8fca72f9af80be57cf06d34" target="_top" xlink:title="Renders the scene to the mlx img.">
<polygon fill="none" stroke="black" points="354.5,-57.5 354.5,-76.5 450.5,-76.5 450.5,-57.5 354.5,-57.5"/>
<text text-anchor="middle" x="402.5" y="-64.5" font-family="Helvetica,sans-Serif" font-size="10.00">ft_render_image</text>
</a>
</g>
</g>
<!-- Node12&#45;&gt;Node13 -->
<g id="edge13" class="edge">
<title>Node12&#45;&gt;Node13</title>
<path fill="none" stroke="midnightblue" d="M481.53,-67C471.18,-67 460.7,-67 450.92,-67"/>
<polygon fill="midnightblue" stroke="midnightblue" points="481.8,-70.5 491.8,-67 481.8,-63.5 481.8,-70.5"/>
</g>
<!-- Node14 -->
<g id="node14" class="node">
<title>Node14</title>
<g id="a_node14"><a xlink:href="render_8h.html#af908c05cb19e716220bc98fcf9582573" target="_top" xlink:title=" ">
<polygon fill="none" stroke="black" points="227,-38.5 227,-57.5 313,-57.5 313,-38.5 227,-38.5"/>
<text text-anchor="middle" x="270" y="-45.5" font-family="Helvetica,sans-Serif" font-size="10.00">ft_draw_scene</text>
</a>
</g>
</g>
<!-- Node13&#45;&gt;Node14 -->
<g id="edge14" class="edge">
<title>Node13&#45;&gt;Node14</title>
<path fill="none" stroke="midnightblue" d="M344.47,-58.7C333.99,-57.17 323.23,-55.6 313.28,-54.16"/>
<polygon fill="midnightblue" stroke="midnightblue" points="343.99,-62.16 354.39,-60.14 345,-55.24 343.99,-62.16"/>
</g>
<!-- Node15 -->
<g id="node15" class="node">
<title>Node15</title>
<g id="a_node15"><a xlink:href="render_8h.html#ab7a01aa5d27d2fad2942a43a31ae0d52" target="_top" xlink:title="Starts the mlx loop.">
<polygon fill="none" stroke="black" points="77,-38.5 77,-57.5 191,-57.5 191,-38.5 77,-38.5"/>
<text text-anchor="middle" x="134" y="-45.5" font-family="Helvetica,sans-Serif" font-size="10.00">ft_render_start_loop</text>
</a>
</g>
</g>
<!-- Node14&#45;&gt;Node15 -->
<g id="edge15" class="edge">
<title>Node14&#45;&gt;Node15</title>
<path fill="none" stroke="midnightblue" d="M216.88,-48C208.44,-48 199.66,-48 191.13,-48"/>
<polygon fill="midnightblue" stroke="midnightblue" points="216.97,-51.5 226.97,-48 216.97,-44.5 216.97,-51.5"/>
</g>
<!-- Node16 -->
<g id="node16" class="node">
<title>Node16</title>
<g id="a_node16"><a xlink:href="main_8c.html#a3c04138a5bfe5d72780bb7e82a18e627" target="_top" xlink:title=" ">
<polygon fill="none" stroke="black" points="0,-38.5 0,-57.5 41,-57.5 41,-38.5 0,-38.5"/>
<text text-anchor="middle" x="20.5" y="-45.5" font-family="Helvetica,sans-Serif" font-size="10.00">main</text>
</a>
</g>
</g>
<!-- Node15&#45;&gt;Node16 -->
<g id="edge16" class="edge">
<title>Node15&#45;&gt;Node16</title>
<path fill="none" stroke="midnightblue" d="M66.7,-48C57.37,-48 48.45,-48 41.04,-48"/>
<polygon fill="midnightblue" stroke="midnightblue" points="66.92,-51.5 76.92,-48 66.92,-44.5 66.92,-51.5"/>
</g>
<!-- Node17&#45;&gt;Node14 -->
<g id="edge18" class="edge">
<title>Node17&#45;&gt;Node14</title>
<path fill="none" stroke="midnightblue" d="M344.47,-37.3C333.99,-38.83 323.23,-40.4 313.28,-41.84"/>
<polygon fill="midnightblue" stroke="midnightblue" points="345,-40.76 354.39,-35.86 343.99,-33.84 345,-40.76"/>
</g>
<!-- Node20 -->
<g id="node20" class="node">
<title>Node20</title>
<g id="a_node20"><a xlink:href="hit__manager_8h.html#a72c52cc4f5c57fc6171137d9eb6c3500" target="_top" xlink:title="Overwrites the hit record &quot;rec&quot; with the new hit data found in the &quot;tmp&quot; hit record.">
<polygon fill="none" stroke="black" points="1327,-0.5 1327,-19.5 1436,-19.5 1436,-0.5 1327,-0.5"/>
<text text-anchor="middle" x="1381.5" y="-7.5" font-family="Helvetica,sans-Serif" font-size="10.00">ft_cy_set_hitrecord</text>
</a>
</g>
</g>
<!-- Node19&#45;&gt;Node20 -->
<g id="edge21" class="edge">
<title>Node19&#45;&gt;Node20</title>
<path fill="none" stroke="midnightblue" d="M1475.69,-22.43C1462.91,-20.72 1449.08,-18.88 1436.09,-17.15"/>
<polygon fill="midnightblue" stroke="midnightblue" points="1475.31,-25.91 1485.68,-23.76 1476.23,-18.97 1475.31,-25.91"/>
</g>
<!-- Node21&#45;&gt;Node4 -->
<g id="edge23" class="edge">
<title>Node21&#45;&gt;Node4</title>
<path fill="none" stroke="midnightblue" d="M1479.35,-98.17C1459.64,-103.43 1436.93,-109.49 1418.45,-114.41"/>
<polygon fill="midnightblue" stroke="midnightblue" points="1480.28,-101.55 1489.04,-95.59 1478.48,-94.78 1480.28,-101.55"/>
</g>
<!-- Node22 -->
<g id="node22" class="node">
<title>Node22</title>
<g id="a_node22"><a xlink:href="hit__cylinder__bonus_8c.html#a72c52cc4f5c57fc6171137d9eb6c3500" target="_top" xlink:title="Overwrites the hit record &quot;rec&quot; with the new hit data found in the &quot;tmp&quot; hit record.">
<polygon fill="none" stroke="black" points="1182,-0.5 1182,-19.5 1291,-19.5 1291,-0.5 1182,-0.5"/>
<text text-anchor="middle" x="1236.5" y="-7.5" font-family="Helvetica,sans-Serif" font-size="10.00">ft_cy_set_hitrecord</text>
</a>
</g>
</g>
<!-- Node21&#45;&gt;Node22 -->
<g id="edge24" class="edge">
<title>Node21&#45;&gt;Node22</title>
<path fill="none" stroke="midnightblue" d="M1479.04,-73.85C1421.98,-58.77 1325.81,-33.35 1273.7,-19.57"/>
<polygon fill="midnightblue" stroke="midnightblue" points="1478.32,-77.28 1488.88,-76.45 1480.11,-70.51 1478.32,-77.28"/>
</g>
<!-- Node25 -->
<g id="node25" class="node">
<title>Node25</title>
<g id="a_node25"><a xlink:href="hit__plane__bonus_8c.html#a04f04eb6383f01a28b0c7201ab52782e" target="_top" xlink:title="Calculates if a plane was hit by a ray.">
<polygon fill="none" stroke="black" points="1344.5,-76.5 1344.5,-95.5 1418.5,-95.5 1418.5,-76.5 1344.5,-76.5"/>
<text text-anchor="middle" x="1381.5" y="-83.5" font-family="Helvetica,sans-Serif" font-size="10.00">ft_hit_plane</text>
</a>
</g>
</g>
<!-- Node21&#45;&gt;Node25 -->
<g id="edge30" class="edge">
<title>Node21&#45;&gt;Node25</title>
<path fill="none" stroke="midnightblue" d="M1461.83,-86C1447.07,-86 1431.85,-86 1418.74,-86"/>
<polygon fill="midnightblue" stroke="midnightblue" points="1461.94,-89.5 1471.94,-86 1461.94,-82.5 1461.94,-89.5"/>
</g>
<!-- Node23 -->
<g id="node23" class="node">
<title>Node23</title>
<g id="a_node23"><a xlink:href="hit__cylinder__bonus_8c.html#ad1c0dcb3141fe78ed26368ca7bb8d2b8" target="_top" xlink:title="Calculates if a cylinder was hit by a ray.">
<polygon fill="none" stroke="black" points="1048.5,-0.5 1048.5,-19.5 1134.5,-19.5 1134.5,-0.5 1048.5,-0.5"/>
<text text-anchor="middle" x="1091.5" y="-7.5" font-family="Helvetica,sans-Serif" font-size="10.00">ft_hit_cylinder</text>
</a>
</g>
</g>
<!-- Node22&#45;&gt;Node23 -->
<g id="edge25" class="edge">
<title>Node22&#45;&gt;Node23</title>
<path fill="none" stroke="midnightblue" d="M1171.51,-10C1159.09,-10 1146.35,-10 1134.84,-10"/>
<polygon fill="midnightblue" stroke="midnightblue" points="1171.85,-13.5 1181.85,-10 1171.85,-6.5 1171.85,-13.5"/>
</g>
<!-- Node24 -->
<g id="node24" class="node">
<title>Node24</title>
<g id="a_node24"><a xlink:href="hit__manager_8h.html#a9d5972226064b0a4d0e1359d9230abec" target="_top" xlink:title="Investigate a hittable and returns whether a hit occured or not.">
<polygon fill="none" stroke="black" points="811,-38.5 811,-57.5 895,-57.5 895,-38.5 811,-38.5"/>
<text text-anchor="middle" x="853" y="-45.5" font-family="Helvetica,sans-Serif" font-size="10.00">ft_hit_hittable</text>
</a>
</g>
</g>
<!-- Node23&#45;&gt;Node24 -->
<g id="edge26" class="edge">
<title>Node23&#45;&gt;Node24</title>
<path fill="none" stroke="midnightblue" d="M1038.27,-17.45C1007.09,-22 966.74,-28.06 931,-34 919.34,-35.94 906.71,-38.17 895.12,-40.28"/>
<polygon fill="midnightblue" stroke="midnightblue" points="1039.07,-20.87 1048.47,-15.97 1038.07,-13.94 1039.07,-20.87"/>
</g>
<!-- Node24&#45;&gt;Node7 -->
<g id="edge27" class="edge">
<title>Node24&#45;&gt;Node7</title>
<path fill="none" stroke="midnightblue" d="M821.43,-61.96C817.9,-63.63 814.36,-65.34 811,-67 794.79,-75.03 791.75,-79.17 775,-86 766.31,-89.54 756.71,-92.75 747.65,-95.47"/>
<polygon fill="midnightblue" stroke="midnightblue" points="823.05,-65.06 830.62,-57.65 820.08,-58.72 823.05,-65.06"/>
</g>
<!-- Node24&#45;&gt;Node11 -->
<g id="edge28" class="edge">
<title>Node24&#45;&gt;Node11</title>
<path fill="none" stroke="midnightblue" d="M800.67,-54.92C783.96,-57.17 765.69,-59.63 750.03,-61.74"/>
<polygon fill="midnightblue" stroke="midnightblue" points="801.39,-58.35 810.84,-53.55 800.46,-51.41 801.39,-58.35"/>
</g>
<!-- Node24&#45;&gt;Node18 -->
<g id="edge29" class="edge">
<title>Node24&#45;&gt;Node18</title>
<path fill="none" stroke="midnightblue" d="M800.84,-41.11C792.46,-39.98 783.68,-38.79 775.03,-37.63"/>
<polygon fill="midnightblue" stroke="midnightblue" points="800.46,-44.59 810.84,-42.45 801.39,-37.65 800.46,-44.59"/>
</g>
<!-- Node25&#45;&gt;Node24 -->
<g id="edge35" class="edge">
<title>Node25&#45;&gt;Node24</title>
<path fill="none" stroke="midnightblue" d="M1334.35,-74.68C1320.5,-71.69 1305.2,-68.8 1291,-67 1146.36,-48.63 972.87,-47.13 895.16,-47.52"/>
<polygon fill="midnightblue" stroke="midnightblue" points="1333.63,-78.1 1344.16,-76.86 1335.15,-71.27 1333.63,-78.1"/>
</g>
<!-- Node26 -->
<g id="node26" class="node">
<title>Node26</title>
<g id="a_node26"><a xlink:href="hit__manager__bonus_8h.html#aee5824df7f0e0c2698306f49f9a1c790" target="_top" xlink:title="Calculates potential hit of cone cap.">
<polygon fill="none" stroke="black" points="1196.5,-76.5 1196.5,-95.5 1276.5,-95.5 1276.5,-76.5 1196.5,-76.5"/>
<text text-anchor="middle" x="1236.5" y="-83.5" font-family="Helvetica,sans-Serif" font-size="10.00">ft_co_cap_hit</text>
</a>
</g>
</g>
<!-- Node25&#45;&gt;Node26 -->
<g id="edge31" class="edge">
<title>Node25&#45;&gt;Node26</title>
<path fill="none" stroke="midnightblue" d="M1334.37,-86C1315.73,-86 1294.45,-86 1276.59,-86"/>
<polygon fill="midnightblue" stroke="midnightblue" points="1334.42,-89.5 1344.42,-86 1334.42,-82.5 1334.42,-89.5"/>
</g>
<!-- Node28 -->
<g id="node28" class="node">
<title>Node28</title>
<g id="a_node28"><a xlink:href="hit__manager_8h.html#af2540784b9e01fbdfeacb544ea2c169a" target="_top" xlink:title="Calculates the hit point of the ray with the cylinder cap.">
<polygon fill="none" stroke="black" points="1196.5,-114.5 1196.5,-133.5 1276.5,-133.5 1276.5,-114.5 1196.5,-114.5"/>
<text text-anchor="middle" x="1236.5" y="-121.5" font-family="Helvetica,sans-Serif" font-size="10.00">ft_cy_cap_hit</text>
</a>
</g>
</g>
<!-- Node25&#45;&gt;Node28 -->
<g id="edge34" class="edge">
<title>Node25&#45;&gt;Node28</title>
<path fill="none" stroke="midnightblue" d="M1334.69,-98.17C1314.91,-103.43 1292.12,-109.49 1273.57,-114.41"/>
<polygon fill="midnightblue" stroke="midnightblue" points="1335.65,-101.54 1344.42,-95.59 1333.85,-94.77 1335.65,-101.54"/>
</g>
<!-- Node27 -->
<g id="node27" class="node">
<title>Node27</title>
<g id="a_node27"><a xlink:href="hit__manager__bonus_8h.html#a9752309af1756a6360c6459ed6747f83" target="_top" xlink:title="Calculates potential hits of a cone.">
<polygon fill="none" stroke="black" points="1037,-76.5 1037,-95.5 1146,-95.5 1146,-76.5 1037,-76.5"/>
<text text-anchor="middle" x="1091.5" y="-83.5" font-family="Helvetica,sans-Serif" font-size="10.00">ft_co_calc_pot_hits</text>
</a>
</g>
</g>
<!-- Node26&#45;&gt;Node27 -->
<g id="edge32" class="edge">
<title>Node26&#45;&gt;Node27</title>
<path fill="none" stroke="midnightblue" d="M1186.28,-86C1173.29,-86 1159.21,-86 1146,-86"/>
<polygon fill="midnightblue" stroke="midnightblue" points="1186.42,-89.5 1196.42,-86 1186.42,-82.5 1186.42,-89.5"/>
</g>
<!-- Node27&#45;&gt;Node5 -->
<g id="edge33" class="edge">
<title>Node27&#45;&gt;Node5</title>
<path fill="none" stroke="midnightblue" d="M1026.43,-86C1017.68,-86 1009,-86 1001.08,-86"/>
<polygon fill="midnightblue" stroke="midnightblue" points="1026.69,-89.5 1036.69,-86 1026.69,-82.5 1026.69,-89.5"/>
</g>
</g>
</svg>
        <g id="navigator" transform="translate(0 0)" fill="#404254">
                <rect fill="#f2f5e9" fill-opacity="0.5" stroke="#606060" stroke-width=".5" x="0" y="0" width="60" height="60"/>
                <use id="zoomplus" xlink:href="#zoomPlus" x="17" y="9" onmousedown="handleZoom(evt,'in')"/>
                <use id="zoomminus" xlink:href="#zoomMin" x="42" y="9" onmousedown="handleZoom(evt,'out')"/>
                <use id="reset" xlink:href="#resetDef" x="30" y="36" onmousedown="handleReset()"/>
                <g id="arrowUp" xlink:href="#dirArrow" transform="translate(30 24)" onmousedown="handlePan(0,-1)">
                  <use xlink:href="#rim" fill="#404040">
                        <set attributeName="fill" to="#808080" begin="arrowUp.mouseover" end="arrowUp.mouseout"/>
                  </use>
                  <path fill="none" stroke="white" stroke-width="1.5" d="M0,-3.0v7 M-2.5,-0.5L0,-3.0L2.5,-0.5"/>
                </g>
                <g id="arrowRight" xlink:href="#dirArrow" transform="rotate(90) translate(36 -43)" onmousedown="handlePan(1,0)">
                  <use xlink:href="#rim" fill="#404040">
                        <set attributeName="fill" to="#808080" begin="arrowRight.mouseover" end="arrowRight.mouseout"/>
                  </use>
                  <path fill="none" stroke="white" stroke-width="1.5" d="M0,-3.0v7 M-2.5,-0.5L0,-3.0L2.5,-0.5"/>
                </g>
                <g id="arrowDown" xlink:href="#dirArrow" transform="rotate(180) translate(-30 -48)" onmousedown="handlePan(0,1)">
                  <use xlink:href="#rim" fill="#404040">
                        <set attributeName="fill" to="#808080" begin="arrowDown.mouseover" end="arrowDown.mouseout"/>
                  </use>
                  <path fill="none" stroke="white" stroke-width="1.5" d="M0,-3.0v7 M-2.5,-0.5L0,-3.0L2.5,-0.5"/>
                </g>
                <g id="arrowLeft" xlink:href="#dirArrow" transform="rotate(270) translate(-36 17)" onmousedown="handlePan(-1,0)">
                  <use xlink:href="#rim" fill="#404040">
                        <set attributeName="fill" to="#808080" begin="arrowLeft.mouseover" end="arrowLeft.mouseout"/>
                  </use>
                  <path fill="none" stroke="white" stroke-width="1.5" d="M0,-3.0v7 M-2.5,-0.5L0,-3.0L2.5,-0.5"/>
                </g>
        </g>
        <svg viewBox="0 0 15 15" width="100%" height="30px" preserveAspectRatio="xMaxYMin meet">
         <g id="arrow_out" transform="scale(0.3 0.3)">
          <a xlink:href="utils_8h_a518be72ffbfd90cedf995e72dde0aff6_icgraph_org.svg" target="_base">
           <rect id="button" ry="5" rx="5" y="6" x="6" height="38" width="38"
                fill="#f2f5e9" fill-opacity="0.5" stroke="#606060" stroke-width="1.0"/>
           <path id="arrow"
             d="M 11.500037,31.436501 C 11.940474,20.09759 22.043105,11.32322 32.158766,21.979434 L 37.068811,17.246167 C 37.068811,17.246167 37.088388,32 37.088388,32 L 22.160133,31.978069 C 22.160133,31.978069 26.997745,27.140456 26.997745,27.140456 C 18.528582,18.264221 13.291696,25.230495 11.500037,31.436501 z"
             style="fill:#404040;"/>
          </a>
         </g>
        </svg>
</svg>
