<?xml version="1.0" encoding="UTF-8" standalone="no"?>
<!DOCTYPE svg PUBLIC "-//W3C//DTD SVG 1.1//EN"
 "http://www.w3.org/Graphics/SVG/1.1/DTD/svg11.dtd">
<!-- Generated by graphviz version 2.43.0 (0)
 -->
<!-- Title: ft_quaternion_mult Pages: 1 -->
<svg width="2417pt" height="162pt"
 viewBox="0.00 0.00 2417.00 162.00" xmlns="http://www.w3.org/2000/svg" xmlns:xlink="http://www.w3.org/1999/xlink">
<g id="graph0" class="graph" transform="scale(1 1) rotate(0) translate(4 158)">
<title>ft_quaternion_mult</title>
<!-- Node1 -->
<g id="node1" class="node">
<title>Node1</title>
<g id="a_node1"><a xlink:title="Performs quaternion multiplication.">
<polygon fill="#bfbfbf" stroke="black" points="2300,-47.5 2300,-66.5 2409,-66.5 2409,-47.5 2300,-47.5"/>
<text text-anchor="middle" x="2354.5" y="-54.5" font-family="Helvetica,sans-Serif" font-size="10.00">ft_quaternion_mult</text>
</a>
</g>
</g>
<!-- Node2 -->
<g id="node2" class="node">
<title>Node2</title>
<g id="a_node2"><a xlink:href="utils__bonus_8h.html#a4b67c731c02a7ba35f27473295bfb753" target="_top" xlink:title="Performs a rotation of a given vector around an axis by a given angle.">
<polygon fill="none" stroke="black" points="2164,-47.5 2164,-66.5 2264,-66.5 2264,-47.5 2164,-47.5"/>
<text text-anchor="middle" x="2214" y="-54.5" font-family="Helvetica,sans-Serif" font-size="10.00">ft_quaternion_rot</text>
</a>
</g>
</g>
<!-- Node1&#45;&gt;Node2 -->
<g id="edge1" class="edge">
<title>Node1&#45;&gt;Node2</title>
<path fill="none" stroke="midnightblue" d="M2289.94,-57C2281.34,-57 2272.63,-57 2264.33,-57"/>
<polygon fill="midnightblue" stroke="midnightblue" points="2289.95,-60.5 2299.95,-57 2289.95,-53.5 2289.95,-60.5"/>
</g>
<!-- Node3 -->
<g id="node3" class="node">
<title>Node3</title>
<g id="a_node3"><a xlink:href="hit__manager__bonus_8h.html#abc28bafc00495161db9de547a9461cb1" target="_top" xlink:title="Transforms the Cartesian coordinates of a hit point on a cone wall into 2D texture UV&#45;coordinates in ...">
<polygon fill="none" stroke="black" points="2018,-66.5 2018,-85.5 2128,-85.5 2128,-66.5 2018,-66.5"/>
<text text-anchor="middle" x="2073" y="-73.5" font-family="Helvetica,sans-Serif" font-size="10.00">ft_get_co_uvcoords</text>
</a>
</g>
</g>
<!-- Node2&#45;&gt;Node3 -->
<g id="edge2" class="edge">
<title>Node2&#45;&gt;Node3</title>
<path fill="none" stroke="midnightblue" d="M2154.07,-65.06C2145.5,-66.23 2136.71,-67.43 2128.24,-68.59"/>
<polygon fill="midnightblue" stroke="midnightblue" points="2154.56,-68.52 2163.99,-63.7 2153.61,-61.59 2154.56,-68.52"/>
</g>
<!-- Node24 -->
<g id="node24" class="node">
<title>Node24</title>
<g id="a_node24"><a xlink:href="hit__manager__bonus_8h.html#aeb33f439a0d2093bdbcca7468e2e78b4" target="_top" xlink:title="Transforms the Cartesian coordinates of a hit point on a cylinder wall into 2D texture UV&#45;coordinates...">
<polygon fill="none" stroke="black" points="2018,-28.5 2018,-47.5 2128,-47.5 2128,-28.5 2018,-28.5"/>
<text text-anchor="middle" x="2073" y="-35.5" font-family="Helvetica,sans-Serif" font-size="10.00">ft_get_cy_uvcoords</text>
</a>
</g>
</g>
<!-- Node2&#45;&gt;Node24 -->
<g id="edge26" class="edge">
<title>Node2&#45;&gt;Node24</title>
<path fill="none" stroke="midnightblue" d="M2154.07,-48.94C2145.5,-47.77 2136.71,-46.57 2128.24,-45.41"/>
<polygon fill="midnightblue" stroke="midnightblue" points="2153.61,-52.41 2163.99,-50.3 2154.56,-45.48 2153.61,-52.41"/>
</g>
<!-- Node4 -->
<g id="node4" class="node">
<title>Node4</title>
<g id="a_node4"><a xlink:href="hit__manager__bonus_8h.html#a69c648bba2a12763904900ce56cadb8a" target="_top" xlink:title="Overwrites the hit record &quot;rec&quot; with the new hit data found in the &quot;tmp&quot; hit record.">
<polygon fill="none" stroke="black" points="1873,-66.5 1873,-85.5 1982,-85.5 1982,-66.5 1873,-66.5"/>
<text text-anchor="middle" x="1927.5" y="-73.5" font-family="Helvetica,sans-Serif" font-size="10.00">ft_co_set_hitrecord</text>
</a>
</g>
</g>
<!-- Node3&#45;&gt;Node4 -->
<g id="edge3" class="edge">
<title>Node3&#45;&gt;Node4</title>
<path fill="none" stroke="midnightblue" d="M2007.57,-76C1999.14,-76 1990.58,-76 1982.35,-76"/>
<polygon fill="midnightblue" stroke="midnightblue" points="2007.75,-79.5 2017.75,-76 2007.75,-72.5 2007.75,-79.5"/>
</g>
<!-- Node5 -->
<g id="node5" class="node">
<title>Node5</title>
<g id="a_node5"><a xlink:href="hit__manager__bonus_8h.html#aebab6e1f11fc5b2e6c420276c9beee96" target="_top" xlink:title="Calculates if a cone was hit by a ray.">
<polygon fill="none" stroke="black" points="1759,-66.5 1759,-85.5 1829,-85.5 1829,-66.5 1759,-66.5"/>
<text text-anchor="middle" x="1794" y="-73.5" font-family="Helvetica,sans-Serif" font-size="10.00">ft_hit_cone</text>
</a>
</g>
</g>
<!-- Node4&#45;&gt;Node5 -->
<g id="edge4" class="edge">
<title>Node4&#45;&gt;Node5</title>
<path fill="none" stroke="midnightblue" d="M1862.52,-76C1850.94,-76 1839.29,-76 1829,-76"/>
<polygon fill="midnightblue" stroke="midnightblue" points="1862.63,-79.5 1872.63,-76 1862.63,-72.5 1862.63,-79.5"/>
</g>
<!-- Node6 -->
<g id="node6" class="node">
<title>Node6</title>
<g id="a_node6"><a xlink:href="hit__bonus_8c.html#a9d5972226064b0a4d0e1359d9230abec" target="_top" xlink:title="Investigate a hittable and returns whether a hit occured or not.">
<polygon fill="none" stroke="black" points="1631,-66.5 1631,-85.5 1715,-85.5 1715,-66.5 1631,-66.5"/>
<text text-anchor="middle" x="1673" y="-73.5" font-family="Helvetica,sans-Serif" font-size="10.00">ft_hit_hittable</text>
</a>
</g>
</g>
<!-- Node5&#45;&gt;Node6 -->
<g id="edge5" class="edge">
<title>Node5&#45;&gt;Node6</title>
<path fill="none" stroke="midnightblue" d="M1748.69,-76C1737.75,-76 1726.07,-76 1715.29,-76"/>
<polygon fill="midnightblue" stroke="midnightblue" points="1748.9,-79.5 1758.9,-76 1748.9,-72.5 1748.9,-79.5"/>
</g>
<!-- Node7 -->
<g id="node7" class="node">
<title>Node7</title>
<g id="a_node7"><a xlink:href="lighting__bonus_8h.html#a7fe107fe556fd497ebfc4c4df70b83da" target="_top" xlink:title="Looks for the closest object hit by a ray.">
<polygon fill="none" stroke="black" points="1479,-66.5 1479,-85.5 1581,-85.5 1581,-66.5 1479,-66.5"/>
<text text-anchor="middle" x="1530" y="-73.5" font-family="Helvetica,sans-Serif" font-size="10.00">ft_get_closest_hit</text>
</a>
</g>
</g>
<!-- Node6&#45;&gt;Node7 -->
<g id="edge6" class="edge">
<title>Node6&#45;&gt;Node7</title>
<path fill="none" stroke="midnightblue" d="M1620.74,-76C1607.86,-76 1594.05,-76 1581.21,-76"/>
<polygon fill="midnightblue" stroke="midnightblue" points="1620.84,-79.5 1630.84,-76 1620.84,-72.5 1620.84,-79.5"/>
</g>
<!-- Node11 -->
<g id="node11" class="node">
<title>Node11</title>
<g id="a_node11"><a xlink:href="ray_8h.html#a2cffd188fb76990901db47a2c3ac638f" target="_top" xlink:title="Returns the colour of a ray.">
<polygon fill="none" stroke="black" points="959,-66.5 959,-85.5 1039,-85.5 1039,-66.5 959,-66.5"/>
<text text-anchor="middle" x="999" y="-73.5" font-family="Helvetica,sans-Serif" font-size="10.00">ft_ray_colour</text>
</a>
</g>
</g>
<!-- Node6&#45;&gt;Node11 -->
<g id="edge24" class="edge">
<title>Node6&#45;&gt;Node11</title>
<path fill="none" stroke="midnightblue" d="M1628.09,-88.07C1617.34,-90.69 1605.81,-93.2 1595,-95 1500.16,-110.79 1475.65,-114 1379.5,-114 1379.5,-114 1379.5,-114 1237.5,-114 1164.79,-114 1146.51,-108.18 1075,-95 1061.39,-92.49 1046.6,-88.93 1033.77,-85.56"/>
<polygon fill="midnightblue" stroke="midnightblue" points="1629.27,-91.38 1638.12,-85.56 1627.57,-84.59 1629.27,-91.38"/>
</g>
<!-- Node23 -->
<g id="node23" class="node">
<title>Node23</title>
<g id="a_node23"><a xlink:href="lighting_8h.html#a931177e8edb2dd5393cef7a468389a4d" target="_top" xlink:title="Determines whether the shadow ray emitted from the point of intersection is blocked on its way to the...">
<polygon fill="none" stroke="black" points="1465,-28.5 1465,-47.5 1595,-47.5 1595,-28.5 1465,-28.5"/>
<text text-anchor="middle" x="1530" y="-35.5" font-family="Helvetica,sans-Serif" font-size="10.00">ft_shadow_ray_blocked</text>
</a>
</g>
</g>
<!-- Node6&#45;&gt;Node23 -->
<g id="edge25" class="edge">
<title>Node6&#45;&gt;Node23</title>
<path fill="none" stroke="midnightblue" d="M1626.56,-63.75C1607.13,-58.52 1584.77,-52.49 1566.57,-47.59"/>
<polygon fill="midnightblue" stroke="midnightblue" points="1625.85,-67.19 1636.42,-66.41 1627.68,-60.43 1625.85,-67.19"/>
</g>
<!-- Node8 -->
<g id="node8" class="node">
<title>Node8</title>
<g id="a_node8"><a xlink:href="lighting__bonus_8h.html#ab380b8bbadc80a5a668141c8edcc4754" target="_top" xlink:title="Create reflective lighting by recursion.">
<polygon fill="none" stroke="black" points="1328,-66.5 1328,-85.5 1429,-85.5 1429,-66.5 1328,-66.5"/>
<text text-anchor="middle" x="1378.5" y="-73.5" font-family="Helvetica,sans-Serif" font-size="10.00">ft_reflective_light</text>
</a>
</g>
</g>
<!-- Node7&#45;&gt;Node8 -->
<g id="edge7" class="edge">
<title>Node7&#45;&gt;Node8</title>
<path fill="none" stroke="midnightblue" d="M1468.46,-76C1455.37,-76 1441.67,-76 1429.06,-76"/>
<polygon fill="midnightblue" stroke="midnightblue" points="1468.8,-79.5 1478.8,-76 1468.8,-72.5 1468.8,-79.5"/>
</g>
<!-- Node9 -->
<g id="node9" class="node">
<title>Node9</title>
<g id="a_node9"><a xlink:href="lighting__bonus_8h.html#a31af89240f5ffa2f65f1525d06121d73" target="_top" xlink:title="Computes the colour of light interacting with different material properties.">
<polygon fill="none" stroke="black" points="1185,-66.5 1185,-85.5 1292,-85.5 1292,-66.5 1185,-66.5"/>
<text text-anchor="middle" x="1238.5" y="-73.5" font-family="Helvetica,sans-Serif" font-size="10.00">ft_compute_colour</text>
</a>
</g>
</g>
<!-- Node8&#45;&gt;Node9 -->
<g id="edge8" class="edge">
<title>Node8&#45;&gt;Node9</title>
<path fill="none" stroke="midnightblue" d="M1317.48,-69.3C1309.01,-69.2 1300.35,-69.25 1292.04,-69.42"/>
<polygon fill="midnightblue" stroke="midnightblue" points="1317.62,-72.8 1327.68,-69.49 1317.74,-65.81 1317.62,-72.8"/>
</g>
<!-- Node9&#45;&gt;Node8 -->
<g id="edge23" class="edge">
<title>Node9&#45;&gt;Node8</title>
<path fill="none" stroke="midnightblue" d="M1302.31,-82.73C1310.82,-82.79 1319.45,-82.72 1327.68,-82.51"/>
<polygon fill="midnightblue" stroke="midnightblue" points="1302.09,-79.22 1292.04,-82.58 1301.99,-86.22 1302.09,-79.22"/>
</g>
<!-- Node10 -->
<g id="node10" class="node">
<title>Node10</title>
<g id="a_node10"><a xlink:href="scene__light__bonus_8c.html#a3d54436a3f695a60b1c2d9e504a61de8" target="_top" xlink:title="Calculate the effect of different lighting on perception.">
<polygon fill="none" stroke="black" points="1075,-66.5 1075,-85.5 1149,-85.5 1149,-66.5 1075,-66.5"/>
<text text-anchor="middle" x="1112" y="-73.5" font-family="Helvetica,sans-Serif" font-size="10.00">ft_enlighten</text>
</a>
</g>
</g>
<!-- Node9&#45;&gt;Node10 -->
<g id="edge9" class="edge">
<title>Node9&#45;&gt;Node10</title>
<path fill="none" stroke="midnightblue" d="M1174.56,-76C1165.9,-76 1157.25,-76 1149.3,-76"/>
<polygon fill="midnightblue" stroke="midnightblue" points="1174.7,-79.5 1184.7,-76 1174.7,-72.5 1174.7,-79.5"/>
</g>
<!-- Node10&#45;&gt;Node11 -->
<g id="edge10" class="edge">
<title>Node10&#45;&gt;Node11</title>
<path fill="none" stroke="midnightblue" d="M1064.82,-76C1056.34,-76 1047.56,-76 1039.31,-76"/>
<polygon fill="midnightblue" stroke="midnightblue" points="1064.96,-79.5 1074.96,-76 1064.96,-72.5 1064.96,-79.5"/>
</g>
<!-- Node12 -->
<g id="node12" class="node">
<title>Node12</title>
<g id="a_node12"><a xlink:href="render__bonus_8h.html#af5fa16c9ea3d6e6884604009e31c83de" target="_top" xlink:title="Constructs a random sample ray for anti&#45;aliasing.">
<polygon fill="none" stroke="black" points="829,-90.5 829,-109.5 923,-109.5 923,-90.5 829,-90.5"/>
<text text-anchor="middle" x="876" y="-97.5" font-family="Helvetica,sans-Serif" font-size="10.00">ft_shoot_aa_ray</text>
</a>
</g>
</g>
<!-- Node11&#45;&gt;Node12 -->
<g id="edge11" class="edge">
<title>Node11&#45;&gt;Node12</title>
<path fill="none" stroke="midnightblue" d="M948.66,-85.79C940.26,-87.45 931.57,-89.18 923.25,-90.83"/>
<polygon fill="midnightblue" stroke="midnightblue" points="949.59,-89.17 958.71,-83.79 948.22,-82.3 949.59,-89.17"/>
</g>
<!-- Node16 -->
<g id="node16" class="node">
<title>Node16</title>
<g id="a_node16"><a xlink:href="render_8h.html#a2c9085ad1ae8adcd3201a501a9a4dcde" target="_top" xlink:title="Constructs a ray and shoots it through the pixel.">
<polygon fill="none" stroke="black" points="837.5,-47.5 837.5,-66.5 914.5,-66.5 914.5,-47.5 837.5,-47.5"/>
<text text-anchor="middle" x="876" y="-54.5" font-family="Helvetica,sans-Serif" font-size="10.00">ft_shoot_ray</text>
</a>
</g>
</g>
<!-- Node11&#45;&gt;Node16 -->
<g id="edge16" class="edge">
<title>Node11&#45;&gt;Node16</title>
<path fill="none" stroke="midnightblue" d="M948.57,-68.24C937.32,-66.47 925.54,-64.62 914.85,-62.94"/>
<polygon fill="midnightblue" stroke="midnightblue" points="948.29,-71.74 958.71,-69.83 949.38,-64.82 948.29,-71.74"/>
</g>
<!-- Node13 -->
<g id="node13" class="node">
<title>Node13</title>
<g id="a_node13"><a xlink:href="render__bonus_8h.html#afef92ac33f530ff1e1ca1049ffa14d23" target="_top" xlink:title="Raytraces the scene and adds it to the sample buffer.">
<polygon fill="none" stroke="black" points="659,-134.5 659,-153.5 793,-153.5 793,-134.5 659,-134.5"/>
<text text-anchor="middle" x="726" y="-141.5" font-family="Helvetica,sans-Serif" font-size="10.00">ft_add_raytrace_sample</text>
</a>
</g>
</g>
<!-- Node12&#45;&gt;Node13 -->
<g id="edge12" class="edge">
<title>Node12&#45;&gt;Node13</title>
<path fill="none" stroke="midnightblue" d="M833.17,-112.43C809.66,-119.43 780.76,-128.02 759.05,-134.47"/>
<polygon fill="midnightblue" stroke="midnightblue" points="834.3,-115.75 842.89,-109.55 832.3,-109.04 834.3,-115.75"/>
</g>
<!-- Node15 -->
<g id="node15" class="node">
<title>Node15</title>
<g id="a_node15"><a xlink:href="render__bonus_8h.html#a6f833a234cbdbc69ce5458c79d1242a1" target="_top" xlink:title="Like ft_add_raytrace_sample(), but threaded.">
<polygon fill="none" stroke="black" points="659,-85 659,-115 793,-115 793,-85 659,-85"/>
<text text-anchor="start" x="667" y="-103" font-family="Helvetica,sans-Serif" font-size="10.00">ft_add_raytrace_sample</text>
<text text-anchor="middle" x="726" y="-92" font-family="Helvetica,sans-Serif" font-size="10.00">_threaded</text>
</a>
</g>
</g>
<!-- Node12&#45;&gt;Node15 -->
<g id="edge14" class="edge">
<title>Node12&#45;&gt;Node15</title>
<path fill="none" stroke="midnightblue" d="M818.9,-100C810.47,-100 801.71,-100 793.09,-100"/>
<polygon fill="midnightblue" stroke="midnightblue" points="818.98,-103.5 828.98,-100 818.98,-96.5 818.98,-103.5"/>
</g>
<!-- Node14 -->
<g id="node14" class="node">
<title>Node14</title>
<g id="a_node14"><a xlink:href="render__bonus_8h.html#a46e5a7c75a4d9fb06252d28cf8d18821" target="_top" xlink:title="Raytraces a sample of the scene and adds it to the sample buffer.">
<polygon fill="none" stroke="black" points="506,-112.5 506,-131.5 623,-131.5 623,-112.5 506,-112.5"/>
<text text-anchor="middle" x="564.5" y="-119.5" font-family="Helvetica,sans-Serif" font-size="10.00">ft_anti_alias_sample</text>
</a>
</g>
</g>
<!-- Node13&#45;&gt;Node14 -->
<g id="edge13" class="edge">
<title>Node13&#45;&gt;Node14</title>
<path fill="none" stroke="midnightblue" d="M648.7,-133.48C640.11,-132.29 631.47,-131.1 623.17,-129.95"/>
<polygon fill="midnightblue" stroke="midnightblue" points="648.36,-136.96 658.74,-134.86 649.32,-130.03 648.36,-136.96"/>
</g>
<!-- Node15&#45;&gt;Node14 -->
<g id="edge15" class="edge">
<title>Node15&#45;&gt;Node14</title>
<path fill="none" stroke="midnightblue" d="M648.7,-110.52C640.11,-111.71 631.47,-112.9 623.17,-114.05"/>
<polygon fill="midnightblue" stroke="midnightblue" points="649.32,-113.97 658.74,-109.14 648.36,-107.04 649.32,-113.97"/>
</g>
<!-- Node17 -->
<g id="node17" class="node">
<title>Node17</title>
<g id="a_node17"><a xlink:href="render__bonus_8h.html#a5d5ed6b28be3a532b4e17bd4a05df4d3" target="_top" xlink:title="Like ft_raytrace_sample(), but threaded.">
<polygon fill="none" stroke="black" points="671,-36 671,-66 781,-66 781,-36 671,-36"/>
<text text-anchor="start" x="679" y="-54" font-family="Helvetica,sans-Serif" font-size="10.00">ft_raytrace_sample</text>
<text text-anchor="middle" x="726" y="-43" font-family="Helvetica,sans-Serif" font-size="10.00">_threaded</text>
</a>
</g>
</g>
<!-- Node16&#45;&gt;Node17 -->
<g id="edge17" class="edge">
<title>Node16&#45;&gt;Node17</title>
<path fill="none" stroke="midnightblue" d="M826.93,-55.05C812.31,-54.46 796.13,-53.8 781.14,-53.19"/>
<polygon fill="midnightblue" stroke="midnightblue" points="827.14,-58.56 837.27,-55.47 827.42,-51.57 827.14,-58.56"/>
</g>
<!-- Node18 -->
<g id="node18" class="node">
<title>Node18</title>
<g id="a_node18"><a xlink:href="render__bonus_8h.html#a0ab696b1752ed3551f1cf8d8c2e7c5d8" target="_top" xlink:title="Raytraces a single sample of the scene to the sample buffer.">
<polygon fill="none" stroke="black" points="515,-41.5 515,-60.5 614,-60.5 614,-41.5 515,-41.5"/>
<text text-anchor="middle" x="564.5" y="-48.5" font-family="Helvetica,sans-Serif" font-size="10.00">ft_single_sample</text>
</a>
</g>
</g>
<!-- Node17&#45;&gt;Node18 -->
<g id="edge18" class="edge">
<title>Node17&#45;&gt;Node18</title>
<path fill="none" stroke="midnightblue" d="M660.51,-51C645.02,-51 628.72,-51 614.09,-51"/>
<polygon fill="midnightblue" stroke="midnightblue" points="660.56,-54.5 670.56,-51 660.56,-47.5 660.56,-54.5"/>
</g>
<!-- Node19 -->
<g id="node19" class="node">
<title>Node19</title>
<g id="a_node19"><a xlink:href="render__bonus_8h.html#a9c57490cfa20448a418091aa47a49245" target="_top" xlink:title="Raytraces a sample of the scene to the sample buffer.">
<polygon fill="none" stroke="black" points="369,-41.5 369,-60.5 470,-60.5 470,-41.5 369,-41.5"/>
<text text-anchor="middle" x="419.5" y="-48.5" font-family="Helvetica,sans-Serif" font-size="10.00">ft_render_sample</text>
</a>
</g>
</g>
<!-- Node18&#45;&gt;Node19 -->
<g id="edge19" class="edge">
<title>Node18&#45;&gt;Node19</title>
<path fill="none" stroke="midnightblue" d="M504.37,-51C492.96,-51 481.13,-51 470.06,-51"/>
<polygon fill="midnightblue" stroke="midnightblue" points="504.69,-54.5 514.69,-51 504.69,-47.5 504.69,-54.5"/>
</g>
<!-- Node20 -->
<g id="node20" class="node">
<title>Node20</title>
<g id="a_node20"><a xlink:href="render__loop__mlx__bonus_8c.html#a012503b6ad6ee8198a601dad994c09b7" target="_top" xlink:title="Main loop of the program.">
<polygon fill="none" stroke="black" points="227,-41.5 227,-60.5 333,-60.5 333,-41.5 227,-41.5"/>
<text text-anchor="middle" x="280" y="-48.5" font-family="Helvetica,sans-Serif" font-size="10.00">ft_programm_loop</text>
</a>
</g>
</g>
<!-- Node19&#45;&gt;Node20 -->
<g id="edge20" class="edge">
<title>Node19&#45;&gt;Node20</title>
<path fill="none" stroke="midnightblue" d="M358.69,-51C350.25,-51 341.63,-51 333.35,-51"/>
<polygon fill="midnightblue" stroke="midnightblue" points="358.86,-54.5 368.86,-51 358.86,-47.5 358.86,-54.5"/>
</g>
<!-- Node21 -->
<g id="node21" class="node">
<title>Node21</title>
<g id="a_node21"><a xlink:href="render__loop__mlx__bonus_8c.html#ab7a01aa5d27d2fad2942a43a31ae0d52" target="_top" xlink:title="Starts the mlx loop.">
<polygon fill="none" stroke="black" points="77,-41.5 77,-60.5 191,-60.5 191,-41.5 77,-41.5"/>
<text text-anchor="middle" x="134" y="-48.5" font-family="Helvetica,sans-Serif" font-size="10.00">ft_render_start_loop</text>
</a>
</g>
</g>
<!-- Node20&#45;&gt;Node21 -->
<g id="edge21" class="edge">
<title>Node20&#45;&gt;Node21</title>
<path fill="none" stroke="midnightblue" d="M216.56,-51C208.22,-51 199.71,-51 191.48,-51"/>
<polygon fill="midnightblue" stroke="midnightblue" points="216.61,-54.5 226.61,-51 216.61,-47.5 216.61,-54.5"/>
</g>
<!-- Node22 -->
<g id="node22" class="node">
<title>Node22</title>
<g id="a_node22"><a xlink:href="main_8c.html#a3c04138a5bfe5d72780bb7e82a18e627" target="_top" xlink:title=" ">
<polygon fill="none" stroke="black" points="0,-41.5 0,-60.5 41,-60.5 41,-41.5 0,-41.5"/>
<text text-anchor="middle" x="20.5" y="-48.5" font-family="Helvetica,sans-Serif" font-size="10.00">main</text>
</a>
</g>
</g>
<!-- Node21&#45;&gt;Node22 -->
<g id="edge22" class="edge">
<title>Node21&#45;&gt;Node22</title>
<path fill="none" stroke="midnightblue" d="M66.7,-51C57.37,-51 48.45,-51 41.04,-51"/>
<polygon fill="midnightblue" stroke="midnightblue" points="66.92,-54.5 76.92,-51 66.92,-47.5 66.92,-54.5"/>
</g>
<!-- Node25 -->
<g id="node25" class="node">
<title>Node25</title>
<g id="a_node25"><a xlink:href="hit__cylinder__bonus_8c.html#a72c52cc4f5c57fc6171137d9eb6c3500" target="_top" xlink:title="Overwrites the hit record &quot;rec&quot; with the new hit data found in the &quot;tmp&quot; hit record.">
<polygon fill="none" stroke="black" points="1873,-28.5 1873,-47.5 1982,-47.5 1982,-28.5 1873,-28.5"/>
<text text-anchor="middle" x="1927.5" y="-35.5" font-family="Helvetica,sans-Serif" font-size="10.00">ft_cy_set_hitrecord</text>
</a>
</g>
</g>
<!-- Node24&#45;&gt;Node25 -->
<g id="edge27" class="edge">
<title>Node24&#45;&gt;Node25</title>
<path fill="none" stroke="midnightblue" d="M2007.57,-38C1999.14,-38 1990.58,-38 1982.35,-38"/>
<polygon fill="midnightblue" stroke="midnightblue" points="2007.75,-41.5 2017.75,-38 2007.75,-34.5 2007.75,-41.5"/>
</g>
<!-- Node26 -->
<g id="node26" class="node">
<title>Node26</title>
<g id="a_node26"><a xlink:href="hit__cylinder__bonus_8c.html#ad1c0dcb3141fe78ed26368ca7bb8d2b8" target="_top" xlink:title="Calculates if a cylinder was hit by a ray.">
<polygon fill="none" stroke="black" points="1751,-28.5 1751,-47.5 1837,-47.5 1837,-28.5 1751,-28.5"/>
<text text-anchor="middle" x="1794" y="-35.5" font-family="Helvetica,sans-Serif" font-size="10.00">ft_hit_cylinder</text>
</a>
</g>
</g>
<!-- Node25&#45;&gt;Node26 -->
<g id="edge28" class="edge">
<title>Node25&#45;&gt;Node26</title>
<path fill="none" stroke="midnightblue" d="M1862.61,-38C1854.02,-38 1845.4,-38 1837.31,-38"/>
<polygon fill="midnightblue" stroke="midnightblue" points="1862.63,-41.5 1872.63,-38 1862.63,-34.5 1862.63,-41.5"/>
</g>
<!-- Node27 -->
<g id="node27" class="node">
<title>Node27</title>
<g id="a_node27"><a xlink:href="hit__manager_8h.html#a9d5972226064b0a4d0e1359d9230abec" target="_top" xlink:title="Investigate a hittable and returns whether a hit occured or not.">
<polygon fill="none" stroke="black" points="1631,-28.5 1631,-47.5 1715,-47.5 1715,-28.5 1631,-28.5"/>
<text text-anchor="middle" x="1673" y="-35.5" font-family="Helvetica,sans-Serif" font-size="10.00">ft_hit_hittable</text>
</a>
</g>
</g>
<!-- Node26&#45;&gt;Node27 -->
<g id="edge29" class="edge">
<title>Node26&#45;&gt;Node27</title>
<path fill="none" stroke="midnightblue" d="M1740.56,-38C1732.12,-38 1723.49,-38 1715.35,-38"/>
<polygon fill="midnightblue" stroke="midnightblue" points="1740.71,-41.5 1750.71,-38 1740.71,-34.5 1740.71,-41.5"/>
</g>
<!-- Node27&#45;&gt;Node7 -->
<g id="edge30" class="edge">
<title>Node27&#45;&gt;Node7</title>
<path fill="none" stroke="midnightblue" d="M1626.56,-50.25C1607.13,-55.48 1584.77,-61.51 1566.57,-66.41"/>
<polygon fill="midnightblue" stroke="midnightblue" points="1627.68,-53.57 1636.42,-47.59 1625.85,-46.81 1627.68,-53.57"/>
</g>
<!-- Node27&#45;&gt;Node11 -->
<g id="edge31" class="edge">
<title>Node27&#45;&gt;Node11</title>
<path fill="none" stroke="midnightblue" d="M1628.09,-25.93C1617.34,-23.31 1605.81,-20.8 1595,-19 1500.16,-3.21 1475.65,0 1379.5,0 1379.5,0 1379.5,0 1237.5,0 1151.35,0 1055.62,-45.92 1017.27,-66.37"/>
<polygon fill="midnightblue" stroke="midnightblue" points="1627.57,-29.41 1638.12,-28.44 1629.27,-22.62 1627.57,-29.41"/>
</g>
<!-- Node27&#45;&gt;Node23 -->
<g id="edge32" class="edge">
<title>Node27&#45;&gt;Node23</title>
<path fill="none" stroke="midnightblue" d="M1620.57,-38C1612.27,-38 1603.59,-38 1595.03,-38"/>
<polygon fill="midnightblue" stroke="midnightblue" points="1620.84,-41.5 1630.84,-38 1620.84,-34.5 1620.84,-41.5"/>
</g>
</g>
</svg>
