<?xml version="1.0" encoding="UTF-8" standalone="no"?>
<!DOCTYPE svg PUBLIC "-//W3C//DTD SVG 1.1//EN"
 "http://www.w3.org/Graphics/SVG/1.1/DTD/svg11.dtd">
<!-- Generated by graphviz version 2.43.0 (0)
 -->
<!-- Title: ft_nearly_equal_flt Pages: 1 -->
<svg width="2346pt" height="155pt"
 viewBox="0.00 0.00 2346.00 155.36" xmlns="http://www.w3.org/2000/svg" xmlns:xlink="http://www.w3.org/1999/xlink">
<g id="graph0" class="graph" transform="scale(1 1) rotate(0) translate(4 151.36)">
<title>ft_nearly_equal_flt</title>
<!-- Node1 -->
<g id="node1" class="node">
<title>Node1</title>
<g id="a_node1"><a xlink:title="Checks if two floats are (almost) equal.">
<polygon fill="#bfbfbf" stroke="black" points="2231,-76.5 2231,-95.5 2338,-95.5 2338,-76.5 2231,-76.5"/>
<text text-anchor="middle" x="2284.5" y="-83.5" font-family="Helvetica,sans-Serif" font-size="10.00">ft_nearly_equal_flt</text>
</a>
</g>
</g>
<!-- Node2 -->
<g id="node2" class="node">
<title>Node2</title>
<g id="a_node2"><a xlink:href="vec3_8h.html#add7f4f27ee8cadcbf62ffbfecb98f64f" target="_top" xlink:title="Determines if two vectors are equal.">
<polygon fill="none" stroke="black" points="2111,-76.5 2111,-95.5 2195,-95.5 2195,-76.5 2111,-76.5"/>
<text text-anchor="middle" x="2153" y="-83.5" font-family="Helvetica,sans-Serif" font-size="10.00">ft_vec3_equal</text>
</a>
</g>
</g>
<!-- Node1&#45;&gt;Node2 -->
<g id="edge1" class="edge">
<title>Node1&#45;&gt;Node2</title>
<path fill="none" stroke="midnightblue" d="M2220.69,-86C2212,-86 2203.26,-86 2195.11,-86"/>
<polygon fill="midnightblue" stroke="midnightblue" points="2220.83,-89.5 2230.83,-86 2220.83,-82.5 2220.83,-89.5"/>
</g>
<!-- Node3 -->
<g id="node3" class="node">
<title>Node3</title>
<g id="a_node3"><a xlink:href="hit__manager__bonus_8h.html#a9874994177d1382ce3e76988ca7cee3b" target="_top" xlink:title="Calculates the normal on the point of intersection of the cone.">
<polygon fill="none" stroke="black" points="1981,-114.5 1981,-133.5 2061,-133.5 2061,-114.5 1981,-114.5"/>
<text text-anchor="middle" x="2021" y="-121.5" font-family="Helvetica,sans-Serif" font-size="10.00">ft_co_normal</text>
</a>
</g>
</g>
<!-- Node2&#45;&gt;Node3 -->
<g id="edge2" class="edge">
<title>Node2&#45;&gt;Node3</title>
<path fill="none" stroke="midnightblue" d="M2109.12,-98.54C2091.43,-103.7 2071.27,-109.6 2054.79,-114.41"/>
<polygon fill="midnightblue" stroke="midnightblue" points="2110.58,-101.75 2119.2,-95.59 2108.62,-95.04 2110.58,-101.75"/>
</g>
<!-- Node19 -->
<g id="node19" class="node">
<title>Node19</title>
<g id="a_node19"><a xlink:href="hit__manager_8h.html#a873b926722f5b8fada3f51432dccd4be" target="_top" xlink:title="Calculates the normal on the point of intersection of the cylinder.">
<polygon fill="none" stroke="black" points="1981,-19.5 1981,-38.5 2061,-38.5 2061,-19.5 1981,-19.5"/>
<text text-anchor="middle" x="2021" y="-26.5" font-family="Helvetica,sans-Serif" font-size="10.00">ft_cy_normal</text>
</a>
</g>
</g>
<!-- Node2&#45;&gt;Node19 -->
<g id="edge21" class="edge">
<title>Node2&#45;&gt;Node19</title>
<path fill="none" stroke="midnightblue" d="M2120.94,-72.38C2097.16,-61.95 2064.95,-47.83 2043.83,-38.57"/>
<polygon fill="midnightblue" stroke="midnightblue" points="2119.68,-75.65 2130.24,-76.46 2122.49,-69.24 2119.68,-75.65"/>
</g>
<!-- Node21 -->
<g id="node21" class="node">
<title>Node21</title>
<g id="a_node21"><a xlink:href="hit__manager__bonus_8h.html#a87d41de805dc36f90fb5002fa2d34da0" target="_top" xlink:title="Transforms the Cartesian coordinates of a hit point on a plane into 2D texture UV&#45;coordinates in the ...">
<polygon fill="none" stroke="black" points="1967,-76.5 1967,-95.5 2075,-95.5 2075,-76.5 1967,-76.5"/>
<text text-anchor="middle" x="2021" y="-83.5" font-family="Helvetica,sans-Serif" font-size="10.00">ft_get_pl_uvcoords</text>
</a>
</g>
</g>
<!-- Node2&#45;&gt;Node21 -->
<g id="edge23" class="edge">
<title>Node2&#45;&gt;Node21</title>
<path fill="none" stroke="midnightblue" d="M2100.82,-86C2092.42,-86 2083.7,-86 2075.25,-86"/>
<polygon fill="midnightblue" stroke="midnightblue" points="2100.87,-89.5 2110.87,-86 2100.87,-82.5 2100.87,-89.5"/>
</g>
<!-- Node4 -->
<g id="node4" class="node">
<title>Node4</title>
<g id="a_node4"><a xlink:href="hit__manager__bonus_8h.html#a69c648bba2a12763904900ce56cadb8a" target="_top" xlink:title="Overwrites the hit record &quot;rec&quot; with the new hit data found in the &quot;tmp&quot; hit record.">
<polygon fill="none" stroke="black" points="1822,-114.5 1822,-133.5 1931,-133.5 1931,-114.5 1822,-114.5"/>
<text text-anchor="middle" x="1876.5" y="-121.5" font-family="Helvetica,sans-Serif" font-size="10.00">ft_co_set_hitrecord</text>
</a>
</g>
</g>
<!-- Node3&#45;&gt;Node4 -->
<g id="edge3" class="edge">
<title>Node3&#45;&gt;Node4</title>
<path fill="none" stroke="midnightblue" d="M1970.31,-124C1957.63,-124 1943.95,-124 1931.09,-124"/>
<polygon fill="midnightblue" stroke="midnightblue" points="1970.68,-127.5 1980.68,-124 1970.68,-120.5 1970.68,-127.5"/>
</g>
<!-- Node5 -->
<g id="node5" class="node">
<title>Node5</title>
<g id="a_node5"><a xlink:href="hit__manager__bonus_8h.html#aebab6e1f11fc5b2e6c420276c9beee96" target="_top" xlink:title="Calculates if a cone was hit by a ray.">
<polygon fill="none" stroke="black" points="1426,-76.5 1426,-95.5 1496,-95.5 1496,-76.5 1426,-76.5"/>
<text text-anchor="middle" x="1461" y="-83.5" font-family="Helvetica,sans-Serif" font-size="10.00">ft_hit_cone</text>
</a>
</g>
</g>
<!-- Node4&#45;&gt;Node5 -->
<g id="edge4" class="edge">
<title>Node4&#45;&gt;Node5</title>
<path fill="none" stroke="midnightblue" d="M1829.4,-135.71C1815.54,-138.71 1800.24,-141.51 1786,-143 1737.82,-148.06 1725.05,-149.19 1677,-143 1610.93,-134.49 1596.37,-122.17 1532,-105 1520.32,-101.88 1507.56,-98.43 1496.16,-95.34"/>
<polygon fill="midnightblue" stroke="midnightblue" points="1830.21,-139.12 1839.2,-133.51 1828.67,-132.29 1830.21,-139.12"/>
</g>
<!-- Node6 -->
<g id="node6" class="node">
<title>Node6</title>
<g id="a_node6"><a xlink:href="hit__bonus_8c.html#a9d5972226064b0a4d0e1359d9230abec" target="_top" xlink:title="Investigate a hittable and returns whether a hit occured or not.">
<polygon fill="none" stroke="black" points="1306,-76.5 1306,-95.5 1390,-95.5 1390,-76.5 1306,-76.5"/>
<text text-anchor="middle" x="1348" y="-83.5" font-family="Helvetica,sans-Serif" font-size="10.00">ft_hit_hittable</text>
</a>
</g>
</g>
<!-- Node5&#45;&gt;Node6 -->
<g id="edge5" class="edge">
<title>Node5&#45;&gt;Node6</title>
<path fill="none" stroke="midnightblue" d="M1415.78,-86C1407.38,-86 1398.63,-86 1390.32,-86"/>
<polygon fill="midnightblue" stroke="midnightblue" points="1415.79,-89.5 1425.79,-86 1415.79,-82.5 1415.79,-89.5"/>
</g>
<!-- Node7 -->
<g id="node7" class="node">
<title>Node7</title>
<g id="a_node7"><a xlink:href="lighting__bonus_8h.html#a7fe107fe556fd497ebfc4c4df70b83da" target="_top" xlink:title="Looks for the closest object hit by a ray.">
<polygon fill="none" stroke="black" points="1154,-76.5 1154,-95.5 1256,-95.5 1256,-76.5 1154,-76.5"/>
<text text-anchor="middle" x="1205" y="-83.5" font-family="Helvetica,sans-Serif" font-size="10.00">ft_get_closest_hit</text>
</a>
</g>
</g>
<!-- Node6&#45;&gt;Node7 -->
<g id="edge6" class="edge">
<title>Node6&#45;&gt;Node7</title>
<path fill="none" stroke="midnightblue" d="M1295.74,-86C1282.86,-86 1269.05,-86 1256.21,-86"/>
<polygon fill="midnightblue" stroke="midnightblue" points="1295.84,-89.5 1305.84,-86 1295.84,-82.5 1295.84,-89.5"/>
</g>
<!-- Node11 -->
<g id="node11" class="node">
<title>Node11</title>
<g id="a_node11"><a xlink:href="ray_8h.html#a2cffd188fb76990901db47a2c3ac638f" target="_top" xlink:title="Returns the colour of a ray.">
<polygon fill="none" stroke="black" points="634,-76.5 634,-95.5 714,-95.5 714,-76.5 634,-76.5"/>
<text text-anchor="middle" x="674" y="-83.5" font-family="Helvetica,sans-Serif" font-size="10.00">ft_ray_colour</text>
</a>
</g>
</g>
<!-- Node6&#45;&gt;Node11 -->
<g id="edge19" class="edge">
<title>Node6&#45;&gt;Node11</title>
<path fill="none" stroke="midnightblue" d="M1303.09,-98.07C1292.34,-100.69 1280.81,-103.2 1270,-105 1175.16,-120.79 1150.65,-124 1054.5,-124 1054.5,-124 1054.5,-124 912.5,-124 839.79,-124 821.51,-118.18 750,-105 736.39,-102.49 721.6,-98.93 708.77,-95.56"/>
<polygon fill="midnightblue" stroke="midnightblue" points="1304.27,-101.38 1313.12,-95.56 1302.57,-94.59 1304.27,-101.38"/>
</g>
<!-- Node18 -->
<g id="node18" class="node">
<title>Node18</title>
<g id="a_node18"><a xlink:href="lighting_8h.html#a931177e8edb2dd5393cef7a468389a4d" target="_top" xlink:title="Determines whether the shadow ray emitted from the point of intersection is blocked on its way to the...">
<polygon fill="none" stroke="black" points="1140,-38.5 1140,-57.5 1270,-57.5 1270,-38.5 1140,-38.5"/>
<text text-anchor="middle" x="1205" y="-45.5" font-family="Helvetica,sans-Serif" font-size="10.00">ft_shadow_ray_blocked</text>
</a>
</g>
</g>
<!-- Node6&#45;&gt;Node18 -->
<g id="edge20" class="edge">
<title>Node6&#45;&gt;Node18</title>
<path fill="none" stroke="midnightblue" d="M1301.56,-73.75C1282.13,-68.52 1259.77,-62.49 1241.57,-57.59"/>
<polygon fill="midnightblue" stroke="midnightblue" points="1300.85,-77.19 1311.42,-76.41 1302.68,-70.43 1300.85,-77.19"/>
</g>
<!-- Node8 -->
<g id="node8" class="node">
<title>Node8</title>
<g id="a_node8"><a xlink:href="lighting__bonus_8h.html#ab380b8bbadc80a5a668141c8edcc4754" target="_top" xlink:title="Create reflective lighting by recursion.">
<polygon fill="none" stroke="black" points="1003,-76.5 1003,-95.5 1104,-95.5 1104,-76.5 1003,-76.5"/>
<text text-anchor="middle" x="1053.5" y="-83.5" font-family="Helvetica,sans-Serif" font-size="10.00">ft_reflective_light</text>
</a>
</g>
</g>
<!-- Node7&#45;&gt;Node8 -->
<g id="edge7" class="edge">
<title>Node7&#45;&gt;Node8</title>
<path fill="none" stroke="midnightblue" d="M1143.46,-86C1130.37,-86 1116.67,-86 1104.06,-86"/>
<polygon fill="midnightblue" stroke="midnightblue" points="1143.8,-89.5 1153.8,-86 1143.8,-82.5 1143.8,-89.5"/>
</g>
<!-- Node9 -->
<g id="node9" class="node">
<title>Node9</title>
<g id="a_node9"><a xlink:href="lighting__bonus_8h.html#a31af89240f5ffa2f65f1525d06121d73" target="_top" xlink:title="Computes the colour of light interacting with different material properties.">
<polygon fill="none" stroke="black" points="860,-76.5 860,-95.5 967,-95.5 967,-76.5 860,-76.5"/>
<text text-anchor="middle" x="913.5" y="-83.5" font-family="Helvetica,sans-Serif" font-size="10.00">ft_compute_colour</text>
</a>
</g>
</g>
<!-- Node8&#45;&gt;Node9 -->
<g id="edge8" class="edge">
<title>Node8&#45;&gt;Node9</title>
<path fill="none" stroke="midnightblue" d="M992.48,-79.3C984.01,-79.2 975.35,-79.25 967.04,-79.42"/>
<polygon fill="midnightblue" stroke="midnightblue" points="992.62,-82.8 1002.68,-79.49 992.74,-75.81 992.62,-82.8"/>
</g>
<!-- Node9&#45;&gt;Node8 -->
<g id="edge18" class="edge">
<title>Node9&#45;&gt;Node8</title>
<path fill="none" stroke="midnightblue" d="M977.31,-92.73C985.82,-92.79 994.45,-92.72 1002.68,-92.51"/>
<polygon fill="midnightblue" stroke="midnightblue" points="977.09,-89.22 967.04,-92.58 976.99,-96.22 977.09,-89.22"/>
</g>
<!-- Node10 -->
<g id="node10" class="node">
<title>Node10</title>
<g id="a_node10"><a xlink:href="scene__light__bonus_8c.html#a3d54436a3f695a60b1c2d9e504a61de8" target="_top" xlink:title="Calculate the effect of different lighting on perception.">
<polygon fill="none" stroke="black" points="750,-76.5 750,-95.5 824,-95.5 824,-76.5 750,-76.5"/>
<text text-anchor="middle" x="787" y="-83.5" font-family="Helvetica,sans-Serif" font-size="10.00">ft_enlighten</text>
</a>
</g>
</g>
<!-- Node9&#45;&gt;Node10 -->
<g id="edge9" class="edge">
<title>Node9&#45;&gt;Node10</title>
<path fill="none" stroke="midnightblue" d="M849.56,-86C840.9,-86 832.25,-86 824.3,-86"/>
<polygon fill="midnightblue" stroke="midnightblue" points="849.7,-89.5 859.7,-86 849.7,-82.5 849.7,-89.5"/>
</g>
<!-- Node10&#45;&gt;Node11 -->
<g id="edge10" class="edge">
<title>Node10&#45;&gt;Node11</title>
<path fill="none" stroke="midnightblue" d="M739.82,-86C731.34,-86 722.56,-86 714.31,-86"/>
<polygon fill="midnightblue" stroke="midnightblue" points="739.96,-89.5 749.96,-86 739.96,-82.5 739.96,-89.5"/>
</g>
<!-- Node12 -->
<g id="node12" class="node">
<title>Node12</title>
<g id="a_node12"><a xlink:href="ray__bonus_8h.html#af9c073d2966aa21738e1d2083762055f" target="_top" xlink:title="Returns the colour of a pixel by means of anti&#45;aliasing.">
<polygon fill="none" stroke="black" points="481,-95.5 481,-114.5 598,-114.5 598,-95.5 481,-95.5"/>
<text text-anchor="middle" x="539.5" y="-102.5" font-family="Helvetica,sans-Serif" font-size="10.00">ft_anti_aliase_colour</text>
</a>
</g>
</g>
<!-- Node11&#45;&gt;Node12 -->
<g id="edge11" class="edge">
<title>Node11&#45;&gt;Node12</title>
<path fill="none" stroke="midnightblue" d="M624.02,-93.02C615.69,-94.22 606.95,-95.47 598.41,-96.7"/>
<polygon fill="midnightblue" stroke="midnightblue" points="624.56,-96.48 633.96,-91.6 623.57,-89.55 624.56,-96.48"/>
</g>
<!-- Node17 -->
<g id="node17" class="node">
<title>Node17</title>
<g id="a_node17"><a xlink:href="render_8h.html#a4f238596a8fca72f9af80be57cf06d34" target="_top" xlink:title="Renders the scene to the mlx img.">
<polygon fill="none" stroke="black" points="349,-57.5 349,-76.5 445,-76.5 445,-57.5 349,-57.5"/>
<text text-anchor="middle" x="397" y="-64.5" font-family="Helvetica,sans-Serif" font-size="10.00">ft_render_image</text>
</a>
</g>
</g>
<!-- Node11&#45;&gt;Node17 -->
<g id="edge16" class="edge">
<title>Node11&#45;&gt;Node17</title>
<path fill="none" stroke="midnightblue" d="M623.86,-82.6C573.31,-79.11 495.12,-73.71 445.27,-70.27"/>
<polygon fill="midnightblue" stroke="midnightblue" points="623.67,-86.1 633.89,-83.3 624.16,-79.12 623.67,-86.1"/>
</g>
<!-- Node13 -->
<g id="node13" class="node">
<title>Node13</title>
<g id="a_node13"><a xlink:href="render__draw__bonus_8c.html#a4f238596a8fca72f9af80be57cf06d34" target="_top" xlink:title="Renders the scene to the mlx img.">
<polygon fill="none" stroke="black" points="349,-95.5 349,-114.5 445,-114.5 445,-95.5 349,-95.5"/>
<text text-anchor="middle" x="397" y="-102.5" font-family="Helvetica,sans-Serif" font-size="10.00">ft_render_image</text>
</a>
</g>
</g>
<!-- Node12&#45;&gt;Node13 -->
<g id="edge12" class="edge">
<title>Node12&#45;&gt;Node13</title>
<path fill="none" stroke="midnightblue" d="M470.89,-105C462.27,-105 453.6,-105 445.39,-105"/>
<polygon fill="midnightblue" stroke="midnightblue" points="470.95,-108.5 480.95,-105 470.95,-101.5 470.95,-108.5"/>
</g>
<!-- Node14 -->
<g id="node14" class="node">
<title>Node14</title>
<g id="a_node14"><a xlink:href="render_8h.html#af908c05cb19e716220bc98fcf9582573" target="_top" xlink:title=" ">
<polygon fill="none" stroke="black" points="227,-76.5 227,-95.5 313,-95.5 313,-76.5 227,-76.5"/>
<text text-anchor="middle" x="270" y="-83.5" font-family="Helvetica,sans-Serif" font-size="10.00">ft_draw_scene</text>
</a>
</g>
</g>
<!-- Node13&#45;&gt;Node14 -->
<g id="edge13" class="edge">
<title>Node13&#45;&gt;Node14</title>
<path fill="none" stroke="midnightblue" d="M338.8,-96.31C330.25,-95.01 321.57,-93.69 313.4,-92.44"/>
<polygon fill="midnightblue" stroke="midnightblue" points="338.33,-99.77 348.74,-97.82 339.38,-92.85 338.33,-99.77"/>
</g>
<!-- Node15 -->
<g id="node15" class="node">
<title>Node15</title>
<g id="a_node15"><a xlink:href="render_8h.html#ab7a01aa5d27d2fad2942a43a31ae0d52" target="_top" xlink:title="Starts the mlx loop.">
<polygon fill="none" stroke="black" points="77,-76.5 77,-95.5 191,-95.5 191,-76.5 77,-76.5"/>
<text text-anchor="middle" x="134" y="-83.5" font-family="Helvetica,sans-Serif" font-size="10.00">ft_render_start_loop</text>
</a>
</g>
</g>
<!-- Node14&#45;&gt;Node15 -->
<g id="edge14" class="edge">
<title>Node14&#45;&gt;Node15</title>
<path fill="none" stroke="midnightblue" d="M216.88,-86C208.44,-86 199.66,-86 191.13,-86"/>
<polygon fill="midnightblue" stroke="midnightblue" points="216.97,-89.5 226.97,-86 216.97,-82.5 216.97,-89.5"/>
</g>
<!-- Node16 -->
<g id="node16" class="node">
<title>Node16</title>
<g id="a_node16"><a xlink:href="main_8c.html#a3c04138a5bfe5d72780bb7e82a18e627" target="_top" xlink:title=" ">
<polygon fill="none" stroke="black" points="0,-76.5 0,-95.5 41,-95.5 41,-76.5 0,-76.5"/>
<text text-anchor="middle" x="20.5" y="-83.5" font-family="Helvetica,sans-Serif" font-size="10.00">main</text>
</a>
</g>
</g>
<!-- Node15&#45;&gt;Node16 -->
<g id="edge15" class="edge">
<title>Node15&#45;&gt;Node16</title>
<path fill="none" stroke="midnightblue" d="M66.7,-86C57.37,-86 48.45,-86 41.04,-86"/>
<polygon fill="midnightblue" stroke="midnightblue" points="66.92,-89.5 76.92,-86 66.92,-82.5 66.92,-89.5"/>
</g>
<!-- Node17&#45;&gt;Node14 -->
<g id="edge17" class="edge">
<title>Node17&#45;&gt;Node14</title>
<path fill="none" stroke="midnightblue" d="M338.8,-75.69C330.25,-76.99 321.57,-78.31 313.4,-79.56"/>
<polygon fill="midnightblue" stroke="midnightblue" points="339.38,-79.15 348.74,-74.18 338.33,-72.23 339.38,-79.15"/>
</g>
<!-- Node20 -->
<g id="node20" class="node">
<title>Node20</title>
<g id="a_node20"><a xlink:href="hit__manager_8h.html#a72c52cc4f5c57fc6171137d9eb6c3500" target="_top" xlink:title="Overwrites the hit record &quot;rec&quot; with the new hit data found in the &quot;tmp&quot; hit record.">
<polygon fill="none" stroke="black" points="1822,-0.5 1822,-19.5 1931,-19.5 1931,-0.5 1822,-0.5"/>
<text text-anchor="middle" x="1876.5" y="-7.5" font-family="Helvetica,sans-Serif" font-size="10.00">ft_cy_set_hitrecord</text>
</a>
</g>
</g>
<!-- Node19&#45;&gt;Node20 -->
<g id="edge22" class="edge">
<title>Node19&#45;&gt;Node20</title>
<path fill="none" stroke="midnightblue" d="M1970.69,-22.43C1957.91,-20.72 1944.08,-18.88 1931.09,-17.15"/>
<polygon fill="midnightblue" stroke="midnightblue" points="1970.31,-25.91 1980.68,-23.76 1971.23,-18.97 1970.31,-25.91"/>
</g>
<!-- Node21&#45;&gt;Node4 -->
<g id="edge24" class="edge">
<title>Node21&#45;&gt;Node4</title>
<path fill="none" stroke="midnightblue" d="M1974.35,-98.17C1954.64,-103.43 1931.93,-109.49 1913.45,-114.41"/>
<polygon fill="midnightblue" stroke="midnightblue" points="1975.28,-101.55 1984.04,-95.59 1973.48,-94.78 1975.28,-101.55"/>
</g>
<!-- Node22 -->
<g id="node22" class="node">
<title>Node22</title>
<g id="a_node22"><a xlink:href="hit__cylinder__bonus_8c.html#a72c52cc4f5c57fc6171137d9eb6c3500" target="_top" xlink:title="Overwrites the hit record &quot;rec&quot; with the new hit data found in the &quot;tmp&quot; hit record.">
<polygon fill="none" stroke="black" points="1677,-0.5 1677,-19.5 1786,-19.5 1786,-0.5 1677,-0.5"/>
<text text-anchor="middle" x="1731.5" y="-7.5" font-family="Helvetica,sans-Serif" font-size="10.00">ft_cy_set_hitrecord</text>
</a>
</g>
</g>
<!-- Node21&#45;&gt;Node22 -->
<g id="edge25" class="edge">
<title>Node21&#45;&gt;Node22</title>
<path fill="none" stroke="midnightblue" d="M1974.04,-73.85C1916.98,-58.77 1820.81,-33.35 1768.7,-19.57"/>
<polygon fill="midnightblue" stroke="midnightblue" points="1973.32,-77.28 1983.88,-76.45 1975.11,-70.51 1973.32,-77.28"/>
</g>
<!-- Node25 -->
<g id="node25" class="node">
<title>Node25</title>
<g id="a_node25"><a xlink:href="hit__plane__bonus_8c.html#a04f04eb6383f01a28b0c7201ab52782e" target="_top" xlink:title="Calculates if a plane was hit by a ray.">
<polygon fill="none" stroke="black" points="1839.5,-76.5 1839.5,-95.5 1913.5,-95.5 1913.5,-76.5 1839.5,-76.5"/>
<text text-anchor="middle" x="1876.5" y="-83.5" font-family="Helvetica,sans-Serif" font-size="10.00">ft_hit_plane</text>
</a>
</g>
</g>
<!-- Node21&#45;&gt;Node25 -->
<g id="edge31" class="edge">
<title>Node21&#45;&gt;Node25</title>
<path fill="none" stroke="midnightblue" d="M1956.83,-86C1942.07,-86 1926.85,-86 1913.74,-86"/>
<polygon fill="midnightblue" stroke="midnightblue" points="1956.94,-89.5 1966.94,-86 1956.94,-82.5 1956.94,-89.5"/>
</g>
<!-- Node23 -->
<g id="node23" class="node">
<title>Node23</title>
<g id="a_node23"><a xlink:href="hit__cylinder__bonus_8c.html#ad1c0dcb3141fe78ed26368ca7bb8d2b8" target="_top" xlink:title="Calculates if a cylinder was hit by a ray.">
<polygon fill="none" stroke="black" points="1543.5,-0.5 1543.5,-19.5 1629.5,-19.5 1629.5,-0.5 1543.5,-0.5"/>
<text text-anchor="middle" x="1586.5" y="-7.5" font-family="Helvetica,sans-Serif" font-size="10.00">ft_hit_cylinder</text>
</a>
</g>
</g>
<!-- Node22&#45;&gt;Node23 -->
<g id="edge26" class="edge">
<title>Node22&#45;&gt;Node23</title>
<path fill="none" stroke="midnightblue" d="M1666.51,-10C1654.09,-10 1641.35,-10 1629.84,-10"/>
<polygon fill="midnightblue" stroke="midnightblue" points="1666.85,-13.5 1676.85,-10 1666.85,-6.5 1666.85,-13.5"/>
</g>
<!-- Node24 -->
<g id="node24" class="node">
<title>Node24</title>
<g id="a_node24"><a xlink:href="hit__manager_8h.html#a9d5972226064b0a4d0e1359d9230abec" target="_top" xlink:title="Investigate a hittable and returns whether a hit occured or not.">
<polygon fill="none" stroke="black" points="1306,-38.5 1306,-57.5 1390,-57.5 1390,-38.5 1306,-38.5"/>
<text text-anchor="middle" x="1348" y="-45.5" font-family="Helvetica,sans-Serif" font-size="10.00">ft_hit_hittable</text>
</a>
</g>
</g>
<!-- Node23&#45;&gt;Node24 -->
<g id="edge27" class="edge">
<title>Node23&#45;&gt;Node24</title>
<path fill="none" stroke="midnightblue" d="M1533.27,-17.45C1502.09,-22 1461.74,-28.06 1426,-34 1414.34,-35.94 1401.71,-38.17 1390.12,-40.28"/>
<polygon fill="midnightblue" stroke="midnightblue" points="1534.07,-20.87 1543.47,-15.97 1533.07,-13.94 1534.07,-20.87"/>
</g>
<!-- Node24&#45;&gt;Node7 -->
<g id="edge28" class="edge">
<title>Node24&#45;&gt;Node7</title>
<path fill="none" stroke="midnightblue" d="M1301.56,-60.25C1282.13,-65.48 1259.77,-71.51 1241.57,-76.41"/>
<polygon fill="midnightblue" stroke="midnightblue" points="1302.68,-63.57 1311.42,-57.59 1300.85,-56.81 1302.68,-63.57"/>
</g>
<!-- Node24&#45;&gt;Node11 -->
<g id="edge29" class="edge">
<title>Node24&#45;&gt;Node11</title>
<path fill="none" stroke="midnightblue" d="M1303.09,-35.93C1292.34,-33.31 1280.81,-30.8 1270,-29 1175.16,-13.21 1150.65,-10 1054.5,-10 1054.5,-10 1054.5,-10 912.5,-10 826.35,-10 730.62,-55.92 692.27,-76.37"/>
<polygon fill="midnightblue" stroke="midnightblue" points="1302.57,-39.41 1313.12,-38.44 1304.27,-32.62 1302.57,-39.41"/>
</g>
<!-- Node24&#45;&gt;Node18 -->
<g id="edge30" class="edge">
<title>Node24&#45;&gt;Node18</title>
<path fill="none" stroke="midnightblue" d="M1295.57,-48C1287.27,-48 1278.59,-48 1270.03,-48"/>
<polygon fill="midnightblue" stroke="midnightblue" points="1295.84,-51.5 1305.84,-48 1295.84,-44.5 1295.84,-51.5"/>
</g>
<!-- Node25&#45;&gt;Node24 -->
<g id="edge36" class="edge">
<title>Node25&#45;&gt;Node24</title>
<path fill="none" stroke="midnightblue" d="M1829.35,-74.68C1815.5,-71.69 1800.2,-68.8 1786,-67 1641.36,-48.63 1467.87,-47.13 1390.16,-47.52"/>
<polygon fill="midnightblue" stroke="midnightblue" points="1828.63,-78.1 1839.16,-76.86 1830.15,-71.27 1828.63,-78.1"/>
</g>
<!-- Node26 -->
<g id="node26" class="node">
<title>Node26</title>
<g id="a_node26"><a xlink:href="hit__manager__bonus_8h.html#aee5824df7f0e0c2698306f49f9a1c790" target="_top" xlink:title="Calculates potential hit of cone cap.">
<polygon fill="none" stroke="black" points="1691.5,-76.5 1691.5,-95.5 1771.5,-95.5 1771.5,-76.5 1691.5,-76.5"/>
<text text-anchor="middle" x="1731.5" y="-83.5" font-family="Helvetica,sans-Serif" font-size="10.00">ft_co_cap_hit</text>
</a>
</g>
</g>
<!-- Node25&#45;&gt;Node26 -->
<g id="edge32" class="edge">
<title>Node25&#45;&gt;Node26</title>
<path fill="none" stroke="midnightblue" d="M1829.37,-86C1810.73,-86 1789.45,-86 1771.59,-86"/>
<polygon fill="midnightblue" stroke="midnightblue" points="1829.42,-89.5 1839.42,-86 1829.42,-82.5 1829.42,-89.5"/>
</g>
<!-- Node28 -->
<g id="node28" class="node">
<title>Node28</title>
<g id="a_node28"><a xlink:href="hit__manager_8h.html#af2540784b9e01fbdfeacb544ea2c169a" target="_top" xlink:title="Calculates the hit point of the ray with the cylinder cap.">
<polygon fill="none" stroke="black" points="1691.5,-114.5 1691.5,-133.5 1771.5,-133.5 1771.5,-114.5 1691.5,-114.5"/>
<text text-anchor="middle" x="1731.5" y="-121.5" font-family="Helvetica,sans-Serif" font-size="10.00">ft_cy_cap_hit</text>
</a>
</g>
</g>
<!-- Node25&#45;&gt;Node28 -->
<g id="edge35" class="edge">
<title>Node25&#45;&gt;Node28</title>
<path fill="none" stroke="midnightblue" d="M1829.69,-98.17C1809.91,-103.43 1787.12,-109.49 1768.57,-114.41"/>
<polygon fill="midnightblue" stroke="midnightblue" points="1830.65,-101.54 1839.42,-95.59 1828.85,-94.77 1830.65,-101.54"/>
</g>
<!-- Node27 -->
<g id="node27" class="node">
<title>Node27</title>
<g id="a_node27"><a xlink:href="hit__manager__bonus_8h.html#a9752309af1756a6360c6459ed6747f83" target="_top" xlink:title="Calculates potential hits of a cone.">
<polygon fill="none" stroke="black" points="1532,-76.5 1532,-95.5 1641,-95.5 1641,-76.5 1532,-76.5"/>
<text text-anchor="middle" x="1586.5" y="-83.5" font-family="Helvetica,sans-Serif" font-size="10.00">ft_co_calc_pot_hits</text>
</a>
</g>
</g>
<!-- Node26&#45;&gt;Node27 -->
<g id="edge33" class="edge">
<title>Node26&#45;&gt;Node27</title>
<path fill="none" stroke="midnightblue" d="M1681.28,-86C1668.29,-86 1654.21,-86 1641,-86"/>
<polygon fill="midnightblue" stroke="midnightblue" points="1681.42,-89.5 1691.42,-86 1681.42,-82.5 1681.42,-89.5"/>
</g>
<!-- Node27&#45;&gt;Node5 -->
<g id="edge34" class="edge">
<title>Node27&#45;&gt;Node5</title>
<path fill="none" stroke="midnightblue" d="M1521.43,-86C1512.68,-86 1504,-86 1496.08,-86"/>
<polygon fill="midnightblue" stroke="midnightblue" points="1521.69,-89.5 1531.69,-86 1521.69,-82.5 1521.69,-89.5"/>
</g>
</g>
</svg>
