<?xml version="1.0" encoding="UTF-8" standalone="no"?>
<!DOCTYPE svg PUBLIC "-//W3C//DTD SVG 1.1//EN"
 "http://www.w3.org/Graphics/SVG/1.1/DTD/svg11.dtd">
<!-- Generated by graphviz version 2.43.0 (0)
 -->
<!-- Title: inc/utils_bonus.h Pages: 1 -->
<!--zoomable 397 -->
<svg id="main" version="1.1" xmlns="http://www.w3.org/2000/svg" xmlns:xlink="http://www.w3.org/1999/xlink" xml:space="preserve" onload="init(evt)">
<style type="text/css"><![CDATA[
.edge:hover path { stroke: red; }
.edge:hover polygon { stroke: red; fill: red; }
]]></style>
<script type="text/javascript"><![CDATA[
var edges = document.getElementsByTagName('g');
if (edges && edges.length) {
  for (var i=0;i<edges.length;i++) {
    if (edges[i].id.substr(0,4)=='edge') {
      edges[i].setAttribute('class','edge');
    }
  }
}
]]></script>
        <defs>
                <circle id="rim" cx="0" cy="0" r="7"/>
                <circle id="rim2" cx="0" cy="0" r="3.5"/>
                <g id="zoomPlus">
                        <use xlink:href="#rim" fill="#404040">
                                <set attributeName="fill" to="#808080" begin="zoomplus.mouseover" end="zoomplus.mouseout"/>
                        </use>
                        <path d="M-4,0h8M0,-4v8" fill="none" stroke="white" stroke-width="1.5" pointer-events="none"/>
                </g>
                <g id="zoomMin">
                        <use xlink:href="#rim" fill="#404040">
                                <set attributeName="fill" to="#808080" begin="zoomminus.mouseover" end="zoomminus.mouseout"/>
                        </use>
                        <path d="M-4,0h8" fill="none" stroke="white" stroke-width="1.5" pointer-events="none"/>
                </g>
                <g id="dirArrow">
                        <path fill="none" stroke="white" stroke-width="1.5" d="M0,-3.0v7 M-2.5,-0.5L0,-3.0L2.5,-0.5"/>
                </g>
               <g id="resetDef">
                       <use xlink:href="#rim2" fill="#404040">
                               <set attributeName="fill" to="#808080" begin="reset.mouseover" end="reset.mouseout"/>
                       </use>
               </g>
        </defs>

<script type="text/javascript">
var viewWidth = 2191;
var viewHeight = 397;
var sectionId = 'dynsection-1';
</script>
<script xlink:href="svgpan.js"/>
<svg id="graph" class="graph">
<g id="viewport">
<title>inc/utils_bonus.h</title>
<!-- Node1 -->
<g id="node1" class="node">
<title>Node1</title>
<g id="a_node1"><a xlink:title=" ">
<polygon fill="#bfbfbf" stroke="black" points="1341.5,-369.5 1341.5,-388.5 1439.5,-388.5 1439.5,-369.5 1341.5,-369.5"/>
<text text-anchor="middle" x="1390.5" y="-376.5" font-family="Helvetica,sans-Serif" font-size="10.00">inc/utils_bonus.h</text>
</a>
</g>
</g>
<!-- Node2 -->
<g id="node2" class="node">
<title>Node2</title>
<g id="a_node2"><a xlink:href="camera_8h.html" target="_top" xlink:title=" ">
<polygon fill="none" stroke="black" points="453.5,-246.5 453.5,-265.5 533.5,-265.5 533.5,-246.5 453.5,-246.5"/>
<text text-anchor="middle" x="493.5" y="-253.5" font-family="Helvetica,sans-Serif" font-size="10.00">inc/camera.h</text>
</a>
</g>
</g>
<!-- Node1&#45;&gt;Node2 -->
<g id="edge1" class="edge">
<title>Node1&#45;&gt;Node2</title>
<path fill="none" stroke="midnightblue" d="M1331.5,-376.9C1224.03,-374.15 989.46,-364.73 794.5,-333 691.83,-316.29 572.89,-281.58 520.56,-265.51"/>
<polygon fill="midnightblue" stroke="midnightblue" points="1331.41,-380.4 1341.49,-377.15 1331.58,-373.4 1331.41,-380.4"/>
</g>
<!-- Node17 -->
<g id="node14" class="node">
<title>Node17</title>
<g id="a_node14"><a xlink:href="hit__manager_8h.html" target="_top" xlink:title=" ">
<polygon fill="none" stroke="black" points="813.5,-129 813.5,-148 917.5,-148 917.5,-129 813.5,-129"/>
<text text-anchor="middle" x="865.5" y="-136" font-family="Helvetica,sans-Serif" font-size="10.00">inc/hit_manager.h</text>
</a>
</g>
</g>
<!-- Node1&#45;&gt;Node17 -->
<g id="edge53" class="edge">
<title>Node1&#45;&gt;Node17</title>
<path fill="none" stroke="midnightblue" d="M1331.29,-369.01C1295.01,-362.12 1248.26,-350.73 1209.5,-333 1162.51,-311.51 1152.15,-301.38 1114.5,-266 1082.94,-236.34 1089.77,-213.68 1053.5,-190 1046.96,-185.73 951.69,-161.26 899.35,-148.01"/>
<polygon fill="midnightblue" stroke="midnightblue" points="1330.76,-372.47 1341.23,-370.83 1332.03,-365.58 1330.76,-372.47"/>
</g>
<!-- Node23 -->
<g id="node20" class="node">
<title>Node23</title>
<g id="a_node20"><a xlink:href="hit__manager__bonus_8h.html" target="_top" xlink:title=" ">
<polygon fill="none" stroke="black" points="1415,-129 1415,-148 1554,-148 1554,-129 1415,-129"/>
<text text-anchor="middle" x="1484.5" y="-136" font-family="Helvetica,sans-Serif" font-size="10.00">inc/hit_manager_bonus.h</text>
</a>
</g>
</g>
<!-- Node1&#45;&gt;Node23 -->
<g id="edge54" class="edge">
<title>Node1&#45;&gt;Node23</title>
<path fill="none" stroke="midnightblue" d="M1337.8,-366.13C1320.35,-359.42 1302.77,-349.02 1292.5,-333 1271.63,-300.45 1272.88,-279.32 1292.5,-246 1325.86,-189.34 1401.44,-160.68 1447.19,-148.02"/>
<polygon fill="midnightblue" stroke="midnightblue" points="1336.84,-369.5 1347.43,-369.49 1339.14,-362.89 1336.84,-369.5"/>
</g>
<!-- Node89 -->
<g id="node35" class="node">
<title>Node89</title>
<g id="a_node35"><a xlink:href="colour_8h.html" target="_top" xlink:title=" ">
<polygon fill="none" stroke="black" points="1301.5,-308 1301.5,-327 1373.5,-327 1373.5,-308 1301.5,-308"/>
<text text-anchor="middle" x="1337.5" y="-315" font-family="Helvetica,sans-Serif" font-size="10.00">inc/colour.h</text>
</a>
</g>
</g>
<!-- Node1&#45;&gt;Node89 -->
<g id="edge40" class="edge">
<title>Node1&#45;&gt;Node89</title>
<path fill="none" stroke="midnightblue" d="M1376.25,-362C1366.21,-350.74 1353.18,-336.1 1345.08,-327.01"/>
<polygon fill="midnightblue" stroke="midnightblue" points="1373.64,-364.34 1382.91,-369.48 1378.87,-359.68 1373.64,-364.34"/>
</g>
<!-- Node91 -->
<g id="node37" class="node">
<title>Node91</title>
<g id="a_node37"><a xlink:href="colour__bonus_8h.html" target="_top" xlink:title=" ">
<polygon fill="none" stroke="black" points="804,-308 804,-327 911,-327 911,-308 804,-308"/>
<text text-anchor="middle" x="857.5" y="-315" font-family="Helvetica,sans-Serif" font-size="10.00">inc/colour_bonus.h</text>
</a>
</g>
</g>
<!-- Node1&#45;&gt;Node91 -->
<g id="edge42" class="edge">
<title>Node1&#45;&gt;Node91</title>
<path fill="none" stroke="midnightblue" d="M1331.26,-371.39C1226.86,-359.73 1011.69,-335.71 911.29,-324.51"/>
<polygon fill="midnightblue" stroke="midnightblue" points="1330.99,-374.88 1341.31,-372.51 1331.76,-367.92 1330.99,-374.88"/>
</g>
<!-- Node120 -->
<g id="node41" class="node">
<title>Node120</title>
<g id="a_node41"><a xlink:href="mat4_8h.html" target="_top" xlink:title=" ">
<polygon fill="none" stroke="black" points="1123.5,-246.5 1123.5,-265.5 1191.5,-265.5 1191.5,-246.5 1123.5,-246.5"/>
<text text-anchor="middle" x="1157.5" y="-253.5" font-family="Helvetica,sans-Serif" font-size="10.00">inc/mat4.h</text>
</a>
</g>
</g>
<!-- Node1&#45;&gt;Node120 -->
<g id="edge55" class="edge">
<title>Node1&#45;&gt;Node120</title>
<path fill="none" stroke="midnightblue" d="M1346.84,-366.69C1320.68,-359.03 1287.22,-347.63 1259.5,-333 1222.39,-313.42 1184.18,-281.04 1166.94,-265.64"/>
<polygon fill="midnightblue" stroke="midnightblue" points="1345.9,-370.07 1356.48,-369.45 1347.83,-363.34 1345.9,-370.07"/>
</g>
<!-- Node125 -->
<g id="node45" class="node">
<title>Node125</title>
<g id="a_node45"><a xlink:href="utils__interval_8c.html" target="_top" xlink:title=" ">
<polygon fill="none" stroke="black" points="1391.5,-308 1391.5,-327 1497.5,-327 1497.5,-308 1391.5,-308"/>
<text text-anchor="middle" x="1444.5" y="-315" font-family="Helvetica,sans-Serif" font-size="10.00">src/utils_interval.c</text>
</a>
</g>
</g>
<!-- Node1&#45;&gt;Node125 -->
<g id="edge62" class="edge">
<title>Node1&#45;&gt;Node125</title>
<path fill="none" stroke="midnightblue" d="M1405.02,-362C1415.24,-350.74 1428.52,-336.1 1436.78,-327.01"/>
<polygon fill="midnightblue" stroke="midnightblue" points="1402.37,-359.72 1398.24,-369.48 1407.55,-364.42 1402.37,-359.72"/>
</g>
<!-- Node126 -->
<g id="node46" class="node">
<title>Node126</title>
<g id="a_node46"><a xlink:href="utils__math_8c.html" target="_top" xlink:title=" ">
<polygon fill="none" stroke="black" points="1515.5,-308 1515.5,-327 1609.5,-327 1609.5,-308 1515.5,-308"/>
<text text-anchor="middle" x="1562.5" y="-315" font-family="Helvetica,sans-Serif" font-size="10.00">src/utils_math.c</text>
</a>
</g>
</g>
<!-- Node1&#45;&gt;Node126 -->
<g id="edge63" class="edge">
<title>Node1&#45;&gt;Node126</title>
<path fill="none" stroke="midnightblue" d="M1424.95,-366.08C1458.38,-354.52 1508.29,-337.25 1537.9,-327.01"/>
<polygon fill="midnightblue" stroke="midnightblue" points="1423.45,-362.9 1415.14,-369.48 1425.74,-369.51 1423.45,-362.9"/>
</g>
<!-- Node127 -->
<g id="node47" class="node">
<title>Node127</title>
<g id="a_node47"><a xlink:href="utils__math__bonus_8c.html" target="_top" xlink:title=" ">
<polygon fill="none" stroke="black" points="1627.5,-308 1627.5,-327 1755.5,-327 1755.5,-308 1627.5,-308"/>
<text text-anchor="middle" x="1691.5" y="-315" font-family="Helvetica,sans-Serif" font-size="10.00">src/utils_math_bonus.c</text>
</a>
</g>
</g>
<!-- Node1&#45;&gt;Node127 -->
<g id="edge64" class="edge">
<title>Node1&#45;&gt;Node127</title>
<path fill="none" stroke="midnightblue" d="M1443.87,-367.48C1490.08,-358.38 1558.71,-344.84 1618.5,-333 1628.26,-331.07 1638.75,-328.99 1648.65,-327.02"/>
<polygon fill="midnightblue" stroke="midnightblue" points="1442.92,-364.1 1433.79,-369.47 1444.28,-370.97 1442.92,-364.1"/>
</g>
<!-- Node128 -->
<g id="node48" class="node">
<title>Node128</title>
<g id="a_node48"><a xlink:href="utils__quaternion__bonus_8c.html" target="_top" xlink:title=" ">
<polygon fill="none" stroke="black" points="1774,-302.5 1774,-332.5 1887,-332.5 1887,-302.5 1774,-302.5"/>
<text text-anchor="start" x="1782" y="-320.5" font-family="Helvetica,sans-Serif" font-size="10.00">src/utils_quaternion</text>
<text text-anchor="middle" x="1830.5" y="-309.5" font-family="Helvetica,sans-Serif" font-size="10.00">_bonus.c</text>
</a>
</g>
</g>
<!-- Node1&#45;&gt;Node128 -->
<g id="edge65" class="edge">
<title>Node1&#45;&gt;Node128</title>
<path fill="none" stroke="midnightblue" d="M1449.78,-372.65C1523.75,-365.57 1653.96,-351.75 1764.5,-333 1767.51,-332.49 1770.58,-331.93 1773.69,-331.35"/>
<polygon fill="midnightblue" stroke="midnightblue" points="1449.35,-369.18 1439.73,-373.6 1450.01,-376.14 1449.35,-369.18"/>
</g>
<!-- Node129 -->
<g id="node49" class="node">
<title>Node129</title>
<g id="a_node49"><a xlink:href="utils__random__bonus_8c.html" target="_top" xlink:title=" ">
<polygon fill="none" stroke="black" points="1905.5,-308 1905.5,-327 2045.5,-327 2045.5,-308 1905.5,-308"/>
<text text-anchor="middle" x="1975.5" y="-315" font-family="Helvetica,sans-Serif" font-size="10.00">src/utils_random_bonus.c</text>
</a>
</g>
</g>
<!-- Node1&#45;&gt;Node129 -->
<g id="edge66" class="edge">
<title>Node1&#45;&gt;Node129</title>
<path fill="none" stroke="midnightblue" d="M1449.75,-374.52C1544.45,-368.56 1735.62,-354.87 1896.5,-333 1908.38,-331.38 1921.2,-329.22 1932.98,-327.05"/>
<polygon fill="midnightblue" stroke="midnightblue" points="1449.28,-371.04 1439.52,-375.16 1449.71,-378.03 1449.28,-371.04"/>
</g>
<!-- Node130 -->
<g id="node50" class="node">
<title>Node130</title>
<g id="a_node50"><a xlink:href="vec3__linalgebra_8c.html" target="_top" xlink:title=" ">
<polygon fill="none" stroke="black" points="2064,-308 2064,-327 2183,-327 2183,-308 2064,-308"/>
<text text-anchor="middle" x="2123.5" y="-315" font-family="Helvetica,sans-Serif" font-size="10.00">src/vec3_linalgebra.c</text>
</a>
</g>
</g>
<!-- Node1&#45;&gt;Node130 -->
<g id="edge67" class="edge">
<title>Node1&#45;&gt;Node130</title>
<path fill="none" stroke="midnightblue" d="M1450.03,-376.75C1566.58,-373.68 1832.86,-363.65 2054.5,-333 2065.29,-331.51 2076.92,-329.3 2087.5,-327.06"/>
<polygon fill="midnightblue" stroke="midnightblue" points="1449.79,-373.25 1439.89,-377.01 1449.97,-380.25 1449.79,-373.25"/>
</g>
<!-- Node3 -->
<g id="node3" class="node">
<title>Node3</title>
<g id="a_node3"><a xlink:href="debug__print_8h.html" target="_top" xlink:title=" ">
<polygon fill="none" stroke="black" points="944,-190.5 944,-209.5 1045,-209.5 1045,-190.5 944,-190.5"/>
<text text-anchor="middle" x="994.5" y="-197.5" font-family="Helvetica,sans-Serif" font-size="10.00">inc/debug_print.h</text>
</a>
</g>
</g>
<!-- Node2&#45;&gt;Node3 -->
<g id="edge2" class="edge">
<title>Node2&#45;&gt;Node3</title>
<path fill="none" stroke="midnightblue" d="M544,-248.75C551.86,-247.81 559.9,-246.86 567.5,-246 703.41,-230.57 863.87,-214.14 943.86,-206.07"/>
<polygon fill="midnightblue" stroke="midnightblue" points="543.32,-245.31 533.81,-249.98 544.16,-252.25 543.32,-245.31"/>
</g>
<!-- Node6 -->
<g id="node6" class="node">
<title>Node6</title>
<g id="a_node6"><a xlink:href="mini_r_t_8h.html" target="_top" xlink:title=" ">
<polygon fill="none" stroke="black" points="451.5,-67.5 451.5,-86.5 527.5,-86.5 527.5,-67.5 451.5,-67.5"/>
<text text-anchor="middle" x="489.5" y="-74.5" font-family="Helvetica,sans-Serif" font-size="10.00">inc/miniRT.h</text>
</a>
</g>
</g>
<!-- Node2&#45;&gt;Node6 -->
<g id="edge5" class="edge">
<title>Node2&#45;&gt;Node6</title>
<path fill="none" stroke="midnightblue" d="M443.27,-251.37C337.71,-241.93 108.59,-210.93 184.5,-123 218.56,-83.55 377.31,-78.08 451.33,-77.72"/>
<polygon fill="midnightblue" stroke="midnightblue" points="443.13,-254.87 453.39,-252.24 443.73,-247.89 443.13,-254.87"/>
</g>
<!-- Node8 -->
<g id="node8" class="node">
<title>Node8</title>
<g id="a_node8"><a xlink:href="parse_8h.html" target="_top" xlink:title=" ">
<polygon fill="none" stroke="red" points="353.5,-190.5 353.5,-209.5 423.5,-209.5 423.5,-190.5 353.5,-190.5"/>
<text text-anchor="middle" x="388.5" y="-197.5" font-family="Helvetica,sans-Serif" font-size="10.00">inc/parse.h</text>
</a>
</g>
</g>
<!-- Node2&#45;&gt;Node8 -->
<g id="edge7" class="edge">
<title>Node2&#45;&gt;Node8</title>
<path fill="none" stroke="midnightblue" d="M467.69,-241.73C448.25,-231.73 422.15,-218.31 405.33,-209.65"/>
<polygon fill="midnightblue" stroke="midnightblue" points="466.14,-244.86 476.63,-246.32 469.34,-238.64 466.14,-244.86"/>
</g>
<!-- Node13 -->
<g id="node12" class="node">
<title>Node13</title>
<g id="a_node12"><a xlink:href="parse__bonus_8h.html" target="_top" xlink:title=" ">
<polygon fill="none" stroke="red" points="479.5,-190.5 479.5,-209.5 583.5,-209.5 583.5,-190.5 479.5,-190.5"/>
<text text-anchor="middle" x="531.5" y="-197.5" font-family="Helvetica,sans-Serif" font-size="10.00">inc/parse_bonus.h</text>
</a>
</g>
</g>
<!-- Node2&#45;&gt;Node13 -->
<g id="edge11" class="edge">
<title>Node2&#45;&gt;Node13</title>
<path fill="none" stroke="midnightblue" d="M505.56,-237.86C512.14,-228.5 520.01,-217.33 525.34,-209.75"/>
<polygon fill="midnightblue" stroke="midnightblue" points="502.67,-235.89 499.77,-246.08 508.39,-239.92 502.67,-235.89"/>
</g>
<!-- Node16 -->
<g id="node13" class="node">
<title>Node16</title>
<g id="a_node13"><a xlink:href="ray__bonus_8h.html" target="_top" xlink:title=" ">
<polygon fill="none" stroke="black" points="794,-190.5 794,-209.5 887,-209.5 887,-190.5 794,-190.5"/>
<text text-anchor="middle" x="840.5" y="-197.5" font-family="Helvetica,sans-Serif" font-size="10.00">inc/ray_bonus.h</text>
</a>
</g>
</g>
<!-- Node2&#45;&gt;Node16 -->
<g id="edge13" class="edge">
<title>Node2&#45;&gt;Node16</title>
<path fill="none" stroke="midnightblue" d="M543.55,-247.21C610.57,-236.78 728.58,-218.42 793.83,-208.26"/>
<polygon fill="midnightblue" stroke="midnightblue" points="542.99,-243.76 533.64,-248.75 544.06,-250.67 542.99,-243.76"/>
</g>
<!-- Node40 -->
<g id="node31" class="node">
<title>Node40</title>
<g id="a_node31"><a xlink:href="render_8h.html" target="_top" xlink:title=" ">
<polygon fill="none" stroke="red" points="721.5,-129 721.5,-148 795.5,-148 795.5,-129 721.5,-129"/>
<text text-anchor="middle" x="758.5" y="-136" font-family="Helvetica,sans-Serif" font-size="10.00">inc/render.h</text>
</a>
</g>
</g>
<!-- Node2&#45;&gt;Node40 -->
<g id="edge36" class="edge">
<title>Node2&#45;&gt;Node40</title>
<path fill="none" stroke="midnightblue" d="M543.77,-247.52C615.22,-236.67 738.37,-217.09 745.5,-210 762.09,-193.5 761.33,-163.21 759.75,-148.29"/>
<polygon fill="midnightblue" stroke="midnightblue" points="542.98,-244.1 533.62,-249.05 544.03,-251.02 542.98,-244.1"/>
</g>
<!-- Node56 -->
<g id="node32" class="node">
<title>Node56</title>
<g id="a_node32"><a xlink:href="render__bonus_8h.html" target="_top" xlink:title=" ">
<polygon fill="none" stroke="red" points="594,-129 594,-148 703,-148 703,-129 594,-129"/>
<text text-anchor="middle" x="648.5" y="-136" font-family="Helvetica,sans-Serif" font-size="10.00">inc/render_bonus.h</text>
</a>
</g>
</g>
<!-- Node2&#45;&gt;Node56 -->
<g id="edge37" class="edge">
<title>Node2&#45;&gt;Node56</title>
<path fill="none" stroke="midnightblue" d="M479.23,-237.97C469.34,-223.99 459.72,-204.26 470.5,-190 485.46,-170.2 547.2,-155.91 593.8,-147.68"/>
<polygon fill="midnightblue" stroke="midnightblue" points="476.69,-240.4 485.55,-246.2 482.24,-236.14 476.69,-240.4"/>
</g>
<!-- Node87 -->
<g id="node33" class="node">
<title>Node87</title>
<g id="a_node33"><a xlink:href="camera_8c.html" target="_top" xlink:title=" ">
<polygon fill="none" stroke="black" points="256,-190.5 256,-209.5 335,-209.5 335,-190.5 256,-190.5"/>
<text text-anchor="middle" x="295.5" y="-197.5" font-family="Helvetica,sans-Serif" font-size="10.00">src/camera.c</text>
</a>
</g>
</g>
<!-- Node2&#45;&gt;Node87 -->
<g id="edge38" class="edge">
<title>Node2&#45;&gt;Node87</title>
<path fill="none" stroke="midnightblue" d="M452.06,-243.7C414.69,-233.51 360.56,-218.74 326.73,-209.52"/>
<polygon fill="midnightblue" stroke="midnightblue" points="451.56,-247.19 462.13,-246.44 453.4,-240.44 451.56,-247.19"/>
</g>
<!-- Node88 -->
<g id="node34" class="node">
<title>Node88</title>
<g id="a_node34"><a xlink:href="camera__movement_8c.html" target="_top" xlink:title=" ">
<polygon fill="none" stroke="black" points="0,-190.5 0,-209.5 137,-209.5 137,-190.5 0,-190.5"/>
<text text-anchor="middle" x="68.5" y="-197.5" font-family="Helvetica,sans-Serif" font-size="10.00">src/camera_movement.c</text>
</a>
</g>
</g>
<!-- Node2&#45;&gt;Node88 -->
<g id="edge39" class="edge">
<title>Node2&#45;&gt;Node88</title>
<path fill="none" stroke="midnightblue" d="M442.79,-248.56C366.19,-238.82 220.86,-220.36 135.58,-209.52"/>
<polygon fill="midnightblue" stroke="midnightblue" points="442.77,-252.08 453.13,-249.87 443.65,-245.14 442.77,-252.08"/>
</g>
<!-- Node4 -->
<g id="node4" class="node">
<title>Node4</title>
<g id="a_node4"><a xlink:href="debug__print__entity_8c.html" target="_top" xlink:title=" ">
<polygon fill="none" stroke="black" points="1087.5,-129 1087.5,-148 1219.5,-148 1219.5,-129 1087.5,-129"/>
<text text-anchor="middle" x="1153.5" y="-136" font-family="Helvetica,sans-Serif" font-size="10.00">src/debug_print_entity.c</text>
</a>
</g>
</g>
<!-- Node3&#45;&gt;Node4 -->
<g id="edge3" class="edge">
<title>Node3&#45;&gt;Node4</title>
<path fill="none" stroke="midnightblue" d="M1026.75,-186.93C1057.65,-175.37 1103.51,-158.21 1130.76,-148.01"/>
<polygon fill="midnightblue" stroke="midnightblue" points="1025.42,-183.69 1017.28,-190.48 1027.87,-190.25 1025.42,-183.69"/>
</g>
<!-- Node5 -->
<g id="node5" class="node">
<title>Node5</title>
<g id="a_node5"><a xlink:href="debug__print__struct_8c.html" target="_top" xlink:title=" ">
<polygon fill="none" stroke="black" points="936,-129 936,-148 1069,-148 1069,-129 936,-129"/>
<text text-anchor="middle" x="1002.5" y="-136" font-family="Helvetica,sans-Serif" font-size="10.00">src/debug_print_struct.c</text>
</a>
</g>
</g>
<!-- Node3&#45;&gt;Node5 -->
<g id="edge4" class="edge">
<title>Node3&#45;&gt;Node5</title>
<path fill="none" stroke="midnightblue" d="M997.01,-180.32C998.47,-169.5 1000.23,-156.4 1001.36,-148.01"/>
<polygon fill="midnightblue" stroke="midnightblue" points="993.51,-180.1 995.65,-190.48 1000.45,-181.03 993.51,-180.1"/>
</g>
<!-- Node7 -->
<g id="node7" class="node">
<title>Node7</title>
<g id="a_node7"><a xlink:href="main_8c.html" target="_top" xlink:title=" ">
<polygon fill="none" stroke="black" points="456,-6 456,-25 523,-25 523,-6 456,-6"/>
<text text-anchor="middle" x="489.5" y="-13" font-family="Helvetica,sans-Serif" font-size="10.00">src/main.c</text>
</a>
</g>
</g>
<!-- Node6&#45;&gt;Node7 -->
<g id="edge6" class="edge">
<title>Node6&#45;&gt;Node7</title>
<path fill="none" stroke="midnightblue" d="M489.5,-57.32C489.5,-46.5 489.5,-33.4 489.5,-25.01"/>
<polygon fill="midnightblue" stroke="midnightblue" points="486,-57.48 489.5,-67.48 493,-57.48 486,-57.48"/>
</g>
<!-- Node9 -->
<g id="node9" class="node">
<title>Node9</title>
<g id="a_node9"><a xlink:href="parse_8c.html" target="_top" xlink:title=" ">
<polygon fill="none" stroke="black" points="323,-129 323,-148 392,-148 392,-129 323,-129"/>
<text text-anchor="middle" x="357.5" y="-136" font-family="Helvetica,sans-Serif" font-size="10.00">src/parse.c</text>
</a>
</g>
</g>
<!-- Node8&#45;&gt;Node9 -->
<g id="edge8" class="edge">
<title>Node8&#45;&gt;Node9</title>
<path fill="none" stroke="midnightblue" d="M379.3,-181.33C373.56,-170.33 366.44,-156.66 361.93,-148.01"/>
<polygon fill="midnightblue" stroke="midnightblue" points="376.33,-183.22 384.06,-190.48 382.54,-179.99 376.33,-183.22"/>
</g>
<!-- Node10 -->
<g id="node10" class="node">
<title>Node10</title>
<g id="a_node10"><a xlink:href="parse__entity___a_c_l_8c.html" target="_top" xlink:title=" ">
<polygon fill="none" stroke="black" points="410,-129 410,-148 537,-148 537,-129 410,-129"/>
<text text-anchor="middle" x="473.5" y="-136" font-family="Helvetica,sans-Serif" font-size="10.00">src/parse_entity_ACL.c</text>
</a>
</g>
</g>
<!-- Node8&#45;&gt;Node10 -->
<g id="edge9" class="edge">
<title>Node8&#45;&gt;Node10</title>
<path fill="none" stroke="midnightblue" d="M409.05,-184.61C425.4,-173.17 447.72,-157.55 461.34,-148.01"/>
<polygon fill="midnightblue" stroke="midnightblue" points="406.86,-181.87 400.68,-190.48 410.88,-187.61 406.86,-181.87"/>
</g>
<!-- Node11 -->
<g id="node11" class="node">
<title>Node11</title>
<g id="a_node11"><a xlink:href="parse__entity__sp__pl__cy_8c.html" target="_top" xlink:title=" ">
<polygon fill="none" stroke="black" points="194,-123.5 194,-153.5 305,-153.5 305,-123.5 194,-123.5"/>
<text text-anchor="start" x="202" y="-141.5" font-family="Helvetica,sans-Serif" font-size="10.00">src/parse_entity_sp</text>
<text text-anchor="middle" x="249.5" y="-130.5" font-family="Helvetica,sans-Serif" font-size="10.00">_pl_cy.c</text>
</a>
</g>
</g>
<!-- Node8&#45;&gt;Node11 -->
<g id="edge10" class="edge">
<title>Node8&#45;&gt;Node11</title>
<path fill="none" stroke="midnightblue" d="M359.21,-186.46C336.69,-176.82 305.6,-163.51 282.26,-153.52"/>
<polygon fill="midnightblue" stroke="midnightblue" points="358.01,-189.76 368.58,-190.48 360.77,-183.32 358.01,-189.76"/>
</g>
<!-- Node13&#45;&gt;Node6 -->
<g id="edge12" class="edge">
<title>Node13&#45;&gt;Node6</title>
<path fill="none" stroke="midnightblue" d="M540.84,-180.85C547.68,-164.91 554.35,-141.46 545.5,-123 537.58,-106.47 520.29,-94.08 507,-86.54"/>
<polygon fill="midnightblue" stroke="midnightblue" points="537.57,-179.57 536.49,-190.11 543.91,-182.55 537.57,-179.57"/>
</g>
<!-- Node16&#45;&gt;Node17 -->
<g id="edge14" class="edge">
<title>Node16&#45;&gt;Node17</title>
<path fill="none" stroke="midnightblue" d="M848.06,-181C852.66,-170.05 858.33,-156.57 861.92,-148.01"/>
<polygon fill="midnightblue" stroke="midnightblue" points="844.73,-179.9 844.08,-190.48 851.18,-182.61 844.73,-179.9"/>
</g>
<!-- Node16&#45;&gt;Node23 -->
<g id="edge20" class="edge">
<title>Node16&#45;&gt;Node23</title>
<path fill="none" stroke="midnightblue" d="M897.44,-193.51C909.67,-192.34 922.51,-191.12 934.5,-190 1107.06,-173.82 1310.13,-155.31 1414.6,-145.83"/>
<polygon fill="midnightblue" stroke="midnightblue" points="896.97,-190.04 887.35,-194.48 897.64,-197.01 896.97,-190.04"/>
</g>
<!-- Node16&#45;&gt;Node40 -->
<g id="edge33" class="edge">
<title>Node16&#45;&gt;Node40</title>
<path fill="none" stroke="midnightblue" d="M820.23,-184.29C804.5,-172.88 783.25,-157.46 770.23,-148.01"/>
<polygon fill="midnightblue" stroke="midnightblue" points="818.6,-187.43 828.75,-190.48 822.71,-181.77 818.6,-187.43"/>
</g>
<!-- Node16&#45;&gt;Node56 -->
<g id="edge34" class="edge">
<title>Node16&#45;&gt;Node56</title>
<path fill="none" stroke="midnightblue" d="M803.01,-187.38C765.69,-175.82 709.3,-158.34 675.96,-148.01"/>
<polygon fill="midnightblue" stroke="midnightblue" points="802.4,-190.86 812.99,-190.48 804.48,-184.17 802.4,-190.86"/>
</g>
<!-- Node18 -->
<g id="node15" class="node">
<title>Node18</title>
<g id="a_node15"><a xlink:href="hit_8c.html" target="_top" xlink:title=" ">
<polygon fill="none" stroke="black" points="887,-67.5 887,-86.5 942,-86.5 942,-67.5 887,-67.5"/>
<text text-anchor="middle" x="914.5" y="-74.5" font-family="Helvetica,sans-Serif" font-size="10.00">src/hit.c</text>
</a>
</g>
</g>
<!-- Node17&#45;&gt;Node18 -->
<g id="edge15" class="edge">
<title>Node17&#45;&gt;Node18</title>
<path fill="none" stroke="midnightblue" d="M878.95,-121.17C888.19,-109.95 900.07,-95.52 907.49,-86.51"/>
<polygon fill="midnightblue" stroke="midnightblue" points="876.18,-119.03 872.52,-128.98 881.58,-123.48 876.18,-119.03"/>
</g>
<!-- Node19 -->
<g id="node16" class="node">
<title>Node19</title>
<g id="a_node16"><a xlink:href="hit__cylinder_8c.html" target="_top" xlink:title=" ">
<polygon fill="none" stroke="black" points="960.5,-67.5 960.5,-86.5 1058.5,-86.5 1058.5,-67.5 960.5,-67.5"/>
<text text-anchor="middle" x="1009.5" y="-74.5" font-family="Helvetica,sans-Serif" font-size="10.00">src/hit_cylinder.c</text>
</a>
</g>
</g>
<!-- Node17&#45;&gt;Node19 -->
<g id="edge16" class="edge">
<title>Node17&#45;&gt;Node19</title>
<path fill="none" stroke="midnightblue" d="M895.43,-125.13C923.41,-113.57 964.44,-96.62 988.91,-86.51"/>
<polygon fill="midnightblue" stroke="midnightblue" points="894.04,-121.92 886.13,-128.98 896.71,-128.39 894.04,-121.92"/>
</g>
<!-- Node20 -->
<g id="node17" class="node">
<title>Node20</title>
<g id="a_node17"><a xlink:href="hit__plane_8c.html" target="_top" xlink:title=" ">
<polygon fill="none" stroke="black" points="546,-67.5 546,-86.5 633,-86.5 633,-67.5 546,-67.5"/>
<text text-anchor="middle" x="589.5" y="-74.5" font-family="Helvetica,sans-Serif" font-size="10.00">src/hit_plane.c</text>
</a>
</g>
</g>
<!-- Node17&#45;&gt;Node20 -->
<g id="edge17" class="edge">
<title>Node17&#45;&gt;Node20</title>
<path fill="none" stroke="midnightblue" d="M820.27,-126.61C814.96,-125.37 809.61,-124.14 804.5,-123 744.77,-109.65 675.42,-95.35 632,-86.54"/>
<polygon fill="midnightblue" stroke="midnightblue" points="819.84,-130.1 830.38,-128.98 821.44,-123.28 819.84,-130.1"/>
</g>
<!-- Node21 -->
<g id="node18" class="node">
<title>Node21</title>
<g id="a_node18"><a xlink:href="hit__sphere_8c.html" target="_top" xlink:title=" ">
<polygon fill="none" stroke="black" points="651,-67.5 651,-86.5 744,-86.5 744,-67.5 651,-67.5"/>
<text text-anchor="middle" x="697.5" y="-74.5" font-family="Helvetica,sans-Serif" font-size="10.00">src/hit_sphere.c</text>
</a>
</g>
</g>
<!-- Node17&#45;&gt;Node21 -->
<g id="edge18" class="edge">
<title>Node17&#45;&gt;Node21</title>
<path fill="none" stroke="midnightblue" d="M831.85,-125.58C799.2,-114.02 750.45,-96.75 721.53,-86.51"/>
<polygon fill="midnightblue" stroke="midnightblue" points="830.83,-128.94 841.43,-128.98 833.17,-122.34 830.83,-128.94"/>
</g>
<!-- Node22 -->
<g id="node19" class="node">
<title>Node22</title>
<g id="a_node19"><a xlink:href="utils__cylinder_8c.html" target="_top" xlink:title=" ">
<polygon fill="none" stroke="black" points="762,-67.5 762,-86.5 869,-86.5 869,-67.5 762,-67.5"/>
<text text-anchor="middle" x="815.5" y="-74.5" font-family="Helvetica,sans-Serif" font-size="10.00">src/utils_cylinder.c</text>
</a>
</g>
</g>
<!-- Node17&#45;&gt;Node22 -->
<g id="edge19" class="edge">
<title>Node17&#45;&gt;Node22</title>
<path fill="none" stroke="midnightblue" d="M851.78,-121.17C842.35,-109.95 830.22,-95.52 822.65,-86.51"/>
<polygon fill="midnightblue" stroke="midnightblue" points="849.22,-123.57 858.34,-128.98 854.58,-119.07 849.22,-123.57"/>
</g>
<!-- Node24 -->
<g id="node21" class="node">
<title>Node24</title>
<g id="a_node21"><a xlink:href="lighting_8h.html" target="_top" xlink:title=" ">
<polygon fill="none" stroke="red" points="2071.5,-67.5 2071.5,-86.5 2151.5,-86.5 2151.5,-67.5 2071.5,-67.5"/>
<text text-anchor="middle" x="2111.5" y="-74.5" font-family="Helvetica,sans-Serif" font-size="10.00">inc/lighting.h</text>
</a>
</g>
</g>
<!-- Node23&#45;&gt;Node24 -->
<g id="edge21" class="edge">
<title>Node23&#45;&gt;Node24</title>
<path fill="none" stroke="midnightblue" d="M1564.31,-132.92C1676.06,-125.96 1885.36,-110.95 2062.5,-87 2065.41,-86.61 2068.42,-86.16 2071.44,-85.68"/>
<polygon fill="midnightblue" stroke="midnightblue" points="1563.9,-129.44 1554.13,-133.55 1564.33,-136.43 1563.9,-129.44"/>
</g>
<!-- Node28 -->
<g id="node22" class="node">
<title>Node28</title>
<g id="a_node22"><a xlink:href="lighting__bonus_8h.html" target="_top" xlink:title=" ">
<polygon fill="none" stroke="red" points="1680.5,-6 1680.5,-25 1794.5,-25 1794.5,-6 1680.5,-6"/>
<text text-anchor="middle" x="1737.5" y="-13" font-family="Helvetica,sans-Serif" font-size="10.00">inc/lighting_bonus.h</text>
</a>
</g>
</g>
<!-- Node23&#45;&gt;Node28 -->
<g id="edge22" class="edge">
<title>Node23&#45;&gt;Node28</title>
<path fill="none" stroke="midnightblue" d="M1564.36,-137.49C1734.53,-136.62 2120.68,-129.9 2160.5,-87 2211.4,-32.16 1921.6,-19.97 1794.73,-17.27"/>
<polygon fill="midnightblue" stroke="midnightblue" points="1564.19,-133.99 1554.2,-137.53 1564.22,-140.99 1564.19,-133.99"/>
</g>
<!-- Node31 -->
<g id="node23" class="node">
<title>Node31</title>
<g id="a_node23"><a xlink:href="texture__bonus_8h.html" target="_top" xlink:title=" ">
<polygon fill="none" stroke="red" points="1115,-67.5 1115,-86.5 1228,-86.5 1228,-67.5 1115,-67.5"/>
<text text-anchor="middle" x="1171.5" y="-74.5" font-family="Helvetica,sans-Serif" font-size="10.00">inc/texture_bonus.h</text>
</a>
</g>
</g>
<!-- Node23&#45;&gt;Node31 -->
<g id="edge23" class="edge">
<title>Node23&#45;&gt;Node31</title>
<path fill="none" stroke="midnightblue" d="M1429.5,-127.05C1368.87,-115.52 1272.47,-97.19 1216.26,-86.51"/>
<polygon fill="midnightblue" stroke="midnightblue" points="1429.18,-130.55 1439.65,-128.98 1430.48,-123.67 1429.18,-130.55"/>
</g>
<!-- Node33 -->
<g id="node24" class="node">
<title>Node33</title>
<g id="a_node24"><a xlink:href="utils__cylinder__bonus_8c.html" target="_top" xlink:title=" ">
<polygon fill="none" stroke="black" points="1079,-0.5 1079,-30.5 1178,-30.5 1178,-0.5 1079,-0.5"/>
<text text-anchor="start" x="1087" y="-18.5" font-family="Helvetica,sans-Serif" font-size="10.00">src/utils_cylinder</text>
<text text-anchor="middle" x="1128.5" y="-7.5" font-family="Helvetica,sans-Serif" font-size="10.00">_bonus.c</text>
</a>
</g>
</g>
<!-- Node23&#45;&gt;Node33 -->
<g id="edge32" class="edge">
<title>Node23&#45;&gt;Node33</title>
<path fill="none" stroke="midnightblue" d="M1404.64,-132.4C1299.3,-124.84 1124.89,-109.14 1105.5,-87 1091.42,-70.92 1105.27,-46.05 1116.75,-30.55"/>
<polygon fill="midnightblue" stroke="midnightblue" points="1404.71,-135.91 1414.93,-133.13 1405.2,-128.93 1404.71,-135.91"/>
</g>
<!-- Node34 -->
<g id="node25" class="node">
<title>Node34</title>
<g id="a_node25"><a xlink:href="hit__bonus_8c.html" target="_top" xlink:title=" ">
<polygon fill="none" stroke="black" points="1246,-67.5 1246,-86.5 1335,-86.5 1335,-67.5 1246,-67.5"/>
<text text-anchor="middle" x="1290.5" y="-74.5" font-family="Helvetica,sans-Serif" font-size="10.00">src/hit_bonus.c</text>
</a>
</g>
</g>
<!-- Node23&#45;&gt;Node34 -->
<g id="edge26" class="edge">
<title>Node23&#45;&gt;Node34</title>
<path fill="none" stroke="midnightblue" d="M1447.1,-126.03C1409.39,-114.46 1352.07,-96.88 1318.24,-86.51"/>
<polygon fill="midnightblue" stroke="midnightblue" points="1446.12,-129.39 1456.7,-128.98 1448.17,-122.7 1446.12,-129.39"/>
</g>
<!-- Node35 -->
<g id="node26" class="node">
<title>Node35</title>
<g id="a_node26"><a xlink:href="hit__cone__bonus_8c.html" target="_top" xlink:title=" ">
<polygon fill="none" stroke="black" points="1353.5,-67.5 1353.5,-86.5 1471.5,-86.5 1471.5,-67.5 1353.5,-67.5"/>
<text text-anchor="middle" x="1412.5" y="-74.5" font-family="Helvetica,sans-Serif" font-size="10.00">src/hit_cone_bonus.c</text>
</a>
</g>
</g>
<!-- Node23&#45;&gt;Node35 -->
<g id="edge27" class="edge">
<title>Node23&#45;&gt;Node35</title>
<path fill="none" stroke="midnightblue" d="M1466.32,-122.47C1452.54,-111.09 1434.12,-95.87 1422.8,-86.51"/>
<polygon fill="midnightblue" stroke="midnightblue" points="1464.25,-125.3 1474.18,-128.98 1468.71,-119.91 1464.25,-125.3"/>
</g>
<!-- Node36 -->
<g id="node27" class="node">
<title>Node36</title>
<g id="a_node27"><a xlink:href="hit__cylinder__bonus_8c.html" target="_top" xlink:title=" ">
<polygon fill="none" stroke="black" points="1489.5,-67.5 1489.5,-86.5 1623.5,-86.5 1623.5,-67.5 1489.5,-67.5"/>
<text text-anchor="middle" x="1556.5" y="-74.5" font-family="Helvetica,sans-Serif" font-size="10.00">src/hit_cylinder_bonus.c</text>
</a>
</g>
</g>
<!-- Node23&#45;&gt;Node36 -->
<g id="edge28" class="edge">
<title>Node23&#45;&gt;Node36</title>
<path fill="none" stroke="midnightblue" d="M1502.68,-122.47C1516.46,-111.09 1534.88,-95.87 1546.2,-86.51"/>
<polygon fill="midnightblue" stroke="midnightblue" points="1500.29,-119.91 1494.82,-128.98 1504.75,-125.3 1500.29,-119.91"/>
</g>
<!-- Node37 -->
<g id="node28" class="node">
<title>Node37</title>
<g id="a_node28"><a xlink:href="hit__plane__bonus_8c.html" target="_top" xlink:title=" ">
<polygon fill="none" stroke="black" points="1641.5,-67.5 1641.5,-86.5 1763.5,-86.5 1763.5,-67.5 1641.5,-67.5"/>
<text text-anchor="middle" x="1702.5" y="-74.5" font-family="Helvetica,sans-Serif" font-size="10.00">src/hit_plane_bonus.c</text>
</a>
</g>
</g>
<!-- Node23&#45;&gt;Node37 -->
<g id="edge29" class="edge">
<title>Node23&#45;&gt;Node37</title>
<path fill="none" stroke="midnightblue" d="M1525.45,-126.32C1567.8,-114.76 1632.98,-96.97 1671.32,-86.51"/>
<polygon fill="midnightblue" stroke="midnightblue" points="1524.46,-122.97 1515.73,-128.98 1526.3,-129.72 1524.46,-122.97"/>
</g>
<!-- Node38 -->
<g id="node29" class="node">
<title>Node38</title>
<g id="a_node29"><a xlink:href="hit__sphere__bonus_8c.html" target="_top" xlink:title=" ">
<polygon fill="none" stroke="black" points="1781.5,-67.5 1781.5,-86.5 1909.5,-86.5 1909.5,-67.5 1781.5,-67.5"/>
<text text-anchor="middle" x="1845.5" y="-74.5" font-family="Helvetica,sans-Serif" font-size="10.00">src/hit_sphere_bonus.c</text>
</a>
</g>
</g>
<!-- Node23&#45;&gt;Node38 -->
<g id="edge30" class="edge">
<title>Node23&#45;&gt;Node38</title>
<path fill="none" stroke="midnightblue" d="M1546.2,-127.33C1616.03,-115.82 1728.51,-97.28 1793.87,-86.51"/>
<polygon fill="midnightblue" stroke="midnightblue" points="1545.52,-123.9 1536.22,-128.98 1546.66,-130.8 1545.52,-123.9"/>
</g>
<!-- Node39 -->
<g id="node30" class="node">
<title>Node39</title>
<g id="a_node30"><a xlink:href="utils__cone__bonus_8c.html" target="_top" xlink:title=" ">
<polygon fill="none" stroke="black" points="1927.5,-67.5 1927.5,-86.5 2053.5,-86.5 2053.5,-67.5 1927.5,-67.5"/>
<text text-anchor="middle" x="1990.5" y="-74.5" font-family="Helvetica,sans-Serif" font-size="10.00">src/utils_cone_bonus.c</text>
</a>
</g>
</g>
<!-- Node23&#45;&gt;Node39 -->
<g id="edge31" class="edge">
<title>Node23&#45;&gt;Node39</title>
<path fill="none" stroke="midnightblue" d="M1564.12,-128.44C1651.18,-118.49 1794.81,-101.93 1918.5,-87 1921.38,-86.65 1924.32,-86.3 1927.29,-85.93"/>
<polygon fill="midnightblue" stroke="midnightblue" points="1563.59,-124.98 1554.05,-129.59 1564.38,-131.93 1563.59,-124.98"/>
</g>
<!-- Node31&#45;&gt;Node28 -->
<g id="edge24" class="edge">
<title>Node31&#45;&gt;Node28</title>
<path fill="none" stroke="midnightblue" d="M1238.62,-66.78C1404.84,-47.07 1589.12,-29.8 1680.32,-21.57"/>
<polygon fill="midnightblue" stroke="midnightblue" points="1237.72,-63.36 1228.2,-68.02 1238.55,-70.31 1237.72,-63.36"/>
</g>
<!-- Node31&#45;&gt;Node33 -->
<g id="edge25" class="edge">
<title>Node31&#45;&gt;Node33</title>
<path fill="none" stroke="midnightblue" d="M1159.39,-59.25C1152.84,-50.19 1144.85,-39.12 1138.63,-30.52"/>
<polygon fill="midnightblue" stroke="midnightblue" points="1156.64,-61.42 1165.34,-67.48 1162.32,-57.32 1156.64,-61.42"/>
</g>
<!-- Node56&#45;&gt;Node6 -->
<g id="edge35" class="edge">
<title>Node56&#45;&gt;Node6</title>
<path fill="none" stroke="midnightblue" d="M616.25,-125.43C585.35,-113.87 539.49,-96.71 512.24,-86.51"/>
<polygon fill="midnightblue" stroke="midnightblue" points="615.13,-128.75 625.72,-128.98 617.58,-122.19 615.13,-128.75"/>
</g>
<!-- Node90 -->
<g id="node36" class="node">
<title>Node90</title>
<g id="a_node36"><a xlink:href="colour_8c.html" target="_top" xlink:title=" ">
<polygon fill="none" stroke="black" points="1302,-246.5 1302,-265.5 1373,-265.5 1373,-246.5 1302,-246.5"/>
<text text-anchor="middle" x="1337.5" y="-253.5" font-family="Helvetica,sans-Serif" font-size="10.00">src/colour.c</text>
</a>
</g>
</g>
<!-- Node89&#45;&gt;Node90 -->
<g id="edge41" class="edge">
<title>Node89&#45;&gt;Node90</title>
<path fill="none" stroke="midnightblue" d="M1337.5,-297.82C1337.5,-287 1337.5,-273.9 1337.5,-265.51"/>
<polygon fill="midnightblue" stroke="midnightblue" points="1334,-297.98 1337.5,-307.98 1341,-297.98 1334,-297.98"/>
</g>
<!-- Node91&#45;&gt;Node3 -->
<g id="edge43" class="edge">
<title>Node91&#45;&gt;Node3</title>
<path fill="none" stroke="midnightblue" d="M877.82,-301.67C891.06,-291.84 908.58,-278.49 923.5,-266 946.56,-246.69 972.29,-222.4 985.54,-209.68"/>
<polygon fill="midnightblue" stroke="midnightblue" points="875.4,-299.11 869.43,-307.87 879.55,-304.75 875.4,-299.11"/>
</g>
<!-- Node92 -->
<g id="node38" class="node">
<title>Node92</title>
<g id="a_node38"><a xlink:href="entities_8h.html" target="_top" xlink:title=" ">
<polygon fill="none" stroke="black" points="576.5,-246.5 576.5,-265.5 656.5,-265.5 656.5,-246.5 576.5,-246.5"/>
<text text-anchor="middle" x="616.5" y="-253.5" font-family="Helvetica,sans-Serif" font-size="10.00">inc/entities.h</text>
</a>
</g>
</g>
<!-- Node91&#45;&gt;Node92 -->
<g id="edge44" class="edge">
<title>Node91&#45;&gt;Node92</title>
<path fill="none" stroke="midnightblue" d="M813.11,-305.54C766.32,-293.99 693.62,-276.04 650.97,-265.51"/>
<polygon fill="midnightblue" stroke="midnightblue" points="812.42,-308.98 822.97,-307.98 814.1,-302.18 812.42,-308.98"/>
</g>
<!-- Node93 -->
<g id="node39" class="node">
<title>Node93</title>
<g id="a_node39"><a xlink:href="entities__bonus_8h.html" target="_top" xlink:title=" ">
<polygon fill="none" stroke="red" points="800.5,-246.5 800.5,-265.5 914.5,-265.5 914.5,-246.5 800.5,-246.5"/>
<text text-anchor="middle" x="857.5" y="-253.5" font-family="Helvetica,sans-Serif" font-size="10.00">inc/entities_bonus.h</text>
</a>
</g>
</g>
<!-- Node91&#45;&gt;Node93 -->
<g id="edge45" class="edge">
<title>Node91&#45;&gt;Node93</title>
<path fill="none" stroke="midnightblue" d="M857.5,-297.82C857.5,-287 857.5,-273.9 857.5,-265.51"/>
<polygon fill="midnightblue" stroke="midnightblue" points="854,-297.98 857.5,-307.98 861,-297.98 854,-297.98"/>
</g>
<!-- Node119 -->
<g id="node40" class="node">
<title>Node119</title>
<g id="a_node40"><a xlink:href="colour__bonus_8c.html" target="_top" xlink:title=" ">
<polygon fill="none" stroke="black" points="675,-246.5 675,-265.5 782,-265.5 782,-246.5 675,-246.5"/>
<text text-anchor="middle" x="728.5" y="-253.5" font-family="Helvetica,sans-Serif" font-size="10.00">src/colour_bonus.c</text>
</a>
</g>
</g>
<!-- Node91&#45;&gt;Node119 -->
<g id="edge52" class="edge">
<title>Node91&#45;&gt;Node119</title>
<path fill="none" stroke="midnightblue" d="M829.69,-303.67C804.66,-292.13 768.58,-275.49 746.95,-265.51"/>
<polygon fill="midnightblue" stroke="midnightblue" points="828.47,-306.96 839.02,-307.98 831.4,-300.61 828.47,-306.96"/>
</g>
<!-- Node93&#45;&gt;Node3 -->
<g id="edge46" class="edge">
<title>Node93&#45;&gt;Node3</title>
<path fill="none" stroke="midnightblue" d="M888.52,-242.77C914.26,-232.63 950.19,-218.47 972.89,-209.52"/>
<polygon fill="midnightblue" stroke="midnightblue" points="887.23,-239.52 879.21,-246.44 889.79,-246.03 887.23,-239.52"/>
</g>
<!-- Node93&#45;&gt;Node8 -->
<g id="edge47" class="edge">
<title>Node93&#45;&gt;Node8</title>
<path fill="none" stroke="midnightblue" d="M790.81,-246.04C790.7,-246.03 790.6,-246.01 790.5,-246 754.52,-241.57 515.02,-215.01 423.74,-204.9"/>
<polygon fill="midnightblue" stroke="midnightblue" points="790.13,-249.48 800.49,-247.26 791.01,-242.54 790.13,-249.48"/>
</g>
<!-- Node93&#45;&gt;Node13 -->
<g id="edge48" class="edge">
<title>Node93&#45;&gt;Node13</title>
<path fill="none" stroke="midnightblue" d="M795.87,-244.79C734.27,-234.59 640.64,-219.08 582.91,-209.52"/>
<polygon fill="midnightblue" stroke="midnightblue" points="795.41,-248.26 805.84,-246.44 796.55,-241.36 795.41,-248.26"/>
</g>
<!-- Node93&#45;&gt;Node16 -->
<g id="edge49" class="edge">
<title>Node93&#45;&gt;Node16</title>
<path fill="none" stroke="midnightblue" d="M851.64,-236.4C848.8,-227.36 845.52,-216.94 843.25,-209.75"/>
<polygon fill="midnightblue" stroke="midnightblue" points="848.35,-237.6 854.69,-246.08 855.03,-235.49 848.35,-237.6"/>
</g>
<!-- Node93&#45;&gt;Node40 -->
<g id="edge50" class="edge">
<title>Node93&#45;&gt;Node40</title>
<path fill="none" stroke="midnightblue" d="M876.88,-239.57C891.36,-226.13 906.85,-206.29 895.5,-190 892.17,-185.22 822.85,-161.22 784.12,-148.1"/>
<polygon fill="midnightblue" stroke="midnightblue" points="874.37,-237.12 869.12,-246.32 878.96,-242.4 874.37,-237.12"/>
</g>
<!-- Node93&#45;&gt;Node56 -->
<g id="edge51" class="edge">
<title>Node93&#45;&gt;Node56</title>
<path fill="none" stroke="midnightblue" d="M795.71,-244.73C730.33,-233.57 635.81,-216.47 630.5,-210 615.59,-191.84 631.85,-162.85 641.85,-148.36"/>
<polygon fill="midnightblue" stroke="midnightblue" points="795.49,-248.25 805.94,-246.47 796.67,-241.34 795.49,-248.25"/>
</g>
<!-- Node120&#45;&gt;Node3 -->
<g id="edge56" class="edge">
<title>Node120&#45;&gt;Node3</title>
<path fill="none" stroke="midnightblue" d="M1121.8,-243.17C1091.1,-233 1047.58,-218.59 1020.21,-209.52"/>
<polygon fill="midnightblue" stroke="midnightblue" points="1121.08,-246.62 1131.67,-246.44 1123.28,-239.98 1121.08,-246.62"/>
</g>
<!-- Node121 -->
<g id="node42" class="node">
<title>Node121</title>
<g id="a_node42"><a xlink:href="mat4__vec3_8h.html" target="_top" xlink:title=" ">
<polygon fill="none" stroke="red" points="640,-190.5 640,-209.5 737,-209.5 737,-190.5 640,-190.5"/>
<text text-anchor="middle" x="688.5" y="-197.5" font-family="Helvetica,sans-Serif" font-size="10.00">inc/mat4_vec3.h</text>
</a>
</g>
</g>
<!-- Node120&#45;&gt;Node121 -->
<g id="edge57" class="edge">
<title>Node120&#45;&gt;Node121</title>
<path fill="none" stroke="midnightblue" d="M1113.21,-249.9C1025.15,-239.76 828.7,-217.14 737.17,-206.6"/>
<polygon fill="midnightblue" stroke="midnightblue" points="1113.06,-253.41 1123.39,-251.07 1113.86,-246.45 1113.06,-253.41"/>
</g>
<!-- Node123 -->
<g id="node43" class="node">
<title>Node123</title>
<g id="a_node43"><a xlink:href="mat4_8c.html" target="_top" xlink:title=" ">
<polygon fill="none" stroke="black" points="1231.5,-190.5 1231.5,-209.5 1299.5,-209.5 1299.5,-190.5 1231.5,-190.5"/>
<text text-anchor="middle" x="1265.5" y="-197.5" font-family="Helvetica,sans-Serif" font-size="10.00">src/mat4.c</text>
</a>
</g>
</g>
<!-- Node120&#45;&gt;Node123 -->
<g id="edge60" class="edge">
<title>Node120&#45;&gt;Node123</title>
<path fill="none" stroke="midnightblue" d="M1184.05,-241.73C1204.05,-231.73 1230.89,-218.31 1248.19,-209.65"/>
<polygon fill="midnightblue" stroke="midnightblue" points="1182.23,-238.72 1174.85,-246.32 1185.36,-244.98 1182.23,-238.72"/>
</g>
<!-- Node124 -->
<g id="node44" class="node">
<title>Node124</title>
<g id="a_node44"><a xlink:href="mat4__rotation_8c.html" target="_top" xlink:title=" ">
<polygon fill="none" stroke="black" points="1102,-190.5 1102,-209.5 1213,-209.5 1213,-190.5 1102,-190.5"/>
<text text-anchor="middle" x="1157.5" y="-197.5" font-family="Helvetica,sans-Serif" font-size="10.00">src/mat4_rotation.c</text>
</a>
</g>
</g>
<!-- Node120&#45;&gt;Node124 -->
<g id="edge61" class="edge">
<title>Node120&#45;&gt;Node124</title>
<path fill="none" stroke="midnightblue" d="M1157.5,-235.8C1157.5,-226.91 1157.5,-216.78 1157.5,-209.75"/>
<polygon fill="midnightblue" stroke="midnightblue" points="1154,-236.08 1157.5,-246.08 1161,-236.08 1154,-236.08"/>
</g>
<!-- Node121&#45;&gt;Node40 -->
<g id="edge58" class="edge">
<title>Node121&#45;&gt;Node40</title>
<path fill="none" stroke="midnightblue" d="M706.18,-183.97C719.57,-172.59 737.48,-157.37 748.49,-148.01"/>
<polygon fill="midnightblue" stroke="midnightblue" points="703.88,-181.33 698.53,-190.48 708.42,-186.67 703.88,-181.33"/>
</g>
<!-- Node121&#45;&gt;Node56 -->
<g id="edge59" class="edge">
<title>Node121&#45;&gt;Node56</title>
<path fill="none" stroke="midnightblue" d="M677.07,-182.01C669.6,-170.89 660.16,-156.84 654.22,-148.01"/>
<polygon fill="midnightblue" stroke="midnightblue" points="674.29,-184.13 682.77,-190.48 680.09,-180.22 674.29,-184.13"/>
</g>
</g>
</svg>
        <g id="navigator" transform="translate(0 0)" fill="#404254">
                <rect fill="#f2f5e9" fill-opacity="0.5" stroke="#606060" stroke-width=".5" x="0" y="0" width="60" height="60"/>
                <use id="zoomplus" xlink:href="#zoomPlus" x="17" y="9" onmousedown="handleZoom(evt,'in')"/>
                <use id="zoomminus" xlink:href="#zoomMin" x="42" y="9" onmousedown="handleZoom(evt,'out')"/>
                <use id="reset" xlink:href="#resetDef" x="30" y="36" onmousedown="handleReset()"/>
                <g id="arrowUp" xlink:href="#dirArrow" transform="translate(30 24)" onmousedown="handlePan(0,-1)">
                  <use xlink:href="#rim" fill="#404040">
                        <set attributeName="fill" to="#808080" begin="arrowUp.mouseover" end="arrowUp.mouseout"/>
                  </use>
                  <path fill="none" stroke="white" stroke-width="1.5" d="M0,-3.0v7 M-2.5,-0.5L0,-3.0L2.5,-0.5"/>
                </g>
                <g id="arrowRight" xlink:href="#dirArrow" transform="rotate(90) translate(36 -43)" onmousedown="handlePan(1,0)">
                  <use xlink:href="#rim" fill="#404040">
                        <set attributeName="fill" to="#808080" begin="arrowRight.mouseover" end="arrowRight.mouseout"/>
                  </use>
                  <path fill="none" stroke="white" stroke-width="1.5" d="M0,-3.0v7 M-2.5,-0.5L0,-3.0L2.5,-0.5"/>
                </g>
                <g id="arrowDown" xlink:href="#dirArrow" transform="rotate(180) translate(-30 -48)" onmousedown="handlePan(0,1)">
                  <use xlink:href="#rim" fill="#404040">
                        <set attributeName="fill" to="#808080" begin="arrowDown.mouseover" end="arrowDown.mouseout"/>
                  </use>
                  <path fill="none" stroke="white" stroke-width="1.5" d="M0,-3.0v7 M-2.5,-0.5L0,-3.0L2.5,-0.5"/>
                </g>
                <g id="arrowLeft" xlink:href="#dirArrow" transform="rotate(270) translate(-36 17)" onmousedown="handlePan(-1,0)">
                  <use xlink:href="#rim" fill="#404040">
                        <set attributeName="fill" to="#808080" begin="arrowLeft.mouseover" end="arrowLeft.mouseout"/>
                  </use>
                  <path fill="none" stroke="white" stroke-width="1.5" d="M0,-3.0v7 M-2.5,-0.5L0,-3.0L2.5,-0.5"/>
                </g>
        </g>
        <svg viewBox="0 0 15 15" width="100%" height="30px" preserveAspectRatio="xMaxYMin meet">
         <g id="arrow_out" transform="scale(0.3 0.3)">
          <a xlink:href="utils__bonus_8h__dep__incl_org.svg" target="_base">
           <rect id="button" ry="5" rx="5" y="6" x="6" height="38" width="38"
                fill="#f2f5e9" fill-opacity="0.5" stroke="#606060" stroke-width="1.0"/>
           <path id="arrow"
             d="M 11.500037,31.436501 C 11.940474,20.09759 22.043105,11.32322 32.158766,21.979434 L 37.068811,17.246167 C 37.068811,17.246167 37.088388,32 37.088388,32 L 22.160133,31.978069 C 22.160133,31.978069 26.997745,27.140456 26.997745,27.140456 C 18.528582,18.264221 13.291696,25.230495 11.500037,31.436501 z"
             style="fill:#404040;"/>
          </a>
         </g>
        </svg>
</svg>
