<?xml version="1.0" encoding="UTF-8" standalone="no"?>
<!DOCTYPE svg PUBLIC "-//W3C//DTD SVG 1.1//EN"
 "http://www.w3.org/Graphics/SVG/1.1/DTD/svg11.dtd">
<!-- Generated by graphviz version 2.43.0 (0)
 -->
<!-- Title: src/utils_interval.c Pages: 1 -->
<svg width="148pt" height="196pt"
 viewBox="0.00 0.00 147.50 196.00" xmlns="http://www.w3.org/2000/svg" xmlns:xlink="http://www.w3.org/1999/xlink">
<g id="graph0" class="graph" transform="scale(1 1) rotate(0) translate(4 192)">
<title>src/utils_interval.c</title>
<!-- Node1 -->
<g id="node1" class="node">
<title>Node1</title>
<g id="a_node1"><a xlink:title=" ">
<polygon fill="#bfbfbf" stroke="black" points="10.5,-168.5 10.5,-187.5 116.5,-187.5 116.5,-168.5 10.5,-168.5"/>
<text text-anchor="middle" x="63.5" y="-175.5" font-family="Helvetica,sans-Serif" font-size="10.00">src/utils_interval.c</text>
</a>
</g>
</g>
<!-- Node2 -->
<g id="node2" class="node">
<title>Node2</title>
<g id="a_node2"><a xlink:href="utils_8h.html" target="_top" xlink:title=" ">
<polygon fill="none" stroke="black" points="40,-112.5 40,-131.5 87,-131.5 87,-112.5 40,-112.5"/>
<text text-anchor="middle" x="63.5" y="-119.5" font-family="Helvetica,sans-Serif" font-size="10.00">utils.h</text>
</a>
</g>
</g>
<!-- Node1&#45;&gt;Node2 -->
<g id="edge1" class="edge">
<title>Node1&#45;&gt;Node2</title>
<path fill="none" stroke="midnightblue" d="M63.5,-168.08C63.5,-161.01 63.5,-150.86 63.5,-141.99"/>
<polygon fill="midnightblue" stroke="midnightblue" points="67,-141.75 63.5,-131.75 60,-141.75 67,-141.75"/>
</g>
<!-- Node3 -->
<g id="node3" class="node">
<title>Node3</title>
<g id="a_node3"><a xlink:title=" ">
<polygon fill="none" stroke="#bfbfbf" points="0,-0.5 0,-19.5 51,-19.5 51,-0.5 0,-0.5"/>
<text text-anchor="middle" x="25.5" y="-7.5" font-family="Helvetica,sans-Serif" font-size="10.00">math.h</text>
</a>
</g>
</g>
<!-- Node2&#45;&gt;Node3 -->
<g id="edge2" class="edge">
<title>Node2&#45;&gt;Node3</title>
<path fill="none" stroke="midnightblue" d="M54.41,-112.32C46.27,-103.9 34.8,-90.33 29.5,-76 24.04,-61.24 23.34,-43.31 23.83,-30.02"/>
<polygon fill="midnightblue" stroke="midnightblue" points="27.34,-29.94 24.48,-19.74 20.36,-29.5 27.34,-29.94"/>
</g>
<!-- Node4 -->
<g id="node4" class="node">
<title>Node4</title>
<g id="a_node4"><a xlink:title=" ">
<polygon fill="none" stroke="#bfbfbf" points="77.5,-0.5 77.5,-19.5 139.5,-19.5 139.5,-0.5 77.5,-0.5"/>
<text text-anchor="middle" x="108.5" y="-7.5" font-family="Helvetica,sans-Serif" font-size="10.00">stdbool.h</text>
</a>
</g>
</g>
<!-- Node2&#45;&gt;Node4 -->
<g id="edge3" class="edge">
<title>Node2&#45;&gt;Node4</title>
<path fill="none" stroke="midnightblue" d="M71.64,-112.44C79.28,-103.9 90.43,-90.05 96.5,-76 102.83,-61.33 105.83,-43.4 107.24,-30.08"/>
<polygon fill="midnightblue" stroke="midnightblue" points="110.76,-30.03 108.12,-19.77 103.78,-29.44 110.76,-30.03"/>
</g>
<!-- Node5 -->
<g id="node5" class="node">
<title>Node5</title>
<g id="a_node5"><a xlink:href="vec3_8h.html" target="_top" xlink:title=" ">
<polygon fill="none" stroke="black" points="39,-56.5 39,-75.5 88,-75.5 88,-56.5 39,-56.5"/>
<text text-anchor="middle" x="63.5" y="-63.5" font-family="Helvetica,sans-Serif" font-size="10.00">vec3.h</text>
</a>
</g>
</g>
<!-- Node2&#45;&gt;Node5 -->
<g id="edge4" class="edge">
<title>Node2&#45;&gt;Node5</title>
<path fill="none" stroke="midnightblue" d="M63.5,-112.08C63.5,-105.01 63.5,-94.86 63.5,-85.99"/>
<polygon fill="midnightblue" stroke="midnightblue" points="67,-85.75 63.5,-75.75 60,-85.75 67,-85.75"/>
</g>
<!-- Node5&#45;&gt;Node3 -->
<g id="edge5" class="edge">
<title>Node5&#45;&gt;Node3</title>
<path fill="none" stroke="midnightblue" d="M57.23,-56.08C51.86,-48.46 43.98,-37.26 37.42,-27.94"/>
<polygon fill="midnightblue" stroke="midnightblue" points="40.28,-25.91 31.66,-19.75 34.55,-29.94 40.28,-25.91"/>
</g>
<!-- Node5&#45;&gt;Node4 -->
<g id="edge6" class="edge">
<title>Node5&#45;&gt;Node4</title>
<path fill="none" stroke="midnightblue" d="M70.93,-56.08C77.35,-48.38 86.81,-37.03 94.62,-27.65"/>
<polygon fill="midnightblue" stroke="midnightblue" points="97.49,-29.67 101.21,-19.75 92.12,-25.19 97.49,-29.67"/>
</g>
</g>
</svg>
