<?xml version="1.0" encoding="UTF-8" standalone="no"?>
<!DOCTYPE svg PUBLIC "-//W3C//DTD SVG 1.1//EN"
 "http://www.w3.org/Graphics/SVG/1.1/DTD/svg11.dtd">
<!-- Generated by graphviz version 2.43.0 (0)
 -->
<!-- Title: ft_cy_calc_caps Pages: 1 -->
<svg width="485pt" height="66pt"
 viewBox="0.00 0.00 485.00 66.00" xmlns="http://www.w3.org/2000/svg" xmlns:xlink="http://www.w3.org/1999/xlink">
<g id="graph0" class="graph" transform="scale(1 1) rotate(0) translate(4 62)">
<title>ft_cy_calc_caps</title>
<!-- Node1 -->
<g id="node1" class="node">
<title>Node1</title>
<g id="a_node1"><a xlink:title="Calculates the planes of the caps of a cylinder.">
<polygon fill="#bfbfbf" stroke="black" points="385,-19.5 385,-38.5 477,-38.5 477,-19.5 385,-19.5"/>
<text text-anchor="middle" x="431" y="-26.5" font-family="Helvetica,sans-Serif" font-size="10.00">ft_cy_calc_caps</text>
</a>
</g>
</g>
<!-- Node2 -->
<g id="node2" class="node">
<title>Node2</title>
<g id="a_node2"><a xlink:href="render_8h.html#af500a65a1e441d08240efa30fa8c1e27" target="_top" xlink:title="Manipulates the active cylinder.">
<polygon fill="none" stroke="black" points="245,-38.5 245,-57.5 349,-57.5 349,-38.5 245,-38.5"/>
<text text-anchor="middle" x="297" y="-45.5" font-family="Helvetica,sans-Serif" font-size="10.00">ft_manip_cylinder</text>
</a>
</g>
</g>
<!-- Node1&#45;&gt;Node2 -->
<g id="edge1" class="edge">
<title>Node1&#45;&gt;Node2</title>
<path fill="none" stroke="midnightblue" d="M374.77,-36.95C366.3,-38.17 357.59,-39.42 349.21,-40.63"/>
<polygon fill="midnightblue" stroke="midnightblue" points="375.54,-40.37 384.94,-35.49 374.55,-33.45 375.54,-40.37"/>
</g>
<!-- Node3 -->
<g id="node3" class="node">
<title>Node3</title>
<g id="a_node3"><a xlink:href="parse_8h.html#aa8d46dc12737db49e568b734cdbc614a" target="_top" xlink:title="Parse cylinder line.">
<polygon fill="none" stroke="black" points="247,-0.5 247,-19.5 347,-19.5 347,-0.5 247,-0.5"/>
<text text-anchor="middle" x="297" y="-7.5" font-family="Helvetica,sans-Serif" font-size="10.00">ft_parse_cylinder</text>
</a>
</g>
</g>
<!-- Node1&#45;&gt;Node3 -->
<g id="edge2" class="edge">
<title>Node1&#45;&gt;Node3</title>
<path fill="none" stroke="midnightblue" d="M374.82,-21.06C365.72,-19.75 356.33,-18.4 347.38,-17.11"/>
<polygon fill="midnightblue" stroke="midnightblue" points="374.55,-24.55 384.94,-22.51 375.54,-17.63 374.55,-24.55"/>
</g>
<!-- Node4 -->
<g id="node4" class="node">
<title>Node4</title>
<g id="a_node4"><a xlink:href="parse_8c.html#ad530c7e1381c551510afa73f881fb907" target="_top" xlink:title=" ">
<polygon fill="none" stroke="black" points="120,-0.5 120,-19.5 209,-19.5 209,-0.5 120,-0.5"/>
<text text-anchor="middle" x="164.5" y="-7.5" font-family="Helvetica,sans-Serif" font-size="10.00">ft_parse_entity</text>
</a>
</g>
</g>
<!-- Node3&#45;&gt;Node4 -->
<g id="edge3" class="edge">
<title>Node3&#45;&gt;Node4</title>
<path fill="none" stroke="midnightblue" d="M236.46,-10C227.33,-10 218.05,-10 209.34,-10"/>
<polygon fill="midnightblue" stroke="midnightblue" points="236.66,-13.5 246.66,-10 236.66,-6.5 236.66,-13.5"/>
</g>
<!-- Node5 -->
<g id="node5" class="node">
<title>Node5</title>
<g id="a_node5"><a xlink:href="parse_8h.html#a5da409b03d9f22daaa6d5673944800d3" target="_top" xlink:title="Dispatcher for different parsing functions.">
<polygon fill="none" stroke="black" points="0,-0.5 0,-19.5 84,-19.5 84,-0.5 0,-0.5"/>
<text text-anchor="middle" x="42" y="-7.5" font-family="Helvetica,sans-Serif" font-size="10.00">ft_parse_lines</text>
</a>
</g>
</g>
<!-- Node4&#45;&gt;Node5 -->
<g id="edge4" class="edge">
<title>Node4&#45;&gt;Node5</title>
<path fill="none" stroke="midnightblue" d="M109.93,-10C101.24,-10 92.36,-10 84.03,-10"/>
<polygon fill="midnightblue" stroke="midnightblue" points="110,-13.5 120,-10 110,-6.5 110,-13.5"/>
</g>
</g>
</svg>
