<?xml version="1.0" encoding="UTF-8" standalone="no"?>
<!DOCTYPE svg PUBLIC "-//W3C//DTD SVG 1.1//EN"
 "http://www.w3.org/Graphics/SVG/1.1/DTD/svg11.dtd">
<!-- Generated by graphviz version 2.43.0 (0)
 -->
<!-- Title: inc/utils_bonus.h Pages: 1 -->
<svg width="2173pt" height="397pt"
 viewBox="0.00 0.00 2173.00 397.00" xmlns="http://www.w3.org/2000/svg" xmlns:xlink="http://www.w3.org/1999/xlink">
<g id="graph0" class="graph" transform="scale(1 1) rotate(0) translate(4 393)">
<title>inc/utils_bonus.h</title>
<!-- Node1 -->
<g id="node1" class="node">
<title>Node1</title>
<g id="a_node1"><a xlink:title=" ">
<polygon fill="#bfbfbf" stroke="black" points="1336.5,-369.5 1336.5,-388.5 1434.5,-388.5 1434.5,-369.5 1336.5,-369.5"/>
<text text-anchor="middle" x="1385.5" y="-376.5" font-family="Helvetica,sans-Serif" font-size="10.00">inc/utils_bonus.h</text>
</a>
</g>
</g>
<!-- Node2 -->
<g id="node2" class="node">
<title>Node2</title>
<g id="a_node2"><a xlink:href="camera_8h.html" target="_top" xlink:title=" ">
<polygon fill="none" stroke="black" points="424.5,-246.5 424.5,-265.5 504.5,-265.5 504.5,-246.5 424.5,-246.5"/>
<text text-anchor="middle" x="464.5" y="-253.5" font-family="Helvetica,sans-Serif" font-size="10.00">inc/camera.h</text>
</a>
</g>
</g>
<!-- Node1&#45;&gt;Node2 -->
<g id="edge1" class="edge">
<title>Node1&#45;&gt;Node2</title>
<path fill="none" stroke="midnightblue" d="M1325.9,-377.61C1169.47,-376.08 750.06,-368.68 616.5,-333 561.2,-318.23 502.42,-282.2 477.2,-265.61"/>
<polygon fill="midnightblue" stroke="midnightblue" points="1326.22,-381.11 1336.26,-377.7 1326.29,-374.11 1326.22,-381.11"/>
</g>
<!-- Node37 -->
<g id="node13" class="node">
<title>Node37</title>
<g id="a_node13"><a xlink:href="hit__manager_8h.html" target="_top" xlink:title=" ">
<polygon fill="none" stroke="black" points="211.5,-129 211.5,-148 315.5,-148 315.5,-129 211.5,-129"/>
<text text-anchor="middle" x="263.5" y="-136" font-family="Helvetica,sans-Serif" font-size="10.00">inc/hit_manager.h</text>
</a>
</g>
</g>
<!-- Node1&#45;&gt;Node37 -->
<g id="edge54" class="edge">
<title>Node1&#45;&gt;Node37</title>
<path fill="none" stroke="midnightblue" d="M1326.43,-377.56C1159.97,-375.9 689.41,-368.14 539.5,-333 405.18,-301.51 330.3,-325.27 254.5,-210 241.89,-190.82 252.36,-162.3 259.02,-148.13"/>
<polygon fill="midnightblue" stroke="midnightblue" points="1326.45,-381.06 1336.48,-377.66 1326.52,-374.06 1326.45,-381.06"/>
</g>
<!-- Node43 -->
<g id="node19" class="node">
<title>Node43</title>
<g id="a_node19"><a xlink:href="hit__manager__bonus_8h.html" target="_top" xlink:title=" ">
<polygon fill="none" stroke="black" points="1378,-129 1378,-148 1517,-148 1517,-129 1378,-129"/>
<text text-anchor="middle" x="1447.5" y="-136" font-family="Helvetica,sans-Serif" font-size="10.00">inc/hit_manager_bonus.h</text>
</a>
</g>
</g>
<!-- Node1&#45;&gt;Node43 -->
<g id="edge55" class="edge">
<title>Node1&#45;&gt;Node43</title>
<path fill="none" stroke="midnightblue" d="M1374.69,-360.49C1366.51,-344.97 1357.76,-321.77 1364.5,-302 1381.17,-253.11 1414.77,-257.31 1435.5,-210 1444.67,-189.08 1446.86,-161.81 1447.36,-148.13"/>
<polygon fill="midnightblue" stroke="midnightblue" points="1371.81,-362.51 1379.81,-369.47 1377.89,-359.05 1371.81,-362.51"/>
</g>
<!-- Node80 -->
<g id="node33" class="node">
<title>Node80</title>
<g id="a_node33"><a xlink:href="colour_8h.html" target="_top" xlink:title=" ">
<polygon fill="none" stroke="black" points="625.5,-308 625.5,-327 697.5,-327 697.5,-308 625.5,-308"/>
<text text-anchor="middle" x="661.5" y="-315" font-family="Helvetica,sans-Serif" font-size="10.00">inc/colour.h</text>
</a>
</g>
</g>
<!-- Node1&#45;&gt;Node80 -->
<g id="edge39" class="edge">
<title>Node1&#45;&gt;Node80</title>
<path fill="none" stroke="midnightblue" d="M1326.3,-373.13C1181.84,-361.26 814.59,-331.08 697.77,-321.48"/>
<polygon fill="midnightblue" stroke="midnightblue" points="1326.05,-376.63 1336.31,-373.96 1326.63,-369.65 1326.05,-376.63"/>
</g>
<!-- Node83 -->
<g id="node36" class="node">
<title>Node83</title>
<g id="a_node36"><a xlink:href="colour__bonus_8h.html" target="_top" xlink:title=" ">
<polygon fill="none" stroke="black" points="1066,-308 1066,-327 1173,-327 1173,-308 1066,-308"/>
<text text-anchor="middle" x="1119.5" y="-315" font-family="Helvetica,sans-Serif" font-size="10.00">inc/colour_bonus.h</text>
</a>
</g>
</g>
<!-- Node1&#45;&gt;Node83 -->
<g id="edge42" class="edge">
<title>Node1&#45;&gt;Node83</title>
<path fill="none" stroke="midnightblue" d="M1337.48,-367.26C1285.88,-355.72 1204.91,-337.61 1157.54,-327.01"/>
<polygon fill="midnightblue" stroke="midnightblue" points="1336.87,-370.71 1347.39,-369.48 1338.39,-363.88 1336.87,-370.71"/>
</g>
<!-- Node114 -->
<g id="node41" class="node">
<title>Node114</title>
<g id="a_node41"><a xlink:href="mat4_8h.html" target="_top" xlink:title=" ">
<polygon fill="none" stroke="black" points="1273.5,-246.5 1273.5,-265.5 1341.5,-265.5 1341.5,-246.5 1273.5,-246.5"/>
<text text-anchor="middle" x="1307.5" y="-253.5" font-family="Helvetica,sans-Serif" font-size="10.00">inc/mat4.h</text>
</a>
</g>
</g>
<!-- Node1&#45;&gt;Node114 -->
<g id="edge56" class="edge">
<title>Node1&#45;&gt;Node114</title>
<path fill="none" stroke="midnightblue" d="M1362.86,-363.68C1352.02,-355.8 1339.66,-345.15 1331.5,-333 1317.01,-311.4 1310.86,-280.54 1308.61,-265.67"/>
<polygon fill="midnightblue" stroke="midnightblue" points="1360.9,-366.58 1371.12,-369.38 1364.88,-360.82 1360.9,-366.58"/>
</g>
<!-- Node119 -->
<g id="node45" class="node">
<title>Node119</title>
<g id="a_node45"><a xlink:href="utils__interval_8c.html" target="_top" xlink:title=" ">
<polygon fill="none" stroke="black" points="1373.5,-308 1373.5,-327 1479.5,-327 1479.5,-308 1373.5,-308"/>
<text text-anchor="middle" x="1426.5" y="-315" font-family="Helvetica,sans-Serif" font-size="10.00">src/utils_interval.c</text>
</a>
</g>
</g>
<!-- Node1&#45;&gt;Node119 -->
<g id="edge63" class="edge">
<title>Node1&#45;&gt;Node119</title>
<path fill="none" stroke="midnightblue" d="M1397.21,-361.01C1404.87,-349.89 1414.55,-335.84 1420.64,-327.01"/>
<polygon fill="midnightblue" stroke="midnightblue" points="1394.17,-359.25 1391.37,-369.48 1399.93,-363.23 1394.17,-359.25"/>
</g>
<!-- Node120 -->
<g id="node46" class="node">
<title>Node120</title>
<g id="a_node46"><a xlink:href="utils__math_8c.html" target="_top" xlink:title=" ">
<polygon fill="none" stroke="black" points="1497.5,-308 1497.5,-327 1591.5,-327 1591.5,-308 1497.5,-308"/>
<text text-anchor="middle" x="1544.5" y="-315" font-family="Helvetica,sans-Serif" font-size="10.00">src/utils_math.c</text>
</a>
</g>
</g>
<!-- Node1&#45;&gt;Node120 -->
<g id="edge64" class="edge">
<title>Node1&#45;&gt;Node120</title>
<path fill="none" stroke="midnightblue" d="M1417.75,-365.93C1448.65,-354.37 1494.51,-337.21 1521.76,-327.01"/>
<polygon fill="midnightblue" stroke="midnightblue" points="1416.42,-362.69 1408.28,-369.48 1418.87,-369.25 1416.42,-362.69"/>
</g>
<!-- Node121 -->
<g id="node47" class="node">
<title>Node121</title>
<g id="a_node47"><a xlink:href="utils__math__bonus_8c.html" target="_top" xlink:title=" ">
<polygon fill="none" stroke="black" points="1609.5,-308 1609.5,-327 1737.5,-327 1737.5,-308 1609.5,-308"/>
<text text-anchor="middle" x="1673.5" y="-315" font-family="Helvetica,sans-Serif" font-size="10.00">src/utils_math_bonus.c</text>
</a>
</g>
</g>
<!-- Node1&#45;&gt;Node121 -->
<g id="edge65" class="edge">
<title>Node1&#45;&gt;Node121</title>
<path fill="none" stroke="midnightblue" d="M1436.8,-367.4C1492.63,-355.87 1580.81,-337.65 1632.31,-327.01"/>
<polygon fill="midnightblue" stroke="midnightblue" points="1435.85,-364.02 1426.76,-369.48 1437.26,-370.88 1435.85,-364.02"/>
</g>
<!-- Node122 -->
<g id="node48" class="node">
<title>Node122</title>
<g id="a_node48"><a xlink:href="utils__quaternion__bonus_8c.html" target="_top" xlink:title=" ">
<polygon fill="none" stroke="black" points="1756,-302.5 1756,-332.5 1869,-332.5 1869,-302.5 1756,-302.5"/>
<text text-anchor="start" x="1764" y="-320.5" font-family="Helvetica,sans-Serif" font-size="10.00">src/utils_quaternion</text>
<text text-anchor="middle" x="1812.5" y="-309.5" font-family="Helvetica,sans-Serif" font-size="10.00">_bonus.c</text>
</a>
</g>
</g>
<!-- Node1&#45;&gt;Node122 -->
<g id="edge66" class="edge">
<title>Node1&#45;&gt;Node122</title>
<path fill="none" stroke="midnightblue" d="M1444.96,-372.29C1516.71,-365 1640.89,-351.14 1746.5,-333 1749.51,-332.48 1752.58,-331.92 1755.68,-331.33"/>
<polygon fill="midnightblue" stroke="midnightblue" points="1444.36,-368.83 1434.76,-373.31 1445.06,-375.79 1444.36,-368.83"/>
</g>
<!-- Node123 -->
<g id="node49" class="node">
<title>Node123</title>
<g id="a_node49"><a xlink:href="utils__random__bonus_8c.html" target="_top" xlink:title=" ">
<polygon fill="none" stroke="black" points="1887.5,-308 1887.5,-327 2027.5,-327 2027.5,-308 1887.5,-308"/>
<text text-anchor="middle" x="1957.5" y="-315" font-family="Helvetica,sans-Serif" font-size="10.00">src/utils_random_bonus.c</text>
</a>
</g>
</g>
<!-- Node1&#45;&gt;Node123 -->
<g id="edge67" class="edge">
<title>Node1&#45;&gt;Node123</title>
<path fill="none" stroke="midnightblue" d="M1444.68,-374.34C1537.44,-368.2 1722.56,-354.38 1878.5,-333 1890.38,-331.37 1903.19,-329.2 1914.97,-327.03"/>
<polygon fill="midnightblue" stroke="midnightblue" points="1444.4,-370.85 1434.65,-374.99 1444.86,-377.83 1444.4,-370.85"/>
</g>
<!-- Node124 -->
<g id="node50" class="node">
<title>Node124</title>
<g id="a_node50"><a xlink:href="vec3__linalgebra_8c.html" target="_top" xlink:title=" ">
<polygon fill="none" stroke="black" points="2046,-308 2046,-327 2165,-327 2165,-308 2046,-308"/>
<text text-anchor="middle" x="2105.5" y="-315" font-family="Helvetica,sans-Serif" font-size="10.00">src/vec3_linalgebra.c</text>
</a>
</g>
</g>
<!-- Node1&#45;&gt;Node124 -->
<g id="edge68" class="edge">
<title>Node1&#45;&gt;Node124</title>
<path fill="none" stroke="midnightblue" d="M1445.07,-376.63C1559.96,-373.39 1819.96,-363.09 2036.5,-333 2047.29,-331.5 2058.92,-329.29 2069.5,-327.05"/>
<polygon fill="midnightblue" stroke="midnightblue" points="1444.64,-373.14 1434.74,-376.92 1444.83,-380.14 1444.64,-373.14"/>
</g>
<!-- Node3 -->
<g id="node3" class="node">
<title>Node3</title>
<g id="a_node3"><a xlink:href="mini_r_t_8h.html" target="_top" xlink:title=" ">
<polygon fill="none" stroke="black" points="733.5,-67.5 733.5,-86.5 809.5,-86.5 809.5,-67.5 733.5,-67.5"/>
<text text-anchor="middle" x="771.5" y="-74.5" font-family="Helvetica,sans-Serif" font-size="10.00">inc/miniRT.h</text>
</a>
</g>
</g>
<!-- Node2&#45;&gt;Node3 -->
<g id="edge2" class="edge">
<title>Node2&#45;&gt;Node3</title>
<path fill="none" stroke="midnightblue" d="M428.26,-242.15C413.83,-235.05 398.72,-224.62 390.5,-210 371.55,-176.3 364.81,-151.9 390.5,-123 413.04,-97.64 641.05,-84.14 733.18,-79.69"/>
<polygon fill="midnightblue" stroke="midnightblue" points="427.02,-245.43 437.57,-246.36 429.9,-239.05 427.02,-245.43"/>
</g>
<!-- Node5 -->
<g id="node5" class="node">
<title>Node5</title>
<g id="a_node5"><a xlink:href="parse_8h.html" target="_top" xlink:title=" ">
<polygon fill="none" stroke="red" points="555.5,-190.5 555.5,-209.5 625.5,-209.5 625.5,-190.5 555.5,-190.5"/>
<text text-anchor="middle" x="590.5" y="-197.5" font-family="Helvetica,sans-Serif" font-size="10.00">inc/parse.h</text>
</a>
</g>
</g>
<!-- Node2&#45;&gt;Node5 -->
<g id="edge4" class="edge">
<title>Node2&#45;&gt;Node5</title>
<path fill="none" stroke="midnightblue" d="M493.66,-242.5C517.28,-232.38 549.93,-218.39 570.63,-209.52"/>
<polygon fill="midnightblue" stroke="midnightblue" points="492.28,-239.29 484.47,-246.44 495.04,-245.72 492.28,-239.29"/>
</g>
<!-- Node10 -->
<g id="node9" class="node">
<title>Node10</title>
<g id="a_node9"><a xlink:href="parse__bonus_8h.html" target="_top" xlink:title=" ">
<polygon fill="none" stroke="red" points="681.5,-190.5 681.5,-209.5 785.5,-209.5 785.5,-190.5 681.5,-190.5"/>
<text text-anchor="middle" x="733.5" y="-197.5" font-family="Helvetica,sans-Serif" font-size="10.00">inc/parse_bonus.h</text>
</a>
</g>
</g>
<!-- Node2&#45;&gt;Node10 -->
<g id="edge8" class="edge">
<title>Node2&#45;&gt;Node10</title>
<path fill="none" stroke="midnightblue" d="M514.85,-244.89C565.55,-234.71 642.91,-219.19 690.73,-209.59"/>
<polygon fill="midnightblue" stroke="midnightblue" points="513.89,-241.52 504.77,-246.92 515.27,-248.38 513.89,-241.52"/>
</g>
<!-- Node13 -->
<g id="node10" class="node">
<title>Node13</title>
<g id="a_node10"><a xlink:href="print_8h.html" target="_top" xlink:title=" ">
<polygon fill="none" stroke="red" points="1030,-190.5 1030,-209.5 1095,-209.5 1095,-190.5 1030,-190.5"/>
<text text-anchor="middle" x="1062.5" y="-197.5" font-family="Helvetica,sans-Serif" font-size="10.00">inc/print.h</text>
</a>
</g>
</g>
<!-- Node2&#45;&gt;Node13 -->
<g id="edge10" class="edge">
<title>Node2&#45;&gt;Node13</title>
<path fill="none" stroke="midnightblue" d="M514.9,-246.05C597.37,-236.71 924.69,-211.51 1029.85,-203.49"/>
<polygon fill="midnightblue" stroke="midnightblue" points="514.06,-242.62 504.56,-247.31 514.91,-249.57 514.06,-242.62"/>
</g>
<!-- Node14 -->
<g id="node11" class="node">
<title>Node14</title>
<g id="a_node11"><a xlink:href="render__bonus_8h.html" target="_top" xlink:title=" ">
<polygon fill="none" stroke="red" points="946,-129 946,-148 1055,-148 1055,-129 946,-129"/>
<text text-anchor="middle" x="1000.5" y="-136" font-family="Helvetica,sans-Serif" font-size="10.00">inc/render_bonus.h</text>
</a>
</g>
</g>
<!-- Node2&#45;&gt;Node14 -->
<g id="edge36" class="edge">
<title>Node2&#45;&gt;Node14</title>
<path fill="none" stroke="midnightblue" d="M514.55,-245.95C639.81,-227.63 677.29,-246.34 794.5,-210 813.11,-204.23 815.44,-197.29 833.5,-190 878.02,-172.03 931.43,-156.95 965.65,-148.07"/>
<polygon fill="midnightblue" stroke="midnightblue" points="513.95,-242.5 504.58,-247.46 514.99,-249.42 513.95,-242.5"/>
</g>
<!-- Node36 -->
<g id="node12" class="node">
<title>Node36</title>
<g id="a_node12"><a xlink:href="ray__bonus_8h.html" target="_top" xlink:title=" ">
<polygon fill="none" stroke="black" points="842,-190.5 842,-209.5 935,-209.5 935,-190.5 842,-190.5"/>
<text text-anchor="middle" x="888.5" y="-197.5" font-family="Helvetica,sans-Serif" font-size="10.00">inc/ray_bonus.h</text>
</a>
</g>
</g>
<!-- Node2&#45;&gt;Node36 -->
<g id="edge13" class="edge">
<title>Node2&#45;&gt;Node36</title>
<path fill="none" stroke="midnightblue" d="M514.79,-245.9C654.17,-225.43 691.49,-227.83 827.5,-210 832.17,-209.39 837.04,-208.72 841.89,-208.03"/>
<polygon fill="midnightblue" stroke="midnightblue" points="513.95,-242.48 504.57,-247.41 514.98,-249.41 513.95,-242.48"/>
</g>
<!-- Node61 -->
<g id="node30" class="node">
<title>Node61</title>
<g id="a_node30"><a xlink:href="render_8h.html" target="_top" xlink:title=" ">
<polygon fill="none" stroke="red" points="852.5,-129 852.5,-148 926.5,-148 926.5,-129 852.5,-129"/>
<text text-anchor="middle" x="889.5" y="-136" font-family="Helvetica,sans-Serif" font-size="10.00">inc/render.h</text>
</a>
</g>
</g>
<!-- Node2&#45;&gt;Node61 -->
<g id="edge35" class="edge">
<title>Node2&#45;&gt;Node61</title>
<path fill="none" stroke="midnightblue" d="M514.62,-244.86C548.99,-237.16 595.28,-225.29 634.5,-210 652.28,-203.07 654.62,-196.66 672.5,-190 733.58,-167.25 808.26,-152.57 852.18,-145.19"/>
<polygon fill="midnightblue" stroke="midnightblue" points="513.83,-241.46 504.81,-247.02 515.33,-248.29 513.83,-241.46"/>
</g>
<!-- Node78 -->
<g id="node31" class="node">
<title>Node78</title>
<g id="a_node31"><a xlink:href="camera_8c.html" target="_top" xlink:title=" ">
<polygon fill="none" stroke="black" points="264,-190.5 264,-209.5 343,-209.5 343,-190.5 264,-190.5"/>
<text text-anchor="middle" x="303.5" y="-197.5" font-family="Helvetica,sans-Serif" font-size="10.00">src/camera.c</text>
</a>
</g>
</g>
<!-- Node2&#45;&gt;Node78 -->
<g id="edge37" class="edge">
<title>Node2&#45;&gt;Node78</title>
<path fill="none" stroke="midnightblue" d="M429.24,-243.17C398.92,-233 355.93,-218.59 328.89,-209.52"/>
<polygon fill="midnightblue" stroke="midnightblue" points="428.4,-246.58 438.99,-246.44 430.62,-239.95 428.4,-246.58"/>
</g>
<!-- Node79 -->
<g id="node32" class="node">
<title>Node79</title>
<g id="a_node32"><a xlink:href="camera__movement_8c.html" target="_top" xlink:title=" ">
<polygon fill="none" stroke="black" points="400,-190.5 400,-209.5 537,-209.5 537,-190.5 400,-190.5"/>
<text text-anchor="middle" x="468.5" y="-197.5" font-family="Helvetica,sans-Serif" font-size="10.00">src/camera_movement.c</text>
</a>
</g>
</g>
<!-- Node2&#45;&gt;Node79 -->
<g id="edge38" class="edge">
<title>Node2&#45;&gt;Node79</title>
<path fill="none" stroke="midnightblue" d="M465.9,-236.1C466.56,-227.14 467.33,-216.86 467.85,-209.75"/>
<polygon fill="midnightblue" stroke="midnightblue" points="462.41,-235.85 465.16,-246.08 469.39,-236.37 462.41,-235.85"/>
</g>
<!-- Node4 -->
<g id="node4" class="node">
<title>Node4</title>
<g id="a_node4"><a xlink:href="main_8c.html" target="_top" xlink:title=" ">
<polygon fill="none" stroke="black" points="738,-6 738,-25 805,-25 805,-6 738,-6"/>
<text text-anchor="middle" x="771.5" y="-13" font-family="Helvetica,sans-Serif" font-size="10.00">src/main.c</text>
</a>
</g>
</g>
<!-- Node3&#45;&gt;Node4 -->
<g id="edge3" class="edge">
<title>Node3&#45;&gt;Node4</title>
<path fill="none" stroke="midnightblue" d="M771.5,-57.32C771.5,-46.5 771.5,-33.4 771.5,-25.01"/>
<polygon fill="midnightblue" stroke="midnightblue" points="768,-57.48 771.5,-67.48 775,-57.48 768,-57.48"/>
</g>
<!-- Node6 -->
<g id="node6" class="node">
<title>Node6</title>
<g id="a_node6"><a xlink:href="parse_8c.html" target="_top" xlink:title=" ">
<polygon fill="none" stroke="black" points="674,-129 674,-148 743,-148 743,-129 674,-129"/>
<text text-anchor="middle" x="708.5" y="-136" font-family="Helvetica,sans-Serif" font-size="10.00">src/parse.c</text>
</a>
</g>
</g>
<!-- Node5&#45;&gt;Node6 -->
<g id="edge5" class="edge">
<title>Node5&#45;&gt;Node6</title>
<path fill="none" stroke="midnightblue" d="M616.55,-185.87C639.42,-174.33 672.01,-157.9 691.62,-148.01"/>
<polygon fill="midnightblue" stroke="midnightblue" points="614.76,-182.85 607.41,-190.48 617.91,-189.1 614.76,-182.85"/>
</g>
<!-- Node7 -->
<g id="node7" class="node">
<title>Node7</title>
<g id="a_node7"><a xlink:href="parse__entity___a_c_l_8c.html" target="_top" xlink:title=" ">
<polygon fill="none" stroke="black" points="400,-129 400,-148 527,-148 527,-129 400,-129"/>
<text text-anchor="middle" x="463.5" y="-136" font-family="Helvetica,sans-Serif" font-size="10.00">src/parse_entity_ACL.c</text>
</a>
</g>
</g>
<!-- Node5&#45;&gt;Node7 -->
<g id="edge6" class="edge">
<title>Node5&#45;&gt;Node7</title>
<path fill="none" stroke="midnightblue" d="M563.12,-186.17C538.48,-174.63 502.96,-157.99 481.66,-148.01"/>
<polygon fill="midnightblue" stroke="midnightblue" points="561.76,-189.4 572.3,-190.48 564.73,-183.06 561.76,-189.4"/>
</g>
<!-- Node8 -->
<g id="node8" class="node">
<title>Node8</title>
<g id="a_node8"><a xlink:href="parse__entity__sp__pl__cy_8c.html" target="_top" xlink:title=" ">
<polygon fill="none" stroke="black" points="545,-123.5 545,-153.5 656,-153.5 656,-123.5 545,-123.5"/>
<text text-anchor="start" x="553" y="-141.5" font-family="Helvetica,sans-Serif" font-size="10.00">src/parse_entity_sp</text>
<text text-anchor="middle" x="600.5" y="-130.5" font-family="Helvetica,sans-Serif" font-size="10.00">_pl_cy.c</text>
</a>
</g>
</g>
<!-- Node5&#45;&gt;Node8 -->
<g id="edge7" class="edge">
<title>Node5&#45;&gt;Node8</title>
<path fill="none" stroke="midnightblue" d="M593.6,-180.53C595.07,-171.81 596.79,-161.59 598.14,-153.52"/>
<polygon fill="midnightblue" stroke="midnightblue" points="590.14,-180.03 591.93,-190.48 597.04,-181.19 590.14,-180.03"/>
</g>
<!-- Node10&#45;&gt;Node3 -->
<g id="edge9" class="edge">
<title>Node10&#45;&gt;Node3</title>
<path fill="none" stroke="midnightblue" d="M741.87,-180.96C745.44,-172.84 749.48,-163.05 752.5,-154 760.51,-130.01 766.91,-100.76 769.81,-86.56"/>
<polygon fill="midnightblue" stroke="midnightblue" points="738.63,-179.64 737.7,-190.19 745.01,-182.52 738.63,-179.64"/>
</g>
<!-- Node13&#45;&gt;Node14 -->
<g id="edge11" class="edge">
<title>Node13&#45;&gt;Node14</title>
<path fill="none" stroke="midnightblue" d="M1046.17,-183.32C1034.39,-172.02 1018.94,-157.19 1009.37,-148.01"/>
<polygon fill="midnightblue" stroke="midnightblue" points="1043.98,-186.08 1053.62,-190.48 1048.83,-181.03 1043.98,-186.08"/>
</g>
<!-- Node14&#45;&gt;Node3 -->
<g id="edge12" class="edge">
<title>Node14&#45;&gt;Node3</title>
<path fill="none" stroke="midnightblue" d="M957.76,-126.4C913.29,-114.84 844.61,-97 804.25,-86.51"/>
<polygon fill="midnightblue" stroke="midnightblue" points="957.13,-129.85 967.69,-128.98 958.89,-123.07 957.13,-129.85"/>
</g>
<!-- Node36&#45;&gt;Node14 -->
<g id="edge34" class="edge">
<title>Node36&#45;&gt;Node14</title>
<path fill="none" stroke="midnightblue" d="M913.51,-185.71C935.2,-174.19 965.95,-157.86 984.48,-148.01"/>
<polygon fill="midnightblue" stroke="midnightblue" points="911.74,-182.69 904.55,-190.48 915.02,-188.87 911.74,-182.69"/>
</g>
<!-- Node36&#45;&gt;Node37 -->
<g id="edge14" class="edge">
<title>Node36&#45;&gt;Node37</title>
<path fill="none" stroke="midnightblue" d="M831.56,-193.49C819.33,-192.32 806.49,-191.11 794.5,-190 615,-173.41 569.84,-172.23 390.5,-154 365.88,-151.5 338.62,-148.43 315.68,-145.75"/>
<polygon fill="midnightblue" stroke="midnightblue" points="831.36,-196.98 841.65,-194.45 832.03,-190.02 831.36,-196.98"/>
</g>
<!-- Node36&#45;&gt;Node43 -->
<g id="edge20" class="edge">
<title>Node36&#45;&gt;Node43</title>
<path fill="none" stroke="midnightblue" d="M945.41,-192.94C1048.52,-181.97 1265.91,-158.83 1377.76,-146.92"/>
<polygon fill="midnightblue" stroke="midnightblue" points="944.77,-189.49 935.2,-194.03 945.51,-196.45 944.77,-189.49"/>
</g>
<!-- Node36&#45;&gt;Node61 -->
<g id="edge33" class="edge">
<title>Node36&#45;&gt;Node61</title>
<path fill="none" stroke="midnightblue" d="M888.81,-180.32C889,-169.5 889.22,-156.4 889.36,-148.01"/>
<polygon fill="midnightblue" stroke="midnightblue" points="885.31,-180.42 888.64,-190.48 892.31,-180.54 885.31,-180.42"/>
</g>
<!-- Node38 -->
<g id="node14" class="node">
<title>Node38</title>
<g id="a_node14"><a xlink:href="hit_8c.html" target="_top" xlink:title=" ">
<polygon fill="none" stroke="black" points="236,-67.5 236,-86.5 291,-86.5 291,-67.5 236,-67.5"/>
<text text-anchor="middle" x="263.5" y="-74.5" font-family="Helvetica,sans-Serif" font-size="10.00">src/hit.c</text>
</a>
</g>
</g>
<!-- Node37&#45;&gt;Node38 -->
<g id="edge15" class="edge">
<title>Node37&#45;&gt;Node38</title>
<path fill="none" stroke="midnightblue" d="M263.5,-118.82C263.5,-108 263.5,-94.9 263.5,-86.51"/>
<polygon fill="midnightblue" stroke="midnightblue" points="260,-118.98 263.5,-128.98 267,-118.98 260,-118.98"/>
</g>
<!-- Node39 -->
<g id="node15" class="node">
<title>Node39</title>
<g id="a_node15"><a xlink:href="hit__cylinder_8c.html" target="_top" xlink:title=" ">
<polygon fill="none" stroke="black" points="309.5,-67.5 309.5,-86.5 407.5,-86.5 407.5,-67.5 309.5,-67.5"/>
<text text-anchor="middle" x="358.5" y="-74.5" font-family="Helvetica,sans-Serif" font-size="10.00">src/hit_cylinder.c</text>
</a>
</g>
</g>
<!-- Node37&#45;&gt;Node39 -->
<g id="edge16" class="edge">
<title>Node37&#45;&gt;Node39</title>
<path fill="none" stroke="midnightblue" d="M285.71,-123.59C304.05,-112.1 329.48,-96.18 344.91,-86.51"/>
<polygon fill="midnightblue" stroke="midnightblue" points="283.73,-120.7 277.11,-128.98 287.44,-126.63 283.73,-120.7"/>
</g>
<!-- Node40 -->
<g id="node16" class="node">
<title>Node40</title>
<g id="a_node16"><a xlink:href="hit__plane_8c.html" target="_top" xlink:title=" ">
<polygon fill="none" stroke="black" points="426,-67.5 426,-86.5 513,-86.5 513,-67.5 426,-67.5"/>
<text text-anchor="middle" x="469.5" y="-74.5" font-family="Helvetica,sans-Serif" font-size="10.00">src/hit_plane.c</text>
</a>
</g>
</g>
<!-- Node37&#45;&gt;Node40 -->
<g id="edge17" class="edge">
<title>Node37&#45;&gt;Node40</title>
<path fill="none" stroke="midnightblue" d="M302.71,-126.18C342.73,-114.61 403.96,-96.93 440.04,-86.51"/>
<polygon fill="midnightblue" stroke="midnightblue" points="301.65,-122.84 293.01,-128.98 303.59,-129.56 301.65,-122.84"/>
</g>
<!-- Node41 -->
<g id="node17" class="node">
<title>Node41</title>
<g id="a_node17"><a xlink:href="hit__sphere_8c.html" target="_top" xlink:title=" ">
<polygon fill="none" stroke="black" points="0,-67.5 0,-86.5 93,-86.5 93,-67.5 0,-67.5"/>
<text text-anchor="middle" x="46.5" y="-74.5" font-family="Helvetica,sans-Serif" font-size="10.00">src/hit_sphere.c</text>
</a>
</g>
</g>
<!-- Node37&#45;&gt;Node41 -->
<g id="edge18" class="edge">
<title>Node37&#45;&gt;Node41</title>
<path fill="none" stroke="midnightblue" d="M222.73,-126.32C180.58,-114.76 115.7,-96.97 77.53,-86.51"/>
<polygon fill="midnightblue" stroke="midnightblue" points="221.84,-129.71 232.41,-128.98 223.69,-122.96 221.84,-129.71"/>
</g>
<!-- Node42 -->
<g id="node18" class="node">
<title>Node42</title>
<g id="a_node18"><a xlink:href="utils__cylinder_8c.html" target="_top" xlink:title=" ">
<polygon fill="none" stroke="black" points="111,-67.5 111,-86.5 218,-86.5 218,-67.5 111,-67.5"/>
<text text-anchor="middle" x="164.5" y="-74.5" font-family="Helvetica,sans-Serif" font-size="10.00">src/utils_cylinder.c</text>
</a>
</g>
</g>
<!-- Node37&#45;&gt;Node42 -->
<g id="edge19" class="edge">
<title>Node37&#45;&gt;Node42</title>
<path fill="none" stroke="midnightblue" d="M240.61,-123.74C221.49,-112.25 194.82,-96.22 178.66,-86.51"/>
<polygon fill="midnightblue" stroke="midnightblue" points="238.94,-126.82 249.32,-128.98 242.55,-120.82 238.94,-126.82"/>
</g>
<!-- Node44 -->
<g id="node20" class="node">
<title>Node44</title>
<g id="a_node20"><a xlink:href="lighting_8h.html" target="_top" xlink:title=" ">
<polygon fill="none" stroke="red" points="1666.5,-67.5 1666.5,-86.5 1746.5,-86.5 1746.5,-67.5 1666.5,-67.5"/>
<text text-anchor="middle" x="1706.5" y="-74.5" font-family="Helvetica,sans-Serif" font-size="10.00">inc/lighting.h</text>
</a>
</g>
</g>
<!-- Node43&#45;&gt;Node44 -->
<g id="edge21" class="edge">
<title>Node43&#45;&gt;Node44</title>
<path fill="none" stroke="midnightblue" d="M1494.57,-126.69C1544.83,-115.14 1623.43,-97.08 1669.46,-86.51"/>
<polygon fill="midnightblue" stroke="midnightblue" points="1493.57,-123.32 1484.61,-128.98 1495.14,-130.15 1493.57,-123.32"/>
</g>
<!-- Node48 -->
<g id="node21" class="node">
<title>Node48</title>
<g id="a_node21"><a xlink:href="lighting__bonus_8h.html" target="_top" xlink:title=" ">
<polygon fill="none" stroke="red" points="1728.5,-6 1728.5,-25 1842.5,-25 1842.5,-6 1728.5,-6"/>
<text text-anchor="middle" x="1785.5" y="-13" font-family="Helvetica,sans-Serif" font-size="10.00">inc/lighting_bonus.h</text>
</a>
</g>
</g>
<!-- Node43&#45;&gt;Node48 -->
<g id="edge22" class="edge">
<title>Node43&#45;&gt;Node48</title>
<path fill="none" stroke="midnightblue" d="M1527.65,-133.03C1606.84,-127.12 1720.98,-114.1 1755.5,-87 1775.38,-71.4 1782.28,-40.12 1784.51,-25.03"/>
<polygon fill="midnightblue" stroke="midnightblue" points="1526.93,-129.58 1517.21,-133.79 1527.43,-136.56 1526.93,-129.58"/>
</g>
<!-- Node52 -->
<g id="node22" class="node">
<title>Node52</title>
<g id="a_node22"><a xlink:href="texture__bonus_8h.html" target="_top" xlink:title=" ">
<polygon fill="none" stroke="red" points="1803,-67.5 1803,-86.5 1916,-86.5 1916,-67.5 1803,-67.5"/>
<text text-anchor="middle" x="1859.5" y="-74.5" font-family="Helvetica,sans-Serif" font-size="10.00">inc/texture_bonus.h</text>
</a>
</g>
</g>
<!-- Node43&#45;&gt;Node52 -->
<g id="edge23" class="edge">
<title>Node43&#45;&gt;Node52</title>
<path fill="none" stroke="midnightblue" d="M1516.56,-127.53C1596.96,-115.91 1728.25,-96.96 1802.9,-86.17"/>
<polygon fill="midnightblue" stroke="midnightblue" points="1515.93,-124.08 1506.53,-128.98 1516.93,-131.01 1515.93,-124.08"/>
</g>
<!-- Node54 -->
<g id="node23" class="node">
<title>Node54</title>
<g id="a_node23"><a xlink:href="utils__cylinder__bonus_8c.html" target="_top" xlink:title=" ">
<polygon fill="none" stroke="black" points="1883,-0.5 1883,-30.5 1982,-30.5 1982,-0.5 1883,-0.5"/>
<text text-anchor="start" x="1891" y="-18.5" font-family="Helvetica,sans-Serif" font-size="10.00">src/utils_cylinder</text>
<text text-anchor="middle" x="1932.5" y="-7.5" font-family="Helvetica,sans-Serif" font-size="10.00">_bonus.c</text>
</a>
</g>
</g>
<!-- Node43&#45;&gt;Node54 -->
<g id="edge32" class="edge">
<title>Node43&#45;&gt;Node54</title>
<path fill="none" stroke="midnightblue" d="M1527.6,-134.47C1656.42,-128.82 1898.05,-114.63 1925.5,-87 1940.07,-72.34 1938.53,-46.56 1935.75,-30.57"/>
<polygon fill="midnightblue" stroke="midnightblue" points="1527.22,-130.99 1517.38,-134.92 1527.53,-137.98 1527.22,-130.99"/>
</g>
<!-- Node55 -->
<g id="node24" class="node">
<title>Node55</title>
<g id="a_node24"><a xlink:href="hit__bonus_8c.html" target="_top" xlink:title=" ">
<polygon fill="none" stroke="black" points="841,-67.5 841,-86.5 930,-86.5 930,-67.5 841,-67.5"/>
<text text-anchor="middle" x="885.5" y="-74.5" font-family="Helvetica,sans-Serif" font-size="10.00">src/hit_bonus.c</text>
</a>
</g>
</g>
<!-- Node43&#45;&gt;Node55 -->
<g id="edge26" class="edge">
<title>Node43&#45;&gt;Node55</title>
<path fill="none" stroke="midnightblue" d="M1367.85,-131.22C1267.67,-122.95 1090.48,-107.06 939.5,-87 936.49,-86.6 933.38,-86.16 930.25,-85.69"/>
<polygon fill="midnightblue" stroke="midnightblue" points="1367.65,-134.72 1377.9,-132.05 1368.22,-127.74 1367.65,-134.72"/>
</g>
<!-- Node56 -->
<g id="node25" class="node">
<title>Node56</title>
<g id="a_node25"><a xlink:href="hit__cone__bonus_8c.html" target="_top" xlink:title=" ">
<polygon fill="none" stroke="black" points="948.5,-67.5 948.5,-86.5 1066.5,-86.5 1066.5,-67.5 948.5,-67.5"/>
<text text-anchor="middle" x="1007.5" y="-74.5" font-family="Helvetica,sans-Serif" font-size="10.00">src/hit_cone_bonus.c</text>
</a>
</g>
</g>
<!-- Node43&#45;&gt;Node56 -->
<g id="edge27" class="edge">
<title>Node43&#45;&gt;Node56</title>
<path fill="none" stroke="midnightblue" d="M1374.48,-127.63C1288.17,-115.95 1146.25,-96.76 1066.55,-85.99"/>
<polygon fill="midnightblue" stroke="midnightblue" points="1374.08,-131.1 1384.46,-128.98 1375.02,-124.17 1374.08,-131.1"/>
</g>
<!-- Node57 -->
<g id="node26" class="node">
<title>Node57</title>
<g id="a_node26"><a xlink:href="hit__cylinder__bonus_8c.html" target="_top" xlink:title=" ">
<polygon fill="none" stroke="black" points="1084.5,-67.5 1084.5,-86.5 1218.5,-86.5 1218.5,-67.5 1084.5,-67.5"/>
<text text-anchor="middle" x="1151.5" y="-74.5" font-family="Helvetica,sans-Serif" font-size="10.00">src/hit_cylinder_bonus.c</text>
</a>
</g>
</g>
<!-- Node43&#45;&gt;Node57 -->
<g id="edge28" class="edge">
<title>Node43&#45;&gt;Node57</title>
<path fill="none" stroke="midnightblue" d="M1395.14,-126.97C1337.77,-115.44 1246.88,-97.17 1193.83,-86.51"/>
<polygon fill="midnightblue" stroke="midnightblue" points="1394.6,-130.44 1405.09,-128.98 1395.98,-123.57 1394.6,-130.44"/>
</g>
<!-- Node58 -->
<g id="node27" class="node">
<title>Node58</title>
<g id="a_node27"><a xlink:href="hit__plane__bonus_8c.html" target="_top" xlink:title=" ">
<polygon fill="none" stroke="black" points="1236.5,-67.5 1236.5,-86.5 1358.5,-86.5 1358.5,-67.5 1236.5,-67.5"/>
<text text-anchor="middle" x="1297.5" y="-74.5" font-family="Helvetica,sans-Serif" font-size="10.00">src/hit_plane_bonus.c</text>
</a>
</g>
</g>
<!-- Node43&#45;&gt;Node58 -->
<g id="edge29" class="edge">
<title>Node43&#45;&gt;Node58</title>
<path fill="none" stroke="midnightblue" d="M1416.7,-125.28C1387.55,-113.72 1344.55,-96.66 1318.95,-86.51"/>
<polygon fill="midnightblue" stroke="midnightblue" points="1415.42,-128.54 1426.01,-128.98 1418,-122.03 1415.42,-128.54"/>
</g>
<!-- Node59 -->
<g id="node28" class="node">
<title>Node59</title>
<g id="a_node28"><a xlink:href="hit__sphere__bonus_8c.html" target="_top" xlink:title=" ">
<polygon fill="none" stroke="black" points="1376.5,-67.5 1376.5,-86.5 1504.5,-86.5 1504.5,-67.5 1376.5,-67.5"/>
<text text-anchor="middle" x="1440.5" y="-74.5" font-family="Helvetica,sans-Serif" font-size="10.00">src/hit_sphere_bonus.c</text>
</a>
</g>
</g>
<!-- Node43&#45;&gt;Node59 -->
<g id="edge30" class="edge">
<title>Node43&#45;&gt;Node59</title>
<path fill="none" stroke="midnightblue" d="M1445.3,-118.82C1444.03,-108 1442.49,-94.9 1441.5,-86.51"/>
<polygon fill="midnightblue" stroke="midnightblue" points="1441.85,-119.45 1446.5,-128.98 1448.8,-118.63 1441.85,-119.45"/>
</g>
<!-- Node60 -->
<g id="node29" class="node">
<title>Node60</title>
<g id="a_node29"><a xlink:href="utils__cone__bonus_8c.html" target="_top" xlink:title=" ">
<polygon fill="none" stroke="black" points="1522.5,-67.5 1522.5,-86.5 1648.5,-86.5 1648.5,-67.5 1522.5,-67.5"/>
<text text-anchor="middle" x="1585.5" y="-74.5" font-family="Helvetica,sans-Serif" font-size="10.00">src/utils_cone_bonus.c</text>
</a>
</g>
</g>
<!-- Node43&#45;&gt;Node60 -->
<g id="edge31" class="edge">
<title>Node43&#45;&gt;Node60</title>
<path fill="none" stroke="midnightblue" d="M1476.54,-124.98C1503.34,-113.42 1542.42,-96.58 1565.76,-86.51"/>
<polygon fill="midnightblue" stroke="midnightblue" points="1475.07,-121.8 1467.27,-128.98 1477.84,-128.23 1475.07,-121.8"/>
</g>
<!-- Node52&#45;&gt;Node48 -->
<g id="edge24" class="edge">
<title>Node52&#45;&gt;Node48</title>
<path fill="none" stroke="midnightblue" d="M1840.81,-60.97C1826.66,-49.59 1807.72,-34.37 1796.08,-25.01"/>
<polygon fill="midnightblue" stroke="midnightblue" points="1838.91,-63.94 1848.9,-67.48 1843.3,-58.48 1838.91,-63.94"/>
</g>
<!-- Node52&#45;&gt;Node54 -->
<g id="edge25" class="edge">
<title>Node52&#45;&gt;Node54</title>
<path fill="none" stroke="midnightblue" d="M1878,-60.92C1889.46,-51.58 1904.08,-39.66 1915.3,-30.52"/>
<polygon fill="midnightblue" stroke="midnightblue" points="1875.5,-58.44 1869.96,-67.48 1879.92,-63.87 1875.5,-58.44"/>
</g>
<!-- Node81 -->
<g id="node34" class="node">
<title>Node81</title>
<g id="a_node34"><a xlink:href="colour_8c.html" target="_top" xlink:title=" ">
<polygon fill="none" stroke="black" points="523,-246.5 523,-265.5 594,-265.5 594,-246.5 523,-246.5"/>
<text text-anchor="middle" x="558.5" y="-253.5" font-family="Helvetica,sans-Serif" font-size="10.00">src/colour.c</text>
</a>
</g>
</g>
<!-- Node80&#45;&gt;Node81 -->
<g id="edge40" class="edge">
<title>Node80&#45;&gt;Node81</title>
<path fill="none" stroke="midnightblue" d="M637.96,-302.9C618.04,-291.4 590.12,-275.27 573.23,-265.51"/>
<polygon fill="midnightblue" stroke="midnightblue" points="636.33,-306 646.74,-307.98 639.83,-299.94 636.33,-306"/>
</g>
<!-- Node82 -->
<g id="node35" class="node">
<title>Node82</title>
<g id="a_node35"><a xlink:href="utils__colour_8c.html" target="_top" xlink:title=" ">
<polygon fill="none" stroke="black" points="612.5,-246.5 612.5,-265.5 710.5,-265.5 710.5,-246.5 612.5,-246.5"/>
<text text-anchor="middle" x="661.5" y="-253.5" font-family="Helvetica,sans-Serif" font-size="10.00">src/utils_colour.c</text>
</a>
</g>
</g>
<!-- Node80&#45;&gt;Node82 -->
<g id="edge41" class="edge">
<title>Node80&#45;&gt;Node82</title>
<path fill="none" stroke="midnightblue" d="M661.5,-297.82C661.5,-287 661.5,-273.9 661.5,-265.51"/>
<polygon fill="midnightblue" stroke="midnightblue" points="658,-297.98 661.5,-307.98 665,-297.98 658,-297.98"/>
</g>
<!-- Node83&#45;&gt;Node13 -->
<g id="edge51" class="edge">
<title>Node83&#45;&gt;Node13</title>
<path fill="none" stroke="midnightblue" d="M1165.99,-305.07C1203.7,-293.52 1247.43,-273.44 1226.5,-246 1222.44,-240.67 1141.7,-220.28 1095.05,-208.86"/>
<polygon fill="midnightblue" stroke="midnightblue" points="1164.69,-301.8 1156.07,-307.97 1166.65,-308.52 1164.69,-301.8"/>
</g>
<!-- Node84 -->
<g id="node37" class="node">
<title>Node84</title>
<g id="a_node37"><a xlink:href="entities_8h.html" target="_top" xlink:title=" ">
<polygon fill="none" stroke="red" points="1137.5,-246.5 1137.5,-265.5 1217.5,-265.5 1217.5,-246.5 1137.5,-246.5"/>
<text text-anchor="middle" x="1177.5" y="-253.5" font-family="Helvetica,sans-Serif" font-size="10.00">inc/entities.h</text>
</a>
</g>
</g>
<!-- Node83&#45;&gt;Node84 -->
<g id="edge43" class="edge">
<title>Node83&#45;&gt;Node84</title>
<path fill="none" stroke="midnightblue" d="M1135.1,-300.5C1146.08,-289.24 1160.34,-274.6 1169.21,-265.51"/>
<polygon fill="midnightblue" stroke="midnightblue" points="1132.28,-298.37 1127.81,-307.98 1137.3,-303.26 1132.28,-298.37"/>
</g>
<!-- Node86 -->
<g id="node38" class="node">
<title>Node86</title>
<g id="a_node38"><a xlink:href="entities__bonus_8h.html" target="_top" xlink:title=" ">
<polygon fill="none" stroke="red" points="1005.5,-246.5 1005.5,-265.5 1119.5,-265.5 1119.5,-246.5 1005.5,-246.5"/>
<text text-anchor="middle" x="1062.5" y="-253.5" font-family="Helvetica,sans-Serif" font-size="10.00">inc/entities_bonus.h</text>
</a>
</g>
</g>
<!-- Node83&#45;&gt;Node86 -->
<g id="edge44" class="edge">
<title>Node83&#45;&gt;Node86</title>
<path fill="none" stroke="midnightblue" d="M1104.17,-300.5C1093.38,-289.24 1079.36,-274.6 1070.65,-265.51"/>
<polygon fill="midnightblue" stroke="midnightblue" points="1101.89,-303.18 1111.33,-307.98 1106.94,-298.33 1101.89,-303.18"/>
</g>
<!-- Node112 -->
<g id="node39" class="node">
<title>Node112</title>
<g id="a_node39"><a xlink:href="colour__bonus_8c.html" target="_top" xlink:title=" ">
<polygon fill="none" stroke="black" points="729,-246.5 729,-265.5 836,-265.5 836,-246.5 729,-246.5"/>
<text text-anchor="middle" x="782.5" y="-253.5" font-family="Helvetica,sans-Serif" font-size="10.00">src/colour_bonus.c</text>
</a>
</g>
</g>
<!-- Node83&#45;&gt;Node112 -->
<g id="edge52" class="edge">
<title>Node83&#45;&gt;Node112</title>
<path fill="none" stroke="midnightblue" d="M1061.09,-306.19C995.86,-294.67 891.46,-276.24 830.69,-265.51"/>
<polygon fill="midnightblue" stroke="midnightblue" points="1060.76,-309.68 1071.22,-307.98 1061.98,-302.79 1060.76,-309.68"/>
</g>
<!-- Node113 -->
<g id="node40" class="node">
<title>Node113</title>
<g id="a_node40"><a xlink:href="utils__colour__bonus_8c.html" target="_top" xlink:title=" ">
<polygon fill="none" stroke="black" points="854,-246.5 854,-265.5 987,-265.5 987,-246.5 854,-246.5"/>
<text text-anchor="middle" x="920.5" y="-253.5" font-family="Helvetica,sans-Serif" font-size="10.00">src/utils_colour_bonus.c</text>
</a>
</g>
</g>
<!-- Node83&#45;&gt;Node113 -->
<g id="edge53" class="edge">
<title>Node83&#45;&gt;Node113</title>
<path fill="none" stroke="midnightblue" d="M1081.13,-305.03C1042.46,-293.46 983.66,-275.88 948.96,-265.51"/>
<polygon fill="midnightblue" stroke="midnightblue" points="1080.4,-308.46 1090.99,-307.98 1082.41,-301.76 1080.4,-308.46"/>
</g>
<!-- Node86&#45;&gt;Node5 -->
<g id="edge45" class="edge">
<title>Node86&#45;&gt;Node5</title>
<path fill="none" stroke="midnightblue" d="M995.25,-245.92C939.94,-239.52 713.74,-214.58 625.69,-204.88"/>
<polygon fill="midnightblue" stroke="midnightblue" points="994.93,-249.41 1005.27,-247.11 995.75,-242.46 994.93,-249.41"/>
</g>
<!-- Node86&#45;&gt;Node10 -->
<g id="edge46" class="edge">
<title>Node86&#45;&gt;Node10</title>
<path fill="none" stroke="midnightblue" d="M1000.3,-244.79C938.13,-234.59 843.64,-219.08 785.39,-209.52"/>
<polygon fill="midnightblue" stroke="midnightblue" points="999.93,-248.28 1010.37,-246.44 1001.07,-241.37 999.93,-248.28"/>
</g>
<!-- Node86&#45;&gt;Node13 -->
<g id="edge47" class="edge">
<title>Node86&#45;&gt;Node13</title>
<path fill="none" stroke="midnightblue" d="M1062.5,-235.8C1062.5,-226.91 1062.5,-216.78 1062.5,-209.75"/>
<polygon fill="midnightblue" stroke="midnightblue" points="1059,-236.08 1062.5,-246.08 1066,-236.08 1059,-236.08"/>
</g>
<!-- Node86&#45;&gt;Node14 -->
<g id="edge50" class="edge">
<title>Node86&#45;&gt;Node14</title>
<path fill="none" stroke="midnightblue" d="M1045,-239.38C1036.86,-231.31 1027.65,-220.88 1021.5,-210 1009.94,-189.54 1004.15,-162.07 1001.81,-148.24"/>
<polygon fill="midnightblue" stroke="midnightblue" points="1042.67,-242 1052.33,-246.34 1047.48,-236.92 1042.67,-242"/>
</g>
<!-- Node86&#45;&gt;Node36 -->
<g id="edge48" class="edge">
<title>Node86&#45;&gt;Node36</title>
<path fill="none" stroke="midnightblue" d="M1025.24,-243.44C992.43,-233.26 945.42,-218.66 915.94,-209.52"/>
<polygon fill="midnightblue" stroke="midnightblue" points="1024.34,-246.82 1034.93,-246.44 1026.42,-240.14 1024.34,-246.82"/>
</g>
<!-- Node86&#45;&gt;Node61 -->
<g id="edge49" class="edge">
<title>Node86&#45;&gt;Node61</title>
<path fill="none" stroke="midnightblue" d="M1041.11,-240.72C1004.84,-216.51 932.36,-168.11 902.65,-148.28"/>
<polygon fill="midnightblue" stroke="midnightblue" points="1039.24,-243.68 1049.5,-246.32 1043.12,-237.86 1039.24,-243.68"/>
</g>
<!-- Node114&#45;&gt;Node13 -->
<g id="edge60" class="edge">
<title>Node114&#45;&gt;Node13</title>
<path fill="none" stroke="midnightblue" d="M1263.56,-245.31C1215.15,-234.65 1138.44,-217.74 1095.11,-208.19"/>
<polygon fill="midnightblue" stroke="midnightblue" points="1262.91,-248.76 1273.43,-247.49 1264.42,-241.92 1262.91,-248.76"/>
</g>
<!-- Node115 -->
<g id="node42" class="node">
<title>Node115</title>
<g id="a_node42"><a xlink:href="mat4__vec3_8h.html" target="_top" xlink:title=" ">
<polygon fill="none" stroke="red" points="1113,-190.5 1113,-209.5 1210,-209.5 1210,-190.5 1113,-190.5"/>
<text text-anchor="middle" x="1161.5" y="-197.5" font-family="Helvetica,sans-Serif" font-size="10.00">inc/mat4_vec3.h</text>
</a>
</g>
</g>
<!-- Node114&#45;&gt;Node115 -->
<g id="edge57" class="edge">
<title>Node114&#45;&gt;Node115</title>
<path fill="none" stroke="midnightblue" d="M1274.8,-242.91C1247.35,-232.75 1208.83,-218.51 1184.53,-209.52"/>
<polygon fill="midnightblue" stroke="midnightblue" points="1273.77,-246.26 1284.37,-246.44 1276.2,-239.69 1273.77,-246.26"/>
</g>
<!-- Node117 -->
<g id="node43" class="node">
<title>Node117</title>
<g id="a_node43"><a xlink:href="mat4_8c.html" target="_top" xlink:title=" ">
<polygon fill="none" stroke="black" points="1228.5,-190.5 1228.5,-209.5 1296.5,-209.5 1296.5,-190.5 1228.5,-190.5"/>
<text text-anchor="middle" x="1262.5" y="-197.5" font-family="Helvetica,sans-Serif" font-size="10.00">src/mat4.c</text>
</a>
</g>
</g>
<!-- Node114&#45;&gt;Node117 -->
<g id="edge61" class="edge">
<title>Node114&#45;&gt;Node117</title>
<path fill="none" stroke="midnightblue" d="M1293.45,-238.14C1285.61,-228.74 1276.17,-217.4 1269.79,-209.75"/>
<polygon fill="midnightblue" stroke="midnightblue" points="1290.98,-240.64 1300.07,-246.08 1296.36,-236.16 1290.98,-240.64"/>
</g>
<!-- Node118 -->
<g id="node44" class="node">
<title>Node118</title>
<g id="a_node44"><a xlink:href="mat4__rotation_8c.html" target="_top" xlink:title=" ">
<polygon fill="none" stroke="black" points="1315,-190.5 1315,-209.5 1426,-209.5 1426,-190.5 1315,-190.5"/>
<text text-anchor="middle" x="1370.5" y="-197.5" font-family="Helvetica,sans-Serif" font-size="10.00">src/mat4_rotation.c</text>
</a>
</g>
</g>
<!-- Node114&#45;&gt;Node118 -->
<g id="edge62" class="edge">
<title>Node114&#45;&gt;Node118</title>
<path fill="none" stroke="midnightblue" d="M1325.54,-239.54C1336.77,-229.91 1350.82,-217.87 1360.19,-209.83"/>
<polygon fill="midnightblue" stroke="midnightblue" points="1322.94,-237.16 1317.62,-246.32 1327.49,-242.47 1322.94,-237.16"/>
</g>
<!-- Node115&#45;&gt;Node14 -->
<g id="edge59" class="edge">
<title>Node115&#45;&gt;Node14</title>
<path fill="none" stroke="midnightblue" d="M1128.85,-186.93C1097.56,-175.37 1051.12,-158.21 1023.52,-148.01"/>
<polygon fill="midnightblue" stroke="midnightblue" points="1127.84,-190.29 1138.43,-190.48 1130.27,-183.73 1127.84,-190.29"/>
</g>
<!-- Node115&#45;&gt;Node61 -->
<g id="edge58" class="edge">
<title>Node115&#45;&gt;Node61</title>
<path fill="none" stroke="midnightblue" d="M1102.74,-188.78C1057.35,-180.5 993.12,-167.95 937.5,-154 930.49,-152.24 922.98,-150.1 916.03,-148.01"/>
<polygon fill="midnightblue" stroke="midnightblue" points="1102.24,-192.24 1112.7,-190.58 1103.48,-185.35 1102.24,-192.24"/>
</g>
</g>
</svg>
