<?xml version="1.0" encoding="UTF-8" standalone="no"?>
<!DOCTYPE svg PUBLIC "-//W3C//DTD SVG 1.1//EN"
 "http://www.w3.org/Graphics/SVG/1.1/DTD/svg11.dtd">
<!-- Generated by graphviz version 2.43.0 (0)
 -->
<!-- Title: ft_degree_to_radian Pages: 1 -->
<!--zoomable 218 -->
<svg id="main" version="1.1" xmlns="http://www.w3.org/2000/svg" xmlns:xlink="http://www.w3.org/1999/xlink" xml:space="preserve" onload="init(evt)">
<style type="text/css"><![CDATA[
.edge:hover path { stroke: red; }
.edge:hover polygon { stroke: red; fill: red; }
]]></style>
<script type="text/javascript"><![CDATA[
var edges = document.getElementsByTagName('g');
if (edges && edges.length) {
  for (var i=0;i<edges.length;i++) {
    if (edges[i].id.substr(0,4)=='edge') {
      edges[i].setAttribute('class','edge');
    }
  }
}
]]></script>
        <defs>
                <circle id="rim" cx="0" cy="0" r="7"/>
                <circle id="rim2" cx="0" cy="0" r="3.5"/>
                <g id="zoomPlus">
                        <use xlink:href="#rim" fill="#404040">
                                <set attributeName="fill" to="#808080" begin="zoomplus.mouseover" end="zoomplus.mouseout"/>
                        </use>
                        <path d="M-4,0h8M0,-4v8" fill="none" stroke="white" stroke-width="1.5" pointer-events="none"/>
                </g>
                <g id="zoomMin">
                        <use xlink:href="#rim" fill="#404040">
                                <set attributeName="fill" to="#808080" begin="zoomminus.mouseover" end="zoomminus.mouseout"/>
                        </use>
                        <path d="M-4,0h8" fill="none" stroke="white" stroke-width="1.5" pointer-events="none"/>
                </g>
                <g id="dirArrow">
                        <path fill="none" stroke="white" stroke-width="1.5" d="M0,-3.0v7 M-2.5,-0.5L0,-3.0L2.5,-0.5"/>
                </g>
               <g id="resetDef">
                       <use xlink:href="#rim2" fill="#404040">
                               <set attributeName="fill" to="#808080" begin="reset.mouseover" end="reset.mouseout"/>
                       </use>
               </g>
        </defs>

<script type="text/javascript">
var viewWidth = 885;
var viewHeight = 218;
var sectionId = 'dynsection-2';
</script>
<script xlink:href="svgpan.js"/>
<svg id="graph" class="graph">
<g id="viewport">
<title>ft_degree_to_radian</title>
<!-- Node1 -->
<g id="node1" class="node">
<title>Node1</title>
<g id="a_node1"><a xlink:title="Transforms degrees into radian.">
<polygon fill="#bfbfbf" stroke="black" points="764,-76.5 764,-95.5 877,-95.5 877,-76.5 764,-76.5"/>
<text text-anchor="middle" x="820.5" y="-83.5" font-family="Helvetica,sans-Serif" font-size="10.00">ft_degree_to_radian</text>
</a>
</g>
</g>
<!-- Node2 -->
<g id="node2" class="node">
<title>Node2</title>
<g id="a_node2"><a xlink:href="manip_8h.html#aafd27cf2b06772ec739aa2e97164d8b6" target="_top" xlink:title="Changes the camera FOV with a keypress.">
<polygon fill="none" stroke="black" points="611,-171.5 611,-190.5 728,-190.5 728,-171.5 611,-171.5"/>
<text text-anchor="middle" x="669.5" y="-178.5" font-family="Helvetica,sans-Serif" font-size="10.00">ft_keyhook_fov_cam</text>
</a>
</g>
</g>
<!-- Node1&#45;&gt;Node2 -->
<g id="edge1" class="edge">
<title>Node1&#45;&gt;Node2</title>
<path fill="none" stroke="midnightblue" d="M795.94,-101.02C765.03,-120.73 711.67,-154.75 685.65,-171.34"/>
<polygon fill="midnightblue" stroke="midnightblue" points="797.84,-103.96 804.39,-95.63 794.08,-98.06 797.84,-103.96"/>
</g>
<!-- Node5 -->
<g id="node5" class="node">
<title>Node5</title>
<g id="a_node5"><a xlink:href="parse_8h.html#a39197067937cd8880453eed92148ee31" target="_top" xlink:title="Parse camera line.">
<polygon fill="none" stroke="black" points="620.5,-38.5 620.5,-57.5 718.5,-57.5 718.5,-38.5 620.5,-38.5"/>
<text text-anchor="middle" x="669.5" y="-45.5" font-family="Helvetica,sans-Serif" font-size="10.00">ft_parse_camera</text>
</a>
</g>
</g>
<!-- Node1&#45;&gt;Node5 -->
<g id="edge4" class="edge">
<title>Node1&#45;&gt;Node5</title>
<path fill="none" stroke="midnightblue" d="M772.01,-73.89C751.26,-68.6 727.27,-62.48 707.83,-57.52"/>
<polygon fill="midnightblue" stroke="midnightblue" points="771.35,-77.33 781.9,-76.41 773.08,-70.55 771.35,-77.33"/>
</g>
<!-- Node10 -->
<g id="node10" class="node">
<title>Node10</title>
<g id="a_node10"><a xlink:href="utils_8h.html#a211f9d6535bb54bea2299ee5ea8a54a0" target="_top" xlink:title="Rotates a 3D vector around the x&#45;axis.">
<polygon fill="none" stroke="black" points="620.5,-76.5 620.5,-95.5 718.5,-95.5 718.5,-76.5 620.5,-76.5"/>
<text text-anchor="middle" x="669.5" y="-83.5" font-family="Helvetica,sans-Serif" font-size="10.00">ft_vec3_rotate_x</text>
</a>
</g>
</g>
<!-- Node1&#45;&gt;Node10 -->
<g id="edge10" class="edge">
<title>Node1&#45;&gt;Node10</title>
<path fill="none" stroke="midnightblue" d="M753.47,-86C741.84,-86 729.93,-86 718.9,-86"/>
<polygon fill="midnightblue" stroke="midnightblue" points="753.59,-89.5 763.59,-86 753.59,-82.5 753.59,-89.5"/>
</g>
<!-- Node20 -->
<g id="node20" class="node">
<title>Node20</title>
<g id="a_node20"><a xlink:href="utils_8h.html#ac8a4ca6fb927e3746e7129f8eb04aa46" target="_top" xlink:title="Rotates a 3D vector around the y&#45;axis.">
<polygon fill="none" stroke="black" points="620.5,-114.5 620.5,-133.5 718.5,-133.5 718.5,-114.5 620.5,-114.5"/>
<text text-anchor="middle" x="669.5" y="-121.5" font-family="Helvetica,sans-Serif" font-size="10.00">ft_vec3_rotate_y</text>
</a>
</g>
</g>
<!-- Node1&#45;&gt;Node20 -->
<g id="edge25" class="edge">
<title>Node1&#45;&gt;Node20</title>
<path fill="none" stroke="midnightblue" d="M772.01,-98.11C751.26,-103.4 727.27,-109.52 707.83,-114.48"/>
<polygon fill="midnightblue" stroke="midnightblue" points="773.08,-101.45 781.9,-95.59 771.35,-94.67 773.08,-101.45"/>
</g>
<!-- Node21 -->
<g id="node21" class="node">
<title>Node21</title>
<g id="a_node21"><a xlink:href="utils_8h.html#ad39f8d1d44f9bce6c5025b87a09f7dfc" target="_top" xlink:title="Rotates a 3D vector around the z&#45;axis.">
<polygon fill="none" stroke="black" points="621,-0.5 621,-19.5 718,-19.5 718,-0.5 621,-0.5"/>
<text text-anchor="middle" x="669.5" y="-7.5" font-family="Helvetica,sans-Serif" font-size="10.00">ft_vec3_rotate_z</text>
</a>
</g>
</g>
<!-- Node1&#45;&gt;Node21 -->
<g id="edge29" class="edge">
<title>Node1&#45;&gt;Node21</title>
<path fill="none" stroke="midnightblue" d="M797.84,-70.44C779.81,-58.01 753.11,-40.76 728,-29 720.38,-25.43 711.91,-22.24 703.86,-19.53"/>
<polygon fill="midnightblue" stroke="midnightblue" points="796.23,-73.59 806.43,-76.45 800.24,-67.85 796.23,-73.59"/>
</g>
<!-- Node3 -->
<g id="node3" class="node">
<title>Node3</title>
<g id="a_node3"><a xlink:href="manip_8h.html#a0225ca8a98c8d5cfe2e9d259b5788e33" target="_top" xlink:title="Manipulates the camera with a keypress.">
<polygon fill="none" stroke="black" points="298,-190.5 298,-209.5 384,-209.5 384,-190.5 298,-190.5"/>
<text text-anchor="middle" x="341" y="-197.5" font-family="Helvetica,sans-Serif" font-size="10.00">ft_manip_cam</text>
</a>
</g>
</g>
<!-- Node2&#45;&gt;Node3 -->
<g id="edge2" class="edge">
<title>Node2&#45;&gt;Node3</title>
<path fill="none" stroke="midnightblue" d="M600.69,-184.95C535.43,-188.74 438.83,-194.37 384.01,-197.56"/>
<polygon fill="midnightblue" stroke="midnightblue" points="601.1,-188.43 610.88,-184.35 600.69,-181.44 601.1,-188.43"/>
</g>
<!-- Node4 -->
<g id="node4" class="node">
<title>Node4</title>
<g id="a_node4"><a xlink:href="manip_8h.html#ad4c2931e2e9392390f987c8ca3c99a5d" target="_top" xlink:title="Branches to the corresponding manipulation function.">
<polygon fill="none" stroke="black" points="0,-152.5 0,-171.5 93,-171.5 93,-152.5 0,-152.5"/>
<text text-anchor="middle" x="46.5" y="-159.5" font-family="Helvetica,sans-Serif" font-size="10.00">ft_manip_scene</text>
</a>
</g>
</g>
<!-- Node3&#45;&gt;Node4 -->
<g id="edge3" class="edge">
<title>Node3&#45;&gt;Node4</title>
<path fill="none" stroke="midnightblue" d="M287.82,-193.22C232.44,-186.03 145.8,-174.77 93.08,-167.92"/>
<polygon fill="midnightblue" stroke="midnightblue" points="287.41,-196.7 297.78,-194.52 288.31,-189.76 287.41,-196.7"/>
</g>
<!-- Node6 -->
<g id="node6" class="node">
<title>Node6</title>
<g id="a_node6"><a xlink:href="parse_8h.html#aa3cdb9030a467c5959cfa6b6b2dc63d7" target="_top" xlink:title="Dispatcher for different parsing functions.">
<polygon fill="none" stroke="black" points="465,-38.5 465,-57.5 549,-57.5 549,-38.5 465,-38.5"/>
<text text-anchor="middle" x="507" y="-45.5" font-family="Helvetica,sans-Serif" font-size="10.00">ft_parse_lines</text>
</a>
</g>
</g>
<!-- Node5&#45;&gt;Node6 -->
<g id="edge5" class="edge">
<title>Node5&#45;&gt;Node6</title>
<path fill="none" stroke="midnightblue" d="M610.27,-48C589.98,-48 567.67,-48 549.07,-48"/>
<polygon fill="midnightblue" stroke="midnightblue" points="610.34,-51.5 620.34,-48 610.34,-44.5 610.34,-51.5"/>
</g>
<!-- Node9 -->
<g id="node9" class="node">
<title>Node9</title>
<g id="a_node9"><a xlink:href="parse__bonus_8h.html#add28570024618d943c18498637fc6bb7" target="_top" xlink:title="Dispatcher for different parsing functions.">
<polygon fill="none" stroke="black" points="447.5,-0.5 447.5,-19.5 566.5,-19.5 566.5,-0.5 447.5,-0.5"/>
<text text-anchor="middle" x="507" y="-7.5" font-family="Helvetica,sans-Serif" font-size="10.00">ft_parse_lines_bonus</text>
</a>
</g>
</g>
<!-- Node5&#45;&gt;Node9 -->
<g id="edge8" class="edge">
<title>Node5&#45;&gt;Node9</title>
<path fill="none" stroke="midnightblue" d="M618.25,-36.1C595.69,-30.76 569.44,-24.55 548.21,-19.52"/>
<polygon fill="midnightblue" stroke="midnightblue" points="617.46,-39.51 628,-38.41 619.07,-32.7 617.46,-39.51"/>
</g>
<!-- Node7 -->
<g id="node7" class="node">
<title>Node7</title>
<g id="a_node7"><a xlink:href="parse_8h.html#a158705dee8e9b7ce48184c8e2fa3c169" target="_top" xlink:title="Imports, checks, and parses the provided file.">
<polygon fill="none" stroke="black" points="303,-0.5 303,-19.5 379,-19.5 379,-0.5 303,-0.5"/>
<text text-anchor="middle" x="341" y="-7.5" font-family="Helvetica,sans-Serif" font-size="10.00">ft_parse_file</text>
</a>
</g>
</g>
<!-- Node6&#45;&gt;Node7 -->
<g id="edge6" class="edge">
<title>Node6&#45;&gt;Node7</title>
<path fill="none" stroke="midnightblue" d="M454.77,-36.13C430.28,-30.46 401.52,-23.79 379.17,-18.61"/>
<polygon fill="midnightblue" stroke="midnightblue" points="454.08,-39.56 464.62,-38.41 455.66,-32.74 454.08,-39.56"/>
</g>
<!-- Node8 -->
<g id="node8" class="node">
<title>Node8</title>
<g id="a_node8"><a xlink:href="main_8c.html#a3c04138a5bfe5d72780bb7e82a18e627" target="_top" xlink:title=" ">
<polygon fill="none" stroke="black" points="26,-19.5 26,-38.5 67,-38.5 67,-19.5 26,-19.5"/>
<text text-anchor="middle" x="46.5" y="-26.5" font-family="Helvetica,sans-Serif" font-size="10.00">main</text>
</a>
</g>
</g>
<!-- Node7&#45;&gt;Node8 -->
<g id="edge7" class="edge">
<title>Node7&#45;&gt;Node8</title>
<path fill="none" stroke="midnightblue" d="M292.94,-13.06C227.74,-17.29 112.81,-24.76 67.07,-27.73"/>
<polygon fill="midnightblue" stroke="midnightblue" points="293.2,-16.55 302.95,-12.41 292.75,-9.56 293.2,-16.55"/>
</g>
<!-- Node9&#45;&gt;Node7 -->
<g id="edge9" class="edge">
<title>Node9&#45;&gt;Node7</title>
<path fill="none" stroke="midnightblue" d="M437.04,-10C417.28,-10 396.49,-10 379.4,-10"/>
<polygon fill="midnightblue" stroke="midnightblue" points="437.26,-13.5 447.26,-10 437.26,-6.5 437.26,-13.5"/>
</g>
<!-- Node11 -->
<g id="node11" class="node">
<title>Node11</title>
<g id="a_node11"><a xlink:href="manip_8h.html#a492035e87e08c0c7a9e93a3fe4605cc2" target="_top" xlink:title="Rotates the camera with a keypress.">
<polygon fill="none" stroke="black" points="449.5,-152.5 449.5,-171.5 564.5,-171.5 564.5,-152.5 449.5,-152.5"/>
<text text-anchor="middle" x="507" y="-159.5" font-family="Helvetica,sans-Serif" font-size="10.00">ft_keyhook_rot_cam</text>
</a>
</g>
</g>
<!-- Node10&#45;&gt;Node11 -->
<g id="edge11" class="edge">
<title>Node10&#45;&gt;Node11</title>
<path fill="none" stroke="midnightblue" d="M621.05,-99.54C617.55,-101.18 614.16,-102.99 611,-105 591.36,-117.47 594.9,-130.95 575,-143 568.59,-146.88 561.35,-150 554.07,-152.49"/>
<polygon fill="midnightblue" stroke="midnightblue" points="622.6,-102.69 630.48,-95.6 619.9,-96.23 622.6,-102.69"/>
</g>
<!-- Node12 -->
<g id="node12" class="node">
<title>Node12</title>
<g id="a_node12"><a xlink:href="manip_8h.html#a19285d1e97e1ac6d6d0708ecceb354ed" target="_top" xlink:title="Rotates a 3D vector with a keypress.">
<polygon fill="none" stroke="black" points="451.5,-114.5 451.5,-133.5 562.5,-133.5 562.5,-114.5 451.5,-114.5"/>
<text text-anchor="middle" x="507" y="-121.5" font-family="Helvetica,sans-Serif" font-size="10.00">ft_keyhook_rot_vec</text>
</a>
</g>
</g>
<!-- Node10&#45;&gt;Node12 -->
<g id="edge13" class="edge">
<title>Node10&#45;&gt;Node12</title>
<path fill="none" stroke="midnightblue" d="M618.25,-97.9C595.69,-103.24 569.44,-109.45 548.21,-114.48"/>
<polygon fill="midnightblue" stroke="midnightblue" points="619.07,-101.3 628,-95.59 617.46,-94.49 619.07,-101.3"/>
</g>
<!-- Node17 -->
<g id="node17" class="node">
<title>Node17</title>
<g id="a_node17"><a xlink:href="manip_8h.html#a8b0cab63a8053d366bbefead351d039a" target="_top" xlink:title="Rotates the camera with the mouse.">
<polygon fill="none" stroke="black" points="439,-76.5 439,-95.5 575,-95.5 575,-76.5 439,-76.5"/>
<text text-anchor="middle" x="507" y="-83.5" font-family="Helvetica,sans-Serif" font-size="10.00">ft_mouse_hook_rot_cam</text>
</a>
</g>
</g>
<!-- Node10&#45;&gt;Node17 -->
<g id="edge21" class="edge">
<title>Node10&#45;&gt;Node17</title>
<path fill="none" stroke="midnightblue" d="M610.11,-86C598.74,-86 586.74,-86 575.11,-86"/>
<polygon fill="midnightblue" stroke="midnightblue" points="610.34,-89.5 620.34,-86 610.34,-82.5 610.34,-89.5"/>
</g>
<!-- Node11&#45;&gt;Node3 -->
<g id="edge12" class="edge">
<title>Node11&#45;&gt;Node3</title>
<path fill="none" stroke="midnightblue" d="M454.66,-173.9C431.61,-179.24 404.78,-185.45 383.09,-190.48"/>
<polygon fill="midnightblue" stroke="midnightblue" points="455.66,-177.26 464.62,-171.59 454.08,-170.44 455.66,-177.26"/>
</g>
<!-- Node13 -->
<g id="node13" class="node">
<title>Node13</title>
<g id="a_node13"><a xlink:href="manip__bonus_8h.html#a81fa5494e17be06ab12b226ff9dd7c2a" target="_top" xlink:title="Manipulates the active cone.">
<polygon fill="none" stroke="black" points="297,-152.5 297,-171.5 385,-171.5 385,-152.5 297,-152.5"/>
<text text-anchor="middle" x="341" y="-159.5" font-family="Helvetica,sans-Serif" font-size="10.00">ft_manip_cone</text>
</a>
</g>
</g>
<!-- Node12&#45;&gt;Node13 -->
<g id="edge14" class="edge">
<title>Node12&#45;&gt;Node13</title>
<path fill="none" stroke="midnightblue" d="M454.66,-135.9C431.61,-141.24 404.78,-147.45 383.09,-152.48"/>
<polygon fill="midnightblue" stroke="midnightblue" points="455.66,-139.26 464.62,-133.59 454.08,-132.44 455.66,-139.26"/>
</g>
<!-- Node15 -->
<g id="node15" class="node">
<title>Node15</title>
<g id="a_node15"><a xlink:href="manip_8h.html#a2737927d8cc8ff5dc3bd94b3e11fc1a9" target="_top" xlink:title="Manipulates the active cylinder.">
<polygon fill="none" stroke="black" points="289,-114.5 289,-133.5 393,-133.5 393,-114.5 289,-114.5"/>
<text text-anchor="middle" x="341" y="-121.5" font-family="Helvetica,sans-Serif" font-size="10.00">ft_manip_cylinder</text>
</a>
</g>
</g>
<!-- Node12&#45;&gt;Node15 -->
<g id="edge17" class="edge">
<title>Node12&#45;&gt;Node15</title>
<path fill="none" stroke="midnightblue" d="M441.06,-124C425.1,-124 408.24,-124 393.04,-124"/>
<polygon fill="midnightblue" stroke="midnightblue" points="441.39,-127.5 451.39,-124 441.39,-120.5 441.39,-127.5"/>
</g>
<!-- Node16 -->
<g id="node16" class="node">
<title>Node16</title>
<g id="a_node16"><a xlink:href="manip_8h.html#a2b397fc2e0dd418d497c05b3dff894f1" target="_top" xlink:title="Manipulates the active plane.">
<polygon fill="none" stroke="black" points="295,-76.5 295,-95.5 387,-95.5 387,-76.5 295,-76.5"/>
<text text-anchor="middle" x="341" y="-83.5" font-family="Helvetica,sans-Serif" font-size="10.00">ft_manip_plane</text>
</a>
</g>
</g>
<!-- Node12&#45;&gt;Node16 -->
<g id="edge19" class="edge">
<title>Node12&#45;&gt;Node16</title>
<path fill="none" stroke="midnightblue" d="M454.66,-112.1C431.61,-106.76 404.78,-100.55 383.09,-95.52"/>
<polygon fill="midnightblue" stroke="midnightblue" points="454.08,-115.56 464.62,-114.41 455.66,-108.74 454.08,-115.56"/>
</g>
<!-- Node14 -->
<g id="node14" class="node">
<title>Node14</title>
<g id="a_node14"><a xlink:href="manip_8h.html#a58cfb6d04ac9120cc228cbc5411b2005" target="_top" xlink:title="Manipulates the active hittable.">
<polygon fill="none" stroke="black" points="135,-133.5 135,-152.5 237,-152.5 237,-133.5 135,-133.5"/>
<text text-anchor="middle" x="186" y="-140.5" font-family="Helvetica,sans-Serif" font-size="10.00">ft_manip_hittable</text>
</a>
</g>
</g>
<!-- Node13&#45;&gt;Node14 -->
<g id="edge15" class="edge">
<title>Node13&#45;&gt;Node14</title>
<path fill="none" stroke="midnightblue" d="M286.68,-155.38C270.65,-153.39 253.11,-151.21 237.28,-149.24"/>
<polygon fill="midnightblue" stroke="midnightblue" points="286.62,-158.9 296.97,-156.66 287.48,-151.95 286.62,-158.9"/>
</g>
<!-- Node14&#45;&gt;Node4 -->
<g id="edge16" class="edge">
<title>Node14&#45;&gt;Node4</title>
<path fill="none" stroke="midnightblue" d="M124.89,-151.31C114.24,-152.78 103.32,-154.29 93.16,-155.69"/>
<polygon fill="midnightblue" stroke="midnightblue" points="125.54,-154.75 134.97,-149.91 124.59,-147.82 125.54,-154.75"/>
</g>
<!-- Node15&#45;&gt;Node14 -->
<g id="edge18" class="edge">
<title>Node15&#45;&gt;Node14</title>
<path fill="none" stroke="midnightblue" d="M278.33,-131.66C264.67,-133.36 250.34,-135.13 237.2,-136.77"/>
<polygon fill="midnightblue" stroke="midnightblue" points="279.14,-135.09 288.63,-130.38 278.27,-128.14 279.14,-135.09"/>
</g>
<!-- Node16&#45;&gt;Node14 -->
<g id="edge20" class="edge">
<title>Node16&#45;&gt;Node14</title>
<path fill="none" stroke="midnightblue" d="M297.75,-98.62C291.43,-100.66 285.02,-102.82 279,-105 254.62,-113.81 227.23,-125.34 208.72,-133.38"/>
<polygon fill="midnightblue" stroke="midnightblue" points="299.05,-101.88 307.53,-95.52 296.94,-95.2 299.05,-101.88"/>
</g>
<!-- Node18 -->
<g id="node18" class="node">
<title>Node18</title>
<g id="a_node18"><a xlink:href="manip_8h.html#a789550edaaab12e30e0d8c779abdc1b8" target="_top" xlink:title="Handles mouse movement.">
<polygon fill="none" stroke="black" points="279,-38.5 279,-57.5 403,-57.5 403,-38.5 279,-38.5"/>
<text text-anchor="middle" x="341" y="-45.5" font-family="Helvetica,sans-Serif" font-size="10.00">ft_mouse_hook_move</text>
</a>
</g>
</g>
<!-- Node17&#45;&gt;Node18 -->
<g id="edge22" class="edge">
<title>Node17&#45;&gt;Node18</title>
<path fill="none" stroke="midnightblue" d="M454.66,-74.1C431.61,-68.76 404.78,-62.55 383.09,-57.52"/>
<polygon fill="midnightblue" stroke="midnightblue" points="454.08,-77.56 464.62,-76.41 455.66,-70.74 454.08,-77.56"/>
</g>
<!-- Node19 -->
<g id="node19" class="node">
<title>Node19</title>
<g id="a_node19"><a xlink:href="render_8h.html#ab7a01aa5d27d2fad2942a43a31ae0d52" target="_top" xlink:title="Starts the mlx loop.">
<polygon fill="none" stroke="black" points="129,-38.5 129,-57.5 243,-57.5 243,-38.5 129,-38.5"/>
<text text-anchor="middle" x="186" y="-45.5" font-family="Helvetica,sans-Serif" font-size="10.00">ft_render_start_loop</text>
</a>
</g>
</g>
<!-- Node18&#45;&gt;Node19 -->
<g id="edge23" class="edge">
<title>Node18&#45;&gt;Node19</title>
<path fill="none" stroke="midnightblue" d="M268.46,-48C260.06,-48 251.57,-48 243.41,-48"/>
<polygon fill="midnightblue" stroke="midnightblue" points="268.65,-51.5 278.65,-48 268.65,-44.5 268.65,-51.5"/>
</g>
<!-- Node19&#45;&gt;Node8 -->
<g id="edge24" class="edge">
<title>Node19&#45;&gt;Node8</title>
<path fill="none" stroke="midnightblue" d="M118.62,-38.83C99.88,-36.24 80.89,-33.61 67.26,-31.73"/>
<polygon fill="midnightblue" stroke="midnightblue" points="118.29,-42.32 128.68,-40.22 119.25,-35.38 118.29,-42.32"/>
</g>
<!-- Node20&#45;&gt;Node11 -->
<g id="edge26" class="edge">
<title>Node20&#45;&gt;Node11</title>
<path fill="none" stroke="midnightblue" d="M618.25,-135.9C595.69,-141.24 569.44,-147.45 548.21,-152.48"/>
<polygon fill="midnightblue" stroke="midnightblue" points="619.07,-139.3 628,-133.59 617.46,-132.49 619.07,-139.3"/>
</g>
<!-- Node20&#45;&gt;Node12 -->
<g id="edge27" class="edge">
<title>Node20&#45;&gt;Node12</title>
<path fill="none" stroke="midnightblue" d="M610.31,-124C594.74,-124 577.96,-124 562.59,-124"/>
<polygon fill="midnightblue" stroke="midnightblue" points="610.34,-127.5 620.34,-124 610.34,-120.5 610.34,-127.5"/>
</g>
<!-- Node20&#45;&gt;Node17 -->
<g id="edge28" class="edge">
<title>Node20&#45;&gt;Node17</title>
<path fill="none" stroke="midnightblue" d="M618.25,-112.1C595.69,-106.76 569.44,-100.55 548.21,-95.52"/>
<polygon fill="midnightblue" stroke="midnightblue" points="617.46,-115.51 628,-114.41 619.07,-108.7 617.46,-115.51"/>
</g>
</g>
</svg>
        <g id="navigator" transform="translate(0 0)" fill="#404254">
                <rect fill="#f2f5e9" fill-opacity="0.5" stroke="#606060" stroke-width=".5" x="0" y="0" width="60" height="60"/>
                <use id="zoomplus" xlink:href="#zoomPlus" x="17" y="9" onmousedown="handleZoom(evt,'in')"/>
                <use id="zoomminus" xlink:href="#zoomMin" x="42" y="9" onmousedown="handleZoom(evt,'out')"/>
                <use id="reset" xlink:href="#resetDef" x="30" y="36" onmousedown="handleReset()"/>
                <g id="arrowUp" xlink:href="#dirArrow" transform="translate(30 24)" onmousedown="handlePan(0,-1)">
                  <use xlink:href="#rim" fill="#404040">
                        <set attributeName="fill" to="#808080" begin="arrowUp.mouseover" end="arrowUp.mouseout"/>
                  </use>
                  <path fill="none" stroke="white" stroke-width="1.5" d="M0,-3.0v7 M-2.5,-0.5L0,-3.0L2.5,-0.5"/>
                </g>
                <g id="arrowRight" xlink:href="#dirArrow" transform="rotate(90) translate(36 -43)" onmousedown="handlePan(1,0)">
                  <use xlink:href="#rim" fill="#404040">
                        <set attributeName="fill" to="#808080" begin="arrowRight.mouseover" end="arrowRight.mouseout"/>
                  </use>
                  <path fill="none" stroke="white" stroke-width="1.5" d="M0,-3.0v7 M-2.5,-0.5L0,-3.0L2.5,-0.5"/>
                </g>
                <g id="arrowDown" xlink:href="#dirArrow" transform="rotate(180) translate(-30 -48)" onmousedown="handlePan(0,1)">
                  <use xlink:href="#rim" fill="#404040">
                        <set attributeName="fill" to="#808080" begin="arrowDown.mouseover" end="arrowDown.mouseout"/>
                  </use>
                  <path fill="none" stroke="white" stroke-width="1.5" d="M0,-3.0v7 M-2.5,-0.5L0,-3.0L2.5,-0.5"/>
                </g>
                <g id="arrowLeft" xlink:href="#dirArrow" transform="rotate(270) translate(-36 17)" onmousedown="handlePan(-1,0)">
                  <use xlink:href="#rim" fill="#404040">
                        <set attributeName="fill" to="#808080" begin="arrowLeft.mouseover" end="arrowLeft.mouseout"/>
                  </use>
                  <path fill="none" stroke="white" stroke-width="1.5" d="M0,-3.0v7 M-2.5,-0.5L0,-3.0L2.5,-0.5"/>
                </g>
        </g>
        <svg viewBox="0 0 15 15" width="100%" height="30px" preserveAspectRatio="xMaxYMin meet">
         <g id="arrow_out" transform="scale(0.3 0.3)">
          <a xlink:href="utils_8h_a7d1328722f9dc6edd652f7c732856ae9_icgraph_org.svg" target="_base">
           <rect id="button" ry="5" rx="5" y="6" x="6" height="38" width="38"
                fill="#f2f5e9" fill-opacity="0.5" stroke="#606060" stroke-width="1.0"/>
           <path id="arrow"
             d="M 11.500037,31.436501 C 11.940474,20.09759 22.043105,11.32322 32.158766,21.979434 L 37.068811,17.246167 C 37.068811,17.246167 37.088388,32 37.088388,32 L 22.160133,31.978069 C 22.160133,31.978069 26.997745,27.140456 26.997745,27.140456 C 18.528582,18.264221 13.291696,25.230495 11.500037,31.436501 z"
             style="fill:#404040;"/>
          </a>
         </g>
        </svg>
</svg>
