<?xml version="1.0" encoding="UTF-8" standalone="no"?>
<!DOCTYPE svg PUBLIC "-//W3C//DTD SVG 1.1//EN"
 "http://www.w3.org/Graphics/SVG/1.1/DTD/svg11.dtd">
<!-- Generated by graphviz version 2.43.0 (0)
 -->
<!-- Title: inc/vec2.h Pages: 1 -->
<svg width="2833pt" height="509pt"
 viewBox="0.00 0.00 2833.39 509.00" xmlns="http://www.w3.org/2000/svg" xmlns:xlink="http://www.w3.org/1999/xlink">
<g id="graph0" class="graph" transform="scale(1 1) rotate(0) translate(4 505)">
<title>inc/vec2.h</title>
<!-- Node1 -->
<g id="node1" class="node">
<title>Node1</title>
<g id="a_node1"><a xlink:title=" ">
<polygon fill="#bfbfbf" stroke="black" points="1678.89,-481.5 1678.89,-500.5 1744.89,-500.5 1744.89,-481.5 1678.89,-481.5"/>
<text text-anchor="middle" x="1711.89" y="-488.5" font-family="Helvetica,sans-Serif" font-size="10.00">inc/vec2.h</text>
</a>
</g>
</g>
<!-- Node2 -->
<g id="node2" class="node">
<title>Node2</title>
<g id="a_node2"><a xlink:href="camera_8h.html" target="_top" xlink:title=" ">
<polygon fill="none" stroke="black" points="1237.89,-425.5 1237.89,-444.5 1317.89,-444.5 1317.89,-425.5 1237.89,-425.5"/>
<text text-anchor="middle" x="1277.89" y="-432.5" font-family="Helvetica,sans-Serif" font-size="10.00">inc/camera.h</text>
</a>
</g>
</g>
<!-- Node1&#45;&gt;Node2 -->
<g id="edge1" class="edge">
<title>Node1&#45;&gt;Node2</title>
<path fill="none" stroke="midnightblue" d="M1668.56,-484.61C1584.38,-474.13 1399.85,-451.17 1318.17,-441.01"/>
<polygon fill="midnightblue" stroke="midnightblue" points="1668.2,-488.09 1678.56,-485.85 1669.06,-481.14 1668.2,-488.09"/>
</g>
<!-- Node78 -->
<g id="node42" class="node">
<title>Node78</title>
<g id="a_node42"><a xlink:href="render__struct_8h.html" target="_top" xlink:title=" ">
<polygon fill="none" stroke="black" points="1658.39,-369.5 1658.39,-388.5 1765.39,-388.5 1765.39,-369.5 1658.39,-369.5"/>
<text text-anchor="middle" x="1711.89" y="-376.5" font-family="Helvetica,sans-Serif" font-size="10.00">inc/render_struct.h</text>
</a>
</g>
</g>
<!-- Node1&#45;&gt;Node78 -->
<g id="edge62" class="edge">
<title>Node1&#45;&gt;Node78</title>
<path fill="none" stroke="midnightblue" d="M1711.89,-471.35C1711.89,-447.25 1711.89,-406.31 1711.89,-388.59"/>
<polygon fill="midnightblue" stroke="midnightblue" points="1708.39,-471.37 1711.89,-481.37 1715.39,-471.37 1708.39,-471.37"/>
</g>
<!-- Node86 -->
<g id="node49" class="node">
<title>Node86</title>
<g id="a_node49"><a xlink:href="error__mlx_8h.html" target="_top" xlink:title=" ">
<polygon fill="none" stroke="black" points="1897.89,-425.5 1897.89,-444.5 1987.89,-444.5 1987.89,-425.5 1897.89,-425.5"/>
<text text-anchor="middle" x="1942.89" y="-432.5" font-family="Helvetica,sans-Serif" font-size="10.00">inc/error_mlx.h</text>
</a>
</g>
</g>
<!-- Node1&#45;&gt;Node86 -->
<g id="edge59" class="edge">
<title>Node1&#45;&gt;Node86</title>
<path fill="none" stroke="midnightblue" d="M1754.73,-479.98C1798.36,-469.79 1865.26,-454.15 1906.42,-444.52"/>
<polygon fill="midnightblue" stroke="midnightblue" points="1753.93,-476.58 1744.99,-482.26 1755.52,-483.39 1753.93,-476.58"/>
</g>
<!-- Node3 -->
<g id="node3" class="node">
<title>Node3</title>
<g id="a_node3"><a xlink:href="debug__print_8h.html" target="_top" xlink:title=" ">
<polygon fill="none" stroke="black" points="1123.39,-369.5 1123.39,-388.5 1224.39,-388.5 1224.39,-369.5 1123.39,-369.5"/>
<text text-anchor="middle" x="1173.89" y="-376.5" font-family="Helvetica,sans-Serif" font-size="10.00">inc/debug_print.h</text>
</a>
</g>
</g>
<!-- Node2&#45;&gt;Node3 -->
<g id="edge2" class="edge">
<title>Node2&#45;&gt;Node3</title>
<path fill="none" stroke="midnightblue" d="M1252.06,-420.59C1232.83,-410.61 1207.15,-397.27 1190.56,-388.65"/>
<polygon fill="midnightblue" stroke="midnightblue" points="1250.69,-423.82 1261.18,-425.32 1253.92,-417.61 1250.69,-423.82"/>
</g>
<!-- Node6 -->
<g id="node6" class="node">
<title>Node6</title>
<g id="a_node6"><a xlink:href="parse_8h.html" target="_top" xlink:title=" ">
<polygon fill="none" stroke="black" points="1242.89,-369.5 1242.89,-388.5 1312.89,-388.5 1312.89,-369.5 1242.89,-369.5"/>
<text text-anchor="middle" x="1277.89" y="-376.5" font-family="Helvetica,sans-Serif" font-size="10.00">inc/parse.h</text>
</a>
</g>
</g>
<!-- Node2&#45;&gt;Node6 -->
<g id="edge5" class="edge">
<title>Node2&#45;&gt;Node6</title>
<path fill="none" stroke="midnightblue" d="M1277.89,-414.8C1277.89,-405.91 1277.89,-395.78 1277.89,-388.75"/>
<polygon fill="midnightblue" stroke="midnightblue" points="1274.39,-415.08 1277.89,-425.08 1281.39,-415.08 1274.39,-415.08"/>
</g>
<!-- Node17 -->
<g id="node16" class="node">
<title>Node17</title>
<g id="a_node16"><a xlink:href="ray__bonus_8h.html" target="_top" xlink:title=" ">
<polygon fill="none" stroke="black" points="1334.39,-179.5 1334.39,-198.5 1427.39,-198.5 1427.39,-179.5 1334.39,-179.5"/>
<text text-anchor="middle" x="1380.89" y="-186.5" font-family="Helvetica,sans-Serif" font-size="10.00">inc/ray_bonus.h</text>
</a>
</g>
</g>
<!-- Node2&#45;&gt;Node17 -->
<g id="edge15" class="edge">
<title>Node2&#45;&gt;Node17</title>
<path fill="none" stroke="midnightblue" d="M1328.07,-428.33C1384.15,-419.04 1472.64,-394.9 1514.89,-333 1539.45,-297.02 1542.4,-270.31 1516.89,-235 1496.65,-206.98 1458.29,-196.12 1427.46,-192.05"/>
<polygon fill="midnightblue" stroke="midnightblue" points="1327.33,-424.9 1317.99,-429.9 1328.41,-431.82 1327.33,-424.9"/>
</g>
<!-- Node2&#45;&gt;Node78 -->
<g id="edge45" class="edge">
<title>Node2&#45;&gt;Node78</title>
<path fill="none" stroke="midnightblue" d="M1328.05,-427.76C1410.42,-417.51 1573.61,-397.21 1658.21,-386.68"/>
<polygon fill="midnightblue" stroke="midnightblue" points="1327.43,-424.31 1317.94,-429.02 1328.3,-431.26 1327.43,-424.31"/>
</g>
<!-- Node84 -->
<g id="node47" class="node">
<title>Node84</title>
<g id="a_node47"><a xlink:href="camera_8c.html" target="_top" xlink:title=" ">
<polygon fill="none" stroke="black" points="871.39,-369.5 871.39,-388.5 950.39,-388.5 950.39,-369.5 871.39,-369.5"/>
<text text-anchor="middle" x="910.89" y="-376.5" font-family="Helvetica,sans-Serif" font-size="10.00">src/camera.c</text>
</a>
</g>
</g>
<!-- Node2&#45;&gt;Node84 -->
<g id="edge57" class="edge">
<title>Node2&#45;&gt;Node84</title>
<path fill="none" stroke="midnightblue" d="M1227.72,-427.64C1164.79,-419.49 1053.65,-404.56 958.89,-389 956.13,-388.55 953.28,-388.06 950.42,-387.56"/>
<polygon fill="midnightblue" stroke="midnightblue" points="1227.4,-431.12 1237.77,-428.93 1228.3,-424.18 1227.4,-431.12"/>
</g>
<!-- Node85 -->
<g id="node48" class="node">
<title>Node85</title>
<g id="a_node48"><a xlink:href="camera__movement_8c.html" target="_top" xlink:title=" ">
<polygon fill="none" stroke="black" points="968.39,-369.5 968.39,-388.5 1105.39,-388.5 1105.39,-369.5 968.39,-369.5"/>
<text text-anchor="middle" x="1036.89" y="-376.5" font-family="Helvetica,sans-Serif" font-size="10.00">src/camera_movement.c</text>
</a>
</g>
</g>
<!-- Node2&#45;&gt;Node85 -->
<g id="edge58" class="edge">
<title>Node2&#45;&gt;Node85</title>
<path fill="none" stroke="midnightblue" d="M1229.77,-423.22C1184.23,-413.01 1116.78,-397.9 1074.9,-388.52"/>
<polygon fill="midnightblue" stroke="midnightblue" points="1229.18,-426.67 1239.7,-425.44 1230.71,-419.84 1229.18,-426.67"/>
</g>
<!-- Node4 -->
<g id="node4" class="node">
<title>Node4</title>
<g id="a_node4"><a xlink:href="debug__print__entity_8c.html" target="_top" xlink:title=" ">
<polygon fill="none" stroke="black" points="779.89,-308 779.89,-327 911.89,-327 911.89,-308 779.89,-308"/>
<text text-anchor="middle" x="845.89" y="-315" font-family="Helvetica,sans-Serif" font-size="10.00">src/debug_print_entity.c</text>
</a>
</g>
</g>
<!-- Node3&#45;&gt;Node4 -->
<g id="edge3" class="edge">
<title>Node3&#45;&gt;Node4</title>
<path fill="none" stroke="midnightblue" d="M1114.48,-367.69C1063.18,-358.73 987.1,-345.29 920.89,-333 910.72,-331.11 899.78,-329.03 889.49,-327.04"/>
<polygon fill="midnightblue" stroke="midnightblue" points="1113.95,-371.15 1124.4,-369.42 1115.15,-364.26 1113.95,-371.15"/>
</g>
<!-- Node5 -->
<g id="node5" class="node">
<title>Node5</title>
<g id="a_node5"><a xlink:href="debug__print__struct_8c.html" target="_top" xlink:title=" ">
<polygon fill="none" stroke="black" points="628.39,-308 628.39,-327 761.39,-327 761.39,-308 628.39,-308"/>
<text text-anchor="middle" x="694.89" y="-315" font-family="Helvetica,sans-Serif" font-size="10.00">src/debug_print_struct.c</text>
</a>
</g>
</g>
<!-- Node3&#45;&gt;Node5 -->
<g id="edge4" class="edge">
<title>Node3&#45;&gt;Node5</title>
<path fill="none" stroke="midnightblue" d="M1112.94,-368.94C960.1,-349.86 919.27,-354.9 770.89,-333 759.59,-331.33 747.42,-329.17 736.2,-327.03"/>
<polygon fill="midnightblue" stroke="midnightblue" points="1112.81,-372.45 1123.17,-370.23 1113.69,-365.51 1112.81,-372.45"/>
</g>
<!-- Node7 -->
<g id="node7" class="node">
<title>Node7</title>
<g id="a_node7"><a xlink:href="parse__bonus_8h.html" target="_top" xlink:title=" ">
<polygon fill="none" stroke="black" points="1401.89,-308 1401.89,-327 1505.89,-327 1505.89,-308 1401.89,-308"/>
<text text-anchor="middle" x="1453.89" y="-315" font-family="Helvetica,sans-Serif" font-size="10.00">inc/parse_bonus.h</text>
</a>
</g>
</g>
<!-- Node6&#45;&gt;Node7 -->
<g id="edge6" class="edge">
<title>Node6&#45;&gt;Node7</title>
<path fill="none" stroke="midnightblue" d="M1312.7,-366.23C1346.91,-354.67 1398.29,-337.3 1428.72,-327.01"/>
<polygon fill="midnightblue" stroke="midnightblue" points="1311.46,-362.96 1303.11,-369.48 1313.7,-369.59 1311.46,-362.96"/>
</g>
<!-- Node13 -->
<g id="node12" class="node">
<title>Node13</title>
<g id="a_node12"><a xlink:href="parse_8c.html" target="_top" xlink:title=" ">
<polygon fill="none" stroke="black" points="930.39,-308 930.39,-327 999.39,-327 999.39,-308 930.39,-308"/>
<text text-anchor="middle" x="964.89" y="-315" font-family="Helvetica,sans-Serif" font-size="10.00">src/parse.c</text>
</a>
</g>
</g>
<!-- Node6&#45;&gt;Node13 -->
<g id="edge11" class="edge">
<title>Node6&#45;&gt;Node13</title>
<path fill="none" stroke="midnightblue" d="M1232.53,-369.02C1131.46,-351.42 1103.14,-356.51 1007.89,-333 1001.31,-331.38 994.3,-329.21 987.89,-327.04"/>
<polygon fill="midnightblue" stroke="midnightblue" points="1232.08,-372.5 1242.54,-370.8 1233.31,-365.6 1232.08,-372.5"/>
</g>
<!-- Node14 -->
<g id="node13" class="node">
<title>Node14</title>
<g id="a_node13"><a xlink:href="parse__entity___a_c_l_8c.html" target="_top" xlink:title=" ">
<polygon fill="none" stroke="black" points="1017.39,-308 1017.39,-327 1144.39,-327 1144.39,-308 1017.39,-308"/>
<text text-anchor="middle" x="1080.89" y="-315" font-family="Helvetica,sans-Serif" font-size="10.00">src/parse_entity_ACL.c</text>
</a>
</g>
</g>
<!-- Node6&#45;&gt;Node14 -->
<g id="edge12" class="edge">
<title>Node6&#45;&gt;Node14</title>
<path fill="none" stroke="midnightblue" d="M1239.91,-366.53C1201.62,-354.96 1143.42,-337.38 1109.06,-327.01"/>
<polygon fill="midnightblue" stroke="midnightblue" points="1239.08,-369.93 1249.66,-369.48 1241.1,-363.23 1239.08,-369.93"/>
</g>
<!-- Node15 -->
<g id="node14" class="node">
<title>Node15</title>
<g id="a_node14"><a xlink:href="parse__entity__sp__pl__cy_8c.html" target="_top" xlink:title=" ">
<polygon fill="none" stroke="black" points="1162.39,-302.5 1162.39,-332.5 1273.39,-332.5 1273.39,-302.5 1162.39,-302.5"/>
<text text-anchor="start" x="1170.39" y="-320.5" font-family="Helvetica,sans-Serif" font-size="10.00">src/parse_entity_sp</text>
<text text-anchor="middle" x="1217.89" y="-309.5" font-family="Helvetica,sans-Serif" font-size="10.00">_pl_cy.c</text>
</a>
</g>
</g>
<!-- Node6&#45;&gt;Node15 -->
<g id="edge13" class="edge">
<title>Node6&#45;&gt;Node15</title>
<path fill="none" stroke="midnightblue" d="M1262.13,-362.37C1252.79,-353.11 1241.07,-341.48 1232.03,-332.52"/>
<polygon fill="midnightblue" stroke="midnightblue" points="1259.73,-364.92 1269.29,-369.48 1264.66,-359.95 1259.73,-364.92"/>
</g>
<!-- Node16 -->
<g id="node15" class="node">
<title>Node16</title>
<g id="a_node15"><a xlink:href="parse__line_8c.html" target="_top" xlink:title=" ">
<polygon fill="none" stroke="black" points="1291.89,-308 1291.89,-327 1383.89,-327 1383.89,-308 1291.89,-308"/>
<text text-anchor="middle" x="1337.89" y="-315" font-family="Helvetica,sans-Serif" font-size="10.00">src/parse_line.c</text>
</a>
</g>
</g>
<!-- Node6&#45;&gt;Node16 -->
<g id="edge14" class="edge">
<title>Node6&#45;&gt;Node16</title>
<path fill="none" stroke="midnightblue" d="M1293.7,-362.32C1305.1,-351.02 1320.05,-336.19 1329.31,-327.01"/>
<polygon fill="midnightblue" stroke="midnightblue" points="1291.12,-359.95 1286.49,-369.48 1296.05,-364.92 1291.12,-359.95"/>
</g>
<!-- Node8 -->
<g id="node8" class="node">
<title>Node8</title>
<g id="a_node8"><a xlink:href="mini_r_t_8h.html" target="_top" xlink:title=" ">
<polygon fill="none" stroke="red" points="1121.89,-6 1121.89,-25 1197.89,-25 1197.89,-6 1121.89,-6"/>
<text text-anchor="middle" x="1159.89" y="-13" font-family="Helvetica,sans-Serif" font-size="10.00">inc/miniRT.h</text>
</a>
</g>
</g>
<!-- Node7&#45;&gt;Node8 -->
<g id="edge7" class="edge">
<title>Node7&#45;&gt;Node8</title>
<path fill="none" stroke="midnightblue" d="M1410.61,-305.69C1404.68,-304.36 1398.65,-303.09 1392.89,-302 1336.88,-291.4 1181.25,-304.16 1138.89,-266 1113.02,-242.7 1119.89,-224.82 1119.89,-190 1119.89,-190 1119.89,-190 1119.89,-132 1119.89,-89.98 1143.82,-43.87 1154.66,-25.13"/>
<polygon fill="midnightblue" stroke="midnightblue" points="1409.92,-309.12 1420.45,-307.96 1411.49,-302.3 1409.92,-309.12"/>
</g>
<!-- Node10 -->
<g id="node9" class="node">
<title>Node10</title>
<g id="a_node9"><a xlink:href="parse__bonus_8c.html" target="_top" xlink:title=" ">
<polygon fill="none" stroke="black" points="1147.89,-241 1147.89,-260 1251.89,-260 1251.89,-241 1147.89,-241"/>
<text text-anchor="middle" x="1199.89" y="-248" font-family="Helvetica,sans-Serif" font-size="10.00">src/parse_bonus.c</text>
</a>
</g>
</g>
<!-- Node7&#45;&gt;Node10 -->
<g id="edge8" class="edge">
<title>Node7&#45;&gt;Node10</title>
<path fill="none" stroke="midnightblue" d="M1410.53,-305.4C1360.4,-292.58 1278.97,-271.74 1233.43,-260.08"/>
<polygon fill="midnightblue" stroke="midnightblue" points="1409.87,-308.85 1420.42,-307.94 1411.6,-302.07 1409.87,-308.85"/>
</g>
<!-- Node11 -->
<g id="node10" class="node">
<title>Node11</title>
<g id="a_node10"><a xlink:href="parse__entity__sp__pl__cy__bonus_8c.html" target="_top" xlink:title=" ">
<polygon fill="none" stroke="black" points="1270.39,-235.5 1270.39,-265.5 1381.39,-265.5 1381.39,-235.5 1270.39,-235.5"/>
<text text-anchor="start" x="1278.39" y="-253.5" font-family="Helvetica,sans-Serif" font-size="10.00">src/parse_entity_sp</text>
<text text-anchor="middle" x="1325.89" y="-242.5" font-family="Helvetica,sans-Serif" font-size="10.00">_pl_cy_bonus.c</text>
</a>
</g>
</g>
<!-- Node7&#45;&gt;Node11 -->
<g id="edge9" class="edge">
<title>Node7&#45;&gt;Node11</title>
<path fill="none" stroke="midnightblue" d="M1427.69,-303.19C1406.16,-292.26 1375.73,-276.81 1353.76,-265.65"/>
<polygon fill="midnightblue" stroke="midnightblue" points="1426.39,-306.46 1436.89,-307.87 1429.56,-300.22 1426.39,-306.46"/>
</g>
<!-- Node12 -->
<g id="node11" class="node">
<title>Node12</title>
<g id="a_node11"><a xlink:href="parse__win__size__bonus_8c.html" target="_top" xlink:title=" ">
<polygon fill="none" stroke="black" points="1399.89,-235.5 1399.89,-265.5 1507.89,-265.5 1507.89,-235.5 1399.89,-235.5"/>
<text text-anchor="start" x="1407.89" y="-253.5" font-family="Helvetica,sans-Serif" font-size="10.00">src/parse_win_size</text>
<text text-anchor="middle" x="1453.89" y="-242.5" font-family="Helvetica,sans-Serif" font-size="10.00">_bonus.c</text>
</a>
</g>
</g>
<!-- Node7&#45;&gt;Node12 -->
<g id="edge10" class="edge">
<title>Node7&#45;&gt;Node12</title>
<path fill="none" stroke="midnightblue" d="M1453.89,-297.41C1453.89,-287.22 1453.89,-274.9 1453.89,-265.59"/>
<polygon fill="midnightblue" stroke="midnightblue" points="1450.39,-297.73 1453.89,-307.73 1457.39,-297.73 1450.39,-297.73"/>
</g>
<!-- Node18 -->
<g id="node17" class="node">
<title>Node18</title>
<g id="a_node17"><a xlink:href="hit__manager_8h.html" target="_top" xlink:title=" ">
<polygon fill="none" stroke="black" points="1248.89,-123.5 1248.89,-142.5 1352.89,-142.5 1352.89,-123.5 1248.89,-123.5"/>
<text text-anchor="middle" x="1300.89" y="-130.5" font-family="Helvetica,sans-Serif" font-size="10.00">inc/hit_manager.h</text>
</a>
</g>
</g>
<!-- Node17&#45;&gt;Node18 -->
<g id="edge16" class="edge">
<title>Node17&#45;&gt;Node18</title>
<path fill="none" stroke="midnightblue" d="M1359.59,-173.62C1344.97,-163.76 1326.06,-150.99 1313.71,-142.65"/>
<polygon fill="midnightblue" stroke="midnightblue" points="1357.79,-176.63 1368.04,-179.32 1361.71,-170.83 1357.79,-176.63"/>
</g>
<!-- Node19 -->
<g id="node18" class="node">
<title>Node19</title>
<g id="a_node18"><a xlink:href="hit__manager__bonus_8h.html" target="_top" xlink:title=" ">
<polygon fill="none" stroke="black" points="546.39,-123.5 546.39,-142.5 685.39,-142.5 685.39,-123.5 546.39,-123.5"/>
<text text-anchor="middle" x="615.89" y="-130.5" font-family="Helvetica,sans-Serif" font-size="10.00">inc/hit_manager_bonus.h</text>
</a>
</g>
</g>
<!-- Node17&#45;&gt;Node19 -->
<g id="edge17" class="edge">
<title>Node17&#45;&gt;Node19</title>
<path fill="none" stroke="midnightblue" d="M1323.86,-183.97C1186.11,-174.25 835.55,-149.51 685.63,-138.92"/>
<polygon fill="midnightblue" stroke="midnightblue" points="1323.97,-187.49 1334.19,-184.7 1324.46,-180.51 1323.97,-187.49"/>
</g>
<!-- Node35 -->
<g id="node29" class="node">
<title>Node35</title>
<g id="a_node29"><a xlink:href="render_8h.html" target="_top" xlink:title=" ">
<polygon fill="none" stroke="black" points="1848.89,-123.5 1848.89,-142.5 1922.89,-142.5 1922.89,-123.5 1848.89,-123.5"/>
<text text-anchor="middle" x="1885.89" y="-130.5" font-family="Helvetica,sans-Serif" font-size="10.00">inc/render.h</text>
</a>
</g>
</g>
<!-- Node17&#45;&gt;Node35 -->
<g id="edge30" class="edge">
<title>Node17&#45;&gt;Node35</title>
<path fill="none" stroke="midnightblue" d="M1437.52,-181.94C1541.77,-170.8 1761.39,-147.31 1848.83,-137.96"/>
<polygon fill="midnightblue" stroke="midnightblue" points="1437.06,-178.47 1427.49,-183.02 1437.81,-185.43 1437.06,-178.47"/>
</g>
<!-- Node36 -->
<g id="node30" class="node">
<title>Node36</title>
<g id="a_node30"><a xlink:href="render__bonus_8h.html" target="_top" xlink:title=" ">
<polygon fill="none" stroke="red" points="1259.39,-67.5 1259.39,-86.5 1368.39,-86.5 1368.39,-67.5 1259.39,-67.5"/>
<text text-anchor="middle" x="1313.89" y="-74.5" font-family="Helvetica,sans-Serif" font-size="10.00">inc/render_bonus.h</text>
</a>
</g>
</g>
<!-- Node17&#45;&gt;Node36 -->
<g id="edge44" class="edge">
<title>Node17&#45;&gt;Node36</title>
<path fill="none" stroke="midnightblue" d="M1378.15,-169.33C1375.53,-155.72 1370.64,-137.24 1361.89,-123 1352.68,-108.01 1337.18,-94.77 1326.29,-86.6"/>
<polygon fill="midnightblue" stroke="midnightblue" points="1374.74,-170.14 1379.85,-179.42 1381.64,-168.97 1374.74,-170.14"/>
</g>
<!-- Node20 -->
<g id="node19" class="node">
<title>Node20</title>
<g id="a_node19"><a xlink:href="lighting_8h.html" target="_top" xlink:title=" ">
<polygon fill="none" stroke="red" points="841.89,-67.5 841.89,-86.5 921.89,-86.5 921.89,-67.5 841.89,-67.5"/>
<text text-anchor="middle" x="881.89" y="-74.5" font-family="Helvetica,sans-Serif" font-size="10.00">inc/lighting.h</text>
</a>
</g>
</g>
<!-- Node19&#45;&gt;Node20 -->
<g id="edge18" class="edge">
<title>Node19&#45;&gt;Node20</title>
<path fill="none" stroke="midnightblue" d="M667.86,-121.45C718.76,-111.12 795.25,-95.59 841.68,-86.16"/>
<polygon fill="midnightblue" stroke="midnightblue" points="667.14,-118.02 658.04,-123.44 668.53,-124.88 667.14,-118.02"/>
</g>
<!-- Node22 -->
<g id="node20" class="node">
<title>Node22</title>
<g id="a_node20"><a xlink:href="lighting__bonus_8h.html" target="_top" xlink:title=" ">
<polygon fill="none" stroke="red" points="984.89,-6 984.89,-25 1098.89,-25 1098.89,-6 984.89,-6"/>
<text text-anchor="middle" x="1041.89" y="-13" font-family="Helvetica,sans-Serif" font-size="10.00">inc/lighting_bonus.h</text>
</a>
</g>
</g>
<!-- Node19&#45;&gt;Node22 -->
<g id="edge19" class="edge">
<title>Node19&#45;&gt;Node22</title>
<path fill="none" stroke="midnightblue" d="M695.55,-129.65C817.22,-125.22 1037.84,-113.6 1061.89,-87 1077.93,-69.26 1059.63,-39.55 1048.77,-25.02"/>
<polygon fill="midnightblue" stroke="midnightblue" points="695.4,-126.15 685.53,-130 695.65,-133.15 695.4,-126.15"/>
</g>
<!-- Node26 -->
<g id="node21" class="node">
<title>Node26</title>
<g id="a_node21"><a xlink:href="texture__bonus_8h.html" target="_top" xlink:title=" ">
<polygon fill="none" stroke="red" points="940.39,-67.5 940.39,-86.5 1053.39,-86.5 1053.39,-67.5 940.39,-67.5"/>
<text text-anchor="middle" x="996.89" y="-74.5" font-family="Helvetica,sans-Serif" font-size="10.00">inc/texture_bonus.h</text>
</a>
</g>
</g>
<!-- Node19&#45;&gt;Node26 -->
<g id="edge20" class="edge">
<title>Node19&#45;&gt;Node26</title>
<path fill="none" stroke="midnightblue" d="M686.31,-122.02C759.5,-111.65 872.59,-95.62 940.22,-86.03"/>
<polygon fill="midnightblue" stroke="midnightblue" points="685.67,-118.57 676.26,-123.44 686.65,-125.51 685.67,-118.57"/>
</g>
<!-- Node28 -->
<g id="node22" class="node">
<title>Node28</title>
<g id="a_node22"><a xlink:href="utils__cylinder__bonus_8c.html" target="_top" xlink:title=" ">
<polygon fill="none" stroke="black" points="420.39,-0.5 420.39,-30.5 519.39,-30.5 519.39,-0.5 420.39,-0.5"/>
<text text-anchor="start" x="428.39" y="-18.5" font-family="Helvetica,sans-Serif" font-size="10.00">src/utils_cylinder</text>
<text text-anchor="middle" x="469.89" y="-7.5" font-family="Helvetica,sans-Serif" font-size="10.00">_bonus.c</text>
</a>
</g>
</g>
<!-- Node19&#45;&gt;Node28 -->
<g id="edge29" class="edge">
<title>Node19&#45;&gt;Node28</title>
<path fill="none" stroke="midnightblue" d="M536.03,-132.01C379,-131.19 42.17,-124.98 6.89,-87 -50.52,-25.19 289.32,-17.26 420.15,-16.48"/>
<polygon fill="midnightblue" stroke="midnightblue" points="536.09,-135.51 546.11,-132.06 536.12,-128.51 536.09,-135.51"/>
</g>
<!-- Node29 -->
<g id="node23" class="node">
<title>Node29</title>
<g id="a_node23"><a xlink:href="hit__bonus_8c.html" target="_top" xlink:title=" ">
<polygon fill="none" stroke="black" points="16.39,-67.5 16.39,-86.5 105.39,-86.5 105.39,-67.5 16.39,-67.5"/>
<text text-anchor="middle" x="60.89" y="-74.5" font-family="Helvetica,sans-Serif" font-size="10.00">src/hit_bonus.c</text>
</a>
</g>
</g>
<!-- Node19&#45;&gt;Node29 -->
<g id="edge23" class="edge">
<title>Node19&#45;&gt;Node29</title>
<path fill="none" stroke="midnightblue" d="M535.77,-126.68C436.69,-119.67 262.97,-105.96 114.89,-87 111.87,-86.61 108.77,-86.18 105.64,-85.73"/>
<polygon fill="midnightblue" stroke="midnightblue" points="535.79,-130.19 546.01,-127.4 536.28,-123.21 535.79,-130.19"/>
</g>
<!-- Node30 -->
<g id="node24" class="node">
<title>Node30</title>
<g id="a_node24"><a xlink:href="hit__cone__bonus_8c.html" target="_top" xlink:title=" ">
<polygon fill="none" stroke="black" points="123.89,-67.5 123.89,-86.5 241.89,-86.5 241.89,-67.5 123.89,-67.5"/>
<text text-anchor="middle" x="182.89" y="-74.5" font-family="Helvetica,sans-Serif" font-size="10.00">src/hit_cone_bonus.c</text>
</a>
</g>
</g>
<!-- Node19&#45;&gt;Node30 -->
<g id="edge24" class="edge">
<title>Node19&#45;&gt;Node30</title>
<path fill="none" stroke="midnightblue" d="M536.06,-122.37C462.1,-113.39 349.03,-99.54 250.89,-87 248.05,-86.64 245.15,-86.26 242.22,-85.88"/>
<polygon fill="midnightblue" stroke="midnightblue" points="535.88,-125.87 546.23,-123.6 536.73,-118.92 535.88,-125.87"/>
</g>
<!-- Node31 -->
<g id="node25" class="node">
<title>Node31</title>
<g id="a_node25"><a xlink:href="hit__cylinder__bonus_8c.html" target="_top" xlink:title=" ">
<polygon fill="none" stroke="black" points="259.89,-67.5 259.89,-86.5 393.89,-86.5 393.89,-67.5 259.89,-67.5"/>
<text text-anchor="middle" x="326.89" y="-74.5" font-family="Helvetica,sans-Serif" font-size="10.00">src/hit_cylinder_bonus.c</text>
</a>
</g>
</g>
<!-- Node19&#45;&gt;Node31 -->
<g id="edge25" class="edge">
<title>Node19&#45;&gt;Node31</title>
<path fill="none" stroke="midnightblue" d="M560.23,-121.6C505.62,-111.4 423.32,-96.02 372.47,-86.52"/>
<polygon fill="midnightblue" stroke="midnightblue" points="559.62,-125.05 570.1,-123.44 560.91,-118.17 559.62,-125.05"/>
</g>
<!-- Node32 -->
<g id="node26" class="node">
<title>Node32</title>
<g id="a_node26"><a xlink:href="hit__plane__bonus_8c.html" target="_top" xlink:title=" ">
<polygon fill="none" stroke="black" points="411.89,-67.5 411.89,-86.5 533.89,-86.5 533.89,-67.5 411.89,-67.5"/>
<text text-anchor="middle" x="472.89" y="-74.5" font-family="Helvetica,sans-Serif" font-size="10.00">src/hit_plane_bonus.c</text>
</a>
</g>
</g>
<!-- Node19&#45;&gt;Node32 -->
<g id="edge26" class="edge">
<title>Node19&#45;&gt;Node32</title>
<path fill="none" stroke="midnightblue" d="M583.86,-119.91C556.98,-109.75 519.25,-95.51 495.44,-86.52"/>
<polygon fill="midnightblue" stroke="midnightblue" points="582.64,-123.19 593.23,-123.44 585.11,-116.64 582.64,-123.19"/>
</g>
<!-- Node33 -->
<g id="node27" class="node">
<title>Node33</title>
<g id="a_node27"><a xlink:href="hit__sphere__bonus_8c.html" target="_top" xlink:title=" ">
<polygon fill="none" stroke="black" points="551.89,-67.5 551.89,-86.5 679.89,-86.5 679.89,-67.5 551.89,-67.5"/>
<text text-anchor="middle" x="615.89" y="-74.5" font-family="Helvetica,sans-Serif" font-size="10.00">src/hit_sphere_bonus.c</text>
</a>
</g>
</g>
<!-- Node19&#45;&gt;Node33 -->
<g id="edge27" class="edge">
<title>Node19&#45;&gt;Node33</title>
<path fill="none" stroke="midnightblue" d="M615.89,-112.8C615.89,-103.91 615.89,-93.78 615.89,-86.75"/>
<polygon fill="midnightblue" stroke="midnightblue" points="612.39,-113.08 615.89,-123.08 619.39,-113.08 612.39,-113.08"/>
</g>
<!-- Node34 -->
<g id="node28" class="node">
<title>Node34</title>
<g id="a_node28"><a xlink:href="utils__cone__bonus_8c.html" target="_top" xlink:title=" ">
<polygon fill="none" stroke="black" points="697.89,-67.5 697.89,-86.5 823.89,-86.5 823.89,-67.5 697.89,-67.5"/>
<text text-anchor="middle" x="760.89" y="-74.5" font-family="Helvetica,sans-Serif" font-size="10.00">src/utils_cone_bonus.c</text>
</a>
</g>
</g>
<!-- Node19&#45;&gt;Node34 -->
<g id="edge28" class="edge">
<title>Node19&#45;&gt;Node34</title>
<path fill="none" stroke="midnightblue" d="M648.36,-119.91C675.63,-109.75 713.88,-95.51 738.02,-86.52"/>
<polygon fill="midnightblue" stroke="midnightblue" points="647.02,-116.67 638.87,-123.44 649.46,-123.23 647.02,-116.67"/>
</g>
<!-- Node26&#45;&gt;Node22 -->
<g id="edge21" class="edge">
<title>Node26&#45;&gt;Node22</title>
<path fill="none" stroke="midnightblue" d="M1009.49,-59.34C1017.94,-48.17 1028.71,-33.93 1035.45,-25.01"/>
<polygon fill="midnightblue" stroke="midnightblue" points="1006.58,-57.39 1003.34,-67.48 1012.16,-61.61 1006.58,-57.39"/>
</g>
<!-- Node26&#45;&gt;Node28 -->
<g id="edge22" class="edge">
<title>Node26&#45;&gt;Node28</title>
<path fill="none" stroke="midnightblue" d="M930.1,-66.93C773.68,-47.81 602.06,-29.92 519.4,-21.49"/>
<polygon fill="midnightblue" stroke="midnightblue" points="930.03,-70.45 940.38,-68.19 930.88,-63.5 930.03,-70.45"/>
</g>
<!-- Node35&#45;&gt;Node36 -->
<g id="edge31" class="edge">
<title>Node35&#45;&gt;Node36</title>
<path fill="none" stroke="midnightblue" d="M1838.62,-128.67C1748.61,-122.15 1546.43,-106.59 1376.89,-87 1374.15,-86.68 1371.34,-86.34 1368.5,-85.98"/>
<polygon fill="midnightblue" stroke="midnightblue" points="1838.55,-132.18 1848.78,-129.41 1839.06,-125.2 1838.55,-132.18"/>
</g>
<!-- Node67 -->
<g id="node31" class="node">
<title>Node67</title>
<g id="a_node31"><a xlink:href="manip__camera_8c.html" target="_top" xlink:title=" ">
<polygon fill="none" stroke="black" points="2710.39,-67.5 2710.39,-86.5 2825.39,-86.5 2825.39,-67.5 2710.39,-67.5"/>
<text text-anchor="middle" x="2767.89" y="-74.5" font-family="Helvetica,sans-Serif" font-size="10.00">src/manip_camera.c</text>
</a>
</g>
</g>
<!-- Node35&#45;&gt;Node67 -->
<g id="edge33" class="edge">
<title>Node35&#45;&gt;Node67</title>
<path fill="none" stroke="midnightblue" d="M1933,-130.73C2058.34,-127.06 2410.31,-114.87 2701.89,-87 2704.65,-86.74 2707.48,-86.44 2710.33,-86.13"/>
<polygon fill="midnightblue" stroke="midnightblue" points="1932.87,-127.23 1922.97,-131.02 1933.07,-134.23 1932.87,-127.23"/>
</g>
<!-- Node68 -->
<g id="node32" class="node">
<title>Node68</title>
<g id="a_node32"><a xlink:href="manip__colour_8c.html" target="_top" xlink:title=" ">
<polygon fill="none" stroke="black" points="1386.39,-67.5 1386.39,-86.5 1493.39,-86.5 1493.39,-67.5 1386.39,-67.5"/>
<text text-anchor="middle" x="1439.89" y="-74.5" font-family="Helvetica,sans-Serif" font-size="10.00">src/manip_colour.c</text>
</a>
</g>
</g>
<!-- Node35&#45;&gt;Node68 -->
<g id="edge34" class="edge">
<title>Node35&#45;&gt;Node68</title>
<path fill="none" stroke="midnightblue" d="M1838.73,-126.84C1766.4,-118.84 1623.75,-102.73 1502.89,-87 1499.82,-86.6 1496.67,-86.18 1493.49,-85.75"/>
<polygon fill="midnightblue" stroke="midnightblue" points="1838.56,-130.34 1848.88,-127.96 1839.32,-123.39 1838.56,-130.34"/>
</g>
<!-- Node69 -->
<g id="node33" class="node">
<title>Node69</title>
<g id="a_node33"><a xlink:href="manip__hittable_8c.html" target="_top" xlink:title=" ">
<polygon fill="none" stroke="black" points="1511.89,-67.5 1511.89,-86.5 1627.89,-86.5 1627.89,-67.5 1511.89,-67.5"/>
<text text-anchor="middle" x="1569.89" y="-74.5" font-family="Helvetica,sans-Serif" font-size="10.00">src/manip_hittable.c</text>
</a>
</g>
</g>
<!-- Node35&#45;&gt;Node69 -->
<g id="edge35" class="edge">
<title>Node35&#45;&gt;Node69</title>
<path fill="none" stroke="midnightblue" d="M1838.57,-123.91C1779.69,-113.85 1679.62,-96.75 1619.64,-86.5"/>
<polygon fill="midnightblue" stroke="midnightblue" points="1838.26,-127.41 1848.71,-125.65 1839.44,-120.51 1838.26,-127.41"/>
</g>
<!-- Node70 -->
<g id="node34" class="node">
<title>Node70</title>
<g id="a_node34"><a xlink:href="manip__light_8c.html" target="_top" xlink:title=" ">
<polygon fill="none" stroke="black" points="1645.89,-67.5 1645.89,-86.5 1745.89,-86.5 1745.89,-67.5 1645.89,-67.5"/>
<text text-anchor="middle" x="1695.89" y="-74.5" font-family="Helvetica,sans-Serif" font-size="10.00">src/manip_light.c</text>
</a>
</g>
</g>
<!-- Node35&#45;&gt;Node70 -->
<g id="edge36" class="edge">
<title>Node35&#45;&gt;Node70</title>
<path fill="none" stroke="midnightblue" d="M1846.13,-120.7C1810.27,-110.51 1758.32,-95.74 1725.85,-86.52"/>
<polygon fill="midnightblue" stroke="midnightblue" points="1845.21,-124.08 1855.78,-123.44 1847.12,-117.34 1845.21,-124.08"/>
</g>
<!-- Node71 -->
<g id="node35" class="node">
<title>Node71</title>
<g id="a_node35"><a xlink:href="manip__options_8c.html" target="_top" xlink:title=" ">
<polygon fill="none" stroke="black" points="1763.89,-67.5 1763.89,-86.5 1877.89,-86.5 1877.89,-67.5 1763.89,-67.5"/>
<text text-anchor="middle" x="1820.89" y="-74.5" font-family="Helvetica,sans-Serif" font-size="10.00">src/manip_options.c</text>
</a>
</g>
</g>
<!-- Node35&#45;&gt;Node71 -->
<g id="edge37" class="edge">
<title>Node35&#45;&gt;Node71</title>
<path fill="none" stroke="midnightblue" d="M1867.62,-116.82C1855.97,-107.15 1841.29,-94.95 1831.52,-86.83"/>
<polygon fill="midnightblue" stroke="midnightblue" points="1865.52,-119.63 1875.45,-123.32 1869.99,-114.24 1865.52,-119.63"/>
</g>
<!-- Node72 -->
<g id="node36" class="node">
<title>Node72</title>
<g id="a_node36"><a xlink:href="manip__scene_8c.html" target="_top" xlink:title=" ">
<polygon fill="none" stroke="black" points="1896.39,-67.5 1896.39,-86.5 2003.39,-86.5 2003.39,-67.5 1896.39,-67.5"/>
<text text-anchor="middle" x="1949.89" y="-74.5" font-family="Helvetica,sans-Serif" font-size="10.00">src/manip_scene.c</text>
</a>
</g>
</g>
<!-- Node35&#45;&gt;Node72 -->
<g id="edge38" class="edge">
<title>Node35&#45;&gt;Node72</title>
<path fill="none" stroke="midnightblue" d="M1903.88,-116.82C1915.35,-107.15 1929.8,-94.95 1939.42,-86.83"/>
<polygon fill="midnightblue" stroke="midnightblue" points="1901.56,-114.2 1896.17,-123.32 1906.07,-119.55 1901.56,-114.2"/>
</g>
<!-- Node73 -->
<g id="node37" class="node">
<title>Node73</title>
<g id="a_node37"><a xlink:href="manip__utils_8c.html" target="_top" xlink:title=" ">
<polygon fill="none" stroke="black" points="2021.39,-67.5 2021.39,-86.5 2120.39,-86.5 2120.39,-67.5 2021.39,-67.5"/>
<text text-anchor="middle" x="2070.89" y="-74.5" font-family="Helvetica,sans-Serif" font-size="10.00">src/manip_utils.c</text>
</a>
</g>
</g>
<!-- Node35&#45;&gt;Node73 -->
<g id="edge39" class="edge">
<title>Node35&#45;&gt;Node73</title>
<path fill="none" stroke="midnightblue" d="M1925.06,-120.57C1959.95,-110.38 2010.24,-95.7 2041.71,-86.52"/>
<polygon fill="midnightblue" stroke="midnightblue" points="1923.82,-117.28 1915.2,-123.44 1925.78,-124 1923.82,-117.28"/>
</g>
<!-- Node74 -->
<g id="node38" class="node">
<title>Node74</title>
<g id="a_node38"><a xlink:href="render__blend__background_8c.html" target="_top" xlink:title=" ">
<polygon fill="none" stroke="black" points="2138.89,-67.5 2138.89,-86.5 2306.89,-86.5 2306.89,-67.5 2138.89,-67.5"/>
<text text-anchor="middle" x="2222.89" y="-74.5" font-family="Helvetica,sans-Serif" font-size="10.00">src/render_blend_background.c</text>
</a>
</g>
</g>
<!-- Node35&#45;&gt;Node74 -->
<g id="edge40" class="edge">
<title>Node35&#45;&gt;Node74</title>
<path fill="none" stroke="midnightblue" d="M1932.86,-124.47C1995.09,-114.5 2104.59,-96.96 2169.77,-86.51"/>
<polygon fill="midnightblue" stroke="midnightblue" points="1932.24,-121.03 1922.92,-126.07 1933.35,-127.94 1932.24,-121.03"/>
</g>
<!-- Node75 -->
<g id="node39" class="node">
<title>Node75</title>
<g id="a_node39"><a xlink:href="render__cleanup_8c.html" target="_top" xlink:title=" ">
<polygon fill="none" stroke="black" points="2325.39,-67.5 2325.39,-86.5 2442.39,-86.5 2442.39,-67.5 2325.39,-67.5"/>
<text text-anchor="middle" x="2383.89" y="-74.5" font-family="Helvetica,sans-Serif" font-size="10.00">src/render_cleanup.c</text>
</a>
</g>
</g>
<!-- Node35&#45;&gt;Node75 -->
<g id="edge41" class="edge">
<title>Node35&#45;&gt;Node75</title>
<path fill="none" stroke="midnightblue" d="M1933.17,-127.48C2012.4,-119.81 2176.96,-103.46 2315.89,-87 2318.96,-86.64 2322.12,-86.25 2325.3,-85.86"/>
<polygon fill="midnightblue" stroke="midnightblue" points="1932.64,-124.01 1923.03,-128.46 1933.32,-130.98 1932.64,-124.01"/>
</g>
<!-- Node76 -->
<g id="node40" class="node">
<title>Node76</title>
<g id="a_node40"><a xlink:href="render__init_8c.html" target="_top" xlink:title=" ">
<polygon fill="none" stroke="black" points="2460.39,-67.5 2460.39,-86.5 2555.39,-86.5 2555.39,-67.5 2460.39,-67.5"/>
<text text-anchor="middle" x="2507.89" y="-74.5" font-family="Helvetica,sans-Serif" font-size="10.00">src/render_init.c</text>
</a>
</g>
</g>
<!-- Node35&#45;&gt;Node76 -->
<g id="edge42" class="edge">
<title>Node35&#45;&gt;Node76</title>
<path fill="none" stroke="midnightblue" d="M1933.18,-129.52C2030.51,-124.14 2260.19,-109.99 2451.89,-87 2454.63,-86.67 2457.44,-86.31 2460.27,-85.92"/>
<polygon fill="midnightblue" stroke="midnightblue" points="1932.87,-126.03 1923.08,-130.08 1933.25,-133.02 1932.87,-126.03"/>
</g>
<!-- Node77 -->
<g id="node41" class="node">
<title>Node77</title>
<g id="a_node41"><a xlink:href="render__init__mlx_8c.html" target="_top" xlink:title=" ">
<polygon fill="none" stroke="black" points="2573.39,-67.5 2573.39,-86.5 2692.39,-86.5 2692.39,-67.5 2573.39,-67.5"/>
<text text-anchor="middle" x="2632.89" y="-74.5" font-family="Helvetica,sans-Serif" font-size="10.00">src/render_init_mlx.c</text>
</a>
</g>
</g>
<!-- Node35&#45;&gt;Node77 -->
<g id="edge43" class="edge">
<title>Node35&#45;&gt;Node77</title>
<path fill="none" stroke="midnightblue" d="M1933.3,-129.93C2044.04,-124.85 2328.28,-110.47 2564.89,-87 2567.62,-86.73 2570.4,-86.44 2573.21,-86.12"/>
<polygon fill="midnightblue" stroke="midnightblue" points="1932.96,-126.44 1923.13,-130.39 1933.28,-133.43 1932.96,-126.44"/>
</g>
<!-- Node36&#45;&gt;Node8 -->
<g id="edge32" class="edge">
<title>Node36&#45;&gt;Node8</title>
<path fill="none" stroke="midnightblue" d="M1282.27,-63.78C1252.34,-52.22 1208.2,-35.16 1181.91,-25.01"/>
<polygon fill="midnightblue" stroke="midnightblue" points="1281.24,-67.14 1291.83,-67.48 1283.76,-60.61 1281.24,-67.14"/>
</g>
<!-- Node78&#45;&gt;Node35 -->
<g id="edge46" class="edge">
<title>Node78&#45;&gt;Node35</title>
<path fill="none" stroke="midnightblue" d="M1743.45,-365.12C1759.35,-357.5 1778.11,-346.65 1791.89,-333 1840.68,-284.65 1842.86,-262.56 1868.89,-199 1876.85,-179.57 1882.02,-155.33 1884.39,-142.65"/>
<polygon fill="midnightblue" stroke="midnightblue" points="1741.64,-362.1 1734,-369.44 1744.55,-368.46 1741.64,-362.1"/>
</g>
<!-- Node79 -->
<g id="node43" class="node">
<title>Node79</title>
<g id="a_node43"><a xlink:href="render__struct__bonus_8h.html" target="_top" xlink:title=" ">
<polygon fill="none" stroke="black" points="1640.89,-308 1640.89,-327 1782.89,-327 1782.89,-308 1640.89,-308"/>
<text text-anchor="middle" x="1711.89" y="-315" font-family="Helvetica,sans-Serif" font-size="10.00">inc/render_struct_bonus.h</text>
</a>
</g>
</g>
<!-- Node78&#45;&gt;Node79 -->
<g id="edge47" class="edge">
<title>Node78&#45;&gt;Node79</title>
<path fill="none" stroke="midnightblue" d="M1711.89,-359.32C1711.89,-348.5 1711.89,-335.4 1711.89,-327.01"/>
<polygon fill="midnightblue" stroke="midnightblue" points="1708.39,-359.48 1711.89,-369.48 1715.39,-359.48 1708.39,-359.48"/>
</g>
<!-- Node79&#45;&gt;Node35 -->
<g id="edge53" class="edge">
<title>Node79&#45;&gt;Node35</title>
<path fill="none" stroke="midnightblue" d="M1732.5,-301.83C1760.63,-281.12 1811.59,-241.12 1846.89,-199 1862.27,-180.64 1875.5,-155.53 1881.85,-142.55"/>
<polygon fill="midnightblue" stroke="midnightblue" points="1730.24,-299.14 1724.21,-307.85 1734.36,-304.8 1730.24,-299.14"/>
</g>
<!-- Node79&#45;&gt;Node36 -->
<g id="edge56" class="edge">
<title>Node79&#45;&gt;Node36</title>
<path fill="none" stroke="midnightblue" d="M1681.12,-304C1658.49,-294.45 1627.22,-280.5 1600.89,-266 1572.06,-250.12 1379.12,-121.55 1326.9,-86.69"/>
<polygon fill="midnightblue" stroke="midnightblue" points="1679.98,-307.32 1690.55,-307.94 1682.67,-300.86 1679.98,-307.32"/>
</g>
<!-- Node80 -->
<g id="node44" class="node">
<title>Node80</title>
<g id="a_node44"><a xlink:href="manip_8h.html" target="_top" xlink:title=" ">
<polygon fill="none" stroke="black" points="1609.89,-241 1609.89,-260 1683.89,-260 1683.89,-241 1609.89,-241"/>
<text text-anchor="middle" x="1646.89" y="-248" font-family="Helvetica,sans-Serif" font-size="10.00">inc/manip.h</text>
</a>
</g>
</g>
<!-- Node79&#45;&gt;Node80 -->
<g id="edge48" class="edge">
<title>Node79&#45;&gt;Node80</title>
<path fill="none" stroke="midnightblue" d="M1695.89,-300.5C1683.14,-287.75 1665.78,-270.39 1655.52,-260.13"/>
<polygon fill="midnightblue" stroke="midnightblue" points="1693.58,-303.14 1703.12,-307.73 1698.53,-298.19 1693.58,-303.14"/>
</g>
<!-- Node81 -->
<g id="node45" class="node">
<title>Node81</title>
<g id="a_node45"><a xlink:href="manip__bonus_8h.html" target="_top" xlink:title=" ">
<polygon fill="none" stroke="black" points="1592.89,-179.5 1592.89,-198.5 1700.89,-198.5 1700.89,-179.5 1592.89,-179.5"/>
<text text-anchor="middle" x="1646.89" y="-186.5" font-family="Helvetica,sans-Serif" font-size="10.00">inc/manip_bonus.h</text>
</a>
</g>
</g>
<!-- Node79&#45;&gt;Node81 -->
<g id="edge52" class="edge">
<title>Node79&#45;&gt;Node81</title>
<path fill="none" stroke="midnightblue" d="M1710.49,-297.41C1708.53,-280.15 1703.89,-254.54 1692.89,-235 1684.45,-220.01 1669.52,-206.77 1658.96,-198.6"/>
<polygon fill="midnightblue" stroke="midnightblue" points="1707.04,-298.2 1711.45,-307.84 1714.01,-297.56 1707.04,-298.2"/>
</g>
<!-- Node82 -->
<g id="node46" class="node">
<title>Node82</title>
<g id="a_node46"><a xlink:href="render__bit__field_8h.html" target="_top" xlink:title=" ">
<polygon fill="none" stroke="red" points="1719.39,-179.5 1719.39,-198.5 1838.39,-198.5 1838.39,-179.5 1719.39,-179.5"/>
<text text-anchor="middle" x="1778.89" y="-186.5" font-family="Helvetica,sans-Serif" font-size="10.00">inc/render_bit_field.h</text>
</a>
</g>
</g>
<!-- Node79&#45;&gt;Node82 -->
<g id="edge54" class="edge">
<title>Node79&#45;&gt;Node82</title>
<path fill="none" stroke="midnightblue" d="M1721.21,-298.9C1735.76,-271.44 1763.32,-219.4 1774.25,-198.76"/>
<polygon fill="midnightblue" stroke="midnightblue" points="1718.08,-297.33 1716.49,-307.81 1724.27,-300.61 1718.08,-297.33"/>
</g>
<!-- Node80&#45;&gt;Node81 -->
<g id="edge49" class="edge">
<title>Node80&#45;&gt;Node81</title>
<path fill="none" stroke="midnightblue" d="M1646.89,-230.82C1646.89,-220 1646.89,-206.9 1646.89,-198.51"/>
<polygon fill="midnightblue" stroke="midnightblue" points="1643.39,-230.98 1646.89,-240.98 1650.39,-230.98 1643.39,-230.98"/>
</g>
<!-- Node81&#45;&gt;Node35 -->
<g id="edge50" class="edge">
<title>Node81&#45;&gt;Node35</title>
<path fill="none" stroke="midnightblue" d="M1694.64,-177.21C1739.95,-166.97 1807.1,-151.8 1848.59,-142.43"/>
<polygon fill="midnightblue" stroke="midnightblue" points="1693.74,-173.83 1684.76,-179.44 1695.29,-180.65 1693.74,-173.83"/>
</g>
<!-- Node81&#45;&gt;Node36 -->
<g id="edge51" class="edge">
<title>Node81&#45;&gt;Node36</title>
<path fill="none" stroke="midnightblue" d="M1634.17,-171.08C1621.79,-155.93 1601.58,-134.4 1578.89,-123 1569.55,-118.31 1443.36,-98.12 1368.55,-86.44"/>
<polygon fill="midnightblue" stroke="midnightblue" points="1631.57,-173.44 1640.51,-179.14 1637.07,-169.11 1631.57,-173.44"/>
</g>
<!-- Node82&#45;&gt;Node35 -->
<g id="edge55" class="edge">
<title>Node82&#45;&gt;Node35</title>
<path fill="none" stroke="midnightblue" d="M1805.19,-174.73C1825,-164.73 1851.6,-151.31 1868.74,-142.65"/>
<polygon fill="midnightblue" stroke="midnightblue" points="1803.43,-171.69 1796.08,-179.32 1806.59,-177.94 1803.43,-171.69"/>
</g>
<!-- Node86&#45;&gt;Node35 -->
<g id="edge60" class="edge">
<title>Node86&#45;&gt;Node35</title>
<path fill="none" stroke="midnightblue" d="M1942.89,-415.29C1942.89,-392.45 1942.89,-352.64 1942.89,-318.5 1942.89,-318.5 1942.89,-318.5 1942.89,-249.5 1942.89,-205.45 1909.14,-160.8 1893.58,-142.56"/>
<polygon fill="midnightblue" stroke="midnightblue" points="1939.39,-415.31 1942.89,-425.31 1946.39,-415.31 1939.39,-415.31"/>
</g>
<!-- Node87 -->
<g id="node50" class="node">
<title>Node87</title>
<g id="a_node50"><a xlink:href="error__mlx_8c.html" target="_top" xlink:title=" ">
<polygon fill="none" stroke="black" points="1971.39,-369.5 1971.39,-388.5 2060.39,-388.5 2060.39,-369.5 1971.39,-369.5"/>
<text text-anchor="middle" x="2015.89" y="-376.5" font-family="Helvetica,sans-Serif" font-size="10.00">src/error_mlx.c</text>
</a>
</g>
</g>
<!-- Node86&#45;&gt;Node87 -->
<g id="edge61" class="edge">
<title>Node86&#45;&gt;Node87</title>
<path fill="none" stroke="midnightblue" d="M1963.03,-419.1C1976.17,-409.38 1992.87,-397.03 2003.95,-388.83"/>
<polygon fill="midnightblue" stroke="midnightblue" points="1960.58,-416.56 1954.62,-425.32 1964.74,-422.19 1960.58,-416.56"/>
</g>
</g>
</svg>
