<?xml version="1.0" encoding="UTF-8" standalone="no"?>
<!DOCTYPE svg PUBLIC "-//W3C//DTD SVG 1.1//EN"
 "http://www.w3.org/Graphics/SVG/1.1/DTD/svg11.dtd">
<!-- Generated by graphviz version 2.43.0 (0)
 -->
<!-- Title: inc/vec2.h Pages: 1 -->
<!--zoomable 330 -->
<svg id="main" version="1.1" xmlns="http://www.w3.org/2000/svg" xmlns:xlink="http://www.w3.org/1999/xlink" xml:space="preserve" onload="init(evt)">
<style type="text/css"><![CDATA[
.edge:hover path { stroke: red; }
.edge:hover polygon { stroke: red; fill: red; }
]]></style>
<script type="text/javascript"><![CDATA[
var edges = document.getElementsByTagName('g');
if (edges && edges.length) {
  for (var i=0;i<edges.length;i++) {
    if (edges[i].id.substr(0,4)=='edge') {
      edges[i].setAttribute('class','edge');
    }
  }
}
]]></script>
        <defs>
                <circle id="rim" cx="0" cy="0" r="7"/>
                <circle id="rim2" cx="0" cy="0" r="3.5"/>
                <g id="zoomPlus">
                        <use xlink:href="#rim" fill="#404040">
                                <set attributeName="fill" to="#808080" begin="zoomplus.mouseover" end="zoomplus.mouseout"/>
                        </use>
                        <path d="M-4,0h8M0,-4v8" fill="none" stroke="white" stroke-width="1.5" pointer-events="none"/>
                </g>
                <g id="zoomMin">
                        <use xlink:href="#rim" fill="#404040">
                                <set attributeName="fill" to="#808080" begin="zoomminus.mouseover" end="zoomminus.mouseout"/>
                        </use>
                        <path d="M-4,0h8" fill="none" stroke="white" stroke-width="1.5" pointer-events="none"/>
                </g>
                <g id="dirArrow">
                        <path fill="none" stroke="white" stroke-width="1.5" d="M0,-3.0v7 M-2.5,-0.5L0,-3.0L2.5,-0.5"/>
                </g>
               <g id="resetDef">
                       <use xlink:href="#rim2" fill="#404040">
                               <set attributeName="fill" to="#808080" begin="reset.mouseover" end="reset.mouseout"/>
                       </use>
               </g>
        </defs>

<script type="text/javascript">
var viewWidth = 4091;
var viewHeight = 330;
var sectionId = 'dynsection-0';
</script>
<script xlink:href="svgpan.js"/>
<svg id="graph" class="graph">
<g id="viewport">
<title>inc/vec2.h</title>
<!-- Node1 -->
<g id="node1" class="node">
<title>Node1</title>
<g id="a_node1"><a xlink:title=" ">
<polygon fill="#bfbfbf" stroke="black" points="1685,-302.5 1685,-321.5 1751,-321.5 1751,-302.5 1685,-302.5"/>
<text text-anchor="middle" x="1718" y="-309.5" font-family="Helvetica,sans-Serif" font-size="10.00">inc/vec2.h</text>
</a>
</g>
</g>
<!-- Node2 -->
<g id="node2" class="node">
<title>Node2</title>
<g id="a_node2"><a xlink:href="camera_8h.html" target="_top" xlink:title=" ">
<polygon fill="none" stroke="black" points="1623,-246.5 1623,-265.5 1703,-265.5 1703,-246.5 1623,-246.5"/>
<text text-anchor="middle" x="1663" y="-253.5" font-family="Helvetica,sans-Serif" font-size="10.00">inc/camera.h</text>
</a>
</g>
</g>
<!-- Node1&#45;&gt;Node2 -->
<g id="edge1" class="edge">
<title>Node1&#45;&gt;Node2</title>
<path fill="none" stroke="midnightblue" d="M1701.71,-295C1691.96,-285.43 1679.95,-273.64 1671.91,-265.75"/>
<polygon fill="midnightblue" stroke="midnightblue" points="1699.33,-297.57 1708.92,-302.08 1704.23,-292.58 1699.33,-297.57"/>
</g>
<!-- Node42 -->
<g id="node16" class="node">
<title>Node42</title>
<g id="a_node16"><a xlink:href="render_8h.html" target="_top" xlink:title=" ">
<polygon fill="none" stroke="black" points="2604,-129 2604,-148 2678,-148 2678,-129 2604,-129"/>
<text text-anchor="middle" x="2641" y="-136" font-family="Helvetica,sans-Serif" font-size="10.00">inc/render.h</text>
</a>
</g>
</g>
<!-- Node1&#45;&gt;Node42 -->
<g id="edge56" class="edge">
<title>Node1&#45;&gt;Node42</title>
<path fill="none" stroke="midnightblue" d="M1761.35,-302.95C1918.56,-273.73 2457.25,-173.64 2603.89,-146.4"/>
<polygon fill="midnightblue" stroke="midnightblue" points="1760.31,-299.58 1751.12,-304.85 1761.59,-306.46 1760.31,-299.58"/>
</g>
<!-- Node58 -->
<g id="node32" class="node">
<title>Node58</title>
<g id="a_node32"><a xlink:href="render__bonus_8h.html" target="_top" xlink:title=" ">
<polygon fill="none" stroke="black" points="1232.5,-129 1232.5,-148 1341.5,-148 1341.5,-129 1232.5,-129"/>
<text text-anchor="middle" x="1287" y="-136" font-family="Helvetica,sans-Serif" font-size="10.00">inc/render_bonus.h</text>
</a>
</g>
</g>
<!-- Node1&#45;&gt;Node58 -->
<g id="edge57" class="edge">
<title>Node1&#45;&gt;Node58</title>
<path fill="none" stroke="midnightblue" d="M1684.55,-299.07C1633.47,-280.7 1533.09,-244.06 1449,-210 1396.69,-188.81 1335.89,-161.66 1305.82,-148.07"/>
<polygon fill="midnightblue" stroke="midnightblue" points="1683.5,-302.41 1694.09,-302.49 1685.86,-295.82 1683.5,-302.41"/>
</g>
<!-- Node92 -->
<g id="node49" class="node">
<title>Node92</title>
<g id="a_node49"><a xlink:href="error__mlx_8h.html" target="_top" xlink:title=" ">
<polygon fill="none" stroke="black" points="1718,-190.5 1718,-209.5 1808,-209.5 1808,-190.5 1718,-190.5"/>
<text text-anchor="middle" x="1763" y="-197.5" font-family="Helvetica,sans-Serif" font-size="10.00">inc/error_mlx.h</text>
</a>
</g>
</g>
<!-- Node1&#45;&gt;Node92 -->
<g id="edge52" class="edge">
<title>Node1&#45;&gt;Node92</title>
<path fill="none" stroke="midnightblue" d="M1725.36,-293C1735.18,-269 1752.17,-227.47 1759.49,-209.59"/>
<polygon fill="midnightblue" stroke="midnightblue" points="1722.08,-291.79 1721.53,-302.37 1728.56,-294.44 1722.08,-291.79"/>
</g>
<!-- Node3 -->
<g id="node3" class="node">
<title>Node3</title>
<g id="a_node3"><a xlink:href="debug__print_8h.html" target="_top" xlink:title=" ">
<polygon fill="none" stroke="black" points="898.5,-190.5 898.5,-209.5 999.5,-209.5 999.5,-190.5 898.5,-190.5"/>
<text text-anchor="middle" x="949" y="-197.5" font-family="Helvetica,sans-Serif" font-size="10.00">inc/debug_print.h</text>
</a>
</g>
</g>
<!-- Node2&#45;&gt;Node3 -->
<g id="edge2" class="edge">
<title>Node2&#45;&gt;Node3</title>
<path fill="none" stroke="midnightblue" d="M1612.77,-252.11C1505.6,-245.79 1246.61,-229.73 1030,-210 1020.14,-209.1 1009.61,-208.02 999.52,-206.93"/>
<polygon fill="midnightblue" stroke="midnightblue" points="1612.78,-255.61 1622.96,-252.71 1613.19,-248.63 1612.78,-255.61"/>
</g>
<!-- Node6 -->
<g id="node6" class="node">
<title>Node6</title>
<g id="a_node6"><a xlink:href="mini_r_t_8h.html" target="_top" xlink:title=" ">
<polygon fill="none" stroke="black" points="0,-62 0,-81 76,-81 76,-62 0,-62"/>
<text text-anchor="middle" x="38" y="-69" font-family="Helvetica,sans-Serif" font-size="10.00">inc/miniRT.h</text>
</a>
</g>
</g>
<!-- Node2&#45;&gt;Node6 -->
<g id="edge5" class="edge">
<title>Node2&#45;&gt;Node6</title>
<path fill="none" stroke="midnightblue" d="M1612.72,-255.71C1492.15,-256.68 1190.03,-254.45 1101,-210 1054.8,-186.93 1070.67,-145.1 1024,-123 929.64,-78.31 187.93,-104.54 85,-87 77.26,-85.68 69.01,-83.44 61.62,-81.1"/>
<polygon fill="midnightblue" stroke="midnightblue" points="1612.82,-259.21 1622.79,-255.62 1612.75,-252.21 1612.82,-259.21"/>
</g>
<!-- Node8 -->
<g id="node8" class="node">
<title>Node8</title>
<g id="a_node8"><a xlink:href="parse_8h.html" target="_top" xlink:title=" ">
<polygon fill="none" stroke="black" points="2696,-190.5 2696,-209.5 2766,-209.5 2766,-190.5 2696,-190.5"/>
<text text-anchor="middle" x="2731" y="-197.5" font-family="Helvetica,sans-Serif" font-size="10.00">inc/parse.h</text>
</a>
</g>
</g>
<!-- Node2&#45;&gt;Node8 -->
<g id="edge7" class="edge">
<title>Node2&#45;&gt;Node8</title>
<path fill="none" stroke="midnightblue" d="M1713.23,-252.46C1898.18,-243.11 2538.58,-210.73 2695.89,-202.78"/>
<polygon fill="midnightblue" stroke="midnightblue" points="1713.05,-248.96 1703.24,-252.97 1713.4,-255.96 1713.05,-248.96"/>
</g>
<!-- Node13 -->
<g id="node13" class="node">
<title>Node13</title>
<g id="a_node13"><a xlink:href="parse__bonus_8h.html" target="_top" xlink:title=" ">
<polygon fill="none" stroke="red" points="1110,-190.5 1110,-209.5 1214,-209.5 1214,-190.5 1110,-190.5"/>
<text text-anchor="middle" x="1162" y="-197.5" font-family="Helvetica,sans-Serif" font-size="10.00">inc/parse_bonus.h</text>
</a>
</g>
</g>
<!-- Node2&#45;&gt;Node13 -->
<g id="edge12" class="edge">
<title>Node2&#45;&gt;Node13</title>
<path fill="none" stroke="midnightblue" d="M1612.88,-249.6C1517.56,-239.32 1311.02,-217.06 1214.15,-206.62"/>
<polygon fill="midnightblue" stroke="midnightblue" points="1612.53,-253.08 1622.85,-250.67 1613.28,-246.12 1612.53,-253.08"/>
</g>
<!-- Node17 -->
<g id="node15" class="node">
<title>Node17</title>
<g id="a_node15"><a xlink:href="ray__bonus_8h.html" target="_top" xlink:title=" ">
<polygon fill="none" stroke="red" points="1606.5,-190.5 1606.5,-209.5 1699.5,-209.5 1699.5,-190.5 1606.5,-190.5"/>
<text text-anchor="middle" x="1653" y="-197.5" font-family="Helvetica,sans-Serif" font-size="10.00">inc/ray_bonus.h</text>
</a>
</g>
</g>
<!-- Node2&#45;&gt;Node17 -->
<g id="edge15" class="edge">
<title>Node2&#45;&gt;Node17</title>
<path fill="none" stroke="midnightblue" d="M1659.5,-236.1C1657.84,-227.14 1655.94,-216.86 1654.62,-209.75"/>
<polygon fill="midnightblue" stroke="midnightblue" points="1656.09,-236.89 1661.35,-246.08 1662.97,-235.61 1656.09,-236.89"/>
</g>
<!-- Node2&#45;&gt;Node42 -->
<g id="edge48" class="edge">
<title>Node2&#45;&gt;Node42</title>
<path fill="none" stroke="midnightblue" d="M1713.27,-248.59C1806.85,-236.7 2014.16,-210.57 2189,-190 2342.9,-171.89 2526.47,-151.87 2603.78,-143.51"/>
<polygon fill="midnightblue" stroke="midnightblue" points="1712.71,-245.13 1703.23,-249.87 1713.6,-252.08 1712.71,-245.13"/>
</g>
<!-- Node2&#45;&gt;Node58 -->
<g id="edge49" class="edge">
<title>Node2&#45;&gt;Node58</title>
<path fill="none" stroke="midnightblue" d="M1625.46,-243.47C1550.02,-220.29 1381.51,-168.53 1314.88,-148.06"/>
<polygon fill="midnightblue" stroke="midnightblue" points="1624.46,-246.82 1635.05,-246.41 1626.51,-240.13 1624.46,-246.82"/>
</g>
<!-- Node90 -->
<g id="node47" class="node">
<title>Node90</title>
<g id="a_node47"><a xlink:href="camera_8c.html" target="_top" xlink:title=" ">
<polygon fill="none" stroke="black" points="2784.5,-190.5 2784.5,-209.5 2863.5,-209.5 2863.5,-190.5 2784.5,-190.5"/>
<text text-anchor="middle" x="2824" y="-197.5" font-family="Helvetica,sans-Serif" font-size="10.00">src/camera.c</text>
</a>
</g>
</g>
<!-- Node2&#45;&gt;Node90 -->
<g id="edge50" class="edge">
<title>Node2&#45;&gt;Node90</title>
<path fill="none" stroke="midnightblue" d="M1713.35,-255.49C1870.73,-256.47 2367.2,-255.47 2775,-210 2778.09,-209.65 2781.29,-209.23 2784.49,-208.75"/>
<polygon fill="midnightblue" stroke="midnightblue" points="1713.07,-251.98 1703.05,-255.42 1713.02,-258.98 1713.07,-251.98"/>
</g>
<!-- Node91 -->
<g id="node48" class="node">
<title>Node91</title>
<g id="a_node48"><a xlink:href="camera__movement_8c.html" target="_top" xlink:title=" ">
<polygon fill="none" stroke="black" points="2881.5,-190.5 2881.5,-209.5 3018.5,-209.5 3018.5,-190.5 2881.5,-190.5"/>
<text text-anchor="middle" x="2950" y="-197.5" font-family="Helvetica,sans-Serif" font-size="10.00">src/camera_movement.c</text>
</a>
</g>
</g>
<!-- Node2&#45;&gt;Node91 -->
<g id="edge51" class="edge">
<title>Node2&#45;&gt;Node91</title>
<path fill="none" stroke="midnightblue" d="M1713.4,-254.55C1879.41,-252.78 2424.1,-244.53 2873,-210 2875.68,-209.79 2878.42,-209.56 2881.18,-209.32"/>
<polygon fill="midnightblue" stroke="midnightblue" points="1712.98,-251.06 1703.02,-254.66 1713.05,-258.06 1712.98,-251.06"/>
</g>
<!-- Node4 -->
<g id="node4" class="node">
<title>Node4</title>
<g id="a_node4"><a xlink:href="debug__print__entity_8c.html" target="_top" xlink:title=" ">
<polygon fill="none" stroke="black" points="732,-129 732,-148 864,-148 864,-129 732,-129"/>
<text text-anchor="middle" x="798" y="-136" font-family="Helvetica,sans-Serif" font-size="10.00">src/debug_print_entity.c</text>
</a>
</g>
</g>
<!-- Node3&#45;&gt;Node4 -->
<g id="edge3" class="edge">
<title>Node3&#45;&gt;Node4</title>
<path fill="none" stroke="midnightblue" d="M917.99,-186.78C888.65,-175.22 845.37,-158.16 819.59,-148.01"/>
<polygon fill="midnightblue" stroke="midnightblue" points="916.78,-190.07 927.37,-190.48 919.34,-183.55 916.78,-190.07"/>
</g>
<!-- Node5 -->
<g id="node5" class="node">
<title>Node5</title>
<g id="a_node5"><a xlink:href="debug__print__struct_8c.html" target="_top" xlink:title=" ">
<polygon fill="none" stroke="black" points="882.5,-129 882.5,-148 1015.5,-148 1015.5,-129 882.5,-129"/>
<text text-anchor="middle" x="949" y="-136" font-family="Helvetica,sans-Serif" font-size="10.00">src/debug_print_struct.c</text>
</a>
</g>
</g>
<!-- Node3&#45;&gt;Node5 -->
<g id="edge4" class="edge">
<title>Node3&#45;&gt;Node5</title>
<path fill="none" stroke="midnightblue" d="M949,-180.32C949,-169.5 949,-156.4 949,-148.01"/>
<polygon fill="midnightblue" stroke="midnightblue" points="945.5,-180.48 949,-190.48 952.5,-180.48 945.5,-180.48"/>
</g>
<!-- Node7 -->
<g id="node7" class="node">
<title>Node7</title>
<g id="a_node7"><a xlink:href="main_8c.html" target="_top" xlink:title=" ">
<polygon fill="none" stroke="black" points="4.5,-0.5 4.5,-19.5 71.5,-19.5 71.5,-0.5 4.5,-0.5"/>
<text text-anchor="middle" x="38" y="-7.5" font-family="Helvetica,sans-Serif" font-size="10.00">src/main.c</text>
</a>
</g>
</g>
<!-- Node6&#45;&gt;Node7 -->
<g id="edge6" class="edge">
<title>Node6&#45;&gt;Node7</title>
<path fill="none" stroke="midnightblue" d="M38,-51.82C38,-41 38,-27.9 38,-19.51"/>
<polygon fill="midnightblue" stroke="midnightblue" points="34.5,-51.98 38,-61.98 41.5,-51.98 34.5,-51.98"/>
</g>
<!-- Node9 -->
<g id="node9" class="node">
<title>Node9</title>
<g id="a_node9"><a xlink:href="parse_8c.html" target="_top" xlink:title=" ">
<polygon fill="none" stroke="black" points="2696.5,-129 2696.5,-148 2765.5,-148 2765.5,-129 2696.5,-129"/>
<text text-anchor="middle" x="2731" y="-136" font-family="Helvetica,sans-Serif" font-size="10.00">src/parse.c</text>
</a>
</g>
</g>
<!-- Node8&#45;&gt;Node9 -->
<g id="edge8" class="edge">
<title>Node8&#45;&gt;Node9</title>
<path fill="none" stroke="midnightblue" d="M2731,-180.32C2731,-169.5 2731,-156.4 2731,-148.01"/>
<polygon fill="midnightblue" stroke="midnightblue" points="2727.5,-180.48 2731,-190.48 2734.5,-180.48 2727.5,-180.48"/>
</g>
<!-- Node10 -->
<g id="node10" class="node">
<title>Node10</title>
<g id="a_node10"><a xlink:href="parse__entity___a_c_l_8c.html" target="_top" xlink:title=" ">
<polygon fill="none" stroke="black" points="2783.5,-129 2783.5,-148 2910.5,-148 2910.5,-129 2783.5,-129"/>
<text text-anchor="middle" x="2847" y="-136" font-family="Helvetica,sans-Serif" font-size="10.00">src/parse_entity_ACL.c</text>
</a>
</g>
</g>
<!-- Node8&#45;&gt;Node10 -->
<g id="edge9" class="edge">
<title>Node8&#45;&gt;Node10</title>
<path fill="none" stroke="midnightblue" d="M2756.6,-185.87C2779.09,-174.33 2811.13,-157.9 2830.41,-148.01"/>
<polygon fill="midnightblue" stroke="midnightblue" points="2754.92,-182.8 2747.62,-190.48 2758.12,-189.03 2754.92,-182.8"/>
</g>
<!-- Node11 -->
<g id="node11" class="node">
<title>Node11</title>
<g id="a_node11"><a xlink:href="parse__entity__sp__pl__cy_8c.html" target="_top" xlink:title=" ">
<polygon fill="none" stroke="black" points="2928.5,-123.5 2928.5,-153.5 3039.5,-153.5 3039.5,-123.5 2928.5,-123.5"/>
<text text-anchor="start" x="2936.5" y="-141.5" font-family="Helvetica,sans-Serif" font-size="10.00">src/parse_entity_sp</text>
<text text-anchor="middle" x="2984" y="-130.5" font-family="Helvetica,sans-Serif" font-size="10.00">_pl_cy.c</text>
</a>
</g>
</g>
<!-- Node8&#45;&gt;Node11 -->
<g id="edge10" class="edge">
<title>Node8&#45;&gt;Node11</title>
<path fill="none" stroke="midnightblue" d="M2775.97,-188.42C2818.5,-178.42 2882.45,-163.38 2928.21,-152.62"/>
<polygon fill="midnightblue" stroke="midnightblue" points="2775.11,-185.03 2766.18,-190.73 2776.71,-191.84 2775.11,-185.03"/>
</g>
<!-- Node12 -->
<g id="node12" class="node">
<title>Node12</title>
<g id="a_node12"><a xlink:href="parse__line_8c.html" target="_top" xlink:title=" ">
<polygon fill="none" stroke="black" points="3058,-129 3058,-148 3150,-148 3150,-129 3058,-129"/>
<text text-anchor="middle" x="3104" y="-136" font-family="Helvetica,sans-Serif" font-size="10.00">src/parse_line.c</text>
</a>
</g>
</g>
<!-- Node8&#45;&gt;Node12 -->
<g id="edge11" class="edge">
<title>Node8&#45;&gt;Node12</title>
<path fill="none" stroke="midnightblue" d="M2776.45,-190.05C2898.49,-170.37 2932.09,-177.02 3049,-154 3057.33,-152.36 3066.27,-150.18 3074.47,-148.02"/>
<polygon fill="midnightblue" stroke="midnightblue" points="2775.63,-186.63 2766.33,-191.7 2776.77,-193.54 2775.63,-186.63"/>
</g>
<!-- Node13&#45;&gt;Node6 -->
<g id="edge13" class="edge">
<title>Node13&#45;&gt;Node6</title>
<path fill="none" stroke="midnightblue" d="M1142.16,-184.39C1112.32,-162.44 1059.21,-123.42 1058,-123 853.59,-52.06 298.32,-123.2 85,-87 77.25,-85.69 69.01,-83.44 61.62,-81.11"/>
<polygon fill="midnightblue" stroke="midnightblue" points="1140.12,-187.23 1150.25,-190.34 1144.27,-181.6 1140.12,-187.23"/>
</g>
<!-- Node14 -->
<g id="node14" class="node">
<title>Node14</title>
<g id="a_node14"><a xlink:href="parse__bonus_8c.html" target="_top" xlink:title=" ">
<polygon fill="none" stroke="black" points="1110,-129 1110,-148 1214,-148 1214,-129 1110,-129"/>
<text text-anchor="middle" x="1162" y="-136" font-family="Helvetica,sans-Serif" font-size="10.00">src/parse_bonus.c</text>
</a>
</g>
</g>
<!-- Node13&#45;&gt;Node14 -->
<g id="edge14" class="edge">
<title>Node13&#45;&gt;Node14</title>
<path fill="none" stroke="midnightblue" d="M1162,-180.32C1162,-169.5 1162,-156.4 1162,-148.01"/>
<polygon fill="midnightblue" stroke="midnightblue" points="1158.5,-180.48 1162,-190.48 1165.5,-180.48 1158.5,-180.48"/>
</g>
<!-- Node17&#45;&gt;Node42 -->
<g id="edge16" class="edge">
<title>Node17&#45;&gt;Node42</title>
<path fill="none" stroke="midnightblue" d="M1709.88,-190.03C2063.42,-152.69 2478.54,-142.47 2603.6,-140.11"/>
<polygon fill="midnightblue" stroke="midnightblue" points="1709.27,-186.58 1699.7,-191.12 1710.02,-193.54 1709.27,-186.58"/>
</g>
<!-- Node17&#45;&gt;Node58 -->
<g id="edge32" class="edge">
<title>Node17&#45;&gt;Node58</title>
<path fill="none" stroke="midnightblue" d="M1596.28,-189.78C1526.07,-178.37 1407.48,-159.09 1339.35,-148.01"/>
<polygon fill="midnightblue" stroke="midnightblue" points="1595.84,-193.25 1606.27,-191.4 1596.97,-186.34 1595.84,-193.25"/>
</g>
<!-- Node43 -->
<g id="node17" class="node">
<title>Node43</title>
<g id="a_node17"><a xlink:href="render__blend__background_8c.html" target="_top" xlink:title=" ">
<polygon fill="none" stroke="black" points="2068,-62 2068,-81 2236,-81 2236,-62 2068,-62"/>
<text text-anchor="middle" x="2152" y="-69" font-family="Helvetica,sans-Serif" font-size="10.00">src/render_blend_background.c</text>
</a>
</g>
</g>
<!-- Node42&#45;&gt;Node43 -->
<g id="edge17" class="edge">
<title>Node42&#45;&gt;Node43</title>
<path fill="none" stroke="midnightblue" d="M2593.85,-131.92C2519.58,-123.03 2370.83,-104.83 2245,-87 2232.06,-85.17 2218.12,-83.06 2205.08,-81.04"/>
<polygon fill="midnightblue" stroke="midnightblue" points="2593.48,-135.4 2603.83,-133.11 2594.31,-128.45 2593.48,-135.4"/>
</g>
<!-- Node44 -->
<g id="node18" class="node">
<title>Node44</title>
<g id="a_node18"><a xlink:href="render__cleanup_8c.html" target="_top" xlink:title=" ">
<polygon fill="none" stroke="black" points="2254.5,-62 2254.5,-81 2371.5,-81 2371.5,-62 2254.5,-62"/>
<text text-anchor="middle" x="2313" y="-69" font-family="Helvetica,sans-Serif" font-size="10.00">src/render_cleanup.c</text>
</a>
</g>
</g>
<!-- Node42&#45;&gt;Node44 -->
<g id="edge18" class="edge">
<title>Node42&#45;&gt;Node44</title>
<path fill="none" stroke="midnightblue" d="M2593.98,-128.63C2541.86,-118.75 2455.34,-102.15 2381,-87 2371.77,-85.12 2361.86,-83.04 2352.53,-81.06"/>
<polygon fill="midnightblue" stroke="midnightblue" points="2593.45,-132.1 2603.93,-130.52 2594.76,-125.22 2593.45,-132.1"/>
</g>
<!-- Node45 -->
<g id="node19" class="node">
<title>Node45</title>
<g id="a_node19"><a xlink:href="render__draw_8c.html" target="_top" xlink:title=" ">
<polygon fill="none" stroke="black" points="2390,-62 2390,-81 2492,-81 2492,-62 2390,-62"/>
<text text-anchor="middle" x="2441" y="-69" font-family="Helvetica,sans-Serif" font-size="10.00">src/render_draw.c</text>
</a>
</g>
</g>
<!-- Node42&#45;&gt;Node45 -->
<g id="edge19" class="edge">
<title>Node42&#45;&gt;Node45</title>
<path fill="none" stroke="midnightblue" d="M2604.89,-125.77C2565.27,-112.89 2502.6,-92.52 2467.35,-81.06"/>
<polygon fill="midnightblue" stroke="midnightblue" points="2603.85,-129.11 2614.44,-128.87 2606.01,-122.45 2603.85,-129.11"/>
</g>
<!-- Node46 -->
<g id="node20" class="node">
<title>Node46</title>
<g id="a_node20"><a xlink:href="render__init__base_8c.html" target="_top" xlink:title=" ">
<polygon fill="none" stroke="black" points="2510.5,-62 2510.5,-81 2633.5,-81 2633.5,-62 2510.5,-62"/>
<text text-anchor="middle" x="2572" y="-69" font-family="Helvetica,sans-Serif" font-size="10.00">src/render_init_base.c</text>
</a>
</g>
</g>
<!-- Node42&#45;&gt;Node46 -->
<g id="edge20" class="edge">
<title>Node42&#45;&gt;Node46</title>
<path fill="none" stroke="midnightblue" d="M2624.39,-121.86C2610.83,-109.08 2592.16,-91.49 2581.16,-81.13"/>
<polygon fill="midnightblue" stroke="midnightblue" points="2622.02,-124.42 2631.69,-128.73 2626.82,-119.33 2622.02,-124.42"/>
</g>
<!-- Node47 -->
<g id="node21" class="node">
<title>Node47</title>
<g id="a_node21"><a xlink:href="render__init__mlx_8c.html" target="_top" xlink:title=" ">
<polygon fill="none" stroke="black" points="2651.5,-62 2651.5,-81 2770.5,-81 2770.5,-62 2651.5,-62"/>
<text text-anchor="middle" x="2711" y="-69" font-family="Helvetica,sans-Serif" font-size="10.00">src/render_init_mlx.c</text>
</a>
</g>
</g>
<!-- Node42&#45;&gt;Node47 -->
<g id="edge21" class="edge">
<title>Node42&#45;&gt;Node47</title>
<path fill="none" stroke="midnightblue" d="M2657.85,-121.86C2671.61,-109.08 2690.55,-91.49 2701.71,-81.13"/>
<polygon fill="midnightblue" stroke="midnightblue" points="2655.39,-119.36 2650.44,-128.73 2660.15,-124.49 2655.39,-119.36"/>
</g>
<!-- Node48 -->
<g id="node22" class="node">
<title>Node48</title>
<g id="a_node22"><a xlink:href="render__keyhook__camera_8c.html" target="_top" xlink:title=" ">
<polygon fill="none" stroke="black" points="2789,-56.5 2789,-86.5 2901,-86.5 2901,-56.5 2789,-56.5"/>
<text text-anchor="start" x="2797" y="-74.5" font-family="Helvetica,sans-Serif" font-size="10.00">src/render_keyhook</text>
<text text-anchor="middle" x="2845" y="-63.5" font-family="Helvetica,sans-Serif" font-size="10.00">_camera.c</text>
</a>
</g>
</g>
<!-- Node42&#45;&gt;Node48 -->
<g id="edge22" class="edge">
<title>Node42&#45;&gt;Node48</title>
<path fill="none" stroke="midnightblue" d="M2677.8,-125.77C2712.39,-114.75 2764.2,-98.24 2800.97,-86.53"/>
<polygon fill="midnightblue" stroke="midnightblue" points="2676.56,-122.5 2668.09,-128.87 2678.68,-129.17 2676.56,-122.5"/>
</g>
<!-- Node49 -->
<g id="node23" class="node">
<title>Node49</title>
<g id="a_node23"><a xlink:href="render__keyhook__colour_8c.html" target="_top" xlink:title=" ">
<polygon fill="none" stroke="black" points="2919,-56.5 2919,-86.5 3031,-86.5 3031,-56.5 2919,-56.5"/>
<text text-anchor="start" x="2927" y="-74.5" font-family="Helvetica,sans-Serif" font-size="10.00">src/render_keyhook</text>
<text text-anchor="middle" x="2975" y="-63.5" font-family="Helvetica,sans-Serif" font-size="10.00">_colour.c</text>
</a>
</g>
</g>
<!-- Node42&#45;&gt;Node49 -->
<g id="edge23" class="edge">
<title>Node42&#45;&gt;Node49</title>
<path fill="none" stroke="midnightblue" d="M2675.86,-125.93C2679.6,-124.86 2683.36,-123.86 2687,-123 2784.69,-99.85 2811.41,-105.94 2910,-87 2912.84,-86.45 2915.74,-85.88 2918.67,-85.28"/>
<polygon fill="midnightblue" stroke="midnightblue" points="2674.69,-122.63 2666.12,-128.86 2676.71,-129.33 2674.69,-122.63"/>
</g>
<!-- Node50 -->
<g id="node24" class="node">
<title>Node50</title>
<g id="a_node24"><a xlink:href="render__keyhook__hittable_8c.html" target="_top" xlink:title=" ">
<polygon fill="none" stroke="black" points="3049,-56.5 3049,-86.5 3161,-86.5 3161,-56.5 3049,-56.5"/>
<text text-anchor="start" x="3057" y="-74.5" font-family="Helvetica,sans-Serif" font-size="10.00">src/render_keyhook</text>
<text text-anchor="middle" x="3105" y="-63.5" font-family="Helvetica,sans-Serif" font-size="10.00">_hittable.c</text>
</a>
</g>
</g>
<!-- Node42&#45;&gt;Node50 -->
<g id="edge24" class="edge">
<title>Node42&#45;&gt;Node50</title>
<path fill="none" stroke="midnightblue" d="M2674.93,-125.96C2678.97,-124.84 2683.05,-123.81 2687,-123 2841.45,-91.13 2884.33,-112.21 3040,-87 3042.85,-86.54 3045.77,-86.03 3048.71,-85.48"/>
<polygon fill="midnightblue" stroke="midnightblue" points="2673.69,-122.67 2665.11,-128.89 2675.69,-129.38 2673.69,-122.67"/>
</g>
<!-- Node51 -->
<g id="node25" class="node">
<title>Node51</title>
<g id="a_node25"><a xlink:href="render__keyhook__light_8c.html" target="_top" xlink:title=" ">
<polygon fill="none" stroke="black" points="3179,-56.5 3179,-86.5 3291,-86.5 3291,-56.5 3179,-56.5"/>
<text text-anchor="start" x="3187" y="-74.5" font-family="Helvetica,sans-Serif" font-size="10.00">src/render_keyhook</text>
<text text-anchor="middle" x="3235" y="-63.5" font-family="Helvetica,sans-Serif" font-size="10.00">_light.c</text>
</a>
</g>
</g>
<!-- Node42&#45;&gt;Node51 -->
<g id="edge25" class="edge">
<title>Node42&#45;&gt;Node51</title>
<path fill="none" stroke="midnightblue" d="M2674.28,-126.02C2678.52,-124.85 2682.84,-123.8 2687,-123 2898.39,-82.37 2957.06,-118.52 3170,-87 3172.86,-86.58 3175.78,-86.1 3178.72,-85.58"/>
<polygon fill="midnightblue" stroke="midnightblue" points="2673.19,-122.69 2664.61,-128.91 2675.19,-129.4 2673.19,-122.69"/>
</g>
<!-- Node52 -->
<g id="node26" class="node">
<title>Node52</title>
<g id="a_node26"><a xlink:href="render__keyhook__options_8c.html" target="_top" xlink:title=" ">
<polygon fill="none" stroke="black" points="3309,-56.5 3309,-86.5 3421,-86.5 3421,-56.5 3309,-56.5"/>
<text text-anchor="start" x="3317" y="-74.5" font-family="Helvetica,sans-Serif" font-size="10.00">src/render_keyhook</text>
<text text-anchor="middle" x="3365" y="-63.5" font-family="Helvetica,sans-Serif" font-size="10.00">_options.c</text>
</a>
</g>
</g>
<!-- Node42&#45;&gt;Node52 -->
<g id="edge26" class="edge">
<title>Node42&#45;&gt;Node52</title>
<path fill="none" stroke="midnightblue" d="M2673.98,-126.04C2678.32,-124.84 2682.74,-123.78 2687,-123 2955.41,-73.6 3029.72,-124.83 3300,-87 3302.86,-86.6 3305.79,-86.14 3308.73,-85.63"/>
<polygon fill="midnightblue" stroke="midnightblue" points="2672.7,-122.77 2664.12,-128.99 2674.7,-129.47 2672.7,-122.77"/>
</g>
<!-- Node53 -->
<g id="node27" class="node">
<title>Node53</title>
<g id="a_node27"><a xlink:href="render__keyhook__press_8c.html" target="_top" xlink:title=" ">
<polygon fill="none" stroke="black" points="3439,-56.5 3439,-86.5 3551,-86.5 3551,-56.5 3439,-56.5"/>
<text text-anchor="start" x="3447" y="-74.5" font-family="Helvetica,sans-Serif" font-size="10.00">src/render_keyhook</text>
<text text-anchor="middle" x="3495" y="-63.5" font-family="Helvetica,sans-Serif" font-size="10.00">_press.c</text>
</a>
</g>
</g>
<!-- Node42&#45;&gt;Node53 -->
<g id="edge27" class="edge">
<title>Node42&#45;&gt;Node53</title>
<path fill="none" stroke="midnightblue" d="M2673.97,-125.99C2678.31,-124.81 2682.73,-123.76 2687,-123 3012.45,-64.82 3102.35,-131.15 3430,-87 3432.86,-86.61 3435.79,-86.17 3438.74,-85.67"/>
<polygon fill="midnightblue" stroke="midnightblue" points="2672.69,-122.72 2664.11,-128.94 2674.69,-129.43 2672.69,-122.72"/>
</g>
<!-- Node54 -->
<g id="node28" class="node">
<title>Node54</title>
<g id="a_node28"><a xlink:href="render__keyhook__scene_8c.html" target="_top" xlink:title=" ">
<polygon fill="none" stroke="black" points="3569,-56.5 3569,-86.5 3681,-86.5 3681,-56.5 3569,-56.5"/>
<text text-anchor="start" x="3577" y="-74.5" font-family="Helvetica,sans-Serif" font-size="10.00">src/render_keyhook</text>
<text text-anchor="middle" x="3625" y="-63.5" font-family="Helvetica,sans-Serif" font-size="10.00">_scene.c</text>
</a>
</g>
</g>
<!-- Node42&#45;&gt;Node54 -->
<g id="edge28" class="edge">
<title>Node42&#45;&gt;Node54</title>
<path fill="none" stroke="midnightblue" d="M2673.97,-125.96C2678.31,-124.78 2682.73,-123.75 2687,-123 3069.51,-56.04 3174.96,-137.47 3560,-87 3562.87,-86.62 3565.79,-86.18 3568.74,-85.69"/>
<polygon fill="midnightblue" stroke="midnightblue" points="2672.69,-122.69 2664.1,-128.91 2674.69,-129.4 2672.69,-122.69"/>
</g>
<!-- Node55 -->
<g id="node29" class="node">
<title>Node55</title>
<g id="a_node29"><a xlink:href="render__keyhook__utils_8c.html" target="_top" xlink:title=" ">
<polygon fill="none" stroke="black" points="3699,-56.5 3699,-86.5 3811,-86.5 3811,-56.5 3699,-56.5"/>
<text text-anchor="start" x="3707" y="-74.5" font-family="Helvetica,sans-Serif" font-size="10.00">src/render_keyhook</text>
<text text-anchor="middle" x="3755" y="-63.5" font-family="Helvetica,sans-Serif" font-size="10.00">_utils.c</text>
</a>
</g>
</g>
<!-- Node42&#45;&gt;Node55 -->
<g id="edge29" class="edge">
<title>Node42&#45;&gt;Node55</title>
<path fill="none" stroke="midnightblue" d="M2673.97,-125.94C2678.31,-124.77 2682.73,-123.74 2687,-123 3126.59,-47.26 3247.57,-143.8 3690,-87 3692.87,-86.63 3695.79,-86.2 3698.74,-85.71"/>
<polygon fill="midnightblue" stroke="midnightblue" points="2672.68,-122.67 2664.1,-128.88 2674.68,-129.38 2672.68,-122.67"/>
</g>
<!-- Node56 -->
<g id="node30" class="node">
<title>Node56</title>
<g id="a_node30"><a xlink:href="render__loop__mlx_8c.html" target="_top" xlink:title=" ">
<polygon fill="none" stroke="black" points="3829,-62 3829,-81 3953,-81 3953,-62 3829,-62"/>
<text text-anchor="middle" x="3891" y="-69" font-family="Helvetica,sans-Serif" font-size="10.00">src/render_loop_mlx.c</text>
</a>
</g>
</g>
<!-- Node42&#45;&gt;Node56 -->
<g id="edge30" class="edge">
<title>Node42&#45;&gt;Node56</title>
<path fill="none" stroke="midnightblue" d="M2673.96,-125.93C2678.3,-124.75 2682.73,-123.73 2687,-123 3183.67,-38.48 3319.61,-145.62 3820,-87 3831.5,-85.65 3843.9,-83.4 3855.07,-81.07"/>
<polygon fill="midnightblue" stroke="midnightblue" points="2672.68,-122.66 2664.1,-128.86 2674.68,-129.36 2672.68,-122.66"/>
</g>
<!-- Node57 -->
<g id="node31" class="node">
<title>Node57</title>
<g id="a_node31"><a xlink:href="render__mouse_8c.html" target="_top" xlink:title=" ">
<polygon fill="none" stroke="black" points="3971,-62 3971,-81 4083,-81 4083,-62 3971,-62"/>
<text text-anchor="middle" x="4027" y="-69" font-family="Helvetica,sans-Serif" font-size="10.00">src/render_mouse.c</text>
</a>
</g>
</g>
<!-- Node42&#45;&gt;Node57 -->
<g id="edge31" class="edge">
<title>Node42&#45;&gt;Node57</title>
<path fill="none" stroke="midnightblue" d="M2673.31,-126.09C2677.86,-124.84 2682.51,-123.76 2687,-123 2966.51,-75.94 3680.73,-122.02 3962,-87 3972.67,-85.67 3984.17,-83.39 3994.48,-81.03"/>
<polygon fill="midnightblue" stroke="midnightblue" points="2672.19,-122.77 2663.62,-129 2674.21,-129.47 2672.19,-122.77"/>
</g>
<!-- Node58&#45;&gt;Node6 -->
<g id="edge34" class="edge">
<title>Node58&#45;&gt;Node6</title>
<path fill="none" stroke="midnightblue" d="M1245.18,-126.82C1237.83,-125.29 1230.23,-123.92 1223,-123 721.06,-58.8 584.12,-170.33 85,-87 77.25,-85.71 69,-83.47 61.61,-81.14"/>
<polygon fill="midnightblue" stroke="midnightblue" points="1244.46,-130.25 1254.98,-128.99 1245.97,-123.41 1244.46,-130.25"/>
</g>
<!-- Node59 -->
<g id="node33" class="node">
<title>Node59</title>
<g id="a_node33"><a xlink:href="menu__put_8h.html" target="_top" xlink:title=" ">
<polygon fill="none" stroke="red" points="94,-62 94,-81 186,-81 186,-62 94,-62"/>
<text text-anchor="middle" x="140" y="-69" font-family="Helvetica,sans-Serif" font-size="10.00">inc/menu_put.h</text>
</a>
</g>
</g>
<!-- Node58&#45;&gt;Node59 -->
<g id="edge33" class="edge">
<title>Node58&#45;&gt;Node59</title>
<path fill="none" stroke="midnightblue" d="M1244.45,-126.69C1237.33,-125.22 1229.98,-123.91 1223,-123 769.62,-64.23 647.28,-153.69 195,-87 185.91,-85.66 176.17,-83.38 167.45,-81.02"/>
<polygon fill="midnightblue" stroke="midnightblue" points="1244.14,-130.21 1254.65,-128.93 1245.64,-123.37 1244.14,-130.21"/>
</g>
<!-- Node77 -->
<g id="node34" class="node">
<title>Node77</title>
<g id="a_node34"><a xlink:href="render__cleanup__bonus_8c.html" target="_top" xlink:title=" ">
<polygon fill="none" stroke="black" points="204.5,-56.5 204.5,-86.5 313.5,-86.5 313.5,-56.5 204.5,-56.5"/>
<text text-anchor="start" x="212.5" y="-74.5" font-family="Helvetica,sans-Serif" font-size="10.00">src/render_cleanup</text>
<text text-anchor="middle" x="259" y="-63.5" font-family="Helvetica,sans-Serif" font-size="10.00">_bonus.c</text>
</a>
</g>
</g>
<!-- Node58&#45;&gt;Node77 -->
<g id="edge35" class="edge">
<title>Node58&#45;&gt;Node77</title>
<path fill="none" stroke="midnightblue" d="M1244.44,-126.72C1237.32,-125.24 1229.98,-123.92 1223,-123 825.69,-70.5 719.22,-140.18 322,-87 319.22,-86.63 316.38,-86.19 313.52,-85.7"/>
<polygon fill="midnightblue" stroke="midnightblue" points="1244.13,-130.24 1254.65,-128.96 1245.63,-123.4 1244.13,-130.24"/>
</g>
<!-- Node78 -->
<g id="node35" class="node">
<title>Node78</title>
<g id="a_node35"><a xlink:href="render__draw__bonus_8c.html" target="_top" xlink:title=" ">
<polygon fill="none" stroke="black" points="331.5,-62 331.5,-81 468.5,-81 468.5,-62 331.5,-62"/>
<text text-anchor="middle" x="400" y="-69" font-family="Helvetica,sans-Serif" font-size="10.00">src/render_draw_bonus.c</text>
</a>
</g>
</g>
<!-- Node58&#45;&gt;Node78 -->
<g id="edge36" class="edge">
<title>Node58&#45;&gt;Node78</title>
<path fill="none" stroke="midnightblue" d="M1244.2,-126.72C1237.16,-125.26 1229.9,-123.94 1223,-123 894.1,-78.16 806.67,-125.81 477,-87 464.71,-85.55 451.42,-83.3 439.41,-81"/>
<polygon fill="midnightblue" stroke="midnightblue" points="1243.8,-130.22 1254.31,-128.94 1245.3,-123.38 1243.8,-130.22"/>
</g>
<!-- Node79 -->
<g id="node36" class="node">
<title>Node79</title>
<g id="a_node36"><a xlink:href="render__init__bonus_8c.html" target="_top" xlink:title=" ">
<polygon fill="none" stroke="black" points="486.5,-62 486.5,-81 615.5,-81 615.5,-62 486.5,-62"/>
<text text-anchor="middle" x="551" y="-69" font-family="Helvetica,sans-Serif" font-size="10.00">src/render_init_bonus.c</text>
</a>
</g>
</g>
<!-- Node58&#45;&gt;Node79 -->
<g id="edge37" class="edge">
<title>Node58&#45;&gt;Node79</title>
<path fill="none" stroke="midnightblue" d="M1243.96,-126.74C1236.99,-125.29 1229.82,-123.97 1223,-123 959.4,-85.46 889.12,-120.67 625,-87 613.31,-85.51 600.7,-83.28 589.25,-81"/>
<polygon fill="midnightblue" stroke="midnightblue" points="1243.46,-130.22 1253.97,-128.94 1244.95,-123.38 1243.46,-130.22"/>
</g>
<!-- Node80 -->
<g id="node37" class="node">
<title>Node80</title>
<g id="a_node37"><a xlink:href="render__keyhook__camera__bonus_8c.html" target="_top" xlink:title=" ">
<polygon fill="none" stroke="black" points="634,-56.5 634,-86.5 746,-86.5 746,-56.5 634,-56.5"/>
<text text-anchor="start" x="642" y="-74.5" font-family="Helvetica,sans-Serif" font-size="10.00">src/render_keyhook</text>
<text text-anchor="middle" x="690" y="-63.5" font-family="Helvetica,sans-Serif" font-size="10.00">_camera_bonus.c</text>
</a>
</g>
</g>
<!-- Node58&#45;&gt;Node80 -->
<g id="edge38" class="edge">
<title>Node58&#45;&gt;Node80</title>
<path fill="none" stroke="midnightblue" d="M1243.71,-126.8C1236.82,-125.35 1229.74,-124.02 1223,-123 1016.72,-91.87 961.33,-117.79 755,-87 752.14,-86.57 749.22,-86.09 746.28,-85.57"/>
<polygon fill="midnightblue" stroke="midnightblue" points="1243.11,-130.25 1253.63,-128.97 1244.61,-123.41 1243.11,-130.25"/>
</g>
<!-- Node81 -->
<g id="node38" class="node">
<title>Node81</title>
<g id="a_node38"><a xlink:href="render__keyhook__hittable__bonus_8c.html" target="_top" xlink:title=" ">
<polygon fill="none" stroke="black" points="764,-56.5 764,-86.5 876,-86.5 876,-56.5 764,-56.5"/>
<text text-anchor="start" x="772" y="-74.5" font-family="Helvetica,sans-Serif" font-size="10.00">src/render_keyhook</text>
<text text-anchor="middle" x="820" y="-63.5" font-family="Helvetica,sans-Serif" font-size="10.00">_hittable_bonus.c</text>
</a>
</g>
</g>
<!-- Node58&#45;&gt;Node81 -->
<g id="edge39" class="edge">
<title>Node58&#45;&gt;Node81</title>
<path fill="none" stroke="midnightblue" d="M1242.52,-126.72C1236,-125.35 1229.34,-124.05 1223,-123 1073.97,-98.27 1034.07,-111.49 885,-87 882.15,-86.53 879.23,-86.02 876.29,-85.47"/>
<polygon fill="midnightblue" stroke="midnightblue" points="1242.08,-130.21 1252.6,-128.93 1243.58,-123.37 1242.08,-130.21"/>
</g>
<!-- Node82 -->
<g id="node39" class="node">
<title>Node82</title>
<g id="a_node39"><a xlink:href="render__keyhook__options__bonus_8c.html" target="_top" xlink:title=" ">
<polygon fill="none" stroke="black" points="894,-56.5 894,-86.5 1006,-86.5 1006,-56.5 894,-56.5"/>
<text text-anchor="start" x="902" y="-74.5" font-family="Helvetica,sans-Serif" font-size="10.00">src/render_keyhook</text>
<text text-anchor="middle" x="950" y="-63.5" font-family="Helvetica,sans-Serif" font-size="10.00">_options_bonus.c</text>
</a>
</g>
</g>
<!-- Node58&#45;&gt;Node82 -->
<g id="edge40" class="edge">
<title>Node58&#45;&gt;Node82</title>
<path fill="none" stroke="midnightblue" d="M1240.88,-126.75C1234.87,-125.44 1228.8,-124.16 1223,-123 1131,-104.63 1107.03,-105.22 1015,-87 1012.16,-86.44 1009.26,-85.85 1006.34,-85.24"/>
<polygon fill="midnightblue" stroke="midnightblue" points="1240.33,-130.22 1250.85,-128.97 1241.85,-123.38 1240.33,-130.22"/>
</g>
<!-- Node83 -->
<g id="node40" class="node">
<title>Node83</title>
<g id="a_node40"><a xlink:href="render__keyhook__press__bonus_8c.html" target="_top" xlink:title=" ">
<polygon fill="none" stroke="black" points="1024,-56.5 1024,-86.5 1136,-86.5 1136,-56.5 1024,-56.5"/>
<text text-anchor="start" x="1032" y="-74.5" font-family="Helvetica,sans-Serif" font-size="10.00">src/render_keyhook</text>
<text text-anchor="middle" x="1080" y="-63.5" font-family="Helvetica,sans-Serif" font-size="10.00">_press_bonus.c</text>
</a>
</g>
</g>
<!-- Node58&#45;&gt;Node83 -->
<g id="edge41" class="edge">
<title>Node58&#45;&gt;Node83</title>
<path fill="none" stroke="midnightblue" d="M1249.66,-125.77C1214.56,-114.75 1161.98,-98.24 1124.67,-86.53"/>
<polygon fill="midnightblue" stroke="midnightblue" points="1248.92,-129.21 1259.51,-128.87 1251.02,-122.53 1248.92,-129.21"/>
</g>
<!-- Node84 -->
<g id="node41" class="node">
<title>Node84</title>
<g id="a_node41"><a xlink:href="render__loop__mlx__bonus_8c.html" target="_top" xlink:title=" ">
<polygon fill="none" stroke="black" points="1154,-56.5 1154,-86.5 1270,-86.5 1270,-56.5 1154,-56.5"/>
<text text-anchor="start" x="1162" y="-74.5" font-family="Helvetica,sans-Serif" font-size="10.00">src/render_loop_mlx</text>
<text text-anchor="middle" x="1212" y="-63.5" font-family="Helvetica,sans-Serif" font-size="10.00">_bonus.c</text>
</a>
</g>
</g>
<!-- Node58&#45;&gt;Node84 -->
<g id="edge42" class="edge">
<title>Node58&#45;&gt;Node84</title>
<path fill="none" stroke="midnightblue" d="M1269.03,-121.93C1256.63,-111.18 1240.27,-97 1228.26,-86.59"/>
<polygon fill="midnightblue" stroke="midnightblue" points="1267.04,-124.83 1276.89,-128.73 1271.62,-119.54 1267.04,-124.83"/>
</g>
<!-- Node85 -->
<g id="node42" class="node">
<title>Node85</title>
<g id="a_node42"><a xlink:href="render__mouse__bonus_8c.html" target="_top" xlink:title=" ">
<polygon fill="none" stroke="black" points="1288,-62 1288,-81 1434,-81 1434,-62 1288,-62"/>
<text text-anchor="middle" x="1361" y="-69" font-family="Helvetica,sans-Serif" font-size="10.00">src/render_mouse_bonus.c</text>
</a>
</g>
</g>
<!-- Node58&#45;&gt;Node85 -->
<g id="edge43" class="edge">
<title>Node58&#45;&gt;Node85</title>
<path fill="none" stroke="midnightblue" d="M1304.81,-121.86C1319.36,-109.08 1339.38,-91.49 1351.18,-81.13"/>
<polygon fill="midnightblue" stroke="midnightblue" points="1302.18,-119.5 1296.98,-128.73 1306.8,-124.76 1302.18,-119.5"/>
</g>
<!-- Node86 -->
<g id="node43" class="node">
<title>Node86</title>
<g id="a_node43"><a xlink:href="render__output__ppm__bonus_8c.html" target="_top" xlink:title=" ">
<polygon fill="none" stroke="black" points="1452.5,-56.5 1452.5,-86.5 1581.5,-86.5 1581.5,-56.5 1452.5,-56.5"/>
<text text-anchor="start" x="1460.5" y="-74.5" font-family="Helvetica,sans-Serif" font-size="10.00">src/render_output_ppm</text>
<text text-anchor="middle" x="1517" y="-63.5" font-family="Helvetica,sans-Serif" font-size="10.00">_bonus.c</text>
</a>
</g>
</g>
<!-- Node58&#45;&gt;Node86 -->
<g id="edge44" class="edge">
<title>Node58&#45;&gt;Node86</title>
<path fill="none" stroke="midnightblue" d="M1327.49,-126.06C1366.48,-115.04 1425.55,-98.34 1467.36,-86.53"/>
<polygon fill="midnightblue" stroke="midnightblue" points="1326.21,-122.78 1317.54,-128.87 1328.12,-129.52 1326.21,-122.78"/>
</g>
<!-- Node87 -->
<g id="node44" class="node">
<title>Node87</title>
<g id="a_node44"><a xlink:href="render__output__threaded__bonus_8c.html" target="_top" xlink:title=" ">
<polygon fill="none" stroke="black" points="1599.5,-56.5 1599.5,-86.5 1750.5,-86.5 1750.5,-56.5 1599.5,-56.5"/>
<text text-anchor="start" x="1607.5" y="-74.5" font-family="Helvetica,sans-Serif" font-size="10.00">src/render_output_threaded</text>
<text text-anchor="middle" x="1675" y="-63.5" font-family="Helvetica,sans-Serif" font-size="10.00">_bonus.c</text>
</a>
</g>
</g>
<!-- Node58&#45;&gt;Node87 -->
<g id="edge45" class="edge">
<title>Node58&#45;&gt;Node87</title>
<path fill="none" stroke="midnightblue" d="M1348.36,-127.34C1409.58,-117.19 1506.31,-101.11 1590,-87 1593.1,-86.48 1596.26,-85.94 1599.46,-85.4"/>
<polygon fill="midnightblue" stroke="midnightblue" points="1347.77,-123.89 1338.48,-128.98 1348.92,-130.8 1347.77,-123.89"/>
</g>
<!-- Node88 -->
<g id="node45" class="node">
<title>Node88</title>
<g id="a_node45"><a xlink:href="render__sample__bonus_8c.html" target="_top" xlink:title=" ">
<polygon fill="none" stroke="black" points="1768.5,-62 1768.5,-81 1917.5,-81 1917.5,-62 1768.5,-62"/>
<text text-anchor="middle" x="1843" y="-69" font-family="Helvetica,sans-Serif" font-size="10.00">src/render_sample_bonus.c</text>
</a>
</g>
</g>
<!-- Node58&#45;&gt;Node88 -->
<g id="edge46" class="edge">
<title>Node58&#45;&gt;Node88</title>
<path fill="none" stroke="midnightblue" d="M1351.82,-131.9C1442.94,-123.71 1614,-107.25 1759,-87 1771.31,-85.28 1784.59,-83.13 1796.87,-81.01"/>
<polygon fill="midnightblue" stroke="midnightblue" points="1351.3,-128.43 1341.65,-132.8 1351.92,-135.4 1351.3,-128.43"/>
</g>
<!-- Node89 -->
<g id="node46" class="node">
<title>Node89</title>
<g id="a_node46"><a xlink:href="render__threaded__fts__bonus_8c.html" target="_top" xlink:title=" ">
<polygon fill="none" stroke="black" points="1936,-56.5 1936,-86.5 2050,-86.5 2050,-56.5 1936,-56.5"/>
<text text-anchor="start" x="1944" y="-74.5" font-family="Helvetica,sans-Serif" font-size="10.00">src/render_threaded</text>
<text text-anchor="middle" x="1993" y="-63.5" font-family="Helvetica,sans-Serif" font-size="10.00">_fts_bonus.c</text>
</a>
</g>
</g>
<!-- Node58&#45;&gt;Node89 -->
<g id="edge47" class="edge">
<title>Node58&#45;&gt;Node89</title>
<path fill="none" stroke="midnightblue" d="M1351.66,-135.26C1467.39,-130.61 1717.33,-117.68 1926,-87 1929.18,-86.53 1932.43,-86 1935.71,-85.43"/>
<polygon fill="midnightblue" stroke="midnightblue" points="1351.41,-131.77 1341.56,-135.66 1351.69,-138.76 1351.41,-131.77"/>
</g>
<!-- Node92&#45;&gt;Node42 -->
<g id="edge53" class="edge">
<title>Node92&#45;&gt;Node42</title>
<path fill="none" stroke="midnightblue" d="M1818.43,-195.24C1983.04,-184.09 2466.15,-151.35 2603.93,-142.01"/>
<polygon fill="midnightblue" stroke="midnightblue" points="1817.79,-191.78 1808.05,-195.95 1818.27,-198.76 1817.79,-191.78"/>
</g>
<!-- Node92&#45;&gt;Node58 -->
<g id="edge54" class="edge">
<title>Node92&#45;&gt;Node58</title>
<path fill="none" stroke="midnightblue" d="M1707.77,-190.03C1569.59,-170.59 1420.08,-153.79 1341.59,-145.29"/>
<polygon fill="midnightblue" stroke="midnightblue" points="1707.31,-193.5 1717.7,-191.43 1708.29,-186.56 1707.31,-193.5"/>
</g>
<!-- Node93 -->
<g id="node50" class="node">
<title>Node93</title>
<g id="a_node50"><a xlink:href="error__mlx_8c.html" target="_top" xlink:title=" ">
<polygon fill="none" stroke="black" points="1718.5,-129 1718.5,-148 1807.5,-148 1807.5,-129 1718.5,-129"/>
<text text-anchor="middle" x="1763" y="-136" font-family="Helvetica,sans-Serif" font-size="10.00">src/error_mlx.c</text>
</a>
</g>
</g>
<!-- Node92&#45;&gt;Node93 -->
<g id="edge55" class="edge">
<title>Node92&#45;&gt;Node93</title>
<path fill="none" stroke="midnightblue" d="M1763,-180.32C1763,-169.5 1763,-156.4 1763,-148.01"/>
<polygon fill="midnightblue" stroke="midnightblue" points="1759.5,-180.48 1763,-190.48 1766.5,-180.48 1759.5,-180.48"/>
</g>
</g>
</svg>
        <g id="navigator" transform="translate(0 0)" fill="#404254">
                <rect fill="#f2f5e9" fill-opacity="0.5" stroke="#606060" stroke-width=".5" x="0" y="0" width="60" height="60"/>
                <use id="zoomplus" xlink:href="#zoomPlus" x="17" y="9" onmousedown="handleZoom(evt,'in')"/>
                <use id="zoomminus" xlink:href="#zoomMin" x="42" y="9" onmousedown="handleZoom(evt,'out')"/>
                <use id="reset" xlink:href="#resetDef" x="30" y="36" onmousedown="handleReset()"/>
                <g id="arrowUp" xlink:href="#dirArrow" transform="translate(30 24)" onmousedown="handlePan(0,-1)">
                  <use xlink:href="#rim" fill="#404040">
                        <set attributeName="fill" to="#808080" begin="arrowUp.mouseover" end="arrowUp.mouseout"/>
                  </use>
                  <path fill="none" stroke="white" stroke-width="1.5" d="M0,-3.0v7 M-2.5,-0.5L0,-3.0L2.5,-0.5"/>
                </g>
                <g id="arrowRight" xlink:href="#dirArrow" transform="rotate(90) translate(36 -43)" onmousedown="handlePan(1,0)">
                  <use xlink:href="#rim" fill="#404040">
                        <set attributeName="fill" to="#808080" begin="arrowRight.mouseover" end="arrowRight.mouseout"/>
                  </use>
                  <path fill="none" stroke="white" stroke-width="1.5" d="M0,-3.0v7 M-2.5,-0.5L0,-3.0L2.5,-0.5"/>
                </g>
                <g id="arrowDown" xlink:href="#dirArrow" transform="rotate(180) translate(-30 -48)" onmousedown="handlePan(0,1)">
                  <use xlink:href="#rim" fill="#404040">
                        <set attributeName="fill" to="#808080" begin="arrowDown.mouseover" end="arrowDown.mouseout"/>
                  </use>
                  <path fill="none" stroke="white" stroke-width="1.5" d="M0,-3.0v7 M-2.5,-0.5L0,-3.0L2.5,-0.5"/>
                </g>
                <g id="arrowLeft" xlink:href="#dirArrow" transform="rotate(270) translate(-36 17)" onmousedown="handlePan(-1,0)">
                  <use xlink:href="#rim" fill="#404040">
                        <set attributeName="fill" to="#808080" begin="arrowLeft.mouseover" end="arrowLeft.mouseout"/>
                  </use>
                  <path fill="none" stroke="white" stroke-width="1.5" d="M0,-3.0v7 M-2.5,-0.5L0,-3.0L2.5,-0.5"/>
                </g>
        </g>
        <svg viewBox="0 0 15 15" width="100%" height="30px" preserveAspectRatio="xMaxYMin meet">
         <g id="arrow_out" transform="scale(0.3 0.3)">
          <a xlink:href="vec2_8h__dep__incl_org.svg" target="_base">
           <rect id="button" ry="5" rx="5" y="6" x="6" height="38" width="38"
                fill="#f2f5e9" fill-opacity="0.5" stroke="#606060" stroke-width="1.0"/>
           <path id="arrow"
             d="M 11.500037,31.436501 C 11.940474,20.09759 22.043105,11.32322 32.158766,21.979434 L 37.068811,17.246167 C 37.068811,17.246167 37.088388,32 37.088388,32 L 22.160133,31.978069 C 22.160133,31.978069 26.997745,27.140456 26.997745,27.140456 C 18.528582,18.264221 13.291696,25.230495 11.500037,31.436501 z"
             style="fill:#404040;"/>
          </a>
         </g>
        </svg>
</svg>
