<?xml version="1.0" encoding="UTF-8" standalone="no"?>
<!DOCTYPE svg PUBLIC "-//W3C//DTD SVG 1.1//EN"
 "http://www.w3.org/Graphics/SVG/1.1/DTD/svg11.dtd">
<!-- Generated by graphviz version 2.43.0 (0)
 -->
<!-- Title: ft_vec3_dot Pages: 1 -->
<svg width="2533pt" height="488pt"
 viewBox="0.00 0.00 2533.00 487.75" xmlns="http://www.w3.org/2000/svg" xmlns:xlink="http://www.w3.org/1999/xlink">
<g id="graph0" class="graph" transform="scale(1 1) rotate(0) translate(4 483.75)">
<title>ft_vec3_dot</title>
<!-- Node1 -->
<g id="node1" class="node">
<title>Node1</title>
<g id="a_node1"><a xlink:title="Calculate the scalar product of two vectors.">
<polygon fill="#bfbfbf" stroke="black" points="2452,-190.5 2452,-209.5 2525,-209.5 2525,-190.5 2452,-190.5"/>
<text text-anchor="middle" x="2488.5" y="-197.5" font-family="Helvetica,sans-Serif" font-size="10.00">ft_vec3_dot</text>
</a>
</g>
</g>
<!-- Node2 -->
<g id="node2" class="node">
<title>Node2</title>
<g id="a_node2"><a xlink:href="hit__manager__bonus_8h.html#a9752309af1756a6360c6459ed6747f83" target="_top" xlink:title="Calculates potential hits of a cone.">
<polygon fill="none" stroke="black" points="1876,-304.5 1876,-323.5 1985,-323.5 1985,-304.5 1876,-304.5"/>
<text text-anchor="middle" x="1930.5" y="-311.5" font-family="Helvetica,sans-Serif" font-size="10.00">ft_co_calc_pot_hits</text>
</a>
</g>
</g>
<!-- Node1&#45;&gt;Node2 -->
<g id="edge1" class="edge">
<title>Node1&#45;&gt;Node2</title>
<path fill="none" stroke="midnightblue" d="M2444.65,-212.22C2435.25,-214.66 2425.33,-217.07 2416,-219 2304.22,-242.14 2273.97,-234.83 2162,-257 2091.64,-270.93 2010.44,-292.26 1965.64,-304.49"/>
<polygon fill="midnightblue" stroke="midnightblue" points="2445.82,-215.53 2454.58,-209.57 2444.01,-208.76 2445.82,-215.53"/>
</g>
<!-- Node6 -->
<g id="node6" class="node">
<title>Node6</title>
<g id="a_node6"><a xlink:href="lighting__bonus_8h.html#ab380b8bbadc80a5a668141c8edcc4754" target="_top" xlink:title="Create reflective lighting by recursion.">
<polygon fill="none" stroke="black" points="1328,-266.5 1328,-285.5 1429,-285.5 1429,-266.5 1328,-266.5"/>
<text text-anchor="middle" x="1378.5" y="-273.5" font-family="Helvetica,sans-Serif" font-size="10.00">ft_reflective_light</text>
</a>
</g>
</g>
<!-- Node1&#45;&gt;Node6 -->
<g id="edge46" class="edge">
<title>Node1&#45;&gt;Node6</title>
<path fill="none" stroke="midnightblue" d="M2446.14,-187.78C2436.33,-185.22 2425.85,-182.77 2416,-181 2328.77,-165.34 2306.13,-162 2217.5,-162 2217.5,-162 2217.5,-162 1672,-162 1557.27,-162 1433.45,-239.08 1393.06,-266.48"/>
<polygon fill="midnightblue" stroke="midnightblue" points="2445.51,-191.23 2456.07,-190.45 2447.33,-184.47 2445.51,-191.23"/>
</g>
<!-- Node23 -->
<g id="node23" class="node">
<title>Node23</title>
<g id="a_node23"><a xlink:href="hit__manager__bonus_8h.html#ac1c274bfe31accc081355bdd98133056" target="_top" xlink:title="Check if the ray actually hit the cone wall.">
<polygon fill="none" stroke="black" points="2312,-190.5 2312,-209.5 2411,-209.5 2411,-190.5 2312,-190.5"/>
<text text-anchor="middle" x="2361.5" y="-197.5" font-family="Helvetica,sans-Serif" font-size="10.00">ft_co_check_wall</text>
</a>
</g>
</g>
<!-- Node1&#45;&gt;Node23 -->
<g id="edge26" class="edge">
<title>Node1&#45;&gt;Node23</title>
<path fill="none" stroke="midnightblue" d="M2441.66,-200C2431.8,-200 2421.34,-200 2411.37,-200"/>
<polygon fill="midnightblue" stroke="midnightblue" points="2441.68,-203.5 2451.68,-200 2441.68,-196.5 2441.68,-203.5"/>
</g>
<!-- Node25 -->
<g id="node25" class="node">
<title>Node25</title>
<g id="a_node25"><a xlink:href="hit__manager_8h.html#afb7b50ad2f9161c61fc1065975ec7cbf" target="_top" xlink:title="Calculates all four potential hits of a cylinder.">
<polygon fill="none" stroke="black" points="2307,-76.5 2307,-95.5 2416,-95.5 2416,-76.5 2307,-76.5"/>
<text text-anchor="middle" x="2361.5" y="-83.5" font-family="Helvetica,sans-Serif" font-size="10.00">ft_cy_calc_pot_hits</text>
</a>
</g>
</g>
<!-- Node1&#45;&gt;Node25 -->
<g id="edge29" class="edge">
<title>Node1&#45;&gt;Node25</title>
<path fill="none" stroke="midnightblue" d="M2476.68,-181.63C2464.19,-161.75 2442,-130.2 2416,-110 2408.44,-104.13 2399.22,-99.33 2390.58,-95.62"/>
<polygon fill="midnightblue" stroke="midnightblue" points="2473.8,-183.64 2482,-190.35 2479.78,-179.99 2473.8,-183.64"/>
</g>
<!-- Node26 -->
<g id="node26" class="node">
<title>Node26</title>
<g id="a_node26"><a xlink:href="hit__manager_8h.html#a7071fcc84ae72a9f04ce375b87d46c77" target="_top" xlink:title="Checks if the ray actually hit the cylinder wall.">
<polygon fill="none" stroke="black" points="2312,-38.5 2312,-57.5 2411,-57.5 2411,-38.5 2312,-38.5"/>
<text text-anchor="middle" x="2361.5" y="-45.5" font-family="Helvetica,sans-Serif" font-size="10.00">ft_cy_check_wall</text>
</a>
</g>
</g>
<!-- Node1&#45;&gt;Node26 -->
<g id="edge30" class="edge">
<title>Node1&#45;&gt;Node26</title>
<path fill="none" stroke="midnightblue" d="M2482.07,-180.77C2473.02,-152.06 2452.16,-98.04 2416,-67 2411.51,-63.15 2406.19,-60.06 2400.67,-57.58"/>
<polygon fill="midnightblue" stroke="midnightblue" points="2478.75,-181.86 2484.97,-190.44 2485.45,-179.85 2478.75,-181.86"/>
</g>
<!-- Node28 -->
<g id="node28" class="node">
<title>Node28</title>
<g id="a_node28"><a xlink:href="lighting_8h.html#ae50a6e06925c764b3caad3f805bc4c8a" target="_top" xlink:title="Create diffuse lighting.">
<polygon fill="none" stroke="black" points="1751,-114.5 1751,-133.5 1840,-133.5 1840,-114.5 1751,-114.5"/>
<text text-anchor="middle" x="1795.5" y="-121.5" font-family="Helvetica,sans-Serif" font-size="10.00">ft_diffuse_light</text>
</a>
</g>
</g>
<!-- Node1&#45;&gt;Node28 -->
<g id="edge32" class="edge">
<title>Node1&#45;&gt;Node28</title>
<path fill="none" stroke="midnightblue" d="M2470.26,-183.52C2456.65,-171.55 2436.58,-156.09 2416,-148 2333.3,-115.49 2306.36,-124 2217.5,-124 2217.5,-124 2217.5,-124 2072.5,-124 1990.32,-124 1894.38,-124 1840,-124"/>
<polygon fill="midnightblue" stroke="midnightblue" points="2468.09,-186.28 2477.84,-190.42 2472.8,-181.1 2468.09,-186.28"/>
</g>
<!-- Node29 -->
<g id="node29" class="node">
<title>Node29</title>
<g id="a_node29"><a xlink:href="hit__manager__bonus_8h.html#a87d41de805dc36f90fb5002fa2d34da0" target="_top" xlink:title="Transforms the Cartesian coordinates of a hit point on a plane into 2D texture UV&#45;coordinates in the ...">
<polygon fill="none" stroke="black" points="2307.5,-285.5 2307.5,-304.5 2415.5,-304.5 2415.5,-285.5 2307.5,-285.5"/>
<text text-anchor="middle" x="2361.5" y="-292.5" font-family="Helvetica,sans-Serif" font-size="10.00">ft_get_pl_uvcoords</text>
</a>
</g>
</g>
<!-- Node1&#45;&gt;Node29 -->
<g id="edge34" class="edge">
<title>Node1&#45;&gt;Node29</title>
<path fill="none" stroke="midnightblue" d="M2466.47,-215.99C2440.34,-235.84 2396.61,-269.08 2375.15,-285.39"/>
<polygon fill="midnightblue" stroke="midnightblue" points="2468.75,-218.65 2474.59,-209.81 2464.51,-213.07 2468.75,-218.65"/>
</g>
<!-- Node32 -->
<g id="node32" class="node">
<title>Node32</title>
<g id="a_node32"><a xlink:href="hit__manager_8h.html#a04f04eb6383f01a28b0c7201ab52782e" target="_top" xlink:title="Calculates if a plane was hit by a ray.">
<polygon fill="none" stroke="black" points="2179.5,-342.5 2179.5,-361.5 2253.5,-361.5 2253.5,-342.5 2179.5,-342.5"/>
<text text-anchor="middle" x="2216.5" y="-349.5" font-family="Helvetica,sans-Serif" font-size="10.00">ft_hit_plane</text>
</a>
</g>
</g>
<!-- Node1&#45;&gt;Node32 -->
<g id="edge43" class="edge">
<title>Node1&#45;&gt;Node32</title>
<path fill="none" stroke="midnightblue" d="M2481.12,-218.96C2471.37,-244.82 2450.24,-290.58 2416,-314 2367.06,-347.48 2296.23,-353.31 2253.74,-353.42"/>
<polygon fill="midnightblue" stroke="midnightblue" points="2484.42,-220.12 2484.5,-209.52 2477.83,-217.76 2484.42,-220.12"/>
</g>
<!-- Node35 -->
<g id="node35" class="node">
<title>Node35</title>
<g id="a_node35"><a xlink:href="hit__manager_8h.html#aee999b32d6cebbb7bcd64995f8e88b6e" target="_top" xlink:title="Calculates if a sphere was hit by a ray.">
<polygon fill="none" stroke="black" points="2033.5,-418.5 2033.5,-437.5 2113.5,-437.5 2113.5,-418.5 2033.5,-418.5"/>
<text text-anchor="middle" x="2073.5" y="-425.5" font-family="Helvetica,sans-Serif" font-size="10.00">ft_hit_sphere</text>
</a>
</g>
</g>
<!-- Node1&#45;&gt;Node35 -->
<g id="edge44" class="edge">
<title>Node1&#45;&gt;Node35</title>
<path fill="none" stroke="midnightblue" d="M2483.43,-219.65C2475.87,-251.1 2456.58,-312.49 2416,-345 2325.89,-417.21 2182.38,-428.01 2113.67,-428.74"/>
<polygon fill="midnightblue" stroke="midnightblue" points="2486.93,-220.06 2485.71,-209.53 2480.1,-218.52 2486.93,-220.06"/>
</g>
<!-- Node36 -->
<g id="node36" class="node">
<title>Node36</title>
<g id="a_node36"><a xlink:href="lighting__bonus_8h.html#af0db0e12e85b772afed9cdfac4c33437" target="_top" xlink:title="Create specular lighting.">
<polygon fill="none" stroke="black" points="1882,-451.5 1882,-470.5 1979,-470.5 1979,-451.5 1882,-451.5"/>
<text text-anchor="middle" x="1930.5" y="-458.5" font-family="Helvetica,sans-Serif" font-size="10.00">ft_specular_light</text>
</a>
</g>
</g>
<!-- Node1&#45;&gt;Node36 -->
<g id="edge47" class="edge">
<title>Node1&#45;&gt;Node36</title>
<path fill="none" stroke="midnightblue" d="M2485.47,-219.91C2480.57,-257.72 2464.61,-340.21 2416,-386 2294.72,-500.24 2075.63,-483.62 1979.22,-469.48"/>
<polygon fill="midnightblue" stroke="midnightblue" points="2488.98,-220.04 2486.67,-209.7 2482.03,-219.23 2488.98,-220.04"/>
</g>
<!-- Node37 -->
<g id="node37" class="node">
<title>Node37</title>
<g id="a_node37"><a xlink:href="vec3_8h.html#ac4489813ff658c30fd273d47498b1c8d" target="_top" xlink:title="Calculate the angle betwee two vectors.">
<polygon fill="none" stroke="black" points="2319.5,-0.5 2319.5,-19.5 2403.5,-19.5 2403.5,-0.5 2319.5,-0.5"/>
<text text-anchor="middle" x="2361.5" y="-7.5" font-family="Helvetica,sans-Serif" font-size="10.00">ft_vec3_angle</text>
</a>
</g>
</g>
<!-- Node1&#45;&gt;Node37 -->
<g id="edge49" class="edge">
<title>Node1&#45;&gt;Node37</title>
<path fill="none" stroke="midnightblue" d="M2484.59,-180.36C2478.35,-145.17 2460.49,-71.12 2416,-29 2411.92,-25.14 2407,-22.05 2401.83,-19.59"/>
<polygon fill="midnightblue" stroke="midnightblue" points="2481.15,-181.03 2486.22,-190.33 2488.06,-179.9 2481.15,-181.03"/>
</g>
<!-- Node3 -->
<g id="node3" class="node">
<title>Node3</title>
<g id="a_node3"><a xlink:href="hit__manager__bonus_8h.html#aebab6e1f11fc5b2e6c420276c9beee96" target="_top" xlink:title="Calculates if a cone was hit by a ray.">
<polygon fill="none" stroke="black" points="1760.5,-285.5 1760.5,-304.5 1830.5,-304.5 1830.5,-285.5 1760.5,-285.5"/>
<text text-anchor="middle" x="1795.5" y="-292.5" font-family="Helvetica,sans-Serif" font-size="10.00">ft_hit_cone</text>
</a>
</g>
</g>
<!-- Node2&#45;&gt;Node3 -->
<g id="edge2" class="edge">
<title>Node2&#45;&gt;Node3</title>
<path fill="none" stroke="midnightblue" d="M1865.66,-304.88C1853.52,-303.15 1841.27,-301.4 1830.52,-299.86"/>
<polygon fill="midnightblue" stroke="midnightblue" points="1865.39,-308.38 1875.79,-306.33 1866.38,-301.45 1865.39,-308.38"/>
</g>
<!-- Node4 -->
<g id="node4" class="node">
<title>Node4</title>
<g id="a_node4"><a xlink:href="hit__manager_8h.html#a9d5972226064b0a4d0e1359d9230abec" target="_top" xlink:title="Investigate a hittable and returns whether a hit occured or not.">
<polygon fill="none" stroke="black" points="1631,-323.5 1631,-342.5 1715,-342.5 1715,-323.5 1631,-323.5"/>
<text text-anchor="middle" x="1673" y="-330.5" font-family="Helvetica,sans-Serif" font-size="10.00">ft_hit_hittable</text>
</a>
</g>
</g>
<!-- Node3&#45;&gt;Node4 -->
<g id="edge3" class="edge">
<title>Node3&#45;&gt;Node4</title>
<path fill="none" stroke="midnightblue" d="M1754.29,-307.68C1738.01,-312.81 1719.52,-318.64 1704.4,-323.41"/>
<polygon fill="midnightblue" stroke="midnightblue" points="1755.61,-310.93 1764.09,-304.59 1753.5,-304.26 1755.61,-310.93"/>
</g>
<!-- Node5 -->
<g id="node5" class="node">
<title>Node5</title>
<g id="a_node5"><a xlink:href="lighting__bonus_8h.html#a7fe107fe556fd497ebfc4c4df70b83da" target="_top" xlink:title="Looks for the closest object hit by a ray.">
<polygon fill="none" stroke="black" points="1479,-266.5 1479,-285.5 1581,-285.5 1581,-266.5 1479,-266.5"/>
<text text-anchor="middle" x="1530" y="-273.5" font-family="Helvetica,sans-Serif" font-size="10.00">ft_get_closest_hit</text>
</a>
</g>
</g>
<!-- Node4&#45;&gt;Node5 -->
<g id="edge4" class="edge">
<title>Node4&#45;&gt;Node5</title>
<path fill="none" stroke="midnightblue" d="M1645.67,-318.62C1631.02,-310.97 1612.31,-301.78 1595,-295 1586.15,-291.53 1576.4,-288.34 1567.24,-285.59"/>
<polygon fill="midnightblue" stroke="midnightblue" points="1644.17,-321.79 1654.65,-323.37 1647.45,-315.6 1644.17,-321.79"/>
</g>
<!-- Node9 -->
<g id="node9" class="node">
<title>Node9</title>
<g id="a_node9"><a xlink:href="ray_8h.html#a2cffd188fb76990901db47a2c3ac638f" target="_top" xlink:title="Returns the colour of a ray.">
<polygon fill="none" stroke="black" points="959,-314.5 959,-333.5 1039,-333.5 1039,-314.5 959,-314.5"/>
<text text-anchor="middle" x="999" y="-321.5" font-family="Helvetica,sans-Serif" font-size="10.00">ft_ray_colour</text>
</a>
</g>
</g>
<!-- Node4&#45;&gt;Node9 -->
<g id="edge24" class="edge">
<title>Node4&#45;&gt;Node9</title>
<path fill="none" stroke="midnightblue" d="M1620.82,-338.34C1562.48,-343.96 1464.23,-352 1379.5,-352 1379.5,-352 1379.5,-352 1237.5,-352 1167.33,-352 1086.31,-339.8 1039.33,-331.5"/>
<polygon fill="midnightblue" stroke="midnightblue" points="1621.27,-341.82 1630.88,-337.36 1620.59,-334.85 1621.27,-341.82"/>
</g>
<!-- Node22 -->
<g id="node22" class="node">
<title>Node22</title>
<g id="a_node22"><a xlink:href="lighting_8h.html#a931177e8edb2dd5393cef7a468389a4d" target="_top" xlink:title="Determines whether the shadow ray emitted from the point of intersection is blocked on its way to the...">
<polygon fill="none" stroke="black" points="1465,-304.5 1465,-323.5 1595,-323.5 1595,-304.5 1465,-304.5"/>
<text text-anchor="middle" x="1530" y="-311.5" font-family="Helvetica,sans-Serif" font-size="10.00">ft_shadow_ray_blocked</text>
</a>
</g>
</g>
<!-- Node4&#45;&gt;Node22 -->
<g id="edge25" class="edge">
<title>Node4&#45;&gt;Node22</title>
<path fill="none" stroke="midnightblue" d="M1620.84,-326.11C1612.46,-324.98 1603.68,-323.79 1595.03,-322.63"/>
<polygon fill="midnightblue" stroke="midnightblue" points="1620.46,-329.59 1630.84,-327.45 1621.39,-322.65 1620.46,-329.59"/>
</g>
<!-- Node5&#45;&gt;Node6 -->
<g id="edge5" class="edge">
<title>Node5&#45;&gt;Node6</title>
<path fill="none" stroke="midnightblue" d="M1468.46,-276C1455.37,-276 1441.67,-276 1429.06,-276"/>
<polygon fill="midnightblue" stroke="midnightblue" points="1468.8,-279.5 1478.8,-276 1468.8,-272.5 1468.8,-279.5"/>
</g>
<!-- Node7 -->
<g id="node7" class="node">
<title>Node7</title>
<g id="a_node7"><a xlink:href="lighting__bonus_8h.html#a31af89240f5ffa2f65f1525d06121d73" target="_top" xlink:title="Computes the colour of light interacting with different material properties.">
<polygon fill="none" stroke="black" points="1185,-276.5 1185,-295.5 1292,-295.5 1292,-276.5 1185,-276.5"/>
<text text-anchor="middle" x="1238.5" y="-283.5" font-family="Helvetica,sans-Serif" font-size="10.00">ft_compute_colour</text>
</a>
</g>
</g>
<!-- Node6&#45;&gt;Node7 -->
<g id="edge6" class="edge">
<title>Node6&#45;&gt;Node7</title>
<path fill="none" stroke="midnightblue" d="M1317.66,-273.64C1306.11,-274.34 1294.22,-275.32 1283.31,-276.49"/>
<polygon fill="midnightblue" stroke="midnightblue" points="1317.88,-277.13 1327.68,-273.1 1317.5,-270.14 1317.88,-277.13"/>
</g>
<!-- Node7&#45;&gt;Node6 -->
<g id="edge23" class="edge">
<title>Node7&#45;&gt;Node6</title>
<path fill="none" stroke="midnightblue" d="M1302.29,-288.18C1312.81,-287.5 1323.53,-286.59 1333.46,-285.53"/>
<polygon fill="midnightblue" stroke="midnightblue" points="1302.07,-284.68 1292.29,-288.76 1302.48,-291.67 1302.07,-284.68"/>
</g>
<!-- Node8 -->
<g id="node8" class="node">
<title>Node8</title>
<g id="a_node8"><a xlink:href="lighting_8h.html#a3d54436a3f695a60b1c2d9e504a61de8" target="_top" xlink:title="Calculate the effect of different lighting on perception.">
<polygon fill="none" stroke="black" points="1075,-295.5 1075,-314.5 1149,-314.5 1149,-295.5 1075,-295.5"/>
<text text-anchor="middle" x="1112" y="-302.5" font-family="Helvetica,sans-Serif" font-size="10.00">ft_enlighten</text>
</a>
</g>
</g>
<!-- Node7&#45;&gt;Node8 -->
<g id="edge7" class="edge">
<title>Node7&#45;&gt;Node8</title>
<path fill="none" stroke="midnightblue" d="M1174.56,-295.6C1165.9,-296.93 1157.25,-298.25 1149.3,-299.46"/>
<polygon fill="midnightblue" stroke="midnightblue" points="1175.34,-299.03 1184.7,-294.06 1174.29,-292.11 1175.34,-299.03"/>
</g>
<!-- Node8&#45;&gt;Node9 -->
<g id="edge8" class="edge">
<title>Node8&#45;&gt;Node9</title>
<path fill="none" stroke="midnightblue" d="M1065.1,-312.86C1056.53,-314.32 1047.65,-315.84 1039.31,-317.27"/>
<polygon fill="midnightblue" stroke="midnightblue" points="1065.7,-316.31 1074.96,-311.17 1064.51,-309.41 1065.7,-316.31"/>
</g>
<!-- Node10 -->
<g id="node10" class="node">
<title>Node10</title>
<g id="a_node10"><a xlink:href="render__bonus_8h.html#af5fa16c9ea3d6e6884604009e31c83de" target="_top" xlink:title="Constructs a random sample ray for anti&#45;aliasing.">
<polygon fill="none" stroke="black" points="829,-336.5 829,-355.5 923,-355.5 923,-336.5 829,-336.5"/>
<text text-anchor="middle" x="876" y="-343.5" font-family="Helvetica,sans-Serif" font-size="10.00">ft_shoot_aa_ray</text>
</a>
</g>
</g>
<!-- Node9&#45;&gt;Node10 -->
<g id="edge9" class="edge">
<title>Node9&#45;&gt;Node10</title>
<path fill="none" stroke="midnightblue" d="M948.66,-332.97C940.26,-334.5 931.57,-336.08 923.25,-337.59"/>
<polygon fill="midnightblue" stroke="midnightblue" points="949.5,-336.38 958.71,-331.14 948.25,-329.49 949.5,-336.38"/>
</g>
<!-- Node14 -->
<g id="node14" class="node">
<title>Node14</title>
<g id="a_node14"><a xlink:href="render_8h.html#a8d0bd9d9ea57df013aa96dee7558d4b3" target="_top" xlink:title="Constructs a ray and shoots it through the pixel.">
<polygon fill="none" stroke="black" points="837.5,-292.5 837.5,-311.5 914.5,-311.5 914.5,-292.5 837.5,-292.5"/>
<text text-anchor="middle" x="876" y="-299.5" font-family="Helvetica,sans-Serif" font-size="10.00">ft_shoot_ray</text>
</a>
</g>
</g>
<!-- Node9&#45;&gt;Node14 -->
<g id="edge14" class="edge">
<title>Node9&#45;&gt;Node14</title>
<path fill="none" stroke="midnightblue" d="M948.57,-315.01C937.32,-312.97 925.54,-310.82 914.85,-308.88"/>
<polygon fill="midnightblue" stroke="midnightblue" points="948.25,-318.51 958.71,-316.86 949.5,-311.62 948.25,-318.51"/>
</g>
<!-- Node11 -->
<g id="node11" class="node">
<title>Node11</title>
<g id="a_node11"><a xlink:href="render__bonus_8h.html#afef92ac33f530ff1e1ca1049ffa14d23" target="_top" xlink:title="Raytraces the scene and adds it to the sample buffer.">
<polygon fill="none" stroke="black" points="659,-380.5 659,-399.5 793,-399.5 793,-380.5 659,-380.5"/>
<text text-anchor="middle" x="726" y="-387.5" font-family="Helvetica,sans-Serif" font-size="10.00">ft_add_raytrace_sample</text>
</a>
</g>
</g>
<!-- Node10&#45;&gt;Node11 -->
<g id="edge10" class="edge">
<title>Node10&#45;&gt;Node11</title>
<path fill="none" stroke="midnightblue" d="M834.18,-358.58C821.04,-362.6 806.42,-367.02 793,-371 782.48,-374.12 771,-377.45 760.61,-380.44"/>
<polygon fill="midnightblue" stroke="midnightblue" points="835.35,-361.89 843.88,-355.61 833.3,-355.19 835.35,-361.89"/>
</g>
<!-- Node13 -->
<g id="node13" class="node">
<title>Node13</title>
<g id="a_node13"><a xlink:href="render__bonus_8h.html#a6f833a234cbdbc69ce5458c79d1242a1" target="_top" xlink:title="Like ft_add_raytrace_sample(), but threaded.">
<polygon fill="none" stroke="black" points="659,-331 659,-361 793,-361 793,-331 659,-331"/>
<text text-anchor="start" x="667" y="-349" font-family="Helvetica,sans-Serif" font-size="10.00">ft_add_raytrace_sample</text>
<text text-anchor="middle" x="726" y="-338" font-family="Helvetica,sans-Serif" font-size="10.00">_threaded</text>
</a>
</g>
</g>
<!-- Node10&#45;&gt;Node13 -->
<g id="edge12" class="edge">
<title>Node10&#45;&gt;Node13</title>
<path fill="none" stroke="midnightblue" d="M818.9,-346C810.47,-346 801.71,-346 793.09,-346"/>
<polygon fill="midnightblue" stroke="midnightblue" points="818.98,-349.5 828.98,-346 818.98,-342.5 818.98,-349.5"/>
</g>
<!-- Node12 -->
<g id="node12" class="node">
<title>Node12</title>
<g id="a_node12"><a xlink:href="render__bonus_8h.html#a46e5a7c75a4d9fb06252d28cf8d18821" target="_top" xlink:title="Raytraces a sample of the scene and adds it to the sample buffer.">
<polygon fill="none" stroke="black" points="506,-358.5 506,-377.5 623,-377.5 623,-358.5 506,-358.5"/>
<text text-anchor="middle" x="564.5" y="-365.5" font-family="Helvetica,sans-Serif" font-size="10.00">ft_anti_alias_sample</text>
</a>
</g>
</g>
<!-- Node11&#45;&gt;Node12 -->
<g id="edge11" class="edge">
<title>Node11&#45;&gt;Node12</title>
<path fill="none" stroke="midnightblue" d="M648.7,-379.48C640.11,-378.29 631.47,-377.1 623.17,-375.95"/>
<polygon fill="midnightblue" stroke="midnightblue" points="648.36,-382.96 658.74,-380.86 649.32,-376.03 648.36,-382.96"/>
</g>
<!-- Node13&#45;&gt;Node12 -->
<g id="edge13" class="edge">
<title>Node13&#45;&gt;Node12</title>
<path fill="none" stroke="midnightblue" d="M648.7,-356.52C640.11,-357.71 631.47,-358.9 623.17,-360.05"/>
<polygon fill="midnightblue" stroke="midnightblue" points="649.32,-359.97 658.74,-355.14 648.36,-353.04 649.32,-359.97"/>
</g>
<!-- Node15 -->
<g id="node15" class="node">
<title>Node15</title>
<g id="a_node15"><a xlink:href="render__bonus_8h.html#a396a2e84d5040d414ec16ab32303c8d1" target="_top" xlink:title="Raytraces the scene to the sample buffer.">
<polygon fill="none" stroke="black" points="671,-292.5 671,-311.5 781,-311.5 781,-292.5 671,-292.5"/>
<text text-anchor="middle" x="726" y="-299.5" font-family="Helvetica,sans-Serif" font-size="10.00">ft_raytrace_sample</text>
</a>
</g>
</g>
<!-- Node14&#45;&gt;Node15 -->
<g id="edge15" class="edge">
<title>Node14&#45;&gt;Node15</title>
<path fill="none" stroke="midnightblue" d="M826.93,-302C812.31,-302 796.13,-302 781.14,-302"/>
<polygon fill="midnightblue" stroke="midnightblue" points="827.27,-305.5 837.27,-302 827.27,-298.5 827.27,-305.5"/>
</g>
<!-- Node21 -->
<g id="node21" class="node">
<title>Node21</title>
<g id="a_node21"><a xlink:href="render__bonus_8h.html#a5d5ed6b28be3a532b4e17bd4a05df4d3" target="_top" xlink:title="Like ft_raytrace_sample(), but threaded.">
<polygon fill="none" stroke="black" points="671,-243 671,-273 781,-273 781,-243 671,-243"/>
<text text-anchor="start" x="679" y="-261" font-family="Helvetica,sans-Serif" font-size="10.00">ft_raytrace_sample</text>
<text text-anchor="middle" x="726" y="-250" font-family="Helvetica,sans-Serif" font-size="10.00">_threaded</text>
</a>
</g>
</g>
<!-- Node14&#45;&gt;Node21 -->
<g id="edge21" class="edge">
<title>Node14&#45;&gt;Node21</title>
<path fill="none" stroke="midnightblue" d="M833.11,-289.54C815.86,-284.42 795.74,-278.44 777.67,-273.07"/>
<polygon fill="midnightblue" stroke="midnightblue" points="832.3,-292.96 842.89,-292.45 834.3,-286.25 832.3,-292.96"/>
</g>
<!-- Node16 -->
<g id="node16" class="node">
<title>Node16</title>
<g id="a_node16"><a xlink:href="render__bonus_8h.html#a0ab696b1752ed3551f1cf8d8c2e7c5d8" target="_top" xlink:title="Raytraces a single sample of the scene to the sample buffer.">
<polygon fill="none" stroke="black" points="515,-270.5 515,-289.5 614,-289.5 614,-270.5 515,-270.5"/>
<text text-anchor="middle" x="564.5" y="-277.5" font-family="Helvetica,sans-Serif" font-size="10.00">ft_single_sample</text>
</a>
</g>
</g>
<!-- Node15&#45;&gt;Node16 -->
<g id="edge16" class="edge">
<title>Node15&#45;&gt;Node16</title>
<path fill="none" stroke="midnightblue" d="M660.51,-293.11C645.02,-290.97 628.72,-288.72 614.09,-286.7"/>
<polygon fill="midnightblue" stroke="midnightblue" points="660.17,-296.59 670.56,-294.49 661.13,-289.66 660.17,-296.59"/>
</g>
<!-- Node17 -->
<g id="node17" class="node">
<title>Node17</title>
<g id="a_node17"><a xlink:href="render__bonus_8h.html#a9c57490cfa20448a418091aa47a49245" target="_top" xlink:title="Raytraces a sample of the scene to the sample buffer.">
<polygon fill="none" stroke="black" points="369,-270.5 369,-289.5 470,-289.5 470,-270.5 369,-270.5"/>
<text text-anchor="middle" x="419.5" y="-277.5" font-family="Helvetica,sans-Serif" font-size="10.00">ft_render_sample</text>
</a>
</g>
</g>
<!-- Node16&#45;&gt;Node17 -->
<g id="edge17" class="edge">
<title>Node16&#45;&gt;Node17</title>
<path fill="none" stroke="midnightblue" d="M504.37,-280C492.96,-280 481.13,-280 470.06,-280"/>
<polygon fill="midnightblue" stroke="midnightblue" points="504.69,-283.5 514.69,-280 504.69,-276.5 504.69,-283.5"/>
</g>
<!-- Node18 -->
<g id="node18" class="node">
<title>Node18</title>
<g id="a_node18"><a xlink:href="render_8h.html#a012503b6ad6ee8198a601dad994c09b7" target="_top" xlink:title="Main loop of the program.">
<polygon fill="none" stroke="black" points="227,-270.5 227,-289.5 333,-289.5 333,-270.5 227,-270.5"/>
<text text-anchor="middle" x="280" y="-277.5" font-family="Helvetica,sans-Serif" font-size="10.00">ft_programm_loop</text>
</a>
</g>
</g>
<!-- Node17&#45;&gt;Node18 -->
<g id="edge18" class="edge">
<title>Node17&#45;&gt;Node18</title>
<path fill="none" stroke="midnightblue" d="M358.69,-280C350.25,-280 341.63,-280 333.35,-280"/>
<polygon fill="midnightblue" stroke="midnightblue" points="358.86,-283.5 368.86,-280 358.86,-276.5 358.86,-283.5"/>
</g>
<!-- Node19 -->
<g id="node19" class="node">
<title>Node19</title>
<g id="a_node19"><a xlink:href="render_8h.html#ab7a01aa5d27d2fad2942a43a31ae0d52" target="_top" xlink:title="Starts the mlx loop.">
<polygon fill="none" stroke="black" points="77,-270.5 77,-289.5 191,-289.5 191,-270.5 77,-270.5"/>
<text text-anchor="middle" x="134" y="-277.5" font-family="Helvetica,sans-Serif" font-size="10.00">ft_render_start_loop</text>
</a>
</g>
</g>
<!-- Node18&#45;&gt;Node19 -->
<g id="edge19" class="edge">
<title>Node18&#45;&gt;Node19</title>
<path fill="none" stroke="midnightblue" d="M216.56,-280C208.22,-280 199.71,-280 191.48,-280"/>
<polygon fill="midnightblue" stroke="midnightblue" points="216.61,-283.5 226.61,-280 216.61,-276.5 216.61,-283.5"/>
</g>
<!-- Node20 -->
<g id="node20" class="node">
<title>Node20</title>
<g id="a_node20"><a xlink:href="main_8c.html#a3c04138a5bfe5d72780bb7e82a18e627" target="_top" xlink:title=" ">
<polygon fill="none" stroke="black" points="0,-270.5 0,-289.5 41,-289.5 41,-270.5 0,-270.5"/>
<text text-anchor="middle" x="20.5" y="-277.5" font-family="Helvetica,sans-Serif" font-size="10.00">main</text>
</a>
</g>
</g>
<!-- Node19&#45;&gt;Node20 -->
<g id="edge20" class="edge">
<title>Node19&#45;&gt;Node20</title>
<path fill="none" stroke="midnightblue" d="M66.7,-280C57.37,-280 48.45,-280 41.04,-280"/>
<polygon fill="midnightblue" stroke="midnightblue" points="66.92,-283.5 76.92,-280 66.92,-276.5 66.92,-283.5"/>
</g>
<!-- Node21&#45;&gt;Node16 -->
<g id="edge22" class="edge">
<title>Node21&#45;&gt;Node16</title>
<path fill="none" stroke="midnightblue" d="M660.51,-266.89C645.02,-269.03 628.72,-271.28 614.09,-273.3"/>
<polygon fill="midnightblue" stroke="midnightblue" points="661.13,-270.34 670.56,-265.51 660.17,-263.41 661.13,-270.34"/>
</g>
<!-- Node24 -->
<g id="node24" class="node">
<title>Node24</title>
<g id="a_node24"><a xlink:href="hit__manager__bonus_8h.html#a049d2a1135caa57d1d9ed8845f229620" target="_top" xlink:title="Determines whether the potential hits are accurate.">
<polygon fill="none" stroke="black" points="2021,-190.5 2021,-209.5 2126,-209.5 2126,-190.5 2021,-190.5"/>
<text text-anchor="middle" x="2073.5" y="-197.5" font-family="Helvetica,sans-Serif" font-size="10.00">ft_co_identify_hits</text>
</a>
</g>
</g>
<!-- Node23&#45;&gt;Node24 -->
<g id="edge27" class="edge">
<title>Node23&#45;&gt;Node24</title>
<path fill="none" stroke="midnightblue" d="M2301.97,-200C2250.29,-200 2175.66,-200 2126.16,-200"/>
<polygon fill="midnightblue" stroke="midnightblue" points="2301.98,-203.5 2311.98,-200 2301.98,-196.5 2301.98,-203.5"/>
</g>
<!-- Node24&#45;&gt;Node3 -->
<g id="edge28" class="edge">
<title>Node24&#45;&gt;Node3</title>
<path fill="none" stroke="midnightblue" d="M2022.53,-212.08C1982.37,-222.36 1924.81,-238.4 1876,-257 1854.27,-265.28 1830.32,-277.12 1814.44,-285.38"/>
<polygon fill="midnightblue" stroke="midnightblue" points="2023.52,-215.44 2032.35,-209.59 2021.8,-208.65 2023.52,-215.44"/>
</g>
<!-- Node27 -->
<g id="node27" class="node">
<title>Node27</title>
<g id="a_node27"><a xlink:href="hit__manager_8h.html#a40c47553b6ecb8ff1834e44c4c308e9b" target="_top" xlink:title="Determines if the potential hits are accurate.">
<polygon fill="none" stroke="black" points="2164,-38.5 2164,-57.5 2269,-57.5 2269,-38.5 2164,-38.5"/>
<text text-anchor="middle" x="2216.5" y="-45.5" font-family="Helvetica,sans-Serif" font-size="10.00">ft_cy_identify_hits</text>
</a>
</g>
</g>
<!-- Node26&#45;&gt;Node27 -->
<g id="edge31" class="edge">
<title>Node26&#45;&gt;Node27</title>
<path fill="none" stroke="midnightblue" d="M2301.51,-48C2290.73,-48 2279.56,-48 2269.02,-48"/>
<polygon fill="midnightblue" stroke="midnightblue" points="2301.69,-51.5 2311.69,-48 2301.69,-44.5 2301.69,-51.5"/>
</g>
<!-- Node28&#45;&gt;Node6 -->
<g id="edge33" class="edge">
<title>Node28&#45;&gt;Node6</title>
<path fill="none" stroke="midnightblue" d="M1740.79,-114.28C1671.9,-104.71 1551.04,-97.9 1465,-148 1417.43,-175.7 1391.05,-241.7 1382.57,-266.43"/>
<polygon fill="midnightblue" stroke="midnightblue" points="1740.58,-117.79 1750.98,-115.77 1741.59,-110.86 1740.58,-117.79"/>
</g>
<!-- Node30 -->
<g id="node30" class="node">
<title>Node30</title>
<g id="a_node30"><a xlink:href="hit__manager__bonus_8h.html#a69c648bba2a12763904900ce56cadb8a" target="_top" xlink:title="Overwrites the hit record &quot;rec&quot; with the new hit data found in the &quot;tmp&quot; hit record.">
<polygon fill="none" stroke="black" points="1876,-266.5 1876,-285.5 1985,-285.5 1985,-266.5 1876,-266.5"/>
<text text-anchor="middle" x="1930.5" y="-273.5" font-family="Helvetica,sans-Serif" font-size="10.00">ft_co_set_hitrecord</text>
</a>
</g>
</g>
<!-- Node29&#45;&gt;Node30 -->
<g id="edge35" class="edge">
<title>Node29&#45;&gt;Node30</title>
<path fill="none" stroke="midnightblue" d="M2297.24,-296.32C2258.24,-296.81 2207.2,-296.86 2162,-295 2101.42,-292.51 2032.11,-286.34 1985.45,-281.71"/>
<polygon fill="midnightblue" stroke="midnightblue" points="2297.45,-299.82 2307.4,-296.18 2297.35,-292.82 2297.45,-299.82"/>
</g>
<!-- Node31 -->
<g id="node31" class="node">
<title>Node31</title>
<g id="a_node31"><a xlink:href="hit__manager_8h.html#a72c52cc4f5c57fc6171137d9eb6c3500" target="_top" xlink:title="Overwrites the hit record &quot;rec&quot; with the new hit data found in the &quot;tmp&quot; hit record.">
<polygon fill="none" stroke="black" points="2162,-266.5 2162,-285.5 2271,-285.5 2271,-266.5 2162,-266.5"/>
<text text-anchor="middle" x="2216.5" y="-273.5" font-family="Helvetica,sans-Serif" font-size="10.00">ft_cy_set_hitrecord</text>
</a>
</g>
</g>
<!-- Node29&#45;&gt;Node31 -->
<g id="edge37" class="edge">
<title>Node29&#45;&gt;Node31</title>
<path fill="none" stroke="midnightblue" d="M2297.2,-286.59C2288.55,-285.44 2279.73,-284.27 2271.27,-283.14"/>
<polygon fill="midnightblue" stroke="midnightblue" points="2296.88,-290.08 2307.25,-287.93 2297.8,-283.14 2296.88,-290.08"/>
</g>
<!-- Node29&#45;&gt;Node32 -->
<g id="edge38" class="edge">
<title>Node29&#45;&gt;Node32</title>
<path fill="none" stroke="midnightblue" d="M2327.03,-308.34C2300.8,-318.8 2264.95,-333.09 2241.51,-342.43"/>
<polygon fill="midnightblue" stroke="midnightblue" points="2328.57,-311.49 2336.57,-304.54 2325.98,-304.99 2328.57,-311.49"/>
</g>
<!-- Node30&#45;&gt;Node3 -->
<g id="edge36" class="edge">
<title>Node30&#45;&gt;Node3</title>
<path fill="none" stroke="midnightblue" d="M1865.66,-285.12C1853.52,-286.85 1841.27,-288.6 1830.52,-290.14"/>
<polygon fill="midnightblue" stroke="midnightblue" points="1866.38,-288.55 1875.79,-283.67 1865.39,-281.62 1866.38,-288.55"/>
</g>
<!-- Node32&#45;&gt;Node4 -->
<g id="edge42" class="edge">
<title>Node32&#45;&gt;Node4</title>
<path fill="none" stroke="midnightblue" d="M2168.93,-350.37C2064.77,-346.71 1814.37,-337.93 1715.33,-334.45"/>
<polygon fill="midnightblue" stroke="midnightblue" points="2169.01,-353.87 2179.13,-350.72 2169.26,-346.88 2169.01,-353.87"/>
</g>
<!-- Node33 -->
<g id="node33" class="node">
<title>Node33</title>
<g id="a_node33"><a xlink:href="hit__manager__bonus_8h.html#aee5824df7f0e0c2698306f49f9a1c790" target="_top" xlink:title="Calculates potential hit of cone cap.">
<polygon fill="none" stroke="black" points="2033.5,-304.5 2033.5,-323.5 2113.5,-323.5 2113.5,-304.5 2033.5,-304.5"/>
<text text-anchor="middle" x="2073.5" y="-311.5" font-family="Helvetica,sans-Serif" font-size="10.00">ft_co_cap_hit</text>
</a>
</g>
</g>
<!-- Node32&#45;&gt;Node33 -->
<g id="edge39" class="edge">
<title>Node32&#45;&gt;Node33</title>
<path fill="none" stroke="midnightblue" d="M2170.06,-339.75C2150.63,-334.52 2128.27,-328.49 2110.07,-323.59"/>
<polygon fill="midnightblue" stroke="midnightblue" points="2169.35,-343.19 2179.92,-342.41 2171.18,-336.43 2169.35,-343.19"/>
</g>
<!-- Node34 -->
<g id="node34" class="node">
<title>Node34</title>
<g id="a_node34"><a xlink:href="hit__manager_8h.html#af2540784b9e01fbdfeacb544ea2c169a" target="_top" xlink:title="Calculates the hit point of the ray with the cylinder cap.">
<polygon fill="none" stroke="black" points="2033.5,-380.5 2033.5,-399.5 2113.5,-399.5 2113.5,-380.5 2033.5,-380.5"/>
<text text-anchor="middle" x="2073.5" y="-387.5" font-family="Helvetica,sans-Serif" font-size="10.00">ft_cy_cap_hit</text>
</a>
</g>
</g>
<!-- Node32&#45;&gt;Node34 -->
<g id="edge41" class="edge">
<title>Node32&#45;&gt;Node34</title>
<path fill="none" stroke="midnightblue" d="M2170.06,-364.25C2150.63,-369.48 2128.27,-375.51 2110.07,-380.41"/>
<polygon fill="midnightblue" stroke="midnightblue" points="2171.18,-367.57 2179.92,-361.59 2169.35,-360.81 2171.18,-367.57"/>
</g>
<!-- Node33&#45;&gt;Node2 -->
<g id="edge40" class="edge">
<title>Node33&#45;&gt;Node2</title>
<path fill="none" stroke="midnightblue" d="M2023.14,-314C2010.83,-314 1997.56,-314 1985.06,-314"/>
<polygon fill="midnightblue" stroke="midnightblue" points="2023.22,-317.5 2033.22,-314 2023.22,-310.5 2023.22,-317.5"/>
</g>
<!-- Node35&#45;&gt;Node4 -->
<g id="edge45" class="edge">
<title>Node35&#45;&gt;Node4</title>
<path fill="none" stroke="midnightblue" d="M2023.32,-421.86C1959.56,-413.14 1845.33,-394.94 1751,-366 1730.7,-359.77 1708.51,-349.91 1693.19,-342.59"/>
<polygon fill="midnightblue" stroke="midnightblue" points="2023.12,-425.36 2033.49,-423.23 2024.05,-418.43 2023.12,-425.36"/>
</g>
<!-- Node36&#45;&gt;Node7 -->
<g id="edge48" class="edge">
<title>Node36&#45;&gt;Node7</title>
<path fill="none" stroke="midnightblue" d="M1871.56,-454.23C1819.83,-448.77 1741.97,-442 1674,-442 1674,-442 1674,-442 1529,-442 1405.11,-442 1283.24,-329.91 1248.98,-295.76"/>
<polygon fill="midnightblue" stroke="midnightblue" points="1871.23,-457.71 1881.55,-455.3 1871.98,-450.75 1871.23,-457.71"/>
</g>
</g>
</svg>
