<?xml version="1.0" encoding="UTF-8" standalone="no"?>
<!DOCTYPE svg PUBLIC "-//W3C//DTD SVG 1.1//EN"
 "http://www.w3.org/Graphics/SVG/1.1/DTD/svg11.dtd">
<!-- Generated by graphviz version 2.43.0 (0)
 -->
<!-- Title: ft_vec3_norm Pages: 1 -->
<svg width="1532pt" height="720pt"
 viewBox="0.00 0.00 1532.00 719.69" xmlns="http://www.w3.org/2000/svg" xmlns:xlink="http://www.w3.org/1999/xlink">
<g id="graph0" class="graph" transform="scale(1 1) rotate(0) translate(4 715.69)">
<title>ft_vec3_norm</title>
<!-- Node1 -->
<g id="node1" class="node">
<title>Node1</title>
<g id="a_node1"><a xlink:title="Normalise a vector.">
<polygon fill="#bfbfbf" stroke="black" points="1441,-342.5 1441,-361.5 1524,-361.5 1524,-342.5 1441,-342.5"/>
<text text-anchor="middle" x="1482.5" y="-349.5" font-family="Helvetica,sans-Serif" font-size="10.00">ft_vec3_norm</text>
</a>
</g>
</g>
<!-- Node2 -->
<g id="node2" class="node">
<title>Node2</title>
<g id="a_node2"><a xlink:href="hit__manager__bonus_8h.html#a9874994177d1382ce3e76988ca7cee3b" target="_top" xlink:title="Calculates the normal on the point of intersection of the cone.">
<polygon fill="none" stroke="black" points="1298,-456.5 1298,-475.5 1378,-475.5 1378,-456.5 1298,-456.5"/>
<text text-anchor="middle" x="1338" y="-463.5" font-family="Helvetica,sans-Serif" font-size="10.00">ft_co_normal</text>
</a>
</g>
</g>
<!-- Node1&#45;&gt;Node2 -->
<g id="edge1" class="edge">
<title>Node1&#45;&gt;Node2</title>
<path fill="none" stroke="midnightblue" d="M1470.29,-370.12C1456.99,-390.26 1433.05,-422.5 1405,-442 1396.19,-448.12 1385.64,-452.87 1375.58,-456.47"/>
<polygon fill="midnightblue" stroke="midnightblue" points="1473.33,-371.87 1475.79,-361.56 1467.44,-368.09 1473.33,-371.87"/>
</g>
<!-- Node7 -->
<g id="node7" class="node">
<title>Node7</title>
<g id="a_node7"><a xlink:href="lighting__bonus_8h.html#a72c122146878dc126a6472d159526c14" target="_top" xlink:title="Create reflective lighting by recursion.">
<polygon fill="none" stroke="black" points="500,-361.5 500,-380.5 601,-380.5 601,-361.5 500,-361.5"/>
<text text-anchor="middle" x="550.5" y="-368.5" font-family="Helvetica,sans-Serif" font-size="10.00">ft_reflective_light</text>
</a>
</g>
</g>
<!-- Node1&#45;&gt;Node7 -->
<g id="edge55" class="edge">
<title>Node1&#45;&gt;Node7</title>
<path fill="none" stroke="midnightblue" d="M1430.72,-361.98C1368.91,-373.24 1261.22,-390 1168,-390 1168,-390 1168,-390 858.5,-390 767.59,-390 661.82,-381.6 601.16,-375.97"/>
<polygon fill="midnightblue" stroke="midnightblue" points="1431.41,-365.41 1440.61,-360.15 1430.14,-358.53 1431.41,-365.41"/>
</g>
<!-- Node16 -->
<g id="node16" class="node">
<title>Node16</title>
<g id="a_node16"><a xlink:href="render_8h.html#a4f238596a8fca72f9af80be57cf06d34" target="_top" xlink:title="Renders the scene to the mlx img.">
<polygon fill="none" stroke="black" points="502.5,-556.5 502.5,-575.5 598.5,-575.5 598.5,-556.5 502.5,-556.5"/>
<text text-anchor="middle" x="550.5" y="-563.5" font-family="Helvetica,sans-Serif" font-size="10.00">ft_render_image</text>
</a>
</g>
</g>
<!-- Node1&#45;&gt;Node16 -->
<g id="edge56" class="edge">
<title>Node1&#45;&gt;Node16</title>
<path fill="none" stroke="midnightblue" d="M1479.79,-371.83C1473.85,-435.8 1451.83,-634.82 1405,-675 1324.8,-743.81 1273.67,-694 1168,-694 1168,-694 1168,-694 858.5,-694 735.5,-694 604.65,-605.39 564.16,-575.62"/>
<polygon fill="midnightblue" stroke="midnightblue" points="1483.31,-371.8 1480.72,-361.53 1476.34,-371.18 1483.31,-371.8"/>
</g>
<!-- Node18 -->
<g id="node18" class="node">
<title>Node18</title>
<g id="a_node18"><a xlink:href="ray__bonus_8h.html#a1e768fa0e7f9c3d0f13261716eee7d24" target="_top" xlink:title="Creates a random sample ray in a square surrounding the current pixel.">
<polygon fill="none" stroke="black" points="649,-432.5 649,-451.5 771,-451.5 771,-432.5 649,-432.5"/>
<text text-anchor="middle" x="710" y="-439.5" font-family="Helvetica,sans-Serif" font-size="10.00">ft_create_sample_ray</text>
</a>
</g>
</g>
<!-- Node1&#45;&gt;Node18 -->
<g id="edge19" class="edge">
<title>Node1&#45;&gt;Node18</title>
<path fill="none" stroke="midnightblue" d="M1463.3,-368.25C1448.65,-380.32 1426.95,-396.01 1405,-404 1305.51,-440.2 1273.87,-428 1168,-428 1168,-428 1168,-428 1002.5,-428 922.45,-428 830.17,-433.33 771.25,-437.42"/>
<polygon fill="midnightblue" stroke="midnightblue" points="1465.71,-370.79 1471.06,-361.65 1461.18,-365.46 1465.71,-370.79"/>
</g>
<!-- Node19 -->
<g id="node19" class="node">
<title>Node19</title>
<g id="a_node19"><a xlink:href="hit__manager_8h.html#a873b926722f5b8fada3f51432dccd4be" target="_top" xlink:title="Calculates the normal on the point of intersection of the cylinder.">
<polygon fill="none" stroke="black" points="1298,-532.5 1298,-551.5 1378,-551.5 1378,-532.5 1298,-532.5"/>
<text text-anchor="middle" x="1338" y="-539.5" font-family="Helvetica,sans-Serif" font-size="10.00">ft_cy_normal</text>
</a>
</g>
</g>
<!-- Node1&#45;&gt;Node19 -->
<g id="edge21" class="edge">
<title>Node1&#45;&gt;Node19</title>
<path fill="none" stroke="midnightblue" d="M1478.21,-371.93C1471.27,-407.6 1451.75,-482.39 1405,-523 1397.44,-529.57 1387.73,-533.87 1378.11,-536.69"/>
<polygon fill="midnightblue" stroke="midnightblue" points="1481.71,-372.29 1480.04,-361.82 1474.82,-371.04 1481.71,-372.29"/>
</g>
<!-- Node21 -->
<g id="node21" class="node">
<title>Node21</title>
<g id="a_node21"><a xlink:href="lighting_8h.html#ae50a6e06925c764b3caad3f805bc4c8a" target="_top" xlink:title="Create diffuse lighting.">
<polygon fill="none" stroke="black" points="815,-342.5 815,-361.5 904,-361.5 904,-342.5 815,-342.5"/>
<text text-anchor="middle" x="859.5" y="-349.5" font-family="Helvetica,sans-Serif" font-size="10.00">ft_diffuse_light</text>
</a>
</g>
</g>
<!-- Node1&#45;&gt;Node21 -->
<g id="edge23" class="edge">
<title>Node1&#45;&gt;Node21</title>
<path fill="none" stroke="midnightblue" d="M1430.45,-352C1311.19,-352 1015.98,-352 904.28,-352"/>
<polygon fill="midnightblue" stroke="midnightblue" points="1430.75,-355.5 1440.75,-352 1430.75,-348.5 1430.75,-355.5"/>
</g>
<!-- Node22 -->
<g id="node22" class="node">
<title>Node22</title>
<g id="a_node22"><a xlink:href="hit__manager__bonus_8h.html#abc28bafc00495161db9de547a9461cb1" target="_top" xlink:title="Transforms the Cartesian coordinates of a hit point on a cone wall into 2D texture UV&#45;coordinates in ...">
<polygon fill="none" stroke="black" points="1283,-494.5 1283,-513.5 1393,-513.5 1393,-494.5 1283,-494.5"/>
<text text-anchor="middle" x="1338" y="-501.5" font-family="Helvetica,sans-Serif" font-size="10.00">ft_get_co_uvcoords</text>
</a>
</g>
</g>
<!-- Node1&#45;&gt;Node22 -->
<g id="edge25" class="edge">
<title>Node1&#45;&gt;Node22</title>
<path fill="none" stroke="midnightblue" d="M1475.55,-371.53C1465.67,-400.63 1443.12,-455.14 1405,-485 1400.03,-488.9 1394.28,-492 1388.3,-494.46"/>
<polygon fill="midnightblue" stroke="midnightblue" points="1478.97,-372.31 1478.72,-361.72 1472.31,-370.16 1478.97,-372.31"/>
</g>
<!-- Node23 -->
<g id="node23" class="node">
<title>Node23</title>
<g id="a_node23"><a xlink:href="hit__manager__bonus_8h.html#aeb33f439a0d2093bdbcca7468e2e78b4" target="_top" xlink:title="Transforms the Cartesian coordinates of a hit point on a cylinder wall into 2D texture UV&#45;coordinates...">
<polygon fill="none" stroke="black" points="1283,-570.5 1283,-589.5 1393,-589.5 1393,-570.5 1283,-570.5"/>
<text text-anchor="middle" x="1338" y="-577.5" font-family="Helvetica,sans-Serif" font-size="10.00">ft_get_cy_uvcoords</text>
</a>
</g>
</g>
<!-- Node1&#45;&gt;Node23 -->
<g id="edge27" class="edge">
<title>Node1&#45;&gt;Node23</title>
<path fill="none" stroke="midnightblue" d="M1480.08,-371.64C1476.04,-412.89 1460.81,-508.99 1405,-561 1400.81,-564.9 1395.88,-568.01 1390.62,-570.48"/>
<polygon fill="midnightblue" stroke="midnightblue" points="1483.58,-371.81 1480.95,-361.55 1476.61,-371.21 1483.58,-371.81"/>
</g>
<!-- Node27 -->
<g id="node27" class="node">
<title>Node27</title>
<g id="a_node27"><a xlink:href="hit__manager_8h.html#aee999b32d6cebbb7bcd64995f8e88b6e" target="_top" xlink:title="Calculates if a sphere was hit by a ray.">
<polygon fill="none" stroke="black" points="963.5,-608.5 963.5,-627.5 1043.5,-627.5 1043.5,-608.5 963.5,-608.5"/>
<text text-anchor="middle" x="1003.5" y="-615.5" font-family="Helvetica,sans-Serif" font-size="10.00">ft_hit_sphere</text>
</a>
</g>
</g>
<!-- Node1&#45;&gt;Node27 -->
<g id="edge34" class="edge">
<title>Node1&#45;&gt;Node27</title>
<path fill="none" stroke="midnightblue" d="M1482.28,-371.72C1482.98,-419.77 1477.29,-543.02 1405,-599 1349.55,-641.94 1133.26,-629.05 1043.69,-621.62"/>
<polygon fill="midnightblue" stroke="midnightblue" points="1485.78,-371.6 1482.02,-361.69 1478.78,-371.78 1485.78,-371.6"/>
</g>
<!-- Node28 -->
<g id="node28" class="node">
<title>Node28</title>
<g id="a_node28"><a xlink:href="lighting_8h.html#a382179d88a3a971b5853322389bacf04" target="_top" xlink:title="Determines whether the point of intersection lies in a shadow regarding the current light source.">
<polygon fill="none" stroke="black" points="1298,-646.5 1298,-665.5 1378,-665.5 1378,-646.5 1298,-646.5"/>
<text text-anchor="middle" x="1338" y="-653.5" font-family="Helvetica,sans-Serif" font-size="10.00">ft_in_shadow</text>
</a>
</g>
</g>
<!-- Node1&#45;&gt;Node28 -->
<g id="edge36" class="edge">
<title>Node1&#45;&gt;Node28</title>
<path fill="none" stroke="midnightblue" d="M1481.93,-371.84C1481.94,-422.14 1475,-556.01 1405,-632 1397.9,-639.71 1388.12,-644.95 1378.26,-648.51"/>
<polygon fill="midnightblue" stroke="midnightblue" points="1485.43,-371.64 1481.83,-361.68 1478.43,-371.71 1485.43,-371.64"/>
</g>
<!-- Node30 -->
<g id="node30" class="node">
<title>Node30</title>
<g id="a_node30"><a xlink:href="parse__bonus_8h.html#a0ee220aca489e16d423c754b9d88e2dd" target="_top" xlink:title="Parse cone line.">
<polygon fill="none" stroke="black" points="1278.5,-114.5 1278.5,-133.5 1397.5,-133.5 1397.5,-114.5 1278.5,-114.5"/>
<text text-anchor="middle" x="1338" y="-121.5" font-family="Helvetica,sans-Serif" font-size="10.00">ft_parse_cone_bonus</text>
</a>
</g>
</g>
<!-- Node1&#45;&gt;Node30 -->
<g id="edge39" class="edge">
<title>Node1&#45;&gt;Node30</title>
<path fill="none" stroke="midnightblue" d="M1480.08,-332.36C1476.04,-291.11 1460.81,-195.01 1405,-143 1400.81,-139.1 1395.88,-135.99 1390.62,-133.52"/>
<polygon fill="midnightblue" stroke="midnightblue" points="1476.61,-332.79 1480.95,-342.45 1483.58,-332.19 1476.61,-332.79"/>
</g>
<!-- Node35 -->
<g id="node35" class="node">
<title>Node35</title>
<g id="a_node35"><a xlink:href="parse_8h.html#aa8d46dc12737db49e568b734cdbc614a" target="_top" xlink:title="Parse cylinder line.">
<polygon fill="none" stroke="black" points="1288,-228.5 1288,-247.5 1388,-247.5 1388,-228.5 1288,-228.5"/>
<text text-anchor="middle" x="1338" y="-235.5" font-family="Helvetica,sans-Serif" font-size="10.00">ft_parse_cylinder</text>
</a>
</g>
</g>
<!-- Node1&#45;&gt;Node35 -->
<g id="edge45" class="edge">
<title>Node1&#45;&gt;Node35</title>
<path fill="none" stroke="midnightblue" d="M1471.35,-333.44C1458.63,-311.91 1434.82,-276.82 1405,-257 1399.14,-253.11 1392.48,-250 1385.69,-247.52"/>
<polygon fill="midnightblue" stroke="midnightblue" points="1468.4,-335.33 1476.4,-342.28 1474.48,-331.86 1468.4,-335.33"/>
</g>
<!-- Node38 -->
<g id="node38" class="node">
<title>Node38</title>
<g id="a_node38"><a xlink:href="parse__bonus_8h.html#a30041bb98ced6caf1debb5468bfb6ad4" target="_top" xlink:title="Parse cylinder line.">
<polygon fill="none" stroke="black" points="1271,-190.5 1271,-209.5 1405,-209.5 1405,-190.5 1271,-190.5"/>
<text text-anchor="middle" x="1338" y="-197.5" font-family="Helvetica,sans-Serif" font-size="10.00">ft_parse_cylinder_bonus</text>
</a>
</g>
</g>
<!-- Node1&#45;&gt;Node38 -->
<g id="edge49" class="edge">
<title>Node1&#45;&gt;Node38</title>
<path fill="none" stroke="midnightblue" d="M1475.55,-332.47C1465.67,-303.37 1443.12,-248.86 1405,-219 1400.03,-215.1 1394.28,-212 1388.3,-209.54"/>
<polygon fill="midnightblue" stroke="midnightblue" points="1472.31,-333.84 1478.72,-342.28 1478.97,-331.69 1472.31,-333.84"/>
</g>
<!-- Node39 -->
<g id="node39" class="node">
<title>Node39</title>
<g id="a_node39"><a xlink:href="parse_8h.html#a64877aac0d88b33e1bb87b3c9a3496dc" target="_top" xlink:title="Parse plane line.">
<polygon fill="none" stroke="black" points="1294,-266.5 1294,-285.5 1382,-285.5 1382,-266.5 1294,-266.5"/>
<text text-anchor="middle" x="1338" y="-273.5" font-family="Helvetica,sans-Serif" font-size="10.00">ft_parse_plane</text>
</a>
</g>
</g>
<!-- Node1&#45;&gt;Node39 -->
<g id="edge51" class="edge">
<title>Node1&#45;&gt;Node39</title>
<path fill="none" stroke="midnightblue" d="M1461.35,-336.26C1446.4,-325.1 1425.2,-310.33 1405,-300 1394.04,-294.39 1381.45,-289.47 1370.23,-285.57"/>
<polygon fill="midnightblue" stroke="midnightblue" points="1459.29,-339.09 1469.37,-342.35 1463.52,-333.51 1459.29,-339.09"/>
</g>
<!-- Node40 -->
<g id="node40" class="node">
<title>Node40</title>
<g id="a_node40"><a xlink:href="parse__bonus_8h.html#a672a980c7d877d0d42971cd811541bd4" target="_top" xlink:title="Parse plane line.">
<polygon fill="none" stroke="black" points="1277,-152.5 1277,-171.5 1399,-171.5 1399,-152.5 1277,-152.5"/>
<text text-anchor="middle" x="1338" y="-159.5" font-family="Helvetica,sans-Serif" font-size="10.00">ft_parse_plane_bonus</text>
</a>
</g>
</g>
<!-- Node1&#45;&gt;Node40 -->
<g id="edge53" class="edge">
<title>Node1&#45;&gt;Node40</title>
<path fill="none" stroke="midnightblue" d="M1478.21,-332.07C1471.27,-296.4 1451.75,-221.61 1405,-181 1400.5,-177.09 1395.24,-173.98 1389.69,-171.51"/>
<polygon fill="midnightblue" stroke="midnightblue" points="1474.82,-332.96 1480.04,-342.18 1481.71,-331.71 1474.82,-332.96"/>
</g>
<!-- Node41 -->
<g id="node41" class="node">
<title>Node41</title>
<g id="a_node41"><a xlink:href="lighting__bonus_8h.html#af5be68420f313176423a79d2df7d1b51" target="_top" xlink:title="Create specular lighting.">
<polygon fill="none" stroke="black" points="811,-304.5 811,-323.5 908,-323.5 908,-304.5 811,-304.5"/>
<text text-anchor="middle" x="859.5" y="-311.5" font-family="Helvetica,sans-Serif" font-size="10.00">ft_specular_light</text>
</a>
</g>
</g>
<!-- Node1&#45;&gt;Node41 -->
<g id="edge57" class="edge">
<title>Node1&#45;&gt;Node41</title>
<path fill="none" stroke="midnightblue" d="M1430.56,-348.88C1312.72,-341.67 1022.62,-323.92 908.1,-316.91"/>
<polygon fill="midnightblue" stroke="midnightblue" points="1430.56,-352.39 1440.75,-349.51 1430.99,-345.4 1430.56,-352.39"/>
</g>
<!-- Node42 -->
<g id="node42" class="node">
<title>Node42</title>
<g id="a_node42"><a xlink:href="mat4__vec3_8h.html#a211f9d6535bb54bea2299ee5ea8a54a0" target="_top" xlink:title="Rotates a 3D vector around the x&#45;axis.">
<polygon fill="none" stroke="black" points="1289,-76.5 1289,-95.5 1387,-95.5 1387,-76.5 1289,-76.5"/>
<text text-anchor="middle" x="1338" y="-83.5" font-family="Helvetica,sans-Serif" font-size="10.00">ft_vec3_rotate_x</text>
</a>
</g>
</g>
<!-- Node1&#45;&gt;Node42 -->
<g id="edge59" class="edge">
<title>Node1&#45;&gt;Node42</title>
<path fill="none" stroke="midnightblue" d="M1481.37,-332.06C1479.94,-285.44 1469.73,-168.44 1405,-105 1399.98,-100.08 1393.76,-96.41 1387.17,-93.69"/>
<polygon fill="midnightblue" stroke="midnightblue" points="1477.87,-332.4 1481.57,-342.33 1484.87,-332.26 1477.87,-332.4"/>
</g>
<!-- Node48 -->
<g id="node48" class="node">
<title>Node48</title>
<g id="a_node48"><a xlink:href="mat4__vec3_8h.html#ac8a4ca6fb927e3746e7129f8eb04aa46" target="_top" xlink:title="Rotates a 3D vector around the y&#45;axis.">
<polygon fill="none" stroke="black" points="1289,-38.5 1289,-57.5 1387,-57.5 1387,-38.5 1289,-38.5"/>
<text text-anchor="middle" x="1338" y="-45.5" font-family="Helvetica,sans-Serif" font-size="10.00">ft_vec3_rotate_y</text>
</a>
</g>
</g>
<!-- Node1&#45;&gt;Node48 -->
<g id="edge65" class="edge">
<title>Node1&#45;&gt;Node48</title>
<path fill="none" stroke="midnightblue" d="M1482.35,-332.19C1483.42,-280.86 1478.92,-142.27 1405,-67 1399.99,-61.9 1393.7,-58.14 1387.01,-55.38"/>
<polygon fill="midnightblue" stroke="midnightblue" points="1478.85,-332.18 1482.04,-342.28 1485.84,-332.39 1478.85,-332.18"/>
</g>
<!-- Node49 -->
<g id="node49" class="node">
<title>Node49</title>
<g id="a_node49"><a xlink:href="mat4__vec3_8h.html#ad39f8d1d44f9bce6c5025b87a09f7dfc" target="_top" xlink:title="Rotates a 3D vector around the z&#45;axis.">
<polygon fill="none" stroke="black" points="1289.5,-0.5 1289.5,-19.5 1386.5,-19.5 1386.5,-0.5 1289.5,-0.5"/>
<text text-anchor="middle" x="1338" y="-7.5" font-family="Helvetica,sans-Serif" font-size="10.00">ft_vec3_rotate_z</text>
</a>
</g>
</g>
<!-- Node1&#45;&gt;Node49 -->
<g id="edge69" class="edge">
<title>Node1&#45;&gt;Node49</title>
<path fill="none" stroke="midnightblue" d="M1479.4,-332.11C1472.35,-268.8 1447.49,-73.57 1405,-29 1399.98,-23.74 1393.61,-19.9 1386.81,-17.11"/>
<polygon fill="midnightblue" stroke="midnightblue" points="1475.95,-332.76 1480.51,-342.33 1482.91,-332.01 1475.95,-332.76"/>
</g>
<!-- Node3 -->
<g id="node3" class="node">
<title>Node3</title>
<g id="a_node3"><a xlink:href="hit__manager__bonus_8h.html#a69c648bba2a12763904900ce56cadb8a" target="_top" xlink:title="Overwrites the hit record &quot;rec&quot; with the new hit data found in the &quot;tmp&quot; hit record.">
<polygon fill="none" stroke="black" points="1112.5,-494.5 1112.5,-513.5 1221.5,-513.5 1221.5,-494.5 1112.5,-494.5"/>
<text text-anchor="middle" x="1167" y="-501.5" font-family="Helvetica,sans-Serif" font-size="10.00">ft_co_set_hitrecord</text>
</a>
</g>
</g>
<!-- Node2&#45;&gt;Node3 -->
<g id="edge2" class="edge">
<title>Node2&#45;&gt;Node3</title>
<path fill="none" stroke="midnightblue" d="M1287.98,-477.02C1263.47,-482.53 1234.09,-489.14 1210.54,-494.44"/>
<polygon fill="midnightblue" stroke="midnightblue" points="1288.81,-480.42 1297.8,-474.81 1287.28,-473.59 1288.81,-480.42"/>
</g>
<!-- Node4 -->
<g id="node4" class="node">
<title>Node4</title>
<g id="a_node4"><a xlink:href="hit__manager__bonus_8h.html#aebab6e1f11fc5b2e6c420276c9beee96" target="_top" xlink:title="Calculates if a cone was hit by a ray.">
<polygon fill="none" stroke="black" points="968.5,-494.5 968.5,-513.5 1038.5,-513.5 1038.5,-494.5 968.5,-494.5"/>
<text text-anchor="middle" x="1003.5" y="-501.5" font-family="Helvetica,sans-Serif" font-size="10.00">ft_hit_cone</text>
</a>
</g>
</g>
<!-- Node3&#45;&gt;Node4 -->
<g id="edge3" class="edge">
<title>Node3&#45;&gt;Node4</title>
<path fill="none" stroke="midnightblue" d="M1102.11,-504C1080.5,-504 1057.2,-504 1038.79,-504"/>
<polygon fill="midnightblue" stroke="midnightblue" points="1102.22,-507.5 1112.22,-504 1102.22,-500.5 1102.22,-507.5"/>
</g>
<!-- Node5 -->
<g id="node5" class="node">
<title>Node5</title>
<g id="a_node5"><a xlink:href="hit__bonus_8c.html#a9d5972226064b0a4d0e1359d9230abec" target="_top" xlink:title="Investigate a hittable and returns whether a hit occured or not.">
<polygon fill="none" stroke="black" points="817.5,-499.5 817.5,-518.5 901.5,-518.5 901.5,-499.5 817.5,-499.5"/>
<text text-anchor="middle" x="859.5" y="-506.5" font-family="Helvetica,sans-Serif" font-size="10.00">ft_hit_hittable</text>
</a>
</g>
</g>
<!-- Node4&#45;&gt;Node5 -->
<g id="edge4" class="edge">
<title>Node4&#45;&gt;Node5</title>
<path fill="none" stroke="midnightblue" d="M958.45,-505.55C940.3,-506.19 919.4,-506.93 901.57,-507.55"/>
<polygon fill="midnightblue" stroke="midnightblue" points="958.62,-509.05 968.49,-505.2 958.37,-502.05 958.62,-509.05"/>
</g>
<!-- Node6 -->
<g id="node6" class="node">
<title>Node6</title>
<g id="a_node6"><a xlink:href="lighting__bonus_8h.html#a7fe107fe556fd497ebfc4c4df70b83da" target="_top" xlink:title="Looks for the closest object hit by a ray.">
<polygon fill="none" stroke="black" points="659,-518.5 659,-537.5 761,-537.5 761,-518.5 659,-518.5"/>
<text text-anchor="middle" x="710" y="-525.5" font-family="Helvetica,sans-Serif" font-size="10.00">ft_get_closest_hit</text>
</a>
</g>
</g>
<!-- Node5&#45;&gt;Node6 -->
<g id="edge5" class="edge">
<title>Node5&#45;&gt;Node6</title>
<path fill="none" stroke="midnightblue" d="M807.29,-515.6C792.31,-517.53 775.96,-519.63 761.05,-521.55"/>
<polygon fill="midnightblue" stroke="midnightblue" points="807.94,-519.04 817.41,-514.29 807.05,-512.1 807.94,-519.04"/>
</g>
<!-- Node10 -->
<g id="node10" class="node">
<title>Node10</title>
<g id="a_node10"><a xlink:href="ray_8h.html#a2cffd188fb76990901db47a2c3ac638f" target="_top" xlink:title="Returns the colour of a ray.">
<polygon fill="none" stroke="black" points="670,-556.5 670,-575.5 750,-575.5 750,-556.5 670,-556.5"/>
<text text-anchor="middle" x="710" y="-563.5" font-family="Helvetica,sans-Serif" font-size="10.00">ft_ray_colour</text>
</a>
</g>
</g>
<!-- Node5&#45;&gt;Node10 -->
<g id="edge10" class="edge">
<title>Node5&#45;&gt;Node10</title>
<path fill="none" stroke="midnightblue" d="M830.27,-523.03C814.28,-530.67 793.78,-539.98 775,-547 765.88,-550.41 755.86,-553.63 746.5,-556.41"/>
<polygon fill="midnightblue" stroke="midnightblue" points="832.11,-526.03 839.58,-518.52 829.06,-519.73 832.11,-526.03"/>
</g>
<!-- Node17 -->
<g id="node17" class="node">
<title>Node17</title>
<g id="a_node17"><a xlink:href="lighting_8h.html#a931177e8edb2dd5393cef7a468389a4d" target="_top" xlink:title="Determines whether the shadow ray emitted from the point of intersection is blocked on its way to the...">
<polygon fill="none" stroke="black" points="645,-480.5 645,-499.5 775,-499.5 775,-480.5 645,-480.5"/>
<text text-anchor="middle" x="710" y="-487.5" font-family="Helvetica,sans-Serif" font-size="10.00">ft_shadow_ray_blocked</text>
</a>
</g>
</g>
<!-- Node5&#45;&gt;Node17 -->
<g id="edge18" class="edge">
<title>Node5&#45;&gt;Node17</title>
<path fill="none" stroke="midnightblue" d="M807.28,-502.4C796.89,-501.06 785.84,-499.64 775.07,-498.25"/>
<polygon fill="midnightblue" stroke="midnightblue" points="807.05,-505.9 817.41,-503.71 807.94,-498.96 807.05,-505.9"/>
</g>
<!-- Node6&#45;&gt;Node7 -->
<g id="edge6" class="edge">
<title>Node6&#45;&gt;Node7</title>
<path fill="none" stroke="midnightblue" d="M653.52,-514.28C650.53,-512.7 647.67,-510.95 645,-509 596.9,-473.78 565.67,-405.89 555.3,-380.71"/>
<polygon fill="midnightblue" stroke="midnightblue" points="652.22,-517.53 662.77,-518.48 655.11,-511.16 652.22,-517.53"/>
</g>
<!-- Node8 -->
<g id="node8" class="node">
<title>Node8</title>
<g id="a_node8"><a xlink:href="lighting__bonus_8h.html#ac85883d276b27394b86511c7eaa4d4ae" target="_top" xlink:title="Computes the colour of light interacting with different material properties.">
<polygon fill="none" stroke="black" points="349,-361.5 349,-380.5 456,-380.5 456,-361.5 349,-361.5"/>
<text text-anchor="middle" x="402.5" y="-368.5" font-family="Helvetica,sans-Serif" font-size="10.00">ft_compute_colour</text>
</a>
</g>
</g>
<!-- Node7&#45;&gt;Node8 -->
<g id="edge7" class="edge">
<title>Node7&#45;&gt;Node8</title>
<path fill="none" stroke="midnightblue" d="M489.61,-364.35C478.5,-364.18 466.97,-364.23 456.1,-364.49"/>
<polygon fill="midnightblue" stroke="midnightblue" points="489.59,-367.85 499.66,-364.56 489.74,-360.85 489.59,-367.85"/>
</g>
<!-- Node8&#45;&gt;Node7 -->
<g id="edge9" class="edge">
<title>Node8&#45;&gt;Node7</title>
<path fill="none" stroke="midnightblue" d="M466.24,-377.69C477.41,-377.82 488.91,-377.74 499.66,-377.44"/>
<polygon fill="midnightblue" stroke="midnightblue" points="466.16,-374.19 456.1,-377.51 466.04,-381.19 466.16,-374.19"/>
</g>
<!-- Node9 -->
<g id="node9" class="node">
<title>Node9</title>
<g id="a_node9"><a xlink:href="lighting__bonus_8h.html#a7a7ed2ff6f725c296f088c0f2f0d0843" target="_top" xlink:title="Calculate the effect of different lighting on perception.">
<polygon fill="none" stroke="black" points="233,-361.5 233,-380.5 307,-380.5 307,-361.5 233,-361.5"/>
<text text-anchor="middle" x="270" y="-368.5" font-family="Helvetica,sans-Serif" font-size="10.00">ft_enlighten</text>
</a>
</g>
</g>
<!-- Node8&#45;&gt;Node9 -->
<g id="edge8" class="edge">
<title>Node8&#45;&gt;Node9</title>
<path fill="none" stroke="midnightblue" d="M338.52,-371C327.73,-371 316.86,-371 307.09,-371"/>
<polygon fill="midnightblue" stroke="midnightblue" points="338.8,-374.5 348.8,-371 338.8,-367.5 338.8,-374.5"/>
</g>
<!-- Node11 -->
<g id="node11" class="node">
<title>Node11</title>
<g id="a_node11"><a xlink:href="ray__bonus_8h.html#af9c073d2966aa21738e1d2083762055f" target="_top" xlink:title="Returns the colour of a pixel by means of anti&#45;aliasing.">
<polygon fill="none" stroke="black" points="492,-484.5 492,-503.5 609,-503.5 609,-484.5 492,-484.5"/>
<text text-anchor="middle" x="550.5" y="-491.5" font-family="Helvetica,sans-Serif" font-size="10.00">ft_anti_aliase_colour</text>
</a>
</g>
</g>
<!-- Node10&#45;&gt;Node11 -->
<g id="edge11" class="edge">
<title>Node10&#45;&gt;Node11</title>
<path fill="none" stroke="midnightblue" d="M661.94,-553.37C656.16,-551.43 650.4,-549.3 645,-547 615.64,-534.51 583.78,-515.06 565.87,-503.52"/>
<polygon fill="midnightblue" stroke="midnightblue" points="661.02,-556.75 671.61,-556.45 663.14,-550.08 661.02,-556.75"/>
</g>
<!-- Node10&#45;&gt;Node16 -->
<g id="edge16" class="edge">
<title>Node10&#45;&gt;Node16</title>
<path fill="none" stroke="midnightblue" d="M659.5,-566C640.09,-566 617.93,-566 598.75,-566"/>
<polygon fill="midnightblue" stroke="midnightblue" points="659.66,-569.5 669.66,-566 659.66,-562.5 659.66,-569.5"/>
</g>
<!-- Node12 -->
<g id="node12" class="node">
<title>Node12</title>
<g id="a_node12"><a xlink:href="render__draw__bonus_8c.html#a4f238596a8fca72f9af80be57cf06d34" target="_top" xlink:title="Renders the scene to the mlx img.">
<polygon fill="none" stroke="black" points="354.5,-484.5 354.5,-503.5 450.5,-503.5 450.5,-484.5 354.5,-484.5"/>
<text text-anchor="middle" x="402.5" y="-491.5" font-family="Helvetica,sans-Serif" font-size="10.00">ft_render_image</text>
</a>
</g>
</g>
<!-- Node11&#45;&gt;Node12 -->
<g id="edge12" class="edge">
<title>Node11&#45;&gt;Node12</title>
<path fill="none" stroke="midnightblue" d="M481.53,-494C471.18,-494 460.7,-494 450.92,-494"/>
<polygon fill="midnightblue" stroke="midnightblue" points="481.8,-497.5 491.8,-494 481.8,-490.5 481.8,-497.5"/>
</g>
<!-- Node13 -->
<g id="node13" class="node">
<title>Node13</title>
<g id="a_node13"><a xlink:href="render_8h.html#af908c05cb19e716220bc98fcf9582573" target="_top" xlink:title=" ">
<polygon fill="none" stroke="black" points="227,-484.5 227,-503.5 313,-503.5 313,-484.5 227,-484.5"/>
<text text-anchor="middle" x="270" y="-491.5" font-family="Helvetica,sans-Serif" font-size="10.00">ft_draw_scene</text>
</a>
</g>
</g>
<!-- Node12&#45;&gt;Node13 -->
<g id="edge13" class="edge">
<title>Node12&#45;&gt;Node13</title>
<path fill="none" stroke="midnightblue" d="M344.14,-494C333.77,-494 323.12,-494 313.28,-494"/>
<polygon fill="midnightblue" stroke="midnightblue" points="344.39,-497.5 354.39,-494 344.39,-490.5 344.39,-497.5"/>
</g>
<!-- Node14 -->
<g id="node14" class="node">
<title>Node14</title>
<g id="a_node14"><a xlink:href="render_8h.html#ab7a01aa5d27d2fad2942a43a31ae0d52" target="_top" xlink:title="Starts the mlx loop.">
<polygon fill="none" stroke="black" points="77,-388.5 77,-407.5 191,-407.5 191,-388.5 77,-388.5"/>
<text text-anchor="middle" x="134" y="-395.5" font-family="Helvetica,sans-Serif" font-size="10.00">ft_render_start_loop</text>
</a>
</g>
</g>
<!-- Node13&#45;&gt;Node14 -->
<g id="edge14" class="edge">
<title>Node13&#45;&gt;Node14</title>
<path fill="none" stroke="midnightblue" d="M247.32,-478.47C219.32,-458.41 171.42,-424.09 148.28,-407.52"/>
<polygon fill="midnightblue" stroke="midnightblue" points="245.49,-481.47 255.66,-484.44 249.57,-475.78 245.49,-481.47"/>
</g>
<!-- Node15 -->
<g id="node15" class="node">
<title>Node15</title>
<g id="a_node15"><a xlink:href="main_8c.html#a3c04138a5bfe5d72780bb7e82a18e627" target="_top" xlink:title=" ">
<polygon fill="none" stroke="black" points="0,-339.5 0,-358.5 41,-358.5 41,-339.5 0,-339.5"/>
<text text-anchor="middle" x="20.5" y="-346.5" font-family="Helvetica,sans-Serif" font-size="10.00">main</text>
</a>
</g>
</g>
<!-- Node14&#45;&gt;Node15 -->
<g id="edge15" class="edge">
<title>Node14&#45;&gt;Node15</title>
<path fill="none" stroke="midnightblue" d="M101.9,-384.33C82.51,-375.81 58.14,-365.1 41.34,-357.72"/>
<polygon fill="midnightblue" stroke="midnightblue" points="100.67,-387.62 111.24,-388.44 103.49,-381.21 100.67,-387.62"/>
</g>
<!-- Node16&#45;&gt;Node13 -->
<g id="edge17" class="edge">
<title>Node16&#45;&gt;Node13</title>
<path fill="none" stroke="midnightblue" d="M502.71,-553.9C447.95,-539.75 358.36,-516.59 308.14,-503.6"/>
<polygon fill="midnightblue" stroke="midnightblue" points="501.96,-557.32 512.52,-556.44 503.71,-550.55 501.96,-557.32"/>
</g>
<!-- Node18&#45;&gt;Node11 -->
<g id="edge20" class="edge">
<title>Node18&#45;&gt;Node11</title>
<path fill="none" stroke="midnightblue" d="M670.33,-454.77C642.56,-463.94 605.73,-476.1 580.47,-484.43"/>
<polygon fill="midnightblue" stroke="midnightblue" points="671.71,-458 680.11,-451.54 669.52,-451.35 671.71,-458"/>
</g>
<!-- Node20 -->
<g id="node20" class="node">
<title>Node20</title>
<g id="a_node20"><a xlink:href="hit__manager_8h.html#a72c52cc4f5c57fc6171137d9eb6c3500" target="_top" xlink:title="Overwrites the hit record &quot;rec&quot; with the new hit data found in the &quot;tmp&quot; hit record.">
<polygon fill="none" stroke="black" points="1112.5,-532.5 1112.5,-551.5 1221.5,-551.5 1221.5,-532.5 1112.5,-532.5"/>
<text text-anchor="middle" x="1167" y="-539.5" font-family="Helvetica,sans-Serif" font-size="10.00">ft_cy_set_hitrecord</text>
</a>
</g>
</g>
<!-- Node19&#45;&gt;Node20 -->
<g id="edge22" class="edge">
<title>Node19&#45;&gt;Node20</title>
<path fill="none" stroke="midnightblue" d="M1287.64,-542C1266.95,-542 1242.84,-542 1221.7,-542"/>
<polygon fill="midnightblue" stroke="midnightblue" points="1287.8,-545.5 1297.8,-542 1287.8,-538.5 1287.8,-545.5"/>
</g>
<!-- Node21&#45;&gt;Node7 -->
<g id="edge24" class="edge">
<title>Node21&#45;&gt;Node7</title>
<path fill="none" stroke="midnightblue" d="M804.51,-355.34C747.03,-358.9 656.85,-364.48 601.11,-367.93"/>
<polygon fill="midnightblue" stroke="midnightblue" points="805.08,-358.81 814.84,-354.7 804.64,-351.83 805.08,-358.81"/>
</g>
<!-- Node22&#45;&gt;Node3 -->
<g id="edge26" class="edge">
<title>Node22&#45;&gt;Node3</title>
<path fill="none" stroke="midnightblue" d="M1272.35,-504C1255.63,-504 1237.82,-504 1221.72,-504"/>
<polygon fill="midnightblue" stroke="midnightblue" points="1272.6,-507.5 1282.6,-504 1272.6,-500.5 1272.6,-507.5"/>
</g>
<!-- Node24 -->
<g id="node24" class="node">
<title>Node24</title>
<g id="a_node24"><a xlink:href="hit__cylinder__bonus_8c.html#a72c52cc4f5c57fc6171137d9eb6c3500" target="_top" xlink:title="Overwrites the hit record &quot;rec&quot; with the new hit data found in the &quot;tmp&quot; hit record.">
<polygon fill="none" stroke="black" points="1112.5,-570.5 1112.5,-589.5 1221.5,-589.5 1221.5,-570.5 1112.5,-570.5"/>
<text text-anchor="middle" x="1167" y="-577.5" font-family="Helvetica,sans-Serif" font-size="10.00">ft_cy_set_hitrecord</text>
</a>
</g>
</g>
<!-- Node23&#45;&gt;Node24 -->
<g id="edge28" class="edge">
<title>Node23&#45;&gt;Node24</title>
<path fill="none" stroke="midnightblue" d="M1272.35,-580C1255.63,-580 1237.82,-580 1221.72,-580"/>
<polygon fill="midnightblue" stroke="midnightblue" points="1272.6,-583.5 1282.6,-580 1272.6,-576.5 1272.6,-583.5"/>
</g>
<!-- Node25 -->
<g id="node25" class="node">
<title>Node25</title>
<g id="a_node25"><a xlink:href="hit__cylinder__bonus_8c.html#ad1c0dcb3141fe78ed26368ca7bb8d2b8" target="_top" xlink:title="Calculates if a cylinder was hit by a ray.">
<polygon fill="none" stroke="black" points="960.5,-561.5 960.5,-580.5 1046.5,-580.5 1046.5,-561.5 960.5,-561.5"/>
<text text-anchor="middle" x="1003.5" y="-568.5" font-family="Helvetica,sans-Serif" font-size="10.00">ft_hit_cylinder</text>
</a>
</g>
</g>
<!-- Node24&#45;&gt;Node25 -->
<g id="edge29" class="edge">
<title>Node24&#45;&gt;Node25</title>
<path fill="none" stroke="midnightblue" d="M1102.02,-576.43C1083.37,-575.4 1063.48,-574.29 1046.56,-573.34"/>
<polygon fill="midnightblue" stroke="midnightblue" points="1102.04,-579.94 1112.22,-577 1102.43,-572.95 1102.04,-579.94"/>
</g>
<!-- Node26 -->
<g id="node26" class="node">
<title>Node26</title>
<g id="a_node26"><a xlink:href="hit__manager_8h.html#a9d5972226064b0a4d0e1359d9230abec" target="_top" xlink:title="Investigate a hittable and returns whether a hit occured or not.">
<polygon fill="none" stroke="black" points="817.5,-556.5 817.5,-575.5 901.5,-575.5 901.5,-556.5 817.5,-556.5"/>
<text text-anchor="middle" x="859.5" y="-563.5" font-family="Helvetica,sans-Serif" font-size="10.00">ft_hit_hittable</text>
</a>
</g>
</g>
<!-- Node25&#45;&gt;Node26 -->
<g id="edge30" class="edge">
<title>Node25&#45;&gt;Node26</title>
<path fill="none" stroke="midnightblue" d="M950.05,-569.15C934.14,-568.59 916.9,-567.99 901.82,-567.46"/>
<polygon fill="midnightblue" stroke="midnightblue" points="950.16,-572.66 960.28,-569.51 950.41,-565.66 950.16,-572.66"/>
</g>
<!-- Node26&#45;&gt;Node6 -->
<g id="edge31" class="edge">
<title>Node26&#45;&gt;Node6</title>
<path fill="none" stroke="midnightblue" d="M811.49,-553.89C790.94,-548.6 767.2,-542.48 747.95,-537.52"/>
<polygon fill="midnightblue" stroke="midnightblue" points="810.72,-557.31 821.28,-556.41 812.47,-550.53 810.72,-557.31"/>
</g>
<!-- Node26&#45;&gt;Node10 -->
<g id="edge32" class="edge">
<title>Node26&#45;&gt;Node10</title>
<path fill="none" stroke="midnightblue" d="M807.25,-566C788.5,-566 767.61,-566 750.09,-566"/>
<polygon fill="midnightblue" stroke="midnightblue" points="807.41,-569.5 817.41,-566 807.41,-562.5 807.41,-569.5"/>
</g>
<!-- Node26&#45;&gt;Node17 -->
<g id="edge33" class="edge">
<title>Node26&#45;&gt;Node17</title>
<path fill="none" stroke="midnightblue" d="M838.87,-549.99C822.59,-537.38 798.41,-520.13 775,-509 767.25,-505.32 758.64,-502.18 750.3,-499.57"/>
<polygon fill="midnightblue" stroke="midnightblue" points="837.03,-553 847.04,-556.45 841.37,-547.51 837.03,-553"/>
</g>
<!-- Node27&#45;&gt;Node26 -->
<g id="edge35" class="edge">
<title>Node27&#45;&gt;Node26</title>
<path fill="none" stroke="midnightblue" d="M967.01,-605C942.13,-595.89 909.43,-583.92 886.86,-575.65"/>
<polygon fill="midnightblue" stroke="midnightblue" points="965.86,-608.31 976.46,-608.46 968.27,-601.74 965.86,-608.31"/>
</g>
<!-- Node29 -->
<g id="node29" class="node">
<title>Node29</title>
<g id="a_node29"><a xlink:href="lighting_8h.html#a3d54436a3f695a60b1c2d9e504a61de8" target="_top" xlink:title="Calculate the effect of different lighting on perception.">
<polygon fill="none" stroke="black" points="822.5,-623.5 822.5,-642.5 896.5,-642.5 896.5,-623.5 822.5,-623.5"/>
<text text-anchor="middle" x="859.5" y="-630.5" font-family="Helvetica,sans-Serif" font-size="10.00">ft_enlighten</text>
</a>
</g>
</g>
<!-- Node28&#45;&gt;Node29 -->
<g id="edge37" class="edge">
<title>Node28&#45;&gt;Node29</title>
<path fill="none" stroke="midnightblue" d="M1287.55,-653.61C1191.36,-648.97 981.1,-638.82 896.66,-634.75"/>
<polygon fill="midnightblue" stroke="midnightblue" points="1287.44,-657.11 1297.6,-654.1 1287.78,-650.12 1287.44,-657.11"/>
</g>
<!-- Node29&#45;&gt;Node10 -->
<g id="edge38" class="edge">
<title>Node29&#45;&gt;Node10</title>
<path fill="none" stroke="midnightblue" d="M828.21,-619.24C799.55,-606.22 757.27,-587.02 732.09,-575.58"/>
<polygon fill="midnightblue" stroke="midnightblue" points="826.81,-622.45 837.37,-623.4 829.71,-616.08 826.81,-622.45"/>
</g>
<!-- Node31 -->
<g id="node31" class="node">
<title>Node31</title>
<g id="a_node31"><a xlink:href="parse__bonus_8c.html#a65db4c46c2af2d9b570687b3a1458f15" target="_top" xlink:title=" ">
<polygon fill="none" stroke="black" points="1105,-171.5 1105,-190.5 1229,-190.5 1229,-171.5 1105,-171.5"/>
<text text-anchor="middle" x="1167" y="-178.5" font-family="Helvetica,sans-Serif" font-size="10.00">ft_parse_entity_bonus</text>
</a>
</g>
</g>
<!-- Node30&#45;&gt;Node31 -->
<g id="edge40" class="edge">
<title>Node30&#45;&gt;Node31</title>
<path fill="none" stroke="midnightblue" d="M1292.31,-136.39C1285.16,-138.51 1277.85,-140.75 1271,-143 1243.83,-151.91 1213.14,-163.42 1192.38,-171.43"/>
<polygon fill="midnightblue" stroke="midnightblue" points="1293.3,-139.74 1301.92,-133.58 1291.34,-133.02 1293.3,-139.74"/>
</g>
<!-- Node32 -->
<g id="node32" class="node">
<title>Node32</title>
<g id="a_node32"><a xlink:href="parse__bonus_8h.html#a4ce5cad477407308f911966a9446f560" target="_top" xlink:title="Dispatcher for different parsing functions.">
<polygon fill="none" stroke="black" points="944,-181.5 944,-200.5 1063,-200.5 1063,-181.5 944,-181.5"/>
<text text-anchor="middle" x="1003.5" y="-188.5" font-family="Helvetica,sans-Serif" font-size="10.00">ft_parse_lines_bonus</text>
</a>
</g>
</g>
<!-- Node31&#45;&gt;Node32 -->
<g id="edge41" class="edge">
<title>Node31&#45;&gt;Node32</title>
<path fill="none" stroke="midnightblue" d="M1094.9,-185.4C1084.32,-186.06 1073.52,-186.73 1063.24,-187.36"/>
<polygon fill="midnightblue" stroke="midnightblue" points="1095.18,-188.89 1104.94,-184.78 1094.75,-181.91 1095.18,-188.89"/>
</g>
<!-- Node33 -->
<g id="node33" class="node">
<title>Node33</title>
<g id="a_node33"><a xlink:href="parse__bonus_8h.html#a4192e948800f8db85951eb21432e0ab0" target="_top" xlink:title="Mallocs storage space and writes data into storage.">
<polygon fill="none" stroke="black" points="819.5,-257.5 819.5,-276.5 899.5,-276.5 899.5,-257.5 819.5,-257.5"/>
<text text-anchor="middle" x="859.5" y="-264.5" font-family="Helvetica,sans-Serif" font-size="10.00">ft_store_data</text>
</a>
</g>
</g>
<!-- Node32&#45;&gt;Node33 -->
<g id="edge42" class="edge">
<title>Node32&#45;&gt;Node33</title>
<path fill="none" stroke="midnightblue" d="M975.49,-205.46C946.96,-220.72 902.8,-244.36 878.34,-257.45"/>
<polygon fill="midnightblue" stroke="midnightblue" points="977.35,-208.43 984.52,-200.63 974.05,-202.26 977.35,-208.43"/>
</g>
<!-- Node34 -->
<g id="node34" class="node">
<title>Node34</title>
<g id="a_node34"><a xlink:href="parse_8h.html#ac08e53c371b438bc37757b81d0df11b8" target="_top" xlink:title="Imports, checks, and parses the provided file.">
<polygon fill="none" stroke="black" points="96,-320.5 96,-339.5 172,-339.5 172,-320.5 96,-320.5"/>
<text text-anchor="middle" x="134" y="-327.5" font-family="Helvetica,sans-Serif" font-size="10.00">ft_parse_file</text>
</a>
</g>
</g>
<!-- Node33&#45;&gt;Node34 -->
<g id="edge43" class="edge">
<title>Node33&#45;&gt;Node34</title>
<path fill="none" stroke="midnightblue" d="M809.19,-268.04C748.54,-269.22 642.45,-271 551.5,-271 551.5,-271 551.5,-271 401.5,-271 311.23,-271 207.73,-303.67 160.68,-320.39"/>
<polygon fill="midnightblue" stroke="midnightblue" points="809.32,-271.54 819.25,-267.84 809.18,-264.54 809.32,-271.54"/>
</g>
<!-- Node34&#45;&gt;Node15 -->
<g id="edge44" class="edge">
<title>Node34&#45;&gt;Node15</title>
<path fill="none" stroke="midnightblue" d="M85.8,-338.04C70.19,-340.7 53.66,-343.52 41.27,-345.63"/>
<polygon fill="midnightblue" stroke="midnightblue" points="86.6,-341.46 95.87,-336.33 85.43,-334.56 86.6,-341.46"/>
</g>
<!-- Node36 -->
<g id="node36" class="node">
<title>Node36</title>
<g id="a_node36"><a xlink:href="parse_8c.html#ad530c7e1381c551510afa73f881fb907" target="_top" xlink:title=" ">
<polygon fill="none" stroke="black" points="1122.5,-257.5 1122.5,-276.5 1211.5,-276.5 1211.5,-257.5 1122.5,-257.5"/>
<text text-anchor="middle" x="1167" y="-264.5" font-family="Helvetica,sans-Serif" font-size="10.00">ft_parse_entity</text>
</a>
</g>
</g>
<!-- Node35&#45;&gt;Node36 -->
<g id="edge46" class="edge">
<title>Node35&#45;&gt;Node36</title>
<path fill="none" stroke="midnightblue" d="M1277.56,-248.2C1255.85,-251.92 1231.72,-256.07 1211.65,-259.51"/>
<polygon fill="midnightblue" stroke="midnightblue" points="1278.4,-251.61 1287.66,-246.47 1277.22,-244.71 1278.4,-251.61"/>
</g>
<!-- Node37 -->
<g id="node37" class="node">
<title>Node37</title>
<g id="a_node37"><a xlink:href="parse_8h.html#a5da409b03d9f22daaa6d5673944800d3" target="_top" xlink:title="Dispatcher for different parsing functions.">
<polygon fill="none" stroke="black" points="961.5,-257.5 961.5,-276.5 1045.5,-276.5 1045.5,-257.5 961.5,-257.5"/>
<text text-anchor="middle" x="1003.5" y="-264.5" font-family="Helvetica,sans-Serif" font-size="10.00">ft_parse_lines</text>
</a>
</g>
</g>
<!-- Node36&#45;&gt;Node37 -->
<g id="edge47" class="edge">
<title>Node36&#45;&gt;Node37</title>
<path fill="none" stroke="midnightblue" d="M1112.25,-267C1090.57,-267 1065.96,-267 1045.74,-267"/>
<polygon fill="midnightblue" stroke="midnightblue" points="1112.3,-270.5 1122.3,-267 1112.3,-263.5 1112.3,-270.5"/>
</g>
<!-- Node37&#45;&gt;Node33 -->
<g id="edge48" class="edge">
<title>Node37&#45;&gt;Node33</title>
<path fill="none" stroke="midnightblue" d="M951.09,-267C934.08,-267 915.45,-267 899.53,-267"/>
<polygon fill="midnightblue" stroke="midnightblue" points="951.43,-270.5 961.43,-267 951.43,-263.5 951.43,-270.5"/>
</g>
<!-- Node38&#45;&gt;Node31 -->
<g id="edge50" class="edge">
<title>Node38&#45;&gt;Node31</title>
<path fill="none" stroke="midnightblue" d="M1260.65,-191.42C1250.1,-190.23 1239.38,-189.03 1229.16,-187.88"/>
<polygon fill="midnightblue" stroke="midnightblue" points="1260.36,-194.91 1270.69,-192.55 1261.15,-187.95 1260.36,-194.91"/>
</g>
<!-- Node39&#45;&gt;Node36 -->
<g id="edge52" class="edge">
<title>Node39&#45;&gt;Node36</title>
<path fill="none" stroke="midnightblue" d="M1283.86,-273.17C1260.6,-271.93 1233.65,-270.5 1211.59,-269.32"/>
<polygon fill="midnightblue" stroke="midnightblue" points="1283.74,-276.67 1293.92,-273.71 1284.12,-269.68 1283.74,-276.67"/>
</g>
<!-- Node40&#45;&gt;Node31 -->
<g id="edge54" class="edge">
<title>Node40&#45;&gt;Node31</title>
<path fill="none" stroke="midnightblue" d="M1266.96,-169.87C1254.36,-171.29 1241.32,-172.76 1229.01,-174.14"/>
<polygon fill="midnightblue" stroke="midnightblue" points="1267.39,-173.35 1276.94,-168.75 1266.61,-166.39 1267.39,-173.35"/>
</g>
<!-- Node41&#45;&gt;Node8 -->
<g id="edge58" class="edge">
<title>Node41&#45;&gt;Node8</title>
<path fill="none" stroke="midnightblue" d="M800.56,-318.06C728.11,-323.59 600.39,-334.8 492,-352 476.01,-354.54 458.57,-358.11 443.42,-361.47"/>
<polygon fill="midnightblue" stroke="midnightblue" points="801.13,-321.53 810.84,-317.29 800.61,-314.55 801.13,-321.53"/>
</g>
<!-- Node43 -->
<g id="node43" class="node">
<title>Node43</title>
<g id="a_node43"><a xlink:href="render_8h.html#a492035e87e08c0c7a9e93a3fe4605cc2" target="_top" xlink:title="Rotates the camera with a keypress.">
<polygon fill="none" stroke="black" points="1109.5,-19.5 1109.5,-38.5 1224.5,-38.5 1224.5,-19.5 1109.5,-19.5"/>
<text text-anchor="middle" x="1167" y="-26.5" font-family="Helvetica,sans-Serif" font-size="10.00">ft_keyhook_rot_cam</text>
</a>
</g>
</g>
<!-- Node42&#45;&gt;Node43 -->
<g id="edge60" class="edge">
<title>Node42&#45;&gt;Node43</title>
<path fill="none" stroke="midnightblue" d="M1289.2,-73.5C1283.01,-71.52 1276.81,-69.34 1271,-67 1254.22,-60.24 1251.79,-54.73 1235,-48 1226.13,-44.45 1216.36,-41.28 1207.08,-38.6"/>
<polygon fill="midnightblue" stroke="midnightblue" points="1288.27,-76.88 1298.85,-76.46 1290.32,-70.19 1288.27,-76.88"/>
</g>
<!-- Node44 -->
<g id="node44" class="node">
<title>Node44</title>
<g id="a_node44"><a xlink:href="render_8h.html#a19285d1e97e1ac6d6d0708ecceb354ed" target="_top" xlink:title="Rotates a 3D vector with a keypress.">
<polygon fill="none" stroke="black" points="1111.5,-95.5 1111.5,-114.5 1222.5,-114.5 1222.5,-95.5 1111.5,-95.5"/>
<text text-anchor="middle" x="1167" y="-102.5" font-family="Helvetica,sans-Serif" font-size="10.00">ft_keyhook_rot_vec</text>
</a>
</g>
</g>
<!-- Node42&#45;&gt;Node44 -->
<g id="edge61" class="edge">
<title>Node42&#45;&gt;Node44</title>
<path fill="none" stroke="midnightblue" d="M1278.44,-92.58C1260.35,-94.62 1240.5,-96.85 1222.68,-98.85"/>
<polygon fill="midnightblue" stroke="midnightblue" points="1279.03,-96.04 1288.57,-91.44 1278.24,-89.08 1279.03,-96.04"/>
</g>
<!-- Node47 -->
<g id="node47" class="node">
<title>Node47</title>
<g id="a_node47"><a xlink:href="render_8h.html#a8b0cab63a8053d366bbefead351d039a" target="_top" xlink:title="Rotates the camera with the mouse.">
<polygon fill="none" stroke="black" points="1099,-57.5 1099,-76.5 1235,-76.5 1235,-57.5 1099,-57.5"/>
<text text-anchor="middle" x="1167" y="-64.5" font-family="Helvetica,sans-Serif" font-size="10.00">ft_mouse_hook_rot_cam</text>
</a>
</g>
</g>
<!-- Node42&#45;&gt;Node47 -->
<g id="edge64" class="edge">
<title>Node42&#45;&gt;Node47</title>
<path fill="none" stroke="midnightblue" d="M1278.56,-79.43C1264.52,-77.85 1249.41,-76.15 1235.01,-74.53"/>
<polygon fill="midnightblue" stroke="midnightblue" points="1278.24,-82.92 1288.57,-80.56 1279.03,-75.96 1278.24,-82.92"/>
</g>
<!-- Node45 -->
<g id="node45" class="node">
<title>Node45</title>
<g id="a_node45"><a xlink:href="render_8h.html#a2737927d8cc8ff5dc3bd94b3e11fc1a9" target="_top" xlink:title="Manipulates the active cylinder.">
<polygon fill="none" stroke="black" points="951.5,-114.5 951.5,-133.5 1055.5,-133.5 1055.5,-114.5 951.5,-114.5"/>
<text text-anchor="middle" x="1003.5" y="-121.5" font-family="Helvetica,sans-Serif" font-size="10.00">ft_manip_cylinder</text>
</a>
</g>
</g>
<!-- Node44&#45;&gt;Node45 -->
<g id="edge62" class="edge">
<title>Node44&#45;&gt;Node45</title>
<path fill="none" stroke="midnightblue" d="M1101.01,-112.65C1085.89,-114.43 1070,-116.29 1055.58,-117.99"/>
<polygon fill="midnightblue" stroke="midnightblue" points="1101.8,-116.08 1111.32,-111.43 1100.98,-109.13 1101.8,-116.08"/>
</g>
<!-- Node46 -->
<g id="node46" class="node">
<title>Node46</title>
<g id="a_node46"><a xlink:href="render_8h.html#a2b397fc2e0dd418d497c05b3dff894f1" target="_top" xlink:title="Manipulates the active plane.">
<polygon fill="none" stroke="black" points="957.5,-76.5 957.5,-95.5 1049.5,-95.5 1049.5,-76.5 957.5,-76.5"/>
<text text-anchor="middle" x="1003.5" y="-83.5" font-family="Helvetica,sans-Serif" font-size="10.00">ft_manip_plane</text>
</a>
</g>
</g>
<!-- Node44&#45;&gt;Node46 -->
<g id="edge63" class="edge">
<title>Node44&#45;&gt;Node46</title>
<path fill="none" stroke="midnightblue" d="M1101.29,-97.39C1084.01,-95.35 1065.71,-93.2 1049.72,-91.32"/>
<polygon fill="midnightblue" stroke="midnightblue" points="1100.98,-100.87 1111.32,-98.57 1101.8,-93.92 1100.98,-100.87"/>
</g>
<!-- Node48&#45;&gt;Node43 -->
<g id="edge66" class="edge">
<title>Node48&#45;&gt;Node43</title>
<path fill="none" stroke="midnightblue" d="M1278.54,-41.43C1261.13,-39.47 1242.1,-37.33 1224.8,-35.39"/>
<polygon fill="midnightblue" stroke="midnightblue" points="1278.24,-44.92 1288.57,-42.56 1279.03,-37.96 1278.24,-44.92"/>
</g>
<!-- Node48&#45;&gt;Node44 -->
<g id="edge67" class="edge">
<title>Node48&#45;&gt;Node44</title>
<path fill="none" stroke="midnightblue" d="M1289.2,-60.5C1283.01,-62.48 1276.81,-64.66 1271,-67 1254.22,-73.76 1251.79,-79.27 1235,-86 1226.13,-89.55 1216.36,-92.72 1207.08,-95.4"/>
<polygon fill="midnightblue" stroke="midnightblue" points="1290.32,-63.81 1298.85,-57.54 1288.27,-57.12 1290.32,-63.81"/>
</g>
<!-- Node48&#45;&gt;Node47 -->
<g id="edge68" class="edge">
<title>Node48&#45;&gt;Node47</title>
<path fill="none" stroke="midnightblue" d="M1278.56,-54.57C1264.52,-56.15 1249.41,-57.85 1235.01,-59.47"/>
<polygon fill="midnightblue" stroke="midnightblue" points="1279.03,-58.04 1288.57,-53.44 1278.24,-51.08 1279.03,-58.04"/>
</g>
</g>
</svg>
