<?xml version="1.0" encoding="UTF-8" standalone="no"?>
<!DOCTYPE svg PUBLIC "-//W3C//DTD SVG 1.1//EN"
 "http://www.w3.org/Graphics/SVG/1.1/DTD/svg11.dtd">
<!-- Generated by graphviz version 2.43.0 (0)
 -->
<!-- Title: inc/vec3.h Pages: 1 -->
<svg width="2161pt" height="453pt"
 viewBox="0.00 0.00 2160.50 453.00" xmlns="http://www.w3.org/2000/svg" xmlns:xlink="http://www.w3.org/1999/xlink">
<g id="graph0" class="graph" transform="scale(1 1) rotate(0) translate(4 449)">
<title>inc/vec3.h</title>
<!-- Node1 -->
<g id="node1" class="node">
<title>Node1</title>
<g id="a_node1"><a xlink:title=" ">
<polygon fill="#bfbfbf" stroke="black" points="1685.5,-425.5 1685.5,-444.5 1751.5,-444.5 1751.5,-425.5 1685.5,-425.5"/>
<text text-anchor="middle" x="1718.5" y="-432.5" font-family="Helvetica,sans-Serif" font-size="10.00">inc/vec3.h</text>
</a>
</g>
</g>
<!-- Node2 -->
<g id="node2" class="node">
<title>Node2</title>
<g id="a_node2"><a xlink:href="camera_8h.html" target="_top" xlink:title=" ">
<polygon fill="none" stroke="black" points="761.5,-246.5 761.5,-265.5 841.5,-265.5 841.5,-246.5 761.5,-246.5"/>
<text text-anchor="middle" x="801.5" y="-253.5" font-family="Helvetica,sans-Serif" font-size="10.00">inc/camera.h</text>
</a>
</g>
</g>
<!-- Node1&#45;&gt;Node2 -->
<g id="edge1" class="edge">
<title>Node1&#45;&gt;Node2</title>
<path fill="none" stroke="midnightblue" d="M1675.28,-432.56C1501.44,-426.34 859.64,-399.01 800.5,-333 783.68,-314.23 792.52,-281.16 798.09,-265.58"/>
<polygon fill="midnightblue" stroke="midnightblue" points="1675.23,-436.06 1685.34,-432.92 1675.47,-429.07 1675.23,-436.06"/>
</g>
<!-- Node3 -->
<g id="node3" class="node">
<title>Node3</title>
<g id="a_node3"><a xlink:href="debug__print_8h.html" target="_top" xlink:title=" ">
<polygon fill="none" stroke="black" points="473,-190.5 473,-209.5 574,-209.5 574,-190.5 473,-190.5"/>
<text text-anchor="middle" x="523.5" y="-197.5" font-family="Helvetica,sans-Serif" font-size="10.00">inc/debug_print.h</text>
</a>
</g>
</g>
<!-- Node1&#45;&gt;Node3 -->
<g id="edge34" class="edge">
<title>Node1&#45;&gt;Node3</title>
<path fill="none" stroke="midnightblue" d="M1674.69,-433.8C1527.7,-432.77 1053.02,-426.54 905.5,-389 749.34,-349.26 582.13,-240.87 535.93,-209.57"/>
<polygon fill="midnightblue" stroke="midnightblue" points="1675.08,-437.3 1685.1,-433.86 1675.13,-430.3 1675.08,-437.3"/>
</g>
<!-- Node89 -->
<g id="node31" class="node">
<title>Node89</title>
<g id="a_node31"><a xlink:href="entities_8h.html" target="_top" xlink:title=" ">
<polygon fill="none" stroke="black" points="1397.5,-246.5 1397.5,-265.5 1477.5,-265.5 1477.5,-246.5 1397.5,-246.5"/>
<text text-anchor="middle" x="1437.5" y="-253.5" font-family="Helvetica,sans-Serif" font-size="10.00">inc/entities.h</text>
</a>
</g>
</g>
<!-- Node1&#45;&gt;Node89 -->
<g id="edge35" class="edge">
<title>Node1&#45;&gt;Node89</title>
<path fill="none" stroke="midnightblue" d="M1761.66,-432.14C1822.96,-428.49 1930.5,-418.01 1954.5,-389 1979.15,-359.21 1980.63,-330.5 1954.5,-302 1922.46,-267.05 1593.56,-259.15 1477.65,-257.45"/>
<polygon fill="midnightblue" stroke="midnightblue" points="1761.3,-428.65 1751.51,-432.71 1761.69,-435.64 1761.3,-428.65"/>
</g>
<!-- Node90 -->
<g id="node32" class="node">
<title>Node90</title>
<g id="a_node32"><a xlink:href="entities__bonus_8h.html" target="_top" xlink:title=" ">
<polygon fill="none" stroke="black" points="1247.5,-246.5 1247.5,-265.5 1361.5,-265.5 1361.5,-246.5 1247.5,-246.5"/>
<text text-anchor="middle" x="1304.5" y="-253.5" font-family="Helvetica,sans-Serif" font-size="10.00">inc/entities_bonus.h</text>
</a>
</g>
</g>
<!-- Node1&#45;&gt;Node90 -->
<g id="edge36" class="edge">
<title>Node1&#45;&gt;Node90</title>
<path fill="none" stroke="midnightblue" d="M1761.78,-424.03C1836.13,-405.06 1975.07,-360.39 1920.5,-302 1880.05,-258.72 1447.52,-271.16 1388.5,-266 1379.88,-265.25 1370.77,-264.36 1361.86,-263.45"/>
<polygon fill="midnightblue" stroke="midnightblue" points="1760.6,-420.72 1751.75,-426.54 1762.3,-427.51 1760.6,-420.72"/>
</g>
<!-- Node116 -->
<g id="node38" class="node">
<title>Node116</title>
<g id="a_node38"><a xlink:href="mat4__vec3_8h.html" target="_top" xlink:title=" ">
<polygon fill="none" stroke="black" points="358,-190.5 358,-209.5 455,-209.5 455,-190.5 358,-190.5"/>
<text text-anchor="middle" x="406.5" y="-197.5" font-family="Helvetica,sans-Serif" font-size="10.00">inc/mat4_vec3.h</text>
</a>
</g>
</g>
<!-- Node1&#45;&gt;Node116 -->
<g id="edge51" class="edge">
<title>Node1&#45;&gt;Node116</title>
<path fill="none" stroke="midnightblue" d="M1674.99,-433.37C1521.1,-430.88 1003.15,-420.32 840.5,-389 674.47,-357.03 626.81,-350.74 480.5,-266 453.27,-250.23 426.96,-223.55 414.31,-209.79"/>
<polygon fill="midnightblue" stroke="midnightblue" points="1675.37,-436.87 1685.43,-433.53 1675.48,-429.87 1675.37,-436.87"/>
</g>
<!-- Node118 -->
<g id="node40" class="node">
<title>Node118</title>
<g id="a_node40"><a xlink:href="utils__bonus_8h.html" target="_top" xlink:title=" ">
<polygon fill="none" stroke="black" points="1332.5,-369.5 1332.5,-388.5 1430.5,-388.5 1430.5,-369.5 1332.5,-369.5"/>
<text text-anchor="middle" x="1381.5" y="-376.5" font-family="Helvetica,sans-Serif" font-size="10.00">inc/utils_bonus.h</text>
</a>
</g>
</g>
<!-- Node1&#45;&gt;Node118 -->
<g id="edge55" class="edge">
<title>Node1&#45;&gt;Node118</title>
<path fill="none" stroke="midnightblue" d="M1675.3,-427.08C1612.58,-417.03 1496.62,-398.45 1430.7,-387.88"/>
<polygon fill="midnightblue" stroke="midnightblue" points="1674.84,-430.55 1685.26,-428.67 1675.94,-423.64 1674.84,-430.55"/>
</g>
<!-- Node129 -->
<g id="node47" class="node">
<title>Node129</title>
<g id="a_node47"><a xlink:href="utils__quaternion__bonus_8c.html" target="_top" xlink:title=" ">
<polygon fill="none" stroke="black" points="1662,-302.5 1662,-332.5 1775,-332.5 1775,-302.5 1662,-302.5"/>
<text text-anchor="start" x="1670" y="-320.5" font-family="Helvetica,sans-Serif" font-size="10.00">src/utils_quaternion</text>
<text text-anchor="middle" x="1718.5" y="-309.5" font-family="Helvetica,sans-Serif" font-size="10.00">_bonus.c</text>
</a>
</g>
</g>
<!-- Node1&#45;&gt;Node129 -->
<g id="edge73" class="edge">
<title>Node1&#45;&gt;Node129</title>
<path fill="none" stroke="midnightblue" d="M1718.5,-415.07C1718.5,-391.9 1718.5,-353.22 1718.5,-332.55"/>
<polygon fill="midnightblue" stroke="midnightblue" points="1715,-415.32 1718.5,-425.32 1722,-415.32 1715,-415.32"/>
</g>
<!-- Node131 -->
<g id="node49" class="node">
<title>Node131</title>
<g id="a_node49"><a xlink:href="vec3__linalgebra_8c.html" target="_top" xlink:title=" ">
<polygon fill="none" stroke="black" points="1793,-308 1793,-327 1912,-327 1912,-308 1793,-308"/>
<text text-anchor="middle" x="1852.5" y="-315" font-family="Helvetica,sans-Serif" font-size="10.00">src/vec3_linalgebra.c</text>
</a>
</g>
</g>
<!-- Node1&#45;&gt;Node131 -->
<g id="edge75" class="edge">
<title>Node1&#45;&gt;Node131</title>
<path fill="none" stroke="midnightblue" d="M1736.16,-418.78C1764.58,-394.28 1819.6,-346.86 1842.31,-327.28"/>
<polygon fill="midnightblue" stroke="midnightblue" points="1733.86,-416.14 1728.57,-425.32 1738.43,-421.44 1733.86,-416.14"/>
</g>
<!-- Node132 -->
<g id="node50" class="node">
<title>Node132</title>
<g id="a_node50"><a xlink:href="vec3__arithmetics_8c.html" target="_top" xlink:title=" ">
<polygon fill="none" stroke="black" points="2006.5,-369.5 2006.5,-388.5 2132.5,-388.5 2132.5,-369.5 2006.5,-369.5"/>
<text text-anchor="middle" x="2069.5" y="-376.5" font-family="Helvetica,sans-Serif" font-size="10.00">src/vec3_arithmetics.c</text>
</a>
</g>
</g>
<!-- Node1&#45;&gt;Node132 -->
<g id="edge74" class="edge">
<title>Node1&#45;&gt;Node132</title>
<path fill="none" stroke="midnightblue" d="M1761.6,-427.37C1825.15,-417.59 1943.98,-399.31 2013.98,-388.54"/>
<polygon fill="midnightblue" stroke="midnightblue" points="1760.87,-423.94 1751.52,-428.92 1761.94,-430.86 1760.87,-423.94"/>
</g>
<!-- Node2&#45;&gt;Node3 -->
<g id="edge2" class="edge">
<title>Node2&#45;&gt;Node3</title>
<path fill="none" stroke="midnightblue" d="M751.28,-245.24C698.78,-235.05 617.24,-219.21 567.28,-209.5"/>
<polygon fill="midnightblue" stroke="midnightblue" points="750.89,-248.73 761.37,-247.21 752.22,-241.86 750.89,-248.73"/>
</g>
<!-- Node6 -->
<g id="node6" class="node">
<title>Node6</title>
<g id="a_node6"><a xlink:href="mini_r_t_8h.html" target="_top" xlink:title=" ">
<polygon fill="none" stroke="black" points="1110.5,-62 1110.5,-81 1186.5,-81 1186.5,-62 1110.5,-62"/>
<text text-anchor="middle" x="1148.5" y="-69" font-family="Helvetica,sans-Serif" font-size="10.00">inc/miniRT.h</text>
</a>
</g>
</g>
<!-- Node2&#45;&gt;Node6 -->
<g id="edge5" class="edge">
<title>Node2&#45;&gt;Node6</title>
<path fill="none" stroke="midnightblue" d="M833.7,-242.3C859.63,-230.18 889.36,-210.72 873.5,-190 836.28,-141.37 777.72,-202.63 740.5,-154 732.13,-143.06 731.25,-133.21 740.5,-123 794.6,-63.23 1022.48,-102.96 1101.5,-87 1108.87,-85.51 1116.72,-83.33 1123.86,-81.12"/>
<polygon fill="midnightblue" stroke="midnightblue" points="832.13,-239.17 824.41,-246.43 834.97,-245.57 832.13,-239.17"/>
</g>
<!-- Node8 -->
<g id="node8" class="node">
<title>Node8</title>
<g id="a_node8"><a xlink:href="parse_8h.html" target="_top" xlink:title=" ">
<polygon fill="none" stroke="black" points="1269.5,-190.5 1269.5,-209.5 1339.5,-209.5 1339.5,-190.5 1269.5,-190.5"/>
<text text-anchor="middle" x="1304.5" y="-197.5" font-family="Helvetica,sans-Serif" font-size="10.00">inc/parse.h</text>
</a>
</g>
</g>
<!-- Node2&#45;&gt;Node8 -->
<g id="edge7" class="edge">
<title>Node2&#45;&gt;Node8</title>
<path fill="none" stroke="midnightblue" d="M851.89,-249.62C930.73,-241.2 1088.05,-224.38 1221.5,-210 1237.21,-208.31 1254.59,-206.42 1269.37,-204.82"/>
<polygon fill="midnightblue" stroke="midnightblue" points="851.32,-246.16 841.75,-250.7 852.07,-253.12 851.32,-246.16"/>
</g>
<!-- Node13 -->
<g id="node13" class="node">
<title>Node13</title>
<g id="a_node13"><a xlink:href="parse__bonus_8h.html" target="_top" xlink:title=" ">
<polygon fill="none" stroke="black" points="959.5,-190.5 959.5,-209.5 1063.5,-209.5 1063.5,-190.5 959.5,-190.5"/>
<text text-anchor="middle" x="1011.5" y="-197.5" font-family="Helvetica,sans-Serif" font-size="10.00">inc/parse_bonus.h</text>
</a>
</g>
</g>
<!-- Node2&#45;&gt;Node13 -->
<g id="edge12" class="edge">
<title>Node2&#45;&gt;Node13</title>
<path fill="none" stroke="midnightblue" d="M844.69,-243.89C884.35,-233.7 942.27,-218.8 978.38,-209.52"/>
<polygon fill="midnightblue" stroke="midnightblue" points="843.59,-240.56 834.78,-246.44 845.33,-247.34 843.59,-240.56"/>
</g>
<!-- Node16 -->
<g id="node16" class="node">
<title>Node16</title>
<g id="a_node16"><a xlink:href="ray__bonus_8h.html" target="_top" xlink:title=" ">
<polygon fill="none" stroke="black" points="1120,-190.5 1120,-209.5 1213,-209.5 1213,-190.5 1120,-190.5"/>
<text text-anchor="middle" x="1166.5" y="-197.5" font-family="Helvetica,sans-Serif" font-size="10.00">inc/ray_bonus.h</text>
</a>
</g>
</g>
<!-- Node2&#45;&gt;Node16 -->
<g id="edge16" class="edge">
<title>Node2&#45;&gt;Node16</title>
<path fill="none" stroke="midnightblue" d="M851.62,-247.58C922.43,-237.11 1050.8,-218.12 1119.73,-207.92"/>
<polygon fill="midnightblue" stroke="midnightblue" points="850.99,-244.14 841.61,-249.07 852.01,-251.07 850.99,-244.14"/>
</g>
<!-- Node40 -->
<g id="node19" class="node">
<title>Node40</title>
<g id="a_node19"><a xlink:href="render_8h.html" target="_top" xlink:title=" ">
<polygon fill="none" stroke="red" points="608.5,-129 608.5,-148 682.5,-148 682.5,-129 608.5,-129"/>
<text text-anchor="middle" x="645.5" y="-136" font-family="Helvetica,sans-Serif" font-size="10.00">inc/render.h</text>
</a>
</g>
</g>
<!-- Node2&#45;&gt;Node40 -->
<g id="edge30" class="edge">
<title>Node2&#45;&gt;Node40</title>
<path fill="none" stroke="midnightblue" d="M751.04,-249.3C703.52,-242.78 637.34,-230.28 621.5,-210 606.7,-191.04 626.08,-162.42 637.78,-148.18"/>
<polygon fill="midnightblue" stroke="midnightblue" points="750.8,-252.8 761.17,-250.64 751.71,-245.86 750.8,-252.8"/>
</g>
<!-- Node56 -->
<g id="node28" class="node">
<title>Node56</title>
<g id="a_node28"><a xlink:href="render__bonus_8h.html" target="_top" xlink:title=" ">
<polygon fill="none" stroke="red" points="1040,-129 1040,-148 1149,-148 1149,-129 1040,-129"/>
<text text-anchor="middle" x="1094.5" y="-136" font-family="Helvetica,sans-Serif" font-size="10.00">inc/render_bonus.h</text>
</a>
</g>
</g>
<!-- Node2&#45;&gt;Node56 -->
<g id="edge31" class="edge">
<title>Node2&#45;&gt;Node56</title>
<path fill="none" stroke="midnightblue" d="M851.77,-252.83C920.88,-248.84 1040.34,-238 1072.5,-210 1090.68,-194.17 1094.02,-163.57 1094.52,-148.43"/>
<polygon fill="midnightblue" stroke="midnightblue" points="851.34,-249.35 841.55,-253.39 851.73,-256.34 851.34,-249.35"/>
</g>
<!-- Node87 -->
<g id="node29" class="node">
<title>Node87</title>
<g id="a_node29"><a xlink:href="camera_8c.html" target="_top" xlink:title=" ">
<polygon fill="none" stroke="black" points="631,-190.5 631,-209.5 710,-209.5 710,-190.5 631,-190.5"/>
<text text-anchor="middle" x="670.5" y="-197.5" font-family="Helvetica,sans-Serif" font-size="10.00">src/camera.c</text>
</a>
</g>
</g>
<!-- Node2&#45;&gt;Node87 -->
<g id="edge32" class="edge">
<title>Node2&#45;&gt;Node87</title>
<path fill="none" stroke="midnightblue" d="M771.18,-242.5C746.62,-232.38 712.68,-218.39 691.16,-209.52"/>
<polygon fill="midnightblue" stroke="midnightblue" points="770.16,-245.87 780.74,-246.44 772.83,-239.4 770.16,-245.87"/>
</g>
<!-- Node88 -->
<g id="node30" class="node">
<title>Node88</title>
<g id="a_node30"><a xlink:href="camera__movement_8c.html" target="_top" xlink:title=" ">
<polygon fill="none" stroke="black" points="728,-190.5 728,-209.5 865,-209.5 865,-190.5 728,-190.5"/>
<text text-anchor="middle" x="796.5" y="-197.5" font-family="Helvetica,sans-Serif" font-size="10.00">src/camera_movement.c</text>
</a>
</g>
</g>
<!-- Node2&#45;&gt;Node88 -->
<g id="edge33" class="edge">
<title>Node2&#45;&gt;Node88</title>
<path fill="none" stroke="midnightblue" d="M799.75,-236.1C798.92,-227.14 797.97,-216.86 797.31,-209.75"/>
<polygon fill="midnightblue" stroke="midnightblue" points="796.27,-236.45 800.67,-246.08 803.24,-235.8 796.27,-236.45"/>
</g>
<!-- Node4 -->
<g id="node4" class="node">
<title>Node4</title>
<g id="a_node4"><a xlink:href="debug__print__entity_8c.html" target="_top" xlink:title=" ">
<polygon fill="none" stroke="black" points="306.5,-129 306.5,-148 438.5,-148 438.5,-129 306.5,-129"/>
<text text-anchor="middle" x="372.5" y="-136" font-family="Helvetica,sans-Serif" font-size="10.00">src/debug_print_entity.c</text>
</a>
</g>
</g>
<!-- Node3&#45;&gt;Node4 -->
<g id="edge3" class="edge">
<title>Node3&#45;&gt;Node4</title>
<path fill="none" stroke="midnightblue" d="M492.49,-186.78C463.15,-175.22 419.87,-158.16 394.09,-148.01"/>
<polygon fill="midnightblue" stroke="midnightblue" points="491.28,-190.07 501.87,-190.48 493.84,-183.55 491.28,-190.07"/>
</g>
<!-- Node5 -->
<g id="node5" class="node">
<title>Node5</title>
<g id="a_node5"><a xlink:href="debug__print__struct_8c.html" target="_top" xlink:title=" ">
<polygon fill="none" stroke="black" points="457,-129 457,-148 590,-148 590,-129 457,-129"/>
<text text-anchor="middle" x="523.5" y="-136" font-family="Helvetica,sans-Serif" font-size="10.00">src/debug_print_struct.c</text>
</a>
</g>
</g>
<!-- Node3&#45;&gt;Node5 -->
<g id="edge4" class="edge">
<title>Node3&#45;&gt;Node5</title>
<path fill="none" stroke="midnightblue" d="M523.5,-180.32C523.5,-169.5 523.5,-156.4 523.5,-148.01"/>
<polygon fill="midnightblue" stroke="midnightblue" points="520,-180.48 523.5,-190.48 527,-180.48 520,-180.48"/>
</g>
<!-- Node7 -->
<g id="node7" class="node">
<title>Node7</title>
<g id="a_node7"><a xlink:href="main_8c.html" target="_top" xlink:title=" ">
<polygon fill="none" stroke="black" points="1115,-0.5 1115,-19.5 1182,-19.5 1182,-0.5 1115,-0.5"/>
<text text-anchor="middle" x="1148.5" y="-7.5" font-family="Helvetica,sans-Serif" font-size="10.00">src/main.c</text>
</a>
</g>
</g>
<!-- Node6&#45;&gt;Node7 -->
<g id="edge6" class="edge">
<title>Node6&#45;&gt;Node7</title>
<path fill="none" stroke="midnightblue" d="M1148.5,-51.82C1148.5,-41 1148.5,-27.9 1148.5,-19.51"/>
<polygon fill="midnightblue" stroke="midnightblue" points="1145,-51.98 1148.5,-61.98 1152,-51.98 1145,-51.98"/>
</g>
<!-- Node9 -->
<g id="node9" class="node">
<title>Node9</title>
<g id="a_node9"><a xlink:href="parse_8c.html" target="_top" xlink:title=" ">
<polygon fill="none" stroke="black" points="1290,-129 1290,-148 1359,-148 1359,-129 1290,-129"/>
<text text-anchor="middle" x="1324.5" y="-136" font-family="Helvetica,sans-Serif" font-size="10.00">src/parse.c</text>
</a>
</g>
</g>
<!-- Node8&#45;&gt;Node9 -->
<g id="edge8" class="edge">
<title>Node8&#45;&gt;Node9</title>
<path fill="none" stroke="midnightblue" d="M1310.67,-180.66C1314.32,-169.77 1318.79,-156.49 1321.64,-148.01"/>
<polygon fill="midnightblue" stroke="midnightblue" points="1307.23,-179.88 1307.37,-190.48 1313.87,-182.11 1307.23,-179.88"/>
</g>
<!-- Node10 -->
<g id="node10" class="node">
<title>Node10</title>
<g id="a_node10"><a xlink:href="parse__entity___a_c_l_8c.html" target="_top" xlink:title=" ">
<polygon fill="none" stroke="black" points="1534,-129 1534,-148 1661,-148 1661,-129 1534,-129"/>
<text text-anchor="middle" x="1597.5" y="-136" font-family="Helvetica,sans-Serif" font-size="10.00">src/parse_entity_ACL.c</text>
</a>
</g>
</g>
<!-- Node8&#45;&gt;Node10 -->
<g id="edge9" class="edge">
<title>Node8&#45;&gt;Node10</title>
<path fill="none" stroke="midnightblue" d="M1349.61,-189.78C1427.99,-173.82 1507.69,-157.67 1555.2,-148.06"/>
<polygon fill="midnightblue" stroke="midnightblue" points="1348.66,-186.4 1339.56,-191.82 1350.06,-193.26 1348.66,-186.4"/>
</g>
<!-- Node11 -->
<g id="node11" class="node">
<title>Node11</title>
<g id="a_node11"><a xlink:href="parse__entity__sp__pl__cy_8c.html" target="_top" xlink:title=" ">
<polygon fill="none" stroke="black" points="1679,-123.5 1679,-153.5 1790,-153.5 1790,-123.5 1679,-123.5"/>
<text text-anchor="start" x="1687" y="-141.5" font-family="Helvetica,sans-Serif" font-size="10.00">src/parse_entity_sp</text>
<text text-anchor="middle" x="1734.5" y="-130.5" font-family="Helvetica,sans-Serif" font-size="10.00">_pl_cy.c</text>
</a>
</g>
</g>
<!-- Node8&#45;&gt;Node11 -->
<g id="edge10" class="edge">
<title>Node8&#45;&gt;Node11</title>
<path fill="none" stroke="midnightblue" d="M1349.5,-189.98C1492.04,-168.03 1531.08,-177.13 1669.5,-154 1672.58,-153.49 1675.73,-152.92 1678.91,-152.31"/>
<polygon fill="midnightblue" stroke="midnightblue" points="1348.85,-186.54 1339.51,-191.54 1349.93,-193.45 1348.85,-186.54"/>
</g>
<!-- Node12 -->
<g id="node12" class="node">
<title>Node12</title>
<g id="a_node12"><a xlink:href="parse__line_8c.html" target="_top" xlink:title=" ">
<polygon fill="none" stroke="black" points="1808.5,-129 1808.5,-148 1900.5,-148 1900.5,-129 1808.5,-129"/>
<text text-anchor="middle" x="1854.5" y="-136" font-family="Helvetica,sans-Serif" font-size="10.00">src/parse_line.c</text>
</a>
</g>
</g>
<!-- Node8&#45;&gt;Node12 -->
<g id="edge11" class="edge">
<title>Node8&#45;&gt;Node12</title>
<path fill="none" stroke="midnightblue" d="M1350.17,-189.93C1548.97,-162.67 1603.92,-186.72 1798.5,-154 1807.31,-152.52 1816.77,-150.31 1825.35,-148.07"/>
<polygon fill="midnightblue" stroke="midnightblue" points="1349.4,-186.51 1339.98,-191.36 1350.37,-193.44 1349.4,-186.51"/>
</g>
<!-- Node13&#45;&gt;Node6 -->
<g id="edge13" class="edge">
<title>Node13&#45;&gt;Node6</title>
<path fill="none" stroke="midnightblue" d="M1011.67,-180.13C1012.78,-163.32 1016.88,-138.98 1030.5,-123 1042.71,-108.67 1090.23,-91.25 1121.11,-81.07"/>
<polygon fill="midnightblue" stroke="midnightblue" points="1008.16,-180.25 1011.3,-190.37 1015.16,-180.51 1008.16,-180.25"/>
</g>
<!-- Node14 -->
<g id="node14" class="node">
<title>Node14</title>
<g id="a_node14"><a xlink:href="parse__bonus_8c.html" target="_top" xlink:title=" ">
<polygon fill="none" stroke="black" points="879.5,-129 879.5,-148 983.5,-148 983.5,-129 879.5,-129"/>
<text text-anchor="middle" x="931.5" y="-136" font-family="Helvetica,sans-Serif" font-size="10.00">src/parse_bonus.c</text>
</a>
</g>
</g>
<!-- Node13&#45;&gt;Node14 -->
<g id="edge14" class="edge">
<title>Node13&#45;&gt;Node14</title>
<path fill="none" stroke="midnightblue" d="M991.73,-184.29C976.38,-172.88 955.64,-157.46 942.94,-148.01"/>
<polygon fill="midnightblue" stroke="midnightblue" points="989.93,-187.32 1000.04,-190.48 994.1,-181.7 989.93,-187.32"/>
</g>
<!-- Node15 -->
<g id="node15" class="node">
<title>Node15</title>
<g id="a_node15"><a xlink:href="parse__entity__sp__pl__cy__bonus_8c.html" target="_top" xlink:title=" ">
<polygon fill="none" stroke="black" points="750,-123.5 750,-153.5 861,-153.5 861,-123.5 750,-123.5"/>
<text text-anchor="start" x="758" y="-141.5" font-family="Helvetica,sans-Serif" font-size="10.00">src/parse_entity_sp</text>
<text text-anchor="middle" x="805.5" y="-130.5" font-family="Helvetica,sans-Serif" font-size="10.00">_pl_cy_bonus.c</text>
</a>
</g>
</g>
<!-- Node13&#45;&gt;Node15 -->
<g id="edge15" class="edge">
<title>Node13&#45;&gt;Node15</title>
<path fill="none" stroke="midnightblue" d="M972.06,-187.61C938.46,-177.9 890.03,-163.92 854.05,-153.52"/>
<polygon fill="midnightblue" stroke="midnightblue" points="971.41,-191.06 981.99,-190.48 973.35,-184.34 971.41,-191.06"/>
</g>
<!-- Node17 -->
<g id="node17" class="node">
<title>Node17</title>
<g id="a_node17"><a xlink:href="hit__manager_8h.html" target="_top" xlink:title=" ">
<polygon fill="none" stroke="red" points="1167.5,-129 1167.5,-148 1271.5,-148 1271.5,-129 1167.5,-129"/>
<text text-anchor="middle" x="1219.5" y="-136" font-family="Helvetica,sans-Serif" font-size="10.00">inc/hit_manager.h</text>
</a>
</g>
</g>
<!-- Node16&#45;&gt;Node17 -->
<g id="edge17" class="edge">
<title>Node16&#45;&gt;Node17</title>
<path fill="none" stroke="midnightblue" d="M1180.75,-183C1190.79,-171.74 1203.82,-157.1 1211.92,-148.01"/>
<polygon fill="midnightblue" stroke="midnightblue" points="1178.13,-180.68 1174.09,-190.48 1183.36,-185.34 1178.13,-180.68"/>
</g>
<!-- Node23 -->
<g id="node18" class="node">
<title>Node23</title>
<g id="a_node18"><a xlink:href="hit__manager__bonus_8h.html" target="_top" xlink:title=" ">
<polygon fill="none" stroke="red" points="1377,-129 1377,-148 1516,-148 1516,-129 1377,-129"/>
<text text-anchor="middle" x="1446.5" y="-136" font-family="Helvetica,sans-Serif" font-size="10.00">inc/hit_manager_bonus.h</text>
</a>
</g>
</g>
<!-- Node16&#45;&gt;Node23 -->
<g id="edge18" class="edge">
<title>Node16&#45;&gt;Node23</title>
<path fill="none" stroke="midnightblue" d="M1216.71,-188.33C1271.01,-176.79 1356.49,-158.63 1406.46,-148.01"/>
<polygon fill="midnightblue" stroke="midnightblue" points="1215.67,-184.97 1206.62,-190.48 1217.13,-191.82 1215.67,-184.97"/>
</g>
<!-- Node16&#45;&gt;Node40 -->
<g id="edge19" class="edge">
<title>Node16&#45;&gt;Node40</title>
<path fill="none" stroke="midnightblue" d="M1109.79,-193.34C1010.83,-183.4 810.49,-163.03 740.5,-154 721.47,-151.54 700.37,-148.37 682.89,-145.62"/>
<polygon fill="midnightblue" stroke="midnightblue" points="1109.6,-196.84 1119.9,-194.35 1110.3,-189.87 1109.6,-196.84"/>
</g>
<!-- Node16&#45;&gt;Node56 -->
<g id="edge28" class="edge">
<title>Node16&#45;&gt;Node56</title>
<path fill="none" stroke="midnightblue" d="M1148.32,-183.97C1134.54,-172.59 1116.12,-157.37 1104.8,-148.01"/>
<polygon fill="midnightblue" stroke="midnightblue" points="1146.25,-186.8 1156.18,-190.48 1150.71,-181.41 1146.25,-186.8"/>
</g>
<!-- Node41 -->
<g id="node20" class="node">
<title>Node41</title>
<g id="a_node20"><a xlink:href="render__blend__background_8c.html" target="_top" xlink:title=" ">
<polygon fill="none" stroke="black" points="924.5,-62 924.5,-81 1092.5,-81 1092.5,-62 924.5,-62"/>
<text text-anchor="middle" x="1008.5" y="-69" font-family="Helvetica,sans-Serif" font-size="10.00">src/render_blend_background.c</text>
</a>
</g>
</g>
<!-- Node40&#45;&gt;Node41 -->
<g id="edge20" class="edge">
<title>Node40&#45;&gt;Node41</title>
<path fill="none" stroke="midnightblue" d="M689.95,-126.75C695.84,-125.43 701.81,-124.14 707.5,-123 753.87,-113.7 881.91,-92.82 955.19,-81.02"/>
<polygon fill="midnightblue" stroke="midnightblue" points="689.14,-123.34 680.17,-128.98 690.7,-130.16 689.14,-123.34"/>
</g>
<!-- Node42 -->
<g id="node21" class="node">
<title>Node42</title>
<g id="a_node21"><a xlink:href="render__cleanup_8c.html" target="_top" xlink:title=" ">
<polygon fill="none" stroke="black" points="0,-62 0,-81 117,-81 117,-62 0,-62"/>
<text text-anchor="middle" x="58.5" y="-69" font-family="Helvetica,sans-Serif" font-size="10.00">src/render_cleanup.c</text>
</a>
</g>
</g>
<!-- Node40&#45;&gt;Node42 -->
<g id="edge21" class="edge">
<title>Node40&#45;&gt;Node42</title>
<path fill="none" stroke="midnightblue" d="M611.49,-126.03C607.15,-124.86 602.75,-123.81 598.5,-123 391.81,-83.74 334.74,-117.01 126.5,-87 115.87,-85.47 104.41,-83.25 93.98,-81"/>
<polygon fill="midnightblue" stroke="midnightblue" points="610.79,-129.48 621.37,-128.93 612.75,-122.76 610.79,-129.48"/>
</g>
<!-- Node43 -->
<g id="node22" class="node">
<title>Node43</title>
<g id="a_node22"><a xlink:href="render__draw_8c.html" target="_top" xlink:title=" ">
<polygon fill="none" stroke="black" points="135.5,-62 135.5,-81 237.5,-81 237.5,-62 135.5,-62"/>
<text text-anchor="middle" x="186.5" y="-69" font-family="Helvetica,sans-Serif" font-size="10.00">src/render_draw.c</text>
</a>
</g>
</g>
<!-- Node40&#45;&gt;Node43 -->
<g id="edge22" class="edge">
<title>Node40&#45;&gt;Node43</title>
<path fill="none" stroke="midnightblue" d="M611.18,-126.06C606.94,-124.9 602.64,-123.84 598.5,-123 444.39,-91.67 401.51,-113.53 246.5,-87 237.31,-85.43 227.44,-83.25 218.41,-81.06"/>
<polygon fill="midnightblue" stroke="midnightblue" points="610.28,-129.44 620.86,-128.9 612.24,-122.73 610.28,-129.44"/>
</g>
<!-- Node44 -->
<g id="node23" class="node">
<title>Node44</title>
<g id="a_node23"><a xlink:href="render__init__base_8c.html" target="_top" xlink:title=" ">
<polygon fill="none" stroke="black" points="256,-62 256,-81 379,-81 379,-62 256,-62"/>
<text text-anchor="middle" x="317.5" y="-69" font-family="Helvetica,sans-Serif" font-size="10.00">src/render_init_base.c</text>
</a>
</g>
</g>
<!-- Node40&#45;&gt;Node44 -->
<g id="edge23" class="edge">
<title>Node40&#45;&gt;Node44</title>
<path fill="none" stroke="midnightblue" d="M610.2,-126.07C606.28,-124.96 602.32,-123.91 598.5,-123 505.96,-100.93 480.98,-104.65 387.5,-87 377.74,-85.16 367.25,-83.05 357.43,-81.02"/>
<polygon fill="midnightblue" stroke="midnightblue" points="609.23,-129.43 619.81,-128.91 611.21,-122.72 609.23,-129.43"/>
</g>
<!-- Node45 -->
<g id="node24" class="node">
<title>Node45</title>
<g id="a_node24"><a xlink:href="render__init__mlx_8c.html" target="_top" xlink:title=" ">
<polygon fill="none" stroke="black" points="397,-62 397,-81 516,-81 516,-62 397,-62"/>
<text text-anchor="middle" x="456.5" y="-69" font-family="Helvetica,sans-Serif" font-size="10.00">src/render_init_mlx.c</text>
</a>
</g>
</g>
<!-- Node40&#45;&gt;Node45 -->
<g id="edge24" class="edge">
<title>Node40&#45;&gt;Node45</title>
<path fill="none" stroke="midnightblue" d="M610.9,-125.6C573.43,-112.71 514.57,-92.47 481.4,-81.06"/>
<polygon fill="midnightblue" stroke="midnightblue" points="609.81,-128.93 620.4,-128.87 612.08,-122.31 609.81,-128.93"/>
</g>
<!-- Node46 -->
<g id="node25" class="node">
<title>Node46</title>
<g id="a_node25"><a xlink:href="render__keyhook__camera_8c.html" target="_top" xlink:title=" ">
<polygon fill="none" stroke="black" points="534.5,-56.5 534.5,-86.5 646.5,-86.5 646.5,-56.5 534.5,-56.5"/>
<text text-anchor="start" x="542.5" y="-74.5" font-family="Helvetica,sans-Serif" font-size="10.00">src/render_keyhook</text>
<text text-anchor="middle" x="590.5" y="-63.5" font-family="Helvetica,sans-Serif" font-size="10.00">_camera.c</text>
</a>
</g>
</g>
<!-- Node40&#45;&gt;Node46 -->
<g id="edge25" class="edge">
<title>Node40&#45;&gt;Node46</title>
<path fill="none" stroke="midnightblue" d="M631.53,-120.99C622.54,-110.36 610.98,-96.7 602.42,-86.59"/>
<polygon fill="midnightblue" stroke="midnightblue" points="628.95,-123.36 638.08,-128.73 634.29,-118.84 628.95,-123.36"/>
</g>
<!-- Node47 -->
<g id="node26" class="node">
<title>Node47</title>
<g id="a_node26"><a xlink:href="render__keyhook__colour_8c.html" target="_top" xlink:title=" ">
<polygon fill="none" stroke="black" points="664.5,-56.5 664.5,-86.5 776.5,-86.5 776.5,-56.5 664.5,-56.5"/>
<text text-anchor="start" x="672.5" y="-74.5" font-family="Helvetica,sans-Serif" font-size="10.00">src/render_keyhook</text>
<text text-anchor="middle" x="720.5" y="-63.5" font-family="Helvetica,sans-Serif" font-size="10.00">_colour.c</text>
</a>
</g>
</g>
<!-- Node40&#45;&gt;Node47 -->
<g id="edge26" class="edge">
<title>Node40&#45;&gt;Node47</title>
<path fill="none" stroke="midnightblue" d="M663.47,-121.93C675.87,-111.18 692.23,-97 704.24,-86.59"/>
<polygon fill="midnightblue" stroke="midnightblue" points="660.88,-119.54 655.61,-128.73 665.46,-124.83 660.88,-119.54"/>
</g>
<!-- Node48 -->
<g id="node27" class="node">
<title>Node48</title>
<g id="a_node27"><a xlink:href="render__keyhook__hittable_8c.html" target="_top" xlink:title=" ">
<polygon fill="none" stroke="black" points="794.5,-56.5 794.5,-86.5 906.5,-86.5 906.5,-56.5 794.5,-56.5"/>
<text text-anchor="start" x="802.5" y="-74.5" font-family="Helvetica,sans-Serif" font-size="10.00">src/render_keyhook</text>
<text text-anchor="middle" x="850.5" y="-63.5" font-family="Helvetica,sans-Serif" font-size="10.00">_hittable.c</text>
</a>
</g>
</g>
<!-- Node40&#45;&gt;Node48 -->
<g id="edge27" class="edge">
<title>Node40&#45;&gt;Node48</title>
<path fill="none" stroke="midnightblue" d="M682.48,-125.77C717.24,-114.75 769.31,-98.24 806.26,-86.53"/>
<polygon fill="midnightblue" stroke="midnightblue" points="681.2,-122.51 672.72,-128.87 683.31,-129.18 681.2,-122.51"/>
</g>
<!-- Node56&#45;&gt;Node6 -->
<g id="edge29" class="edge">
<title>Node56&#45;&gt;Node6</title>
<path fill="none" stroke="midnightblue" d="M1108.4,-120.77C1118.93,-108.1 1132.96,-91.2 1141.33,-81.13"/>
<polygon fill="midnightblue" stroke="midnightblue" points="1105.48,-118.81 1101.78,-128.73 1110.87,-123.28 1105.48,-118.81"/>
</g>
<!-- Node90&#45;&gt;Node3 -->
<g id="edge39" class="edge">
<title>Node90&#45;&gt;Node3</title>
<path fill="none" stroke="midnightblue" d="M1237,-251.13C1114.37,-243.97 846.83,-227.77 621.5,-210 606.09,-208.78 589.32,-207.3 574.09,-205.9"/>
<polygon fill="midnightblue" stroke="midnightblue" points="1237.16,-254.65 1247.35,-251.73 1237.57,-247.66 1237.16,-254.65"/>
</g>
<!-- Node90&#45;&gt;Node8 -->
<g id="edge45" class="edge">
<title>Node90&#45;&gt;Node8</title>
<path fill="none" stroke="midnightblue" d="M1304.5,-235.8C1304.5,-226.91 1304.5,-216.78 1304.5,-209.75"/>
<polygon fill="midnightblue" stroke="midnightblue" points="1301,-236.08 1304.5,-246.08 1308,-236.08 1301,-236.08"/>
</g>
<!-- Node90&#45;&gt;Node13 -->
<g id="edge46" class="edge">
<title>Node90&#45;&gt;Node13</title>
<path fill="none" stroke="midnightblue" d="M1248.07,-244.6C1192.7,-234.4 1109.27,-219.02 1057.71,-209.52"/>
<polygon fill="midnightblue" stroke="midnightblue" points="1247.6,-248.07 1258.07,-246.44 1248.87,-241.19 1247.6,-248.07"/>
</g>
<!-- Node90&#45;&gt;Node16 -->
<g id="edge48" class="edge">
<title>Node90&#45;&gt;Node16</title>
<path fill="none" stroke="midnightblue" d="M1273.25,-242.77C1247.33,-232.63 1211.14,-218.47 1188.26,-209.52"/>
<polygon fill="midnightblue" stroke="midnightblue" points="1272.05,-246.06 1282.63,-246.44 1274.6,-239.54 1272.05,-246.06"/>
</g>
<!-- Node90&#45;&gt;Node40 -->
<g id="edge49" class="edge">
<title>Node90&#45;&gt;Node40</title>
<path fill="none" stroke="midnightblue" d="M1237.21,-249.03C1165.7,-242.08 1049.51,-229.07 950.5,-210 915.78,-203.31 907.88,-198.27 873.5,-190 806.49,-173.88 727.93,-156.9 682.72,-147.31"/>
<polygon fill="midnightblue" stroke="midnightblue" points="1237.14,-252.54 1247.43,-250.01 1237.81,-245.57 1237.14,-252.54"/>
</g>
<!-- Node90&#45;&gt;Node56 -->
<g id="edge50" class="edge">
<title>Node90&#45;&gt;Node56</title>
<path fill="none" stroke="midnightblue" d="M1287.95,-239.69C1271.89,-225.43 1246.37,-204.28 1221.5,-190 1189.3,-171.5 1149.01,-156.75 1122.55,-148.07"/>
<polygon fill="midnightblue" stroke="midnightblue" points="1285.66,-242.34 1295.43,-246.45 1290.35,-237.15 1285.66,-242.34"/>
</g>
<!-- Node91 -->
<g id="node33" class="node">
<title>Node91</title>
<g id="a_node33"><a xlink:href="check_8h.html" target="_top" xlink:title=" ">
<polygon fill="none" stroke="red" points="1957,-129 1957,-148 2028,-148 2028,-129 1957,-129"/>
<text text-anchor="middle" x="1992.5" y="-136" font-family="Helvetica,sans-Serif" font-size="10.00">inc/check.h</text>
</a>
</g>
</g>
<!-- Node90&#45;&gt;Node91 -->
<g id="edge37" class="edge">
<title>Node90&#45;&gt;Node91</title>
<path fill="none" stroke="midnightblue" d="M1339.89,-243.08C1364.25,-234.57 1397.2,-222.47 1425.5,-210 1443.33,-202.15 1445.76,-195.3 1464.5,-190 1663.1,-133.81 1723.37,-184.55 1927.5,-154 1937.68,-152.48 1948.63,-150.26 1958.6,-148.02"/>
<polygon fill="midnightblue" stroke="midnightblue" points="1338.65,-239.8 1330.34,-246.38 1340.94,-246.42 1338.65,-239.8"/>
</g>
<!-- Node99 -->
<g id="node34" class="node">
<title>Node99</title>
<g id="a_node34"><a xlink:href="check__bonus_8h.html" target="_top" xlink:title=" ">
<polygon fill="none" stroke="red" points="2046.5,-129 2046.5,-148 2152.5,-148 2152.5,-129 2046.5,-129"/>
<text text-anchor="middle" x="2099.5" y="-136" font-family="Helvetica,sans-Serif" font-size="10.00">inc/check_bonus.h</text>
</a>
</g>
</g>
<!-- Node90&#45;&gt;Node99 -->
<g id="edge38" class="edge">
<title>Node90&#45;&gt;Node99</title>
<path fill="none" stroke="midnightblue" d="M1371.92,-247.46C1377.53,-246.93 1383.11,-246.44 1388.5,-246 1461.59,-240.09 1982.97,-244.83 2047.5,-210 2073.06,-196.2 2089.43,-163.75 2096.09,-148.16"/>
<polygon fill="midnightblue" stroke="midnightblue" points="1371.46,-243.99 1361.85,-248.45 1372.14,-250.96 1371.46,-243.99"/>
</g>
<!-- Node103 -->
<g id="node35" class="node">
<title>Node103</title>
<g id="a_node35"><a xlink:href="error__msg_8h.html" target="_top" xlink:title=" ">
<polygon fill="none" stroke="red" points="1946.5,-190.5 1946.5,-209.5 2038.5,-209.5 2038.5,-190.5 1946.5,-190.5"/>
<text text-anchor="middle" x="1992.5" y="-197.5" font-family="Helvetica,sans-Serif" font-size="10.00">inc/error_msg.h</text>
</a>
</g>
</g>
<!-- Node90&#45;&gt;Node103 -->
<g id="edge40" class="edge">
<title>Node90&#45;&gt;Node103</title>
<path fill="none" stroke="midnightblue" d="M1371.93,-247.58C1377.54,-247.02 1383.11,-246.49 1388.5,-246 1596.37,-227.13 1845.02,-210.47 1946.23,-203.93"/>
<polygon fill="midnightblue" stroke="midnightblue" points="1371.46,-244.11 1361.86,-248.6 1372.16,-251.08 1371.46,-244.11"/>
</g>
<!-- Node114 -->
<g id="node36" class="node">
<title>Node114</title>
<g id="a_node36"><a xlink:href="init_8h.html" target="_top" xlink:title=" ">
<polygon fill="none" stroke="black" points="1358,-190.5 1358,-209.5 1417,-209.5 1417,-190.5 1358,-190.5"/>
<text text-anchor="middle" x="1387.5" y="-197.5" font-family="Helvetica,sans-Serif" font-size="10.00">inc/init.h</text>
</a>
</g>
</g>
<!-- Node90&#45;&gt;Node114 -->
<g id="edge43" class="edge">
<title>Node90&#45;&gt;Node114</title>
<path fill="none" stroke="midnightblue" d="M1326.6,-240.62C1341.76,-230.76 1361.38,-217.99 1374.2,-209.65"/>
<polygon fill="midnightblue" stroke="midnightblue" points="1324.31,-237.94 1317.84,-246.32 1328.13,-243.8 1324.31,-237.94"/>
</g>
<!-- Node115 -->
<g id="node37" class="node">
<title>Node115</title>
<g id="a_node37"><a xlink:href="ray_8h.html" target="_top" xlink:title=" ">
<polygon fill="none" stroke="black" points="1474,-190.5 1474,-209.5 1531,-209.5 1531,-190.5 1474,-190.5"/>
<text text-anchor="middle" x="1502.5" y="-197.5" font-family="Helvetica,sans-Serif" font-size="10.00">inc/ray.h</text>
</a>
</g>
</g>
<!-- Node90&#45;&gt;Node115 -->
<g id="edge47" class="edge">
<title>Node90&#45;&gt;Node115</title>
<path fill="none" stroke="midnightblue" d="M1345.7,-243.76C1384.03,-233.31 1440.17,-218 1473.84,-208.82"/>
<polygon fill="midnightblue" stroke="midnightblue" points="1344.6,-240.44 1335.87,-246.44 1346.44,-247.19 1344.6,-240.44"/>
</g>
<!-- Node103&#45;&gt;Node91 -->
<g id="edge41" class="edge">
<title>Node103&#45;&gt;Node91</title>
<path fill="none" stroke="midnightblue" d="M1992.5,-180.32C1992.5,-169.5 1992.5,-156.4 1992.5,-148.01"/>
<polygon fill="midnightblue" stroke="midnightblue" points="1989,-180.48 1992.5,-190.48 1996,-180.48 1989,-180.48"/>
</g>
<!-- Node103&#45;&gt;Node99 -->
<g id="edge42" class="edge">
<title>Node103&#45;&gt;Node99</title>
<path fill="none" stroke="midnightblue" d="M2016.68,-185.56C2037.38,-174.04 2066.57,-157.81 2084.2,-148.01"/>
<polygon fill="midnightblue" stroke="midnightblue" points="2014.87,-182.56 2007.83,-190.48 2018.27,-188.67 2014.87,-182.56"/>
</g>
<!-- Node114&#45;&gt;Node6 -->
<g id="edge44" class="edge">
<title>Node114&#45;&gt;Node6</title>
<path fill="none" stroke="midnightblue" d="M1427.1,-190.66C1428.58,-190.42 1430.05,-190.2 1431.5,-190 1484.25,-182.65 1873.28,-193.05 1909.5,-154 1918.87,-143.9 1918.91,-133.06 1909.5,-123 1859.77,-69.86 1334.08,-70.75 1186.71,-72.06"/>
<polygon fill="midnightblue" stroke="midnightblue" points="1426.48,-187.21 1417.23,-192.39 1427.69,-194.11 1426.48,-187.21"/>
</g>
<!-- Node116&#45;&gt;Node40 -->
<g id="edge52" class="edge">
<title>Node116&#45;&gt;Node40</title>
<path fill="none" stroke="midnightblue" d="M456.43,-188.29C495.32,-179.71 550.57,-166.99 598.5,-154 605.09,-152.21 612.16,-150.13 618.75,-148.1"/>
<polygon fill="midnightblue" stroke="midnightblue" points="455.43,-184.93 446.41,-190.49 456.93,-191.76 455.43,-184.93"/>
</g>
<!-- Node116&#45;&gt;Node56 -->
<g id="edge53" class="edge">
<title>Node116&#45;&gt;Node56</title>
<path fill="none" stroke="midnightblue" d="M465.47,-189.87C699.42,-164.01 761.45,-178.25 992.5,-154 1007.89,-152.38 1024.52,-150.21 1039.8,-148.03"/>
<polygon fill="midnightblue" stroke="midnightblue" points="464.83,-186.42 455.28,-191.01 465.61,-193.37 464.83,-186.42"/>
</g>
<!-- Node117 -->
<g id="node39" class="node">
<title>Node117</title>
<g id="a_node39"><a xlink:href="mat4__vec3__rotate_8c.html" target="_top" xlink:title=" ">
<polygon fill="none" stroke="black" points="157,-129 157,-148 288,-148 288,-129 157,-129"/>
<text text-anchor="middle" x="222.5" y="-136" font-family="Helvetica,sans-Serif" font-size="10.00">src/mat4_vec3_rotate.c</text>
</a>
</g>
</g>
<!-- Node116&#45;&gt;Node117 -->
<g id="edge54" class="edge">
<title>Node116&#45;&gt;Node117</title>
<path fill="none" stroke="midnightblue" d="M370.57,-187.38C334.8,-175.82 280.76,-158.34 248.81,-148.01"/>
<polygon fill="midnightblue" stroke="midnightblue" points="369.55,-190.73 380.14,-190.48 371.7,-184.07 369.55,-190.73"/>
</g>
<!-- Node118&#45;&gt;Node2 -->
<g id="edge56" class="edge">
<title>Node118&#45;&gt;Node2</title>
<path fill="none" stroke="midnightblue" d="M1322.15,-377.1C1185.63,-374.47 858.14,-364.9 820.5,-333 800.58,-316.12 799.85,-281.81 800.73,-265.71"/>
<polygon fill="midnightblue" stroke="midnightblue" points="1322.36,-380.6 1332.42,-377.29 1322.49,-373.6 1322.36,-380.6"/>
</g>
<!-- Node118&#45;&gt;Node17 -->
<g id="edge62" class="edge">
<title>Node118&#45;&gt;Node17</title>
<path fill="none" stroke="midnightblue" d="M1381.64,-359.11C1382.73,-342.28 1386.82,-317.93 1400.5,-302 1427.5,-270.57 1452.41,-289.56 1486.5,-266 1520.38,-242.59 1566.54,-221.06 1539.5,-190 1501.34,-146.17 1337.61,-164.73 1280.5,-154 1271.51,-152.31 1261.86,-150.17 1252.94,-148.05"/>
<polygon fill="midnightblue" stroke="midnightblue" points="1378.13,-359.24 1381.28,-369.36 1385.13,-359.49 1378.13,-359.24"/>
</g>
<!-- Node118&#45;&gt;Node23 -->
<g id="edge63" class="edge">
<title>Node118&#45;&gt;Node23</title>
<path fill="none" stroke="midnightblue" d="M1440.62,-374.93C1502.26,-370.34 1592.86,-359.22 1614.5,-333 1644.88,-296.19 1630.98,-249.08 1573.5,-190 1551.91,-167.81 1519.33,-155.12 1492.57,-148.01"/>
<polygon fill="midnightblue" stroke="midnightblue" points="1440.34,-371.44 1430.62,-375.63 1440.84,-378.42 1440.34,-371.44"/>
</g>
<!-- Node119 -->
<g id="node41" class="node">
<title>Node119</title>
<g id="a_node41"><a xlink:href="colour_8h.html" target="_top" xlink:title=" ">
<polygon fill="none" stroke="red" points="1409.5,-308 1409.5,-327 1481.5,-327 1481.5,-308 1409.5,-308"/>
<text text-anchor="middle" x="1445.5" y="-315" font-family="Helvetica,sans-Serif" font-size="10.00">inc/colour.h</text>
</a>
</g>
</g>
<!-- Node118&#45;&gt;Node119 -->
<g id="edge57" class="edge">
<title>Node118&#45;&gt;Node119</title>
<path fill="none" stroke="midnightblue" d="M1398.01,-362.65C1410.21,-351.31 1426.37,-336.28 1436.35,-327.01"/>
<polygon fill="midnightblue" stroke="midnightblue" points="1395.61,-360.1 1390.67,-369.48 1400.38,-365.23 1395.61,-360.1"/>
</g>
<!-- Node121 -->
<g id="node42" class="node">
<title>Node121</title>
<g id="a_node42"><a xlink:href="colour__bonus_8h.html" target="_top" xlink:title=" ">
<polygon fill="none" stroke="red" points="1246,-308 1246,-327 1353,-327 1353,-308 1246,-308"/>
<text text-anchor="middle" x="1299.5" y="-315" font-family="Helvetica,sans-Serif" font-size="10.00">inc/colour_bonus.h</text>
</a>
</g>
</g>
<!-- Node118&#45;&gt;Node121 -->
<g id="edge58" class="edge">
<title>Node118&#45;&gt;Node121</title>
<path fill="none" stroke="midnightblue" d="M1361.23,-363.29C1345.5,-351.88 1324.25,-336.46 1311.23,-327.01"/>
<polygon fill="midnightblue" stroke="midnightblue" points="1359.6,-366.43 1369.75,-369.48 1363.71,-360.77 1359.6,-366.43"/>
</g>
<!-- Node123 -->
<g id="node43" class="node">
<title>Node123</title>
<g id="a_node43"><a xlink:href="mat4_8h.html" target="_top" xlink:title=" ">
<polygon fill="none" stroke="red" points="489.5,-246.5 489.5,-265.5 557.5,-265.5 557.5,-246.5 489.5,-246.5"/>
<text text-anchor="middle" x="523.5" y="-253.5" font-family="Helvetica,sans-Serif" font-size="10.00">inc/mat4.h</text>
</a>
</g>
</g>
<!-- Node118&#45;&gt;Node123 -->
<g id="edge64" class="edge">
<title>Node118&#45;&gt;Node123</title>
<path fill="none" stroke="midnightblue" d="M1321.99,-377.12C1216.26,-374.73 989.07,-365.86 800.5,-333 705.68,-316.48 596.39,-281.67 548.34,-265.54"/>
<polygon fill="midnightblue" stroke="midnightblue" points="1322.06,-380.62 1332.14,-377.34 1322.21,-373.62 1322.06,-380.62"/>
</g>
<!-- Node126 -->
<g id="node44" class="node">
<title>Node126</title>
<g id="a_node44"><a xlink:href="utils__interval_8c.html" target="_top" xlink:title=" ">
<polygon fill="none" stroke="black" points="1499.5,-308 1499.5,-327 1605.5,-327 1605.5,-308 1499.5,-308"/>
<text text-anchor="middle" x="1552.5" y="-315" font-family="Helvetica,sans-Serif" font-size="10.00">src/utils_interval.c</text>
</a>
</g>
</g>
<!-- Node118&#45;&gt;Node126 -->
<g id="edge67" class="edge">
<title>Node118&#45;&gt;Node126</title>
<path fill="none" stroke="midnightblue" d="M1415.75,-366.08C1448.99,-354.52 1498.61,-337.25 1528.05,-327.01"/>
<polygon fill="midnightblue" stroke="midnightblue" points="1414.29,-362.88 1406,-369.48 1416.59,-369.49 1414.29,-362.88"/>
</g>
<!-- Node127 -->
<g id="node45" class="node">
<title>Node127</title>
<g id="a_node45"><a xlink:href="utils__math_8c.html" target="_top" xlink:title=" ">
<polygon fill="none" stroke="black" points="829.5,-308 829.5,-327 923.5,-327 923.5,-308 829.5,-308"/>
<text text-anchor="middle" x="876.5" y="-315" font-family="Helvetica,sans-Serif" font-size="10.00">src/utils_math.c</text>
</a>
</g>
</g>
<!-- Node118&#45;&gt;Node127 -->
<g id="edge68" class="edge">
<title>Node118&#45;&gt;Node127</title>
<path fill="none" stroke="midnightblue" d="M1322.2,-374.96C1235.9,-369.89 1070.9,-357.7 932.5,-333 923.8,-331.45 914.46,-329.25 905.96,-327.03"/>
<polygon fill="midnightblue" stroke="midnightblue" points="1322.14,-378.46 1332.33,-375.55 1322.54,-371.48 1322.14,-378.46"/>
</g>
<!-- Node128 -->
<g id="node46" class="node">
<title>Node128</title>
<g id="a_node46"><a xlink:href="utils__math__bonus_8c.html" target="_top" xlink:title=" ">
<polygon fill="none" stroke="black" points="941.5,-308 941.5,-327 1069.5,-327 1069.5,-308 941.5,-308"/>
<text text-anchor="middle" x="1005.5" y="-315" font-family="Helvetica,sans-Serif" font-size="10.00">src/utils_math_bonus.c</text>
</a>
</g>
</g>
<!-- Node118&#45;&gt;Node128 -->
<g id="edge69" class="edge">
<title>Node118&#45;&gt;Node128</title>
<path fill="none" stroke="midnightblue" d="M1322.07,-370.04C1260.88,-361.65 1162.83,-347.63 1078.5,-333 1068.19,-331.21 1057.09,-329.1 1046.74,-327.06"/>
<polygon fill="midnightblue" stroke="midnightblue" points="1321.93,-373.56 1332.31,-371.44 1322.88,-366.62 1321.93,-373.56"/>
</g>
<!-- Node118&#45;&gt;Node129 -->
<g id="edge70" class="edge">
<title>Node118&#45;&gt;Node129</title>
<path fill="none" stroke="midnightblue" d="M1440.69,-368.58C1494.66,-359.84 1576.56,-346.24 1647.5,-333 1652.2,-332.12 1657.07,-331.19 1661.95,-330.23"/>
<polygon fill="midnightblue" stroke="midnightblue" points="1439.93,-365.15 1430.61,-370.2 1441.04,-372.06 1439.93,-365.15"/>
</g>
<!-- Node130 -->
<g id="node48" class="node">
<title>Node130</title>
<g id="a_node48"><a xlink:href="utils__random__bonus_8c.html" target="_top" xlink:title=" ">
<polygon fill="none" stroke="black" points="1087.5,-308 1087.5,-327 1227.5,-327 1227.5,-308 1087.5,-308"/>
<text text-anchor="middle" x="1157.5" y="-315" font-family="Helvetica,sans-Serif" font-size="10.00">src/utils_random_bonus.c</text>
</a>
</g>
</g>
<!-- Node118&#45;&gt;Node130 -->
<g id="edge71" class="edge">
<title>Node118&#45;&gt;Node130</title>
<path fill="none" stroke="midnightblue" d="M1339.7,-366.9C1296.19,-355.34 1229.01,-337.5 1189.53,-327.01"/>
<polygon fill="midnightblue" stroke="midnightblue" points="1338.84,-370.29 1349.41,-369.48 1340.64,-363.53 1338.84,-370.29"/>
</g>
<!-- Node118&#45;&gt;Node131 -->
<g id="edge72" class="edge">
<title>Node118&#45;&gt;Node131</title>
<path fill="none" stroke="midnightblue" d="M1440.79,-373.15C1519.42,-366.31 1662.39,-352.46 1783.5,-333 1793.77,-331.35 1804.83,-329.2 1815.02,-327.06"/>
<polygon fill="midnightblue" stroke="midnightblue" points="1440.25,-369.68 1430.59,-374.03 1440.85,-376.66 1440.25,-369.68"/>
</g>
<!-- Node121&#45;&gt;Node3 -->
<g id="edge59" class="edge">
<title>Node121&#45;&gt;Node3</title>
<path fill="none" stroke="midnightblue" d="M1256.43,-305.67C1249.78,-304.27 1242.98,-302.98 1236.5,-302 1023.22,-269.72 964.9,-303.64 752.5,-266 676.2,-252.48 588.82,-223.89 547.52,-209.57"/>
<polygon fill="midnightblue" stroke="midnightblue" points="1256.14,-309.19 1266.66,-307.95 1257.66,-302.36 1256.14,-309.19"/>
</g>
<!-- Node121&#45;&gt;Node89 -->
<g id="edge60" class="edge">
<title>Node121&#45;&gt;Node89</title>
<path fill="none" stroke="midnightblue" d="M1328.54,-303.98C1355.34,-292.42 1394.42,-275.58 1417.76,-265.51"/>
<polygon fill="midnightblue" stroke="midnightblue" points="1327.07,-300.8 1319.27,-307.98 1329.84,-307.23 1327.07,-300.8"/>
</g>
<!-- Node121&#45;&gt;Node90 -->
<g id="edge61" class="edge">
<title>Node121&#45;&gt;Node90</title>
<path fill="none" stroke="midnightblue" d="M1301.07,-297.82C1301.98,-287 1303.08,-273.9 1303.78,-265.51"/>
<polygon fill="midnightblue" stroke="midnightblue" points="1297.57,-297.72 1300.22,-307.98 1304.54,-298.3 1297.57,-297.72"/>
</g>
<!-- Node123&#45;&gt;Node3 -->
<g id="edge65" class="edge">
<title>Node123&#45;&gt;Node3</title>
<path fill="none" stroke="midnightblue" d="M523.5,-235.8C523.5,-226.91 523.5,-216.78 523.5,-209.75"/>
<polygon fill="midnightblue" stroke="midnightblue" points="520,-236.08 523.5,-246.08 527,-236.08 520,-236.08"/>
</g>
<!-- Node123&#45;&gt;Node116 -->
<g id="edge66" class="edge">
<title>Node123&#45;&gt;Node116</title>
<path fill="none" stroke="midnightblue" d="M495.84,-242.23C473.95,-232.13 444,-218.31 424.95,-209.52"/>
<polygon fill="midnightblue" stroke="midnightblue" points="494.41,-245.43 504.96,-246.44 497.35,-239.08 494.41,-245.43"/>
</g>
</g>
</svg>
