<?xml version="1.0" encoding="UTF-8" standalone="no"?>
<!DOCTYPE svg PUBLIC "-//W3C//DTD SVG 1.1//EN"
 "http://www.w3.org/Graphics/SVG/1.1/DTD/svg11.dtd">
<!-- Generated by graphviz version 2.43.0 (0)
 -->
<!-- Title: ft_vec3_cross Pages: 1 -->
<svg width="2567pt" height="251pt"
 viewBox="0.00 0.00 2567.00 250.70" xmlns="http://www.w3.org/2000/svg" xmlns:xlink="http://www.w3.org/1999/xlink">
<g id="graph0" class="graph" transform="scale(1 1) rotate(0) translate(4 246.7)">
<title>ft_vec3_cross</title>
<!-- Node1 -->
<g id="node1" class="node">
<title>Node1</title>
<g id="a_node1"><a xlink:title="Calculate the cross product of two vectors.">
<polygon fill="#bfbfbf" stroke="black" points="2476,-90.2 2476,-109.2 2559,-109.2 2559,-90.2 2476,-90.2"/>
<text text-anchor="middle" x="2517.5" y="-97.2" font-family="Helvetica,sans-Serif" font-size="10.00">ft_vec3_cross</text>
</a>
</g>
</g>
<!-- Node2 -->
<g id="node2" class="node">
<title>Node2</title>
<g id="a_node2"><a xlink:href="camera_8h.html#a02ed3f7206927a02c44eab5f5aba26e1" target="_top" xlink:title="Calculates basis vectors u, v, w.">
<polygon fill="none" stroke="black" points="2296,-147.2 2296,-166.2 2440,-166.2 2440,-147.2 2296,-147.2"/>
<text text-anchor="middle" x="2368" y="-154.2" font-family="Helvetica,sans-Serif" font-size="10.00">ft_cam_calc_base_vectors</text>
</a>
</g>
</g>
<!-- Node1&#45;&gt;Node2 -->
<g id="edge1" class="edge">
<title>Node1&#45;&gt;Node2</title>
<path fill="none" stroke="midnightblue" d="M2490.7,-114.12C2476.14,-121.86 2457.41,-131.12 2440,-137.7 2430.57,-141.26 2420.2,-144.43 2410.37,-147.12"/>
<polygon fill="midnightblue" stroke="midnightblue" points="2492.49,-117.14 2499.62,-109.31 2489.16,-110.98 2492.49,-117.14"/>
</g>
<!-- Node8 -->
<g id="node8" class="node">
<title>Node8</title>
<g id="a_node8"><a xlink:href="hit__manager__bonus_8h.html#abc28bafc00495161db9de547a9461cb1" target="_top" xlink:title="Transforms the Cartesian coordinates of a hit point on a cone wall into 2D texture UV&#45;coordinates in ...">
<polygon fill="none" stroke="black" points="2313,-33.2 2313,-52.2 2423,-52.2 2423,-33.2 2313,-33.2"/>
<text text-anchor="middle" x="2368" y="-40.2" font-family="Helvetica,sans-Serif" font-size="10.00">ft_get_co_uvcoords</text>
</a>
</g>
</g>
<!-- Node1&#45;&gt;Node8 -->
<g id="edge7" class="edge">
<title>Node1&#45;&gt;Node8</title>
<path fill="none" stroke="midnightblue" d="M2490.7,-85.27C2476.14,-77.54 2457.41,-68.27 2440,-61.7 2430.57,-58.13 2420.2,-54.96 2410.37,-52.28"/>
<polygon fill="midnightblue" stroke="midnightblue" points="2489.16,-88.41 2499.62,-90.09 2492.49,-82.25 2489.16,-88.41"/>
</g>
<!-- Node28 -->
<g id="node28" class="node">
<title>Node28</title>
<g id="a_node28"><a xlink:href="hit__manager__bonus_8h.html#aeb33f439a0d2093bdbcca7468e2e78b4" target="_top" xlink:title="Transforms the Cartesian coordinates of a hit point on a cylinder wall into 2D texture UV&#45;coordinates...">
<polygon fill="none" stroke="black" points="2313,-109.2 2313,-128.2 2423,-128.2 2423,-109.2 2313,-109.2"/>
<text text-anchor="middle" x="2368" y="-116.2" font-family="Helvetica,sans-Serif" font-size="10.00">ft_get_cy_uvcoords</text>
</a>
</g>
</g>
<!-- Node1&#45;&gt;Node28 -->
<g id="edge31" class="edge">
<title>Node1&#45;&gt;Node28</title>
<path fill="none" stroke="midnightblue" d="M2465.58,-106.26C2451.86,-108.02 2436.98,-109.94 2423.1,-111.73"/>
<polygon fill="midnightblue" stroke="midnightblue" points="2466.33,-109.69 2475.8,-104.94 2465.44,-102.74 2466.33,-109.69"/>
</g>
<!-- Node32 -->
<g id="node32" class="node">
<title>Node32</title>
<g id="a_node32"><a xlink:href="hit__manager__bonus_8h.html#a87d41de805dc36f90fb5002fa2d34da0" target="_top" xlink:title="Transforms the Cartesian coordinates of a hit point on a plane into 2D texture UV&#45;coordinates in the ...">
<polygon fill="none" stroke="black" points="2314,-71.2 2314,-90.2 2422,-90.2 2422,-71.2 2314,-71.2"/>
<text text-anchor="middle" x="2368" y="-78.2" font-family="Helvetica,sans-Serif" font-size="10.00">ft_get_pl_uvcoords</text>
</a>
</g>
</g>
<!-- Node1&#45;&gt;Node32 -->
<g id="edge38" class="edge">
<title>Node1&#45;&gt;Node32</title>
<path fill="none" stroke="midnightblue" d="M2465.77,-93.16C2451.64,-91.34 2436.26,-89.36 2422.01,-87.52"/>
<polygon fill="midnightblue" stroke="midnightblue" points="2465.44,-96.65 2475.8,-94.45 2466.33,-89.71 2465.44,-96.65"/>
</g>
<!-- Node3 -->
<g id="node3" class="node">
<title>Node3</title>
<g id="a_node3"><a xlink:href="camera_8h.html#a283b142012bbcea27c39f49e270d8780" target="_top" xlink:title="Initializes camera parameters.">
<polygon fill="none" stroke="black" points="2156.5,-147.2 2156.5,-166.2 2227.5,-166.2 2227.5,-147.2 2156.5,-147.2"/>
<text text-anchor="middle" x="2192" y="-154.2" font-family="Helvetica,sans-Serif" font-size="10.00">ft_cam_init</text>
</a>
</g>
</g>
<!-- Node2&#45;&gt;Node3 -->
<g id="edge2" class="edge">
<title>Node2&#45;&gt;Node3</title>
<path fill="none" stroke="midnightblue" d="M2285.71,-156.7C2265.34,-156.7 2244.56,-156.7 2227.84,-156.7"/>
<polygon fill="midnightblue" stroke="midnightblue" points="2285.98,-160.2 2295.98,-156.7 2285.98,-153.2 2285.98,-160.2"/>
</g>
<!-- Node6 -->
<g id="node6" class="node">
<title>Node6</title>
<g id="a_node6"><a xlink:href="render_8h.html#a0225ca8a98c8d5cfe2e9d259b5788e33" target="_top" xlink:title="Manipulates the camera with a keypress.">
<polygon fill="none" stroke="black" points="2149,-223.2 2149,-242.2 2235,-242.2 2235,-223.2 2149,-223.2"/>
<text text-anchor="middle" x="2192" y="-230.2" font-family="Helvetica,sans-Serif" font-size="10.00">ft_manip_cam</text>
</a>
</g>
</g>
<!-- Node2&#45;&gt;Node6 -->
<g id="edge5" class="edge">
<title>Node2&#45;&gt;Node6</title>
<path fill="none" stroke="midnightblue" d="M2342.88,-171.46C2321.65,-183.99 2289.59,-201.78 2260,-213.7 2251.14,-217.27 2241.37,-220.44 2232.09,-223.13"/>
<polygon fill="midnightblue" stroke="midnightblue" points="2344.76,-174.42 2351.55,-166.28 2341.17,-168.41 2344.76,-174.42"/>
</g>
<!-- Node7 -->
<g id="node7" class="node">
<title>Node7</title>
<g id="a_node7"><a xlink:href="render_8h.html#a8b0cab63a8053d366bbefead351d039a" target="_top" xlink:title="Rotates the camera with the mouse.">
<polygon fill="none" stroke="black" points="2124,-185.2 2124,-204.2 2260,-204.2 2260,-185.2 2124,-185.2"/>
<text text-anchor="middle" x="2192" y="-192.2" font-family="Helvetica,sans-Serif" font-size="10.00">ft_mouse_hook_rot_cam</text>
</a>
</g>
</g>
<!-- Node2&#45;&gt;Node7 -->
<g id="edge6" class="edge">
<title>Node2&#45;&gt;Node7</title>
<path fill="none" stroke="midnightblue" d="M2313.19,-168.45C2288.58,-173.82 2259.81,-180.11 2236.59,-185.18"/>
<polygon fill="midnightblue" stroke="midnightblue" points="2314.07,-171.84 2323.09,-166.29 2312.58,-165 2314.07,-171.84"/>
</g>
<!-- Node4 -->
<g id="node4" class="node">
<title>Node4</title>
<g id="a_node4"><a xlink:href="render_8h.html#a5ffbfa92a6da595a38ba795014ee593c" target="_top" xlink:title="Initializes the render struct.">
<polygon fill="none" stroke="black" points="1871,-166.2 1871,-185.2 1952,-185.2 1952,-166.2 1871,-166.2"/>
<text text-anchor="middle" x="1911.5" y="-173.2" font-family="Helvetica,sans-Serif" font-size="10.00">ft_render_init</text>
</a>
</g>
</g>
<!-- Node3&#45;&gt;Node4 -->
<g id="edge3" class="edge">
<title>Node3&#45;&gt;Node4</title>
<path fill="none" stroke="midnightblue" d="M2146.04,-159.76C2092.35,-163.43 2003.38,-169.5 1952.15,-172.99"/>
<polygon fill="midnightblue" stroke="midnightblue" points="2146.55,-163.24 2156.29,-159.06 2146.08,-156.25 2146.55,-163.24"/>
</g>
<!-- Node5 -->
<g id="node5" class="node">
<title>Node5</title>
<g id="a_node5"><a xlink:href="main_8c.html#a3c04138a5bfe5d72780bb7e82a18e627" target="_top" xlink:title=" ">
<polygon fill="none" stroke="black" points="0,-142.2 0,-161.2 41,-161.2 41,-142.2 0,-142.2"/>
<text text-anchor="middle" x="20.5" y="-149.2" font-family="Helvetica,sans-Serif" font-size="10.00">main</text>
</a>
</g>
</g>
<!-- Node4&#45;&gt;Node5 -->
<g id="edge4" class="edge">
<title>Node4&#45;&gt;Node5</title>
<path fill="none" stroke="midnightblue" d="M1860.65,-175.7C1812.79,-175.7 1738.46,-175.7 1674,-175.7 1674,-175.7 1674,-175.7 279,-175.7 189.88,-175.7 84.15,-161.27 41.15,-154.78"/>
<polygon fill="midnightblue" stroke="midnightblue" points="1860.75,-179.2 1870.75,-175.7 1860.75,-172.2 1860.75,-179.2"/>
</g>
<!-- Node9 -->
<g id="node9" class="node">
<title>Node9</title>
<g id="a_node9"><a xlink:href="hit__manager__bonus_8h.html#a69c648bba2a12763904900ce56cadb8a" target="_top" xlink:title="Overwrites the hit record &quot;rec&quot; with the new hit data found in the &quot;tmp&quot; hit record.">
<polygon fill="none" stroke="black" points="2137.5,-33.2 2137.5,-52.2 2246.5,-52.2 2246.5,-33.2 2137.5,-33.2"/>
<text text-anchor="middle" x="2192" y="-40.2" font-family="Helvetica,sans-Serif" font-size="10.00">ft_co_set_hitrecord</text>
</a>
</g>
</g>
<!-- Node8&#45;&gt;Node9 -->
<g id="edge8" class="edge">
<title>Node8&#45;&gt;Node9</title>
<path fill="none" stroke="midnightblue" d="M2302.83,-42.7C2284.4,-42.7 2264.5,-42.7 2246.77,-42.7"/>
<polygon fill="midnightblue" stroke="midnightblue" points="2302.9,-46.2 2312.9,-42.7 2302.9,-39.2 2302.9,-46.2"/>
</g>
<!-- Node10 -->
<g id="node10" class="node">
<title>Node10</title>
<g id="a_node10"><a xlink:href="hit__manager__bonus_8h.html#aebab6e1f11fc5b2e6c420276c9beee96" target="_top" xlink:title="Calculates if a cone was hit by a ray.">
<polygon fill="none" stroke="black" points="1751,-52.2 1751,-71.2 1821,-71.2 1821,-52.2 1751,-52.2"/>
<text text-anchor="middle" x="1786" y="-59.2" font-family="Helvetica,sans-Serif" font-size="10.00">ft_hit_cone</text>
</a>
</g>
</g>
<!-- Node9&#45;&gt;Node10 -->
<g id="edge9" class="edge">
<title>Node9&#45;&gt;Node10</title>
<path fill="none" stroke="midnightblue" d="M2162.18,-28.94C2141.95,-20.06 2113.96,-9.33 2088,-4.7 1983.02,14.05 1857.85,-31.53 1808.51,-52.18"/>
<polygon fill="midnightblue" stroke="midnightblue" points="2160.9,-32.19 2171.45,-33.11 2163.77,-25.81 2160.9,-32.19"/>
</g>
<!-- Node11 -->
<g id="node11" class="node">
<title>Node11</title>
<g id="a_node11"><a xlink:href="hit__bonus_8c.html#a9d5972226064b0a4d0e1359d9230abec" target="_top" xlink:title="Investigate a hittable and returns whether a hit occured or not.">
<polygon fill="none" stroke="black" points="1631,-52.2 1631,-71.2 1715,-71.2 1715,-52.2 1631,-52.2"/>
<text text-anchor="middle" x="1673" y="-59.2" font-family="Helvetica,sans-Serif" font-size="10.00">ft_hit_hittable</text>
</a>
</g>
</g>
<!-- Node10&#45;&gt;Node11 -->
<g id="edge10" class="edge">
<title>Node10&#45;&gt;Node11</title>
<path fill="none" stroke="midnightblue" d="M1740.78,-61.7C1732.38,-61.7 1723.63,-61.7 1715.32,-61.7"/>
<polygon fill="midnightblue" stroke="midnightblue" points="1740.79,-65.2 1750.79,-61.7 1740.79,-58.2 1740.79,-65.2"/>
</g>
<!-- Node12 -->
<g id="node12" class="node">
<title>Node12</title>
<g id="a_node12"><a xlink:href="lighting__bonus_8h.html#a7fe107fe556fd497ebfc4c4df70b83da" target="_top" xlink:title="Looks for the closest object hit by a ray.">
<polygon fill="none" stroke="black" points="1479,-52.2 1479,-71.2 1581,-71.2 1581,-52.2 1479,-52.2"/>
<text text-anchor="middle" x="1530" y="-59.2" font-family="Helvetica,sans-Serif" font-size="10.00">ft_get_closest_hit</text>
</a>
</g>
</g>
<!-- Node11&#45;&gt;Node12 -->
<g id="edge11" class="edge">
<title>Node11&#45;&gt;Node12</title>
<path fill="none" stroke="midnightblue" d="M1620.74,-61.7C1607.86,-61.7 1594.05,-61.7 1581.21,-61.7"/>
<polygon fill="midnightblue" stroke="midnightblue" points="1620.84,-65.2 1630.84,-61.7 1620.84,-58.2 1620.84,-65.2"/>
</g>
<!-- Node16 -->
<g id="node16" class="node">
<title>Node16</title>
<g id="a_node16"><a xlink:href="ray_8h.html#a2cffd188fb76990901db47a2c3ac638f" target="_top" xlink:title="Returns the colour of a ray.">
<polygon fill="none" stroke="black" points="959,-52.2 959,-71.2 1039,-71.2 1039,-52.2 959,-52.2"/>
<text text-anchor="middle" x="999" y="-59.2" font-family="Helvetica,sans-Serif" font-size="10.00">ft_ray_colour</text>
</a>
</g>
</g>
<!-- Node11&#45;&gt;Node16 -->
<g id="edge29" class="edge">
<title>Node11&#45;&gt;Node16</title>
<path fill="none" stroke="midnightblue" d="M1628.09,-49.63C1617.34,-47.01 1605.81,-44.5 1595,-42.7 1500.16,-26.91 1475.65,-23.7 1379.5,-23.7 1379.5,-23.7 1379.5,-23.7 1237.5,-23.7 1164.79,-23.7 1146.51,-29.52 1075,-42.7 1061.39,-45.2 1046.6,-48.77 1033.77,-52.14"/>
<polygon fill="midnightblue" stroke="midnightblue" points="1627.57,-53.1 1638.12,-52.14 1629.27,-46.31 1627.57,-53.1"/>
</g>
<!-- Node27 -->
<g id="node27" class="node">
<title>Node27</title>
<g id="a_node27"><a xlink:href="lighting_8h.html#a931177e8edb2dd5393cef7a468389a4d" target="_top" xlink:title="Determines whether the shadow ray emitted from the point of intersection is blocked on its way to the...">
<polygon fill="none" stroke="black" points="1465,-90.2 1465,-109.2 1595,-109.2 1595,-90.2 1465,-90.2"/>
<text text-anchor="middle" x="1530" y="-97.2" font-family="Helvetica,sans-Serif" font-size="10.00">ft_shadow_ray_blocked</text>
</a>
</g>
</g>
<!-- Node11&#45;&gt;Node27 -->
<g id="edge30" class="edge">
<title>Node11&#45;&gt;Node27</title>
<path fill="none" stroke="midnightblue" d="M1626.56,-73.94C1607.13,-79.18 1584.77,-85.21 1566.57,-90.11"/>
<polygon fill="midnightblue" stroke="midnightblue" points="1627.68,-77.27 1636.42,-71.29 1625.85,-70.51 1627.68,-77.27"/>
</g>
<!-- Node13 -->
<g id="node13" class="node">
<title>Node13</title>
<g id="a_node13"><a xlink:href="lighting__bonus_8h.html#ab380b8bbadc80a5a668141c8edcc4754" target="_top" xlink:title="Create reflective lighting by recursion.">
<polygon fill="none" stroke="black" points="1328,-52.2 1328,-71.2 1429,-71.2 1429,-52.2 1328,-52.2"/>
<text text-anchor="middle" x="1378.5" y="-59.2" font-family="Helvetica,sans-Serif" font-size="10.00">ft_reflective_light</text>
</a>
</g>
</g>
<!-- Node12&#45;&gt;Node13 -->
<g id="edge12" class="edge">
<title>Node12&#45;&gt;Node13</title>
<path fill="none" stroke="midnightblue" d="M1468.46,-61.7C1455.37,-61.7 1441.67,-61.7 1429.06,-61.7"/>
<polygon fill="midnightblue" stroke="midnightblue" points="1468.8,-65.2 1478.8,-61.7 1468.8,-58.2 1468.8,-65.2"/>
</g>
<!-- Node14 -->
<g id="node14" class="node">
<title>Node14</title>
<g id="a_node14"><a xlink:href="lighting__bonus_8h.html#a31af89240f5ffa2f65f1525d06121d73" target="_top" xlink:title="Computes the colour of light interacting with different material properties.">
<polygon fill="none" stroke="black" points="1185,-52.2 1185,-71.2 1292,-71.2 1292,-52.2 1185,-52.2"/>
<text text-anchor="middle" x="1238.5" y="-59.2" font-family="Helvetica,sans-Serif" font-size="10.00">ft_compute_colour</text>
</a>
</g>
</g>
<!-- Node13&#45;&gt;Node14 -->
<g id="edge13" class="edge">
<title>Node13&#45;&gt;Node14</title>
<path fill="none" stroke="midnightblue" d="M1317.48,-55C1309.01,-54.9 1300.35,-54.94 1292.04,-55.12"/>
<polygon fill="midnightblue" stroke="midnightblue" points="1317.62,-58.5 1327.68,-55.18 1317.74,-51.5 1317.62,-58.5"/>
</g>
<!-- Node14&#45;&gt;Node13 -->
<g id="edge28" class="edge">
<title>Node14&#45;&gt;Node13</title>
<path fill="none" stroke="midnightblue" d="M1302.31,-68.42C1310.82,-68.49 1319.45,-68.42 1327.68,-68.21"/>
<polygon fill="midnightblue" stroke="midnightblue" points="1302.09,-64.92 1292.04,-68.27 1301.99,-71.92 1302.09,-64.92"/>
</g>
<!-- Node15 -->
<g id="node15" class="node">
<title>Node15</title>
<g id="a_node15"><a xlink:href="scene__light__bonus_8c.html#a3d54436a3f695a60b1c2d9e504a61de8" target="_top" xlink:title="Calculate the effect of different lighting on perception.">
<polygon fill="none" stroke="black" points="1075,-52.2 1075,-71.2 1149,-71.2 1149,-52.2 1075,-52.2"/>
<text text-anchor="middle" x="1112" y="-59.2" font-family="Helvetica,sans-Serif" font-size="10.00">ft_enlighten</text>
</a>
</g>
</g>
<!-- Node14&#45;&gt;Node15 -->
<g id="edge14" class="edge">
<title>Node14&#45;&gt;Node15</title>
<path fill="none" stroke="midnightblue" d="M1174.56,-61.7C1165.9,-61.7 1157.25,-61.7 1149.3,-61.7"/>
<polygon fill="midnightblue" stroke="midnightblue" points="1174.7,-65.2 1184.7,-61.7 1174.7,-58.2 1174.7,-65.2"/>
</g>
<!-- Node15&#45;&gt;Node16 -->
<g id="edge15" class="edge">
<title>Node15&#45;&gt;Node16</title>
<path fill="none" stroke="midnightblue" d="M1064.82,-61.7C1056.34,-61.7 1047.56,-61.7 1039.31,-61.7"/>
<polygon fill="midnightblue" stroke="midnightblue" points="1064.96,-65.2 1074.96,-61.7 1064.96,-58.2 1064.96,-65.2"/>
</g>
<!-- Node17 -->
<g id="node17" class="node">
<title>Node17</title>
<g id="a_node17"><a xlink:href="render__bonus_8h.html#af5fa16c9ea3d6e6884604009e31c83de" target="_top" xlink:title="Constructs a random sample ray for anti&#45;aliasing.">
<polygon fill="none" stroke="black" points="829,-78.2 829,-97.2 923,-97.2 923,-78.2 829,-78.2"/>
<text text-anchor="middle" x="876" y="-85.2" font-family="Helvetica,sans-Serif" font-size="10.00">ft_shoot_aa_ray</text>
</a>
</g>
</g>
<!-- Node16&#45;&gt;Node17 -->
<g id="edge16" class="edge">
<title>Node16&#45;&gt;Node17</title>
<path fill="none" stroke="midnightblue" d="M948.74,-72.28C939.74,-74.21 930.4,-76.22 921.54,-78.13"/>
<polygon fill="midnightblue" stroke="midnightblue" points="949.67,-75.66 958.71,-70.14 948.2,-68.82 949.67,-75.66"/>
</g>
<!-- Node21 -->
<g id="node21" class="node">
<title>Node21</title>
<g id="a_node21"><a xlink:href="render_8h.html#a2c9085ad1ae8adcd3201a501a9a4dcde" target="_top" xlink:title="Constructs a ray and shoots it through the pixel.">
<polygon fill="none" stroke="black" points="837.5,-37.2 837.5,-56.2 914.5,-56.2 914.5,-37.2 837.5,-37.2"/>
<text text-anchor="middle" x="876" y="-44.2" font-family="Helvetica,sans-Serif" font-size="10.00">ft_shoot_ray</text>
</a>
</g>
</g>
<!-- Node16&#45;&gt;Node21 -->
<g id="edge21" class="edge">
<title>Node16&#45;&gt;Node21</title>
<path fill="none" stroke="midnightblue" d="M948.57,-55.57C937.32,-54.17 925.54,-52.71 914.85,-51.39"/>
<polygon fill="midnightblue" stroke="midnightblue" points="948.36,-59.07 958.71,-56.83 949.22,-52.12 948.36,-59.07"/>
</g>
<!-- Node18 -->
<g id="node18" class="node">
<title>Node18</title>
<g id="a_node18"><a xlink:href="render__bonus_8h.html#afef92ac33f530ff1e1ca1049ffa14d23" target="_top" xlink:title="Raytraces the scene and adds it to the sample buffer.">
<polygon fill="none" stroke="black" points="659,-78.2 659,-97.2 793,-97.2 793,-78.2 659,-78.2"/>
<text text-anchor="middle" x="726" y="-85.2" font-family="Helvetica,sans-Serif" font-size="10.00">ft_add_raytrace_sample</text>
</a>
</g>
</g>
<!-- Node17&#45;&gt;Node18 -->
<g id="edge17" class="edge">
<title>Node17&#45;&gt;Node18</title>
<path fill="none" stroke="midnightblue" d="M818.9,-87.7C810.47,-87.7 801.71,-87.7 793.09,-87.7"/>
<polygon fill="midnightblue" stroke="midnightblue" points="818.98,-91.2 828.98,-87.7 818.98,-84.2 818.98,-91.2"/>
</g>
<!-- Node20 -->
<g id="node20" class="node">
<title>Node20</title>
<g id="a_node20"><a xlink:href="render__bonus_8h.html#a6f833a234cbdbc69ce5458c79d1242a1" target="_top" xlink:title="Like ft_add_raytrace_sample(), but threaded.">
<polygon fill="none" stroke="black" points="659,-116.7 659,-146.7 793,-146.7 793,-116.7 659,-116.7"/>
<text text-anchor="start" x="667" y="-134.7" font-family="Helvetica,sans-Serif" font-size="10.00">ft_add_raytrace_sample</text>
<text text-anchor="middle" x="726" y="-123.7" font-family="Helvetica,sans-Serif" font-size="10.00">_threaded</text>
</a>
</g>
</g>
<!-- Node17&#45;&gt;Node20 -->
<g id="edge19" class="edge">
<title>Node17&#45;&gt;Node20</title>
<path fill="none" stroke="midnightblue" d="M833.11,-100.15C815.86,-105.28 795.74,-111.26 777.67,-116.63"/>
<polygon fill="midnightblue" stroke="midnightblue" points="834.3,-103.45 842.89,-97.24 832.3,-96.74 834.3,-103.45"/>
</g>
<!-- Node19 -->
<g id="node19" class="node">
<title>Node19</title>
<g id="a_node19"><a xlink:href="render__bonus_8h.html#a46e5a7c75a4d9fb06252d28cf8d18821" target="_top" xlink:title="Raytraces a sample of the scene and adds it to the sample buffer.">
<polygon fill="none" stroke="black" points="506,-110.2 506,-129.2 623,-129.2 623,-110.2 506,-110.2"/>
<text text-anchor="middle" x="564.5" y="-117.2" font-family="Helvetica,sans-Serif" font-size="10.00">ft_anti_alias_sample</text>
</a>
</g>
</g>
<!-- Node18&#45;&gt;Node19 -->
<g id="edge18" class="edge">
<title>Node18&#45;&gt;Node19</title>
<path fill="none" stroke="midnightblue" d="M667.55,-99.22C649.66,-102.81 630.15,-106.73 613.02,-110.16"/>
<polygon fill="midnightblue" stroke="midnightblue" points="668.46,-102.61 677.58,-97.21 667.08,-95.75 668.46,-102.61"/>
</g>
<!-- Node20&#45;&gt;Node19 -->
<g id="edge20" class="edge">
<title>Node20&#45;&gt;Node19</title>
<path fill="none" stroke="midnightblue" d="M648.7,-125.96C640.11,-125.31 631.47,-124.66 623.17,-124.03"/>
<polygon fill="midnightblue" stroke="midnightblue" points="648.51,-129.45 658.74,-126.71 649.03,-122.47 648.51,-129.45"/>
</g>
<!-- Node22 -->
<g id="node22" class="node">
<title>Node22</title>
<g id="a_node22"><a xlink:href="render__bonus_8h.html#a5d5ed6b28be3a532b4e17bd4a05df4d3" target="_top" xlink:title="Like ft_raytrace_sample(), but threaded.">
<polygon fill="none" stroke="black" points="671,-28.7 671,-58.7 781,-58.7 781,-28.7 671,-28.7"/>
<text text-anchor="start" x="679" y="-46.7" font-family="Helvetica,sans-Serif" font-size="10.00">ft_raytrace_sample</text>
<text text-anchor="middle" x="726" y="-35.7" font-family="Helvetica,sans-Serif" font-size="10.00">_threaded</text>
</a>
</g>
</g>
<!-- Node21&#45;&gt;Node22 -->
<g id="edge22" class="edge">
<title>Node21&#45;&gt;Node22</title>
<path fill="none" stroke="midnightblue" d="M826.93,-45.72C812.31,-45.43 796.13,-45.1 781.14,-44.79"/>
<polygon fill="midnightblue" stroke="midnightblue" points="827.2,-49.23 837.27,-45.93 827.34,-42.23 827.2,-49.23"/>
</g>
<!-- Node23 -->
<g id="node23" class="node">
<title>Node23</title>
<g id="a_node23"><a xlink:href="render__bonus_8h.html#a0ab696b1752ed3551f1cf8d8c2e7c5d8" target="_top" xlink:title="Raytraces a single sample of the scene to the sample buffer.">
<polygon fill="none" stroke="black" points="515,-47.2 515,-66.2 614,-66.2 614,-47.2 515,-47.2"/>
<text text-anchor="middle" x="564.5" y="-54.2" font-family="Helvetica,sans-Serif" font-size="10.00">ft_single_sample</text>
</a>
</g>
</g>
<!-- Node22&#45;&gt;Node23 -->
<g id="edge23" class="edge">
<title>Node22&#45;&gt;Node23</title>
<path fill="none" stroke="midnightblue" d="M660.51,-48.95C645.02,-50.22 628.72,-51.54 614.09,-52.74"/>
<polygon fill="midnightblue" stroke="midnightblue" points="660.87,-52.43 670.56,-48.13 660.3,-45.46 660.87,-52.43"/>
</g>
<!-- Node24 -->
<g id="node24" class="node">
<title>Node24</title>
<g id="a_node24"><a xlink:href="render__bonus_8h.html#a9c57490cfa20448a418091aa47a49245" target="_top" xlink:title="Raytraces a sample of the scene to the sample buffer.">
<polygon fill="none" stroke="black" points="369,-90.2 369,-109.2 470,-109.2 470,-90.2 369,-90.2"/>
<text text-anchor="middle" x="419.5" y="-97.2" font-family="Helvetica,sans-Serif" font-size="10.00">ft_render_sample</text>
</a>
</g>
</g>
<!-- Node23&#45;&gt;Node24 -->
<g id="edge24" class="edge">
<title>Node23&#45;&gt;Node24</title>
<path fill="none" stroke="midnightblue" d="M521.91,-69.2C499.65,-75.9 472.68,-84.01 452.15,-90.18"/>
<polygon fill="midnightblue" stroke="midnightblue" points="523.2,-72.47 531.76,-66.24 521.18,-65.77 523.2,-72.47"/>
</g>
<!-- Node25 -->
<g id="node25" class="node">
<title>Node25</title>
<g id="a_node25"><a xlink:href="render__loop__mlx__bonus_8c.html#a012503b6ad6ee8198a601dad994c09b7" target="_top" xlink:title="Main loop of the program.">
<polygon fill="none" stroke="black" points="227,-112.2 227,-131.2 333,-131.2 333,-112.2 227,-112.2"/>
<text text-anchor="middle" x="280" y="-119.2" font-family="Helvetica,sans-Serif" font-size="10.00">ft_programm_loop</text>
</a>
</g>
</g>
<!-- Node24&#45;&gt;Node25 -->
<g id="edge25" class="edge">
<title>Node24&#45;&gt;Node25</title>
<path fill="none" stroke="midnightblue" d="M358.97,-109.22C350.44,-110.59 341.73,-111.98 333.35,-113.32"/>
<polygon fill="midnightblue" stroke="midnightblue" points="359.54,-112.67 368.86,-107.64 358.43,-105.76 359.54,-112.67"/>
</g>
<!-- Node26 -->
<g id="node26" class="node">
<title>Node26</title>
<g id="a_node26"><a xlink:href="render__loop__mlx__bonus_8c.html#ab7a01aa5d27d2fad2942a43a31ae0d52" target="_top" xlink:title="Starts the mlx loop.">
<polygon fill="none" stroke="black" points="77,-123.2 77,-142.2 191,-142.2 191,-123.2 77,-123.2"/>
<text text-anchor="middle" x="134" y="-130.2" font-family="Helvetica,sans-Serif" font-size="10.00">ft_render_start_loop</text>
</a>
</g>
</g>
<!-- Node25&#45;&gt;Node26 -->
<g id="edge26" class="edge">
<title>Node25&#45;&gt;Node26</title>
<path fill="none" stroke="midnightblue" d="M216.56,-126.47C208.22,-127.1 199.71,-127.75 191.48,-128.38"/>
<polygon fill="midnightblue" stroke="midnightblue" points="216.9,-129.95 226.61,-125.7 216.37,-122.97 216.9,-129.95"/>
</g>
<!-- Node26&#45;&gt;Node5 -->
<g id="edge27" class="edge">
<title>Node26&#45;&gt;Node5</title>
<path fill="none" stroke="midnightblue" d="M66.99,-143.94C57.56,-145.55 48.53,-147.09 41.04,-148.37"/>
<polygon fill="midnightblue" stroke="midnightblue" points="67.65,-147.38 76.92,-142.25 66.48,-140.48 67.65,-147.38"/>
</g>
<!-- Node29 -->
<g id="node29" class="node">
<title>Node29</title>
<g id="a_node29"><a xlink:href="hit__cylinder__bonus_8c.html#a72c52cc4f5c57fc6171137d9eb6c3500" target="_top" xlink:title="Overwrites the hit record &quot;rec&quot; with the new hit data found in the &quot;tmp&quot; hit record.">
<polygon fill="none" stroke="black" points="2137.5,-109.2 2137.5,-128.2 2246.5,-128.2 2246.5,-109.2 2137.5,-109.2"/>
<text text-anchor="middle" x="2192" y="-116.2" font-family="Helvetica,sans-Serif" font-size="10.00">ft_cy_set_hitrecord</text>
</a>
</g>
</g>
<!-- Node28&#45;&gt;Node29 -->
<g id="edge32" class="edge">
<title>Node28&#45;&gt;Node29</title>
<path fill="none" stroke="midnightblue" d="M2302.83,-118.7C2284.4,-118.7 2264.5,-118.7 2246.77,-118.7"/>
<polygon fill="midnightblue" stroke="midnightblue" points="2302.9,-122.2 2312.9,-118.7 2302.9,-115.2 2302.9,-122.2"/>
</g>
<!-- Node30 -->
<g id="node30" class="node">
<title>Node30</title>
<g id="a_node30"><a xlink:href="hit__cylinder__bonus_8c.html#ad1c0dcb3141fe78ed26368ca7bb8d2b8" target="_top" xlink:title="Calculates if a cylinder was hit by a ray.">
<polygon fill="none" stroke="black" points="2002,-128.2 2002,-147.2 2088,-147.2 2088,-128.2 2002,-128.2"/>
<text text-anchor="middle" x="2045" y="-135.2" font-family="Helvetica,sans-Serif" font-size="10.00">ft_hit_cylinder</text>
</a>
</g>
</g>
<!-- Node29&#45;&gt;Node30 -->
<g id="edge33" class="edge">
<title>Node29&#45;&gt;Node30</title>
<path fill="none" stroke="midnightblue" d="M2127.35,-127.04C2114.04,-128.78 2100.32,-130.58 2088.04,-132.19"/>
<polygon fill="midnightblue" stroke="midnightblue" points="2127.96,-130.49 2137.42,-125.72 2127.05,-123.55 2127.96,-130.49"/>
</g>
<!-- Node31 -->
<g id="node31" class="node">
<title>Node31</title>
<g id="a_node31"><a xlink:href="hit__manager_8h.html#a9d5972226064b0a4d0e1359d9230abec" target="_top" xlink:title="Investigate a hittable and returns whether a hit occured or not.">
<polygon fill="none" stroke="black" points="1631,-90.2 1631,-109.2 1715,-109.2 1715,-90.2 1631,-90.2"/>
<text text-anchor="middle" x="1673" y="-97.2" font-family="Helvetica,sans-Serif" font-size="10.00">ft_hit_hittable</text>
</a>
</g>
</g>
<!-- Node30&#45;&gt;Node31 -->
<g id="edge34" class="edge">
<title>Node30&#45;&gt;Node31</title>
<path fill="none" stroke="midnightblue" d="M1991.5,-134.95C1932.74,-131.52 1834.78,-124.72 1751,-113.7 1739.28,-112.15 1726.63,-110.04 1715.04,-107.93"/>
<polygon fill="midnightblue" stroke="midnightblue" points="1991.46,-138.46 2001.65,-135.53 1991.87,-131.47 1991.46,-138.46"/>
</g>
<!-- Node31&#45;&gt;Node12 -->
<g id="edge35" class="edge">
<title>Node31&#45;&gt;Node12</title>
<path fill="none" stroke="midnightblue" d="M1626.56,-87.45C1607.13,-82.21 1584.77,-76.19 1566.57,-71.28"/>
<polygon fill="midnightblue" stroke="midnightblue" points="1625.85,-90.88 1636.42,-90.11 1627.68,-84.13 1625.85,-90.88"/>
</g>
<!-- Node31&#45;&gt;Node16 -->
<g id="edge36" class="edge">
<title>Node31&#45;&gt;Node16</title>
<path fill="none" stroke="midnightblue" d="M1628.09,-111.77C1617.34,-114.38 1605.81,-116.9 1595,-118.7 1500.16,-134.48 1475.65,-137.7 1379.5,-137.7 1379.5,-137.7 1379.5,-137.7 1237.5,-137.7 1151.35,-137.7 1055.62,-91.77 1017.27,-71.32"/>
<polygon fill="midnightblue" stroke="midnightblue" points="1629.27,-115.08 1638.12,-109.25 1627.57,-108.29 1629.27,-115.08"/>
</g>
<!-- Node31&#45;&gt;Node27 -->
<g id="edge37" class="edge">
<title>Node31&#45;&gt;Node27</title>
<path fill="none" stroke="midnightblue" d="M1620.57,-99.7C1612.27,-99.7 1603.59,-99.7 1595.03,-99.7"/>
<polygon fill="midnightblue" stroke="midnightblue" points="1620.84,-103.2 1630.84,-99.7 1620.84,-96.2 1620.84,-103.2"/>
</g>
<!-- Node32&#45;&gt;Node9 -->
<g id="edge39" class="edge">
<title>Node32&#45;&gt;Node9</title>
<path fill="none" stroke="midnightblue" d="M2313.19,-68.94C2288.58,-63.57 2259.81,-57.29 2236.59,-52.22"/>
<polygon fill="midnightblue" stroke="midnightblue" points="2312.58,-72.39 2323.09,-71.11 2314.07,-65.55 2312.58,-72.39"/>
</g>
<!-- Node32&#45;&gt;Node29 -->
<g id="edge40" class="edge">
<title>Node32&#45;&gt;Node29</title>
<path fill="none" stroke="midnightblue" d="M2313.19,-92.45C2288.58,-97.82 2259.81,-104.11 2236.59,-109.18"/>
<polygon fill="midnightblue" stroke="midnightblue" points="2314.07,-95.84 2323.09,-90.29 2312.58,-89 2314.07,-95.84"/>
</g>
<!-- Node33 -->
<g id="node33" class="node">
<title>Node33</title>
<g id="a_node33"><a xlink:href="hit__plane__bonus_8c.html#a04f04eb6383f01a28b0c7201ab52782e" target="_top" xlink:title="Calculates if a plane was hit by a ray.">
<polygon fill="none" stroke="black" points="2155,-71.2 2155,-90.2 2229,-90.2 2229,-71.2 2155,-71.2"/>
<text text-anchor="middle" x="2192" y="-78.2" font-family="Helvetica,sans-Serif" font-size="10.00">ft_hit_plane</text>
</a>
</g>
</g>
<!-- Node32&#45;&gt;Node33 -->
<g id="edge41" class="edge">
<title>Node32&#45;&gt;Node33</title>
<path fill="none" stroke="midnightblue" d="M2303.65,-80.7C2278.54,-80.7 2250.57,-80.7 2229.04,-80.7"/>
<polygon fill="midnightblue" stroke="midnightblue" points="2303.85,-84.2 2313.85,-80.7 2303.85,-77.2 2303.85,-84.2"/>
</g>
<!-- Node33&#45;&gt;Node31 -->
<g id="edge46" class="edge">
<title>Node33&#45;&gt;Node31</title>
<path fill="none" stroke="midnightblue" d="M2144.55,-82.4C2044.58,-86.08 1810.41,-94.68 1715.27,-98.18"/>
<polygon fill="midnightblue" stroke="midnightblue" points="2144.78,-85.9 2154.65,-82.03 2144.52,-78.9 2144.78,-85.9"/>
</g>
<!-- Node34 -->
<g id="node34" class="node">
<title>Node34</title>
<g id="a_node34"><a xlink:href="hit__manager__bonus_8h.html#aee5824df7f0e0c2698306f49f9a1c790" target="_top" xlink:title="Calculates potential hit of cone cap.">
<polygon fill="none" stroke="black" points="2005,-52.2 2005,-71.2 2085,-71.2 2085,-52.2 2005,-52.2"/>
<text text-anchor="middle" x="2045" y="-59.2" font-family="Helvetica,sans-Serif" font-size="10.00">ft_co_cap_hit</text>
</a>
</g>
</g>
<!-- Node33&#45;&gt;Node34 -->
<g id="edge42" class="edge">
<title>Node33&#45;&gt;Node34</title>
<path fill="none" stroke="midnightblue" d="M2144.73,-74.63C2125.51,-72.12 2103.45,-69.22 2085.06,-66.81"/>
<polygon fill="midnightblue" stroke="midnightblue" points="2144.41,-78.12 2154.78,-75.95 2145.32,-71.18 2144.41,-78.12"/>
</g>
<!-- Node36 -->
<g id="node36" class="node">
<title>Node36</title>
<g id="a_node36"><a xlink:href="hit__manager_8h.html#af2540784b9e01fbdfeacb544ea2c169a" target="_top" xlink:title="Calculates the hit point of the ray with the cylinder cap.">
<polygon fill="none" stroke="black" points="2005,-14.2 2005,-33.2 2085,-33.2 2085,-14.2 2005,-14.2"/>
<text text-anchor="middle" x="2045" y="-21.2" font-family="Helvetica,sans-Serif" font-size="10.00">ft_cy_cap_hit</text>
</a>
</g>
</g>
<!-- Node33&#45;&gt;Node36 -->
<g id="edge45" class="edge">
<title>Node33&#45;&gt;Node36</title>
<path fill="none" stroke="midnightblue" d="M2145.09,-69.06C2137.95,-66.86 2130.71,-64.39 2124,-61.7 2107.21,-54.97 2104.25,-50.65 2088,-42.7 2081.53,-39.53 2074.42,-36.24 2067.92,-33.31"/>
<polygon fill="midnightblue" stroke="midnightblue" points="2144.14,-72.43 2154.72,-71.9 2146.12,-65.72 2144.14,-72.43"/>
</g>
<!-- Node35 -->
<g id="node35" class="node">
<title>Node35</title>
<g id="a_node35"><a xlink:href="hit__manager__bonus_8h.html#a9752309af1756a6360c6459ed6747f83" target="_top" xlink:title="Calculates potential hits of a cone.">
<polygon fill="none" stroke="black" points="1857,-52.2 1857,-71.2 1966,-71.2 1966,-52.2 1857,-52.2"/>
<text text-anchor="middle" x="1911.5" y="-59.2" font-family="Helvetica,sans-Serif" font-size="10.00">ft_co_calc_pot_hits</text>
</a>
</g>
</g>
<!-- Node34&#45;&gt;Node35 -->
<g id="edge43" class="edge">
<title>Node34&#45;&gt;Node35</title>
<path fill="none" stroke="midnightblue" d="M1994.68,-61.7C1985.42,-61.7 1975.69,-61.7 1966.29,-61.7"/>
<polygon fill="midnightblue" stroke="midnightblue" points="1994.9,-65.2 2004.9,-61.7 1994.9,-58.2 1994.9,-65.2"/>
</g>
<!-- Node35&#45;&gt;Node10 -->
<g id="edge44" class="edge">
<title>Node35&#45;&gt;Node10</title>
<path fill="none" stroke="midnightblue" d="M1846.43,-61.7C1837.68,-61.7 1829,-61.7 1821.08,-61.7"/>
<polygon fill="midnightblue" stroke="midnightblue" points="1846.69,-65.2 1856.69,-61.7 1846.69,-58.2 1846.69,-65.2"/>
</g>
</g>
</svg>
