<?xml version="1.0" encoding="UTF-8" standalone="no"?>
<!DOCTYPE svg PUBLIC "-//W3C//DTD SVG 1.1//EN"
 "http://www.w3.org/Graphics/SVG/1.1/DTD/svg11.dtd">
<!-- Generated by graphviz version 2.43.0 (0)
 -->
<!-- Title: inc/vec3.h Pages: 1 -->
<svg width="2692pt" height="442pt"
 viewBox="0.00 0.00 2691.50 442.00" xmlns="http://www.w3.org/2000/svg" xmlns:xlink="http://www.w3.org/1999/xlink">
<g id="graph0" class="graph" transform="scale(1 1) rotate(0) translate(4 438)">
<title>inc/vec3.h</title>
<!-- Node1 -->
<g id="node1" class="node">
<title>Node1</title>
<g id="a_node1"><a xlink:title=" ">
<polygon fill="#bfbfbf" stroke="black" points="2030,-414.5 2030,-433.5 2096,-433.5 2096,-414.5 2030,-414.5"/>
<text text-anchor="middle" x="2063" y="-421.5" font-family="Helvetica,sans-Serif" font-size="10.00">inc/vec3.h</text>
</a>
</g>
</g>
<!-- Node2 -->
<g id="node2" class="node">
<title>Node2</title>
<g id="a_node2"><a xlink:href="camera_8h.html" target="_top" xlink:title=" ">
<polygon fill="none" stroke="black" points="1336,-246.5 1336,-265.5 1416,-265.5 1416,-246.5 1336,-246.5"/>
<text text-anchor="middle" x="1376" y="-253.5" font-family="Helvetica,sans-Serif" font-size="10.00">inc/camera.h</text>
</a>
</g>
</g>
<!-- Node1&#45;&gt;Node2 -->
<g id="edge1" class="edge">
<title>Node1&#45;&gt;Node2</title>
<path fill="none" stroke="midnightblue" d="M2019.37,-420.85C1858.74,-412.51 1307.04,-379.82 1256,-322 1229.27,-291.71 1291.37,-272.94 1335.84,-263.77"/>
<polygon fill="midnightblue" stroke="midnightblue" points="2019.64,-424.37 2029.81,-421.39 2020,-417.38 2019.64,-424.37"/>
</g>
<!-- Node3 -->
<g id="node3" class="node">
<title>Node3</title>
<g id="a_node3"><a xlink:href="debug__print_8h.html" target="_top" xlink:title=" ">
<polygon fill="none" stroke="black" points="795.5,-190.5 795.5,-209.5 896.5,-209.5 896.5,-190.5 795.5,-190.5"/>
<text text-anchor="middle" x="846" y="-197.5" font-family="Helvetica,sans-Serif" font-size="10.00">inc/debug_print.h</text>
</a>
</g>
</g>
<!-- Node1&#45;&gt;Node3 -->
<g id="edge37" class="edge">
<title>Node1&#45;&gt;Node3</title>
<path fill="none" stroke="midnightblue" d="M2019.18,-422.21C1878.39,-419.39 1438.66,-408.33 1300,-378 1121.08,-338.87 920.08,-239.33 862.31,-209.55"/>
<polygon fill="midnightblue" stroke="midnightblue" points="2019.5,-425.72 2029.57,-422.41 2019.64,-418.72 2019.5,-425.72"/>
</g>
<!-- Node92 -->
<g id="node34" class="node">
<title>Node92</title>
<g id="a_node34"><a xlink:href="entities_8h.html" target="_top" xlink:title=" ">
<polygon fill="none" stroke="black" points="1979,-246.5 1979,-265.5 2059,-265.5 2059,-246.5 1979,-246.5"/>
<text text-anchor="middle" x="2019" y="-253.5" font-family="Helvetica,sans-Serif" font-size="10.00">inc/entities.h</text>
</a>
</g>
</g>
<!-- Node1&#45;&gt;Node92 -->
<g id="edge38" class="edge">
<title>Node1&#45;&gt;Node92</title>
<path fill="none" stroke="midnightblue" d="M2106.2,-417.57C2189.94,-405.37 2361.13,-371.27 2302,-302 2271.24,-265.96 2129.55,-258.64 2059.06,-257.25"/>
<polygon fill="midnightblue" stroke="midnightblue" points="2105.61,-414.12 2096.2,-418.98 2106.59,-421.05 2105.61,-414.12"/>
</g>
<!-- Node93 -->
<g id="node35" class="node">
<title>Node93</title>
<g id="a_node35"><a xlink:href="entities__bonus_8h.html" target="_top" xlink:title=" ">
<polygon fill="none" stroke="black" points="1111,-246.5 1111,-265.5 1225,-265.5 1225,-246.5 1111,-246.5"/>
<text text-anchor="middle" x="1168" y="-253.5" font-family="Helvetica,sans-Serif" font-size="10.00">inc/entities_bonus.h</text>
</a>
</g>
</g>
<!-- Node1&#45;&gt;Node93 -->
<g id="edge39" class="edge">
<title>Node1&#45;&gt;Node93</title>
<path fill="none" stroke="midnightblue" d="M2019.35,-422.46C1885.85,-420.44 1484.54,-411.66 1359,-378 1304.86,-363.48 1292.96,-352.6 1246,-322 1219.12,-304.49 1191.04,-279.02 1177.05,-265.76"/>
<polygon fill="midnightblue" stroke="midnightblue" points="2019.54,-425.96 2029.59,-422.61 2019.65,-418.96 2019.54,-425.96"/>
</g>
<!-- Node119 -->
<g id="node40" class="node">
<title>Node119</title>
<g id="a_node40"><a xlink:href="utils_8h.html" target="_top" xlink:title=" ">
<polygon fill="none" stroke="black" points="2349,-358.5 2349,-377.5 2413,-377.5 2413,-358.5 2349,-358.5"/>
<text text-anchor="middle" x="2381" y="-365.5" font-family="Helvetica,sans-Serif" font-size="10.00">inc/utils.h</text>
</a>
</g>
</g>
<!-- Node1&#45;&gt;Node119 -->
<g id="edge52" class="edge">
<title>Node1&#45;&gt;Node119</title>
<path fill="none" stroke="midnightblue" d="M2106.32,-416.23C2160.05,-407.75 2254.41,-392.55 2335,-378 2339.48,-377.19 2344.21,-376.3 2348.85,-375.41"/>
<polygon fill="midnightblue" stroke="midnightblue" points="2105.46,-412.83 2096.13,-417.84 2106.55,-419.74 2105.46,-412.83"/>
</g>
<!-- Node121 -->
<g id="node42" class="node">
<title>Node121</title>
<g id="a_node42"><a xlink:href="utils__bonus_8h.html" target="_top" xlink:title=" ">
<polygon fill="none" stroke="black" points="1825,-358.5 1825,-377.5 1923,-377.5 1923,-358.5 1825,-358.5"/>
<text text-anchor="middle" x="1874" y="-365.5" font-family="Helvetica,sans-Serif" font-size="10.00">inc/utils_bonus.h</text>
</a>
</g>
</g>
<!-- Node1&#45;&gt;Node121 -->
<g id="edge54" class="edge">
<title>Node1&#45;&gt;Node121</title>
<path fill="none" stroke="midnightblue" d="M2022.99,-411.57C1987.33,-401.38 1935.96,-386.7 1903.81,-377.52"/>
<polygon fill="midnightblue" stroke="midnightblue" points="2022.48,-415.06 2033.05,-414.44 2024.4,-408.33 2022.48,-415.06"/>
</g>
<!-- Node130 -->
<g id="node49" class="node">
<title>Node130</title>
<g id="a_node49"><a xlink:href="vec3__linalgebra_8c.html" target="_top" xlink:title=" ">
<polygon fill="none" stroke="black" points="2173.5,-302.5 2173.5,-321.5 2292.5,-321.5 2292.5,-302.5 2173.5,-302.5"/>
<text text-anchor="middle" x="2233" y="-309.5" font-family="Helvetica,sans-Serif" font-size="10.00">src/vec3_linalgebra.c</text>
</a>
</g>
</g>
<!-- Node1&#45;&gt;Node130 -->
<g id="edge70" class="edge">
<title>Node1&#45;&gt;Node130</title>
<path fill="none" stroke="midnightblue" d="M2085.08,-408.71C2120.9,-385.53 2190.61,-340.43 2219.72,-321.59"/>
<polygon fill="midnightblue" stroke="midnightblue" points="2082.83,-406 2076.34,-414.37 2086.64,-411.87 2082.83,-406"/>
</g>
<!-- Node131 -->
<g id="node50" class="node">
<title>Node131</title>
<g id="a_node50"><a xlink:href="vec3__arithmetics_8c.html" target="_top" xlink:title=" ">
<polygon fill="none" stroke="black" points="2431,-358.5 2431,-377.5 2557,-377.5 2557,-358.5 2431,-358.5"/>
<text text-anchor="middle" x="2494" y="-365.5" font-family="Helvetica,sans-Serif" font-size="10.00">src/vec3_arithmetics.c</text>
</a>
</g>
</g>
<!-- Node1&#45;&gt;Node131 -->
<g id="edge69" class="edge">
<title>Node1&#45;&gt;Node131</title>
<path fill="none" stroke="midnightblue" d="M2106.33,-417.57C2182.78,-407.99 2341.93,-388.05 2430.7,-376.93"/>
<polygon fill="midnightblue" stroke="midnightblue" points="2105.59,-414.14 2096.1,-418.85 2106.46,-421.08 2105.59,-414.14"/>
</g>
<!-- Node2&#45;&gt;Node3 -->
<g id="edge2" class="edge">
<title>Node2&#45;&gt;Node3</title>
<path fill="none" stroke="midnightblue" d="M1325.99,-251.1C1240,-244.18 1058.65,-228.74 906,-210 902.97,-209.63 899.85,-209.22 896.71,-208.8"/>
<polygon fill="midnightblue" stroke="midnightblue" points="1325.75,-254.59 1336,-251.9 1326.31,-247.61 1325.75,-254.59"/>
</g>
<!-- Node6 -->
<g id="node6" class="node">
<title>Node6</title>
<g id="a_node6"><a xlink:href="mini_r_t_8h.html" target="_top" xlink:title=" ">
<polygon fill="none" stroke="black" points="1265,-62 1265,-81 1341,-81 1341,-62 1265,-62"/>
<text text-anchor="middle" x="1303" y="-69" font-family="Helvetica,sans-Serif" font-size="10.00">inc/miniRT.h</text>
</a>
</g>
</g>
<!-- Node2&#45;&gt;Node6 -->
<g id="edge5" class="edge">
<title>Node2&#45;&gt;Node6</title>
<path fill="none" stroke="midnightblue" d="M1380.29,-236.38C1385.43,-209.59 1391.16,-159.39 1372,-123 1361.56,-103.17 1339.43,-89.16 1323.03,-81.01"/>
<polygon fill="midnightblue" stroke="midnightblue" points="1376.83,-235.82 1378.19,-246.32 1383.68,-237.26 1376.83,-235.82"/>
</g>
<!-- Node8 -->
<g id="node8" class="node">
<title>Node8</title>
<g id="a_node8"><a xlink:href="parse_8h.html" target="_top" xlink:title=" ">
<polygon fill="none" stroke="black" points="915,-190.5 915,-209.5 985,-209.5 985,-190.5 915,-190.5"/>
<text text-anchor="middle" x="950" y="-197.5" font-family="Helvetica,sans-Serif" font-size="10.00">inc/parse.h</text>
</a>
</g>
</g>
<!-- Node2&#45;&gt;Node8 -->
<g id="edge7" class="edge">
<title>Node2&#45;&gt;Node8</title>
<path fill="none" stroke="midnightblue" d="M1325.99,-248.66C1238.71,-237.6 1060.66,-215.03 985.13,-205.45"/>
<polygon fill="midnightblue" stroke="midnightblue" points="1325.56,-252.13 1335.92,-249.92 1326.44,-245.19 1325.56,-252.13"/>
</g>
<!-- Node13 -->
<g id="node13" class="node">
<title>Node13</title>
<g id="a_node13"><a xlink:href="parse__bonus_8h.html" target="_top" xlink:title=" ">
<polygon fill="none" stroke="black" points="1126,-190.5 1126,-209.5 1230,-209.5 1230,-190.5 1126,-190.5"/>
<text text-anchor="middle" x="1178" y="-197.5" font-family="Helvetica,sans-Serif" font-size="10.00">inc/parse_bonus.h</text>
</a>
</g>
</g>
<!-- Node2&#45;&gt;Node13 -->
<g id="edge12" class="edge">
<title>Node2&#45;&gt;Node13</title>
<path fill="none" stroke="midnightblue" d="M1334.56,-243.7C1297.19,-233.51 1243.06,-218.74 1209.23,-209.52"/>
<polygon fill="midnightblue" stroke="midnightblue" points="1334.06,-247.19 1344.63,-246.44 1335.9,-240.44 1334.06,-247.19"/>
</g>
<!-- Node17 -->
<g id="node17" class="node">
<title>Node17</title>
<g id="a_node17"><a xlink:href="ray__bonus_8h.html" target="_top" xlink:title=" ">
<polygon fill="none" stroke="black" points="1442.5,-190.5 1442.5,-209.5 1535.5,-209.5 1535.5,-190.5 1442.5,-190.5"/>
<text text-anchor="middle" x="1489" y="-197.5" font-family="Helvetica,sans-Serif" font-size="10.00">inc/ray_bonus.h</text>
</a>
</g>
</g>
<!-- Node2&#45;&gt;Node17 -->
<g id="edge17" class="edge">
<title>Node2&#45;&gt;Node17</title>
<path fill="none" stroke="midnightblue" d="M1403,-242.1C1424.11,-232.01 1452.86,-218.27 1471.18,-209.52"/>
<polygon fill="midnightblue" stroke="midnightblue" points="1401.42,-238.97 1393.91,-246.44 1404.44,-245.29 1401.42,-238.97"/>
</g>
<!-- Node42 -->
<g id="node20" class="node">
<title>Node42</title>
<g id="a_node20"><a xlink:href="render_8h.html" target="_top" xlink:title=" ">
<polygon fill="none" stroke="red" points="1749,-129 1749,-148 1823,-148 1823,-129 1749,-129"/>
<text text-anchor="middle" x="1786" y="-136" font-family="Helvetica,sans-Serif" font-size="10.00">inc/render.h</text>
</a>
</g>
</g>
<!-- Node2&#45;&gt;Node42 -->
<g id="edge33" class="edge">
<title>Node2&#45;&gt;Node42</title>
<path fill="none" stroke="midnightblue" d="M1426.25,-244.48C1460.1,-236.69 1505.44,-224.86 1544,-210 1562.18,-203 1564.76,-196.84 1583,-190 1639.28,-168.89 1707.63,-153.97 1748.93,-146.06"/>
<polygon fill="midnightblue" stroke="midnightblue" points="1425.11,-241.15 1416.13,-246.77 1426.66,-247.98 1425.11,-241.15"/>
</g>
<!-- Node58 -->
<g id="node31" class="node">
<title>Node58</title>
<g id="a_node31"><a xlink:href="render__bonus_8h.html" target="_top" xlink:title=" ">
<polygon fill="none" stroke="red" points="1441.5,-129 1441.5,-148 1550.5,-148 1550.5,-129 1441.5,-129"/>
<text text-anchor="middle" x="1496" y="-136" font-family="Helvetica,sans-Serif" font-size="10.00">inc/render_bonus.h</text>
</a>
</g>
</g>
<!-- Node2&#45;&gt;Node58 -->
<g id="edge34" class="edge">
<title>Node2&#45;&gt;Node58</title>
<path fill="none" stroke="midnightblue" d="M1389.38,-238.16C1400.48,-224.59 1416.99,-205.32 1433,-190 1449.61,-174.11 1470.79,-157.85 1483.87,-148.22"/>
<polygon fill="midnightblue" stroke="midnightblue" points="1386.49,-236.17 1382.93,-246.15 1391.93,-240.57 1386.49,-236.17"/>
</g>
<!-- Node90 -->
<g id="node32" class="node">
<title>Node90</title>
<g id="a_node32"><a xlink:href="camera_8c.html" target="_top" xlink:title=" ">
<polygon fill="none" stroke="black" points="1747.5,-190.5 1747.5,-209.5 1826.5,-209.5 1826.5,-190.5 1747.5,-190.5"/>
<text text-anchor="middle" x="1787" y="-197.5" font-family="Helvetica,sans-Serif" font-size="10.00">src/camera.c</text>
</a>
</g>
</g>
<!-- Node2&#45;&gt;Node90 -->
<g id="edge35" class="edge">
<title>Node2&#45;&gt;Node90</title>
<path fill="none" stroke="midnightblue" d="M1426.31,-249.68C1496.34,-242.06 1627.11,-227.06 1738,-210 1741.08,-209.53 1744.26,-209.01 1747.45,-208.47"/>
<polygon fill="midnightblue" stroke="midnightblue" points="1425.58,-246.24 1416.01,-250.79 1426.33,-253.2 1425.58,-246.24"/>
</g>
<!-- Node91 -->
<g id="node33" class="node">
<title>Node91</title>
<g id="a_node33"><a xlink:href="camera__movement_8c.html" target="_top" xlink:title=" ">
<polygon fill="none" stroke="black" points="1592.5,-190.5 1592.5,-209.5 1729.5,-209.5 1729.5,-190.5 1592.5,-190.5"/>
<text text-anchor="middle" x="1661" y="-197.5" font-family="Helvetica,sans-Serif" font-size="10.00">src/camera_movement.c</text>
</a>
</g>
</g>
<!-- Node2&#45;&gt;Node91 -->
<g id="edge36" class="edge">
<title>Node2&#45;&gt;Node91</title>
<path fill="none" stroke="midnightblue" d="M1426.2,-245.49C1479.86,-235.32 1564.15,-219.35 1615.8,-209.56"/>
<polygon fill="midnightblue" stroke="midnightblue" points="1425.4,-242.08 1416.23,-247.38 1426.71,-248.95 1425.4,-242.08"/>
</g>
<!-- Node4 -->
<g id="node4" class="node">
<title>Node4</title>
<g id="a_node4"><a xlink:href="debug__print__entity_8c.html" target="_top" xlink:title=" ">
<polygon fill="none" stroke="black" points="214,-129 214,-148 346,-148 346,-129 214,-129"/>
<text text-anchor="middle" x="280" y="-136" font-family="Helvetica,sans-Serif" font-size="10.00">src/debug_print_entity.c</text>
</a>
</g>
</g>
<!-- Node3&#45;&gt;Node4 -->
<g id="edge3" class="edge">
<title>Node3&#45;&gt;Node4</title>
<path fill="none" stroke="midnightblue" d="M784.97,-194.17C672.48,-185.14 436.46,-165.58 355,-154 343.71,-152.4 331.54,-150.23 320.36,-148.07"/>
<polygon fill="midnightblue" stroke="midnightblue" points="784.89,-197.68 795.14,-194.99 785.45,-190.7 784.89,-197.68"/>
</g>
<!-- Node5 -->
<g id="node5" class="node">
<title>Node5</title>
<g id="a_node5"><a xlink:href="debug__print__struct_8c.html" target="_top" xlink:title=" ">
<polygon fill="none" stroke="black" points="364.5,-129 364.5,-148 497.5,-148 497.5,-129 364.5,-129"/>
<text text-anchor="middle" x="431" y="-136" font-family="Helvetica,sans-Serif" font-size="10.00">src/debug_print_struct.c</text>
</a>
</g>
</g>
<!-- Node3&#45;&gt;Node5 -->
<g id="edge4" class="edge">
<title>Node3&#45;&gt;Node5</title>
<path fill="none" stroke="midnightblue" d="M785.33,-192.07C717.2,-184.04 603.41,-169.85 506,-154 495.27,-152.25 483.71,-150.14 472.97,-148.07"/>
<polygon fill="midnightblue" stroke="midnightblue" points="785.12,-195.57 795.46,-193.26 785.93,-188.62 785.12,-195.57"/>
</g>
<!-- Node7 -->
<g id="node7" class="node">
<title>Node7</title>
<g id="a_node7"><a xlink:href="main_8c.html" target="_top" xlink:title=" ">
<polygon fill="none" stroke="black" points="1269.5,-0.5 1269.5,-19.5 1336.5,-19.5 1336.5,-0.5 1269.5,-0.5"/>
<text text-anchor="middle" x="1303" y="-7.5" font-family="Helvetica,sans-Serif" font-size="10.00">src/main.c</text>
</a>
</g>
</g>
<!-- Node6&#45;&gt;Node7 -->
<g id="edge6" class="edge">
<title>Node6&#45;&gt;Node7</title>
<path fill="none" stroke="midnightblue" d="M1303,-51.82C1303,-41 1303,-27.9 1303,-19.51"/>
<polygon fill="midnightblue" stroke="midnightblue" points="1299.5,-51.98 1303,-61.98 1306.5,-51.98 1299.5,-51.98"/>
</g>
<!-- Node9 -->
<g id="node9" class="node">
<title>Node9</title>
<g id="a_node9"><a xlink:href="parse_8c.html" target="_top" xlink:title=" ">
<polygon fill="none" stroke="black" points="515.5,-129 515.5,-148 584.5,-148 584.5,-129 515.5,-129"/>
<text text-anchor="middle" x="550" y="-136" font-family="Helvetica,sans-Serif" font-size="10.00">src/parse.c</text>
</a>
</g>
</g>
<!-- Node8&#45;&gt;Node9 -->
<g id="edge8" class="edge">
<title>Node8&#45;&gt;Node9</title>
<path fill="none" stroke="midnightblue" d="M904.48,-190.07C765.28,-169.03 726.03,-183.76 593,-154 586.23,-152.49 579.04,-150.3 572.51,-148.08"/>
<polygon fill="midnightblue" stroke="midnightblue" points="904.26,-193.58 914.68,-191.65 905.33,-186.66 904.26,-193.58"/>
</g>
<!-- Node10 -->
<g id="node10" class="node">
<title>Node10</title>
<g id="a_node10"><a xlink:href="parse__entity___a_c_l_8c.html" target="_top" xlink:title=" ">
<polygon fill="none" stroke="black" points="602.5,-129 602.5,-148 729.5,-148 729.5,-129 602.5,-129"/>
<text text-anchor="middle" x="666" y="-136" font-family="Helvetica,sans-Serif" font-size="10.00">src/parse_entity_ACL.c</text>
</a>
</g>
</g>
<!-- Node8&#45;&gt;Node10 -->
<g id="edge9" class="edge">
<title>Node8&#45;&gt;Node10</title>
<path fill="none" stroke="midnightblue" d="M904.83,-189.54C850.34,-178.12 759.54,-159.1 706.99,-148.09"/>
<polygon fill="midnightblue" stroke="midnightblue" points="904.39,-193.02 914.89,-191.64 905.82,-186.17 904.39,-193.02"/>
</g>
<!-- Node11 -->
<g id="node11" class="node">
<title>Node11</title>
<g id="a_node11"><a xlink:href="parse__entity__sp__pl__cy_8c.html" target="_top" xlink:title=" ">
<polygon fill="none" stroke="black" points="747.5,-123.5 747.5,-153.5 858.5,-153.5 858.5,-123.5 747.5,-123.5"/>
<text text-anchor="start" x="755.5" y="-141.5" font-family="Helvetica,sans-Serif" font-size="10.00">src/parse_entity_sp</text>
<text text-anchor="middle" x="803" y="-130.5" font-family="Helvetica,sans-Serif" font-size="10.00">_pl_cy.c</text>
</a>
</g>
</g>
<!-- Node8&#45;&gt;Node11 -->
<g id="edge10" class="edge">
<title>Node8&#45;&gt;Node11</title>
<path fill="none" stroke="midnightblue" d="M919.66,-186.72C895.8,-177.06 862.55,-163.6 837.64,-153.52"/>
<polygon fill="midnightblue" stroke="midnightblue" points="918.36,-189.97 928.94,-190.48 920.98,-183.48 918.36,-189.97"/>
</g>
<!-- Node12 -->
<g id="node12" class="node">
<title>Node12</title>
<g id="a_node12"><a xlink:href="parse__line_8c.html" target="_top" xlink:title=" ">
<polygon fill="none" stroke="black" points="877,-129 877,-148 969,-148 969,-129 877,-129"/>
<text text-anchor="middle" x="923" y="-136" font-family="Helvetica,sans-Serif" font-size="10.00">src/parse_line.c</text>
</a>
</g>
</g>
<!-- Node8&#45;&gt;Node12 -->
<g id="edge11" class="edge">
<title>Node8&#45;&gt;Node12</title>
<path fill="none" stroke="midnightblue" d="M941.98,-181.33C936.99,-170.33 930.79,-156.66 926.86,-148.01"/>
<polygon fill="midnightblue" stroke="midnightblue" points="938.81,-182.82 946.13,-190.48 945.19,-179.92 938.81,-182.82"/>
</g>
<!-- Node13&#45;&gt;Node6 -->
<g id="edge13" class="edge">
<title>Node13&#45;&gt;Node6</title>
<path fill="none" stroke="midnightblue" d="M1240.12,-191.33C1285.25,-184.33 1340.8,-172.27 1355,-154 1374.47,-128.96 1336.85,-96.47 1315.82,-81.18"/>
<polygon fill="midnightblue" stroke="midnightblue" points="1239.46,-187.89 1230.08,-192.83 1240.49,-194.81 1239.46,-187.89"/>
</g>
<!-- Node14 -->
<g id="node14" class="node">
<title>Node14</title>
<g id="a_node14"><a xlink:href="parse__bonus_8c.html" target="_top" xlink:title=" ">
<polygon fill="none" stroke="black" points="1113,-129 1113,-148 1217,-148 1217,-129 1113,-129"/>
<text text-anchor="middle" x="1165" y="-136" font-family="Helvetica,sans-Serif" font-size="10.00">src/parse_bonus.c</text>
</a>
</g>
</g>
<!-- Node13&#45;&gt;Node14 -->
<g id="edge14" class="edge">
<title>Node13&#45;&gt;Node14</title>
<path fill="none" stroke="midnightblue" d="M1173.99,-180.66C1171.61,-169.77 1168.71,-156.49 1166.86,-148.01"/>
<polygon fill="midnightblue" stroke="midnightblue" points="1170.58,-181.45 1176.14,-190.48 1177.42,-179.96 1170.58,-181.45"/>
</g>
<!-- Node15 -->
<g id="node15" class="node">
<title>Node15</title>
<g id="a_node15"><a xlink:href="parse__entity__sp__pl__cy__bonus_8c.html" target="_top" xlink:title=" ">
<polygon fill="none" stroke="black" points="1235.5,-123.5 1235.5,-153.5 1346.5,-153.5 1346.5,-123.5 1235.5,-123.5"/>
<text text-anchor="start" x="1243.5" y="-141.5" font-family="Helvetica,sans-Serif" font-size="10.00">src/parse_entity_sp</text>
<text text-anchor="middle" x="1291" y="-130.5" font-family="Helvetica,sans-Serif" font-size="10.00">_pl_cy_bonus.c</text>
</a>
</g>
</g>
<!-- Node13&#45;&gt;Node15 -->
<g id="edge15" class="edge">
<title>Node13&#45;&gt;Node15</title>
<path fill="none" stroke="midnightblue" d="M1203.06,-185.81C1221.25,-176.23 1245.82,-163.29 1264.37,-153.52"/>
<polygon fill="midnightblue" stroke="midnightblue" points="1201.41,-182.72 1194.19,-190.48 1204.67,-188.91 1201.41,-182.72"/>
</g>
<!-- Node16 -->
<g id="node16" class="node">
<title>Node16</title>
<g id="a_node16"><a xlink:href="parse__win__size__bonus_8c.html" target="_top" xlink:title=" ">
<polygon fill="none" stroke="black" points="987,-123.5 987,-153.5 1095,-153.5 1095,-123.5 987,-123.5"/>
<text text-anchor="start" x="995" y="-141.5" font-family="Helvetica,sans-Serif" font-size="10.00">src/parse_win_size</text>
<text text-anchor="middle" x="1041" y="-130.5" font-family="Helvetica,sans-Serif" font-size="10.00">_bonus.c</text>
</a>
</g>
</g>
<!-- Node13&#45;&gt;Node16 -->
<g id="edge16" class="edge">
<title>Node13&#45;&gt;Node16</title>
<path fill="none" stroke="midnightblue" d="M1149.13,-186.46C1126.94,-176.82 1096.29,-163.51 1073.29,-153.52"/>
<polygon fill="midnightblue" stroke="midnightblue" points="1147.8,-189.7 1158.37,-190.48 1150.59,-183.28 1147.8,-189.7"/>
</g>
<!-- Node18 -->
<g id="node18" class="node">
<title>Node18</title>
<g id="a_node18"><a xlink:href="hit__manager_8h.html" target="_top" xlink:title=" ">
<polygon fill="none" stroke="red" points="1841,-129 1841,-148 1945,-148 1945,-129 1841,-129"/>
<text text-anchor="middle" x="1893" y="-136" font-family="Helvetica,sans-Serif" font-size="10.00">inc/hit_manager.h</text>
</a>
</g>
</g>
<!-- Node17&#45;&gt;Node18 -->
<g id="edge18" class="edge">
<title>Node17&#45;&gt;Node18</title>
<path fill="none" stroke="midnightblue" d="M1545.67,-193.37C1613.91,-186.18 1731.85,-172.42 1832,-154 1841.1,-152.33 1850.88,-150.17 1859.89,-148.03"/>
<polygon fill="midnightblue" stroke="midnightblue" points="1545.14,-189.91 1535.56,-194.43 1545.87,-196.87 1545.14,-189.91"/>
</g>
<!-- Node24 -->
<g id="node19" class="node">
<title>Node24</title>
<g id="a_node19"><a xlink:href="hit__manager__bonus_8h.html" target="_top" xlink:title=" ">
<polygon fill="none" stroke="red" points="2019.5,-129 2019.5,-148 2158.5,-148 2158.5,-129 2019.5,-129"/>
<text text-anchor="middle" x="2089" y="-136" font-family="Helvetica,sans-Serif" font-size="10.00">inc/hit_manager_bonus.h</text>
</a>
</g>
</g>
<!-- Node17&#45;&gt;Node24 -->
<g id="edge19" class="edge">
<title>Node17&#45;&gt;Node24</title>
<path fill="none" stroke="midnightblue" d="M1545.71,-193.55C1660.81,-182.47 1914.3,-158.05 1954,-154 1975.22,-151.83 1998.31,-149.39 2019.3,-147.13"/>
<polygon fill="midnightblue" stroke="midnightblue" points="1545.3,-190.07 1535.68,-194.51 1545.97,-197.04 1545.3,-190.07"/>
</g>
<!-- Node17&#45;&gt;Node42 -->
<g id="edge20" class="edge">
<title>Node17&#45;&gt;Node42</title>
<path fill="none" stroke="midnightblue" d="M1541.5,-188.48C1600.96,-176.57 1696.37,-157.46 1748.69,-146.97"/>
<polygon fill="midnightblue" stroke="midnightblue" points="1540.67,-185.08 1531.55,-190.48 1542.05,-191.94 1540.67,-185.08"/>
</g>
<!-- Node17&#45;&gt;Node58 -->
<g id="edge31" class="edge">
<title>Node17&#45;&gt;Node58</title>
<path fill="none" stroke="midnightblue" d="M1491.2,-180.32C1492.47,-169.5 1494.01,-156.4 1495,-148.01"/>
<polygon fill="midnightblue" stroke="midnightblue" points="1487.7,-180.13 1490,-190.48 1494.65,-180.95 1487.7,-180.13"/>
</g>
<!-- Node43 -->
<g id="node21" class="node">
<title>Node43</title>
<g id="a_node21"><a xlink:href="render__blend__background_8c.html" target="_top" xlink:title=" ">
<polygon fill="none" stroke="black" points="2380,-62 2380,-81 2548,-81 2548,-62 2380,-62"/>
<text text-anchor="middle" x="2464" y="-69" font-family="Helvetica,sans-Serif" font-size="10.00">src/render_blend_background.c</text>
</a>
</g>
</g>
<!-- Node42&#45;&gt;Node43 -->
<g id="edge21" class="edge">
<title>Node42&#45;&gt;Node43</title>
<path fill="none" stroke="midnightblue" d="M1819.27,-125.99C1823.52,-124.83 1827.83,-123.78 1832,-123 2067.95,-78.59 2132.38,-113.52 2371,-87 2385.13,-85.43 2400.4,-83.25 2414.4,-81.06"/>
<polygon fill="midnightblue" stroke="midnightblue" points="1818.18,-122.66 1809.6,-128.87 1820.18,-129.37 1818.18,-122.66"/>
</g>
<!-- Node44 -->
<g id="node22" class="node">
<title>Node44</title>
<g id="a_node22"><a xlink:href="render__cleanup_8c.html" target="_top" xlink:title=" ">
<polygon fill="none" stroke="black" points="2566.5,-62 2566.5,-81 2683.5,-81 2683.5,-62 2566.5,-62"/>
<text text-anchor="middle" x="2625" y="-69" font-family="Helvetica,sans-Serif" font-size="10.00">src/render_cleanup.c</text>
</a>
</g>
</g>
<!-- Node42&#45;&gt;Node44 -->
<g id="edge22" class="edge">
<title>Node42&#45;&gt;Node44</title>
<path fill="none" stroke="midnightblue" d="M1818.98,-126C1823.31,-124.81 1827.73,-123.77 1832,-123 2149.55,-66.04 2237.1,-128.77 2557,-87 2567.89,-85.58 2579.63,-83.33 2590.24,-81.03"/>
<polygon fill="midnightblue" stroke="midnightblue" points="1817.69,-122.73 1809.11,-128.95 1819.7,-129.44 1817.69,-122.73"/>
</g>
<!-- Node45 -->
<g id="node23" class="node">
<title>Node45</title>
<g id="a_node23"><a xlink:href="render__draw_8c.html" target="_top" xlink:title=" ">
<polygon fill="none" stroke="black" points="1359,-62 1359,-81 1461,-81 1461,-62 1359,-62"/>
<text text-anchor="middle" x="1410" y="-69" font-family="Helvetica,sans-Serif" font-size="10.00">src/render_draw.c</text>
</a>
</g>
</g>
<!-- Node42&#45;&gt;Node45 -->
<g id="edge23" class="edge">
<title>Node42&#45;&gt;Node45</title>
<path fill="none" stroke="midnightblue" d="M1738.61,-131.11C1676.63,-122.49 1564.75,-105.99 1470,-87 1461.28,-85.25 1451.91,-83.11 1443.22,-81.02"/>
<polygon fill="midnightblue" stroke="midnightblue" points="1738.47,-134.63 1748.86,-132.53 1739.43,-127.69 1738.47,-134.63"/>
</g>
<!-- Node46 -->
<g id="node24" class="node">
<title>Node46</title>
<g id="a_node24"><a xlink:href="render__init_8c.html" target="_top" xlink:title=" ">
<polygon fill="none" stroke="black" points="1479.5,-62 1479.5,-81 1574.5,-81 1574.5,-62 1479.5,-62"/>
<text text-anchor="middle" x="1527" y="-69" font-family="Helvetica,sans-Serif" font-size="10.00">src/render_init.c</text>
</a>
</g>
</g>
<!-- Node42&#45;&gt;Node46 -->
<g id="edge24" class="edge">
<title>Node42&#45;&gt;Node46</title>
<path fill="none" stroke="midnightblue" d="M1741.41,-126.54C1700.26,-116.39 1637.47,-100.83 1583,-87 1575.5,-85.1 1567.45,-83.03 1559.86,-81.06"/>
<polygon fill="midnightblue" stroke="midnightblue" points="1740.58,-129.94 1751.13,-128.93 1742.26,-123.14 1740.58,-129.94"/>
</g>
<!-- Node47 -->
<g id="node25" class="node">
<title>Node47</title>
<g id="a_node25"><a xlink:href="render__init__mlx_8c.html" target="_top" xlink:title=" ">
<polygon fill="none" stroke="black" points="1592.5,-62 1592.5,-81 1711.5,-81 1711.5,-62 1592.5,-62"/>
<text text-anchor="middle" x="1652" y="-69" font-family="Helvetica,sans-Serif" font-size="10.00">src/render_init_mlx.c</text>
</a>
</g>
</g>
<!-- Node42&#45;&gt;Node47 -->
<g id="edge25" class="edge">
<title>Node42&#45;&gt;Node47</title>
<path fill="none" stroke="midnightblue" d="M1759.08,-124.44C1732.54,-111.57 1692.73,-92.26 1669.87,-81.17"/>
<polygon fill="midnightblue" stroke="midnightblue" points="1757.68,-127.65 1768.21,-128.87 1760.74,-121.35 1757.68,-127.65"/>
</g>
<!-- Node48 -->
<g id="node26" class="node">
<title>Node48</title>
<g id="a_node26"><a xlink:href="render__keyhook__camera_8c.html" target="_top" xlink:title=" ">
<polygon fill="none" stroke="black" points="1730,-56.5 1730,-86.5 1842,-86.5 1842,-56.5 1730,-56.5"/>
<text text-anchor="start" x="1738" y="-74.5" font-family="Helvetica,sans-Serif" font-size="10.00">src/render_keyhook</text>
<text text-anchor="middle" x="1786" y="-63.5" font-family="Helvetica,sans-Serif" font-size="10.00">_camera.c</text>
</a>
</g>
</g>
<!-- Node42&#45;&gt;Node48 -->
<g id="edge26" class="edge">
<title>Node42&#45;&gt;Node48</title>
<path fill="none" stroke="midnightblue" d="M1786,-118.41C1786,-108.22 1786,-95.9 1786,-86.59"/>
<polygon fill="midnightblue" stroke="midnightblue" points="1782.5,-118.73 1786,-128.73 1789.5,-118.73 1782.5,-118.73"/>
</g>
<!-- Node49 -->
<g id="node27" class="node">
<title>Node49</title>
<g id="a_node27"><a xlink:href="render__keyhook__colour_8c.html" target="_top" xlink:title=" ">
<polygon fill="none" stroke="black" points="1860,-56.5 1860,-86.5 1972,-86.5 1972,-56.5 1860,-56.5"/>
<text text-anchor="start" x="1868" y="-74.5" font-family="Helvetica,sans-Serif" font-size="10.00">src/render_keyhook</text>
<text text-anchor="middle" x="1916" y="-63.5" font-family="Helvetica,sans-Serif" font-size="10.00">_colour.c</text>
</a>
</g>
</g>
<!-- Node42&#45;&gt;Node49 -->
<g id="edge27" class="edge">
<title>Node42&#45;&gt;Node49</title>
<path fill="none" stroke="midnightblue" d="M1812.32,-124.34C1834.2,-113.4 1865.28,-97.86 1887.7,-86.65"/>
<polygon fill="midnightblue" stroke="midnightblue" points="1810.64,-121.27 1803.26,-128.87 1813.77,-127.53 1810.64,-121.27"/>
</g>
<!-- Node50 -->
<g id="node28" class="node">
<title>Node50</title>
<g id="a_node28"><a xlink:href="render__keyhook__hittable_8c.html" target="_top" xlink:title=" ">
<polygon fill="none" stroke="black" points="1990,-56.5 1990,-86.5 2102,-86.5 2102,-56.5 1990,-56.5"/>
<text text-anchor="start" x="1998" y="-74.5" font-family="Helvetica,sans-Serif" font-size="10.00">src/render_keyhook</text>
<text text-anchor="middle" x="2046" y="-63.5" font-family="Helvetica,sans-Serif" font-size="10.00">_hittable.c</text>
</a>
</g>
</g>
<!-- Node42&#45;&gt;Node50 -->
<g id="edge28" class="edge">
<title>Node42&#45;&gt;Node50</title>
<path fill="none" stroke="midnightblue" d="M1821.77,-125.94C1825.22,-124.91 1828.67,-123.92 1832,-123 1861.26,-114.95 1936.73,-97.42 1989.71,-85.29"/>
<polygon fill="midnightblue" stroke="midnightblue" points="1820.71,-122.61 1812.17,-128.88 1822.76,-129.3 1820.71,-122.61"/>
</g>
<!-- Node51 -->
<g id="node29" class="node">
<title>Node51</title>
<g id="a_node29"><a xlink:href="render__keyhook__light_8c.html" target="_top" xlink:title=" ">
<polygon fill="none" stroke="black" points="2120,-56.5 2120,-86.5 2232,-86.5 2232,-56.5 2120,-56.5"/>
<text text-anchor="start" x="2128" y="-74.5" font-family="Helvetica,sans-Serif" font-size="10.00">src/render_keyhook</text>
<text text-anchor="middle" x="2176" y="-63.5" font-family="Helvetica,sans-Serif" font-size="10.00">_light.c</text>
</a>
</g>
</g>
<!-- Node42&#45;&gt;Node51 -->
<g id="edge29" class="edge">
<title>Node42&#45;&gt;Node51</title>
<path fill="none" stroke="midnightblue" d="M1820.22,-125.98C1824.17,-124.87 1828.15,-123.85 1832,-123 1954.1,-96.1 1987.86,-108.63 2111,-87 2113.85,-86.5 2116.76,-85.96 2119.69,-85.39"/>
<polygon fill="midnightblue" stroke="midnightblue" points="1819.19,-122.64 1810.61,-128.86 1821.19,-129.35 1819.19,-122.64"/>
</g>
<!-- Node52 -->
<g id="node30" class="node">
<title>Node52</title>
<g id="a_node30"><a xlink:href="render__keyhook__options_8c.html" target="_top" xlink:title=" ">
<polygon fill="none" stroke="black" points="2250,-56.5 2250,-86.5 2362,-86.5 2362,-56.5 2250,-56.5"/>
<text text-anchor="start" x="2258" y="-74.5" font-family="Helvetica,sans-Serif" font-size="10.00">src/render_keyhook</text>
<text text-anchor="middle" x="2306" y="-63.5" font-family="Helvetica,sans-Serif" font-size="10.00">_options.c</text>
</a>
</g>
</g>
<!-- Node42&#45;&gt;Node52 -->
<g id="edge30" class="edge">
<title>Node42&#45;&gt;Node52</title>
<path fill="none" stroke="midnightblue" d="M1819.29,-126.08C1823.53,-124.9 1827.84,-123.83 1832,-123 2010.97,-87.36 2060.67,-114.93 2241,-87 2243.86,-86.56 2246.77,-86.06 2249.72,-85.53"/>
<polygon fill="midnightblue" stroke="midnightblue" points="1818.19,-122.75 1809.62,-128.97 1820.2,-129.46 1818.19,-122.75"/>
</g>
<!-- Node58&#45;&gt;Node6 -->
<g id="edge32" class="edge">
<title>Node58&#45;&gt;Node6</title>
<path fill="none" stroke="midnightblue" d="M1460.67,-125.6C1422.4,-112.71 1362.3,-92.47 1328.43,-81.06"/>
<polygon fill="midnightblue" stroke="midnightblue" points="1459.78,-128.99 1470.37,-128.87 1462.01,-122.36 1459.78,-128.99"/>
</g>
<!-- Node93&#45;&gt;Node3 -->
<g id="edge42" class="edge">
<title>Node93&#45;&gt;Node3</title>
<path fill="none" stroke="midnightblue" d="M1107.11,-244.79C1046.17,-234.57 953.51,-219.03 896.52,-209.47"/>
<polygon fill="midnightblue" stroke="midnightblue" points="1106.54,-248.24 1116.98,-246.44 1107.69,-241.34 1106.54,-248.24"/>
</g>
<!-- Node93&#45;&gt;Node8 -->
<g id="edge46" class="edge">
<title>Node93&#45;&gt;Node8</title>
<path fill="none" stroke="midnightblue" d="M1123.69,-244.02C1082.51,-233.82 1022.03,-218.84 984.38,-209.52"/>
<polygon fill="midnightblue" stroke="midnightblue" points="1122.91,-247.44 1133.46,-246.44 1124.59,-240.64 1122.91,-247.44"/>
</g>
<!-- Node93&#45;&gt;Node13 -->
<g id="edge47" class="edge">
<title>Node93&#45;&gt;Node13</title>
<path fill="none" stroke="midnightblue" d="M1171.5,-236.1C1173.16,-227.14 1175.06,-216.86 1176.38,-209.75"/>
<polygon fill="midnightblue" stroke="midnightblue" points="1168.03,-235.61 1169.65,-246.08 1174.91,-236.89 1168.03,-235.61"/>
</g>
<!-- Node93&#45;&gt;Node17 -->
<g id="edge49" class="edge">
<title>Node93&#45;&gt;Node17</title>
<path fill="none" stroke="midnightblue" d="M1228.91,-244.75C1290.98,-234.31 1385.91,-218.34 1442.29,-208.86"/>
<polygon fill="midnightblue" stroke="midnightblue" points="1228.14,-241.33 1218.86,-246.44 1229.31,-248.24 1228.14,-241.33"/>
</g>
<!-- Node93&#45;&gt;Node42 -->
<g id="edge50" class="edge">
<title>Node93&#45;&gt;Node42</title>
<path fill="none" stroke="midnightblue" d="M1210.76,-243.97C1274.27,-227.67 1390.62,-198.21 1433,-190 1547.42,-167.84 1684.44,-150.96 1748.96,-143.58"/>
<polygon fill="midnightblue" stroke="midnightblue" points="1209.85,-240.59 1201.04,-246.47 1211.59,-247.37 1209.85,-240.59"/>
</g>
<!-- Node93&#45;&gt;Node58 -->
<g id="edge51" class="edge">
<title>Node93&#45;&gt;Node58</title>
<path fill="none" stroke="midnightblue" d="M1201.95,-243.05C1268.25,-219.7 1413.53,-168.54 1471.45,-148.14"/>
<polygon fill="midnightblue" stroke="midnightblue" points="1200.66,-239.79 1192.39,-246.41 1202.98,-246.39 1200.66,-239.79"/>
</g>
<!-- Node94 -->
<g id="node36" class="node">
<title>Node94</title>
<g id="a_node36"><a xlink:href="check_8h.html" target="_top" xlink:title=" ">
<polygon fill="none" stroke="red" points="124.5,-129 124.5,-148 195.5,-148 195.5,-129 124.5,-129"/>
<text text-anchor="middle" x="160" y="-136" font-family="Helvetica,sans-Serif" font-size="10.00">inc/check.h</text>
</a>
</g>
</g>
<!-- Node93&#45;&gt;Node94 -->
<g id="edge40" class="edge">
<title>Node93&#45;&gt;Node94</title>
<path fill="none" stroke="midnightblue" d="M1100.71,-247.38C990.63,-234.96 765.13,-209.78 574,-190 410.1,-173.04 366.35,-187.46 205,-154 197.93,-152.53 190.4,-150.36 183.57,-148.14"/>
<polygon fill="midnightblue" stroke="midnightblue" points="1100.35,-250.86 1110.68,-248.5 1101.14,-243.9 1100.35,-250.86"/>
</g>
<!-- Node102 -->
<g id="node37" class="node">
<title>Node102</title>
<g id="a_node37"><a xlink:href="check__bonus_8h.html" target="_top" xlink:title=" ">
<polygon fill="none" stroke="red" points="0,-129 0,-148 106,-148 106,-129 0,-129"/>
<text text-anchor="middle" x="53" y="-136" font-family="Helvetica,sans-Serif" font-size="10.00">inc/check_bonus.h</text>
</a>
</g>
</g>
<!-- Node93&#45;&gt;Node102 -->
<g id="edge41" class="edge">
<title>Node93&#45;&gt;Node102</title>
<path fill="none" stroke="midnightblue" d="M1100.76,-254.39C965.3,-252.44 650.17,-244.27 388,-210 275.73,-195.33 145.05,-163.45 85.52,-148.1"/>
<polygon fill="midnightblue" stroke="midnightblue" points="1100.93,-257.89 1110.97,-254.53 1101.02,-250.89 1100.93,-257.89"/>
</g>
<!-- Node107 -->
<g id="node38" class="node">
<title>Node107</title>
<g id="a_node38"><a xlink:href="error__msg_8h.html" target="_top" xlink:title=" ">
<polygon fill="none" stroke="red" points="473,-190.5 473,-209.5 565,-209.5 565,-190.5 473,-190.5"/>
<text text-anchor="middle" x="519" y="-197.5" font-family="Helvetica,sans-Serif" font-size="10.00">inc/error_msg.h</text>
</a>
</g>
</g>
<!-- Node93&#45;&gt;Node107 -->
<g id="edge43" class="edge">
<title>Node93&#45;&gt;Node107</title>
<path fill="none" stroke="midnightblue" d="M1100.98,-249.42C968.87,-238.43 677.9,-214.22 565.02,-204.83"/>
<polygon fill="midnightblue" stroke="midnightblue" points="1100.72,-252.91 1110.97,-250.26 1101.3,-245.94 1100.72,-252.91"/>
</g>
<!-- Node118 -->
<g id="node39" class="node">
<title>Node118</title>
<g id="a_node39"><a xlink:href="ray_8h.html" target="_top" xlink:title=" ">
<polygon fill="none" stroke="black" points="397.5,-190.5 397.5,-209.5 454.5,-209.5 454.5,-190.5 397.5,-190.5"/>
<text text-anchor="middle" x="426" y="-197.5" font-family="Helvetica,sans-Serif" font-size="10.00">inc/ray.h</text>
</a>
</g>
</g>
<!-- Node93&#45;&gt;Node118 -->
<g id="edge48" class="edge">
<title>Node93&#45;&gt;Node118</title>
<path fill="none" stroke="midnightblue" d="M1100.37,-254.46C974.45,-252.62 695.81,-244.61 464,-210 460.92,-209.54 457.71,-208.95 454.53,-208.3"/>
<polygon fill="midnightblue" stroke="midnightblue" points="1100.57,-257.96 1110.62,-254.6 1100.67,-250.96 1100.57,-257.96"/>
</g>
<!-- Node107&#45;&gt;Node94 -->
<g id="edge44" class="edge">
<title>Node107&#45;&gt;Node94</title>
<path fill="none" stroke="midnightblue" d="M462.87,-190.03C346.77,-173.17 314.77,-179.14 205,-154 198.12,-152.42 190.78,-150.27 184.07,-148.11"/>
<polygon fill="midnightblue" stroke="midnightblue" points="462.46,-193.51 472.87,-191.51 463.49,-186.58 462.46,-193.51"/>
</g>
<!-- Node107&#45;&gt;Node102 -->
<g id="edge45" class="edge">
<title>Node107&#45;&gt;Node102</title>
<path fill="none" stroke="midnightblue" d="M462.95,-190.08C307.14,-170.05 265.2,-179.23 115,-154 105.52,-152.41 95.32,-150.22 85.99,-148.03"/>
<polygon fill="midnightblue" stroke="midnightblue" points="462.52,-193.55 472.89,-191.38 463.42,-186.61 462.52,-193.55"/>
</g>
<!-- Node120 -->
<g id="node41" class="node">
<title>Node120</title>
<g id="a_node41"><a xlink:href="utils__quaternion_8c.html" target="_top" xlink:title=" ">
<polygon fill="none" stroke="black" points="2349.5,-302.5 2349.5,-321.5 2470.5,-321.5 2470.5,-302.5 2349.5,-302.5"/>
<text text-anchor="middle" x="2410" y="-309.5" font-family="Helvetica,sans-Serif" font-size="10.00">src/utils_quaternion.c</text>
</a>
</g>
</g>
<!-- Node119&#45;&gt;Node120 -->
<g id="edge53" class="edge">
<title>Node119&#45;&gt;Node120</title>
<path fill="none" stroke="midnightblue" d="M2390.68,-348.98C2395.6,-339.82 2401.36,-329.09 2405.3,-321.75"/>
<polygon fill="midnightblue" stroke="midnightblue" points="2387.44,-347.62 2385.79,-358.08 2393.6,-350.93 2387.44,-347.62"/>
</g>
<!-- Node121&#45;&gt;Node2 -->
<g id="edge55" class="edge">
<title>Node121&#45;&gt;Node2</title>
<path fill="none" stroke="midnightblue" d="M1860.36,-350.67C1846.42,-335.25 1823.29,-312.9 1798,-302 1729.91,-272.66 1508.08,-261.64 1416.31,-258.27"/>
<polygon fill="midnightblue" stroke="midnightblue" points="1857.9,-353.18 1867.11,-358.41 1863.17,-348.58 1857.9,-353.18"/>
</g>
<!-- Node121&#45;&gt;Node18 -->
<g id="edge61" class="edge">
<title>Node121&#45;&gt;Node18</title>
<path fill="none" stroke="midnightblue" d="M1875.57,-348.14C1879.48,-301.36 1889.5,-181.39 1892.28,-148.15"/>
<polygon fill="midnightblue" stroke="midnightblue" points="1872.07,-348.1 1874.72,-358.36 1879.04,-348.69 1872.07,-348.1"/>
</g>
<!-- Node121&#45;&gt;Node24 -->
<g id="edge62" class="edge">
<title>Node121&#45;&gt;Node24</title>
<path fill="none" stroke="midnightblue" d="M1933.51,-364.9C2000.12,-361.15 2101.93,-350.75 2126,-322 2170.41,-268.95 2114.72,-177.06 2095.25,-148.34"/>
<polygon fill="midnightblue" stroke="midnightblue" points="1932.93,-361.42 1923.13,-365.45 1933.3,-368.41 1932.93,-361.42"/>
</g>
<!-- Node121&#45;&gt;Node42 -->
<g id="edge63" class="edge">
<title>Node121&#45;&gt;Node42</title>
<path fill="none" stroke="midnightblue" d="M1873.2,-348.08C1871.06,-314.37 1863.27,-242.55 1835,-190 1825.74,-172.79 1808.91,-157.36 1797.6,-148.22"/>
<polygon fill="midnightblue" stroke="midnightblue" points="1869.71,-348.52 1873.74,-358.32 1876.7,-348.15 1869.71,-348.52"/>
</g>
<!-- Node122 -->
<g id="node43" class="node">
<title>Node122</title>
<g id="a_node43"><a xlink:href="colour_8h.html" target="_top" xlink:title=" ">
<polygon fill="none" stroke="red" points="1921,-302.5 1921,-321.5 1993,-321.5 1993,-302.5 1921,-302.5"/>
<text text-anchor="middle" x="1957" y="-309.5" font-family="Helvetica,sans-Serif" font-size="10.00">inc/colour.h</text>
</a>
</g>
</g>
<!-- Node121&#45;&gt;Node122 -->
<g id="edge56" class="edge">
<title>Node121&#45;&gt;Node122</title>
<path fill="none" stroke="midnightblue" d="M1896.1,-352.62C1911.26,-342.76 1930.88,-329.99 1943.7,-321.65"/>
<polygon fill="midnightblue" stroke="midnightblue" points="1893.81,-349.94 1887.34,-358.32 1897.63,-355.8 1893.81,-349.94"/>
</g>
<!-- Node124 -->
<g id="node44" class="node">
<title>Node124</title>
<g id="a_node44"><a xlink:href="colour__bonus_8h.html" target="_top" xlink:title=" ">
<polygon fill="none" stroke="red" points="1265.5,-302.5 1265.5,-321.5 1372.5,-321.5 1372.5,-302.5 1265.5,-302.5"/>
<text text-anchor="middle" x="1319" y="-309.5" font-family="Helvetica,sans-Serif" font-size="10.00">inc/colour_bonus.h</text>
</a>
</g>
</g>
<!-- Node121&#45;&gt;Node124 -->
<g id="edge57" class="edge">
<title>Node121&#45;&gt;Node124</title>
<path fill="none" stroke="midnightblue" d="M1814.67,-362.55C1722.11,-355.39 1537.81,-340.24 1382,-322 1378.93,-321.64 1375.77,-321.25 1372.59,-320.84"/>
<polygon fill="midnightblue" stroke="midnightblue" points="1814.44,-366.04 1824.68,-363.32 1814.98,-359.06 1814.44,-366.04"/>
</g>
<!-- Node126 -->
<g id="node45" class="node">
<title>Node126</title>
<g id="a_node45"><a xlink:href="utils__interval_8c.html" target="_top" xlink:title=" ">
<polygon fill="none" stroke="black" points="2011,-302.5 2011,-321.5 2117,-321.5 2117,-302.5 2011,-302.5"/>
<text text-anchor="middle" x="2064" y="-309.5" font-family="Helvetica,sans-Serif" font-size="10.00">src/utils_interval.c</text>
</a>
</g>
</g>
<!-- Node121&#45;&gt;Node126 -->
<g id="edge64" class="edge">
<title>Node121&#45;&gt;Node126</title>
<path fill="none" stroke="midnightblue" d="M1913.76,-355.7C1949.62,-345.51 2001.57,-330.74 2034.03,-321.52"/>
<polygon fill="midnightblue" stroke="midnightblue" points="1912.77,-352.34 1904.11,-358.44 1914.68,-359.08 1912.77,-352.34"/>
</g>
<!-- Node127 -->
<g id="node46" class="node">
<title>Node127</title>
<g id="a_node46"><a xlink:href="utils__math_8c.html" target="_top" xlink:title=" ">
<polygon fill="none" stroke="black" points="1391,-302.5 1391,-321.5 1485,-321.5 1485,-302.5 1391,-302.5"/>
<text text-anchor="middle" x="1438" y="-309.5" font-family="Helvetica,sans-Serif" font-size="10.00">src/utils_math.c</text>
</a>
</g>
</g>
<!-- Node121&#45;&gt;Node127 -->
<g id="edge65" class="edge">
<title>Node121&#45;&gt;Node127</title>
<path fill="none" stroke="midnightblue" d="M1814.55,-360.73C1739.67,-352.66 1607.11,-337.78 1494,-322 1491.07,-321.59 1488.07,-321.16 1485.03,-320.7"/>
<polygon fill="midnightblue" stroke="midnightblue" points="1814.41,-364.24 1824.73,-361.83 1815.16,-357.28 1814.41,-364.24"/>
</g>
<!-- Node128 -->
<g id="node47" class="node">
<title>Node128</title>
<g id="a_node47"><a xlink:href="utils__math__bonus_8c.html" target="_top" xlink:title=" ">
<polygon fill="none" stroke="black" points="1503,-302.5 1503,-321.5 1631,-321.5 1631,-302.5 1503,-302.5"/>
<text text-anchor="middle" x="1567" y="-309.5" font-family="Helvetica,sans-Serif" font-size="10.00">src/utils_math_bonus.c</text>
</a>
</g>
</g>
<!-- Node121&#45;&gt;Node128 -->
<g id="edge66" class="edge">
<title>Node121&#45;&gt;Node128</title>
<path fill="none" stroke="midnightblue" d="M1815.24,-356.66C1757.22,-346.46 1669.55,-331.04 1615.42,-321.52"/>
<polygon fill="midnightblue" stroke="midnightblue" points="1814.9,-360.16 1825.35,-358.44 1816.11,-353.26 1814.9,-360.16"/>
</g>
<!-- Node129 -->
<g id="node48" class="node">
<title>Node129</title>
<g id="a_node48"><a xlink:href="utils__random__bonus_8c.html" target="_top" xlink:title=" ">
<polygon fill="none" stroke="black" points="1649,-302.5 1649,-321.5 1789,-321.5 1789,-302.5 1649,-302.5"/>
<text text-anchor="middle" x="1719" y="-309.5" font-family="Helvetica,sans-Serif" font-size="10.00">src/utils_random_bonus.c</text>
</a>
</g>
</g>
<!-- Node121&#45;&gt;Node129 -->
<g id="edge67" class="edge">
<title>Node121&#45;&gt;Node129</title>
<path fill="none" stroke="midnightblue" d="M1839.67,-355.04C1810.5,-344.88 1769.36,-330.55 1743.45,-321.52"/>
<polygon fill="midnightblue" stroke="midnightblue" points="1838.84,-358.46 1849.44,-358.44 1841.15,-351.85 1838.84,-358.46"/>
</g>
<!-- Node121&#45;&gt;Node130 -->
<g id="edge68" class="edge">
<title>Node121&#45;&gt;Node130</title>
<path fill="none" stroke="midnightblue" d="M1933.21,-358.09C2000.67,-347.95 2110.13,-331.48 2176.46,-321.51"/>
<polygon fill="midnightblue" stroke="midnightblue" points="1932.53,-354.66 1923.16,-359.6 1933.57,-361.58 1932.53,-354.66"/>
</g>
<!-- Node124&#45;&gt;Node3 -->
<g id="edge58" class="edge">
<title>Node124&#45;&gt;Node3</title>
<path fill="none" stroke="midnightblue" d="M1264.91,-300.47C1220.92,-291.75 1157.3,-278.75 1102,-266 1020.9,-247.3 926.12,-222.45 877.82,-209.56"/>
<polygon fill="midnightblue" stroke="midnightblue" points="1264.33,-303.93 1274.82,-302.43 1265.69,-297.06 1264.33,-303.93"/>
</g>
<!-- Node124&#45;&gt;Node92 -->
<g id="edge59" class="edge">
<title>Node124&#45;&gt;Node92</title>
<path fill="none" stroke="midnightblue" d="M1382.56,-302.02C1614.53,-277.62 1879.29,-263.62 1978.67,-258.85"/>
<polygon fill="midnightblue" stroke="midnightblue" points="1382.16,-298.54 1372.58,-303.08 1382.9,-305.51 1382.16,-298.54"/>
</g>
<!-- Node124&#45;&gt;Node93 -->
<g id="edge60" class="edge">
<title>Node124&#45;&gt;Node93</title>
<path fill="none" stroke="midnightblue" d="M1285.55,-299.04C1257.14,-288.88 1217.06,-274.55 1191.81,-265.52"/>
<polygon fill="midnightblue" stroke="midnightblue" points="1284.48,-302.37 1295.07,-302.44 1286.84,-295.78 1284.48,-302.37"/>
</g>
</g>
</svg>
